<?xml version="1.0" encoding="utf-8"?>
<!-- Generator: Adobe Illustrator 19.0.1, SVG Export Plug-In . SVG Version: 6.00 Build 0)  -->
<svg version="1.1" id="Layer_1" xmlns="http://www.w3.org/2000/svg" xmlns:xlink="http://www.w3.org/1999/xlink" x="0px" y="0px"
	 viewBox="0 0 271.3 19.3" style="enable-background:new 0 0 271.3 19.3;" xml:space="preserve">
<style type="text/css">
	.st0{fill:#CDCAC9;}
	.st1{fill:#FFFFFF;}
	.st2{fill:#3399CC;}
	.st3{fill:#CC6632;}
</style>
<g>
	<path class="st3" d="M9.6,11.1H3.4L2,15H0L5.6,0.2h1.7L13,15h-2L9.6,11.1z M4,9.5h5L6.5,2.6L4,9.5z"/>
	<path class="st3" d="M36.1,10.3c-0.1,0.7-0.3,1.3-0.5,1.9c-0.3,0.6-0.6,1.1-1.1,1.5c-0.5,0.4-1,0.8-1.7,1c-0.7,0.2-1.4,0.4-2.3,0.4
		c-0.9,0-1.7-0.2-2.4-0.5c-0.7-0.3-1.3-0.8-1.8-1.4c-0.5-0.6-0.9-1.3-1.2-2.2c-0.3-0.8-0.4-1.8-0.4-2.8V6.9c0-1,0.1-2,0.4-2.8
		c0.3-0.8,0.7-1.6,1.2-2.2c0.5-0.6,1.1-1.1,1.9-1.4C28.9,0.2,29.8,0,30.7,0c0.8,0,1.6,0.1,2.2,0.4c0.6,0.2,1.2,0.6,1.6,1
		c0.4,0.4,0.8,1,1.1,1.6c0.3,0.6,0.4,1.3,0.5,2h-2c-0.1-0.5-0.2-1-0.3-1.4c-0.2-0.4-0.4-0.8-0.6-1.1c-0.3-0.3-0.6-0.5-1-0.7
		c-0.4-0.2-0.9-0.2-1.5-0.2c-0.7,0-1.2,0.1-1.7,0.4S28,2.6,27.7,3s-0.6,1-0.8,1.7c-0.2,0.6-0.3,1.4-0.3,2.1v1.5c0,0.7,0.1,1.4,0.2,2
		c0.2,0.6,0.4,1.2,0.7,1.7c0.3,0.5,0.7,0.9,1.2,1.1c0.5,0.3,1,0.4,1.7,0.4c0.6,0,1.1-0.1,1.6-0.2c0.4-0.1,0.8-0.4,1.1-0.6
		c0.3-0.3,0.5-0.6,0.7-1c0.2-0.4,0.3-0.9,0.4-1.4H36.1z"/>
	<path class="st3" d="M60.5,8.1c0,1.1-0.1,2.1-0.4,3s-0.7,1.6-1.2,2.2c-0.5,0.6-1.1,1.1-1.9,1.4c-0.7,0.3-1.5,0.5-2.4,0.5
		c-0.9,0-1.7-0.2-2.4-0.5c-0.7-0.3-1.4-0.8-1.9-1.4c-0.5-0.6-0.9-1.4-1.2-2.2s-0.4-1.9-0.4-3V7.1c0-1.1,0.1-2.1,0.4-3
		s0.7-1.6,1.2-2.2c0.5-0.6,1.1-1.1,1.9-1.4C52.9,0.2,53.7,0,54.5,0c0.9,0,1.7,0.2,2.4,0.5c0.7,0.3,1.4,0.8,1.9,1.4
		c0.5,0.6,0.9,1.4,1.2,2.2s0.4,1.9,0.4,3V8.1z M58.5,7.1c0-0.9-0.1-1.7-0.3-2.3c-0.2-0.7-0.4-1.2-0.8-1.7c-0.3-0.5-0.8-0.8-1.3-1
		s-1.1-0.4-1.7-0.4c-0.6,0-1.1,0.1-1.6,0.4s-0.9,0.6-1.3,1c-0.3,0.5-0.6,1-0.8,1.7c-0.2,0.7-0.3,1.5-0.3,2.3v1
		c0,0.9,0.1,1.7,0.3,2.3c0.2,0.7,0.5,1.2,0.8,1.7c0.4,0.5,0.8,0.8,1.3,1c0.5,0.2,1,0.4,1.6,0.4c0.6,0,1.2-0.1,1.7-0.4
		c0.5-0.2,0.9-0.6,1.3-1c0.3-0.5,0.6-1,0.8-1.7s0.3-1.5,0.3-2.3V7.1z"/>
	<path class="st3" d="M79.2,9h-3.5v6h-2V0.2h4.9c1.7,0,2.9,0.4,3.8,1.1s1.3,1.9,1.3,3.3c0,0.9-0.2,1.7-0.7,2.4S81.9,8.2,81,8.6
		l3.5,6.3V15h-2.1L79.2,9z M75.7,7.4h3c0.5,0,1-0.1,1.4-0.2c0.4-0.1,0.7-0.3,1-0.6c0.3-0.2,0.5-0.5,0.6-0.9c0.1-0.3,0.2-0.7,0.2-1.1
		c0-0.4-0.1-0.8-0.2-1.2s-0.3-0.6-0.6-0.9c-0.3-0.2-0.6-0.4-1-0.6c-0.4-0.1-0.9-0.2-1.4-0.2h-2.9V7.4z"/>
	<path class="st3" d="M108.3,15h-2L98.9,3.6V15h-2V0.2h2l7.4,11.4V0.2h1.9V15z"/>
	<path class="st3" d="M137.6,15V0.2h4.8c0.8,0,1.4,0.1,2,0.2s1.1,0.4,1.5,0.7c0.4,0.3,0.7,0.7,1,1.2c0.2,0.5,0.3,1.1,0.3,1.8
		c0,0.7-0.2,1.3-0.6,1.8c-0.4,0.5-0.9,0.9-1.6,1.2c0.4,0.1,0.8,0.3,1.1,0.5c0.3,0.2,0.6,0.5,0.8,0.8c0.2,0.3,0.4,0.6,0.5,1
		c0.1,0.4,0.2,0.8,0.2,1.2c0,0.7-0.1,1.3-0.3,1.8c-0.2,0.5-0.6,1-1,1.3c-0.4,0.4-0.9,0.6-1.5,0.8c-0.6,0.2-1.3,0.3-2,0.3H137.6z
		 M139.6,6.5h2.9c0.4,0,0.8-0.1,1.1-0.2c0.3-0.1,0.6-0.3,0.9-0.5c0.2-0.2,0.4-0.5,0.6-0.7s0.2-0.6,0.2-1c0-0.8-0.2-1.4-0.7-1.8
		c-0.5-0.4-1.2-0.6-2.2-0.6h-2.9V6.5z M139.6,8.1v5.3h3.2c0.5,0,0.9-0.1,1.2-0.2c0.4-0.1,0.7-0.3,0.9-0.5s0.4-0.5,0.6-0.8
		c0.1-0.3,0.2-0.7,0.2-1.1s-0.1-0.8-0.2-1.1c-0.1-0.3-0.3-0.6-0.5-0.8c-0.2-0.2-0.5-0.4-0.9-0.5c-0.4-0.1-0.8-0.2-1.3-0.2H139.6z"/>
	<path class="st3" d="M165.9,5.7c-0.2,0-0.3,0-0.5-0.1c-0.1,0-0.3,0-0.5,0c-0.6,0-1.2,0.1-1.6,0.4c-0.4,0.3-0.7,0.7-0.9,1.1V15h-1.9
		V4h1.8l0,1.3c0.3-0.5,0.6-0.8,1.1-1.1c0.4-0.3,0.9-0.4,1.6-0.4c0.1,0,0.3,0,0.5,0s0.3,0.1,0.4,0.1V5.7z"/>
	<path class="st3" d="M182.4,15.2c-0.8,0-1.5-0.1-2.1-0.4s-1.1-0.6-1.6-1.1c-0.4-0.5-0.8-1-1-1.7c-0.2-0.6-0.4-1.4-0.4-2.1V9.4
		c0-0.9,0.1-1.7,0.4-2.4c0.3-0.7,0.6-1.3,1.1-1.8c0.4-0.5,1-0.8,1.5-1.1c0.6-0.3,1.2-0.4,1.8-0.4c0.8,0,1.5,0.1,2,0.4
		c0.6,0.3,1,0.7,1.4,1.1c0.4,0.5,0.6,1,0.8,1.7s0.3,1.4,0.3,2.1V10h-7.4c0,0.5,0.1,1,0.2,1.4c0.2,0.4,0.4,0.8,0.6,1.1
		c0.3,0.3,0.6,0.6,1,0.8c0.4,0.2,0.8,0.3,1.3,0.3c0.7,0,1.2-0.1,1.7-0.4c0.5-0.3,0.9-0.6,1.2-1.1l1.1,0.9c-0.2,0.3-0.4,0.5-0.6,0.8
		c-0.3,0.3-0.5,0.5-0.9,0.7s-0.7,0.4-1.2,0.5C183.4,15.1,182.9,15.2,182.4,15.2z M182.2,5.3c-0.4,0-0.7,0.1-1,0.2
		c-0.3,0.1-0.6,0.3-0.9,0.6c-0.2,0.3-0.5,0.6-0.6,1c-0.2,0.4-0.3,0.8-0.3,1.3h5.5V8.3c0-0.4-0.1-0.7-0.2-1.1c-0.1-0.4-0.2-0.7-0.5-1
		c-0.2-0.3-0.5-0.5-0.8-0.7S182.6,5.3,182.2,5.3z"/>
	<path class="st3" d="M208.9,12.4L211,4h1.9l-3.2,11h-1.5l-2.7-8.3l-2.6,8.3h-1.5l-3.2-11h1.9l2.2,8.2l2.6-8.2h1.5L208.9,12.4z"/>
	<path class="st3" d="M225.2,1.1c0-0.3,0.1-0.6,0.3-0.8c0.2-0.2,0.5-0.3,0.8-0.3c0.4,0,0.6,0.1,0.8,0.3c0.2,0.2,0.3,0.5,0.3,0.8
		c0,0.3-0.1,0.6-0.3,0.8c-0.2,0.2-0.5,0.3-0.8,0.3c-0.4,0-0.6-0.1-0.8-0.3C225.3,1.6,225.2,1.4,225.2,1.1z M227.2,15h-1.9V4h1.9V15z
		"/>
	<path class="st3" d="M242.4,4l0.1,1.4c0.4-0.5,0.9-0.9,1.4-1.2c0.6-0.3,1.2-0.4,1.9-0.4c0.5,0,1,0.1,1.4,0.2s0.8,0.4,1.1,0.7
		c0.3,0.3,0.5,0.7,0.7,1.2c0.2,0.5,0.2,1.1,0.2,1.8V15h-1.9V7.8c0-0.4,0-0.8-0.1-1.1c-0.1-0.3-0.2-0.5-0.4-0.7
		c-0.2-0.2-0.4-0.3-0.7-0.4s-0.6-0.1-0.9-0.1c-0.6,0-1.1,0.2-1.6,0.5c-0.5,0.3-0.8,0.8-1.1,1.3V15h-1.9V4H242.4z"/>
	<path class="st3" d="M262,9.4c0-0.8,0.1-1.6,0.3-2.3c0.2-0.7,0.5-1.3,0.9-1.8c0.4-0.5,0.8-0.9,1.4-1.1s1.1-0.4,1.8-0.4
		c0.7,0,1.3,0.1,1.8,0.4s1,0.6,1.3,1.1l0.1-1.2h1.7v10.7c0,0.7-0.1,1.4-0.3,1.9c-0.2,0.6-0.5,1-1,1.4s-0.9,0.7-1.5,0.9
		c-0.6,0.2-1.2,0.3-1.9,0.3c-0.3,0-0.6,0-1-0.1c-0.4-0.1-0.7-0.2-1.1-0.3s-0.7-0.3-1.1-0.6c-0.3-0.2-0.6-0.5-0.9-0.9l1-1.1
		c0.2,0.3,0.5,0.5,0.7,0.7c0.2,0.2,0.5,0.3,0.7,0.5s0.5,0.2,0.8,0.2s0.5,0.1,0.8,0.1c0.4,0,0.8-0.1,1.2-0.2s0.7-0.3,0.9-0.6
		c0.3-0.2,0.4-0.6,0.6-0.9s0.2-0.8,0.2-1.3v-1c-0.4,0.4-0.8,0.7-1.3,1s-1.1,0.3-1.8,0.3c-0.7,0-1.2-0.1-1.8-0.4
		c-0.5-0.3-1-0.7-1.4-1.2c-0.4-0.5-0.7-1.1-0.9-1.8c-0.2-0.7-0.3-1.4-0.3-2.2V9.4z M263.9,9.6c0,0.5,0.1,1.1,0.2,1.5
		c0.1,0.5,0.3,0.9,0.5,1.3c0.2,0.4,0.5,0.6,0.9,0.9c0.4,0.2,0.8,0.3,1.3,0.3c0.3,0,0.6,0,0.9-0.1c0.3-0.1,0.5-0.2,0.7-0.3
		s0.4-0.3,0.6-0.5c0.2-0.2,0.3-0.4,0.4-0.6V7c-0.1-0.2-0.3-0.4-0.4-0.6c-0.2-0.2-0.3-0.4-0.6-0.5c-0.2-0.1-0.5-0.3-0.7-0.3
		c-0.3-0.1-0.6-0.1-0.9-0.1c-0.5,0-1,0.1-1.3,0.3c-0.4,0.2-0.7,0.5-0.9,0.9c-0.2,0.4-0.4,0.8-0.5,1.3s-0.2,1-0.2,1.5V9.6z"/>
</g>
</svg>
