<?xml version="1.0" encoding="utf-8"?>
<!-- Generator: Adobe Illustrator 19.0.1, SVG Export Plug-In . SVG Version: 6.00 Build 0)  -->
<svg version="1.1" id="Layer_1" xmlns="http://www.w3.org/2000/svg" xmlns:xlink="http://www.w3.org/1999/xlink" x="0px" y="0px"
	 viewBox="-16.9 137.5 246 23.1" style="enable-background:new -16.9 137.5 246 23.1;" xml:space="preserve">
<style type="text/css">
	.st0{fill:#FFFFFF;}
	.st1{fill:#3399CC;}
	.st2{fill:#CDCAC9;}
	.st3{fill:#CC6633;}
</style>
<g>
	<path class="st3" d="M-12.8,150.2l-2,4.7h-2l7.7-17.4l7.5,17.4h-2l-2-4.7H-12.8z M-9.3,141.8l-2.8,6.6h5.6L-9.3,141.8z"/>
	<path class="st3" d="M16.5,147.6L16.5,147.6c-0.9-1-1.9-1.7-3.3-1.7c-2.1,0-3.7,1.8-3.7,3.8c0,2,1.4,3.8,3.6,3.8
		c1.5,0,2.5-0.7,3.4-1.8h0v2.4c-1,0.7-2,1.1-3.3,1.1c-3.1,0-5.5-2.3-5.5-5.5c0-3.1,2.5-5.5,5.5-5.5c1.1,0,2.3,0.4,3.2,1V147.6z"/>
	<path class="st3" d="M27.2,149.7c0-3,2.4-5.5,5.4-5.5c3,0,5.4,2.4,5.4,5.5s-2.4,5.4-5.4,5.4C29.6,155.2,27.2,152.8,27.2,149.7z
		 M29,149.7c0,2.1,1.5,3.8,3.7,3.8c2.2,0,3.7-1.7,3.7-3.8c0-2.1-1.5-3.8-3.7-3.8C30.5,145.9,29,147.6,29,149.7z"/>
	<path class="st3" d="M51,145.7L51,145.7c0.7-0.8,1.2-1.4,2.3-1.4c0.6,0,1.1,0.2,1.6,0.5l-0.8,1.6c-0.4-0.2-0.6-0.5-1.1-0.5
		c-1.9,0-2,2.5-2,3.8v5.2h-1.8v-10.3H51V145.7z"/>
	<path class="st3" d="M67.4,145.8L67.4,145.8c0.8-1,1.7-1.5,3-1.5c2.9,0,3.5,2.1,3.5,4.5v6.1h-1.8v-5.8c0-1.7-0.1-3.2-2.2-3.2
		c-2.4,0-2.6,2.2-2.6,4.1v4.9h-1.8v-10.3h1.8V145.8z"/>
	<path class="st3" d="M101.6,138.3h2.7c3,0,5.5,1.1,5.5,4.5c0,1.3-0.5,2.5-1.6,3.2c2,0.5,3.1,2.3,3.1,4.2c0,3.3-2.7,4.6-5.9,4.6
		h-3.9V138.3z M103.5,145.6h0.7c2.1,0,3.9-0.2,3.9-2.8c0-2.5-1.6-2.8-3.9-2.8h-0.7V145.6z M103.5,153.2h1.8c2.1,0,4.2-0.5,4.2-3
		c0-2.6-2.5-2.9-4.5-2.9h-1.6V153.2z"/>
	<path class="st3" d="M124.6,145.7L124.6,145.7c0.7-0.8,1.2-1.4,2.3-1.4c0.6,0,1.1,0.2,1.6,0.5l-0.8,1.6c-0.4-0.2-0.6-0.5-1.1-0.5
		c-1.9,0-2,2.5-2,3.8v5.2h-1.8v-10.3h1.8V145.7z"/>
	<path class="st3" d="M140,150.1c0,1.9,1.4,3.5,3.4,3.5c1.5,0,2.5-0.9,3.1-2.1l1.5,0.9c-1,1.8-2.7,2.9-4.8,2.9
		c-3.1,0-5.1-2.4-5.1-5.3c0-3.1,1.8-5.6,5-5.6c3.3,0,5.1,2.8,4.9,5.8H140z M146.2,148.6c-0.2-1.5-1.5-2.7-3-2.7
		c-1.5,0-2.9,1.2-3.1,2.7H146.2z"/>
	<path class="st3" d="M162.8,151.5l3.2-7.8l3.2,7.8l3.1-7h2l-5.1,11.1l-3.2-7.7l-3.2,7.7l-5.1-11.1h2L162.8,151.5z"/>
	<path class="st3" d="M187.3,140.7c0,0.7-0.6,1.3-1.3,1.3c-0.7,0-1.3-0.5-1.3-1.3c0-0.7,0.6-1.3,1.3-1.3
		C186.7,139.4,187.3,140,187.3,140.7z M186.9,154.9h-1.8v-10.3h1.8V154.9z"/>
	<path class="st3" d="M201.1,145.8L201.1,145.8c0.8-1,1.7-1.5,3-1.5c2.9,0,3.5,2.1,3.5,4.5v6.1h-1.8v-5.8c0-1.7-0.1-3.2-2.2-3.2
		c-2.4,0-2.6,2.2-2.6,4.1v4.9h-1.8v-10.3h1.8V145.8z"/>
	<path class="st3" d="M229.1,154.4c0,1.7,0,3.1-1.1,4.4c-1,1.2-2.5,1.8-4,1.8c-2.9,0-5-1.8-5.1-4.8h1.8c0,1.9,1.4,3.1,3.3,3.1
		c2.7,0,3.3-2,3.3-4.3v-1.2h0c-0.8,1.1-2.2,1.7-3.6,1.7c-3,0-4.9-2.5-4.9-5.4c0-2.9,1.9-5.5,5-5.5c1.4,0,2.7,0.6,3.5,1.8h0v-1.5h1.8
		V154.4z M220.6,149.6c0,2,1.2,3.9,3.4,3.9c2.3,0,3.5-1.8,3.5-3.9c0-2.1-1.3-3.7-3.5-3.7C221.9,145.9,220.6,147.7,220.6,149.6z"/>
</g>
</svg>
