<?xml version="1.0" encoding="utf-8"?>
<!-- Generator: Adobe Illustrator 19.0.1, SVG Export Plug-In . SVG Version: 6.00 Build 0)  -->
<svg version="1.1" xmlns="http://www.w3.org/2000/svg" xmlns:xlink="http://www.w3.org/1999/xlink" x="0px" y="0px"
	 viewBox="0 0 252.5 19.4" style="enable-background:new 0 0 252.5 19.4;" xml:space="preserve">
<style type="text/css">
	.st0{fill:#FFFFFF;}
	.st1{fill:#3399CC;}
	.st2{fill:#FF9966;}
	.st3{fill:#382C3D;}
	.st4{fill:#221F20;}
	.st5{fill:#FFCC66;}
	.st6{fill:#3D220E;}
	.st7{fill:none;stroke:#FFFFFF;stroke-width:0.5618;stroke-miterlimit:10;}
	.st8{fill:#CDCBCA;}
	.st9{fill:#669897;}
	.st10{clip-path:url(#SVGID_4_);}
	.st11{fill:none;stroke:#FFFFFF;stroke-width:2.3528;stroke-miterlimit:10;}
	.st12{fill:#CC6632;}
	.st13{fill:#CDCAC9;}
	.st14{fill:#FDCC66;}
	.st15{fill:#362012;}
	.st16{fill:url(#SVGID_5_);}
	.st17{fill:url(#SVGID_6_);}
	.st18{fill:url(#SVGID_7_);}
	.st19{fill:#999999;}
	.st20{fill:#CC6633;}
	.st21{opacity:0.5;fill:#653614;}
	.st22{opacity:0.69;fill:#FF9966;}
</style>
<g id="contact">
</g>
<g id="about">
</g>
<g id="WORK">
	<g id="work">
	</g>
	<g id="mouseOver">
		<g>
			<path class="st0" d="M9.5,10.6H2.2L0.6,15H0L5.5,0.2h0.7L11.7,15h-0.6L9.5,10.6z M2.4,10h6.8L5.9,0.9L2.4,10z"/>
			<path class="st0" d="M27.9,14.6c0.4,0,0.8-0.1,1.3-0.2c0.4-0.1,0.8-0.3,1.1-0.5c0.3-0.2,0.6-0.5,0.8-0.9c0.2-0.4,0.3-0.8,0.4-1.4
				H32c0,0.6-0.2,1.1-0.4,1.5c-0.2,0.4-0.5,0.8-0.9,1.1s-0.8,0.5-1.3,0.7c-0.5,0.2-1,0.2-1.5,0.2c-0.7,0-1.3-0.1-1.9-0.4
				c-0.6-0.3-1-0.6-1.4-1.1c-0.4-0.5-0.7-1.1-0.9-1.7s-0.3-1.4-0.3-2.2V9.3c0-0.8,0.1-1.5,0.3-2.2s0.5-1.2,0.9-1.7s0.8-0.9,1.4-1.1
				s1.2-0.4,1.9-0.4c0.5,0,1,0.1,1.5,0.2c0.5,0.2,0.9,0.4,1.3,0.7c0.4,0.3,0.7,0.7,0.9,1.2c0.2,0.5,0.4,1,0.4,1.7h-0.5
				c0-0.5-0.1-1-0.3-1.4s-0.5-0.8-0.8-1c-0.3-0.3-0.7-0.5-1.1-0.6c-0.4-0.1-0.8-0.2-1.3-0.2c-0.7,0-1.3,0.1-1.7,0.4
				c-0.5,0.3-0.9,0.6-1.2,1.1c-0.3,0.4-0.6,1-0.7,1.6C24,7.9,24,8.6,24,9.3v0.4c0,0.7,0.1,1.3,0.2,1.9c0.2,0.6,0.4,1.1,0.7,1.6
				c0.3,0.4,0.7,0.8,1.2,1S27.2,14.6,27.9,14.6z"/>
			<path class="st0" d="M44.3,9.3c0-0.8,0.1-1.5,0.3-2.2c0.2-0.7,0.6-1.2,1-1.7s0.9-0.9,1.5-1.1s1.2-0.4,1.9-0.4
				c0.7,0,1.4,0.1,2,0.4c0.6,0.3,1.1,0.6,1.5,1.1s0.7,1.1,1,1.7s0.3,1.4,0.3,2.2v0.4c0,0.8-0.1,1.5-0.3,2.2s-0.6,1.2-1,1.7
				c-0.4,0.5-0.9,0.9-1.5,1.1c-0.6,0.3-1.2,0.4-1.9,0.4c-0.7,0-1.4-0.1-2-0.4c-0.6-0.3-1.1-0.6-1.5-1.1c-0.4-0.5-0.8-1.1-1-1.7
				c-0.2-0.7-0.3-1.4-0.3-2.2V9.3z M44.8,9.7c0,0.7,0.1,1.3,0.3,1.9c0.2,0.6,0.5,1.1,0.8,1.6c0.4,0.5,0.8,0.8,1.3,1.1
				c0.5,0.3,1.1,0.4,1.8,0.4c0.7,0,1.3-0.1,1.8-0.4c0.5-0.3,1-0.6,1.3-1.1c0.4-0.5,0.6-1,0.8-1.6s0.3-1.2,0.3-1.9V9.3
				c0-0.6-0.1-1.3-0.3-1.8c-0.2-0.6-0.5-1.1-0.8-1.6c-0.4-0.5-0.8-0.8-1.3-1.1c-0.5-0.3-1.1-0.4-1.8-0.4c-0.7,0-1.3,0.1-1.8,0.4
				c-0.5,0.3-1,0.6-1.3,1.1c-0.4,0.5-0.6,1-0.8,1.6c-0.2,0.6-0.3,1.2-0.3,1.8V9.7z"/>
			<path class="st0" d="M71.7,4.4c-0.1,0-0.2,0-0.3,0c-0.1,0-0.2,0-0.4,0c-0.5,0-1,0.1-1.4,0.3c-0.4,0.2-0.8,0.4-1.1,0.7
				c-0.3,0.3-0.5,0.7-0.7,1.1c-0.2,0.4-0.3,0.9-0.4,1.4V15h-0.5V4h0.5v2.3c0.3-0.8,0.7-1.4,1.3-1.8C69.4,4,70.1,3.8,71,3.8
				c0.2,0,0.3,0,0.4,0c0.1,0,0.2,0,0.3,0.1L71.7,4.4z"/>
			<path class="st0" d="M85.4,5.5c0.3-0.3,0.5-0.6,0.9-0.9C86.6,4.3,87,4.1,87.4,4c0.4-0.1,0.8-0.2,1.3-0.2c0.6,0,1,0.1,1.5,0.2
				s0.8,0.4,1.1,0.7c0.3,0.3,0.5,0.7,0.7,1.3s0.2,1.1,0.2,1.9V15h-0.5V7.9c0-0.7-0.1-1.3-0.2-1.7c-0.1-0.5-0.4-0.8-0.6-1.1
				c-0.3-0.3-0.6-0.5-0.9-0.6c-0.4-0.1-0.8-0.2-1.2-0.2c-0.4,0-0.8,0.1-1.1,0.2s-0.6,0.3-0.9,0.5s-0.5,0.4-0.7,0.6
				c-0.2,0.2-0.4,0.5-0.5,0.8c-0.2,0.3-0.3,0.5-0.4,0.8s-0.2,0.5-0.2,0.8v7h-0.5V4h0.5v2.6C84.9,6.2,85.1,5.8,85.4,5.5z"/>
			<path class="st0" d="M121.6,15V0.2h3.9c0.7,0,1.4,0.1,2,0.2c0.6,0.1,1.1,0.4,1.5,0.7c0.4,0.3,0.7,0.7,1,1.2s0.3,1,0.3,1.7
				c0,0.4-0.1,0.8-0.2,1.2s-0.3,0.7-0.5,1c-0.2,0.3-0.5,0.5-0.8,0.7c-0.3,0.2-0.7,0.3-1.1,0.4c0.5,0.1,0.9,0.2,1.3,0.4
				c0.4,0.2,0.7,0.5,1,0.8c0.3,0.3,0.5,0.7,0.7,1.1c0.2,0.4,0.2,0.8,0.2,1.3c0,0.7-0.1,1.2-0.3,1.7s-0.5,0.9-0.9,1.3
				c-0.4,0.3-0.9,0.6-1.4,0.8c-0.6,0.2-1.2,0.3-1.8,0.3H121.6z M122.1,7.1h3.5c1.3,0,2.4-0.3,3-0.8c0.7-0.5,1-1.3,1-2.4
				c0-1.1-0.4-1.9-1.1-2.4c-0.7-0.5-1.8-0.8-3.2-0.8h-3.3V7.1z M122.1,7.7v6.7h4.3c0.6,0,1.2-0.1,1.7-0.2c0.5-0.2,0.9-0.4,1.3-0.7
				c0.3-0.3,0.6-0.7,0.8-1.1c0.2-0.4,0.3-0.9,0.3-1.5c0-0.4-0.1-0.8-0.2-1.2s-0.4-0.7-0.7-1c-0.3-0.3-0.7-0.5-1.2-0.7
				c-0.5-0.2-1.1-0.3-1.7-0.3H122.1z"/>
			<path class="st0" d="M149,4.4c-0.1,0-0.2,0-0.3,0c-0.1,0-0.2,0-0.4,0c-0.5,0-1,0.1-1.4,0.3c-0.4,0.2-0.8,0.4-1.1,0.7
				c-0.3,0.3-0.5,0.7-0.7,1.1c-0.2,0.4-0.3,0.9-0.4,1.4V15h-0.5V4h0.5v2.3c0.3-0.8,0.7-1.4,1.3-1.8c0.6-0.4,1.3-0.7,2.2-0.7
				c0.2,0,0.3,0,0.4,0c0.1,0,0.2,0,0.3,0.1L149,4.4z"/>
			<path class="st0" d="M165.3,15.2c-0.7,0-1.3-0.1-1.9-0.4c-0.6-0.3-1.1-0.6-1.5-1.1c-0.4-0.5-0.8-1.1-1-1.7
				c-0.2-0.7-0.4-1.4-0.4-2.2V9.3c0-0.8,0.1-1.5,0.4-2.2c0.2-0.7,0.6-1.2,1-1.7c0.4-0.5,0.9-0.9,1.5-1.1s1.2-0.4,1.8-0.4
				c0.6,0,1.2,0.1,1.7,0.3c0.5,0.2,0.9,0.5,1.3,1c0.4,0.4,0.7,0.9,0.9,1.5c0.2,0.6,0.3,1.2,0.3,1.9v0.6H161v0.2v0.4
				c0,0.7,0.1,1.3,0.3,1.9c0.2,0.6,0.5,1.1,0.9,1.6s0.8,0.8,1.4,1s1.1,0.4,1.7,0.4c0.3,0,0.6,0,0.9-0.1s0.6-0.1,0.8-0.2
				c0.3-0.1,0.5-0.3,0.8-0.5c0.2-0.2,0.5-0.4,0.7-0.7l0.4,0.3c-0.2,0.3-0.4,0.5-0.6,0.7c-0.2,0.2-0.5,0.4-0.8,0.6
				c-0.3,0.2-0.6,0.3-1,0.4C166.1,15.1,165.7,15.2,165.3,15.2z M165.1,4.3c-0.6,0-1.1,0.1-1.5,0.3c-0.5,0.2-0.9,0.5-1.2,0.9
				s-0.6,0.8-0.9,1.3S161.1,8,161,8.6h7.6V8.4c0-0.5-0.1-1.1-0.3-1.6c-0.2-0.5-0.4-0.9-0.7-1.3s-0.7-0.7-1.1-0.9
				C166.1,4.4,165.6,4.3,165.1,4.3z"/>
			<path class="st0" d="M184.1,11.8l0.6,2.4l0.8-2.4l2.5-7.8h0.6l2.5,7.8l0.7,2.4l0.6-2.4l2.2-7.8h0.6L192,15h-0.5l-2.7-8.2l-0.5-2
				l-0.6,2L185,15h-0.5l-3.2-11h0.6L184.1,11.8z"/>
			<path class="st0" d="M208.1,0.6c0-0.2,0.1-0.3,0.2-0.4c0.1-0.1,0.2-0.2,0.4-0.2c0.2,0,0.3,0.1,0.4,0.2c0.1,0.1,0.2,0.2,0.2,0.4
				s-0.1,0.3-0.2,0.4c-0.1,0.1-0.2,0.2-0.4,0.2c-0.2,0-0.3-0.1-0.4-0.2C208.2,0.9,208.1,0.7,208.1,0.6z M208.9,15h-0.5V4h0.5V15z"/>
			<path class="st0" d="M224.1,5.5c0.3-0.3,0.5-0.6,0.9-0.9c0.3-0.2,0.7-0.4,1.1-0.6c0.4-0.1,0.8-0.2,1.3-0.2c0.6,0,1,0.1,1.5,0.2
				c0.4,0.2,0.8,0.4,1.1,0.7c0.3,0.3,0.5,0.7,0.7,1.3s0.2,1.1,0.2,1.9V15h-0.5V7.9c0-0.7-0.1-1.3-0.2-1.7s-0.3-0.8-0.6-1.1
				c-0.3-0.3-0.6-0.5-0.9-0.6c-0.4-0.1-0.8-0.2-1.2-0.2c-0.4,0-0.8,0.1-1.1,0.2s-0.6,0.3-0.9,0.5c-0.3,0.2-0.5,0.4-0.7,0.6
				c-0.2,0.2-0.4,0.5-0.5,0.8c-0.2,0.3-0.3,0.5-0.4,0.8c-0.1,0.3-0.2,0.5-0.2,0.8v7h-0.5V4h0.5v2.6C223.6,6.2,223.8,5.8,224.1,5.5z"
				/>
			<path class="st0" d="M244.1,9.4c0-0.9,0.1-1.6,0.3-2.3s0.5-1.3,0.8-1.8c0.4-0.5,0.8-0.8,1.3-1.1s1.1-0.4,1.7-0.4
				c0.4,0,0.9,0.1,1.2,0.2c0.4,0.1,0.7,0.3,1,0.5c0.3,0.2,0.6,0.4,0.8,0.7c0.2,0.3,0.4,0.6,0.6,0.9V4h0.6v10.8
				c0,0.7-0.1,1.3-0.3,1.9c-0.2,0.6-0.5,1-0.8,1.4s-0.8,0.7-1.3,0.9c-0.5,0.2-1.1,0.3-1.7,0.3c-0.4,0-0.8,0-1.1-0.1
				c-0.4-0.1-0.7-0.2-1-0.4c-0.3-0.2-0.6-0.4-0.8-0.6c-0.2-0.2-0.5-0.5-0.7-0.7l0.4-0.4c0.4,0.5,0.9,1,1.4,1.2s1.1,0.4,1.8,0.4
				c0.6,0,1.1-0.1,1.6-0.3c0.5-0.2,0.8-0.5,1.1-0.8c0.3-0.4,0.5-0.8,0.7-1.3c0.2-0.5,0.2-1.1,0.2-1.7v-1.6c-0.2,0.3-0.4,0.5-0.6,0.8
				c-0.2,0.2-0.5,0.4-0.8,0.6c-0.3,0.2-0.7,0.3-1,0.4s-0.8,0.1-1.3,0.1c-0.6,0-1.2-0.1-1.7-0.4c-0.5-0.3-0.9-0.6-1.3-1.1
				c-0.4-0.5-0.6-1.1-0.8-1.8c-0.2-0.7-0.3-1.4-0.3-2.3V9.4z M244.7,9.6c0,0.7,0.1,1.4,0.2,2c0.1,0.6,0.4,1.1,0.7,1.6s0.7,0.8,1.1,1
				c0.4,0.2,1,0.4,1.6,0.4c0.5,0,1-0.1,1.4-0.2c0.4-0.1,0.8-0.3,1.1-0.5c0.3-0.2,0.6-0.5,0.8-0.8c0.2-0.3,0.4-0.6,0.5-1v-5
				c-0.1-0.3-0.2-0.7-0.4-1s-0.4-0.6-0.7-0.9c-0.3-0.3-0.6-0.5-1.1-0.7s-0.9-0.3-1.5-0.3c-0.6,0-1.1,0.1-1.6,0.4s-0.8,0.6-1.1,1
				s-0.5,1-0.7,1.6c-0.1,0.6-0.2,1.3-0.2,2V9.6z"/>
		</g>
	</g>
</g>
<g id="home">
</g>
<g id="NAVBAR">
	<g id="navBar">
	</g>
	<g id="mouseOver_1_">
	</g>
</g>
</svg>
