<?xml version="1.0" encoding="utf-8"?>
<!-- Generator: Adobe Illustrator 19.0.1, SVG Export Plug-In . SVG Version: 6.00 Build 0)  -->
<svg version="1.1" id="Layer_1" xmlns="http://www.w3.org/2000/svg" xmlns:xlink="http://www.w3.org/1999/xlink" x="0px" y="0px"
	 viewBox="0 0 218 19.8" style="enable-background:new 0 0 218 19.8;" xml:space="preserve">
<style type="text/css">
	.st0{fill:#98B1D6;}
	.st1{fill:#1F2328;}
	.st2{fill:#CDCAC9;}
	.st3{fill:#FFFFFF;}
	.st4{fill:#0070AF;}
	.st5{fill:#3399CC;}
	.st6{fill:#CC6632;}
	.st7{fill:#7C9FCD;}
	.st8{fill:#E3E7F4;}
	.st9{fill:#0070AF;stroke:#0070AF;stroke-width:0.1975;stroke-miterlimit:10;}
	.st10{fill:#630D0D;}
</style>
<g>
	<path class="st3" d="M11.4,2.4H6.7v13.2H4.7V2.4H0V0.8h11.4V2.4z"/>
	<path class="st3" d="M28.2,6.3c-0.2,0-0.3,0-0.5-0.1c-0.1,0-0.3,0-0.5,0c-0.6,0-1.2,0.1-1.6,0.4c-0.4,0.3-0.7,0.7-0.9,1.1v7.8h-1.9
		v-11h1.8l0,1.3c0.3-0.5,0.6-0.8,1.1-1.1c0.4-0.3,0.9-0.4,1.6-0.4c0.1,0,0.3,0,0.5,0s0.3,0.1,0.4,0.1V6.3z"/>
	<path class="st3" d="M47.1,14.5c-0.3,0.4-0.8,0.7-1.3,0.9c-0.5,0.2-1.2,0.3-1.9,0.3c-0.5,0-1-0.1-1.5-0.2c-0.4-0.2-0.8-0.4-1.1-0.7
		c-0.3-0.3-0.6-0.8-0.7-1.3c-0.2-0.5-0.3-1.1-0.3-1.9V4.6h1.9v7.1c0,0.5,0.1,0.9,0.2,1.2c0.1,0.3,0.3,0.6,0.5,0.8s0.4,0.3,0.6,0.4
		c0.2,0.1,0.5,0.1,0.8,0.1c0.8,0,1.4-0.1,1.8-0.4c0.5-0.3,0.8-0.7,1-1.2v-8h1.9v11h-1.8L47.1,14.5z"/>
	<path class="st3" d="M66.6,14.2c0.3,0,0.6-0.1,1-0.2c0.3-0.1,0.6-0.3,0.8-0.4c0.2-0.2,0.4-0.4,0.6-0.7c0.1-0.3,0.2-0.5,0.3-0.8h1.8
		c0,0.5-0.2,1-0.4,1.4c-0.2,0.4-0.6,0.8-0.9,1.2c-0.4,0.3-0.8,0.6-1.4,0.8c-0.5,0.2-1.1,0.3-1.6,0.3c-0.8,0-1.5-0.1-2.2-0.4
		s-1.1-0.7-1.5-1.2s-0.7-1.1-0.9-1.7c-0.2-0.7-0.3-1.4-0.3-2.1V9.9c0-0.7,0.1-1.4,0.3-2.1s0.5-1.2,0.9-1.7s0.9-0.9,1.5-1.2
		s1.3-0.4,2.1-0.4c0.6,0,1.2,0.1,1.7,0.3c0.5,0.2,1,0.5,1.4,0.8s0.7,0.8,0.9,1.3c0.2,0.5,0.3,1,0.4,1.6h-1.8c0-0.3-0.1-0.7-0.2-0.9
		s-0.3-0.6-0.5-0.8c-0.2-0.2-0.5-0.4-0.8-0.5c-0.3-0.1-0.7-0.2-1-0.2c-0.6,0-1.1,0.1-1.4,0.3s-0.7,0.5-0.9,0.9S63.8,8,63.7,8.5
		s-0.1,0.9-0.1,1.4v0.4c0,0.5,0,1,0.1,1.4s0.3,0.9,0.5,1.3c0.2,0.4,0.5,0.7,0.9,0.9C65.5,14.1,66,14.2,66.6,14.2z"/>
	<path class="st3" d="M86.5,10.5l-1.2,1.2v3.9h-1.9V0h1.9v9.4l1-1.2l3.4-3.6H92l-4.3,4.6l4.8,6.4h-2.2L86.5,10.5z"/>
	<path class="st3" d="M131,10.9c-0.1,0.7-0.3,1.3-0.5,1.9c-0.3,0.6-0.6,1.1-1.1,1.5c-0.5,0.4-1,0.8-1.7,1c-0.7,0.2-1.4,0.4-2.3,0.4
		c-0.9,0-1.7-0.2-2.4-0.5c-0.7-0.3-1.3-0.8-1.8-1.4c-0.5-0.6-0.9-1.3-1.2-2.2c-0.3-0.8-0.4-1.8-0.4-2.8V7.5c0-1,0.1-2,0.4-2.8
		c0.3-0.8,0.7-1.6,1.2-2.2c0.5-0.6,1.1-1.1,1.9-1.4c0.7-0.3,1.6-0.5,2.5-0.5c0.8,0,1.6,0.1,2.2,0.4c0.6,0.2,1.2,0.6,1.6,1
		c0.4,0.4,0.8,1,1.1,1.6s0.4,1.3,0.5,2h-2c-0.1-0.5-0.2-1-0.3-1.4s-0.4-0.8-0.6-1.1c-0.3-0.3-0.6-0.5-1-0.7
		c-0.4-0.2-0.9-0.2-1.5-0.2c-0.7,0-1.2,0.1-1.7,0.4c-0.5,0.3-0.9,0.6-1.2,1.1c-0.3,0.5-0.6,1-0.8,1.7c-0.2,0.6-0.3,1.4-0.3,2.1v1.5
		c0,0.7,0.1,1.4,0.2,2c0.2,0.6,0.4,1.2,0.7,1.7s0.7,0.9,1.2,1.1s1,0.4,1.7,0.4c0.6,0,1.1-0.1,1.6-0.2c0.4-0.1,0.8-0.4,1.1-0.6
		s0.5-0.6,0.7-1c0.2-0.4,0.3-0.9,0.4-1.4H131z"/>
	<path class="st3" d="M145.6,5.9c0.4-0.5,0.9-0.9,1.4-1.1s1.2-0.4,1.8-0.4c0.5,0,1,0.1,1.4,0.2c0.4,0.1,0.8,0.4,1.1,0.7
		s0.5,0.7,0.7,1.2c0.2,0.5,0.2,1.1,0.2,1.8v7.2h-1.9V8.4c0-0.4,0-0.8-0.1-1.1s-0.2-0.5-0.4-0.7c-0.2-0.2-0.4-0.3-0.7-0.4
		S148.6,6,148.3,6c-0.6,0-1.1,0.2-1.6,0.5c-0.5,0.3-0.8,0.8-1.1,1.3v7.8h-1.9V0h1.9V5.9z"/>
	<path class="st3" d="M165,10c0-0.8,0.1-1.5,0.3-2.2c0.2-0.7,0.6-1.3,1-1.8c0.4-0.5,1-0.9,1.6-1.2c0.6-0.3,1.3-0.4,2.1-0.4
		c0.8,0,1.5,0.1,2.1,0.4c0.6,0.3,1.1,0.7,1.6,1.2c0.4,0.5,0.8,1.1,1,1.8c0.2,0.7,0.3,1.4,0.3,2.2v0.2c0,0.8-0.1,1.5-0.3,2.2
		c-0.2,0.7-0.6,1.3-1,1.8c-0.4,0.5-1,0.9-1.6,1.2s-1.3,0.4-2.1,0.4c-0.8,0-1.5-0.1-2.1-0.4c-0.6-0.3-1.1-0.7-1.6-1.2
		c-0.4-0.5-0.8-1.1-1-1.8c-0.2-0.7-0.3-1.4-0.3-2.2V10z M166.9,10.2c0,0.5,0.1,1.1,0.2,1.6c0.1,0.5,0.3,0.9,0.6,1.3
		c0.3,0.4,0.6,0.7,1,0.9c0.4,0.2,0.8,0.3,1.4,0.3c0.5,0,1-0.1,1.4-0.3c0.4-0.2,0.7-0.5,1-0.9c0.3-0.4,0.5-0.8,0.6-1.3
		c0.1-0.5,0.2-1,0.2-1.6V10c0-0.5-0.1-1.1-0.2-1.5c-0.1-0.5-0.3-0.9-0.6-1.3c-0.3-0.4-0.6-0.7-1-0.9C171,6,170.5,5.9,170,5.9
		c-0.5,0-1,0.1-1.3,0.3c-0.4,0.2-0.7,0.5-1,0.9c-0.3,0.4-0.5,0.8-0.6,1.3c-0.1,0.5-0.2,1-0.2,1.5V10.2z"/>
	<path class="st3" d="M197,10.2c0,0.8-0.1,1.5-0.3,2.2c-0.2,0.7-0.5,1.3-0.8,1.8c-0.4,0.5-0.8,0.9-1.3,1.2s-1.1,0.4-1.8,0.4
		c-0.7,0-1.3-0.1-1.8-0.3c-0.5-0.2-1-0.5-1.3-0.9v5.3h-1.9V4.6h1.7l0.1,1.2c0.4-0.5,0.8-0.8,1.3-1.1s1.1-0.4,1.8-0.4
		c0.7,0,1.3,0.1,1.8,0.4s1,0.7,1.3,1.1c0.4,0.5,0.6,1.1,0.8,1.8c0.2,0.7,0.3,1.4,0.3,2.3V10.2z M195.1,10c0-0.5-0.1-1.1-0.2-1.5
		s-0.3-0.9-0.5-1.3c-0.2-0.4-0.6-0.7-0.9-0.9c-0.4-0.2-0.8-0.3-1.3-0.3c-0.3,0-0.6,0-0.9,0.1c-0.3,0.1-0.5,0.2-0.7,0.3
		s-0.4,0.3-0.6,0.5s-0.3,0.4-0.4,0.6v5.2c0.1,0.2,0.3,0.4,0.4,0.6s0.3,0.3,0.6,0.5s0.4,0.2,0.7,0.3c0.3,0.1,0.6,0.1,0.9,0.1
		c0.5,0,0.9-0.1,1.3-0.3c0.4-0.2,0.7-0.5,0.9-0.9c0.2-0.4,0.4-0.8,0.5-1.3s0.2-1,0.2-1.6V10z"/>
	<path class="st3" d="M216.1,12.7c0-0.2,0-0.4-0.1-0.6c-0.1-0.2-0.2-0.3-0.4-0.5s-0.4-0.3-0.8-0.4c-0.3-0.1-0.8-0.3-1.3-0.4
		c-0.6-0.1-1.2-0.3-1.6-0.5c-0.5-0.2-0.9-0.4-1.2-0.6c-0.3-0.2-0.6-0.5-0.8-0.9c-0.2-0.3-0.3-0.7-0.3-1.2c0-0.4,0.1-0.8,0.3-1.2
		s0.5-0.7,0.8-1c0.4-0.3,0.8-0.5,1.3-0.7c0.5-0.2,1.1-0.3,1.7-0.3c0.7,0,1.2,0.1,1.8,0.3c0.5,0.2,1,0.4,1.3,0.7
		c0.4,0.3,0.6,0.7,0.8,1.1c0.2,0.4,0.3,0.9,0.3,1.3H216c0-0.2-0.1-0.4-0.2-0.7c-0.1-0.2-0.2-0.4-0.4-0.6c-0.2-0.2-0.4-0.3-0.7-0.4
		c-0.3-0.1-0.6-0.2-1-0.2c-0.4,0-0.7,0-1,0.1c-0.3,0.1-0.5,0.2-0.7,0.4s-0.3,0.3-0.4,0.5s-0.1,0.4-0.1,0.6c0,0.2,0,0.4,0.1,0.5
		s0.2,0.3,0.4,0.4c0.2,0.1,0.4,0.3,0.8,0.4c0.3,0.1,0.8,0.2,1.3,0.3c0.7,0.2,1.2,0.3,1.7,0.5c0.5,0.2,0.9,0.4,1.2,0.7
		s0.6,0.6,0.7,0.9c0.2,0.3,0.2,0.7,0.2,1.2c0,0.5-0.1,0.9-0.3,1.3c-0.2,0.4-0.5,0.7-0.9,1c-0.4,0.3-0.8,0.5-1.3,0.7
		c-0.5,0.2-1.1,0.2-1.7,0.2c-0.7,0-1.4-0.1-1.9-0.3c-0.6-0.2-1-0.5-1.4-0.8c-0.4-0.3-0.7-0.7-0.9-1.1c-0.2-0.4-0.3-0.9-0.3-1.3h1.9
		c0,0.4,0.1,0.7,0.3,1c0.2,0.3,0.4,0.5,0.6,0.6s0.5,0.3,0.8,0.3c0.3,0.1,0.6,0.1,0.9,0.1c0.4,0,0.7,0,1-0.1c0.3-0.1,0.5-0.2,0.7-0.3
		c0.2-0.1,0.3-0.3,0.5-0.5C216.1,13.1,216.1,12.9,216.1,12.7z"/>
</g>
</svg>
