<?xml version="1.0" encoding="utf-8"?>
<!-- Generator: Adobe Illustrator 19.0.1, SVG Export Plug-In . SVG Version: 6.00 Build 0)  -->
<svg version="1.1" xmlns="http://www.w3.org/2000/svg" xmlns:xlink="http://www.w3.org/1999/xlink" x="0px" y="0px"
	 viewBox="0 0 480.3 121.4" style="enable-background:new 0 0 480.3 121.4;" xml:space="preserve">
<style type="text/css">
	.st0{fill:#FFFFFF;}
	.st1{fill:url(#SVGID_1_);}
	.st2{fill:#666666;}
	.st3{fill:url(#SVGID_2_);}
	.st4{fill:url(#SVGID_3_);}
	.st5{fill:url(#SVGID_4_);}
	.st6{fill:url(#SVGID_5_);}
	.st7{fill:url(#SVGID_6_);}
	.st8{fill:url(#SVGID_7_);}
	.st9{fill:url(#SVGID_8_);}
	.st10{fill:url(#SVGID_9_);}
	.st11{fill:url(#SVGID_10_);}
	.st12{fill:url(#SVGID_11_);}
	.st13{fill:url(#SVGID_12_);}
	.st14{fill:url(#SVGID_13_);}
	.st15{fill:url(#SVGID_14_);}
	.st16{fill:url(#SVGID_15_);}
	.st17{fill:url(#SVGID_16_);}
	.st18{fill:url(#SVGID_17_);}
	.st19{fill:url(#SVGID_18_);}
	.st20{fill:url(#SVGID_19_);}
	.st21{fill:url(#SVGID_20_);}
	.st22{fill:url(#SVGID_21_);}
	.st23{fill:url(#SVGID_22_);}
	.st24{fill:url(#SVGID_23_);}
	.st25{fill:url(#SVGID_24_);}
	.st26{fill:url(#SVGID_25_);}
	.st27{fill:url(#SVGID_26_);}
	.st28{fill:url(#SVGID_27_);}
	.st29{fill:url(#SVGID_28_);}
	.st30{fill:url(#SVGID_29_);}
	.st31{fill:url(#SVGID_30_);}
	.st32{fill:url(#SVGID_31_);}
	.st33{fill:url(#SVGID_32_);}
	.st34{fill:url(#SVGID_33_);}
	.st35{fill:url(#SVGID_34_);}
	.st36{fill:url(#SVGID_35_);}
	.st37{fill:url(#SVGID_36_);}
	.st38{fill:url(#SVGID_37_);}
	.st39{fill:url(#SVGID_38_);}
	.st40{fill:url(#SVGID_39_);}
	.st41{fill:url(#SVGID_40_);}
	.st42{fill:url(#SVGID_41_);}
	.st43{fill:url(#SVGID_42_);}
	.st44{fill:url(#SVGID_43_);}
	.st45{fill:url(#SVGID_44_);}
	.st46{fill:url(#SVGID_45_);}
	.st47{fill:url(#SVGID_46_);}
	.st48{fill:url(#SVGID_47_);}
	.st49{fill:url(#SVGID_48_);}
	.st50{fill:url(#SVGID_49_);}
	.st51{fill:url(#SVGID_50_);}
	.st52{fill:url(#SVGID_51_);}
	.st53{fill:none;}
	.st54{fill:url(#SVGID_52_);}
	.st55{fill:url(#SVGID_53_);}
	.st56{fill:url(#SVGID_54_);}
	.st57{fill:url(#SVGID_55_);}
	.st58{fill:url(#SVGID_56_);}
	.st59{fill:url(#SVGID_57_);}
	.st60{fill:url(#SVGID_58_);}
	.st61{fill:url(#SVGID_59_);}
	.st62{fill:url(#SVGID_60_);}
	.st63{fill:url(#SVGID_61_);}
	.st64{fill:url(#SVGID_62_);}
	.st65{fill:url(#SVGID_63_);}
	.st66{fill:url(#SVGID_64_);}
	.st67{fill:url(#SVGID_65_);}
	.st68{fill:url(#SVGID_66_);}
	.st69{fill:url(#SVGID_67_);}
	.st70{fill:url(#SVGID_68_);}
	.st71{fill:url(#SVGID_69_);}
	.st72{fill:url(#SVGID_70_);}
	.st73{fill:url(#SVGID_71_);}
	.st74{fill:url(#SVGID_72_);}
	.st75{fill:url(#SVGID_73_);}
	.st76{fill:url(#SVGID_74_);}
	.st77{fill:url(#SVGID_75_);}
	.st78{fill:url(#SVGID_76_);}
	.st79{fill:url(#SVGID_77_);}
	.st80{fill:url(#SVGID_78_);}
	.st81{fill:url(#SVGID_79_);}
	.st82{fill:url(#SVGID_80_);}
	.st83{fill:url(#SVGID_81_);}
	.st84{fill:url(#SVGID_82_);}
	.st85{fill:url(#SVGID_83_);}
	.st86{fill:url(#SVGID_84_);}
	.st87{fill:url(#SVGID_85_);}
	.st88{fill:url(#SVGID_86_);}
	.st89{fill:url(#SVGID_87_);}
	.st90{fill:url(#SVGID_88_);}
	.st91{fill:url(#SVGID_89_);}
	.st92{fill:url(#SVGID_90_);}
	.st93{fill:url(#SVGID_91_);}
	.st94{fill:url(#SVGID_92_);}
	.st95{fill:url(#SVGID_93_);}
	.st96{fill:url(#SVGID_94_);}
	.st97{fill:url(#SVGID_95_);}
	.st98{fill:url(#SVGID_96_);}
	.st99{fill:url(#SVGID_97_);}
	.st100{fill:url(#SVGID_98_);}
	.st101{fill:url(#SVGID_99_);}
	.st102{fill:url(#SVGID_100_);}
	.st103{fill:url(#SVGID_101_);}
	.st104{fill:url(#SVGID_102_);}
	.st105{fill:url(#SVGID_103_);}
	.st106{fill:url(#SVGID_104_);}
	.st107{fill:url(#SVGID_105_);}
	.st108{fill:url(#SVGID_106_);}
	.st109{fill:url(#SVGID_107_);}
	.st110{opacity:0.69;fill:#FF9966;}
	.st111{fill:#3399CC;}
	.st112{fill:#FF9966;}
	.st113{opacity:5.000000e-02;}
	.st114{fill:url(#SVGID_110_);}
	.st115{fill:url(#SVGID_111_);}
	.st116{fill:url(#SVGID_112_);}
	.st117{fill:url(#SVGID_113_);}
	.st118{fill:url(#SVGID_114_);}
	.st119{fill:url(#SVGID_115_);}
</style>
<g id="Layer_1">
	<g>
		<g>
			<g>
				<path class="st111" d="M192.3,107.9c0,0.5-0.4,0.8-0.8,0.8c-0.5,0-0.8-0.4-0.8-0.8c0-0.5,0.4-0.8,0.8-0.8
					C191.9,107.1,192.3,107.5,192.3,107.9z M192,117.5h-1.2v-6.9h1.2V117.5z"/>
				<path class="st111" d="M203,117.5h-1.2v-12.2h1.2V117.5z"/>
				<path class="st111" d="M213.7,117.5h-1.2v-12.2h1.2V117.5z"/>
				<path class="st111" d="M224.4,114.4c0,1.2,0.1,2.2,1.6,2.2s1.6-1,1.6-2.2v-3.9h1.2v4c0,1.8-0.7,3.1-2.7,3.1s-2.7-1.3-2.7-3.1v-4
					h1.2V114.4z"/>
				<path class="st111" d="M241.1,112.2c-0.2-0.4-0.5-0.7-0.9-0.7c-0.4,0-0.9,0.3-0.9,0.8c0,0.6,0.8,0.9,1.6,1.2
					c0.8,0.3,1.6,0.8,1.6,2c0,1.3-1.1,2.3-2.3,2.3c-1.2,0-2.1-0.7-2.4-1.8l1-0.4c0.3,0.6,0.6,1.1,1.4,1.1c0.6,0,1.1-0.4,1.1-1.1
					c0-1.5-3.1-1-3.1-3.2c0-1.2,0.9-2,2.1-2c0.8,0,1.5,0.6,1.8,1.3L241.1,112.2z"/>
				<path class="st111" d="M252.8,117.5h-1.2v-5.8h-0.7v-1.1h0.7v-2.5h1.2v2.5h1.2v1.1h-1.2V117.5z"/>
				<path class="st111" d="M263.6,111.3L263.6,111.3c0.4-0.5,0.8-0.9,1.6-0.9c0.4,0,0.7,0.1,1.1,0.3l-0.6,1.1
					c-0.2-0.2-0.4-0.3-0.7-0.3c-1.3,0-1.4,1.7-1.4,2.6v3.5h-1.2v-6.9h1.2V111.3z"/>
				<path class="st111" d="M281.1,117.5h-1.2v-1h0c-0.6,0.8-1.4,1.2-2.4,1.2c-2,0-3.3-1.7-3.3-3.6c0-2,1.3-3.7,3.3-3.7
					c0.9,0,1.8,0.4,2.4,1.2h0v-1h1.2V117.5z M275.4,114c0,1.4,0.8,2.6,2.3,2.6c1.5,0,2.3-1.2,2.3-2.6c0-1.4-0.9-2.5-2.3-2.5
					C276.3,111.5,275.4,112.7,275.4,114z"/>
				<path class="st111" d="M291.9,117.5h-1.2v-5.8H290v-1.1h0.7v-2.5h1.2v2.5h1.2v1.1h-1.2V117.5z"/>
				<path class="st111" d="M303.2,107.9c0,0.5-0.4,0.8-0.8,0.8c-0.5,0-0.8-0.4-0.8-0.8c0-0.5,0.4-0.8,0.8-0.8
					C302.8,107.1,303.2,107.5,303.2,107.9z M303,117.5h-1.2v-6.9h1.2V117.5z"/>
				<path class="st111" d="M312.2,114c0-2,1.6-3.7,3.6-3.7c2,0,3.6,1.6,3.6,3.7c0,2-1.6,3.6-3.6,3.6
					C313.8,117.7,312.2,116.1,312.2,114z M313.4,114c0,1.4,1,2.6,2.5,2.6c1.5,0,2.5-1.2,2.5-2.6c0-1.4-1-2.6-2.5-2.6
					C314.4,111.5,313.4,112.6,313.4,114z"/>
				<path class="st111" d="M329.7,111.4L329.7,111.4c0.5-0.7,1.2-1,2-1c1.9,0,2.4,1.4,2.4,3v4.1h-1.2v-3.9c0-1.1-0.1-2.1-1.5-2.1
					c-1.6,0-1.7,1.5-1.7,2.7v3.3h-1.2v-6.9h1.2V111.4z"/>
			</g>
			<g>
				<path class="st111" d="M0.3,48.5h15.3c11.6,0,21.1,9.1,21.1,20.8s-9.6,20.8-21.1,20.8H0.3V48.5z M11.1,81h2.4
					c6.5,0,12-3.5,12-11.6c0-7.4-4.9-11.6-11.9-11.6h-2.5V81z"/>
				<path class="st111" d="M63.6,90.1H52.8V48.5h10.8V90.1z"/>
				<path class="st111" d="M92.5,81h13v9.2H81.7V48.5h10.8V81z"/>
				<path class="st111" d="M130.8,81h13v9.2H120V48.5h10.8V81z"/>
				<path class="st111" d="M202.2,68.6c0,13.5-9.7,22.9-23,22.9c-13.3,0-23-9.5-23-22.9c0-12.6,11-21.4,23-21.4S202.2,56,202.2,68.6
					z M167.5,68.6c0,7.2,5.3,12.4,11.7,12.4c6.5,0,11.7-5.2,11.7-12.4c0-5.7-5.3-11-11.7-11C172.7,57.6,167.5,62.9,167.5,68.6z"/>
				<path class="st111" d="M218.2,48.5H229L248.8,74h0.1V48.5h10.8v41.6H249l-19.8-25.5H229v25.5h-10.8V48.5z"/>
				<path class="st111" d="M332.4,64.6V48.5h10.8v41.6h-10.8v-17h-15.6v17H306V48.5h10.8v16.1H332.4z"/>
				<path class="st111" d="M371.9,82.9l-2.9,7.2h-11.5l16-41.6h11.8L401,90.1h-11.5l-2.7-7.2H371.9z M379.4,61.4h-0.1l-4.5,13.2h9
					L379.4,61.4z"/>
				<path class="st111" d="M426.2,81h13v9.2h-23.8V48.5h10.8V81z"/>
				<path class="st111" d="M464.5,81h13v9.2h-23.8V48.5h10.8V81z"/>
			</g>
			<g>
				<path class="st111" d="M1.2,111.5L1.2,111.5c0.6-0.8,1.5-1.2,2.4-1.2c2,0,3.3,1.8,3.3,3.7c0,2-1.3,3.6-3.3,3.6
					c-0.9,0-1.8-0.4-2.4-1.2h0v4.9H0v-10.8h1.2V111.5z M1.1,114c0,1.4,0.8,2.6,2.3,2.6c1.5,0,2.3-1.2,2.3-2.6c0-1.4-0.9-2.5-2.3-2.5
					C2,111.5,1.1,112.7,1.1,114z"/>
				<path class="st111" d="M17.1,111.3L17.1,111.3c0.4-0.5,0.8-0.9,1.6-0.9c0.4,0,0.7,0.1,1.1,0.3l-0.6,1.1
					c-0.2-0.2-0.4-0.3-0.7-0.3c-1.3,0-1.4,1.7-1.4,2.6v3.5h-1.2v-6.9h1.2V111.3z"/>
				<path class="st111" d="M29.9,107.9c0,0.5-0.4,0.8-0.8,0.8c-0.5,0-0.8-0.4-0.8-0.8c0-0.5,0.4-0.8,0.8-0.8
					C29.5,107.1,29.9,107.5,29.9,107.9z M29.7,117.5h-1.2v-6.9h1.2V117.5z"/>
				<path class="st111" d="M40.7,111.4L40.7,111.4c0.5-0.7,1.2-1,2-1c1.9,0,2.4,1.4,2.4,3v4.1h-1.2v-3.9c0-1.1-0.1-2.1-1.5-2.1
					c-1.6,0-1.7,1.5-1.7,2.7v3.3h-1.2v-6.9h1.2V111.4z"/>
				<path class="st111" d="M55.9,117.5h-1.2v-5.8H54v-1.1h0.7v-2.5h1.2v2.5h1.2v1.1h-1.2V117.5z"/>
				<path class="st111" d="M82.7,116.5L82.7,116.5c-0.6,0.8-1.5,1.2-2.4,1.2c-2,0-3.3-1.7-3.3-3.6c0-2,1.3-3.7,3.3-3.7
					c0.9,0,1.8,0.4,2.4,1.2h0v-6.2h1.2v12.2h-1.2V116.5z M78.2,114c0,1.4,0.8,2.6,2.3,2.6c1.5,0,2.3-1.2,2.3-2.6
					c0-1.4-0.9-2.5-2.3-2.5C79,111.5,78.2,112.7,78.2,114z"/>
				<path class="st111" d="M94,114.3c0,1.3,0.9,2.3,2.3,2.3c1,0,1.7-0.6,2.1-1.4l1,0.6c-0.7,1.2-1.8,1.9-3.2,1.9
					c-2.1,0-3.4-1.6-3.4-3.6c0-2.1,1.2-3.7,3.4-3.7c2.2,0,3.4,1.8,3.3,3.9H94z M98.2,113.3c-0.2-1-1-1.8-2-1.8c-1,0-2,0.8-2.1,1.8
					H98.2z"/>
				<path class="st111" d="M111.3,112.2c-0.2-0.4-0.5-0.7-0.9-0.7c-0.4,0-0.9,0.3-0.9,0.8c0,0.6,0.8,0.9,1.6,1.2
					c0.8,0.3,1.6,0.8,1.6,2c0,1.3-1.1,2.3-2.3,2.3c-1.2,0-2.1-0.7-2.4-1.8l1-0.4c0.3,0.6,0.6,1.1,1.4,1.1c0.6,0,1.1-0.4,1.1-1.1
					c0-1.5-3.1-1-3.1-3.2c0-1.2,0.9-2,2.1-2c0.8,0,1.5,0.6,1.8,1.3L111.3,112.2z"/>
				<path class="st111" d="M123.4,107.9c0,0.5-0.4,0.8-0.8,0.8c-0.5,0-0.8-0.4-0.8-0.8c0-0.5,0.4-0.8,0.8-0.8
					C123,107.1,123.4,107.5,123.4,107.9z M123.1,117.5H122v-6.9h1.2V117.5z"/>
				<path class="st111" d="M139.2,117.2c0,1.1,0,2.1-0.7,3c-0.6,0.8-1.7,1.2-2.7,1.2c-1.9,0-3.4-1.2-3.4-3.2h1.2
					c0,1.3,0.9,2.1,2.2,2.1c1.8,0,2.2-1.3,2.2-2.9v-0.8h0c-0.6,0.7-1.5,1.2-2.4,1.2c-2,0-3.3-1.7-3.3-3.6c0-1.9,1.3-3.7,3.3-3.7
					c1,0,1.8,0.4,2.4,1.2h0v-1h1.2V117.2z M133.5,114c0,1.4,0.8,2.6,2.3,2.6c1.5,0,2.3-1.2,2.3-2.6c0-1.4-0.9-2.5-2.3-2.5
					C134.4,111.5,133.5,112.7,133.5,114z"/>
				<path class="st111" d="M150.1,111.4L150.1,111.4c0.5-0.7,1.2-1,2-1c1.9,0,2.4,1.4,2.4,3v4.1h-1.2v-3.9c0-1.1-0.1-2.1-1.5-2.1
					c-1.6,0-1.7,1.5-1.7,2.7v3.3h-1.2v-6.9h1.2V111.4z"/>
			</g>
			<g>
				<path class="st111" d="M371.9,105.3h1.2v6.2h0c0.6-0.7,1.4-1.2,2.4-1.2c2.1,0,3.3,1.7,3.3,3.7c0,1.9-1.3,3.7-3.3,3.7
					c-1,0-1.8-0.4-2.4-1.2h0v1h-1.2V105.3z M373,114c0,1.4,0.8,2.6,2.3,2.6c1.5,0,2.3-1.2,2.3-2.6c0-1.4-0.9-2.5-2.3-2.5
					C373.9,111.5,373,112.7,373,114z"/>
				<path class="st111" d="M389,111.3L389,111.3c0.4-0.5,0.8-0.9,1.6-0.9c0.4,0,0.7,0.1,1.1,0.3l-0.6,1.1c-0.2-0.2-0.4-0.3-0.7-0.3
					c-1.3,0-1.4,1.7-1.4,2.6v3.5h-1.2v-6.9h1.2V111.3z"/>
				<path class="st111" d="M406.5,117.5h-1.2v-1h0c-0.6,0.8-1.4,1.2-2.4,1.2c-2,0-3.3-1.7-3.3-3.6c0-2,1.3-3.7,3.3-3.7
					c0.9,0,1.8,0.4,2.4,1.2h0v-1h1.2V117.5z M400.8,114c0,1.4,0.8,2.6,2.3,2.6c1.5,0,2.3-1.2,2.3-2.6c0-1.4-0.9-2.5-2.3-2.5
					C401.7,111.5,400.8,112.7,400.8,114z"/>
				<path class="st111" d="M417.2,111.4L417.2,111.4c0.5-0.7,1.2-1,2-1c1.9,0,2.4,1.4,2.4,3v4.1h-1.2v-3.9c0-1.1-0.1-2.1-1.5-2.1
					c-1.6,0-1.7,1.5-1.7,2.7v3.3h-1.2v-6.9h1.2V111.4z"/>
				<path class="st111" d="M436.4,116.5L436.4,116.5c-0.6,0.8-1.5,1.2-2.4,1.2c-2,0-3.3-1.7-3.3-3.6c0-2,1.3-3.7,3.3-3.7
					c0.9,0,1.8,0.4,2.4,1.2h0v-6.2h1.2v12.2h-1.2V116.5z M431.9,114c0,1.4,0.8,2.6,2.3,2.6c1.5,0,2.3-1.2,2.3-2.6
					c0-1.4-0.9-2.5-2.3-2.5C432.7,111.5,431.9,112.7,431.9,114z"/>
				<path class="st111" d="M448.8,107.9c0,0.5-0.4,0.8-0.8,0.8s-0.8-0.4-0.8-0.8c0-0.5,0.4-0.8,0.8-0.8S448.8,107.5,448.8,107.9z
					 M448.5,117.5h-1.2v-6.9h1.2V117.5z"/>
				<path class="st111" d="M459.6,111.4L459.6,111.4c0.5-0.7,1.2-1,2-1c1.9,0,2.4,1.4,2.4,3v4.1h-1.2v-3.9c0-1.1-0.1-2.1-1.5-2.1
					c-1.6,0-1.7,1.5-1.7,2.7v3.3h-1.2v-6.9h1.2V111.4z"/>
				<path class="st111" d="M479.8,117.2c0,1.1,0,2.1-0.7,3c-0.7,0.8-1.7,1.2-2.7,1.2c-1.9,0-3.4-1.2-3.4-3.2h1.2
					c0,1.3,0.9,2.1,2.2,2.1c1.8,0,2.2-1.3,2.2-2.9v-0.8h0c-0.6,0.7-1.5,1.2-2.4,1.2c-2,0-3.3-1.7-3.3-3.6c0-1.9,1.3-3.7,3.3-3.7
					c1,0,1.8,0.4,2.4,1.2h0v-1h1.2V117.2z M474.1,114c0,1.4,0.8,2.6,2.3,2.6c1.5,0,2.3-1.2,2.3-2.6c0-1.4-0.9-2.5-2.3-2.5
					C475,111.5,474.1,112.7,474.1,114z"/>
			</g>
			<g>
				<path class="st0" d="M18.4,52.1c10.7,0,19.4,8.6,19.4,19.1c0,10.5-8.7,19.1-19.4,19.1H4.8V52.1H18.4 M12.2,84.6h1.7h2.4
					c8.3,0,13.7-5.2,13.7-13.4c0-8.1-5.3-13.4-13.6-13.4h-2.5h-1.7v1.7v23.3V84.6 M18.4,50.4H3.1V92h15.3c11.5,0,21.1-9.1,21.1-20.8
					S30,50.4,18.4,50.4L18.4,50.4z M13.9,82.8V59.6h2.5c6.9,0,11.9,4.2,11.9,11.6c0,8.1-5.5,11.6-12,11.6H13.9L13.9,82.8z"/>
				<path class="st0" d="M64.7,52.1v38.1h-7.4V52.1H64.7 M66.4,50.4H55.6V92h10.8V50.4L66.4,50.4z"/>
				<path class="st0" d="M93.6,52.1v30.7v1.7h1.7h11.2v5.7H86.2V52.1H93.6 M95.3,50.4H84.5V92h23.8v-9.2h-13V50.4L95.3,50.4z"/>
				<path class="st0" d="M131.9,52.1v30.7v1.7h1.7h11.2v5.7h-20.3V52.1H131.9 M133.6,50.4h-10.8V92h23.8v-9.2h-13V50.4L133.6,50.4z"
					/>
				<path class="st0" d="M182,50.8c10.2,0,21.3,7.5,21.3,19.7c0,12.5-8.8,21.2-21.3,21.2c-12.5,0-21.3-8.7-21.3-21.2
					C160.7,58.3,171.8,50.8,182,50.8 M182,84.6c7.6,0,13.5-6.2,13.5-14.1c0-6.9-6.2-12.7-13.5-12.7c-7.3,0-13.5,5.8-13.5,12.7
					C168.6,78.4,174.5,84.6,182,84.6 M182,49c-12,0-23,8.8-23,21.4c0,13.5,9.7,22.9,23,22.9c13.4,0,23-9.5,23-22.9
					C205,57.9,194,49,182,49L182,49z M182,82.9c-6.5,0-11.7-5.2-11.7-12.4c0-5.7,5.3-11,11.7-11c6.5,0,11.7,5.2,11.7,11
					C193.8,77.7,188.5,82.9,182,82.9L182,82.9z"/>
				<path class="st0" d="M260.9,52.1v38.1h-8.2l-19.3-24.8l-0.6-0.7h-0.8h-1.7v1.7v23.8h-7.4V52.1h8.2l19.3,24.8l0.6,0.7h0.8h1.7
					v-1.7V52.1H260.9 M262.6,50.4h-10.8v25.4h-0.1l-19.8-25.4h-10.8V92h10.8V66.5h0.1L251.8,92h10.8V50.4L262.6,50.4z"/>
				<path class="st0" d="M344.3,52.1v38.1h-7.4V75v-1.7h-1.7h-15.6h-1.7V75v15.3h-7.4V52.1h7.4v14.3v1.7h1.7h15.6h1.7v-1.7V52.1
					H344.3 M346,50.4h-10.8v16.1h-15.6V50.4h-10.8V92h10.8V75h15.6v17H346V50.4L346,50.4z"/>
				<path class="st0" d="M386.9,52.1l14.4,38.1h-7.8l-2.3-6.1l-0.4-1.1h-1.2h-14.9h-1.2l-0.4,1.1l-2.4,6.1h-7.8l14.7-38.1H386.9
					 M375.3,78.2h2.4h9h2.4l-0.8-2.3l-4.4-13.2l-0.5-1.2h-1.2h-1.2l-0.4,1.2L376,75.9L375.3,78.2 M388.1,50.4h-11.8l-16,41.6h11.5
					l2.9-7.2h14.9l2.7,7.2h11.5L388.1,50.4L388.1,50.4z M377.7,76.5l4.5-13.2h0.1l4.4,13.2H377.7L377.7,76.5z"/>
				<path class="st0" d="M427.3,52.1v30.7v1.7h1.7h11.2v5.7h-20.3V52.1H427.3 M429,50.4h-10.8V92H442v-9.2h-13V50.4L429,50.4z"/>
				<path class="st0" d="M465.6,52.1v30.7v1.7h1.7h11.2v5.7h-20.3V52.1H465.6 M467.3,50.4h-10.8V92h23.8v-9.2h-13V50.4L467.3,50.4z"
					/>
			</g>
			<circle class="st0" cx="172.8" cy="114.4" r="3.1"/>
			<circle class="st0" cx="355.6" cy="114.4" r="3.1"/>
			<g>
				<path class="st0" d="M228.4,25.3c0.2,0,0.6,0.5,0.8,0.5c2.1,0.2,3.9-0.2,5.8-0.5c4-0.6,11.4-5.3,14.6-6.7c2-0.9,3.6-1.8,5-2.7
					c0.1-0.1,1.9-1,1.6-1.8c-0.7-1.7-1.6-3.5-2.7-4.9c-0.8-1-3-3.2-4-4c-2.8-2-4.6-3.1-7.7-2.1c-1.4,0.4-2.8,0.8-4.1,1.2
					c-0.6,0.2-0.6,0.2-1.2,0.3l-1,0l-0.6-0.8l-0.5-0.1c-0.9,0.4-1.7,0.7-2.6,1.2c-1.4,0.7-1.3,1-2.8,1.6c-1.9,0.8-3,2.2-3.7,4.5
					C223.5,16.3,224.4,19.9,228.4,25.3z"/>
				<path class="st0" d="M269.3,4.5c-0.7-1.2-1.6-2.2-2.7-2.7c-5.5-2.3-17.8,0.3-17.8,0.3c0,0-0.6,0.3-0.7,0.4
					c0.2,0.3,0.5,0.5,0.7,0.8c0.8,0.9,1.6,1.1,2.4,1.9c0.1,0.1,0.5,0.2,1.3,0.2c2.1-0.2,5.6-0.5,6.1-0.5c0,0,2.7,1.1,3.2,1.7
					c0.1,0.1,0.9,1.2,1,1.3c0.4,0.8-0.2,1.6-0.7,2.5c-0.4,0.8-1,1.4-1.7,2c-0.3,0.3-0.6,0.7-0.9,1c-0.2,0.3-0.5,0.5-0.7,0.8
					c-0.3,0.3-0.6,0.6-0.8,0.9c-0.8,0.6-1.8,1.3-2.9,2c-1.4,0.9-3,1.8-5,2.7c-3.1,1.4-10.6,6.1-14.6,6.7c-2,0.3-4,0.4-6.1,0.3
					c-3.5-0.1-4.1,0.7-8.3,0.2c-1.6-0.2-3.3-1.2-3.8-1.9c-0.3-0.4-0.8-1.5-0.9-2.1c0-0.1,0-1.7,0.2-2.2c0.2-0.5,0.9-1.4,1.3-1.7
					c1.1-0.8,2.6-1.2,4.8-2.2c1-0.4,0.2-1.5,0.4-2.8c0-0.3,0.2-1.6,0.4-1.9c0.5-0.8-0.5,0.7-0.1-0.3c0-0.1,0.1-0.3,0.1-0.4
					c-0.5,0.2-0.8,0.5-1.3,0.8c-4.5,2.6-6.5,3-9,6.2c-1.9,2.3-2.7,4-2.9,5.7c0,0.1,0.1,2.7,0.3,3.3c0.2,0.5,1.8,2,1.8,2
					c0.8,0.7,3.9,1.7,5.4,2c3.1,0.8,4.1,0.3,7.1,0.5c16-2.4,27.1-0.7,41.4-17.8c1.4-0.9,2.3-2.2,2.9-3.7c0.1-0.1,0.2-0.3,0.3-0.4
					l-0.1,0c0.1-0.4,0.4-0.7,0.5-1.1C270.5,7.6,270.1,5.9,269.3,4.5z"/>
				<ellipse class="st0" cx="266.2" cy="22.6" rx="2.3" ry="2.1"/>
				<path class="st0" d="M224.8,3.1c-0.8,0.6-2,0.5-2.7-0.2c-0.7-0.7-0.6-1.9,0.2-2.5s2-0.5,2.7,0.2C225.7,1.4,225.6,2.5,224.8,3.1z
					"/>
				<path class="st0" d="M217.6,5c-0.4,0.3-1,0.3-1.4-0.1c-0.3-0.4-0.3-0.9,0.1-1.2c0.4-0.3,1-0.3,1.4,0.1C218,4.1,218,4.7,217.6,5z
					"/>
				<path class="st0" d="M258.6,23.1c0,0,0.7,2.6-2.4,5.4c-3.1,2.8-9.7,6.3-17.8,5.2c-1.4-0.2-2.4-0.7-3.5-1.6
					C234.9,32.1,251.3,31,258.6,23.1z"/>
			</g>
		</g>
	</g>
</g>
<g id="Layer_2">
</g>
</svg>
