<?xml version="1.0" encoding="UTF-8" standalone="no"?>
<!-- Generator: Adobe Illustrator 19.0.1, SVG Export Plug-In . SVG Version: 6.00 Build 0)  -->

<svg
   xmlns:dc="http://purl.org/dc/elements/1.1/"
   xmlns:cc="http://creativecommons.org/ns#"
   xmlns:rdf="http://www.w3.org/1999/02/22-rdf-syntax-ns#"
   xmlns:svg="http://www.w3.org/2000/svg"
   xmlns="http://www.w3.org/2000/svg"
   xmlns:sodipodi="http://sodipodi.sourceforge.net/DTD/sodipodi-0.dtd"
   xmlns:inkscape="http://www.inkscape.org/namespaces/inkscape"
   version="1.1"
   x="0px"
   y="0px"
   viewBox="0 0 480 177.6"
   style="enable-background:new 0 0 480 177.6;"
   xml:space="preserve"
   id="svg2"
   inkscape:version="0.48.4 r9939"
   width="100%"
   height="100%"
   sodipodi:docname="contact.svg"><metadata
     id="metadata159"><rdf:RDF><cc:Work
         rdf:about=""><dc:format>image/svg+xml</dc:format><dc:type
           rdf:resource="http://purl.org/dc/dcmitype/StillImage" /></cc:Work></rdf:RDF></metadata><defs
     id="defs157" /><sodipodi:namedview
     pagecolor="#ffffff"
     bordercolor="#666666"
     borderopacity="1"
     objecttolerance="10"
     gridtolerance="10"
     guidetolerance="10"
     inkscape:pageopacity="0"
     inkscape:pageshadow="2"
     inkscape:window-width="1401"
     inkscape:window-height="656"
     id="namedview155"
     showgrid="false"
     inkscape:zoom="1.2958333"
     inkscape:cx="195.32016"
     inkscape:cy="139.62292"
     inkscape:window-x="2931"
     inkscape:window-y="369"
     inkscape:window-maximized="0"
     inkscape:current-layer="svg2" /><style
     type="text/css"
     id="style4">
	.st0{fill:#FFFFFF;}
	.st1{fill:#3399CC;}
	.st2{font-family:'Roboto-Thin';}
	.st3{font-size:14.7576px;}
	.st4{letter-spacing:7;}
	.st5{fill:#FF9966;}
	.st6{fill:#382C3D;}
	.st7{fill:#221F20;}
	.st8{fill:#FFCC66;}
	.st9{fill:#3D220E;}
	.st10{fill:none;stroke:#FFFFFF;stroke-width:0.5618;stroke-miterlimit:10;}
	.st11{fill:#CDCBCA;}
	.st12{fill:#669897;}
	.st13{clip-path:url(#SVGID_4_);}
	.st14{fill:none;stroke:#FFFFFF;stroke-width:2.3528;stroke-miterlimit:10;}
	.st15{fill:#CDCAC9;}
	.st16{fill:#FDCC66;}
	.st17{fill:url(#SVGID_5_);}
	.st18{fill:url(#SVGID_6_);}
	.st19{fill:url(#SVGID_7_);}
	.st20{fill:#999999;}
	.st21{fill:#CC6633;}
	.st22{opacity:0.5;fill:#653614;}
	.st23{opacity:0.69;fill:#FF9966;}
</style><g
     id="g17"
     transform="translate(0,26)"><path
       class="st1"
       d="m 189.8,107.3 c 0,-0.1 0,-0.2 0.1,-0.3 0.1,-0.1 0.2,-0.1 0.3,-0.1 0.1,0 0.2,0 0.3,0.1 0.1,0.1 0.1,0.2 0.1,0.3 0,0.1 0,0.2 -0.1,0.3 -0.1,0.1 -0.2,0.1 -0.3,0.1 -0.1,0 -0.2,0 -0.3,-0.1 0,-0.1 -0.1,-0.2 -0.1,-0.3 z m 0.6,10.2 H 190 v -7.8 h 0.4 v 7.8 z"
       id="path19"
       inkscape:connector-curvature="0"
       style="fill:#3399cc" /><path
       class="st1"
       d="m 200.8,117.5 h -0.4 v -11.1 h 0.4 v 11.1 z"
       id="path21"
       inkscape:connector-curvature="0"
       style="fill:#3399cc" /><path
       class="st1"
       d="m 211.3,117.5 h -0.4 v -11.1 h 0.4 v 11.1 z"
       id="path23"
       inkscape:connector-curvature="0"
       style="fill:#3399cc" /><path
       class="st1"
       d="m 226.4,117.5 v -1.3 c -0.2,0.4 -0.6,0.8 -1,1 -0.4,0.3 -1,0.4 -1.7,0.4 -0.4,0 -0.7,-0.1 -1,-0.2 -0.3,-0.1 -0.6,-0.3 -0.8,-0.5 -0.2,-0.2 -0.4,-0.5 -0.5,-0.9 -0.1,-0.4 -0.2,-0.8 -0.2,-1.4 v -5 h 0.4 v 5 c 0,0.5 0.1,0.9 0.2,1.2 0.1,0.3 0.3,0.6 0.5,0.8 0.2,0.2 0.4,0.4 0.7,0.4 0.3,0.1 0.6,0.1 0.9,0.1 0.4,0 0.8,-0.1 1.1,-0.2 0.3,-0.1 0.6,-0.3 0.8,-0.4 0.2,-0.2 0.4,-0.4 0.5,-0.7 0.1,-0.2 0.2,-0.5 0.3,-0.8 v -5.5 h 0.4 v 7.8 h -0.6 z"
       id="path25"
       inkscape:connector-curvature="0"
       style="fill:#3399cc" /><path
       class="st1"
       d="m 241.5,115.6 c 0,-0.2 0,-0.4 -0.1,-0.5 -0.1,-0.2 -0.2,-0.4 -0.4,-0.5 -0.2,-0.1 -0.4,-0.3 -0.7,-0.5 -0.3,-0.2 -0.7,-0.3 -1.2,-0.4 -0.4,-0.1 -0.8,-0.2 -1.1,-0.3 -0.3,-0.1 -0.6,-0.3 -0.8,-0.4 -0.2,-0.2 -0.4,-0.4 -0.5,-0.6 -0.1,-0.2 -0.2,-0.5 -0.2,-0.8 0,-0.3 0.1,-0.5 0.2,-0.8 0.1,-0.2 0.3,-0.4 0.5,-0.6 0.2,-0.2 0.5,-0.3 0.8,-0.4 0.3,-0.1 0.7,-0.2 1.1,-0.2 0.4,0 0.8,0.1 1.2,0.2 0.3,0.1 0.6,0.3 0.9,0.5 0.2,0.2 0.4,0.4 0.6,0.7 0.1,0.3 0.2,0.6 0.2,0.9 h -0.4 c 0,-0.2 -0.1,-0.5 -0.2,-0.7 -0.1,-0.2 -0.3,-0.4 -0.5,-0.6 -0.2,-0.2 -0.5,-0.3 -0.7,-0.4 -0.2,-0.1 -0.6,-0.2 -1,-0.2 -0.4,0 -0.7,0 -1,0.1 -0.3,0.1 -0.5,0.2 -0.7,0.4 -0.2,0.2 -0.3,0.3 -0.4,0.5 -0.1,0.2 -0.1,0.4 -0.1,0.6 0,0.2 0,0.4 0.1,0.6 0.1,0.2 0.2,0.3 0.3,0.5 0.2,0.1 0.4,0.3 0.7,0.4 0.3,0.1 0.7,0.3 1.2,0.4 0.5,0.1 0.9,0.2 1.2,0.4 0.3,0.1 0.6,0.3 0.8,0.5 0.2,0.2 0.4,0.4 0.5,0.6 0.1,0.2 0.2,0.5 0.2,0.8 0,0.3 -0.1,0.6 -0.2,0.8 -0.1,0.2 -0.3,0.5 -0.5,0.6 -0.2,0.2 -0.5,0.3 -0.9,0.4 -0.3,0.1 -0.7,0.2 -1.1,0.2 -0.5,0 -0.9,-0.1 -1.3,-0.2 -0.4,-0.1 -0.7,-0.3 -0.9,-0.5 -0.2,-0.2 -0.4,-0.4 -0.6,-0.7 -0.1,-0.3 -0.2,-0.5 -0.2,-0.8 h 0.4 c 0,0.3 0.1,0.6 0.3,0.8 0.2,0.2 0.4,0.4 0.6,0.5 0.2,0.1 0.5,0.2 0.8,0.3 0.3,0.1 0.6,0.1 0.9,0.1 0.4,0 0.7,0 1,-0.1 0.3,-0.1 0.5,-0.2 0.7,-0.4 0.2,-0.2 0.3,-0.3 0.4,-0.5 0.1,-0.2 0.1,-0.5 0.1,-0.7 z"
       id="path27"
       inkscape:connector-curvature="0"
       style="fill:#3399cc" /><path
       class="st1"
       d="m 252.2,107.6 v 2.1 h 1.8 v 0.4 h -1.8 v 5.5 c 0,0.3 0,0.6 0.1,0.8 0.1,0.2 0.1,0.4 0.3,0.5 0.1,0.1 0.2,0.2 0.4,0.2 0.1,0 0.3,0.1 0.4,0.1 0.1,0 0.3,0 0.4,0 0.1,0 0.2,0 0.4,0 l 0.1,0.4 c -0.1,0 -0.1,0 -0.2,0 -0.1,0 -0.1,0 -0.2,0 -0.1,0 -0.2,0 -0.2,0 -0.1,0 -0.1,0 -0.2,0 -0.2,0 -0.5,0 -0.7,-0.1 -0.2,-0.1 -0.4,-0.2 -0.5,-0.3 -0.1,-0.2 -0.2,-0.4 -0.3,-0.6 -0.1,-0.3 -0.1,-0.6 -0.1,-1 v -5.5 h -1.4 v -0.4 h 1.4 v -2.1 h 0.3 z"
       id="path29"
       inkscape:connector-curvature="0"
       style="fill:#3399cc" /><path
       class="st1"
       d="m 266.9,110 c -0.1,0 -0.2,0 -0.2,0 -0.1,0 -0.2,0 -0.3,0 -0.4,0 -0.7,0.1 -1,0.2 -0.3,0.1 -0.5,0.3 -0.7,0.5 -0.2,0.2 -0.4,0.5 -0.5,0.8 -0.1,0.3 -0.2,0.6 -0.3,1 v 5.1 h -0.4 v -7.8 h 0.4 v 1.6 c 0.2,-0.5 0.5,-1 1,-1.3 0.4,-0.3 1,-0.5 1.6,-0.5 0.1,0 0.2,0 0.3,0 0.1,0 0.2,0 0.2,0.1 l -0.1,0.3 z"
       id="path31"
       inkscape:connector-curvature="0"
       style="fill:#3399cc" /><path
       class="st1"
       d="m 280.5,117.5 c -0.1,-0.2 -0.1,-0.4 -0.1,-0.7 0,-0.3 0,-0.5 0,-0.8 -0.1,0.2 -0.3,0.4 -0.5,0.6 -0.2,0.2 -0.4,0.4 -0.7,0.5 -0.3,0.1 -0.5,0.3 -0.9,0.3 -0.4,0 -0.7,0.1 -1.1,0.1 -0.4,0 -0.7,-0.1 -1,-0.2 -0.3,-0.1 -0.5,-0.2 -0.8,-0.4 -0.2,-0.2 -0.4,-0.4 -0.5,-0.7 -0.1,-0.3 -0.2,-0.5 -0.2,-0.9 0,-0.3 0.1,-0.7 0.2,-1 0.2,-0.3 0.4,-0.5 0.7,-0.8 0.3,-0.3 0.7,-0.4 1.1,-0.5 0.4,-0.1 1,-0.2 1.5,-0.2 h 1.9 V 112 c 0,-0.7 -0.2,-1.2 -0.6,-1.5 -0.4,-0.4 -1,-0.5 -1.8,-0.5 -0.4,0 -0.7,0 -1,0.1 -0.3,0.1 -0.6,0.2 -0.8,0.4 -0.2,0.2 -0.4,0.4 -0.5,0.6 -0.1,0.2 -0.2,0.5 -0.2,0.8 l -0.4,0 c 0,-0.3 0.1,-0.6 0.2,-0.9 0.1,-0.3 0.3,-0.5 0.6,-0.7 0.3,-0.2 0.6,-0.4 0.9,-0.5 0.4,-0.1 0.7,-0.2 1.2,-0.2 0.4,0 0.8,0.1 1.1,0.2 0.3,0.1 0.6,0.3 0.9,0.5 0.2,0.2 0.4,0.5 0.6,0.8 0.2,0.3 0.2,0.7 0.2,1.1 v 3.9 c 0,0.1 0,0.3 0,0.4 0,0.1 0,0.3 0,0.4 0,0.1 0,0.3 0.1,0.4 0,0.1 0.1,0.2 0.1,0.3 v 0.1 h -0.2 z m -3.2,-0.2 c 0.4,0 0.7,0 1,-0.1 0.3,-0.1 0.6,-0.2 0.9,-0.4 0.3,-0.2 0.5,-0.4 0.7,-0.6 0.2,-0.2 0.4,-0.5 0.5,-0.8 v -1.9 h -1.8 c -0.5,0 -1,0 -1.4,0.1 -0.4,0.1 -0.7,0.2 -1,0.4 -0.3,0.2 -0.5,0.4 -0.6,0.6 -0.1,0.2 -0.2,0.5 -0.2,0.8 0,0.2 0,0.5 0.1,0.7 0.1,0.2 0.2,0.4 0.4,0.5 0.2,0.1 0.4,0.3 0.6,0.4 0.2,0.2 0.5,0.3 0.8,0.3 z"
       id="path33"
       inkscape:connector-curvature="0"
       style="fill:#3399cc" /><path
       class="st1"
       d="m 291.5,107.6 v 2.1 h 1.8 v 0.4 h -1.8 v 5.5 c 0,0.3 0,0.6 0.1,0.8 0.1,0.2 0.1,0.4 0.3,0.5 0.1,0.1 0.2,0.2 0.4,0.2 0.1,0 0.3,0.1 0.5,0.1 0.1,0 0.3,0 0.4,0 0.1,0 0.2,0 0.4,0 l 0.1,0.4 c -0.1,0 -0.1,0 -0.2,0 -0.1,0 -0.1,0 -0.2,0 -0.1,0 -0.2,0 -0.2,0 -0.1,0 -0.1,0 -0.2,0 -0.2,0 -0.5,0 -0.7,-0.1 -0.2,-0.1 -0.4,-0.2 -0.5,-0.3 -0.1,-0.2 -0.2,-0.4 -0.3,-0.6 -0.1,-0.3 -0.1,-0.6 -0.1,-1 v -5.5 h -1.4 v -0.4 h 1.4 v -2.1 h 0.2 z"
       id="path35"
       inkscape:connector-curvature="0"
       style="fill:#3399cc" /><path
       class="st1"
       d="m 302.6,107.3 c 0,-0.1 0,-0.2 0.1,-0.3 0.1,-0.1 0.2,-0.1 0.3,-0.1 0.1,0 0.2,0 0.3,0.1 0.1,0.1 0.1,0.2 0.1,0.3 0,0.1 0,0.2 -0.1,0.3 -0.1,0.1 -0.2,0.1 -0.3,0.1 -0.1,0 -0.2,0 -0.3,-0.1 -0.1,-0.1 -0.1,-0.2 -0.1,-0.3 z m 0.5,10.2 h -0.4 v -7.8 h 0.4 v 7.8 z"
       id="path37"
       inkscape:connector-curvature="0"
       style="fill:#3399cc" /><path
       class="st1"
       d="m 312.5,113.4 c 0,-0.6 0.1,-1.1 0.2,-1.6 0.1,-0.5 0.4,-0.9 0.7,-1.2 0.3,-0.3 0.7,-0.6 1.1,-0.8 0.4,-0.2 0.9,-0.3 1.4,-0.3 0.5,0 1,0.1 1.4,0.3 0.4,0.2 0.8,0.5 1.1,0.8 0.3,0.3 0.5,0.8 0.7,1.2 0.2,0.5 0.2,1 0.2,1.6 v 0.3 c 0,0.6 -0.1,1.1 -0.2,1.6 -0.2,0.5 -0.4,0.9 -0.7,1.2 -0.3,0.3 -0.7,0.6 -1.1,0.8 -0.4,0.2 -0.9,0.3 -1.4,0.3 -0.5,0 -1,-0.1 -1.4,-0.3 -0.4,-0.2 -0.8,-0.5 -1.1,-0.8 -0.3,-0.3 -0.5,-0.8 -0.7,-1.2 -0.2,-0.4 -0.2,-1 -0.2,-1.6 v -0.3 z m 0.4,0.3 c 0,0.5 0.1,0.9 0.2,1.3 0.1,0.4 0.3,0.8 0.6,1.1 0.3,0.3 0.6,0.6 1,0.8 0.4,0.2 0.8,0.3 1.3,0.3 0.5,0 0.9,-0.1 1.3,-0.3 0.4,-0.2 0.7,-0.4 0.9,-0.8 0.3,-0.3 0.5,-0.7 0.6,-1.1 0.1,-0.4 0.2,-0.9 0.2,-1.3 v -0.3 c 0,-0.5 -0.1,-0.9 -0.2,-1.3 -0.1,-0.4 -0.3,-0.8 -0.6,-1.1 -0.3,-0.3 -0.6,-0.6 -1,-0.8 -0.4,-0.2 -0.8,-0.3 -1.3,-0.3 -0.5,0 -0.9,0.1 -1.3,0.3 -0.4,0.2 -0.7,0.5 -0.9,0.8 -0.3,0.3 -0.5,0.7 -0.6,1.1 -0.1,0.4 -0.2,0.9 -0.2,1.3 v 0.3 z"
       id="path39"
       inkscape:connector-curvature="0"
       style="fill:#3399cc" /><path
       class="st1"
       d="m 329.4,110.7 c 0.2,-0.2 0.4,-0.4 0.6,-0.6 0.2,-0.2 0.5,-0.3 0.8,-0.4 0.3,-0.1 0.6,-0.2 0.9,-0.2 0.4,0 0.7,0.1 1.1,0.2 0.3,0.1 0.6,0.3 0.8,0.5 0.2,0.2 0.4,0.5 0.5,0.9 0.1,0.4 0.2,0.8 0.2,1.3 v 5 h -0.4 v -5 c 0,-0.5 -0.1,-0.9 -0.2,-1.2 -0.1,-0.3 -0.2,-0.6 -0.4,-0.8 -0.2,-0.2 -0.4,-0.3 -0.7,-0.4 -0.3,-0.1 -0.5,-0.1 -0.9,-0.1 -0.3,0 -0.5,0 -0.8,0.1 -0.2,0.1 -0.4,0.2 -0.6,0.3 -0.2,0.1 -0.4,0.3 -0.5,0.5 -0.1,0.2 -0.3,0.4 -0.4,0.5 -0.1,0.2 -0.2,0.4 -0.3,0.6 -0.1,0.2 -0.1,0.4 -0.2,0.5 v 5 h -0.4 v -7.8 h 0.4 v 1.8 c 0.2,-0.2 0.3,-0.4 0.5,-0.7 z"
       id="path41"
       inkscape:connector-curvature="0"
       style="fill:#3399cc" /></g><g
     id="g43"
     transform="translate(0,26)"><path
       class="st1"
       d="m 0,48.5 h 15.3 c 11.6,0 21.1,9.1 21.1,20.8 0,11.7 -9.6,20.8 -21.1,20.8 H 0 V 48.5 z M 10.8,81 h 2.4 c 6.5,0 12,-3.5 12,-11.6 C 25.2,62 20.3,57.8 13.3,57.8 H 10.8 V 81 z"
       id="path45"
       inkscape:connector-curvature="0"
       style="fill:#3399cc" /><path
       class="st1"
       d="M 63.3,90.1 H 52.5 V 48.5 h 10.8 v 41.6 z"
       id="path47"
       inkscape:connector-curvature="0"
       style="fill:#3399cc" /><path
       class="st1"
       d="m 92.2,81 h 13 v 9.2 H 81.4 V 48.5 H 92.2 V 81 z"
       id="path49"
       inkscape:connector-curvature="0"
       style="fill:#3399cc" /><path
       class="st1"
       d="m 130.5,81 h 13 v 9.2 H 119.7 V 48.5 h 10.8 V 81 z"
       id="path51"
       inkscape:connector-curvature="0"
       style="fill:#3399cc" /><path
       class="st1"
       d="m 201.9,68.6 c 0,13.5 -9.7,22.9 -23,22.9 -13.3,0 -23,-9.5 -23,-22.9 0,-12.6 11,-21.4 23,-21.4 12,0 23,8.8 23,21.4 z m -34.7,0 c 0,7.2 5.3,12.4 11.7,12.4 6.4,0 11.7,-5.2 11.7,-12.4 0,-5.7 -5.3,-11 -11.7,-11 -6.4,0 -11.7,5.3 -11.7,11 z"
       id="path53"
       inkscape:connector-curvature="0"
       style="fill:#3399cc" /><path
       class="st1"
       d="m 218,48.5 h 10.8 L 248.6,74 h 0.1 V 48.5 h 10.8 V 90.1 H 248.7 L 228.9,64.6 h -0.1 V 90.1 H 218 V 48.5 z"
       id="path55"
       inkscape:connector-curvature="0"
       style="fill:#3399cc" /><path
       class="st1"
       d="M 332.1,64.6 V 48.5 h 10.8 v 41.6 h -10.8 v -17 h -15.6 v 17 H 305.7 V 48.5 h 10.8 v 16.1 h 15.6 z"
       id="path57"
       inkscape:connector-curvature="0"
       style="fill:#3399cc" /><path
       class="st1"
       d="m 371.6,82.9 -2.9,7.2 h -11.5 l 16,-41.6 H 385 l 15.7,41.6 h -11.5 l -2.7,-7.2 h -14.9 z m 7.5,-21.5 H 379 l -4.5,13.2 h 9 l -4.4,-13.2 z"
       id="path59"
       inkscape:connector-curvature="0"
       style="fill:#3399cc" /><path
       class="st1"
       d="m 425.9,81 h 13 v 9.2 H 415.1 V 48.5 h 10.8 V 81 z"
       id="path61"
       inkscape:connector-curvature="0"
       style="fill:#3399cc" /><path
       class="st1"
       d="m 464.2,81 h 13 v 9.2 H 453.4 V 48.5 h 10.8 V 81 z"
       id="path63"
       inkscape:connector-curvature="0"
       style="fill:#3399cc" /></g><g
     id="g65"
     transform="translate(0,26)"><path
       class="st1"
       d="m 6.4,113.7 c 0,0.6 -0.1,1.1 -0.2,1.6 -0.1,0.5 -0.3,0.9 -0.6,1.3 -0.2,0.3 -0.6,0.6 -0.9,0.8 -0.3,0.2 -0.8,0.3 -1.2,0.3 -0.3,0 -0.6,0 -0.9,-0.1 C 2.3,117.5 2.1,117.4 1.9,117.3 1.7,117.2 1.5,117 1.3,116.9 1.1,116.7 1,116.6 0.9,116.4 v 4.2 H 0.4 v -10.8 h 0.4 v 1.4 c 0.1,-0.2 0.3,-0.4 0.4,-0.6 0.2,-0.2 0.4,-0.3 0.6,-0.5 0.2,-0.1 0.5,-0.2 0.7,-0.3 0.2,-0.1 0.6,-0.1 0.9,-0.1 0.5,0 0.9,0.1 1.2,0.3 0.3,0.2 0.7,0.4 0.9,0.8 0.3,0.3 0.4,0.8 0.6,1.2 0.1,0.5 0.2,1 0.2,1.7 v 0 z M 6,113.5 C 6,113 5.9,112.5 5.8,112.1 5.7,111.7 5.5,111.3 5.3,111 5.1,110.7 4.8,110.4 4.5,110.3 4.2,110.2 3.8,110 3.4,110 c -0.4,0 -0.8,0.1 -1.1,0.2 -0.3,0.1 -0.6,0.3 -0.8,0.5 -0.2,0.2 -0.4,0.4 -0.5,0.6 -0.1,0.2 -0.2,0.5 -0.3,0.7 v 3.6 c 0.1,0.2 0.2,0.5 0.4,0.7 0.2,0.2 0.3,0.4 0.6,0.5 0.2,0.2 0.5,0.3 0.8,0.4 0.3,0.1 0.6,0.1 1,0.1 0.4,0 0.8,-0.1 1.1,-0.3 0.3,-0.2 0.6,-0.4 0.8,-0.7 0.2,-0.3 0.4,-0.7 0.5,-1.1 0.1,-0.4 0.2,-0.9 0.2,-1.4 v -0.3 z"
       id="path67"
       inkscape:connector-curvature="0"
       style="fill:#3399cc" /><path
       class="st1"
       d="m 19.3,110 c -0.1,0 -0.2,0 -0.2,0 -0.1,0 -0.2,0 -0.3,0 -0.4,0 -0.7,0.1 -1,0.2 -0.3,0.1 -0.5,0.3 -0.7,0.5 -0.2,0.2 -0.4,0.5 -0.5,0.8 -0.1,0.3 -0.2,0.6 -0.3,1 v 5.1 h -0.4 v -7.8 h 0.4 v 1.6 c 0.2,-0.5 0.5,-1 1,-1.3 0.4,-0.3 1,-0.5 1.6,-0.5 0.1,0 0.2,0 0.3,0 0.1,0 0.2,0 0.2,0.1 l -0.1,0.3 z"
       id="path69"
       inkscape:connector-curvature="0"
       style="fill:#3399cc" /><path
       class="st1"
       d="m 28.1,107.3 c 0,-0.1 0,-0.2 0.1,-0.3 0.1,-0.1 0.2,-0.1 0.3,-0.1 0.1,0 0.2,0 0.3,0.1 0.1,0.1 0.1,0.2 0.1,0.3 0,0.1 0,0.2 -0.1,0.3 -0.1,0.1 -0.2,0.1 -0.3,0.1 -0.1,0 -0.2,0 -0.3,-0.1 -0.1,-0.1 -0.1,-0.2 -0.1,-0.3 z m 0.6,10.2 h -0.4 v -7.8 h 0.4 v 7.8 z"
       id="path71"
       inkscape:connector-curvature="0"
       style="fill:#3399cc" /><path
       class="st1"
       d="m 39.5,110.7 c 0.2,-0.2 0.4,-0.4 0.6,-0.6 0.2,-0.2 0.5,-0.3 0.8,-0.4 0.3,-0.1 0.6,-0.2 0.9,-0.2 0.4,0 0.7,0.1 1.1,0.2 0.3,0.1 0.6,0.3 0.8,0.5 0.2,0.2 0.4,0.5 0.5,0.9 0.1,0.4 0.2,0.8 0.2,1.3 v 5 H 44 v -5 c 0,-0.5 -0.1,-0.9 -0.2,-1.2 -0.1,-0.3 -0.2,-0.6 -0.4,-0.8 -0.2,-0.2 -0.4,-0.3 -0.7,-0.4 -0.3,-0.1 -0.5,-0.1 -0.9,-0.1 -0.3,0 -0.5,0 -0.8,0.1 -0.2,0.1 -0.4,0.2 -0.6,0.3 -0.2,0.1 -0.4,0.3 -0.5,0.5 -0.1,0.2 -0.3,0.4 -0.4,0.5 -0.1,0.1 -0.2,0.4 -0.3,0.6 -0.1,0.2 -0.1,0.4 -0.2,0.5 v 5 h -0.4 v -7.8 H 39 v 1.8 c 0.1,-0.2 0.3,-0.4 0.5,-0.7 z"
       id="path73"
       inkscape:connector-curvature="0"
       style="fill:#3399cc" /><path
       class="st1"
       d="m 55,107.6 v 2.1 h 1.8 v 0.4 H 55 v 5.5 c 0,0.3 0,0.6 0.1,0.8 0.1,0.2 0.1,0.4 0.3,0.5 0.1,0.1 0.2,0.2 0.4,0.2 0.1,0 0.3,0.1 0.5,0.1 0.1,0 0.3,0 0.4,0 0.1,0 0.2,0 0.4,0 l 0.1,0.4 c -0.1,0 -0.1,0 -0.2,0 -0.1,0 -0.1,0 -0.2,0 -0.1,0 -0.2,0 -0.2,0 -0.1,0 -0.1,0 -0.2,0 -0.2,0 -0.5,0 -0.7,-0.1 -0.2,-0.1 -0.4,-0.2 -0.5,-0.3 -0.1,-0.2 -0.2,-0.4 -0.3,-0.6 -0.1,-0.3 -0.1,-0.6 -0.1,-1 v -5.5 h -1.4 v -0.4 h 1.4 v -2.1 H 55 z"
       id="path75"
       inkscape:connector-curvature="0"
       style="fill:#3399cc" /><path
       class="st1"
       d="m 76.7,113.5 c 0,-0.6 0.1,-1.2 0.2,-1.7 0.1,-0.5 0.3,-0.9 0.6,-1.2 0.3,-0.3 0.6,-0.6 0.9,-0.8 0.3,-0.2 0.8,-0.3 1.2,-0.3 0.3,0 0.6,0 0.9,0.1 0.3,0.1 0.5,0.2 0.7,0.3 0.2,0.1 0.4,0.3 0.6,0.5 0.2,0.2 0.3,0.4 0.4,0.6 v -4.7 h 0.4 v 11.1 h -0.4 v -1.2 c -0.1,0.2 -0.3,0.4 -0.4,0.6 -0.2,0.2 -0.4,0.3 -0.6,0.4 -0.2,0.1 -0.5,0.2 -0.7,0.3 -0.3,0.1 -0.6,0.1 -0.9,0.1 -0.5,0 -0.9,-0.1 -1.2,-0.3 -0.3,-0.2 -0.7,-0.5 -0.9,-0.8 -0.2,-0.3 -0.4,-0.8 -0.6,-1.3 -0.1,-0.5 -0.2,-1 -0.2,-1.6 v -0.1 z m 0.4,0.2 c 0,0.5 0.1,1 0.2,1.4 0.1,0.4 0.3,0.8 0.5,1.1 0.2,0.3 0.5,0.6 0.8,0.7 0.3,0.1 0.7,0.3 1.1,0.3 0.4,0 0.7,0 1,-0.1 0.3,-0.1 0.5,-0.2 0.8,-0.4 0.2,-0.2 0.4,-0.3 0.6,-0.5 0.2,-0.2 0.3,-0.4 0.4,-0.7 v -3.7 c -0.1,-0.2 -0.2,-0.5 -0.3,-0.7 -0.1,-0.2 -0.3,-0.4 -0.5,-0.6 -0.2,-0.2 -0.5,-0.3 -0.8,-0.5 -0.3,-0.2 -0.7,-0.2 -1.1,-0.2 -0.4,0 -0.8,0.1 -1.1,0.3 -0.3,0.2 -0.6,0.4 -0.8,0.7 -0.2,0.3 -0.4,0.7 -0.5,1.1 -0.1,0.4 -0.2,0.9 -0.2,1.4 v 0.4 z"
       id="path77"
       inkscape:connector-curvature="0"
       style="fill:#3399cc" /><path
       class="st1"
       d="m 95.3,117.6 c -0.5,0 -0.9,-0.1 -1.3,-0.3 -0.4,-0.2 -0.8,-0.5 -1.1,-0.8 -0.3,-0.3 -0.6,-0.8 -0.7,-1.2 -0.2,-0.5 -0.3,-1 -0.3,-1.6 v -0.3 c 0,-0.6 0.1,-1.1 0.3,-1.6 0.2,-0.5 0.4,-0.9 0.7,-1.2 0.3,-0.3 0.6,-0.6 1,-0.8 0.4,-0.2 0.8,-0.3 1.3,-0.3 0.4,0 0.8,0.1 1.2,0.2 0.4,0.1 0.7,0.4 0.9,0.7 0.3,0.3 0.5,0.6 0.6,1.1 0.1,0.4 0.2,0.9 0.2,1.4 v 0.5 h -5.8 v 0.1 0.3 c 0,0.5 0.1,0.9 0.2,1.4 0.1,0.5 0.4,0.8 0.6,1.1 0.3,0.3 0.6,0.6 1,0.7 0.4,0.2 0.8,0.3 1.2,0.3 0.2,0 0.4,0 0.6,-0.1 0.2,0 0.4,-0.1 0.6,-0.2 0.2,-0.1 0.4,-0.2 0.6,-0.3 0.2,-0.1 0.3,-0.3 0.5,-0.5 l 0.3,0.2 c -0.1,0.2 -0.3,0.4 -0.4,0.5 -0.2,0.2 -0.4,0.3 -0.6,0.4 -0.2,0.1 -0.5,0.2 -0.7,0.3 -0.2,0.1 -0.6,0 -0.9,0 z m -0.1,-7.7 c -0.4,0 -0.8,0.1 -1.1,0.2 -0.3,0.2 -0.6,0.4 -0.9,0.6 -0.2,0.3 -0.5,0.6 -0.6,1 -0.2,0.4 -0.3,0.8 -0.3,1.2 h 5.4 v -0.1 c 0,-0.4 -0.1,-0.8 -0.2,-1.1 -0.1,-0.3 -0.3,-0.7 -0.5,-0.9 -0.2,-0.3 -0.5,-0.5 -0.8,-0.6 -0.3,-0.2 -0.6,-0.3 -1,-0.3 z"
       id="path79"
       inkscape:connector-curvature="0"
       style="fill:#3399cc" /><path
       class="st1"
       d="m 112.1,115.6 c 0,-0.2 0,-0.4 -0.1,-0.5 -0.1,-0.1 -0.2,-0.4 -0.4,-0.5 -0.2,-0.1 -0.4,-0.3 -0.7,-0.5 -0.3,-0.1 -0.7,-0.3 -1.2,-0.4 -0.4,-0.1 -0.8,-0.2 -1.1,-0.3 -0.3,-0.1 -0.6,-0.3 -0.8,-0.4 -0.2,-0.2 -0.4,-0.4 -0.5,-0.6 -0.1,-0.2 -0.2,-0.5 -0.2,-0.8 0,-0.3 0.1,-0.5 0.2,-0.8 0.1,-0.2 0.3,-0.4 0.5,-0.6 0.2,-0.2 0.5,-0.3 0.8,-0.4 0.3,-0.1 0.7,-0.2 1.1,-0.2 0.4,0 0.8,0.1 1.2,0.2 0.3,0.1 0.6,0.3 0.9,0.5 0.2,0.2 0.4,0.4 0.6,0.7 0.1,0.3 0.2,0.6 0.2,0.9 h -0.4 c 0,-0.2 -0.1,-0.5 -0.2,-0.7 -0.1,-0.2 -0.3,-0.4 -0.5,-0.6 -0.2,-0.2 -0.5,-0.3 -0.7,-0.4 -0.2,-0.1 -0.6,-0.2 -1,-0.2 -0.4,0 -0.7,0 -1,0.1 -0.3,0.1 -0.5,0.2 -0.7,0.4 -0.2,0.2 -0.3,0.3 -0.4,0.5 -0.1,0.2 -0.1,0.4 -0.1,0.6 0,0.2 0,0.4 0.1,0.6 0.1,0.2 0.2,0.3 0.3,0.5 0.2,0.1 0.4,0.3 0.7,0.4 0.3,0.1 0.7,0.3 1.2,0.4 0.5,0.1 0.9,0.2 1.2,0.4 0.3,0.1 0.6,0.3 0.8,0.5 0.2,0.2 0.4,0.4 0.5,0.6 0.1,0.2 0.2,0.5 0.2,0.8 0,0.3 -0.1,0.6 -0.2,0.8 -0.1,0.2 -0.3,0.5 -0.5,0.6 -0.2,0.2 -0.5,0.3 -0.9,0.4 -0.3,0.1 -0.7,0.2 -1.1,0.2 -0.5,0 -0.9,-0.1 -1.3,-0.2 -0.4,-0.1 -0.7,-0.3 -0.9,-0.5 -0.2,-0.2 -0.4,-0.4 -0.6,-0.7 -0.1,-0.3 -0.2,-0.5 -0.2,-0.8 h 0.4 c 0,0.3 0.1,0.6 0.3,0.8 0.2,0.2 0.4,0.4 0.6,0.5 0.2,0.1 0.5,0.2 0.8,0.3 0.3,0.1 0.6,0.1 0.9,0.1 0.4,0 0.7,0 1,-0.1 0.3,-0.1 0.5,-0.2 0.7,-0.4 0.2,-0.2 0.3,-0.3 0.4,-0.5 0.1,-0.3 0.1,-0.5 0.1,-0.7 z"
       id="path81"
       inkscape:connector-curvature="0"
       style="fill:#3399cc" /><path
       class="st1"
       d="m 121.9,107.3 c 0,-0.1 0,-0.2 0.1,-0.3 0.1,-0.1 0.2,-0.1 0.3,-0.1 0.1,0 0.2,0 0.3,0.1 0.1,0.1 0.1,0.2 0.1,0.3 0,0.1 0,0.2 -0.1,0.3 -0.1,0.1 -0.2,0.1 -0.3,0.1 -0.1,0 -0.2,0 -0.3,-0.1 0,-0.1 -0.1,-0.2 -0.1,-0.3 z m 0.6,10.2 h -0.4 v -7.8 h 0.4 v 7.8 z"
       id="path83"
       inkscape:connector-curvature="0"
       style="fill:#3399cc" /><path
       class="st1"
       d="m 132.1,113.5 c 0,-0.6 0.1,-1.2 0.2,-1.7 0.1,-0.5 0.3,-0.9 0.6,-1.2 0.3,-0.3 0.6,-0.6 0.9,-0.8 0.4,-0.2 0.8,-0.3 1.2,-0.3 0.3,0 0.6,0 0.9,0.1 0.3,0.1 0.5,0.2 0.7,0.3 0.2,0.1 0.4,0.3 0.6,0.5 0.2,0.2 0.3,0.4 0.4,0.6 v -1.4 h 0.4 v 7.7 c 0,0.5 -0.1,1 -0.2,1.4 -0.1,0.4 -0.3,0.7 -0.6,1 -0.3,0.3 -0.6,0.5 -0.9,0.6 -0.4,0.2 -0.8,0.2 -1.2,0.2 -0.3,0 -0.6,0 -0.8,-0.1 -0.2,-0.1 -0.5,-0.2 -0.7,-0.3 -0.2,-0.1 -0.4,-0.3 -0.6,-0.4 -0.2,-0.2 -0.3,-0.3 -0.5,-0.5 l 0.3,-0.3 c 0.3,0.4 0.6,0.7 1,0.9 0.4,0.2 0.8,0.3 1.3,0.3 0.4,0 0.8,-0.1 1.1,-0.2 0.3,-0.1 0.6,-0.3 0.8,-0.6 0.2,-0.3 0.4,-0.6 0.5,-0.9 0.1,-0.4 0.2,-0.7 0.2,-1.2 v -1.1 c -0.1,0.2 -0.3,0.4 -0.4,0.5 -0.1,0.1 -0.4,0.3 -0.6,0.4 -0.2,0.1 -0.5,0.2 -0.7,0.3 -0.3,0.1 -0.6,0.1 -0.9,0.1 -0.5,0 -0.9,-0.1 -1.2,-0.3 -0.3,-0.2 -0.7,-0.5 -0.9,-0.8 -0.2,-0.3 -0.4,-0.8 -0.6,-1.3 -0.1,-0.5 -0.2,-1 -0.2,-1.6 v 0.1 z m 0.4,0.2 c 0,0.5 0.1,1 0.2,1.4 0.1,0.4 0.3,0.8 0.5,1.1 0.2,0.3 0.5,0.6 0.8,0.7 0.3,0.2 0.7,0.3 1.1,0.3 0.4,0 0.7,0 1,-0.1 0.3,-0.1 0.5,-0.2 0.8,-0.4 0.2,-0.2 0.4,-0.3 0.6,-0.6 0.2,-0.2 0.3,-0.4 0.4,-0.7 V 112 c -0.1,-0.2 -0.2,-0.5 -0.3,-0.7 -0.1,-0.2 -0.3,-0.5 -0.5,-0.7 -0.2,-0.2 -0.5,-0.4 -0.8,-0.5 -0.3,-0.1 -0.7,-0.2 -1.1,-0.2 -0.4,0 -0.8,0.1 -1.1,0.3 -0.3,0.2 -0.6,0.4 -0.8,0.7 -0.2,0.3 -0.4,0.7 -0.5,1.1 -0.1,0.4 -0.2,0.9 -0.2,1.4 v 0.3 z"
       id="path85"
       inkscape:connector-curvature="0"
       style="fill:#3399cc" /><path
       class="st1"
       d="m 148.8,110.7 c 0.2,-0.2 0.4,-0.4 0.6,-0.6 0.2,-0.2 0.5,-0.3 0.8,-0.4 0.3,-0.1 0.6,-0.2 0.9,-0.2 0.4,0 0.7,0.1 1.1,0.2 0.3,0.1 0.6,0.3 0.8,0.5 0.2,0.2 0.4,0.5 0.5,0.9 0.1,0.4 0.2,0.8 0.2,1.3 v 5 h -0.4 v -5 c 0,-0.5 -0.1,-0.9 -0.2,-1.2 -0.1,-0.3 -0.2,-0.6 -0.4,-0.8 -0.2,-0.2 -0.4,-0.3 -0.7,-0.4 -0.3,-0.1 -0.5,-0.1 -0.9,-0.1 -0.3,0 -0.5,0 -0.8,0.1 -0.2,0.1 -0.4,0.2 -0.6,0.3 -0.2,0.1 -0.4,0.3 -0.5,0.5 -0.1,0.2 -0.3,0.4 -0.4,0.5 -0.1,0.1 -0.2,0.4 -0.3,0.6 -0.1,0.2 -0.1,0.4 -0.2,0.5 v 5 h -0.4 v -7.8 h 0.4 v 1.8 c 0.1,-0.2 0.3,-0.4 0.5,-0.7 z"
       id="path87"
       inkscape:connector-curvature="0"
       style="fill:#3399cc" /></g><g
     id="g89"
     transform="translate(0,26)"><path
       class="st1"
       d="m 379.1,113.7 c 0,0.6 -0.1,1.1 -0.2,1.6 -0.1,0.5 -0.3,0.9 -0.6,1.3 -0.2,0.3 -0.6,0.6 -0.9,0.8 -0.3,0.2 -0.8,0.3 -1.2,0.3 -0.3,0 -0.6,0 -0.9,-0.1 -0.3,-0.1 -0.5,-0.2 -0.7,-0.3 -0.2,-0.1 -0.4,-0.3 -0.6,-0.4 -0.2,-0.1 -0.3,-0.4 -0.4,-0.5 v 1.2 h -0.4 v -11.1 h 0.4 v 4.7 c 0.1,-0.2 0.3,-0.4 0.4,-0.6 0.2,-0.2 0.4,-0.4 0.6,-0.5 0.2,-0.1 0.5,-0.2 0.7,-0.3 0.3,-0.1 0.6,-0.1 0.9,-0.1 0.5,0 0.9,0.1 1.2,0.3 0.3,0.2 0.7,0.4 0.9,0.8 0.3,0.3 0.4,0.8 0.6,1.2 0.1,0.5 0.2,1 0.2,1.7 v 0 z m -0.4,-0.2 c 0,-0.5 -0.1,-1 -0.2,-1.4 -0.1,-0.4 -0.3,-0.8 -0.5,-1.1 -0.2,-0.3 -0.5,-0.6 -0.8,-0.7 -0.3,-0.1 -0.7,-0.3 -1.1,-0.3 -0.4,0 -0.8,0.1 -1.1,0.2 -0.3,0.1 -0.6,0.3 -0.8,0.5 -0.2,0.2 -0.4,0.4 -0.5,0.6 -0.1,0.2 -0.2,0.5 -0.3,0.7 v 3.6 c 0.1,0.2 0.2,0.5 0.4,0.7 0.2,0.2 0.3,0.4 0.6,0.6 0.3,0.2 0.5,0.3 0.8,0.4 0.3,0.1 0.6,0.1 1,0.1 0.4,0 0.8,-0.1 1.1,-0.3 0.3,-0.2 0.6,-0.4 0.8,-0.7 0.2,-0.3 0.4,-0.7 0.5,-1.1 0.1,-0.4 0.2,-0.9 0.2,-1.4 v -0.4 z"
       id="path91"
       inkscape:connector-curvature="0"
       style="fill:#3399cc" /><path
       class="st1"
       d="m 392,110 c -0.1,0 -0.2,0 -0.2,0 -0.1,0 -0.2,0 -0.3,0 -0.4,0 -0.7,0.1 -1,0.2 -0.3,0.1 -0.5,0.3 -0.8,0.5 -0.3,0.2 -0.4,0.5 -0.5,0.8 -0.1,0.3 -0.2,0.6 -0.3,1 v 5.1 h -0.4 v -7.8 h 0.4 v 1.6 c 0.2,-0.5 0.5,-1 1,-1.3 0.4,-0.3 1,-0.5 1.6,-0.5 0.1,0 0.2,0 0.3,0 0.1,0 0.2,0 0.2,0.1 l 0,0.3 z"
       id="path93"
       inkscape:connector-curvature="0"
       style="fill:#3399cc" /><path
       class="st1"
       d="m 405.6,117.5 c -0.1,-0.2 -0.1,-0.4 -0.1,-0.7 0,-0.3 0,-0.5 0,-0.8 -0.1,0.2 -0.3,0.4 -0.5,0.6 -0.2,0.2 -0.4,0.4 -0.7,0.5 -0.3,0.1 -0.5,0.3 -0.9,0.3 -0.4,0 -0.7,0.1 -1.1,0.1 -0.4,0 -0.7,-0.1 -1,-0.2 -0.3,-0.1 -0.5,-0.2 -0.8,-0.4 -0.2,-0.2 -0.4,-0.4 -0.5,-0.7 -0.1,-0.3 -0.2,-0.5 -0.2,-0.9 0,-0.3 0.1,-0.7 0.2,-1 0.2,-0.3 0.4,-0.5 0.7,-0.8 0.3,-0.3 0.7,-0.4 1.1,-0.5 0.4,-0.1 1,-0.2 1.5,-0.2 h 1.9 V 112 c 0,-0.7 -0.2,-1.2 -0.6,-1.5 -0.4,-0.4 -1,-0.5 -1.8,-0.5 -0.4,0 -0.7,0 -1,0.1 -0.3,0.1 -0.6,0.2 -0.8,0.4 -0.2,0.2 -0.4,0.4 -0.5,0.6 -0.1,0.2 -0.2,0.5 -0.2,0.8 l -0.4,0 c 0,-0.3 0.1,-0.6 0.2,-0.9 0.1,-0.3 0.3,-0.5 0.6,-0.7 0.3,-0.2 0.6,-0.4 0.9,-0.5 0.4,-0.1 0.7,-0.2 1.2,-0.2 0.4,0 0.8,0.1 1.1,0.2 0.3,0.1 0.6,0.3 0.9,0.5 0.2,0.2 0.4,0.5 0.6,0.8 0.2,0.3 0.2,0.7 0.2,1.1 v 3.9 c 0,0.1 0,0.3 0,0.4 0,0.1 0,0.3 0,0.4 0,0.1 0,0.3 0.1,0.4 0,0.1 0.1,0.2 0.1,0.3 v 0.1 h -0.2 z m -3.2,-0.2 c 0.4,0 0.7,0 1,-0.1 0.3,-0.1 0.6,-0.2 0.9,-0.4 0.3,-0.2 0.5,-0.4 0.7,-0.6 0.2,-0.2 0.4,-0.5 0.5,-0.8 v -1.9 h -1.8 c -0.5,0 -1,0 -1.4,0.1 -0.4,0.1 -0.7,0.2 -1,0.4 -0.3,0.2 -0.5,0.4 -0.6,0.6 -0.1,0.2 -0.2,0.5 -0.2,0.8 0,0.2 0,0.5 0.1,0.7 0.1,0.2 0.2,0.4 0.4,0.5 0.2,0.1 0.4,0.3 0.6,0.4 0.3,0.2 0.5,0.3 0.8,0.3 z"
       id="path95"
       inkscape:connector-curvature="0"
       style="fill:#3399cc" /><path
       class="st1"
       d="m 416.6,110.7 c 0.2,-0.2 0.4,-0.4 0.6,-0.6 0.2,-0.2 0.5,-0.3 0.8,-0.4 0.3,-0.1 0.6,-0.2 0.9,-0.2 0.4,0 0.7,0.1 1.1,0.2 0.3,0.1 0.6,0.3 0.8,0.5 0.2,0.2 0.4,0.5 0.5,0.9 0.1,0.4 0.2,0.8 0.2,1.3 v 5 H 421 v -5 c 0,-0.5 -0.1,-0.9 -0.2,-1.2 -0.1,-0.3 -0.2,-0.6 -0.4,-0.8 -0.2,-0.2 -0.4,-0.3 -0.7,-0.4 -0.3,-0.1 -0.5,-0.1 -0.8,-0.1 -0.3,0 -0.5,0 -0.8,0.1 -0.2,0.1 -0.4,0.2 -0.6,0.3 -0.2,0.1 -0.4,0.3 -0.5,0.5 -0.1,0.2 -0.3,0.4 -0.4,0.5 -0.1,0.1 -0.2,0.4 -0.3,0.6 -0.1,0.2 -0.1,0.4 -0.2,0.5 v 5 h -0.4 v -7.8 h 0.4 v 1.8 c 0.2,-0.2 0.3,-0.4 0.5,-0.7 z"
       id="path97"
       inkscape:connector-curvature="0"
       style="fill:#3399cc" /><path
       class="st1"
       d="m 430.9,113.5 c 0,-0.6 0.1,-1.2 0.2,-1.7 0.1,-0.5 0.3,-0.9 0.6,-1.2 0.3,-0.3 0.6,-0.6 0.9,-0.8 0.3,-0.2 0.8,-0.3 1.2,-0.3 0.3,0 0.6,0 0.9,0.1 0.3,0.1 0.5,0.2 0.7,0.3 0.2,0.1 0.4,0.3 0.6,0.5 0.2,0.2 0.3,0.4 0.4,0.6 v -4.7 h 0.4 v 11.1 h -0.4 v -1.2 c -0.1,0.2 -0.3,0.4 -0.4,0.6 -0.1,0.2 -0.4,0.3 -0.6,0.4 -0.2,0.1 -0.5,0.2 -0.7,0.3 -0.3,0.1 -0.6,0.1 -0.9,0.1 -0.5,0 -0.9,-0.1 -1.2,-0.3 -0.3,-0.2 -0.7,-0.5 -0.9,-0.8 -0.2,-0.3 -0.4,-0.8 -0.6,-1.3 -0.1,-0.5 -0.2,-1 -0.2,-1.6 v -0.1 z m 0.4,0.2 c 0,0.5 0.1,1 0.2,1.4 0.1,0.4 0.3,0.8 0.5,1.1 0.2,0.3 0.5,0.6 0.8,0.7 0.3,0.1 0.7,0.3 1.1,0.3 0.4,0 0.7,0 1,-0.1 0.3,-0.1 0.5,-0.2 0.8,-0.4 0.3,-0.2 0.4,-0.3 0.6,-0.5 0.2,-0.2 0.3,-0.4 0.4,-0.7 v -3.7 c -0.1,-0.2 -0.2,-0.5 -0.3,-0.7 -0.1,-0.2 -0.3,-0.4 -0.5,-0.6 -0.2,-0.2 -0.5,-0.3 -0.8,-0.5 -0.3,-0.1 -0.7,-0.2 -1.1,-0.2 -0.4,0 -0.8,0.1 -1.1,0.3 -0.3,0.2 -0.6,0.4 -0.8,0.7 -0.2,0.3 -0.4,0.7 -0.5,1.1 -0.1,0.4 -0.2,0.9 -0.2,1.4 v 0.4 z"
       id="path99"
       inkscape:connector-curvature="0"
       style="fill:#3399cc" /><path
       class="st1"
       d="m 446.6,107.3 c 0,-0.1 0,-0.2 0.1,-0.3 0.1,-0.1 0.2,-0.1 0.3,-0.1 0.1,0 0.2,0 0.3,0.1 0.1,0.1 0.1,0.2 0.1,0.3 0,0.1 0,0.2 -0.1,0.3 -0.1,0.1 -0.2,0.1 -0.3,0.1 -0.1,0 -0.2,0 -0.3,-0.1 -0.1,-0.1 -0.1,-0.2 -0.1,-0.3 z m 0.6,10.2 h -0.4 v -7.8 h 0.4 v 7.8 z"
       id="path101"
       inkscape:connector-curvature="0"
       style="fill:#3399cc" /><path
       class="st1"
       d="m 457.9,110.7 c 0.2,-0.2 0.4,-0.4 0.6,-0.6 0.2,-0.2 0.5,-0.3 0.8,-0.4 0.3,-0.1 0.6,-0.2 0.9,-0.2 0.4,0 0.7,0.1 1.1,0.2 0.3,0.1 0.6,0.3 0.8,0.5 0.2,0.2 0.4,0.5 0.5,0.9 0.1,0.4 0.2,0.8 0.2,1.3 v 5 h -0.4 v -5 c 0,-0.5 -0.1,-0.9 -0.2,-1.2 -0.1,-0.3 -0.2,-0.6 -0.4,-0.8 -0.2,-0.2 -0.4,-0.3 -0.7,-0.4 -0.3,-0.1 -0.5,-0.1 -0.9,-0.1 -0.3,0 -0.5,0 -0.8,0.1 -0.2,0.1 -0.4,0.2 -0.6,0.3 -0.2,0.1 -0.4,0.3 -0.5,0.5 -0.1,0.2 -0.3,0.4 -0.4,0.5 -0.1,0.2 -0.2,0.4 -0.3,0.6 -0.1,0.2 -0.1,0.4 -0.2,0.5 v 5 H 457 v -7.8 h 0.4 v 1.8 c 0.2,-0.2 0.4,-0.4 0.5,-0.7 z"
       id="path103"
       inkscape:connector-curvature="0"
       style="fill:#3399cc" /><path
       class="st1"
       d="m 472.2,113.5 c 0,-0.6 0.1,-1.2 0.2,-1.7 0.1,-0.5 0.3,-0.9 0.6,-1.2 0.3,-0.3 0.6,-0.6 0.9,-0.8 0.4,-0.2 0.8,-0.3 1.2,-0.3 0.3,0 0.6,0 0.9,0.1 0.3,0.1 0.5,0.2 0.7,0.3 0.2,0.1 0.4,0.3 0.6,0.5 0.2,0.2 0.3,0.4 0.4,0.6 v -1.4 h 0.4 v 7.7 c 0,0.5 -0.1,1 -0.2,1.4 -0.1,0.4 -0.3,0.7 -0.6,1 -0.3,0.3 -0.6,0.5 -0.9,0.6 -0.4,0.2 -0.8,0.2 -1.2,0.2 -0.3,0 -0.5,0 -0.8,-0.1 -0.2,-0.1 -0.5,-0.2 -0.7,-0.3 -0.2,-0.1 -0.4,-0.3 -0.6,-0.4 -0.2,-0.2 -0.3,-0.3 -0.5,-0.5 l 0.3,-0.3 c 0.3,0.4 0.6,0.7 1,0.9 0.4,0.2 0.8,0.3 1.3,0.3 0.4,0 0.8,-0.1 1.1,-0.2 0.3,-0.1 0.6,-0.3 0.8,-0.6 0.2,-0.3 0.4,-0.6 0.5,-0.9 0.1,-0.4 0.2,-0.7 0.2,-1.2 v -1.1 c -0.1,0.2 -0.3,0.4 -0.4,0.5 -0.2,0.2 -0.4,0.3 -0.6,0.4 -0.2,0.1 -0.5,0.2 -0.7,0.3 -0.3,0.1 -0.6,0.1 -0.9,0.1 -0.5,0 -0.9,-0.1 -1.2,-0.3 -0.3,-0.2 -0.7,-0.5 -0.9,-0.8 -0.2,-0.3 -0.4,-0.8 -0.6,-1.3 -0.1,-0.5 -0.2,-1 -0.2,-1.6 v 0.1 z m 0.4,0.2 c 0,0.5 0.1,1 0.2,1.4 0.1,0.4 0.3,0.8 0.5,1.1 0.2,0.3 0.5,0.6 0.8,0.7 0.3,0.1 0.7,0.3 1.1,0.3 0.4,0 0.7,0 1,-0.1 0.3,-0.1 0.5,-0.2 0.8,-0.4 0.2,-0.2 0.4,-0.3 0.6,-0.6 0.2,-0.2 0.3,-0.4 0.4,-0.7 V 112 c -0.1,-0.2 -0.2,-0.5 -0.3,-0.7 -0.1,-0.2 -0.3,-0.5 -0.5,-0.7 -0.2,-0.2 -0.5,-0.4 -0.8,-0.5 -0.3,-0.1 -0.7,-0.2 -1.1,-0.2 -0.4,0 -0.8,0.1 -1.1,0.3 -0.3,0.2 -0.6,0.4 -0.8,0.7 -0.2,0.3 -0.4,0.7 -0.5,1.1 -0.1,0.4 -0.2,0.9 -0.2,1.4 v 0.3 z"
       id="path105"
       inkscape:connector-curvature="0"
       style="fill:#3399cc" /></g><g
     id="g107"
     transform="translate(0,26)"><path
       class="st0"
       d="m 18.2,52.1 c 10.7,0 19.4,8.6 19.4,19.1 0,10.5 -8.7,19.1 -19.4,19.1 H 4.5 V 52.1 h 13.7 m -6.3,32.5 h 1.7 2.4 c 8.3,0 13.7,-5.2 13.7,-13.4 0,-8.1 -5.3,-13.4 -13.6,-13.4 h -2.5 -1.7 v 1.7 23.3 1.8 M 18.2,50.4 H 2.8 V 92 h 15.3 c 11.5,0 21.1,-9.1 21.1,-20.8 0,-11.7 -9.5,-20.8 -21,-20.8 l 0,0 z M 13.6,82.8 V 59.6 h 2.5 c 6.9,0 11.9,4.2 11.9,11.6 0,8.1 -5.5,11.6 -12,11.6 h -2.4 l 0,0 z"
       id="path109"
       inkscape:connector-curvature="0"
       style="fill:#ffffff" /><path
       class="st0"
       d="M 64.4,52.1 V 90.2 H 57 V 52.1 h 7.4 m 1.7,-1.7 H 55.3 V 92 H 66.1 V 50.4 l 0,0 z"
       id="path111"
       inkscape:connector-curvature="0"
       style="fill:#ffffff" /><path
       class="st0"
       d="m 93.3,52.1 v 30.7 1.7 h 1.7 11.2 v 5.7 H 85.9 V 52.1 h 7.4 M 95,50.4 H 84.2 V 92 H 108 V 82.8 H 95 V 50.4 l 0,0 z"
       id="path113"
       inkscape:connector-curvature="0"
       style="fill:#ffffff" /><path
       class="st0"
       d="m 131.6,52.1 v 30.7 1.7 h 1.7 11.2 v 5.7 H 124.2 V 52.1 h 7.4 m 1.7,-1.7 H 122.5 V 92 h 23.8 v -9.2 h -13 V 50.4 l 0,0 z"
       id="path115"
       inkscape:connector-curvature="0"
       style="fill:#ffffff" /><path
       class="st0"
       d="m 181.8,50.8 c 10.2,0 21.3,7.5 21.3,19.7 0,12.5 -8.8,21.2 -21.3,21.2 -12.5,0 -21.3,-8.7 -21.3,-21.2 0,-12.2 11,-19.7 21.3,-19.7 m 0,33.8 c 7.6,0 13.5,-6.2 13.5,-14.1 0,-6.9 -6.2,-12.7 -13.5,-12.7 -7.3,0 -13.5,5.8 -13.5,12.7 0,7.9 5.9,14.1 13.5,14.1 m 0,-35.6 c -12,0 -23,8.8 -23,21.4 0,13.5 9.7,22.9 23,22.9 13.4,0 23,-9.5 23,-22.9 0,-12.5 -11.1,-21.4 -23,-21.4 l 0,0 z m 0,33.9 c -6.5,0 -11.7,-5.2 -11.7,-12.4 0,-5.7 5.3,-11 11.7,-11 6.5,0 11.7,5.2 11.7,11 0,7.2 -5.3,12.4 -11.7,12.4 l 0,0 z"
       id="path117"
       inkscape:connector-curvature="0"
       style="fill:#ffffff" /><path
       class="st0"
       d="m 260.6,52.1 v 38.1 h -8.2 l -19.3,-24.8 -0.6,-0.7 h -0.8 -1.7 v 1.7 23.8 h -7.4 V 52.1 h 8.2 l 19.2,24.8 0.6,0.7 h 0.8 1.7 V 75.9 52.1 h 7.5 m 1.7,-1.7 h -10.8 v 25.4 h -0.1 L 231.6,50.4 H 220.8 V 92 h 10.8 V 66.5 h 0.1 L 251.5,92 h 10.8 V 50.4 l 0,0 z"
       id="path119"
       inkscape:connector-curvature="0"
       style="fill:#ffffff" /><path
       class="st0"
       d="m 344,52.1 v 38.1 h -7.4 V 75 73.3 h -1.7 -15.6 -1.7 V 75 90.3 h -7.4 V 52.1 h 7.4 v 14.3 1.7 h 1.7 15.6 1.7 V 66.4 52.1 h 7.4 m 1.8,-1.7 H 335 V 66.5 H 319.4 V 50.4 H 308.6 V 92 h 10.8 V 75 H 335 v 17 h 10.8 V 50.4 l 0,0 z"
       id="path121"
       inkscape:connector-curvature="0"
       style="fill:#ffffff" /><path
       class="st0"
       d="M 386.7,52.1 401,90.3 h -7.8 l -2.3,-6.1 -0.4,-1.1 h -1.2 -14.9 -1.2 l -0.4,1.1 -2.4,6.1 h -7.8 l 14.7,-38.1 h 9.4 m -11.7,26 h 2.4 9 2.4 L 388,76 383.6,62.8 383.1,61.6 h -1.2 -1.2 l -0.4,1.2 -4.5,13.2 -0.8,2.2 m 12.9,-27.8 h -11.8 l -16,41.6 h 11.5 l 2.9,-7.2 h 14.9 L 392,92 h 11.5 l -15.6,-41.6 0,0 z m -10.5,26.1 4.5,-13.2 h 0.1 l 4.4,13.2 h -9 l 0,0 z"
       id="path123"
       inkscape:connector-curvature="0"
       style="fill:#ffffff" /><path
       class="st0"
       d="m 427,52.1 v 30.7 1.7 h 1.7 11.3 v 5.7 H 419.7 V 52.1 h 7.3 m 1.7,-1.7 H 417.9 V 92 h 23.8 v -9.2 h -13 V 50.4 l 0,0 z"
       id="path125"
       inkscape:connector-curvature="0"
       style="fill:#ffffff" /><path
       class="st0"
       d="m 465.3,52.1 v 30.7 1.7 h 1.7 11.2 v 5.7 H 458 V 52.1 h 7.3 M 467,50.4 H 456.2 V 92 H 480 V 82.8 H 467 V 50.4 l 0,0 z"
       id="path127"
       inkscape:connector-curvature="0"
       style="fill:#ffffff" /></g><circle
     class="st0"
     cx="172.60001"
     cy="114.4"
     r="3.0999999"
     id="circle129"
     sodipodi:cx="172.60001"
     sodipodi:cy="114.4"
     sodipodi:rx="3.0999999"
     sodipodi:ry="3.0999999"
     style="fill:#ffffff"
     transform="translate(0,26)" /><circle
     class="st0"
     cx="355.39999"
     cy="114.4"
     r="3.0999999"
     id="circle131"
     sodipodi:cx="355.39999"
     sodipodi:cy="114.4"
     sodipodi:rx="3.0999999"
     sodipodi:ry="3.0999999"
     style="fill:#ffffff"
     transform="translate(0,26)" /><g
     id="g133"
     transform="translate(0,26)"><path
       class="st0"
       d="m 228.1,25.3 c 0.2,0 0.6,0.5 0.8,0.5 2.1,0.2 3.9,-0.2 5.8,-0.5 4,-0.6 11.4,-5.3 14.6,-6.7 2,-0.9 3.6,-1.8 5,-2.7 0.1,-0.1 1.9,-1 1.6,-1.8 -0.7,-1.7 -1.6,-3.5 -2.7,-4.9 -0.8,-1 -3,-3.2 -4,-4 -2.8,-2 -4.6,-3.1 -7.7,-2.1 -1.4,0.4 -2.8,0.8 -4.1,1.2 -0.6,0.2 -0.6,0.2 -1.2,0.3 l -1,0 -0.6,-0.8 -0.5,-0.1 c -0.9,0.4 -1.7,0.7 -2.6,1.2 -1.4,0.7 -1.3,1 -2.8,1.6 -1.9,0.8 -3,2.2 -3.7,4.5 -1.8,5.3 -0.9,8.9 3.1,14.3 z"
       id="path135"
       inkscape:connector-curvature="0"
       style="fill:#ffffff" /><path
       class="st0"
       d="m 269.1,4.5 c -0.7,-1.2 -1.6,-2.2 -2.7,-2.7 -5.5,-2.3 -17.8,0.3 -17.8,0.3 0,0 -0.6,0.3 -0.7,0.4 0.2,0.3 0.5,0.5 0.7,0.8 0.8,0.9 1.6,1.1 2.4,1.9 0.1,0.1 0.5,0.2 1.3,0.2 2.1,-0.2 5.6,-0.5 6.1,-0.5 0,0 2.7,1.1 3.2,1.7 0.1,0.1 0.9,1.2 1,1.3 0.4,0.8 -0.2,1.6 -0.7,2.5 -0.4,0.8 -1,1.4 -1.7,2 -0.3,0.3 -0.6,0.7 -0.9,1 -0.2,0.3 -0.5,0.5 -0.7,0.8 -0.3,0.3 -0.6,0.6 -0.8,0.9 -0.8,0.6 -1.8,1.3 -2.9,2 -1.4,0.9 -3,1.8 -5,2.7 -3.1,1.4 -10.6,6.1 -14.6,6.7 -2,0.3 -4,0.4 -6.1,0.3 -3.5,-0.1 -4.1,0.7 -8.3,0.2 -1.6,-0.2 -3.3,-1.2 -3.8,-1.9 -0.3,-0.4 -0.8,-1.5 -0.9,-2.1 0,-0.1 0,-1.7 0.2,-2.2 0.2,-0.5 0.9,-1.4 1.3,-1.7 1.1,-0.8 2.6,-1.2 4.8,-2.2 1,-0.4 0.2,-1.5 0.4,-2.8 0,-0.3 0.2,-1.6 0.4,-1.9 0.5,-0.8 -0.5,0.7 -0.1,-0.3 0,-0.1 0.1,-0.3 0.1,-0.4 -0.5,0.2 -0.8,0.5 -1.3,0.8 -4.5,2.6 -6.5,3 -9,6.2 -1.9,2.3 -2.7,4 -2.9,5.7 0,0.1 0.1,2.7 0.3,3.3 0.2,0.5 1.8,2 1.8,2 0.8,0.7 3.9,1.7 5.4,2 3.1,0.8 4.1,0.3 7.1,0.5 16,-2.4 27.1,-0.7 41.4,-17.8 1.4,-0.9 2.3,-2.2 2.9,-3.7 0.1,-0.1 0.2,-0.3 0.3,-0.4 l -0.1,0 c 0.1,-0.4 0.4,-0.7 0.5,-1.1 0.5,-1.4 0.1,-3.1 -0.6,-4.5 z"
       id="path137"
       inkscape:connector-curvature="0"
       style="fill:#ffffff" /><ellipse
       class="st0"
       cx="265.89999"
       cy="22.6"
       rx="2.3"
       ry="2.0999999"
       id="ellipse139"
       sodipodi:cx="265.89999"
       sodipodi:cy="22.6"
       sodipodi:rx="2.3"
       sodipodi:ry="2.0999999"
       style="fill:#ffffff"
       d="m 268.19999,22.6 c 0,1.159798 -1.02974,2.1 -2.3,2.1 -1.27025,0 -2.3,-0.940202 -2.3,-2.1 0,-1.159798 1.02975,-2.1 2.3,-2.1 1.27026,0 2.3,0.940202 2.3,2.1 z" /><path
       class="st0"
       d="m 224.5,3.1 c -0.8,0.6 -2,0.5 -2.7,-0.2 -0.7,-0.7 -0.6,-1.9 0.2,-2.5 0.8,-0.6 2,-0.5 2.7,0.2 0.7,0.8 0.6,1.9 -0.2,2.5 z"
       id="path141"
       inkscape:connector-curvature="0"
       style="fill:#ffffff" /><path
       class="st0"
       d="m 217.3,5 c -0.4,0.3 -1,0.3 -1.4,-0.1 -0.3,-0.4 -0.3,-0.9 0.1,-1.2 0.4,-0.3 1,-0.3 1.4,0.1 0.4,0.3 0.3,0.9 -0.1,1.2 z"
       id="path143"
       inkscape:connector-curvature="0"
       style="fill:#ffffff" /><path
       class="st0"
       d="m 258.3,23.1 c 0,0 0.7,2.6 -2.4,5.4 -3.1,2.8 -9.7,6.3 -17.8,5.2 -1.4,-0.2 -2.4,-0.7 -3.5,-1.6 0,0 16.4,-1.1 23.7,-9 z"
       id="path145"
       inkscape:connector-curvature="0"
       style="fill:#ffffff" /></g><g
     id="about" /><g
     id="WORK"><g
       id="work" /><g
       id="mouseOver" /></g><g
     id="home" /><g
     id="NAVBAR"><g
       id="navBar" /><g
       id="mouseOver_1_" /></g></svg>