<?xml version="1.0" encoding="utf-8"?>
<!-- Generator: Adobe Illustrator 19.0.1, SVG Export Plug-In . SVG Version: 6.00 Build 0)  -->
<svg version="1.1" id="Layer_1" xmlns="http://www.w3.org/2000/svg" xmlns:xlink="http://www.w3.org/1999/xlink" x="0px" y="0px"
	 viewBox="-16.3 170.6 339.5 24" style="enable-background:new -16.3 170.6 339.5 24;" xml:space="preserve">
<style type="text/css">
	.st0{fill:#FFFFFF;}
	.st1{fill:#3399CC;}
	.st2{fill:#CDCAC9;}
	.st3{fill:#CC6633;}
</style>
<g>
	<path class="st0" d="M-2.7,175.8c-1.3-1.4-3.1-2.2-5.1-2.2c-3.7,0-6.7,3.2-6.7,6.9s3,6.9,6.7,6.9c1.9,0,3.7-0.9,5-2.2v2.3
		c-1.4,1-3.2,1.6-5,1.6c-4.7,0-8.6-3.8-8.6-8.5c0-4.8,3.9-8.6,8.6-8.6c1.8,0,3.5,0.5,5,1.6V175.8z"/>
	<path class="st0" d="M10.9,179.5L10.9,179.5c0.7-0.8,1.2-1.4,2.3-1.4c0.6,0,1.1,0.2,1.6,0.5l-0.8,1.6c-0.4-0.2-0.6-0.5-1.1-0.5
		c-1.9,0-2,2.5-2,3.8v5.2H9.2v-10.3h1.8V179.5z"/>
	<path class="st0" d="M34.9,188.8h-1.8v-1.4h0c-0.9,1.1-2.1,1.7-3.6,1.7c-3,0-5-2.6-5-5.4c0-2.9,1.9-5.5,5-5.5
		c1.4,0,2.7,0.7,3.5,1.8h0v-1.5h1.8V188.8z M26.3,183.5c0,2,1.2,3.9,3.4,3.9c2.3,0,3.5-1.8,3.5-3.9c0-2.1-1.3-3.7-3.5-3.7
		C27.7,179.8,26.3,181.5,26.3,183.5z"/>
	<path class="st0" d="M49.4,174.5c0,0.7-0.6,1.3-1.3,1.3s-1.3-0.5-1.3-1.3c0-0.7,0.6-1.3,1.3-1.3S49.4,173.8,49.4,174.5z M49,188.8
		h-1.8v-10.3H49V188.8z"/>
	<path class="st0" d="M70.8,188.2c0,1.7,0,3.1-1.1,4.4c-1,1.2-2.5,1.8-4,1.8c-2.9,0-5-1.8-5.1-4.8h1.8c0,1.9,1.4,3.1,3.3,3.1
		c2.7,0,3.3-2,3.3-4.3v-1.2h0c-0.8,1.1-2.2,1.7-3.6,1.7c-3,0-4.9-2.5-4.9-5.4c0-2.9,1.9-5.5,5-5.5c1.4,0,2.7,0.6,3.5,1.8h0v-1.5h1.8
		V188.2z M62.3,183.5c0,2,1.2,3.9,3.4,3.9c2.3,0,3.5-1.8,3.5-3.9c0-2.1-1.3-3.7-3.5-3.7C63.6,179.8,62.3,181.5,62.3,183.5z"/>
	<path class="st0" d="M86.4,172.5l-2.5,5.6l-1.2-0.5l2.1-5.7L86.4,172.5z"/>
	<path class="st0" d="M101.3,180.8c-0.2-0.5-0.8-1.1-1.4-1.1c-0.6,0-1.3,0.5-1.3,1.1c0,0.9,1.2,1.3,2.4,1.8c1.2,0.5,2.4,1.2,2.4,3
		c0,2-1.6,3.4-3.5,3.4c-1.7,0-3.1-1-3.7-2.6l1.6-0.7c0.4,1,0.9,1.7,2.1,1.7c0.9,0,1.7-0.6,1.7-1.6c0-2.3-4.7-1.5-4.7-4.8
		c0-1.7,1.4-2.9,3.1-2.9c1.2,0,2.3,0.8,2.8,1.9L101.3,180.8z"/>
	<path class="st0" d="M137.8,175.4c-0.7-1.1-1.5-1.8-2.9-1.8c-1.5,0-2.8,1.1-2.8,2.6c0,1.4,1.5,2.1,2.6,2.6l1.1,0.5
		c2.2,0.9,4,2,4,4.7c0,2.9-2.3,5.1-5.2,5.1c-2.7,0-4.6-1.7-5.2-4.3l1.8-0.5c0.2,1.7,1.5,3.1,3.3,3.1s3.4-1.4,3.4-3.2
		c0-1.9-1.5-2.6-3.1-3.3l-1-0.4c-1.9-0.9-3.6-1.9-3.6-4.2c0-2.6,2.2-4.2,4.6-4.2c1.8,0,3.4,0.9,4.3,2.6L137.8,175.4z"/>
	<path class="st0" d="M153,179.9L153,179.9c0.9-1.1,2.2-1.8,3.6-1.8c3,0,5,2.6,5,5.5c0,2.9-1.9,5.4-5,5.4c-1.4,0-2.7-0.6-3.5-1.7h0
		v7.3h-1.8v-16.2h1.8V179.9z M152.9,183.5c0,2,1.2,3.9,3.4,3.9c2.3,0,3.5-1.8,3.5-3.9c0-2.1-1.3-3.7-3.5-3.7
		C154.3,179.8,152.9,181.5,152.9,183.5z"/>
	<path class="st0" d="M173.7,184c0,1.9,1.4,3.5,3.4,3.5c1.5,0,2.5-0.9,3.1-2.1l1.5,0.9c-1,1.8-2.7,2.9-4.8,2.9
		c-3.1,0-5.1-2.4-5.1-5.3c0-3.1,1.8-5.6,5-5.6c3.3,0,5.1,2.8,4.9,5.8H173.7z M180,182.5c-0.2-1.5-1.5-2.7-3-2.7
		c-1.5,0-2.9,1.2-3.1,2.7H180z"/>
	<path class="st0" d="M193.9,184c0,1.9,1.4,3.5,3.4,3.5c1.5,0,2.5-0.9,3.1-2.1l1.5,0.9c-1,1.8-2.7,2.9-4.8,2.9
		c-3.1,0-5.1-2.4-5.1-5.3c0-3.1,1.8-5.6,5-5.6c3.3,0,5.1,2.8,4.9,5.8H193.9z M200.2,182.5c-0.2-1.5-1.5-2.7-3-2.7
		c-1.5,0-2.9,1.2-3.1,2.7H200.2z"/>
	<path class="st0" d="M221,187.3L221,187.3c-0.9,1.1-2.2,1.7-3.6,1.7c-3,0-5-2.6-5-5.4c0-2.9,1.9-5.5,5-5.5c1.4,0,2.7,0.7,3.5,1.8h0
		v-9.3h1.8v18.2H221V187.3z M214.2,183.5c0,2,1.2,3.9,3.4,3.9c2.3,0,3.5-1.8,3.5-3.9c0-2.1-1.3-3.7-3.5-3.7
		C215.5,179.8,214.2,181.5,214.2,183.5z"/>
	<path class="st0" d="M257.9,175.4c-0.7-1.1-1.5-1.8-2.9-1.8c-1.5,0-2.8,1.1-2.8,2.6c0,1.4,1.5,2.1,2.6,2.6l1.1,0.5
		c2.2,0.9,4,2,4,4.7c0,2.9-2.3,5.1-5.2,5.1c-2.7,0-4.6-1.7-5.2-4.3l1.8-0.5c0.2,1.7,1.5,3.1,3.3,3.1s3.4-1.4,3.4-3.2
		c0-1.9-1.5-2.6-3.1-3.3l-1-0.4c-1.9-0.9-3.6-1.9-3.6-4.2c0-2.6,2.2-4.2,4.6-4.2c1.8,0,3.4,0.9,4.3,2.6L257.9,175.4z"/>
	<path class="st0" d="M273.2,170.6v9l0,0c0.7-1,1.7-1.5,2.9-1.5c2.9,0,3.5,2.1,3.5,4.5v6.1H278v-5.8c0-1.7-0.1-3.2-2.2-3.2
		c-2.4,0-2.6,2.2-2.6,4.1v4.9h-1.8v-18.2H273.2z"/>
	<path class="st0" d="M290.9,183.6c0-3,2.4-5.5,5.4-5.5c3,0,5.4,2.4,5.4,5.5c0,3-2.4,5.4-5.4,5.4C293.4,189,290.9,186.6,290.9,183.6
		z M292.7,183.6c0,2.1,1.5,3.8,3.7,3.8c2.2,0,3.7-1.7,3.7-3.8c0-2.1-1.5-3.8-3.7-3.8C294.2,179.8,292.7,181.5,292.7,183.6z"/>
	<path class="st0" d="M314.7,179.9L314.7,179.9c0.9-1.1,2.2-1.8,3.6-1.8c3,0,5,2.6,5,5.5c0,2.9-1.9,5.4-5,5.4
		c-1.4,0-2.7-0.6-3.5-1.7h0v7.3h-1.8v-16.2h1.8V179.9z M314.6,183.5c0,2,1.2,3.9,3.4,3.9c2.3,0,3.5-1.8,3.5-3.9
		c0-2.1-1.3-3.7-3.5-3.7C315.9,179.8,314.6,181.5,314.6,183.5z"/>
</g>
</svg>
