<?xml version="1.0" encoding="utf-8"?>
<!-- Generator: Adobe Illustrator 19.0.1, SVG Export Plug-In . SVG Version: 6.00 Build 0)  -->
<svg version="1.1" id="Layer_1" xmlns="http://www.w3.org/2000/svg" xmlns:xlink="http://www.w3.org/1999/xlink" x="0px" y="0px"
	 viewBox="0 0 351.3 19.9" style="enable-background:new 0 0 351.3 19.9;" xml:space="preserve">
<style type="text/css">
	.st0{fill:#CDCAC9;}
	.st1{fill:#FFFFFF;}
	.st2{fill:#3399CC;}
	.st3{fill:#CC6632;}
</style>
<g>
	<g>
		<path class="st1" d="M11.4,10.9c-0.1,0.7-0.3,1.3-0.5,1.9c-0.3,0.6-0.6,1.1-1.1,1.5c-0.5,0.4-1,0.8-1.7,1
			c-0.7,0.2-1.4,0.4-2.3,0.4c-0.9,0-1.7-0.2-2.4-0.5c-0.7-0.3-1.3-0.8-1.8-1.4c-0.5-0.6-0.9-1.3-1.2-2.2C0.1,10.9,0,10,0,8.9V7.5
			c0-1,0.1-2,0.4-2.8c0.3-0.8,0.7-1.6,1.2-2.2c0.5-0.6,1.1-1.1,1.9-1.4C4.2,0.8,5,0.6,5.9,0.6c0.8,0,1.6,0.1,2.2,0.4
			c0.6,0.2,1.2,0.6,1.6,1c0.4,0.4,0.8,1,1.1,1.6c0.3,0.6,0.4,1.3,0.5,2h-2C9.3,5,9.2,4.6,9.1,4.2C8.9,3.8,8.7,3.4,8.4,3.1
			c-0.3-0.3-0.6-0.5-1-0.7C7,2.3,6.5,2.2,5.9,2.2c-0.7,0-1.2,0.1-1.7,0.4S3.3,3.2,3,3.7s-0.6,1-0.8,1.7C2,6,2,6.7,2,7.4v1.5
			c0,0.7,0.1,1.4,0.2,2c0.2,0.6,0.4,1.2,0.7,1.7c0.3,0.5,0.7,0.9,1.2,1.1c0.5,0.3,1,0.4,1.7,0.4c0.6,0,1.1-0.1,1.6-0.2
			c0.4-0.1,0.8-0.4,1.1-0.6c0.3-0.3,0.5-0.6,0.7-1c0.2-0.4,0.3-0.9,0.4-1.4H11.4z"/>
		<path class="st1" d="M29.4,6.3c-0.2,0-0.3,0-0.5-0.1c-0.1,0-0.3,0-0.5,0c-0.6,0-1.2,0.1-1.6,0.4c-0.4,0.3-0.7,0.7-0.9,1.1v7.8
			h-1.9v-11h1.8l0,1.3c0.3-0.5,0.6-0.8,1.1-1.1c0.4-0.3,0.9-0.4,1.6-0.4c0.1,0,0.3,0,0.5,0s0.3,0.1,0.4,0.1V6.3z"/>
		<path class="st1" d="M47.9,15.6c-0.1-0.1-0.1-0.3-0.2-0.5s-0.1-0.4-0.1-0.6c-0.2,0.2-0.4,0.4-0.6,0.5c-0.2,0.2-0.5,0.3-0.7,0.4
			s-0.5,0.2-0.8,0.3c-0.3,0.1-0.6,0.1-1,0.1c-0.6,0-1.1-0.1-1.5-0.3s-0.8-0.4-1.2-0.7c-0.3-0.3-0.6-0.6-0.7-1s-0.3-0.8-0.3-1.3
			c0-0.6,0.1-1.1,0.3-1.6c0.2-0.4,0.6-0.8,1-1.1s0.9-0.5,1.6-0.7c0.6-0.2,1.3-0.2,2-0.2h1.9V8.1c0-0.7-0.2-1.2-0.6-1.6
			s-1-0.6-1.7-0.6c-0.4,0-0.7,0-1,0.1c-0.3,0.1-0.5,0.2-0.7,0.4c-0.2,0.2-0.4,0.3-0.5,0.6c-0.1,0.2-0.2,0.4-0.2,0.7H41
			c0-0.4,0.1-0.8,0.3-1.2c0.2-0.4,0.5-0.7,0.9-1c0.4-0.3,0.8-0.6,1.4-0.8c0.5-0.2,1.1-0.3,1.8-0.3c0.6,0,1.1,0.1,1.6,0.2
			s0.9,0.4,1.3,0.7c0.4,0.3,0.6,0.7,0.8,1.2c0.2,0.5,0.3,1,0.3,1.6v5.1c0,0.4,0,0.8,0.1,1.2c0.1,0.4,0.2,0.8,0.3,1.1v0.2H47.9z
			 M44.8,14.1c0.3,0,0.7,0,1-0.1s0.6-0.2,0.8-0.4c0.2-0.2,0.5-0.3,0.6-0.5c0.2-0.2,0.3-0.4,0.4-0.6v-2.2H46c-1.1,0-1.9,0.2-2.5,0.5
			c-0.6,0.3-0.9,0.8-0.9,1.5c0,0.3,0,0.5,0.1,0.7c0.1,0.2,0.2,0.4,0.4,0.6c0.2,0.2,0.4,0.3,0.7,0.4C44.1,14.1,44.4,14.1,44.8,14.1z"
			/>
		<path class="st1" d="M62.8,1.7c0-0.3,0.1-0.6,0.3-0.8c0.2-0.2,0.5-0.3,0.8-0.3c0.4,0,0.6,0.1,0.8,0.3C64.9,1.1,65,1.4,65,1.7
			c0,0.3-0.1,0.6-0.3,0.8c-0.2,0.2-0.5,0.3-0.8,0.3c-0.4,0-0.6-0.1-0.8-0.3C62.9,2.2,62.8,2,62.8,1.7z M64.8,15.6h-1.9v-11h1.9V15.6
			z"/>
		<path class="st1" d="M77.7,10c0-0.8,0.1-1.6,0.3-2.3c0.2-0.7,0.5-1.3,0.9-1.8c0.4-0.5,0.8-0.9,1.4-1.1s1.1-0.4,1.8-0.4
			c0.7,0,1.3,0.1,1.8,0.4c0.5,0.2,1,0.6,1.3,1.1l0.1-1.2H87v10.7c0,0.7-0.1,1.4-0.3,1.9c-0.2,0.6-0.5,1-1,1.4s-0.9,0.7-1.5,0.9
			c-0.6,0.2-1.2,0.3-1.9,0.3c-0.3,0-0.6,0-1-0.1c-0.4-0.1-0.7-0.2-1.1-0.3s-0.7-0.3-1.1-0.6c-0.3-0.2-0.6-0.5-0.9-0.9l1-1.1
			c0.2,0.3,0.5,0.5,0.7,0.7s0.5,0.3,0.7,0.5s0.5,0.2,0.8,0.2s0.5,0.1,0.8,0.1c0.4,0,0.8-0.1,1.2-0.2c0.4-0.1,0.7-0.3,0.9-0.6
			c0.3-0.2,0.4-0.6,0.6-0.9s0.2-0.8,0.2-1.3v-1c-0.4,0.4-0.8,0.7-1.3,1s-1.1,0.3-1.8,0.3c-0.7,0-1.2-0.1-1.8-0.4
			c-0.5-0.3-1-0.7-1.4-1.2c-0.4-0.5-0.7-1.1-0.9-1.8c-0.2-0.7-0.3-1.4-0.3-2.2V10z M79.6,10.2c0,0.5,0.1,1.1,0.2,1.5
			c0.1,0.5,0.3,0.9,0.5,1.3c0.2,0.4,0.5,0.6,0.9,0.9c0.4,0.2,0.8,0.3,1.3,0.3c0.3,0,0.6,0,0.9-0.1c0.3-0.1,0.5-0.2,0.7-0.3
			s0.4-0.3,0.6-0.5c0.2-0.2,0.3-0.4,0.4-0.6v-5c-0.1-0.2-0.3-0.4-0.4-0.6c-0.2-0.2-0.3-0.4-0.6-0.5c-0.2-0.1-0.5-0.3-0.7-0.3
			C83.2,6,82.9,6,82.5,6c-0.5,0-1,0.1-1.3,0.3c-0.4,0.2-0.7,0.5-0.9,0.9c-0.2,0.4-0.4,0.8-0.5,1.3s-0.2,1-0.2,1.5V10.2z"/>
		<path class="st1" d="M102.1,1.3c0,0.3,0,0.6-0.1,1c-0.1,0.3-0.2,0.7-0.3,1c-0.2,0.3-0.3,0.6-0.6,0.9s-0.5,0.6-0.8,0.8l-1.1-0.7
			c0.3-0.4,0.6-0.9,0.7-1.4c0.2-0.5,0.2-1,0.2-1.5V0h1.9V1.3z"/>
		<path class="st1" d="M120,12.7c0-0.2,0-0.4-0.1-0.6c-0.1-0.2-0.2-0.3-0.4-0.5c-0.2-0.2-0.4-0.3-0.8-0.4c-0.3-0.1-0.8-0.3-1.3-0.4
			c-0.6-0.1-1.2-0.3-1.6-0.5c-0.5-0.2-0.9-0.4-1.2-0.6c-0.3-0.2-0.6-0.5-0.8-0.9c-0.2-0.3-0.3-0.7-0.3-1.2c0-0.4,0.1-0.8,0.3-1.2
			c0.2-0.4,0.5-0.7,0.8-1c0.4-0.3,0.8-0.5,1.3-0.7c0.5-0.2,1.1-0.3,1.7-0.3c0.7,0,1.2,0.1,1.8,0.3c0.5,0.2,1,0.4,1.3,0.7
			c0.4,0.3,0.6,0.7,0.8,1.1c0.2,0.4,0.3,0.9,0.3,1.3h-1.9c0-0.2-0.1-0.4-0.2-0.7c-0.1-0.2-0.3-0.4-0.4-0.6c-0.2-0.2-0.4-0.3-0.7-0.4
			c-0.3-0.1-0.6-0.2-1-0.2c-0.4,0-0.7,0-1,0.1c-0.3,0.1-0.5,0.2-0.7,0.4s-0.3,0.3-0.4,0.5s-0.1,0.4-0.1,0.6c0,0.2,0,0.4,0.1,0.5
			c0.1,0.2,0.2,0.3,0.4,0.4c0.2,0.1,0.4,0.3,0.8,0.4c0.3,0.1,0.8,0.2,1.3,0.3c0.7,0.2,1.2,0.3,1.7,0.5c0.5,0.2,0.9,0.4,1.2,0.7
			c0.3,0.3,0.6,0.6,0.7,0.9c0.2,0.3,0.2,0.7,0.2,1.2c0,0.5-0.1,0.9-0.3,1.3c-0.2,0.4-0.5,0.7-0.9,1c-0.4,0.3-0.8,0.5-1.3,0.7
			c-0.5,0.2-1.1,0.2-1.7,0.2c-0.7,0-1.4-0.1-1.9-0.3c-0.6-0.2-1-0.5-1.4-0.8c-0.4-0.3-0.7-0.7-0.9-1.1c-0.2-0.4-0.3-0.9-0.3-1.3h1.9
			c0,0.4,0.1,0.7,0.3,1s0.4,0.5,0.6,0.6c0.2,0.2,0.5,0.3,0.8,0.3s0.6,0.1,0.9,0.1c0.4,0,0.7,0,1-0.1s0.5-0.2,0.7-0.3
			c0.2-0.1,0.3-0.3,0.5-0.5C119.9,13.1,120,12.9,120,12.7z"/>
		<path class="st1" d="M158.4,11.8c0-0.3-0.1-0.6-0.2-0.9c-0.1-0.3-0.3-0.5-0.6-0.7c-0.3-0.2-0.6-0.4-1.1-0.6
			c-0.5-0.2-1-0.4-1.7-0.6c-0.7-0.2-1.4-0.4-2-0.7c-0.6-0.3-1.1-0.6-1.5-0.9s-0.7-0.7-1-1.2c-0.2-0.4-0.3-1-0.3-1.5s0.1-1.1,0.4-1.6
			c0.2-0.5,0.6-0.9,1-1.3c0.4-0.4,1-0.6,1.6-0.8c0.6-0.2,1.3-0.3,2.1-0.3c0.8,0,1.6,0.1,2.2,0.4c0.6,0.2,1.2,0.6,1.6,1
			c0.4,0.4,0.8,0.9,1,1.4c0.2,0.5,0.3,1.1,0.3,1.7h-2c0-0.4-0.1-0.8-0.2-1.1s-0.3-0.7-0.6-0.9c-0.3-0.3-0.6-0.5-1-0.6
			c-0.4-0.1-0.9-0.2-1.4-0.2c-0.5,0-1,0.1-1.4,0.2c-0.4,0.1-0.7,0.3-1,0.5s-0.4,0.5-0.6,0.8c-0.1,0.3-0.2,0.6-0.2,1
			c0,0.3,0.1,0.6,0.2,0.9s0.3,0.5,0.6,0.7c0.3,0.2,0.6,0.4,1.1,0.6s1,0.4,1.6,0.5c0.8,0.2,1.6,0.5,2.2,0.8c0.6,0.3,1.1,0.6,1.5,1
			c0.4,0.4,0.7,0.8,0.9,1.2c0.2,0.5,0.3,1,0.3,1.5c0,0.6-0.1,1.1-0.4,1.6s-0.6,0.9-1,1.2c-0.4,0.3-1,0.6-1.6,0.8s-1.3,0.3-2.1,0.3
			c-0.5,0-0.9,0-1.4-0.1c-0.5-0.1-0.9-0.2-1.3-0.4s-0.8-0.4-1.2-0.6c-0.4-0.2-0.7-0.5-0.9-0.9c-0.3-0.3-0.5-0.7-0.6-1.1
			s-0.2-0.9-0.2-1.4h2c0,0.5,0.1,0.9,0.3,1.3s0.5,0.7,0.8,0.9c0.3,0.2,0.7,0.4,1.2,0.5c0.4,0.1,0.9,0.2,1.4,0.2c1,0,1.8-0.2,2.4-0.6
			C158.1,13.1,158.4,12.6,158.4,11.8z"/>
		<path class="st1" d="M182.2,10.2c0,0.8-0.1,1.5-0.3,2.2c-0.2,0.7-0.5,1.3-0.8,1.8c-0.4,0.5-0.8,0.9-1.3,1.2
			c-0.5,0.3-1.1,0.4-1.8,0.4c-0.7,0-1.3-0.1-1.8-0.3c-0.5-0.2-1-0.5-1.3-0.9v5.3h-1.9V4.6h1.7l0.1,1.2c0.4-0.5,0.8-0.8,1.3-1.1
			c0.5-0.2,1.1-0.4,1.8-0.4c0.7,0,1.3,0.1,1.8,0.4c0.5,0.3,1,0.7,1.3,1.1c0.4,0.5,0.6,1.1,0.8,1.8c0.2,0.7,0.3,1.4,0.3,2.3V10.2z
			 M180.3,10c0-0.5-0.1-1.1-0.2-1.5c-0.1-0.5-0.3-0.9-0.5-1.3c-0.2-0.4-0.6-0.7-0.9-0.9S177.8,6,177.3,6c-0.3,0-0.6,0-0.9,0.1
			s-0.5,0.2-0.7,0.3c-0.2,0.1-0.4,0.3-0.6,0.5s-0.3,0.4-0.4,0.6v5.2c0.1,0.2,0.3,0.4,0.4,0.6s0.3,0.3,0.6,0.5
			c0.2,0.1,0.4,0.2,0.7,0.3c0.3,0.1,0.6,0.1,0.9,0.1c0.5,0,0.9-0.1,1.3-0.3c0.4-0.2,0.7-0.5,0.9-0.9c0.2-0.4,0.4-0.8,0.5-1.3
			c0.1-0.5,0.2-1,0.2-1.6V10z"/>
		<path class="st1" d="M199.5,15.8c-0.8,0-1.5-0.1-2.1-0.4s-1.1-0.6-1.6-1.1c-0.4-0.5-0.8-1-1-1.7c-0.2-0.6-0.4-1.4-0.4-2.1V10
			c0-0.9,0.1-1.7,0.4-2.4c0.3-0.7,0.6-1.3,1.1-1.8c0.4-0.5,1-0.8,1.5-1.1c0.6-0.3,1.2-0.4,1.8-0.4c0.8,0,1.5,0.1,2,0.4
			c0.6,0.3,1,0.7,1.4,1.1c0.4,0.5,0.6,1,0.8,1.7s0.3,1.4,0.3,2.1v0.8h-7.4c0,0.5,0.1,1,0.2,1.4c0.2,0.4,0.4,0.8,0.6,1.1
			c0.3,0.3,0.6,0.6,1,0.8c0.4,0.2,0.8,0.3,1.3,0.3c0.7,0,1.2-0.1,1.7-0.4c0.5-0.3,0.9-0.6,1.2-1.1l1.1,0.9c-0.2,0.3-0.4,0.5-0.6,0.8
			c-0.3,0.3-0.5,0.5-0.9,0.7s-0.7,0.4-1.2,0.5C200.5,15.7,200,15.8,199.5,15.8z M199.2,5.9c-0.4,0-0.7,0.1-1,0.2
			c-0.3,0.1-0.6,0.3-0.9,0.6c-0.2,0.3-0.5,0.6-0.6,1c-0.2,0.4-0.3,0.8-0.3,1.3h5.5V8.9c0-0.4-0.1-0.7-0.2-1.1
			c-0.1-0.4-0.2-0.7-0.5-1c-0.2-0.3-0.5-0.5-0.8-0.7S199.7,5.9,199.2,5.9z"/>
		<path class="st1" d="M220.8,15.8c-0.8,0-1.5-0.1-2.1-0.4s-1.1-0.6-1.6-1.1c-0.4-0.5-0.8-1-1-1.7c-0.2-0.6-0.4-1.4-0.4-2.1V10
			c0-0.9,0.1-1.7,0.4-2.4c0.3-0.7,0.6-1.3,1.1-1.8c0.4-0.5,1-0.8,1.5-1.1c0.6-0.3,1.2-0.4,1.8-0.4c0.8,0,1.5,0.1,2,0.4
			c0.6,0.3,1,0.7,1.4,1.1c0.4,0.5,0.6,1,0.8,1.7s0.3,1.4,0.3,2.1v0.8h-7.4c0,0.5,0.1,1,0.2,1.4c0.2,0.4,0.4,0.8,0.6,1.1
			c0.3,0.3,0.6,0.6,1,0.8c0.4,0.2,0.8,0.3,1.3,0.3c0.7,0,1.2-0.1,1.7-0.4c0.5-0.3,0.9-0.6,1.2-1.1l1.1,0.9c-0.2,0.3-0.4,0.5-0.6,0.8
			c-0.3,0.3-0.5,0.5-0.9,0.7s-0.7,0.4-1.2,0.5C221.9,15.7,221.4,15.8,220.8,15.8z M220.6,5.9c-0.4,0-0.7,0.1-1,0.2
			c-0.3,0.1-0.6,0.3-0.9,0.6c-0.2,0.3-0.5,0.6-0.6,1c-0.2,0.4-0.3,0.8-0.3,1.3h5.5V8.9c0-0.4-0.1-0.7-0.2-1.1
			c-0.1-0.4-0.2-0.7-0.5-1c-0.2-0.3-0.5-0.5-0.8-0.7S221.1,5.9,220.6,5.9z"/>
		<path class="st1" d="M237.2,10c0-0.8,0.1-1.6,0.3-2.3c0.2-0.7,0.5-1.3,0.9-1.8c0.4-0.5,0.8-0.9,1.4-1.1c0.5-0.3,1.1-0.4,1.8-0.4
			c0.7,0,1.3,0.1,1.8,0.3c0.5,0.2,0.9,0.6,1.3,1V0h1.9v15.6h-1.7l-0.1-1.2c-0.4,0.4-0.8,0.8-1.3,1c-0.5,0.2-1.1,0.4-1.8,0.4
			c-0.6,0-1.2-0.1-1.8-0.4c-0.5-0.3-1-0.7-1.4-1.2c-0.4-0.5-0.7-1.1-0.9-1.8c-0.2-0.7-0.3-1.4-0.3-2.2V10z M239.1,10.2
			c0,0.5,0.1,1.1,0.2,1.5c0.1,0.5,0.3,0.9,0.5,1.3c0.2,0.4,0.5,0.6,0.9,0.9c0.4,0.2,0.8,0.3,1.3,0.3c0.3,0,0.6,0,0.9-0.1
			c0.3-0.1,0.5-0.2,0.7-0.3c0.2-0.1,0.4-0.3,0.6-0.5c0.2-0.2,0.3-0.4,0.4-0.6v-5c-0.1-0.2-0.3-0.4-0.4-0.6s-0.3-0.4-0.6-0.5
			c-0.2-0.1-0.5-0.2-0.7-0.3C242.6,6,242.3,6,242,6c-0.5,0-1,0.1-1.3,0.3s-0.7,0.5-0.9,0.9c-0.2,0.4-0.4,0.8-0.5,1.3s-0.2,1-0.2,1.5
			V10.2z"/>
		<path class="st1" d="M283.4,11.8c0-0.3-0.1-0.6-0.2-0.9c-0.1-0.3-0.3-0.5-0.6-0.7c-0.3-0.2-0.6-0.4-1.1-0.6
			c-0.5-0.2-1-0.4-1.7-0.6c-0.7-0.2-1.4-0.4-2-0.7c-0.6-0.3-1.1-0.6-1.5-0.9c-0.4-0.3-0.7-0.7-1-1.2c-0.2-0.4-0.3-1-0.3-1.5
			s0.1-1.1,0.4-1.6c0.2-0.5,0.6-0.9,1-1.3c0.4-0.4,1-0.6,1.6-0.8c0.6-0.2,1.3-0.3,2.1-0.3c0.8,0,1.6,0.1,2.2,0.4s1.2,0.6,1.6,1
			c0.4,0.4,0.8,0.9,1,1.4c0.2,0.5,0.3,1.1,0.3,1.7h-2c0-0.4-0.1-0.8-0.2-1.1s-0.3-0.7-0.6-0.9c-0.3-0.3-0.6-0.5-1-0.6
			c-0.4-0.1-0.9-0.2-1.4-0.2c-0.5,0-1,0.1-1.4,0.2c-0.4,0.1-0.7,0.3-1,0.5s-0.4,0.5-0.6,0.8c-0.1,0.3-0.2,0.6-0.2,1
			c0,0.3,0.1,0.6,0.2,0.9s0.3,0.5,0.6,0.7c0.3,0.2,0.6,0.4,1.1,0.6s1,0.4,1.6,0.5c0.8,0.2,1.6,0.5,2.2,0.8c0.6,0.3,1.1,0.6,1.5,1
			c0.4,0.4,0.7,0.8,0.9,1.2c0.2,0.5,0.3,1,0.3,1.5c0,0.6-0.1,1.1-0.4,1.6s-0.6,0.9-1,1.2c-0.4,0.3-1,0.6-1.6,0.8
			c-0.6,0.2-1.3,0.3-2.1,0.3c-0.5,0-0.9,0-1.4-0.1c-0.5-0.1-0.9-0.2-1.3-0.4s-0.8-0.4-1.2-0.6s-0.7-0.5-0.9-0.9
			c-0.3-0.3-0.5-0.7-0.6-1.1s-0.2-0.9-0.2-1.4h2c0,0.5,0.1,0.9,0.3,1.3s0.5,0.7,0.8,0.9c0.3,0.2,0.7,0.4,1.2,0.5s0.9,0.2,1.4,0.2
			c1,0,1.8-0.2,2.4-0.6C283.2,13.1,283.4,12.6,283.4,11.8z"/>
		<path class="st1" d="M299.8,5.9c0.4-0.5,0.9-0.9,1.4-1.1c0.5-0.3,1.2-0.4,1.8-0.4c0.5,0,1,0.1,1.4,0.2c0.4,0.1,0.8,0.4,1.1,0.7
			c0.3,0.3,0.5,0.7,0.7,1.2c0.2,0.5,0.2,1.1,0.2,1.8v7.2h-1.9V8.4c0-0.4,0-0.8-0.1-1.1c-0.1-0.3-0.2-0.5-0.4-0.7
			c-0.2-0.2-0.4-0.3-0.7-0.4S302.9,6,302.5,6c-0.6,0-1.1,0.2-1.6,0.5c-0.5,0.3-0.8,0.8-1.1,1.3v7.8H298V0h1.9V5.9z"/>
		<path class="st1" d="M319.3,10c0-0.8,0.1-1.5,0.3-2.2c0.2-0.7,0.6-1.3,1-1.8c0.4-0.5,1-0.9,1.6-1.2c0.6-0.3,1.3-0.4,2.1-0.4
			c0.8,0,1.5,0.1,2.1,0.4c0.6,0.3,1.1,0.7,1.6,1.2c0.4,0.5,0.8,1.1,1,1.8c0.2,0.7,0.3,1.4,0.3,2.2v0.2c0,0.8-0.1,1.5-0.3,2.2
			c-0.2,0.7-0.6,1.3-1,1.8c-0.4,0.5-1,0.9-1.6,1.2s-1.3,0.4-2.1,0.4c-0.8,0-1.5-0.1-2.1-0.4c-0.6-0.3-1.1-0.7-1.6-1.2
			c-0.4-0.5-0.8-1.1-1-1.8c-0.2-0.7-0.3-1.4-0.3-2.2V10z M321.2,10.2c0,0.5,0.1,1.1,0.2,1.6c0.1,0.5,0.3,0.9,0.6,1.3
			c0.3,0.4,0.6,0.7,1,0.9c0.4,0.2,0.8,0.3,1.4,0.3c0.5,0,1-0.1,1.4-0.3c0.4-0.2,0.7-0.5,1-0.9c0.3-0.4,0.5-0.8,0.6-1.3
			c0.1-0.5,0.2-1,0.2-1.6V10c0-0.5-0.1-1.1-0.2-1.5c-0.1-0.5-0.3-0.9-0.6-1.3c-0.3-0.4-0.6-0.7-1-0.9c-0.4-0.2-0.8-0.3-1.4-0.3
			c-0.5,0-1,0.1-1.3,0.3c-0.4,0.2-0.7,0.5-1,0.9c-0.3,0.4-0.5,0.8-0.6,1.3c-0.1,0.5-0.2,1-0.2,1.5V10.2z"/>
		<path class="st1" d="M351.3,10.2c0,0.8-0.1,1.5-0.3,2.2c-0.2,0.7-0.5,1.3-0.8,1.8c-0.4,0.5-0.8,0.9-1.3,1.2
			c-0.5,0.3-1.1,0.4-1.8,0.4c-0.7,0-1.3-0.1-1.8-0.3c-0.5-0.2-1-0.5-1.3-0.9v5.3H342V4.6h1.7l0.1,1.2c0.4-0.5,0.8-0.8,1.3-1.1
			s1.1-0.4,1.8-0.4c0.7,0,1.3,0.1,1.8,0.4c0.5,0.3,1,0.7,1.3,1.1c0.4,0.5,0.6,1.1,0.8,1.8c0.2,0.7,0.3,1.4,0.3,2.3V10.2z M349.4,10
			c0-0.5-0.1-1.1-0.2-1.5s-0.3-0.9-0.5-1.3c-0.2-0.4-0.6-0.7-0.9-0.9S346.9,6,346.4,6c-0.3,0-0.6,0-0.9,0.1s-0.5,0.2-0.7,0.3
			c-0.2,0.1-0.4,0.3-0.6,0.5s-0.3,0.4-0.4,0.6v5.2c0.1,0.2,0.3,0.4,0.4,0.6s0.3,0.3,0.6,0.5c0.2,0.1,0.4,0.2,0.7,0.3
			c0.3,0.1,0.6,0.1,0.9,0.1c0.5,0,0.9-0.1,1.3-0.3c0.4-0.2,0.7-0.5,0.9-0.9c0.2-0.4,0.4-0.8,0.5-1.3s0.2-1,0.2-1.6V10z"/>
	</g>
</g>
</svg>
