<?xml version="1.0" encoding="utf-8"?>
<!-- Generator: Adobe Illustrator 19.0.1, SVG Export Plug-In . SVG Version: 6.00 Build 0)  -->
<svg version="1.1" id="Layer_1" xmlns="http://www.w3.org/2000/svg" xmlns:xlink="http://www.w3.org/1999/xlink" x="0px" y="0px"
	 viewBox="0 0 190 15.2" style="enable-background:new 0 0 190 15.2;" xml:space="preserve">
<style type="text/css">
	.st0{fill:#CDCAC9;}
	.st1{fill:#FFFFFF;}
	.st2{fill:#3399CC;}
	.st3{fill:#CC6632;}
</style>
<g>
	<path class="st1" d="M10.7,0.2v10c0,0.8-0.1,1.6-0.4,2.2C10,13,9.6,13.5,9.1,13.9c-0.5,0.4-1.1,0.7-1.7,0.9c-0.6,0.2-1.3,0.3-2,0.3
		c-0.8,0-1.4-0.1-2.1-0.3c-0.6-0.2-1.2-0.5-1.7-0.9c-0.5-0.4-0.9-0.9-1.1-1.6C0.1,11.8,0,11,0,10.2v-10h1.9v10
		c0,0.6,0.1,1.1,0.2,1.5c0.2,0.4,0.4,0.8,0.7,1.1s0.7,0.5,1.1,0.6c0.4,0.1,0.9,0.2,1.4,0.2c0.5,0,1-0.1,1.4-0.2
		c0.4-0.1,0.8-0.3,1.1-0.6c0.3-0.3,0.5-0.6,0.7-1.1s0.2-0.9,0.2-1.5v-10H10.7z"/>
	<path class="st1" d="M35.5,15h-2L26.1,3.6V15h-2V0.2h2l7.4,11.4V0.2h1.9V15z"/>
	<path class="st1" d="M51.3,13.4h7V15h-8.9V0.2h2V13.4z"/>
	<path class="st1" d="M74,12.4l4.2-12.2h2.1L74.8,15h-1.7L67.7,0.2h2.1L74,12.4z"/>
	<path class="st1" d="M119,10.3c-0.1,0.7-0.3,1.3-0.5,1.9c-0.3,0.6-0.6,1.1-1.1,1.5c-0.5,0.4-1,0.8-1.7,1c-0.7,0.2-1.4,0.4-2.3,0.4
		c-0.9,0-1.7-0.2-2.4-0.5c-0.7-0.3-1.3-0.8-1.8-1.4c-0.5-0.6-0.9-1.3-1.2-2.2c-0.3-0.8-0.4-1.8-0.4-2.8V6.9c0-1,0.1-2,0.4-2.8
		c0.3-0.8,0.7-1.6,1.2-2.2c0.5-0.6,1.1-1.1,1.9-1.4c0.7-0.3,1.6-0.5,2.5-0.5c0.8,0,1.6,0.1,2.2,0.4c0.6,0.2,1.2,0.6,1.6,1
		c0.4,0.4,0.8,1,1.1,1.6c0.3,0.6,0.4,1.3,0.5,2h-2c-0.1-0.5-0.2-1-0.3-1.4c-0.2-0.4-0.4-0.8-0.6-1.1c-0.3-0.3-0.6-0.5-1-0.7
		c-0.4-0.2-0.9-0.2-1.5-0.2c-0.7,0-1.2,0.1-1.7,0.4S111,2.6,110.6,3s-0.6,1-0.8,1.7c-0.2,0.6-0.3,1.4-0.3,2.1v1.5
		c0,0.7,0.1,1.4,0.2,2c0.2,0.6,0.4,1.2,0.7,1.7c0.3,0.5,0.7,0.9,1.2,1.1c0.5,0.3,1,0.4,1.7,0.4c0.6,0,1.1-0.1,1.6-0.2
		c0.4-0.1,0.8-0.4,1.1-0.6c0.3-0.3,0.5-0.6,0.7-1c0.2-0.4,0.3-0.9,0.4-1.4H119z"/>
	<path class="st1" d="M139.9,11.2c0-0.3-0.1-0.6-0.2-0.9c-0.1-0.3-0.3-0.5-0.6-0.7c-0.3-0.2-0.6-0.4-1.1-0.6c-0.5-0.2-1-0.4-1.7-0.6
		c-0.7-0.2-1.4-0.4-2-0.7c-0.6-0.3-1.1-0.6-1.5-0.9s-0.7-0.7-1-1.2c-0.2-0.4-0.3-1-0.3-1.5s0.1-1.1,0.4-1.6c0.2-0.5,0.6-0.9,1-1.3
		c0.4-0.4,1-0.6,1.6-0.8c0.6-0.2,1.3-0.3,2.1-0.3c0.8,0,1.6,0.1,2.2,0.4c0.6,0.2,1.2,0.6,1.6,1c0.4,0.4,0.8,0.9,1,1.4
		c0.2,0.5,0.3,1.1,0.3,1.7h-2c0-0.4-0.1-0.8-0.2-1.1s-0.3-0.7-0.6-0.9c-0.3-0.3-0.6-0.5-1-0.6c-0.4-0.1-0.9-0.2-1.4-0.2
		c-0.5,0-1,0.1-1.4,0.2c-0.4,0.1-0.7,0.3-1,0.5s-0.4,0.5-0.6,0.8c-0.1,0.3-0.2,0.6-0.2,1c0,0.3,0.1,0.6,0.2,0.9s0.3,0.5,0.6,0.7
		c0.3,0.2,0.6,0.4,1.1,0.6s1,0.4,1.6,0.5c0.8,0.2,1.6,0.5,2.2,0.8c0.6,0.3,1.1,0.6,1.5,1c0.4,0.4,0.7,0.8,0.9,1.2
		c0.2,0.5,0.3,1,0.3,1.5c0,0.6-0.1,1.1-0.4,1.6s-0.6,0.9-1,1.2c-0.4,0.3-1,0.6-1.6,0.8s-1.3,0.3-2.1,0.3c-0.5,0-0.9,0-1.4-0.1
		c-0.5-0.1-0.9-0.2-1.3-0.4s-0.8-0.4-1.2-0.6c-0.4-0.2-0.7-0.5-0.9-0.9c-0.3-0.3-0.5-0.7-0.6-1.1s-0.2-0.9-0.2-1.4h2
		c0,0.5,0.1,0.9,0.3,1.3s0.5,0.7,0.8,0.9c0.3,0.2,0.7,0.4,1.2,0.5c0.4,0.1,0.9,0.2,1.4,0.2c1,0,1.8-0.2,2.4-0.6
		C139.7,12.5,139.9,12,139.9,11.2z"/>
	<path class="st1" d="M165.2,0.2v10c0,0.8-0.1,1.6-0.4,2.2c-0.3,0.6-0.7,1.1-1.2,1.6c-0.5,0.4-1.1,0.7-1.7,0.9s-1.3,0.3-2,0.3
		c-0.8,0-1.4-0.1-2.1-0.3c-0.6-0.2-1.2-0.5-1.7-0.9c-0.5-0.4-0.9-0.9-1.1-1.6c-0.3-0.6-0.4-1.3-0.4-2.2v-10h1.9v10
		c0,0.6,0.1,1.1,0.2,1.5c0.2,0.4,0.4,0.8,0.7,1.1s0.7,0.5,1.1,0.6c0.4,0.1,0.9,0.2,1.4,0.2c0.5,0,1-0.1,1.4-0.2
		c0.4-0.1,0.8-0.3,1.1-0.6s0.5-0.6,0.7-1.1s0.2-0.9,0.2-1.5v-10H165.2z"/>
	<path class="st1" d="M190,15h-2l-7.4-11.4V15h-2V0.2h2l7.4,11.4V0.2h1.9V15z"/>
</g>
</svg>
