<?xml version="1.0" encoding="utf-8"?>
<!-- Generator: Adobe Illustrator 19.0.1, SVG Export Plug-In . SVG Version: 6.00 Build 0)  -->
<svg version="1.1" xmlns="http://www.w3.org/2000/svg" xmlns:xlink="http://www.w3.org/1999/xlink" x="0px" y="0px"
	 viewBox="0 0 176.8 12.1" style="enable-background:new 0 0 176.8 12.1;" xml:space="preserve">
<style type="text/css">
	.st0{fill:#FFFFFF;}
	.st1{fill:#3399CC;}
	.st2{fill:#FF9966;}
	.st3{fill:#382C3D;}
	.st4{fill:#3D220E;}
	.st5{fill:none;stroke:#FFFFFF;stroke-width:0.2658;stroke-miterlimit:10;}
	.st6{fill:#CDCBCA;}
	.st7{fill:none;stroke:#FFFFFF;stroke-width:0.5618;stroke-miterlimit:10;}
	.st8{fill:#669897;}
	.st9{fill:#CC6632;}
	.st10{fill:none;stroke:#FFFFFF;stroke-width:1.1126;stroke-miterlimit:10;}
	.st11{fill:#333333;}
	.st12{opacity:0.69;}
	.st13{opacity:0.48;fill:#3399CC;}
	.st14{fill:#CDCAC9;}
	.st15{fill:#362012;}
	.st16{fill:#272223;}
	.st17{fill:url(#SVGID_5_);}
	.st18{fill:url(#SVGID_6_);}
	.st19{fill:url(#SVGID_7_);}
	.st20{fill:#999999;}
	.st21{fill:#CC6633;}
	.st22{opacity:0.5;fill:#653614;}
	.st23{opacity:0.69;fill:#FF9966;}
</style>
<g id="old">
	<g id="contact">
	</g>
	<g id="about">
	</g>
	<g id="WORK">
		<g id="work">
		</g>
		<g id="mouseOver">
			<g>
				<path class="st0" d="M9.3,0.2v7.9c0,0.7-0.1,1.3-0.4,1.8c-0.2,0.5-0.6,0.9-1,1.3c-0.4,0.3-0.9,0.6-1.5,0.8
					c-0.6,0.2-1.2,0.3-1.8,0.3c-0.7,0-1.3-0.1-1.8-0.3c-0.6-0.2-1.1-0.4-1.5-0.8s-0.7-0.8-1-1.3C0.1,9.3,0,8.7,0,8.1V0.2h1.9v7.9
					c0,0.4,0.1,0.8,0.2,1.1C2.2,9.5,2.4,9.8,2.6,10c0.2,0.2,0.5,0.4,0.9,0.5c0.3,0.1,0.7,0.2,1.1,0.2c0.4,0,0.8-0.1,1.1-0.2
					s0.6-0.3,0.9-0.5c0.2-0.2,0.4-0.5,0.6-0.8c0.1-0.3,0.2-0.7,0.2-1.1V0.2H9.3z"/>
				<path class="st0" d="M32.1,12h-1.9l-6.1-8.9V12h-1.9V0.2h1.9l6.1,8.9V0.2h1.9V12z"/>
				<path class="st0" d="M47.2,10.4h5.9V12h-7.8V0.2h1.9V10.4z"/>
				<path class="st0" d="M68.6,9l0.3,1L69.1,9l3.2-8.9h2L69.7,12H68L63.3,0.2h2L68.6,9z"/>
				<path class="st0" d="M111.3,8.1c-0.1,0.6-0.2,1.1-0.4,1.6c-0.2,0.5-0.5,0.9-0.9,1.3c-0.4,0.4-0.9,0.6-1.5,0.8s-1.3,0.3-2,0.3
					s-1.5-0.1-2.1-0.4c-0.6-0.3-1.1-0.6-1.6-1.1c-0.4-0.5-0.8-1.1-1-1.7c-0.2-0.7-0.4-1.5-0.4-2.3v-1c0-0.8,0.1-1.6,0.4-2.3
					c0.2-0.7,0.6-1.3,1-1.8c0.4-0.5,1-0.9,1.6-1.1c0.6-0.3,1.3-0.4,2.1-0.4c0.7,0,1.4,0.1,2,0.3s1,0.5,1.4,0.8
					c0.4,0.4,0.7,0.8,0.9,1.3c0.2,0.5,0.4,1,0.4,1.6h-1.9c-0.1-0.4-0.1-0.7-0.3-1c-0.1-0.3-0.3-0.6-0.5-0.8
					c-0.2-0.2-0.5-0.4-0.9-0.5c-0.3-0.1-0.7-0.2-1.2-0.2c-0.5,0-1,0.1-1.4,0.3c-0.4,0.2-0.7,0.4-1,0.8s-0.5,0.8-0.6,1.3
					c-0.1,0.5-0.2,1.1-0.2,1.7v1c0,0.6,0.1,1.1,0.2,1.6s0.3,0.9,0.6,1.3c0.3,0.4,0.6,0.6,1,0.8c0.4,0.2,0.9,0.3,1.4,0.3
					c0.5,0,0.9-0.1,1.3-0.2s0.6-0.3,0.9-0.5c0.2-0.2,0.4-0.5,0.5-0.8c0.1-0.3,0.2-0.7,0.3-1.1H111.3z"/>
				<path class="st0" d="M130.6,8.9c0-0.2,0-0.5-0.1-0.7c-0.1-0.2-0.2-0.4-0.4-0.5c-0.2-0.2-0.5-0.3-0.8-0.5
					c-0.4-0.1-0.8-0.3-1.4-0.4c-0.7-0.2-1.2-0.3-1.8-0.6c-0.5-0.2-1-0.5-1.4-0.8c-0.4-0.3-0.7-0.6-0.9-1c-0.2-0.4-0.3-0.8-0.3-1.3
					c0-0.5,0.1-0.9,0.3-1.3c0.2-0.4,0.5-0.7,0.9-1s0.8-0.5,1.4-0.7S127.3,0,128,0c0.7,0,1.3,0.1,1.9,0.3c0.6,0.2,1,0.5,1.4,0.8
					c0.4,0.3,0.7,0.7,0.9,1.1c0.2,0.4,0.3,0.9,0.3,1.4h-1.9c0-0.3-0.1-0.6-0.2-0.8c-0.1-0.3-0.3-0.5-0.5-0.7
					c-0.2-0.2-0.5-0.3-0.8-0.4c-0.3-0.1-0.7-0.2-1.2-0.2c-0.4,0-0.8,0-1.1,0.1c-0.3,0.1-0.6,0.2-0.8,0.4c-0.2,0.2-0.4,0.3-0.5,0.5
					c-0.1,0.2-0.2,0.4-0.2,0.7c0,0.2,0.1,0.4,0.2,0.6c0.1,0.2,0.3,0.4,0.5,0.5c0.2,0.2,0.5,0.3,0.9,0.4s0.8,0.3,1.4,0.4
					c0.7,0.2,1.2,0.4,1.7,0.6c0.5,0.2,0.9,0.5,1.3,0.8c0.3,0.3,0.6,0.6,0.8,1s0.3,0.8,0.3,1.3c0,0.5-0.1,0.9-0.3,1.3
					c-0.2,0.4-0.5,0.7-0.9,1c-0.4,0.3-0.9,0.5-1.4,0.6s-1.2,0.2-1.8,0.2c-0.6,0-1.2-0.1-1.8-0.2c-0.6-0.2-1.1-0.4-1.6-0.7
					c-0.5-0.3-0.8-0.7-1.1-1.2c-0.3-0.5-0.4-1-0.4-1.6h1.9c0,0.4,0.1,0.7,0.2,1c0.2,0.3,0.4,0.5,0.6,0.7c0.3,0.2,0.6,0.3,0.9,0.4
					s0.7,0.1,1.2,0.1c0.9,0,1.5-0.2,1.9-0.5C130.4,9.9,130.6,9.4,130.6,8.9z"/>
				<path class="st0" d="M154,0.2v7.9c0,0.7-0.1,1.3-0.4,1.8c-0.2,0.5-0.6,0.9-1,1.3s-0.9,0.6-1.5,0.8c-0.6,0.2-1.2,0.3-1.8,0.3
					c-0.7,0-1.3-0.1-1.8-0.3c-0.6-0.2-1.1-0.4-1.5-0.8c-0.4-0.3-0.7-0.8-1-1.3c-0.2-0.5-0.4-1.1-0.4-1.8V0.2h1.9v7.9
					c0,0.4,0.1,0.8,0.2,1.1c0.1,0.3,0.3,0.6,0.6,0.8c0.2,0.2,0.5,0.4,0.9,0.5c0.3,0.1,0.7,0.2,1.1,0.2s0.8-0.1,1.1-0.2
					c0.3-0.1,0.6-0.3,0.9-0.5c0.2-0.2,0.4-0.5,0.6-0.8c0.1-0.3,0.2-0.7,0.2-1.1V0.2H154z"/>
				<path class="st0" d="M176.8,12H175l-6.1-8.9V12H167V0.2h1.9l6.1,8.9V0.2h1.9V12z"/>
			</g>
		</g>
	</g>
	<g id="home">
	</g>
	<g id="NAVBAR">
		<g id="navBar">
		</g>
		<g id="mouseOver_1_">
		</g>
	</g>
</g>
<g id="Layer_11">
</g>
</svg>
