<?xml version="1.0" encoding="utf-8"?>
<!-- Generator: Adobe Illustrator 19.0.1, SVG Export Plug-In . SVG Version: 6.00 Build 0)  -->
<svg version="1.1" xmlns="http://www.w3.org/2000/svg" xmlns:xlink="http://www.w3.org/1999/xlink" x="0px" y="0px"
	 viewBox="0 0 190.6 15.2" style="enable-background:new 0 0 190.6 15.2;" xml:space="preserve">
<style type="text/css">
	.st0{fill:#FFFFFF;}
	.st1{fill:#3399CC;}
	.st2{fill:#FF9966;}
	.st3{fill:#382C3D;}
	.st4{fill:#3D220E;}
	.st5{fill:none;stroke:#FFFFFF;stroke-width:0.2658;stroke-miterlimit:10;}
	.st6{fill:#CDCBCA;}
	.st7{fill:none;stroke:#FFFFFF;stroke-width:0.5618;stroke-miterlimit:10;}
	.st8{fill:#669897;}
	.st9{fill:#CC6632;}
	.st10{fill:none;stroke:#FFFFFF;stroke-width:1.1126;stroke-miterlimit:10;}
	.st11{fill:#333333;}
	.st12{opacity:0.69;}
	.st13{opacity:0.48;fill:#3399CC;}
	.st14{fill:#CDCAC9;}
	.st15{fill:#362012;}
	.st16{fill:#272223;}
	.st17{fill:url(#SVGID_5_);}
	.st18{fill:url(#SVGID_6_);}
	.st19{fill:url(#SVGID_7_);}
	.st20{fill:#999999;}
	.st21{fill:#CC6633;}
	.st22{opacity:0.5;fill:#653614;}
	.st23{opacity:0.69;fill:#FF9966;}
</style>
<g id="old">
	<g id="contact">
	</g>
	<g id="about">
	</g>
	<g id="WORK">
		<g id="work">
		</g>
		<g id="mouseOver">
			<g>
				<path class="st16" d="M11,0.2v9.9c0,0.8-0.1,1.6-0.4,2.2c-0.3,0.6-0.7,1.2-1.2,1.6s-1.1,0.7-1.8,1s-1.4,0.3-2.1,0.3
					c-0.8,0-1.5-0.1-2.2-0.3s-1.3-0.5-1.7-1c-0.5-0.4-0.9-1-1.2-1.6C0.1,11.7,0,10.9,0,10.1V0.2h2.6v9.9c0,0.5,0.1,1,0.2,1.4
					c0.1,0.4,0.3,0.7,0.6,0.9s0.6,0.4,0.9,0.6c0.4,0.1,0.8,0.2,1.2,0.2s0.9-0.1,1.2-0.2c0.4-0.1,0.7-0.3,0.9-0.6s0.4-0.6,0.6-0.9
					c0.1-0.4,0.2-0.8,0.2-1.4V0.2H11z"/>
				<path class="st16" d="M35.8,15h-2.6L26.7,4.5V15h-2.6V0.2h2.6l6.6,10.5V0.2h2.5V15z"/>
				<path class="st16" d="M51.8,12.9h6.7v2h-9.3V0.2h2.6V12.9z"/>
				<path class="st16" d="M74,11.7l3.8-11.5h2.8L75.2,15h-2.5L67.5,0.2h2.8L74,11.7z"/>
				<path class="st16" d="M119.4,10.2c-0.1,0.7-0.2,1.4-0.5,2c-0.3,0.6-0.6,1.1-1.1,1.6c-0.5,0.4-1.1,0.8-1.8,1
					c-0.7,0.2-1.5,0.4-2.4,0.4c-0.9,0-1.7-0.2-2.5-0.5c-0.7-0.3-1.4-0.8-1.9-1.4c-0.5-0.6-0.9-1.3-1.2-2.2s-0.4-1.8-0.4-2.9V7
					c0-1.1,0.1-2,0.4-2.9c0.3-0.9,0.7-1.6,1.2-2.2s1.2-1.1,1.9-1.4c0.7-0.3,1.6-0.5,2.5-0.5c0.9,0,1.7,0.1,2.3,0.4
					c0.7,0.3,1.2,0.6,1.7,1.1c0.5,0.4,0.8,1,1.1,1.6c0.3,0.6,0.4,1.3,0.5,2h-2.6c-0.1-0.5-0.1-0.9-0.3-1.3c-0.1-0.4-0.3-0.7-0.6-0.9
					c-0.2-0.3-0.6-0.5-0.9-0.6c-0.4-0.1-0.8-0.2-1.3-0.2c-0.6,0-1.1,0.1-1.5,0.3c-0.4,0.2-0.8,0.5-1.1,1c-0.3,0.4-0.5,0.9-0.7,1.5
					c-0.1,0.6-0.2,1.3-0.2,2.1v1.2c0,0.7,0.1,1.4,0.2,2s0.3,1.1,0.6,1.5c0.3,0.4,0.6,0.8,1,1s0.9,0.4,1.5,0.4c0.6,0,1-0.1,1.4-0.2
					c0.4-0.1,0.7-0.3,0.9-0.6s0.4-0.6,0.6-0.9c0.1-0.4,0.2-0.8,0.3-1.3H119.4z"/>
				<path class="st16" d="M139.8,11.2c0-0.3,0-0.6-0.1-0.8c-0.1-0.2-0.2-0.4-0.5-0.6c-0.2-0.2-0.6-0.4-1-0.6
					c-0.4-0.2-0.9-0.4-1.6-0.6c-0.7-0.2-1.4-0.4-1.9-0.7c-0.6-0.3-1.1-0.6-1.5-0.9c-0.4-0.4-0.8-0.8-1-1.2c-0.2-0.5-0.4-1-0.4-1.6
					c0-0.6,0.1-1.1,0.4-1.6c0.3-0.5,0.6-0.9,1.1-1.3s1-0.6,1.7-0.9c0.6-0.2,1.4-0.3,2.1-0.3c0.8,0,1.6,0.1,2.2,0.4
					c0.7,0.2,1.2,0.6,1.7,1s0.8,0.9,1,1.4s0.4,1.1,0.4,1.7h-2.6c0-0.4-0.1-0.7-0.2-1s-0.3-0.6-0.5-0.8c-0.2-0.2-0.5-0.4-0.9-0.5
					C137.9,2.1,137.5,2,137,2c-0.5,0-0.8,0.1-1.2,0.2c-0.3,0.1-0.6,0.2-0.8,0.4c-0.2,0.2-0.4,0.4-0.5,0.6c-0.1,0.2-0.2,0.5-0.2,0.8
					c0,0.5,0.3,1,0.8,1.4c0.5,0.4,1.3,0.7,2.4,1c0.8,0.2,1.6,0.5,2.2,0.8c0.6,0.3,1.1,0.6,1.5,1c0.4,0.4,0.7,0.8,0.9,1.3
					s0.3,1,0.3,1.6c0,0.6-0.1,1.2-0.4,1.7c-0.2,0.5-0.6,0.9-1.1,1.3c-0.5,0.3-1,0.6-1.7,0.8c-0.6,0.2-1.4,0.3-2.2,0.3
					c-0.7,0-1.4-0.1-2.1-0.3s-1.3-0.5-1.9-0.9s-1-0.9-1.3-1.5s-0.5-1.3-0.5-2h2.6c0,0.5,0.1,0.9,0.2,1.2c0.2,0.3,0.4,0.6,0.7,0.8
					s0.6,0.4,1,0.5c0.4,0.1,0.8,0.1,1.3,0.1c0.9,0,1.6-0.2,2-0.5C139.6,12.2,139.8,11.8,139.8,11.2z"/>
				<path class="st16" d="M165.8,0.2v9.9c0,0.8-0.1,1.6-0.4,2.2c-0.3,0.6-0.7,1.2-1.2,1.6s-1.1,0.7-1.8,1c-0.7,0.2-1.4,0.3-2.1,0.3
					c-0.8,0-1.5-0.1-2.2-0.3c-0.7-0.2-1.3-0.5-1.7-1s-0.9-1-1.2-1.6c-0.3-0.6-0.4-1.4-0.4-2.2V0.2h2.6v9.9c0,0.5,0.1,1,0.2,1.4
					c0.1,0.4,0.3,0.7,0.6,0.9c0.3,0.2,0.6,0.4,0.9,0.6c0.4,0.1,0.8,0.2,1.2,0.2c0.5,0,0.9-0.1,1.2-0.2c0.4-0.1,0.7-0.3,0.9-0.6
					c0.3-0.2,0.4-0.6,0.6-0.9c0.1-0.4,0.2-0.8,0.2-1.4V0.2H165.8z"/>
				<path class="st16" d="M190.6,15H188l-6.6-10.5V15h-2.6V0.2h2.6l6.6,10.5V0.2h2.5V15z"/>
			</g>
		</g>
	</g>
	<g id="home">
	</g>
	<g id="NAVBAR">
		<g id="navBar">
		</g>
		<g id="mouseOver_1_">
		</g>
	</g>
</g>
<g id="Layer_11">
</g>
</svg>
