<?xml version="1.0" encoding="utf-8"?>
<!-- Generator: Adobe Illustrator 19.0.1, SVG Export Plug-In . SVG Version: 6.00 Build 0)  -->
<svg version="1.1" xmlns="http://www.w3.org/2000/svg" xmlns:xlink="http://www.w3.org/1999/xlink" x="0px" y="0px"
	 viewBox="0 0 202.4 23.4" style="enable-background:new 0 0 202.4 23.4;" xml:space="preserve">
<style type="text/css">
	.st0{fill:#FFFFFF;}
	.st1{fill:#3399CC;}
	.st2{fill:#FF9966;}
	.st3{fill:#382C3D;}
	.st4{fill:#221F20;}
	.st5{fill:#FFCC66;}
	.st6{fill:#3D220E;}
	.st7{fill:none;stroke:#FFFFFF;stroke-width:0.5618;stroke-miterlimit:10;}
	.st8{fill:#CDCBCA;}
	.st9{fill:#669897;}
	.st10{clip-path:url(#SVGID_4_);}
	.st11{fill:none;stroke:#FFFFFF;stroke-width:2.3528;stroke-miterlimit:10;}
	.st12{fill:#CDCAC9;}
	.st13{fill:#FDCC66;}
	.st14{fill:url(#SVGID_5_);}
	.st15{fill:url(#SVGID_6_);}
	.st16{fill:url(#SVGID_7_);}
	.st17{fill:#999999;}
	.st18{fill:#CC6633;}
	.st19{opacity:0.5;fill:#653614;}
	.st20{opacity:0.69;fill:#FF9966;}
</style>
<g id="contact">
</g>
<g id="about">
</g>
<g id="WORK">
	<g id="work">
	</g>
	<g id="mouseOver">
		<g>
			<path class="st1" d="M2,17.8V3h4.1C7,3,7.8,3.2,8.5,3.5c0.7,0.3,1.4,0.8,1.9,1.3s1,1.3,1.3,2c0.3,0.8,0.5,1.7,0.5,2.6v1.8
				c0,1-0.2,1.8-0.5,2.6c-0.3,0.8-0.7,1.5-1.3,2s-1.2,1-1.9,1.3c-0.7,0.3-1.6,0.5-2.4,0.5H2z M2.6,3.5v13.7h3.5
				c0.8,0,1.5-0.1,2.2-0.4c0.7-0.3,1.3-0.7,1.8-1.2c0.5-0.5,0.9-1.1,1.2-1.9c0.3-0.7,0.4-1.5,0.4-2.4V9.4c0-0.9-0.1-1.6-0.4-2.4
				c-0.3-0.7-0.7-1.3-1.2-1.9S9,4.3,8.3,4C7.6,3.7,6.9,3.5,6.1,3.5H2.6z"/>
			<path class="st1" d="M25.6,3.4c0-0.2,0.1-0.3,0.2-0.4s0.2-0.2,0.4-0.2c0.2,0,0.3,0.1,0.4,0.2c0.1,0.1,0.2,0.2,0.2,0.4
				s-0.1,0.3-0.2,0.4c-0.1,0.1-0.2,0.2-0.4,0.2c-0.2,0-0.3-0.1-0.4-0.2S25.6,3.5,25.6,3.4z M26.4,17.8h-0.5v-11h0.5V17.8z"/>
			<path class="st1" d="M41,17.8h-0.5V2.2H41V17.8z"/>
			<path class="st1" d="M55.7,17.8h-0.5V2.2h0.5V17.8z"/>
			<path class="st1" d="M68.8,12.1c0-0.8,0.1-1.5,0.3-2.2c0.2-0.7,0.6-1.2,1-1.7c0.4-0.5,0.9-0.9,1.5-1.1s1.2-0.4,1.9-0.4
				c0.7,0,1.4,0.1,2,0.4s1.1,0.6,1.5,1.1s0.7,1.1,1,1.7c0.2,0.7,0.4,1.4,0.4,2.2v0.4c0,0.8-0.1,1.5-0.3,2.2c-0.2,0.7-0.6,1.2-1,1.7
				c-0.4,0.5-0.9,0.9-1.5,1.1C75,17.8,74.4,18,73.7,18c-0.7,0-1.4-0.1-2-0.4c-0.6-0.3-1.1-0.6-1.5-1.1c-0.4-0.5-0.8-1.1-1-1.7
				c-0.2-0.7-0.3-1.4-0.3-2.2V12.1z M69.4,12.5c0,0.7,0.1,1.3,0.3,1.9c0.2,0.6,0.5,1.1,0.8,1.6c0.4,0.5,0.8,0.8,1.3,1.1
				c0.5,0.3,1.1,0.4,1.8,0.4c0.7,0,1.3-0.1,1.8-0.4c0.5-0.3,1-0.6,1.3-1.1c0.4-0.5,0.6-1,0.8-1.6s0.3-1.2,0.3-1.9v-0.4
				c0-0.6-0.1-1.3-0.3-1.8c-0.2-0.6-0.5-1.1-0.8-1.6c-0.4-0.5-0.8-0.8-1.3-1.1c-0.5-0.3-1.1-0.4-1.8-0.4c-0.7,0-1.3,0.1-1.8,0.4
				c-0.5,0.3-1,0.6-1.3,1.1c-0.4,0.5-0.6,1-0.8,1.6c-0.2,0.6-0.3,1.2-0.3,1.8V12.5z"/>
			<path class="st1" d="M92.6,8.3c0.3-0.3,0.5-0.6,0.9-0.9c0.3-0.2,0.7-0.4,1.1-0.6c0.4-0.1,0.8-0.2,1.3-0.2c0.6,0,1,0.1,1.5,0.2
				c0.4,0.2,0.8,0.4,1.1,0.7c0.3,0.3,0.5,0.7,0.7,1.3s0.2,1.1,0.2,1.9v7.1h-0.5v-7.1c0-0.7-0.1-1.3-0.2-1.7
				c-0.1-0.5-0.4-0.8-0.6-1.1c-0.3-0.3-0.6-0.5-0.9-0.6c-0.4-0.1-0.8-0.2-1.2-0.2c-0.4,0-0.8,0.1-1.1,0.2s-0.6,0.3-0.9,0.5
				c-0.3,0.2-0.5,0.4-0.7,0.6c-0.2,0.2-0.4,0.5-0.5,0.8s-0.3,0.5-0.4,0.8c-0.1,0.3-0.2,0.5-0.2,0.8v7h-0.5v-11H92v2.6
				C92.2,9,92.4,8.6,92.6,8.3z"/>
			<path class="st1" d="M139.4,17.8h-0.5v-7.3h-9.4v7.3h-0.5V3h0.5v6.9h9.4V3h0.5V17.8z"/>
			<path class="st1" d="M160.6,17.8c-0.1-0.3-0.1-0.6-0.2-0.9c0-0.4,0-0.7,0-1.1c-0.2,0.3-0.4,0.6-0.7,0.8c-0.3,0.3-0.6,0.5-0.9,0.7
				c-0.4,0.2-0.8,0.4-1.2,0.5c-0.4,0.1-0.9,0.2-1.5,0.2c-0.5,0-1-0.1-1.4-0.2c-0.4-0.1-0.8-0.3-1.1-0.6c-0.3-0.3-0.5-0.6-0.7-0.9
				c-0.2-0.4-0.2-0.8-0.2-1.2c0-0.5,0.1-0.9,0.3-1.3c0.2-0.4,0.6-0.8,1-1.1s1-0.5,1.6-0.7c0.6-0.2,1.3-0.2,2.1-0.2h2.6V10
				c0-0.9-0.3-1.6-0.9-2.1c-0.6-0.5-1.4-0.8-2.5-0.8c-0.5,0-1,0.1-1.4,0.2c-0.4,0.1-0.8,0.3-1.1,0.6c-0.3,0.2-0.6,0.5-0.7,0.9
				c-0.2,0.3-0.3,0.7-0.3,1.1l-0.5,0c0-0.4,0.1-0.8,0.3-1.2s0.5-0.7,0.8-1c0.4-0.3,0.8-0.5,1.3-0.7c0.5-0.2,1-0.3,1.6-0.3
				c0.6,0,1.1,0.1,1.6,0.2c0.5,0.1,0.9,0.4,1.2,0.6s0.6,0.6,0.8,1.1c0.2,0.4,0.3,0.9,0.3,1.5v5.5c0,0.2,0,0.4,0,0.6s0,0.4,0.1,0.6
				c0,0.2,0.1,0.4,0.1,0.5c0,0.2,0.1,0.3,0.1,0.4v0.1H160.6z M156.1,17.4c0.5,0,1-0.1,1.5-0.2c0.4-0.1,0.9-0.3,1.2-0.5
				s0.7-0.5,1-0.8c0.3-0.3,0.5-0.7,0.7-1.1v-2.6h-2.6c-0.7,0-1.3,0.1-1.9,0.2c-0.6,0.1-1,0.3-1.4,0.6c-0.4,0.2-0.7,0.5-0.9,0.9
				c-0.2,0.3-0.3,0.7-0.3,1.1c0,0.3,0.1,0.6,0.2,0.9c0.1,0.3,0.3,0.5,0.6,0.8c0.2,0.2,0.5,0.4,0.9,0.5
				C155.3,17.4,155.7,17.4,156.1,17.4z"/>
			<path class="st1" d="M175.5,17.8H175V2.2h0.5V17.8z"/>
			<path class="st1" d="M190.2,17.8h-0.5V2.2h0.5V17.8z"/>
		</g>
	</g>
</g>
<g id="home">
</g>
<g id="NAVBAR">
	<g id="navBar">
	</g>
	<g id="mouseOver_1_">
	</g>
</g>
</svg>
