<?xml version="1.0" encoding="utf-8"?>
<!-- Generator: Adobe Illustrator 19.0.1, SVG Export Plug-In . SVG Version: 6.00 Build 0)  -->
<svg version="1.1" id="Layer_1" xmlns="http://www.w3.org/2000/svg" xmlns:xlink="http://www.w3.org/1999/xlink" x="0px" y="0px"
	 viewBox="0 0 193.8 15.8" style="enable-background:new 0 0 193.8 15.8;" xml:space="preserve">
<style type="text/css">
	.st0{fill:#CDCAC9;}
	.st1{fill:#FFFFFF;}
	.st2{fill:#3399CC;}
	.st3{fill:#CC6632;}
</style>
<g>
	<path class="st2" d="M0,15.6V0.8h4.2c1,0,1.9,0.2,2.7,0.5s1.5,0.8,2.1,1.4c0.6,0.6,1,1.3,1.3,2.2c0.3,0.9,0.5,1.8,0.5,2.9v0.9
		c0,1.1-0.2,2-0.5,2.9c-0.3,0.9-0.8,1.6-1.3,2.2c-0.6,0.6-1.3,1.1-2.1,1.4S5,15.6,4,15.6H0z M1.9,2.4V14h2c0.8,0,1.5-0.1,2.1-0.4
		c0.6-0.3,1.1-0.6,1.5-1.1c0.4-0.5,0.7-1,0.9-1.7s0.3-1.4,0.3-2.2V7.7c0-0.8-0.1-1.6-0.3-2.3S7.9,4.3,7.6,3.8C7.2,3.3,6.7,3,6.1,2.8
		C5.5,2.5,4.9,2.4,4.2,2.4H1.9z"/>
	<path class="st2" d="M23.7,1.7c0-0.3,0.1-0.6,0.3-0.8c0.2-0.2,0.5-0.3,0.8-0.3c0.4,0,0.6,0.1,0.8,0.3c0.2,0.2,0.3,0.5,0.3,0.8
		c0,0.3-0.1,0.6-0.3,0.8c-0.2,0.2-0.5,0.3-0.8,0.3c-0.4,0-0.6-0.1-0.8-0.3C23.8,2.2,23.7,2,23.7,1.7z M25.7,15.6h-1.9v-11h1.9V15.6z
		"/>
	<path class="st2" d="M41.1,15.6h-1.9V0h1.9V15.6z"/>
	<path class="st2" d="M56.6,15.6h-1.9V0h1.9V15.6z"/>
	<path class="st2" d="M69.4,10c0-0.8,0.1-1.5,0.3-2.2c0.2-0.7,0.6-1.3,1-1.8c0.4-0.5,1-0.9,1.6-1.2c0.6-0.3,1.3-0.4,2.1-0.4
		c0.8,0,1.5,0.1,2.1,0.4c0.6,0.3,1.1,0.7,1.6,1.2c0.4,0.5,0.8,1.1,1,1.8c0.2,0.7,0.3,1.4,0.3,2.2v0.2c0,0.8-0.1,1.5-0.3,2.2
		c-0.2,0.7-0.6,1.3-1,1.8c-0.4,0.5-1,0.9-1.6,1.2c-0.6,0.3-1.3,0.4-2.1,0.4c-0.8,0-1.5-0.1-2.1-0.4s-1.1-0.7-1.6-1.2
		c-0.4-0.5-0.8-1.1-1-1.8c-0.2-0.7-0.3-1.4-0.3-2.2V10z M71.3,10.2c0,0.5,0.1,1.1,0.2,1.6c0.1,0.5,0.3,0.9,0.6,1.3
		c0.3,0.4,0.6,0.7,1,0.9c0.4,0.2,0.8,0.3,1.4,0.3c0.5,0,1-0.1,1.4-0.3c0.4-0.2,0.7-0.5,1-0.9c0.3-0.4,0.5-0.8,0.6-1.3
		c0.1-0.5,0.2-1,0.2-1.6V10c0-0.5-0.1-1.1-0.2-1.5c-0.1-0.5-0.3-0.9-0.6-1.3c-0.3-0.4-0.6-0.7-1-0.9c-0.4-0.2-0.8-0.3-1.4-0.3
		c-0.5,0-1,0.1-1.3,0.3c-0.4,0.2-0.7,0.5-1,0.9c-0.3,0.4-0.5,0.8-0.6,1.3c-0.1,0.5-0.2,1-0.2,1.5V10.2z"/>
	<path class="st2" d="M93.9,4.6L94,6c0.4-0.5,0.9-0.9,1.4-1.2c0.6-0.3,1.2-0.4,1.9-0.4c0.5,0,1,0.1,1.4,0.2c0.4,0.1,0.8,0.4,1.1,0.7
		c0.3,0.3,0.5,0.7,0.7,1.2c0.2,0.5,0.2,1.1,0.2,1.8v7.2h-1.9V8.4c0-0.4,0-0.8-0.1-1.1s-0.2-0.5-0.4-0.7c-0.2-0.2-0.4-0.3-0.7-0.4
		S97.1,6,96.7,6c-0.6,0-1.1,0.2-1.6,0.5c-0.5,0.3-0.8,0.8-1.1,1.3v7.8h-1.9v-11H93.9z"/>
	<path class="st2" d="M141.1,15.6h-2V8.7h-7.4v6.8h-1.9V0.8h1.9v6.3h7.4V0.8h2V15.6z"/>
	<path class="st2" d="M161.5,15.6c-0.1-0.1-0.1-0.3-0.2-0.5c0-0.2-0.1-0.4-0.1-0.6c-0.2,0.2-0.4,0.4-0.6,0.5
		c-0.2,0.2-0.5,0.3-0.7,0.4c-0.3,0.1-0.5,0.2-0.8,0.3c-0.3,0.1-0.6,0.1-1,0.1c-0.6,0-1.1-0.1-1.5-0.3s-0.8-0.4-1.2-0.7
		c-0.3-0.3-0.6-0.6-0.7-1s-0.3-0.8-0.3-1.3c0-0.6,0.1-1.1,0.3-1.6c0.2-0.4,0.6-0.8,1-1.1c0.4-0.3,0.9-0.5,1.6-0.7
		c0.6-0.2,1.3-0.2,2-0.2h1.9V8.1c0-0.7-0.2-1.2-0.6-1.6c-0.4-0.4-1-0.6-1.7-0.6c-0.4,0-0.7,0-1,0.1c-0.3,0.1-0.5,0.2-0.7,0.4
		c-0.2,0.2-0.4,0.3-0.5,0.6c-0.1,0.2-0.2,0.4-0.2,0.7h-1.9c0-0.4,0.1-0.8,0.3-1.2c0.2-0.4,0.5-0.7,0.9-1c0.4-0.3,0.8-0.6,1.4-0.8
		c0.5-0.2,1.1-0.3,1.8-0.3c0.6,0,1.1,0.1,1.6,0.2c0.5,0.2,0.9,0.4,1.3,0.7s0.6,0.7,0.8,1.2c0.2,0.5,0.3,1,0.3,1.6v5.1
		c0,0.4,0,0.8,0.1,1.2c0.1,0.4,0.2,0.8,0.3,1.1v0.2H161.5z M158.3,14.1c0.3,0,0.7,0,1-0.1s0.6-0.2,0.8-0.4c0.2-0.2,0.5-0.3,0.6-0.5
		s0.3-0.4,0.4-0.6v-2.2h-1.6c-1.1,0-1.9,0.2-2.5,0.5c-0.6,0.3-0.9,0.8-0.9,1.5c0,0.3,0,0.5,0.1,0.7c0.1,0.2,0.2,0.4,0.4,0.6
		c0.2,0.2,0.4,0.3,0.7,0.4C157.7,14.1,158,14.1,158.3,14.1z"/>
	<path class="st2" d="M178.4,15.6h-1.9V0h1.9V15.6z"/>
	<path class="st2" d="M193.8,15.6h-1.9V0h1.9V15.6z"/>
</g>
</svg>
