<?xml version="1.0" encoding="utf-8"?>
<!-- Generator: Adobe Illustrator 19.0.1, SVG Export Plug-In . SVG Version: 6.00 Build 0)  -->
<svg version="1.1" id="Layer_1" xmlns="http://www.w3.org/2000/svg" xmlns:xlink="http://www.w3.org/1999/xlink" x="0px" y="0px"
	 viewBox="-15.3 221.6 184.5 18.4" style="enable-background:new -15.3 221.6 184.5 18.4;" xml:space="preserve">
<style type="text/css">
	.st0{fill:#FFFFFF;}
	.st1{fill:#3399CC;}
	.st2{fill:#CDCAC9;}
	.st3{fill:#CC6633;}
</style>
<g>
	<path class="st1" d="M-15.3,223.2h3.1c2.5,0,4.5,0.3,6.5,2c1.9,1.6,2.8,3.9,2.8,6.3c0,2.4-0.9,4.6-2.7,6.2c-2,1.8-4,2.1-6.6,2.1
		h-3.1V223.2z M-12.1,238c2,0,3.7-0.3,5.2-1.7c1.4-1.3,2.1-3,2.1-4.9c0-1.9-0.7-3.7-2.2-5c-1.5-1.3-3.2-1.6-5.1-1.6h-1.3V238H-12.1z
		"/>
	<path class="st1" d="M10.9,225.5c0,0.7-0.6,1.3-1.3,1.3s-1.3-0.5-1.3-1.3c0-0.7,0.6-1.3,1.3-1.3S10.9,224.8,10.9,225.5z
		 M10.5,239.8H8.7v-10.3h1.8V239.8z"/>
	<path class="st1" d="M24.7,239.8h-1.8v-18.2h1.8V239.8z"/>
	<path class="st1" d="M38.5,239.8h-1.8v-18.2h1.8V239.8z"/>
	<path class="st1" d="M49.6,234.6c0-3,2.4-5.5,5.4-5.5c3,0,5.4,2.4,5.4,5.5c0,3-2.4,5.4-5.4,5.4C52,240,49.6,237.6,49.6,234.6z
		 M51.4,234.6c0,2.1,1.5,3.8,3.7,3.8c2.2,0,3.7-1.7,3.7-3.8c0-2.1-1.5-3.8-3.7-3.8C52.9,230.8,51.4,232.5,51.4,234.6z"/>
	<path class="st1" d="M73.5,230.7L73.5,230.7c0.8-1,1.7-1.5,3-1.5c2.9,0,3.5,2.1,3.5,4.5v6.1h-1.8v-5.8c0-1.7-0.1-3.2-2.2-3.2
		c-2.4,0-2.6,2.2-2.6,4.1v4.9h-1.8v-10.3h1.8V230.7z"/>
	<path class="st1" d="M118.1,229.9v-6.7h1.8v16.6h-1.8v-8.1h-8.5v8.1h-1.8v-16.6h1.8v6.7H118.1z"/>
	<path class="st1" d="M141.6,239.8h-1.8v-1.4h0c-0.9,1.1-2.1,1.7-3.6,1.7c-3,0-5-2.6-5-5.4c0-2.9,1.9-5.5,5-5.5
		c1.4,0,2.7,0.7,3.5,1.8h0v-1.5h1.8V239.8z M133.1,234.5c0,2,1.2,3.9,3.4,3.9c2.3,0,3.5-1.8,3.5-3.9c0-2.1-1.3-3.7-3.5-3.7
		C134.4,230.8,133.1,232.5,133.1,234.5z"/>
	<path class="st1" d="M155.4,239.8h-1.8v-18.2h1.8V239.8z"/>
	<path class="st1" d="M169.2,239.8h-1.8v-18.2h1.8V239.8z"/>
</g>
</svg>
