<?xml version="1.0" encoding="utf-8"?>
<!-- Generator: Adobe Illustrator 19.0.1, SVG Export Plug-In . SVG Version: 6.00 Build 0)  -->
<svg version="1.1" id="Layer_1" xmlns="http://www.w3.org/2000/svg" xmlns:xlink="http://www.w3.org/1999/xlink" x="0px" y="0px"
	 viewBox="0 0 360.4 19.9" style="enable-background:new 0 0 360.4 19.9;" xml:space="preserve">
<style type="text/css">
	.st0{fill:#CDCAC9;}
	.st1{fill:#FFFFFF;}
	.st2{fill:#0070AF;}
	.st3{fill:#3399CC;}
	.st4{fill:#CC6632;}
</style>
<g>
	<path class="st2" d="M4.3,10.9l0.3,1.9L5,11.1L7.9,0.8h1.6l2.8,10.3l0.4,1.8l0.3-2l2.3-10.1h2l-3.6,14.8H12L9,4.8L8.7,3.7L8.5,4.8
		L5.3,15.6H3.6L0,0.8h1.9L4.3,10.9z"/>
	<path class="st2" d="M33.8,15.8c-0.8,0-1.5-0.1-2.1-0.4s-1.1-0.6-1.6-1.1c-0.4-0.5-0.8-1-1-1.7c-0.2-0.6-0.4-1.4-0.4-2.1V10
		c0-0.9,0.1-1.7,0.4-2.4c0.3-0.7,0.6-1.3,1.1-1.8c0.4-0.5,1-0.8,1.5-1.1c0.6-0.3,1.2-0.4,1.8-0.4c0.8,0,1.5,0.1,2,0.4
		c0.6,0.3,1,0.7,1.4,1.1c0.4,0.5,0.6,1,0.8,1.7s0.3,1.4,0.3,2.1v0.8h-7.4c0,0.5,0.1,1,0.2,1.4c0.2,0.4,0.4,0.8,0.6,1.1
		c0.3,0.3,0.6,0.6,1,0.8c0.4,0.2,0.8,0.3,1.3,0.3c0.7,0,1.2-0.1,1.7-0.4c0.5-0.3,0.9-0.6,1.2-1.1l1.1,0.9c-0.2,0.3-0.4,0.5-0.6,0.8
		c-0.3,0.3-0.5,0.5-0.9,0.7s-0.7,0.4-1.2,0.5C34.9,15.7,34.4,15.8,33.8,15.8z M33.6,5.9c-0.4,0-0.7,0.1-1,0.2
		c-0.3,0.1-0.6,0.3-0.9,0.6c-0.2,0.3-0.5,0.6-0.6,1c-0.2,0.4-0.3,0.8-0.3,1.3h5.5V8.9c0-0.4-0.1-0.7-0.2-1.1c-0.1-0.4-0.2-0.7-0.5-1
		c-0.2-0.3-0.5-0.5-0.8-0.7S34.1,5.9,33.6,5.9z"/>
	<path class="st2" d="M57,12.7c0-0.2,0-0.4-0.1-0.6c-0.1-0.2-0.2-0.3-0.4-0.5c-0.2-0.2-0.4-0.3-0.8-0.4c-0.3-0.1-0.8-0.3-1.3-0.4
		c-0.6-0.1-1.2-0.3-1.6-0.5c-0.5-0.2-0.9-0.4-1.2-0.6c-0.3-0.2-0.6-0.5-0.8-0.9c-0.2-0.3-0.3-0.7-0.3-1.2c0-0.4,0.1-0.8,0.3-1.2
		c0.2-0.4,0.5-0.7,0.8-1C52,5.1,52.5,4.8,53,4.7c0.5-0.2,1.1-0.3,1.7-0.3c0.7,0,1.2,0.1,1.8,0.3c0.5,0.2,1,0.4,1.3,0.7
		c0.4,0.3,0.6,0.7,0.8,1.1c0.2,0.4,0.3,0.9,0.3,1.3h-1.9c0-0.2-0.1-0.4-0.2-0.7c-0.1-0.2-0.3-0.4-0.4-0.6c-0.2-0.2-0.4-0.3-0.7-0.4
		c-0.3-0.1-0.6-0.2-1-0.2c-0.4,0-0.7,0-1,0.1c-0.3,0.1-0.5,0.2-0.7,0.4S52.7,6.8,52.6,7s-0.1,0.4-0.1,0.6c0,0.2,0,0.4,0.1,0.5
		c0.1,0.2,0.2,0.3,0.4,0.4c0.2,0.1,0.4,0.3,0.8,0.4C54,9,54.5,9.1,55,9.2c0.7,0.2,1.2,0.3,1.7,0.5c0.5,0.2,0.9,0.4,1.2,0.7
		c0.3,0.3,0.6,0.6,0.7,0.9c0.2,0.3,0.2,0.7,0.2,1.2c0,0.5-0.1,0.9-0.3,1.3c-0.2,0.4-0.5,0.7-0.9,1c-0.4,0.3-0.8,0.5-1.3,0.7
		c-0.5,0.2-1.1,0.2-1.7,0.2c-0.7,0-1.4-0.1-1.9-0.3c-0.6-0.2-1-0.5-1.4-0.8c-0.4-0.3-0.7-0.7-0.9-1.1c-0.2-0.4-0.3-0.9-0.3-1.3h1.9
		c0,0.4,0.1,0.7,0.3,1s0.4,0.5,0.6,0.6c0.2,0.2,0.5,0.3,0.8,0.3s0.6,0.1,0.9,0.1c0.4,0,0.7,0,1-0.1s0.5-0.2,0.7-0.3
		c0.2-0.1,0.3-0.3,0.5-0.5C57,13.1,57,12.9,57,12.7z"/>
	<path class="st2" d="M74.3,1.9v2.7h2v1.4h-2v6.8c0,0.3,0,0.5,0.1,0.7s0.2,0.3,0.3,0.4s0.2,0.2,0.4,0.2c0.1,0,0.3,0,0.5,0
		c0.2,0,0.3,0,0.5,0c0.2,0,0.3-0.1,0.4-0.1v1.5c-0.1,0-0.3,0.1-0.6,0.1c-0.2,0-0.5,0.1-0.9,0.1c-0.3,0-0.7,0-1-0.1s-0.6-0.3-0.8-0.5
		s-0.4-0.5-0.5-0.9c-0.1-0.4-0.2-0.8-0.2-1.4V6.1h-2V4.6h2V1.9H74.3z"/>
	<path class="st2" d="M113.1,8.7h-6.4V14h7.4v1.6h-9.4V0.8h9.3v1.6h-7.3v4.7h6.4V8.7z"/>
	<path class="st2" d="M126,10c0-0.8,0.1-1.6,0.3-2.3c0.2-0.7,0.5-1.3,0.9-1.8c0.4-0.5,0.8-0.9,1.4-1.1c0.5-0.3,1.1-0.4,1.8-0.4
		c0.7,0,1.3,0.1,1.8,0.4s1,0.6,1.3,1.1l0.1-1.2h1.7v10.7c0,0.7-0.1,1.4-0.3,1.9c-0.2,0.6-0.5,1-1,1.4s-0.9,0.7-1.5,0.9
		c-0.6,0.2-1.2,0.3-1.9,0.3c-0.3,0-0.6,0-1-0.1c-0.4-0.1-0.7-0.2-1.1-0.3s-0.7-0.3-1.1-0.6c-0.3-0.2-0.6-0.5-0.9-0.9l1-1.1
		c0.2,0.3,0.5,0.5,0.7,0.7s0.5,0.3,0.7,0.5c0.2,0.1,0.5,0.2,0.8,0.2c0.3,0.1,0.5,0.1,0.8,0.1c0.4,0,0.8-0.1,1.2-0.2
		c0.4-0.1,0.7-0.3,0.9-0.6s0.4-0.6,0.6-0.9c0.1-0.4,0.2-0.8,0.2-1.3v-1c-0.4,0.4-0.8,0.7-1.3,1c-0.5,0.2-1.1,0.3-1.8,0.3
		c-0.7,0-1.2-0.1-1.8-0.4s-1-0.7-1.4-1.2c-0.4-0.5-0.7-1.1-0.9-1.8c-0.2-0.7-0.3-1.4-0.3-2.2V10z M127.8,10.2c0,0.5,0.1,1.1,0.2,1.5
		c0.1,0.5,0.3,0.9,0.5,1.3c0.2,0.4,0.5,0.6,0.9,0.9c0.4,0.2,0.8,0.3,1.3,0.3c0.3,0,0.6,0,0.9-0.1c0.3-0.1,0.5-0.2,0.7-0.3
		s0.4-0.3,0.6-0.5c0.2-0.2,0.3-0.4,0.4-0.6v-5c-0.1-0.2-0.3-0.4-0.4-0.6c-0.2-0.2-0.3-0.4-0.6-0.5c-0.2-0.1-0.5-0.3-0.7-0.3
		C131.4,6,131.1,6,130.7,6c-0.5,0-1,0.1-1.3,0.3c-0.4,0.2-0.7,0.5-0.9,0.9c-0.2,0.4-0.4,0.8-0.5,1.3s-0.2,1-0.2,1.5V10.2z"/>
	<path class="st2" d="M148,10c0-0.8,0.1-1.6,0.3-2.3c0.2-0.7,0.5-1.3,0.9-1.8c0.4-0.5,0.8-0.9,1.4-1.1c0.5-0.3,1.1-0.4,1.8-0.4
		c0.7,0,1.3,0.1,1.8,0.4s1,0.6,1.3,1.1l0.1-1.2h1.7v10.7c0,0.7-0.1,1.4-0.3,1.9c-0.2,0.6-0.5,1-1,1.4s-0.9,0.7-1.5,0.9
		c-0.6,0.2-1.2,0.3-1.9,0.3c-0.3,0-0.6,0-1-0.1c-0.4-0.1-0.7-0.2-1.1-0.3s-0.7-0.3-1.1-0.6c-0.3-0.2-0.6-0.5-0.9-0.9l1-1.1
		c0.2,0.3,0.5,0.5,0.7,0.7s0.5,0.3,0.7,0.5c0.2,0.1,0.5,0.2,0.8,0.2c0.3,0.1,0.5,0.1,0.8,0.1c0.4,0,0.8-0.1,1.2-0.2
		c0.4-0.1,0.7-0.3,0.9-0.6s0.4-0.6,0.6-0.9c0.1-0.4,0.2-0.8,0.2-1.3v-1c-0.4,0.4-0.8,0.7-1.3,1c-0.5,0.2-1.1,0.3-1.8,0.3
		c-0.7,0-1.2-0.1-1.8-0.4s-1-0.7-1.4-1.2c-0.4-0.5-0.7-1.1-0.9-1.8c-0.2-0.7-0.3-1.4-0.3-2.2V10z M149.9,10.2c0,0.5,0.1,1.1,0.2,1.5
		c0.1,0.5,0.3,0.9,0.5,1.3c0.2,0.4,0.5,0.6,0.9,0.9c0.4,0.2,0.8,0.3,1.3,0.3c0.3,0,0.6,0,0.9-0.1c0.3-0.1,0.5-0.2,0.7-0.3
		s0.4-0.3,0.6-0.5c0.2-0.2,0.3-0.4,0.4-0.6v-5c-0.1-0.2-0.3-0.4-0.4-0.6c-0.2-0.2-0.3-0.4-0.6-0.5c-0.2-0.1-0.5-0.3-0.7-0.3
		C153.4,6,153.1,6,152.8,6c-0.5,0-1,0.1-1.3,0.3c-0.4,0.2-0.7,0.5-0.9,0.9c-0.2,0.4-0.4,0.8-0.5,1.3s-0.2,1-0.2,1.5V10.2z"/>
	<path class="st2" d="M197.1,10.9c-0.1,0.7-0.3,1.3-0.5,1.9c-0.3,0.6-0.6,1.1-1.1,1.5c-0.5,0.4-1,0.8-1.7,1
		c-0.7,0.2-1.4,0.4-2.3,0.4c-0.9,0-1.7-0.2-2.4-0.5c-0.7-0.3-1.3-0.8-1.8-1.4c-0.5-0.6-0.9-1.3-1.2-2.2c-0.3-0.8-0.4-1.8-0.4-2.8
		V7.5c0-1,0.1-2,0.4-2.8c0.3-0.8,0.7-1.6,1.2-2.2c0.5-0.6,1.1-1.1,1.9-1.4c0.7-0.3,1.6-0.5,2.5-0.5c0.8,0,1.6,0.1,2.2,0.4
		c0.6,0.2,1.2,0.6,1.6,1c0.4,0.4,0.8,1,1.1,1.6s0.4,1.3,0.5,2h-2c-0.1-0.5-0.2-1-0.3-1.4s-0.4-0.8-0.6-1.1c-0.3-0.3-0.6-0.5-1-0.7
		c-0.4-0.2-0.9-0.2-1.5-0.2c-0.7,0-1.2,0.1-1.7,0.4c-0.5,0.3-0.9,0.6-1.2,1.1c-0.3,0.5-0.6,1-0.8,1.7c-0.2,0.6-0.3,1.4-0.3,2.1v1.5
		c0,0.7,0.1,1.4,0.2,2c0.2,0.6,0.4,1.2,0.7,1.7s0.7,0.9,1.2,1.1s1,0.4,1.7,0.4c0.6,0,1.1-0.1,1.6-0.2c0.4-0.1,0.8-0.4,1.1-0.6
		s0.5-0.6,0.7-1c0.2-0.4,0.3-0.9,0.4-1.4H197.1z"/>
	<path class="st2" d="M211.7,5.9c0.4-0.5,0.9-0.9,1.4-1.1c0.5-0.3,1.2-0.4,1.8-0.4c0.5,0,1,0.1,1.4,0.2s0.8,0.4,1.1,0.7
		c0.3,0.3,0.5,0.7,0.7,1.2c0.2,0.5,0.2,1.1,0.2,1.8v7.2h-1.9V8.4c0-0.4,0-0.8-0.1-1.1s-0.2-0.5-0.4-0.7c-0.2-0.2-0.4-0.3-0.7-0.4
		S214.8,6,214.4,6c-0.6,0-1.1,0.2-1.6,0.5c-0.5,0.3-0.8,0.8-1.1,1.3v7.8h-1.9V0h1.9V5.9z"/>
	<path class="st2" d="M231.2,10c0-0.8,0.1-1.5,0.3-2.2c0.2-0.7,0.6-1.3,1-1.8c0.4-0.5,1-0.9,1.6-1.2c0.6-0.3,1.3-0.4,2.1-0.4
		c0.8,0,1.5,0.1,2.1,0.4c0.6,0.3,1.1,0.7,1.6,1.2c0.4,0.5,0.8,1.1,1,1.8c0.2,0.7,0.3,1.4,0.3,2.2v0.2c0,0.8-0.1,1.5-0.3,2.2
		c-0.2,0.7-0.6,1.3-1,1.8c-0.4,0.5-1,0.9-1.6,1.2c-0.6,0.3-1.3,0.4-2.1,0.4s-1.5-0.1-2.1-0.4c-0.6-0.3-1.1-0.7-1.6-1.2
		c-0.4-0.5-0.8-1.1-1-1.8c-0.2-0.7-0.3-1.4-0.3-2.2V10z M233.1,10.2c0,0.5,0.1,1.1,0.2,1.6c0.1,0.5,0.3,0.9,0.6,1.3
		c0.3,0.4,0.6,0.7,1,0.9c0.4,0.2,0.8,0.3,1.4,0.3c0.5,0,1-0.1,1.4-0.3c0.4-0.2,0.7-0.5,1-0.9c0.3-0.4,0.5-0.8,0.6-1.3
		c0.1-0.5,0.2-1,0.2-1.6V10c0-0.5-0.1-1.1-0.2-1.5c-0.1-0.5-0.3-0.9-0.6-1.3c-0.3-0.4-0.6-0.7-1-0.9c-0.4-0.2-0.8-0.3-1.4-0.3
		c-0.5,0-1,0.1-1.3,0.3c-0.4,0.2-0.7,0.5-1,0.9c-0.3,0.4-0.5,0.8-0.6,1.3c-0.1,0.5-0.2,1-0.2,1.5V10.2z"/>
	<path class="st2" d="M258.3,14.2c0.3,0,0.6-0.1,1-0.2c0.3-0.1,0.6-0.3,0.8-0.4c0.2-0.2,0.4-0.4,0.6-0.7c0.1-0.3,0.2-0.5,0.3-0.8
		h1.8c0,0.5-0.2,1-0.4,1.4c-0.2,0.4-0.6,0.8-0.9,1.2c-0.4,0.3-0.8,0.6-1.4,0.8c-0.5,0.2-1.1,0.3-1.6,0.3c-0.8,0-1.5-0.1-2.2-0.4
		s-1.1-0.7-1.5-1.2s-0.7-1.1-0.9-1.7c-0.2-0.7-0.3-1.4-0.3-2.1V9.9c0-0.7,0.1-1.4,0.3-2.1s0.5-1.2,0.9-1.7s0.9-0.9,1.5-1.2
		s1.3-0.4,2.1-0.4c0.6,0,1.2,0.1,1.7,0.3c0.5,0.2,1,0.5,1.4,0.8s0.7,0.8,0.9,1.3c0.2,0.5,0.3,1,0.4,1.6h-1.8c0-0.3-0.1-0.7-0.2-0.9
		s-0.3-0.6-0.5-0.8c-0.2-0.2-0.5-0.4-0.8-0.5c-0.3-0.1-0.7-0.2-1-0.2c-0.6,0-1.1,0.1-1.4,0.3s-0.7,0.5-0.9,0.9s-0.4,0.8-0.5,1.3
		s-0.1,0.9-0.1,1.4v0.4c0,0.5,0,1,0.1,1.4s0.3,0.9,0.5,1.3c0.2,0.4,0.5,0.7,0.9,0.9C257.2,14.1,257.7,14.2,258.3,14.2z"/>
	<path class="st2" d="M274.6,10c0-0.8,0.1-1.5,0.3-2.2c0.2-0.7,0.6-1.3,1-1.8c0.4-0.5,1-0.9,1.6-1.2c0.6-0.3,1.3-0.4,2.1-0.4
		c0.8,0,1.5,0.1,2.1,0.4c0.6,0.3,1.1,0.7,1.6,1.2c0.4,0.5,0.8,1.1,1,1.8c0.2,0.7,0.3,1.4,0.3,2.2v0.2c0,0.8-0.1,1.5-0.3,2.2
		c-0.2,0.7-0.6,1.3-1,1.8c-0.4,0.5-1,0.9-1.6,1.2s-1.3,0.4-2.1,0.4c-0.8,0-1.5-0.1-2.1-0.4c-0.6-0.3-1.1-0.7-1.6-1.2
		c-0.4-0.5-0.8-1.1-1-1.8c-0.2-0.7-0.3-1.4-0.3-2.2V10z M276.5,10.2c0,0.5,0.1,1.1,0.2,1.6c0.1,0.5,0.3,0.9,0.6,1.3
		c0.3,0.4,0.6,0.7,1,0.9c0.4,0.2,0.8,0.3,1.4,0.3c0.5,0,1-0.1,1.4-0.3c0.4-0.2,0.7-0.5,1-0.9c0.3-0.4,0.5-0.8,0.6-1.3
		c0.1-0.5,0.2-1,0.2-1.6V10c0-0.5-0.1-1.1-0.2-1.5c-0.1-0.5-0.3-0.9-0.6-1.3c-0.3-0.4-0.6-0.7-1-0.9c-0.4-0.2-0.8-0.3-1.4-0.3
		c-0.5,0-1,0.1-1.3,0.3c-0.4,0.2-0.7,0.5-1,0.9c-0.3,0.4-0.5,0.8-0.6,1.3c-0.1,0.5-0.2,1-0.2,1.5V10.2z"/>
	<path class="st2" d="M299.4,15.6h-1.9V0h1.9V15.6z"/>
	<path class="st2" d="M319.5,15.6c-0.1-0.1-0.1-0.3-0.2-0.5c0-0.2-0.1-0.4-0.1-0.6c-0.2,0.2-0.4,0.4-0.6,0.5
		c-0.2,0.2-0.5,0.3-0.7,0.4c-0.3,0.1-0.5,0.2-0.8,0.3c-0.3,0.1-0.6,0.1-1,0.1c-0.6,0-1.1-0.1-1.5-0.3s-0.8-0.4-1.2-0.7
		c-0.3-0.3-0.6-0.6-0.7-1s-0.3-0.8-0.3-1.3c0-0.6,0.1-1.1,0.3-1.6s0.6-0.8,1-1.1c0.4-0.3,0.9-0.5,1.6-0.7s1.3-0.2,2-0.2h1.9V8.1
		c0-0.7-0.2-1.2-0.6-1.6c-0.4-0.4-1-0.6-1.7-0.6c-0.4,0-0.7,0-1,0.1c-0.3,0.1-0.5,0.2-0.7,0.4c-0.2,0.2-0.4,0.3-0.5,0.6
		c-0.1,0.2-0.2,0.4-0.2,0.7h-1.9c0-0.4,0.1-0.8,0.3-1.2c0.2-0.4,0.5-0.7,0.9-1c0.4-0.3,0.8-0.6,1.4-0.8c0.5-0.2,1.1-0.3,1.8-0.3
		c0.6,0,1.1,0.1,1.6,0.2c0.5,0.2,0.9,0.4,1.3,0.7s0.6,0.7,0.8,1.2c0.2,0.5,0.3,1,0.3,1.6v5.1c0,0.4,0,0.8,0.1,1.2
		c0.1,0.4,0.2,0.8,0.3,1.1v0.2H319.5z M316.4,14.1c0.3,0,0.7,0,1-0.1c0.3-0.1,0.6-0.2,0.8-0.4c0.2-0.2,0.5-0.3,0.6-0.5
		s0.3-0.4,0.4-0.6v-2.2h-1.6c-1.1,0-1.9,0.2-2.5,0.5c-0.6,0.3-0.9,0.8-0.9,1.5c0,0.3,0,0.5,0.1,0.7s0.2,0.4,0.4,0.6
		c0.2,0.2,0.4,0.3,0.7,0.4C315.8,14.1,316.1,14.1,316.4,14.1z"/>
	<path class="st2" d="M337,1.9v2.7h2v1.4h-2v6.8c0,0.3,0,0.5,0.1,0.7s0.2,0.3,0.3,0.4s0.2,0.2,0.4,0.2c0.1,0,0.3,0,0.5,0
		c0.2,0,0.3,0,0.5,0c0.2,0,0.3-0.1,0.4-0.1v1.5c-0.1,0-0.3,0.1-0.6,0.1c-0.2,0-0.5,0.1-0.9,0.1c-0.3,0-0.7,0-1-0.1s-0.6-0.3-0.8-0.5
		s-0.4-0.5-0.5-0.9c-0.1-0.4-0.2-0.8-0.2-1.4V6.1h-2V4.6h2V1.9H337z"/>
	<path class="st2" d="M356.1,15.8c-0.8,0-1.5-0.1-2.1-0.4s-1.1-0.6-1.6-1.1s-0.8-1-1-1.7s-0.4-1.4-0.4-2.1V10c0-0.9,0.1-1.7,0.4-2.4
		c0.3-0.7,0.6-1.3,1.1-1.8s1-0.8,1.5-1.1c0.6-0.3,1.2-0.4,1.8-0.4c0.8,0,1.5,0.1,2,0.4s1,0.7,1.4,1.1c0.4,0.5,0.6,1,0.8,1.7
		s0.3,1.4,0.3,2.1v0.8H353c0,0.5,0.1,1,0.2,1.4c0.2,0.4,0.4,0.8,0.6,1.1c0.3,0.3,0.6,0.6,1,0.8c0.4,0.2,0.8,0.3,1.3,0.3
		c0.7,0,1.2-0.1,1.7-0.4c0.5-0.3,0.9-0.6,1.2-1.1l1.1,0.9c-0.2,0.3-0.4,0.5-0.6,0.8c-0.3,0.3-0.5,0.5-0.9,0.7
		c-0.3,0.2-0.7,0.4-1.2,0.5C357.2,15.7,356.7,15.8,356.1,15.8z M355.9,5.9c-0.4,0-0.7,0.1-1,0.2s-0.6,0.3-0.9,0.6
		c-0.2,0.3-0.5,0.6-0.6,1c-0.2,0.4-0.3,0.8-0.3,1.3h5.5V8.9c0-0.4-0.1-0.7-0.2-1.1s-0.2-0.7-0.5-1c-0.2-0.3-0.5-0.5-0.8-0.7
		S356.4,5.9,355.9,5.9z"/>
</g>
</svg>
