<?xml version="1.0" encoding="utf-8"?>
<!-- Generator: Adobe Illustrator 19.0.1, SVG Export Plug-In . SVG Version: 6.00 Build 0)  -->
<svg version="1.1" id="Layer_1" xmlns="http://www.w3.org/2000/svg" xmlns:xlink="http://www.w3.org/1999/xlink" x="0px" y="0px"
	 viewBox="0 0 328.3 20" style="enable-background:new 0 0 328.3 20;" xml:space="preserve">
<style type="text/css">
	.st0{fill:#CDCAC9;}
	.st1{fill:#FFFFFF;}
	.st2{fill:#3399CC;}
	.st3{fill:#CC6632;}
</style>
<g>
	<path class="st1" d="M11.4,13.6c-0.1,0.2-0.3,0.4-0.6,0.7s-0.6,0.5-1,0.7c-0.4,0.2-0.9,0.4-1.5,0.5S7,15.8,6.2,15.8
		c-0.9,0-1.7-0.2-2.5-0.5s-1.4-0.8-1.9-1.4c-0.5-0.6-1-1.3-1.3-2.2C0.2,10.9,0,9.9,0,8.8V7.6c0-1.1,0.1-2.1,0.4-3
		C0.7,3.8,1,3.1,1.5,2.5s1.1-1.1,1.9-1.4S5,0.6,5.9,0.6c0.8,0,1.6,0.1,2.2,0.3c0.6,0.2,1.2,0.5,1.6,0.9c0.4,0.4,0.8,0.9,1.1,1.4
		c0.3,0.6,0.4,1.2,0.5,1.8H9.4C9.4,4.7,9.2,4.4,9.1,4C8.9,3.7,8.7,3.3,8.4,3.1c-0.3-0.3-0.6-0.5-1-0.6C7,2.3,6.5,2.2,5.9,2.2
		c-0.7,0-1.3,0.1-1.8,0.4S3.2,3.2,2.9,3.7c-0.3,0.5-0.6,1-0.7,1.7S2,6.8,2,7.6v1.2c0,0.9,0.1,1.6,0.3,2.3c0.2,0.7,0.5,1.2,0.9,1.7
		c0.4,0.5,0.8,0.8,1.3,1.1c0.5,0.2,1.1,0.4,1.7,0.4c0.5,0,1,0,1.3-0.1s0.7-0.2,0.9-0.3c0.3-0.1,0.5-0.2,0.6-0.3
		c0.2-0.1,0.3-0.2,0.4-0.3V9.8H6V8.2h5.4V13.6z"/>
	<path class="st1" d="M30,6.3c-0.2,0-0.3,0-0.5-0.1c-0.1,0-0.3,0-0.5,0c-0.6,0-1.2,0.1-1.6,0.4c-0.4,0.3-0.7,0.7-0.9,1.1v7.8h-1.9
		v-11h1.8l0,1.3c0.3-0.5,0.6-0.8,1.1-1.1c0.4-0.3,0.9-0.4,1.6-0.4c0.1,0,0.3,0,0.5,0s0.3,0.1,0.4,0.1V6.3z"/>
	<path class="st1" d="M48.5,15.6c-0.1-0.1-0.1-0.3-0.2-0.5s-0.1-0.4-0.1-0.6c-0.2,0.2-0.4,0.4-0.6,0.5c-0.2,0.2-0.5,0.3-0.7,0.4
		s-0.5,0.2-0.8,0.3c-0.3,0.1-0.6,0.1-1,0.1c-0.6,0-1.1-0.1-1.5-0.3s-0.8-0.4-1.2-0.7c-0.3-0.3-0.6-0.6-0.7-1s-0.3-0.8-0.3-1.3
		c0-0.6,0.1-1.1,0.3-1.6c0.2-0.4,0.6-0.8,1-1.1s0.9-0.5,1.6-0.7c0.6-0.2,1.3-0.2,2-0.2h1.9V8.1c0-0.7-0.2-1.2-0.6-1.6
		s-1-0.6-1.7-0.6c-0.4,0-0.7,0-1,0.1c-0.3,0.1-0.5,0.2-0.7,0.4c-0.2,0.2-0.4,0.3-0.5,0.6c-0.1,0.2-0.2,0.4-0.2,0.7h-1.9
		c0-0.4,0.1-0.8,0.3-1.2c0.2-0.4,0.5-0.7,0.9-1c0.4-0.3,0.8-0.6,1.4-0.8c0.5-0.2,1.1-0.3,1.8-0.3c0.6,0,1.1,0.1,1.6,0.2
		s0.9,0.4,1.3,0.7c0.4,0.3,0.6,0.7,0.8,1.2c0.2,0.5,0.3,1,0.3,1.6v5.1c0,0.4,0,0.8,0.1,1.2c0.1,0.4,0.2,0.8,0.3,1.1v0.2H48.5z
		 M45.4,14.1c0.3,0,0.7,0,1-0.1s0.6-0.2,0.8-0.4c0.2-0.2,0.5-0.3,0.6-0.5c0.2-0.2,0.3-0.4,0.4-0.6v-2.2h-1.6c-1.1,0-1.9,0.2-2.5,0.5
		c-0.6,0.3-0.9,0.8-0.9,1.5c0,0.3,0,0.5,0.1,0.7c0.1,0.2,0.2,0.4,0.4,0.6c0.2,0.2,0.4,0.3,0.7,0.4C44.7,14.1,45,14.1,45.4,14.1z"/>
	<path class="st1" d="M67.8,14.2c0.3,0,0.6-0.1,1-0.2c0.3-0.1,0.6-0.3,0.8-0.4c0.2-0.2,0.4-0.4,0.6-0.7c0.1-0.3,0.2-0.5,0.3-0.8h1.8
		c0,0.5-0.2,1-0.4,1.4c-0.2,0.4-0.6,0.8-0.9,1.2c-0.4,0.3-0.8,0.6-1.4,0.8s-1.1,0.3-1.6,0.3c-0.8,0-1.5-0.1-2.2-0.4
		c-0.6-0.3-1.1-0.7-1.5-1.2s-0.7-1.1-0.9-1.7c-0.2-0.7-0.3-1.4-0.3-2.1V9.9c0-0.7,0.1-1.4,0.3-2.1s0.5-1.2,0.9-1.7s0.9-0.9,1.5-1.2
		c0.6-0.3,1.3-0.4,2.1-0.4c0.6,0,1.2,0.1,1.7,0.3c0.5,0.2,1,0.5,1.4,0.8s0.7,0.8,0.9,1.3c0.2,0.5,0.3,1,0.4,1.6h-1.8
		c0-0.3-0.1-0.7-0.2-0.9s-0.3-0.6-0.5-0.8c-0.2-0.2-0.5-0.4-0.8-0.5c-0.3-0.1-0.7-0.2-1-0.2c-0.6,0-1.1,0.1-1.4,0.3
		s-0.7,0.5-0.9,0.9C65.2,7.6,65,8,64.9,8.5s-0.1,0.9-0.1,1.4v0.4c0,0.5,0,1,0.1,1.4s0.3,0.9,0.5,1.3c0.2,0.4,0.5,0.7,0.9,0.9
		C66.7,14.1,67.2,14.2,67.8,14.2z"/>
	<path class="st1" d="M89.2,15.8c-0.8,0-1.5-0.1-2.1-0.4s-1.1-0.6-1.6-1.1c-0.4-0.5-0.8-1-1-1.7c-0.2-0.6-0.4-1.4-0.4-2.1V10
		c0-0.9,0.1-1.7,0.4-2.4c0.3-0.7,0.6-1.3,1.1-1.8c0.4-0.5,1-0.8,1.5-1.1c0.6-0.3,1.2-0.4,1.8-0.4c0.8,0,1.5,0.1,2,0.4
		c0.6,0.3,1,0.7,1.4,1.1c0.4,0.5,0.6,1,0.8,1.7s0.3,1.4,0.3,2.1v0.8H86c0,0.5,0.1,1,0.2,1.4c0.2,0.4,0.4,0.8,0.6,1.1
		c0.3,0.3,0.6,0.6,1,0.8c0.4,0.2,0.8,0.3,1.3,0.3c0.7,0,1.2-0.1,1.7-0.4c0.5-0.3,0.9-0.6,1.2-1.1l1.1,0.9c-0.2,0.3-0.4,0.5-0.6,0.8
		c-0.3,0.3-0.5,0.5-0.9,0.7s-0.7,0.4-1.2,0.5C90.2,15.7,89.7,15.8,89.2,15.8z M88.9,5.9c-0.4,0-0.7,0.1-1,0.2
		c-0.3,0.1-0.6,0.3-0.9,0.6c-0.2,0.3-0.5,0.6-0.6,1c-0.2,0.4-0.3,0.8-0.3,1.3h5.5V8.9c0-0.4-0.1-0.7-0.2-1.1c-0.1-0.4-0.2-0.7-0.5-1
		c-0.2-0.3-0.5-0.5-0.8-0.7S89.4,5.9,88.9,5.9z"/>
	<path class="st1" d="M132.7,10.9c-0.1,0.7-0.3,1.3-0.5,1.9c-0.3,0.6-0.6,1.1-1.1,1.5c-0.5,0.4-1,0.8-1.7,1
		c-0.7,0.2-1.4,0.4-2.3,0.4c-0.9,0-1.7-0.2-2.4-0.5c-0.7-0.3-1.3-0.8-1.8-1.4c-0.5-0.6-0.9-1.3-1.2-2.2c-0.3-0.8-0.4-1.8-0.4-2.8
		V7.5c0-1,0.1-2,0.4-2.8c0.3-0.8,0.7-1.6,1.2-2.2c0.5-0.6,1.1-1.1,1.9-1.4c0.7-0.3,1.6-0.5,2.5-0.5c0.8,0,1.6,0.1,2.2,0.4
		c0.6,0.2,1.2,0.6,1.6,1c0.4,0.4,0.8,1,1.1,1.6c0.3,0.6,0.4,1.3,0.5,2h-2c-0.1-0.5-0.2-1-0.3-1.4c-0.2-0.4-0.4-0.8-0.6-1.1
		c-0.3-0.3-0.6-0.5-1-0.7c-0.4-0.2-0.9-0.2-1.5-0.2c-0.7,0-1.2,0.1-1.7,0.4s-0.9,0.6-1.2,1.1s-0.6,1-0.8,1.7
		c-0.2,0.6-0.3,1.4-0.3,2.1v1.5c0,0.7,0.1,1.4,0.2,2c0.2,0.6,0.4,1.2,0.7,1.7c0.3,0.5,0.7,0.9,1.2,1.1c0.5,0.3,1,0.4,1.7,0.4
		c0.6,0,1.1-0.1,1.6-0.2c0.4-0.1,0.8-0.4,1.1-0.6c0.3-0.3,0.5-0.6,0.7-1c0.2-0.4,0.3-0.9,0.4-1.4H132.7z"/>
	<path class="st1" d="M145.4,1.7c0-0.3,0.1-0.6,0.3-0.8c0.2-0.2,0.5-0.3,0.8-0.3c0.4,0,0.6,0.1,0.8,0.3c0.2,0.2,0.3,0.5,0.3,0.8
		c0,0.3-0.1,0.6-0.3,0.8c-0.2,0.2-0.5,0.3-0.8,0.3c-0.4,0-0.6-0.1-0.8-0.3C145.5,2.2,145.4,2,145.4,1.7z M147.4,15.6h-1.9v-11h1.9
		V15.6z"/>
	<path class="st1" d="M163.4,1.9v2.7h2v1.4h-2v6.8c0,0.3,0,0.5,0.1,0.7c0.1,0.2,0.2,0.3,0.3,0.4s0.2,0.2,0.4,0.2c0.1,0,0.3,0,0.5,0
		c0.2,0,0.3,0,0.5,0s0.3-0.1,0.4-0.1v1.5c-0.1,0-0.3,0.1-0.6,0.1c-0.2,0-0.5,0.1-0.9,0.1c-0.3,0-0.7,0-1-0.1s-0.6-0.3-0.8-0.5
		s-0.4-0.5-0.5-0.9s-0.2-0.8-0.2-1.4V6.1h-2V4.6h2V1.9H163.4z"/>
	<path class="st1" d="M181.6,12.8l2.6-8.2h2l-4.4,12.7c-0.1,0.3-0.2,0.6-0.4,0.9s-0.4,0.6-0.6,0.9c-0.3,0.3-0.6,0.5-0.9,0.7
		c-0.4,0.2-0.8,0.3-1.3,0.3c-0.1,0-0.2,0-0.3,0c-0.1,0-0.2,0-0.3,0s-0.2,0-0.3-0.1c-0.1,0-0.2,0-0.2,0v-1.5c0,0,0.1,0,0.1,0
		c0,0,0.1,0,0.1,0c0.1,0,0.1,0,0.1,0c0,0,0.1,0,0.1,0c0.3,0,0.6,0,0.8-0.1c0.2-0.1,0.5-0.2,0.6-0.3c0.2-0.1,0.4-0.3,0.5-0.6
		c0.1-0.2,0.3-0.5,0.4-0.9l0.4-1.1l-3.9-10.8h2L181.6,12.8z"/>
	<path class="st1" d="M224.8,10.9c-0.1,0.7-0.3,1.3-0.5,1.9c-0.3,0.6-0.6,1.1-1.1,1.5c-0.5,0.4-1,0.8-1.7,1
		c-0.7,0.2-1.4,0.4-2.3,0.4c-0.9,0-1.7-0.2-2.4-0.5c-0.7-0.3-1.3-0.8-1.8-1.4c-0.5-0.6-0.9-1.3-1.2-2.2s-0.4-1.8-0.4-2.8V7.5
		c0-1,0.1-2,0.4-2.8c0.3-0.8,0.7-1.6,1.2-2.2c0.5-0.6,1.1-1.1,1.9-1.4c0.7-0.3,1.6-0.5,2.5-0.5c0.8,0,1.6,0.1,2.2,0.4
		c0.6,0.2,1.2,0.6,1.6,1c0.4,0.4,0.8,1,1.1,1.6s0.4,1.3,0.5,2h-2c-0.1-0.5-0.2-1-0.3-1.4c-0.2-0.4-0.4-0.8-0.6-1.1
		c-0.3-0.3-0.6-0.5-1-0.7c-0.4-0.2-0.9-0.2-1.5-0.2c-0.7,0-1.2,0.1-1.7,0.4c-0.5,0.3-0.9,0.6-1.2,1.1s-0.6,1-0.8,1.7
		c-0.2,0.6-0.3,1.4-0.3,2.1v1.5c0,0.7,0.1,1.4,0.2,2c0.2,0.6,0.4,1.2,0.7,1.7s0.7,0.9,1.2,1.1c0.5,0.3,1,0.4,1.7,0.4
		c0.6,0,1.1-0.1,1.6-0.2s0.8-0.4,1.1-0.6s0.5-0.6,0.7-1c0.2-0.4,0.3-0.9,0.4-1.4H224.8z"/>
	<path class="st1" d="M239.5,5.9c0.4-0.5,0.9-0.9,1.4-1.1c0.5-0.3,1.2-0.4,1.8-0.4c0.5,0,1,0.1,1.4,0.2c0.4,0.1,0.8,0.4,1.1,0.7
		c0.3,0.3,0.5,0.7,0.7,1.2c0.2,0.5,0.2,1.1,0.2,1.8v7.2h-1.9V8.4c0-0.4,0-0.8-0.1-1.1c-0.1-0.3-0.2-0.5-0.4-0.7
		c-0.2-0.2-0.4-0.3-0.7-0.4S242.5,6,242.1,6c-0.6,0-1.1,0.2-1.6,0.5c-0.5,0.3-0.8,0.8-1.1,1.3v7.8h-1.9V0h1.9V5.9z"/>
	<path class="st1" d="M266.2,14.5c-0.3,0.4-0.8,0.7-1.3,0.9s-1.2,0.3-1.9,0.3c-0.5,0-1-0.1-1.5-0.2s-0.8-0.4-1.1-0.7
		c-0.3-0.3-0.6-0.8-0.7-1.3c-0.2-0.5-0.3-1.1-0.3-1.9V4.6h1.9v7.1c0,0.5,0.1,0.9,0.2,1.2c0.1,0.3,0.3,0.6,0.5,0.8s0.4,0.3,0.6,0.4
		c0.2,0.1,0.5,0.1,0.8,0.1c0.8,0,1.4-0.1,1.8-0.4c0.5-0.3,0.8-0.7,1-1.2v-8h1.9v11h-1.8L266.2,14.5z"/>
	<path class="st1" d="M286.5,6.3c-0.2,0-0.3,0-0.5-0.1c-0.1,0-0.3,0-0.5,0c-0.6,0-1.2,0.1-1.6,0.4c-0.4,0.3-0.7,0.7-0.9,1.1v7.8
		h-1.9v-11h1.8l0,1.3c0.3-0.5,0.6-0.8,1.1-1.1c0.4-0.3,0.9-0.4,1.6-0.4c0.1,0,0.3,0,0.5,0s0.3,0.1,0.4,0.1V6.3z"/>
	<path class="st1" d="M302.8,14.2c0.3,0,0.6-0.1,1-0.2c0.3-0.1,0.6-0.3,0.8-0.4c0.2-0.2,0.4-0.4,0.6-0.7c0.1-0.3,0.2-0.5,0.3-0.8
		h1.8c0,0.5-0.2,1-0.4,1.4s-0.6,0.8-0.9,1.2c-0.4,0.3-0.8,0.6-1.4,0.8c-0.5,0.2-1.1,0.3-1.6,0.3c-0.8,0-1.5-0.1-2.2-0.4
		c-0.6-0.3-1.1-0.7-1.5-1.2c-0.4-0.5-0.7-1.1-0.9-1.7c-0.2-0.7-0.3-1.4-0.3-2.1V9.9c0-0.7,0.1-1.4,0.3-2.1s0.5-1.2,0.9-1.7
		c0.4-0.5,0.9-0.9,1.5-1.2c0.6-0.3,1.3-0.4,2.1-0.4c0.6,0,1.2,0.1,1.7,0.3c0.5,0.2,1,0.5,1.4,0.8c0.4,0.4,0.7,0.8,0.9,1.3
		c0.2,0.5,0.3,1,0.4,1.6h-1.8c0-0.3-0.1-0.7-0.2-0.9c-0.1-0.3-0.3-0.6-0.5-0.8c-0.2-0.2-0.5-0.4-0.8-0.5c-0.3-0.1-0.7-0.2-1-0.2
		c-0.6,0-1.1,0.1-1.4,0.3c-0.4,0.2-0.7,0.5-0.9,0.9S300,8,300,8.5c-0.1,0.5-0.1,0.9-0.1,1.4v0.4c0,0.5,0,1,0.1,1.4
		c0.1,0.5,0.3,0.9,0.5,1.3c0.2,0.4,0.5,0.7,0.9,0.9C301.7,14.1,302.2,14.2,302.8,14.2z"/>
	<path class="st1" d="M321.5,5.9c0.4-0.5,0.9-0.9,1.4-1.1c0.5-0.3,1.2-0.4,1.8-0.4c0.5,0,1,0.1,1.4,0.2c0.4,0.1,0.8,0.4,1.1,0.7
		c0.3,0.3,0.5,0.7,0.7,1.2c0.2,0.5,0.2,1.1,0.2,1.8v7.2h-1.9V8.4c0-0.4,0-0.8-0.1-1.1c-0.1-0.3-0.2-0.5-0.4-0.7
		c-0.2-0.2-0.4-0.3-0.7-0.4S324.6,6,324.2,6c-0.6,0-1.1,0.2-1.6,0.5c-0.5,0.3-0.8,0.8-1.1,1.3v7.8h-1.9V0h1.9V5.9z"/>
</g>
</svg>
