<?xml version="1.0" encoding="utf-8"?>
<!-- Generator: Adobe Illustrator 19.0.1, SVG Export Plug-In . SVG Version: 6.00 Build 0)  -->
<svg version="1.1" id="Layer_1" xmlns="http://www.w3.org/2000/svg" xmlns:xlink="http://www.w3.org/1999/xlink" x="0px" y="0px"
	 viewBox="-16.3 278.4 183.1 22.7" style="enable-background:new -16.3 278.4 183.1 22.7;" xml:space="preserve">
<style type="text/css">
	.st0{fill:#FFFFFF;}
	.st1{fill:#3399CC;}
	.st2{fill:#CDCAC9;}
	.st3{fill:#CC6633;}
</style>
<g>
	<path class="st0" d="M0.1,286.9c0,2.2-0.2,4.1-1.7,5.9c-1.5,1.8-3.8,2.8-6.1,2.8c-4.7,0-8.5-3.9-8.5-8.5c0-4.8,3.9-8.6,8.6-8.6
		c2.9,0,5.3,1.3,7,3.6l-1.3,1.3c-1.4-2-3.3-3.1-5.7-3.1c-3.8,0-6.8,3.2-6.8,6.9c0,1.8,0.7,3.4,1.9,4.7c1.2,1.2,3,2.1,4.7,2.1
		c2.9,0,5.9-2.1,5.9-5.2h-4.9v-1.7H0.1z"/>
	<path class="st0" d="M13.2,286L13.2,286c0.7-0.8,1.2-1.4,2.3-1.4c0.6,0,1.1,0.2,1.6,0.5l-0.8,1.6c-0.4-0.2-0.6-0.5-1.1-0.5
		c-1.9,0-2,2.5-2,3.8v5.2h-1.8v-10.3h1.8V286z"/>
	<path class="st0" d="M37.1,295.3h-1.8v-1.4h0c-0.9,1.1-2.1,1.7-3.6,1.7c-3,0-5-2.6-5-5.4c0-2.9,1.9-5.5,5-5.5
		c1.4,0,2.7,0.7,3.5,1.8h0v-1.5h1.8V295.3z M28.6,290c0,2,1.2,3.9,3.4,3.9c2.3,0,3.5-1.8,3.5-3.9c0-2.1-1.3-3.7-3.5-3.7
		C29.9,286.3,28.6,288,28.6,290z"/>
	<path class="st0" d="M56.9,288L56.9,288c-0.9-1-1.9-1.7-3.3-1.7c-2.1,0-3.7,1.8-3.7,3.8c0,2,1.4,3.8,3.6,3.8c1.5,0,2.5-0.7,3.4-1.8
		h0v2.4c-1,0.7-2,1.1-3.3,1.1c-3.1,0-5.5-2.3-5.5-5.5c0-3.1,2.5-5.5,5.5-5.5c1.1,0,2.3,0.4,3.2,1V288z"/>
	<path class="st0" d="M69.3,290.5c0,1.9,1.4,3.5,3.4,3.5c1.5,0,2.5-0.9,3.1-2.1l1.5,0.9c-1,1.8-2.7,2.9-4.8,2.9
		c-3.1,0-5.1-2.4-5.1-5.3c0-3.1,1.8-5.6,5-5.6c3.3,0,5.1,2.8,4.9,5.8H69.3z M75.6,289c-0.2-1.5-1.5-2.7-3-2.7
		c-1.5,0-2.9,1.2-3.1,2.7H75.6z"/>
	<path class="st0" d="M116.9,282.3c-1.3-1.4-3.1-2.2-5.1-2.2c-3.7,0-6.7,3.2-6.7,6.9s3,6.9,6.7,6.9c1.9,0,3.7-0.9,5-2.2v2.3
		c-1.4,1-3.2,1.6-5,1.6c-4.7,0-8.6-3.8-8.6-8.5c0-4.8,3.9-8.6,8.6-8.6c1.8,0,3.5,0.5,5,1.6V282.3z"/>
	<path class="st0" d="M131.3,281c0,0.7-0.6,1.3-1.3,1.3c-0.7,0-1.3-0.5-1.3-1.3c0-0.7,0.6-1.3,1.3-1.3
		C130.7,279.8,131.3,280.3,131.3,281z M130.9,295.3h-1.8v-10.3h1.8V295.3z"/>
	<path class="st0" d="M145.2,295.3h-1.8v-8.7h-1.1v-1.6h1.1v-3.7h1.8v3.7h1.8v1.6h-1.8V295.3z"/>
	<path class="st0" d="M155.7,284.9h2l3.7,7.4l3.3-7.4h2l-7.6,16.2h-2l3.3-6.8L155.7,284.9z"/>
</g>
</svg>
