<?xml version="1.0" encoding="utf-8"?>
<!-- Generator: Adobe Illustrator 19.0.1, SVG Export Plug-In . SVG Version: 6.00 Build 0)  -->
<svg version="1.1" xmlns="http://www.w3.org/2000/svg" xmlns:xlink="http://www.w3.org/1999/xlink" x="0px" y="0px"
	 viewBox="0 0 480 121.6" style="enable-background:new 0 0 480 121.6;" xml:space="preserve">
<style type="text/css">
	.st0{fill:#FFFFFF;}
	.st1{fill:#3399CC;}
	.st2{fill:#FF9966;}
	.st3{fill:#669897;}
	.st4{clip-path:url(#SVGID_4_);}
	.st5{fill:none;stroke:#FFFFFF;stroke-width:2.3528;stroke-miterlimit:10;}
	.st6{fill:#382C3D;}
	.st7{fill:#221F20;}
	.st8{fill:#FFCC66;}
	.st9{fill:#3D220E;}
	.st10{fill:none;stroke:#FFFFFF;stroke-width:0.5618;stroke-miterlimit:10;}
	.st11{fill:#CDCBCA;}
	.st12{display:none;}
	.st13{display:inline;fill:#3D220E;}
	.st14{display:inline;}
	.st15{fill:#CDCAC9;}
	.st16{fill:#FDCC66;}
	.st17{fill:url(#SVGID_5_);}
	.st18{fill:url(#SVGID_6_);}
	.st19{fill:url(#SVGID_7_);}
	.st20{font-family:'Futura-Light';}
	.st21{font-size:14.7576px;}
	.st22{letter-spacing:7;}
	.st23{fill:#999999;}
	.st24{fill:#CC6633;}
	.st25{opacity:0.5;fill:#653614;}
	.st26{opacity:0.69;fill:#FF9966;}
</style>
<g id="contact">
</g>
<g id="about">
</g>
<g id="WORK">
	<g id="work">
	</g>
	<g id="mouseOver" class="st12">
	</g>
</g>
<g id="home">
	<g>
		<g>
			<path class="st0" d="M0,48.5h15.3c11.6,0,21.1,9.1,21.1,20.8s-9.6,20.8-21.1,20.8H0V48.5z M10.8,81h2.4c6.5,0,12-3.5,12-11.6
				c0-7.4-4.9-11.6-11.9-11.6h-2.5V81z"/>
			<path class="st0" d="M63.3,90.1H52.5V48.5h10.8V90.1z"/>
			<path class="st0" d="M92.2,81h13v9.2H81.4V48.5h10.8V81z"/>
			<path class="st0" d="M130.5,81h13v9.2h-23.8V48.5h10.8V81z"/>
			<path class="st0" d="M201.9,68.6c0,13.5-9.7,22.9-23,22.9c-13.3,0-23-9.5-23-22.9c0-12.6,11-21.4,23-21.4S201.9,56,201.9,68.6z
				 M167.2,68.6c0,7.2,5.3,12.4,11.7,12.4s11.7-5.2,11.7-12.4c0-5.7-5.3-11-11.7-11S167.2,62.9,167.2,68.6z"/>
			<path class="st0" d="M218,48.5h10.8L248.6,74h0.1V48.5h10.8v41.6h-10.8l-19.8-25.5h-0.1v25.5H218V48.5z"/>
			<path class="st0" d="M332.1,64.6V48.5h10.8v41.6h-10.8v-17h-15.6v17h-10.8V48.5h10.8v16.1H332.1z"/>
			<path class="st0" d="M371.6,82.9l-2.9,7.2h-11.5l16-41.6H385l15.7,41.6h-11.5l-2.7-7.2H371.6z M379.1,61.4H379l-4.5,13.2h9
				L379.1,61.4z"/>
			<path class="st0" d="M425.9,81h13v9.2h-23.8V48.5h10.8V81z"/>
			<path class="st0" d="M464.2,81h13v9.2h-23.8V48.5h10.8V81z"/>
		</g>
		<g>
			<g>
				<path class="st2" d="M18.2,52.1c10.7,0,19.4,8.6,19.4,19.1c0,10.5-8.7,19.1-19.4,19.1H4.5V52.1H18.2 M11.9,84.6h1.7h2.4
					c8.3,0,13.7-5.2,13.7-13.4c0-8.1-5.3-13.4-13.6-13.4h-2.5h-1.7v1.7v23.3V84.6 M18.2,50.4H2.8V92h15.3c11.5,0,21.1-9.1,21.1-20.8
					S29.7,50.4,18.2,50.4L18.2,50.4z M13.6,82.8V59.6h2.5c6.9,0,11.9,4.2,11.9,11.6c0,8.1-5.5,11.6-12,11.6H13.6L13.6,82.8z"/>
				<path class="st2" d="M64.4,52.1v38.1H57V52.1H64.4 M66.1,50.4H55.3V92h10.8V50.4L66.1,50.4z"/>
				<path class="st2" d="M93.3,52.1v30.7v1.7H95h11.2v5.7H85.9V52.1H93.3 M95,50.4H84.2V92H108v-9.2H95V50.4L95,50.4z"/>
				<path class="st2" d="M131.6,52.1v30.7v1.7h1.7h11.2v5.7h-20.3V52.1H131.6 M133.3,50.4h-10.8V92h23.8v-9.2h-13V50.4L133.3,50.4z"
					/>
				<path class="st2" d="M181.8,50.8c10.2,0,21.3,7.5,21.3,19.7c0,12.5-8.8,21.2-21.3,21.2c-12.5,0-21.3-8.7-21.3-21.2
					C160.5,58.3,171.5,50.8,181.8,50.8 M181.8,84.6c7.6,0,13.5-6.2,13.5-14.1c0-6.9-6.2-12.7-13.5-12.7c-7.3,0-13.5,5.8-13.5,12.7
					C168.3,78.4,174.2,84.6,181.8,84.6 M181.8,49c-12,0-23,8.8-23,21.4c0,13.5,9.7,22.9,23,22.9c13.4,0,23-9.5,23-22.9
					C204.8,57.9,193.7,49,181.8,49L181.8,49z M181.8,82.9c-6.5,0-11.7-5.2-11.7-12.4c0-5.7,5.3-11,11.7-11c6.5,0,11.7,5.2,11.7,11
					C193.5,77.7,188.2,82.9,181.8,82.9L181.8,82.9z"/>
				<path class="st2" d="M260.6,52.1v38.1h-8.2l-19.3-24.8l-0.6-0.7h-0.8h-1.7v1.7v23.8h-7.4V52.1h8.2L250,76.9l0.6,0.7h0.8h1.7
					v-1.7V52.1H260.6 M262.3,50.4h-10.8v25.4h-0.1l-19.8-25.4h-10.8V92h10.8V66.5h0.1L251.5,92h10.8V50.4L262.3,50.4z"/>
				<path class="st2" d="M344,52.1v38.1h-7.4V75v-1.7h-1.7h-15.6h-1.7V75v15.3h-7.4V52.1h7.4v14.3v1.7h1.7h15.6h1.7v-1.7V52.1H344
					 M345.8,50.4h-10.8v16.1h-15.6V50.4h-10.8V92h10.8V75h15.6v17h10.8V50.4L345.8,50.4z"/>
				<path class="st2" d="M386.7,52.1L401,90.3h-7.8l-2.3-6.1l-0.4-1.1h-1.2h-14.9h-1.2l-0.4,1.1l-2.4,6.1h-7.8l14.7-38.1H386.7
					 M375,78.2h2.4h9h2.4L388,76l-4.4-13.2l-0.5-1.2h-1.2h-1.2l-0.4,1.2l-4.5,13.2L375,78.2 M387.9,50.4h-11.8l-16,41.6h11.5
					l2.9-7.2h14.9L392,92h11.5L387.9,50.4L387.9,50.4z M377.4,76.5l4.5-13.2h0.1l4.4,13.2H377.4L377.4,76.5z"/>
				<path class="st2" d="M427,52.1v30.7v1.7h1.7H440v5.7h-20.3V52.1H427 M428.7,50.4h-10.8V92h23.8v-9.2h-13V50.4L428.7,50.4z"/>
				<path class="st2" d="M465.3,52.1v30.7v1.7h1.7h11.2v5.7H458V52.1H465.3 M467,50.4h-10.8V92H480v-9.2h-13V50.4L467,50.4z"/>
			</g>
		</g>
		<g>
			<g>
				<path class="st2" d="M228.1,25.3c0.2,0,0.6,0.5,0.8,0.5c2.1,0.2,3.9-0.2,5.8-0.5c4-0.6,11.4-5.3,14.6-6.7c2-0.9,3.6-1.8,5-2.7
					c0.1-0.1,1.9-1,1.6-1.8c-0.7-1.7-1.6-3.5-2.7-4.9c-0.8-1-3-3.2-4-4c-2.8-2-4.6-3.1-7.7-2.1c-1.4,0.4-2.8,0.8-4.1,1.2
					c-0.6,0.2-0.6,0.2-1.2,0.3l-1,0l-0.6-0.8l-0.5-0.1c-0.9,0.4-1.7,0.7-2.6,1.2c-1.4,0.7-1.3,1-2.8,1.6c-1.9,0.8-3,2.2-3.7,4.5
					C223.2,16.3,224.1,19.9,228.1,25.3z"/>
				<path class="st2" d="M269.1,4.5c-0.7-1.2-1.6-2.2-2.7-2.7c-5.5-2.3-17.8,0.3-17.8,0.3c0,0-0.6,0.3-0.7,0.4
					c0.2,0.3,0.5,0.5,0.7,0.8c0.8,0.9,1.6,1.1,2.4,1.9c0.1,0.1,0.5,0.2,1.3,0.2c2.1-0.2,5.6-0.5,6.1-0.5c0,0,2.7,1.1,3.2,1.7
					c0.1,0.1,0.9,1.2,1,1.3c0.4,0.8-0.2,1.6-0.7,2.5c-0.4,0.8-1,1.4-1.7,2c-0.3,0.3-0.6,0.7-0.9,1c-0.2,0.3-0.5,0.5-0.7,0.8
					c-0.3,0.3-0.6,0.6-0.8,0.9c-0.8,0.6-1.8,1.3-2.9,2c-1.4,0.9-3,1.8-5,2.7c-3.1,1.4-10.6,6.1-14.6,6.7c-2,0.3-4,0.4-6.1,0.3
					c-3.5-0.1-4.1,0.7-8.3,0.2c-1.6-0.2-3.3-1.2-3.8-1.9c-0.3-0.4-0.8-1.5-0.9-2.1c0-0.1,0-1.7,0.2-2.2c0.2-0.5,0.9-1.4,1.3-1.7
					c1.1-0.8,2.6-1.2,4.8-2.2c1-0.4,0.2-1.5,0.4-2.8c0-0.3,0.2-1.6,0.4-1.9c0.5-0.8-0.5,0.7-0.1-0.3c0-0.1,0.1-0.3,0.1-0.4
					c-0.5,0.2-0.8,0.5-1.3,0.8c-4.5,2.6-6.5,3-9,6.2c-1.9,2.3-2.7,4-2.9,5.7c0,0.1,0.1,2.7,0.3,3.3c0.2,0.5,1.8,2,1.8,2
					c0.8,0.7,3.9,1.7,5.4,2c3.1,0.8,4.1,0.3,7.1,0.5c16-2.4,27.1-0.7,41.4-17.8c1.4-0.9,2.3-2.2,2.9-3.7c0.1-0.1,0.2-0.3,0.3-0.4
					l-0.1,0c0.1-0.4,0.4-0.7,0.5-1.1C270.2,7.6,269.8,5.9,269.1,4.5z"/>
				<ellipse class="st2" cx="265.9" cy="22.6" rx="2.3" ry="2.1"/>
				<path class="st2" d="M224.5,3.1c-0.8,0.6-2,0.5-2.7-0.2c-0.7-0.7-0.6-1.9,0.2-2.5s2-0.5,2.7,0.2C225.4,1.4,225.3,2.5,224.5,3.1z
					"/>
				<path class="st2" d="M217.3,5c-0.4,0.3-1,0.3-1.4-0.1c-0.3-0.4-0.3-0.9,0.1-1.2c0.4-0.3,1-0.3,1.4,0.1
					C217.8,4.1,217.7,4.7,217.3,5z"/>
				<path class="st2" d="M258.3,23.1c0,0,0.7,2.6-2.4,5.4c-3.1,2.8-9.7,6.3-17.8,5.2c-1.4-0.2-2.4-0.7-3.5-1.6
					C234.6,32.1,251,31,258.3,23.1z"/>
			</g>
		</g>
	</g>
</g>
<g id="NAVBAR">
	<g id="navBar">
	</g>
	<g id="mouseOver_1_">
	</g>
</g>
</svg>
