<?xml version="1.0" encoding="utf-8"?>
<!-- Generator: Adobe Illustrator 19.0.1, SVG Export Plug-In . SVG Version: 6.00 Build 0)  -->
<svg version="1.1" xmlns="http://www.w3.org/2000/svg" xmlns:xlink="http://www.w3.org/1999/xlink" x="0px" y="0px"
	 viewBox="0 0 293.8 186.7" style="enable-background:new 0 0 293.8 186.7;" xml:space="preserve">
<style type="text/css">
	.st0{fill:#FFFFFF;}
	.st1{fill:#3399CC;}
	.st2{fill:#FF9966;}
	.st3{fill:#382C3D;}
	.st4{fill:#221F20;}
	.st5{fill:#FFCC66;}
	.st6{fill:#3D220E;}
	.st7{fill:none;stroke:#FFFFFF;stroke-width:0.5618;stroke-miterlimit:10;}
	.st8{fill:#CDCBCA;}
	.st9{fill:#669897;}
	.st10{fill:#CC6632;}
	.st11{fill:none;stroke:#FFFFFF;stroke-width:2.3528;stroke-miterlimit:10;}
	.st12{display:none;}
	.st13{display:inline;fill:#3D220E;}
	.st14{display:inline;fill:#FF9966;}
	.st15{display:inline;}
	.st16{display:inline;fill:#382C3D;}
	.st17{fill:#CDCAC9;}
	.st18{display:inline;fill:#FFFFFF;}
	.st19{fill:#FDCC66;}
	.st20{display:inline;fill:#669897;}
	.st21{font-family:'Roboto-Thin';}
	.st22{font-size:20.7575px;}
	.st23{letter-spacing:10;}
	.st24{display:inline;fill:#362012;}
	.st25{fill:url(#SVGID_5_);}
	.st26{fill:url(#SVGID_6_);}
	.st27{fill:url(#SVGID_7_);}
	.st28{fill:#999999;}
	.st29{fill:#CC6633;}
	.st30{opacity:0.5;fill:#653614;}
	.st31{opacity:0.69;fill:#FF9966;}
</style>
<g id="contact">
</g>
<g id="about">
</g>
<g id="WORK">
	<g id="work">
		<g>
			<ellipse class="st11" cx="146.9" cy="93.4" rx="145.7" ry="92.2"/>
			<g>
				<path class="st0" d="M84.1,42.8c-5.9,0-18.1,8-28.6,25s-10.7,31.1,2.1,31.1c14.2,0,29.2-15.3,35-23.3c2.1-2.8,9.1-2,7.6,0.4
					C92.7,87.7,73.7,111,52.7,111c-17.4,0-30.4-19-10-47.5C58.3,41.6,76.5,36,85.1,36c14.8,0,10.2,21.5-2.9,29.1
					c-6.2,3.5-8.7-2.6-8.7-2.6C83.7,55.6,90,42.8,84.1,42.8z"/>
				<path class="st0" d="M128.2,78.8c-1.7,1.7-21.3,21.6-26.2,26.1c-5.1,4.9-8.5,6.3-10.9,6.3c-3.9,0-5.7-2.9-2.3-9.1
					c2.4-4.5,5.7-11,8.7-15.9c3-5.1-0.6-5.5-2-6.2c-3.2-1.7-7.9-6.9-3.5-12.4c3.5-4.3,8.7-3.5,11.6-1.6c3.2,2,0.3,6-3.3,9.9
					c0.4,0.4,0.8,0.8,1.3,1.1c4.6,2.6,10.5-0.4,6.5,7.2c-1.5,2.9-1.9,3.2-4.5,8c-0.9,1.6-2.4,4.9-2,5.4c0.5,0.5,1.9-0.8,3.4-2.1
					c2.3-1.9,20.4-19.1,22.6-21.4C128.8,72.9,128.8,78.1,128.2,78.8z"/>
				<path class="st0" d="M167.8,78.8c-1.7,1.7-21.4,21.6-26.2,26.1c-5.1,4.9-8.4,6.3-10.9,6.3c-3.3,0-5.1-2-3.5-6.5
					c-3.5,3.5-7.8,6.5-11.9,6.5c-8.1,0-10.6-9.6-2.1-22.5c8.5-12.9,16.1-17.2,21.4-17.2c3.4,0,5.9,3.2,6.6,6.7
					c2.1-3.9,3.5-6.6,3.5-6.6l9.5-0.1c0,0-8.5,15.9-11.1,20.7c-0.9,1.6-2.5,4.9-2,5.4c0.5,0.5,1.9-0.8,3.5-2.1
					c2.3-1.9,20.4-19.1,22.6-21.4C168.3,72.9,168.4,78.1,167.8,78.8z M134.4,90.1c3.9-6.5,4.5-11.7,1.4-11.7
					c-3.1,0-8.7,5.3-12.6,11.7c-3.8,6.5-4.4,11.7-1.4,11.7C125,101.8,130.6,96.5,134.4,90.1z"/>
				<path class="st0" d="M188.7,78.8c-1.7,1.7-21.4,21.6-26.2,26.1c-5.2,4.9-8.4,6.3-10.9,6.3c-3.9,0-5.7-2.9-2.3-9.1
					c2.4-4.5,16.4-30.5,16.4-30.5l9.5-0.1c0,0-8.5,15.9-11.1,20.7c-0.9,1.6-2.5,4.9-2,5.4c0.5,0.5,1.9-0.8,3.5-2.1
					c2.3-1.9,20.4-19.1,22.6-21.4C189.2,72.9,189.3,78.1,188.7,78.8z M169.9,57.3c1.7-3.6,5.9-6.6,9.6-6.6c3.7,0,5.3,3,3.7,6.6
					c-1.6,3.6-5.9,6.6-9.6,6.6S168.3,61,169.9,57.3z"/>
				<path class="st0" d="M194.5,106.5c0,0-7.2,13.6-8.2,15.3c-5,8.4-8.1,13.2-15.7,13.2c-3.7,0-9.2-2.6-9.2-7.9
					c0-6.8,9.9-9.5,21.9-16.7l3.2-6.2c-3.6,3.8-8.1,6.9-12.4,6.9c-8.1,0-10.6-9.6-2.1-22.5c8.5-12.9,16.1-17.2,21.4-17.2
					c3.5,0,6,3.2,6.6,6.8l3.5-6.8h9.4l-14.9,28.1L194.5,106.5z M180,116.9c-7.1,5.1-11.6,8.8-11.6,11.5c0,2,1.1,2.6,2.3,2.6
					c2.4,0,4.1-4.4,7.2-10.2L180,116.9z M193.4,90.1c3.9-6.5,4.5-11.7,1.4-11.7c-3,0-8.7,5.3-12.5,11.7c-3.8,6.5-4.5,11.7-1.4,11.7
					S189.6,96.5,193.4,90.1z"/>
				<path class="st0" d="M227,61.3c-0.8,2.8-2.3,8.8-5.6,14.2l-3.3,0.4c1.3-3.5,2.9-9.7,3.5-14L227,61.3z"/>
				<path class="st0" d="M261.1,87.5c-2.4,4.1-13.6,8.6-29.7,12.5c-4.1,9.4-9.9,11.2-15.7,11.2c-3.7,0-9-1.2-8-6.4
					c0.7-4.1,7.8-5.5,15.4-7.5c0.6-1.8,1.1-3.9,1.6-6.8c1.7-9.4,2.3-21,12.7-21.7c10.5-0.7-0.5,8.7-0.5,8.7l-2.4,11.9
					c-0.2,1.5-0.6,2.9-1,4.2l-0.4,1.3c14.3-4.4,22.2-11.9,19.7-16.4C258.8,77.6,264.5,81.9,261.1,87.5z M220.6,102.8
					c-3.5,1.1-6.1,2-6.3,3.3c-0.4,2.2,2.6,1.7,4.1-0.3C219.1,104.8,219.8,104,220.6,102.8z"/>
			</g>
			<g>
				<path class="st0" d="M54.9,140.4c0.1-0.1,0.3-0.2,0.4-0.2h2.5c0.1,0,0.3,0.1,0.4,0.2l1.5,1.5c0.1,0.1,0.1,0.3,0.1,0.4v1.9
					c0,0.1-0.1,0.2-0.2,0.2h-1.5c-0.1,0-0.2-0.1-0.2-0.2v-1.1c0-0.1-0.1-0.3-0.1-0.4l-0.4-0.4c-0.1-0.1-0.3-0.1-0.4-0.1h-0.9
					c-0.1,0-0.3,0.1-0.4,0.1l-0.4,0.4c-0.1,0.1-0.2,0.3-0.2,0.4v2c0,0.1,0.1,0.3,0.1,0.4l0.4,0.4c0.1,0.1,0.2,0.2,0.4,0.2h1.7
					c0.1,0,0.3,0.1,0.4,0.1l1.5,1.5c0.1,0.1,0.1,0.3,0.1,0.4v4.1c0,0.1-0.1,0.3-0.1,0.4l-1.5,1.5c-0.1,0.1-0.3,0.1-0.4,0.1h-2.5
					c-0.1,0-0.3-0.1-0.4-0.1l-1.5-1.5c-0.1-0.1-0.2-0.3-0.2-0.4v-2.4c0-0.1,0.1-0.2,0.2-0.2H55c0.1,0,0.2,0.1,0.2,0.2v1.5
					c0,0.1,0.1,0.3,0.2,0.4l0.4,0.4c0.1,0.1,0.3,0.1,0.4,0.1H57c0.1,0,0.3-0.1,0.4-0.1l0.4-0.4c0.1-0.1,0.1-0.3,0.1-0.4v-2.5
					c0-0.1-0.1-0.3-0.1-0.4l-0.4-0.4c-0.1-0.1-0.2-0.1-0.4-0.1h-1.7c-0.1,0-0.3-0.1-0.4-0.2l-1.5-1.5c-0.1-0.1-0.1-0.3-0.1-0.4v-3.6
					c0-0.1,0.1-0.3,0.2-0.4L54.9,140.4z"/>
				<path class="st0" d="M74.2,140.5c0-0.1,0.1-0.2,0.2-0.2h4.3c0.1,0,0.3,0.1,0.4,0.1l1.5,1.5c0.1,0.1,0.2,0.3,0.2,0.4v4.6
					c0,0.1-0.1,0.3-0.2,0.4l-1.5,1.5c-0.1,0.1-0.3,0.1-0.4,0.1h-2.4c-0.1,0-0.2,0.1-0.2,0.2v4.9c0,0.1-0.1,0.2-0.2,0.2h-1.5
					c-0.1,0-0.2-0.1-0.2-0.2V140.5z M78.8,146.5c0.1-0.1,0.1-0.3,0.1-0.4v-3c0-0.1-0.1-0.3-0.1-0.4l-0.4-0.4
					c-0.1-0.1-0.2-0.1-0.4-0.1h-1.6c-0.1,0-0.2,0.1-0.2,0.2v4.4c0,0.1,0.1,0.2,0.2,0.2H78c0.1,0,0.3-0.1,0.4-0.1L78.8,146.5z"/>
				<path class="st0" d="M100.7,142c0,0.1-0.1,0.2-0.2,0.2h-3.2c-0.1,0-0.2,0.1-0.2,0.2v2.6c0,0.1,0.1,0.2,0.2,0.2h2.5
					c0.1,0,0.2,0.1,0.2,0.2v1.5c0,0.1-0.1,0.2-0.2,0.2h-2.5c-0.1,0-0.2,0.1-0.2,0.2v4.6c0,0.1,0.1,0.2,0.2,0.2h3.2
					c0.1,0,0.2,0.1,0.2,0.2v1.5c0,0.1-0.1,0.2-0.2,0.2h-5.2c-0.1,0-0.2-0.1-0.2-0.2v-13.6c0-0.1,0.1-0.2,0.2-0.2h5.2
					c0.1,0,0.2,0.1,0.2,0.2V142z"/>
				<path class="st0" d="M120.7,142c0,0.1-0.1,0.2-0.2,0.2h-3.2c-0.1,0-0.2,0.1-0.2,0.2v2.6c0,0.1,0.1,0.2,0.2,0.2h2.5
					c0.1,0,0.2,0.1,0.2,0.2v1.5c0,0.1-0.1,0.2-0.2,0.2h-2.5c-0.1,0-0.2,0.1-0.2,0.2v4.6c0,0.1,0.1,0.2,0.2,0.2h3.2
					c0.1,0,0.2,0.1,0.2,0.2v1.5c0,0.1-0.1,0.2-0.2,0.2h-5.2c-0.1,0-0.2-0.1-0.2-0.2v-13.6c0-0.1,0.1-0.2,0.2-0.2h5.2
					c0.1,0,0.2,0.1,0.2,0.2V142z"/>
				<path class="st0" d="M135.3,154.3c-0.1,0-0.2-0.1-0.2-0.2v-13.6c0-0.1,0.1-0.2,0.2-0.2h4.3c0.1,0,0.3,0.1,0.4,0.1l1.5,1.5
					c0.1,0.1,0.2,0.3,0.2,0.4v9.9c0,0.1-0.1,0.3-0.2,0.4l-1.5,1.5c-0.1,0.1-0.3,0.2-0.4,0.2H135.3z M138.8,152.3
					c0.1,0,0.3-0.1,0.4-0.2l0.4-0.4c0.1-0.1,0.2-0.3,0.2-0.4v-8.3c0-0.1-0.1-0.3-0.2-0.4l-0.4-0.4c-0.1-0.1-0.3-0.1-0.4-0.1h-1.6
					c-0.1,0-0.2,0.1-0.2,0.2v9.7c0,0.1,0.1,0.2,0.2,0.2H138.8z"/>
				<path class="st0" d="M174.9,140.4c0.1-0.1,0.3-0.2,0.4-0.2h2.5c0.1,0,0.3,0.1,0.4,0.2l1.5,1.5c0.1,0.1,0.1,0.3,0.1,0.4v1.9
					c0,0.1-0.1,0.2-0.2,0.2h-1.5c-0.1,0-0.2-0.1-0.2-0.2v-1.1c0-0.1-0.1-0.3-0.1-0.4l-0.4-0.4c-0.1-0.1-0.3-0.1-0.4-0.1h-0.9
					c-0.1,0-0.3,0.1-0.4,0.1l-0.4,0.4c-0.1,0.1-0.2,0.3-0.2,0.4v2c0,0.1,0.1,0.3,0.1,0.4l0.4,0.4c0.1,0.1,0.2,0.2,0.4,0.2h1.7
					c0.1,0,0.3,0.1,0.4,0.1l1.5,1.5c0.1,0.1,0.1,0.3,0.1,0.4v4.1c0,0.1-0.1,0.3-0.1,0.4l-1.5,1.5c-0.1,0.1-0.3,0.1-0.4,0.1h-2.5
					c-0.1,0-0.3-0.1-0.4-0.1l-1.5-1.5c-0.1-0.1-0.2-0.3-0.2-0.4v-2.4c0-0.1,0.1-0.2,0.2-0.2h1.5c0.1,0,0.2,0.1,0.2,0.2v1.5
					c0,0.1,0.1,0.3,0.2,0.4l0.4,0.4c0.1,0.1,0.3,0.1,0.4,0.1h0.9c0.1,0,0.3-0.1,0.4-0.1l0.4-0.4c0.1-0.1,0.1-0.3,0.1-0.4v-2.5
					c0-0.1-0.1-0.3-0.1-0.4l-0.4-0.4c-0.1-0.1-0.2-0.1-0.4-0.1h-1.7c-0.1,0-0.3-0.1-0.4-0.2l-1.5-1.5c-0.1-0.1-0.1-0.3-0.1-0.4v-3.6
					c0-0.1,0.1-0.3,0.2-0.4L174.9,140.4z"/>
				<path class="st0" d="M198.6,145.8c0.1,0,0.2-0.1,0.2-0.2v-5.2c0-0.1,0.1-0.2,0.2-0.2h1.5c0.1,0,0.2,0.1,0.2,0.2V154
					c0,0.1-0.1,0.2-0.2,0.2H199c-0.1,0-0.2-0.1-0.2-0.2v-6c0-0.1-0.1-0.2-0.2-0.2h-2.2c-0.1,0-0.2,0.1-0.2,0.2v6
					c0,0.1-0.1,0.2-0.2,0.2h-1.5c-0.1,0-0.2-0.1-0.2-0.2v-13.6c0-0.1,0.1-0.2,0.2-0.2h1.5c0.1,0,0.2,0.1,0.2,0.2v5.2
					c0,0.1,0.1,0.2,0.2,0.2H198.6z"/>
				<path class="st0" d="M216.8,140.4c0.1-0.1,0.3-0.1,0.4-0.1h2.5c0.1,0,0.3,0.1,0.4,0.1l1.5,1.5c0.1,0.1,0.1,0.3,0.1,0.4v9.9
					c0,0.1-0.1,0.3-0.1,0.4l-1.5,1.5c-0.1,0.1-0.2,0.1-0.4,0.1h-2.5c-0.1,0-0.3-0.1-0.4-0.1l-1.5-1.5c-0.1-0.1-0.1-0.3-0.1-0.4v-9.9
					c0-0.1,0.1-0.3,0.1-0.4L216.8,140.4z M219.6,151.8c0.1-0.1,0.2-0.3,0.2-0.4v-8.3c0-0.1-0.1-0.3-0.2-0.4l-0.4-0.4
					c-0.1-0.1-0.3-0.2-0.4-0.2H218c-0.1,0-0.3,0.1-0.4,0.2l-0.4,0.4c-0.1,0.1-0.1,0.3-0.1,0.4v8.3c0,0.1,0.1,0.3,0.1,0.4l0.4,0.4
					c0.1,0.1,0.3,0.1,0.4,0.1h0.9c0.1,0,0.3-0.1,0.4-0.1L219.6,151.8z"/>
				<path class="st0" d="M236.1,140.5c0-0.1,0.1-0.2,0.2-0.2h4.3c0.1,0,0.3,0.1,0.4,0.1l1.5,1.5c0.1,0.1,0.2,0.3,0.2,0.4v4.6
					c0,0.1-0.1,0.3-0.2,0.4l-1.5,1.5c-0.1,0.1-0.3,0.1-0.4,0.1h-2.4c-0.1,0-0.2,0.1-0.2,0.2v4.9c0,0.1-0.1,0.2-0.2,0.2h-1.5
					c-0.1,0-0.2-0.1-0.2-0.2V140.5z M240.6,146.5c0.1-0.1,0.1-0.3,0.1-0.4v-3c0-0.1-0.1-0.3-0.1-0.4l-0.4-0.4
					c-0.1-0.1-0.2-0.1-0.4-0.1h-1.6c-0.1,0-0.2,0.1-0.2,0.2v4.4c0,0.1,0.1,0.2,0.2,0.2h1.6c0.1,0,0.3-0.1,0.4-0.1L240.6,146.5z"/>
			</g>
			<rect x="196.8" y="125.8" class="st0" width="64.9" height="2.1"/>
			<rect x="34.4" y="125.8" class="st0" width="116.8" height="2.1"/>
		</g>
	</g>
	<g id="mouseOver" class="st12">
		<rect x="-493.1" y="-26.5" class="st20" width="1280" height="240"/>
		<text transform="matrix(1 0 0 1 -32.9104 99.4924)" class="st18 st21 st22 st23">Craig’s Speed Shop</text>
	</g>
</g>
<g id="home">
</g>
<g id="NAVBAR">
	<g id="navBar">
	</g>
	<g id="mouseOver_1_">
	</g>
</g>
</svg>
