<?xml version="1.0" encoding="utf-8"?>
<!-- Generator: Adobe Illustrator 19.0.1, SVG Export Plug-In . SVG Version: 6.00 Build 0)  -->
<svg version="1.1" id="Layer_1" xmlns="http://www.w3.org/2000/svg" xmlns:xlink="http://www.w3.org/1999/xlink" x="0px" y="0px"
	 viewBox="-318 625.9 298.2 118" style="enable-background:new -318 625.9 298.2 118;" xml:space="preserve">
<style type="text/css">
	.st0{display:none;}
	.st1{display:inline;fill:#FFFFFF;}
	.st2{display:inline;fill:#CC6632;}
	.st3{font-family:'Roboto-Thin';}
	.st4{font-size:20.7575px;}
	.st5{letter-spacing:8;}
	.st6{fill:#FFFFFF;}
	.st7{fill:#630D0D;}
</style>
<g id="contact">
</g>
<g id="about">
</g>
<g id="mouseOver" class="st0">
	<rect x="-683.9" y="501.8" class="st1" width="1280" height="240"/>
	<text transform="matrix(1 0 0 1 -176.5103 627.8101)" class="st2 st3 st4 st5">Acorn Brewing</text>
</g>
<g id="home">
</g>
<g id="NAVBAR">
	<g id="navBar">
	</g>
	<g id="mouseOver_1_">
	</g>
</g>
<g>
	<g>
		<path class="st6" d="M-84.8,666.5c0,0-5.1-10.4-7.6-12.3c-6.8-4.9-14.8-5.2-35.7-8.8l0.4,30.2c3.6,1.9,20.3-1.9,26.8-2
			c11.8-0.4,20.2,6.5,28.9,6.8c4.1,0.1,8.5,0.4,9.5-1c0,0-0.7-4.2-1.3-6C-70.9,670.6-84.8,666.5-84.8,666.5z"/>
		<path class="st6" d="M-79.7,690.5L-79.7,690.5c-4.5-0.2-8.4,3.4-8.5,8c0,0.3,0,0.5,0,0.8c0.3,4.3,3.7,7.6,8,7.7c0.1,0,0.2,0,0.3,0
			c4.2,0,7.7-3.1,8.2-7.2c0-0.3,0.1-0.5,0.1-0.8C-71.6,694.4-75.2,690.6-79.7,690.5z"/>
		<path class="st6" d="M-123.3,690.1c-2.2-0.1-4.3,0.7-5.9,2.2c-1.6,1.5-2.5,3.6-2.6,5.8c0,0.3,0,0.5,0,0.8c0.3,4.3,3.7,7.6,8,7.7
			c0.1,0,0.2,0,0.3,0c4.2,0,7.7-3.1,8.2-7.2c0-0.3,0.1-0.5,0.1-0.8c0.1-2.2-0.7-4.3-2.2-5.9C-119,691.1-121.1,690.2-123.3,690.1z"/>
		<path class="st6" d="M-152.3,689.9c-2.2-0.1-4.3,0.7-5.9,2.2c-1.6,1.5-2.5,3.6-2.6,5.8c0,0.3,0,0.5,0,0.8c0.3,4.3,3.7,7.6,8,7.7
			c0.1,0,0.2,0,0.3,0c4.2,0,7.7-3.1,8.2-7.2c0-0.3,0.1-0.5,0.1-0.8c0.1-2.2-0.7-4.3-2.2-5.9C-148.1,690.9-150.1,690-152.3,689.9z"/>
		<path class="st6" d="M-239.5,689.2c-4.5-0.1-8.4,3.4-8.5,8c0,0.3,0,0.5,0,0.8c0.3,4.3,3.7,7.6,8,7.7c0.1,0,0.2,0,0.3,0
			c4.2,0,7.7-3.1,8.2-7.2c0-0.3,0.1-0.5,0.1-0.8C-231.4,693.2-235,689.4-239.5,689.2z"/>
		<path class="st6" d="M-62.2,683.5c-17.7,2.5-23.3-5-36.2-5.7c-9.2-0.5-17.6,1.3-23.5,2.4c-5.6,1-9.7-1.3-9.7-1.3s-0.1-3.3-0.1-4.5
			c0-5.8-0.5-40.4-0.5-40.4c-33-9.5-98.4-9.7-143-5.2c0,0-2,19.4-0.5,36.2c2.2,24.6,4.9,33.4,4.9,33.4c15-4.2,74.7-5,84.5-4.7
			c33.8,1.2,59.7,2.5,91.7,4c5.7,0.3,10.3,0.5,13.3,0.7c7.7,0.6,14.5,1,18,0.5C-62.3,692.8-62,687.7-62.2,683.5z M-259.4,687.2
			c-3.1,0.4-6-1.8-6.5-4.9c-0.4-3.1,1.8-6,4.9-6.5c3.1-0.4,6,1.8,6.5,4.9C-254.1,683.9-256.3,686.8-259.4,687.2z"/>
	</g>
	<g>
		<path class="st6" d="M-297,718.8h-7.2v24.8h-6.5v-24.8h-7.2v-6.5h21V718.8z"/>
		<path class="st6" d="M-270.4,732.4c0.8,0.7,1.5,1.6,2.1,2.5c0.6,0.9,1.1,1.9,1.5,2.9c0.4,1,0.7,2,0.8,3c0.2,1,0.3,1.9,0.3,2.8
			h-3.2h-3.2c0-0.2,0-0.5-0.1-1c0-0.5-0.1-1-0.3-1.6c-0.1-0.6-0.4-1.1-0.6-1.7c-0.3-0.6-0.7-1.1-1.2-1.7c-0.5-0.5-1.1-0.9-1.9-1.2
			c-0.7-0.3-1.6-0.5-2.7-0.5h-7.7v7.7h-6.4v-31.3h14.1c0.1,0,0.4,0,0.9,0.1c0.5,0,1.1,0.2,1.9,0.4c0.7,0.2,1.5,0.5,2.4,1
			c0.9,0.4,1.7,1,2.5,1.8c2.4,2.4,3.5,5.6,3.5,9.7c0,1.6-0.2,3-0.7,4.2C-268.9,730.6-269.6,731.6-270.4,732.4z M-278.8,729.4
			c0.3,0,0.8-0.1,1.3-0.1c0.5-0.1,1.1-0.3,1.6-0.6s0.9-0.7,1.3-1.3c0.4-0.6,0.5-1.3,0.5-2.2c0-1.5-0.2-2.6-0.6-3.5
			c-0.4-0.9-0.8-1.5-1.4-2c-0.5-0.4-1.1-0.7-1.6-0.9c-0.5-0.1-1-0.2-1.2-0.2h-7.7v10.8H-278.8z"/>
		<path class="st6" d="M-236.7,712.3v17c0,0.8-0.1,1.7-0.3,2.7c-0.2,1-0.4,2-0.8,3.1c-0.4,1.1-0.9,2.1-1.5,3.1
			c-0.6,1-1.4,1.9-2.4,2.7c-0.9,0.8-2,1.4-3.3,1.9c-1.3,0.5-2.7,0.7-4.4,0.7h0c-1.7,0-3.3-0.3-4.7-0.9c-1.4-0.6-2.7-1.4-3.8-2.5
			c-1-1-1.8-2.1-2.4-3.3c-0.6-1.2-1-2.3-1.2-3.4c-0.3-1.1-0.4-2-0.5-2.8c-0.1-0.8-0.1-1.3-0.1-1.4v-17h6.5v17c0,0.2,0,0.6,0,1
			c0,0.5,0.1,1,0.3,1.5c0.1,0.6,0.3,1.1,0.6,1.7c0.3,0.6,0.6,1.1,1.1,1.7c0.5,0.5,1,0.9,1.7,1.2c0.7,0.3,1.5,0.5,2.5,0.5
			c1.4,0,2.6-0.3,3.4-1c0.8-0.7,1.4-1.5,1.8-2.3c0.4-0.9,0.7-1.7,0.8-2.6c0.1-0.9,0.1-1.4,0.1-1.7v-17H-236.7z"/>
		<path class="st6" d="M-204.1,736.1c-0.7,1.1-1.5,2.1-2.4,3c-0.9,0.9-2,1.7-3.1,2.3c-1.1,0.7-2.4,1.2-3.7,1.5
			c-1.3,0.4-2.7,0.5-4,0.5c-2.2,0-4.2-0.4-6.1-1.2c-1.9-0.8-3.5-1.9-4.9-3.4c-1.4-1.4-2.5-3.1-3.3-5c-0.8-1.9-1.2-3.9-1.2-6.1
			c0-2.2,0.4-4.2,1.2-6.1c0.8-1.9,1.9-3.5,3.3-5c1.4-1.4,3.1-2.5,4.9-3.4c1.9-0.8,3.9-1.2,6.1-1.2c1.4,0,2.7,0.2,4,0.5
			c1.3,0.4,2.5,0.9,3.7,1.5c1.1,0.7,2.2,1.4,3.1,2.4c0.9,0.9,1.7,1.9,2.4,3l-4.8,4.8c-0.3-0.9-0.8-1.6-1.3-2.3
			c-0.6-0.7-1.2-1.3-1.9-1.8c-0.7-0.5-1.5-0.9-2.4-1.2c-0.9-0.3-1.8-0.4-2.8-0.4c-1.2,0-2.4,0.2-3.6,0.7c-1.1,0.5-2.1,1.1-2.9,2
			c-0.8,0.8-1.5,1.8-2,2.9c-0.5,1.1-0.7,2.3-0.7,3.6c0,1.3,0.2,2.5,0.7,3.6c0.5,1.1,1.1,2.1,2,2.9c0.8,0.8,1.8,1.5,2.9,2
			c1.1,0.5,2.3,0.7,3.6,0.7c1,0,1.9-0.1,2.8-0.4c0.9-0.3,1.7-0.7,2.4-1.2c0.7-0.5,1.4-1.1,1.9-1.8s1-1.5,1.3-2.3L-204.1,736.1z"/>
		<path class="st6" d="M-175.3,712.2c0,1.6-0.1,3.1-0.3,4.4c-0.2,1.3-0.5,2.6-0.9,3.7c-0.4,1.1-0.8,2.1-1.2,3
			c-0.5,0.9-0.9,1.7-1.4,2.4c-1.1,1.6-2.3,2.9-3.7,3.9c1.3,0,2.5,0.2,3.5,0.6c1,0.4,1.9,0.9,2.7,1.6c0.8,0.7,1.4,1.4,1.9,2.2
			c0.5,0.8,0.9,1.7,1.3,2.5c0.8,2,1.2,4.4,1.4,6.9h-6.4c0-0.9-0.1-1.8-0.3-2.5s-0.5-1.4-0.8-1.9c-0.3-0.5-0.7-1-1.1-1.4
			c-0.4-0.4-0.8-0.7-1.2-0.9c-1-0.6-2.1-0.9-3.3-1h-7.7v7.7h-6.4v-31.3h6.4v14.2c1.3,0,2.5-0.2,3.6-0.6c1-0.4,1.9-0.9,2.7-1.6
			c0.8-0.7,1.4-1.4,2-2.3c0.6-0.9,1-1.7,1.4-2.6c0.9-2.1,1.4-4.4,1.6-7.1H-175.3z"/>
		<path class="st7" d="M-141.4,736.1c-0.7,1.1-1.5,2.1-2.4,3c-0.9,0.9-2,1.7-3.1,2.3c-1.1,0.7-2.4,1.2-3.7,1.5
			c-1.3,0.4-2.7,0.5-4,0.5c-2.2,0-4.2-0.4-6.1-1.2c-1.9-0.8-3.5-1.9-4.9-3.4s-2.5-3.1-3.3-5c-0.8-1.9-1.2-3.9-1.2-6.1
			c0-2.2,0.4-4.2,1.2-6.1c0.8-1.9,1.9-3.5,3.3-5c1.4-1.4,3-2.5,4.9-3.4c1.9-0.8,3.9-1.2,6.1-1.2c1.4,0,2.7,0.2,4,0.5
			c1.3,0.4,2.5,0.9,3.7,1.5c1.1,0.7,2.2,1.4,3.1,2.4c0.9,0.9,1.7,1.9,2.4,3l-4.8,4.8c-0.3-0.9-0.8-1.6-1.3-2.3
			c-0.6-0.7-1.2-1.3-1.9-1.8c-0.7-0.5-1.5-0.9-2.4-1.2c-0.9-0.3-1.8-0.4-2.8-0.4c-1.2,0-2.4,0.2-3.6,0.7c-1.1,0.5-2.1,1.1-2.9,2
			c-0.8,0.8-1.5,1.8-2,2.9c-0.5,1.1-0.7,2.3-0.7,3.6c0,1.3,0.2,2.5,0.7,3.6c0.5,1.1,1.1,2.1,2,2.9c0.8,0.8,1.8,1.5,2.9,2
			c1.1,0.5,2.3,0.7,3.6,0.7c1,0,1.9-0.1,2.8-0.4c0.9-0.3,1.7-0.7,2.4-1.2c0.7-0.5,1.4-1.1,1.9-1.8s1-1.5,1.3-2.3L-141.4,736.1z"/>
		<path class="st7" d="M-112.6,712.3v31.2h-6.6v-11.4H-130v11.4h-6.5v-31.2h6.5v13.3h10.9v-13.3H-112.6z"/>
		<path class="st7" d="M-92.4,743.5c-2.2,0-4.2-0.4-6.1-1.2c-1.9-0.8-3.5-1.9-4.9-3.4s-2.5-3.1-3.3-5c-0.8-1.9-1.2-3.9-1.2-6.1
			c0-2.2,0.4-4.2,1.2-6.1c0.8-1.9,1.9-3.5,3.3-5c1.4-1.4,3-2.5,4.9-3.4c1.9-0.8,3.9-1.2,6.1-1.2c2.2,0,4.2,0.4,6.1,1.2
			c1.9,0.8,3.5,1.9,4.9,3.4c1.4,1.4,2.5,3.1,3.3,5c0.8,1.9,1.2,3.9,1.2,6.1c0,2.2-0.4,4.2-1.2,6.1c-0.8,1.9-1.9,3.5-3.3,5
			c-1.4,1.4-3.1,2.5-4.9,3.4C-88.2,743.1-90.2,743.5-92.4,743.5z M-92.4,718.7c-1.3,0-2.5,0.2-3.6,0.7c-1.1,0.5-2.1,1.1-2.9,2
			c-0.8,0.8-1.5,1.8-2,2.9c-0.5,1.1-0.7,2.3-0.7,3.6c0,1.3,0.2,2.5,0.7,3.6c0.5,1.1,1.1,2.1,2,2.9c0.8,0.8,1.8,1.5,2.9,2
			c1.1,0.5,2.3,0.7,3.6,0.7c1.2,0,2.4-0.2,3.5-0.7c1.1-0.5,2.1-1.1,2.9-2c0.8-0.8,1.5-1.8,2-2.9c0.5-1.1,0.7-2.3,0.7-3.6
			c0-1.3-0.2-2.5-0.7-3.6c-0.5-1.1-1.1-2.1-2-2.9c-0.8-0.8-1.8-1.5-2.9-2C-89.9,718.9-91.1,718.7-92.4,718.7z"/>
		<path class="st7" d="M-65.8,743.5h-6.4v-31.3h15.2c1,0,2.1,0.2,3.3,0.6s2.3,1,3.3,1.9c1,0.9,1.9,2,2.5,3.4s1,3.1,1,5.2
			c0,4-1.1,7.1-3.4,9.3c-0.7,0.7-1.5,1.3-2.3,1.7s-1.5,0.7-2.2,0.9c-0.7,0.2-1.3,0.3-1.8,0.3c-0.5,0-0.8,0-1,0h-8.1V743.5z
			 M-65.8,729.3h8.3h0c0.3,0,0.7-0.1,1.2-0.2c0.5-0.1,0.9-0.4,1.4-0.8c0.4-0.4,0.8-1,1.1-1.8c0.3-0.8,0.5-1.8,0.5-3.1
			c0-1-0.1-1.8-0.4-2.4c-0.3-0.6-0.6-1.1-1-1.4c-0.4-0.3-0.8-0.6-1.2-0.7c-0.4-0.1-0.8-0.2-1.2-0.2h-8.7V729.3z"/>
		<path class="st7" d="M-31.8,743.8c-1.6,0-3.1-0.3-4.5-0.8c-1.4-0.5-2.6-1.2-3.7-2c-1.1-0.9-1.9-1.9-2.5-3
			c-0.6-1.1-0.9-2.4-0.9-3.6h6.5c0,0.3,0.1,0.6,0.4,0.9c0.2,0.3,0.6,0.7,1,1c0.4,0.3,1,0.6,1.6,0.8c0.6,0.2,1.3,0.3,2.1,0.3
			c1.3,0,2.3-0.1,3-0.4c0.7-0.3,1.3-0.6,1.7-1c0.4-0.4,0.7-0.8,0.9-1.4c0-0.3,0-0.7-0.1-1c0-0.3-0.2-0.7-0.4-0.9
			c-0.4-0.5-1.1-0.9-2-1.1c-1-0.3-2.2-0.4-3.6-0.4c-1.1,0-2.1-0.1-2.9-0.3s-1.6-0.4-2.3-0.7c-0.7-0.3-1.2-0.6-1.7-1
			c-0.5-0.4-0.9-0.7-1.2-1.1c-0.6-0.7-1.1-1.4-1.4-2.2c-0.3-0.8-0.6-1.5-0.7-2.1c-0.1-0.7-0.2-1.2-0.2-1.7c0-0.5,0-0.9,0-1.1
			c0-0.2,0-0.5,0.1-1c0.1-0.4,0.2-0.9,0.4-1.5c0.2-0.5,0.4-1.1,0.8-1.7c0.3-0.6,0.8-1.2,1.3-1.8c2.1-2.1,5-3.1,8.6-3.1
			c3.6,0,6.5,1.1,8.5,3.2c0.7,0.7,1.3,1.5,1.7,2.3c0.4,0.8,0.7,1.5,0.9,2.2c0.2,0.7,0.3,1.3,0.3,1.7c0,0.5,0,0.8,0,0.9l-6.5-0.2v0.1
			c0-0.3-0.1-0.7-0.2-1.2c-0.1-0.4-0.3-0.9-0.7-1.2c-0.3-0.4-0.8-0.7-1.5-1c-0.7-0.3-1.5-0.4-2.6-0.4c-1,0-1.8,0.1-2.4,0.3
			c-0.6,0.2-1.1,0.4-1.4,0.7c-0.3,0.3-0.5,0.6-0.7,0.9s-0.2,0.6-0.2,0.8v0.3l0,0c0,0.3,0,0.6,0.1,0.9c0.1,0.2,0.1,0.5,0.2,0.7
			c0.1,0.3,0.2,0.5,0.5,0.7c0.7,0.7,1.7,1,3.3,1c4,0,7.1,0.9,9.3,2.6c2.2,1.7,3.3,4.2,3.3,7.4c0,0.9-0.2,1.9-0.7,3
			c-0.4,1.1-1.1,2.1-2.1,3s-2.2,1.7-3.7,2.3C-27.8,743.5-29.7,743.8-31.8,743.8z"/>
	</g>
</g>
</svg>
