<?xml version="1.0" encoding="utf-8"?>
<!-- Generator: Adobe Illustrator 19.0.1, SVG Export Plug-In . SVG Version: 6.00 Build 0)  -->
<svg version="1.1" id="Layer_1" xmlns="http://www.w3.org/2000/svg" xmlns:xlink="http://www.w3.org/1999/xlink" x="0px" y="0px"
	 viewBox="98 -29 243.7 107" style="enable-background:new 98 -29 243.7 107;" xml:space="preserve">
<g>
	<polygon points="262.6,0.4 263.6,0.4 263.6,6.8 266.6,6.8 266.6,7.6 262.6,7.6 	"/>
	<path d="M270.8,5.3l-0.7,2.3h-1l2.4-7.2h1.1l2.4,7.2h-1l-0.8-2.3H270.8z M273.1,4.6l-0.7-2.1c-0.1-0.5-0.3-0.9-0.4-1.3l0,0
		c-0.1,0.4-0.2,0.9-0.4,1.3l-0.7,2.1H273.1z"/>
	<path d="M277.9,6.4c0.4,0.3,1,0.5,1.7,0.5c1,0,1.5-0.5,1.5-1.2s-0.4-1.1-1.4-1.4c-1.2-0.4-1.9-1-1.9-2c0-1.1,0.9-2,2.3-2
		c0.7,0,1.3,0.2,1.6,0.3l-0.3,0.8c-0.2-0.1-0.7-0.3-1.4-0.3c-1,0-1.4,0.6-1.4,1.1c0,0.7,0.4,1,1.4,1.4c1.2,0.5,1.8,1.1,1.8,2.1
		c0,1.1-0.8,2.1-2.5,2.1c-0.7,0-1.4-0.2-1.8-0.5L277.9,6.4z"/>
	<path d="M291,7.6l-2.4-7.2h1l1.1,3.5c0.3,1,0.6,1.9,0.8,2.7l0,0c0.2-0.8,0.5-1.7,0.8-2.7l1.2-3.6h1l-2.6,7.2L291,7.6L291,7.6z"/>
	<polygon points="301,4.2 298.2,4.2 298.2,6.8 301.3,6.8 301.3,7.6 297.3,7.6 297.3,0.4 301.2,0.4 301.2,1.1 298.2,1.1 298.2,3.4 
		301,3.4 	"/>
	<path d="M309.9,7.2c-0.4,0.2-1.2,0.4-2.2,0.4c-1.1,0-2-0.3-2.7-0.9c-0.6-0.6-1-1.6-1-2.7c0-2.1,1.5-3.7,3.9-3.7
		c0.8,0,1.5,0.2,1.8,0.3l-0.2,0.8c-0.4-0.2-0.9-0.3-1.6-0.3c-1.8,0-2.9,1.1-2.9,2.9c0,1.8,1.1,2.9,2.8,2.9c0.6,0,1-0.1,1.2-0.2V4.6
		h-1.4V3.8h2.4v3.4H309.9z"/>
	<path d="M314.4,5.3l-0.7,2.3h-1l2.4-7.2h1.1l2.5,7.2h-1l-0.8-2.3H314.4z M316.8,4.6l-0.7-2.1c-0.1-0.5-0.3-0.9-0.4-1.3l0,0
		c-0.1,0.4-0.2,0.9-0.4,1.3l-0.7,2.1H316.8z"/>
	<path d="M321.6,6.4c0.4,0.3,1,0.5,1.7,0.5c0.9,0,1.5-0.5,1.5-1.2s-0.4-1.1-1.4-1.4c-1.2-0.4-1.9-1-1.9-2c0-1.1,0.9-2,2.3-2
		c0.7,0,1.3,0.2,1.6,0.3l-0.3,0.8c-0.2-0.1-0.7-0.3-1.4-0.3c-1,0-1.4,0.6-1.4,1.1c0,0.7,0.4,1,1.4,1.4c1.2,0.5,1.8,1.1,1.8,2.1
		c0,1.1-0.8,2.1-2.5,2.1c-0.7,0-1.4-0.2-1.8-0.5L321.6,6.4z"/>
	<path d="M122.1,21.7c-0.4,0,0,0.9-0.1,1.3c-0.1,0.4-0.4,2.4-0.4,2.8c-0.4,4.3,3,3.6,5.8,4.5c1.6,0.2,8.7-0.9,17.5-9.1
		c3.6-3.4,7-6.2,12-12.7c5.9-7.6,3.9-6.8,9.3-14.3c1.3-2.1,2.6-4.1,4-6.2c1.9-2.7,4.5-5.7,5.3-8.9c0.8-2.7-1.2-7.7-4.3-7.9
		c-0.1-0.2-2.1,0.4-2,1.6c0.4,2,0.6,5.1-0.1,6.9c-1.7,4-4.6,7.5-6.7,11.5c-9.2,17.1-20,27.1-30.5,33.8c-0.8,0.5-4.7,1.9-5.5,0.5
		c-2.2-4.4,7.7-14.3,9.1-18.3c0-0.6,0.1-1.1,0.1-1.7c-0.2-0.4-0.4-0.8-0.6-1.3c-0.6-0.5-1.4-0.5-2.2-0.5c-0.1,0-0.3,0-0.4,0.1
		c-0.1,0-0.3,0.1-0.4,0.1c-2.8,1.1-4.3,4.3-6.6,6.3c-2.9,2.5-6.1,4.9-9.3,6.9c-1.8,1.2-4.5,3.2-5.5,3.9s-4.2,3-6.3,2.4
		c-1.1-0.3-1.2-1.7-1-2.7c0.8-3.4,4.6-6.5,7.1-8.9c2.6-2.5,5.1-6,6.9-9.1c0.8-1.3,1.9-2.8,1.9-4.4c-0.1-6.6-8.4,1.9-9.4,4
		c0.1,0,0.1,0,0.2,0c-0.7,0.7-1.3,1.4-2,2.1c-3.6,6.2-16.1,18.7-6.4,25c1.5,0.9,3.6,1.2,7.1-0.9C111.3,27,119.6,21.1,122.1,21.7"/>
	<path d="M167.4,40c-2.3,15-7.2,24.7-22.1,30.1c-1,0.4-4.5,1.3-5,1.4c-7.7,0.6-13.3,0.8-19-3.1c-1.2-0.8-2.4-3.5-2.2-5.2
		c0.8-5.1,4.9-8.5,8.6-12.1c5.1-5.1,10.3-9.7,15.9-14c3.4-2.5,6.7-5,10.1-7.5c1.1-0.1,2.3,0.3,3.6,0.2c2.6-0.4,7.9-2.6,10-4.2
		c0.1-0.3,1.6-0.8,1.8-0.1c0.2,0.8,0.3,1.5,0.4,2.3C169.5,32,168,35.9,167.4,40 M260.8,30.1c1.2-0.2,17.8-4.7,25.4-3.9
		c3.5,0,13.7,3.2,17,3.4c2.7,0.3,12.6,0.5,12.8,0.5c3.3,0,6.7,0.2,8.8-2.8c0.5-0.7-0.1-1.2-0.7-1.4c-2.8-0.9-8.1-0.6-9.6-0.4
		c-13.3,1-16.8-2.2-29.3-3.1c-3.4-0.2-24.2,3.8-24.8,3.9c0,0-2.7,0.5-5.4,1.3c-2.8,0.7-3-1.9-3.1-2.8c-0.1-0.9,1.1-6.2,1.4-7.4
		c0.6-2.5-0.6-4.4-1.8-4.5c-1.3-0.1-3.7,1.5-4.7,2.3c-1,0.9-8,5.6-10,7.3s-2.7-0.5-2.1-1.4c0.5-0.9,1.7-3.9,2.3-5.7s-0.6-3-1.7-3.5
		c-1.1-0.5-3.3,0.8-3.9,1.5c-0.6,0.6-4,3-6.3,4.6c-2.2,1.6-8.2,4.9-10.8,6.2c-2.7,1.3-2.7-1.9-2.4-3.4c0.2-1.5,0.8-3.9,1.2-6.5
		c0.4-3.4-2.9-2.7-4.1-2c-1.3,0.6-11.6,7.9-13,8.9c-1.4,1.1-1.4-0.8-1.3-1.4c0.1-0.6,0.3-1.9,1.5-4.5s0.2-3.3,0-4.5
		s-2.8-0.6-4.8,0.2c-1.1,0.5-13.4,4.9-13.9,5c-0.4,0-0.8,0.1-1.2,0.1c0-0.1-0.2-0.1-0.2-0.4c0-1.3-0.6-2.4-2.1-2.1
		c-3.2,0.4-4.9,3.3-7.3,5.2c-3.3,2.6-6.6,5.5-10.4,7.3c-1.1,0.6-0.9-2-0.1-3c5.1-6.1,3.2-4,5.6-6.7c1.8-2.4,4.3-5,5.3-7.8
		c0.8-2.6-0.4-6.8-3.2-7.1c-1-0.1-1.8,0.8-1.8,1.5c0.1,1.8-0.1,3.9-0.9,5.5c-1.6,3.6-4,7-6.6,10.1c-3.8,4.5-4,8.3-4,8.3
		s-5.9,3.9-8.2,5.9c-3.7,3.1-7.4,6.1-11.1,9.2c-6.4,5.8-22.2,16.5-16.9,26.8c1.1,2.2,2.9,4.2,5.2,5.4c3.4,1.8,8,3.8,12.3,3.5
		c0.3,0.1,0.7,0.1,1,0.1c3.4,0.1,7-0.4,10.1-1.4c20.3-6.5,33-28.6,31.4-50.3c-0.1-1.2,0.6-2.7,1.5-3.5c2.1-1.9,10.2-7,12.7-7.4
		c3.1-0.5,1.7,4.2,1.3,5.6c-0.4,1.5-1.7,3.6-1.9,5.4c-0.2,1.8,1.6,2.6,3,3.1c1.8,0.6,4.5-1.7,5.3-2.4s8.6-7.4,10-8.4
		c1.4-1,1.6,1.2,1.4,2.1c-0.2,1-0.8,3.5-1,5.1c-0.1,1.6,0.2,3.3,1.6,4.1c1.4,0.9,2.8,0.2,4.4-0.7c1.6-1,11.6-7.5,12.4-8
		c0.9-0.4,3.3-2.3,4.9-2.8c1.6-0.4,1.5,1.4,0.7,3c-0.3,0.6-1,3.6-1.3,5.1s-0.4,3.1,1.4,4.6c1.4,1.2,4.7-2,5.5-2.8
		c0.8-0.7,8.2-7.3,9.6-8.2c1.4-0.9,2,1.2,1.5,3.2c-0.6,2.3-0.8,4.5-0.4,5.3c1,1.8,2.8,2.8,7.3,2.3C255.1,31.2,260.8,30.1,260.8,30.1
		"/>
	<path d="M329.6,28.2c0.5,1.3,1.3,2.4,3.5,2.8c1,0.2,2.3-0.4,2.5-1.1c0.2-0.9,0.7-1.3,0.5-2.4c-0.3-1.4-1.3-2.4-3.5-2.8
		c-1-0.2-2.3,0.4-2.5,1.1C329.8,26.6,329.2,27.1,329.6,28.2"/>
	<path d="M339.8,31.1c1,0,1.9,0.8,1.9,1.9c0,1-0.8,1.9-1.9,1.9c-1,0-1.9-0.8-1.9-1.9C338,31.9,338.8,31.1,339.8,31.1z M339.8,34.5
		c0.8,0,1.5-0.7,1.5-1.5c0-0.8-0.7-1.5-1.5-1.5c-0.8,0-1.5,0.7-1.5,1.5C338.3,33.8,339,34.5,339.8,34.5z M339.1,31.9h0.8
		c0.5,0,0.8,0.2,0.8,0.6c0,0.4-0.2,0.5-0.5,0.6l0.6,0.9h-0.5l-0.5-0.9h-0.3V34h-0.4V31.9L339.1,31.9z M339.5,32.8h0.3
		c0.2,0,0.5,0,0.5-0.3c0-0.3-0.3-0.3-0.5-0.3h-0.3V32.8z"/>
</g>
</svg>
