<?xml version="1.0" encoding="utf-8"?>
<!-- Generator: Adobe Illustrator 19.0.1, SVG Export Plug-In . SVG Version: 6.00 Build 0)  -->
<svg version="1.1" xmlns="http://www.w3.org/2000/svg" xmlns:xlink="http://www.w3.org/1999/xlink" x="0px" y="0px"
	 viewBox="0 0 233.7 153.7" style="enable-background:new 0 0 233.7 153.7;" xml:space="preserve">
<style type="text/css">
	.st0{fill:#FFFFFF;}
	.st1{fill:#3399CC;}
	.st2{fill:#FF9966;}
	.st3{fill:#382C3D;}
	.st4{fill:#221F20;}
	.st5{fill:#FFCC66;}
	.st6{fill:#3D220E;}
	.st7{fill:none;stroke:#FFFFFF;stroke-width:0.5618;stroke-miterlimit:10;}
	.st8{fill:#CDCBCA;}
	.st9{fill:#669897;}
	.st10{fill:#CC6632;}
	.st11{fill:none;stroke:#FFFFFF;stroke-width:2.3528;stroke-miterlimit:10;}
	.st12{display:none;}
	.st13{display:inline;fill:#3D220E;}
	.st14{display:inline;fill:#FF9966;}
	.st15{display:inline;}
	.st16{display:inline;fill:#382C3D;}
	.st17{fill:#CDCAC9;}
	.st18{display:inline;fill:#FFFFFF;}
	.st19{font-family:'Roboto-Thin';}
	.st20{font-size:20.7575px;}
	.st21{letter-spacing:10;}
	.st22{fill:#FDCC66;}
	.st23{display:inline;fill:#669897;}
	.st24{display:inline;fill:#362012;}
	.st25{fill:url(#SVGID_5_);}
	.st26{fill:url(#SVGID_6_);}
	.st27{fill:url(#SVGID_7_);}
	.st28{fill:#999999;}
	.st29{fill:#CC6633;}
	.st30{opacity:0.5;fill:#653614;}
	.st31{opacity:0.69;fill:#FF9966;}
</style>
<g id="contact">
</g>
<g id="about">
</g>
<g id="WORK">
	<g id="work">
		<g>
			<g>
				<circle class="st7" cx="116.2" cy="37.1" r="34.8"/>
				<circle class="st7" cx="116.2" cy="37.1" r="36.9"/>
				<path class="st0" d="M139,35.9c0-0.1,0.1-0.1,0.2-0.1c0.1,0,0.2,0.1,0.2,0.2c0,0.2,0,0.3,0,0.5c0,0.1,0,0.3,0,0.4h0.1
					c0.2,0,0.3,0.1,0.3,0.3c0,0.1,0,0.2,0.1,0.3c0.2,0,0.4,0.1,0.6,0.1c0.2,0.1,0.5,0.1,0.7,0.3c0.1,0,0.1,0.1,0.1,0.2
					c0,0.1-0.1,0.1-0.2,0.1c-0.3-0.1-0.7-0.1-1.1-0.1c0,0.1-0.1,0.1-0.2,0.1h-0.1c-0.1,0.5-0.1,1-0.1,1.5c0.3-0.1,0.5-0.2,0.8-0.3
					c0.3-0.1,0.4-0.2,0.4-0.3c0-0.1,0.1-0.1,0.2-0.1c0.1,0,0.1,0.1,0.1,0.2c0,0.2-0.2,0.4-0.6,0.6c-0.3,0.2-0.7,0.3-1,0.5
					c0,0,0,0,0,0c0,0,0,0,0,0v0c0,0.1,0,0.2-0.1,0.3c0,0.2,0,0.4,0,0.5c0,0.2,0,0.4,0,0.5c0,0.1,0,0.2,0,0.4c0,0.1,0,0.2,0,0.3v0.3
					c0,0.1-0.1,0.2-0.2,0.2c-0.1,0-0.1,0-0.2-0.1c-0.1-0.3-0.1-0.7-0.1-1c0-0.3-0.1-0.7-0.1-1c-0.4,0.1-0.8,0.3-1.1,0.5
					c-0.3,0.2-0.7,0.4-1,0.7c-0.3,0.2-0.7,0.5-1,0.7c-0.3,0.2-0.7,0.3-1.1,0.4c0,0.4,0,0.9,0,1.3c0,0.4,0,0.9,0,1.3
					c0,0.5,0,0.9,0,1.4c0,0.5,0,0.9,0,1.4c0,0,0,0.1-0.1,0.2c0,0.3,0,0.6,0,1c0,0.3,0,0.6,0,1v0.6c0,0.6,0,1.1-0.1,1.5v0.9
					c0,0.3-0.1,0.5-0.3,0.6c0,0.1,0,0.3,0,0.4c0,0.1,0,0.3,0.1,0.4c0.1,0,0.1,0.1,0.1,0.2c0,0.1,0,0.1,0,0.1c0,0.1-0.1,0.1-0.1,0.1
					c-0.1,0-0.1,0-0.2-0.1c0-0.2-0.1-0.3-0.1-0.5c0-0.2-0.1-0.3-0.1-0.5c-0.2,0.1-0.4,0.3-0.6,0.4l-0.4,0.4c0,0,0,0,0,0.1l-0.1,0
					c-0.6,0.5-1.3,1-2.1,1.5c-0.1,0.1-0.2,0.1-0.4,0.2c-0.4,0.3-0.7,0.6-1.1,0.9c-0.4,0.3-0.8,0.5-1.2,0.7c-0.6,0.2-1.3,0.4-1.9,0.6
					c-0.6,0.1-1.3,0.3-1.9,0.5c-0.8,0.2-1.5,0.4-2.3,0.7c-0.8,0.3-1.5,0.4-2.3,0.5c-2.9,0.2-5.8,0.1-8.6-0.4
					c-2.8-0.5-5.5-1.4-8.1-2.8c-0.3-0.2-0.7-0.4-1.2-0.7c-0.5-0.3-1-0.7-1.6-1.1c-0.6-0.4-1.1-0.8-1.7-1.3c-0.6-0.5-1.1-1-1.6-1.5
					c-0.5-0.5-0.9-1-1.3-1.5c-0.4-0.5-0.6-1-0.7-1.5v0c-0.2-0.5-0.4-1.1-0.5-1.6c-0.1-0.5-0.3-1.1-0.5-1.7c-0.1-0.3-0.2-0.5-0.3-0.7
					c-0.1-0.2-0.2-0.5-0.3-0.7c-0.1-0.3-0.2-0.6-0.2-0.9c0-0.3-0.1-0.6-0.1-0.9c-0.1-0.4-0.2-0.8-0.3-1.2c-0.1-0.3-0.2-0.6-0.3-1
					c-0.1-0.3-0.2-0.6-0.3-1c-0.1-0.3-0.1-0.8-0.2-1.3c-0.1-0.9,0-1.8,0-2.8c0.1-0.9,0.2-1.9,0.4-2.8c0.1-0.9,0.3-1.7,0.6-2.5
					c0-0.1,0.1-0.2,0.2-0.2c0.2-0.6,0.4-1.1,0.6-1.6c0.2-0.5,0.4-1.1,0.7-1.6c0.3-0.6,0.6-1.2,1-1.8c0.4-0.5,0.8-1.1,1.2-1.6
					c0.3-0.4,0.6-0.8,0.9-1.3c0.3-0.5,0.6-1,0.9-1.4c0.3-0.5,0.7-0.9,1-1.2c0.4-0.4,0.8-0.6,1.3-0.8h0c0.7-0.6,1.4-1.2,2-1.6
					c0.7-0.4,1.3-0.8,2-1.1c0.7-0.3,1.4-0.6,2.2-0.8c0.8-0.2,1.6-0.4,2.5-0.7c1.6-0.4,3-0.7,4.3-0.9c0.2,0,0.3,0,0.5,0
					c0.5-0.1,0.9-0.1,1.3-0.1c0.4,0,0.9,0,1.3,0c0.6,0,1.2,0.1,1.8,0.1c1.4,0.1,2.8,0.4,4.1,1c0.4,0,0.7,0.1,1.1,0.1
					c0.3,0.1,0.7,0.1,1,0.3c0.4,0.1,0.7,0.3,1.1,0.5c0.4,0.2,0.8,0.5,1.2,0.8c0.1-0.1,0.1-0.2,0.2-0.3c0.1-0.1,0.2-0.2,0.3-0.3
					c0,0,0-0.1,0-0.2c0-0.1,0-0.2,0.1-0.2c-0.1,0-0.3,0-0.5,0.1h-0.1c0,0-0.1,0-0.1,0c-0.1,0-0.2-0.1-0.2-0.2c0-0.1,0-0.1,0.1-0.2
					c0.1,0,0.2-0.1,0.2-0.1c0.1,0,0.2,0,0.3,0c0-0.1,0.1-0.1,0.2-0.1h0.5c0.1-0.3,0.3-0.6,0.4-0.8c0.2-0.3,0.4-0.5,0.6-0.6
					c0.1-0.1,0.1-0.1,0.2,0c0.1,0.1,0.1,0.1,0.1,0.2c0,0.1-0.1,0.1-0.1,0.2c0,0.1-0.1,0.1-0.1,0.2c-0.1,0.1-0.2,0.2-0.2,0.1
					c-0.1,0.1-0.1,0.2-0.1,0.3c0,0.1-0.1,0.2-0.1,0.3c0,0,0.1,0,0.1,0c0.4,0,0.8,0,1.3,0c0.4,0,0.8,0.1,1.3,0.1
					c0.1-0.1,0.2-0.2,0.3-0.2c0-0.2,0-0.4,0-0.6c0-0.2,0-0.4,0-0.6c0-0.1,0.1-0.1,0.2-0.1c0.1,0,0.2,0.1,0.2,0.2c0,0.1,0,0.3,0,0.4
					c0,0.1,0,0.3,0,0.4c0.1,0,0.2,0.1,0.2,0.3v0.2c0,0,0,0.1,0,0.1c0,0,0,0,0,0.1c0.2,0,0.4,0,0.6,0c0.2,0,0.4,0,0.6,0
					c0.1,0,0.2,0.1,0.2,0.2c0,0.1-0.1,0.1-0.2,0.1c-0.1,0-0.3,0-0.4,0c-0.1,0-0.3,0-0.4,0c0,0,0,0.1,0.1,0.1c0,0,0,0.1,0,0.1
					c0,0.1-0.1,0.2-0.2,0.2l-0.2,0c0,2.2-0.1,4.3-0.1,6.5c0,2.1-0.1,4.3-0.1,6.5c0.2,0,0.4,0.1,0.6,0.1c0.2,0,0.4,0.1,0.6,0.1
					c0-0.1,0-0.1,0-0.2c0.1,0,0.1,0,0.2,0c0.1,0.1,0.1,0.2,0.2,0.3c0,0.1-0.1,0.1-0.2,0.2l-0.1,0.1c-0.1,0-0.2,0.1-0.2,0.1
					c-0.1,0-0.1,0.1-0.2,0.1c0.1,0,0.1,0.1,0.1,0.2v0.1c0,0.1-0.1,0.2-0.3,0.2h-0.1c-0.3-0.1-0.6-0.1-1-0.2c0,0.3,0,0.6,0,0.8
					c0,0.3,0,0.5,0,0.8c0,0.1-0.1,0.2-0.2,0.2c-0.1,0-0.2-0.1-0.2-0.2c0-0.3,0-0.5,0-0.8c0-0.3,0-0.5,0-0.8l0,0l-0.7-0.1
					c-0.3,0-0.7,0-1.1,0c0.1,0.2,0.3,0.4,0.4,0.7c0.1,0.2,0.3,0.4,0.4,0.6c0.1,0.1,0.1,0.2,0,0.2c-0.1,0.1-0.1,0.1-0.2,0
					c0,0-0.1-0.1-0.1-0.1c0,0-0.1,0-0.1-0.1c0,0.1,0.1,0.2,0.2,0.4c0.1,0.1,0.1,0.2,0,0.2c-0.1,0.1-0.1,0.1-0.2,0
					c-0.3-0.3-0.5-0.6-0.7-0.9c-0.2-0.3-0.4-0.7-0.5-1h-0.1l0,0.1v0.2c0,0.2,0,0.3-0.1,0.3c-0.1,0.1-0.1,0.1-0.2,0.1h-0.1
					c-0.1,0-0.2-0.1-0.3-0.2c0,0,0-0.1-0.1-0.3c-0.1,0-0.1,0.1-0.2,0.1c0,0-0.1,0.1-0.1,0.1v0.2c0,0.1-0.1,0.2-0.2,0.2
					c-0.2,0-0.3-0.1-0.3-0.3v-0.1c0-0.1,0-0.2,0.1-0.3c-0.1,0-0.2,0-0.3,0c-0.1,0-0.2,0-0.3,0c-0.1,0-0.2,0-0.2-0.1
					c-0.2,0-0.3,0-0.3,0h-0.1h-0.1c-0.1,0-0.1-0.1-0.1-0.2c0-0.1,0-0.1,0.1-0.1c0.5-0.1,1-0.2,1.6-0.4c-0.2-0.2-0.3-0.5-0.5-0.8
					c-0.2-0.3-0.3-0.6-0.4-0.9c-0.1-0.3-0.2-0.6-0.3-0.8c-0.1-0.2-0.2-0.4-0.2-0.5c-0.3-0.8-0.7-1.5-1-2.3c-0.4-0.8-0.8-1.5-1.3-2.1
					c-0.1,0-0.2-0.1-0.2-0.3c-0.3-0.4-0.7-0.7-1.1-1c-0.4-0.3-0.8-0.5-1.3-0.7c-0.2-0.1-0.6-0.2-1.3-0.3c-0.7-0.1-1.4-0.2-2.2-0.3
					c-0.8-0.1-1.5-0.1-2.3-0.2c-0.7,0-1.2,0.1-1.6,0.2c-0.2,0.1-0.3,0.2-0.5,0.4c-0.2,0.2-0.3,0.3-0.5,0.4c-0.3,0.2-0.6,0.3-0.9,0.5
					c-0.3,0.2-0.6,0.3-0.9,0.5c-0.9,0.7-1.7,1.4-2.3,2c-0.7,0.6-1.3,1.3-1.8,2c-0.5,0.7-0.9,1.4-1.3,2.3c-0.4,0.8-0.7,1.8-0.9,2.9
					c-0.1,0.4-0.2,0.8-0.3,1.2c-0.1,0.4-0.1,0.8-0.2,1.2l0,0.4c0,0.1,0,0.2-0.1,0.3c0,0.1,0,0.2,0,0.3v3.6c0.1,1.7,0.4,3.4,0.8,5
					c0.4,1.6,1,3.2,1.6,4.7c0.3,0.8,0.7,1.5,1,2.1c0.3,0.6,0.7,1.2,1.1,1.7c0.4,0.5,0.9,0.9,1.4,1.3c0.5,0.4,1.2,0.7,1.9,1
					c0.6,0.2,1.1,0.4,1.5,0.6c0.4,0.1,0.7,0.2,1,0.3c0.3,0.1,0.7,0.1,1.1,0.1c0.4,0,1,0,1.7-0.1c0.5,0,1-0.1,1.6-0.1
					c0.5,0,1-0.1,1.5-0.3c0.3-0.1,0.7-0.4,1-0.7c0.3-0.3,0.6-0.6,1-0.8c0,0,0.1,0,0.1,0c0-1.2,0.1-2.5,0.1-3.7
					c0.1-1.2,0.1-2.5,0.1-3.7c-0.1-0.1-0.1-0.2-0.1-0.2c-0.1,0-0.2,0-0.2,0c-0.1,0-0.2,0-0.2,0c-0.2,0-0.3-0.1-0.5-0.2
					c-0.2-0.1-0.3-0.2-0.5-0.3c-0.5-0.2-0.9-0.5-1.3-0.9c-0.4-0.4-0.8-0.7-1.3-1c-0.2-0.1-0.5-0.2-0.8-0.4c-0.1,0.2-0.2,0.3-0.4,0.3
					c-0.2,0.1-0.3,0-0.5-0.1c0,0.2,0,0.4-0.1,0.6c0,0.2,0,0.4-0.1,0.5c0,0.1-0.1,0.1-0.2,0.1c-0.1,0-0.1,0-0.1-0.1c0-0.3,0-0.6,0-1
					c0-0.3,0-0.6,0-1h-0.1c-0.1,0-0.2-0.1-0.2-0.2c0,0,0-0.1,0-0.1c0-0.1,0.1-0.2,0.2-0.2h0.2v-0.1c-0.2-0.3-0.3-0.5-0.4-0.8
					c0-0.1,0-0.2,0.1-0.2c0,0,0.1,0,0.1,0c0,0,0.1,0,0.1,0v-0.6c0,0-0.1-0.1-0.1-0.1c0,0-0.1,0-0.1-0.1l-0.1,0c-0.2,0-0.4,0-0.6,0
					c-0.2,0-0.4,0-0.6,0c0,0,0.1,0,0.1,0.1c0.1,0,0.1,0.1,0.1,0.2c-0.1,0.1-0.1,0.1-0.2,0c-0.1-0.1-0.3-0.1-0.4-0.1
					c-0.2,0-0.3,0-0.4-0.1c-0.1-0.1-0.1-0.3,0.1-0.4c0.3-0.1,0.7-0.2,1.1-0.2c0.4,0,0.8,0,1.2,0c0-0.2,0-0.3,0-0.5
					c0-0.1,0-0.3,0.1-0.5v0c0-0.1,0.1-0.2,0.2-0.2c0.1,0,0.2,0,0.2,0.2h0v0.7c0.1,0,0.2,0.1,0.2,0.2c1.9,0,3.7,0,5.5,0
					c1.8,0,3.7,0.1,5.5,0.1c0.6,0,1.1,0,1.3-0.1c1.5-0.1,2.9-0.1,4.1-0.1c1.5,0,2.7,0.1,3.7,0.2c0.2,0,0.4,0,0.6,0
					c0.2,0,0.3,0,0.5,0c0-0.3,0.1-0.5,0.1-0.8C138.9,36.4,139,36.2,139,35.9z M94.3,38.3c-0.7-0.9-1.3-1.6-1.8-2.1
					c0,0.3-0.1,0.6-0.1,0.9c0,0.3,0,0.6,0,0.9l0.1,0.3c0.4,0.3,1.1,1.1,2,2.3c0.7,0.9,1.4,1.7,2.1,2.3c0.2,0.2,0.7,0.6,1.5,1.3
					c0.6,0.5,1.1,1,1.5,1.3c0.4,0.3,0.8,0.8,1.3,1.4c0.7,0.8,1.1,1.3,1.2,1.4c0.8,0.8,2.7,2.7,5.7,5.5c1.1,1,2,1.9,2.7,2.7
					c1,1.1,1.7,1.9,2.1,2.3c0.5,0,1,0.1,1.6,0.1c-0.3-0.4-1-1.2-1.8-2.3c-0.5-0.6-1.5-1.6-3-3c-0.5-0.5-2.7-2.7-6.4-6.7
					c-1.6-1.7-2.7-2.8-3.3-3.4l-3.2-2.8C95.9,40.2,95.2,39.4,94.3,38.3z M117.3,58.9c-2.4-2.5-3.9-4-4.5-4.5c0,0,0-0.1,0-0.1
					l-1.2-0.5c-0.5-0.2-1-0.4-1.4-0.7c-0.4-0.2-0.8-0.5-1.2-0.8c-0.4-0.3-0.7-0.6-1-1c-0.3-0.4-0.6-0.8-1-1.3
					c-0.5-0.8-0.9-1.6-1.4-2.6c-0.1-0.3-0.3-0.5-0.4-0.8h-0.1c0,0-0.1,0-0.1-0.1c-1.1-1.4-2.6-3.1-4.5-5.1c-1.8-1.9-3.3-3.4-4.6-4.5
					c-0.9-0.8-1.9-1.7-3.1-2.7c-0.1,0.3-0.1,0.6-0.1,0.8c0,0.3-0.1,0.6-0.1,0.8c0.5,0.5,1.2,1.3,2,2.3c0.9,1.2,1.6,2,2.1,2.5
					c0.4,0.3,1,0.8,1.7,1.5c0.8,0.7,1.4,1.2,1.7,1.5c0.3,0.3,1.4,1.4,3.1,3.2c3.7,4,5.9,6.2,6.4,6.7c1.4,1.3,2.4,2.3,2.9,3
					c0.9,1.2,1.5,2,1.8,2.4h1.4C116.4,59,116.8,58.9,117.3,58.9z M94.4,40.6c-0.7-0.9-1.3-1.6-1.8-2c0.1,0.7,0.2,1.5,0.4,2.4v0.1
					c0.1,0.2,0.1,0.4,0.2,0.6c0.1,0.2,0.2,0.3,0.2,0.5c0.7,0.5,1.8,1.5,3.3,2.9c1.9,1.8,3.3,3.2,4.1,4.2c1.6,1.8,4.6,4.9,9.1,9.3
					c0.7,0.1,1.5,0.2,2.3,0.2c-0.5-0.6-1.3-1.5-2.5-2.6c-0.9-0.9-1.8-1.8-2.8-2.7c-2.6-2.5-4.5-4.3-5.4-5.4
					c-1.3-1.5-2.1-2.4-2.5-2.8c-0.2-0.2-0.7-0.6-1.4-1.2c-0.6-0.5-1-0.9-1.4-1.2C95.8,42.5,95.2,41.7,94.4,40.6z M95.8,34.2
					c-1-0.9-1.8-1.6-2.5-2.2c-0.2,0.6-0.3,1.3-0.5,1.9c0.1,0.1,0.2,0.1,0.3,0.2c0.6,0.5,0.9,0.7,0.9,0.7c1.1,0.9,2.4,2.1,3.9,3.5
					c0.6,0.5,1.8,1.9,3.8,4c1.3,1.4,2.4,2.6,3.2,3.7v0c-0.2-0.5-0.4-0.9-0.5-1.4c-0.2-0.5-0.3-1-0.4-1.5l0,0
					c-0.8-0.6-1.7-1.6-2.6-2.9c-1.3-1.7-2.1-2.7-2.5-3.1C98.2,36.4,97.2,35.5,95.8,34.2z M101.5,40c0.9,1.2,1.7,2.1,2.4,2.7
					c-0.1-0.3-0.2-0.6-0.2-1c-0.1-0.3-0.1-0.6-0.2-1c-0.4-0.4-1.2-1.5-2.4-3.1c-1-1.3-1.8-2.3-2.6-3c-2.4-2.3-3.9-3.7-4.6-4.3
					c-0.1,0.2-0.2,0.5-0.2,0.7c-0.1,0.2-0.2,0.5-0.2,0.7c3.3,3,5.2,4.7,5.6,5.2C99.4,37.3,100.2,38.4,101.5,40z M96.6,45.4
					c-1.4-1.3-2.4-2.2-3.1-2.8c0.1,0.3,0.1,0.6,0.1,1c0,0.3,0,0.7,0.2,1c0,0.1,0.1,0.2,0.2,0.4c0.8,0.7,2.7,2.8,5.9,6.3
					c0.5,0.5,1.6,1.6,3.3,3.3c1.2,1.2,2.2,2.3,2.9,3.1c0.2,0.1,0.5,0.2,0.7,0.3c0.3,0.1,0.5,0.2,0.8,0.3c0.6,0.1,1.2,0.2,1.9,0.3
					c-4.2-4.1-7-7.1-8.6-8.9C99.7,48.4,98.3,47,96.6,45.4z M101.3,37.6c0.9,1.3,1.6,2.1,2,2.7c-0.1-0.3-0.1-0.7-0.2-1.1
					c0-0.4-0.1-0.7-0.1-1.1c-2.2-3-3.6-4.8-4.4-5.5c-2-1.6-3.4-2.8-4.2-3.7c-0.1,0.2-0.2,0.4-0.3,0.6c-0.1,0.2-0.1,0.4-0.2,0.6
					c0.6,0.6,1.3,1.3,2.2,2.1c1.3,1.1,2.1,1.9,2.6,2.4C99.5,35.3,100.4,36.3,101.3,37.6z M99.5,51.2c-2.5-2.9-4.2-4.8-5.2-5.7
					c0,0.1,0.1,0.2,0.1,0.3c0,0.1,0.1,0.2,0.1,0.3c0.1,0.4,0.3,0.8,0.3,1.2c0.1,0.4,0.2,0.8,0.3,1.1c1.4,1.8,3.9,4.3,7.3,7.7
					c0.1,0.1,0.2,0.1,0.3,0.2c0.1,0.1,0.2,0.1,0.3,0.1c0.4,0.2,0.8,0.4,1.2,0.6c0.4,0.2,0.8,0.4,1.3,0.6c-0.7-0.8-1.6-1.8-2.7-2.8
					C101.2,53,100.1,51.9,99.5,51.2z M102.9,34.8c-2.6-2.5-5.2-5-7.6-7.6c-0.1,0.2-0.3,0.5-0.4,0.7c-0.1,0.3-0.3,0.5-0.4,0.8
					c0.7,0.7,2.2,2,4.6,4.1c0.6,0.5,1.9,2.2,3.8,4.8C102.9,36.7,102.9,35.7,102.9,34.8z M95.9,50.3c0.3,0.5,0.6,0.9,0.9,1.4
					c0.6,0.6,1.3,1.3,2.1,1.9c0.8,0.6,1.5,1.2,2.3,1.6l-2.4-2.3c-1.6-1.6-2.8-2.8-3.5-3.9c0,0.1,0.1,0.2,0.1,0.3
					c0.1,0.1,0.1,0.2,0.2,0.3c0,0,0,0.1,0,0.1c0,0,0,0.1,0,0.1C95.7,50,95.8,50.2,95.9,50.3z M99.5,30.9c1.2,1.3,2.4,2.4,3.4,3.5
					l0.1-1.5c-3.1-2.9-5.4-5.4-6.7-7.3c-0.2,0.2-0.3,0.4-0.4,0.7c-0.1,0.2-0.3,0.5-0.4,0.7l1.9,1.8C97.4,28.8,98.1,29.5,99.5,30.9z
					 M97.3,24.3c-0.1,0.1-0.1,0.2-0.2,0.3c-0.1,0.1-0.1,0.1-0.2,0.2c-0.1,0.1-0.2,0.2-0.2,0.3c-0.1,0.1-0.1,0.2-0.2,0.3
					c1.6,2.2,3.8,4.5,6.6,7.2c0-0.3,0.1-0.6,0.1-0.8c0-0.3,0.1-0.5,0.1-0.8c-0.5-0.5-1.2-1.2-1.9-2.1c-1.1-1.3-1.8-2-2.1-2.3
					c-0.6-0.7-1.1-1.2-1.5-1.6L97.3,24.3z M99.2,23.7c-0.4-0.5-0.8-0.8-1-1.1c-0.2,0.3-0.3,0.5-0.4,0.8c-0.1,0.3-0.3,0.5-0.4,0.8
					c0.1,0.1,0.2,0.2,0.3,0.3c0,0,0.5,0.5,1.5,1.6c0.6,0.6,1.4,1.4,2.2,2.4c0.9,1,1.5,1.7,1.9,2.1c0-0.2,0.1-0.4,0.1-0.7
					c0.1-0.2,0.1-0.4,0.1-0.7c-0.6-1.1-1.6-2.4-2.9-3.9c-0.1-0.1-0.4-0.4-0.8-0.8C99.7,24.2,99.4,23.9,99.2,23.7z M101.2,25.5
					c1.2,1.3,2,2.4,2.5,3.3c0.1-0.4,0.2-0.7,0.3-1.1c0.1-0.4,0.3-0.7,0.4-1.1c-0.6-0.6-1.5-1.6-2.6-2.8c-1.1-1.2-2-2.1-2.6-2.7
					c-0.2,0.2-0.3,0.4-0.5,0.6c-0.2,0.2-0.3,0.5-0.5,0.7c0.2,0.2,0.7,0.7,1.4,1.4c0.1,0.1,0.3,0.4,0.8,0.8
					C100.8,25,101,25.3,101.2,25.5z M100.7,20.4c-0.2,0.1-0.4,0.1-0.5,0.1c-0.1,0.1-0.2,0.1-0.3,0.2c-0.1,0.1-0.2,0.1-0.3,0.2
					c0,0,0,0.1,0,0.1c1.6,1.6,3.3,3.4,5,5.4c0.1-0.2,0.2-0.4,0.3-0.7c0.1-0.2,0.2-0.5,0.3-0.7c0-0.1,0.1-0.2,0.1-0.2
					c-0.6-0.6-1.4-1.4-2.4-2.3c-0.9-0.9-1.6-1.7-2.1-2.3L100.7,20.4z M104.2,20.8c-0.9-0.8-1.6-1.4-2-1.8c-0.2,0.2-0.4,0.3-0.6,0.5
					c-0.2,0.2-0.4,0.4-0.6,0.5c0.8,0.9,2.3,2.5,4.4,4.6c0.3-0.5,0.7-0.9,1.1-1.4C106.1,22.5,105.3,21.7,104.2,20.8z M105.3,20.2
					c-0.9-1-1.5-1.7-1.7-2.2c-0.2,0.1-0.4,0.3-0.6,0.4c-0.2,0.2-0.4,0.3-0.6,0.5c0.7,0.6,1.5,1.2,2.4,2c0.9,0.8,1.6,1.5,2.1,2.1
					l0.6-0.6C106.7,21.8,106,21,105.3,20.2z M106.7,19.2c-0.7-0.8-1.3-1.4-1.7-1.8c-0.3,0.1-0.6,0.2-0.9,0.4c-0.1,0-0.1,0.1-0.2,0.1
					c-0.1,0-0.1,0-0.2,0.1c0.2,0.2,0.4,0.6,0.8,1.1c0.4,0.5,0.8,1,1.1,1.3c0.7,0.7,1.3,1.4,2,2c0.2-0.1,0.3-0.3,0.4-0.4
					c0.1-0.1,0.2-0.2,0.3-0.3l0.4-0.4C108.1,20.6,107.4,20,106.7,19.2z M107.7,17.6c-0.3-0.4-0.6-0.7-0.7-0.9
					c-0.3,0.1-0.6,0.2-0.9,0.3c-0.3,0.1-0.6,0.2-0.8,0.3c0.2,0.2,0.4,0.4,0.6,0.6c0.5,0.6,0.9,1,1,1.1c0.8,0.8,1.5,1.5,2.1,2
					c0.2-0.2,0.4-0.3,0.6-0.5c0.2-0.2,0.4-0.3,0.6-0.4C109.2,19.2,108.4,18.4,107.7,17.6z M109.8,17.6c-0.6-0.6-1-1-1.2-1.4
					c-0.2,0.1-0.4,0.1-0.7,0.2c-0.2,0.1-0.4,0.1-0.7,0.2h0c0,0,0.1,0.1,0.1,0.2c0.1,0.1,0.1,0.1,0.1,0.2c0.4,0.5,0.6,0.8,0.8,0.9
					c0.5,0.6,1.2,1.3,2.1,2.1c0.1-0.1,0.2-0.1,0.3-0.2c0.1-0.1,0.2-0.1,0.4-0.2c0.1-0.1,0.2-0.2,0.3-0.2
					C111,19,110.5,18.4,109.8,17.6z M110.6,15.7c-0.3,0.1-0.6,0.1-0.9,0.2c-0.3,0.1-0.6,0.1-0.9,0.2c0.3,0.4,0.8,1,1.5,1.6
					c0.6,0.6,1,1,1.3,1.3l0.2-0.1l0.8-0.4c0.1-0.1,0.1-0.1,0.2-0.1c-0.3-0.3-0.7-0.8-1.2-1.5L110.6,15.7z M113.3,16.2
					c-0.3-0.3-0.5-0.6-0.7-0.8c-0.3,0-0.6,0.1-0.9,0.1c-0.3,0.1-0.6,0.1-0.9,0.2c0.2,0.2,0.5,0.6,0.8,1c0.1,0.2,0.4,0.5,0.8,0.9
					c0.2,0.3,0.4,0.5,0.6,0.7l0.3-0.2c0.2-0.1,0.5-0.2,0.7-0.3c0.3-0.1,0.5-0.1,0.8-0.1C114.2,17.3,113.7,16.8,113.3,16.2z
					 M115.5,16.3c-0.4-0.4-0.7-0.8-0.8-1.1c-0.3,0-0.6,0-0.9,0.1c-0.3,0-0.6,0.1-0.9,0.1c0.2,0.3,0.4,0.5,0.5,0.7
					c0.5,0.6,1,1.1,1.6,1.7c0,0,0,0.1,0,0.1h0.2c0.4-0.1,0.8-0.1,1.2-0.1c0.2,0,0.3,0,0.5,0C116.6,17.4,116.1,17,115.5,16.3z
					 M120.2,57c-0.8-0.9-1.5-1.6-2-2.1c-0.3,0-0.7,0-1.1,0h-0.3c-0.6,0-1.1-0.1-1.7-0.1c-0.2,0-0.5,0-0.7,0c-0.2,0-0.5-0.1-0.7-0.1
					c-0.2,0-0.4-0.1-0.5-0.1c0.4,0.3,1,0.8,1.7,1.5c0,0,0.8,0.9,2.4,2.6c0,0,0,0,0,0.1c0,0,0,0.1,0,0.1c0.8,0,1.4-0.1,2-0.1
					c0.1,0,0.3,0,0.4-0.1c-1.6-1.7-2.9-2.8-3.7-3.5c0,0,0,0,0-0.1c0,0,0,0,0-0.1c0,0,0,0,0.1,0h0c0.9,0.6,2.2,1.8,3.9,3.6
					c0.5,0,1-0.1,1.5-0.2C121.3,58.2,120.8,57.7,120.2,57z M119.1,18c0.1,0,0.1,0,0.2,0c0.1,0,0.3,0,0.4,0c0.1,0,0.2,0,0.4,0.1
					c-0.3-0.2-0.5-0.6-0.8-0.9c-0.5-0.6-0.9-0.9-0.9-1l-0.8-0.8c-0.2-0.1-0.3-0.1-0.5-0.2c-0.2,0-0.3-0.1-0.5-0.1
					c-0.2,0-0.5,0-0.7,0c-0.2,0-0.5,0-0.8,0c0.1,0.1,0.1,0.2,0.2,0.3c0.2,0.3,0.4,0.6,0.5,0.7c0.1,0.2,0.4,0.4,0.7,0.7
					c0.3,0.3,0.6,0.5,0.7,0.7c0,0,0,0,0,0.1l0,0C117.9,17.8,118.5,17.9,119.1,18z M123.6,43c0.1,0,0.1,0.1,0.2,0.1
					c0.1,0.1,0.1,0.1,0.2,0.2c0.2,0.1,0.4,0.3,0.6,0.4c0.2,0.2,0.3,0.3,0.4,0.5c0.1,0,0.1,0.1,0,0.2l0,0c-0.1,0.1-0.1,0.1-0.2,0.1
					c-0.1,0-0.1-0.1-0.1-0.2c0,0-0.1,0-0.1-0.1c0,0-0.1-0.1-0.2-0.1c0.4,0.4,0.9,0.9,1.5,1.4c1.3,1.2,2.1,2,2.4,2.4
					c0.3,0.3,1.2,1.2,2.7,2.7c0.7,0.7,1.4,1.4,1.9,2c0-0.4,0-0.8,0-1.1c0-0.4,0-0.8,0-1.1c-0.1-0.1-0.2-0.3-0.2-0.4
					c-0.8-0.6-1.8-1.6-2.9-3c-1.4-1.7-2.4-2.8-3.1-3.4c-0.4-0.3-0.9-0.7-1.7-1.3l-1.7-1.4c-1.1-0.9-1.9-1.8-2.4-2.5
					c-0.5,0-1,0-1.5,0c-0.5,0-1,0-1.5,0c0,0.2,0,0.4,0,0.6c0,0.2,0,0.4,0,0.6c0.7,0.3,1.3,0.7,1.9,1.2c0.6,0.5,1.2,0.9,1.9,1.3
					c0,0,0.1,0,0.1,0c0,0,0.1,0,0.1,0c-0.3-0.3-0.8-0.8-1.3-1.4c-0.1-0.1-0.5-0.6-1.2-1.3c-0.3-0.3-0.5-0.5-0.5-0.6
					c0,0-0.1,0.1-0.1,0.1h0c-0.2-0.1-0.3-0.2-0.3-0.3c0-0.1,0.1-0.2,0.2-0.2c0,0,0.1,0,0.2,0c0,0,0.1,0,0.1,0.1c0,0,0,0.1-0.1,0.1
					l0,0c0,0,0,0,0,0.1c0,0,0.1-0.1,0.1-0.1c0.1,0.1,0.3,0.2,0.5,0.5c0,0,0.4,0.5,1.2,1.3c0.9,0.9,1.6,1.6,2,2
					c0.1,0,0.2,0.1,0.3,0.1c0.1,0,0.2,0.1,0.3,0.1l0.1-0.7c0-0.1,0-0.1,0.1-0.1c0.1,0,0.1,0.1,0.2,0.2V43z M125.5,20.6
					c-1.3-1.2-2.4-2.2-3.2-3l0.3,0.2c1.9,1.5,3,2.5,3.4,2.9c0.8,0.8,1.8,1.9,2.8,3.3c0.9,1.2,1.6,2.1,2,2.7c0-0.4,0-0.8,0-1.2
					c0-0.4,0-0.8,0-1.2c-3.6-4-5.9-6.6-7-7.7c-0.5-0.1-0.9-0.2-1.4-0.3c-0.5,0-1.1-0.1-1.8-0.2l0.2,0.2c-0.1-0.1-0.2-0.2-0.3-0.2
					c-0.2,0-0.4,0-0.7-0.1c-0.2,0-0.4-0.1-0.7-0.1c-0.2,0-0.4-0.1-0.5-0.1c-0.2-0.1-0.3-0.1-0.5-0.2l0.5,0.5c0.9,1,1.5,1.6,1.8,2
					c0,0,0,0,0,0.1s0,0,0,0.1c0.4,0.1,0.9,0.3,1.3,0.5c0.6,0.3,1.2,0.7,1.7,1h0c0.2,0,0.3,0.1,0.3,0.2c0.6,0.5,1.1,1.1,1.5,1.7
					c0.4,0.6,0.8,1.4,1.2,2.3c0,0,0,0.1,0.1,0.2c0,0.1,0,0.1,0.1,0.2c0,0,0.1,0,0.2,0.1l0,0l0,0c0.2,0.2,0.3,0.3,0.4,0.3
					c0.5,0.5,0.8,0.8,0.9,0.8c0.2,0.2,0.8,0.8,1.7,1.7c0.4,0.4,0.8,0.8,1.2,1.2v-1.3c-0.4-0.5-1.1-1.5-2.2-3
					C127.3,22.5,126.2,21.3,125.5,20.6z M122.4,56.7c-1.2-1-2-1.8-2.4-2.1c-0.5,0.1-1,0.2-1.5,0.3c0.5,0.4,1.1,1,1.8,1.8
					c0.1,0.1,0.7,0.7,1.7,1.8c0.1,0,0.3-0.1,0.5-0.1c0.1,0,0.3-0.1,0.4-0.1c0.1,0,0.3-0.1,0.5-0.1c0.1,0,0.2-0.1,0.4-0.1l-0.2-0.2
					C123.1,57.4,122.7,57,122.4,56.7z M123.8,55.6c-0.8-0.8-1.5-1.4-1.9-1.9c-0.1,0.1-0.2,0.1-0.3,0.2c-0.2,0.2-0.4,0.3-0.6,0.4
					c-0.1,0-0.1,0.1-0.2,0.1c-0.2,0.1-0.4,0.2-0.5,0.2c0.7,0.6,1.6,1.3,2.6,2.3c0.5,0.4,0.9,0.8,1.2,1.1c0.3-0.1,0.5-0.1,0.8-0.2
					c0.3-0.1,0.5-0.1,0.8-0.2C125.2,57.1,124.6,56.4,123.8,55.6z M128.8,43.6c-1.7-1.6-3.3-3.2-4.7-5c-0.5,0-1,0-1.5,0
					c-0.5,0-1,0-1.5,0c0.6,0.6,2.6,2.3,5.8,5.1c0.7,0.6,1.7,1.7,3.1,3.2c1.1,1.3,2.1,2.3,2.8,3c0-0.3,0-0.6,0-1c0-0.3,0-0.6,0-1
					c-0.5-0.4-1.1-1.1-1.9-2C130.5,45.2,129.7,44.5,128.8,43.6z M123,52.8C123,52.8,123,52.8,123,52.8l0-0.2
					c-0.1,0.1-0.2,0.1-0.3,0.2c-0.1,0.1-0.2,0.1-0.2,0.2c-0.2,0.2-0.3,0.3-0.5,0.5c1.7,1.5,3,2.9,3.9,4.1c0.2-0.1,0.4-0.1,0.5-0.2
					c0.2-0.1,0.3-0.1,0.5-0.2c0.2-0.1,0.3-0.1,0.3-0.2c-0.2-0.1-0.4-0.3-0.7-0.5c-0.4-0.3-0.8-0.8-1.4-1.3c-0.9-0.9-1.6-1.6-2-2
					h-0.1l-0.1-0.1C123,53.1,123,53,123,52.8L123,52.8z M122.2,17.6C122.2,17.6,122.1,17.6,122.2,17.6L122.2,17.6z M126.2,53
					c-1-0.9-1.9-1.6-2.5-2.3v1.2c0,0.1,0,0.2-0.1,0.3c0,0.1-0.1,0.1-0.1,0.2c0,0.1,0,0.2-0.1,0.3c0,0.1,0,0.2-0.1,0.3
					c0.2,0.2,0.9,0.8,1.9,1.8c0.2,0.2,0.9,0.8,2.2,2c0.2-0.2,0.5-0.3,0.7-0.5c0.2-0.2,0.4-0.4,0.7-0.5C128.3,55,127.4,54.1,126.2,53
					z M125.2,49.9c-0.6-0.6-1-1.1-1.4-1.5c0,0.3,0,0.7,0,1c0,0.3,0,0.6,0,1c0.6,0.8,1.7,1.7,3.1,2.9c1.1,0.9,1.8,1.7,2.3,2.3
					c0.2-0.1,0.3-0.3,0.5-0.4c0.1-0.1,0.3-0.2,0.5-0.4c-0.6-0.6-1.5-1.5-2.8-2.8C126.6,51.5,126,50.8,125.2,49.9z M127.6,50.4
					c-1.8-1.9-3-3.2-3.8-3.9c0,0.3,0,0.6,0,0.8c0,0.3,0,0.5,0,0.8c0.5,0.5,1,1,1.7,1.8c1,1.1,1.7,1.8,2.2,2.3
					c1.4,1.2,2.1,1.8,2.1,1.8c0.2,0.3,0.5,0.5,0.6,0.7c0,0,0,0,0.1,0c0.2-0.1,0.3-0.2,0.5-0.3c0.2-0.1,0.3-0.2,0.5-0.3
					c-0.4-0.4-0.9-0.9-1.4-1.4C128.8,51.5,128,50.8,127.6,50.4z M125.2,45.5c-0.5-0.5-1-0.9-1.3-1.3c0,0.3,0,0.6,0,0.9
					c0,0.3,0,0.6,0,0.9c0.5,0.5,1.1,1.1,1.8,1.8c1.3,1.5,2.1,2.4,2.3,2.6c0.2,0.2,0.9,0.9,2.3,2.1c0.5,0.5,1,1,1.4,1.4
					c0.4-0.2,0.7-0.4,0.9-0.7l0.2-0.1c-0.8-0.9-2.5-2.6-5-5.2c-0.3-0.3-0.7-0.7-1.3-1.2C125.8,46.1,125.4,45.7,125.2,45.5z
					 M126.4,18C126.4,18,126.3,17.9,126.4,18l-0.1-0.1c-0.5-0.4-1-0.7-1.4-0.9l-0.6-0.3c1.2,1.2,3.4,3.6,6.5,7.1v-0.1
					c0,0,0-0.1,0-0.2c0-0.1,0-0.1,0-0.2c0-0.3,0-0.6,0-1c0-0.3,0-0.6,0-1c-0.3-0.3-0.8-0.8-1.5-1.4c-0.8-0.7-1.4-1.3-1.8-1.8
					c0-0.1-0.1-0.1-0.1-0.2c-0.1,0.1-0.3,0.1-0.5,0.1c-0.2,0-0.3-0.1-0.4-0.3C126.5,18.1,126.4,18,126.4,18z M129.6,41.9
					c-0.3-0.2-1.3-1.3-3.1-3.2h-0.4c-0.3,0-0.6,0-0.8,0c-0.3,0-0.5,0-0.8,0c2.5,2.7,4,4.3,4.6,4.8c0.5,0.5,1.3,1.2,2.2,2.3
					c0.7,0.8,1.3,1.4,1.8,1.8c0-0.4,0-0.8,0.1-1.2c0-0.4,0-0.8,0.1-1.2C132.5,44.4,131.3,43.4,129.6,41.9z M126.7,24.7
					c0.2,0.5,0.4,1,0.6,1.4c0.2,0.5,0.4,0.9,0.6,1.4l0,0c0,0,0,0.1,0.1,0.2c0.1,0.2,0.3,0.5,0.5,0.8c0.1,0.1,0.1,0.1,0.2,0.2
					l0.1,0.2c0.3,0,0.6,0,1,0c0.4,0,0.7,0,0.9-0.1v-0.1c-0.6-0.6-1.6-1.6-3.1-3.1L126.7,24.7z M133.1,43.4c-0.1,0-0.1,0-0.2,0
					c-0.1,0-0.1-0.1,0-0.2c0,0,0.1-0.1,0.1-0.1c0,0,0.1-0.1,0.1-0.1c0,0-0.1-0.1-0.2-0.1c0,0-0.1,0-0.1,0c-0.1,0-0.2,0-0.4,0.1
					c-0.1,0-0.3,0-0.4,0.1c-0.1,0-0.1,0-0.2,0c-0.1,0-0.1,0-0.2,0c-0.1,0-0.2-0.1-0.2-0.2c0-0.1,0-0.2,0-0.2v0h0l0.1,0
					c0,0,0,0,0.1,0c0,0,0.1,0,0.1,0c0.2,0,0.4-0.1,0.6-0.2c-0.6-0.6-1.4-1.3-2.1-2.2c-0.7-0.8-1-1.1-1-1.1c-0.1-0.1-0.2-0.3-0.3-0.4
					h-2.1c0.3,0.3,0.7,0.7,1.1,1.2c0.8,0.9,1.5,1.6,2,2c1.5,1.2,2.5,2.1,3.1,2.8c0-0.2,0-0.4,0-0.7
					C133.1,43.8,133.1,43.6,133.1,43.4L133.1,43.4z M129.3,18.2c-0.4-0.4-0.8-0.9-1.1-1.4c-0.1,0.2-0.3,0.4-0.4,0.6
					c-0.1,0.2-0.2,0.3-0.2,0.5l-0.1,0.1c0,0.1,0.1,0.1,0.2,0.2c0.5,0.5,0.7,0.9,0.8,1c1.1,1,1.8,1.7,2.3,2.1c0-0.3,0-0.6,0-0.8
					c0-0.3,0-0.5,0-0.8C130.4,19.4,129.9,18.9,129.3,18.2z M130.3,18.7c0.2,0.2,0.4,0.4,0.6,0.5v-1.6c-0.1-0.1-0.3-0.3-0.6-0.6
					c-0.2-0.2-0.3-0.3-0.5-0.5c-0.2,0-0.4,0-0.6,0c-0.2,0-0.4,0-0.6-0.1c-0.1,0.1-0.2,0.1-0.2,0.2c0.1,0.1,0.3,0.3,0.4,0.5
					c0.3,0.4,0.6,0.7,0.8,0.9C129.7,18.2,130,18.5,130.3,18.7z M133.2,41.9c0.1-0.3,0.2-0.5,0.5-0.5h0c-0.3-0.3-0.8-0.8-1.2-1.3
					c-0.5-0.5-1-1-1.4-1.3h-1.8c0.1,0.1,0.2,0.2,0.3,0.3c0.4,0.5,0.8,1,1.3,1.5c0.3,0.3,0.7,0.7,1.3,1.2c0.2,0.2,0.4,0.4,0.5,0.5
					c0.1,0,0.1-0.1,0.2-0.1c0.1,0,0.1-0.1,0.2-0.1V41.9z M130.5,16.8c0.2,0.2,0.3,0.3,0.4,0.5c0-0.1,0-0.2,0-0.4c0-0.1,0-0.3,0-0.4
					h-0.7L130.5,16.8z M133.8,40.6c0-0.1,0-0.2,0.1-0.2c0.1,0,0.1,0.1,0.2,0.2c0,0.1,0,0.2,0,0.3c0,0.1,0,0.2,0,0.3
					c0,0,0.1,0.1,0.1,0.1c0.2-0.1,0.4-0.2,0.6-0.3c0.2-0.1,0.4-0.2,0.6-0.2l-2-2.1c0,0-0.1,0-0.1,0c0,0,0,0-0.1,0
					c-0.6-0.1-1.3-0.1-1.9-0.1l2.4,2.3c0-0.1,0-0.1,0-0.2C133.8,40.8,133.8,40.7,133.8,40.6z M132.3,29.6c-0.1,0-0.2,0-0.2,0
					c-0.1,0-0.1,0-0.2,0v0C132,29.7,132.2,29.7,132.3,29.6z M135.6,39c-0.3,0-0.7,0-1-0.1c-0.3,0-0.6,0-0.8-0.1l1.9,1.9
					c0.1,0,0.2,0,0.4,0c0.1-0.1,0.2-0.2,0.3-0.2c0.1-0.1,0.2-0.2,0.3-0.2C136.4,40,136,39.5,135.6,39z M136.6,39.6
					c0.2,0.2,0.3,0.4,0.4,0.5c0.2-0.1,0.3-0.2,0.5-0.3c0.2-0.1,0.3-0.2,0.5-0.2c-0.1-0.2-0.1-0.5-0.1-0.8c-0.3,0.1-0.6,0.1-0.9,0.1
					c-0.3,0-0.7,0-1,0C136.1,39.1,136.3,39.3,136.6,39.6z"/>
			</g>
			<g>
				<g>
					<rect y="120.9" class="st0" width="232.3" height="2.1"/>
				</g>
				<g>
					<rect y="151.6" class="st0" width="232.3" height="2.1"/>
				</g>
				<g>
					<path class="st0" d="M25.5,109.6c-1.6,0.9-3.3,1.5-5,2c-1.8,0.4-3.6,0.6-5.4,0.6c-2.2,0-4.2-0.4-6-1.1s-3.4-1.7-4.7-3
						c-1.3-1.3-2.4-2.8-3.1-4.6c-0.7-1.8-1.1-3.8-1.1-6c0-2.2,0.4-4.2,1.2-6c0.8-1.8,1.8-3.3,3.2-4.6c1.4-1.3,2.9-2.3,4.8-3
						c1.8-0.7,3.8-1.1,5.9-1.1c1.8,0,3.6,0.3,5.3,0.8s3.2,1.5,4.5,2.8l-2.5,2.6c-0.9-1-2.1-1.8-3.4-2.4c-1.3-0.5-2.7-0.8-4.1-0.8
						c-1.6,0-3.1,0.3-4.4,0.9s-2.5,1.4-3.6,2.4c-1,1-1.8,2.2-2.4,3.7c-0.6,1.4-0.8,3-0.8,4.6c0,1.7,0.3,3.2,0.8,4.6
						c0.6,1.4,1.3,2.6,2.4,3.7c1,1,2.2,1.8,3.6,2.4c1.4,0.6,3,0.9,4.7,0.9c1.1,0,2.3-0.1,3.5-0.4c1.2-0.3,2.4-0.7,3.4-1.2v-8.5h-6.4
						v-3.1h9.7V109.6z"/>
					<path class="st0" d="M33.2,83.6h7.1c1.3,0,2.7,0.1,4,0.2c1.3,0.2,2.5,0.5,3.6,1c1,0.5,1.9,1.3,2.6,2.3c0.7,1,1,2.4,1,4.1
						c0,2-0.6,3.7-1.8,5c-1.2,1.3-2.9,2.1-5.1,2.4l7.9,12.8h-4l-7.5-12.5h-4.2v12.5h-3.3V83.6z M36.5,95.9h2.9c0.9,0,1.9,0,2.8-0.1
						c1-0.1,1.9-0.2,2.7-0.5c0.8-0.3,1.5-0.7,2-1.4c0.5-0.6,0.8-1.5,0.8-2.7c0-1-0.2-1.8-0.6-2.4c-0.4-0.6-0.9-1.1-1.6-1.4
						s-1.4-0.5-2.2-0.6s-1.6-0.2-2.4-0.2h-4.6V95.9z"/>
					<path class="st0" d="M67,83.6h3.1l11.8,27.8h-3.9l-2.8-6.8H61.3l-2.9,6.8h-3.7L67,83.6z M68.5,87.9L68.5,87.9l-5.9,13.7H74
						L68.5,87.9z"/>
					<path class="st0" d="M105.9,89.4c-0.8-1.1-1.9-2-3.1-2.5c-1.2-0.6-2.5-0.8-3.9-0.8c-1.5,0-3,0.3-4.3,0.9s-2.4,1.5-3.4,2.5
						c-0.9,1.1-1.7,2.3-2.2,3.7c-0.5,1.4-0.8,2.9-0.8,4.4c0,1.6,0.3,3.1,0.8,4.5c0.5,1.4,1.2,2.6,2.2,3.7c0.9,1,2,1.9,3.3,2.5
						c1.3,0.6,2.7,0.9,4.3,0.9c1.7,0,3.2-0.3,4.6-1s2.5-1.6,3.5-2.9l2.5,2.1c-1.3,1.7-2.8,2.9-4.5,3.7c-1.8,0.8-3.8,1.2-6,1.2
						c-2,0-3.9-0.4-5.6-1.1c-1.7-0.7-3.2-1.7-4.5-3c-1.3-1.3-2.3-2.8-3-4.6s-1.1-3.7-1.1-5.9c0-2,0.3-4,1-5.7
						c0.7-1.8,1.7-3.3,2.9-4.6c1.3-1.3,2.8-2.3,4.5-3.1c1.7-0.8,3.6-1.1,5.7-1.1c1.9,0,3.7,0.3,5.4,1c1.7,0.7,3.2,1.8,4.4,3.3
						L105.9,89.4z"/>
					<path class="st0" d="M114.8,83.6h17.5v3.1h-14.2v8.7h13.2v3.1h-13.2v9.9H133v3.1h-18.2V83.6z"/>
					<path class="st0" d="M170.1,89.4c-0.8-1.1-1.9-2-3.1-2.5c-1.2-0.6-2.5-0.8-3.9-0.8c-1.5,0-3,0.3-4.3,0.9s-2.4,1.5-3.4,2.5
						c-0.9,1.1-1.7,2.3-2.2,3.7c-0.5,1.4-0.8,2.9-0.8,4.4c0,1.6,0.3,3.1,0.8,4.5c0.5,1.4,1.2,2.6,2.2,3.7c0.9,1,2,1.9,3.3,2.5
						c1.3,0.6,2.7,0.9,4.3,0.9c1.7,0,3.2-0.3,4.6-1s2.5-1.6,3.5-2.9l2.5,2.1c-1.3,1.7-2.8,2.9-4.5,3.7c-1.8,0.8-3.8,1.2-6,1.2
						c-2,0-3.9-0.4-5.6-1.1c-1.7-0.7-3.2-1.7-4.5-3c-1.3-1.3-2.3-2.8-3-4.6s-1.1-3.7-1.1-5.9c0-2,0.3-4,1-5.7
						c0.7-1.8,1.7-3.3,2.9-4.6c1.3-1.3,2.8-2.3,4.5-3.1c1.7-0.8,3.6-1.1,5.7-1.1c1.9,0,3.7,0.3,5.4,1c1.7,0.7,3.2,1.8,4.4,3.3
						L170.1,89.4z"/>
					<path class="st0" d="M179.1,83.6h3.3v27.8h-3.3V83.6z"/>
					<path class="st0" d="M208.8,86.7h-9.2v24.8h-3.3V86.7h-9.2v-3.1h21.7V86.7z"/>
					<path class="st0" d="M220,99.5l-10.4-15.8h4.2l7.8,12.6l8.1-12.6h4l-10.4,15.8v12H220V99.5z"/>
					<path class="st0" d="M13.4,131.7l-1,3.2h-0.8c0-0.3,0.1-0.5,0.1-0.8c0-0.7-0.2-1.2-0.5-1.3c-0.3-0.2-0.7-0.3-1.2-0.3h-1
						l-2.5,8.1c-0.1,0.3-0.1,0.6-0.1,0.7c0,0.3,0.1,0.5,0.3,0.6c0.2,0.1,0.5,0.2,0.7,0.2h0.4l-0.2,0.8H2.1l0.2-0.8h0.3
						c0.6,0,0.9-0.1,1.1-0.2c0.2-0.2,0.4-0.5,0.5-1l2.5-8.3H6.2H6c-0.6,0-1.1,0.1-1.6,0.4s-1,0.9-1.4,1.9H2.1l1-3.2H13.4z"/>
					<path class="st0" d="M21.4,140.7c-0.3,0.6-0.8,1.2-1.3,1.6c-0.5,0.4-1.1,0.7-1.7,0.7c-0.5,0-0.8-0.1-1-0.3
						c-0.2-0.2-0.3-0.4-0.3-0.7c0-0.1,0-0.3,0-0.4c0-0.1,0.1-0.3,0.2-0.6l0.6-2.1c0.1-0.4,0.2-0.7,0.2-1c0-0.1,0-0.2-0.1-0.3
						c0-0.1-0.1-0.2-0.2-0.2c-0.1-0.1-0.2-0.1-0.3-0.1c-0.4,0-0.9,0.3-1.5,1c-0.5,0.7-0.9,1.3-1.2,1.9c-0.5,1.1-0.7,1.8-0.8,2.1
						l-0.1,0.6h-2l2.8-9.2c0.1-0.4,0.2-0.6,0.2-0.7c0-0.2-0.1-0.3-0.2-0.4c-0.2-0.1-0.4-0.1-0.7-0.1H14l0.2-0.8
						c1.3,0,2.2-0.1,2.8-0.2h0.6l-2.1,7c0.4-0.5,0.7-0.9,1-1.3c0.3-0.3,0.6-0.6,1.1-0.9s1-0.4,1.5-0.4c0.4,0,0.7,0.1,1,0.3
						c0.3,0.2,0.4,0.5,0.4,0.8c0,0.3-0.1,0.7-0.3,1.3l-0.8,2.7c-0.1,0.3-0.1,0.5-0.1,0.6c0,0.1,0,0.1,0,0.2c0,0.1,0.1,0.1,0.2,0.1
						c0.3,0,0.7-0.4,1.2-1.2H21.4z"/>
					<path class="st0" d="M30,137.3c0,0.2-0.1,0.5-0.2,0.8c-0.1,0.3-0.4,0.6-0.8,0.9s-0.9,0.6-1.6,0.9c-0.7,0.3-1.5,0.4-2.6,0.5
						l-0.2,0c0,0.2-0.1,0.4-0.1,0.6c0,0.4,0.1,0.7,0.3,0.9c0.2,0.2,0.5,0.3,0.9,0.3c0.8,0,1.6-0.4,2.4-1.3H29
						c-0.3,0.5-0.9,1-1.5,1.5s-1.5,0.8-2.5,0.8c-0.7,0-1.2-0.2-1.7-0.5s-0.7-0.9-0.7-1.6c0-0.8,0.2-1.7,0.7-2.4s1.1-1.4,1.9-1.9
						s1.7-0.7,2.6-0.7c0.8,0,1.3,0.1,1.6,0.4S30,136.9,30,137.3z M28.2,137.2c0-0.2-0.1-0.3-0.2-0.5c-0.1-0.2-0.3-0.2-0.5-0.2
						c-0.4,0-0.7,0.1-1.1,0.4c-0.3,0.3-0.6,0.6-0.8,0.9c-0.2,0.4-0.4,0.7-0.5,1.1s-0.2,0.6-0.3,0.7c1.1-0.2,2-0.5,2.5-0.9
						C28,138.3,28.2,137.8,28.2,137.2z"/>
					<path class="st0" d="M53.2,131.7l-0.2,0.8c-0.4,0-0.7,0-1,0.1c-0.2,0.1-0.4,0.2-0.5,0.4c-0.1,0.2-0.2,0.6-0.4,1l-1.7,6.5
						c-0.1,0.3-0.1,0.6-0.1,0.8c0,0.3,0.1,0.5,0.4,0.6c0.2,0.1,0.6,0.2,1,0.2l-0.2,0.8h-5.2l0.2-0.8c0.4,0,0.7,0,0.9-0.1
						c0.2-0.1,0.4-0.2,0.5-0.3c0.1-0.2,0.2-0.4,0.3-0.8l1.9-7.7l-6.6,9.7h-1.1l-0.6-9.7l-2.8,7.3c-0.2,0.4-0.2,0.7-0.2,0.8
						c0,0.3,0.1,0.5,0.4,0.6c0.2,0.1,0.6,0.2,1,0.2l-0.2,0.8h-3.7l0.2-0.8c0.4,0,0.7-0.3,1-0.6c0.3-0.4,0.6-0.8,0.7-1.3l2.4-6.4
						c0.1-0.2,0.1-0.3,0.1-0.5c0-0.3-0.1-0.5-0.3-0.6s-0.5-0.2-0.8-0.2h-0.2l0.2-0.8h4l0.6,8.5l5.8-8.5H53.2z"/>
					<path class="st0" d="M61.1,140.9c-0.2,0.3-0.3,0.6-0.5,0.9s-0.4,0.5-0.7,0.7c-0.2,0.2-0.5,0.4-0.7,0.5
						c-0.2,0.1-0.5,0.2-0.8,0.2c-0.6,0-0.9-0.2-1.1-0.5c-0.2-0.3-0.2-0.8-0.2-1.2c-0.4,0.5-0.9,0.9-1.3,1.3s-0.9,0.5-1.5,0.5
						c-0.3,0-0.6-0.1-0.8-0.3c-0.2-0.2-0.4-0.4-0.5-0.7s-0.2-0.6-0.2-1c0-0.7,0.2-1.5,0.6-2.3c0.4-0.8,0.9-1.5,1.5-2.1
						c0.6-0.6,1.3-0.8,2.1-0.8c0.3,0,0.6,0.1,0.8,0.2c0.2,0.1,0.3,0.3,0.4,0.5c0.1,0.2,0.1,0.4,0.2,0.6l0.3-1h1.8l-1.5,5
						c-0.1,0.4-0.2,0.6-0.2,0.7c0,0.1,0,0.1,0.1,0.2c0,0,0.1,0.1,0.2,0.1c0.4,0,0.7-0.4,1.1-1.1H61.1z M58.1,137.6
						c0-0.3-0.1-0.5-0.2-0.7c-0.1-0.2-0.3-0.3-0.6-0.3c-0.4,0-0.8,0.2-1.2,0.7c-0.4,0.5-0.7,1-0.9,1.7c-0.2,0.7-0.4,1.2-0.4,1.7
						c0,0.7,0.2,1,0.6,1c0.3,0,0.6-0.1,0.9-0.4c0.3-0.3,0.6-0.6,0.8-1.1c0.3-0.5,0.5-0.9,0.6-1.4C58,138.4,58.1,138,58.1,137.6z"/>
					<path class="st0" d="M71.4,136.8c0,0.2-0.1,0.4-0.3,0.6c-0.2,0.2-0.4,0.2-0.6,0.2c-0.3,0-0.6-0.1-0.9-0.3
						c-0.3-0.1-0.5-0.2-0.7-0.2c-0.3,0-0.7,0.1-1.1,0.4c-0.4,0.2-0.9,0.6-1.4,1.1c0.5,0,0.9,0.1,1.3,0.3c0.4,0.2,0.6,0.5,0.8,0.8
						s0.2,0.8,0.2,1.4c0,0.3,0.1,0.5,0.1,0.7c0,0.1,0.1,0.2,0.3,0.2c0.2,0,0.5-0.1,0.7-0.4c0.2-0.3,0.4-0.6,0.5-0.9h0.8
						c-0.2,0.6-0.6,1.1-1,1.6S69,143,68.3,143c-0.6,0-1-0.1-1.2-0.4c-0.3-0.3-0.4-0.6-0.4-0.9c0-0.1,0-0.3,0.1-0.6
						c0-0.3,0.1-0.6,0.1-0.7c0-0.7-0.4-1-1.1-1l-0.7,0.7l-0.9,2.9h-2l2.8-9.1c0.1-0.5,0.2-0.8,0.2-0.8c0-0.2-0.1-0.4-0.2-0.4
						c-0.2,0-0.5-0.1-0.9-0.1l0.2-0.8c1.3,0,2.2-0.1,2.8-0.2h0.6l-2.2,7.2c0.8-0.7,1.4-1.3,1.8-1.6c0.4-0.3,0.8-0.6,1.3-0.9
						c0.5-0.2,1-0.4,1.5-0.4c0.4,0,0.8,0.1,1,0.3C71.3,136.3,71.4,136.6,71.4,136.8z"/>
					<path class="st0" d="M77.1,140.9c-0.2,0.5-0.5,1-1,1.5s-1,0.7-1.7,0.7c-0.5,0-0.8-0.1-1-0.3S73,142.3,73,142
						c0-0.3,0.1-0.8,0.3-1.3l1.1-2.9c0.1-0.3,0.2-0.4,0.2-0.5c0-0.1,0-0.1-0.1-0.2c0,0-0.1-0.1-0.2-0.1c-0.2,0-0.4,0.1-0.6,0.4
						c-0.2,0.3-0.4,0.6-0.5,0.8h-0.7c0.3-0.7,0.7-1.3,1.3-1.7c0.5-0.4,1-0.6,1.5-0.6c0.4,0,0.7,0.1,0.9,0.3c0.2,0.2,0.4,0.4,0.4,0.7
						c0,0.3-0.1,0.6-0.2,0.9l-1.3,3.4c-0.1,0.2-0.1,0.4-0.1,0.6c0,0.1,0,0.1,0.1,0.2c0.1,0.1,0.1,0.1,0.2,0.1c0.2,0,0.3-0.1,0.5-0.3
						c0.2-0.2,0.4-0.5,0.7-1H77.1z M77.7,132.6c0,0.3-0.1,0.5-0.3,0.8s-0.5,0.3-0.7,0.3c-0.3,0-0.6-0.1-0.8-0.3
						c-0.2-0.2-0.3-0.5-0.3-0.8c0-0.3,0.1-0.5,0.3-0.7c0.2-0.2,0.5-0.3,0.8-0.3c0.2,0,0.4,0,0.5,0.1c0.2,0.1,0.3,0.2,0.4,0.4
						C77.6,132.2,77.7,132.4,77.7,132.6z"/>
					<path class="st0" d="M87.7,140.7c-0.2,0.3-0.4,0.6-0.6,1c-0.3,0.3-0.6,0.7-1,0.9c-0.4,0.3-0.8,0.4-1.3,0.4
						c-0.4,0-0.7-0.1-1-0.3c-0.2-0.2-0.4-0.5-0.4-0.8c0-0.3,0.1-0.6,0.2-1l0.6-2c0.2-0.5,0.3-0.9,0.3-1.1c0-0.1,0-0.2-0.1-0.3
						s-0.2-0.1-0.3-0.1c-0.3,0-0.7,0.2-1.1,0.7c-0.4,0.5-0.9,1.2-1.3,2s-0.8,1.8-1.1,2.8h-2l1.5-4.8c0.1-0.5,0.2-0.8,0.2-0.8
						c0-0.1,0-0.1,0-0.2c0-0.1-0.1-0.1-0.2-0.1c-0.2,0-0.4,0.1-0.6,0.4c-0.2,0.3-0.4,0.6-0.5,0.9h-0.7c0.2-0.6,0.5-1.1,1-1.6
						c0.4-0.5,1-0.7,1.7-0.7c0.4,0,0.7,0.1,1,0.3c0.2,0.2,0.3,0.5,0.3,0.7c0,0.1,0,0.4-0.1,0.6c-0.1,0.3-0.1,0.6-0.2,0.8l-0.3,0.8
						c0.7-1,1.3-1.9,1.9-2.5c0.6-0.6,1.3-0.9,2-0.9c0.4,0,0.7,0.1,0.9,0.4c0.2,0.2,0.3,0.5,0.3,0.8c0,0.2-0.1,0.5-0.2,1l-0.9,2.9
						c-0.1,0.4-0.1,0.6-0.1,0.7c0,0.1,0,0.1,0.1,0.2c0,0,0.1,0.1,0.1,0.1c0.2,0,0.3-0.1,0.6-0.3c0.2-0.2,0.5-0.5,0.7-0.9H87.7z"/>
					<path class="st0" d="M97.1,136.5c0,0.2-0.1,0.3-0.2,0.4c-0.1,0.1-0.2,0.1-0.3,0.1c-0.1,0-0.3,0-0.4-0.1
						c-0.1-0.1-0.2-0.1-0.2-0.1c-0.1,0-0.2,0.1-0.3,0.2c0.1,0.2,0.2,0.3,0.3,0.5c0.1,0.2,0.1,0.4,0.1,0.6c0,0.2,0,0.5-0.1,0.8
						s-0.3,0.6-0.5,0.8s-0.6,0.5-1.1,0.7s-1.1,0.3-1.8,0.3c-0.7,0-1.1,0.1-1.4,0.2c-0.2,0.1-0.3,0.3-0.3,0.5c0,0.1,0,0.2,0.1,0.3
						s0.2,0.1,0.4,0.2c0.2,0.1,0.5,0.1,0.9,0.3s0.9,0.2,1.3,0.4c1.5,0.4,2.2,1.1,2.2,2.1c0,0.4-0.1,0.8-0.4,1.1
						c-0.3,0.4-0.7,0.6-1.4,0.9c-0.7,0.2-1.5,0.3-2.6,0.3c-0.4,0-0.9,0-1.5-0.1c-0.6-0.1-1.1-0.3-1.6-0.5c-0.5-0.3-0.7-0.7-0.7-1.2
						c0-0.3,0.1-0.5,0.2-0.7c0.1-0.2,0.3-0.4,0.4-0.5c0.2-0.1,0.3-0.2,0.5-0.2c0.1,0,0.2,0,0.3,0.1c0.1,0,0.1,0.1,0.1,0.2
						s-0.1,0.2-0.2,0.3c-0.2,0.2-0.3,0.5-0.3,0.7c0,0.5,0.3,0.9,0.9,1.1s1.2,0.3,1.8,0.3c0.8,0,1.4-0.1,1.8-0.3
						c0.5-0.2,0.7-0.5,0.7-0.8c0-0.2,0-0.3-0.1-0.4c-0.1-0.1-0.3-0.2-0.5-0.3c-0.3-0.1-0.7-0.3-1.4-0.5c-0.6-0.2-1.1-0.4-1.5-0.5
						c-0.3-0.2-0.6-0.3-0.8-0.6c-0.2-0.2-0.3-0.5-0.3-0.8c0-0.5,0.2-0.8,0.6-1.1c0.4-0.3,0.9-0.5,1.4-0.6c-0.4-0.2-0.7-0.4-1-0.8
						c-0.2-0.3-0.3-0.7-0.3-1.1c0-0.4,0.1-0.9,0.4-1.3s0.7-0.7,1.2-1c0.5-0.3,1.1-0.4,1.7-0.4c0.9,0,1.6,0.2,2.1,0.7
						c0.2-0.2,0.4-0.4,0.6-0.5c0.2-0.1,0.4-0.2,0.7-0.2c0.2,0,0.4,0.1,0.5,0.2S97.1,136.3,97.1,136.5z M94.1,137.5
						c0-0.2,0-0.4-0.1-0.5s-0.2-0.3-0.3-0.4c-0.1-0.1-0.3-0.1-0.5-0.1c-0.3,0-0.6,0.1-0.9,0.4s-0.5,0.7-0.6,1.1
						c-0.1,0.4-0.2,0.8-0.2,1.1c0,0.3,0.1,0.6,0.2,0.7c0.2,0.2,0.4,0.2,0.7,0.2c0.6,0,1-0.3,1.3-0.9C94,138.6,94.1,138,94.1,137.5z"
						/>
					<path class="st0" d="M105,137.3c0,0.2-0.1,0.4-0.2,0.6s-0.4,0.3-0.6,0.3c-0.2,0-0.4,0-0.5-0.1c-0.1-0.1-0.2-0.2-0.3-0.3
						c-0.1-0.1-0.1-0.3-0.2-0.6c-0.1-0.2-0.1-0.3-0.3-0.4c-0.1-0.1-0.3-0.2-0.7-0.2c-0.3,0-0.5,0.1-0.8,0.2
						c-0.2,0.1-0.3,0.3-0.3,0.6c0,0.2,0,0.3,0.1,0.5c0.1,0.1,0.2,0.3,0.3,0.4c0.1,0.1,0.3,0.3,0.6,0.6c0.5,0.4,0.9,0.8,1.2,1.1
						s0.4,0.7,0.4,1.1c0,0.4-0.1,0.7-0.3,1c-0.2,0.3-0.6,0.6-1,0.8c-0.5,0.2-1.1,0.3-1.9,0.3c-1.1,0-1.8-0.2-2.3-0.6
						s-0.7-0.8-0.7-1.2c0-0.2,0.1-0.5,0.3-0.6c0.2-0.2,0.4-0.3,0.7-0.3c0.6,0,0.9,0.4,1,1.1c0,0.3,0.1,0.5,0.3,0.7
						c0.1,0.2,0.4,0.3,0.8,0.3c0.4,0,0.7-0.1,0.9-0.3s0.4-0.4,0.4-0.7c0-0.2,0-0.3-0.1-0.5c-0.1-0.1-0.2-0.3-0.5-0.5
						c-0.4-0.4-0.8-0.7-1.1-1c-0.3-0.3-0.5-0.6-0.7-0.8c-0.1-0.3-0.2-0.5-0.2-0.8c0-0.3,0.1-0.5,0.3-0.8s0.5-0.6,1-0.8
						c0.5-0.2,1.1-0.3,1.9-0.3c0.5,0,0.9,0,1.2,0.1c0.3,0.1,0.6,0.2,0.8,0.3c0.2,0.1,0.3,0.3,0.4,0.4S105,137.1,105,137.3z"/>
					<path class="st0" d="M119,138.8c0,0.5-0.1,1.1-0.3,1.6c-0.2,0.5-0.5,1-0.9,1.4s-0.9,0.7-1.4,1c-0.5,0.2-1.2,0.3-1.8,0.3
						c-0.6,0-1.2-0.1-1.7-0.4c-0.5-0.2-0.9-0.6-1.1-1.1c-0.3-0.5-0.4-1-0.4-1.5c0-0.7,0.2-1.4,0.6-2.1s1-1.2,1.7-1.6
						c0.7-0.4,1.5-0.6,2.3-0.6c0.7,0,1.3,0.1,1.7,0.4c0.5,0.3,0.9,0.6,1.1,1.1C118.9,137.8,119,138.3,119,138.8z M117.1,138.2
						c0-0.5-0.1-0.9-0.3-1.2c-0.2-0.3-0.5-0.4-1-0.4c-0.4,0-0.8,0.2-1.1,0.5s-0.6,0.7-0.8,1.2s-0.4,0.9-0.5,1.4
						c-0.1,0.5-0.2,0.9-0.2,1.2c0,0.5,0.1,0.9,0.3,1.2s0.5,0.4,0.9,0.4c0.4,0,0.8-0.2,1.2-0.5c0.3-0.3,0.6-0.7,0.8-1.1
						c0.2-0.5,0.4-0.9,0.5-1.4C117,138.9,117.1,138.5,117.1,138.2z"/>
					<path class="st0" d="M128.3,132.7c0,0.2-0.1,0.4-0.2,0.6c-0.2,0.2-0.4,0.3-0.6,0.3c-0.2,0-0.4-0.1-0.5-0.2
						c-0.1-0.1-0.2-0.4-0.3-0.7c0-0.1-0.1-0.2-0.2-0.3c-0.1-0.1-0.2-0.1-0.3-0.1c-0.1,0-0.3,0.1-0.3,0.2c-0.1,0.1-0.1,0.3-0.2,0.5
						l-1,3.2h1.4l-0.2,0.8h-1.4l-1.4,4.7c-0.4,1.2-0.7,2.2-1,2.9c-0.3,0.7-0.7,1.3-1.3,1.8c-0.6,0.5-1.3,0.8-2.1,0.8
						c-0.6,0-1.1-0.1-1.4-0.4c-0.3-0.3-0.5-0.6-0.5-0.9c0-0.3,0.1-0.5,0.3-0.7c0.2-0.2,0.4-0.3,0.7-0.3c0.3,0,0.6,0.1,0.7,0.3
						c0.1,0.2,0.2,0.4,0.2,0.7c0,0.4,0.2,0.6,0.5,0.6c0.3,0,0.5-0.2,0.7-0.5s0.4-0.8,0.6-1.4l2.3-7.5H121l0.2-0.8h1.4l0.2-0.5
						c0.2-0.7,0.4-1.4,0.7-2c0.3-0.6,0.6-1.1,1.1-1.5c0.5-0.4,1.1-0.6,1.9-0.6c0.3,0,0.6,0,0.8,0.1c0.3,0.1,0.5,0.2,0.6,0.4
						C128.2,132.3,128.3,132.5,128.3,132.7z"/>
					<path class="st0" d="M139.8,140.9c-0.2,0.3-0.3,0.6-0.5,0.9s-0.4,0.5-0.7,0.7c-0.2,0.2-0.5,0.4-0.7,0.5
						c-0.2,0.1-0.5,0.2-0.8,0.2c-0.6,0-0.9-0.2-1.1-0.5c-0.2-0.3-0.2-0.8-0.2-1.2c-0.4,0.5-0.9,0.9-1.3,1.3
						c-0.4,0.3-0.9,0.5-1.5,0.5c-0.3,0-0.6-0.1-0.8-0.3c-0.2-0.2-0.4-0.4-0.5-0.7c-0.1-0.3-0.2-0.6-0.2-1c0-0.7,0.2-1.5,0.6-2.3
						c0.4-0.8,0.9-1.5,1.5-2.1c0.6-0.6,1.3-0.8,2.1-0.8c0.3,0,0.6,0.1,0.8,0.2c0.2,0.1,0.3,0.3,0.4,0.5s0.1,0.4,0.2,0.6l0.3-1h1.8
						l-1.5,5c-0.1,0.4-0.2,0.6-0.2,0.7c0,0.1,0,0.1,0.1,0.2c0,0,0.1,0.1,0.2,0.1c0.4,0,0.7-0.4,1.1-1.1H139.8z M136.7,137.6
						c0-0.3-0.1-0.5-0.2-0.7c-0.1-0.2-0.3-0.3-0.6-0.3c-0.4,0-0.8,0.2-1.2,0.7c-0.4,0.5-0.7,1-0.9,1.7s-0.4,1.2-0.4,1.7
						c0,0.7,0.2,1,0.6,1c0.3,0,0.6-0.1,0.9-0.4c0.3-0.3,0.6-0.6,0.8-1.1c0.3-0.5,0.5-0.9,0.6-1.4C136.6,138.4,136.7,138,136.7,137.6
						z"/>
					<path class="st0" d="M163,131.7l-0.2,0.8c-0.4,0-0.7,0-1,0.1c-0.2,0.1-0.4,0.2-0.5,0.4c-0.1,0.2-0.2,0.6-0.4,1l-1.7,6.5
						c-0.1,0.3-0.1,0.6-0.1,0.8c0,0.3,0.1,0.5,0.4,0.6c0.2,0.1,0.6,0.2,1,0.2l-0.2,0.8h-5.2l0.2-0.8c0.4,0,0.7,0,0.9-0.1
						c0.2-0.1,0.4-0.2,0.5-0.3c0.1-0.2,0.2-0.4,0.3-0.8l1.9-7.7l-6.6,9.7h-1.1l-0.6-9.7l-2.8,7.3c-0.2,0.4-0.2,0.7-0.2,0.8
						c0,0.3,0.1,0.5,0.4,0.6c0.2,0.1,0.6,0.2,1,0.2l-0.2,0.8h-3.7l0.2-0.8c0.4,0,0.7-0.3,1-0.6c0.3-0.4,0.6-0.8,0.7-1.3l2.4-6.4
						c0.1-0.2,0.1-0.3,0.1-0.5c0-0.3-0.1-0.5-0.3-0.6s-0.5-0.2-0.8-0.2h-0.2l0.2-0.8h4l0.6,8.5l5.8-8.5H163z"/>
					<path class="st0" d="M170.4,138.8c0,0.5-0.1,1.1-0.3,1.6c-0.2,0.5-0.5,1-0.9,1.4s-0.9,0.7-1.4,1c-0.5,0.2-1.2,0.3-1.8,0.3
						c-0.6,0-1.2-0.1-1.7-0.4c-0.5-0.2-0.9-0.6-1.1-1.1c-0.3-0.5-0.4-1-0.4-1.5c0-0.7,0.2-1.4,0.6-2.1s1-1.2,1.7-1.6
						c0.7-0.4,1.5-0.6,2.3-0.6c0.7,0,1.3,0.1,1.7,0.4c0.5,0.3,0.9,0.6,1.1,1.1C170.3,137.8,170.4,138.3,170.4,138.8z M168.5,138.2
						c0-0.5-0.1-0.9-0.3-1.2c-0.2-0.3-0.5-0.4-1-0.4c-0.4,0-0.8,0.2-1.1,0.5s-0.6,0.7-0.8,1.2s-0.4,0.9-0.5,1.4
						c-0.1,0.5-0.2,0.9-0.2,1.2c0,0.5,0.1,0.9,0.3,1.2s0.5,0.4,0.9,0.4c0.4,0,0.8-0.2,1.2-0.5c0.3-0.3,0.6-0.7,0.8-1.1
						c0.2-0.5,0.4-0.9,0.5-1.4C168.4,138.9,168.5,138.5,168.5,138.2z"/>
					<path class="st0" d="M180.2,137.2c0,0.6-0.2,1.2-0.5,2c-0.3,0.7-0.7,1.4-1.3,2c-0.5,0.6-1.1,1.1-1.8,1.5
						c-0.7,0.4-1.3,0.6-2,0.6c-0.3,0-0.6-0.1-0.9-0.2s-0.5-0.3-0.7-0.6c-0.2-0.3-0.3-0.6-0.3-1c0-0.5,0.1-0.9,0.4-1.3
						c0.3-0.4,0.6-0.8,1.1-1.2c0.4-0.3,0.7-0.6,0.9-0.8s0.4-0.5,0.5-0.7c-0.4,0.3-0.8,0.4-1.2,0.4c-0.3,0-0.6-0.1-0.9-0.3
						c-0.2-0.1-0.3-0.1-0.4-0.1c-0.3,0-0.4,0.2-0.5,0.5H172c0.4-1.2,0.9-1.8,1.7-1.8c0.4,0,0.8,0.2,1.2,0.5c0.1,0.1,0.2,0.2,0.3,0.2
						c0.1,0,0.2,0.1,0.2,0.1c0.2,0,0.4-0.2,0.5-0.5c0.1-0.2,0.2-0.4,0.3-0.4c0.1,0,0.2,0,0.3,0.1c0.1,0.1,0.1,0.2,0.1,0.3
						c0,0.3-0.1,0.6-0.2,0.9s-0.4,0.7-0.6,1.1c-0.4,0.7-0.7,1.2-0.9,1.6s-0.3,0.7-0.3,1.1c0,0.3,0.1,0.6,0.3,0.7
						c0.2,0.1,0.4,0.2,0.7,0.2c0.5,0,1.1-0.2,1.5-0.6c0.5-0.4,0.9-0.9,1.2-1.4c0.3-0.5,0.5-1,0.5-1.4c0-0.3,0-0.6-0.1-0.9
						c-0.1-0.3-0.1-0.5-0.1-0.8c0-0.4,0.1-0.6,0.2-0.8c0.2-0.1,0.3-0.2,0.5-0.2c0.2,0,0.5,0.1,0.6,0.3
						C180.2,136.5,180.2,136.8,180.2,137.2z"/>
					<path class="st0" d="M189.1,137.3c0,0.2-0.1,0.5-0.2,0.8c-0.1,0.3-0.4,0.6-0.8,0.9c-0.4,0.3-0.9,0.6-1.6,0.9
						c-0.7,0.3-1.5,0.4-2.6,0.5l-0.2,0c0,0.2-0.1,0.4-0.1,0.6c0,0.4,0.1,0.7,0.3,0.9c0.2,0.2,0.5,0.3,0.9,0.3c0.8,0,1.6-0.4,2.4-1.3
						h0.9c-0.3,0.5-0.9,1-1.5,1.5c-0.7,0.5-1.5,0.8-2.5,0.8c-0.7,0-1.2-0.2-1.7-0.5c-0.5-0.4-0.7-0.9-0.7-1.6c0-0.8,0.2-1.7,0.7-2.4
						s1.1-1.4,1.9-1.9s1.7-0.7,2.6-0.7c0.8,0,1.3,0.1,1.6,0.4S189.1,136.9,189.1,137.3z M187.4,137.2c0-0.2-0.1-0.3-0.2-0.5
						c-0.1-0.2-0.3-0.2-0.5-0.2c-0.4,0-0.7,0.1-1.1,0.4c-0.3,0.3-0.6,0.6-0.8,0.9c-0.2,0.4-0.4,0.7-0.5,1.1s-0.2,0.6-0.3,0.7
						c1.1-0.2,2-0.5,2.5-0.9C187.1,138.3,187.4,137.8,187.4,137.2z"/>
					<path class="st0" d="M205.8,140.7c-0.8,1.5-1.8,2.3-3,2.3c-0.4,0-0.7-0.1-1-0.3c-0.2-0.2-0.3-0.5-0.3-0.8
						c0-0.2,0.1-0.5,0.2-0.9l0.6-2.1c0.1-0.5,0.2-0.8,0.2-0.9c0-0.2-0.1-0.4-0.2-0.5c-0.1-0.1-0.3-0.2-0.5-0.2c-0.5,0-1,0.3-1.5,0.8
						s-1,1.2-1.5,2c-0.5,0.8-0.8,1.6-1,2.4l-0.1,0.4h-2l1.3-4.1c0.1-0.3,0.1-0.6,0.1-0.8s0-0.3-0.1-0.5c-0.1-0.1-0.2-0.2-0.5-0.2
						c-0.4,0-0.8,0.2-1.2,0.5c-0.4,0.3-0.8,0.7-1.1,1.3c-0.4,0.5-0.7,1.1-1,1.7c-0.3,0.6-0.5,1.2-0.7,1.8l-0.1,0.3h-2l1.4-4.7
						c0.2-0.5,0.2-0.8,0.2-1c0-0.1,0-0.2-0.1-0.2c-0.1-0.1-0.1-0.1-0.2-0.1c-0.1,0-0.2,0-0.3,0.1c-0.1,0.1-0.3,0.2-0.4,0.4
						c-0.1,0.2-0.3,0.4-0.5,0.8h-0.7c0.2-0.6,0.6-1.1,1-1.6s1-0.7,1.7-0.7c0.2,0,0.4,0,0.6,0.1c0.2,0.1,0.4,0.2,0.5,0.4
						c0.1,0.2,0.2,0.4,0.2,0.7c0,0.3-0.1,0.8-0.3,1.4l-0.2,0.8c0.3-0.5,0.6-1,1-1.4c0.3-0.4,0.7-0.8,1.1-1.1
						c0.4-0.3,0.7-0.5,1.1-0.7c0.3-0.1,0.7-0.2,1-0.2c0.5,0,0.8,0.1,1.1,0.4c0.3,0.2,0.4,0.6,0.4,0.9c0,0.3-0.1,0.7-0.3,1.3
						l-0.2,0.7c0.3-0.6,0.7-1.1,1.1-1.6c0.4-0.5,0.9-0.9,1.4-1.2c0.5-0.3,1.1-0.5,1.7-0.5c0.4,0,0.6,0.1,0.9,0.2s0.4,0.3,0.5,0.5
						c0.1,0.2,0.2,0.4,0.2,0.6c0,0.2,0,0.3,0,0.4s-0.1,0.4-0.2,0.8l-0.8,2.5c-0.1,0.3-0.2,0.5-0.2,0.6c0,0.2,0.1,0.3,0.3,0.3
						c0.1,0,0.3-0.1,0.6-0.3c0.2-0.2,0.5-0.5,0.7-0.9H205.8z"/>
					<path class="st0" d="M214.3,137.3c0,0.2-0.1,0.5-0.2,0.8c-0.1,0.3-0.4,0.6-0.8,0.9c-0.4,0.3-0.9,0.6-1.6,0.9
						c-0.7,0.3-1.5,0.4-2.6,0.5l-0.2,0c0,0.2-0.1,0.4-0.1,0.6c0,0.4,0.1,0.7,0.3,0.9c0.2,0.2,0.5,0.3,0.9,0.3c0.8,0,1.6-0.4,2.4-1.3
						h0.9c-0.3,0.5-0.9,1-1.5,1.5c-0.7,0.5-1.5,0.8-2.5,0.8c-0.7,0-1.2-0.2-1.7-0.5c-0.5-0.4-0.7-0.9-0.7-1.6c0-0.8,0.2-1.7,0.7-2.4
						s1.1-1.4,1.9-1.9s1.7-0.7,2.6-0.7c0.8,0,1.3,0.1,1.6,0.4S214.3,136.9,214.3,137.3z M212.6,137.2c0-0.2-0.1-0.3-0.2-0.5
						c-0.1-0.2-0.3-0.2-0.5-0.2c-0.4,0-0.7,0.1-1.1,0.4c-0.3,0.3-0.6,0.6-0.8,0.9c-0.2,0.4-0.4,0.7-0.5,1.1s-0.2,0.6-0.3,0.7
						c1.1-0.2,2-0.5,2.5-0.9C212.3,138.3,212.6,137.8,212.6,137.2z"/>
					<path class="st0" d="M224.8,140.7c-0.2,0.3-0.4,0.6-0.6,1c-0.3,0.3-0.6,0.7-1,0.9c-0.4,0.3-0.8,0.4-1.3,0.4
						c-0.4,0-0.7-0.1-1-0.3c-0.2-0.2-0.4-0.5-0.4-0.8c0-0.3,0.1-0.6,0.2-1l0.6-2c0.2-0.5,0.3-0.9,0.3-1.1c0-0.1,0-0.2-0.1-0.3
						s-0.2-0.1-0.3-0.1c-0.3,0-0.7,0.2-1.1,0.7c-0.4,0.5-0.9,1.2-1.3,2s-0.8,1.8-1.1,2.8h-2l1.5-4.8c0.1-0.5,0.2-0.8,0.2-0.8
						c0-0.1,0-0.1,0-0.2c0-0.1-0.1-0.1-0.2-0.1c-0.2,0-0.4,0.1-0.6,0.4c-0.2,0.3-0.4,0.6-0.5,0.9h-0.7c0.2-0.6,0.5-1.1,1-1.6
						c0.4-0.5,1-0.7,1.7-0.7c0.4,0,0.7,0.1,1,0.3c0.2,0.2,0.3,0.5,0.3,0.7c0,0.1,0,0.4-0.1,0.6c-0.1,0.3-0.1,0.6-0.2,0.8l-0.3,0.8
						c0.7-1,1.3-1.9,1.9-2.5c0.6-0.6,1.3-0.9,2-0.9c0.4,0,0.7,0.1,0.9,0.4c0.2,0.2,0.3,0.5,0.3,0.8c0,0.2-0.1,0.5-0.2,1l-0.9,2.9
						c-0.1,0.4-0.1,0.6-0.1,0.7c0,0.1,0,0.1,0.1,0.2c0,0,0.1,0.1,0.1,0.1c0.2,0,0.3-0.1,0.6-0.3c0.2-0.2,0.5-0.5,0.7-0.9H224.8z"/>
					<path class="st0" d="M231.5,136.1l-0.2,0.8h-1.6l-1.2,4.1c-0.1,0.3-0.1,0.5-0.1,0.6c0,0.1,0,0.2,0.1,0.3
						c0.1,0.1,0.2,0.1,0.3,0.1c0.3,0,0.6-0.2,0.8-0.5s0.5-0.6,0.6-1h0.8c-0.3,0.7-0.7,1.2-1,1.6c-0.4,0.4-0.7,0.6-1.1,0.8
						c-0.3,0.1-0.6,0.2-0.9,0.2c-0.5,0-0.8-0.1-1.1-0.4c-0.3-0.3-0.4-0.6-0.4-1.1c0-0.3,0.1-0.7,0.2-1.3l1.1-3.4h-1.5l0.2-0.8h1.5
						l0.8-2.5h2l-0.8,2.5H231.5z"/>
				</g>
			</g>
		</g>
	</g>
	<g id="mouseOver" class="st12">
		<rect x="-523.8" y="-43" class="st13" width="1280" height="240"/>
		<text transform="matrix(1 0 0 1 18.1657 82.9442)" class="st18 st19 st20 st21">Grace City</text>
	</g>
</g>
<g id="home">
</g>
<g id="NAVBAR">
	<g id="navBar">
	</g>
	<g id="mouseOver_1_">
	</g>
</g>
</svg>
