<?xml version="1.0" encoding="utf-8"?>
<!-- Generator: Adobe Illustrator 19.2.1, SVG Export Plug-In . SVG Version: 6.00 Build 0)  -->
<svg version="1.1" id="Layer_1" xmlns="http://www.w3.org/2000/svg" xmlns:xlink="http://www.w3.org/1999/xlink" x="0px" y="0px"
	 viewBox="0 0 183.3 183.4" style="enable-background:new 0 0 183.3 183.4;" xml:space="preserve">
<style type="text/css">
	.st0{fill:#CDCBCA;}
</style>
<g id="contact">
</g>
<g id="about">
</g>
<g id="home">
</g>
<g id="Layer_1_1_">
	<g>
		<g>
			<path class="st0" d="M91.6,0.3C41.3,0.2,0.3,41.3,0.3,91.7c0,50.5,40.8,91.4,91.3,91.4C142,183,183,142.2,183,91.8
				C183,41.5,142,0.4,91.6,0.3 M91.5,175c-46-0.1-83.4-37.7-83.1-83.7C8.6,45.5,46,8.5,91.9,8.6S174.8,46,174.7,92
				C174.6,137.9,137.4,175,91.5,175"/>
		</g>
		<g>
			<g>
				<path class="st0" d="M16.3,82.5h9.7c5,0,8.2,2.4,8.2,6.3c0,3.5-3,6.3-6.7,6.3h-6.2v7.6h-5C16.3,102.7,16.3,82.5,16.3,82.5z
					 M21.2,86.2v5.3h4.5c1.8,0,3.1-1.1,3.1-2.7c0-1.6-1.1-2.6-3-2.6C25.9,86.2,21.2,86.2,21.2,86.2z"/>
			</g>
			<g>
				<path class="st0" d="M46.2,82c5.8,0,10.5,3.8,10.5,10.7c0,6.7-4.8,10.7-10.5,10.7s-10.5-3.8-10.5-10.7
					C35.7,85.7,40.5,82,46.2,82 M46.2,99c3.3,0,5.3-2.5,5.3-6.4c0-3.9-1.9-6.3-5.3-6.3s-5.3,2.4-5.3,6.3C41,96.6,42.9,99,46.2,99"/>
			</g>
			<g>
				<polygon class="st0" points="59.1,82.5 66.2,82.5 69.4,94.8 72.6,82.5 79.7,82.5 79.7,102.8 75.6,102.8 75.6,86.2 71.2,102.8 
					67.4,102.8 63.1,86 63.1,102.8 59.1,102.8 				"/>
			</g>
			<g>
				<path class="st0" d="M83.4,82.5h9.7c5,0,8.2,2.4,8.2,6.3c0,3.5-3,6.3-6.7,6.3h-6.2v7.6h-5C83.4,102.7,83.4,82.5,83.4,82.5z
					 M88.4,86.2v5.3H93c1.8,0,3.1-1.1,3.1-2.7c0-1.6-1.1-2.6-3-2.6C93.1,86.2,88.4,86.2,88.4,86.2z"/>
			</g>
			<g>
				<path class="st0" d="M113.4,82c5.8,0,10.5,3.8,10.5,10.7c0,6.7-4.8,10.7-10.5,10.7s-10.5-3.8-10.5-10.7
					C102.9,85.7,107.7,82,113.4,82 M113.4,99c3.3,0,5.3-2.5,5.3-6.4c0-3.9-1.9-6.3-5.3-6.3s-5.3,2.4-5.3,6.3
					C108.2,96.6,110.1,99,113.4,99"/>
			</g>
			<g>
				<path class="st0" d="M128.7,95.8c0.7,1.5,1.8,3.9,6.5,3.9c3,0,4.5-0.8,4.5-2.3c0-1.4-1.4-2.2-4.8-2.6c-4.3-0.5-8.5-2.3-8.5-6.3
					c0-2.6,1.4-4.8,3.8-5.8c1.3-0.5,2.9-0.8,5-0.8c5.8,0,8.1,2.8,8.7,4.1l-3.1,2.6c-1.2-2.1-2.8-3.1-5.5-3.1c-2.6,0-4.1,0.8-4.1,2.1
					c0,1.2,1.1,1.8,4.4,2.3c5.3,0.8,8.9,2.3,8.9,6.6c0,1.8-0.6,3.3-1.6,4.4c-1.6,1.6-3.8,2.3-7.6,2.3c-6.1,0-8.1-1.9-9.7-4.6
					L128.7,95.8z"/>
			</g>
			<g>
				<path class="st0" d="M156.5,82c5.8,0,10.4,3.8,10.4,10.7c0,6.7-4.8,10.7-10.4,10.7c-5.8,0-10.5-3.8-10.5-10.7
					C146.1,85.7,150.9,82,156.5,82 M156.5,99c3.3,0,5.2-2.5,5.2-6.4c0-3.9-1.9-6.3-5.2-6.3c-3.3,0-5.3,2.4-5.3,6.3
					C151.4,96.6,153.3,99,156.5,99"/>
			</g>
		</g>
		<g>
			<rect x="22.9" y="70.2" class="st0" width="137.4" height="2.5"/>
		</g>
		<g>
			<rect x="22.9" y="112.6" class="st0" width="137.4" height="2.5"/>
		</g>
		<g>
			<path class="st0" d="M73.4,148.3c1.6,0,2.8,1.3,2.8,2.8c0,0.6-0.3,1.3-0.6,1.7c1.1,0.9,2.8,1.3,4.6,1.3c2.9,0,5.1-1.7,5.1-4.3
				c0-1.6-0.8-3.1-2.8-4c-1.1-0.5-2.6-0.7-4.5-0.7h-1.3v-3.7h1.4c1.8,0,3.5-0.4,4.7-0.9c1.5-0.8,2.3-1.9,2.3-3.5
				c0-2.3-2.1-3.5-4.7-3.5c-1.7,0-2.9,0.3-3.6,0.9c0.4,0.5,0.6,1.1,0.6,1.7c0,1.6-1.3,2.8-2.8,2.8c-1.6,0-2.9-1.3-2.9-3.4
				c0-0.7,0.3-1.6,0.9-2.5c1.2-1.8,3.8-3.4,8.1-3.4c5.5,0,9.4,3.1,9.4,7.2c0,2.3-1.4,4.2-3.4,5.3c-0.9,0.5-1.7,0.9-2.7,1
				c0.9,0.2,1.7,0.6,2.5,1c2.1,1.1,3.8,3.1,3.8,6c0,4.8-4.3,8-10,8c-4,0-7.3-1.6-8.8-3.8c-0.6-0.9-0.9-1.8-0.9-2.7
				C70.4,149.8,71.6,148.3,73.4,148.3z"/>
			<path class="st0" d="M95.9,149.4c1.6,0,2.8,1.3,2.8,2.8c0,0.4-0.1,0.9-0.4,1.3c0.9,0.3,1.9,0.4,3.2,0.4c3.6,0,5.5-2.3,5.5-5.3
				c0-2.8-1.8-4.8-5.8-4.8c-1.6,0-3.7,0.4-5.3,1.3l-2.2-1.2l1.7-14.1h14.8v4.4H99.2l-0.7,6c1-0.3,2.3-0.4,3.7-0.4
				c5.5,0,9.8,3.1,9.8,8.8c0,5.5-4.3,9.4-10,9.4c-3.6,0-6.1-1-7.6-2.3c-0.9-0.9-1.4-2.1-1.4-3.1C92.9,150.8,94.2,149.4,95.9,149.4z"
				/>
		</g>
		<g>
			<path class="st0" d="M78.3,53.3c-1.4,1.6-3.6,2.6-5.9,2.6c-4.5,0-7.3-3.2-7.3-7.2c0-4.3,3.3-7.3,7.5-7.3c3.3,0,5.5,1.8,5.5,3.7
				c0,1.2-0.7,2-1.8,2c-1.1,0-1.8-0.6-1.8-1.7c0-0.3,0.1-0.7,0.2-0.9c-0.4-0.3-1.2-0.5-2.2-0.5c-2.6,0-4.4,1.8-4.4,4.8
				c0,2.8,1.9,4.7,4.3,4.7c1.7,0,3.1-0.7,4.1-1.9L78.3,53.3z"/>
			<path class="st0" d="M80.3,55.5v-2.4h2.1v-9h-2.1v-2.4h7.1V44h-2.1v9h2.1v2.4H80.3z"/>
			<path class="st0" d="M89.5,55.5v-2.4h2.1v-9h-2.1v-2.4h6.7c3.6,0,5.1,1.6,5.1,3.6c0,1.6-1,2.6-2.3,3.1c1.7,0.5,2.8,1.6,2.8,3.3
				c0,2.3-1.8,3.9-5.3,3.9H89.5z M96.2,47.5c1.4,0,2.2-0.7,2.2-1.8c0-1.1-0.8-1.7-2.3-1.7h-1.8v3.5H96.2z M96.4,53.1
				c1.4,0,2.3-0.6,2.3-1.8c0-1.1-0.9-1.8-2.3-1.8h-2.1v3.6H96.4z"/>
			<path class="st0" d="M118.3,48.5c0,4-2.8,7.3-7.2,7.3c-4.5,0-7.2-3.3-7.2-7.3c0-4,2.8-7.2,7.2-7.2
				C115.3,41.3,118.3,44.5,118.3,48.5z M115.3,48.6c0-2.8-1.8-4.7-4.3-4.7c-2.5,0-4.3,1.8-4.3,4.7c0,2.8,1.8,4.7,4.3,4.7
				C113.4,53.3,115.3,51.4,115.3,48.6z"/>
		</g>
	</g>
</g>
</svg>
