<?xml version="1.0" encoding="utf-8"?>
<!-- Generator: Adobe Illustrator 19.0.1, SVG Export Plug-In . SVG Version: 6.00 Build 0)  -->
<svg version="1.1" id="Layer_1" xmlns="http://www.w3.org/2000/svg" xmlns:xlink="http://www.w3.org/1999/xlink" x="0px" y="0px"
	 viewBox="-131.3 328.3 137.7 137.7" style="enable-background:new -131.3 328.3 137.7 137.7;" xml:space="preserve">
<style type="text/css">
	.st0{fill:#FFFFFF;}
	.st1{fill:#F9F9F9;}
	.st2{fill:#33C5F3;}
</style>
<g>
	<g>
		<g>
			<path class="st0" d="M-100.1,421.3v-48.7h3.2v45.8h15.3v2.9H-100.1z"/>
		</g>
		<g>
			<path class="st0" d="M-73.7,409.5c0,5.2,1.9,9.3,7.3,9.3c5.4,0,7.3-4,7.3-9.3v-37h3v36.8c0,7-2.9,12.3-10.4,12.3
				c-7.4,0-10.4-5.4-10.4-12.3v-36.8h3.2V409.5z"/>
		</g>
		<g>
			<path class="st0" d="M-38.2,398.6l-9.9,22.7h-3.1l11-25.3l-10.2-23.5h3.3l9.2,21l9.3-21h3.1L-35.8,396l10.9,25.3h-3.4
				L-38.2,398.6z"/>
		</g>
	</g>
	<g>
		<g>
			<path class="st1" d="M-62.6,460.8c-1.6,0-3.2-0.1-4.8-0.2l0.1-2c1.5,0.1,3.1,0.2,4.6,0.2L-62.6,460.8z M-57.8,460.6l-0.1-2
				c1.5-0.1,3.1-0.3,4.6-0.5l0.3,2C-54.7,460.4-56.3,460.5-57.8,460.6z M-72.1,460.1c-1.6-0.2-3.1-0.5-4.7-0.9l0.4-1.9
				c1.5,0.3,3,0.6,4.5,0.9L-72.1,460.1z M-48.4,459.2l-0.4-1.9c1.5-0.3,3-0.7,4.5-1.2l0.6,1.9C-45.3,458.5-46.9,458.9-48.4,459.2z
				 M-81.4,458c-1.5-0.5-3-1-4.5-1.6l0.7-1.8c1.4,0.6,2.9,1.1,4.4,1.5L-81.4,458z M-39.3,456.5l-0.7-1.8c1.4-0.6,2.9-1.2,4.2-1.8
				l0.9,1.8C-36.4,455.2-37.9,455.9-39.3,456.5z M-90.2,454.5c-1.4-0.7-2.8-1.4-4.2-2.2l1-1.7c1.3,0.8,2.7,1.5,4.1,2.2L-90.2,454.5z
				 M-30.8,452.3l-1-1.7c1.3-0.8,2.6-1.6,3.9-2.5l1.1,1.6C-28,450.7-29.4,451.6-30.8,452.3z M-98.4,449.7c-1.3-0.9-2.6-1.8-3.8-2.8
				l1.2-1.5c1.2,1,2.4,1.9,3.7,2.7L-98.4,449.7z M-22.9,447l-1.2-1.5c1.2-1,2.4-2,3.5-3l1.3,1.4C-20.4,445-21.7,446-22.9,447z
				 M-105.8,443.8c-1.2-1.1-2.3-2.2-3.4-3.4l1.4-1.3c1,1.1,2.1,2.2,3.3,3.3L-105.8,443.8z M-15.9,440.5l-1.4-1.3
				c1-1.1,2.1-2.3,3-3.5l1.5,1.2C-13.8,438.2-14.8,439.4-15.9,440.5z M-112.3,436.8c-1-1.2-1.9-2.5-2.8-3.8l1.6-1.1
				c0.9,1.3,1.8,2.5,2.7,3.7L-112.3,436.8z M-10,433.1l-1.6-1.1c0.9-1.3,1.7-2.6,2.5-3.9l1.7,1C-8.2,430.4-9.1,431.8-10,433.1z
				 M-117.7,428.9c-0.8-1.4-1.5-2.8-2.2-4.2l1.8-0.9c0.7,1.4,1.4,2.8,2.2,4.1L-117.7,428.9z M-5.2,424.9L-7,424
				c0.7-1.4,1.3-2.8,1.9-4.2l1.8,0.7C-3.9,422-4.5,423.5-5.2,424.9z M-121.8,420.3c-0.6-1.5-1.1-3-1.6-4.5l1.9-0.6
				c0.4,1.5,1,2.9,1.5,4.4L-121.8,420.3z M-1.7,416l-1.9-0.6c0.5-1.5,0.9-3,1.2-4.5l1.9,0.4C-0.8,413-1.2,414.5-1.7,416z
				 M-124.6,411.2c-0.3-1.5-0.6-3.1-0.9-4.7l2-0.3c0.2,1.5,0.5,3,0.8,4.5L-124.6,411.2z M0.4,406.8l-1.9-0.3
				c0.2-1.5,0.4-3.1,0.5-4.6l2,0.1C0.9,403.6,0.7,405.2,0.4,406.8z M-126,401.8c-0.1-1.5-0.2-3.1-0.2-4.7v-0.1h2v0.1
				c0,1.5,0.1,3,0.2,4.5L-126,401.8z M1.2,397.3h-2l0-0.1c0-1.5-0.1-3.1-0.2-4.6l2-0.1c0.1,1.6,0.2,3.2,0.2,4.8L1.2,397.3z
				 M-124,392.5l-2-0.1c0.1-1.6,0.3-3.2,0.5-4.7l1.9,0.3C-123.7,389.4-123.9,390.9-124,392.5z M-1.5,388c-0.2-1.5-0.5-3-0.9-4.5
				l1.9-0.4c0.3,1.5,0.6,3.1,0.9,4.7L-1.5,388z M-122.6,383.4l-1.9-0.4c0.4-1.5,0.8-3.1,1.2-4.6l1.9,0.6
				C-121.9,380.4-122.3,381.9-122.6,383.4z M-3.5,379c-0.5-1.5-1-2.9-1.5-4.4l1.8-0.7c0.6,1.5,1.1,3,1.6,4.5L-3.5,379z
				 M-119.9,374.6l-1.8-0.7c0.6-1.5,1.2-2.9,1.9-4.4l1.8,0.9C-118.7,371.7-119.4,373.1-119.9,374.6z M-6.9,370.4
				c-0.7-1.4-1.4-2.8-2.2-4.1l1.7-1c0.8,1.4,1.5,2.8,2.2,4.2L-6.9,370.4z M-115.9,366.3l-1.7-1c0.8-1.4,1.6-2.7,2.5-4l1.6,1.1
				C-114.3,363.6-115.1,364.9-115.9,366.3z M-11.5,362.4c-0.9-1.3-1.8-2.5-2.7-3.7l1.5-1.2c1,1.2,1.9,2.5,2.8,3.8L-11.5,362.4z
				 M-110.7,358.7l-1.5-1.2c1-1.2,2-2.4,3.1-3.6l1.4,1.3C-108.7,356.3-109.8,357.5-110.7,358.7z M-17.3,355.2
				c-1-1.1-2.1-2.2-3.3-3.3l1.3-1.4c1.2,1.1,2.3,2.2,3.4,3.4L-17.3,355.2z M-104.4,351.9l-1.3-1.4c1.2-1.1,2.4-2.1,3.6-3.1l1.2,1.5
				C-102.1,349.9-103.3,350.9-104.4,351.9z M-24,348.9c-1.2-1-2.4-1.9-3.7-2.7l1.1-1.6c1.3,0.9,2.6,1.8,3.8,2.8L-24,348.9z
				 M-97.2,346.2l-1.1-1.6c1.3-0.9,2.7-1.7,4-2.5l1,1.7C-94.6,344.5-96,345.3-97.2,346.2z M-31.6,343.7c-1.3-0.8-2.7-1.5-4.1-2.2
				l0.9-1.8c1.4,0.7,2.8,1.4,4.2,2.2L-31.6,343.7z M-89.2,341.5l-0.9-1.8c1.4-0.7,2.9-1.3,4.4-1.9l0.7,1.8
				C-86.4,340.3-87.9,340.9-89.2,341.5z M-39.9,339.7c-1.4-0.6-2.9-1.1-4.4-1.5l0.6-1.9c1.5,0.5,3,1,4.5,1.6L-39.9,339.7z
				 M-80.6,338.2l-0.6-1.9c1.5-0.5,3.1-0.9,4.6-1.2l0.4,1.9C-77.7,337.3-79.2,337.7-80.6,338.2z M-48.7,337c-1.5-0.3-3-0.6-4.5-0.9
				l0.3-1.9c1.6,0.2,3.1,0.5,4.7,0.9L-48.7,337z M-71.7,336.1l-0.3-2c1.6-0.2,3.2-0.4,4.7-0.5l0.1,2
				C-68.6,335.7-70.1,335.9-71.7,336.1z M-57.9,335.6c-1.5-0.1-3.1-0.2-4.6-0.2l0-2c1.6,0,3.2,0.1,4.8,0.2L-57.9,335.6z"/>
		</g>
	</g>
	<g>
		<g>
			<path class="st2" d="M-62.5,398.1c1.3,0,1.3-2,0-2C-63.8,396.2-63.8,398.1-62.5,398.1L-62.5,398.1z"/>
		</g>
	</g>
	<g>
		<path class="st0" d="M-62.5,466c-38,0-68.8-30.9-68.8-68.9s30.9-68.9,68.8-68.9c38,0,68.8,30.9,68.8,68.9S-24.5,466-62.5,466z
			 M-62.5,329.9c-37.1,0-67.3,30.2-67.3,67.3s30.2,67.3,67.3,67.3c37.1,0,67.3-30.2,67.3-67.3S-25.4,329.9-62.5,329.9z"/>
	</g>
</g>
</svg>
