<?xml version="1.0" encoding="utf-8"?>
<!-- Generator: Adobe Illustrator 19.0.1, SVG Export Plug-In . SVG Version: 6.00 Build 0)  -->
<svg version="1.1" id="Layer_1" xmlns="http://www.w3.org/2000/svg" xmlns:xlink="http://www.w3.org/1999/xlink" x="0px" y="0px"
	 viewBox="68 -67.4 183.3 183.4" style="enable-background:new 68 -67.4 183.3 183.4;" xml:space="preserve">
<style type="text/css">
	.st0{fill:#CDCBCA;}
	.st1{enable-background:new    ;}
	.st2{display:none;}
	.st3{display:inline;fill:#382C3D;}
	.st4{display:inline;enable-background:new    ;}
	.st5{fill:#CDCAC9;}
</style>
<g id="contact">
</g>
<g id="about">
</g>
<g id="WORK">
	<g id="work">
		<g>
			<g>
				<path class="st0" d="M159.5-67.4c-50.4-0.1-91.6,41.1-91.6,91.7s41,91.7,91.6,91.7s91.7-41.1,91.7-91.6S210-67.4,159.5-67.4
					 M159.4,107.8c-46.1-0.1-83.6-37.9-83.4-83.9s37.8-83.1,83.8-83s83.1,37.5,83,83.6C242.8,70.6,205.4,107.9,159.4,107.8"/>
			</g>
			<g>
				<g>
					<path class="st0" d="M83.9,15.1h9.7c5,0,8.2,2.4,8.2,6.3c0,3.5-3,6.4-6.7,6.4h-6.2v7.6h-5V15.1z M88.9,18.8v5.3h4.6
						c1.8,0,3.1-1.1,3.1-2.7s-1.1-2.6-3-2.6C93.6,18.8,88.9,18.8,88.9,18.8z"/>
				</g>
				<g>
					<path class="st0" d="M113.9,14.5c5.8,0,10.5,3.8,10.5,10.7c0,6.8-4.8,10.8-10.5,10.8s-10.5-3.8-10.5-10.8
						C103.4,18.3,108.2,14.5,113.9,14.5 M113.9,31.7c3.3,0,5.2-2.5,5.2-6.4s-1.9-6.3-5.2-6.3s-5.2,2.4-5.2,6.3
						S110.6,31.7,113.9,31.7"/>
				</g>
				<g>
					<polygon class="st0" points="126.9,15.1 134,15.1 137.2,27.4 140.4,15.1 147.6,15.1 147.6,35.4 143.5,35.4 143.5,18.8 
						139.1,35.4 135.2,35.4 131,18.6 131,35.4 126.9,35.4 					"/>
				</g>
				<g>
					<path class="st0" d="M151.4,15.1h9.7c5,0,8.2,2.4,8.2,6.3c0,3.5-3,6.4-6.7,6.4h-6.2v7.6h-5V15.1z M156.3,18.8v5.3h4.6
						c1.8,0,3.1-1.1,3.1-2.7s-1.1-2.6-3-2.6C161,18.8,156.3,18.8,156.3,18.8z"/>
				</g>
				<g>
					<path class="st0" d="M181.4,14.5c5.8,0,10.5,3.8,10.5,10.7c0,6.8-4.8,10.8-10.5,10.8c-5.8,0-10.5-3.8-10.5-10.8
						C170.9,18.3,175.6,14.5,181.4,14.5 M181.4,31.7c3.3,0,5.2-2.5,5.2-6.4s-1.9-6.3-5.2-6.3c-3.3,0-5.2,2.4-5.2,6.3
						C176.1,29.2,178.1,31.7,181.4,31.7"/>
				</g>
				<g>
					<path class="st0" d="M196.8,28.5c0.7,1.5,1.8,3.9,6.5,3.9c3,0,4.6-0.8,4.6-2.3c0-1.4-1.4-2.2-4.8-2.6c-4.3-0.5-8.5-2.3-8.5-6.3
						c0-2.6,1.4-4.7,3.8-5.8c1.3-0.5,3-0.8,5-0.8c5.9,0,8.1,2.8,8.8,4.1l-3.1,2.6c-1.2-2.2-2.9-3.1-5.6-3.1c-2.6,0-4.1,0.8-4.1,2.2
						c0,1.2,1.1,1.8,4.4,2.3c5.3,0.8,8.9,2.3,8.9,6.6c0,1.8-0.6,3.3-1.7,4.4c-1.6,1.7-3.9,2.4-7.7,2.4c-6.1,0-8.1-1.9-9.8-4.6
						L196.8,28.5z"/>
				</g>
				<g>
					<path class="st0" d="M224.8,14.5c5.7,0,10.5,3.8,10.5,10.7c0,6.8-4.8,10.8-10.5,10.8c-5.8,0-10.5-3.8-10.5-10.8
						C214.2,18.3,218.9,14.5,224.8,14.5 M224.8,31.7c3.3,0,5.2-2.5,5.2-6.4S228,19,224.8,19c-3.3,0-5.2,2.4-5.2,6.3
						C219.4,29.2,221.3,31.7,224.8,31.7"/>
				</g>
			</g>
			<g>
				<rect x="90.7" y="2.8" class="st0" width="137.8" height="2.5"/>
			</g>
			<g>
				<rect x="90.7" y="45.3" class="st0" width="137.8" height="2.5"/>
			</g>
			<g class="st1">
				<path class="st0" d="M141.2,81.1c1.6,0,2.9,1.3,2.9,2.9c0,0.6-0.3,1.3-0.6,1.7c1.1,0.9,2.8,1.3,4.6,1.3c2.9,0,5.1-1.7,5.1-4.4
					c0-1.6-0.8-3.1-2.8-4c-1.1-0.5-2.6-0.7-4.5-0.7h-1.3v-3.7h1.4c1.9,0,3.5-0.3,4.7-1c1.5-0.8,2.3-2,2.3-3.5c0-2.3-2.2-3.5-4.7-3.5
					c-1.7,0-2.9,0.3-3.6,0.9c0.3,0.5,0.6,1.1,0.6,1.7c0,1.6-1.3,2.9-2.9,2.9c-1.6,0-2.9-1.3-2.9-3.4c0-0.7,0.3-1.6,0.9-2.5
					c1.2-1.8,3.8-3.4,8.2-3.4c5.5,0,9.4,3.1,9.4,7.2c0,2.3-1.4,4.2-3.4,5.3c-0.8,0.5-1.7,0.8-2.7,1c0.8,0.2,1.7,0.6,2.5,1
					c2.1,1.2,3.8,3.1,3.8,6.1c0,4.9-4.3,8-10,8c-4.1,0-7.3-1.6-8.8-3.8c-0.6-0.8-0.9-1.8-0.9-2.7C138.2,82.6,139.5,81.1,141.2,81.1z
					"/>
				<path class="st0" d="M163.9,82.2c1.6,0,2.9,1.3,2.9,2.9c0,0.4-0.2,1-0.4,1.4c0.9,0.3,2,0.4,3.2,0.4c3.6,0,5.6-2.4,5.6-5.3
					c0-2.8-1.8-4.8-5.8-4.8c-1.6,0-3.7,0.4-5.3,1.3l-2.2-1.2l1.7-14.1h14.8V67h-11.3l-0.7,6.1c1-0.3,2.4-0.4,3.7-0.4
					c5.6,0,9.8,3.1,9.8,8.8c0,5.6-4.2,9.4-10,9.4c-3.6,0-6.2-1-7.6-2.4c-1-0.9-1.4-2-1.4-3.1C160.8,83.6,162.2,82.2,163.9,82.2z"/>
			</g>
			<g class="st1">
				<path class="st0" d="M132.9-17.9c0-3,2.4-5.9,5.9-5.9c3.2,0,5.3,2.1,5.3,3.9c0,1.2-0.8,2-1.8,2s-1.7-0.8-1.7-1.7
					c0-0.3,0.2-0.7,0.4-1c-0.2-0.3-0.9-0.8-2.1-0.8c-1.3,0-3,1.1-3,3.6c0,2.2,1.7,3.6,3.8,3.6c1.4,0,2.6-0.4,4.1-1.2l-0.2,2.6
					c-1.2,0.7-2.4,1.1-4.1,1.1C135.6-11.8,132.9-14.2,132.9-17.9z"/>
				<path class="st0" d="M146-14.4h1.8v-6.8H146v-2.4h4.6v9.2h1.7v2.4H146L146-14.4L146-14.4z M147-27.3c0-1.1,0.9-1.9,2-1.9
					c1,0,1.9,0.8,1.9,1.9s-0.9,1.9-2,1.9C147.9-25.4,147-26.2,147-27.3z"/>
				<path class="st0" d="M157.5-13.1l-0.6,1.1h-2v-17h-1.7v-2.4h4.6v9c0.8-0.8,1.9-1.5,3.4-1.5c3.1,0,5.4,2.5,5.4,5.9s-2.4,6-5.5,6
					C159.6-11.8,158.5-12.4,157.5-13.1z M163.6-17.8c0-2.2-1.4-3.5-3.1-3.5c-1.1,0-2,0.5-2.7,1.2v5c0.8,0.5,1.7,0.9,2.7,0.9
					C162.2-14.3,163.6-15.6,163.6-17.8z"/>
				<path class="st0" d="M168.4-17.8c0-3.2,2.4-6,6.2-6c3.8,0,6.2,2.8,6.2,6s-2.4,6-6.2,6C170.8-11.8,168.4-14.6,168.4-17.8z
					 M177.8-17.8c0-2.1-1.3-3.6-3.2-3.6s-3.2,1.5-3.2,3.6s1.3,3.6,3.2,3.6C176.4-14.2,177.8-15.7,177.8-17.8z"/>
			</g>
		</g>
	</g>
	<g id="mouseOver" class="st2">
		<rect x="-480.4" y="-95.7" class="st3" width="1280" height="240"/>
		<g class="st4">
			<path class="st5" d="M82.3,24v6.2h-0.5V15.5h4.6c0.8,0,1.5,0.1,2.1,0.3s1.1,0.5,1.5,0.9c0.4,0.4,0.7,0.8,0.9,1.4
				c0.2,0.5,0.3,1.1,0.3,1.8c0,0.6-0.1,1.2-0.3,1.8s-0.5,1-0.9,1.3c-0.4,0.4-0.9,0.6-1.5,0.8c-0.6,0.2-1.3,0.3-2.1,0.3L82.3,24
				L82.3,24z M82.3,23.5h4.1c0.7,0,1.4-0.1,1.9-0.3s1-0.5,1.3-0.8s0.6-0.7,0.8-1.2s0.2-0.9,0.2-1.4s-0.1-1-0.2-1.5
				c-0.2-0.5-0.4-0.9-0.8-1.2c-0.3-0.3-0.8-0.6-1.3-0.8S87.1,16,86.4,16h-4.1V23.5z"/>
			<path class="st5" d="M102.9,24.6c0-0.8,0.1-1.5,0.3-2.2c0.2-0.7,0.6-1.2,1-1.7s0.9-0.9,1.5-1.1c0.6-0.3,1.2-0.4,1.9-0.4
				c0.7,0,1.4,0.1,2,0.4s1.1,0.6,1.5,1.1s0.7,1.1,1,1.7c0.2,0.7,0.3,1.4,0.3,2.2V25c0,0.8-0.1,1.5-0.3,2.2s-0.6,1.2-1,1.7
				s-0.9,0.9-1.5,1.1c-0.6,0.3-1.2,0.4-1.9,0.4c-0.7,0-1.4-0.1-2-0.4s-1.1-0.6-1.5-1.1s-0.8-1.1-1-1.7c-0.2-0.7-0.3-1.4-0.3-2.2
				V24.6z M103.5,25c0,0.7,0.1,1.3,0.3,1.9c0.2,0.6,0.5,1.1,0.8,1.6c0.4,0.5,0.8,0.8,1.3,1.1c0.5,0.3,1.1,0.4,1.8,0.4
				c0.7,0,1.3-0.1,1.8-0.4s1-0.6,1.3-1.1c0.4-0.5,0.6-1,0.8-1.6c0.2-0.6,0.3-1.2,0.3-1.9v-0.4c0-0.6-0.1-1.3-0.3-1.8
				c-0.2-0.6-0.5-1.1-0.8-1.6c-0.4-0.5-0.8-0.8-1.3-1.1c-0.5-0.3-1.1-0.4-1.8-0.4s-1.3,0.1-1.8,0.4s-1,0.6-1.3,1.1s-0.6,1-0.8,1.6
				c-0.2,0.6-0.3,1.2-0.3,1.8V25z"/>
			<path class="st5" d="M133,30.3h-0.5V23c0-0.7-0.1-1.2-0.2-1.6c-0.1-0.4-0.4-0.8-0.6-1c-0.3-0.3-0.6-0.4-1-0.5s-0.8-0.2-1.2-0.2
				c-0.6,0-1.1,0.1-1.6,0.4c-0.5,0.2-0.8,0.6-1.1,0.9c-0.3,0.4-0.6,0.8-0.7,1.2c-0.2,0.4-0.3,0.8-0.4,1.2v6.9h-0.6v-11h0.6v2.6
				c0.2-0.4,0.4-0.8,0.6-1.1c0.2-0.3,0.5-0.6,0.9-0.9s0.7-0.4,1.1-0.6c0.4-0.2,0.8-0.2,1.3-0.2c0.9,0,1.7,0.2,2.3,0.6s1,1.1,1.2,2
				c0.1-0.4,0.3-0.7,0.6-1c0.3-0.3,0.6-0.6,0.9-0.8s0.7-0.4,1.2-0.6c0.4-0.1,0.9-0.2,1.4-0.2c0.6,0,1,0.1,1.5,0.2
				c0.4,0.2,0.8,0.4,1.1,0.7c0.3,0.3,0.5,0.7,0.7,1.3c0.2,0.5,0.2,1.1,0.2,1.9v7.1h-0.8v-7.1c0-0.7-0.1-1.3-0.2-1.7
				c-0.1-0.5-0.4-0.8-0.6-1.1c-0.3-0.3-0.6-0.5-1-0.6s-0.8-0.2-1.2-0.2s-0.8,0.1-1.2,0.2s-0.7,0.3-1,0.4c-0.3,0.2-0.5,0.4-0.7,0.6
				c-0.2,0.2-0.4,0.5-0.5,0.7s-0.3,0.5-0.3,0.7s-0.1,0.5-0.1,0.7v7.4H133z"/>
			<path class="st5" d="M162.2,24.9c0,0.8-0.1,1.6-0.3,2.3c-0.2,0.7-0.5,1.3-0.8,1.8c-0.4,0.5-0.8,0.9-1.3,1.1
				c-0.5,0.3-1.1,0.4-1.7,0.4c-0.4,0-0.9,0-1.2-0.1c-0.3-0.1-0.7-0.2-1-0.4c-0.3-0.2-0.6-0.4-0.8-0.6c-0.2-0.2-0.5-0.5-0.6-0.8v5.9
				H154V19.3h0.5v2c0.2-0.3,0.4-0.6,0.6-0.9s0.5-0.5,0.8-0.7c0.3-0.2,0.7-0.3,1-0.4c0.4-0.1,0.8-0.2,1.2-0.2c0.6,0,1.2,0.1,1.7,0.4
				s0.9,0.6,1.3,1.1c0.4,0.5,0.6,1.1,0.8,1.8c0.2,0.7,0.3,1.5,0.3,2.3V24.9z M161.6,24.7c0-0.7-0.1-1.4-0.2-2s-0.4-1.1-0.7-1.6
				c-0.3-0.5-0.7-0.8-1.1-1c-0.4-0.2-1-0.4-1.6-0.4s-1.1,0.1-1.5,0.3c-0.4,0.2-0.8,0.4-1.1,0.7c-0.3,0.3-0.5,0.6-0.7,0.9
				c-0.2,0.3-0.3,0.7-0.4,1v5.1c0.1,0.3,0.3,0.7,0.5,1c0.2,0.3,0.5,0.5,0.8,0.8c0.3,0.3,0.7,0.4,1.1,0.5c0.4,0.1,0.9,0.2,1.4,0.2
				c0.6,0,1.1-0.1,1.6-0.4c0.4-0.2,0.8-0.6,1.1-1c0.3-0.4,0.5-1,0.7-1.6c0.1-0.6,0.2-1.3,0.2-2v-0.5H161.6z"/>
			<path class="st5" d="M174.3,24.6c0-0.8,0.1-1.5,0.3-2.2c0.2-0.7,0.6-1.2,1-1.7s0.9-0.9,1.5-1.1c0.6-0.3,1.2-0.4,1.9-0.4
				c0.7,0,1.4,0.1,2,0.4s1.1,0.6,1.5,1.1s0.7,1.1,1,1.7c0.2,0.7,0.3,1.4,0.3,2.2V25c0,0.8-0.1,1.5-0.3,2.2c-0.2,0.7-0.6,1.2-1,1.7
				s-0.9,0.9-1.5,1.1c-0.6,0.3-1.2,0.4-1.9,0.4c-0.7,0-1.4-0.1-2-0.4s-1.1-0.6-1.5-1.1s-0.8-1.1-1-1.7c-0.2-0.6-0.3-1.4-0.3-2.2
				V24.6z M174.8,25c0,0.7,0.1,1.3,0.3,1.9c0.2,0.6,0.5,1.1,0.8,1.6c0.4,0.5,0.8,0.8,1.3,1.1c0.5,0.3,1.1,0.4,1.8,0.4
				c0.7,0,1.3-0.1,1.8-0.4s1-0.6,1.3-1.1c0.4-0.5,0.6-1,0.8-1.6c0.2-0.6,0.3-1.2,0.3-1.9v-0.4c0-0.6-0.1-1.3-0.3-1.8
				c-0.2-0.6-0.5-1.1-0.8-1.6c-0.4-0.5-0.8-0.8-1.3-1.1c-0.5-0.3-1.1-0.4-1.8-0.4c-0.7,0-1.3,0.1-1.8,0.4s-1,0.6-1.3,1.1
				c-0.3,0.5-0.6,1-0.8,1.6c-0.2,0.6-0.3,1.2-0.3,1.8V25z"/>
			<path class="st5" d="M203.3,27.6c0-0.2,0-0.5-0.1-0.8s-0.3-0.5-0.5-0.7c-0.2-0.2-0.6-0.5-1-0.7s-1-0.4-1.7-0.5
				c-0.6-0.1-1.2-0.3-1.6-0.4c-0.4-0.1-0.8-0.4-1.2-0.6s-0.5-0.5-0.7-0.8c-0.2-0.3-0.2-0.7-0.2-1.2c0-0.4,0.1-0.7,0.3-1.1
				c0.2-0.3,0.4-0.6,0.7-0.9c0.3-0.2,0.7-0.4,1.2-0.6c0.5-0.1,1-0.2,1.5-0.2c0.6,0,1.2,0.1,1.6,0.2c0.5,0.2,0.9,0.4,1.2,0.6
				c0.3,0.2,0.6,0.6,0.8,1c0.2,0.4,0.3,0.8,0.3,1.3h-0.6c0-0.3-0.1-0.7-0.2-1c-0.1-0.3-0.4-0.6-0.6-0.8c-0.3-0.2-0.6-0.4-1.1-0.6
				s-0.9-0.2-1.4-0.2c-0.6,0-1,0.1-1.4,0.2s-0.7,0.3-1,0.5c-0.3,0.2-0.4,0.4-0.6,0.7c-0.1,0.3-0.2,0.5-0.2,0.8s0,0.5,0.1,0.8
				c0.1,0.2,0.2,0.5,0.5,0.7c0.2,0.2,0.6,0.4,1,0.6s1,0.4,1.7,0.5c0.7,0.1,1.2,0.3,1.7,0.5s0.9,0.4,1.2,0.7c0.3,0.3,0.5,0.5,0.7,0.9
				c0.1,0.3,0.2,0.7,0.2,1.1s-0.1,0.8-0.3,1.2c-0.2,0.4-0.4,0.7-0.8,0.9c-0.3,0.3-0.7,0.5-1.2,0.6s-1,0.2-1.6,0.2
				c-0.7,0-1.2-0.1-1.8-0.2c-0.5-0.2-0.9-0.4-1.3-0.6c-0.3-0.3-0.6-0.6-0.8-1c-0.2-0.4-0.3-0.7-0.3-1.2h0.5c0,0.5,0.2,0.9,0.4,1.2
				c0.2,0.3,0.5,0.6,0.8,0.8c0.3,0.2,0.7,0.3,1.1,0.4c0.4,0.1,0.8,0.1,1.2,0.1c0.5,0,1-0.1,1.4-0.2s0.8-0.3,1-0.5
				c0.3-0.2,0.5-0.5,0.6-0.8S203.3,27.9,203.3,27.6z"/>
			<path class="st5" d="M216,24.6c0-0.8,0.1-1.5,0.3-2.2c0.2-0.7,0.6-1.2,1-1.7s0.9-0.9,1.5-1.1c0.6-0.3,1.2-0.4,1.9-0.4
				c0.7,0,1.4,0.1,2,0.4s1.1,0.6,1.5,1.1s0.7,1.1,1,1.7c0.2,0.7,0.3,1.4,0.3,2.2V25c0,0.8-0.1,1.5-0.3,2.2c-0.2,0.7-0.6,1.2-1,1.7
				s-0.9,0.9-1.5,1.1c-0.6,0.3-1.2,0.4-1.9,0.4c-0.7,0-1.4-0.1-2-0.4s-1.1-0.6-1.5-1.1s-0.8-1.1-1-1.7c-0.2-0.6-0.3-1.4-0.3-2.2
				V24.6z M216.6,25c0,0.7,0.1,1.3,0.3,1.9c0.2,0.6,0.5,1.1,0.8,1.6c0.4,0.5,0.8,0.8,1.3,1.1c0.5,0.3,1.1,0.4,1.8,0.4
				c0.7,0,1.3-0.1,1.8-0.4s1-0.6,1.3-1.1c0.4-0.5,0.6-1,0.8-1.6c0.2-0.6,0.3-1.2,0.3-1.9v-0.4c0-0.6-0.1-1.3-0.3-1.8
				c-0.2-0.6-0.5-1.1-0.8-1.6c-0.4-0.5-0.8-0.8-1.3-1.1c-0.5-0.3-1.1-0.4-1.8-0.4c-0.7,0-1.3,0.1-1.8,0.4s-1,0.6-1.3,1.1
				c-0.3,0.5-0.6,1-0.8,1.6c-0.2,0.6-0.3,1.2-0.3,1.8V25z"/>
		</g>
	</g>
</g>
<g id="home">
</g>
<g id="NAVBAR">
	<g id="navBar">
	</g>
	<g id="mouseOver_1_">
	</g>
</g>
</svg>
