<?xml version="1.0" encoding="utf-8"?>
<!-- Generator: Adobe Illustrator 19.0.1, SVG Export Plug-In . SVG Version: 6.00 Build 0)  -->
<svg version="1.1" id="Layer_1" xmlns="http://www.w3.org/2000/svg" xmlns:xlink="http://www.w3.org/1999/xlink" x="0px" y="0px"
	 viewBox="-350 618.5 233.7 133.2" style="enable-background:new -350 618.5 233.7 133.2;" xml:space="preserve">
<style type="text/css">
	.st0{fill:#E3E7F4;}
	.st1{fill:#0070AF;}
	.st2{fill:#0070AF;stroke:#0070AF;stroke-width:0.3294;stroke-miterlimit:10;}
</style>
<g id="contact">
</g>
<g id="about">
</g>
<g id="home">
</g>
<g id="NAVBAR">
	<g id="navBar">
	</g>
	<g id="mouseOver_1_">
	</g>
</g>
<g>
	<path class="st0" d="M-117.7,684.6c0-10.7-6.7-20.1-16.3-23.8c0.5-1.2,0.8-2.5,0.8-3.9c0-5.6-4.5-10.1-10.1-10.1
		c-5.2,0-9.5,3.9-10,9c-1.3-1.6-3.2-2.6-5.3-2.6c-3.4,0-6.3,2.5-6.8,5.8h-21.3c-2.9-6.7-7.5-15.7-13.9-23.4
		c-7.7-9.2-16.6-14.8-26.2-16.6c-1.7-0.4-3.6-0.6-5.6-0.6l-0.1,0c-0.2,0-0.3,0-0.5,0l-0.1,0l-0.1,0c-0.2,0-0.3,0-0.5,0l-0.1,0
		c-2,0-3.9,0.3-5.6,0.6c-20.4,3.8-31.5,24.1-38.2,40h-23.1c-0.5-3.3-3.4-5.8-6.8-5.8c-2.1,0-4,1-5.3,2.5c-0.6-5-4.8-9-10-9
		c-5.6,0-10.1,4.5-10.1,10.1c0,1.3,0.3,2.7,0.8,3.9c-9.7,3.7-16.4,13.1-16.4,23.8c0,10.7,6.7,20.1,16.4,23.8
		c-0.5,1.2-0.8,2.5-0.8,3.9c0,5.6,4.5,10.1,10.1,10.1c5.2,0,9.5-3.9,10-9c1.3,1.5,3.2,2.5,5.3,2.5c3.4,0,6.3-2.6,6.8-5.9h18.8
		c1.3,15.1,13.5,29,21.9,34.1c11.5,6.9,22.7,7.7,26.9,7.7c12.1,0,23-3.6,32.4-10.6c10.5-7.9,17.5-19.7,18.8-31.2h16.5
		c0.5,3.3,3.4,5.9,6.8,5.9c2.2,0,4.1-1,5.3-2.6c0.5,5.1,4.8,9,10,9c5.6,0,10.1-4.5,10.1-10.1c0-1.4-0.3-2.7-0.8-3.9
		C-124.4,704.6-117.7,695.2-117.7,684.6z"/>
	<g>
		<path class="st1" d="M-143.6,705.1L-143.6,705.1L-143.6,705.1l-6.5,0h-8.8h0h-3.1l-24.8,0v1c0,9.3-4.7,19.5-12.6,27.2
			c-8.9,8.7-20.8,13.5-33.6,13.5c-12.7,0-24.4-4.8-32.7-13.5c-7.3-7.6-11.7-17.8-11.7-27.3v-1l-27.2,0h-3.1c0,0,0,0,0,0v0h-8.8h-6.5
			h0v0c-3.9,0-7.1,3.2-7.1,7.1c0,3.9,3.2,7.1,7.1,7.1c3.9,0,7.1-3.2,7.1-7.1h-2c0,2.8-2.3,5.1-5.1,5.1c-2.8,0-5.1-2.3-5.1-5.1
			c0-2.8,2.3-5.1,5.1-5.1h6.5h5.5c-0.3,0.6-0.5,1.2-0.5,1.9c0,2.2,1.8,3.9,3.9,3.9c2.2,0,3.9-1.8,3.9-3.9h-2c0,1.1-0.9,1.9-1.9,1.9
			c-1.1,0-1.9-0.9-1.9-1.9c0-1.1,0.9-1.9,1.9-1.9h3.1l25.2,0c0.3,9.7,4.8,19.9,12.2,27.6c8.8,9.1,20.9,14.1,34.2,14.1l0,0h0l0,0
			c13.3,0,25.8-5,35-14.1c8-7.8,12.8-18.1,13.1-27.7l22.9,0h3.1c1.1,0,1.9,0.9,1.9,1.9c0,1.1-0.9,1.9-1.9,1.9s-1.9-0.9-1.9-1.9h-2
			c0,2.2,1.8,3.9,3.9,3.9c2.2,0,3.9-1.8,3.9-3.9c0-0.7-0.2-1.4-0.5-1.9h5.5h6.5c2.8,0,5.1,2.3,5.1,5.1c0,2.8-2.3,5.1-5.1,5.1
			c-2.8,0-5.1-2.3-5.1-5.1h-2c0,3.9,3.2,7.1,7.1,7.1c3.9,0,7.1-3.2,7.1-7.1C-136.5,708.3-139.7,705.1-143.6,705.1z"/>
		<path class="st1" d="M-323.3,664.1L-323.3,664.1L-323.3,664.1l6.5,0h8.8v0c0,0,0,0,0,0h3.1h30.2l0.2-0.6c6.9-18.2,19.7-40,41.2-40
			c17,0,32.9,14.9,42.4,40l0.2,0.6h28.3h3.1c0,0,0,0,0,0v0h8.8h6.5h0v0c3.9,0,7.1-3.2,7.1-7.1c0-3.9-3.2-7.1-7.1-7.1
			c-3.9,0-7.1,3.2-7.1,7.1h2c0-2.8,2.3-5.1,5.1-5.1c2.8,0,5.1,2.3,5.1,5.1c0,2.8-2.3,5.1-5.1,5.1h-6.5h-5.5c0.3-0.6,0.5-1.2,0.5-1.9
			c0-2.2-1.8-3.9-3.9-3.9c-2.2,0-3.9,1.8-3.9,3.9h2c0-1.1,0.9-1.9,1.9-1.9s1.9,0.9,1.9,1.9s-0.9,1.9-1.9,1.9h-3.1h-26.9
			c-9.9-25.4-26.3-40.6-44-40.6c-17.7,0-32.5,14-42.8,40.6h-28.8h-3.1c-1.1,0-1.9-0.9-1.9-1.9s0.9-1.9,1.9-1.9
			c1.1,0,1.9,0.9,1.9,1.9h2c0-2.2-1.8-3.9-3.9-3.9c-2.2,0-3.9,1.8-3.9,3.9c0,0.7,0.2,1.4,0.5,1.9h-5.5h-6.5c-2.8,0-5.1-2.3-5.1-5.1
			c0-2.8,2.3-5.1,5.1-5.1c2.8,0,5.1,2.3,5.1,5.1h2c0-3.9-3.2-7.1-7.1-7.1c-3.9,0-7.1,3.2-7.1,7.1
			C-330.4,660.8-327.2,664-323.3,664.1z"/>
		<path class="st1" d="M-330.6,665.5l-0.7-1.8c-8.6,3.3-14.4,11.7-14.4,20.9c0,9.2,5.8,17.6,14.4,20.9l0.7-1.8
			c-7.8-3-13.1-10.7-13.1-19.1C-343.7,676.2-338.4,668.6-330.6,665.5z"/>
		<path class="st1" d="M-135,663.7l-0.7,1.8c7.8,3,13.1,10.7,13.1,19.1c0,8.4-5.3,16.1-13.1,19.1l0.7,1.8
			c8.6-3.3,14.4-11.7,14.4-20.9C-120.6,675.4-126.4,667-135,663.7z"/>
	</g>
	<g>
		<g>
			<path class="st2" d="M-261.4,716.4l0.7,0.6c-0.9,0.8-1.8,1.2-2.9,1.2c-1.1,0-2.1-0.4-2.8-1.2c-0.8-0.8-1.2-1.7-1.2-2.8
				c0-1.1,0.4-2,1.2-2.8c0.8-0.8,1.7-1.2,2.8-1.2c1,0,2,0.4,2.9,1.2l-0.7,0.6c-0.7-0.6-1.4-0.9-2.2-0.9c-0.8,0-1.5,0.3-2.1,0.9
				s-0.9,1.3-0.9,2.2c0,0.9,0.3,1.6,0.9,2.2c0.6,0.6,1.3,0.9,2.1,0.9C-262.9,717.4-262.1,717.1-261.4,716.4z"/>
			<path class="st2" d="M-257.8,714.7v3.4h-1v-7.7h1v3.4h3.2v-3.4h1v7.7h-1v-3.4H-257.8z"/>
			<path class="st2" d="M-244.9,711.5c0.8,0.8,1.2,1.7,1.2,2.8c0,1.1-0.4,2-1.2,2.8c-0.8,0.8-1.7,1.2-2.9,1.2
				c-1.1,0-2.1-0.4-2.8-1.2c-0.8-0.8-1.2-1.7-1.2-2.8c0-1.1,0.4-2,1.2-2.8c0.8-0.8,1.7-1.2,2.8-1.2
				C-246.6,710.3-245.7,710.7-244.9,711.5z M-247.7,711.2c-0.8,0-1.5,0.3-2.1,0.9s-0.9,1.3-0.9,2.2c0,0.9,0.3,1.6,0.9,2.2
				c0.6,0.6,1.3,0.9,2.1,0.9c0.8,0,1.5-0.3,2.1-0.9c0.6-0.6,0.9-1.3,0.9-2.2c0-0.9-0.3-1.6-0.9-2.2S-246.9,711.2-247.7,711.2z"/>
			<path class="st2" d="M-235.7,716.4l0.7,0.6c-0.9,0.8-1.8,1.2-2.9,1.2c-1.1,0-2.1-0.4-2.8-1.2c-0.8-0.8-1.2-1.7-1.2-2.8
				c0-1.1,0.4-2,1.2-2.8c0.8-0.8,1.7-1.2,2.8-1.2c1,0,2,0.4,2.9,1.2l-0.7,0.6c-0.7-0.6-1.4-0.9-2.2-0.9c-0.8,0-1.5,0.3-2.1,0.9
				c-0.6,0.6-0.9,1.3-0.9,2.2c0,0.9,0.3,1.6,0.9,2.2c0.6,0.6,1.3,0.9,2.1,0.9C-237.1,717.4-236.4,717.1-235.7,716.4z"/>
			<path class="st2" d="M-226.4,711.5c0.8,0.8,1.2,1.7,1.2,2.8c0,1.1-0.4,2-1.2,2.8s-1.7,1.2-2.9,1.2c-1.1,0-2.1-0.4-2.8-1.2
				s-1.2-1.7-1.2-2.8c0-1.1,0.4-2,1.2-2.8c0.8-0.8,1.7-1.2,2.8-1.2C-228.1,710.3-227.2,710.7-226.4,711.5z M-229.2,711.2
				c-0.8,0-1.5,0.3-2.1,0.9s-0.9,1.3-0.9,2.2c0,0.9,0.3,1.6,0.9,2.2c0.6,0.6,1.3,0.9,2.1,0.9c0.8,0,1.5-0.3,2.1-0.9
				c0.6-0.6,0.9-1.3,0.9-2.2c0-0.9-0.3-1.6-0.9-2.2S-228.4,711.2-229.2,711.2z"/>
			<path class="st2" d="M-223.2,718.1v-7.7h1v6.9h2.8v0.8H-223.2z"/>
			<path class="st2" d="M-214.4,710.4l2.8,7.7h-1l-1.2-3.2h-2.1l-1.2,3.2h-1l2.8-7.7H-214.4z M-214.1,714.1l-0.7-2l-0.7,2H-214.1z"
				/>
			<path class="st2" d="M-207.9,711.3v6.9h-1v-6.9h-1.8v-0.8h4.7v0.8H-207.9z"/>
			<path class="st2" d="M-200,710.4v0.8h-3.2v2.6h3.2v0.8h-3.2v2.6h3.2v0.8h-4.2v-7.7H-200z"/>
		</g>
	</g>
	<g>
		<path class="st1" d="M-249.1,651.4v0.6h-2.4v1.9h2.4v0.6h-2.4v1.9h2.4v0.6h-3.1v-5.8H-249.1z"/>
		<path class="st1" d="M-245.8,654.1c-0.4-0.1-0.7-0.3-1-0.6s-0.4-0.6-0.4-0.9c0-0.3,0.1-0.7,0.4-0.9c0.3-0.3,0.6-0.4,1-0.4
			c0.4,0,0.7,0.1,1,0.4c0.1,0.1,0.3,0.3,0.3,0.6l-0.7,0.3c-0.1-0.2-0.2-0.4-0.2-0.4c-0.1-0.1-0.3-0.2-0.4-0.2
			c-0.2,0-0.3,0.1-0.4,0.2c-0.1,0.1-0.2,0.3-0.2,0.5c0,0.2,0.1,0.4,0.2,0.5c0.1,0.1,0.3,0.3,0.6,0.4c0.5,0.1,0.8,0.4,1.2,0.7
			c0.4,0.4,0.5,0.8,0.5,1.3s-0.2,0.9-0.5,1.3c-0.4,0.4-0.8,0.5-1.3,0.5c-0.5,0-0.9-0.2-1.3-0.5c-0.3-0.3-0.4-0.6-0.5-1.1l0.7-0.3
			c0,0.4,0.2,0.7,0.4,0.9c0.2,0.2,0.5,0.3,0.8,0.3c0.3,0,0.6-0.1,0.8-0.3c0.2-0.2,0.3-0.5,0.3-0.8s-0.1-0.6-0.3-0.8
			C-245.2,654.4-245.5,654.3-245.8,654.1z"/>
		<path class="st1" d="M-240.7,652v5.1h-0.7V652h-1.4v-0.6h3.5v0.6H-240.7z"/>
		<path class="st1" d="M-237.6,656.1c0.1,0.1,0.2,0.3,0.2,0.5c0,0.2-0.1,0.3-0.2,0.5c-0.1,0.1-0.3,0.2-0.5,0.2
			c-0.2,0-0.4-0.1-0.5-0.2c-0.1-0.1-0.2-0.3-0.2-0.5c0-0.2,0.1-0.3,0.2-0.5c0.1-0.1,0.3-0.2,0.5-0.2
			C-237.9,655.9-237.7,656-237.6,656.1z"/>
		<path class="st1" d="M-232.5,656.6v-3.9l-0.3,0.2l-0.5-0.4l1.5-1.1v5.1h1.1v0.6h-3v-0.6H-232.5z"/>
		<path class="st1" d="M-226.4,654.7c-0.1,0.1-0.3,0.2-0.6,0.2c-0.5,0-0.9-0.2-1.2-0.5c-0.3-0.3-0.5-0.7-0.5-1.1
			c0-0.4,0.2-0.8,0.5-1.1c0.3-0.3,0.7-0.5,1.2-0.5s0.9,0.2,1.2,0.5c0.3,0.3,0.5,0.7,0.5,1.1c0,0.6-0.2,1.2-0.5,1.8
			c-0.3,0.6-0.7,1.4-1.3,2.2h-0.8C-227.3,656.2-226.8,655.4-226.4,654.7z M-226.4,654c0.2-0.2,0.3-0.4,0.3-0.7
			c0-0.3-0.1-0.5-0.3-0.7c-0.2-0.2-0.4-0.3-0.7-0.3c-0.2,0-0.5,0.1-0.7,0.3c-0.2,0.2-0.3,0.4-0.3,0.7c0,0.3,0.1,0.5,0.3,0.7
			c0.2,0.2,0.4,0.3,0.7,0.3C-226.8,654.2-226.5,654.2-226.4,654z"/>
		<path class="st1" d="M-223.4,657.2c1.5-2.2,2.2-3.4,2.3-3.6c0.1-0.2,0.1-0.3,0.1-0.5c0-0.1,0-0.2,0-0.2c-0.1-0.2-0.2-0.4-0.4-0.5
			c-0.1-0.1-0.3-0.1-0.4-0.1c-0.1,0-0.1,0-0.2,0c-0.2,0-0.4,0.2-0.5,0.4c-0.1,0.1-0.1,0.3-0.1,0.5l-0.7-0.1c0-0.3,0.1-0.5,0.2-0.7
			c0.2-0.4,0.5-0.6,0.9-0.7c0.1,0,0.2,0,0.4,0c0.3,0,0.6,0.1,0.8,0.2c0.3,0.2,0.6,0.5,0.6,0.9c0,0.1,0,0.3,0,0.4
			c0,0.2-0.1,0.4-0.2,0.7c-0.1,0.2-0.7,1.1-1.8,2.8h2v0.6H-223.4z"/>
		<path class="st1" d="M-217.2,654.2c0.1-0.1,0.3-0.2,0.6-0.2c0.5,0,0.9,0.2,1.2,0.5c0.3,0.3,0.5,0.7,0.5,1.1c0,0.4-0.2,0.8-0.5,1.1
			c-0.3,0.3-0.7,0.5-1.2,0.5c-0.5,0-0.8-0.2-1.2-0.5c-0.3-0.3-0.5-0.7-0.5-1.1c0-0.6,0.2-1.2,0.5-1.8s0.7-1.4,1.3-2.2h0.8
			C-216.3,652.7-216.8,653.5-217.2,654.2z M-217.2,654.9c-0.2,0.2-0.3,0.4-0.3,0.7c0,0.3,0.1,0.5,0.3,0.7c0.2,0.2,0.4,0.3,0.7,0.3
			c0.2,0,0.5-0.1,0.7-0.3c0.2-0.2,0.3-0.4,0.3-0.7c0-0.3-0.1-0.5-0.3-0.7c-0.2-0.2-0.4-0.3-0.7-0.3
			C-216.8,654.7-217,654.8-217.2,654.9z"/>
	</g>
	<g>
		<path class="st1" d="M-308.7,689.1c-0.1-0.2-0.2-0.4-0.3-0.4c-0.1,0-0.2,0.1-0.2,0.3l-3.2,9c-0.2,0.5-0.5,0.8-1,0.8h-1.2
			c-0.4,0-0.8-0.2-1.1-0.7l-8.8-25.3c-0.1-0.2-0.1-0.4-0.1-0.5c0-0.3,0.2-0.5,0.6-0.5h6c0.6,0,1,0.3,1.3,0.8l3.8,10.8
			c0.1,0.3,0.2,0.4,0.2,0.4c0.1,0,0.2-0.1,0.2-0.4l0.9-2.7l-2.7-7.9c-0.1-0.2-0.1-0.4-0.1-0.5c0-0.3,0.2-0.5,0.6-0.5h6.3v0
			c0.5,0.1,0.8,0.4,1,0.8l3.8,10.8c0.1,0.3,0.2,0.4,0.2,0.4c0.1,0,0.2-0.1,0.2-0.4l3.8-11c0.2-0.4,0.6-0.6,1.2-0.6h2.9
			c0.6,0,0.9,0.3,0.9,0.8c0,0.1,0,0.2,0,0.3l-8.9,25.2c-0.2,0.5-0.5,0.8-1,0.8h-1.2c-0.4,0-0.8-0.2-1.1-0.7L-308.7,689.1z"/>
		<path class="st1" d="M-272.2,672.6v1.8c0,0.6-0.3,0.9-0.9,0.9h-10c-0.6,0-0.8,0.3-0.8,0.8v9.8c0,0.6,0.3,0.9,0.8,0.9h1.8
			c0.6,0,0.9,0.3,0.9,0.8v2.3c0,0.4-0.3,0.6-0.8,0.6h-1.9c-0.5,0-0.7,0.3-0.7,0.8v2.6c0,0.6,0.3,0.9,0.8,0.9h10.1
			c0.6,0,0.8,0.2,0.8,0.6v2.4c0,0.4-0.2,0.6-0.7,0.6h-17.7c-0.5,0-0.8-0.3-0.8-0.9v-25.1c0-0.7,0.3-1,1-1h17.1
			C-272.6,671.7-272.2,672-272.2,672.6z"/>
		<path class="st1" d="M-260.3,684.6L-260.3,684.6c1.4,4.1,2.1,6.6,2.1,7.3v0.2c0,1.6-0.6,3-1.8,4.4c-1.2,1.4-2.9,2.2-4.9,2.3
			c-0.2,0-0.5,0-0.7,0c-2,0-3.6-0.6-4.8-1.8c-0.1-0.1-0.1-0.3-0.1-0.5c0-0.2,0.1-0.5,0.3-0.7l1.1-1.1c0.3-0.3,0.5-0.5,0.8-0.5
			c0.2,0,0.5,0.1,0.7,0.3c0.6,0.4,1.1,0.5,1.5,0.5c0.3,0,0.5-0.1,0.7-0.2c0.3-0.2,0.4-0.6,0.4-1c0-0.3-0.1-0.6-0.2-0.9l-2.5-7.7h0
			c-1.4-4.1-2-6.6-2.1-7.3v-0.2c0-1.6,0.6-3,1.8-4.4c1.2-1.4,2.9-2.2,4.9-2.3c0.2,0,0.5,0,0.7,0c2,0,3.6,0.6,4.8,1.8
			c0.1,0.1,0.1,0.3,0.1,0.5c0,0.2-0.1,0.5-0.3,0.7l-1.1,1.1c-0.3,0.3-0.5,0.5-0.8,0.5c-0.2,0-0.5-0.1-0.7-0.3
			c-0.6-0.4-1.1-0.5-1.5-0.5c-0.3,0-0.5,0.1-0.7,0.2c-0.3,0.3-0.5,0.6-0.5,1c0,0.3,0.1,0.6,0.2,0.9L-260.3,684.6z"/>
		<path class="st1" d="M-241.9,671.7c0.6,0,0.9,0.3,0.9,0.8v2.3c0,0.4-0.3,0.6-0.8,0.6h-2.5v22.2c0,0.8-0.4,1.1-1.1,1.1h-5.2
			c-0.7,0-1-0.4-1-1.2v-22.1h-2.5c-0.6,0-0.8-0.2-0.8-0.6v-2.3c0-0.5,0.3-0.8,0.9-0.8H-241.9z"/>
		<path class="st1" d="M-204.1,672.6v1.8c0,0.6-0.3,0.9-0.9,0.9h-10c-0.6,0-0.8,0.3-0.8,0.8v9.8c0,0.6,0.3,0.9,0.8,0.9h1.8
			c0.6,0,0.9,0.3,0.9,0.8v2.3c0,0.4-0.3,0.6-0.8,0.6h-1.9c-0.5,0-0.7,0.3-0.7,0.8v2.6c0,0.6,0.3,0.9,0.8,0.9h10.1
			c0.6,0,0.8,0.2,0.8,0.6v2.4c0,0.4-0.2,0.6-0.7,0.6h-17.7c-0.5,0-0.8-0.3-0.8-0.9v-25.1c0-0.7,0.3-1,1-1h17.1
			C-204.4,671.7-204.1,672-204.1,672.6z"/>
		<path class="st1" d="M-201.8,685.2c0-0.2,0-0.4,0-0.7c0-1.4,0.2-2.7,0.6-4c1.1-3.2,3.2-5.7,6.5-7.4c2.1-1.1,4.3-1.6,6.7-1.6
			c1.5,0,3,0.2,4.5,0.6c3.3,1.1,5.8,2.8,7.4,5.2c0.2,0.4,0.3,0.7,0.3,0.9c0,0.4-0.2,0.7-0.7,0.8l-1.1,0.7c-0.4,0.1-0.7,0.2-0.9,0.2
			c-0.5,0-0.8-0.2-1-0.6c-1.9-1.8-3.8-3.1-5.8-3.7c-1.3-0.3-2.4-0.4-3.3-0.4c-1,0-1.8,0.2-2.4,0.6c-0.9,0.5-1.4,1.9-1.4,4.2v12.3
			c0,0.9,0.2,1.5,0.6,1.7c1,0.7,2.1,1,3.6,1c0.8,0,1.8-0.1,2.8-0.3c2.9-1,4.6-2.2,5-3.6c0,0,0-0.1,0-0.2c0-0.2-0.3-0.3-0.8-0.3h-4.1
			c-0.7,0-1.1-0.3-1.1-1v-1.8c0-0.6,0.3-0.9,0.9-0.9h10.4c0.6,0,0.9,0.3,0.9,0.9v0.1c-0.1,1.3-0.8,3-2.4,5.3c-1.5,2.3-3.9,3.9-7.2,5
			c-1.6,0.4-3.1,0.6-4.5,0.6c-2.4,0-4.7-0.5-6.7-1.6c-3.3-1.7-5.5-4.2-6.5-7.4c-0.4-1.3-0.6-2.6-0.6-4
			C-201.8,685.6-201.8,685.4-201.8,685.2z"/>
		<path class="st1" d="M-170.8,685.2c0-0.2,0-0.4,0-0.7c0-1.4,0.2-2.7,0.6-4c1.1-3.2,3.2-5.7,6.5-7.4c2.1-1.1,4.3-1.6,6.7-1.6
			c1.5,0,3,0.2,4.5,0.6c3.3,1.1,5.8,2.8,7.4,5.2c0.2,0.4,0.3,0.7,0.3,0.9c0,0.4-0.2,0.7-0.7,0.8l-1.1,0.7c-0.4,0.1-0.7,0.2-0.9,0.2
			c-0.5,0-0.8-0.2-1-0.6c-1.9-1.8-3.8-3.1-5.8-3.7c-1.3-0.3-2.4-0.4-3.3-0.4c-1,0-1.8,0.2-2.4,0.6c-0.9,0.5-1.4,1.9-1.4,4.2v12.3
			c0,0.9,0.2,1.5,0.6,1.7c1,0.7,2.1,1,3.6,1c0.8,0,1.8-0.1,2.8-0.3c2.9-1,4.6-2.2,5-3.6c0,0,0-0.1,0-0.2c0-0.2-0.3-0.3-0.8-0.3h-4.1
			c-0.7,0-1.1-0.3-1.1-1v-1.8c0-0.6,0.3-0.9,0.9-0.9h10.4c0.6,0,0.9,0.3,0.9,0.9v0.1c-0.1,1.3-0.8,3-2.4,5.3c-1.5,2.3-3.9,3.9-7.2,5
			c-1.6,0.4-3.1,0.6-4.5,0.6c-2.4,0-4.7-0.5-6.7-1.6c-3.3-1.7-5.5-4.2-6.5-7.4c-0.4-1.3-0.6-2.6-0.6-4
			C-170.8,685.6-170.8,685.4-170.8,685.2z"/>
	</g>
</g>
</svg>
