<?xml version="1.0" encoding="utf-8"?>
<!-- Generator: Adobe Illustrator 19.0.1, SVG Export Plug-In . SVG Version: 6.00 Build 0)  -->
<svg version="1.1" id="Layer_1" xmlns="http://www.w3.org/2000/svg" xmlns:xlink="http://www.w3.org/1999/xlink" x="0px" y="0px"
	 viewBox="-307.1 351.7 600.4 92.8" style="enable-background:new -307.1 351.7 600.4 92.8;" xml:space="preserve">
<style type="text/css">
	.st0{display:none;}
	.st1{display:inline;fill:#FFFFFF;}
	.st2{display:inline;}
	.st3{enable-background:new    ;}
	.st4{fill:#CC6632;}
</style>
<g id="contact">
</g>
<g id="about">
</g>
<g id="mouseOver" class="st0">
	<rect x="-521.9" y="213.8" class="st1" width="1280" height="240"/>
	
		<text transform="matrix(1 0 0 1 -14.5103 339.8101)" style="display:inline;fill:#CC6632; font-family:'Roboto-Thin'; font-size:20.7575px; letter-spacing:8;">Acorn Brewing</text>
</g>
<g id="home">
</g>
<g id="NAVBAR">
	<g id="navBar">
	</g>
	<g id="mouseOver_1_">
	</g>
</g>
<g>
	<g>
		<g>
			<path d="M-307.1,353.1h18c13.6,0,24.8,10.7,24.8,24.4s-11.3,24.4-24.8,24.4h-18V353.1z M-294.4,391.2h2.9
				c7.6,0,14.1-4.1,14.1-13.7c0-8.7-5.8-13.7-13.9-13.7h-3V391.2z"/>
			<path d="M-245.9,393.4l-3.4,8.5h-13.5l18.8-48.9h13.9l18.4,48.9h-13.5l-3.2-8.5H-245.9z M-237.1,368.2h-0.1l-5.2,15.6h10.6
				L-237.1,368.2z"/>
			<path d="M-195.1,401.9h-12.7v-48.9h12.7V401.9z"/>
			<path d="M-174.1,391.2h15.2v10.8h-27.9v-48.9h12.7V391.2z"/>
			<path d="M-166,353.1h15.2l9.1,13.3l9.1-13.3h15.2l-18,25.4v23.5H-148v-23.5L-166,353.1z"/>
			<path d="M-92.1,353.1h18c13.6,0,24.8,10.7,24.8,24.4s-11.3,24.4-24.8,24.4h-18V353.1z M-79.4,391.2h2.9c7.6,0,14.1-4.1,14.1-13.7
				c0-8.7-5.8-13.7-13.9-13.7h-3V391.2z"/>
			<path d="M-2.8,401.9h-15.8l-12-18.8h-0.1v18.8h-12.7v-48.9h19c9.7,0,17,4.6,17,15c0,6.7-3.8,12.6-10.7,13.8L-2.8,401.9z
				 M-30.7,375h1.2c4.1,0,8.8-0.8,8.8-6.1s-4.7-6.1-8.8-6.1h-1.2V375z"/>
			<path d="M52.2,376.6c0,15.8-11.3,27-27,27c-15.7,0-27-11.1-27-27c0-14.8,13-25.1,27-25.1S52.2,361.8,52.2,376.6z M11.4,376.7
				c0,8.4,6.2,14.6,13.8,14.6c7.6,0,13.8-6.2,13.8-14.6c0-6.7-6.2-12.9-13.8-12.9C17.6,363.8,11.4,369.9,11.4,376.7z"/>
			<path d="M58.1,353.1h19.4c10.5,0,17.8,4.9,17.8,16.1c0,11.5-6.2,16.6-17.3,16.6h-7.2v16.2H58.1V353.1z M70.8,375.5H73
				c4.6,0,9.1,0,9.1-6c0-6.2-4.2-6.2-9.1-6.2h-2.1V375.5z"/>
			<path d="M158.1,369.5c-2.6-3.5-6.8-5.4-11.1-5.4c-7.8,0-13,6-13,13.5c0,7.7,5.3,13.3,13.2,13.3c4.1,0,8.3-2,11-5.2V401
				c-4.2,1.3-7.3,2.3-11.2,2.3c-6.8,0-13.3-2.6-18.3-7.2c-5.4-4.9-7.8-11.2-7.8-18.5c0-6.7,2.5-13.1,7.2-17.9
				c4.8-4.9,11.7-7.9,18.6-7.9c4.1,0,7.8,0.9,11.6,2.5V369.5z"/>
			<path d="M178.4,393.4l-3.4,8.5h-13.5l18.8-48.9h13.9l18.4,48.9h-13.5l-3.2-8.5H178.4z M187.3,368.2h-0.1l-5.2,15.6h10.6
				L187.3,368.2z"/>
			<path d="M216.6,353.1H236c10.5,0,17.8,4.9,17.8,16.1c0,11.5-6.2,16.6-17.3,16.6h-7.2v16.2h-12.7V353.1z M229.3,375.5h2.1
				c4.6,0,9.1,0,9.1-6c0-6.2-4.2-6.2-9.1-6.2h-2.1V375.5z"/>
			<path d="M286.3,365.6c-2.3-1.9-5.3-3.2-8.4-3.2c-2.3,0-5.4,1.4-5.4,4.1c0,2.9,3.4,4,5.6,4.7l3.2,1c6.8,2,12.1,5.4,12.1,13.3
				c0,4.9-1.2,9.9-5.1,13.2c-3.8,3.2-8.9,4.6-13.9,4.6c-6.2,0-12.2-2.1-17.2-5.6l5.4-10.2c3.2,2.8,6.9,5.1,11.3,5.1
				c3,0,6.2-1.5,6.2-4.9c0-3.6-5-4.8-7.7-5.6c-8-2.3-13.2-4.3-13.2-13.8c0-9.9,7.1-16.4,16.8-16.4c4.9,0,11,1.6,15.3,4L286.3,365.6z
				"/>
		</g>
	</g>
	<g>
		<g>
			<path d="M-298.7,437.1L-298.7,437.1c-0.8,1.2-2.1,2-3.5,2c-3.2,0-4.9-2.6-4.9-5.6c0-2.8,1.9-5.4,4.8-5.4c1.5,0,2.8,0.8,3.6,2h0
				v-10.5h2v19.1h-2V437.1z M-298.6,433.6c0-2-1.2-3.7-3.3-3.7c-2,0-3.3,1.8-3.3,3.7c0,1.9,1.2,3.7,3.3,3.7
				C-299.7,437.3-298.6,435.6-298.6,433.6z"/>
			<path d="M-280.5,438.7h-2v-1.6h0c-0.8,1.2-2,2-3.5,2c-3.1,0-4.9-2.6-4.9-5.6c0-2.8,1.9-5.4,4.9-5.4c1.5,0,2.7,0.8,3.6,2h0v-1.7h2
				V438.7z M-282.4,433.6c0-2-1.2-3.7-3.3-3.7c-2,0-3.3,1.8-3.3,3.7c0,1.9,1.2,3.7,3.3,3.7C-283.6,437.3-282.4,435.6-282.4,433.6z"
				/>
			<path d="M-271.2,423.7c0,0.7-0.6,1.3-1.4,1.3c-0.7,0-1.4-0.6-1.4-1.3c0-0.8,0.6-1.4,1.4-1.4C-271.8,422.4-271.2,423-271.2,423.7z
				 M-271.6,438.7h-2v-10.3h2V438.7z"/>
			<path d="M-262.4,438.7h-2v-19.1h2V438.7z"/>
			<path d="M-257.3,428.4h2.3l3.5,6.5l3.2-6.5h2.2l-8.3,16.2h-2.2l4-7.6L-257.3,428.4z"/>
			<path d="M-226.6,430.8c-0.2-0.5-0.7-0.9-1.3-0.9c-0.5,0-1.1,0.4-1.1,1c0,0.9,1.2,1.3,2.4,1.8c1.2,0.5,2.4,1.3,2.4,2.9
				c0,2-1.6,3.4-3.5,3.4c-1.5,0-3-0.9-3.6-2.3l1.7-0.8c0.4,0.8,0.9,1.3,1.9,1.3c0.8,0,1.6-0.6,1.6-1.5c0-0.5-0.3-0.8-0.7-1.1l-1.9-1
				c-1.1-0.6-2-1.2-2-2.6c0-1.7,1.4-3,3-3c1.3,0,2.3,0.7,2.8,1.8L-226.6,430.8z"/>
			<path d="M-216.1,438.7h-2v-8.4h-1.1v-1.8h1.1v-3.9h2v3.9h1.9v1.8h-1.9V438.7z"/>
			<path d="M-207.2,428.4v5.7c0,1.6,0.4,3.1,2.4,3.1c2,0,2.4-1.5,2.4-3.1v-5.7h2v5.9c0,2.8-1.3,4.7-4.4,4.7s-4.4-1.9-4.4-4.7v-5.9
				H-207.2z"/>
			<path d="M-186.2,437.1L-186.2,437.1c-0.8,1.2-2.1,2-3.5,2c-3.2,0-4.9-2.6-4.9-5.6c0-2.8,1.9-5.4,4.8-5.4c1.5,0,2.8,0.8,3.6,2h0
				v-10.5h2v19.1h-2V437.1z M-186.1,433.6c0-2-1.2-3.7-3.3-3.7c-2,0-3.3,1.8-3.3,3.7c0,1.9,1.2,3.7,3.3,3.7
				C-187.3,437.3-186.1,435.6-186.1,433.6z"/>
			<path d="M-174.9,423.7c0,0.7-0.6,1.3-1.4,1.3c-0.7,0-1.4-0.6-1.4-1.3c0-0.8,0.6-1.4,1.4-1.4C-175.6,422.4-174.9,423-174.9,423.7z
				 M-175.3,438.7h-2v-10.3h2V438.7z"/>
			<path d="M-167,433.9c0,1.8,1.2,3.4,3.1,3.4c1.5,0,2.3-0.8,3.1-2l1.7,0.9c-1,1.8-2.8,2.8-4.8,2.8c-3.1,0-5.1-2.4-5.1-5.4
				c0-3.2,1.7-5.5,5-5.5c3.3,0,4.8,2.4,4.8,5.5v0.3H-167z M-161.1,432.4c-0.2-1.5-1.3-2.6-2.8-2.6c-1.5,0-2.7,1.1-2.9,2.6H-161.1z"
				/>
			<path d="M-149.4,430.8c-0.2-0.5-0.7-0.9-1.3-0.9c-0.5,0-1.1,0.4-1.1,1c0,0.9,1.2,1.3,2.4,1.8c1.2,0.5,2.4,1.3,2.4,2.9
				c0,2-1.6,3.4-3.5,3.4c-1.5,0-3-0.9-3.6-2.3l1.7-0.8c0.4,0.8,0.9,1.3,1.9,1.3c0.8,0,1.6-0.6,1.6-1.5c0-0.5-0.3-0.8-0.7-1.1l-1.9-1
				c-1.1-0.6-2-1.2-2-2.6c0-1.7,1.4-3,3-3c1.3,0,2.3,0.7,2.8,1.8L-149.4,430.8z"/>
			<path d="M-128,423.7c0,0.7-0.6,1.3-1.4,1.3c-0.7,0-1.4-0.6-1.4-1.3c0-0.8,0.6-1.4,1.4-1.4C-128.6,422.4-128,423-128,423.7z
				 M-128.4,438.7h-2v-10.3h2V438.7z"/>
			<path d="M-119.3,429.8L-119.3,429.8c0.7-1.1,1.9-1.7,3.1-1.7c2.9,0,3.6,2,3.6,4.5v6.1h-2v-5.9c0-1.8-0.2-2.9-2.3-2.9
				c-2.5,0-2.5,2.2-2.5,4.1v4.7h-2v-10.3h2V429.8z"/>
			<path d="M-93.3,438.7h-2v-8.4h-1.1v-1.8h1.1v-3.9h2v3.9h1.9v1.8h-1.9V438.7z"/>
			<path d="M-88,428.4h2.3l3.5,6.5l3.2-6.5h2.2l-8.3,16.2h-2.2l4-7.6L-88,428.4z"/>
			<path d="M-69.9,430.2L-69.9,430.2c0.9-1.2,2.1-2,3.6-2c3,0,4.8,2.6,4.8,5.4c0,2.9-1.8,5.6-4.9,5.6c-1.5,0-2.7-0.8-3.5-2h0v7.5h-2
				v-16.2h2V430.2z M-63.4,433.6c0-2-1.2-3.7-3.3-3.7c-2,0-3.3,1.8-3.3,3.7c0,1.9,1.2,3.7,3.3,3.7
				C-64.6,437.3-63.4,435.6-63.4,433.6z"/>
			<path d="M-45.5,433.6c0,3.1-2.4,5.5-5.5,5.5s-5.5-2.4-5.5-5.5s2.4-5.5,5.5-5.5S-45.5,430.5-45.5,433.6z M-54.5,433.6
				c0,1.9,1.6,3.6,3.5,3.6c2,0,3.5-1.6,3.5-3.6c0-2-1.6-3.6-3.5-3.6C-52.9,430-54.5,431.7-54.5,433.6z"/>
			<path d="M-30.1,438.5c0,3.5-1,6.1-5,6.1c-2.9,0-4.9-1.8-5-4.7h2c0,1.8,1.3,2.9,3.1,2.9c2.4,0,2.9-1.7,2.9-3.8v-2h0
				c-0.8,1.2-2,2-3.5,2c-3.2,0-4.9-2.6-4.9-5.6c0-2.8,1.9-5.4,4.8-5.4c1.5,0,2.8,0.8,3.6,2.1h0v-1.8h2V438.5z M-32,433.6
				c0-2-1.2-3.7-3.3-3.7c-2,0-3.3,1.8-3.3,3.7c0,1.9,1.2,3.7,3.3,3.7C-33.2,437.3-32,435.6-32,433.6z"/>
			<path d="M-21.5,430.1L-21.5,430.1c0.5-1.2,1.6-2,2.9-2c0.6,0,1.1,0.2,1.6,0.5l-0.9,1.8c-0.4-0.3-0.7-0.4-1.2-0.4
				c-2.1,0-2.4,2-2.4,3.6v5.1h-2v-10.3h2V430.1z"/>
			<path d="M-2.3,438.7h-2v-1.6h0c-0.8,1.2-2,2-3.5,2c-3.1,0-4.9-2.6-4.9-5.6c0-2.8,1.9-5.4,4.9-5.4c1.5,0,2.7,0.8,3.6,2h0v-1.7h2
				V438.7z M-4.1,433.6c0-2-1.2-3.7-3.3-3.7c-2,0-3.3,1.8-3.3,3.7c0,1.9,1.2,3.7,3.3,3.7C-5.3,437.3-4.1,435.6-4.1,433.6z"/>
			<path d="M6.1,430.2L6.1,430.2c0.9-1.2,2.1-2,3.6-2c3,0,4.8,2.6,4.8,5.4c0,2.9-1.8,5.6-4.9,5.6c-1.5,0-2.7-0.8-3.5-2h0v7.5h-2
				v-16.2h2V430.2z M12.6,433.6c0-2-1.2-3.7-3.3-3.7c-2,0-3.3,1.8-3.3,3.7c0,1.9,1.2,3.7,3.3,3.7C11.4,437.3,12.6,435.6,12.6,433.6z
				"/>
			<path d="M22.4,419.7v10.2h0c0.6-1.1,1.8-1.7,3.1-1.7c2.9,0,3.6,2,3.6,4.5v6.1h-2v-5.9c0-1.8-0.2-2.9-2.3-2.9
				c-2.6,0-2.6,2.2-2.6,4.1v4.7h-2v-19.1H22.4z"/>
			<path d="M34.2,428.4h2.3L40,435l3.2-6.5h2.2l-8.3,16.2h-2.2l4-7.6L34.2,428.4z"/>
			<path d="M104.3,438.7h-2v-8.4h-1.1v-1.8h1.1v-3.9h2v3.9h1.9v1.8h-1.9V438.7z"/>
			<path d="M112.4,433.9c0,1.8,1.2,3.4,3.1,3.4c1.5,0,2.3-0.8,3.1-2l1.7,0.9c-1,1.8-2.8,2.8-4.8,2.8c-3.1,0-5.1-2.4-5.1-5.4
				c0-3.2,1.7-5.5,5-5.5c3.3,0,4.8,2.4,4.8,5.5v0.3H112.4z M118.3,432.4c-0.2-1.5-1.3-2.6-2.8-2.6c-1.5,0-2.7,1.1-2.9,2.6H118.3z"/>
			<path d="M125.1,428.4h2.3l2.4,3.3l2.7-3.3h2.4l-3.8,4.7l4.4,5.6h-2.3l-3.4-4.2l-3.3,4.2h-2.4l4.6-5.6L125.1,428.4z"/>
			<path d="M142.9,438.7h-2v-8.4h-1.1v-1.8h1.1v-3.9h2v3.9h1.9v1.8h-1.9V438.7z"/>
			<path d="M151.7,428.4v5.7c0,1.6,0.4,3.1,2.4,3.1s2.4-1.5,2.4-3.1v-5.7h2v5.9c0,2.8-1.3,4.7-4.4,4.7s-4.4-1.9-4.4-4.7v-5.9H151.7z
				"/>
			<path d="M167.1,430.1L167.1,430.1c0.5-1.2,1.6-2,2.9-2c0.6,0,1.1,0.2,1.6,0.5l-0.9,1.8c-0.4-0.3-0.7-0.4-1.2-0.4
				c-2.1,0-2.4,2-2.4,3.6v5.1h-2v-10.3h2V430.1z"/>
			<path d="M177.9,433.9c0,1.8,1.2,3.4,3.1,3.4c1.5,0,2.3-0.8,3.1-2l1.7,0.9c-1,1.8-2.8,2.8-4.8,2.8c-3.1,0-5.1-2.4-5.1-5.4
				c0-3.2,1.7-5.5,5-5.5c3.3,0,4.8,2.4,4.8,5.5v0.3H177.9z M183.8,432.4c-0.2-1.5-1.3-2.6-2.8-2.6c-1.5,0-2.7,1.1-2.9,2.6H183.8z"/>
			<path d="M240.2,431.4c-0.8-0.9-1.8-1.4-2.9-1.4c-1.9,0-3.4,1.7-3.4,3.6c0,2.1,1.5,3.6,3.6,3.6c1.1,0,2.1-0.5,2.8-1.4v2.5
				c-0.9,0.5-1.8,0.7-2.8,0.7c-3,0-5.5-2.3-5.5-5.4c0-3.2,2.5-5.5,5.6-5.5c0.9,0,1.9,0.2,2.7,0.7V431.4z"/>
			<path d="M256.3,433.6c0,3.1-2.4,5.5-5.5,5.5c-3.1,0-5.5-2.4-5.5-5.5s2.4-5.5,5.5-5.5C253.9,428.1,256.3,430.5,256.3,433.6z
				 M247.3,433.6c0,1.9,1.6,3.6,3.5,3.6c2,0,3.5-1.6,3.5-3.6c0-2-1.6-3.6-3.5-3.6C248.9,430,247.3,431.7,247.3,433.6z"/>
			<path d="M264.1,438.7h-2v-19.1h2V438.7z"/>
			<path d="M281,433.6c0,3.1-2.4,5.5-5.5,5.5c-3.1,0-5.5-2.4-5.5-5.5s2.4-5.5,5.5-5.5C278.5,428.1,281,430.5,281,433.6z
				 M271.9,433.6c0,1.9,1.6,3.6,3.5,3.6c2,0,3.5-1.6,3.5-3.6c0-2-1.6-3.6-3.5-3.6C273.5,430,271.9,431.7,271.9,433.6z"/>
			<path d="M288.8,430.1L288.8,430.1c0.5-1.2,1.6-2,2.9-2c0.6,0,1.1,0.2,1.6,0.5l-0.9,1.8c-0.4-0.3-0.7-0.4-1.2-0.4
				c-2.1,0-2.4,2-2.4,3.6v5.1h-2v-10.3h2V430.1z"/>
		</g>
		<circle cx="69.9" cy="432.8" r="4.4"/>
		<circle cx="208.7" cy="432.8" r="4.4"/>
	</g>
</g>
</svg>
