<?xml version="1.0" encoding="utf-8"?>
<!-- Generator: Adobe Illustrator 19.0.1, SVG Export Plug-In . SVG Version: 6.00 Build 0)  -->
<svg version="1.1" id="Layer_1" xmlns="http://www.w3.org/2000/svg" xmlns:xlink="http://www.w3.org/1999/xlink" x="0px" y="0px"
	 viewBox="125 -54.3 298.2 156.3" style="enable-background:new 125 -54.3 298.2 156.3;" xml:space="preserve">
<style type="text/css">
	.st0{fill:#CC6632;}
	.st1{display:none;}
	.st2{display:inline;fill:#FFFFFF;}
	.st3{display:inline;fill:#CC6632;}
	.st4{font-family:'Roboto-Thin';}
	.st5{font-size:20.7575px;}
	.st6{letter-spacing:9;}
</style>
<g id="contact">
</g>
<g id="about">
</g>
<g id="work">
	<g>
		<g>
			<path class="st0" d="M296.7,26.8c-0.3-0.9-0.4-2.3-0.4-4c-1.8,3.3-4.5,5-8,5c-3,0-5.4-0.8-7.1-2.5s-2.5-4.4-2.5-8.1V7.4
				c0-3.2,0.4-6,1.4-8.2c0.9-2.2,2.1-4.1,3.7-5.6c1.5-1.5,3.4-2.8,5.5-3.8s4.3-2.1,6.7-3.1v-14.6c0-1.9-0.3-3.3-1-4.3
				c-0.7-1-2-1.5-3.8-1.5c-1.9,0-3.2,0.5-3.9,1.5c-0.6,1-1,2.5-1,4.3v14.1h-6.6V-28c0-4.4,0.9-7.7,2.8-9.9c1.8-2.2,4.8-3.3,8.9-3.3
				c7.9,0,11.8,4.4,11.8,13.2v47.1c0,1.6,0,3.1,0.1,4.4c0.1,1.4,0.2,2.5,0.4,3.2h-7V26.8z M295.9-7.3c-2.2,0.8-3.9,1.7-5.2,2.6
				c-1.3,0.9-2.3,2-3,3.2c-0.7,1.2-1.1,2.6-1.4,4.1C286.1,4.2,286,5.9,286,8v7.1c0,3.7,1.7,5.5,5.1,5.5c1.1,0,2.1-0.3,3-1
				c0.9-0.6,1.5-1.7,1.9-3.2V-7.3H295.9z"/>
			<path class="st0" d="M326.9-0.5h6.9v14.9c0,4.1-1,7.4-2.9,9.8s-4.9,3.6-9,3.6s-7.2-1.2-9.2-3.7s-3-5.8-3-9.9v-41.6
				c0-4.1,1-7.4,3-10c2-2.6,5.1-3.8,9.2-3.8s7.1,1.3,8.9,3.8s2.8,5.8,2.8,9.9V-13h-6.7v-14.6c0-4-1.7-5.9-5-5.9
				c-1.7,0-2.9,0.5-3.7,1.6c-0.8,1.1-1.2,2.6-1.2,4.4v41.6c0,4,1.7,6.1,5,6.1s5-2,5-5.9V-0.5H326.9z"/>
			<path class="st0" d="M340.3-27.8c0-4.3,1-7.6,3-9.9c2-2.3,5.1-3.5,9.3-3.5c4.1,0,7.2,1.2,9.2,3.5c2.1,2.3,3.1,5.6,3.1,9.9v42.3
				c0,4.3-1,7.6-3.1,9.9c-2.1,2.3-5.1,3.4-9.2,3.4c-4.2,0-7.3-1.1-9.3-3.4s-3-5.6-3-9.9V-27.8z M357.7-27.6c0-1.9-0.3-3.3-1-4.4
				c-0.7-1-2-1.6-4.1-1.6c-2,0-3.4,0.5-4.1,1.6c-0.7,1-1,2.5-1,4.4v42.1c0,1.9,0.3,3.3,1,4.3c0.7,1,2,1.5,4.1,1.5
				c2,0,3.4-0.5,4.1-1.5c0.7-1,1-2.5,1-4.4V-27.6z"/>
			<path class="st0" d="M372.3,26.8v-66.9h6.3c0.2,1.7,0.3,3.3,0.3,4.9c0.9-1.9,2.1-3.4,3.4-4.2c1.3-0.9,2.9-1.3,4.7-1.3
				c0.9,0,1.7,0.1,2.3,0.4v8.3c-0.4-0.3-0.9-0.5-1.5-0.6c-0.6-0.1-1.3-0.2-1.8-0.2c-1.2,0-2.3,0.3-3.4,0.8c-1.1,0.5-2,1.6-2.8,3.2
				v55.6H372.3z"/>
			<path class="st0" d="M412.2,26.8v-55.2c0-1.9-0.3-3.3-1-4.2c-0.6-0.8-1.8-1.2-3.4-1.2c-1.1,0-2.2,0.3-3.2,1
				c-1.1,0.6-1.9,1.7-2.5,3.1v56.6h-7.5v-67h6.3c0.2,1.7,0.3,3.4,0.3,5.1c1-1.9,2.3-3.4,4-4.5s3.5-1.7,5.6-1.7c3,0,5.2,1,6.7,2.9
				c1.4,1.9,2.1,5.1,2.1,9.4v55.7H412.2z"/>
			<path class="st0" d="M276.8,86.5V32.3h8.6c2.9,0,5,0.7,6.2,2.2c1.2,1.4,1.8,3.8,1.8,7.1v10.9c0,3.4-1.1,5.4-3.3,6
				c1.1,0.2,2,0.8,2.8,1.7c0.8,0.9,1.2,2.3,1.2,4.3v12.9c0,3.2-0.7,5.5-2.2,7c-1.4,1.4-3.6,2.2-6.5,2.2L276.8,86.5L276.8,86.5z
				 M288.8,41.6c0-1.5-0.3-2.6-0.8-3.2s-1.4-0.9-2.6-0.9h-3.6v19.1h3.7c1.2,0,2-0.3,2.5-0.9s0.8-1.5,0.8-2.8V41.6L288.8,41.6z
				 M289,65.3c0-1.5-0.2-2.6-0.7-3.3c-0.5-0.7-1.4-1-2.8-1h-3.7v20.6h3.6c2.4,0,3.6-1.4,3.6-4.2V65.3L289,65.3z"/>
			<path class="st0" d="M310.9,86.5c-0.6-4.3-1.2-8.4-1.8-12.4c-0.6-4-1.3-8.1-2-12.2c-0.2,0-0.4,0.1-0.6,0.1s-0.4,0-0.6,0h-2.7
				v24.5h-5V32.3h8.2c3.2,0,5.5,0.7,7.1,2.2c1.6,1.5,2.3,4,2.3,7.5v10.8c0,3.9-1.3,6.6-4,8c0.9,4.4,1.7,8.7,2.4,12.9
				c0.7,4.2,1.4,8.5,2.1,12.7h-5.4V86.5z M310.8,42.7c0-2-0.3-3.4-0.9-4.1c-0.6-0.8-1.7-1.2-3.5-1.2h-3.2v20h3.3
				c1.5,0,2.6-0.4,3.3-1.1s1-1.9,1-3.4L310.8,42.7L310.8,42.7z"/>
			<path class="st0" d="M320,86.5V32.3h14.3v5.1H325v19h6.6v5H325v20.1h9.7v4.9H320V86.5z"/>
			<path class="st0" d="M356.9,86.5c-0.2-1.9-0.5-4.2-0.7-6.7c-0.3-2.5-0.5-5.1-0.8-7.9c-0.3-2.7-0.5-5.4-0.8-8.2
				c-0.3-2.7-0.5-5.2-0.7-7.6c-0.2-2.3-0.4-4.4-0.5-6.1c-0.2-1.7-0.3-3-0.3-3.8c0,0.8-0.1,2.1-0.3,3.8c-0.2,1.7-0.3,3.8-0.6,6.1
				c-0.2,2.3-0.5,4.8-0.7,7.6c-0.3,2.7-0.5,5.4-0.9,8.2c-0.3,2.7-0.6,5.3-0.9,7.9c-0.3,2.5-0.6,4.8-0.8,6.7h-6.1l-6.1-54.2h5.2
				c0.3,2.2,0.5,4.7,0.8,7.4c0.3,2.7,0.6,5.5,0.9,8.4s0.5,5.7,0.8,8.5c0.2,2.8,0.5,5.4,0.7,7.8s0.4,4.5,0.6,6.3
				c0.2,1.8,0.3,3.2,0.4,4.1c0.1-0.9,0.2-2.2,0.4-4.1c0.2-1.8,0.4-4,0.7-6.3c0.3-2.4,0.5-5,0.8-7.8s0.6-5.6,0.9-8.5s0.6-5.7,1-8.4
				c0.3-2.7,0.6-5.2,0.9-7.4h5l4.1,42.6c0.1-0.9,0.2-2.2,0.4-4.1c0.2-1.8,0.4-4,0.7-6.3c0.3-2.4,0.5-5,0.8-7.8s0.6-5.6,0.9-8.5
				s0.6-5.7,1-8.4c0.3-2.7,0.6-5.2,0.9-7.4h5.3l-6.8,54.2h-6.2V86.5z"/>
			<path class="st0" d="M373.2,86.5V32.3h5v54.2H373.2z"/>
			<path class="st0" d="M396.7,86.5L387.4,47c0,4.1,0.1,8.1,0.1,12s0,7.9,0,12v15.5H383V32.3h6l8.3,39.7c0-3.7-0.1-7.4-0.1-11
				s0-7.2,0-11V32.3h4.4v54.2H396.7z"/>
			<path class="st0" d="M422.4,86.8l-1.6-3c-0.5,1.1-1.4,1.9-2.6,2.4s-2.5,0.8-4,0.8c-1.2,0-2.3-0.2-3.3-0.5s-1.8-0.8-2.6-1.5
				s-1.3-1.7-1.7-2.9s-0.6-2.6-0.6-4.3V41c0-3,0.7-5.3,2.1-6.9s3.6-2.4,6.4-2.4s5,0.8,6.3,2.4s1.9,3.9,1.9,6.9v9.5h-4.5V41
				c0-1.4-0.3-2.5-0.9-3.2s-1.5-1.1-2.9-1.1c-1.3,0-2.2,0.4-2.7,1.1s-0.8,1.8-0.8,3.2v36.9c0,1.4,0.3,2.5,1,3.2s1.5,1.1,2.5,1.1
				c2.4,0,3.7-1.3,3.9-3.9V66h-4.1v-4.7h8.9v25.6h-0.7V86.8z"/>
		</g>
		<g>
			<g>
				<path class="st0" d="M267.5-1.2c-0.2-0.3-0.4-0.7-0.4-1c-0.2-2-0.3-4.1-0.4-6.1c0-0.9,0-1.8-0.1-2.6c0-0.8-0.5-1.4-1.3-1.6
					c-0.4-0.1-0.8-0.3-1.3-0.4c0.2-0.6,0.2-1.1,0.5-1.5c0.6-1,1.4-1.8,1.8-2.9c0.7-1.9,1-3.9,0.1-5.9c-0.5-1.2-1.1-2.4-1.8-3.4
					c-0.5-0.7-1.3-1.3-2-1.8c-1-0.7-2.2-1.4-3.2-2c-1.3-0.8-2.8-1.1-4.4-1c-1.5,0.1-2.6,1-3.7,1.8c-1.5,1.1-3.1,2.1-4.7,3.1
					c-0.2,0.1-0.5,0.1-0.7,0c-0.8-0.4-1.3-1.7-0.9-2.4c0.5-0.9,1.1-1.8,1.7-2.6c1.3-1.7,3.1-3,4-5c1.5-3.3,0.2-6.4-2.8-8.3
					c-1.8-1.1-3.9-1.4-6-1.3c-4.3,0.2-7.9,3.3-8.9,7.4c0,0.1-0.1,0.2-0.1,0.4c-0.3,0.9-1.9,2.1-2.9,2.1c0-0.3-0.1-0.5-0.1-0.8
					c-0.4-1.6-1.3-2.4-2.7-2.4s-3.7,1.4-4.1,3.5c-0.2,1.1-0.3,2.1-0.7,3.2c-0.2,0.8-0.7,1.5-1.2,2.2c0,0,0,0-0.1,0.1H221
					c0,0,0,0-0.1,0h-0.1c0,0,0,0-0.1,0l0,0v-0.1c0-0.1,0-0.3,0-0.4c0.1-0.2,0.2-0.4,0.3-0.6c0.9-1.5,1.3-3.1,1.2-4.8
					c-0.1-2.7-2.6-4.5-5.2-3.6c-2.2,0.8-4.5,1.2-6.8,1.9c-0.8,0.2-1.6,0.6-2.2,1.1c-0.6,0.5-1,1.3-1.5,1.9c-0.9,1.3-1.7,2.6-1.3,4.3
					c0,0.2,0,0.3-0.1,0.5c-0.2,1.2-0.2,2.4,0.8,3.4c0.5,0.4,0.6,1.5,0.2,2.1c-0.2-0.5-0.4-0.9-0.6-1.4c-0.2-0.8-0.7-1.4-1.5-1.5
					c-1.2-0.2-2.4-0.4-3.5,0.1c-1.9,0.8-3.7,1.9-5,3.6c-0.6,0.8-1,1.6-0.9,2.5c0.1,0.7,0.2,1.4,0.3,2.1c0.1,0.8,0,1.6,0.3,2.4
					c0.5,1.6,0.6,3.1-0.2,4.8c-1,1.8-2.4,1.6-3.7,0.4c-0.9-0.9-1.9-1.8-2.8-2.7c-0.2-0.2-0.3-0.4-0.4-0.7c-0.4-1.2-0.7-2.4-0.4-3.7
					c0.2-1,0.3-2,0.6-2.9c0.4-1,0.9-2,1.4-3c0.6-1.4,1.2-2.8,1.8-4.2c0.6-1.5,1.4-3,1.7-4.7c0.3-1.8,0.3-3.5-0.1-5.2
					c-0.3-1.2-0.9-2.2-1-3.5c0-0.2-0.2-0.5-0.3-0.7c-0.6-1.1-1.3-2.1-1.5-3.3c-0.1-0.4-0.3-0.7-0.6-1c-0.4-0.5-0.9-0.9-1.3-1.4
					c-1.4-2-3.3-3.5-5.6-4.5c-0.4-0.2-0.9-0.4-1.4-0.5c-1-0.6-2.3-0.6-3.5-0.6c-1.3,0-2.2,0.6-2.7,1.8c-0.5,1.1-1,2.2-1.9,3.1
					c-1.5,1.5-1.6,2.9-0.4,4.4c0.8,1,1.5,2,2.8,2.4c0.3,0.1,0.5,0.3,0.7,0.5c0.6,0.5,1.2,1,1.9,1.5c0.3,0.2,0.8,0.4,1,0.7
					c1.4,1.6,2,3.5,2.1,5.6c0,1.2-0.3,2.5-0.6,3.8c-0.4,2.3-2.9,3.7-4.9,3.9c-0.8,0.1-1.3-0.5-1.4-1.2c-0.2-0.6-0.4-1.3-0.9-1.8
					s-1.1-0.9-1.8-1.1c-2.1-0.9-4.8,0.3-5.5,2.3c-0.5,1.3-2.6,2.9-4,2.9c-1.2,0-2-0.8-1.7-1.7c0.2-0.7,0.7-1.3,1.2-2
					c0.2-0.3,0.6-0.4,0.7-0.6c0.1-0.2,0.1-0.6,0.1-0.9c0,0-0.4-0.1-0.6-0.1c-1.9,0.6-3.4,1.9-4.2,3.6c-0.9,2.2-0.6,4.5,0.9,6.5
					c0.7,0.9,1.6,1,2.7,1c1.7,0,3.3-0.1,4.7-1.1c0.2-0.2,0.5-0.3,0.7-0.5c0.5-0.3,0.9-0.3,1.4,0c1,0.8,2.1,1.5,3.2,2.3
					c-0.3,0.1-0.5,0.2-0.7,0.3c-1.7,0.7-3.1,1.7-4.2,3.2c-0.4,0.5-0.8,1-1.2,1.3c-1,0.7-2,1.4-3.1,2c-1.1,0.6-1.2,0.6-1.7-0.6
					c-0.4-1.1-0.9-1.4-2.1-1.4c-0.2,0-0.5,0-0.7,0c-0.8-0.3-1.4,0-1.8,0.6c-0.6,0.9-1.2,1.8-1.7,2.7c-0.4,0.8-1.2,0.8-1.8,1.1
					c-0.1,0.1-0.5-0.2-0.8-0.3c-0.2-0.1-0.4-0.2-0.6-0.2c-1,0-1.9,0-2.5-0.9c-0.1-0.1-0.3-0.2-0.5-0.2c-1.2,0-2.4-0.1-3.6,0.1
					c-1.9,0.2-3.5,1.4-5.1,2.4c-1.4,0.8-1.7,2.2-1,3.7c0.3,0.6,0.6,1.1,0.9,1.7c0.3,0.6,0.2,1.4-0.4,1.9c-0.2,0.1-0.3,0.3-0.5,0.4
					c-2.1,1.6-2.1,4.4-0.4,6c0.5,0.5,1.1,1,1.5,1.5c0.4,0.4,0.6,0.9,0.9,1.3c-0.1,0.1-0.1,0.1-0.2,0.2c-0.4,0-0.8,0-1.2,0
					c-2.2-0.5-4.6,0-6.9,0.9c-1.6,0.7-2.8,1.8-3.6,3.3c-0.8,1.5-0.9,3.9,0.9,5c0.1,0,0.1,0.1,0.2,0.3c-0.9,0.7-1.8,1.3-2.6,2.1
					c-1.8,1.5-2.4,4.1-1.5,6.2s3.3,3.6,5.6,3.4c0.6-0.1,1.2-0.2,1.9-0.3c0,0.2,0,0.3-0.1,0.4c-0.5,1.1-1,2.3-1.6,3.4
					c-1,2-0.7,3.9,0.5,5.6s1,3.3,0.2,5c-0.4,0.9-0.8,1.8-1,2.7c-0.4,1.6-0.1,3.2,1.3,4.3c2.8,2.1,6,2.9,9.5,2.5
					c2.3-0.3,3.9-1.7,5.4-3.2c0.8-0.8,1.1-1.9,0.9-3c-0.2-0.8-0.5-1.6-0.9-2.3c-0.4-0.8-0.4-1.6,0.3-2.2c0.6-0.6,1.4-1,2.1-1.5
					c1.5-1,1.8-2.1,0.9-3.7c-0.4-0.8-1.1-1.4-1.6-2.1c-0.6-0.8-1.2-1.7-1.5-2.6c-0.6-1.5,0.1-2.4,1.7-2.6c0.3,0,0.7,0,1,0.1
					c1.2,0.4,2,1.1,2.7,2.1c0.9,1.3,1.9,2.5,3.7,2.3c0.5-0.1,1.1-0.2,1.6-0.3c2-0.5,3.6-2.4,3.8-4.5c0.1-1.5-0.4-2.7-1-3.9
					c-0.3-0.7-0.5-1.4-0.6-2.1c-0.1-0.7,0.2-1.2,1-1.1c0.5,0,1.1,0.1,1.6,0.3c0.9,0.3,1.8,0.7,2.7,0.9c2.3,0.6,4.4,0.4,6-1.7
					c0,0,0,0,0.1-0.1c1-1,1.4-2.2,1.2-3.7c-0.2-1.3-0.7-2.4-1.5-3.3c-1.1-1.2-1.8-2.6-2.2-4.1c-0.2-0.9,0.2-2.2,1-2.7
					c0.9-0.6,1.9-1.2,2.6-2c1.5-2,1.6-4.3,0.5-6.4c-0.9-1.9-2.3-3.6-3.5-5.3c-0.7-1-0.8-2.8-0.1-3.6c1.7-1.9,3.9-2.8,6.1-3.6
					c-0.1,1.1-0.4,2.2-0.4,3.3c0,1.8-0.1,3.5,0.1,5.3c0.2,1.5,0.3,3.1,1,4.6c0.6,1.1,0.9,2.5,1.5,3.6c1,1.8,2.1,3.6,3.2,5.3
					c0.4,0.6,0.8,1.3,1.2,1.9c0.8,1.2,1.6,2.3,2.2,3.6c1,2,1,4.3,0.9,6.5c0,1.2-0.3,2.4-1,3.4c-0.3,0.4-0.8,0.7-1.3,0.9
					c-0.6,0.4-1.2,0.7-1.8,1c-0.3,0.2-0.6,0.4-0.9,0.4c-0.9,0.2-1.9,0.1-2.7,0.5c-3.1,1.4-6.1,3-9.3,4.3c-0.4,0.2-0.7,0.5-1,0.9
					c-0.9,1.1-1.8,2.3-2.7,3.4c-0.5,0.6-1.1,1.2-1.6,1.9c-0.4,0.6-0.7,1.4-1,2.1c-0.2,0.5-0.6,0.9-0.7,1.4c-0.4,2.4-2,4.5-1.7,7
					c0,0.1,0,0.2-0.1,0.4c-0.5,1.1-0.6,2.2-0.4,3.4c0.2,2.2,0.4,4.3,2.1,6c0.8,0.8,1.3,1.9,2.6,1.4c-0.3,1.5-0.6,3-0.9,4.4
					c-0.8,4.1-0.9,8.2-0.4,12.3c0.2,1.8,0.7,3.7,0.8,5.5c0.1,2,0.8,3.8,1.5,5.6c0.6,1.5,1.1,2.9,1.7,4.3c0.4,0.8,0.7,1.9,1.3,2.2
					c1.4,0.6,1.9,1.7,2.3,2.9c0.2,0.7,0.2,1.6,1.2,1.7c0.1,0,0.1,0.2,0.2,0.3c0.1,0.4,0.2,0.8,0.4,1.1c0.4,0.7,0.7,1.4,1.2,1.9
					c0.7,0.7,1.7,0.6,2.7,0.6c0.4,0,0.8,0,0.8-0.6c0-0.2,0.2-0.3,0.4-0.4c0.6-0.4,1.2-0.8,1.9-1.2c0.4-0.2,0.7-0.7,1.1-0.7
					c0.8,0,1.1-0.4,1.5-1c0.2-0.3,0.5-0.7,0.8-0.8c2-0.3,3.6-1.4,5.2-2.5c0.2-0.1,0.3-0.3,0.4-0.5c0.2-0.2,0.3-0.5,0.5-0.7
					c1.4-1.1,2.7-2.2,4.1-3.2c2.6-2.1,4.8-4.4,6.3-7.4c0.6-1.1,1.3-2,2-3.1c0.4-0.6,0.8-1.1,1.1-1.7c0.7-1.5,2.1-2.6,2.2-4.3
					c0,0,0,0,0-0.1c0.2-0.5,0.6-1,0.7-1.5c0.4-1.6,0.7-3.3,1.1-4.9c0-0.2,0.2-0.4,0.4-0.5c0.3-0.2,0.7-0.3,0.9-0.5
					c0.9-0.9,1.8-1.8,2.6-2.7c0.2-0.2,0.3-0.4,0.4-0.6c0.2-0.6,0.4-1.1,0.6-1.7c0.1-0.3,0.1-0.6,0.2-0.9c0.1-0.5,0.2-1,0.4-1.4
					c0.2-0.6,0.3-1,0-1.6c-0.2-0.3,0-0.8,0-1.3c0.7,0.5,1.4,0.8,1.7,1.4c0.9,1.4,2.2,2.3,3.4,3.4c0.7,0.7,1.5,1.4,2.2,2
					c0.9,0.7,1.9,1.3,3.2,1.3c0.2,0,0.5,0.1,0.7,0.2c1.8,0.8,3.6,1.2,5.6,1.3c3.5,0.1,7-0.5,10.4-1.2c1.1-0.2,2-0.2,2.9,0.5
					c0.4,0.3,0.8,0.5,1.2,0.6c0.9,0.3,1.2-0.4,1.6-0.9c0.2-0.2,0.1-0.8-0.1-1c-0.6-0.8-0.8-1.7-0.4-2.6c0.3-0.1,0.6-0.3,0.6-0.6
					c0.2-0.7,0.3-1.4,0.4-2.2c0.1-0.6,0-1.2,0.1-1.8c0-0.5,0-1,0-1.5c0-0.7,0.1-1.5,0.1-2.2c-0.1-4.1-0.8-8-2.3-11.8
					c-1.5-3.9-3.5-7.4-6.5-10.3c-0.4-0.4-0.6-0.8-0.5-1.4c0.1-1.1,0.1-2.3,0-3.4c0-0.7-0.4-1.3-0.4-2c0-0.9-0.3-1.6-0.8-2.3
					c-0.5-0.7-1-1.4-1.2-2.2c-0.4-1.3-1.1-2.4-2.2-3.1c-1.8-1.3-3.9-2.1-6.1-2.6c-0.4-0.1-0.8-0.2-1-0.4c-0.5-0.8-1.3-0.8-2.1-0.6
					c-0.4,0.1-0.7,0.1-1.1,0.2c-3.1,0.2-6.1,0.3-9.2,0.5c-1.8,0.1-3.6,0.1-5,1.3c-0.2,0.1-1-0.1-1-0.2c-0.1-1-0.8-1.4-1.5-1.9
					c-0.7-0.6-1.2-0.7-2-0.1c-0.8,0.5-1.1,0.4-1.2-0.5c-0.1-1.4-0.3-2.8-0.8-4.2c-0.6-1.5-1.1-3-2.8-3.6c-0.1,0-0.2-0.2-0.3-0.2
					c-0.9-1.2-2.2-1.6-3.7-1.7c-1.2-0.1-2.4,0-3.4-0.6c-0.2-0.1-0.5-0.1-0.8-0.1c-1.4-0.3-2.7-0.6-3.7-1.8c-1.1-1.3-1.8-2.7-2-4.3
					c-0.1-1.5-0.2-2.9,0.6-4.3c0.6,0.3,1.2,0.6,1.9,0.8c2,0.7,3.8,2,6,2.3c0.1,0,0.3,0.2,0.4,0.2c1.2,0.2,2.5,0.5,3.7,0.6
					c1.1,0.1,2.3,0.2,3,1.1c0.9,1.1,1.7,2.3,2.4,3.6c0.9,1.5,2.3,2.4,3.6,3.4c0.6,0.5,1.4,0.7,2,1.3c1.5,1.4,3.3,1.5,5.2,1.6
					c1.6,0.1,3.2,0,4.8-0.1c0.4,0,0.8-0.1,1.1-0.2c1.7-0.6,2.7-2.1,3.7-3.4c0.9-1.2,1.5-2.6,2.7-3.5c0.9-0.7,1.8-1.3,3.1-0.7
					c-0.5,0.5-0.3,0.9,0.1,1.4c0.2,0.3,0.3,0.6,0.3,0.9c0,0.5-0.1,1.1-0.1,1.6c0,0.2,0.1,0.5,0.2,0.7c0.3,0.5,0.6,1,0.8,1.5
					c0.7,1.8,1.6,3.2,3.5,4.1c2.2,1,4.4,1.4,6.6,0.3c1.3-0.7,2.5-1.4,3.8-2.1c0.8-0.5,0.8-1.3,0.8-2.1c0-0.4,0.1-0.9,0.2-1.3
					c0.1-0.4,0.4-0.7,0.9-0.5c0.4,0.2,0.9,0.2,0.9,1c0,0.5,0.2,0.9,0.4,1.4c0.3,0.8,0.7,1.7,1,2.5c0.7,2.1,1.1,4.3,2.1,6.2
					c0.2,0.3,0.4,0.6,0.7,0.8c0.9,0.3,1.8,0.7,2.7,0.9c4.1,0.8,7.8-0.3,11.4-2.2c1-0.5,1.9-1.4,2.5-2.3
					C269.2,6.8,269.5,2.9,267.5-1.2z M211,55.2c-0.1,0-0.2,0.1-0.2,0.1c-0.2-0.2-0.3-0.5-0.5-0.7s-0.4-0.4-0.7-0.5
					c-0.4-0.1-0.8,0-1.1,0c-0.1-0.5-0.3-0.9-0.4-1.3s0-0.7,0.5-0.6s1.1,0.2,1.6,0.2c0.3,0,0.6-0.3,1.1-0.6
					C211.2,53,211.1,54.1,211,55.2z M211.6,43.5c-0.2-0.5-0.4-1-0.7-1.6c0.4-0.5,0.6,0.1,0.9,0.2s0.7,0.2,1.1,0.3
					C212.7,43,212.4,43.6,211.6,43.5z M235.2,32.4c0.2,0,0.4,0.1,0.5,0.2c1.5,2,3,4.1,4,6.4c0.8,1.9,2,3.7,2.8,5.6
					c0.5,1.1,0.7,2.3,0.9,3.4c0.1,0.2,0,0.5,0,0.7c-0.1,0.9,0,1.6,0.3,2.5c0.4,1,0.3,2.2,0.2,3.3c-0.3,1.9-0.7,3.9-1.1,5.8
					c-0.3,1.4-0.6,2.8,0.3,4.1c-1.8-1.4-3.7-1.3-5.7-0.5c0-0.5,0-0.9,0-1.3c-0.3,0.1-0.6,0.1-0.8,0.2c-0.2,0.1-0.4,0.3-0.5,0.4
					s0.1,0.3,0.1,0.5c0.2-0.1,0.4-0.1,0.8-0.3c-0.2,0.2-0.3,0.4-0.4,0.4c-2.8,0.4-5.6,1.1-8.4,0.8c-1.4-0.1-2.7-0.3-4-0.8
					c-0.8-0.3-1.4-1.1-2.1-1.7s-1.4-1.1-2.4-1c-0.5,0-1.2-0.3-1.7-0.6c-1.2-1-2.3-2-3.4-3.1c-0.7-0.7-1.4-1.6-2.2-2.4
					c0.6,0.4,1.1,0.7,1.6,1c0.4-1.3-1-1.8-1.1-2.9c0.3,0.2,0.6,0.4,0.8,0.6c0.3,0.3,0.6,0.7,1,0.9c1.1,0.8,2.1,1.8,2.8,2.9
					c0.2,0.2,0.6,0.3,0.9,0.4c0-0.1,0.1-0.1,0.1-0.2c-0.1-0.1-0.1-0.3-0.2-0.4c-0.4-0.5-0.7-1.1-1.2-1.6c-0.6-0.6-1.2-1.1-1.8-1.7
					c-1.6-1.7-2.6-3.8-3.5-5.9l0.1-0.1c0.2,0.2,0.5,0.5,0.7,0.7c0.4,0.3,0.9,0.7,1.3,1c0.1,0.1,0.3,0.2,0.3,0.4
					c0.2,1.3,0.9,2.1,1.9,2.8c0.6,0.4,1,1,1.1,1.8c0,0.2,0.4,0.5,0.6,0.5c0.6,0,0.8,0.4,1.1,0.8c0.5,0.7,1,1.4,1.6,2
					c0.1,0.1,0.3,0.1,0.5,0.2c0-0.2,0.1-0.5,0.1-0.6c-0.4-0.6-0.9-1.2-1.3-1.7c-0.2-0.2-0.3-0.5-0.5-0.7c-0.2-0.2-0.5-0.4-0.7-0.6
					c-0.2-0.2-0.5-0.5-0.6-0.7c-0.3-0.9-1-1.6-1.7-2.1c-0.5-0.3-0.8-0.7-1-1.2c-0.3-0.6-0.6-1.1-0.9-1.7c-0.6-1-1.2-2-1.7-3
					c-0.2-0.3,0-0.8,0-1.1c0.1,0,0.2,0,0.3-0.1c0.3,0.5,0.5,1.1,0.8,1.6c0.2,0.4,0.5,0.8,0.8,1.2c0.5,0.8,1.1,1.6,1.6,2.5
					c0.5,0.8,1,1.6,1.5,2.4c0.1,0.2,0.4,0.2,0.7,0.3c0.1-0.2,0.2-0.4,0.2-0.7c0-0.2-0.2-0.4-0.3-0.5c-1-0.7-1.4-1.8-2-2.8
					c-0.6-0.9-1.1-1.8-1.7-2.8c-0.2-0.4-0.5-0.8-0.5-1.3c-0.1-0.5,0.1-1,0.1-1.6c0.1,0,0.2,0,0.2,0c0.4,1,0.9,2.1,1.3,3.1
					c0.2,0.4,0.4,0.8,0.7,1.1c0.2,0.2,0.6,0,0.9,0.1c0-0.3,0-0.6-0.2-0.9c-0.5-1.2-1.2-2.3-1.6-3.5c0.3-0.2,0.5-0.7,0.6-1.2
					c0.6,0.5,0.2,1.5,1.3,1.5c-0.2-0.6-0.3-1.3-0.6-1.8c-0.4-1-0.2-1.6,0.9-2c0,0.2,0,0.4,0.1,0.6c0.1,0.1,0.2,0.2,0.4,0.4
					c0.1-0.2,0.3-0.3,0.3-0.5c0-0.3-0.1-0.6-0.1-0.9s0.1-0.6,0.2-0.8c0.4,0.2,0.6,0.3,0.9,0.4c0-0.3,0.2-0.6,0.1-0.8
					c-0.1-0.4,0-0.7,0.4-0.9c1-0.6,1.9-1.3,3-2c0.1,0.1,0.3,0.2,0.4,0.3c0.7-1.7,2.4-1.6,3.7-2c0.5-0.1,1.2,0.6,1.7,1
					c0.4,0.3,0.8,0.6,1.1,0.9c0.5,0.4,1,0.7,1,1.5c0,0.6,0.5,1.2,0.9,1.7c0-2.4-1.4-4.2-2.8-6c0.7-0.4,1.3-0.8,2.1-1.2
					c1.4,3.7,3.6,6.7,5.6,10c0.1-0.8-0.2-1.5-0.6-2.2c-0.6-1.1-1.2-2.3-1.9-3.5c-0.8-1.4-1.6-2.8-2.4-4.2c-0.1-0.1-0.2-0.3-0.3-0.4
					c0.8-0.5,1.7-1,2.5-0.6c0.5,0.2,0.8,0.9,1.2,1.4c-0.1,0.1-0.1,0.1-0.2,0.2c-0.2-0.3-0.3-0.6-0.6-1
					C234.1,31.6,234.6,32.4,235.2,32.4z M228.9,16.4c1.6,0.5,3.5,2.2,3.4,3.7c-0.4-0.1-0.7-0.1-1.1-0.2c-0.1-0.5-0.2-1-1-1
					c-0.2,0-0.7-0.3-0.5-0.9c0.3-0.9,0-1.2-0.9-0.9C228.8,16.8,228.8,16.6,228.9,16.4z M266.6,5.1c-0.2,1.8-0.9,3.4-1.7,5
					c-0.7,1.4-1.9,2-3.3,2.5c-2.5,0.9-4.9,1.6-7.6,1.3c-2.1-0.2-3.5-1.3-4.2-3.4c-0.7-2.4-1.5-4.8-2.2-7.2C247.2,2,246.4,1.2,245,1
					c-0.4-0.1-1.1,0.1-1.4,0.4c-0.8,0.7-1.5,1.5-1.6,2.7c-0.1,1-1.1,1.4-1.8,1.9c-0.4,0.3-1,0.3-1.5,0.6c-0.4,0.2-0.9,0.4-1.2,0.7
					C237,8,236.3,8,235.6,7.9c-2.4-0.5-3.9-2.1-4.9-4.2c-0.5-1.2-0.7-2.6-1.1-3.9c-0.2-0.7-0.3-1.5-0.6-2.2c-0.5-1.3-1.7-1.9-3-1.4
					c-0.8,0.3-1.6,0.8-2.2,1.4c-0.8,0.7-1.4,1.5-2.1,2.3c-0.4,0.4-0.7,0.9-1.1,1.3c-2.5,3.1-5.6,3.9-9.3,2.8c-3.6-1.1-6.6-3-8.6-6.3
					c-0.5-0.8-1.2-1.6-1.7-2.4c-0.2-0.2-0.3-0.5-0.5-0.8c-0.3-0.7-0.1-0.9,0.6-0.9c1.5,0.1,2.6,0.7,3.1,2.2c1.2,3.3,3.6,5.1,7,5.6
					c0.6,0.1,1.3,0,2,0c0-0.1,0-0.2,0-0.3c-0.2-0.1-0.4-0.3-0.7-0.3c-2.4-0.3-4-1.8-5.5-3.5c-0.1-0.1-0.2-0.3-0.3-0.4
					c-0.4-1.1-1-2.2-1.7-3.2c0-0.1-0.2-0.2-0.2-0.2c0-0.4,0-0.8,0-1.2c0.3,0.1,0.7,0,1,0.2s0.5,0.6,0.7,0.9c0.9,1.5,1.9,3,3.6,3.6
					c0.4,0.1,0.9,0.1,1.3,0.2c0-0.1,0.1-0.2,0.1-0.3c-0.2-0.2-0.4-0.4-0.7-0.6c-1.4-1-2.3-2.3-2.5-4.1c-0.1-0.7-0.5-1.3-0.9-2.1
					c0.6-0.9,2.3-1.8,3.6-1.2c0.3,0.1,0.6,0.3,1,0.4c0.8,0.2,1.2,0.7,1.4,1.5c0,0.2,0.1,0.4,0.2,0.5c0.1,0.2,0.4,0.3,0.6,0.4
					c0.1,0,0.3-0.3,0.4-0.5c0.4-1.3-0.5-3.1-1.7-3.7c-0.2-0.1-0.4-0.2-0.6-0.3c0.2-0.3,0.4-0.5,0.6-0.7c0.3-0.4,0.9-0.2,1.1,0.2
					c0.1,0.2,0.3,0.4,0.4,0.6c0.2-0.2,0.5-0.3,0.6-0.5c0.5-1,0.9-2,1.4-3.1c0.4,0.2,1,0.4,1.5,0.7c0.2,0.1,0.5,0.3,0.6,0.2
					c1-0.4,1.6,0.2,2,0.8c0.9,1.2,1.5,2.5,1.2,4c0,0.1,0.1,0.3,0.2,0.5c0.2-0.1,0.5-0.1,0.6-0.3c0.5-0.8,0.7-1.8,0.4-2.7
					c-0.3-1-0.9-1.9-1.4-2.9c-0.2-0.3-0.3-0.6-0.4-1c2.8,1.4,4.3,3.9,5.6,6.6c0.1,0,0.2-0.1,0.3-0.1c0-0.3,0.1-0.5,0-0.8
					c-0.6-2.5-2.1-4.4-3.9-6c-0.2-0.2-0.4-0.3-0.6-0.5c1.3-0.3,2.5-0.7,3.8-1c1.7-0.4,3.5,0.5,4.3,2.1c0.4,0.9,0.6,2,0.9,2.9
					c0.2,0.5,0.3,1.1,0.6,1.6c0.1,0.2,0.5,0.2,0.7,0.3c0-0.2,0.2-0.5,0.1-0.7c-0.1-0.9-0.3-1.9-0.5-2.8c-0.2-0.9-0.6-1.7-0.9-2.6
					c0.5,0,1.1,0.1,1.7,0.2c2.1,2.3,2.6,5.2,2.4,8.2c-0.1,1.4-0.3,2.8-0.4,4.3c-0.1,2.5,0.8,4.7,2.4,6.6c1.3,1.5,3.1,1.2,3.9-0.6
					c-0.4,0.1-0.7,0.3-1,0.4c-0.7,0.3-1.3,0.1-1.8-0.4c-1.6-1.9-2.5-4-2.2-6.6c0.2-2.1,0.3-4.2,0.2-6.3c0-1.9-0.7-3.8-1.8-5.4
					c-0.2-0.3-0.4-0.6-0.5-1c0.9,0.9,2,1.6,2.2,3c0.2,1,0.6,1.8,1.3,2.4c0.1,0.1,0.2,0.1,0.3,0.2c0.4,0.2,0.9,0.2,1.2,0
					c0.2-0.1,0.3-0.3,0.5-0.5c0,0,0-0.1-0.1-0.1c-1.5-0.2-1.5-1.5-1.8-2.6c-0.2-0.6-0.2-1.3-0.3-1.8c0.4,0.2,0.8,0.3,1.2,0.5
					c-0.1,0.2-0.2,0.5-0.3,0.9c-0.2,0.8,0.1,1.5,0.8,1.9c0.3,0.2,0.6,0.6,0.9,0.9c0.1,0.1,0.1,0.1,0.2,0.2c0.1,0.1,0.2,0.1,0.2,0.2
					c0.1-0.1,0.1-0.1,0.2-0.2c0.1-0.1,0.2-0.2,0.2-0.3c-0.1-0.5-0.3-1-0.5-1.5c0.7,0.1,1.1-0.5,1.3-1.1c0.8-1.9,2.3-3.1,3.7-4.5
					c0.2-0.2,0.5-0.3,0.8-0.4c1.3-0.5,2.3-1.4,3-2.6c0.2-0.4,0.7-0.8,1.1-0.9c1.4-0.5,2.7-0.6,4.2-0.4c0.9,0.1,1.9-0.2,2.9-0.4
					c0.3-0.1,0.7-0.4,0.9-0.7c0.1-0.2,0.1-0.7,0-0.9c-0.2-0.2-0.7-0.1-0.9,0c-0.6,0.7-1.3,0.6-2.2,0.5c-1.5-0.1-3.1-0.1-4.6,0
					c-0.5,0-1,0.5-1.5,0.8c-0.2,0.2-0.4,0.4-0.5,0.7c-0.7,1.1-1.6,2.1-2.8,2.8c-1.2,0.7-2.2,1.8-3.2,2.8c-0.8,0.8-0.7,0.8-1.9,1.2
					c0-0.3-0.1-0.6-0.1-0.8c0.3-0.9,1.2-1.1,1.9-1.3s0.7-0.6,0.6-1c-0.1-0.5-0.5-1-1.1-0.7c-0.7,0.3-1.5,0.7-1.9,1.3
					c-0.6,0.9-1.4,1.1-2.3,1.5c-0.1-0.9-0.8-1-1.4-1.2c-0.3-0.1-0.6-0.2-0.8-0.4c-0.8-0.7-0.9-0.8-1.9-0.3c-0.3,0.2-0.7,0.3-1,0.3
					c1.7-1.1,2.8-2.6,3.8-4.2c0.5-0.8,0.8-1.6,1-2.5c0.1-0.3,0-0.8,0-1.2c-0.1,0-0.2-0.1-0.4-0.1c-0.2,0.3-0.4,0.6-0.5,0.9
					c-0.8,2-1.9,3.8-3.5,5.3c-1,1-2.3,1.4-3.9,1.6c0.6-0.4,1-0.7,1.5-1c2.6-1.8,4.4-4.2,5-7.3c0.3-1.6,0.7-3.3,1-4.9
					c0.2-0.7,0.4-1.5,0.7-2.2c0.3-0.5,0.8-1.1,1.3-1.3c1.7-0.8,3.5-1.2,5.4-0.7c0.5,0.1,0.9,0.2,0.7,1c-0.1,0.2,0.3,0.8,0.5,0.9
					c0.2,0.1,0.8-0.1,0.9-0.4c0.9-1.4,0.4-2.5-1.3-2.9c-2.7-0.6-5.2-0.1-7.4,1.5c-0.6,0.4-1.1,1.2-1.4,1.9c-0.7,2.1-1.3,4.3-1.7,6.5
					c-0.7,3.4-2.6,5.8-5.4,7.5c-0.1,0.1-0.3,0.2-0.5,0.3c0.8-1,1.6-1.9,2.3-2.8c1.5-1.9,2.3-4.1,2-6.6c-0.1-0.8,0-1.6,0.4-2.3
					c0.1-0.1,0.1-0.3,0-0.6c-0.3,0.2-0.5,0.3-0.8,0.5c-0.9,0.9-1.1,2.1-1.1,3.3c-0.1,4.5-2.9,7.3-6.3,9.7c-0.1,0.1-0.2,0.1-0.3,0.1
					c-0.2,0-0.3,0.1-0.6,0.2c0.3-0.5,0.8-0.9,0.9-1.4c0.2-1.3,1-2.2,1.5-3.3c0.2-0.4,0.5-0.8,0.7-1.2c0.1-0.1,0.1-0.3,0.2-0.5
					c-0.2,0-0.5-0.2-0.6-0.1c-0.6,0.4-1.2,0.7-1.6,1.4c-0.7,1.3-1.6,2.4-2.4,3.6c-0.2,0.3-0.3,0.5-0.5,0.8c0-0.1-0.1-0.1-0.1-0.2
					c0.4-0.9,0.8-1.7,1.2-2.6c0.1-0.1,0-0.3-0.1-0.8c-0.5,0.4-0.9,0.7-1.2,1.1c-0.9,1-1.6,2.2-2.5,3.2c-0.6,0.7-1.4,1.2-2.2,1.8
					c-0.1-0.1-0.1-0.1-0.2-0.2c0.4-0.7,0.8-1.4,1.2-2.1c0.3-0.6,0.5-1.2,0.6-1.8c0-0.1-0.1-0.3-0.2-0.5c-0.1-0.1-0.1-0.2-0.2-0.3
					l0,0l-0.1,0.1l-0.1,0.1c-0.1,0.1-0.3,0.2-0.3,0.4c-0.9,1.7-1.7,3.5-2.6,5.2c-0.2,0.4-0.6,0.7-0.9,1.1c-0.1,0-0.1-0.1-0.2-0.1
					c0-0.3,0-0.6,0-0.9c0-0.2-0.2-0.4-0.3-0.5c-0.2,0.1-0.4,0.2-0.5,0.4c-0.4,0.8-0.8,1.6-1.3,2.4c-0.1,0.2-0.3,0.4-0.6,0.5
					c0.2-0.7,0.4-1.3,0.5-2c0-0.3-0.1-0.5-0.1-0.8c-0.3,0.2-0.6,0.2-0.7,0.5c-0.3,0.5-0.5,1.1-0.8,1.6c-0.7,1.1-1.4,2.2-2.1,3.2
					c-0.1,0-0.2-0.1-0.2-0.1c0.2-0.6,0.5-1.1,0.7-1.7c1.1-3.4,1.8-6.8,1-10.4c-0.3-1.5-0.3-3.2-0.2-4.8c0-1.1,0.7-2,1.8-2.5
					c0.2-0.1,0.3-0.2,0.5-0.4c-0.4-0.5-0.9-0.5-1.4-0.3c-1.1,0.4-1.8,1.2-1.9,2.2c-0.2,1.3-0.3,2.7-0.2,4c0,0.9,0.3,1.8,0.4,2.8
					c0,0.4,0,0.7,0,1.1c-0.5,3.4-1.3,6.7-2.5,10c-0.2,0.5-0.5,1-0.8,1.5c1.2-2.1,0.8-4.4,0.8-6.6c0-1.2,0.2-2.2,1-3
					c0.1-0.1,0.2-0.3,0.3-0.4c-1.1-0.2-2.4,1-2.4,2.2c-0.5,1.1-0.6,2.5-0.6,3.9c0,1.2-0.3,2.4-0.9,3.4c-0.8,1.2-1.7,2.3-2.7,3.3
					c-0.4,0.5-1.2,0.6-1.8,1c0.6-0.6,1-1.2,1.6-1.8c1.8-1.8,2.8-3.9,2.6-6.5c-0.1-1.6-0.4-3.1-0.5-4.7c-0.1-0.8-0.1-1.6-0.1-2.4
					c-0.6,0.2-1,0.7-0.9,1.4c0.1,1.1,0.3,2.2,0.4,3.3c0.2,2.9-0.1,5.7-2.3,7.9c-0.9,0.9-1.7,1.8-2.7,2.6c-0.3,0.3-1,0.2-1.5,0.3
					c0-0.1-0.1-0.1-0.1-0.2c0.4-0.5,0.7-1.1,1.2-1.5c1.9-1.9,3-5.6,2.7-8.3c-0.2-1.1,0-2.2,0-3.4c0-0.2,0.2-0.4,0.3-0.6
					c0.2-0.3,0.5-0.5,0.7-0.8c0.1-0.2,0.1-0.5,0-0.6c0-0.1-0.4-0.1-0.6,0c-0.8,0.4-1.4,1.1-1.6,1.9c-0.1,0.5,0.1,1,0.1,1.5
					c0,0.7,0,1.3,0,2c0,0.2-0.1,0.3-0.2,0.5c-0.1,0.5-0.1,0.9-0.2,1.4c0,0.3-0.1,0.7-0.2,1c-0.4,1.2-0.8,2.4-1.3,3.5
					c-0.3,0.6-0.7,1.2-1.1,1.7c-0.4,0.5-1,1-1.5,1.5c-0.1,0.1-0.4,0.2-0.6,0.2c-1.8-0.3-3.6-0.4-5.4-0.9c-0.9-0.2-1.8-0.8-2.4-1.4
					c-1.2-1.2-2.4-2.3-3.2-3.9c-0.2-0.3-0.8-0.4-1.3-0.7c0,0.3,0,0.5,0,0.7c-1,0.2-1.2,0.8-0.5,1.6c0.1,0.2,0.3,0.3,0.5,0.5
					c0.4,0.3,0.7,0.6,0.2,1.2c-0.5,0.6,0,1.1,0.4,1.6c0.7,0.8,0.5,1.7-0.4,2.2c-0.3,0.1-0.6,0.3-0.8,0.6c-0.4,0.5-0.2,1,0.3,1.2
					c0.4,0.2,0.8,0.4,0.9,0.9c0,0.2,0.4,0.3,0.6,0.4c-0.4,0.8-0.3,0.7,0.3,1.6c0.7,1,1.2,2,1.8,3.1c0,0.1,0.1,0.2,0.2,0.2
					c2.3,1,4.6,2.1,7.1,2.5c2.3,0.4,4.6,1.1,6.3,3.1c1,1.3,1.4,2.8,1.6,4.3c0.1,0.8,0.2,1.6,0.5,2.3c0.4,1.1,1.3,1.3,2.3,0.8
					c0.3-0.1,0.7-0.1,1,0.1c0.9,0.6,1.5,1.5,1.8,2.6c0,0.2,0,0.5-0.1,0.6c-1,0.4-0.5,1.2-0.5,1.9h-0.1c-0.2-0.2-0.3-0.5-0.5-0.7
					c-0.1,0.3-0.2,0.6-0.2,0.9c0,0.1,0.1,0.2,0.1,0.3c0.2,0.5,0.4,1.1,1.1,1s0.6-0.8,0.6-1.3c0-0.1,0-0.2,0-0.1
					c0.5-0.4,0.8-0.7,1.1-1c0.1-0.1,0.1-0.2,0.2-0.2c0.9-0.5,0.9-0.8,0.4-1.7c-0.1-0.2-0.3-0.5-0.5-0.8c0.6-0.3,1.1-0.5,1.6-0.8
					l0.1,0.1c-0.1,0.1-0.2,0.2-0.3,0.4c0,0.1,0,0.2-0.1,0.2c0,0.2-0.1,0.3-0.1,0.5c0,0.1,0,0.2-0.1,0.2c0.1,0,0.1,0,0.2,0
					c0.2,0,0.4,0.1,0.6,0.1c0.3,0,0.7,0,1,0c0.4,0.8,0.5,0.9,1.3,0.5c0.1-0.1,0.3-0.1,0.4,0c0.6,0.4,1,0.2,1.3-0.3
					c0.1-0.2,0.2-0.4,0.3-0.6c0.4-0.8,0.2-1-0.6-0.9c-0.1-0.2-0.1-0.3-0.2-0.6c1.6-0.1,3.2-0.2,4.8-0.2c0,0,0,0.1,0.1,0.1
					c-0.2,0.1-0.5,0.2-0.7,0.3c-0.3,0.1-0.6,0.2-0.8,0.3c-0.3,0.3-0.3,0.6,0.2,0.8c0.8,0.3,1.4-0.2,2.1-0.6c0.4-0.2,0.6-0.6,1-0.1
					c0.1,0.1,0.4,0.1,0.6,0.1c0.9-0.1,1.7-0.3,2.6-0.4c0,0.7,0.8,1.5,1.5,1.6c0.1,0,0.2,0,0.2,0c0.3,0.3,0.7,0.5,1,0.1
					c0.3-0.4,0.8-0.8,0.5-1.4l0,0l0,0l0,0l0,0l0,0l0,0c-0.8,0.3-1.7,0-2.2-0.7c0.7,0.2,1.5,0.5,2.2,0.7l0,0l0,0
					c1,0.3,1.9,0.6,2.8,0.9c-0.5,0.7-0.9,1.3-1.5,2.1c0-0.5-0.1-0.7-0.1-1.2c-0.4,0.3-0.8,0.6-1.1,0.9c-0.4-0.2-0.8-0.6-1.3-0.7
					c-0.2-0.1-0.6,0.2-0.9,0.3c0.1,0.3,0.2,0.6,0.4,0.8c0.3,0.3,0.6,0.6,1,0.8c0.4,0.3,0.9,0.4,1.5,0.7c0,0.3-0.1,0.6-0.1,1
					c0,0.7,0.4,0.9,1,0.6c0.5-0.3,0.8-0.3,0.9,0.3c0,0.2,0.3,0.5,0.5,0.6c0.2,0,0.5-0.1,0.7-0.3c0.2-0.2,0.4-0.5,0.6-0.7
					c1.5,0.4,2.1,0.3,2.6-0.6c0.3,0.6,0.6,1.2,1,1.7c-0.1,0.1-0.1,0.1-0.2,0.2c-0.1-0.1-0.3-0.2-0.3-0.4c-0.2-0.6-0.6-0.8-1.1-0.3
					c-0.2,0.2-0.5,0.4-0.7,0.7c0,0.1-0.1,0.1-0.1,0.2c-0.1,0.2-0.2,0.3-0.2,0.5c0,0.1-0.1,0.2-0.1,0.2c0.1,0,0.2,0,0.2,0.1
					c0.2,0.1,0.5,0.1,0.8,0.2c0,0.5,0.1,1.1,0.8,0.9c0.3,0.3,0.6,0.5,0.8,0.7c0.2-0.2,0.5-0.5,0.6-0.7c0.1-0.3,0.2-0.7,0.3-1.2
					c0.2,2.2,1.2,4.2,0.5,6.4c-0.3-0.1-0.6-0.1-1-0.2c0.8-0.5,0.6-1.2,0.6-1.9c0-0.1,0-0.2,0-0.3c-0.2-0.6-0.8-0.6-1.4-0.7l0,0l0,0
					l0,0l0,0l0,0c-0.1,0.1-0.2,0.1-0.3,0.2c-0.1,0.3-0.2,0.5-0.2,0.8c0.2,0.1,0.4,0.1,0.6,0.2c0.1,0.5,0.2,1.1,0.3,1.6
					c-0.8,0-1.8,0.9-2.6,0.2c-0.7-0.6-1.6,0-2.3-0.5c-0.1,0-0.5,0.2-0.5,0.3c-0.1,0.2,0,0.5,0.2,0.7c0.2,0.2,0.5,0.3,0.8,0.5
					c-0.5,1.3-0.6,1.3-1.9,1.2c-0.3,0-0.6,0-0.9,0c-0.4,0.1-0.7,0.1-1.1-0.2c-0.2-0.2-0.8-0.2-1.1-0.1c-0.2,0.1-0.4,0.5-0.5,0.9
					c-0.1,0.3-0.1,0.6-0.1,1c-1.8,0.6-2.8,2.6-5,2.9c-0.1-0.4,0-1.1-0.8-0.8c-0.4,0.2-0.6,0.6-1,0.9c0.2-0.6,0.4-1.1,0.4-1.7
					c0-0.3-0.2-0.6-0.3-0.9c-0.3,0.2-0.6,0.3-0.9,0.5c-0.1,0-0.1,0.1-0.1,0.2c-0.3,1-1,1.5-2,1.8c-0.3,0.1-0.6,0.5-0.6,0.8
					c0,0.2,0.5,0.4,0.7,0.6c0.2,0.1,0.4,0.1,0.6,0.1c0.6,0,1.3-0.1,1.8,0.5c0.1,0.1,0.4,0.1,0.7,0.2c-1.7,1-2,3.2-4.1,3.9
					c-0.2-0.9-0.3-1.8-0.5-2.7c0-0.1,0.1-0.2,0-0.3c-0.1-0.5-0.1-1.4-0.2-1.4c-0.7-0.1-1.4-0.8-2.2-0.1c-0.4,0.4-1.5-0.2-1.5-0.8
					c0-0.1,0-0.2,0-0.4c0.1-1.2-0.4-1.6-1.6-1.4c-0.5,0-1.1-0.1-1.7-0.2c0.9-0.3,0.8-1,0.8-1.8c0-0.5,0.1-1.1,0.2-1.7
					c0-0.3-0.1-0.7-0.1-1c-0.8,0.3-1.3,1.4-1.1,2.6c-0.8,0.2-0.8,0.2-0.8,1.2c-1,0.4-2.7-0.3-3.1-1.2c-0.1-0.2,0.2-0.8,0.3-0.8
					c0.7,0,1-0.5,1.2-1c1,0.3,1.3-0.6,1.7-1.1c0.3-0.4-0.1-0.7-0.5-0.6c-0.6,0-1.2,0.2-1.7,0.3c-0.2,0-0.3,0.2-0.4,0.3
					c-0.3-0.2-0.5-0.5-0.8-0.7c-0.2,0.3-0.5,0.5-0.8,0.8c-0.8-0.6-1.1,0.5-1.7,0.8c-0.2-0.2-0.5-0.4-0.8-0.7c0.3-0.7,0.6-1.3,1-2
					c0.4-0.8,0.3-1.1-0.7-1.3c0.2-0.1,0.4-0.2,0.5-0.3c0.4-0.2,0.8-0.2,1-0.5c0.5-0.6,1.1-0.6,1.7-0.6c0.2,0,0.5,0.1,0.6,0
					c1-0.8,2.2-0.8,3.3-1.1c0.2-0.1,0.5-0.1,0.7-0.2s0.4-0.3,0.4-0.5s-0.2-0.4-0.4-0.5c-0.7-0.3-1.4-0.2-2.1,0.1
					c-0.3,0.2-0.8,0.3-1.1,0.1c-0.3-0.2-0.6-0.7-0.6-1.1c0-0.7,0.2-1.4,0.3-2.1c0.1-0.5-0.1-0.9-0.5-0.7c-1.3,0.6-2.1,0.2-2.6-1
					c-0.1-0.2-0.1-0.6,0-0.8c0.5-1.1,0.7-2.2,0.1-3.4c-0.4-0.8-0.5-0.8-1.1-0.4c-0.6-1.4-1.2-2.8-1.9-4.2c-0.1-0.3-0.3-0.5-0.5-0.7
					c-0.4-0.3-0.5-0.5-0.5-1c0-0.2-0.3-0.5-0.5-0.8c0-0.2,0.1-0.4,0.2-0.7c-0.3,0-0.6-0.2-0.8-0.1c-1.6,0.4-3.2-0.1-4.8-0.1
					c-0.2,0-0.4-0.2-0.6-0.3c0.3-0.2,0.4-0.3,0.6-0.5c-0.5-0.4-0.9-0.7-1.4-1.1c0.2-0.3,0.3-0.6,0.5-0.9c0-0.1-0.1-0.1-0.1-0.2
					c-0.3,0.1-0.6,0.1-0.8,0.2c-0.4,0.2-0.9,0.5-1.3,0.7c-0.2,0.1-0.2,0.3-0.3,0.5c-0.1,0.4-0.3,0.8-0.3,1.3c-0.1,0.3-0.1,0.8,0,0.8
					c0.3,0.2,0.8,0.3,1.1,0.2c1-0.4,1.3-0.3,1.8,0.7c-0.5,0.5-1.1,1-1.6,1.5c-0.2,0.2-0.4,0.4-0.4,0.7c0,0.4,0.2,0.8,0.4,1.2
					c0.3-0.1,0.7-0.3,1-0.5c0.1,0,0.2-0.2,0.3-0.3c0.1,0.8-0.6,1.9,0.9,2c0.3,2.3,0.4,2.4,1.8,2c0,0.4,0.2,0.9,0.1,1.2
					c-0.3,0.9-0.3,1.6,0.6,2.1c0.1,0,0.1,0.1,0.2,0.2c0,0,0,0.1,0.1,0.3c-0.2,0.1-0.5,0.2-0.7,0.3c-0.4,0.2-0.8,0.4-1.3,0.6
					c-0.1,0-0.1,0.3,0,0.3c0.1,0.1,0.3,0.3,0.5,0.3c0.4,0,0.8,0,1.2-0.1c0.2-0.1,0.4-0.5,0.7-0.9c0.1,0.7,0.2,1.3,0.3,1.8
					c0.2,0.8,0.7,1,1.5,0.4c0.2,1,0.4,1.9,0.6,2.9c-1.3,0.2-2.5,0.3-3.7,0.4c-0.3,0.7,0,1.1,0.9,1c0.8-0.1,1.5-0.2,2.4-0.3
					c0.4,0.3,0.5,0.7,0.3,1.2c-0.1,0.4-0.3,0.8-0.4,1.2c-0.2,0.6-0.5,1-1.3,0.9c-0.1,0-0.2,0-0.3,0.1l-0.1,0.1c0,0,0,0-0.1,0
					c0,0.1,0.1,0.2,0.1,0.3c0,0.1,0.1,0.2,0.2,0.2c0.5,0.6,1,1.3,1.5,2c-1,0.5-0.4,1.5-0.7,2.2c0,0.1,0.1,0.3,0.2,0.4
					c0.7,0.5,0.7,0.9,0,1.4c-0.7-0.5-1.9-0.4-2.4,0.3c-0.2,0.3-0.2,0.9,0,1.1c0.3,0.4,0.7,0.1,1-0.2c0.3-0.4,0.5-0.5,1-0.3
					c0.4,0.1,0.9-0.1,1.3-0.2c0.3-0.1,0.6-0.2,0.8-0.2c1.1,0.1,2.1-0.6,2.3-1.7c0.1-0.4,0.2-0.8,0.3-1.3c0.7,0.2,1.4,0.6,2.1,1.3
					c0.8,0.8,1.7,1.5,2.6,2.1c-0.1,0.3-0.2,0.9-0.5,1.3c-0.2,0.3-0.6,0.5-0.9,0.8c-0.6-0.9-1.3-1.4-2.3-1.5c-0.3,0-0.8,0.1-1,0.3
					c-0.2,0.2-0.1,0.6,0,0.9c0.1,0.3,0.3,0.6,0.5,1c-0.3,0.2-0.5,0.5-0.9,0.8c-0.1-0.2-0.2-0.4-0.4-0.6c-0.4-0.5-0.9-0.5-1.4,0
					s-1.4,0.5-1.8,0c-0.2-0.2-0.3-0.4-0.5-0.5s-0.5-0.1-0.7,0s-0.3,0.4-0.3,0.6c0,0.6,0,1.2,0,1.8c-0.1,1.1,0.9,2.1,2,2
					c0,0.2,0,0.4,0,0.6c0,0.6,0.3,1.1,0.9,1.2c0.2,0.1,0.4,0.2,0.7,0.3c0,0.1-0.1,0.1-0.1,0.2c-0.2,0-0.4-0.1-0.6,0
					c-0.5,0-0.8,0.6-0.5,0.9c0.6,0.6,0.7,1.7,1.7,1.9c0.1,0,0.2,0.1,0.3,0.1c0.6,0.9,1.1,1.8,1.6,2.6c0.2,0.3,0.6,0.4,0.9,0.5
					c0.1-0.3,0.3-0.6,0.2-0.9c-0.1-0.9-0.6-1.5-1.2-2.2c-0.3-0.3-0.3-0.8-0.5-1.3c0.3-0.1,0.7-0.2,0.9-0.4c0.2-0.2,0.4-0.6,0.4-0.8
					c0-0.2-0.5-0.5-0.7-0.5c-0.8,0.1-1.2-0.2-1.6-0.9c-0.2-0.4-0.7-0.7-1.3-1.2c-0.1-0.7,1.2-2.3-1.1-2.3c0.6,0,1.3-0.1,2.1-0.1
					c0.7,0.6,1.1,0.6,1.9,0.1c0.9,0.4,1.1,0.4,1.6-0.4c0.1-0.2,0.4-0.3,0.6-0.4c0.3-0.1,0.6-0.2,0.9-0.4c0.7-0.1,0.8,1.4,1.6,0.9
					c0.6,1,1.2,1.9,1.7,2.8c0.1,0,0.2,0,0.2-0.1c0.2-0.5,0.1-1-0.2-1.6c-0.3-0.5-0.5-1-0.7-1.5c0.5-0.1,1-0.1,1.1-0.3
					c0.2-0.2,0.1-0.7,0.1-1.1c0.2,0.1,0.5,0.2,0.8,0.3c-0.9,1.2-0.9,1.5,0.1,2.3c-0.2,0.7-0.2,1.2,0.8,1.4c0.2,0,0.3,0.5,0.5,0.8
					l0,0l0,0l0,0l0,0l0,0l0,0c0.5-0.1,1.1-0.2,1.6-0.3v0.1c-0.3,0.2-0.6,0.4-0.9,0.7c-0.2-0.2-0.5-0.4-0.8-0.5l0,0l0,0
					c-0.2,0-0.4,0.1-0.6,0.1h-0.1h-0.1c-0.4,0.2-0.7,0.3-1-0.1c-0.2-0.2-0.6-0.2-0.9-0.1s-0.6,0.3-1.1,0.5c-0.2-0.6-0.2-1-0.4-1.5
					c-0.1-0.2-0.4-0.4-0.5-0.3c-0.3,0.2-0.6,0.4-0.7,0.7c-0.1,0.2,0.1,0.6,0.3,0.7c0.5,0.5,0.5,0.9-0.1,1.4
					c-0.4,0.3-0.7,0.6-1.1,0.9s-0.8,0.7-0.5,1.3c0,0.1,0,0.1,0,0.2c-0.3,1.1-0.2,1.2,0.9,1.2c0,0.2,0,0.4,0,0.6
					c0.1,0.6,0.8,0.7,1.2,0.3c0.7-0.7,0.4-2.1-0.7-2.5c0.2-0.4,0.3-0.7,0.5-1.1c0.1,0,0.1,0.1,0.2,0.1c-0.1,1,0,1.1,1.1,0.9
					c0.2,0,0.3,0.1,0.5,0.2c0.3,0.1,0.7,0.2,0.8,0.1c0.2-0.2,0.3-0.6,0.2-0.8c-0.1-0.6-0.4-1.1-0.6-1.8c0.7,0.6,1.5,0.6,2.3,0.2
					c0.4,0.5,0.7,1,1.6,0.8c0.3-0.1,0.8,0.6,1.5,0c0,0.9,0.2,1.5,0.1,2.1c0,0.3-0.6,0.6-0.9,0.6c-0.6-0.1-0.8,0.3-0.9,0.7
					c-0.1,0.3-0.1,0.6-0.2,0.9c0,0.1,0,0.3-0.1,0.3c-0.9,0.3-0.8,1.2-1.4,1.7c-0.1,0.1-0.4,0.3-0.5,0.2c-0.5-0.3-0.8-0.1-1.1,0.4
					c-0.5-1.1-1.5-1-2.5-1c-0.6,0-1.1-0.1-1.7-0.1c-0.2,0-0.5,0.1-0.7,0.2c-0.8,0.4-1.5,1-2.5,0.5c-0.7-0.3-1.2,0.4-1.8,0.4
					c-0.6-0.1-1.3-0.5-1.8,0.1c-0.8,0.9-1.6,1.9-2.3,2.9c-0.1,0.2,0,0.7,0.2,0.9c0.2,0.1,0.6,0,0.9-0.2c0.2-0.1,0.2-0.3,0.5-0.7
					c0.6,1.1-1.2,1.8,0,2.8c-0.8,0.3-1.4,0.6-2.1,0.8c-0.2,0.1-0.5-0.2-0.7-0.3c-0.4-0.4-0.8-0.8-1.3-1.1c-0.4-0.2-0.3-0.4-0.2-0.8
					s0.1-0.9,0.2-1.6c0.3-0.1,0.8-0.3,1.3-0.5c0.2-0.1,0.5-0.2,0.7-0.4c0.2-0.2,0.3-0.6,0.4-0.8c-0.3-0.1-0.6-0.4-0.8-0.3
					c-1.2,0.2-2.4,0.4-3.5,1.4c-0.1-0.4-0.2-0.7-0.2-1c0-0.6,0.1-1.2-0.7-1.3c-0.1,0-0.1-0.1-0.1-0.1c-0.1-1-0.8-0.8-1.5-0.7
					c-0.2,0-0.5,0.2-0.5,0.3c0,0.2,0.2,0.4,0.3,0.6c0.1,0.2,0.2,0.3,0.4,0.5c0.3,0.3,0.6,0.5,1.1,0.8c0.1,0.9,0.1,0.9,0.9,1.1
					c-0.1,0.1-0.1,0.1-0.1,0.1c-1.4,0.6-1.5,0.8-1.3,2.4c0,0.3-0.1,0.6-0.2,0.8c-0.4-0.1-0.6-0.2-0.9-0.3c0,0.3-0.2,0.7,0,0.9
					c0.1,0.2,0.5,0.5,0.8,0.4c0.4,0,0.7-0.3,1.1-0.5c0.2,0.7,0.5,1.3,1.3,0.7c0.6,0.7,1.2,0.8,1.7,0.6c0.8,0.2,1.3,0.4,1.9,0.5
					c0.7,0.1,1.1,0.5,1.7,0.9c1,0.8,1.6,1.8,2.3,2.7c0.1,0.2,0.3,0.3,0.5,0.4c0.1,0,0.2-0.1,0.3-0.1c-0.1-0.4-0.1-0.8-0.2-1.2
					c0.2,0,0.4,0,0.7,0c0.1,0,0.4-0.1,0.4-0.2c0-0.2-0.1-0.4-0.2-0.5c-0.2-0.3-0.4-0.5-0.7-0.7c0.3-0.2,0.5-0.4,0.7-0.6
					c0-0.1,0-0.1,0-0.2c-0.9-0.2-1.9-0.4-2.8-0.6c0-0.1,0-0.1,0.1-0.2c0.9-0.3,1.8-0.6,2.7-0.9c0.3,1,0.4,1.1,1.3,0.9
					c0.6-0.1,0.8-0.5,0.7-1c-0.1-0.5-0.1-0.9,0.4-1.3c0.2-0.1,0.3-0.5,0.3-0.7c-0.1-0.2-0.4-0.3-0.7-0.3c-0.2,0-0.5,0.1-0.7,0.2
					c-0.4,0.2-0.8,0.4-1.3,0c-0.1-0.1-0.4,0-0.6,0c-0.4,0-0.7,0.1-1.2,0.2c0.4-1.1,0.2-2-0.7-2.5c0.6-0.8,0.8-0.8,1.5-0.2
					c0.2,0.2,0.6,0.2,0.9,0.3c0.4,0.5,0.8,1.1,1.3,1.6c0.1,0.1,0.4,0.2,0.6,0.1c0.1,0,0.3-0.3,0.3-0.4c0-0.3-0.1-0.6-0.2-0.8
					c-0.3-0.6-0.7-1.2-1-1.8c0.8,0.1,1.5,0.2,2.2,0.3c0.1,0.1,0.1,0.4,0.2,0.5c0.4,0.3,0.3,0.7,0.1,1c-0.2,0.6-0.5,1.2,0.3,1.6
					c-0.1,0.7-1,1.2-0.3,1.9c0.2,0.2,0.7,0,1.1,0.1c0.4,0,1,0.2,1.2,0c0.4-0.3,0.6-0.8,0.7-1.3c0-0.4-0.3-0.9-0.6-1.2
					c-0.3-0.3-0.7-0.5-0.9-0.7c-0.1-0.7-0.3-1.3-0.2-1.8c0.1-0.4,0.4-0.8,0.7-1.1c0.1-0.1,0.5-0.1,0.7-0.2c0.4,1.5,0.6,1.7,1.7,0.9
					c0.6,0.5,1.2,0.9,1.9,0.2c0,0,0.5,0.2,0.6,0.3c0.1,0.5,0.2,1.1,0.2,1.4c-1,0.5-1.8,0.9-2.7,1.3c-0.2,0.1-0.4,0.3-0.4,0.5
					c-0.1,0.1-0.1,0.2-0.1,0.4c0,0.1,0,0.2,0,0.2c0.1,0,0.2,0,0.2,0c0.1,0,0.3,0,0.4,0c0.3-0.1,0.6-0.4,0.9-0.5
					c0.3-0.1,0.5-0.3,0.8-0.4c0,0.1,0.1,0.1,0.1,0.2s0.1,0.2,0.1,0.3c0.1,0.2,0.2,0.3,0.3,0.3l0,0l0,0c0.2,0,0.5-0.2,1.1-0.7l0,0
					l0,0c0.2,0.2,0.5,0.3,0.6,0.4l0,0c0.2,0.6,0.3,1.1,0.4,1.6c0.3-0.1,0.6-0.2,1.1-0.3c0.1,0.2,0.3,0.6,0.2,0.7
					c-0.3,0.4-0.1,1.4-1.1,1.1c-0.2-0.1-0.6,0.3-0.8,0.5c-0.2,0.3-0.1,0.5,0.3,0.7c0.3,0.1,0.4,0.5,0.8,0.9
					c-0.4,0.7-0.7,1.4-1.2,2.2c-0.9-0.5-1.6-0.9-2.2-1.3c-0.3-0.3-0.5-0.7-0.8-1.2c0.2-0.3,0.6-0.7,0.9-1.2c0.1-0.3,0.1-0.7,0.1-1
					v-0.1c-0.2,0-0.3,0-0.5,0s-0.3,0-0.5,0c-0.1,0-0.2,0.1-0.3,0c-1-0.4-1.7,0-2.4,0.6c-0.7,0.6-1.6,1.1-2.6,1
					c-0.2,0-0.5,0.1-0.6,0.2c-0.1,0.2-0.1,0.5,0,0.7c0.5,1.2,1.6,1.3,2.7,1.2c0.8-0.1,1.2,0.2,1.4,1c0.1,0.5,0.5,0.8,1,0.7
					c0.5-0.1,0.8,0.1,1.1,0.7c-1.1,2.6-2.2,5.3-3.4,8c-0.1,0-0.1-0.1-0.2-0.1c0.7-1.9,1.5-3.7,2.3-5.7c-0.3,0.1-0.6,0.2-0.8,0.5
					c-0.7,0.8-1.3,1.7-1.3,2.8c0,0.3-0.2,0.6-0.3,0.8c-0.3,0.8-0.5,1.6-0.8,2.4c-0.2,0.6-0.5,1.2-0.8,1.8c-0.2,0.5-0.4,1-0.7,1.7
					c0.3-0.1,0.4-0.2,0.6-0.2c0,0.1,0,0.2,0,0.2c-0.6,1.1-1.1,2.3-1.7,3.4c-0.1,0.3-0.4,0.5-0.7,0.6c-0.9,0.7-1.6,1.5-2,2.6
					c-0.5,1.6-1.4,3-2.7,4c-2.5,2.1-5.1,4.2-7.8,6c-1.6,1.1-3.5,1.7-5.2,2.5c-1,0.4-1.9,0.8-2.5,1.7c-0.7,0.8-1.8,1.2-2.2,2.3
					c-0.1,0.2-0.7,0.2-0.9,0.1c-0.3-0.1-0.5-0.5-0.6-0.8c-0.2-0.9-0.4-1.9-0.5-2.5c0.3-0.9,0.5-1.6,0.7-2.3c0,0-0.5-0.2-0.7-0.2
					c0-0.2-0.1-0.6-0.2-1c-0.2,0.2-0.5,0.3-0.7,0.5c0,0-0.1-0.1-0.2-0.3c-0.1,0.3-0.2,0.5-0.3,0.8c-1.4-1.1-2.5-2.4-3.3-3.9
					c-2.3-3.9-3.5-8.2-4.4-12.7c0-0.1-0.1-0.3,0-0.4c0.7-1,0.1-2.1,0.1-3.1c0.1-1,0-2.1,0.1-3.1c0.2-0.9,0.2-1.9,0.7-2.8
					c0.3-0.7,0-1.6,0-2.5c0-0.1,0-0.3,0-0.4c0-0.4,0.1-0.8,0.1-1.2c0-0.1,0.1-0.3,0.1-0.4c0.1-0.3,0.1-0.6,0.2-1c0-0.1,0-0.3,0-0.3
					c0.9-0.9,0.4-1.8,0.2-2.7c-0.1-0.5,0.1-0.9,0.1-1.4c0-0.1,0.1-0.2,0.2-0.2c0.1,0,0.2,0.1,0.3,0.2c0.2,0.5,0.5,0.5,0.9,0.4
					c0.3-0.1,0.8,0,0.9,0.2c0.1,0.3,0,0.7-0.1,1c-0.4,0.9-0.9,1.7-1.3,2.6c-0.3,0.6-0.4,1.3-0.5,2c0,0.1,0,0.3,0.1,0.4
					c0,0.5,0.1,0.9,0.1,1.4c0,0.3-0.2,0.7-0.1,1c0.6,1.5-0.2,3-0.2,4.5c0,1.6-0.2,3.2-0.2,4.8c0,0.4,0,0.9,0.6,0.9s0.7-0.5,0.7-1
					c0-1.3,0-2.5,0.1-3.8c0.1-1.4,0.3-2.8,0.5-4.1c0-0.1,0.1-0.3,0-0.4c-0.5-0.8-0.3-1.6-0.1-2.3c0.2-1,0-2.2,0.7-3
					c-0.2-1.5,1.1-2.3,1.4-3.5c0.2-0.6,0.2-1.2,0.3-1.8c0.5-0.2,1-0.4,1.5-0.6c0.2,0.3,0.3,0.6,0.5,0.9c-0.2,0.3-0.6,0.6-0.9,1
					c-0.1,0.2-0.3,0.4-0.3,0.6c0,1.7-1,3.2-1.2,4.9c-0.1,0.7-0.3,1.3-0.4,1.9c0,0.3,0.2,0.6,0.4,0.9c0.2-0.2,0.5-0.4,0.6-0.6
					c0.5-1.4,0.8-2.9,1.3-4.3c0.2-0.5,0.4-1.1,0.6-1.5c0.3-0.5,0.5-1,0-1.4c0.4-1.1,0.7-2.1,1.1-3.1c0.1,0,0.2-0.1,0.3-0.1
					c-0.3,1.3,0.5,1.6,1.6,1.7c-0.2,0.6-0.4,1.1-0.6,1.6c-0.1,0.3-0.3,0.6-0.5,0.9c-0.5,1.6-1,3.3-1.1,5.1c0,0.4-0.3,0.8-0.4,1.2
					c-0.1,0.5-0.2,1-0.2,1.6c0,0.2,0.3,0.3,0.5,0.5c0.1-0.2,0.3-0.3,0.3-0.5c0.3-1.6,0.4-3.2,1.2-4.6c0.2-0.4,0.1-0.9,0.3-1.3
					c0.4-1,0.8-1.9,1.2-2.9c0.1-0.3,0.2-0.7,0.3-1.1c0.9-1.1,2.3-1,3.5-1.3c0.4-0.1,0.8,0.1,1.2-0.2c0.1,0,0.3,0,0.3,0
					c0.1,0.1,0.1,0.3,0,0.4c-0.3,1-0.5,2-0.8,3c-0.1,0.2-0.2,0.5-0.4,0.7c-0.3,0.5-0.5,1-0.2,1.6c1-0.1,2.3-4,2.2-5.3
					c0.8,0.1,1.1,0,1.4-1c-0.8-0.5-1.5-1-1.5-2.2c0-1.1-0.3-2.2-1-3.1c-0.3-0.3-0.6-0.6-0.9-0.9c-0.1-0.2-0.3-0.3-0.4-0.5
					c-0.2-1.3-0.2-1.3-1.4-0.9c-0.5-0.4-0.9-0.7-1.4-1.1c0.5-0.1,0.9-0.1,1.3-0.1c0.1,0,0.3-0.1,0.3,0c0.6,0.6,1,0.1,1.4-0.2
					c0.3-0.3,0.7-0.7,1.2-0.2c0.1,0.1,0.6,0,0.8-0.2c0.4-0.4,0.7-0.4,1,0.1c0.5,0.7,1,1.4,1.6,2.2c-0.6,0.6-1.1,1.2-1.7,1.8
					c-0.1,0.1-0.1,0.3-0.1,0.4c0.1,0.1,0.3,0.2,0.4,0.1c0.5-0.2,1-0.4,1.3-0.8c0.5-0.7,1.3-0.6,1.9-0.9c0.1,0,0.2,0.2,0.4,0.2
					c0.3,0,0.8,0.2,0.9,0c0.3-0.4,0.4-0.8,0.6-1.3c-0.3-0.1-0.5-0.2-1-0.3c-0.4-0.7-0.7-0.6-1.4,0.5c-0.4-0.7-0.7-1.4-1.1-2.2
					c-0.4-0.7-0.8-1.4-1.2-2.1c0.1-0.1,0.3-0.3,0.4-0.4c-0.1-0.1-0.1-0.2-0.1-0.2c-0.5-0.2-1-0.4-1.5-0.4c-0.7-0.1-0.8,0.4-0.9,1
					c-1.7,0-3,0.9-4.3,1.9c-0.6-0.7-1-0.7-1.4,0.2c-0.3,0.5-0.6,1-0.8,1.5c-0.2,0.4-0.3,0.9-0.4,1.4c-0.4,0.1-1,0.1-1.4,0.4
					c-0.4,0.3-0.7,0.8-1.1,1.3c-0.4-0.4-0.8-0.7-1.2-1.1c-0.5-0.5-0.9-1.1-1.3-1.6c0,0,0,0-0.1-0.1c-0.7-0.7-2.6-0.3-2.9,0.6
					c-0.2,0.5-0.5,1-0.6,1.6c-0.1,0.6,0.2,0.9,0.8,0.9c0.1,0,0.2,0,0.2,0c0.3,0.8,1,0.2,1.4,0.5c0.1,0,0.1-0.1,0.2-0.1
					c-0.2-0.4-0.4-0.7-0.6-1.1c0.2-0.4,0.5-0.9,0.7-1.3c0.8,0.8,1.6,1.5,2.4,2.3c0.5,0.5,0.3,1-0.3,1c-1-0.1-1.3,0.6-1.7,1.2
					c-0.3,0.4-0.5,0.8-1,0.1c-0.3-0.4-0.6-0.2-0.8,0.2c-0.5,0.7-1,1.5-1.7,2.1c-0.4,0.4-0.9,0.6-1.4,0.8c-0.6,0.2-1.1,0-1.5-0.6
					c-0.2-0.3-0.5-0.6-0.7-1c0-0.1,0.1-0.1,0.1-0.2c0.2,0.1,0.4,0.3,0.7,0.4c0.2,0.1,0.5,0.3,0.7,0.2c0.2-0.1,0.3-0.4,0.4-0.6
					s0.1-0.5,0.3-0.7c0.4-0.5,0.3-2.1-0.1-2.5c-0.3-0.4-0.9-0.3-1.1,0.3c-0.2,0.4-0.3,0.9-0.5,1.5c-0.7-0.8-0.4-2-1.4-2.4
					c-0.1,0.3-0.2,0.6-0.3,1c-0.1-0.8-0.2-1.4-0.3-2.1c0.6,0,1.2,0,1.8-0.1c0.6-0.1,1.1-1,1-1.9c-0.1,0-0.3,0.1-0.4,0.1
					s-0.2,0.1-0.2,0.1c-0.3-0.3-0.6-0.7-0.8-0.7c-0.9,0-0.8,0.9-1.2,1.4c0.2-1.3,0.4-2.6,0.6-3.9c0.3,0,0.7,0,0.9,0.5
					c0.1,0.2,0.5,0.2,0.6,0.4c0.3,0.4,0.6,0.8,0.9,1.1c0.2,0.1,0.6-0.1,0.9-0.1c-0.1-0.2-0.2-0.4-0.3-0.7c-0.1-0.3-0.1-0.6-0.1-0.9
					c0-0.5,0.1-1,0.2-1.5c-0.1,0-0.1,0-0.2,0c0.1-0.1,0.2-0.3,0.3-0.4c0.3-0.3,0.5-0.3,0.6,0.2c0,0.5,0.3,0.9,0.8,0.9
					c0.3-0.1,0.6-0.5,0.8-0.8c0.3-0.5,0.6-1.1,0.9-1.7c0.1-0.3,0.3-0.6,0.3-1c0.1-0.3,0-0.5,0-0.8c-0.2,0.1-0.5,0.1-0.6,0.1
					c-0.2-0.4-0.4-1-0.6-1c-0.4,0-0.9,0.3-1.5,0.5c-0.5-0.2-0.1-1.8-1.5-1.4c0-0.1,0-0.1,0-0.2c0.2-0.1,0.4-0.2,0.6-0.3
					c0.2-0.1,0.4,0,0.6-0.1c0.6-0.5,1.2-0.2,1.6,0.1c0.6,0.4,1.1-0.1,1.6-0.2c0.1,0,0.1-0.4,0.1-0.5c-0.4-0.8-0.3-1.5-0.1-2.3
					c0.1-0.2,0.1-0.5,0.1-0.8c1.1,0.2,2.3,0.3,3.4,0.5c-0.1,0.8-0.2,1.3-0.3,2c-0.5,0.5-1.1,1.2-1.6,1.8c-0.3,0.3-0.5,0.7,0,1
					c0.4,0.3,0.7-0.1,1-0.4c0.2-0.2,0.5-0.4,0.8-0.5c0.5-0.3,1-0.7,1.5-1c0.3-0.2,0.6-0.3,1-0.6c0-0.1,0-0.3,0.1-0.5
					c0.3-0.8,0.4-0.8,1.1-0.3c0.4,0.3,0.9,0.2,1.4-0.4c-0.3-0.1-0.6-0.1-0.8-0.2c0-0.1,0-0.2-0.1-0.2c0.2,0,0.4-0.2,0.5-0.1
					c0.7,0.5,1,0.4,1.4-0.3c0.4-0.7,1-0.7,1.6-0.9c0.6-0.2,1.1-0.3,1.6-0.6c0.2-0.1,0.5-0.5,0.4-0.6c-0.1-0.3-0.4-0.6-0.7-0.7
					c-0.8-0.3-2,0.2-2.4,0.9c-0.1,0.1-0.3,0.2-0.4,0.3c-0.3,0.2-0.6,0.4-1,0.6c-0.6-0.6-1,0.1-1.6,0.4c-0.2-0.2-0.4-0.4-0.7-0.6
					c-0.2-0.1-0.4-0.2-0.5-0.4c-0.1,0.2-0.2,0.4-0.3,0.6c0,0.1,0,0.2,0,0.3c-0.2,0-0.4,0-0.6,0c0.1-0.7-0.2-1.1-0.9-1.1
					c0-0.6,0-1.2-0.7-1.3c-0.1,0-0.1-0.3-0.1-0.4c0-0.3,0.1-0.5,0.2-0.8c0.2,0,0.4-0.1,0.7-0.1c0.5,0.9,1.5,0.6,2.2,0.7
					c0.4,0.1,0.8,0.2,1.3,0.2c0.3,0,0.7-0.1,1-0.3c-1.1-0.8,0.3-1.7-0.2-2.4c0.8-0.2,1.3,0.2,1.6,0.9c0.1,0.2,0.4,0.6,0.6,0.6
					c0.7,0,0.8,0.3,0.8,0.8c0.1,0.6,0.5,0.8,1.2,0.7c0.5-0.1,0.8-0.4,0.6-1c-0.3,0-0.5,0.1-0.8,0.1c-0.1-0.4-0.1-0.8-0.2-1.2
					c-0.1-0.2-0.3-0.4-0.5-0.5c-0.2-0.2-0.5-0.3-0.8-0.5c0.4-0.4,0.8-0.6,1-1c0.1-0.3,0-0.7,0.1-1.1c0.2,0.8,0.8,0.8,1.5,0.9
					c0,0.3,0.1,0.5,0.1,0.7c-0.1,0.5,0,0.9,0.5,1c0.6,0.1,1.1,0.1,1.3-0.6c-0.7-0.5-0.6-0.9,0-1.5c0.3-0.3,0.5-0.7,0.6-1
					c0.3-0.3,0.7-0.5,1-0.8c-0.2,0.7-0.4,1.5,0.6,1.9c0.6,0.3,1.1,1.2,1.9,0.4c0.2,0.5,0.4,0.9,0.6,1.2c-0.1,0.1-0.3,0.3-0.4,0.4
					c0.2,0.1,0.4,0.4,0.6,0.4c0.4,0,0.7,0,1.1-0.1c0.5,0,0.9,0,1.4-0.1c0.2,0,0.5-0.2,0.7-0.3c-0.1-0.2-0.2-0.6-0.4-0.7
					c-0.8-0.8-1.4-0.8-2-1c-0.2-0.1-0.6-0.3-0.6-0.5c-0.2-1.1-0.4-1.1-1.6-1c-0.1-0.6-0.1-1.2-0.2-1.8c-0.2,0-0.4,0-0.7,0.1
					c0.3-0.7,0.5-1.4,0.7-2c0.2-0.5,0.1-0.9-0.4-0.9c0.1-1.1,0.1-2.2,0.3-3.2c0-0.2,0.3-0.4,0.5-0.6c0.3-0.2,0.9-0.3,1.1-0.6
					c0.2-0.3,0.1-1-0.2-1.2c-0.3-0.3-0.9-0.2-1.4-0.3c-0.1-1-0.7-2-0.2-3.2c0.1-0.1,0.1-0.2,0.2-0.4c0.1-0.3,0.4-0.6,0.3-0.9
					c-0.1-0.2-0.5-0.4-0.8-0.4c-0.2,0-0.4,0.4-0.5,0.6c-0.7-1.4-1.5-2.8-2.3-4.3c-0.2-0.4-0.2-0.7,0.1-1c0.2-0.2,0.4-0.6,0.5-0.9
					c-0.3-0.1-0.7-0.3-1-0.4c-0.1,0-0.1,0-0.2-0.1c0-0.3-0.1-0.6-0.1-1c-0.3,0.1-0.4,0.2-0.7,0.2c0-0.1,0.1-0.2,0.1-0.2
					c0.5-0.4,1-0.7,1.4-1.1c0.2-0.2,0.5-0.7,0.4-0.9C184,3.3,183.5,3,183.2,3c-0.5,0.1-1,0.3-1.5,0.5c-0.1,0-0.3,0.1-0.4,0.1
					c-0.2-0.3-0.5-0.6-0.8-1c0.6-0.3,1.4-0.5,1.6-1.2c-0.5-0.4-0.9-0.8-1.3-1c-0.3-0.2-0.8-0.2-1.3-0.3c0.4-0.6,0-1-0.4-1.5
					c-0.4-0.5-0.6-1-0.8-1.4c0.4-0.3,1-0.6,0.9-0.8c-0.1-0.4-0.4-0.8-0.7-1.2c-0.2-0.2-0.5-0.3-0.7-0.5c-0.6-0.5-0.5-1,0.2-1.4
					c0.6-0.3,0.6-0.7,0.3-1.1c-0.3-0.5-0.6-0.9-0.9-1.3c1.5-0.9,1.6-1.9,0.1-2.7c0-0.3,0.1-0.6,0.1-0.9c0,0.1,0.1,0.1,0.1,0.2
					c0.4-0.3,1-0.5,1.3-0.9c0.1-0.2-0.1-0.7-0.2-1.1c0,0,0.2-0.1,0.3-0.3c0.3-0.4,0.1-0.8-0.3-0.9c-0.3,0-0.6,0-0.8,0.2
					c-2.1,1.2-4.4,1.7-6.6,2.5c-2.7,0.9-4.4,2.8-6,5c-0.6,0.8-1.2,1.3-2.2,1.4c-0.4,0-0.8-0.1-1.1-0.3c-0.6-0.3-1.2-0.6-2-0.3
					c-0.1,0.1-0.3,0-0.4-0.1c-0.9-0.7-1.5-1.5-1.5-2.7c0-0.2,0-0.4,0-0.5c-0.1-0.2-0.3-0.4-0.4-0.4s-0.4,0.2-0.5,0.3
					c-0.1,0.6-0.2,1.2,0,1.7c0.5,1,1.1,1.9,1.7,2.8c0.1,0,0.1-0.1,0.2-0.1c-0.1,0.4-0.3,0.7-0.5,1.2c-0.7-0.8-1.3-1.5-1.9-2.3
					c-0.2-0.3-0.5-0.7-0.9-0.3c-0.2,0.2-0.2,0.7,0,1c0.8,1,1.6,1.9,2.4,2.8c-1.4,0.1-3.7-1.2-4.2-2.6c-0.1-0.2-0.4-0.3-0.5-0.5
					c-0.1,0.2-0.4,0.4-0.3,0.6c0,0.4,0.1,0.9,0.4,1.3c0.8,1.3,3.6,2.3,5,1.9c0.4,0.3,0.8,0.5,1.2,0.8c0.2,0.2,0.3,0.5,0.4,0.7
					c0,0.1-0.3,0.3-0.5,0.4c-2.5,0.9-4.7,0.5-6.6-1.5c-1-1.1-2.3-1.6-3.5-2.3c-0.5-0.2-0.8,0.1-0.6,0.4c0.2,0.4,0.6,0.9,1.1,1.1
					c1.1,0.6,2.1,1.4,2.9,2.4c0,0.1-0.1,0.1-0.1,0.2c-1.8-0.9-3.5-1.8-5.3-2.7c0.6-1,0.2-2-0.9-2.1c-0.7-0.1-0.5-0.7-0.8-1.1
					c0.3-0.2,0.5-0.4,0.8-0.4c0.8-0.1,1.5,0.2,2.1,0.7c1.6,1.1,3.2,2.2,4.8,3.2c0.3,0.2,0.7,0.2,1,0.3c0.1-0.1,0.1-0.2,0.2-0.3
					c-0.3-0.3-0.5-0.6-0.9-0.9c-1.6-1.2-3.3-2.5-4.9-3.6c-0.9-0.6-2-0.9-3.1-0.5c-1.2,0.3-1.5,1.1-0.9,2.1c0.1,0.2,0.3,0.5,0.4,0.8
					c-0.9-0.3-1.8-0.6-2.6,0.3c-0.3,0.4-0.2,0.7,0.1,1.2c0.7-0.7,1.2-0.8,2.1,0c1.8,1.5,3.8,2.6,5.9,3.6c1.2,0.6,2.5,1,3.7,1.6
					c0.4,0.2,0.8,0.4,1.4,0.8c-0.6,0.3-1,0.6-1.4,0.6c-0.9-0.1-1.8-0.3-2.6-0.6c-0.7-0.2-1.4-0.6-2.1-0.9c-0.6-0.3-1.2-0.5-1.6-1
					c-1.1-1.1-2.5-1.5-3.8-2.1c-0.2-0.1-0.5-0.1-0.8,0c-1.7,0.4-2.9,3.4-1.9,4.8c0.2,0.3,0.5,0.6,0.9,0.7c0.3,0.1,0.7,0,1.2,0
					c-0.5-0.6-0.9-1.1-1.2-1.6c-0.4-0.7,0.5-2.5,1.3-2.7c0.1,0,0.2,0,0.3,0c1,0.5,2.1,1,3.1,1.7c0.8,0.6,1.5,1.1,2.5,1.3
					c0.5,0.1,1,0.3,1.4,0.5c1,0.7,2.1,0.8,3.2,0.8c0.8,0,1.5-0.2,2.2-0.7c0.5-0.4,1.2-0.7,1.8-1.1c0.1,0.1,0.1,0.1,0.2,0.2
					c-0.1,0.3-0.3,0.7-0.3,1c0,0.2,0,0.3,0.1,0.5s0.1,0.3,0.2,0.5c0.1-0.1,0.2-0.1,0.3-0.2c0.2-0.1,0.4-0.2,0.4-0.4
					c0.4-0.9,0.7-1.7,1.6-2.3c0.1,1.1,0.1,2-1,2.6c-1.5,0.9-3,1.9-4.5,2.9c-0.2,0.1-0.3,0.4-0.4,0.7c0.2,0.1,0.5,0.3,0.7,0.3
					c0.7,0,1.4,0.8,1.4,1.6c0,0.8,0.1,1.6,0.2,2.5c0.1,0.6,0.2,0.6,0.9,0.7C158,9.7,158,7.2,161,6c0,0.7-0.1,1.3-0.1,1.9
					c0,1.6,0.9,2.7,2.4,3.4c1.8,0.8,3.1,2.1,3.4,4.2c0.1,0.5,0,1.3,0.9,0.7c0.1-0.1,0.3,0.1,0.7,0.1c-0.1-0.4-0.2-0.9-0.4-1.3
					c-0.8-2-2.3-3.6-4.2-4.7c-1.3-0.7-1.7-1.8-1.6-3.2c0.1-0.7,0-1.5-0.1-2.2c0-0.5,0-1,0.4-1.4c0.5-0.5,0.9-1.2,1.4-1.8
					c0.3,0.7,0.4,1.4,0.8,2c0.2,0.3,0.6,0.7,0.9,0.6c0.6-0.1,0.4-0.6,0.3-1c-0.3-0.9-0.6-1.8-0.9-2.7c0.3-0.2,0.6-0.5,0.9-0.8
					c1,1.6,1.2,3.3,0.8,5.1c-0.1,0.3-0.1,0.5-0.1,0.8c0,0.2,0.2,0.4,0.3,0.7c0.2-0.1,0.6-0.2,0.6-0.4c0.2-1,0.6-2.1,0.6-3.2
					c0-1.8-1-3.3-1.9-4.9c-0.3-0.5-0.6-0.9-0.9-1.4c0.4-0.1,0.7-0.2,1.1-0.3c0.4,1,1.2,1.4,2.1,1.7c0.7,0.2,0.9,0.7,0.9,1.3
					s0,1.2,0,1.8c0,0.5,0,1,0.2,1.4c0.1,0.2,0.4,0.3,0.6,0.5c0,0,0.1,0,0.1,0.1V2.9V2.8c0-0.1,0.1-0.1,0.1-0.2
					c0-0.1,0.1-0.2,0.1-0.3c0.1-1.1,0.1-2.2,0.1-3.2c0-1.2-0.7-1.9-1.8-2.3c-1.4-0.5-1.9-1.3-1.6-2.9c0-0.2,0-0.4,0-0.7
					c0-0.8,0.3-1.5,1-2.2c-0.2,1.3-0.1,2.5,0.6,3.5c0.5,0.8,1.1,1.5,1.7,2.3c1.1,1.4,2.1,2.9,2.1,4.8c0.1,1.7-0.2,3.2-1.9,4.1
					c-0.5,0.3-1,0.7-1.5,1c-0.9,0.6-1.6,2.6-1.3,3.7c0.5,1.7,1.2,3.4,2.4,4.8c0.8,0.9,1.3,1.9,1.4,3.1c0,1.3-1.5,3.4-2.7,3.7
					c-0.2,0.1-0.4,0.1-0.6,0c-0.9-0.3-1.8-0.7-2.7-1.1c-0.4-0.1-0.7-0.4-1.1-0.4c-0.6-0.1-1.3,0.2-1.8-0.4c-0.1-0.1-0.2,0-0.4,0
					c-0.7,0.2-1.5,0.4-2.1,0.7c-1.3,0.6-2,1.6-2.1,3c0,0.4,0,0.9-0.1,1.4c-0.6-1.3-1.7-1.5-2.9-1.7c-0.2,0-0.4-0.2-0.5-0.3
					c-1.2-2-2.3-4.1-3.4-6.1c0-0.1-0.1-0.2-0.1-0.3c-0.1-1.2-0.5-2.3-1.2-3.3c-0.3-0.4,0-1.3,0.2-2c-0.2-0.5-0.7-0.4-1-0.2
					c-0.6,0.4-1.4,0.9-1.8,1.5c-0.8,1.2-1.9,1.3-3.1,1.3c-1.2,0-1.8,0.7-1.4,1.8c0.1,0.4,0.3,0.5,0.7,0.4c0.6-0.2,1.2-0.4,1.7-0.6
					c0.1,0.1,0.2,0.2,0.3,0.3c-0.3,0.2-0.6,0.3-0.8,0.5c-1,1.1-1.9,2.1-2.8,3.3c-0.6,0.7-1.3,1.2-2.3,1.1c-0.4,0-0.8-0.1-1.1,0
					c-0.2,0.1-0.4,0.5-0.6,0.7c0.3,0.1,0.5,0.4,0.8,0.4c0.7,0,1.5-0.1,2.1-0.1c-0.3,0.8-0.8,1.4-1,2.2c-0.1,0.5-0.1,1,0.1,1.5
					c0.1,0.3,0.5,0.5,0.8,0.7c0.2-0.3,0.5-0.6,0.6-0.9c0.1-0.5,0.1-1,0.3-1.5c0.7,1.1,2,2,1.3,3.6c-0.1,0.1,0.1,0.4,0.2,0.5
					c0.2,0,0.5,0,0.6-0.1c0.2-0.4,0.4-0.8,0.4-1.1c-0.1-0.8-0.1-1.7-0.5-2.3c-1.4-2.2-0.5-3.7,1.3-5.1c-0.3,1.1-0.6,2.2-0.8,3.3
					c-0.2,1.4,0.3,2.6,1.3,3.5c0.3,0.3,0.7,0.4,1.1,0.5c0.1-2.2-1.5-4-0.7-6.1c0.4,1,0.9,1.7,1.9,2.1c0.3,0.1,0.4,0.7,0.4,1.1
					c0.1,0.8,0.2,1.5,1.1,1.8c0.2,0.1,0.3,0.3,0.6,0.5c0-0.5,0.6-1-0.1-1.5c-0.2-0.1-0.3-0.6-0.3-0.9c-0.2-0.8-0.2-1.5-0.8-2.1
					c-0.5-0.6-0.8-1.3-1.1-2.1c-0.1-0.3,0.2-0.7,0.4-1.2c0.2,0.4,0.3,0.7,0.4,0.9c0.6,1.7,1.3,3.3,2.4,4.7c0.4,0.5,0.6,1.2,0.7,1.9
					c0.3,1.2,1.2,1.7,2.2,1c-1.1-0.5-1-1.6-1.4-2.5c-0.2-0.5-0.5-0.9-0.8-1.3c-1.2-1.5-2-3.2-2.5-5.1c-0.1-0.4-0.1-0.7-0.1-1.1
					c0-0.2,0.3-0.5,0.4-0.4c0.3,0,0.7,0.2,0.8,0.3c0.4,2.4,2,4.2,3.1,6.3c0.5,1,1.3,1.6,2.1,2.3c0.2,0.2,0.5,0.2,0.8,0.3
					c0-0.3,0-0.5,0-0.7l0.1-0.1c0.3,0.4,0.6,0.8,0.9,1.3c0.2,0.3,0.3,0.6,0.4,0.9c0.4,0.6,0.6,0.6,1.1-0.1c0.3,0.7,0.6,1.3,0.9,1.9
					h0.1c-0.1-1.3-0.3-2.5-0.4-3.8c0.1,0,0.2,0,0.2,0c0.6,1.4,1.5,2.6,1.3,4.2c-0.2,1.5-1,2.6-2.3,3.1c-0.6,0.2-1.4,0.2-2.1,0.1
					c-0.4-0.1-0.7-0.6-1-1c-0.9-1.3-2-2.4-3.3-3.3s-2.8-0.8-4,0.2c-0.1,0.1-0.3,0.2-0.4,0.3c-1.9,1.3-2.1,2.1-1.2,4.4
					c0.4,1,1.1,1.8,1.7,2.7c0.5,0.7,1,1.3,1.4,2.1c0.3,0.6,0.3,1.1-0.4,1.5c-0.4,0.2-0.8,0.5-1.2,0.7c-2,1-2.8,3-1.8,5
					c0.4,0.9,0.9,1.8,0.6,2.9c-0.1,0.2-0.2,0.5-0.3,0.7c-2.1,2.3-4.5,3.7-7.7,3c-0.5-0.1-0.9-0.2-1.4-0.3c-1.2-0.2-2.2-0.7-3-1.7
					c-0.3-0.4-0.7-0.8-1.1-1.1c-0.6-0.6-0.7-2-0.5-2.7c0.6-2,1.6-4,1.3-6.3c-0.1-1.1-0.5-1.9-0.9-2.8c-0.6-1.3-0.9-2.8-0.1-4.3
					c0.4-0.8,0.8-1.6,1.2-2.2c0.3,0,0.5,0.1,0.6,0c0.6-0.5,1.3-0.6,2.1-0.7c0.9-0.1,1.8-0.3,2.7-0.4c0.3,0.7,0,1.2-0.7,1.4
					c-0.8,0.3-1.6,0.5-2.4,0.7c-0.7,0.2-1.5,0.3-1.6,1.3c0,0.1-0.2,0.2-0.3,0.4c-0.3,0.4-0.6,0.7-0.8,1.1c-0.1,0.2,0,0.5,0,0.7
					c0.2-0.1,0.5-0.2,0.6-0.4c0.9-1.4,2.2-2.2,3.9-2.3c0.4,0,0.8-0.1,1.2-0.2c0.1,0.3,0.1,0.6,0.2,0.9c0.1,0.2,0.2,0.5,0.3,0.5
					c0.6,0,0.6,0.5,0.6,0.9c0,0.7,0,1.5,0,2.3c-0.6-0.2-1.1-0.3-1.6-0.5c-0.4-0.1-0.9-0.2-1,0.4c-0.2,0.5,0.3,0.7,0.7,0.8
					c0.4,0.1,0.8,0.2,1.2,0.4c-0.7,0.5-1.4,0.9-2,1.3c-0.3,0.2-0.5,0.5-0.7,0.8c-0.1,0.2-0.1,0.5,0,0.7c0.1,0.1,0.5,0.2,0.6,0.1
					c0.7-0.4,1.3-0.7,1.9-1.2c0.1-0.1,0.1-0.4,0.1-0.7c1-0.3,1.4,0.2,1.1,1.8c-0.2-0.1-0.3-0.2-0.5-0.2c-0.4,0-0.9-0.1-1.2,0.1
					c-0.7,0.4-1.3,1-1.9,1.5c-0.4,0.4-0.8,0.8-1.2,1.2c0.2,0.2,0.5,0.5,0.9,0.7c0.1,0,0.4-0.1,0.4-0.3c0.3-1.5,1.6-1.7,2.7-2.2
					c0.1,0,0.6,0.3,0.5,0.4c0,0.3-0.2,0.6-0.4,0.8c-0.5,0.3-1.2,0.4-1.7,0.7c-0.1,0.1-0.2,0.2-0.2,0.3c0,0.1-0.1,0.2-0.1,0.2v0.1
					v0.1c0.1,0,0.1,0,0.2,0c0.2,0,0.4,0.1,0.6,0c0.5-0.1,0.9-0.4,1.3-0.6c0,1.4,0,2.8,0,4.3c0.8-0.5,0.8-1.4,1.2-2.1
					c-0.1,1-0.2,2-0.2,3c0,0.3,0.1,0.5,0.2,0.8c0.2-0.2,0.5-0.4,0.6-0.6c0.2-0.4,0.2-0.8,0.3-1.3c0.1,0,0.1,0,0.2,0.1
					c0.2,0.2,0.3,0.4,0.5,0.6c0-0.3,0.2-0.7,0.1-0.9c-0.4-0.5-0.3-1-0.3-1.6c-0.1-0.8-0.3-1.5-0.4-2.3c0-0.3,0.1-0.6,0.2-1.1
					c0.6,0.7,0.6,1.8,1.6,2.1c0-1-0.3-1.8-0.8-2.5c-1-1.2-1.3-2.5-1.2-4.1c0.5,0.6,1,1.3,1.5,1.8c0.7,0.8,0.8,0.6,1.6,0.1
					c1-0.5,0.6-1.2,0.6-1.9c-0.2-1.2-0.7-2.1-1.6-2.9c-0.8-0.7-1.6-1.4-2.2-2.2c-0.2-0.2-0.1-0.7-0.2-1.1c0.3,0,0.6,0,0.8,0
					s0.4,0.2,0.7,0.3c0.2,0.1,0.4,0,0.7,0c0-0.3,0-0.5-0.1-0.7c-0.1-0.2-0.3-0.3-0.4-0.3c-0.9-0.3-1.2-0.9-1.4-1.7
					c-0.1-0.4-0.2-0.9-0.8-0.9h-0.1c-0.4-1.4-1.2-0.4-1.9-0.3c-0.8,0.1-1.6,0.3-2.4,0.5c-0.7,0.2-1.5,0.4-2.2,0.6c0,0.1,0-0.1,0-0.2
					c-0.2-1.3-0.8-1.8-1.8-1.4c-1.3,0.4-2.3,0.1-3.4-0.6c-0.2-0.1-0.4-0.2-0.6-0.2c-0.9-0.3-1.3-0.9-1.7-1.8
					c-0.4-0.8,0.1-1.3,0.3-1.9c0.4-1.6,1.6-2.6,2.4-3.9c0.3-0.5,0.8-0.8,1.3-1.1c0.7-0.5,0.8-1.4,0-1.7c-0.6-0.2-0.8-0.6-1-1.1
					c-0.6-1.3-0.6-1.7,0.4-2.8c0.6-0.8,1.3-1.8,2.3-2.2c1.2-0.6,2.7-0.8,4-1s2.6,0,3.8-0.1c1.5-0.1,2.1-1.6,1.2-2.8
					c-0.4-0.6-1.1-1-1.6-1.6c-0.4-0.4-0.8-0.9-1-1.4c-0.4-1.2-0.7-2.5,0.5-3.5l0.1-0.1c1.1-1.1,0.9-2.4,0.4-3.6
					c-0.2-0.6-0.6-1.1-0.8-1.6c-0.5-1-0.2-1.8,0.8-2.3c0.5-0.3,1.1-0.6,1.6-0.8c0.9-0.3,1.9-0.7,2.9-0.7c2.2-0.1,4.3,0.3,6.3,1.3
					c0.9,0.4,1.7,0.2,2.5-0.4c0.7-0.6,1.4-1.2,2.1-1.9c0.2-0.2,0.4-0.6,0.3-0.8c-0.2-0.5,0.1-0.7,0.5-0.9c0.4-0.2,0.8-0.3,1.2-0.5
					c1-0.3,1.1-0.2,1.5,0.7c0.3,0.6,0.7,1.1,1.1,1.5c0.9,0.8,1.8,0.7,2.8-0.5c0.8-1,1.8-1.6,2.8-2.2c1.3-0.8,2.7-1.6,4-2.4
					c0,0,0.1,0,0.1-0.1c0.7-1.3,2-1.1,3.1-1.4c0.5-0.1,0.9-0.3,0.9-0.9c0.7,0,1.4,0.1,2.1,0.1c0.8,0,0.9-0.1,1-1
					c0.4,0,0.8,0.1,1.2,0.1c0.3,0,0.5-0.2,0.8-0.3c-0.2-0.2-0.3-0.5-0.5-0.6c-0.3-0.2-0.7-0.2-0.7-0.7c0-0.1-0.5-0.3-0.7-0.2
					c-1.3,0.1-2.7,0.2-4,0.4c-1,0.2-1.9,0.1-2.7-0.7c-0.5-0.5-1.1-0.9-1.7-1.2c-0.7-0.4-1.3-0.7-2.1-0.1c-0.2,0.2-0.5,0.2-0.9,0.3
					c0.1-0.3,0.1-0.5,0.3-0.9c-0.6,0.2-1,0.3-1.5,0.5c-0.7-0.8-1.1,0.1-1.6,0.4c-0.2-0.2-0.3-0.6-0.6-0.6c-0.3-0.1-0.6,0.1-0.9,0.2
					c-0.4,0.3-0.7,0.2-0.9-0.3c-0.3-0.7-0.8-0.9-1.5-0.7c-0.2,0-0.5-0.2-0.6-0.4c-0.1-0.8,0-1.5,0-2.3c0.1,0,0.2-0.1,0.3-0.1
					c0.2,0.3,0.4,0.6,0.7,0.8c0.4,0.5,0.9,1,1.3,1.4c0.1,0.1,0.2,0.1,0.4,0.1c1-0.1,2-0.3,2.9-0.2c0.6,0,1-0.2,1.3-0.6
					c0.4-0.3,0.7-0.7,1-1.1c0.1-0.2,0.6-0.4,0.1-0.7v-0.1c0.4-0.8,0.8-1.5,1.3-2.3c0.5,0.7,0.9,0.3,1.4,0s0.7-0.3,1.1,0.2
					c0.2,0.3,0.6,0.4,1,0.6c0.4,0.2,0.7,0.4,1.1,0.7c0.1,0.1,0.3,0.4,0.2,0.4c-0.8,0.6,0,1.1,0.2,1.5c0.2,0.4,0.8,0.5,0.9,1.1
					c0.1,0.7,1.6,0.9,2.3,0.5c0.3-0.2,0.9-0.3,0.9-0.9c0-0.1,0.4-0.2,0.5-0.3c0.9-0.5,1.9-0.9,2.6-1.6c0.8-0.8,1.3-1.8,1.8-2.8
					c0.4-0.8,0.7-1.7,1.1-2.6c0-0.1,0.1-0.2,0.2-0.3c0.8-0.9,0.7-1.7-0.3-2.4c-0.2-0.1-0.3-0.3-0.4-0.4c0.5-0.4,0.9-0.7,1.4-0.9
					c0.4-0.2,0.4-0.5,0.2-0.8c-0.2-0.2-0.5-0.2-0.7-0.2h-0.1c-0.9,0.3-1.1,0.1-1-0.9c0-0.3,0.1-0.6,0.2-0.9c0-0.1,0-0.2,0.1-0.4
					c0-0.1,0-0.3,0-0.4c-0.1,0-0.1,0-0.2,0.1c-0.2,0.1-0.4,0.1-0.6,0.2c-0.1-0.2-0.1-0.4-0.3-0.6c-0.1-0.2-0.3-0.6-0.4-0.6
					c-0.9-0.2-1.2-1-1.8-1.4c-1-0.7-2-1.4-3.1-2c-1-0.6-1.9-1.1-2.4-2.2c-0.5-0.9-0.3-1.4,0.3-2.2c0.5-0.6,0.9-1.1,1.6-1.4
					c0.3-0.1,0.5-0.7,0.5-1.1c0.3-1.8,2.1-2.5,3.6-1.8c1.8,0.9,3.5,1.9,5.3,2.9c0.4,0.2,0.7,0.6,0.9,1c0.7,1.1,1.5,2.2,2.1,3.4
					c0.2,0.3,0.2,0.7,0.1,1c-0.4,0.8-1,1.4-1.5,2.2c-0.2,0.3-0.7,0.5-0.3,0.9c0.1,0.1,0.7-0.1,0.9-0.4c0.6-0.7,1.2-1.4,1.8-2.2
					c0.3,0.7,0.6,1.3,0.9,2c0.1,0.1-0.1,0.4-0.3,0.5c-1.1,1.1-2.2,2.3-3.3,3.4c-0.2,0.2-0.2,0.5-0.2,0.7c0.3,0,0.6,0,0.8-0.1
					c0.5-0.2,0.9-0.5,1.4-0.8c0.2-0.1,0.5-0.1,0.6,0c0.1,0.2,0.3,0.5,0.2,0.7c-0.4,0.6-0.8,1.2-1.3,1.8c-0.2,0.2-0.5,0.4-0.6,0.6
					c-0.1,0.2-0.1,0.5-0.2,0.7c0.2,0,0.6,0,0.7-0.1c1.3-1,2.3-2.1,2.9-3.6c0.1-0.2,0.2-0.4,0.3-0.6c0.5,0.8,0.5,2.6,0,3.4
					c-0.4,0.7-0.7,1.5-1.3,2c-1,0.9-2.2,1.6-3.2,2.4c-0.2,0.2-0.3,0.5-0.5,0.7c0.3,0,0.7,0.2,0.9,0.1c1.2-0.7,2.3-1.4,3.5-2.1
					c-0.5,0.8-1,1.6-1.5,2.5c-0.7,1.5-2.2,2.2-3.5,3.1c-0.2,0.1-0.4,0.2-0.5,0.4c-0.1,0.1-0.2,0.4-0.2,0.5c0.1,0.2,0.3,0.3,0.5,0.3
					c0.4-0.1,0.8-0.2,1.1-0.4c0.7-0.4,1.4-0.9,2.1-1.4c-0.1,0.7-0.5,1.3-1.1,1.7c-0.8,0.5-1.5,1-2.3,1.5c-0.6,0.4-1,1.1-1.8,1.1
					c-0.1,0-0.2,0.3-0.3,0.5c0.2,0.1,0.4,0.3,0.6,0.3c0.9-0.2,1.8-0.4,2.6-0.6c0.2,0,0.3-0.1,0.5-0.2c0,1.6-1.2,1.8-2.2,2.2
					c-0.3,0.1-0.6,0.2-0.9,0.3c-0.1,0.1-0.2,0.3-0.2,0.4c0,0.1,0.2,0.3,0.4,0.3c0.6,0,1.2,0,1.9,0c-0.2,0.3-0.4,0.6-0.6,1
					c-0.5,1-0.5,1.9,0.1,2.8c0.5,0.8,0.9,1.8,1.3,2.7c0.5,1,1,2,2.4,2c0.6,0,1.3,0.3,1.3,1.2c0.1,0.8,0.5,1.2,1.3,1.1
					c0.9-0.1,1.8-0.1,2.6-0.5c0.6-0.3,1.1-1.1,1.5-1.7c0.4-0.5,0.6-1.1,0.9-1.7c0.9-1.5,0.9-2.9-0.1-4.4c-0.2-0.3-0.3-0.7-0.4-1
					c-0.2-2.1-0.3-4.1,1.2-5.8c0.4-0.4,0.8-0.8,1.3-1c0.7-0.4,1.5-0.9,2.3-1.2c0.6-0.2,1.3-0.2,2-0.2c0.1,0,0.3,0,0.3,0.1
					c0.3,0.6,1.2,0.8,1.3,1.7c0.1,0.9,1.1,1.6,1.9,1.4c0.7-0.1,1.2-0.9,1.1-1.8s-0.3-1.8-0.6-2.6c-0.9-2.6-0.6-4.9,1.1-7.2
					c1.3-1.6,2.9-2.4,4.8-2.7c1.1-0.2,2.2-0.5,3.3-0.8c0.7-0.2,1.4-0.5,2.2-0.6c0.9-0.1,1.3,0.5,1.7,1.1c0.5,0.8,0.7,1.6,0.8,2.4
					c0,0.1,0,0.2,0,0.4c0,0.1,0,0.1,0,0.2c0,0.1,0,0.1,0,0.2c0,0.1,0,0.2-0.1,0.3c0,0.1,0,0.2-0.1,0.3c0,0.1-0.1,0.2-0.1,0.2
					c-0.1,0.2-0.2,0.4-0.3,0.6l0,0c-0.2,0.4-0.5,0.8-0.8,1.2c-0.1,0.1-0.2,0.3-0.3,0.4c0,0.6-0.1,1.2,0,1.8c0,0.3,0.4,0.6,0.7,0.7
					c1.5,0.5,3.4-0.7,3.9-2.2c0.3-1,0.7-1.9,1-2.8c0.1-0.3,0-0.7,0-1.1c0.1-0.5,0.1-0.9,0.3-1.3c0.1-0.4,0.3-0.8,0.5-1.2
					c0.2-0.5,1.2-0.8,1.8-0.4c0.4,0.2,0.7,0.5,0.8,1c0.2,0.8,0.5,1.7,1.3,2.3c0.6,0.4,1.2,0.4,1.7,0c0.7-0.5,1.4-1.1,2.1-1.7
					c0.3-0.3,0.5-0.6,0.6-1c0.2-0.6,0.4-1.1,0.9-1.5c0.4-0.3,0.4-1,0.7-1.4c0.2-0.4,0.5-0.7,0.7-1c0.6-0.6,1.2-1.2,1.8-1.7
					c0.9-0.7,1.9-1.3,3.1-1.4c2.3-0.3,4.5,0.2,6.5,1.2c1,0.5,1.7,1.4,1.8,2.7c0,0.1,0,0.3,0.1,0.4c0.8,0.8,0.2,1.5,0.1,2.3
					c-0.1,0.9-0.5,1.5-1.3,1.9c-0.5,0.3-0.9,0.8-1.2,1.2c-0.7,1-1.4,2-2.1,3c-0.5,0.7-1.1,1.3-1.4,2c-0.3,0.9-0.4,1.9-0.2,2.8
					c0.2,0.9,1.1,1.6,2.1,1.5c1,0,2-0.2,2.8-0.6c1.2-0.6,2.4-1.4,3.4-2.3c2.6-2.1,4-1.9,7-0.5c0.4,0.2,0.7,0.4,1.1,0.6
					c2.4,1,3.9,2.8,4.8,5.2c0.3,0.7,0.2,1.4,0.2,2.1c0,0.8,0,1.6-0.4,2.3c-0.7,1.4-1.1,2.9-2.4,4c-0.5,0.4-0.6,0.9-0.5,1.5
					c0.2,0.6,0.2,1.4,0.6,1.9c0.5,0.5,1.3,0.7,1.9,1.1c0.1,0,0.2,0,0.2,0c0.1,0.6,0.3,1.2,0.3,1.8c0,0.9-0.2,1.8-0.2,2.6
					s0.1,1.7,0.2,2.5c0.2,1.1,0.6,2.2,0.9,3.3c0.2,0.6,0.5,1.2,0.6,1.8c0.1,0.7,0,1.4,0,2.1C266.6,4,266.6,4.6,266.6,5.1z M196,24.4
					c-0.1-1.4-0.2-2.8-0.3-4.2c0-0.1,0-0.2-0.1-0.3c-1.1-3.1-2.2-6.2-3.3-9.2c-0.2-0.6-0.6-1.1-0.9-1.7c1.6-0.1,2.9,0.6,3.8,1.6
					c0.8,0.8,1.2,2.1,1.2,3.3c0,1.1,0.1,2.3,0.3,3.4c0.4,1.6,1.2,2.9,2.8,3.7c-1.8,2.8-3.8,5.5-4.2,9c-0.5-0.5-0.7-0.9-0.3-1.6
					C195.7,27.1,196.1,25.8,196,24.4z M177.8,50.8c0.1,0,0.2,0,0.2,0c0.3,0.8,1.3,0.8,1.7,1.3c0.4,0.6,0.4,1.4,0.5,2.2
					c0.1,0.5,0.1,0.9,0.1,1.4c-0.6,0.1-1.1,0.1-1.7,0.2c0.1-0.4,0.2-0.8,0.1-1.1c-0.1-0.3-0.2-0.9-0.5-0.9c-0.5-0.1-1.2-0.7-1.6,0.2
					c-0.1,0.2-0.2,0.3-0.3,0.5c-0.4,0.8-1,0.9-1.8,0.5c-0.2-0.1-0.4-0.2-0.6-0.2c-1.3,0.3-2.7,0.6-3.4,2c-0.1,0.1-0.2,0.2-0.3,0.3
					c-0.2-0.4-0.5-0.9-0.7-1.3c0.2-0.4,0.4-0.7,0.7-1c0.1-0.2,0.4-0.3,0.6-0.4c0.5-0.3,1.1-0.5,1.6-0.8c0.3-0.2,0.2-0.7,0.3-1.1
					c0.4-0.1,0.7-0.1,1.1-0.3c0.6-0.3,1.3-0.6,1.9-1C176.3,50.8,177,50.8,177.8,50.8z M175.7,49.8c0.5-1,1.1-0.2,1.5-0.3
					c0,0.1,0,0.1,0,0.2C176.8,49.7,176.3,49.7,175.7,49.8z M142.1,34.3c1.4,1.2,2.5,2.5,2.7,4.4c-0.6-0.7-1.1-1.3-1.7-1.9
					c-0.4-0.4-0.7-0.8-1.2-1.1C141.4,35.2,141.4,34.6,142.1,34.3z"/>
				<path class="st0" d="M219.6-32.9c0-0.2,0-0.4-0.1-0.6c-0.1-0.8-1-1.7-1.9-1.8c-1.8-0.2-3.2,0.5-4.3,2c-1,1.3-1.6,2.8-2,4.4
					c-0.5,1.8-0.4,3.6-0.1,5.4c0.1,1,0.2,2,0.4,3.1c0,0.2,0,0.4,0,0.5c0.1,0.3,0.2,0.5,0.4,0.7c0.2-0.2,0.5-0.4,0.6-0.7
					c0.1-0.4,0.2-0.8,0.2-1.2c-0.1-1.7-0.2-3.4-0.3-5.1c-0.1-1.6,0.3-3.1,1-4.6c0.5-1.1,1.3-2.1,2.2-3c0.8-0.9,1.7-0.6,2.6-0.2
					c0.5,0.3,0.6,0.9,0.3,1.4c-0.3,0.4-0.1,0.8,0.4,0.8c0.2,0,0.4-0.1,0.6-0.2c0.1-0.1,0.2-0.3,0.3-0.4
					C219.7-32.5,219.6-32.7,219.6-32.9z"/>
				<path class="st0" d="M250.2-7.2c-0.1-0.1-0.2-0.1-0.3-0.2c-0.2-0.2-0.5-0.4-0.7-0.6l0,0l0,0l0,0l0,0l0,0l0,0
					c-0.2-0.1-0.5-0.2-0.7-0.3c-1.1-0.4-1.3-1.2-0.8-2.2c0.3-0.5,0.5-1,0.8-1.6c0.1,0,0.3,0,0.4-0.1c1-0.1,2.1-0.2,2.8-1.2l0,0
					c-0.3-0.6-0.5-0.8-0.9-0.7c-0.1,0-0.2,0.1-0.2,0.1c-0.1,0-0.2,0.1-0.3,0.2c-0.3,0.2-0.6,0.5-0.9,0.5c-1.3,0.2-2.6,0.3-3.9,0.3
					c-0.5,0-1.1-0.4-1.4-0.8c-0.5-0.5-0.7-1.3-1.1-1.9c-0.1-0.2-0.3-0.3-0.5-0.5c-0.1,0.2-0.4,0.5-0.3,0.7c0.1,0.7,0.3,1.4,0.6,2
					c0.6,0.8,1.4,1.5,2,2.3c0.1,0.1,0.2,0.3,0.2,0.5c-0.2,1.9,0.7,3.1,2.2,4c0.5,0.3,1,0.6,1.4,1c0.7,0.6,0.6,1.7,0,2.4
					c-0.7,0.8-0.9,1.7-0.6,2.6c0.1,0.3,0.5,0.7,0.7,0.7c0.5,0,0.4-0.5,0.4-0.8c0-0.5,0.1-0.8,0.5-1.1c0.6-0.5,1.2-1.2,1.5-1.9
					C251.9-4.8,251.2-6.5,250.2-7.2z"/>
				<path class="st0" d="M212.5,26.5c0.1-0.7,0.6-1.6-0.3-2.2c-0.2-0.2-0.4-0.4-0.6-0.7c-0.2,0.3-0.5,0.6-0.6,0.9
					c-0.1,0.8-0.1,1.7-0.2,2.5c-0.2,0.1-0.5,0.1-0.5,0.1c-0.3-0.3-0.5-0.6-0.8-0.9c-0.2,0.2-0.5,0.5-0.8,0.7
					c-0.1-0.1-0.2-0.2-0.4-0.4c-0.5,0.7-0.3,1.4,0,2c0.3,0.5,0.7,0.3,1,0h0.1c0.4,0,0.8,0,1.2,0c-0.1,0.9-0.1,1.8-0.2,2.7
					c0,0.3-0.2,0.5-0.4,0.8c-0.5-0.9-1-1.1-1.4-0.9s-0.9,1.3-0.6,1.6c0.2,0.2,0.7,0.2,1,0.2c0.9,0,1.8,0.2,2.8,0.3
					c0.2,0,0.5-0.3,0.7-0.4c0.3,0.1,0.5,0.1,0.8,0.1c0.2,0,0.5,0,0.6,0.1c0.8,0.7,1.2,0.7,1.7-0.2c0.2-0.4,0.3-1,1-1
					c0.1,0,0.2-0.2,0.2-0.3c0.1-0.9,0.1-1.8,0.1-2.7c0-0.2-0.3-0.4-0.5-0.6c-0.2,0.2-0.5,0.3-0.6,0.6c-0.1,0.2-0.1,0.6-0.2,0.9
					c-0.2,0.9-0.4,1.7-0.7,2.7c-1-0.9-1.8-1.7-3.3-1.2c0-0.9-0.1-1.7,0-2.5c0.1-0.5,0.4-0.9,1.1-0.6c0.4,0.2,0.7,0.4,1.1,0.6
					c0.2,0.1,0.5,0.1,0.8,0.1c0.1,0,0.2-0.3,0.2-0.4c0-0.4-1.1-1.3-1.6-1.3C212.7,27.4,212.4,27.2,212.5,26.5z"/>
				<path class="st0" d="M151.2,13c0.2,1.4,0.5,2.7,0.7,4.1c0.2,1.4,1.1,2.5,1.9,3.6c0.2,0.3,0.9,0.3,1.4,0.5c0-0.4,0.2-0.9,0.1-1.3
					c-0.2-0.7-0.5-1.3-0.8-2c-0.5-1.2-1-2.3-1.5-3.5c-0.3-0.8,0-1.5,0.5-2.3c0.4,0.8-0.1,2,1.4,2.1c-0.2-1.2-0.3-2.3-0.5-3.5
					c0.1,0,0.1,0,0.2-0.1c0.1,0.1,0.3,0.2,0.3,0.4c0.3,0.8,0.6,1.7,1,2.4c0.1,0.3,0.5,0.6,0.7,0.6c0.5-0.1,0.4-0.5,0.3-0.9
					c-0.4-1.1-0.8-2.2-1.2-3.4c-0.1-0.2-0.1-0.5-0.1-0.7c0.1-0.6,0-0.7-0.7-0.7C153.3,8.6,151,11.3,151.2,13z"/>
				<path class="st0" d="M189.4,41.5c-0.2,0.2-0.4,0.4-0.6,0.5c-0.3,0.1-0.7,0.2-0.9,0.2c-0.4-0.6-0.8-1.2-1.2-1.7
					c-0.3-0.4-0.7-0.5-1.1-0.2c-0.4,0.3-0.2,0.7,0.1,1s0.5,0.6,0.8,1c-0.8,0.4-1.5,0.6-2.2,0.9c-0.5,0.2-0.6,0.8-0.1,1.1
					c0.6,0.4,1.3,0.6,1.9,0.9c0.2,0.1,0.5,0,0.6-0.1c0.5-0.4,1-0.8,1.5-1.3c0.2,0.1,0.4,0.2,0.5,0.3c-0.1,0-0.1,0.1-0.2,0.1
					c0.2,0.4,0.3,0.9,0.5,1.3c0.1,0.5,0.3,1.1,0.3,1.6c-0.1,0.9,0.4,1.6,1.3,1.3c0.7-0.3,1.3-0.8,1.8-1.3c0.2-0.2,0-0.7,0-1.1
					c-0.3,0-0.7,0-1,0c-0.3,0.1-0.5,0.3-0.7,0.5c-0.3-0.7-0.5-1.3-0.8-1.9c0-0.1,0-0.3,0-0.3c0.4-0.6,0.3-1-0.3-1.4
					c0.3-0.3,0.5-0.6,0.8-1c1.8,1.6,1.9,1.6,2.8,1c-0.1-0.1-0.1-0.3-0.2-0.4c-0.6-0.5-1.2-1-1.7-1.5
					C190.6,40.7,190.1,40.7,189.4,41.5z"/>
				<path class="st0" d="M184.6,38.7c0,0.1,0,0.2,0,0.3c0,0.7,0.3,0.9,1,0.9c0.6,0,0.9-0.4,0.9-1c0-0.2,0-0.4,0-0.6
					c-0.2-0.8,0.2-1.3,0.9-1.6c0.3,0.1,0.8,0.1,0.9,0.4c0.4,0.5,0.7,1.1,1,1.6c0.1,0.2,0.5,0.4,0.6,0.3c0.2-0.1,0.4-0.4,0.4-0.6
					c0-0.3-0.1-0.7-0.3-1c-0.4-0.5-0.3-0.9,0.1-1.4c0.5-0.5,0.2-0.9-0.4-1.1c-0.6-0.1-1.2-0.5-1.5,0.4c0,0.1-0.3,0-0.5,0
					c-0.6,0.1-1.3,0-1.8,0.3c-0.6,0.3-1,0.1-1.5,0c-0.3-0.1-0.6-0.4-1-0.5c-0.3,0-0.6,0.1-0.8,0.2c0.1,0.3,0.1,0.5,0.2,0.8
					c0.1,0.2,0.4,0.4,0.6,0.5c-0.5,0.4-1,0.7-1.4,1.1c-0.8-0.4-0.9-0.3-1.3,0.5c-0.1,0.3-0.4,0.6-0.5,0.9c-0.1,0.2,0,0.5-0.1,0.8
					c0.3-0.1,0.6-0.1,0.7-0.2c0.2-0.3,0.4-0.6,0.6-1c0.8,0.4,1.4-0.2,2-0.8C183.5,38.7,183.8,39,184.6,38.7z"/>
				<path class="st0" d="M251-8.1c0.1,0,0.1,0,0.2-0.1c0.1,0,0.1-0.1,0.2-0.1c1.4-0.9,2.9-1.2,4.4-1.6c0.9-0.2,1.8-0.6,2.4-1.4
					c-1-0.5-1.7,0.3-2.5,0.4c-0.8,0.1-1.7,0.3-2.6,0.5c1.2-1.3,2.3-2.4,3.9-2.8c0.1,0,0.2-0.1,0.2-0.1c0.1-0.2,0.3-0.5,0.3-0.7
					s-0.4-0.4-0.6-0.4c-0.6,0.1-1.4,0.1-1.9,0.4c-1.4,0.9-2.8,1.9-4.2,2.8c-0.2,0.1-0.5,0.2-0.7,0.2c-1,0.2-1.5,0.6-1.7,1.3
					c-0.1,0.4,0,0.7,0.2,1c0,0.1,0.1,0.1,0.2,0.2c0.1,0.1,0.2,0.2,0.2,0.2l0.1,0.1l0,0l0,0C249.8-8.1,250.5-8,251-8.1z"/>
				<path class="st0" d="M213.6,20.2c0.6,0,1.4,0.1,1.8-0.3c0.9-0.8,1.8-0.7,2.7-0.3h0.1c0.9,0.1,1.7,0.2,2.6,0.3
					c-0.2,0.5-1.2,0.5-0.8,1.3c0.1,0.1,0.6,0.1,0.8,0.1c0.1,0.1,0.2,0.2,0.3,0.3c0.1,0.1,0.2,0.2,0.3,0.3l0,0
					c0.1-0.1,0.1-0.2,0.2-0.3c0.2-0.3,0.4-0.7,0.6-1c0.3,0,0.8,0.1,1-0.1c0.5-0.4,0.1-0.9-0.3-1.2c-0.5-0.4-1-0.8-1.5-1
					c-0.7-0.3-1-0.8-0.7-1.6c0.1-0.3,0.2-0.6,0.1-0.9c-0.1-0.3-0.4-0.6-0.6-0.6s-0.6,0.2-0.7,0.5c-0.2,0.4-0.2,0.8-0.3,1.2
					c-0.2,1-1.1,1.4-1.9,0.7c-0.4-0.4-0.9-0.4-1.2,0.1c-0.4,0.6-1,0.7-1.7,0.8c-0.4,0.1-0.8,0.2-1.1,0.4c-0.2,0.1-0.3,0.6-0.2,0.8
					C213.1,19.9,213.4,20.2,213.6,20.2z"/>
				<path class="st0" d="M221.9,27.5c-0.1-0.1-0.1-0.2-0.1-0.3c-0.2-0.8-0.7-1-1.4-0.9c-0.6,0.1-1.3,0-1.8,0.4
					c-0.1,0-0.3-0.1-0.4-0.1c-0.4,0-0.8-0.1-1.1,0.1c-0.2,0.1-0.3,0.4-0.4,0.7c0.2,0.1,0.4,0.2,0.7,0.3c0.2,0.1,0.5,0.1,0.8,0.2
					c0.4,0.1,0.8,0.2,1.1,0.3c0.3,0.2,0.6,0.5,0.9,0.8c0,0.2-0.2,0.5,0,0.7c0.6,0.8,0,1.7,0.2,2.4c-0.4,0-0.7-0.1-1-0.1
					s-0.7,0.2-1,0.3c-0.2,0.1-0.4,0.3-0.6,0.5c0.2,0.1,0.4,0.3,0.6,0.4c0.5,0,1-0.1,1.4,0c1,0.1,1.4-0.1,1.6-1.1
					c0.1-0.5,0.2-1.1,0.3-1.6c0-0.2,0.1-0.4,0.3-0.5c0.3-0.3,0.7-0.5,1.1-0.8c0.9,0.5,1.3,0.4,2.2-0.1c0.1-0.1,0.3-0.1,0.5-0.2
					c0.2-0.1,0.5-0.2,0.6-0.3c0.1-0.2,0-0.6-0.2-0.7c-0.1-0.1-0.5-0.2-0.7-0.1c-0.2,0-0.4,0.2-0.6,0.4
					C224.1,28.3,222.2,28,221.9,27.5z"/>
				<path class="st0" d="M257.1,5.7c0-0.1,0-0.3-0.1-0.4c-0.3-0.5-0.7-1-0.5-1.7c0-0.1-0.1-0.2-0.1-0.2c-0.6-0.7-1.3-1.3-2-2.1
					c0.7-2,2.9-2.5,4.5-3.7c-0.3-0.6-0.7-0.6-1.1-0.4c-1.1,0.6-2.3,1.1-3.2,1.8c-0.6,0.5-1,1.3-1.3,2c-0.4,1.1,0,1.8,1.3,2
					c-0.3,0.2-0.6,0.4-0.8,0.6c-0.4,0.4-0.6,0.9-0.3,1.4c0.4,0.6,0.9,0.6,1.5,0.4c0.1,0,0.2-0.1,0.3-0.2c0.2,0,0.4-0.1,0.5,0
					s0.2,0.4,0.2,0.6c0,0.2-0.2,0.4-0.2,0.5c-0.4,1,0.3,2,1.4,1.8c0.2,0,0.4-0.6,0.4-0.6C256.7,7.1,257,6.4,257.1,5.7z"/>
				<path class="st0" d="M179.1,39c-0.2-0.3-0.6-0.4-0.9-0.5c-0.2-0.1-0.5-0.2-0.7-0.3c-0.2-0.1-0.3-0.1-0.5-0.2
					c-0.1,0.2-0.2,0.4-0.2,0.5c0.1,0.4,0.3,0.7,0.5,0.9c-0.1,0.6-0.1,1-0.1,1.2c-0.7,0.5-1.4,0.9-1.9,1.4c-0.6,0.6-1.2,1.1-1.4,2
					c0,0.2-0.4,0.4-0.6,0.6c-0.2,0.2-0.4,0.4-0.5,0.7c-0.1,0.1,0,0.3-0.1,0.3c-0.9,0.3-0.3,0.8-0.2,1.2c0.2,0.4,0.6,0.4,0.9,0
					c0.4-0.7,0.9-1.5,1.3-2.2c0.7-1.2,0.7-1.1,2-0.6c0.4,0.2,1,0,1.5-0.1c-0.1-0.5-0.2-0.9-0.3-1.3c-0.1-0.2-0.3-0.4-0.3-0.5
					c0.4-0.5,0.6-0.9,0.8-1.1c0.5,0.5,1,0.9,1.5,1.3c0.2,0.1,0.6,0,0.8-0.2c0.1-0.1,0-0.6-0.1-0.8C180.1,40.5,179.6,39.7,179.1,39z"
					/>
				<path class="st0" d="M255.3-2.5c0.6-0.4,1.2-1,1.7-1.6c0.3-0.4,0.5-0.4,1-0.4c0.9,0.1,1.8,0,2.7,0c0-0.1,0-0.2,0-0.3
					c-1.1-0.5-2.1-1.1-3.3-1.1c-0.4,0-1,0.4-1.2,0.8c-0.5,0.9-1.3,1.5-2.2,2c-0.2,0.1-0.4,0.4-0.5,0.6c-0.4,0.5-0.6,1.1-1.1,1.3
					c-0.2,0.1-0.6,0.1-0.8,0.4c-1,1.2-1.2,4.5-0.5,5.9c0.1,0.2,0.4,0.3,0.6,0.4c0.1-0.2,0.2-0.4,0.2-0.7c0-0.9-0.2-1.8,0.1-2.6
					C252.4,0.3,253.5-1.4,255.3-2.5z"/>
				<path class="st0" d="M223.4,24c-1-0.5-2-1.3-3.3-0.9c-0.7,0.2-1.3,0.1-1.8-0.7c-0.2-0.4-0.7-0.6-1-0.9c-0.1,0-0.1,0.1-0.2,0.1
					c0-0.4,0-0.7,0-1.1c-0.1,0-0.2,0-0.4-0.1c-0.1,0.5-0.2,0.9-0.4,1.4c-0.1,0.2-0.2,0.5-0.5,0.6c-0.1,0.1-0.4-0.2-0.6-0.4
					c-0.6-0.7-1.2-0.8-1.7-0.1c-0.2,0.2-0.3,0.7-0.2,1c0.3,0.4,0.6,0.1,0.9-0.1h0.1c0.4,0.5,0.8,1,1.2,1.5c0.1,0,0.1-0.1,0.2-0.1
					c0.1,0.4,0.1,0.8,0.2,1.2c0.1,0.2,0.4,0.4,0.6,0.6c0.2-0.2,0.4-0.4,0.5-0.6c0.2-0.4,0.2-0.8,0.3-1.2c0.1-0.4,0.4-0.5,0.8-0.4
					c0.6,0.2,1.1,0.3,1.7,0.4c1,0.2,1.9,0.4,2.9,0.5c0.2,0,0.5-0.1,0.7-0.3C223.6,24.5,223.5,24,223.4,24z"/>
				<path class="st0" d="M144.6,11.7c-1.8-0.1-3.5-0.4-5.3-0.5c-2.6-0.2-4.7,0.9-6.2,3.1c-0.1,0.2,0,0.5-0.1,0.7
					c0.2-0.1,0.5-0.1,0.6-0.2c0.7-0.4,1.4-0.9,2.1-1.3c1.7-0.8,3.5-1.4,5.5-1.1c1.3,0.2,2.6,0.1,3.9,0c0.5,0,1.1-0.2,0.9-1
					C145.6,11.6,145.1,11.7,144.6,11.7z"/>
				<path class="st0" d="M171.6,90.8c-0.7-0.5-0.8-1.3-1.1-2c-0.1-0.2-0.1-0.4-0.2-0.5c-0.6-0.4-0.6-0.9-0.4-1.6
					c0-0.3,0-0.9-0.2-1.2c-0.8-1.2-1.3-2.6-1.7-4c-0.1-0.4-0.2-0.8-0.4-1.1c-0.1-0.2-0.4-0.3-0.6-0.4c-0.1,0.2-0.3,0.5-0.2,0.7
					c0.1,0.5,0.3,0.9,0.3,1.4c0,1.3,0.7,2.4,1.2,3.5c0.3,0.5,0.4,1,0.4,1.6c-0.1,0.8,0,1.4,0.7,1.9c0.2,0.1,0.3,0.4,0.3,0.6
					c0.1,0.8,0.6,1.5,1.2,2c0.3,0.2,0.7,0.3,1,0.5c0-0.4-0.1-0.8-0.1-1.2C171.7,90.9,171.6,90.9,171.6,90.8z"/>
				<path class="st0" d="M248.2-16.7c-0.5,0.4-1,0.6-0.7,1.4c0.4-0.1,0.8-0.2,1.1-0.5c1.3-1.1,2.6-2.1,3.8-3.3
					c1.1-1.1,3.2-1.8,4.8-1.2c0.3,0.1,0.6,0,0.9,0c0.1,0,0.3-0.2,0.3-0.3s-0.1-0.2-0.2-0.3c-1.2-0.8-2.5-0.9-3.8-0.5
					c-0.7,0.2-1.4,0.6-1.9,1C251.2-19.2,249.7-17.9,248.2-16.7z"/>
				<path class="st0" d="M246.1-17.3c0.3-0.3,0.6-0.8,0.9-1.2c1.3-1.9,2.8-3.4,5.3-3.6c1-0.1,1.5-0.8,2-1.6c0.2-0.4,0-0.7-0.5-0.7
					c-0.1,0-0.3,0-0.4,0.1c-1.8,0.7-3.6,1.2-4.9,2.7c-1.1,1.2-2.1,2.5-3.1,3.8c-0.1,0.2,0,0.5,0,0.7
					C245.6-17.2,245.9-17.2,246.1-17.3z"/>
				<path class="st0" d="M163.8,15.1c-0.3,0.2-0.5,0.4-0.8,0.4c-0.7,0-1,0.5-1,1c-0.1,0.6-0.1,1.2,0,1.8c0,0.5,0.1,1.1,0.8,1
					s0.4-0.7,0.3-1.2c-0.3-0.9-0.1-1.5,0.7-2c0.1-0.1,0.2-0.3,0.4-0.3c0.2-0.1,0.5-0.2,0.8-0.3c0.2-0.1,0.4-0.1,0.5-0.3
					c0-0.1-0.1-0.4-0.2-0.5c-0.2-0.2-0.5-0.4-0.8-0.7c-0.4-0.4-0.8-1-1.3-1.3c-1-0.5-1.6-1.3-2.2-2.2c-0.2-0.4-0.5-0.7-0.8-1
					c-0.1,0.2-0.2,0.2-0.3,0.2c0.1,0.3,0.1,0.7,0.2,0.9C160.9,12.5,162.2,13.8,163.8,15.1z"/>
				<path class="st0" d="M239.6,4.2c-0.1,0-0.1-0.1-0.2-0.1c-1.8-0.1-3.1-0.9-3.9-2.4c-0.6-1.1-1-2.4-1.5-3.6
					c-0.2-0.3-0.5-0.6-0.8-0.9c-0.1,0.4-0.4,0.8-0.3,1.1c0.2,2,1.1,3.8,2.5,5.3c0.8,0.8,1.7,1.4,2.9,1.4c0.4-0.1,0.8-0.2,1.3-0.4
					c0.1,0,0.1-0.1,0.2-0.2c0.1-0.1,0.1-0.2,0.2-0.2c0,0-0.1,0-0.1-0.1C239.7,4.3,239.6,4.3,239.6,4.2z"/>
				<path class="st0" d="M216.3-29.7c-0.3,0.1-0.5,0.3-0.8,0.6c-1.4,1.2-1.6,2.9-1.4,4.6c0.2,1.3,0.3,2.6-0.1,3.8
					c0,0.1-0.1,0.2-0.1,0.5c0.1,0.1,0.1,0.4,0.3,0.4c0.2,0,0.5,0,0.6-0.1c0.3-0.4,0.6-0.8,0.6-1.2c0.1-1.1,0.1-2.1,0-3.2
					c-0.2-1.5-0.1-2.9,1-4.1c0.1-0.2,0.3-0.3,0.4-0.5c0.2-0.4,0.2-0.6,0.2-0.9C216.8-29.8,216.5-29.8,216.3-29.7z"/>
				<path class="st0" d="M258.8-18c-1.3-0.8-3.3-0.6-4.4,0.4c-0.9,0.8-1.7,1.7-2.6,2.7c1.2,0.7,2.3,0.6,3.4-0.7
					c0.9-1,1.7-1.9,3.2-1.2h0.1c0.3-0.2,0.6-0.3,0.7-0.5C259.2-17.5,259-17.9,258.8-18z"/>
				<path class="st0" d="M207.5,24.4c0.4,0.2,1.1,0.5,1.5-0.1c0.1-0.1,0.2-0.2,0.3-0.2c0.7,0.1,0.9-0.4,1.2-0.9
					c0.2-0.4,0.4-0.7,0.6-1.1c1.1,0.6,1.7,0.2,1.7-0.7c-0.5-0.2-1-0.4-1.4-0.5c-0.3,0-0.7,0.1-0.9,0.2c-0.2,0.1-0.3,0.4-0.5,0.7
					c-0.3-0.5-0.7-0.6-1.1-0.2c-0.1,0.1-0.3,0.1-0.5,0.2c-0.9,0.1-1.3,0.8-1.3,1.6C207.2,23.7,207.3,24.3,207.5,24.4z"/>
				<path class="st0" d="M191.1,89.4c0.1,0,0.2-0.1,0.3-0.2c2-1.6,2.7-4.1,4.3-6c0,0,0,0,0-0.1c0.3-0.7,0.7-1.4,1-2.1
					c0.4-0.9,0.8-1.7,1.2-2.6c-0.1-0.2-0.2-0.4-0.3-0.6c-0.1,0.1-0.3,0.2-0.4,0.4c-0.6,1.1-1.1,2.2-1.6,3.3
					c-0.2,0.3-0.2,0.7-0.3,1.1c-0.1,0.2-0.1,0.5-0.3,0.7c-0.4,0.4-0.9,0.8-1.3,1.3c-0.9,1-1.7,2.1-2.5,3.2c-0.2,0.3-0.5,0.6-0.6,0.9
					c-0.1,0.2,0,0.5,0.1,0.6C190.6,89.5,190.9,89.4,191.1,89.4z"/>
				<path class="st0" d="M148.8,7.6c0.7,0.2,1.4,0.4,2.1,0.6c1-0.1,1.9-0.7,2.1-1.4c0.1-0.3,0.4-0.7,0.6-0.8c0.6-0.4,1.4-0.7,2-1.1
					c0.2-0.1,0.3-0.4,0.4-0.6c-0.3-0.1-0.6-0.2-0.8-0.2c-1.2,0.5-2.5,0.9-3.4,1.7c-1,0.9-1.8,1.2-2.9,0.8c-0.2-0.1-0.5,0.2-0.7,0.3
					C148.5,7.1,148.6,7.5,148.8,7.6z"/>
				<path class="st0" d="M255.6-23.3c0.5,0.1,1,0,1.5,0.1c1.8,0.4,3.8,0.3,4.5,2.6c0.1,0.4,0.6,0.4,0.8-0.1c0.4-0.7,0-2-0.7-2.3
					c-1.5-0.7-3.1-1.4-4.9-1.5c-0.5,0.2-1,0.3-1.5,0.5c-0.1,0-0.2,0.3-0.2,0.4C255.3-23.5,255.5-23.3,255.6-23.3z"/>
				<path class="st0" d="M141.8,16.8c-1.2,0.5-2.2,0-3.2-0.6c-0.9-0.5-1.9-0.7-2.9-0.1c-0.5,0.3-0.8,0.7-0.7,1.3
					c0.1,0.4,0.3,0.5,0.7,0.3c1.1-0.8,1.5-0.8,2.7-0.1c0.6,0.3,1.2,0.5,1.9,0.8c0.6-0.3,1.2-0.5,1.7-0.8c0.1-0.1,0.2-0.4,0.1-0.6
					C142.2,16.9,141.9,16.8,141.8,16.8z"/>
				<path class="st0" d="M139.8,19.1c-0.3-0.1-0.6-0.1-0.9-0.2c-0.2-0.1-0.5-0.1-0.6-0.2c-0.4-0.6-0.9-0.6-1.4-0.5
					c-0.8,0.1-1.5,0.2-2.3,0.4c-1.2,0.2-2,1.2-3,1.9c-0.2,0.2-0.3,0.5-0.4,0.8c0.9-0.5,1.7-1,2.6-1.4c1.1-0.4,2.2-0.7,3.5-0.3
					c0.8,0.3,1.6,0.2,2.5,0.2c0.1,0,0.4-0.2,0.4-0.3C140.1,19.4,140,19.1,139.8,19.1z"/>
				<path class="st0" d="M187.3,88.7c-1,0.8-2.1,1.4-3.2,2c-0.7,0.4-1.5,0.7-1.8,1.5c-0.1,0.2,0,0.4,0,0.7c0,0.1,0,0.2,0,0.2l0,0
					h0.1c0.3-0.1,0.5-0.1,0.8-0.3c0.5-0.3,1-0.7,1.5-1c0.3-0.2,0.6-0.4,0.9-0.7c0.3-0.3,0.6-0.6,0.9-0.8c1.4-0.8,1.9-2.2,2.8-3.4
					c0.1-0.1,0-0.2,0.1-0.5c-0.3,0.2-0.5,0.3-0.6,0.4C188.3,87.4,187.9,88.2,187.3,88.7z"/>
				<path class="st0" d="M196.1,67.5c0.6,0.4,1.4,0.4,1.6-0.1c0.3-0.7,0.5-1.5,0.8-2.4c-0.3-0.3-0.6-0.8-0.9-0.9
					c-0.2-0.1-0.7,0.2-0.9,0.5s-0.3,0.7-0.4,1.1c-0.1,0.2-0.1,0.5-0.2,0.7C195.6,66.8,195.6,67.1,196.1,67.5z"/>
				<path class="st0" d="M238.6-34.2c-1.3,1.8-1.8,3.3-1.3,4.1c1.2-1.8,2.4-3.6,3.8-5.6C239.8-35.7,239.1-35,238.6-34.2z"/>
				<path class="st0" d="M192.8,80.8c-0.1,0.3,0,0.7-0.1,1c0.2-0.2,0.6-0.4,0.7-0.6c0.7-1.3,1.2-2.6,2-3.8c0.6-0.9,0.6-1.9,0.8-2.8
					c-0.1,0-0.2-0.1-0.3-0.1c-0.2,0.4-0.4,0.8-0.6,1.2c-0.1,0.2-0.1,0.5-0.3,0.8C194.3,77.9,193.5,79.3,192.8,80.8z"/>
				<path class="st0" d="M173.4,78.9c-0.2-0.7-0.3-1.4-0.5-2.1c-0.1-0.2-0.3-0.4-0.4-0.6c-0.1,0-0.1,0-0.2,0.1
					c0,0.3-0.1,0.6-0.1,0.8c0.2,1,0.3,2,0.5,3c0.2,0.8,0.3,1.7,0.6,2.5c0.1,0.3,0.5,0.5,0.8,0.7c0-0.3,0.1-0.6,0-0.9
					C174,81.2,173.7,80,173.4,78.9z"/>
				<path class="st0" d="M223.9-5.7c-1.1,0.1-2.1,0.4-2.9,1.1c-0.6,0.6-1.1,1.2-1.3,2.1c0.1,0.1,0.1,0.1,0.2,0.2
					c0.3-0.3,0.7-0.5,1-0.8c0.9-0.8,1.9-1.3,3.1-1.5c0.4-0.1,0.9,0,0.8-0.6C224.8-5.7,224.3-5.8,223.9-5.7z"/>
				<path class="st0" d="M224.6,24.2c0.1,0.9,0.9,0.8,1.4,0.9c0.2,0,0.5-0.6,0.7-0.9c0.1-0.2,0.2-0.5,0.3-0.8
					c-0.5-0.4-1-0.8-1.5-1.1c-0.2-0.1-0.5-0.1-0.7,0c-0.8,0.4-0.9,1-0.4,1.7C224.6,24,224.6,24.1,224.6,24.2z"/>
				<path class="st0" d="M183.1,63c0.2-0.6,0.2-1.2,0.4-1.7c0.4-1,0.8-1.9,1.2-2.8c-0.1-0.3-0.2-0.5-0.3-0.6c-0.2-0.1-0.4,0-0.5,0.1
					c-0.2,0.3-0.4,0.6-0.4,0.9c0,0.7-0.2,1.3-0.7,1.9c-0.4,0.4-0.6,0.9-0.2,1.5c0.1,0.1,0,0.4,0,0.6c-0.1,0.3-0.3,0.5-0.4,0.8
					c-0.1,0.2,0,0.4,0,0.5c0.2,0,0.4,0,0.5-0.2C182.8,63.7,183,63.4,183.1,63z"/>
				<path class="st0" d="M192.8,72.7c-0.1,0.2,0.1,0.5,0.2,0.8c0.2-0.2,0.4-0.4,0.5-0.6c0.4-0.9,0.6-1.9,1-2.8
					c0.4-1,0.7-2.1,0.8-3.3c-0.1-0.2-0.3-0.4-0.4-0.6c-0.1,0.2-0.4,0.4-0.4,0.7c-0.1,1.2-0.3,2.4-0.9,3.5
					C193.2,71.2,193,72,192.8,72.7z"/>
				<path class="st0" d="M262.9,1.1c0.2-0.1,0.3-0.3,0.5-0.4c-0.2-0.2-0.3-0.4-0.5-0.5c-1.6-0.5-3.2-0.6-4.8-0.1
					c-0.2,0.1-0.4,0.3-0.4,0.4c0,0.2,0.2,0.4,0.4,0.4c0.2,0.1,0.4,0.1,0.8,0.1c1-0.5,2.2-0.3,3.3,0C262.4,1.3,262.6,1.2,262.9,1.1z"
					/>
				<path class="st0" d="M255.7-8.5c-0.6,0.4-1.1,0.5-1.7-0.1c-0.1-0.1-0.3-0.1-0.5-0.1c0,0.2-0.1,0.4,0,0.6
					c0.3,0.6,0.8,0.8,1.4,0.8c1,0,3.7-2,4-2.9c0,0,0,0,0-0.2c-0.3,0.1-0.6,0.2-0.8,0.3C257.2-9.6,256.5-9.1,255.7-8.5z"/>
				<path class="st0" d="M232.3,25.2c-0.9-0.3-1.8-0.6-2.4-1.4c-0.1-0.1-0.4-0.1-0.4,0c-0.2,0.5-0.4,1-0.6,1.6c0,0,0.4,0.2,0.7,0.3
					c0.1,0,0.3-0.2,0.4-0.3c0.8,0.8,1.8,1,2.9,1C233.3,25.6,232.7,25.4,232.3,25.2z"/>
				<path class="st0" d="M226.5-17.2c-0.2-0.1-0.5,0.1-0.7,0.1c0.1,0.2,0.2,0.4,0.4,0.6c0.7,0.7,1.4,1.3,2.1,2.1
					c0.5,0.6,0.9,1.2,1.5,2C229.9-14.2,228-16.8,226.5-17.2z"/>
				<path class="st0" d="M170,78.3c0.2,0,0.3-0.4,0.4-0.6c-0.3-1.2-0.5-2.2-0.8-3.2c-0.1-0.3-0.3-0.5-0.4-0.7
					c-0.2,0.2-0.5,0.5-0.5,0.7c0.1,1.1,0.3,2.2,0.5,3.3C169.3,78,169.7,78.3,170,78.3z"/>
				<path class="st0" d="M196.7,71.5c0.1,0.5,0,1.2,0.3,1.4c0.5,0.4,1.2,0.3,1.8-0.2c-0.3-1-0.8-1.7-1.8-2c-0.2-0.1-0.4-0.3-0.6-0.3
					c-0.2,0-0.5,0-0.7,0c0.1,0.3,0,0.6,0.2,0.7C196.1,71.4,196.4,71.5,196.7,71.5z"/>
				<path class="st0" d="M141.2,9.8c1.8-1.2,3.5-2.2,5.6-2.3c0.1,0,0.1-0.1,0.2-0.1c0.1-0.1,0.1-0.1,0.2-0.2
					c-0.1-0.1-0.1-0.2-0.2-0.3s-0.1-0.2-0.2-0.2c-0.5,0-1.1,0-1.6,0.1C143.5,7.2,142.3,8.2,141.2,9.8z"/>
				<path class="st0" d="M208.8,20c0.1-0.1,0.1-0.2,0.2-0.3c0.7,0.7,1.2,0.2,1.7-0.3c0.2-0.2,0.2-0.5,0.3-0.7c-0.3,0-0.6,0-0.9,0
					c-0.1,0-0.2,0.1-0.3,0.2c-0.5-0.8-0.7-0.8-1.3-0.1c-0.1,0.1-0.2,0.2-0.3,0.3c-0.7,0.1-0.4,0.7-0.5,1.1c0,0.1,0.2,0.3,0.4,0.5
					C208.3,20.4,208.6,20.2,208.8,20z"/>
				<path class="st0" d="M264.8,2.9c-0.6-0.1-1.3,0-1.9,0.1c-0.3,0-0.6,0-0.9,0c-0.2,0-0.6,0-0.6,0.1c-0.1,0.2-0.1,0.7,0.1,0.7
					c0.4,0.2,0.9,0.3,1.3,0.3c0.6,0,1.1-0.2,1.7-0.3v0.1c0.1,0,0.2,0,0.2,0c0.3-0.1,0.6-0.2,0.9-0.3C265.3,3.3,265.1,2.9,264.8,2.9z
					"/>
				<path class="st0" d="M138.5,33.9c0-0.1,0-0.2-0.1-0.2c-0.1-0.1-0.3-0.2-0.4-0.2c-1.1-0.2-3,0.7-3.5,1.7
					c-0.1,0.2-0.1,0.4-0.1,0.6s0.2,0.4,0.3,0.4c0.1,0,0.4-0.1,0.5-0.2c0.6-1,1.5-1.4,2.6-1.7C138,34.2,138.2,34,138.5,33.9z"/>
				<path class="st0" d="M185.2,84.3c-0.4,0.5-0.7,1-1,1.5c-0.1,0.1,0.1,0.4,0.2,0.7c0.2-0.1,0.5-0.1,0.7-0.2c0.4-0.4,0.6-0.9,1-1.3
					c0.5-0.8,1.1-1.6,1.6-2.3c-0.1-0.1-0.2-0.2-0.3-0.2c-0.2,0.2-0.4,0.3-0.6,0.5C186.2,83.4,185.6,83.8,185.2,84.3z"/>
				<path class="st0" d="M136,20.9c-1.1-0.1-2.2,0.2-3.1,1c-0.2,0.2-0.4,0.6-0.6,0.8c0,0.1,0.1,0.1,0.1,0.2c0.3-0.1,0.5-0.2,0.8-0.2
					c1-0.3,1.9-0.5,2.9-0.8c0.2-0.1,0.4-0.3,0.6-0.4C136.4,21.2,136.2,20.9,136,20.9z"/>
				<path class="st0" d="M238.7-25.7c-0.4-0.3-0.8-0.2-1,0.3c-0.4,0.8-0.8,1.6-1.1,2.4c0.2,0.3,0.3,0.6,0.5,0.7
					c0.2,0,0.5-0.1,0.6-0.3c0.4-0.7,0.8-1.4,1.1-2.1C238.8-25.1,238.8-25.5,238.7-25.7z"/>
				<path class="st0" d="M178.8,59.1c-0.1,0-0.4,0-0.4,0.1c-0.5,0.7-1,1.4-1,2.3c0,0.5-0.2,1-0.3,1.5c-0.2,0.6-0.4,1.2-0.6,1.7
					c0.1,0.1,0.3,0.1,0.4,0.2c0.1-0.3,0.3-0.5,0.4-0.8c0.1-0.4,0.2-0.9,0.4-1.3c0.4-1,0.8-2.1,1.3-3.1c0-0.1,0.1-0.2,0-0.3
					C179,59.3,178.9,59.1,178.8,59.1z"/>
				<path class="st0" d="M210.4-9.5c-0.6-0.2-1.2-0.3-2-0.4c0,0.6,0.2,1.3,0.8,1.3c1.1,0,1.3,0.8,1.8,1.4c0.2,0.2,0.4,0.4,0.8,0.7
					c-0.2-0.7-0.3-1.2-0.4-1.7C211.4-8.9,211-9.3,210.4-9.5z"/>
				<path class="st0" d="M173,74.8c0-1.5,0-3,0-4.5c-0.1,0-0.2-0.1-0.4-0.1c-0.1,0.3-0.4,0.7-0.4,1c-0.1,1.2-0.1,2.3-0.1,3.5
					c0,0.2,0.2,0.4,0.4,0.6C172.7,75.1,173,75,173,74.8z"/>
				<path class="st0" d="M171.9,85.5c-0.5-1.4-1-2.9-1.5-4.3c-0.1-0.2-0.3-0.3-0.5-0.4c-0.1,0.1-0.2,0.1-0.3,0.2
					c0.1,0.3,0.3,0.6,0.4,1c0.1,0.2,0.2,0.4,0.3,0.6c0.2,0.6,0.3,1.1,0.4,1.7c0.2,0.8,0.4,1.6,0.6,2.4c0.1,0.3,0.1,0.6,0.2,0.9
					c0.1,0.1,0.3,0.1,0.5,0.2c0-0.1,0.2-0.3,0.1-0.4C172.1,86.6,172,86,171.9,85.5z"/>
				<path class="st0" d="M171.4-24.4c-0.6,0.3-1.1,0.6-1.7,0.9c-0.1,0-0.2,0.3-0.1,0.3c0.1,0.1,0.3,0.2,0.4,0.2
					c1-0.2,1.7,0.1,2.3,0.9c0.1,0,0.1-0.1,0.2-0.1c-0.1-0.3-0.1-0.7-0.2-1.1c0.6-0.2,0.4-0.7,0.1-1.2
					C172.1-24.9,171.7-24.5,171.4-24.4z"/>
				<path class="st0" d="M184.8-44.3c-1.1,0.9-2.1,1.7-3.2,2.7c0,0.6,0.3,0.8,0.9,0.4c1.1-0.7,2-1.6,2.5-2.8
					C184.9-44.1,184.9-44.2,184.8-44.3z"/>
				<path class="st0" d="M243.6-1.4c-0.4-0.1-0.8,0-1.2,0c-0.7-0.1-1,0.4-1.2,0.9c0,0.1,0,0.3,0,0.4c0.1,0.1,0.3,0.1,0.4,0.1
					c0.5-0.1,1-0.2,1.5-0.3v0.1c0.1,0,0.2,0,0.4,0c0.4,0,0.9,0.1,0.9-0.4C244.4-1,243.9-1.3,243.6-1.4z"/>
				<path class="st0" d="M188.4,90.6c-1,0.8-2,1.7-3.4,2c-0.1,0-0.1,0.1-0.1,0.1s-0.1,0.1-0.1,0.2V93v0.1v0.1c0,0,0,0,0.1,0
					c0.2,0.1,0.4,0.2,0.5,0.1c0.7-0.3,1.4-0.6,2-1c0.8-0.6,1.6-1.1,2.1-2c-0.1-0.1-0.1-0.1-0.2-0.2C189,90.3,188.7,90.4,188.4,90.6z
					"/>
				<path class="st0" d="M233.3-7.7c0.2-0.1,0.1-0.5,0.2-0.9c-0.1-0.4-0.2-0.9-0.4-1.4c-0.1-0.2-0.5-0.2-0.7-0.3
					c-0.1,0.2-0.1,0.4-0.1,0.6c-0.1,0.4-0.2,0.7-0.2,1.1c0,0.4,0.2,0.8,0.3,1.2C232.6-7.5,233-7.5,233.3-7.7z"/>
				<path class="st0" d="M184.7,34.1c0.2,0,0.5-0.1,0.8-0.1c0.7,0.1,1-0.3,1.2-0.9c-0.5-0.2-1-0.5-1.5-0.5c-0.4,0-0.9,0.2-1.3,0.4
					c-0.2,0.1-0.3,0.7-0.2,0.8C184,33.9,184.4,34,184.7,34.1z"/>
				<path class="st0" d="M175.3,69.9c-0.1,1.1-0.2,2.1-0.1,3.2c0,0.2,0.2,0.3,0.4,0.5c0.1,0.1,0.1,0.1,0.2,0.2
					c0-0.1,0.1-0.1,0.1-0.2c0.1-0.2,0.3-0.4,0.3-0.5c-0.1-1.2-0.2-2.4-0.4-3.8C175.6,69.6,175.3,69.7,175.3,69.9z"/>
				<path class="st0" d="M184.9,31.4c0.2,0,0.4,0,0.5,0.1c0.6,0.3,1.4-0.1,1.4-0.8c0-0.4-0.9-1.1-1.3-0.9s-0.8,0.5-1.1,0.8
					c-0.1,0.1-0.2,0.4-0.1,0.6C184.5,31.4,184.7,31.4,184.9,31.4z"/>
				<path class="st0" d="M226.8,29c0.2-0.1,0.4-0.2,0.5-0.4c0.3-1.1,0.6-2.3,0.9-3.4c0-0.1-0.1-0.3-0.2-0.5
					c-0.2,0.1-0.4,0.2-0.5,0.3c-0.3,1.1-0.6,2.3-1,3.5C226.6,28.7,226.7,28.8,226.8,29z"/>
				<path class="st0" d="M239-12c-0.3,0.4-0.7,0.9-0.7,1.3c-0.1,0.9,0,1.9,0.1,2.9c0.5-0.3,0.6-0.5,0.7-1.3c0-0.9-0.1-1.8,0.5-2.5
					c0.1-0.1,0-0.4,0-0.4C239.4-12.1,239.1-12.1,239-12z"/>
				<path class="st0" d="M143.2-7.5c-0.7,0.1-1.3,0.2-1.4,0.9c-0.1,0.3,0.1,0.7,0.4,0.8c0.6,0.3,1.1,0.1,1.5-0.4
					c0.2-0.2,0.4-0.7,0.3-0.9C143.8-7.3,143.4-7.4,143.2-7.5z"/>
				<path class="st0" d="M206,27.2c-0.2-0.2-0.7,0.1-1.1,0.1c-0.6,0-0.7,0.3-0.6,0.8s0.4,0.7,0.9,0.6c0.2,0,0.5,0.1,0.7,0.1
					c0.3,0,0.6-0.1,1.1-0.1C206.6,28,206.4,27.5,206,27.2z"/>
				<path class="st0" d="M215.8-0.1c-0.3,0.2-0.6,0.5-0.9,0.8c0.1,0.1,0.1,0.1,0.2,0.2c1.4,0.2,3-0.9,3.3-2.3
					c-0.3,0.2-0.5,0.3-0.7,0.4C217-0.7,216.4-0.4,215.8-0.1z"/>
				<path class="st0" d="M230.1-7.6c-0.1,1.1-0.1,2.2,0.4,3.3c0.6-0.7,0.8-2.9,0.3-3.5C230.5-8,230.1-7.9,230.1-7.6z"/>
				<path class="st0" d="M158.9,15.5c0.3,0.4,0.7,0.8,1.1,1.1c0.1-0.1,0.2-0.1,0.3-0.2c-0.5-1-1-2-1.5-3c-0.1-0.1-0.3-0.1-0.5-0.2
					c0,0.2-0.2,0.4-0.1,0.5C158.4,14.3,158.6,14.9,158.9,15.5z"/>
				<path class="st0" d="M260.7-9.8c0.1-0.1,0.4-0.3,0.4-0.5c0.1-0.3-1.1-1.3-1.6-1.2c-0.2,0-0.4,0.4-0.6,0.6v0.1
					C259-10.3,259.6-9.9,260.7-9.8z"/>
				<path class="st0" d="M261.4-5.2c0,0.5,0.7,1.1,1.5,1.1c0.1-0.1,0.4-0.4,0.4-0.6c0.1-0.5-0.6-1.1-1.1-1.1
					C261.7-6,261.4-5.7,261.4-5.2z"/>
				<path class="st0" d="M164.7,16.9c-0.1,0.3-0.1,0.6-0.2,0.9c0,0.3,0,0.7,0.1,0.9c0.1,0.2,0.5,0.3,0.7,0.3c0.1,0,0.3-0.3,0.3-0.3
					c-0.4-0.6,0-1.1,0-1.7c0-0.2-0.3-0.4-0.4-0.7C165.1,16.6,164.8,16.7,164.7,16.9z"/>
				<path class="st0" d="M259-13.9c0.1,0.1,0.4,0.2,0.5,0.1c0.5-0.1,1.2-1,1.2-1.5c0-0.4-0.4-0.7-0.8-0.4s-0.7,0.8-1,1.2
					C258.8-14.3,258.9-14,259-13.9z"/>
				<path class="st0" d="M156.2,16.2c-0.1,0.1-0.2,0.2-0.2,0.3c-0.2,0.6,0.7,2,1.5,2.2c-0.2-0.7-0.4-1.3-0.6-1.9
					c0.2-0.1,0.5-0.2,0.4-0.2c-0.1-0.3-0.2-0.6-0.3-1c-0.1,0.1-0.1,0.1-0.2,0.2C156.6,15.9,156.4,16.1,156.2,16.2z"/>
				<path class="st0" d="M136.6,23.9c-0.1,0.5,0.3,0.7,0.8,0.7c0.6,0,1.5-0.6,1.3-1c-0.1-0.3-0.5-0.4-0.7-0.5
					C137.2,23.2,136.7,23.3,136.6,23.9z"/>
				<path class="st0" d="M233.7-5c0-0.1,0.1-0.1,0.1-0.2c-0.1-0.4-0.2-0.7-0.4-1.1c0-0.1-0.4-0.1-0.4,0c-0.3,0.3-0.5,0.6-0.8,1
					c0.3,0.5,0.6,0.9,0.8,1.3C233.3-4.4,233.5-4.7,233.7-5z"/>
				<path class="st0" d="M241.5-2.7c0.2,0.1,0.6,0,0.8-0.2c0.1,0-0.1-0.4-0.1-0.6c0-0.1,0-0.3,0-0.4c0.1,0,0.1-0.1,0.2-0.1
					c-0.2-0.2-0.3-0.5-0.6-0.7c-0.1,0-0.4,0.1-0.5,0.3c-0.1,0.4-0.2,0.8-0.2,1.1C241.1-3.1,241.3-2.7,241.5-2.7z"/>
				<path class="st0" d="M216.5-14.3c0.4,0.4,0.8,0.8,1.2,1.1c0.1,0.1,0.5,0,0.7-0.1c0.1-0.1,0.2-0.4,0.1-0.5
					C218.1-14.5,217.4-14.8,216.5-14.3z"/>
				<path class="st0" d="M154.8,25.5c0.3,1,0.7,2,1.1,3.1C156.5,27.8,155.8,25.8,154.8,25.5z"/>
				<path class="st0" d="M179.7,66c0.2-0.5,0.3-1,0.4-1.7c-0.1-0.1-0.2-0.4-0.3-0.6c-0.2,0.2-0.5,0.3-0.5,0.5
					c-0.1,0.6-0.2,1.1-0.2,1.7c0,0.1,0.2,0.3,0.2,0.4C179.4,66.3,179.6,66.2,179.7,66z"/>
				<path class="st0" d="M186.5-40.4c-0.1-0.1-0.1-0.2-0.2-0.2c-0.9,0.2-1.6,0.6-2.2,1.3c-0.1,0.1,0,0.3,0,0.5
					c0,0.1,0.3,0.1,0.4,0.1C185.2-39.3,185.8-39.9,186.5-40.4z"/>
				<path class="st0" d="M170.7,46.8c-0.1,0-0.3,0-0.4,0c-0.3,0-0.7,0.4-0.7,0.6c0.1,0.7,1,0.2,1.3,0.7c0.1-0.1,0.3-0.2,0.4-0.4l0,0
					v-0.1C171.4,47.2,171.1,46.9,170.7,46.8z"/>
				<path class="st0" d="M230.2-11.4c-0.1-0.1-0.4-0.2-0.5-0.1c-0.1,0-0.3,0.3-0.2,0.4c0.2,0.6,0.4,1.2,0.6,1.8
					C230.6-10,230.6-11,230.2-11.4z"/>
				<path class="st0" d="M170.3,44.1c0.1-0.1,0-0.4,0-0.5c-0.2,0-0.5,0-0.7,0c-0.1,0-0.2,0-0.2,0c-0.2,0.2-0.4,0.3-0.6,0.5
					c0.2,0.2,0.4,0.5,0.7,0.8C169.8,44.6,170.1,44.3,170.3,44.1z"/>
				<path class="st0" d="M239.6-23.2c-0.5,0.2-1,1.3-0.9,2.2c0.6-0.6,1-1.1,1.4-1.7c0.1-0.1,0-0.4-0.1-0.5
					C240-23.2,239.7-23.2,239.6-23.2z"/>
				<path class="st0" d="M199.4,74.8c-0.4,0.1-0.9,0.2-1.2,0.4c-0.1,0.1,0,0.6,0.1,0.8c0,0.1,0.4,0.3,0.4,0.2c0.4-0.3,0.7-0.7,1-1.1
					C199.6,75,199.4,74.8,199.4,74.8z"/>
				<path class="st0" d="M261.5-20c-0.5,0.1-1,1.1-0.8,1.6c0,0.1,0.1,0.2,0.2,0.2c0.5,0,1.4-1.1,1.2-1.5
					C262-19.9,261.7-20.1,261.5-20z"/>
				<path class="st0" d="M253.2,8.2c-0.6,0.6-0.8,1.1-0.6,1.7c0.6-0.7,1.3-1.4,2-2.1C253.8,7.4,253.5,7.9,253.2,8.2z"/>
				<path class="st0" d="M169,5.7c0.2-0.4,0.2-0.9,0.3-1.4c-0.8,0.1-1,0.2-1.2,1.1c0,0.2,0.1,0.4,0.2,0.7C168.6,6,168.9,5.9,169,5.7
					z"/>
				<path class="st0" d="M179.1,95.7c0.7-0.7,1.4-1.4,2.2-2.3C180.3,93.4,179.1,94.6,179.1,95.7z"/>
				<path class="st0" d="M172.8,42.8c-0.4-0.1-0.7-0.2-0.9-0.2c-0.2,0-0.5,0.2-0.6,0.4c-0.1,0.1,0.1,0.5,0.2,0.6
					C172.2,44,172.8,43.6,172.8,42.8z"/>
				<path class="st0" d="M242.8-37.2c-0.4-0.1-1,0.5-0.9,0.9c0.1,0.2,0.3,0.4,0.6,0.7c0.4-0.5,0.6-0.8,0.8-1.2
					C243.3-36.8,243-37.2,242.8-37.2z"/>
				<path class="st0" d="M169.7,68.3c-0.7,0.5-0.8,1.7-0.2,2.5C170,70.4,170,69.5,169.7,68.3z"/>
				<path class="st0" d="M157.2,30.1c0.2-0.3,0.5-0.7,0.7-1.1c0-0.1-0.4-0.4-0.4-0.4c-0.3,0.2-0.7,0.5-0.9,0.8
					c-0.1,0.1,0.2,0.4,0.3,0.6C157,30.1,157.1,30.1,157.2,30.1z"/>
				<path class="st0" d="M181-44c-0.4,0.2-0.8,0.4-1.2,0.7c-0.1,0,0,0.4,0,0.4c0.4,0.3,1.6-0.4,1.7-1C181.4-43.9,181.2-44,181-44z"
					/>
				<path class="st0" d="M167.2,19.1c0.2-0.2,0.5-0.4,0.7-0.7c0.1-0.1-0.2-0.4-0.4-0.8c-0.4,0.4-0.7,0.7-0.8,1
					C166.7,18.6,167,18.9,167.2,19.1z"/>
				<path class="st0" d="M136.8,46c0,0.1,0,0.2,0.1,0.3c0,0.1,0.1,0.1,0.1,0.2s0.1,0.1,0.1,0.2c0.1,0,0.1-0.1,0.2-0.1
					c0.1-0.1,0.2-0.1,0.3-0.2c0.3-0.3,0.5-0.7,0.7-1.1C137.4,45,136.9,45.3,136.8,46z"/>
				<path class="st0" d="M191.9,65.8c-0.2-0.2-0.4-0.3-0.5-0.4c-0.2,0.3-0.4,0.6-0.5,1c0,0.2,0.2,0.4,0.4,0.6
					C191.4,66.6,191.6,66.3,191.9,65.8z"/>
				<path class="st0" d="M191.3,22.1c0.2,0,0.4-0.3,0.8-0.6c-0.4-0.3-0.6-0.4-0.8-0.5c-0.5-0.1-0.7,0.2-0.7,0.6
					C190.5,22.2,191.1,22.1,191.3,22.1z"/>
				<path class="st0" d="M262.4-2c-0.2-0.2-0.5-0.4-0.8-0.6c-0.3,0.2-0.5,0.4-0.8,0.5c0.3,0.2,0.6,0.5,0.9,0.5
					C261.9-1.6,262.2-1.9,262.4-2z"/>
				<path class="st0" d="M185.3,60.3c0.3-0.3,0.6-0.6,1-0.9c-0.3-0.2-0.4-0.4-0.6-0.5c-0.2,0.3-0.5,0.7-0.7,1.1
					C184.9,60,185.1,60.2,185.3,60.3z"/>
				<path class="st0" d="M167.4,45.8c-0.2,0-0.5,0.3-0.5,0.5s0.3,0.4,0.6,0.9c0.3-0.4,0.5-0.7,0.5-0.9
					C168,46.1,167.6,45.8,167.4,45.8z"/>
				<path class="st0" d="M189.2,32.7c-0.2-0.2-0.4-0.5-0.6-0.5c-0.2,0-0.5,0.2-0.7,0.4c0.2,0.2,0.4,0.4,0.7,0.8
					C188.8,33,189,32.8,189.2,32.7z"/>
				<path class="st0" d="M194.2,64c0-0.1-0.1-0.1-0.1-0.2c-0.2,0.1-0.5,0.3-0.6,0.5c-0.1,0.6-0.4,1-0.9,1.2c-0.1,0-0.1,0.2-0.2,0.4
					c0.5-0.3,1-0.4,1.4-0.8C194,64.8,194.1,64.4,194.2,64z"/>
				<path class="st0" d="M199.2,69c0.6-0.6,0.4-1.1,0.1-1.6c0-0.1-0.2-0.2-0.3-0.1s-0.2,0.2-0.2,0.3C198.9,68.1,199,68.5,199.2,69z"
					/>
				<path class="st0" d="M175.9,68.8c0-0.7,0-1.4,0-2c-0.5,0.2-0.6,0.6-0.2,2C175.8,68.8,175.8,68.8,175.9,68.8z"/>
				<path class="st0" d="M168.6,47.7c0.1,0.1,0.3-0.1,0.5-0.2c-0.2-0.3-0.3-0.7-0.6-1.1C168.2,47,168.2,47.4,168.6,47.7z"/>
				<path class="st0" d="M139.8,26.6c-0.1-0.2-0.3-0.4-0.4-0.6c-0.1,0.1-0.4,0.3-0.4,0.4c0,0.2,0.2,0.4,0.4,0.8
					C139.7,26.9,139.9,26.7,139.8,26.6z"/>
				<path class="st0" d="M169.8,71.4c0-0.1-0.2-0.3-0.3-0.5c-0.2,0.2-0.3,0.4-0.6,0.6c0.2,0.2,0.4,0.3,0.5,0.5
					C169.6,71.8,169.8,71.7,169.8,71.4z"/>
				<path class="st0" d="M174.4,96.4c0,0,0.3,0.1,0.4,0.1c0-0.3,0-0.6,0.1-0.9c-0.1,0-0.2,0-0.4,0C174.5,95.9,174.4,96.2,174.4,96.4
					z"/>
				<path class="st0" d="M240.1,56.1c0.8-0.6,1-1.3,0.7-2.3c0-0.1,0-0.2,0-0.4c-0.3-1.7-0.6-3.4-1-5.1c0-0.2-0.3-0.4-0.4-0.6
					c-0.1,0-0.2,0.1-0.3,0.1c0.7,3.5,0.9,6.9,0.5,10.5C240.4,58.1,240.6,57.1,240.1,56.1z"/>
				<path class="st0" d="M239.8,43.3c0.1,0.5,0.4,0.9,0.6,1.4c0.5,1.4,1.1,2.7,1,4.2c0,0.3,0.2,0.7,0.4,1c0.1,0.1,0.4,0.2,0.5,0.1
					c0.1,0,0.2-0.3,0.3-0.4c-0.4-1.8-0.8-3.6-1.2-5.4c-0.1-0.6-0.5-1.1-0.8-1.6c-0.1-0.1-0.5-0.2-0.6-0.2
					C239.8,42.8,239.7,43.1,239.8,43.3z"/>
				<path class="st0" d="M222.2,43.9c-0.1,0.1-0.2,0.2-0.3,0.3c0.4,0.5,0.7,0.9,1.2,1.4c1,1,2.1,2.1,3.1,3.1
					c0.9,0.8,1.8,1.5,2.8,2.2c0.9,0.6,1.9,1,2.9,1.4c0.3,0.1,0.6,0.2,0.8,0.3c0-0.1,0.1-0.2,0.1-0.2
					C228.8,50.3,225.3,47.4,222.2,43.9z"/>
				<path class="st0" d="M223.9,42.5c-0.2-0.2-0.4-0.3-0.7-0.4c-0.1,0.1-0.1,0.1-0.2,0.2c0.2,0.3,0.4,0.6,0.6,0.8
					c0.3,0.4,0.6,0.7,0.9,1.1c0.9,1.2,1.8,2.3,2.8,3.5c0.2,0.3,0.6,0.4,1,0.6c0.1-0.1,0.2-0.2,0.3-0.3c-0.3-0.5-0.5-0.9-0.9-1.4
					c-0.7-0.8-1.4-1.5-2.1-2.3C225,43.8,224.5,43.2,223.9,42.5z"/>
				<path class="st0" d="M223.5,62.1c-0.9-0.6-1.7-1.5-2.5-2.2c-0.6-0.5-1.3-1-2.1-1.6c0,0.3-0.1,0.5,0,0.6c0.2,0.3,0.4,0.6,0.7,0.9
					c0.7,0.6,1.4,1.2,2.2,1.7c0.5,0.4,1,1,1.6,1.3c0.6,0.4,1.4,0.6,2.1,0.8c0.3,0.1,0.7,0,1,0.1c-0.3-0.2-0.6-0.5-0.9-0.7
					C225,62.7,224.1,62.6,223.5,62.1z"/>
				<path class="st0" d="M222.8,39.7c-0.2,0.8,3.1,4.8,4.2,5.2C226.5,42.9,224.3,40.2,222.8,39.7z"/>
				<path class="st0" d="M237.2,43.3c0.2,1,0.3,2.1,0.5,3.1c0,0.2,0.1,0.5,0.2,0.7s0.4,0.2,0.6,0.3c0.1-0.2,0.2-0.4,0.2-0.6
					c-0.2-1.1-0.5-2.2-0.8-3.3c-0.2-0.6-0.5-1.2-0.8-1.8c-0.1,0-0.2,0.1-0.3,0.1c0,0.2,0,0.4,0.1,0.6C237,42.7,237.2,43,237.2,43.3z
					"/>
				<path class="st0" d="M224.5,39c0.2,0.3,0.4,0.7,0.6,0.9c0.2,0.2,0.6,0.1,0.9,0.2c0-0.2,0-0.5-0.1-0.7c-0.1-0.3-0.3-0.6-0.5-0.8
					c-0.7-0.7-1.5-1.4-2.2-2.1c-0.2-0.2-0.4-0.3-0.6-0.5c-0.2,0.1-0.4,0.2-0.4,0.2c0,0.1,0.1,0.3,0.2,0.4
					C223,37.5,223.8,38.2,224.5,39z"/>
				<path class="st0" d="M237.6,37.4c0.4,1,0.8,2.1,1.2,3.1c0.1,0.3,0.3,0.5,0.6,0.7c0.1,0.1,0.3,0.1,0.5,0.1c0-0.2,0.2-0.4,0.1-0.6
					c-0.2-0.5-0.5-1-0.7-1.5c-0.6-1.1-1.2-2.2-1.8-3.3c-0.1-0.1-0.2-0.3-0.4-0.6c-0.1,0.4-0.2,0.6-0.2,0.8
					C237,36.6,237.4,36.9,237.6,37.4z"/>
				<path class="st0" d="M215.2,56.1c-0.2-0.2-0.5-0.3-0.8-0.4c0,1.5,2.9,4.3,3.8,3.9c-0.1-0.1-0.1-0.2-0.2-0.3
					C217.1,58.2,216.1,57.2,215.2,56.1z"/>
				<path class="st0" d="M242.3,55.5c0.2,0.4,0.2,1,0.2,1.5c0,0.4-0.4,0.7-0.5,1.1c-0.3,0.6-0.2,1.2,0.2,1.8c0.8-1.9,1.2-3.9,0.6-6
					C242.1,54.1,242,54.8,242.3,55.5z"/>
				<path class="st0" d="M233.9,39.4c0,1.7,1,2.9,1.8,4.2c0.1,0,0.2-0.1,0.3-0.1c-0.6-1.4-1.2-2.8-1.8-4.2
					C234.1,39.3,234,39.3,233.9,39.4z"/>
				<path class="st0" d="M242.1,50.7c0,0.3,0,0.6,0,0.9c0.1,0.4,0.1,0.8,0.2,1.2c0.1,0.2,0.2,0.4,0.3,0.6c0.1-0.2,0.4-0.4,0.4-0.6
					c-0.2-0.7-0.4-1.4-0.6-2.1C242.4,50.6,242.2,50.7,242.1,50.7z"/>
				<path class="st0" d="M220.2,39.6c0.7,0.6,1.3,1.1,1.9,1.7C222,40.3,221.1,39.5,220.2,39.6z"/>
				<path class="st0" d="M230.1,49c-0.4-0.5-0.7-1-1.2-1.7C228.8,48.4,229.2,48.9,230.1,49z"/>
				<path class="st0" d="M241,60.5c0.3,0.3,0.5,0.5,0.8,0.6l0.3-0.3c-0.1-0.3-0.4-0.6-0.5-1C241.4,60.1,241.2,60.2,241,60.5z"/>
				<path class="st0" d="M221,38.4c0.4,0.4,0.8,0.8,1.3,1.3C222.3,38.7,222,38.5,221,38.4z"/>
				<path class="st0" d="M228.3,46.3c-0.3-0.5-0.6-0.9-1-1.4C227.1,45.8,227.3,46.2,228.3,46.3z"/>
				<path class="st0" d="M240.5,60.8c-0.2,0.4-0.3,0.7,0.5,1.1c0-0.5-0.1-0.9-0.1-1.2C240.7,60.7,240.5,60.7,240.5,60.8z"/>
				<path class="st0" d="M234.9,63.6c0.1,0.1,0.3,0.2,0.4,0.2c0.4-0.2,0.6-0.5,0.3-1.2C235.3,63.1,235.1,63.4,234.9,63.6z"/>
			</g>
		</g>
	</g>
</g>
<g id="mouseOver" class="st1">
	<rect x="-365.9" y="-104.9" class="st2" width="1280" height="240"/>
	<text transform="matrix(1 0 0 1 141.4897 21.1101)" class="st3 st4 st5 st6">Acorn Brewing</text>
</g>
<g id="home">
</g>
<g id="NAVBAR">
	<g id="navBar">
	</g>
	<g id="mouseOver_1_">
	</g>
</g>
</svg>
