<?xml version="1.0" encoding="utf-8"?>
<!-- Generator: Adobe Illustrator 19.0.1, SVG Export Plug-In . SVG Version: 6.00 Build 0)  -->
<svg version="1.1" xmlns="http://www.w3.org/2000/svg" xmlns:xlink="http://www.w3.org/1999/xlink" x="0px" y="0px"
	 viewBox="0 0 183.3 183.4" style="enable-background:new 0 0 183.3 183.4;" xml:space="preserve">
<style type="text/css">
	.st0{fill:#FFFFFF;}
	.st1{fill:#3399CC;}
	.st2{fill:#FF9966;}
	.st3{fill:#382C3D;}
	.st4{fill:#221F20;}
	.st5{fill:#FFCC66;}
	.st6{fill:#3D220E;}
	.st7{fill:none;stroke:#FFFFFF;stroke-width:0.5618;stroke-miterlimit:10;}
	.st8{fill:#CDCBCA;}
	.st9{font-family:'Archer-Bold';}
	.st10{font-size:43.3656px;}
	.st11{font-size:26.4195px;}
	.st12{fill:#669897;}
	.st13{fill:#CC6632;}
	.st14{fill:none;stroke:#FFFFFF;stroke-width:2.3528;stroke-miterlimit:10;}
	.st15{display:none;}
	.st16{display:inline;fill:#3D220E;}
	.st17{display:inline;fill:#FF9966;}
	.st18{display:inline;}
	.st19{display:inline;fill:#382C3D;}
	.st20{display:inline;fill:#CDCAC9;}
	.st21{font-family:'Roboto-Thin';}
	.st22{font-size:20.7575px;}
	.st23{letter-spacing:10;}
	.st24{display:inline;fill:#FFFFFF;}
	.st25{fill:#FDCC66;}
	.st26{display:inline;fill:#669897;}
	.st27{fill:#CDCAC9;}
	.st28{display:inline;fill:#362012;}
	.st29{fill:url(#SVGID_5_);}
	.st30{fill:url(#SVGID_6_);}
	.st31{fill:url(#SVGID_7_);}
	.st32{fill:#999999;}
	.st33{fill:#CC6633;}
	.st34{opacity:0.5;fill:#653614;}
	.st35{opacity:0.69;fill:#FF9966;}
</style>
<g id="contact">
</g>
<g id="about">
</g>
<g id="WORK">
	<g id="work">
		<g>
			<g>
				<path class="st8" d="M91.6,0C41.2-0.1,0,41.1,0,91.7c0,50.6,41,91.7,91.6,91.7c50.6,0,91.7-41.1,91.7-91.6
					C183.3,41.3,142.1,0,91.6,0 M91.5,175.2c-46.1-0.1-83.6-37.9-83.4-83.9c0.2-46,37.8-83.1,83.8-83c46,0.1,83.1,37.5,83,83.6
					C174.9,138,137.5,175.3,91.5,175.2"/>
			</g>
			<g>
				<g>
					<path class="st8" d="M16,82.5h9.7c5,0,8.2,2.4,8.2,6.3c0,3.5-3,6.4-6.7,6.4H21v7.6h-5V82.5z M21,86.2v5.3h4.6
						c1.8,0,3.1-1.1,3.1-2.7c0-1.6-1.1-2.6-3-2.6H21z"/>
				</g>
				<g>
					<path class="st8" d="M46,81.9c5.8,0,10.5,3.8,10.5,10.7c0,6.8-4.8,10.8-10.5,10.8c-5.7,0-10.5-3.8-10.5-10.8
						C35.5,85.7,40.3,81.9,46,81.9 M46,99.1c3.3,0,5.2-2.5,5.2-6.4c0-3.9-1.9-6.3-5.2-6.3c-3.3,0-5.2,2.4-5.2,6.3
						C40.8,96.6,42.7,99.1,46,99.1"/>
				</g>
				<g>
					<polygon class="st8" points="59,82.5 66.1,82.5 69.3,94.8 72.5,82.5 79.7,82.5 79.7,102.8 75.6,102.8 75.6,86.2 71.2,102.8 
						67.3,102.8 63.1,86 63.1,102.8 59,102.8 					"/>
				</g>
				<g>
					<path class="st8" d="M83.5,82.5h9.7c5,0,8.2,2.4,8.2,6.3c0,3.5-3,6.4-6.7,6.4h-6.2v7.6h-5V82.5z M88.4,86.2v5.3H93
						c1.8,0,3.1-1.1,3.1-2.7c0-1.6-1.1-2.6-3-2.6H88.4z"/>
				</g>
				<g>
					<path class="st8" d="M113.5,81.9c5.8,0,10.5,3.8,10.5,10.7c0,6.8-4.8,10.8-10.5,10.8c-5.8,0-10.5-3.8-10.5-10.8
						C103,85.7,107.7,81.9,113.5,81.9 M113.5,99.1c3.3,0,5.2-2.5,5.2-6.4c0-3.9-1.9-6.3-5.2-6.3c-3.3,0-5.2,2.4-5.2,6.3
						C108.2,96.6,110.2,99.1,113.5,99.1"/>
				</g>
				<g>
					<path class="st8" d="M128.8,95.9c0.7,1.5,1.8,3.9,6.5,3.9c3,0,4.6-0.8,4.6-2.3c0-1.4-1.4-2.2-4.8-2.6c-4.3-0.5-8.5-2.3-8.5-6.3
						c0-2.6,1.4-4.7,3.8-5.8c1.3-0.5,3-0.8,5-0.8c5.9,0,8.1,2.8,8.8,4.1l-3.1,2.6c-1.2-2.2-2.9-3.1-5.6-3.1c-2.6,0-4.1,0.8-4.1,2.2
						c0,1.2,1.1,1.8,4.4,2.3c5.3,0.8,8.9,2.3,8.9,6.6c0,1.8-0.6,3.3-1.7,4.4c-1.6,1.7-3.9,2.4-7.7,2.4c-6.1,0-8.1-1.9-9.8-4.6
						L128.8,95.9z"/>
				</g>
				<g>
					<path class="st8" d="M156.8,81.9c5.7,0,10.5,3.8,10.5,10.7c0,6.8-4.8,10.8-10.5,10.8c-5.8,0-10.5-3.8-10.5-10.8
						C146.3,85.7,151,81.9,156.8,81.9 M156.8,99.1c3.3,0,5.2-2.5,5.2-6.4c0-3.9-1.9-6.3-5.2-6.3c-3.3,0-5.2,2.4-5.2,6.3
						C151.5,96.6,153.4,99.1,156.8,99.1"/>
				</g>
			</g>
			<g>
				<rect x="22.8" y="70.2" class="st8" width="137.8" height="2.5"/>
			</g>
			<g>
				<rect x="22.8" y="112.7" class="st8" width="137.8" height="2.5"/>
			</g>
			<text transform="matrix(1 0 0 1 69.5615 152.7771)" class="st8 st9 st10">35</text>
			<text transform="matrix(1 0 0 1 64.0742 55.3616)" class="st8 st9 st11">cibo</text>
		</g>
	</g>
	<g id="mouseOver" class="st15">
		<rect x="-548.3" y="-28.3" class="st19" width="1280" height="240"/>
		<text transform="matrix(1 0 0 1 11.8137 97.6558)" class="st20 st21 st22 st23">Pomposo</text>
	</g>
</g>
<g id="home">
</g>
<g id="NAVBAR">
	<g id="navBar">
	</g>
	<g id="mouseOver_1_">
	</g>
</g>
</svg>
