<?xml version="1.0" encoding="utf-8"?>
<!-- Generator: Adobe Illustrator 19.0.1, SVG Export Plug-In . SVG Version: 6.00 Build 0)  -->
<svg version="1.1" xmlns="http://www.w3.org/2000/svg" xmlns:xlink="http://www.w3.org/1999/xlink" x="0px" y="0px"
	 viewBox="0 0 261.5 168.4" style="enable-background:new 0 0 261.5 168.4;" xml:space="preserve">
<style type="text/css">
	.st0{fill:#FFFFFF;}
	.st1{fill:#3399CC;}
	.st2{fill:#FF9966;}
	.st3{fill:#382C3D;}
	.st4{fill:#3D220E;}
	.st5{fill:none;stroke:#FFFFFF;stroke-width:0.2658;stroke-miterlimit:10;}
	.st6{fill:#CDCBCA;}
	.st7{fill:none;stroke:#FFFFFF;stroke-width:0.5618;stroke-miterlimit:10;}
	.st8{fill:#669897;}
	.st9{fill:#CC6632;}
	.st10{fill:none;stroke:#FFFFFF;stroke-width:1.1126;stroke-miterlimit:10;}
	.st11{fill:#333333;}
	.st12{opacity:0.69;}
	.st13{opacity:0.48;fill:#3399CC;}
	.st14{fill:#CDCAC9;}
	.st15{fill:#362012;}
	.st16{fill:#272223;}
	.st17{fill:url(#SVGID_5_);}
	.st18{fill:url(#SVGID_6_);}
	.st19{fill:url(#SVGID_7_);}
	.st20{fill:#999999;}
	.st21{fill:#CC6633;}
	.st22{opacity:0.5;fill:#653614;}
	.st23{opacity:0.69;fill:#FF9966;}
</style>
<g id="old">
	<g id="contact">
	</g>
	<g id="about">
	</g>
	<g id="WORK">
		<g id="work">
		</g>
		<g id="mouseOver">
			<g>
				<g>
					<path class="st16" d="M122.5,137.7c0-7.6,4-9.4,10.7-9.4h8.7c10.6,0,11.9,2.4,11.9,9.8h-7.4v-0.7c0-1.9-1.3-2.4-3.5-2.4h-8.1
						c-3.9,0-4.6,2-4.6,5.2v2.8c0,3.8,0.7,5.2,4.2,5.2h7.9c3.3,0,4.3-0.4,4.3-3.6h7.4v2.4c0,4.4-1.5,7.8-8.9,7.8h-12
						c-6.7,0-10.7-1.8-10.7-9.4V137.7z"/>
					<path class="st16" d="M158.1,146.1h7.4c0,2.8,1.1,3,3.2,3h9.1c1.6,0,3.2-0.2,3.2-2.2c0-2.3-0.9-2.4-10.4-2.4
						c-11.2,0-12.4-1.4-12.4-7.8c0-4.7,0.4-8.3,9.8-8.3h10.4c8.6,0,9.4,3.1,9.4,7.7v0.8h-7.4c0-1.9-0.2-2.7-3.6-2.7h-8.2
						c-1.7,0-2.8,0.6-2.8,2c0,2.3,0.9,2.3,8.9,2.3c11.5,0,14.2,0.7,14.2,8.3c0,7-2.2,8.2-12.1,8.2h-9c-6.8,0-9.5-1.4-9.5-7V146.1z"
						/>
					<path class="st16" d="M193.1,128.6h7.4v15c0,3.3,1.1,4.6,4.1,4.6h7.3c3,0,4.1-1.3,4.1-4.6v-15h7.4v16.8c0,6.5-3.1,9.6-9.9,9.6
						h-10.6c-6.8,0-9.9-3.1-9.9-9.6V128.6z"/>
					<polygon class="st16" points="228.6,128.6 240.1,128.6 254,147.5 254.1,147.5 254.1,128.6 261.5,128.6 261.5,154.6 250,154.6 
						236.1,135.7 236,135.7 236,154.6 228.6,154.6 					"/>
					<path class="st16" d="M24.2,129.7h4v17.7c0,1.3-0.1,2.3-0.3,3c-0.4,1.8-1.8,3.1-3.9,3.9c-1.1,0.4-2.2,0.6-3.2,0.7
						c-1.7,0.2-4,0.2-6.9,0.2c-2.4,0-4.2,0-5.4-0.1c-1.2-0.1-2.3-0.3-3.2-0.5c-2.1-0.5-3.5-1.4-4.3-2.6c-0.7-1-1-2.5-1-4.6v-17.7h4
						v17.7c0,1.9,0.3,3.1,0.8,3.7c0.6,0.7,1.8,1.2,3.6,1.5c1,0.1,2.8,0.2,5.3,0.2c3.8,0,6.4-0.2,7.7-0.5c1.3-0.3,2.1-1,2.5-2.1
						c0.2-0.6,0.3-1.5,0.3-2.7V129.7z"/>
					<polygon class="st16" points="65,129.6 65,155.1 58.2,155.1 37.9,132.1 37.9,155.1 33.8,155.1 33.8,129.6 40.5,129.6 
						60.9,152.8 60.9,129.6 					"/>
					<polygon class="st16" points="73.7,129.7 73.7,152.4 92,152.4 92,155 69.7,155 69.7,129.7 					"/>
					<polygon class="st16" points="116.2,129.5 120.6,129.5 107.6,155 101.7,155 88.5,129.5 93,129.5 104.7,152.7 					"/>
					<path class="st16" d="M8.6,160.8H7.2c0-0.5,0-0.8-0.1-1c-0.1-0.4-0.3-0.6-0.7-0.8c-0.3-0.1-0.8-0.1-1.5-0.1c-1,0-1.6,0-2,0.1
						c-0.4,0.1-0.6,0.3-0.7,0.6c-0.1,0.2-0.2,0.6-0.2,1c0,0.4,0.1,0.8,0.2,1c0.1,0.3,0.4,0.5,1,0.5c0.2,0,0.8,0.1,1.7,0.1
						c1,0,1.7,0.1,2.1,0.2c0.7,0.2,1.3,0.5,1.5,1.1c0.2,0.4,0.3,0.9,0.3,1.7c0,0.8-0.1,1.4-0.3,1.9c-0.2,0.5-0.7,0.9-1.3,1.1
						c-0.4,0.1-1.4,0.2-3,0.2c-1,0-1.7-0.1-2.1-0.2c-0.7-0.2-1.2-0.7-1.4-1.4c-0.1-0.4-0.2-1-0.2-1.9H2v0.4c0,0.5,0.1,0.9,0.1,1.1
						c0.1,0.4,0.4,0.6,0.7,0.7c0.3,0.1,0.9,0.1,1.8,0.1c0.9,0,1.6,0,1.8-0.1c0.4-0.1,0.7-0.3,0.8-0.6c0.1-0.3,0.1-0.7,0.1-1.3
						c0-0.7-0.2-1.2-0.5-1.3c-0.2-0.1-0.4-0.1-0.8-0.1c-0.1,0-0.5,0-1.5-0.1c-1,0-1.6-0.1-1.8-0.1c-0.8-0.1-1.3-0.4-1.7-0.9
						c-0.3-0.4-0.5-1-0.5-1.9c0-1.2,0.3-2,0.8-2.4c0.4-0.3,1-0.5,1.6-0.6c0.5,0,1-0.1,1.7-0.1c1,0,1.7,0,2.1,0.1
						c0.9,0.2,1.5,0.8,1.6,1.6C8.6,159.7,8.6,160.2,8.6,160.8"/>
					<polygon class="st16" points="19,159.2 19,168.2 17.6,168.2 17.6,159.2 14.2,159.2 14.2,157.8 22.5,157.8 22.5,159.2 					"/>
					<path class="st16" d="M36.5,157.8h1.4v7.2c0,0.5,0,0.9-0.1,1.3c-0.1,0.8-0.5,1.3-1.2,1.7c-0.3,0.2-0.6,0.3-1,0.3
						c-0.5,0.1-1.3,0.1-2.2,0.1c-0.7,0-1.3,0-1.6-0.1c-0.4,0-0.7-0.1-0.9-0.2c-0.6-0.2-1.1-0.6-1.3-1.1c-0.2-0.4-0.3-1.1-0.3-1.9
						v-7.2h1.4v7.2c0,0.7,0.1,1.2,0.2,1.4c0.2,0.3,0.5,0.5,0.9,0.5c0.3,0.1,0.8,0.1,1.6,0.1c1.2,0,1.9-0.1,2.3-0.2
						c0.3-0.1,0.5-0.4,0.6-0.8c0.1-0.2,0.1-0.6,0.1-1.1V157.8z"/>
					<path class="st16" d="M45.7,168.2v-10.4h5.1c0.7,0,1.2,0.1,1.7,0.2c0.7,0.2,1.3,0.6,1.6,1.3c0.3,0.5,0.4,1.2,0.5,2.1
						c0,0.3,0,0.7,0,1.2c0,1.2,0,2-0.1,2.5c-0.1,1.3-0.7,2.2-1.5,2.7c-0.2,0.1-0.5,0.2-0.9,0.3c-0.4,0.1-0.8,0.1-1,0.1H45.7z
						 M47.1,167h3.4c1.1,0,1.8-0.2,2.1-0.6c0.3-0.3,0.4-0.9,0.5-1.6c0-0.3,0-0.9,0-1.5c0-1.2,0-2-0.1-2.5c-0.1-0.8-0.5-1.3-1-1.5
						c-0.3-0.1-0.8-0.2-1.3-0.2h-3.7V167z"/>
					<polygon class="st16" points="62.1,159.1 62.1,162.2 67.6,162.2 67.6,163.5 62.1,163.5 62.1,167 67.8,167 67.8,168.2 
						60.7,168.2 60.7,157.8 67.8,157.8 67.8,159.1 					"/>
					<polygon class="st16" points="84.6,157.8 84.6,168.2 82.5,168.2 76.8,159.1 76.8,168.2 75.4,168.2 75.4,157.8 77.5,157.8 
						83.2,166.9 83.2,157.8 					"/>
					<polygon class="st16" points="95,159.2 95,168.2 93.6,168.2 93.6,159.2 90.1,159.2 90.1,157.8 98.4,157.8 98.4,159.2 					"/>
					<path class="st16" d="M115.2,162.9h4.6c0,0.4,0,0.8,0,1.2c0,1,0,1.7-0.1,2.2c-0.1,0.7-0.4,1.2-0.9,1.6
						c-0.4,0.3-0.8,0.4-1.2,0.5c-0.6,0.1-1.3,0.1-2.2,0.1c-0.8,0-1.4,0-1.8-0.1c-0.4,0-0.7-0.1-1-0.3c-0.6-0.2-1-0.6-1.3-1.1
						c-0.2-0.4-0.4-0.9-0.4-1.5c0-0.4,0-0.9,0-1.4c0-0.1,0-0.5,0-1.1v-0.4c0-0.8,0-1.4,0.1-1.8c0.2-1.4,0.7-2.4,1.6-2.7
						c0.4-0.2,0.9-0.2,1.5-0.3c0.4,0,0.8,0,1.3,0c1,0,1.7,0,2,0c0.4,0,0.7,0.1,0.9,0.2c0.8,0.3,1.2,0.8,1.4,1.5
						c0.1,0.3,0.1,0.8,0.1,1.7h-1.4c0-0.8-0.1-1.3-0.2-1.5c-0.1-0.2-0.4-0.4-0.8-0.5c-0.3-0.1-1.1-0.1-2.3-0.1
						c-0.9,0-1.5,0.1-1.9,0.2c-0.3,0.1-0.5,0.3-0.7,0.6c-0.1,0.3-0.2,0.8-0.2,1.5c0,0.4,0,1,0,1.7c0,1.5,0,2.4,0.1,2.8
						c0.1,0.5,0.2,0.9,0.5,1c0.3,0.2,0.6,0.3,1.1,0.3c0.5,0,1.1,0.1,1.7,0.1c1,0,1.6,0,1.9-0.1c0.2-0.1,0.4-0.2,0.5-0.3
						c0.1-0.1,0.2-0.3,0.2-0.5c0.1-0.3,0.1-0.9,0.1-1.6c0-0.1,0-0.2,0-0.4h-3.2V162.9z"/>
					<path class="st16" d="M130.4,157.7c0.9,0,1.5,0,1.9,0.1c0.4,0,0.8,0.1,1.1,0.3c0.9,0.4,1.4,1.2,1.6,2.5c0,0.4,0.1,1,0.1,2.1
						c0,1.5,0,2.5-0.1,2.9c-0.1,0.8-0.3,1.5-0.7,1.9c-0.3,0.4-0.9,0.7-1.6,0.9c-0.4,0.1-1.1,0.1-2.3,0.1c-1.2,0-2-0.1-2.4-0.2
						c-0.6-0.2-1.1-0.4-1.3-0.8c-0.4-0.5-0.6-1.2-0.7-2.2c0-0.3,0-1.2,0-2.6c0-1,0-1.7,0.1-2.1c0.2-1.3,0.7-2.1,1.6-2.5
						c0.4-0.2,0.9-0.3,1.5-0.3C129.4,157.7,129.9,157.7,130.4,157.7 M130.4,159c-1.1,0-1.8,0-2.1,0.1c-0.3,0.1-0.5,0.2-0.7,0.4
						c-0.1,0.2-0.3,0.4-0.3,0.7c-0.1,0.3-0.1,0.8-0.1,1.2v1.6c0,1.3,0,2,0,2.2c0.1,0.8,0.3,1.4,0.7,1.6c0.2,0.1,0.5,0.2,0.7,0.2
						c0.4,0,1,0,1.6,0c1.1,0,1.8,0,2.1-0.1c0.3-0.1,0.5-0.2,0.6-0.3c0.2-0.3,0.4-0.8,0.5-1.6c0-0.1,0-0.8,0-2c0-1.3,0-2,0-2.2
						c-0.1-0.9-0.3-1.4-0.7-1.6c-0.2-0.1-0.5-0.2-0.7-0.2C131.7,159,131.1,159,130.4,159"/>
					<polygon class="st16" points="148.8,157.8 150.3,157.8 146.5,168.2 144.6,168.2 140.8,157.8 142.3,157.8 145.6,166.7 					"/>
					<polygon class="st16" points="157.9,159.1 157.9,162.2 163.3,162.2 163.3,163.5 157.9,163.5 157.9,167 163.6,167 163.6,168.2 
						156.5,168.2 156.5,157.8 163.6,157.8 163.6,159.1 					"/>
					<path class="st16" d="M170.4,168.2v-10.4h5.2c0.9,0,1.6,0.2,2.1,0.5c0.4,0.3,0.7,0.7,0.9,1.2c0.1,0.3,0.1,0.8,0.1,1.3
						c0,1.1-0.2,1.8-0.6,2.2c-0.3,0.2-0.6,0.4-1.1,0.5c1,0.1,1.5,0.7,1.5,2v2.7h-1.4v-2.5c0-0.6-0.1-1.1-0.4-1.3
						c-0.2-0.2-0.4-0.3-0.8-0.3c-0.1,0-0.3,0-0.6,0h-3.6v4.1H170.4z M171.8,162.9h3.4c0.7,0,1.2-0.1,1.5-0.3
						c0.4-0.2,0.5-0.7,0.5-1.4c0-0.9-0.1-1.5-0.2-1.7c-0.2-0.3-0.7-0.4-1.4-0.4h-3.8V162.9z"/>
					<polygon class="st16" points="195.3,157.8 195.3,168.2 193.2,168.2 187.5,159.1 187.5,168.2 186.1,168.2 186.1,157.8 
						188.2,157.8 193.9,166.9 193.9,157.8 					"/>
					<polygon class="st16" points="214,157.8 214,168.2 212.6,168.2 212.6,159.1 208.8,168.2 207.5,168.2 203.7,159.1 203.7,168.2 
						202.3,168.2 202.3,157.8 204.5,157.8 208.2,166.7 211.8,157.8 					"/>
					<polygon class="st16" points="222.8,159.1 222.8,162.2 228.3,162.2 228.3,163.5 222.8,163.5 222.8,167 228.5,167 228.5,168.2 
						221.4,168.2 221.4,157.8 228.5,157.8 228.5,159.1 					"/>
					<polygon class="st16" points="244.4,157.8 244.4,168.2 242.3,168.2 236.6,159.1 236.6,168.2 235.1,168.2 235.1,157.8 
						237.2,157.8 242.9,166.9 242.9,157.8 					"/>
					<polygon class="st16" points="256.3,159.2 256.3,168.2 254.8,168.2 254.8,159.2 251.4,159.2 251.4,157.8 259.7,157.8 
						259.7,159.2 					"/>
				</g>
				<g>
					<path class="st16" d="M224.8,44.1c-1.2-1.8-2.5-3.4-4.1-4.8c-3.9-3.3-8.5-5.2-13.4-6.6c-5.4-1.5-10.9-2-16.5-2.2
						c-0.5,0-0.9,0.1-1.2,0.4c-5.3,3.7-10.6,7.2-16.2,10.5c-5.1,3-10.2,5.8-15.8,7.8c-0.6,0.2-0.8,0.1-1-0.5
						c-2.3-6.9-5.8-13.2-10.2-19c-1-1.4-2.2-2.4-3.9-2.7c-0.6-0.1-1-0.1-1.4,0.3c-2.2,2.2-4.4,4.5-6.6,6.7c-0.4,0.4-0.5,0.4-0.9,0
						c-1.5-1.9-3.2-3.6-4.9-5.3c-0.1-0.1-0.2-0.3-0.5-0.2c-1.1,0.5-2.4,0.5-3.4,1.6c-4.1,4.6-7.2,9.8-9.8,15.4
						c-0.2,0.3-0.3,0.7-0.5,1c-0.1,0.3-0.3,0.6-0.5,1.1c-0.1-0.3-0.1-0.4-0.2-0.5c-1.3-6.8,0.1-13.1,4-18.8c0.4-0.5,0.4-0.9,0.1-1.5
						c-4.6-8.9-4.3-17.6,1.2-26c0.1-0.1,0.3-0.2,0.1-0.5c-0.3,0.1-0.6,0.1-0.9,0.2c-7.3,1.3-14,4.2-19.5,9.3
						c-6.9,6.3-10.4,14.1-9.9,23.5c0.3,6.2,2.4,11.7,6.2,16.6c1.3,1.6,2.7,3,4.3,4.5c-0.4,0.1-0.6,0-0.8-0.1
						c-3.2-0.8-6.2-1.9-9.2-3.1c-8.9-3.7-17.2-8.6-25-14.4c-0.3-0.2-0.6-0.5-1-0.4c-4.5,0.4-8.5,2-12,4.8c-4.3,3.4-7.2,8-9.4,13
						c-0.9,2.1-1,3.9-0.1,6.1c4.8,12.3,12.2,22.8,22.3,31.3c0.5,0.4,0.8,0.8,0.6,1.5c-0.4,1.8-0.5,3.6-0.3,5.4
						c0.6,5.4,3.3,9.8,7.5,13.1c8.8,6.7,18.6,7.8,29,4.5c0.7-0.2,0.9-0.2,1.2,0.5c2.3,4.3,6.8,6.5,11.6,5.6c2-0.4,3.8-1.2,5.5-2.3
						c1.7-1.1,3.5-1.7,5.6-1.5c2.2,0.2,4.1,1,5.8,2.4c2,1.6,4.3,2.5,6.9,2.4c5.4-0.2,10.5-1.6,15.2-4.3c3.3-1.9,6-4.5,7.2-8.2
						c0.2-0.5,0.5-0.3,0.7-0.2c9.2,2.6,18.6,3.3,28.1,1.9c5.3-0.8,10.4-2.4,15-5.3c7.5-4.7,11.6-11.4,11.6-20.4
						c0-3.7-0.8-7.4-2.2-10.8c-0.2-0.4-0.2-0.8,0.1-1.2c0.9-1.2,1.7-2.5,2.5-3.8c4.4-6.8,7.8-14,9.4-22
						C225.8,46.8,225.7,45.5,224.8,44.1z M126.7,32.8c0.4,0,0.6,0.3,0.8,0.6c1.8,2.3,3.5,4.6,5.6,6.6c0.5,0.5,0.7,0.4,1.2,0
						c2.2-2.2,4.6-4.3,6.6-6.6c0.4-0.5,0.9-0.4,1.4-0.2c0.9,0.4,1.6,1.2,2.2,1.9c2,2.5,3.5,5.4,4.8,8.3c1.2,2.4,2.2,4.9,3.2,7.4
						c0,0.1,0,0.2,0.1,0.4c0,0,0,0,0,0h0c0,0,0,0,0,0c0,0,0,0,0.1,0.1c0,0,0,0-0.1,0c0,0,0,0,0-0.1c0,0,0,0,0,0c0,0,0,0,0,0
						c-0.6-0.1-1.1-0.3-1.7-0.5c-0.6-0.2-1.1-0.4-1.7-0.6c-4.5-1.1-9.2-1.3-13.8-1.3c-1.1,0-2.2,0-3.3,0c2.9-2.8,5.6-5.9,7.6-9.4
						c-0.3-0.2-0.4,0.1-0.6,0.2c-1.9,1.7-4,3.2-6.1,4.8c-0.5,0.3-0.7,0.3-1.1-0.1c-2.8-2.8-4.5-6.2-5.1-10.1
						C126.7,33.8,126.6,33.3,126.7,32.8z M148.3,53.1c-9.8,3.4-19.9,5-30.3,4.7C127.5,52,137.7,51.3,148.3,53.1z M111.5,23
						c0.1,0.3,0.2,0.6,0.3,0.8c0.4,1.1,0.4,1.1-0.6,1.4c-2.8,0.7-5.5,1.9-7.9,3.6c-0.1,0.1-0.2,0.3-0.6,0.2c0.8-6.1,3.2-11.4,7.5-16
						c0,1.4,0.1,2.6-1,3.6c-0.4,0.3-0.7,0.7-1,1.1c-0.3,0.4-0.5,0.9-0.7,1.4c0,0.1,0,0.1,0.1,0.2c0,0.1,0.1,0.1,0.1,0.1
						c0,0,0.1,0,0.1,0c0.7-0.4,1.3-0.8,2-1.2c0.3-0.2,0.5-0.2,0.6,0.3c0.3,1.7,0.3,1.7-1.1,2.6c-1.3,0.8-2.4,1.9-3.4,3.3
						c0.8-0.1,1.3-0.5,1.8-0.7c0.9-0.4,1.9-0.7,2.9-1.1C111.1,22.3,111.4,22.5,111.5,23z M111.7,54.2c-3.9-3.8-6.6-8.3-8.1-13.5
						c-0.5-1.8-0.8-3.7-1-5.5c0-0.4,0.1-0.8,0.3-1.1c1.4-2.2,3.4-3.5,5.7-4.5c1-0.4,2-0.8,3.2-1C107.3,37.1,107.5,45.7,111.7,54.2z
						 M107.3,54.3c0,0,0,0.1-0.1,0.1c0,0,0,0,0,0C107.2,54.3,107.3,54.3,107.3,54.3C107.3,54.3,107.3,54.3,107.3,54.3z M97.4,18.7
						c2.7-4.6,6.4-7.9,11.2-10.2c0.7-0.3,1.4-0.5,2.1-0.8c-5.7,4.9-9.2,11-10.8,18.5c-0.9-1.5-1.5-2.9-2.5-3.9
						C96,21,96.7,19.9,97.4,18.7z M97.2,43.6c-3.1-6-3.7-12.3-2.2-18.8c0.3,0,0.3,0.1,0.4,0.2c1.9,2.8,3.4,5.7,3.9,9
						c0.3,2.2,0.5,4.4,1,6.6c1.2,4.8,3.4,9.2,6.5,13c0.1,0.1,0.2,0.3,0.3,0.4c0,0,0,0.1,0,0.3C102.8,51.7,99.4,48.1,97.2,43.6z
						 M99.8,54.2L99.8,54.2L99.8,54.2L99.8,54.2z M99.6,102.3c-0.2,0.8-0.4,1.6-0.3,2.4c0.2,1.3,0.2,2.5,0.6,3.7
						c0.1,0.4-0.2,0.5-0.5,0.6c-3.3,1.4-6.7,2.2-10.3,2.2c-5,0-9.7-1.3-13.7-4.5c-3.8-3-5.6-7.1-5.9-11.8c0,0,0-0.1,0.1-0.2
						c0.2,0.4,0.4,0.7,0.5,1c1.3,1.9,2.9,3.4,5.1,4.1c3,0.9,5.7,0.2,8.3-1.2c3.6-1.9,6.4-4.6,9.2-7.5c3.7-4,7.7-7.4,12.8-9.5
						c4.9-2,9.9-2.5,14.9-0.6c0.5,0.2,1,0.5,1.5,0.7c-0.1,0.3-0.4,0.3-0.6,0.4c-1.2,0.5-2.4,1.2-3.4,2.2c-1.7,1.7-2.3,3.7-1.9,6.1
						c0.1,0.5,0,0.7-0.5,0.9c-2.5,1-5,1.8-7.6,2.5C103.5,94.9,100.7,97.8,99.6,102.3z M121.7,78.1c-0.3-0.1-0.5-0.2-0.8-0.3
						c-0.6-0.2-1-0.5-0.9-1.2c0.1-0.7,0.6-0.9,1.1-1c0.4-0.1,0.8-0.2,0.6,0.5C121.5,76.7,121.6,77.4,121.7,78.1z M120.2,73.7
						c-0.1,0-0.3,0.1-0.5,0.1c-1.8,0.4-2.3,1.2-1.9,3.1c-2.1-0.5-4.1-0.5-6.2-0.3c1.4-0.9,1.4-2.6,2.1-3.9c0.8-1.5,2.4-1.9,3.9-2
						c1.7-0.2,3.4,0,5,0.4c0.5,0.1,0.6,0.3,0.3,0.7c0,0,0,0,0,0.1C122.4,73,121.8,74,120.2,73.7z M155.2,106.6
						c-0.8,1.5-1.9,2.7-3.3,3.7c-3,2.2-6.4,3.4-10,4.1c-1.1,0.2-2.3,0.4-3.5,0.5c-2.2,0.2-3.9-0.5-5.4-2.1c-1.1-1.2-2.1-2.6-3-4
						c-0.9-1.5-2-2.8-3.5-3.7c-1.9-1.1-3.8-1.3-6.1-0.4c3.8,0.7,5.8,3.1,7.2,6.5c-1-0.4-1.9-0.8-2.8-0.9c-2.9-0.4-5.4,0.4-7.8,1.9
						c-1.1,0.7-2.1,1.3-3.3,1.7c-2.6,0.8-5.1,0-6.6-2.2c-1.5-2.3-2.6-4.7-2.9-7.5c-0.3-3.6,1.2-6,4.6-7.2c1.8-0.6,3.6-0.9,5.4-1.6
						c2.3-0.9,4.6-2,6.3-3.9c0.1-0.1,0.2-0.3,0.4-0.4c0.9-1.2,0.9-1.2-0.3-2.1c-1.2-0.9-1.3-1.9,0-2.8c1.8-1.3,3.8-1.9,5.9-2.3
						c3.8-0.7,7.6-0.7,11.4-0.5c0.5,0,0.9,0.2,1.4,0.4c0.7,0.3,1,0.8,0.9,1.6c-0.1,0.9,0.1,1.3,1.1,1.5c0.6,0.2,1.2,0.2,1.8,0.1
						c0.6-0.1,1.1,0,1.5,0.4c4.4,3.5,8.1,7.5,10.4,12.7C156,102.1,156.4,104.3,155.2,106.6z M133.9,73.3c0.5,0.2,1,0.4,1.4,0.9
						c0.7,0.8,0.6,1.5-0.4,1.9c-1.2,0.5-2.3,1.1-3.5,1.8c-0.2-1,0.2-1.7,0.8-2.5c-0.9-0.3-1.7-0.2-2.5,0c-0.4,0.1-0.6,0.3-0.5,0.8
						c0.5,1.6-0.4,3.2-2,3.6c-1.6,0.5-3.2-0.4-3.7-2c-0.3-0.8-0.2-1.6,0.2-2.3c1.3-2.5,2.6-5.1,3.9-7.6c0.4-0.9,0.8-0.9,1.5-0.2
						c0.7,0.7,1.2,1.7,2,2c0.8,0.3,1.8-0.6,2.7-0.9c3.2-1.1,6.4-1.7,9.7-0.7c2.2,0.6,4,1.9,5.3,3.9c-1.1,0.1-2.1,0.2-3.1,0.3
						c-1.8,0.2-3.4,1-5.2,1.1c-1.6,0.1-3.2-0.1-4.6-0.9c-1.2-0.7-2.4-1.1-3.8-0.9c-1,0.1-1.8,0.6-2.5,1.4
						C131.1,72.8,132.5,72.8,133.9,73.3z M207.4,95.4c-2.6,3.1-6.1,4.9-9.8,6.4c-4.9,1.9-10,2.8-15.3,2.9c-7.4,0.1-14.6-1.3-21.5-4
						c-0.3-0.1-0.5-0.2-0.7-0.5c-1-1.7-2-3.4-3-5.1c-1.4-2-2.7-4-4.3-5.8c-1.9-2.1-3.8-4.1-6.5-5.3c-0.8-0.3-1.5-0.5-2.4-0.6
						c-0.2,0-0.4,0.1-0.5-0.2c-0.2-0.9-0.9-1.3-1.7-1.6c-1.6-0.7-3.3-0.8-5-0.8c-0.4,0-0.9,0-1.5,0c1.6-1.4,3.2-2.3,5-3
						c4.8-2,9.7-2.4,14.8-1.8c7.3,0.8,14,3.5,20.4,7c4.8,2.6,9.8,4.9,15.1,6.2c4.1,1,8.3,1.4,12.4,0.3c2.8-0.8,5.2-2.1,7.1-4.5
						c0,0,0.1-0.1,0.1-0.1c0,0,0,0.1,0.1,0.1c0,0.1,0.1,0.2,0.1,0.3C211,89.1,209.9,92.5,207.4,95.4z M154.7,70.8
						c0.5-0.6,1-1.2,1.7-1.7c1-0.6,1.8-0.5,2.6,0.3c1.1,1.2,1.5,2.6,2,4.3c-2-0.6-3.8-1.1-5.7-1.4C153.8,72.1,153.8,72,154.7,70.8z
						 M217.5,43.6c-6.6-2-13.3-3.1-20.1-3.5c-1.8-0.1-3.5-0.2-5.3-0.3c-0.6,0-1.1,0.2-1.6,0.5c-10,7.6-20.9,13.6-32.6,18
						c-8.2,3.1-16.7,5.2-25.4,6.1c-7.6,0.8-15.2,0.8-22.8,0.1c-10.3-1-20.1-3.5-29.5-7.8c-5.7-2.7-11.1-6-16.3-9.4
						c-0.2-0.1-0.5-0.2-0.7-0.4c-1-1-2.1-0.8-3.3-0.4c-4.4,1.6-8.1,4.1-11.7,7.1c-0.2,0.2-0.4,0.5-0.8,0.4c1.3-2,2.6-3.9,4.1-5.6
						c2.2-2.5,4.7-4.7,7.9-5.9c0.6-0.2,1.3-0.4,2-0.5c0.8-0.1,1.5-0.1,2.3,0.5c7.9,6.3,16.8,10.9,26.3,14.2c8.3,2.9,16.9,4.6,25.7,5
						c12.6,0.7,24.9-1.2,36.8-5.2c10.9-3.6,20.9-8.8,30.5-15.1c2.6-1.7,5.2-3.5,7.7-5.4c0.3-0.2,0.5-0.3,0.9-0.3
						c7.7,1,15.3,2.4,22.5,5.6c1,0.5,2,1,3,1.7c0.4,0.3,0.7,0.5,1.1,0.8C217.8,43.8,217.7,43.7,217.5,43.6z"/>
					<path class="st16" d="M135,87.5c-2.6,0.1-5.3,0.4-7.9,1c-0.3,0.1-0.7,0.2-0.6,0.6c0.1,0.4,0.4,0.5,0.8,0.5
						c0.6,0,1.1-0.1,1.7-0.1c0.7,0,1.5,0,2.2,0.1c0.2,0,0.5,0.1,0.7,0.1c1.6,0.4,1.9,1.1,1.1,2.5c-0.2,0.3-0.2,0.6,0.1,0.8
						c0.3,0.2,0.5,0.1,0.8-0.1c1.4-1.3,2-2.8,2-4.7C135.8,87.7,135.5,87.5,135,87.5z"/>
				</g>
			</g>
		</g>
	</g>
	<g id="home">
	</g>
	<g id="NAVBAR">
		<g id="navBar">
		</g>
		<g id="mouseOver_1_">
		</g>
	</g>
</g>
<g id="Layer_11">
</g>
</svg>
