<?xml version="1.0" encoding="utf-8"?>
<!-- Generator: Adobe Illustrator 19.0.1, SVG Export Plug-In . SVG Version: 6.00 Build 0)  -->
<svg version="1.1" id="Layer_1" xmlns="http://www.w3.org/2000/svg" xmlns:xlink="http://www.w3.org/1999/xlink" x="0px" y="0px"
	 viewBox="9.7 2.7 243.7 107" style="enable-background:new 9.7 2.7 243.7 107;" xml:space="preserve">
<g>
	<polygon points="174.3,32 175.3,32 175.3,38.4 178.3,38.4 178.3,39.2 174.3,39.2 	"/>
	<path d="M182.5,36.9l-0.7,2.3h-1l2.4-7.2h1.1l2.4,7.2h-1l-0.8-2.3H182.5z M184.8,36.2l-0.7-2.1c-0.1-0.5-0.3-0.9-0.4-1.3h0
		c-0.1,0.4-0.2,0.9-0.4,1.3l-0.7,2.1H184.8z"/>
	<path d="M189.6,38c0.4,0.3,1,0.5,1.7,0.5c1,0,1.5-0.5,1.5-1.2c0-0.7-0.4-1.1-1.4-1.4c-1.2-0.4-1.9-1-1.9-2c0-1.1,0.9-2,2.3-2
		c0.7,0,1.3,0.2,1.6,0.3l-0.3,0.8c-0.2-0.1-0.7-0.3-1.4-0.3c-1,0-1.4,0.6-1.4,1.1c0,0.7,0.4,1,1.4,1.4c1.2,0.5,1.8,1.1,1.8,2.1
		c0,1.1-0.8,2.1-2.5,2.1c-0.7,0-1.4-0.2-1.8-0.5L189.6,38z"/>
	<path d="M202.7,39.2l-2.4-7.2h1l1.1,3.5c0.3,1,0.6,1.9,0.8,2.7h0c0.2-0.8,0.5-1.7,0.8-2.7l1.2-3.6h1l-2.6,7.2L202.7,39.2
		L202.7,39.2z"/>
	<polygon points="212.7,35.8 209.9,35.8 209.9,38.4 213,38.4 213,39.2 209,39.2 209,32 212.9,32 212.9,32.7 209.9,32.7 209.9,35 
		212.7,35 	"/>
	<path d="M221.6,38.8c-0.4,0.2-1.2,0.4-2.2,0.4c-1.1,0-2-0.3-2.7-0.9c-0.6-0.6-1-1.6-1-2.7c0-2.1,1.5-3.7,3.9-3.7
		c0.8,0,1.5,0.2,1.8,0.3l-0.2,0.8c-0.4-0.2-0.9-0.3-1.6-0.3c-1.8,0-2.9,1.1-2.9,2.9c0,1.8,1.1,2.9,2.8,2.9c0.6,0,1-0.1,1.2-0.2v-2.1
		h-1.4v-0.8h2.4V38.8L221.6,38.8z"/>
	<path d="M226.1,36.9l-0.7,2.3h-1l2.4-7.2h1.1l2.5,7.2h-1l-0.8-2.3H226.1z M228.5,36.2l-0.7-2.1c-0.1-0.5-0.3-0.9-0.4-1.3h0
		c-0.1,0.4-0.2,0.9-0.4,1.3l-0.7,2.1H228.5z"/>
	<path d="M233.3,38c0.4,0.3,1,0.5,1.7,0.5c0.9,0,1.5-0.5,1.5-1.2c0-0.7-0.4-1.1-1.4-1.4c-1.2-0.4-1.9-1-1.9-2c0-1.1,0.9-2,2.3-2
		c0.7,0,1.3,0.2,1.6,0.3l-0.3,0.8c-0.2-0.1-0.7-0.3-1.4-0.3c-1,0-1.4,0.6-1.4,1.1c0,0.7,0.4,1,1.4,1.4c1.2,0.5,1.8,1.1,1.8,2.1
		c0,1.1-0.8,2.1-2.5,2.1c-0.7,0-1.4-0.2-1.8-0.5L233.3,38z"/>
	<path d="M33.8,53.3c-0.4,0,0,0.9-0.1,1.3c-0.1,0.4-0.4,2.4-0.4,2.8c-0.4,4.3,3,3.6,5.8,4.5c1.6,0.2,8.7-0.9,17.5-9.1
		c3.6-3.4,7-6.2,12-12.7c5.9-7.6,3.9-6.8,9.3-14.3c1.3-2.1,2.6-4.1,4-6.2c1.9-2.7,4.5-5.7,5.3-8.9C88,8,86,3,82.9,2.8
		c-0.1-0.2-2.1,0.4-2,1.6c0.4,2,0.6,5.1-0.1,6.9c-1.7,4-4.6,7.5-6.7,11.5c-9.2,17.1-20,27.1-30.5,33.8c-0.8,0.5-4.7,1.9-5.5,0.5
		c-2.2-4.4,7.7-14.3,9.1-18.3c0-0.6,0.1-1.1,0.1-1.7c-0.2-0.4-0.4-0.8-0.6-1.3c-0.6-0.5-1.4-0.5-2.2-0.5c-0.1,0-0.3,0-0.4,0.1
		c-0.1,0-0.3,0.1-0.4,0.1c-2.8,1.1-4.3,4.3-6.6,6.3c-2.9,2.5-6.1,4.9-9.3,6.9c-1.8,1.2-4.5,3.2-5.5,3.9c-1,0.7-4.2,3-6.3,2.4
		c-1.1-0.3-1.2-1.7-1-2.7c0.8-3.4,4.6-6.5,7.1-8.9c2.6-2.5,5.1-6,6.9-9.1c0.8-1.3,1.9-2.8,1.9-4.4c-0.1-6.6-8.4,1.9-9.4,4
		c0.1,0,0.1,0,0.2,0c-0.7,0.7-1.3,1.4-2,2.1C16.1,42.2,3.6,54.7,13.3,61c1.5,0.9,3.6,1.2,7.1-0.9C23,58.6,31.3,52.7,33.8,53.3"/>
	<path d="M79.1,71.6c-2.3,15-7.2,24.7-22.1,30.1c-1,0.4-4.5,1.3-5,1.4c-7.7,0.6-13.3,0.8-19-3.1c-1.2-0.8-2.4-3.5-2.2-5.2
		c0.8-5.1,4.9-8.5,8.6-12.1c5.1-5.1,10.3-9.7,15.9-14c3.4-2.5,6.7-5,10.1-7.5c1.1-0.1,2.3,0.3,3.6,0.2c2.6-0.4,7.9-2.6,10-4.2
		c0.1-0.3,1.6-0.8,1.8-0.1c0.2,0.8,0.3,1.5,0.4,2.3C81.2,63.6,79.7,67.5,79.1,71.6 M172.5,61.7c1.2-0.2,17.8-4.7,25.4-3.9
		c3.5,0,13.7,3.2,17,3.4c2.7,0.3,12.6,0.5,12.8,0.5c3.3,0,6.7,0.2,8.8-2.8c0.5-0.7-0.1-1.2-0.7-1.4c-2.8-0.9-8.1-0.6-9.6-0.4
		c-13.3,1-16.8-2.2-29.3-3.1c-3.4-0.2-24.2,3.8-24.8,3.9c0,0-2.7,0.5-5.4,1.3c-2.8,0.7-3-1.9-3.1-2.8c-0.1-0.9,1.1-6.2,1.4-7.4
		c0.6-2.5-0.6-4.4-1.8-4.5c-1.3-0.1-3.7,1.5-4.7,2.3c-1,0.9-8,5.6-10,7.3c-2,1.7-2.7-0.5-2.1-1.4c0.5-0.9,1.7-3.9,2.3-5.7
		c0.6-1.8-0.6-3-1.7-3.5c-1.1-0.5-3.3,0.8-3.9,1.5c-0.6,0.6-4,3-6.3,4.6c-2.2,1.6-8.2,4.9-10.8,6.2c-2.7,1.3-2.7-1.9-2.4-3.4
		c0.2-1.5,0.8-3.9,1.2-6.5c0.4-3.4-2.9-2.7-4.1-2c-1.3,0.6-11.6,7.9-13,8.9c-1.4,1.1-1.4-0.8-1.3-1.4c0.1-0.6,0.3-1.9,1.5-4.5
		c1.2-2.6,0.2-3.3,0-4.5c-0.2-1.2-2.8-0.6-4.8,0.2c-1.1,0.5-13.4,4.9-13.9,5c-0.4,0-0.8,0.1-1.2,0.1c0-0.1-0.2-0.1-0.2-0.4
		c0-1.3-0.6-2.4-2.1-2.1c-3.2,0.4-4.9,3.3-7.3,5.2c-3.3,2.6-6.6,5.5-10.4,7.3c-1.1,0.6-0.9-2-0.1-3c5.1-6.1,3.2-4,5.6-6.7
		c1.8-2.4,4.3-5,5.3-7.8c0.8-2.6-0.4-6.8-3.2-7.1c-1-0.1-1.8,0.8-1.8,1.5c0.1,1.8-0.1,3.9-0.9,5.5c-1.6,3.6-4,7-6.6,10.1
		c-3.8,4.5-4,8.3-4,8.3s-5.9,3.9-8.2,5.9c-3.7,3.1-7.4,6.1-11.1,9.2c-6.4,5.8-22.2,16.5-16.9,26.8c1.1,2.2,2.9,4.2,5.2,5.4
		c3.4,1.8,8,3.8,12.3,3.5c0.3,0.1,0.7,0.1,1,0.1c3.4,0.1,7-0.4,10.1-1.4c20.3-6.5,33-28.6,31.4-50.3c-0.1-1.2,0.6-2.7,1.5-3.5
		c2.1-1.9,10.2-7,12.7-7.4c3.1-0.5,1.7,4.2,1.3,5.6c-0.4,1.5-1.7,3.6-1.9,5.4c-0.2,1.8,1.6,2.6,3,3.1c1.8,0.6,4.5-1.7,5.3-2.4
		c0.8-0.7,8.6-7.4,10-8.4c1.4-1,1.6,1.2,1.4,2.1c-0.2,1-0.8,3.5-1,5.1c-0.1,1.6,0.2,3.3,1.6,4.1c1.4,0.9,2.8,0.2,4.4-0.7
		c1.6-1,11.6-7.5,12.4-8c0.9-0.4,3.3-2.3,4.9-2.8c1.6-0.4,1.5,1.4,0.7,3c-0.3,0.6-1,3.6-1.3,5.1c-0.3,1.5-0.4,3.1,1.4,4.6
		c1.4,1.2,4.7-2,5.5-2.8c0.8-0.7,8.2-7.3,9.6-8.2c1.4-0.9,2,1.2,1.5,3.2c-0.6,2.3-0.8,4.5-0.4,5.3c1,1.8,2.8,2.8,7.3,2.3
		C166.8,62.8,172.5,61.7,172.5,61.7"/>
	<path d="M241.3,59.8c0.5,1.3,1.3,2.4,3.5,2.8c1,0.2,2.3-0.4,2.5-1.1c0.2-0.9,0.7-1.3,0.5-2.4c-0.3-1.4-1.3-2.4-3.5-2.8
		c-1-0.2-2.3,0.4-2.5,1.1C241.5,58.2,240.9,58.7,241.3,59.8"/>
	<path d="M251.5,62.7c1,0,1.9,0.8,1.9,1.9c0,1-0.8,1.9-1.9,1.9c-1,0-1.9-0.8-1.9-1.9C249.7,63.5,250.5,62.7,251.5,62.7z M251.5,66.1
		c0.8,0,1.5-0.7,1.5-1.5c0-0.8-0.7-1.5-1.5-1.5c-0.8,0-1.5,0.7-1.5,1.5C250,65.4,250.7,66.1,251.5,66.1z M250.8,63.5h0.8
		c0.5,0,0.8,0.2,0.8,0.6c0,0.4-0.2,0.5-0.5,0.6l0.6,0.9H252l-0.5-0.9h-0.3v0.9h-0.4V63.5L250.8,63.5z M251.2,64.4h0.3
		c0.2,0,0.5,0,0.5-0.3c0-0.3-0.3-0.3-0.5-0.3h-0.3V64.4z"/>
</g>
</svg>
