<?xml version="1.0" encoding="utf-8"?>
<!-- Generator: Adobe Illustrator 19.0.1, SVG Export Plug-In . SVG Version: 6.00 Build 0)  -->
<svg version="1.1" id="Layer_1" xmlns="http://www.w3.org/2000/svg" xmlns:xlink="http://www.w3.org/1999/xlink" x="0px" y="0px"
	 viewBox="0 0 51 15" style="enable-background:new 0 0 51 15;" xml:space="preserve">
<style type="text/css">
	.st0{fill:#CDCAC9;}
	.st1{fill:#FFFFFF;}
	.st2{fill:#3399CC;}
	.st3{fill:#CC6632;}
</style>
<g>
	<path class="st1" d="M2,13.2h7v1.6H0V0h2V13.2z"/>
	<path class="st1" d="M27.6,13.7c-0.3,0.4-0.8,0.7-1.3,0.9c-0.5,0.2-1.2,0.3-1.9,0.3c-0.5,0-1-0.1-1.5-0.2c-0.4-0.2-0.8-0.4-1.1-0.7
		c-0.3-0.3-0.6-0.8-0.7-1.3c-0.2-0.5-0.3-1.1-0.3-1.9V3.8h1.9v7.1c0,0.5,0.1,0.9,0.2,1.2c0.1,0.3,0.3,0.6,0.5,0.8s0.4,0.3,0.6,0.4
		c0.2,0.1,0.5,0.1,0.8,0.1c0.8,0,1.4-0.1,1.8-0.4c0.5-0.3,0.8-0.7,1-1.2v-8h1.9v11h-1.8L27.6,13.7z"/>
	<path class="st1" d="M46.3,7.8l2.4-4h2.2l-3.6,5.4l3.7,5.5h-2.2l-2.5-4.1l-2.5,4.1h-2.2l3.7-5.5l-3.6-5.4h2.2L46.3,7.8z"/>
</g>
</svg>
