<?xml version="1.0" encoding="utf-8"?>
<!-- Generator: Adobe Illustrator 19.0.1, SVG Export Plug-In . SVG Version: 6.00 Build 0)  -->
<svg version="1.1" id="Layer_1" xmlns="http://www.w3.org/2000/svg" xmlns:xlink="http://www.w3.org/1999/xlink" x="0px" y="0px"
	 viewBox="-15.3 375.2 136.9 22.4" style="enable-background:new -15.3 375.2 136.9 22.4;" xml:space="preserve">
<style type="text/css">
	.st0{fill:#FFFFFF;}
	.st1{fill:#3399CC;}
	.st2{fill:#CDCAC9;}
	.st3{fill:#CC6633;}
</style>
<g>
	<path class="st2" d="M-13.5,391.8h-1.8v-16.6h2.7c1.4,0,2.9,0,4.1,0.9c1.2,0.9,1.9,2.3,1.9,3.8c0,1.3-0.6,2.7-1.6,3.6
		c-1.1,0.9-2.6,1.1-3.9,1.1h-1.3V391.8z M-13.5,382.8h1.2c2,0,3.8-0.6,3.8-3c0-2.7-2.2-2.9-4.3-2.9h-0.7V382.8z"/>
	<path class="st2" d="M3.6,386.6c0-3,2.4-5.5,5.4-5.5c3,0,5.4,2.4,5.4,5.5c0,3-2.4,5.4-5.4,5.4C6,392,3.6,389.6,3.6,386.6z
		 M5.4,386.6c0,2.1,1.5,3.8,3.7,3.8c2.2,0,3.7-1.7,3.7-3.8c0-2.1-1.5-3.8-3.7-3.8C6.9,382.8,5.4,384.5,5.4,386.6z"/>
	<path class="st2" d="M27.5,382.5L27.5,382.5c0.6-0.9,1.5-1.4,2.5-1.4c1.2,0,2.3,0.6,2.9,1.7c0.6-1.1,1.8-1.7,3.1-1.7
		c2.6,0,3.3,2.2,3.3,4.3v6.3h-1.8v-6c0-1.3-0.1-3-1.9-3c-2,0-2.2,2-2.2,3.5v5.5h-1.8v-5.9c0-1.3-0.2-3.1-1.8-3.1
		c-2.1,0-2.3,2.1-2.3,3.7v5.3h-1.8v-10.3h1.8V382.5z"/>
	<path class="st2" d="M53.1,382.9L53.1,382.9c0.9-1.1,2.2-1.8,3.6-1.8c3,0,5,2.6,5,5.5c0,2.9-1.9,5.4-5,5.4c-1.4,0-2.7-0.6-3.5-1.7
		h0v7.3h-1.8v-16.2h1.8V382.9z M53,386.5c0,2,1.2,3.9,3.4,3.9c2.3,0,3.5-1.8,3.5-3.9c0-2.1-1.3-3.7-3.5-3.7
		C54.3,382.8,53,384.5,53,386.5z"/>
	<path class="st2" d="M72,386.6c0-3,2.4-5.5,5.4-5.5c3,0,5.4,2.4,5.4,5.5c0,3-2.4,5.4-5.4,5.4C74.4,392,72,389.6,72,386.6z
		 M73.7,386.6c0,2.1,1.5,3.8,3.7,3.8c2.2,0,3.7-1.7,3.7-3.8c0-2.1-1.5-3.8-3.7-3.8C75.2,382.8,73.7,384.5,73.7,386.6z"/>
	<path class="st2" d="M98.2,383.8c-0.2-0.5-0.8-1.1-1.4-1.1c-0.6,0-1.3,0.5-1.3,1.1c0,0.9,1.2,1.3,2.4,1.8c1.2,0.5,2.4,1.2,2.4,3
		c0,2-1.6,3.4-3.5,3.4c-1.7,0-3.1-1-3.7-2.6l1.6-0.7c0.4,1,0.9,1.7,2.1,1.7c0.9,0,1.7-0.6,1.7-1.6c0-2.3-4.7-1.5-4.7-4.8
		c0-1.7,1.4-2.9,3.1-2.9c1.2,0,2.3,0.8,2.8,1.9L98.2,383.8z"/>
	<path class="st2" d="M110.7,386.6c0-3,2.4-5.5,5.4-5.5c3,0,5.4,2.4,5.4,5.5c0,3-2.4,5.4-5.4,5.4S110.7,389.6,110.7,386.6z
		 M112.5,386.6c0,2.1,1.5,3.8,3.7,3.8c2.2,0,3.7-1.7,3.7-3.8c0-2.1-1.5-3.8-3.7-3.8C114,382.8,112.5,384.5,112.5,386.6z"/>
</g>
</svg>
