<?xml version="1.0" encoding="utf-8"?>
<!-- Generator: Adobe Illustrator 19.0.1, SVG Export Plug-In . SVG Version: 6.00 Build 0)  -->
<svg version="1.1" xmlns="http://www.w3.org/2000/svg" xmlns:xlink="http://www.w3.org/1999/xlink" x="0px" y="0px"
	 viewBox="0 0 67.7 40.3" style="enable-background:new 0 0 67.7 40.3;" xml:space="preserve">
<style type="text/css">
	.st0{fill:#FFFFFF;}
	.st1{fill:#3399CC;}
	.st2{fill:#FF9966;}
	.st3{fill:#382C3D;}
	.st4{fill:#221F20;}
	.st5{fill:#FFCC66;}
	.st6{fill:#3D220E;}
	.st7{fill:none;stroke:#FFFFFF;stroke-width:0.5618;stroke-miterlimit:10;}
	.st8{fill:#CDCBCA;}
	.st9{fill:#669897;}
	.st10{clip-path:url(#SVGID_4_);}
	.st11{fill:none;stroke:#FFFFFF;stroke-width:2.3528;stroke-miterlimit:10;}
	.st12{fill:#CC6632;}
	.st13{display:none;}
	.st14{display:inline;fill:#3D220E;}
	.st15{display:inline;fill:#FF9966;}
	.st16{display:inline;}
	.st17{display:inline;fill:#382C3D;}
	.st18{fill:#CDCAC9;}
	.st19{display:inline;fill:#FFFFFF;}
	.st20{fill:#FDCC66;}
	.st21{display:inline;fill:#669897;}
	.st22{display:inline;fill:#362012;}
	.st23{fill:url(#SVGID_5_);}
	.st24{fill:url(#SVGID_6_);}
	.st25{fill:url(#SVGID_7_);}
	.st26{fill:#999999;}
	.st27{fill:#CC6633;}
	.st28{opacity:0.5;fill:#653614;}
	.st29{opacity:0.69;fill:#FF9966;}
</style>
<g id="contact">
</g>
<g id="about">
	<g>
		<path class="st0" d="M20.8,1.8c0.4-0.7,0-1.5-0.8-1.8c-0.9-0.3-1.1,0.5-1.3,1.2c-1.2,2.7-1.7,5.6-2.3,8.4c-0.5,2.5-1.8,4.8-2,7.3
			c-0.2,1.8-0.7,2.2-2.5,1.9c-1.1-0.2-2.2-0.4-3.2,0.4c-2.7,2.3-4.8,5.1-6.7,8c-1.1,1.7-1.9,3.4-1.9,5.5c0,0.5-0.1,1.1-0.1,1.6
			c0.1,1.1,0.3,2.2,0.6,3.2c0.4,1.5,2.2,3.1,3,2.7c1.8-1,4-1.7,4.8-3.9c0.5-1.2,0.7-2.7,1.5-3.7c1.8-2.3,3.1-4.7,4.1-7.4
			c1.4-3.5,2.4-7.1,3.4-10.8C18.6,10.2,18.5,5.7,20.8,1.8z M10.9,24.4c-1.2,3-2,6.1-4.5,8.4c-0.7,0.6-1.5,0.8-2.3,1.2
			c-1-0.5-1.6-1.6-1.3-2.5c1.1-3.5,2.4-7,6.1-8.6c0.5-0.2,1-0.5,1.5,0C10.8,23.4,11.1,23.9,10.9,24.4z"/>
		<path class="st0" d="M36.2,6.5c0-0.6,0-1.2-0.5-1.4c-0.5-0.2-1,0.1-1.3,0.5c-1.1,1.2-1.9,2.6-2.2,4.2c-0.6,3.1-1.7,6.1-2.7,9.1
			c-1.6,4.9-3.7,9.6-4.7,14.6c-0.1,0.4-0.2,0.9,0.2,1.2c0.5,0.4,0.9,0.1,1.4,0c0.5-0.2,0.7-0.7,0.9-1.1c0.8-2,1.6-3.9,1.9-6.1
			c0.3-2.4,0.9-4.8,1.8-7.1c1.8-4.3,2.9-8.8,5-12.9C36.1,7.2,36.1,6.8,36.2,6.5z"/>
		<path class="st0" d="M45.4,6.7c0-0.6,0.1-1-0.4-1.3c-0.5-0.3-1,0.1-1.2,0.5c-0.7,1.7-1.4,3.4-2,5.1c-1.7,5.3-3.7,10.6-5.8,15.8
			c-0.9,2.4-1.9,4.9-2.9,7.3c-0.3,0.7-0.4,1.6,0.5,1.9c0.9,0.4,1.3-0.5,1.6-1.1c0.1-0.2,0.1-0.4,0.2-0.5c0.8-2.4,1.8-4.8,2.7-7.2
			c2.5-6.5,4.8-13.2,7.1-19.8C45.2,7.2,45.3,6.9,45.4,6.7z"/>
		<path class="st0" d="M67.7,26.2c-0.1-1.1-0.1-2.2-0.3-3.3c-0.2-1.8-1.6-2.5-3.1-3c-1.5-0.6-2.8-0.2-3.9,0.8c-3,2.6-4.4,6.2-6,9.6
			c-0.3,0.6-0.7,1.4,0.4,1.8c1,0.3,1.5,0.1,1.8-1c1-3,2.7-5.5,4.7-7.9c0.7-0.8,1.5-1,2.4-0.9c1,0.2,1,1,1.2,1.8
			c0.5,1.7,0.1,3.4-0.3,5c-0.1,0.6-0.3,1.2-0.1,1.8c0.2,0.5,0.4,1,1,1c0.6,0,1.1-0.4,1.1-1C66.8,29.2,67.8,27.8,67.7,26.2z"/>
		<path class="st0" d="M51.3,19.2c-1-0.7-2.3-0.5-3.3,0.3c-2.9,2.1-5,4.9-6.2,8.3c-0.5,1.6,0.2,3.9,1.5,4.8c1.2,0.9,3.8,1,4.9,0.2
			c3.1-2.3,4.2-5.8,5.3-9.3C53.8,21.6,52.7,20.3,51.3,19.2z M52.2,23.3c-1.2,2.7-1.7,6.2-5.4,7.4c-1.5,0.5-2.5,0.2-2.6-1.3
			c-0.2-3.4,2.1-6.9,5.2-8.2c1-0.4,1.6,0,2.4,0.5C52.3,22,52.4,22.5,52.2,23.3z"/>
		<path class="st0" d="M22.3,20.6c-0.6-0.1-1.4,0.3-1.5,1c-0.2,1.7-1.4,2.8-2,4.3c-1,2.4-1.9,4.7-2.9,7c-0.1,0.8,0,1.5,0.8,1.8
			c0.8,0.3,1.4-0.1,1.7-0.9c1.4-3.9,2.9-7.8,4.3-11.7C22.9,21.6,23.2,20.8,22.3,20.6z"/>
		<path class="st0" d="M27.3,7c-0.1-1.8,2.6-3.1,2.2-5.2c-3.5,1.3-3.2,3.2-4,4.9c-0.1,0.3,0.2,0.5,0.9,0.6C26.8,7.3,27.3,7.2,27.3,7
			z"/>
	</g>
</g>
<g id="WORK">
	<g id="work">
	</g>
	<g id="mouseOver" class="st13">
	</g>
</g>
<g id="home">
</g>
<g id="NAVBAR">
	<g id="navBar">
	</g>
	<g id="mouseOver_1_">
	</g>
</g>
</svg>
