<?xml version="1.0" encoding="utf-8"?>
<!-- Generator: Adobe Illustrator 19.0.1, SVG Export Plug-In . SVG Version: 6.00 Build 0)  -->
<svg version="1.1" xmlns="http://www.w3.org/2000/svg" xmlns:xlink="http://www.w3.org/1999/xlink" x="0px" y="0px"
	 viewBox="0 0 285.3 19.2" style="enable-background:new 0 0 285.3 19.2;" xml:space="preserve">
<style type="text/css">
	.st0{fill:#FFFFFF;}
	.st1{fill:#3399CC;}
	.st2{fill:#FF9966;}
	.st3{fill:#382C3D;}
	.st4{fill:#3D220E;}
	.st5{fill:none;stroke:#FFFFFF;stroke-width:0.2658;stroke-miterlimit:10;}
	.st6{fill:#CDCBCA;}
	.st7{fill:none;stroke:#FFFFFF;stroke-width:0.5618;stroke-miterlimit:10;}
	.st8{fill:#669897;}
	.st9{fill:#CC6632;}
	.st10{fill:none;stroke:#FFFFFF;stroke-width:1.1126;stroke-miterlimit:10;}
	.st11{fill:#333333;}
	.st12{opacity:0.69;}
	.st13{opacity:0.48;fill:#3399CC;}
	.st14{fill:#CDCAC9;}
	.st15{fill:#362012;}
	.st16{fill:#272223;}
	.st17{fill:url(#SVGID_5_);}
	.st18{fill:url(#SVGID_6_);}
	.st19{fill:url(#SVGID_7_);}
	.st20{fill:#999999;}
	.st21{fill:#CC6633;}
	.st22{opacity:0.5;fill:#653614;}
	.st23{opacity:0.69;fill:#FF9966;}
</style>
<g id="old">
	<g id="contact">
	</g>
	<g id="about">
	</g>
	<g id="WORK">
		<g id="work">
		</g>
		<g id="mouseOver">
			<g>
				<g>
					<path d="M4.3,10.1l0.3,1.9L5,10.3L7.9,0h1.6l2.8,10.3l0.4,1.8l0.3-2L15.4,0h2l-3.6,14.8H12L9,4L8.7,2.9L8.5,4L5.3,14.8H3.6L0,0
						h1.9L4.3,10.1z"/>
					<path d="M33.2,12l2.6-8.2h2l-4.4,12.7c-0.1,0.3-0.2,0.6-0.4,0.9s-0.4,0.6-0.6,0.9c-0.3,0.3-0.6,0.5-0.9,0.7s-0.8,0.3-1.3,0.3
						c-0.1,0-0.2,0-0.3,0s-0.2,0-0.3,0s-0.2,0-0.3-0.1s-0.2,0-0.2,0v-1.5c0,0,0.1,0,0.1,0c0,0,0.1,0,0.1,0c0.1,0,0.1,0,0.1,0
						c0,0,0.1,0,0.1,0c0.3,0,0.6,0,0.8-0.1c0.2-0.1,0.5-0.2,0.6-0.3c0.2-0.1,0.4-0.3,0.5-0.6c0.1-0.2,0.3-0.5,0.4-0.9l0.4-1.1
						L28.4,3.8h2L33.2,12z"/>
					<path d="M51.6,3.8l0.1,1.4C52,4.7,52.5,4.3,53,4c0.6-0.3,1.2-0.4,1.9-0.4c0.5,0,1,0.1,1.4,0.2c0.4,0.1,0.8,0.4,1.1,0.7
						c0.3,0.3,0.5,0.7,0.7,1.2c0.2,0.5,0.2,1.1,0.2,1.8v7.2h-1.9V7.6c0-0.4,0-0.8-0.1-1.1S56.2,5.9,56,5.7c-0.2-0.2-0.4-0.3-0.7-0.4
						s-0.6-0.1-0.9-0.1c-0.6,0-1.1,0.2-1.6,0.5c-0.5,0.3-0.8,0.8-1.1,1.3v7.8h-1.9v-11H51.6z"/>
					<path d="M73.4,3.8l0.1,1.4c0.4-0.5,0.9-0.9,1.4-1.2c0.6-0.3,1.2-0.4,1.9-0.4c0.5,0,1,0.1,1.4,0.2C78.6,4,79,4.2,79.3,4.5
						c0.3,0.3,0.5,0.7,0.7,1.2c0.2,0.5,0.2,1.1,0.2,1.8v7.2h-1.9V7.6c0-0.4,0-0.8-0.1-1.1S78,5.9,77.8,5.7c-0.2-0.2-0.4-0.3-0.7-0.4
						s-0.6-0.1-0.9-0.1c-0.6,0-1.1,0.2-1.6,0.5c-0.5,0.3-0.8,0.8-1.1,1.3v7.8h-1.9v-11H73.4z"/>
					<path d="M111.2,13.2h7v1.6h-8.9V0h2V13.2z"/>
					<path d="M137.3,14.8c-0.1-0.1-0.1-0.3-0.2-0.5s-0.1-0.4-0.1-0.6c-0.2,0.2-0.4,0.4-0.6,0.5c-0.2,0.2-0.5,0.3-0.7,0.4
						s-0.5,0.2-0.8,0.3c-0.3,0.1-0.6,0.1-1,0.1c-0.6,0-1.1-0.1-1.5-0.3c-0.5-0.2-0.8-0.4-1.2-0.7c-0.3-0.3-0.6-0.6-0.7-1
						s-0.3-0.8-0.3-1.3c0-0.6,0.1-1.1,0.3-1.6s0.6-0.8,1-1.1s0.9-0.5,1.6-0.7c0.6-0.2,1.3-0.2,2-0.2h1.9V7.2c0-0.7-0.2-1.2-0.6-1.6
						s-1-0.6-1.7-0.6c-0.4,0-0.7,0-1,0.1c-0.3,0.1-0.5,0.2-0.7,0.4c-0.2,0.2-0.4,0.3-0.5,0.6c-0.1,0.2-0.2,0.4-0.2,0.7h-1.9
						c0-0.4,0.1-0.8,0.3-1.2c0.2-0.4,0.5-0.7,0.9-1c0.4-0.3,0.8-0.6,1.4-0.8c0.5-0.2,1.1-0.3,1.8-0.3c0.6,0,1.1,0.1,1.6,0.2
						s0.9,0.4,1.3,0.7c0.4,0.3,0.6,0.7,0.8,1.2c0.2,0.5,0.3,1,0.3,1.6v5.1c0,0.4,0,0.8,0.1,1.2c0.1,0.4,0.2,0.8,0.3,1.1v0.2H137.3z
						 M134.2,13.3c0.3,0,0.7,0,1-0.1c0.3-0.1,0.6-0.2,0.8-0.4c0.2-0.2,0.5-0.3,0.6-0.5c0.2-0.2,0.3-0.4,0.4-0.6V9.4h-1.6
						c-1.1,0-1.9,0.2-2.5,0.5c-0.6,0.3-0.9,0.8-0.9,1.5c0,0.3,0,0.5,0.1,0.7c0.1,0.2,0.2,0.4,0.4,0.6c0.2,0.2,0.4,0.3,0.7,0.4
						S133.8,13.3,134.2,13.3z"/>
					<path d="M158.6,11.8c0-0.2,0-0.4-0.1-0.6c-0.1-0.2-0.2-0.3-0.4-0.5c-0.2-0.2-0.4-0.3-0.8-0.4c-0.3-0.1-0.8-0.3-1.3-0.4
						c-0.6-0.1-1.2-0.3-1.6-0.5c-0.5-0.2-0.9-0.4-1.2-0.6c-0.3-0.2-0.6-0.5-0.8-0.9c-0.2-0.3-0.3-0.7-0.3-1.2c0-0.4,0.1-0.8,0.3-1.2
						c0.2-0.4,0.5-0.7,0.8-1s0.8-0.5,1.3-0.7c0.5-0.2,1.1-0.3,1.7-0.3c0.7,0,1.2,0.1,1.8,0.3c0.5,0.2,1,0.4,1.3,0.7s0.6,0.7,0.8,1.1
						c0.2,0.4,0.3,0.9,0.3,1.3h-1.9c0-0.2-0.1-0.4-0.2-0.7c-0.1-0.2-0.2-0.4-0.4-0.6c-0.2-0.2-0.4-0.3-0.7-0.4
						c-0.3-0.1-0.6-0.2-1-0.2c-0.4,0-0.7,0-1,0.1c-0.3,0.1-0.5,0.2-0.7,0.4s-0.3,0.3-0.4,0.5S154,6.5,154,6.7c0,0.2,0,0.4,0.1,0.5
						c0.1,0.2,0.2,0.3,0.4,0.4c0.2,0.1,0.4,0.3,0.8,0.4c0.3,0.1,0.8,0.2,1.3,0.3c0.7,0.2,1.2,0.3,1.7,0.5c0.5,0.2,0.9,0.4,1.2,0.7
						s0.6,0.6,0.7,0.9c0.2,0.3,0.2,0.7,0.2,1.2c0,0.5-0.1,0.9-0.3,1.3c-0.2,0.4-0.5,0.7-0.9,1c-0.4,0.3-0.8,0.5-1.3,0.7
						c-0.5,0.2-1.1,0.2-1.7,0.2c-0.7,0-1.4-0.1-1.9-0.3c-0.6-0.2-1-0.5-1.4-0.8c-0.4-0.3-0.7-0.7-0.9-1.1c-0.2-0.4-0.3-0.9-0.3-1.3
						h1.9c0,0.4,0.1,0.7,0.3,1s0.4,0.5,0.6,0.6s0.5,0.3,0.8,0.3s0.6,0.1,0.9,0.1c0.4,0,0.7,0,1-0.1s0.5-0.2,0.7-0.3
						c0.2-0.1,0.3-0.3,0.5-0.5C158.5,12.3,158.6,12.1,158.6,11.8z"/>
					<path d="M194,12.2L198.2,0h2.1l-5.5,14.8h-1.7L187.7,0h2.1L194,12.2z"/>
					<path d="M216.5,15c-0.8,0-1.5-0.1-2.1-0.4s-1.1-0.6-1.6-1.1s-0.8-1-1-1.7s-0.4-1.4-0.4-2.1V9.2c0-0.9,0.1-1.7,0.4-2.4
						c0.3-0.7,0.6-1.3,1.1-1.8c0.4-0.5,1-0.8,1.5-1.1c0.6-0.3,1.2-0.4,1.8-0.4c0.8,0,1.5,0.1,2,0.4c0.6,0.3,1,0.7,1.4,1.1
						c0.4,0.5,0.6,1,0.8,1.7s0.3,1.4,0.3,2.1v0.8h-7.4c0,0.5,0.1,1,0.2,1.4c0.2,0.4,0.4,0.8,0.6,1.1c0.3,0.3,0.6,0.6,1,0.8
						s0.8,0.3,1.3,0.3c0.7,0,1.2-0.1,1.7-0.4c0.5-0.3,0.9-0.6,1.2-1.1l1.1,0.9c-0.2,0.3-0.4,0.5-0.6,0.8c-0.3,0.3-0.5,0.5-0.9,0.7
						c-0.3,0.2-0.7,0.4-1.2,0.5C217.5,14.9,217,15,216.5,15z M216.3,5.1c-0.4,0-0.7,0.1-1,0.2s-0.6,0.3-0.9,0.6
						c-0.2,0.3-0.5,0.6-0.6,1c-0.2,0.4-0.3,0.8-0.3,1.3h5.5V8.1c0-0.4-0.1-0.7-0.2-1.1c-0.1-0.4-0.2-0.7-0.5-1
						c-0.2-0.3-0.5-0.5-0.8-0.7S216.7,5.1,216.3,5.1z"/>
					<path d="M232.9,9.2c0-0.8,0.1-1.6,0.3-2.3c0.2-0.7,0.5-1.3,0.9-1.8c0.4-0.5,0.8-0.9,1.4-1.1c0.5-0.3,1.1-0.4,1.8-0.4
						c0.7,0,1.3,0.1,1.8,0.4s1,0.6,1.3,1.1l0.1-1.2h1.7v10.7c0,0.7-0.1,1.4-0.3,1.9c-0.2,0.6-0.5,1-1,1.4s-0.9,0.7-1.5,0.9
						s-1.2,0.3-1.9,0.3c-0.3,0-0.6,0-1-0.1c-0.4-0.1-0.7-0.2-1.1-0.3s-0.7-0.3-1.1-0.6c-0.3-0.2-0.6-0.5-0.9-0.9l1-1.1
						c0.2,0.3,0.5,0.5,0.7,0.7s0.5,0.3,0.7,0.5c0.2,0.1,0.5,0.2,0.8,0.2c0.3,0.1,0.5,0.1,0.8,0.1c0.4,0,0.8-0.1,1.2-0.2
						c0.4-0.1,0.7-0.3,0.9-0.6c0.3-0.2,0.4-0.6,0.6-0.9c0.1-0.4,0.2-0.8,0.2-1.3v-1c-0.4,0.4-0.8,0.7-1.3,1
						c-0.5,0.2-1.1,0.3-1.8,0.3c-0.7,0-1.2-0.1-1.8-0.4c-0.5-0.3-1-0.7-1.4-1.2c-0.4-0.5-0.7-1.1-0.9-1.8c-0.2-0.7-0.3-1.4-0.3-2.2
						V9.2z M234.7,9.4c0,0.5,0.1,1.1,0.2,1.5c0.1,0.5,0.3,0.9,0.5,1.3c0.2,0.4,0.5,0.6,0.9,0.9c0.4,0.2,0.8,0.3,1.3,0.3
						c0.3,0,0.6,0,0.9-0.1c0.3-0.1,0.5-0.2,0.7-0.3s0.4-0.3,0.6-0.5c0.2-0.2,0.3-0.4,0.4-0.6v-5c-0.1-0.2-0.3-0.4-0.4-0.6
						c-0.2-0.2-0.3-0.4-0.6-0.5c-0.2-0.1-0.5-0.3-0.7-0.3c-0.3-0.1-0.6-0.1-0.9-0.1c-0.5,0-1,0.1-1.3,0.3s-0.7,0.5-0.9,0.9
						c-0.2,0.4-0.4,0.8-0.5,1.3s-0.2,1-0.2,1.5V9.4z"/>
					<path d="M262.1,14.8c-0.1-0.1-0.1-0.3-0.2-0.5s-0.1-0.4-0.1-0.6c-0.2,0.2-0.4,0.4-0.6,0.5c-0.2,0.2-0.5,0.3-0.7,0.4
						s-0.5,0.2-0.8,0.3c-0.3,0.1-0.6,0.1-1,0.1c-0.6,0-1.1-0.1-1.5-0.3c-0.5-0.2-0.8-0.4-1.2-0.7c-0.3-0.3-0.6-0.6-0.7-1
						s-0.3-0.8-0.3-1.3c0-0.6,0.1-1.1,0.3-1.6s0.6-0.8,1-1.1s0.9-0.5,1.6-0.7c0.6-0.2,1.3-0.2,2-0.2h1.9V7.2c0-0.7-0.2-1.2-0.6-1.6
						s-1-0.6-1.7-0.6c-0.4,0-0.7,0-1,0.1c-0.3,0.1-0.5,0.2-0.7,0.4c-0.2,0.2-0.4,0.3-0.5,0.6c-0.1,0.2-0.2,0.4-0.2,0.7h-1.9
						c0-0.4,0.1-0.8,0.3-1.2c0.2-0.4,0.5-0.7,0.9-1c0.4-0.3,0.8-0.6,1.4-0.8c0.5-0.2,1.1-0.3,1.8-0.3c0.6,0,1.1,0.1,1.6,0.2
						s0.9,0.4,1.3,0.7c0.4,0.3,0.6,0.7,0.8,1.2c0.2,0.5,0.3,1,0.3,1.6v5.1c0,0.4,0,0.8,0.1,1.2c0.1,0.4,0.2,0.8,0.3,1.1v0.2H262.1z
						 M259,13.3c0.3,0,0.7,0,1-0.1c0.3-0.1,0.6-0.2,0.8-0.4c0.2-0.2,0.5-0.3,0.6-0.5c0.2-0.2,0.3-0.4,0.4-0.6V9.4h-1.6
						c-1.1,0-1.9,0.2-2.5,0.5c-0.6,0.3-0.9,0.8-0.9,1.5c0,0.3,0,0.5,0.1,0.7c0.1,0.2,0.2,0.4,0.4,0.6c0.2,0.2,0.4,0.3,0.7,0.4
						S258.6,13.3,259,13.3z"/>
					<path d="M283.4,11.8c0-0.2,0-0.4-0.1-0.6c-0.1-0.2-0.2-0.3-0.4-0.5s-0.4-0.3-0.8-0.4c-0.3-0.1-0.8-0.3-1.3-0.4
						c-0.6-0.1-1.2-0.3-1.6-0.5c-0.5-0.2-0.9-0.4-1.2-0.6c-0.3-0.2-0.6-0.5-0.8-0.9s-0.3-0.7-0.3-1.2c0-0.4,0.1-0.8,0.3-1.2
						s0.5-0.7,0.8-1s0.8-0.5,1.3-0.7c0.5-0.2,1.1-0.3,1.7-0.3c0.7,0,1.2,0.1,1.8,0.3c0.5,0.2,1,0.4,1.3,0.7s0.6,0.7,0.8,1.1
						c0.2,0.4,0.3,0.9,0.3,1.3h-1.9c0-0.2-0.1-0.4-0.2-0.7c-0.1-0.2-0.3-0.4-0.4-0.6c-0.2-0.2-0.4-0.3-0.7-0.4
						c-0.3-0.1-0.6-0.2-1-0.2c-0.4,0-0.7,0-1,0.1c-0.3,0.1-0.5,0.2-0.7,0.4S279,6,278.9,6.1c-0.1,0.2-0.1,0.4-0.1,0.6
						c0,0.2,0,0.4,0.1,0.5s0.2,0.3,0.4,0.4c0.2,0.1,0.4,0.3,0.8,0.4c0.3,0.1,0.8,0.2,1.3,0.3c0.7,0.2,1.2,0.3,1.7,0.5
						c0.5,0.2,0.9,0.4,1.2,0.7c0.3,0.3,0.6,0.6,0.7,0.9c0.2,0.3,0.2,0.7,0.2,1.2c0,0.5-0.1,0.9-0.3,1.3c-0.2,0.4-0.5,0.7-0.9,1
						c-0.4,0.3-0.8,0.5-1.3,0.7c-0.5,0.2-1.1,0.2-1.7,0.2c-0.7,0-1.4-0.1-1.9-0.3c-0.6-0.2-1-0.5-1.4-0.8c-0.4-0.3-0.7-0.7-0.9-1.1
						c-0.2-0.4-0.3-0.9-0.3-1.3h1.9c0,0.4,0.1,0.7,0.3,1c0.2,0.3,0.4,0.5,0.6,0.6c0.2,0.2,0.5,0.3,0.8,0.3c0.3,0.1,0.6,0.1,0.9,0.1
						c0.4,0,0.7,0,1-0.1c0.3-0.1,0.5-0.2,0.7-0.3c0.2-0.1,0.3-0.3,0.5-0.5C283.3,12.3,283.4,12.1,283.4,11.8z"/>
				</g>
			</g>
		</g>
	</g>
	<g id="home">
	</g>
	<g id="NAVBAR">
		<g id="navBar">
		</g>
		<g id="mouseOver_1_">
		</g>
	</g>
</g>
<g id="Layer_11">
</g>
</svg>
