<?xml version="1.0" encoding="utf-8"?>
<!-- Generator: Adobe Illustrator 19.0.1, SVG Export Plug-In . SVG Version: 6.00 Build 0)  -->
<svg version="1.1" id="Layer_1" xmlns="http://www.w3.org/2000/svg" xmlns:xlink="http://www.w3.org/1999/xlink" x="0px" y="0px"
	 viewBox="-16.7 456.3 272.4 23.3" style="enable-background:new -16.7 456.3 272.4 23.3;" xml:space="preserve">
<style type="text/css">
	.st0{fill:#FFFFFF;}
	.st1{fill:#3399CC;}
	.st2{fill:#CDCAC9;}
	.st3{fill:#CC6633;}
</style>
<g>
	<path d="M-10.4,469.6l5.4-13.3l5.4,13.3l4.4-12.4h2l-6.4,17.4L-5,461.3l-5.4,13.4l-6.4-17.4h2L-10.4,469.6z"/>
	<path d="M15.8,463.4h2l3.7,7.4l3.3-7.4h2l-7.6,16.2h-2l3.3-6.8L15.8,463.4z"/>
	<path d="M39,464.7L39,464.7c0.8-1,1.7-1.5,3-1.5c2.9,0,3.5,2.1,3.5,4.5v6.1h-1.8v-5.8c0-1.7-0.1-3.2-2.2-3.2
		c-2.4,0-2.6,2.2-2.6,4.1v4.9h-1.8v-10.3H39V464.7z"/>
	<path d="M59.4,464.7L59.4,464.7c0.8-1,1.7-1.5,3-1.5c2.9,0,3.5,2.1,3.5,4.5v6.1h-1.8v-5.8c0-1.7-0.1-3.2-2.2-3.2
		c-2.4,0-2.6,2.2-2.6,4.1v4.9h-1.8v-10.3h1.8V464.7z"/>
	<path d="M95.5,472h4.6v1.7h-6.4v-16.6h1.8V472z"/>
	<path d="M120.1,473.8h-1.8v-1.4h0c-0.9,1.1-2.1,1.7-3.6,1.7c-3,0-5-2.6-5-5.4c0-2.9,1.9-5.5,5-5.5c1.4,0,2.7,0.7,3.5,1.8h0v-1.5
		h1.8V473.8z M111.6,468.5c0,2,1.2,3.9,3.4,3.9c2.3,0,3.5-1.8,3.5-3.9c0-2.1-1.3-3.7-3.5-3.7C112.9,464.8,111.6,466.5,111.6,468.5z"
		/>
	<path d="M136.4,465.8c-0.2-0.5-0.8-1.1-1.4-1.1c-0.6,0-1.3,0.5-1.3,1.1c0,0.9,1.2,1.3,2.4,1.8c1.2,0.5,2.4,1.2,2.4,3
		c0,2-1.6,3.4-3.5,3.4c-1.7,0-3.1-1-3.7-2.6l1.6-0.7c0.4,1,0.9,1.7,2.1,1.7c0.9,0,1.7-0.6,1.7-1.6c0-2.3-4.7-1.5-4.7-4.8
		c0-1.7,1.4-2.9,3.1-2.9c1.2,0,2.3,0.8,2.8,1.9L136.4,465.8z"/>
	<path d="M170.5,469.8l4.7-12.7h2l-6.7,17.6l-6.7-17.6h2L170.5,469.8z"/>
	<path d="M187,469c0,1.9,1.4,3.5,3.4,3.5c1.5,0,2.5-0.9,3.1-2.1l1.5,0.9c-1,1.8-2.7,2.9-4.8,2.9c-3.1,0-5.1-2.4-5.1-5.3
		c0-3.1,1.8-5.6,5-5.6c3.3,0,5.1,2.8,4.9,5.8H187z M193.3,467.5c-0.2-1.5-1.5-2.7-3-2.7c-1.5,0-2.9,1.2-3.1,2.7H193.3z"/>
	<path d="M215.7,473.2c0,1.7,0,3.1-1.1,4.4c-1,1.2-2.5,1.8-4,1.8c-2.9,0-5-1.8-5.1-4.8h1.8c0,1.9,1.4,3.1,3.3,3.1
		c2.7,0,3.3-2,3.3-4.3v-1.2h0c-0.8,1.1-2.2,1.7-3.6,1.7c-3,0-4.9-2.5-4.9-5.4c0-2.9,1.9-5.5,5-5.5c1.4,0,2.7,0.6,3.5,1.8h0v-1.5h1.8
		V473.2z M207.1,468.5c0,2,1.2,3.9,3.4,3.9c2.3,0,3.5-1.8,3.5-3.9c0-2.1-1.3-3.7-3.5-3.7C208.5,464.8,207.1,466.5,207.1,468.5z"/>
	<path d="M237.3,473.8h-1.8v-1.4h0c-0.9,1.1-2.1,1.7-3.6,1.7c-3,0-5-2.6-5-5.4c0-2.9,1.9-5.5,5-5.5c1.4,0,2.7,0.7,3.5,1.8h0v-1.5
		h1.8V473.8z M228.8,468.5c0,2,1.2,3.9,3.4,3.9c2.3,0,3.5-1.8,3.5-3.9c0-2.1-1.3-3.7-3.5-3.7C230.1,464.8,228.8,466.5,228.8,468.5z"
		/>
	<path d="M253.6,465.8c-0.2-0.5-0.8-1.1-1.4-1.1c-0.6,0-1.3,0.5-1.3,1.1c0,0.9,1.2,1.3,2.4,1.8c1.2,0.5,2.4,1.2,2.4,3
		c0,2-1.6,3.4-3.5,3.4c-1.7,0-3.1-1-3.7-2.6l1.6-0.7c0.4,1,0.9,1.7,2.1,1.7c0.9,0,1.7-0.6,1.7-1.6c0-2.3-4.7-1.5-4.7-4.8
		c0-1.7,1.4-2.9,3.1-2.9c1.2,0,2.3,0.8,2.8,1.9L253.6,465.8z"/>
</g>
</svg>
