<?xml version="1.0" encoding="utf-8"?>
<!-- Generator: Adobe Illustrator 19.0.1, SVG Export Plug-In . SVG Version: 6.00 Build 0)  -->
<svg version="1.1" xmlns="http://www.w3.org/2000/svg" xmlns:xlink="http://www.w3.org/1999/xlink" x="0px" y="0px"
	 viewBox="0 0 286.4 19.2" style="enable-background:new 0 0 286.4 19.2;" xml:space="preserve">
<style type="text/css">
	.st0{fill:#FFFFFF;}
	.st1{fill:#3399CC;}
	.st2{fill:#FF9966;}
	.st3{fill:#382C3D;}
	.st4{fill:#3D220E;}
	.st5{fill:none;stroke:#FFFFFF;stroke-width:0.2658;stroke-miterlimit:10;}
	.st6{fill:#CDCBCA;}
	.st7{fill:none;stroke:#FFFFFF;stroke-width:0.5618;stroke-miterlimit:10;}
	.st8{fill:#669897;}
	.st9{fill:#CC6632;}
	.st10{fill:none;stroke:#FFFFFF;stroke-width:1.1126;stroke-miterlimit:10;}
	.st11{fill:#333333;}
	.st12{opacity:0.69;}
	.st13{opacity:0.48;fill:#3399CC;}
	.st14{fill:#CDCAC9;}
	.st15{fill:#362012;}
	.st16{fill:#272223;}
	.st17{fill:url(#SVGID_5_);}
	.st18{fill:url(#SVGID_6_);}
	.st19{fill:url(#SVGID_7_);}
	.st20{fill:#999999;}
	.st21{fill:#CC6633;}
	.st22{opacity:0.5;fill:#653614;}
	.st23{opacity:0.69;fill:#FF9966;}
</style>
<g id="old">
	<g id="contact">
	</g>
	<g id="about">
	</g>
	<g id="WORK">
		<g id="work">
		</g>
		<g id="mouseOver">
			<g>
				<path d="M12.6,11.1L14.9,0h2.5L14,14.8h-2.5L8.7,4L5.9,14.8H3.4L0,0h2.5l2.3,11.1L7.7,0h2.1L12.6,11.1z"/>
				<path d="M33.3,11.2l2.2-7.4h2.6l-4.4,12.6c-0.1,0.3-0.2,0.6-0.4,0.9c-0.2,0.3-0.4,0.6-0.6,0.9c-0.3,0.3-0.6,0.5-1,0.7
					s-0.8,0.3-1.4,0.3c-0.2,0-0.4,0-0.6-0.1c-0.2,0-0.4-0.1-0.6-0.1v-1.9c0.1,0,0.1,0,0.2,0c0.1,0,0.2,0,0.2,0c0.3,0,0.6,0,0.8-0.1
					c0.2-0.1,0.4-0.1,0.6-0.3c0.2-0.1,0.3-0.3,0.4-0.5c0.1-0.2,0.2-0.4,0.3-0.7l0.4-0.9L28.3,3.8h2.7L33.3,11.2z"/>
				<path d="M52.2,3.8l0.1,1.3c0.4-0.5,0.8-0.8,1.4-1.1c0.5-0.3,1.1-0.4,1.8-0.4c0.5,0,1,0.1,1.4,0.2C57.3,4,57.7,4.2,58,4.5
					c0.3,0.3,0.5,0.7,0.7,1.3c0.2,0.5,0.2,1.2,0.2,1.9v7.1h-2.5V7.7c0-0.4,0-0.7-0.1-1c-0.1-0.3-0.2-0.5-0.4-0.6
					c-0.2-0.2-0.4-0.3-0.6-0.3s-0.5-0.1-0.8-0.1c-0.5,0-0.9,0.1-1.3,0.4s-0.7,0.6-0.9,1v7.8h-2.5v-11H52.2z"/>
				<path d="M74.1,3.8l0.1,1.3C74.6,4.6,75,4.2,75.6,4c0.5-0.3,1.1-0.4,1.8-0.4c0.5,0,1,0.1,1.4,0.2c0.4,0.1,0.8,0.4,1.1,0.7
					c0.3,0.3,0.5,0.7,0.7,1.3c0.2,0.5,0.2,1.2,0.2,1.9v7.1h-2.5V7.7c0-0.4,0-0.7-0.1-1c-0.1-0.3-0.2-0.5-0.4-0.6s-0.4-0.3-0.6-0.3
					s-0.5-0.1-0.8-0.1c-0.5,0-0.9,0.1-1.3,0.4s-0.7,0.6-0.9,1v7.8h-2.5v-11H74.1z"/>
				<path d="M112.1,12.7h6.7v2h-9.3V0h2.6V12.7z"/>
				<path d="M137.5,14.8c-0.1-0.1-0.1-0.3-0.2-0.5s-0.1-0.4-0.1-0.6c-0.2,0.2-0.3,0.3-0.5,0.5c-0.2,0.1-0.4,0.3-0.7,0.4
					s-0.5,0.2-0.8,0.3c-0.3,0.1-0.6,0.1-0.9,0.1c-0.5,0-1.1-0.1-1.5-0.2c-0.5-0.2-0.9-0.4-1.2-0.7s-0.6-0.6-0.8-1
					c-0.2-0.4-0.3-0.8-0.3-1.3c0-0.6,0.1-1.1,0.3-1.6s0.5-0.8,1-1.1c0.4-0.3,0.9-0.5,1.6-0.7c0.6-0.2,1.3-0.2,2.1-0.2h1.6V7.3
					c0-0.6-0.2-1-0.5-1.4c-0.3-0.3-0.8-0.5-1.4-0.5c-0.3,0-0.6,0-0.8,0.1c-0.2,0.1-0.4,0.2-0.6,0.3c-0.2,0.1-0.3,0.3-0.4,0.5
					c-0.1,0.2-0.1,0.4-0.1,0.6h-2.5c0-0.4,0.1-0.8,0.3-1.3c0.2-0.4,0.5-0.8,0.9-1.1c0.4-0.3,0.9-0.6,1.4-0.8
					c0.6-0.2,1.2-0.3,1.9-0.3c0.6,0,1.2,0.1,1.7,0.2c0.5,0.2,1,0.4,1.3,0.7s0.7,0.7,0.9,1.2s0.3,1,0.3,1.6v4.9c0,1,0.1,1.8,0.4,2.4
					v0.2H137.5z M134.8,13c0.3,0,0.5,0,0.8-0.1c0.2-0.1,0.5-0.2,0.7-0.3c0.2-0.1,0.4-0.3,0.5-0.4c0.1-0.2,0.3-0.3,0.4-0.5V9.6h-1.3
					c-0.9,0-1.6,0.2-2.1,0.5c-0.5,0.3-0.7,0.8-0.7,1.3c0,0.2,0,0.4,0.1,0.6s0.2,0.4,0.3,0.5c0.1,0.1,0.3,0.2,0.5,0.3
					C134.2,12.9,134.5,13,134.8,13z"/>
				<path d="M158.7,11.8c0-0.2,0-0.3-0.1-0.5c-0.1-0.2-0.2-0.3-0.3-0.4s-0.4-0.3-0.7-0.4c-0.3-0.1-0.7-0.2-1.2-0.3
					c-0.6-0.1-1.1-0.3-1.6-0.5c-0.5-0.2-0.9-0.4-1.2-0.7c-0.3-0.3-0.6-0.6-0.8-0.9c-0.2-0.4-0.3-0.8-0.3-1.2c0-0.4,0.1-0.9,0.3-1.3
					c0.2-0.4,0.5-0.8,0.8-1.1c0.4-0.3,0.8-0.5,1.3-0.7c0.5-0.2,1.1-0.3,1.8-0.3c0.7,0,1.3,0.1,1.8,0.3c0.5,0.2,1,0.4,1.4,0.7
					c0.4,0.3,0.7,0.7,0.9,1.1s0.3,0.9,0.3,1.4h-2.5c0-0.2,0-0.4-0.1-0.6c-0.1-0.2-0.2-0.4-0.4-0.5c-0.2-0.2-0.4-0.3-0.6-0.4
					c-0.2-0.1-0.5-0.1-0.8-0.1c-0.3,0-0.6,0-0.8,0.1s-0.4,0.2-0.6,0.3c-0.2,0.1-0.3,0.3-0.3,0.4c-0.1,0.2-0.1,0.3-0.1,0.5
					s0,0.3,0.1,0.5c0.1,0.1,0.2,0.3,0.4,0.4c0.2,0.1,0.4,0.2,0.7,0.3c0.3,0.1,0.7,0.2,1.1,0.3c0.6,0.1,1.2,0.3,1.7,0.5
					c0.5,0.2,0.9,0.4,1.3,0.7c0.3,0.3,0.6,0.6,0.8,0.9c0.2,0.4,0.3,0.8,0.3,1.3c0,0.5-0.1,0.9-0.3,1.3c-0.2,0.4-0.5,0.8-0.9,1
					s-0.9,0.5-1.4,0.7c-0.5,0.2-1.2,0.2-1.8,0.2c-0.8,0-1.4-0.1-2-0.3s-1.1-0.5-1.5-0.8c-0.4-0.3-0.7-0.7-0.9-1.2
					c-0.2-0.4-0.3-0.9-0.3-1.3h2.4c0,0.3,0.1,0.6,0.2,0.9c0.1,0.2,0.3,0.4,0.5,0.6c0.2,0.1,0.4,0.2,0.7,0.3c0.3,0.1,0.5,0.1,0.8,0.1
					c0.6,0,1.1-0.1,1.5-0.4C158.5,12.5,158.7,12.2,158.7,11.8z"/>
				<path d="M194.6,11.5L198.3,0h2.8l-5.3,14.8h-2.5L188.1,0h2.8L194.6,11.5z"/>
				<path d="M217.3,15c-0.8,0-1.5-0.1-2.2-0.4c-0.6-0.3-1.2-0.6-1.7-1.1c-0.5-0.5-0.8-1-1-1.7c-0.2-0.6-0.4-1.3-0.4-2.1V9.3
					c0-0.9,0.1-1.6,0.4-2.3c0.3-0.7,0.6-1.3,1.1-1.8c0.4-0.5,1-0.9,1.6-1.1c0.6-0.3,1.3-0.4,2-0.4c0.8,0,1.5,0.1,2.1,0.4
					c0.6,0.3,1.1,0.6,1.5,1.1c0.4,0.5,0.7,1.1,0.9,1.7c0.2,0.7,0.3,1.4,0.3,2.2v1.1h-7.2c0,0.4,0.1,0.8,0.3,1.2
					c0.1,0.4,0.3,0.7,0.6,0.9s0.5,0.5,0.9,0.6s0.7,0.2,1.2,0.2c0.6,0,1.1-0.1,1.6-0.4c0.5-0.2,0.8-0.6,1.2-1l1.3,1.3
					c-0.2,0.3-0.4,0.5-0.7,0.8c-0.3,0.2-0.6,0.5-0.9,0.7c-0.3,0.2-0.7,0.3-1.2,0.5S217.9,15,217.3,15z M217.1,5.6
					c-0.7,0-1.2,0.2-1.6,0.7s-0.7,1.1-0.8,2h4.7V8.1c0-0.3-0.1-0.6-0.2-0.9c-0.1-0.3-0.2-0.6-0.4-0.8s-0.4-0.4-0.7-0.6
					C217.8,5.6,217.5,5.6,217.1,5.6z"/>
				<path d="M233.6,9.2c0-0.8,0.1-1.6,0.3-2.3s0.5-1.3,0.9-1.8c0.4-0.5,0.8-0.9,1.4-1.1s1.1-0.4,1.8-0.4c0.7,0,1.2,0.1,1.7,0.3
					c0.5,0.2,0.9,0.5,1.2,1l0.1-1.1h2.2v10.7c0,0.7-0.1,1.4-0.4,2c-0.2,0.6-0.6,1.1-1,1.4c-0.4,0.4-1,0.7-1.6,0.9s-1.3,0.3-2,0.3
					c-0.3,0-0.6,0-1-0.1c-0.4-0.1-0.7-0.2-1.1-0.3c-0.4-0.1-0.7-0.3-1.1-0.6c-0.3-0.2-0.6-0.5-0.9-0.8l1.2-1.5
					c0.4,0.5,0.8,0.8,1.3,1c0.5,0.2,1,0.3,1.5,0.3c0.8,0,1.5-0.2,1.9-0.7c0.5-0.4,0.7-1.1,0.7-2v-0.7c-0.3,0.4-0.8,0.7-1.2,0.9
					c-0.5,0.2-1,0.3-1.6,0.3c-0.7,0-1.3-0.1-1.8-0.4c-0.5-0.3-1-0.7-1.4-1.2c-0.4-0.5-0.7-1.1-0.9-1.8c-0.2-0.7-0.3-1.4-0.3-2.2V9.2
					z M236.1,9.4c0,0.5,0,0.9,0.1,1.4c0.1,0.4,0.3,0.8,0.5,1.1c0.2,0.3,0.5,0.6,0.8,0.8c0.3,0.2,0.7,0.3,1.1,0.3
					c0.6,0,1-0.1,1.4-0.3c0.4-0.2,0.6-0.5,0.9-0.9V6.9c-0.2-0.4-0.5-0.7-0.9-0.9c-0.4-0.2-0.8-0.3-1.3-0.3c-0.4,0-0.8,0.1-1.2,0.3
					c-0.3,0.2-0.6,0.4-0.8,0.8s-0.4,0.7-0.5,1.1s-0.2,0.9-0.2,1.4V9.4z"/>
				<path d="M262.7,14.8c-0.1-0.1-0.1-0.3-0.2-0.5c0-0.2-0.1-0.4-0.1-0.6c-0.2,0.2-0.3,0.3-0.5,0.5c-0.2,0.1-0.4,0.3-0.7,0.4
					c-0.2,0.1-0.5,0.2-0.8,0.3c-0.3,0.1-0.6,0.1-0.9,0.1c-0.5,0-1.1-0.1-1.5-0.2c-0.5-0.2-0.9-0.4-1.2-0.7c-0.3-0.3-0.6-0.6-0.8-1
					s-0.3-0.8-0.3-1.3c0-0.6,0.1-1.1,0.3-1.6s0.5-0.8,1-1.1c0.4-0.3,0.9-0.5,1.6-0.7c0.6-0.2,1.3-0.2,2.1-0.2h1.6V7.3
					c0-0.6-0.2-1-0.5-1.4c-0.3-0.3-0.8-0.5-1.4-0.5c-0.3,0-0.6,0-0.8,0.1c-0.2,0.1-0.4,0.2-0.6,0.3s-0.3,0.3-0.4,0.5
					c-0.1,0.2-0.1,0.4-0.1,0.6h-2.5c0-0.4,0.1-0.8,0.3-1.3c0.2-0.4,0.5-0.8,0.9-1.1c0.4-0.3,0.9-0.6,1.4-0.8
					c0.6-0.2,1.2-0.3,1.9-0.3c0.6,0,1.2,0.1,1.7,0.2c0.5,0.2,1,0.4,1.3,0.7c0.4,0.3,0.7,0.7,0.9,1.2c0.2,0.5,0.3,1,0.3,1.6v4.9
					c0,1,0.1,1.8,0.4,2.4v0.2H262.7z M260,13c0.3,0,0.5,0,0.8-0.1c0.2-0.1,0.5-0.2,0.7-0.3c0.2-0.1,0.4-0.3,0.5-0.4
					c0.1-0.2,0.3-0.3,0.4-0.5V9.6H261c-0.9,0-1.6,0.2-2.1,0.5c-0.5,0.3-0.7,0.8-0.7,1.3c0,0.2,0,0.4,0.1,0.6
					c0.1,0.2,0.2,0.4,0.3,0.5c0.1,0.1,0.3,0.2,0.5,0.3C259.5,12.9,259.7,13,260,13z"/>
				<path d="M283.9,11.8c0-0.2,0-0.3-0.1-0.5c-0.1-0.2-0.2-0.3-0.3-0.4c-0.2-0.1-0.4-0.3-0.7-0.4c-0.3-0.1-0.7-0.2-1.2-0.3
					c-0.6-0.1-1.1-0.3-1.6-0.5c-0.5-0.2-0.9-0.4-1.2-0.7c-0.3-0.3-0.6-0.6-0.8-0.9c-0.2-0.4-0.3-0.8-0.3-1.2c0-0.4,0.1-0.9,0.3-1.3
					c0.2-0.4,0.5-0.8,0.8-1.1c0.4-0.3,0.8-0.5,1.3-0.7c0.5-0.2,1.1-0.3,1.8-0.3c0.7,0,1.3,0.1,1.8,0.3c0.5,0.2,1,0.4,1.4,0.7
					c0.4,0.3,0.7,0.7,0.9,1.1s0.3,0.9,0.3,1.4h-2.5c0-0.2,0-0.4-0.1-0.6c-0.1-0.2-0.2-0.4-0.4-0.5c-0.2-0.2-0.4-0.3-0.6-0.4
					c-0.2-0.1-0.5-0.1-0.8-0.1c-0.3,0-0.6,0-0.8,0.1c-0.2,0.1-0.4,0.2-0.6,0.3s-0.3,0.3-0.3,0.4c-0.1,0.2-0.1,0.3-0.1,0.5
					s0,0.3,0.1,0.5c0.1,0.1,0.2,0.3,0.4,0.4c0.2,0.1,0.4,0.2,0.7,0.3c0.3,0.1,0.7,0.2,1.1,0.3c0.6,0.1,1.2,0.3,1.7,0.5
					s0.9,0.4,1.3,0.7c0.3,0.3,0.6,0.6,0.8,0.9c0.2,0.4,0.3,0.8,0.3,1.3c0,0.5-0.1,0.9-0.3,1.3s-0.5,0.8-0.9,1s-0.9,0.5-1.4,0.7
					c-0.5,0.2-1.2,0.2-1.8,0.2c-0.8,0-1.4-0.1-2-0.3c-0.6-0.2-1.1-0.5-1.5-0.8c-0.4-0.3-0.7-0.7-0.9-1.2c-0.2-0.4-0.3-0.9-0.3-1.3
					h2.4c0,0.3,0.1,0.6,0.2,0.9s0.3,0.4,0.5,0.6c0.2,0.1,0.4,0.2,0.7,0.3c0.3,0.1,0.5,0.1,0.8,0.1c0.6,0,1.1-0.1,1.5-0.4
					C283.8,12.5,283.9,12.2,283.9,11.8z"/>
			</g>
		</g>
	</g>
	<g id="home">
	</g>
	<g id="NAVBAR">
		<g id="navBar">
		</g>
		<g id="mouseOver_1_">
		</g>
	</g>
</g>
<g id="Layer_11">
</g>
</svg>
