<?xml version="1.0" encoding="utf-8"?>
<!-- Generator: Adobe Illustrator 19.0.1, SVG Export Plug-In . SVG Version: 6.00 Build 0)  -->
<svg version="1.1" xmlns="http://www.w3.org/2000/svg" xmlns:xlink="http://www.w3.org/1999/xlink" x="0px" y="0px"
	 viewBox="0 0 358.1 23.4" style="enable-background:new 0 0 358.1 23.4;" xml:space="preserve">
<style type="text/css">
	.st0{fill:#FFFFFF;}
	.st1{fill:#3399CC;}
	.st2{fill:#FF9966;}
	.st3{fill:#382C3D;}
	.st4{fill:#221F20;}
	.st5{fill:#FFCC66;}
	.st6{fill:#3D220E;}
	.st7{fill:none;stroke:#FFFFFF;stroke-width:0.5618;stroke-miterlimit:10;}
	.st8{fill:#CDCBCA;}
	.st9{fill:#669897;}
	.st10{clip-path:url(#SVGID_4_);}
	.st11{fill:none;stroke:#FFFFFF;stroke-width:2.3528;stroke-miterlimit:10;}
	.st12{fill:#CDCAC9;}
	.st13{fill:#FDCC66;}
	.st14{fill:url(#SVGID_5_);}
	.st15{fill:url(#SVGID_6_);}
	.st16{fill:url(#SVGID_7_);}
	.st17{fill:#999999;}
	.st18{fill:#CC6633;}
	.st19{opacity:0.5;fill:#653614;}
	.st20{opacity:0.69;fill:#FF9966;}
</style>
<g id="contact">
</g>
<g id="about">
</g>
<g id="WORK">
	<g id="work">
	</g>
	<g id="mouseOver">
		<g>
			<path class="st0" d="M12.1,13.2c-0.1,0.8-0.3,1.5-0.5,2.1c-0.3,0.6-0.6,1.1-1.1,1.5c-0.5,0.4-1,0.7-1.6,0.9
				c-0.6,0.2-1.3,0.3-2,0.3c-0.8,0-1.5-0.2-2.2-0.5c-0.7-0.3-1.2-0.8-1.7-1.3c-0.5-0.6-0.8-1.2-1.1-2c-0.3-0.8-0.4-1.7-0.4-2.6V9.3
				c0-1,0.1-1.8,0.4-2.6c0.3-0.8,0.6-1.5,1.1-2s1-1,1.7-1.3C5.3,3,6,2.8,6.8,2.8c0.7,0,1.4,0.1,2,0.3C9.4,3.3,10,3.6,10.4,4
				c0.5,0.4,0.8,0.9,1.1,1.5C11.8,6,12,6.7,12.1,7.5h-0.5c-0.2-1.4-0.6-2.4-1.4-3.1C9.3,3.7,8.2,3.3,6.8,3.3c-0.7,0-1.4,0.1-2,0.4
				S3.8,4.4,3.3,5c-0.4,0.5-0.7,1.1-1,1.9C2.1,7.6,2,8.4,2,9.3v2.2c0,0.9,0.1,1.7,0.3,2.4c0.2,0.7,0.6,1.4,1,1.9
				c0.4,0.5,0.9,0.9,1.5,1.2c0.6,0.3,1.2,0.4,2,0.4c0.7,0,1.3-0.1,1.8-0.2c0.5-0.2,1-0.4,1.4-0.8c0.4-0.3,0.7-0.8,1-1.3
				s0.4-1.1,0.5-1.9H12.1z"/>
			<path class="st0" d="M30.4,7.2c-0.1,0-0.2,0-0.3,0c-0.1,0-0.2,0-0.4,0c-0.5,0-1,0.1-1.4,0.3c-0.4,0.2-0.8,0.4-1.1,0.7
				c-0.3,0.3-0.5,0.7-0.7,1.1c-0.2,0.4-0.3,0.9-0.4,1.4v7.2h-0.5v-11h0.5v2.3c0.3-0.8,0.7-1.4,1.3-1.8c0.6-0.4,1.3-0.7,2.2-0.7
				c0.2,0,0.3,0,0.4,0c0.1,0,0.2,0,0.3,0.1L30.4,7.2z"/>
			<path class="st0" d="M49.6,17.8c-0.1-0.3-0.1-0.6-0.2-0.9c0-0.4,0-0.7,0-1.1c-0.2,0.3-0.4,0.6-0.7,0.8c-0.3,0.3-0.6,0.5-0.9,0.7
				c-0.4,0.2-0.8,0.4-1.2,0.5c-0.4,0.1-0.9,0.2-1.5,0.2c-0.5,0-1-0.1-1.4-0.2c-0.4-0.1-0.8-0.3-1.1-0.6c-0.3-0.3-0.5-0.6-0.7-0.9
				c-0.2-0.4-0.2-0.8-0.2-1.2c0-0.5,0.1-0.9,0.3-1.3c0.2-0.4,0.6-0.8,1-1.1s1-0.5,1.6-0.7c0.6-0.2,1.3-0.2,2.1-0.2h2.6V10
				c0-0.9-0.3-1.6-0.9-2.1c-0.6-0.5-1.4-0.8-2.5-0.8c-0.5,0-1,0.1-1.4,0.2c-0.4,0.1-0.8,0.3-1.1,0.6c-0.3,0.2-0.6,0.5-0.7,0.9
				c-0.2,0.3-0.3,0.7-0.3,1.1l-0.5,0c0-0.4,0.1-0.8,0.3-1.2s0.5-0.7,0.8-1c0.4-0.3,0.8-0.5,1.3-0.7c0.5-0.2,1-0.3,1.6-0.3
				c0.6,0,1.1,0.1,1.6,0.2c0.5,0.1,0.9,0.4,1.2,0.6s0.6,0.6,0.8,1.1c0.2,0.4,0.3,0.9,0.3,1.5v5.5c0,0.2,0,0.4,0,0.6s0,0.4,0.1,0.6
				c0,0.2,0.1,0.4,0.1,0.5c0,0.2,0.1,0.3,0.1,0.4v0.1H49.6z M45.1,17.4c0.5,0,1-0.1,1.5-0.2c0.4-0.1,0.9-0.3,1.2-0.5s0.7-0.5,1-0.8
				c0.3-0.3,0.5-0.7,0.7-1.1v-2.6h-2.6c-0.7,0-1.3,0.1-1.9,0.2c-0.6,0.1-1,0.3-1.4,0.6c-0.4,0.2-0.7,0.5-0.9,0.9
				c-0.2,0.3-0.3,0.7-0.3,1.1c0,0.3,0.1,0.6,0.2,0.9c0.1,0.3,0.3,0.5,0.6,0.8c0.2,0.2,0.5,0.4,0.9,0.5
				C44.3,17.4,44.6,17.4,45.1,17.4z"/>
			<path class="st0" d="M63.7,3.4c0-0.2,0.1-0.3,0.2-0.4s0.2-0.2,0.4-0.2c0.2,0,0.3,0.1,0.4,0.2c0.1,0.1,0.2,0.2,0.2,0.4
				s-0.1,0.3-0.2,0.4c-0.1,0.1-0.2,0.2-0.4,0.2c-0.2,0-0.3-0.1-0.4-0.2S63.7,3.5,63.7,3.4z M64.5,17.8H64v-11h0.5V17.8z"/>
			<path class="st0" d="M78,12.2c0-0.9,0.1-1.6,0.3-2.3c0.2-0.7,0.5-1.3,0.8-1.8c0.4-0.5,0.8-0.8,1.3-1.1c0.5-0.3,1.1-0.4,1.7-0.4
				c0.4,0,0.9,0.1,1.2,0.2c0.4,0.1,0.7,0.3,1,0.5c0.3,0.2,0.6,0.4,0.8,0.7c0.2,0.3,0.4,0.6,0.6,0.9v-2h0.6v10.8
				c0,0.7-0.1,1.3-0.3,1.9c-0.2,0.6-0.5,1-0.8,1.4c-0.4,0.4-0.8,0.7-1.3,0.9c-0.5,0.2-1.1,0.3-1.7,0.3c-0.4,0-0.8,0-1.1-0.1
				c-0.4-0.1-0.7-0.2-1-0.4s-0.6-0.4-0.8-0.6c-0.2-0.2-0.5-0.5-0.7-0.7L79,20c0.4,0.5,0.9,1,1.4,1.2s1.1,0.4,1.8,0.4
				c0.6,0,1.1-0.1,1.6-0.3c0.4-0.2,0.8-0.5,1.1-0.8s0.5-0.8,0.7-1.3c0.2-0.5,0.2-1.1,0.2-1.7V16c-0.2,0.3-0.4,0.5-0.6,0.8
				s-0.5,0.4-0.8,0.6c-0.3,0.2-0.7,0.3-1,0.4c-0.4,0.1-0.8,0.1-1.3,0.1c-0.6,0-1.2-0.1-1.7-0.4c-0.5-0.3-0.9-0.6-1.3-1.1
				c-0.4-0.5-0.6-1.1-0.8-1.8C78.1,14,78,13.2,78,12.4V12.2z M78.5,12.4c0,0.7,0.1,1.4,0.2,2c0.1,0.6,0.4,1.1,0.7,1.6s0.7,0.8,1.1,1
				c0.4,0.2,1,0.4,1.6,0.4c0.5,0,1-0.1,1.4-0.2c0.4-0.1,0.8-0.3,1.1-0.5c0.3-0.2,0.6-0.5,0.8-0.8c0.2-0.3,0.4-0.6,0.5-1v-5
				c-0.1-0.3-0.2-0.7-0.4-1S85,8.3,84.7,8.1S84,7.6,83.6,7.4c-0.4-0.2-0.9-0.3-1.5-0.3c-0.6,0-1.1,0.1-1.6,0.4s-0.8,0.6-1.1,1
				s-0.5,1-0.7,1.6c-0.1,0.6-0.2,1.3-0.2,2V12.4z"/>
			<path class="st0" d="M100.7,3.2c0,0.6-0.1,1.2-0.3,1.6c-0.2,0.5-0.5,0.9-0.8,1.2l-0.4-0.3c0.3-0.4,0.5-0.8,0.7-1.2
				s0.2-0.8,0.2-1.4V2.2h0.5V3.2z"/>
			<path class="st0" d="M119.5,15.1c0-0.2,0-0.5-0.1-0.8s-0.3-0.5-0.5-0.7c-0.2-0.2-0.6-0.5-1-0.7c-0.4-0.2-1-0.4-1.7-0.5
				c-0.6-0.1-1.2-0.3-1.6-0.4c-0.5-0.2-0.9-0.4-1.2-0.6c-0.3-0.2-0.5-0.5-0.7-0.8c-0.2-0.3-0.2-0.7-0.2-1.2c0-0.4,0.1-0.7,0.3-1.1
				c0.2-0.3,0.4-0.6,0.7-0.9c0.3-0.2,0.7-0.4,1.2-0.6s1-0.2,1.5-0.2c0.6,0,1.2,0.1,1.6,0.2c0.5,0.2,0.9,0.4,1.2,0.6s0.6,0.6,0.8,1
				c0.2,0.4,0.3,0.8,0.3,1.3h-0.6c0-0.3-0.1-0.7-0.2-1c-0.1-0.3-0.4-0.6-0.6-0.8c-0.3-0.2-0.6-0.4-1.1-0.6s-0.9-0.2-1.4-0.2
				c-0.6,0-1,0.1-1.4,0.2c-0.4,0.1-0.7,0.3-1,0.5s-0.4,0.4-0.6,0.7C113,8.8,113,9.1,113,9.3c0,0.3,0,0.5,0.1,0.8
				c0.1,0.2,0.2,0.5,0.5,0.7c0.2,0.2,0.6,0.4,1,0.6c0.4,0.2,1,0.4,1.7,0.5c0.7,0.1,1.2,0.3,1.7,0.5c0.5,0.2,0.9,0.4,1.2,0.7
				c0.3,0.3,0.5,0.5,0.7,0.9c0.1,0.3,0.2,0.7,0.2,1.1c0,0.4-0.1,0.8-0.3,1.2c-0.2,0.4-0.4,0.7-0.8,0.9c-0.3,0.3-0.7,0.5-1.2,0.6
				c-0.5,0.1-1,0.2-1.6,0.2c-0.7,0-1.2-0.1-1.8-0.2c-0.5-0.2-0.9-0.4-1.3-0.6c-0.3-0.3-0.6-0.6-0.8-1c-0.2-0.4-0.3-0.7-0.3-1.2h0.5
				c0,0.5,0.2,0.9,0.4,1.2c0.2,0.3,0.5,0.6,0.8,0.8s0.7,0.3,1.1,0.4c0.4,0.1,0.8,0.1,1.2,0.1c0.5,0,1-0.1,1.4-0.2
				c0.4-0.1,0.8-0.3,1-0.5c0.3-0.2,0.5-0.5,0.6-0.8C119.4,15.6,119.5,15.4,119.5,15.1z"/>
			<path class="st0" d="M157.9,14.2c0-0.5-0.1-0.9-0.2-1.2c-0.2-0.4-0.4-0.7-0.8-1c-0.4-0.3-0.8-0.6-1.4-0.8
				c-0.6-0.2-1.3-0.5-2.1-0.7c-0.8-0.2-1.4-0.4-2-0.6c-0.6-0.2-1.1-0.5-1.5-0.8c-0.4-0.3-0.7-0.7-1-1.1c-0.2-0.4-0.3-0.9-0.3-1.5
				c0-0.6,0.1-1.1,0.4-1.5c0.2-0.4,0.6-0.8,1-1.1c0.4-0.3,1-0.5,1.6-0.7c0.6-0.2,1.2-0.2,1.9-0.2c0.7,0,1.4,0.1,2,0.3
				c0.6,0.2,1.1,0.5,1.6,0.9c0.4,0.4,0.8,0.8,1,1.4c0.2,0.5,0.4,1.1,0.4,1.8h-0.5c0-0.5-0.1-1.1-0.3-1.5s-0.5-0.9-0.9-1.2
				c-0.4-0.3-0.8-0.6-1.4-0.8s-1.1-0.3-1.8-0.3c-0.7,0-1.3,0.1-1.9,0.2c-0.5,0.2-1,0.4-1.4,0.7c-0.4,0.3-0.6,0.6-0.8,1
				C149.1,5.6,149,6,149,6.4c0,0.4,0.1,0.8,0.2,1.1c0.1,0.3,0.4,0.6,0.7,0.9c0.3,0.3,0.8,0.6,1.4,0.8c0.6,0.3,1.3,0.5,2.2,0.7
				c0.7,0.2,1.4,0.4,2,0.6c0.6,0.2,1.1,0.5,1.6,0.8c0.4,0.3,0.8,0.7,1,1.2c0.2,0.4,0.4,1,0.4,1.6c0,0.6-0.1,1.1-0.4,1.6
				c-0.3,0.5-0.6,0.9-1.1,1.2c-0.5,0.3-1,0.6-1.6,0.7c-0.6,0.2-1.3,0.2-1.9,0.2c-0.4,0-0.8,0-1.3-0.1s-0.9-0.2-1.3-0.3
				s-0.8-0.3-1.1-0.5c-0.4-0.2-0.7-0.5-0.9-0.8c-0.3-0.3-0.5-0.7-0.6-1.1c-0.2-0.4-0.2-0.9-0.2-1.5h0.5c0,0.5,0.1,0.9,0.2,1.3
				c0.1,0.4,0.3,0.7,0.6,1c0.2,0.3,0.5,0.5,0.9,0.7s0.7,0.3,1,0.5c0.4,0.1,0.7,0.2,1.1,0.3s0.7,0.1,1.1,0.1c0.6,0,1.2-0.1,1.8-0.2
				c0.5-0.2,1-0.4,1.4-0.7c0.4-0.3,0.7-0.6,0.9-1C157.8,15.1,157.9,14.7,157.9,14.2z"/>
			<path class="st0" d="M179.8,12.4c0,0.8-0.1,1.6-0.3,2.3c-0.2,0.7-0.5,1.3-0.8,1.8c-0.4,0.5-0.8,0.9-1.3,1.1
				c-0.5,0.3-1.1,0.4-1.7,0.4c-0.4,0-0.9,0-1.2-0.1s-0.7-0.2-1-0.4c-0.3-0.2-0.6-0.4-0.8-0.6s-0.5-0.5-0.6-0.8V22h-0.5V6.8h0.5v2
				c0.2-0.3,0.4-0.6,0.6-0.9c0.2-0.3,0.5-0.5,0.8-0.7c0.3-0.2,0.7-0.3,1-0.4c0.4-0.1,0.8-0.2,1.2-0.2c0.6,0,1.2,0.1,1.7,0.4
				s0.9,0.6,1.3,1.1c0.4,0.5,0.6,1.1,0.8,1.8c0.2,0.7,0.3,1.5,0.3,2.3V12.4z M179.3,12.2c0-0.7-0.1-1.4-0.2-2
				c-0.1-0.6-0.4-1.1-0.7-1.6s-0.7-0.8-1.1-1s-1-0.4-1.6-0.4c-0.6,0-1.1,0.1-1.5,0.3s-0.8,0.4-1.1,0.7s-0.5,0.6-0.7,0.9
				c-0.2,0.3-0.3,0.7-0.4,1V15c0.1,0.3,0.3,0.7,0.5,1c0.2,0.3,0.5,0.5,0.8,0.8s0.7,0.4,1.1,0.5c0.4,0.1,0.9,0.2,1.4,0.2
				c0.6,0,1.1-0.1,1.6-0.4c0.4-0.2,0.8-0.6,1.1-1s0.5-1,0.7-1.6c0.1-0.6,0.2-1.3,0.2-2V12.2z"/>
			<path class="st0" d="M197.1,18c-0.7,0-1.3-0.1-1.9-0.4c-0.6-0.3-1.1-0.6-1.5-1.1c-0.4-0.5-0.8-1.1-1-1.7
				c-0.2-0.7-0.4-1.4-0.4-2.2v-0.4c0-0.8,0.1-1.5,0.4-2.2c0.2-0.7,0.6-1.2,1-1.7s0.9-0.9,1.5-1.1s1.2-0.4,1.8-0.4
				c0.6,0,1.2,0.1,1.7,0.3c0.5,0.2,0.9,0.5,1.3,1c0.4,0.4,0.7,0.9,0.9,1.5c0.2,0.6,0.3,1.2,0.3,1.9v0.6h-8.2v0.2v0.4
				c0,0.7,0.1,1.3,0.3,1.9c0.2,0.6,0.5,1.1,0.9,1.6s0.8,0.8,1.4,1s1.1,0.4,1.7,0.4c0.3,0,0.6,0,0.9-0.1s0.6-0.1,0.8-0.2
				c0.3-0.1,0.5-0.3,0.8-0.5c0.2-0.2,0.5-0.4,0.7-0.7l0.4,0.3c-0.2,0.3-0.4,0.5-0.6,0.7c-0.2,0.2-0.5,0.4-0.8,0.6
				c-0.3,0.2-0.6,0.3-1,0.4C198,17.9,197.6,18,197.1,18z M196.9,7.1c-0.6,0-1.1,0.1-1.5,0.3c-0.5,0.2-0.9,0.5-1.2,0.9
				c-0.4,0.4-0.6,0.8-0.9,1.3c-0.2,0.5-0.4,1.1-0.4,1.7h7.6v-0.1c0-0.5-0.1-1.1-0.3-1.6c-0.2-0.5-0.4-0.9-0.7-1.3
				c-0.3-0.4-0.7-0.7-1.1-0.9C198,7.2,197.5,7.1,196.9,7.1z"/>
			<path class="st0" d="M218,18c-0.7,0-1.3-0.1-1.9-0.4c-0.6-0.3-1.1-0.6-1.5-1.1c-0.4-0.5-0.8-1.1-1-1.7c-0.2-0.7-0.4-1.4-0.4-2.2
				v-0.4c0-0.8,0.1-1.5,0.4-2.2c0.2-0.7,0.6-1.2,1-1.7s0.9-0.9,1.5-1.1s1.2-0.4,1.8-0.4c0.6,0,1.2,0.1,1.7,0.3
				c0.5,0.2,0.9,0.5,1.3,1c0.4,0.4,0.7,0.9,0.9,1.5c0.2,0.6,0.3,1.2,0.3,1.9v0.6h-8.2v0.2v0.4c0,0.7,0.1,1.3,0.3,1.9
				c0.2,0.6,0.5,1.1,0.9,1.6s0.8,0.8,1.4,1s1.1,0.4,1.7,0.4c0.3,0,0.6,0,0.9-0.1s0.6-0.1,0.8-0.2c0.3-0.1,0.5-0.3,0.8-0.5
				c0.2-0.2,0.5-0.4,0.7-0.7l0.4,0.3c-0.2,0.3-0.4,0.5-0.6,0.7c-0.2,0.2-0.5,0.4-0.8,0.6c-0.3,0.2-0.6,0.3-1,0.4
				C218.8,17.9,218.4,18,218,18z M217.8,7.1c-0.6,0-1.1,0.1-1.5,0.3c-0.5,0.2-0.9,0.5-1.2,0.9c-0.4,0.4-0.6,0.8-0.9,1.3
				c-0.2,0.5-0.4,1.1-0.4,1.7h7.6v-0.1c0-0.5-0.1-1.1-0.3-1.6c-0.2-0.5-0.4-0.9-0.7-1.3c-0.3-0.4-0.7-0.7-1.1-0.9
				C218.8,7.2,218.3,7.1,217.8,7.1z"/>
			<path class="st0" d="M234.3,12.2c0-0.9,0.1-1.6,0.3-2.3s0.5-1.3,0.8-1.8c0.4-0.5,0.8-0.8,1.3-1.1s1.1-0.4,1.7-0.4
				c0.5,0,0.9,0.1,1.2,0.2c0.4,0.1,0.7,0.3,1,0.5c0.3,0.2,0.6,0.4,0.8,0.7c0.2,0.3,0.4,0.6,0.6,0.9V2.2h0.5v15.6h-0.5V16
				c-0.2,0.3-0.4,0.5-0.6,0.8c-0.2,0.2-0.5,0.4-0.8,0.6c-0.3,0.2-0.7,0.3-1,0.4c-0.4,0.1-0.8,0.1-1.3,0.1c-0.6,0-1.2-0.1-1.7-0.4
				c-0.5-0.3-0.9-0.6-1.3-1.1c-0.4-0.5-0.6-1.1-0.8-1.8c-0.2-0.7-0.3-1.4-0.3-2.3V12.2z M234.9,12.4c0,0.7,0.1,1.4,0.2,2
				c0.1,0.6,0.4,1.1,0.7,1.6s0.7,0.8,1.1,1s1,0.4,1.6,0.4c0.5,0,1-0.1,1.4-0.2c0.4-0.1,0.8-0.3,1.1-0.5c0.3-0.2,0.6-0.5,0.8-0.8
				c0.2-0.3,0.4-0.6,0.5-0.9V9.9c-0.1-0.3-0.3-0.6-0.4-1c-0.2-0.3-0.4-0.6-0.7-0.9s-0.7-0.5-1.1-0.7s-0.9-0.3-1.5-0.3
				c-0.6,0-1.1,0.1-1.6,0.4c-0.4,0.2-0.8,0.6-1.1,1s-0.5,1-0.7,1.6c-0.1,0.6-0.2,1.3-0.2,2V12.4z"/>
			<path class="st0" d="M281.1,14.2c0-0.5-0.1-0.9-0.2-1.2c-0.2-0.4-0.4-0.7-0.8-1c-0.4-0.3-0.8-0.6-1.4-0.8
				c-0.6-0.2-1.3-0.5-2.1-0.7c-0.8-0.2-1.4-0.4-2-0.6c-0.6-0.2-1.1-0.5-1.5-0.8c-0.4-0.3-0.7-0.7-1-1.1c-0.2-0.4-0.3-0.9-0.3-1.5
				c0-0.6,0.1-1.1,0.4-1.5c0.2-0.4,0.6-0.8,1-1.1c0.4-0.3,1-0.5,1.6-0.7c0.6-0.2,1.2-0.2,1.9-0.2c0.7,0,1.4,0.1,2,0.3
				c0.6,0.2,1.1,0.5,1.6,0.9c0.4,0.4,0.8,0.8,1,1.4c0.2,0.5,0.4,1.1,0.4,1.8h-0.5c0-0.5-0.1-1.1-0.3-1.5s-0.5-0.9-0.9-1.2
				c-0.4-0.3-0.8-0.6-1.4-0.8s-1.1-0.3-1.8-0.3c-0.7,0-1.3,0.1-1.9,0.2c-0.5,0.2-1,0.4-1.4,0.7c-0.4,0.3-0.6,0.6-0.8,1
				c-0.2,0.4-0.3,0.8-0.3,1.2c0,0.4,0.1,0.8,0.2,1.1c0.1,0.3,0.4,0.6,0.7,0.9c0.3,0.3,0.8,0.6,1.4,0.8c0.6,0.3,1.3,0.5,2.2,0.7
				c0.7,0.2,1.4,0.4,2,0.6c0.6,0.2,1.1,0.5,1.6,0.8c0.4,0.3,0.8,0.7,1,1.2c0.2,0.4,0.4,1,0.4,1.6c0,0.6-0.1,1.1-0.4,1.6
				c-0.3,0.5-0.6,0.9-1.1,1.2c-0.5,0.3-1,0.6-1.6,0.7c-0.6,0.2-1.3,0.2-1.9,0.2c-0.4,0-0.8,0-1.3-0.1s-0.9-0.2-1.3-0.3
				s-0.8-0.3-1.1-0.5c-0.4-0.2-0.7-0.5-0.9-0.8c-0.3-0.3-0.5-0.7-0.6-1.1c-0.2-0.4-0.2-0.9-0.2-1.5h0.5c0,0.5,0.1,0.9,0.2,1.3
				c0.1,0.4,0.3,0.7,0.6,1c0.2,0.3,0.5,0.5,0.9,0.7s0.7,0.3,1,0.5c0.4,0.1,0.7,0.2,1.1,0.3s0.7,0.1,1.1,0.1c0.6,0,1.2-0.1,1.8-0.2
				c0.5-0.2,1-0.4,1.4-0.7c0.4-0.3,0.7-0.6,0.9-1C280.9,15.1,281.1,14.7,281.1,14.2z"/>
			<path class="st0" d="M295.1,9.3c0.2-0.4,0.4-0.7,0.6-1.1s0.5-0.6,0.9-0.9c0.3-0.2,0.7-0.4,1.1-0.6c0.4-0.1,0.8-0.2,1.3-0.2
				c0.6,0,1,0.1,1.5,0.2c0.4,0.2,0.8,0.4,1.1,0.7c0.3,0.3,0.5,0.7,0.7,1.3s0.2,1.1,0.2,1.9v7.1H302v-7.1c0-0.7-0.1-1.3-0.2-1.7
				c-0.1-0.5-0.4-0.8-0.6-1.1c-0.3-0.3-0.6-0.5-0.9-0.6c-0.4-0.1-0.8-0.2-1.2-0.2c-0.4,0-0.8,0.1-1.1,0.2s-0.6,0.3-0.9,0.5
				c-0.3,0.2-0.5,0.4-0.7,0.6c-0.2,0.2-0.4,0.5-0.5,0.8s-0.3,0.5-0.4,0.8c-0.1,0.3-0.2,0.5-0.2,0.8v7h-0.5V2.2h0.5V9.3z"/>
			<path class="st0" d="M315.5,12.1c0-0.8,0.1-1.5,0.3-2.2c0.2-0.7,0.6-1.2,1-1.7c0.4-0.5,0.9-0.9,1.5-1.1s1.2-0.4,1.9-0.4
				c0.7,0,1.4,0.1,2,0.4s1.1,0.6,1.5,1.1s0.7,1.1,1,1.7c0.2,0.7,0.4,1.4,0.4,2.2v0.4c0,0.8-0.1,1.5-0.3,2.2c-0.2,0.7-0.6,1.2-1,1.7
				c-0.4,0.5-0.9,0.9-1.5,1.1c-0.6,0.3-1.2,0.4-1.9,0.4c-0.7,0-1.4-0.1-2-0.4c-0.6-0.3-1.1-0.6-1.5-1.1c-0.4-0.5-0.8-1.1-1-1.7
				c-0.2-0.7-0.3-1.4-0.3-2.2V12.1z M316,12.5c0,0.7,0.1,1.3,0.3,1.9c0.2,0.6,0.5,1.1,0.8,1.6c0.4,0.5,0.8,0.8,1.3,1.1
				c0.5,0.3,1.1,0.4,1.8,0.4c0.7,0,1.3-0.1,1.8-0.4c0.5-0.3,1-0.6,1.3-1.1c0.4-0.5,0.6-1,0.8-1.6s0.3-1.2,0.3-1.9v-0.4
				c0-0.6-0.1-1.3-0.3-1.8c-0.2-0.6-0.5-1.1-0.8-1.6c-0.4-0.5-0.8-0.8-1.3-1.1c-0.5-0.3-1.1-0.4-1.8-0.4c-0.7,0-1.3,0.1-1.8,0.4
				c-0.5,0.3-1,0.6-1.3,1.1c-0.4,0.5-0.6,1-0.8,1.6c-0.2,0.6-0.3,1.2-0.3,1.8V12.5z"/>
			<path class="st0" d="M346.5,12.4c0,0.8-0.1,1.6-0.3,2.3c-0.2,0.7-0.5,1.3-0.8,1.8c-0.4,0.5-0.8,0.9-1.3,1.1
				c-0.5,0.3-1.1,0.4-1.7,0.4c-0.4,0-0.9,0-1.2-0.1s-0.7-0.2-1-0.4c-0.3-0.2-0.6-0.4-0.8-0.6s-0.5-0.5-0.6-0.8V22h-0.5V6.8h0.5v2
				c0.2-0.3,0.4-0.6,0.6-0.9c0.2-0.3,0.5-0.5,0.8-0.7c0.3-0.2,0.7-0.3,1-0.4c0.4-0.1,0.8-0.2,1.2-0.2c0.6,0,1.2,0.1,1.7,0.4
				s0.9,0.6,1.3,1.1c0.4,0.5,0.6,1.1,0.8,1.8c0.2,0.7,0.3,1.5,0.3,2.3V12.4z M346,12.2c0-0.7-0.1-1.4-0.2-2
				c-0.1-0.6-0.4-1.1-0.7-1.6s-0.7-0.8-1.1-1s-1-0.4-1.6-0.4c-0.6,0-1.1,0.1-1.5,0.3s-0.8,0.4-1.1,0.7s-0.5,0.6-0.7,0.9
				c-0.2,0.3-0.3,0.7-0.4,1V15c0.1,0.3,0.3,0.7,0.5,1c0.2,0.3,0.5,0.5,0.8,0.8s0.7,0.4,1.1,0.5c0.4,0.1,0.9,0.2,1.4,0.2
				c0.6,0,1.1-0.1,1.6-0.4c0.4-0.2,0.8-0.6,1.1-1s0.5-1,0.7-1.6c0.1-0.6,0.2-1.3,0.2-2V12.2z"/>
		</g>
	</g>
</g>
<g id="home">
</g>
<g id="NAVBAR">
	<g id="navBar">
	</g>
	<g id="mouseOver_1_">
	</g>
</g>
</svg>
