<?xml version="1.0" encoding="utf-8"?>
<!-- Generator: Adobe Illustrator 19.0.1, SVG Export Plug-In . SVG Version: 6.00 Build 0)  -->
<svg version="1.1" xmlns="http://www.w3.org/2000/svg" xmlns:xlink="http://www.w3.org/1999/xlink" x="0px" y="0px"
	 viewBox="0 0 195.7 23.4" style="enable-background:new 0 0 195.7 23.4;" xml:space="preserve">
<style type="text/css">
	.st0{fill:#FFFFFF;}
	.st1{fill:#3399CC;}
	.st2{fill:#FF9966;}
	.st3{fill:#382C3D;}
	.st4{fill:#221F20;}
	.st5{fill:#FFCC66;}
	.st6{fill:#3D220E;}
	.st7{fill:none;stroke:#FFFFFF;stroke-width:0.5618;stroke-miterlimit:10;}
	.st8{fill:#CDCBCA;}
	.st9{fill:#669897;}
	.st10{clip-path:url(#SVGID_4_);}
	.st11{fill:none;stroke:#FFFFFF;stroke-width:2.3528;stroke-miterlimit:10;}
	.st12{fill:#CDCAC9;}
	.st13{fill:#FDCC66;}
	.st14{fill:url(#SVGID_5_);}
	.st15{fill:url(#SVGID_6_);}
	.st16{fill:url(#SVGID_7_);}
	.st17{fill:#999999;}
	.st18{fill:#CC6633;}
	.st19{opacity:0.5;fill:#653614;}
	.st20{opacity:0.69;fill:#FF9966;}
</style>
<g id="contact">
</g>
<g id="about">
</g>
<g id="WORK">
	<g id="work">
	</g>
	<g id="mouseOver">
		<g>
			<path class="st0" d="M12.4,16.2c-0.1,0.2-0.3,0.4-0.6,0.6s-0.6,0.4-1,0.6s-0.9,0.3-1.5,0.5C8.7,17.9,8.1,18,7.4,18
				c-0.8,0-1.6-0.2-2.3-0.5c-0.7-0.3-1.3-0.8-1.8-1.3c-0.5-0.6-0.9-1.3-1.2-2c-0.3-0.8-0.4-1.7-0.4-2.6V9.1c0-0.9,0.1-1.8,0.4-2.5
				c0.3-0.8,0.6-1.4,1.1-2C3.7,4,4.3,3.6,5,3.3C5.7,3,6.4,2.8,7.2,2.8c0.8,0,1.5,0.1,2.1,0.3c0.6,0.2,1.1,0.5,1.6,0.9s0.8,0.8,1,1.3
				c0.2,0.5,0.4,1.1,0.5,1.7h-0.5c-0.1-0.5-0.2-0.9-0.4-1.4s-0.5-0.8-0.9-1.2c-0.4-0.3-0.8-0.6-1.4-0.8S8,3.3,7.2,3.3
				c-0.8,0-1.4,0.1-2,0.4C4.6,4,4,4.4,3.6,4.9c-0.4,0.5-0.8,1.1-1,1.8C2.4,7.4,2.2,8.2,2.2,9v2.4c0,0.9,0.1,1.7,0.4,2.4
				c0.2,0.7,0.6,1.4,1,1.9c0.4,0.5,1,0.9,1.6,1.2c0.6,0.3,1.3,0.4,2.1,0.4c0.6,0,1.2,0,1.7-0.1c0.5-0.1,0.9-0.2,1.3-0.4
				c0.4-0.1,0.7-0.3,1-0.5s0.4-0.3,0.6-0.5v-4.3H7.4v-0.6h5.1V16.2z"/>
			<path class="st0" d="M31.2,7.2c-0.1,0-0.2,0-0.3,0c-0.1,0-0.2,0-0.4,0c-0.5,0-1,0.1-1.4,0.3c-0.4,0.2-0.8,0.4-1.1,0.7
				c-0.3,0.3-0.5,0.7-0.7,1.1c-0.2,0.4-0.3,0.9-0.4,1.4v7.2h-0.5v-11h0.5v2.3c0.3-0.8,0.7-1.4,1.3-1.8c0.6-0.4,1.3-0.7,2.2-0.7
				c0.2,0,0.3,0,0.4,0c0.1,0,0.2,0,0.3,0.1L31.2,7.2z"/>
			<path class="st0" d="M50.4,17.8c-0.1-0.3-0.1-0.6-0.2-0.9c0-0.4,0-0.7,0-1.1c-0.2,0.3-0.4,0.6-0.7,0.8c-0.3,0.3-0.6,0.5-0.9,0.7
				c-0.4,0.2-0.8,0.4-1.2,0.5c-0.4,0.1-0.9,0.2-1.5,0.2c-0.5,0-1-0.1-1.4-0.2c-0.4-0.1-0.8-0.3-1.1-0.6c-0.3-0.3-0.5-0.6-0.7-0.9
				c-0.2-0.4-0.2-0.8-0.2-1.2c0-0.5,0.1-0.9,0.3-1.3c0.2-0.4,0.6-0.8,1-1.1s1-0.5,1.6-0.7c0.6-0.2,1.3-0.2,2.1-0.2h2.6V10
				c0-0.9-0.3-1.6-0.9-2.1c-0.6-0.5-1.4-0.8-2.5-0.8c-0.5,0-1,0.1-1.4,0.2c-0.4,0.1-0.8,0.3-1.1,0.6c-0.3,0.2-0.6,0.5-0.7,0.9
				c-0.2,0.3-0.3,0.7-0.3,1.1l-0.5,0c0-0.4,0.1-0.8,0.3-1.2s0.5-0.7,0.8-1c0.4-0.3,0.8-0.5,1.3-0.7c0.5-0.2,1-0.3,1.6-0.3
				c0.6,0,1.1,0.1,1.6,0.2c0.5,0.1,0.9,0.4,1.2,0.6s0.6,0.6,0.8,1.1c0.2,0.4,0.3,0.9,0.3,1.5v5.5c0,0.2,0,0.4,0,0.6s0,0.4,0.1,0.6
				c0,0.2,0.1,0.4,0.1,0.5c0,0.2,0.1,0.3,0.1,0.4v0.1H50.4z M45.9,17.4c0.5,0,1-0.1,1.5-0.2c0.4-0.1,0.9-0.3,1.2-0.5s0.7-0.5,1-0.8
				c0.3-0.3,0.5-0.7,0.7-1.1v-2.6h-2.6c-0.7,0-1.3,0.1-1.9,0.2c-0.6,0.1-1,0.3-1.4,0.6c-0.4,0.2-0.7,0.5-0.9,0.9
				C43.1,14.2,43,14.6,43,15c0,0.3,0.1,0.6,0.2,0.9c0.1,0.3,0.3,0.5,0.6,0.8c0.2,0.2,0.5,0.4,0.9,0.5C45.1,17.4,45.4,17.4,45.9,17.4
				z"/>
			<path class="st0" d="M68.3,17.4c0.4,0,0.8-0.1,1.3-0.2c0.4-0.1,0.8-0.3,1.1-0.5c0.3-0.2,0.6-0.5,0.8-0.9s0.3-0.8,0.4-1.4h0.5
				c0,0.6-0.2,1.1-0.4,1.5c-0.2,0.4-0.5,0.8-0.9,1.1s-0.8,0.5-1.3,0.7c-0.5,0.2-1,0.2-1.5,0.2c-0.7,0-1.3-0.1-1.9-0.4
				c-0.6-0.3-1-0.6-1.4-1.1c-0.4-0.5-0.7-1.1-0.9-1.7c-0.2-0.7-0.3-1.4-0.3-2.2v-0.4c0-0.8,0.1-1.5,0.3-2.2c0.2-0.7,0.5-1.2,0.9-1.7
				s0.8-0.9,1.4-1.1c0.6-0.3,1.2-0.4,1.9-0.4c0.5,0,1,0.1,1.5,0.2s0.9,0.4,1.3,0.7c0.4,0.3,0.7,0.7,0.9,1.2c0.2,0.5,0.4,1,0.4,1.7
				h-0.5c0-0.5-0.1-1-0.3-1.4c-0.2-0.4-0.5-0.8-0.8-1c-0.3-0.3-0.7-0.5-1.1-0.6c-0.4-0.1-0.8-0.2-1.3-0.2c-0.7,0-1.3,0.1-1.7,0.4
				c-0.5,0.3-0.9,0.6-1.2,1.1c-0.3,0.4-0.6,1-0.7,1.6c-0.2,0.6-0.2,1.2-0.2,1.9v0.4c0,0.7,0.1,1.3,0.2,1.9c0.2,0.6,0.4,1.1,0.7,1.6
				c0.3,0.4,0.7,0.8,1.2,1S67.7,17.4,68.3,17.4z"/>
			<path class="st0" d="M89.5,18c-0.7,0-1.3-0.1-1.9-0.4c-0.6-0.3-1.1-0.6-1.5-1.1c-0.4-0.5-0.8-1.1-1-1.7c-0.2-0.7-0.4-1.4-0.4-2.2
				v-0.4c0-0.8,0.1-1.5,0.4-2.2c0.2-0.7,0.6-1.2,1-1.7s0.9-0.9,1.5-1.1s1.2-0.4,1.8-0.4c0.6,0,1.2,0.1,1.7,0.3
				c0.5,0.2,0.9,0.5,1.3,1c0.4,0.4,0.7,0.9,0.9,1.5c0.2,0.6,0.3,1.2,0.3,1.9v0.6h-8.2v0.2v0.4c0,0.7,0.1,1.3,0.3,1.9
				c0.2,0.6,0.5,1.1,0.9,1.6s0.8,0.8,1.4,1s1.1,0.4,1.7,0.4c0.3,0,0.6,0,0.9-0.1s0.6-0.1,0.8-0.2c0.3-0.1,0.5-0.3,0.8-0.5
				c0.2-0.2,0.5-0.4,0.7-0.7l0.4,0.3c-0.2,0.3-0.4,0.5-0.6,0.7c-0.2,0.2-0.5,0.4-0.8,0.6c-0.3,0.2-0.6,0.3-1,0.4
				C90.3,17.9,89.9,18,89.5,18z M89.3,7.1c-0.6,0-1.1,0.1-1.5,0.3c-0.5,0.2-0.9,0.5-1.2,0.9c-0.4,0.4-0.6,0.8-0.9,1.3
				c-0.2,0.5-0.4,1.1-0.4,1.7h7.6v-0.1c0-0.5-0.1-1.1-0.3-1.6c-0.2-0.5-0.4-0.9-0.7-1.3c-0.3-0.4-0.7-0.7-1.1-0.9
				C90.3,7.2,89.8,7.1,89.3,7.1z"/>
			<path class="st0" d="M132,13.2c-0.1,0.8-0.3,1.5-0.5,2.1c-0.3,0.6-0.6,1.1-1.1,1.5c-0.5,0.4-1,0.7-1.6,0.9
				c-0.6,0.2-1.3,0.3-2,0.3c-0.8,0-1.5-0.2-2.2-0.5c-0.7-0.3-1.2-0.8-1.7-1.3c-0.5-0.6-0.8-1.2-1.1-2c-0.3-0.8-0.4-1.7-0.4-2.6V9.3
				c0-1,0.1-1.8,0.4-2.6c0.3-0.8,0.6-1.5,1.1-2s1-1,1.7-1.3c0.7-0.3,1.4-0.5,2.2-0.5c0.7,0,1.4,0.1,2,0.3c0.6,0.2,1.1,0.5,1.6,0.9
				c0.5,0.4,0.8,0.9,1.1,1.5c0.3,0.6,0.5,1.3,0.5,2.1h-0.5c-0.2-1.4-0.6-2.4-1.4-3.1c-0.8-0.7-1.9-1.1-3.3-1.1c-0.7,0-1.4,0.1-2,0.4
				s-1.1,0.7-1.5,1.2c-0.4,0.5-0.7,1.1-1,1.9c-0.2,0.7-0.3,1.5-0.3,2.4v2.2c0,0.9,0.1,1.7,0.3,2.4c0.2,0.7,0.6,1.4,1,1.9
				c0.4,0.5,0.9,0.9,1.5,1.2c0.6,0.3,1.2,0.4,2,0.4c0.7,0,1.3-0.1,1.8-0.2c0.5-0.2,1-0.4,1.4-0.8c0.4-0.3,0.7-0.8,1-1.3
				s0.4-1.1,0.5-1.9H132z"/>
			<path class="st0" d="M145.4,3.4c0-0.2,0.1-0.3,0.2-0.4s0.2-0.2,0.4-0.2c0.2,0,0.3,0.1,0.4,0.2c0.1,0.1,0.2,0.2,0.2,0.4
				s-0.1,0.3-0.2,0.4c-0.1,0.1-0.2,0.2-0.4,0.2c-0.2,0-0.3-0.1-0.4-0.2S145.4,3.5,145.4,3.4z M146.2,17.8h-0.5v-11h0.5V17.8z"/>
			<path class="st0" d="M161.4,3.8v3h2.5v0.6h-2.5v7.8c0,0.5,0,0.9,0.1,1.2c0.1,0.3,0.2,0.5,0.4,0.7c0.2,0.2,0.3,0.3,0.5,0.3
				s0.4,0.1,0.6,0.1c0.2,0,0.4,0,0.6,0c0.2,0,0.3,0,0.5-0.1l0.1,0.5c-0.1,0-0.2,0-0.3,0.1c-0.1,0-0.2,0-0.3,0c-0.1,0-0.2,0-0.3,0
				c-0.1,0-0.2,0-0.3,0c-0.4,0-0.7,0-0.9-0.1c-0.3-0.1-0.5-0.2-0.7-0.5c-0.2-0.2-0.3-0.5-0.4-0.9c-0.1-0.4-0.2-0.8-0.2-1.4V7.3h-2
				V6.8h2v-3H161.4z"/>
			<path class="st0" d="M180.5,16.9l0.1-0.2l3.8-9.9h0.6l-4.9,12.8c-0.1,0.2-0.2,0.5-0.3,0.8s-0.3,0.6-0.5,0.9
				c-0.2,0.3-0.5,0.5-0.8,0.7s-0.7,0.3-1.2,0.3c-0.1,0-0.1,0-0.2,0c-0.1,0-0.2,0-0.2,0c-0.1,0-0.2,0-0.2,0c-0.1,0-0.1,0-0.2-0.1
				l0-0.5c0,0,0.1,0,0.2,0c0.1,0,0.1,0,0.2,0c0.1,0,0.1,0,0.2,0c0.1,0,0.1,0,0.1,0c0.3,0,0.6-0.1,0.9-0.2c0.3-0.1,0.5-0.3,0.7-0.5
				c0.2-0.2,0.3-0.4,0.5-0.7s0.3-0.6,0.4-0.9l0.7-1.8l-4.4-10.9h0.6L180.5,16.9z"/>
		</g>
	</g>
</g>
<g id="home">
</g>
<g id="NAVBAR">
	<g id="navBar">
	</g>
	<g id="mouseOver_1_">
	</g>
</g>
</svg>
