<?xml version="1.0" encoding="utf-8"?>
<!-- Generator: Adobe Illustrator 19.0.1, SVG Export Plug-In . SVG Version: 6.00 Build 0)  -->
<svg version="1.1" xmlns="http://www.w3.org/2000/svg" xmlns:xlink="http://www.w3.org/1999/xlink" x="0px" y="0px"
	 viewBox="0 0 243 137.7" style="enable-background:new 0 0 243 137.7;" xml:space="preserve">
<style type="text/css">
	.st0{fill:#FFFFFF;}
	.st1{fill:#3399CC;}
	.st2{fill:#FF9966;}
	.st3{fill:#382C3D;}
	.st4{fill:#221F20;}
	.st5{fill:#FFCC66;}
	.st6{fill:#3D220E;}
	.st7{fill:none;stroke:#FFFFFF;stroke-width:0.5618;stroke-miterlimit:10;}
	.st8{fill:#CDCBCA;}
	.st9{fill:#669897;}
	.st10{fill:#CC6632;}
	.st11{fill:none;stroke:#FFFFFF;stroke-width:2.3528;stroke-miterlimit:10;}
	.st12{display:none;}
	.st13{display:inline;fill:#3D220E;}
	.st14{display:inline;fill:#FF9966;}
	.st15{display:inline;fill:#3399CC;}
	.st16{font-family:'Roboto-Thin';}
	.st17{font-size:20.7575px;}
	.st18{letter-spacing:10;}
	.st19{display:inline;fill:#382C3D;}
	.st20{display:inline;}
	.st21{fill:#CDCAC9;}
	.st22{display:inline;fill:#FFFFFF;}
	.st23{fill:#FDCC66;}
	.st24{display:inline;fill:#669897;}
	.st25{display:inline;fill:#362012;}
	.st26{fill:url(#SVGID_5_);}
	.st27{fill:url(#SVGID_6_);}
	.st28{fill:url(#SVGID_7_);}
	.st29{fill:#999999;}
	.st30{fill:#CC6633;}
	.st31{opacity:0.5;fill:#653614;}
	.st32{opacity:0.69;fill:#FF9966;}
</style>
<g id="contact">
</g>
<g id="about">
</g>
<g id="WORK">
	<g id="work">
		<g>
			<path class="st1" d="M73.2,102.6c0.8,0.1,2.6,2.1,3.4,2.2c8.5,0.8,15.7-0.7,23.7-1.9c16.2-2.3,46.5-21.3,59.1-27.1
				c8.1-3.7,14.5-7.4,20.1-11c0.4-0.3,7.6-4.2,6.3-7.2c-2.8-6.8-6.7-14.2-11.1-20c-3.3-4.3-12.1-12.9-16.4-16.1
				C147,13.4,139.8,9,127.2,13.2c-5.5,1.8-11.3,3.3-16.8,4.8c-2.5,0.7-2.5,0.7-5,1.3l-4.2-0.2l-2.5-3.3l-2.2-0.5
				c-3.8,1.8-6.8,2.9-10.4,4.7c-5.7,2.8-5.2,4-11.2,6.6c-7.6,3.3-12.1,8.8-15.1,18.4C53.1,66.1,56.9,80.6,73.2,102.6z"/>
			<path class="st1" d="M239.3,18.3c-2.7-4.9-6.5-9.1-11.1-11c-22.4-9.2-72.4,1.1-72.4,1.1c-0.1,0-2.4,1.4-2.9,1.8
				c0.9,1.1,1.9,2.1,2.8,3.1c3.3,3.7,6.4,4.6,9.8,7.7c0.4,0.4,2.2,0.9,5.3,0.6c8.4-0.7,22.7-2.2,24.9-1.9c0,0,10.8,4.3,12.9,7
				c0.3,0.4,3.7,4.9,3.9,5.2c1.8,3.2-0.8,6.4-2.9,10.2c-1.7,3-4.3,5.7-6.7,8.2c-1.3,1.3-2.6,2.7-3.7,4c-0.9,1.1-2,2.2-3,3.3
				c-1.1,1.2-2.3,2.4-3.2,3.6c-3.2,2.6-7.2,5.4-11.6,8.2c-5.6,3.6-12.1,7.3-20.1,11c-12.6,5.8-42.9,24.8-59.1,27.1
				c-7.9,1.1-16.3,1.5-24.8,1.3c-14.2-0.2-16.5,2.7-33.6,0.7c-6.6-0.8-13.3-4.7-15.6-7.5c-1.4-1.8-3.4-6.1-3.6-8.4
				c0-0.5-0.2-7,0.7-9.1c0.8-2,3.7-5.6,5.4-6.9c4.4-3.2,10.5-5.1,19.6-8.8c4.2-1.7,1-6,1.6-11.2c0.2-1.4,0.8-6.6,1.5-7.7
				c1.9-3.1-2,2.8-0.6-1.2c0.2-0.5,0.4-1,0.6-1.6c-1.8,1-3.4,2.1-5.1,3.1C30.1,60.8,22,62.4,11.7,75.2C4.1,84.7,0.9,91.6,0,98.4
				c-0.1,0.4,0.3,10.8,1.4,13.4c0.9,2.1,7.4,8.2,7.5,8.2c3.4,2.7,15.9,6.8,21.8,8.3c12.7,3.2,16.7,1,29,2
				c64.9-9.6,109.9-2.7,168.2-72.4c5.5-3.8,9.3-8.9,11.9-15c0.4-0.6,0.9-1,1.3-1.7l-0.6,0c0.6-1.5,1.6-2.7,2-4.4
				C243.9,30.9,242.4,24,239.3,18.3z"/>
			<ellipse class="st1" cx="226.7" cy="91.8" rx="9.5" ry="8.7"/>
			<path class="st1" d="M58.5,12.6c-3.3,2.5-8.3,2.1-11.1-0.9s-2.4-7.5,1-10.1s8.3-2.1,11.1,0.9S61.8,10.1,58.5,12.6z"/>
			<path class="st1" d="M29.3,20.1c-1.7,1.3-4.1,1.1-5.5-0.4s-1.2-3.7,0.5-5c1.7-1.3,4.1-1.1,5.5,0.4C31.1,16.6,30.9,18.9,29.3,20.1
				z"/>
			<path class="st1" d="M195.6,93.7c0,0,2.8,10.6-9.7,22c-12.6,11.5-39.3,25.7-72.2,21.1c-5.7-0.8-9.6-2.9-14.2-6.5
				C99.5,130.3,166.1,125.9,195.6,93.7z"/>
		</g>
	</g>
	<g id="mouseOver" class="st12">
		<rect x="-518.5" y="-51.2" class="st14" width="1280" height="239.3"/>
		<text transform="matrix(1 0 0 1 20.2816 74.7965)" class="st15 st16 st17 st18">Dillon Hall</text>
	</g>
</g>
<g id="home">
</g>
<g id="NAVBAR">
	<g id="navBar">
	</g>
	<g id="mouseOver_1_">
	</g>
</g>
</svg>
