<?xml version="1.0" encoding="utf-8"?>
<!-- Generator: Adobe Illustrator 19.0.1, SVG Export Plug-In . SVG Version: 6.00 Build 0)  -->
<svg version="1.1" xmlns="http://www.w3.org/2000/svg" xmlns:xlink="http://www.w3.org/1999/xlink" x="0px" y="0px"
	 viewBox="0 0 159.6 23.4" style="enable-background:new 0 0 159.6 23.4;" xml:space="preserve">
<style type="text/css">
	.st0{fill:#FFFFFF;}
	.st1{fill:#3399CC;}
	.st2{fill:#FF9966;}
	.st3{fill:#382C3D;}
	.st4{fill:#221F20;}
	.st5{fill:#FFCC66;}
	.st6{fill:#3D220E;}
	.st7{fill:none;stroke:#FFFFFF;stroke-width:0.5618;stroke-miterlimit:10;}
	.st8{fill:#CDCBCA;}
	.st9{fill:#669897;}
	.st10{clip-path:url(#SVGID_4_);}
	.st11{fill:none;stroke:#FFFFFF;stroke-width:2.3528;stroke-miterlimit:10;}
	.st12{fill:#CDCAC9;}
	.st13{fill:#FDCC66;}
	.st14{fill:url(#SVGID_5_);}
	.st15{fill:url(#SVGID_6_);}
	.st16{fill:url(#SVGID_7_);}
	.st17{fill:#999999;}
	.st18{fill:#CC6633;}
	.st19{opacity:0.5;fill:#653614;}
	.st20{opacity:0.69;fill:#FF9966;}
</style>
<g id="contact">
</g>
<g id="about">
</g>
<g id="WORK">
	<g id="work">
	</g>
	<g id="mouseOver">
		<g>
			<path class="st12" d="M2.6,11.5v6.2H2V3h4.6c0.8,0,1.5,0.1,2.1,0.3c0.6,0.2,1.1,0.5,1.5,0.9c0.4,0.4,0.7,0.8,0.9,1.4
				c0.2,0.5,0.3,1.1,0.3,1.8c0,0.6-0.1,1.2-0.3,1.8s-0.5,1-0.9,1.3c-0.4,0.4-0.9,0.6-1.5,0.8c-0.6,0.2-1.3,0.3-2.1,0.3H2.6z M2.6,11
				h4.1c0.7,0,1.4-0.1,1.9-0.3s1-0.5,1.3-0.8c0.3-0.3,0.6-0.7,0.8-1.2c0.2-0.4,0.2-0.9,0.2-1.4c0-0.5-0.1-1-0.2-1.5
				C10.5,5.4,10.2,5,9.9,4.7C9.5,4.3,9.1,4,8.6,3.8S7.4,3.5,6.6,3.5H2.6V11z"/>
			<path class="st12" d="M23.6,12.1c0-0.8,0.1-1.5,0.3-2.2c0.2-0.7,0.6-1.2,1-1.7c0.4-0.5,0.9-0.9,1.5-1.1s1.2-0.4,1.9-0.4
				c0.7,0,1.4,0.1,2,0.4s1.1,0.6,1.5,1.1s0.7,1.1,1,1.7c0.2,0.7,0.4,1.4,0.4,2.2v0.4c0,0.8-0.1,1.5-0.3,2.2c-0.2,0.7-0.6,1.2-1,1.7
				c-0.4,0.5-0.9,0.9-1.5,1.1c-0.6,0.3-1.2,0.4-1.9,0.4c-0.7,0-1.4-0.1-2-0.4c-0.6-0.3-1.1-0.6-1.5-1.1c-0.4-0.5-0.8-1.1-1-1.7
				c-0.2-0.7-0.3-1.4-0.3-2.2V12.1z M24.2,12.5c0,0.7,0.1,1.3,0.3,1.9c0.2,0.6,0.5,1.1,0.8,1.6c0.4,0.5,0.8,0.8,1.3,1.1
				c0.5,0.3,1.1,0.4,1.8,0.4c0.7,0,1.3-0.1,1.8-0.4c0.5-0.3,1-0.6,1.3-1.1c0.4-0.5,0.6-1,0.8-1.6s0.3-1.2,0.3-1.9v-0.4
				c0-0.6-0.1-1.3-0.3-1.8c-0.2-0.6-0.5-1.1-0.8-1.6c-0.4-0.5-0.8-0.8-1.3-1.1c-0.5-0.3-1.1-0.4-1.8-0.4c-0.7,0-1.3,0.1-1.8,0.4
				c-0.5,0.3-1,0.6-1.3,1.1c-0.4,0.5-0.6,1-0.8,1.6c-0.2,0.6-0.3,1.2-0.3,1.8V12.5z"/>
			<path class="st12" d="M54.1,17.8h-0.5v-7.3c0-0.7-0.1-1.2-0.2-1.6c-0.1-0.4-0.4-0.8-0.6-1c-0.3-0.3-0.6-0.4-1-0.5
				c-0.4-0.1-0.8-0.2-1.2-0.2c-0.6,0-1.1,0.1-1.6,0.4c-0.5,0.2-0.8,0.6-1.1,0.9c-0.3,0.4-0.6,0.8-0.7,1.2c-0.2,0.4-0.3,0.8-0.4,1.2
				v6.9h-0.6v-11h0.6v2.6c0.2-0.4,0.4-0.8,0.6-1.1c0.2-0.3,0.5-0.6,0.9-0.9s0.7-0.4,1.1-0.6c0.4-0.1,0.8-0.2,1.3-0.2
				c0.9,0,1.7,0.2,2.3,0.6s1,1.1,1.2,2c0.1-0.4,0.3-0.7,0.6-1c0.3-0.3,0.6-0.6,0.9-0.8c0.3-0.2,0.7-0.4,1.2-0.6
				c0.4-0.1,0.9-0.2,1.4-0.2c0.6,0,1,0.1,1.5,0.2c0.4,0.2,0.8,0.4,1.1,0.7s0.5,0.7,0.7,1.3s0.2,1.1,0.2,1.9v7.1H61v-7.1
				c0-0.7-0.1-1.3-0.2-1.7c-0.1-0.5-0.4-0.8-0.6-1.1c-0.3-0.3-0.6-0.5-1-0.6c-0.4-0.1-0.8-0.2-1.2-0.2c-0.4,0-0.8,0.1-1.2,0.2
				c-0.4,0.1-0.7,0.3-1,0.4c-0.3,0.2-0.5,0.4-0.7,0.6s-0.4,0.5-0.5,0.7c-0.1,0.2-0.3,0.5-0.3,0.7s-0.1,0.5-0.1,0.7V17.8z"/>
			<path class="st12" d="M83.6,12.4c0,0.8-0.1,1.6-0.3,2.3c-0.2,0.7-0.5,1.3-0.8,1.8c-0.4,0.5-0.8,0.9-1.3,1.1
				c-0.5,0.3-1.1,0.4-1.7,0.4c-0.4,0-0.9,0-1.2-0.1s-0.7-0.2-1-0.4c-0.3-0.2-0.6-0.4-0.8-0.6s-0.5-0.5-0.6-0.8V22h-0.5V6.8h0.5v2
				c0.2-0.3,0.4-0.6,0.6-0.9c0.2-0.3,0.5-0.5,0.8-0.7c0.3-0.2,0.7-0.3,1-0.4c0.4-0.1,0.8-0.2,1.2-0.2c0.6,0,1.2,0.1,1.7,0.4
				s0.9,0.6,1.3,1.1c0.4,0.5,0.6,1.1,0.8,1.8c0.2,0.7,0.3,1.5,0.3,2.3V12.4z M83.1,12.2c0-0.7-0.1-1.4-0.2-2
				c-0.1-0.6-0.4-1.1-0.7-1.6s-0.7-0.8-1.1-1s-1-0.4-1.6-0.4c-0.6,0-1.1,0.1-1.5,0.3S77.2,7.8,76.9,8s-0.5,0.6-0.7,0.9
				c-0.2,0.3-0.3,0.7-0.4,1V15c0.1,0.3,0.3,0.7,0.5,1c0.2,0.3,0.5,0.5,0.8,0.8s0.7,0.4,1.1,0.5c0.4,0.1,0.9,0.2,1.4,0.2
				c0.6,0,1.1-0.1,1.6-0.4c0.4-0.2,0.8-0.6,1.1-1s0.5-1,0.7-1.6c0.1-0.6,0.2-1.3,0.2-2V12.2z"/>
			<path class="st12" d="M96.2,12.1c0-0.8,0.1-1.5,0.3-2.2c0.2-0.7,0.6-1.2,1-1.7C97.9,7.6,98.4,7.3,99,7s1.2-0.4,1.9-0.4
				c0.7,0,1.4,0.1,2,0.4s1.1,0.6,1.5,1.1s0.7,1.1,1,1.7c0.2,0.7,0.4,1.4,0.4,2.2v0.4c0,0.8-0.1,1.5-0.3,2.2c-0.2,0.7-0.6,1.2-1,1.7
				c-0.4,0.5-0.9,0.9-1.5,1.1c-0.6,0.3-1.2,0.4-1.9,0.4c-0.7,0-1.4-0.1-2-0.4c-0.6-0.3-1.1-0.6-1.5-1.1c-0.4-0.5-0.8-1.1-1-1.7
				c-0.2-0.7-0.3-1.4-0.3-2.2V12.1z M96.7,12.5c0,0.7,0.1,1.3,0.3,1.9c0.2,0.6,0.5,1.1,0.8,1.6c0.4,0.5,0.8,0.8,1.3,1.1
				c0.5,0.3,1.1,0.4,1.8,0.4c0.7,0,1.3-0.1,1.8-0.4c0.5-0.3,1-0.6,1.3-1.1c0.4-0.5,0.6-1,0.8-1.6s0.3-1.2,0.3-1.9v-0.4
				c0-0.6-0.1-1.3-0.3-1.8c-0.2-0.6-0.5-1.1-0.8-1.6c-0.4-0.5-0.8-0.8-1.3-1.1c-0.5-0.3-1.1-0.4-1.8-0.4c-0.7,0-1.3,0.1-1.8,0.4
				c-0.5,0.3-1,0.6-1.3,1.1c-0.4,0.5-0.6,1-0.8,1.6c-0.2,0.6-0.3,1.2-0.3,1.8V12.5z"/>
			<path class="st12" d="M125.5,15.1c0-0.2,0-0.5-0.1-0.8s-0.3-0.5-0.5-0.7c-0.2-0.2-0.6-0.5-1-0.7c-0.4-0.2-1-0.4-1.7-0.5
				c-0.6-0.1-1.2-0.3-1.6-0.4c-0.5-0.2-0.9-0.4-1.2-0.6c-0.3-0.2-0.5-0.5-0.7-0.8c-0.2-0.3-0.2-0.7-0.2-1.2c0-0.4,0.1-0.7,0.3-1.1
				c0.2-0.3,0.4-0.6,0.7-0.9c0.3-0.2,0.7-0.4,1.2-0.6s1-0.2,1.5-0.2c0.6,0,1.2,0.1,1.6,0.2c0.5,0.2,0.9,0.4,1.2,0.6s0.6,0.6,0.8,1
				c0.2,0.4,0.3,0.8,0.3,1.3h-0.6c0-0.3-0.1-0.7-0.2-1c-0.1-0.3-0.4-0.6-0.6-0.8c-0.3-0.2-0.6-0.4-1.1-0.6s-0.9-0.2-1.4-0.2
				c-0.6,0-1,0.1-1.4,0.2c-0.4,0.1-0.7,0.3-1,0.5s-0.4,0.4-0.6,0.7c-0.1,0.3-0.2,0.5-0.2,0.8c0,0.3,0,0.5,0.1,0.8
				c0.1,0.2,0.2,0.5,0.5,0.7c0.2,0.2,0.6,0.4,1,0.6c0.4,0.2,1,0.4,1.7,0.5c0.7,0.1,1.2,0.3,1.7,0.5c0.5,0.2,0.9,0.4,1.2,0.7
				c0.3,0.3,0.5,0.5,0.7,0.9c0.1,0.3,0.2,0.7,0.2,1.1c0,0.4-0.1,0.8-0.3,1.2c-0.2,0.4-0.4,0.7-0.8,0.9c-0.3,0.3-0.7,0.5-1.2,0.6
				c-0.5,0.1-1,0.2-1.6,0.2c-0.7,0-1.2-0.1-1.8-0.2c-0.5-0.2-0.9-0.4-1.3-0.6c-0.3-0.3-0.6-0.6-0.8-1c-0.2-0.4-0.3-0.7-0.3-1.2h0.5
				c0,0.5,0.2,0.9,0.4,1.2c0.2,0.3,0.5,0.6,0.8,0.8s0.7,0.3,1.1,0.4c0.4,0.1,0.8,0.1,1.2,0.1c0.5,0,1-0.1,1.4-0.2
				c0.4-0.1,0.8-0.3,1-0.5c0.3-0.2,0.5-0.5,0.6-0.8C125.5,15.6,125.5,15.4,125.5,15.1z"/>
			<path class="st12" d="M138.7,12.1c0-0.8,0.1-1.5,0.3-2.2c0.2-0.7,0.6-1.2,1-1.7c0.4-0.5,0.9-0.9,1.5-1.1s1.2-0.4,1.9-0.4
				c0.7,0,1.4,0.1,2,0.4s1.1,0.6,1.5,1.1s0.7,1.1,1,1.7c0.2,0.7,0.4,1.4,0.4,2.2v0.4c0,0.8-0.1,1.5-0.3,2.2c-0.2,0.7-0.6,1.2-1,1.7
				c-0.4,0.5-0.9,0.9-1.5,1.1c-0.6,0.3-1.2,0.4-1.9,0.4c-0.7,0-1.4-0.1-2-0.4c-0.6-0.3-1.1-0.6-1.5-1.1c-0.4-0.5-0.8-1.1-1-1.7
				c-0.2-0.7-0.3-1.4-0.3-2.2V12.1z M139.2,12.5c0,0.7,0.1,1.3,0.3,1.9c0.2,0.6,0.5,1.1,0.8,1.6c0.4,0.5,0.8,0.8,1.3,1.1
				c0.5,0.3,1.1,0.4,1.8,0.4c0.7,0,1.3-0.1,1.8-0.4c0.5-0.3,1-0.6,1.3-1.1c0.4-0.5,0.6-1,0.8-1.6s0.3-1.2,0.3-1.9v-0.4
				c0-0.6-0.1-1.3-0.3-1.8c-0.2-0.6-0.5-1.1-0.8-1.6c-0.4-0.5-0.8-0.8-1.3-1.1c-0.5-0.3-1.1-0.4-1.8-0.4c-0.7,0-1.3,0.1-1.8,0.4
				c-0.5,0.3-1,0.6-1.3,1.1c-0.4,0.5-0.6,1-0.8,1.6c-0.2,0.6-0.3,1.2-0.3,1.8V12.5z"/>
		</g>
	</g>
</g>
<g id="home">
</g>
<g id="NAVBAR">
	<g id="navBar">
	</g>
	<g id="mouseOver_1_">
	</g>
</g>
</svg>
