<?xml version="1.0" encoding="utf-8"?>
<!-- Generator: Adobe Illustrator 19.0.1, SVG Export Plug-In . SVG Version: 6.00 Build 0)  -->
<svg version="1.1" xmlns="http://www.w3.org/2000/svg" xmlns:xlink="http://www.w3.org/1999/xlink" x="0px" y="0px"
	 viewBox="0 0 509.3 122.3" style="enable-background:new 0 0 509.3 122.3;" xml:space="preserve">
<style type="text/css">
	.st0{display:none;}
	.st1{display:inline;fill:#FFFFFF;}
</style>
<g id="Layer_1" class="st0">
	<rect x="-381" y="-59.9" class="st1" width="1280" height="300"/>
</g>
<g id="Layer_2">
	<g>
		<path d="M9.9,9.9v2.7H0.2l4.9-5.4c0.7-0.8,1.4-1.9,1.4-3c0-0.8-0.5-1.6-1.4-1.6c-0.8,0-1.3,0.7-1.3,1.5c0,0.2,0,0.3,0,0.5H0.4
			C0.5,1.9,2.2,0,5.1,0c2.5,0,4.7,1.7,4.7,4.3C9.7,6,9,7,7.8,8.1L5.9,9.9H9.9z"/>
		<path d="M22.3,0.5l-3.4,4.1l0,0c0.5-0.2,1.1-0.4,1.7-0.4c2.4,0,3.9,2,3.9,4.2c0,3-2.4,4.6-5.2,4.6c-1.2,0-2.5-0.3-3.4-1
			c-1-0.8-1.6-2.1-1.6-3.3c0-1.7,0.9-3.4,1.9-4.8l2.6-3.4H22.3z M21.2,8.6c0-1.1-0.8-2-1.9-2c-1.1,0-2,0.9-2,2c0,1.1,0.9,2,2,2
			C20.3,10.6,21.2,9.7,21.2,8.6z"/>
		<path d="M37.7,0.5h4.4c3.4,0,6.1,2.6,6.1,6c0,3.4-2.8,6-6.1,6h-4.4V0.5z M40.8,9.9h0.7c1.9,0,3.5-1,3.5-3.4c0-2.2-1.4-3.4-3.4-3.4
			h-0.7V9.9z"/>
		<path d="M56,10.5l-0.8,2.1h-3.3l4.6-12.1h3.4l4.5,12.1h-3.3l-0.8-2.1H56z M58.2,4.2L58.2,4.2l-1.3,3.8h2.6L58.2,4.2z"/>
		<path d="M65.4,0.5h3.8l2.3,3.3l2.3-3.3h3.8L73,6.8v5.8h-3.1V6.8L65.4,0.5z"/>
		<path d="M88,3.6c-0.6-0.5-1.3-0.8-2.1-0.8c-0.6,0-1.3,0.3-1.3,1c0,0.7,0.8,1,1.4,1.2l0.8,0.2c1.7,0.5,3,1.3,3,3.3
			c0,1.2-0.3,2.4-1.2,3.2c-0.9,0.8-2.2,1.1-3.4,1.1c-1.5,0-3-0.5-4.2-1.4L82.1,9c0.8,0.7,1.7,1.2,2.8,1.2c0.7,0,1.5-0.4,1.5-1.2
			c0-0.9-1.2-1.2-1.9-1.4c-2-0.6-3.3-1.1-3.3-3.4c0-2.4,1.7-4,4.2-4c1.2,0,2.7,0.4,3.8,1L88,3.6z"/>
		<path d="M98.5,9.5l-2.9,5.3h-1.9l2.1-5.3H98.5z"/>
		<path d="M121,9.9v2.7h-9.7l4.9-5.4c0.7-0.8,1.4-1.9,1.4-3c0-0.8-0.5-1.6-1.4-1.6c-0.8,0-1.3,0.7-1.3,1.5c0,0.2,0,0.3,0,0.5h-3.5
			c0.1-2.8,1.9-4.6,4.7-4.6c2.5,0,4.7,1.7,4.7,4.3c0,1.7-0.7,2.7-2,3.9L117,9.9H121z"/>
		<path d="M133.4,0.5l-3.4,4.1l0,0c0.5-0.2,1.1-0.4,1.7-0.4c2.4,0,3.9,2,3.9,4.2c0,3-2.4,4.6-5.2,4.6c-1.2,0-2.5-0.3-3.4-1
			c-1-0.8-1.6-2.1-1.6-3.3c0-1.7,0.9-3.4,1.9-4.8l2.6-3.4H133.4z M132.3,8.6c0-1.1-0.8-2-1.9-2c-1.1,0-2,0.9-2,2c0,1.1,0.9,2,2,2
			C131.4,10.6,132.3,9.7,132.3,8.6z"/>
		<path d="M151.9,9.9h3.8v2.7h-6.9V0.5h3.1V9.9z"/>
		<path d="M163.1,3.1v2h3.5v2.7h-3.5v2.1h3.7v2.7h-6.9V0.5h6.9v2.7H163.1z"/>
		<path d="M176.7,12.5h-3.1V3.1H171V0.5h8.3v2.7h-2.6V12.5z"/>
		<path d="M188.5,12.5h-3.1V3.1h-2.6V0.5h8.3v2.7h-2.6V12.5z"/>
		<path d="M198.5,3.1v2h3.5v2.7h-3.5v2.1h3.7v2.7h-6.9V0.5h6.9v2.7H198.5z"/>
		<path d="M217.4,12.5h-3.9l-3-4.6h0v4.6h-3.1V0.5h4.7c2.4,0,4.2,1.1,4.2,3.7c0,1.7-0.9,3.1-2.6,3.4L217.4,12.5z M210.5,5.9h0.3
			c1,0,2.2-0.2,2.2-1.5s-1.2-1.5-2.2-1.5h-0.3V5.9z"/>
		<path d="M228.1,3.6c-0.6-0.5-1.3-0.8-2.1-0.8c-0.6,0-1.3,0.3-1.3,1c0,0.7,0.8,1,1.4,1.2l0.8,0.2c1.7,0.5,3,1.3,3,3.3
			c0,1.2-0.3,2.4-1.2,3.2c-0.9,0.8-2.2,1.1-3.4,1.1c-1.5,0-3-0.5-4.2-1.4l1.3-2.5c0.8,0.7,1.7,1.2,2.8,1.2c0.7,0,1.5-0.4,1.5-1.2
			c0-0.9-1.2-1.2-1.9-1.4c-2-0.6-3.3-1.1-3.3-3.4c0-2.4,1.7-4,4.2-4c1.2,0,2.7,0.4,3.8,1L228.1,3.6z"/>
		<path d="M238.7,9.5l-2.9,5.3h-1.9l2.1-5.3H238.7z"/>
		<path d="M261.1,9.9v2.7h-9.7l4.9-5.4c0.7-0.8,1.4-1.9,1.4-3c0-0.8-0.5-1.6-1.4-1.6c-0.8,0-1.3,0.7-1.3,1.5c0,0.2,0,0.3,0,0.5h-3.5
			c0.1-2.8,1.9-4.6,4.7-4.6c2.5,0,4.7,1.7,4.7,4.3c0,1.7-0.7,2.7-2,3.9l-1.9,1.7H261.1z"/>
		<path d="M273.5,0.5l-3.4,4.1l0,0c0.5-0.2,1.1-0.4,1.7-0.4c2.4,0,3.9,2,3.9,4.2c0,3-2.4,4.6-5.2,4.6c-1.2,0-2.5-0.3-3.4-1
			c-1-0.8-1.6-2.1-1.6-3.3c0-1.7,0.9-3.4,1.9-4.8l2.6-3.4H273.5z M272.4,8.6c0-1.1-0.8-2-1.9-2c-1.1,0-2,0.9-2,2c0,1.1,0.9,2,2,2
			C271.6,10.6,272.4,9.7,272.4,8.6z"/>
		<path d="M293.7,12.5h-3.1V3.1H288V0.5h8.3v2.7h-2.6V12.5z"/>
		<path d="M303.8,3.1v2h3.5v2.7h-3.5v2.1h3.7v2.7h-6.9V0.5h6.9v2.7H303.8z"/>
		<path d="M312.4,0.5h3.9l1.8,3.1l1.8-3.1h3.9l-3.9,5.6l4.5,6.5h-3.8l-2.5-3.9l-2.8,3.9h-3.8l4.7-6.5L312.4,0.5z"/>
		<path d="M333.3,12.5h-3.1V3.1h-2.6V0.5h8.3v2.7h-2.6V12.5z"/>
		<path d="M350.7,0.5v6.8c0,1.6-0.1,3.1-1.3,4.3c-1,1-2.6,1.3-4,1.3c-1.4,0-3-0.4-4-1.3c-1.2-1.2-1.3-2.7-1.3-4.3V0.5h3.1v6.4
			c0,1.6,0.1,3.3,2.1,3.3c2,0,2.1-1.7,2.1-3.3V0.5H350.7z"/>
		<path d="M365.9,12.5H362l-3-4.6h0v4.6h-3.1V0.5h4.7c2.4,0,4.2,1.1,4.2,3.7c0,1.7-0.9,3.1-2.6,3.4L365.9,12.5z M359,5.9h0.3
			c1,0,2.2-0.2,2.2-1.5s-1.2-1.5-2.2-1.5H359V5.9z"/>
		<path d="M373.1,3.1v2h3.5v2.7h-3.5v2.1h3.7v2.7h-6.9V0.5h6.9v2.7H373.1z"/>
		<path d="M388.6,3.6c-0.6-0.5-1.3-0.8-2.1-0.8c-0.6,0-1.3,0.3-1.3,1c0,0.7,0.8,1,1.4,1.2l0.8,0.2c1.7,0.5,3,1.3,3,3.3
			c0,1.2-0.3,2.4-1.2,3.2c-0.9,0.8-2.2,1.1-3.4,1.1c-1.5,0-3-0.5-4.2-1.4l1.3-2.5c0.8,0.7,1.7,1.2,2.8,1.2c0.7,0,1.5-0.4,1.5-1.2
			c0-0.9-1.2-1.2-1.9-1.4c-2-0.6-3.3-1.1-3.3-3.4c0-2.4,1.7-4,4.2-4c1.2,0,2.7,0.4,3.8,1L388.6,3.6z"/>
		<path d="M0.5,23.2h1.3c2,0,3.9,0.5,3.9,2.9c0,0.8-0.4,1.7-1.1,2v0c1.2,0.2,2.1,1.4,2.1,2.7c0,2.1-1.8,3-3.7,3H0.5V23.2z M1.8,27.9
			h0.3c1.2,0,2.3-0.3,2.3-1.8c0-1.5-1-1.7-2.2-1.7H1.8V27.9z M1.8,32.6h1c1.2,0,2.5-0.4,2.5-1.9c0-1.5-1.5-1.8-2.7-1.8H1.8V32.6z"/>
		<path d="M16.4,33.7h-1.3v-1h0c-0.5,0.7-1.3,1.2-2.2,1.2c-2,0-3.1-1.7-3.1-3.5c0-1.8,1.2-3.4,3.1-3.4c1,0,1.8,0.5,2.3,1.3h0v-1.1
			h1.3V33.7z M15.2,30.5c0-1.3-0.8-2.4-2.1-2.4c-1.3,0-2.1,1.1-2.1,2.4c0,1.2,0.7,2.4,2.1,2.4C14.4,32.9,15.2,31.8,15.2,30.5z"/>
		<path d="M22.9,28.7c-0.2-0.3-0.5-0.6-0.8-0.6c-0.4,0-0.7,0.3-0.7,0.6c0,0.6,0.8,0.8,1.5,1.2s1.5,0.8,1.5,1.9c0,1.2-1,2.2-2.3,2.2
			c-1,0-1.9-0.5-2.3-1.5L21,32c0.3,0.5,0.6,0.8,1.2,0.8c0.5,0,1-0.4,1-0.9c0-0.4-0.2-0.5-0.5-0.7l-1.2-0.7c-0.7-0.4-1.3-0.8-1.3-1.7
			c0-1.1,0.9-1.9,1.9-1.9c0.8,0,1.4,0.4,1.8,1.1L22.9,28.7z"/>
		<path d="M28.6,30.7c0,1.1,0.8,2.2,2,2.2c1,0,1.5-0.5,2-1.3l1.1,0.6c-0.6,1.1-1.8,1.8-3,1.8c-2,0-3.2-1.5-3.2-3.4
			c0-2,1.1-3.5,3.2-3.5c2.1,0,3.1,1.5,3.1,3.5v0.2H28.6z M32.4,29.7c-0.2-1-0.8-1.6-1.8-1.6c-1,0-1.7,0.7-1.9,1.6H32.4z"/>
		<path d="M41.8,32.7L41.8,32.7c-0.5,0.7-1.3,1.2-2.3,1.2c-2,0-3.1-1.7-3.1-3.5c0-1.8,1.2-3.4,3.1-3.4c1,0,1.8,0.5,2.3,1.3h0v-6.7
			h1.3v12.2h-1.3V32.7z M41.9,30.5c0-1.3-0.8-2.4-2.1-2.4c-1.3,0-2.1,1.1-2.1,2.4c0,1.2,0.7,2.4,2.1,2.4
			C41.1,32.9,41.9,31.8,41.9,30.5z"/>
		<path d="M59.7,30.5c0,2-1.5,3.5-3.5,3.5c-2,0-3.5-1.5-3.5-3.5s1.5-3.5,3.5-3.5C58.1,27,59.7,28.5,59.7,30.5z M53.9,30.5
			c0,1.2,1,2.3,2.2,2.3c1.2,0,2.2-1.1,2.2-2.3c0-1.2-1-2.3-2.2-2.3C54.9,28.2,53.9,29.2,53.9,30.5z"/>
		<path d="M64.3,28.1L64.3,28.1c0.4-0.7,1.2-1.1,2-1.1c1.8,0,2.3,1.2,2.3,2.8v3.9h-1.3V30c0-1.1-0.2-1.9-1.4-1.9
			c-1.6,0-1.6,1.4-1.6,2.6v3h-1.3v-6.6h1.3V28.1z"/>
		<path d="M80.3,33.7h-1.3v-5.4h-0.7v-1.2h0.7v-2.5h1.3v2.5h1.2v1.2h-1.2V33.7z"/>
		<path d="M85.8,21.6v6.5h0c0.4-0.7,1.2-1.1,2-1.1c1.8,0,2.3,1.2,2.3,2.8v3.9h-1.3V30c0-1.1-0.2-1.9-1.4-1.9c-1.6,0-1.6,1.4-1.6,2.6
			v3h-1.3V21.6H85.8z"/>
		<path d="M94.8,30.7c0,1.1,0.8,2.2,2,2.2c1,0,1.5-0.5,2-1.3l1.1,0.6c-0.6,1.1-1.8,1.8-3,1.8c-2,0-3.2-1.5-3.2-3.4
			c0-2,1.1-3.5,3.2-3.5c2.1,0,3.1,1.5,3.1,3.5v0.2H94.8z M98.6,29.7c-0.2-1-0.8-1.6-1.8-1.6c-1,0-1.7,0.7-1.9,1.6H98.6z"/>
		<path d="M110.6,28.3L110.6,28.3c0.5-0.8,1.3-1.3,2.3-1.3c1.9,0,3.1,1.6,3.1,3.4c0,1.9-1.1,3.5-3.1,3.5c-0.9,0-1.7-0.5-2.2-1.2h0
			v4.8h-1.3V27.2h1.3V28.3z M114.7,30.5c0-1.3-0.8-2.4-2.1-2.4c-1.3,0-2.1,1.1-2.1,2.4c0,1.2,0.7,2.4,2.1,2.4
			C114,32.9,114.7,31.8,114.7,30.5z"/>
		<path d="M120.8,28.3L120.8,28.3c0.4-0.8,1-1.3,1.8-1.3c0.4,0,0.7,0.1,1,0.3l-0.6,1.1c-0.2-0.2-0.5-0.3-0.8-0.3
			c-1.4,0-1.5,1.3-1.5,2.3v3.2h-1.3v-6.6h1.3V28.3z"/>
		<path d="M133,30.5c0,2-1.5,3.5-3.5,3.5c-2,0-3.5-1.5-3.5-3.5s1.5-3.5,3.5-3.5C131.5,27,133,28.5,133,30.5z M127.3,30.5
			c0,1.2,1,2.3,2.2,2.3c1.2,0,2.2-1.1,2.2-2.3c0-1.2-1-2.3-2.2-2.3C128.3,28.2,127.3,29.2,127.3,30.5z"/>
		<path d="M138.2,24.2c0,0.5-0.4,0.9-0.9,0.9c-0.5,0-0.9-0.4-0.9-0.9c0-0.5,0.4-0.9,0.9-0.9C137.8,23.3,138.2,23.7,138.2,24.2z
			 M137.9,37.5h-1.3V27.2h1.3V37.5z"/>
		<path d="M143,30.7c0,1.1,0.8,2.2,2,2.2c1,0,1.5-0.5,2-1.3l1.1,0.6c-0.6,1.1-1.8,1.8-3,1.8c-2,0-3.2-1.5-3.2-3.4
			c0-2,1.1-3.5,3.2-3.5c2.1,0,3.1,1.5,3.1,3.5v0.2H143z M146.7,29.7c-0.2-1-0.8-1.6-1.8-1.6c-1,0-1.7,0.7-1.9,1.6H146.7z"/>
		<path d="M156.1,29.1c-0.5-0.6-1.1-0.9-1.9-0.9c-1.2,0-2.2,1.1-2.2,2.3c0,1.3,0.9,2.3,2.3,2.3c0.7,0,1.3-0.3,1.8-0.9v1.6
			c-0.6,0.3-1.1,0.4-1.8,0.4c-1.9,0-3.5-1.5-3.5-3.4c0-2,1.6-3.5,3.6-3.5c0.6,0,1.2,0.1,1.7,0.4V29.1z"/>
		<path d="M161.1,33.7h-1.3v-5.4h-0.7v-1.2h0.7v-2.5h1.3v2.5h1.2v1.2h-1.2V33.7z"/>
		<path d="M171.5,21.6h1.3v6.7h0c0.5-0.8,1.3-1.3,2.3-1.3c1.9,0,3.1,1.6,3.1,3.4c0,1.9-1.1,3.5-3.1,3.5c-0.9,0-1.7-0.5-2.2-1.2h0v1
			h-1.3V21.6z M176.9,30.5c0-1.3-0.8-2.4-2.1-2.4c-1.3,0-2.1,1.1-2.1,2.4c0,1.2,0.7,2.4,2.1,2.4C176.1,32.9,176.9,31.8,176.9,30.5z"
			/>
		<path d="M180.5,27.2h1.5l2.2,4.2l2.1-4.2h1.4l-5.3,10.3H181l2.6-4.9L180.5,27.2z"/>
		<path d="M201.8,32.7L201.8,32.7c-0.5,0.7-1.3,1.2-2.3,1.2c-2,0-3.1-1.7-3.1-3.5c0-1.8,1.2-3.4,3.1-3.4c1,0,1.8,0.5,2.3,1.3h0v-6.7
			h1.3v12.2h-1.3V32.7z M201.9,30.5c0-1.3-0.8-2.4-2.1-2.4c-1.3,0-2.1,1.1-2.1,2.4c0,1.2,0.7,2.4,2.1,2.4
			C201.1,32.9,201.9,31.8,201.9,30.5z"/>
		<path d="M207.7,30.7c0,1.1,0.8,2.2,2,2.2c1,0,1.5-0.5,2-1.3l1.1,0.6c-0.6,1.1-1.8,1.8-3,1.8c-2,0-3.2-1.5-3.2-3.4
			c0-2,1.1-3.5,3.2-3.5c2.1,0,3.1,1.5,3.1,3.5v0.2H207.7z M211.4,29.7c-0.2-1-0.8-1.6-1.8-1.6c-1,0-1.7,0.7-1.9,1.6H211.4z"/>
		<path d="M218.6,28.7c-0.2-0.3-0.5-0.6-0.8-0.6c-0.4,0-0.7,0.3-0.7,0.6c0,0.6,0.8,0.8,1.5,1.2s1.5,0.8,1.5,1.9c0,1.2-1,2.2-2.3,2.2
			c-1,0-1.9-0.5-2.3-1.5l1.1-0.5c0.3,0.5,0.6,0.8,1.2,0.8c0.5,0,1-0.4,1-0.9c0-0.4-0.2-0.5-0.5-0.7l-1.2-0.7
			c-0.7-0.4-1.3-0.8-1.3-1.7c0-1.1,0.9-1.9,1.9-1.9c0.8,0,1.4,0.4,1.8,1.1L218.6,28.7z"/>
		<path d="M225.4,24.2c0,0.5-0.4,0.9-0.9,0.9c-0.5,0-0.9-0.4-0.9-0.9c0-0.5,0.4-0.9,0.9-0.9C225,23.3,225.4,23.7,225.4,24.2z
			 M225.1,33.7h-1.3v-6.6h1.3V33.7z"/>
		<path d="M235.5,33.6c0,2.3-0.6,3.9-3.2,3.9c-1.8,0-3.1-1.1-3.2-3h1.3c0,1.2,0.8,1.8,2,1.8c1.6,0,1.9-1.1,1.9-2.4v-1.2h0
			c-0.5,0.7-1.3,1.2-2.2,1.2c-2,0-3.1-1.7-3.1-3.5c0-1.8,1.2-3.4,3.1-3.4c1,0,1.8,0.5,2.3,1.3h0v-1.1h1.3V33.6z M234.3,30.5
			c0-1.3-0.8-2.4-2.1-2.4c-1.3,0-2.1,1.1-2.1,2.4c0,1.2,0.7,2.4,2.1,2.4C233.6,32.9,234.3,31.8,234.3,30.5z"/>
		<path d="M240.7,28.1L240.7,28.1c0.4-0.7,1.2-1.1,2-1.1c1.8,0,2.3,1.2,2.3,2.8v3.9h-1.3V30c0-1.1-0.2-1.9-1.4-1.9
			c-1.6,0-1.6,1.4-1.6,2.6v3h-1.3v-6.6h1.3V28.1z"/>
		<path d="M249.7,30.7c0,1.1,0.8,2.2,2,2.2c1,0,1.5-0.5,2-1.3l1.1,0.6c-0.6,1.1-1.8,1.8-3,1.8c-2,0-3.2-1.5-3.2-3.4
			c0-2,1.1-3.5,3.2-3.5c2.1,0,3.1,1.5,3.1,3.5v0.2H249.7z M253.5,29.7c-0.2-1-0.8-1.6-1.8-1.6c-1,0-1.7,0.7-1.9,1.6H253.5z"/>
		<path d="M259.4,28.3L259.4,28.3c0.3-0.8,1-1.3,1.8-1.3c0.4,0,0.7,0.1,1,0.3l-0.6,1.1c-0.2-0.2-0.5-0.3-0.8-0.3
			c-1.4,0-1.5,1.3-1.5,2.3v3.2h-1.3v-6.6h1.3V28.3z"/>
		<path d="M277.6,33.7h-1.3v-1h0c-0.5,0.7-1.3,1.2-2.2,1.2c-2,0-3.1-1.7-3.1-3.5c0-1.8,1.2-3.4,3.1-3.4c1,0,1.8,0.5,2.3,1.3h0v-1.1
			h1.3V33.7z M276.4,30.5c0-1.3-0.8-2.4-2.1-2.4c-1.3,0-2.1,1.1-2.1,2.4c0,1.2,0.7,2.4,2.1,2.4C275.7,32.9,276.4,31.8,276.4,30.5z"
			/>
		<path d="M282.8,28.1L282.8,28.1c0.4-0.7,1.2-1.1,2-1.1c1.8,0,2.3,1.2,2.3,2.8v3.9h-1.3V30c0-1.1-0.2-1.9-1.4-1.9
			c-1.6,0-1.6,1.4-1.6,2.6v3h-1.3v-6.6h1.3V28.1z"/>
		<path d="M296,32.7L296,32.7c-0.5,0.7-1.3,1.2-2.3,1.2c-2,0-3.1-1.7-3.1-3.5c0-1.8,1.2-3.4,3.1-3.4c1,0,1.8,0.5,2.3,1.3h0v-6.7h1.3
			v12.2H296V32.7z M296,30.5c0-1.3-0.8-2.4-2.1-2.4c-1.3,0-2.1,1.1-2.1,2.4c0,1.2,0.7,2.4,2.1,2.4C295.3,32.9,296,31.8,296,30.5z"/>
		<path d="M309.2,24.2c0,0.5-0.4,0.9-0.9,0.9s-0.9-0.4-0.9-0.9c0-0.5,0.4-0.9,0.9-0.9S309.2,23.7,309.2,24.2z M308.9,33.7h-1.3v-6.6
			h1.3V33.7z"/>
		<path d="M314.5,33.7h-1.3V21.6h1.3V33.7z"/>
		<path d="M319.8,33.7h-1.3V21.6h1.3V33.7z"/>
		<path d="M325.1,27.2v3.6c0,1.1,0.3,2,1.5,2c1.2,0,1.5-0.9,1.5-2v-3.6h1.3V31c0,1.8-0.8,3-2.8,3c-1.9,0-2.8-1.2-2.8-3v-3.8H325.1z"
			/>
		<path d="M335.9,28.7c-0.2-0.3-0.5-0.6-0.8-0.6c-0.4,0-0.7,0.3-0.7,0.6c0,0.6,0.8,0.8,1.5,1.2s1.5,0.8,1.5,1.9c0,1.2-1,2.2-2.3,2.2
			c-1,0-1.9-0.5-2.3-1.5L334,32c0.3,0.5,0.6,0.8,1.2,0.8c0.5,0,1-0.4,1-0.9c0-0.4-0.2-0.5-0.5-0.7l-1.2-0.7
			c-0.7-0.4-1.3-0.8-1.3-1.7c0-1.1,0.9-1.9,1.9-1.9c0.8,0,1.4,0.4,1.8,1.1L335.9,28.7z"/>
		<path d="M342.3,33.7h-1.3v-5.4h-0.7v-1.2h0.7v-2.5h1.3v2.5h1.2v1.2h-1.2V33.7z"/>
		<path d="M347.8,28.3L347.8,28.3c0.4-0.8,1-1.3,1.8-1.3c0.4,0,0.7,0.1,1,0.3l-0.6,1.1c-0.2-0.2-0.5-0.3-0.8-0.3
			c-1.4,0-1.5,1.3-1.5,2.3v3.2h-1.3v-6.6h1.3V28.3z"/>
		<path d="M359.8,33.7h-1.3v-1h0c-0.5,0.7-1.3,1.2-2.2,1.2c-2,0-3.1-1.7-3.1-3.5c0-1.8,1.2-3.4,3.1-3.4c1,0,1.8,0.5,2.3,1.3h0v-1.1
			h1.3V33.7z M358.6,30.5c0-1.3-0.8-2.4-2.1-2.4c-1.3,0-2.1,1.1-2.1,2.4c0,1.2,0.7,2.4,2.1,2.4C357.9,32.9,358.6,31.8,358.6,30.5z"
			/>
		<path d="M365.1,33.7h-1.3v-5.4h-0.7v-1.2h0.7v-2.5h1.3v2.5h1.2v1.2h-1.2V33.7z"/>
		<path d="M375.7,30.5c0,2-1.5,3.5-3.5,3.5c-2,0-3.5-1.5-3.5-3.5s1.5-3.5,3.5-3.5C374.2,27,375.7,28.5,375.7,30.5z M370,30.5
			c0,1.2,1,2.3,2.2,2.3c1.2,0,2.2-1.1,2.2-2.3c0-1.2-1-2.3-2.2-2.3C370.9,28.2,370,29.2,370,30.5z"/>
		<path d="M380.4,28.3L380.4,28.3c0.4-0.8,1-1.3,1.8-1.3c0.4,0,0.7,0.1,1,0.3l-0.6,1.1c-0.2-0.2-0.5-0.3-0.8-0.3
			c-1.4,0-1.5,1.3-1.5,2.3v3.2h-1.3v-6.6h1.3V28.3z"/>
		<path d="M395.9,23.2v6.7c0,2-0.4,4.1-2.9,4.1c-0.6,0-1.1-0.2-1.7-0.5l0.7-1.1c0.3,0.2,0.7,0.4,1.1,0.4c1.5,0,1.5-1.8,1.5-2.8v-6.7
			H395.9z"/>
		<path d="M400.6,30.7c0,1.1,0.8,2.2,2,2.2c1,0,1.5-0.5,2-1.3l1.1,0.6c-0.6,1.1-1.8,1.8-3,1.8c-2,0-3.2-1.5-3.2-3.4
			c0-2,1.1-3.5,3.2-3.5c2.1,0,3.1,1.5,3.1,3.5v0.2H400.6z M404.3,29.7c-0.2-1-0.8-1.6-1.8-1.6c-1,0-1.7,0.7-1.9,1.6H404.3z"/>
		<path d="M411.5,28.7c-0.2-0.3-0.5-0.6-0.8-0.6c-0.4,0-0.7,0.3-0.7,0.6c0,0.6,0.8,0.8,1.5,1.2s1.5,0.8,1.5,1.9c0,1.2-1,2.2-2.3,2.2
			c-1,0-1.9-0.5-2.3-1.5l1.1-0.5c0.3,0.5,0.6,0.8,1.2,0.8c0.5,0,1-0.4,1-0.9c0-0.4-0.2-0.5-0.5-0.7l-1.2-0.7
			c-0.7-0.4-1.3-0.8-1.3-1.7c0-1.1,0.9-1.9,1.9-1.9c0.8,0,1.4,0.4,1.8,1.1L411.5,28.7z"/>
		<path d="M419.1,28.7c-0.2-0.3-0.5-0.6-0.8-0.6c-0.4,0-0.7,0.3-0.7,0.6c0,0.6,0.8,0.8,1.5,1.2s1.5,0.8,1.5,1.9c0,1.2-1,2.2-2.3,2.2
			c-1,0-1.9-0.5-2.3-1.5l1.1-0.5c0.3,0.5,0.6,0.8,1.2,0.8c0.5,0,1-0.4,1-0.9c0-0.4-0.2-0.5-0.5-0.7l-1.2-0.7
			c-0.7-0.4-1.3-0.8-1.3-1.7c0-1.1,0.9-1.9,1.9-1.9c0.8,0,1.4,0.4,1.8,1.1L419.1,28.7z"/>
		<path d="M425.9,24.2c0,0.5-0.4,0.9-0.9,0.9c-0.5,0-0.9-0.4-0.9-0.9c0-0.5,0.4-0.9,0.9-0.9C425.5,23.3,425.9,23.7,425.9,24.2z
			 M425.7,33.7h-1.3v-6.6h1.3V33.7z"/>
		<path d="M434.7,29.1c-0.5-0.6-1.1-0.9-1.9-0.9c-1.2,0-2.2,1.1-2.2,2.3c0,1.3,0.9,2.3,2.3,2.3c0.7,0,1.3-0.3,1.8-0.9v1.6
			c-0.6,0.3-1.1,0.4-1.8,0.4c-1.9,0-3.5-1.5-3.5-3.4c0-2,1.6-3.5,3.6-3.5c0.6,0,1.2,0.1,1.7,0.4V29.1z"/>
		<path d="M444.5,33.7h-1.3v-1h0c-0.5,0.7-1.3,1.2-2.2,1.2c-2,0-3.1-1.7-3.1-3.5c0-1.8,1.2-3.4,3.1-3.4c1,0,1.8,0.5,2.3,1.3h0v-1.1
			h1.3V33.7z M443.3,30.5c0-1.3-0.8-2.4-2.1-2.4c-1.3,0-2.1,1.1-2.1,2.4c0,1.2,0.7,2.4,2.1,2.4C442.5,32.9,443.3,31.8,443.3,30.5z"
			/>
		<path d="M461,27.4v-4.3h1.3v10.6H461v-5.1h-5v5.1h-1.3V23.2h1.3v4.3H461z"/>
		<path d="M468.1,24.2c0,0.5-0.4,0.9-0.9,0.9c-0.5,0-0.9-0.4-0.9-0.9c0-0.5,0.4-0.9,0.9-0.9C467.7,23.3,468.1,23.7,468.1,24.2z
			 M467.9,33.7h-1.3v-6.6h1.3V33.7z"/>
		<path d="M474.8,28.7c-0.2-0.3-0.5-0.6-0.8-0.6c-0.4,0-0.7,0.3-0.7,0.6c0,0.6,0.8,0.8,1.5,1.2s1.5,0.8,1.5,1.9c0,1.2-1,2.2-2.3,2.2
			c-1,0-1.9-0.5-2.3-1.5l1.1-0.5c0.3,0.5,0.6,0.8,1.2,0.8c0.5,0,1-0.4,1-0.9c0-0.4-0.2-0.5-0.5-0.7l-1.2-0.7
			c-0.7-0.4-1.3-0.8-1.3-1.7c0-1.1,0.9-1.9,1.9-1.9c0.8,0,1.4,0.4,1.8,1.1L474.8,28.7z"/>
		<path d="M484.6,29.1c-0.5-0.6-1.1-0.9-1.9-0.9c-1.2,0-2.2,1.1-2.2,2.3c0,1.3,0.9,2.3,2.3,2.3c0.7,0,1.3-0.3,1.8-0.9v1.6
			c-0.6,0.3-1.1,0.4-1.8,0.4c-1.9,0-3.5-1.5-3.5-3.4c0-2,1.6-3.5,3.6-3.5c0.6,0,1.2,0.1,1.7,0.4V29.1z"/>
		<path d="M489.4,21.6v6.5h0c0.4-0.7,1.2-1.1,2-1.1c1.8,0,2.3,1.2,2.3,2.8v3.9h-1.3V30c0-1.1-0.2-1.9-1.4-1.9
			c-1.6,0-1.6,1.4-1.6,2.6v3h-1.3V21.6H489.4z"/>
		<path d="M498.5,30.7c0,1.1,0.8,2.2,2,2.2c1,0,1.5-0.5,2-1.3l1.1,0.6c-0.6,1.1-1.8,1.8-3,1.8c-2,0-3.2-1.5-3.2-3.4
			c0-2,1.1-3.5,3.2-3.5c2.1,0,3.1,1.5,3.1,3.5v0.2H498.5z M502.2,29.7c-0.2-1-0.8-1.6-1.8-1.6c-1,0-1.7,0.7-1.9,1.6H502.2z"/>
		<path d="M509.3,32.5l-1.9,3.7l-0.8-0.3l1.5-3.9L509.3,32.5z"/>
		<path d="M1.9,54.9H0.6V44.4h1.3V54.9z"/>
		<path d="M17.1,50.3c-0.5-0.6-1.1-0.9-1.9-0.9c-1.2,0-2.2,1.1-2.2,2.3C13,53,14,54,15.3,54c0.7,0,1.3-0.3,1.8-0.9v1.6
			c-0.6,0.3-1.1,0.4-1.8,0.4c-1.9,0-3.5-1.5-3.5-3.4c0-2,1.6-3.5,3.6-3.5c0.6,0,1.2,0.1,1.7,0.4V50.3z"/>
		<path d="M22,49.5L22,49.5c0.4-0.8,1-1.3,1.8-1.3c0.4,0,0.7,0.1,1,0.3l-0.6,1.1c-0.2-0.2-0.5-0.3-0.8-0.3c-1.4,0-1.5,1.3-1.5,2.3
			v3.2h-1.3v-6.6H22V49.5z"/>
		<path d="M28.6,51.9c0,1.1,0.8,2.2,2,2.2c1,0,1.5-0.5,2-1.3l1.1,0.6c-0.6,1.1-1.8,1.8-3,1.8c-2,0-3.2-1.5-3.2-3.4
			c0-2,1.1-3.5,3.2-3.5c2.1,0,3.1,1.5,3.1,3.5v0.2H28.6z M32.3,50.9c-0.2-1-0.8-1.6-1.8-1.6c-1,0-1.7,0.7-1.9,1.6H32.3z"/>
		<path d="M43.1,54.9h-1.3v-1h0c-0.5,0.7-1.3,1.2-2.2,1.2c-2,0-3.1-1.7-3.1-3.5c0-1.8,1.2-3.4,3.1-3.4c1,0,1.8,0.5,2.3,1.3h0v-1.1
			h1.3V54.9z M41.9,51.7c0-1.3-0.8-2.4-2.1-2.4c-1.3,0-2.1,1.1-2.1,2.4c0,1.2,0.7,2.4,2.1,2.4C41.1,54.1,41.9,53,41.9,51.7z"/>
		<path d="M48.4,54.9h-1.3v-5.4h-0.7v-1.2h0.7v-2.5h1.3v2.5h1.2v1.2h-1.2V54.9z"/>
		<path d="M53.3,51.9c0,1.1,0.8,2.2,2,2.2c1,0,1.5-0.5,2-1.3l1.1,0.6c-0.6,1.1-1.8,1.8-3,1.8c-2,0-3.2-1.5-3.2-3.4
			c0-2,1.1-3.5,3.2-3.5c2.1,0,3.1,1.5,3.1,3.5v0.2H53.3z M57,50.9c-0.2-1-0.8-1.6-1.8-1.6c-1,0-1.7,0.7-1.9,1.6H57z"/>
		<path d="M66.5,53.9L66.5,53.9c-0.5,0.7-1.3,1.2-2.3,1.2c-2,0-3.1-1.7-3.1-3.5c0-1.8,1.2-3.4,3.1-3.4c1,0,1.8,0.5,2.3,1.3h0v-6.7
			h1.3v12.2h-1.3V53.9z M66.6,51.7c0-1.3-0.8-2.4-2.1-2.4c-1.3,0-2.1,1.1-2.1,2.4c0,1.2,0.7,2.4,2.1,2.4
			C65.8,54.1,66.6,53,66.6,51.7z"/>
		<path d="M84.1,54.9h-1.3v-1h0c-0.5,0.7-1.3,1.2-2.2,1.2c-2,0-3.1-1.7-3.1-3.5c0-1.8,1.2-3.4,3.1-3.4c1,0,1.8,0.5,2.3,1.3h0v-1.1
			h1.3V54.9z M82.9,51.7c0-1.3-0.8-2.4-2.1-2.4c-1.3,0-2.1,1.1-2.1,2.4c0,1.2,0.7,2.4,2.1,2.4C82.1,54.1,82.9,53,82.9,51.7z"/>
		<path d="M95.5,49.3L95.5,49.3c0.4-0.7,1.2-1.1,2-1.1c1.8,0,2.3,1.2,2.3,2.8v3.9h-1.3v-3.8c0-1.1-0.2-1.9-1.4-1.9
			c-1.6,0-1.6,1.4-1.6,2.6v3h-1.3v-6.6h1.3V49.3z"/>
		<path d="M104.6,51.9c0,1.1,0.8,2.2,2,2.2c1,0,1.5-0.5,2-1.3l1.1,0.6c-0.6,1.1-1.8,1.8-3,1.8c-2,0-3.2-1.5-3.2-3.4
			c0-2,1.1-3.5,3.2-3.5c2.1,0,3.1,1.5,3.1,3.5v0.2H104.6z M108.3,50.9c-0.2-1-0.8-1.6-1.8-1.6c-1,0-1.7,0.7-1.9,1.6H108.3z"/>
		<path d="M115.1,52.6L117,48l1.9,4.5l1.9-4.2h1.4l-3.3,6.8l-1.9-4.4l-1.9,4.4l-3.3-6.8h1.4L115.1,52.6z"/>
		<path d="M132.8,54.9h-1.3V42.8h1.3V54.9z"/>
		<path d="M137.6,51.9c0,1.1,0.8,2.2,2,2.2c1,0,1.5-0.5,2-1.3l1.1,0.6c-0.6,1.1-1.8,1.8-3,1.8c-2,0-3.2-1.5-3.2-3.4
			c0-2,1.1-3.5,3.2-3.5c2.1,0,3.1,1.5,3.1,3.5v0.2H137.6z M141.3,50.9c-0.2-1-0.8-1.6-1.8-1.6c-1,0-1.7,0.7-1.9,1.6H141.3z"/>
		<path d="M147.3,54.9H146v-5.4h-0.7v-1.2h0.7v-2.5h1.3v2.5h1.2v1.2h-1.2V54.9z"/>
		<path d="M152.9,54.9h-1.3v-5.4H151v-1.2h0.7v-2.5h1.3v2.5h1.2v1.2h-1.2V54.9z"/>
		<path d="M157.8,51.9c0,1.1,0.8,2.2,2,2.2c1,0,1.5-0.5,2-1.3l1.1,0.6c-0.6,1.1-1.8,1.8-3,1.8c-2,0-3.2-1.5-3.2-3.4
			c0-2,1.1-3.5,3.2-3.5c2.1,0,3.1,1.5,3.1,3.5v0.2H157.8z M161.6,50.9c-0.2-1-0.8-1.6-1.8-1.6c-1,0-1.7,0.7-1.9,1.6H161.6z"/>
		<path d="M167.5,49.5L167.5,49.5c0.4-0.8,1-1.3,1.8-1.3c0.4,0,0.7,0.1,1,0.3l-0.6,1.1c-0.2-0.2-0.5-0.3-0.8-0.3
			c-1.4,0-1.5,1.3-1.5,2.3v3.2h-1.3v-6.6h1.3V49.5z"/>
		<path d="M176.8,44.1c-0.3-0.1-0.6-0.3-0.8-0.3c-0.9,0-0.9,1.1-0.9,1.8v2.8h1.7v1.2h-1.7v5.4h-1.3v-5.4h-0.6v-1.2h0.6v-3.2
			c0-1.4,0.5-2.6,2.1-2.6c0.3,0,0.6,0.1,0.9,0.2V44.1z"/>
		<path d="M186.1,51.7c0,2-1.5,3.5-3.5,3.5c-2,0-3.5-1.5-3.5-3.5s1.5-3.5,3.5-3.5C184.5,48.2,186.1,49.7,186.1,51.7z M180.3,51.7
			c0,1.2,1,2.3,2.2,2.3c1.2,0,2.2-1.1,2.2-2.3c0-1.2-1-2.3-2.2-2.3C181.3,49.4,180.3,50.4,180.3,51.7z"/>
		<path d="M190.8,49.5L190.8,49.5c0.4-0.8,1-1.3,1.8-1.3c0.4,0,0.7,0.1,1,0.3l-0.6,1.1c-0.2-0.2-0.5-0.3-0.8-0.3
			c-1.4,0-1.5,1.3-1.5,2.3v3.2h-1.3v-6.6h1.3V49.5z"/>
		<path d="M197.9,49.2L197.9,49.2c0.4-0.6,1.1-1,1.8-1c0.9,0,1.5,0.4,1.9,1.2c0.4-0.7,1.2-1.2,2-1.2c1.7,0,2.2,1.3,2.2,2.8v3.9h-1.3
			v-3.7c0-0.8-0.1-1.9-1.2-1.9c-1.3,0-1.4,1.4-1.4,2.4v3.2h-1.3v-3.5c0-0.9,0-2.2-1.2-2.2c-1.3,0-1.5,1.4-1.5,2.4v3.2h-1.3v-6.6h1.3
			V49.2z"/>
		<path d="M216.7,51.9c0,1.1,0.8,2.2,2,2.2c1,0,1.5-0.5,2-1.3l1.1,0.6c-0.6,1.1-1.8,1.8-3,1.8c-2,0-3.2-1.5-3.2-3.4
			c0-2,1.1-3.5,3.2-3.5c2.1,0,3.1,1.5,3.1,3.5v0.2H216.7z M220.5,50.9c-0.2-1-0.8-1.6-1.8-1.6c-1,0-1.7,0.7-1.9,1.6H220.5z"/>
		<path d="M227.3,52.5l1.9-4.1h1.4l-3.3,6.8l-3.3-6.8h1.4L227.3,52.5z"/>
		<path d="M234.3,51.9c0,1.1,0.8,2.2,2,2.2c1,0,1.5-0.5,2-1.3l1.1,0.6c-0.6,1.1-1.8,1.8-3,1.8c-2,0-3.2-1.5-3.2-3.4
			c0-2,1.1-3.5,3.2-3.5c2.1,0,3.1,1.5,3.1,3.5v0.2H234.3z M238,50.9c-0.2-1-0.8-1.6-1.8-1.6c-1,0-1.7,0.7-1.9,1.6H238z"/>
		<path d="M243.9,49.5L243.9,49.5c0.4-0.8,1-1.3,1.8-1.3c0.4,0,0.7,0.1,1,0.3l-0.6,1.1c-0.2-0.2-0.5-0.3-0.8-0.3
			c-1.4,0-1.5,1.3-1.5,2.3v3.2h-1.3v-6.6h1.3V49.5z"/>
		<path d="M249.3,48.4h1.5l2.2,4.2l2.1-4.2h1.4l-5.3,10.3h-1.4l2.6-4.9L249.3,48.4z"/>
		<path d="M266.8,49.2L266.8,49.2c0.4-0.6,1.1-1,1.8-1c0.9,0,1.5,0.4,1.9,1.2c0.4-0.7,1.2-1.2,2-1.2c1.7,0,2.2,1.3,2.2,2.8v3.9h-1.3
			v-3.7c0-0.8-0.1-1.9-1.2-1.9c-1.3,0-1.4,1.4-1.4,2.4v3.2h-1.3v-3.5c0-0.9,0-2.2-1.2-2.2c-1.3,0-1.5,1.4-1.5,2.4v3.2h-1.3v-6.6h1.3
			V49.2z"/>
		<path d="M285,51.7c0,2-1.5,3.5-3.5,3.5s-3.5-1.5-3.5-3.5s1.5-3.5,3.5-3.5S285,49.7,285,51.7z M279.3,51.7c0,1.2,1,2.3,2.2,2.3
			s2.2-1.1,2.2-2.3c0-1.2-1-2.3-2.2-2.3S279.3,50.4,279.3,51.7z"/>
		<path d="M289.7,49.5L289.7,49.5c0.3-0.8,1-1.3,1.8-1.3c0.4,0,0.7,0.1,1,0.3l-0.6,1.1c-0.2-0.2-0.5-0.3-0.8-0.3
			c-1.4,0-1.5,1.3-1.5,2.3v3.2h-1.3v-6.6h1.3V49.5z"/>
		<path d="M296.9,49.3L296.9,49.3c0.4-0.7,1.2-1.1,2-1.1c1.8,0,2.3,1.2,2.3,2.8v3.9H300v-3.8c0-1.1-0.2-1.9-1.4-1.9
			c-1.6,0-1.6,1.4-1.6,2.6v3h-1.3v-6.6h1.3V49.3z"/>
		<path d="M307,45.4c0,0.5-0.4,0.9-0.9,0.9s-0.9-0.4-0.9-0.9c0-0.5,0.4-0.9,0.9-0.9S307,44.9,307,45.4z M306.8,54.9h-1.3v-6.6h1.3
			V54.9z"/>
		<path d="M312.3,49.3L312.3,49.3c0.4-0.7,1.2-1.1,2-1.1c1.8,0,2.3,1.2,2.3,2.8v3.9h-1.3v-3.8c0-1.1-0.2-1.9-1.4-1.9
			c-1.6,0-1.6,1.4-1.6,2.6v3H311v-6.6h1.3V49.3z"/>
		<path d="M326.7,54.8c0,2.3-0.6,3.9-3.2,3.9c-1.8,0-3.1-1.1-3.2-3h1.3c0,1.2,0.8,1.8,2,1.8c1.6,0,1.9-1.1,1.9-2.4v-1.2h0
			c-0.5,0.7-1.3,1.2-2.2,1.2c-2,0-3.1-1.7-3.1-3.5c0-1.8,1.2-3.4,3.1-3.4c1,0,1.8,0.5,2.3,1.3h0v-1.1h1.3V54.8z M325.5,51.7
			c0-1.3-0.8-2.4-2.1-2.4c-1.3,0-2.1,1.1-2.1,2.4c0,1.2,0.7,2.4,2.1,2.4C324.8,54.1,325.5,53,325.5,51.7z"/>
		<path d="M343,54.9h-1.3v-1h0c-0.5,0.7-1.3,1.2-2.2,1.2c-2,0-3.1-1.7-3.1-3.5c0-1.8,1.2-3.4,3.1-3.4c1,0,1.8,0.5,2.3,1.3h0v-1.1
			h1.3V54.9z M341.8,51.7c0-1.3-0.8-2.4-2.1-2.4c-1.3,0-2.1,1.1-2.1,2.4c0,1.2,0.7,2.4,2.1,2.4C341.1,54.1,341.8,53,341.8,51.7z"/>
		<path d="M349.5,49.9c-0.2-0.3-0.5-0.6-0.8-0.6c-0.4,0-0.7,0.3-0.7,0.6c0,0.6,0.8,0.8,1.5,1.2S351,52,351,53c0,1.2-1,2.2-2.3,2.2
			c-1,0-1.9-0.5-2.3-1.5l1.1-0.5c0.3,0.5,0.6,0.8,1.2,0.8c0.5,0,1-0.4,1-0.9c0-0.4-0.2-0.5-0.5-0.7l-1.2-0.7
			c-0.7-0.4-1.3-0.8-1.3-1.7c0-1.1,0.9-1.9,1.9-1.9c0.8,0,1.4,0.4,1.8,1.1L349.5,49.9z"/>
		<path d="M366.9,54.9h-1.3v-1h0c-0.5,0.7-1.3,1.2-2.2,1.2c-2,0-3.1-1.7-3.1-3.5c0-1.8,1.2-3.4,3.1-3.4c1,0,1.8,0.5,2.3,1.3h0v-1.1
			h1.3V54.9z M365.8,51.7c0-1.3-0.8-2.4-2.1-2.4c-1.3,0-2.1,1.1-2.1,2.4c0,1.2,0.7,2.4,2.1,2.4C365,54.1,365.8,53,365.8,51.7z"/>
		<path d="M379.3,52.6l1.9-4.5l1.9,4.5l1.9-4.2h1.4l-3.3,6.8l-1.9-4.4l-1.9,4.4l-3.3-6.8h1.4L379.3,52.6z"/>
		<path d="M395.5,54.9h-1.3v-1h0c-0.5,0.7-1.3,1.2-2.2,1.2c-2,0-3.1-1.7-3.1-3.5c0-1.8,1.2-3.4,3.1-3.4c1,0,1.8,0.5,2.3,1.3h0v-1.1
			h1.3V54.9z M394.4,51.7c0-1.3-0.8-2.4-2.1-2.4c-1.3,0-2.1,1.1-2.1,2.4c0,1.2,0.7,2.4,2.1,2.4C393.6,54.1,394.4,53,394.4,51.7z"/>
		<path d="M400.8,49.5L400.8,49.5c0.3-0.8,1-1.3,1.8-1.3c0.4,0,0.7,0.1,1,0.3l-0.6,1.1c-0.2-0.2-0.5-0.3-0.8-0.3
			c-1.4,0-1.5,1.3-1.5,2.3v3.2h-1.3v-6.6h1.3V49.5z"/>
		<path d="M407.9,49.2L407.9,49.2c0.4-0.6,1.1-1,1.8-1c0.9,0,1.5,0.4,1.9,1.2c0.4-0.7,1.2-1.2,2-1.2c1.7,0,2.2,1.3,2.2,2.8v3.9h-1.3
			v-3.7c0-0.8-0.1-1.9-1.2-1.9c-1.3,0-1.4,1.4-1.4,2.4v3.2h-1.3v-3.5c0-0.9,0-2.2-1.2-2.2c-1.3,0-1.5,1.4-1.5,2.4v3.2h-1.3v-6.6h1.3
			V49.2z"/>
		<path d="M422.7,49.9V51h-3.1v-1.1H422.7z"/>
		<path d="M427.8,48.4V52c0,1.1,0.3,2,1.5,2c1.2,0,1.5-0.9,1.5-2v-3.6h1.3v3.8c0,1.8-0.8,3-2.8,3c-1.9,0-2.8-1.2-2.8-3v-3.8H427.8z"
			/>
		<path d="M437.1,49.5L437.1,49.5c0.5-0.8,1.3-1.3,2.3-1.3c1.9,0,3.1,1.6,3.1,3.4c0,1.9-1.1,3.5-3.1,3.5c-0.9,0-1.7-0.5-2.2-1.2h0
			v4.8h-1.3V48.4h1.3V49.5z M441.3,51.7c0-1.3-0.8-2.4-2.1-2.4c-1.3,0-2.1,1.1-2.1,2.4c0,1.2,0.7,2.4,2.1,2.4
			C440.5,54.1,441.3,53,441.3,51.7z"/>
		<path d="M452.2,42.8h1.3v6.7h0c0.5-0.8,1.3-1.3,2.3-1.3c1.9,0,3.1,1.6,3.1,3.4c0,1.9-1.1,3.5-3.1,3.5c-0.9,0-1.7-0.5-2.2-1.2h0v1
			h-1.3V42.8z M457.6,51.7c0-1.3-0.8-2.4-2.1-2.4c-1.3,0-2.1,1.1-2.1,2.4c0,1.2,0.7,2.4,2.1,2.4C456.8,54.1,457.6,53,457.6,51.7z"/>
		<path d="M463,51.9c0,1.1,0.8,2.2,2,2.2c1,0,1.5-0.5,2-1.3l1.1,0.6c-0.6,1.1-1.8,1.8-3,1.8c-2,0-3.2-1.5-3.2-3.4
			c0-2,1.1-3.5,3.2-3.5c2.1,0,3.1,1.5,3.1,3.5v0.2H463z M466.8,50.9c-0.2-1-0.8-1.6-1.8-1.6c-1,0-1.7,0.7-1.9,1.6H466.8z"/>
		<path d="M474.6,44.1c-0.3-0.1-0.6-0.3-0.8-0.3c-0.9,0-0.9,1.1-0.9,1.8v2.8h1.7v1.2h-1.7v5.4h-1.3v-5.4H471v-1.2h0.6v-3.2
			c0-1.4,0.5-2.6,2.1-2.6c0.3,0,0.6,0.1,0.9,0.2V44.1z"/>
		<path d="M483.9,51.7c0,2-1.5,3.5-3.5,3.5s-3.5-1.5-3.5-3.5s1.5-3.5,3.5-3.5S483.9,49.7,483.9,51.7z M478.1,51.7
			c0,1.2,1,2.3,2.2,2.3s2.2-1.1,2.2-2.3c0-1.2-1-2.3-2.2-2.3S478.1,50.4,478.1,51.7z"/>
		<path d="M488.6,49.5L488.6,49.5c0.4-0.8,1-1.3,1.8-1.3c0.4,0,0.7,0.1,1,0.3l-0.6,1.1c-0.2-0.2-0.5-0.3-0.8-0.3
			c-1.4,0-1.5,1.3-1.5,2.3v3.2h-1.3v-6.6h1.3V49.5z"/>
		<path d="M495.2,51.9c0,1.1,0.8,2.2,2,2.2c1,0,1.5-0.5,2-1.3l1.1,0.6c-0.6,1.1-1.8,1.8-3,1.8c-2,0-3.2-1.5-3.2-3.4
			c0-2,1.1-3.5,3.2-3.5c2.1,0,3.1,1.5,3.1,3.5v0.2H495.2z M498.9,50.9c-0.2-1-0.8-1.6-1.8-1.6c-1,0-1.7,0.7-1.9,1.6H498.9z"/>
		<path d="M1.7,70.4L1.7,70.4c0.4-0.6,1.1-1,1.8-1c0.9,0,1.5,0.4,1.9,1.2c0.4-0.7,1.2-1.2,2-1.2c1.7,0,2.2,1.3,2.2,2.8v3.9H8.3v-3.7
			c0-0.8-0.1-1.9-1.2-1.9c-1.3,0-1.4,1.4-1.4,2.4v3.2H4.4v-3.5c0-0.9,0-2.2-1.2-2.2c-1.3,0-1.5,1.4-1.5,2.4v3.2H0.5v-6.6h1.3V70.4z"
			/>
		<path d="M12.4,69.6h1.5l2.2,4.2l2.1-4.2h1.4l-5.3,10.3h-1.4l2.6-4.9L12.4,69.6z"/>
		<path d="M33.7,75.1L33.7,75.1c-0.5,0.7-1.3,1.2-2.3,1.2c-2,0-3.1-1.7-3.1-3.5c0-1.8,1.2-3.4,3.1-3.4c1,0,1.8,0.5,2.3,1.3h0V64h1.3
			v12.2h-1.3V75.1z M33.7,72.9c0-1.3-0.8-2.4-2.1-2.4c-1.3,0-2.1,1.1-2.1,2.4c0,1.2,0.7,2.4,2.1,2.4C33,75.3,33.7,74.2,33.7,72.9z"
			/>
		<path d="M45,76.1h-1.3v-1h0c-0.5,0.7-1.3,1.2-2.2,1.2c-2,0-3.1-1.7-3.1-3.5c0-1.8,1.2-3.4,3.1-3.4c1,0,1.8,0.5,2.3,1.3h0v-1.1H45
			V76.1z M43.8,72.9c0-1.3-0.8-2.4-2.1-2.4c-1.3,0-2.1,1.1-2.1,2.4c0,1.2,0.7,2.4,2.1,2.4C43,75.3,43.8,74.2,43.8,72.9z"/>
		<path d="M50.6,66.6c0,0.5-0.4,0.9-0.9,0.9c-0.5,0-0.9-0.4-0.9-0.9c0-0.5,0.4-0.9,0.9-0.9C50.2,65.7,50.6,66.1,50.6,66.6z
			 M50.4,76.1h-1.3v-6.6h1.3V76.1z"/>
		<path d="M55.9,76.1h-1.3V64h1.3V76.1z"/>
		<path d="M58.9,69.6h1.5l2.2,4.2l2.1-4.2h1.4l-5.3,10.3h-1.4l2.6-4.9L58.9,69.6z"/>
		<path d="M80.2,75.1L80.2,75.1c-0.5,0.7-1.3,1.2-2.3,1.2c-2,0-3.1-1.7-3.1-3.5c0-1.8,1.2-3.4,3.1-3.4c1,0,1.8,0.5,2.3,1.3h0V64h1.3
			v12.2h-1.3V75.1z M80.2,72.9c0-1.3-0.8-2.4-2.1-2.4c-1.3,0-2.1,1.1-2.1,2.4c0,1.2,0.7,2.4,2.1,2.4C79.5,75.3,80.2,74.2,80.2,72.9z
			"/>
		<path d="M86.1,73.1c0,1.1,0.8,2.2,2,2.2c1,0,1.5-0.5,2-1.3l1.1,0.6c-0.6,1.1-1.8,1.8-3,1.8c-2,0-3.2-1.5-3.2-3.4
			c0-2,1.1-3.5,3.2-3.5c2.1,0,3.1,1.5,3.1,3.5v0.2H86.1z M89.8,72.1c-0.2-1-0.8-1.6-1.8-1.6c-1,0-1.7,0.7-1.9,1.6H89.8z"/>
		<path d="M97,71.1c-0.2-0.3-0.5-0.6-0.8-0.6c-0.4,0-0.7,0.3-0.7,0.6c0,0.6,0.8,0.8,1.5,1.2s1.5,0.8,1.5,1.9c0,1.2-1,2.2-2.3,2.2
			c-1,0-1.9-0.5-2.3-1.5l1.1-0.5c0.3,0.5,0.6,0.8,1.2,0.8c0.5,0,1-0.4,1-0.9c0-0.4-0.2-0.5-0.5-0.7L95.6,73
			c-0.7-0.4-1.3-0.8-1.3-1.7c0-1.1,0.9-1.9,1.9-1.9c0.8,0,1.4,0.4,1.8,1.1L97,71.1z"/>
		<path d="M103.8,66.6c0,0.5-0.4,0.9-0.9,0.9c-0.5,0-0.9-0.4-0.9-0.9c0-0.5,0.4-0.9,0.9-0.9C103.4,65.7,103.8,66.1,103.8,66.6z
			 M103.5,76.1h-1.3v-6.6h1.3V76.1z"/>
		<path d="M113.9,76c0,2.3-0.6,3.9-3.2,3.9c-1.8,0-3.1-1.1-3.2-3h1.3c0,1.2,0.8,1.8,2,1.8c1.6,0,1.9-1.1,1.9-2.4v-1.2h0
			c-0.5,0.7-1.3,1.2-2.2,1.2c-2,0-3.1-1.7-3.1-3.5c0-1.8,1.2-3.4,3.1-3.4c1,0,1.8,0.5,2.3,1.3h0v-1.1h1.3V76z M112.7,72.9
			c0-1.3-0.8-2.4-2.1-2.4c-1.3,0-2.1,1.1-2.1,2.4c0,1.2,0.7,2.4,2.1,2.4C112,75.3,112.7,74.2,112.7,72.9z"/>
		<path d="M119.1,70.5L119.1,70.5c0.4-0.7,1.2-1.1,2-1.1c1.8,0,2.3,1.2,2.3,2.8v3.9h-1.3v-3.8c0-1.1-0.2-1.9-1.4-1.9
			c-1.6,0-1.6,1.4-1.6,2.6v3h-1.3v-6.6h1.3V70.5z"/>
		<path d="M135.9,73.8l1.9-4.5l1.9,4.5l1.9-4.2h1.4l-3.3,6.8l-1.9-4.4l-1.9,4.4l-3.3-6.8h1.4L135.9,73.8z"/>
		<path d="M152.4,72.9c0,2-1.5,3.5-3.5,3.5c-2,0-3.5-1.5-3.5-3.5s1.5-3.5,3.5-3.5C150.8,69.4,152.4,70.9,152.4,72.9z M146.6,72.9
			c0,1.2,1,2.3,2.2,2.3c1.2,0,2.2-1.1,2.2-2.3c0-1.2-1-2.3-2.2-2.3C147.6,70.6,146.6,71.6,146.6,72.9z"/>
		<path d="M157.1,70.7L157.1,70.7c0.4-0.8,1-1.3,1.8-1.3c0.4,0,0.7,0.1,1,0.3l-0.6,1.1c-0.2-0.2-0.5-0.3-0.8-0.3
			c-1.4,0-1.5,1.3-1.5,2.3v3.2h-1.3v-6.6h1.3V70.7z"/>
		<path d="M164.2,72.1l2.5-2.5h1.7l-2.8,2.7l3.1,3.8H167l-2.3-3l-0.4,0.4v2.5H163V64h1.3V72.1z"/>
		<path d="M173.6,75.6c0,0.4-0.4,0.8-0.8,0.8s-0.8-0.4-0.8-0.8c0-0.4,0.4-0.8,0.8-0.8S173.6,75.1,173.6,75.6z"/>
		<path d="M185.8,73.5l-1.2,2.6h-1.4l5-11l5,11h-1.4l-1.2-2.6H185.8z M188.2,68l-1.9,4.3h3.8L188.2,68z"/>
		<path d="M198.9,71.1c-0.2-0.3-0.5-0.6-0.8-0.6c-0.4,0-0.7,0.3-0.7,0.6c0,0.6,0.8,0.8,1.5,1.2s1.5,0.8,1.5,1.9c0,1.2-1,2.2-2.3,2.2
			c-1,0-1.9-0.5-2.3-1.5l1.1-0.5c0.3,0.5,0.6,0.8,1.2,0.8c0.5,0,1-0.4,1-0.9c0-0.4-0.2-0.5-0.5-0.7l-1.2-0.7
			c-0.7-0.4-1.3-0.8-1.3-1.7c0-1.1,0.9-1.9,1.9-1.9c0.8,0,1.4,0.4,1.8,1.1L198.9,71.1z"/>
		<path d="M216.3,76.1H215v-1h0c-0.5,0.7-1.3,1.2-2.2,1.2c-2,0-3.1-1.7-3.1-3.5c0-1.8,1.2-3.4,3.1-3.4c1,0,1.8,0.5,2.3,1.3h0v-1.1
			h1.3V76.1z M215.1,72.9c0-1.3-0.8-2.4-2.1-2.4c-1.3,0-2.1,1.1-2.1,2.4c0,1.2,0.7,2.4,2.1,2.4C214.4,75.3,215.1,74.2,215.1,72.9z"
			/>
		<path d="M226.4,64h1.3v6.7h0c0.5-0.8,1.3-1.3,2.3-1.3c1.9,0,3.1,1.6,3.1,3.4c0,1.9-1.1,3.5-3.1,3.5c-0.9,0-1.7-0.5-2.2-1.2h0v1
			h-1.3V64z M231.8,72.9c0-1.3-0.8-2.4-2.1-2.4c-1.3,0-2.1,1.1-2.1,2.4c0,1.2,0.7,2.4,2.1,2.4C231,75.3,231.8,74.2,231.8,72.9z"/>
		<path d="M242.9,72.9c0,2-1.5,3.5-3.5,3.5c-2,0-3.5-1.5-3.5-3.5s1.5-3.5,3.5-3.5C241.4,69.4,242.9,70.9,242.9,72.9z M237.2,72.9
			c0,1.2,1,2.3,2.2,2.3c1.2,0,2.2-1.1,2.2-2.3c0-1.2-1-2.3-2.2-2.3C238.2,70.6,237.2,71.6,237.2,72.9z"/>
		<path d="M247.5,70.5L247.5,70.5c0.4-0.7,1.2-1.1,2-1.1c1.8,0,2.3,1.2,2.3,2.8v3.9h-1.3v-3.8c0-1.1-0.2-1.9-1.4-1.9
			c-1.6,0-1.6,1.4-1.6,2.6v3h-1.3v-6.6h1.3V70.5z"/>
		<path d="M257.1,69.6v3.6c0,1.1,0.3,2,1.5,2c1.2,0,1.5-0.9,1.5-2v-3.6h1.3v3.8c0,1.8-0.8,3-2.8,3c-1.9,0-2.8-1.2-2.8-3v-3.8H257.1z
			"/>
		<path d="M267.9,71.1c-0.2-0.3-0.5-0.6-0.8-0.6c-0.4,0-0.7,0.3-0.7,0.6c0,0.6,0.8,0.8,1.5,1.2s1.5,0.8,1.5,1.9c0,1.2-1,2.2-2.3,2.2
			c-1,0-1.9-0.5-2.3-1.5l1.1-0.5c0.3,0.5,0.6,0.8,1.2,0.8c0.5,0,1-0.4,1-0.9c0-0.4-0.2-0.5-0.5-0.7l-1.2-0.7
			c-0.7-0.4-1.3-0.8-1.3-1.7c0-1.1,0.9-1.9,1.9-1.9c0.8,0,1.4,0.4,1.8,1.1L267.9,71.1z"/>
		<path d="M275.4,74.9l-1.9,3.7l-0.8-0.3l1.5-3.9L275.4,74.9z"/>
		<path d="M286.9,76.1h-1.3V65.6h1.3V76.1z"/>
		<path d="M302.1,75.1L302.1,75.1c-0.5,0.7-1.3,1.2-2.3,1.2c-2,0-3.1-1.7-3.1-3.5c0-1.8,1.2-3.4,3.1-3.4c1,0,1.8,0.5,2.3,1.3h0V64
			h1.3v12.2h-1.3V75.1z M302.2,72.9c0-1.3-0.8-2.4-2.1-2.4c-1.3,0-2.1,1.1-2.1,2.4c0,1.2,0.7,2.4,2.1,2.4
			C301.4,75.3,302.2,74.2,302.2,72.9z"/>
		<path d="M308,73.1c0,1.1,0.8,2.2,2,2.2c1,0,1.5-0.5,2-1.3l1.1,0.6c-0.6,1.1-1.8,1.8-3,1.8c-2,0-3.2-1.5-3.2-3.4
			c0-2,1.1-3.5,3.2-3.5c2.1,0,3.1,1.5,3.1,3.5v0.2H308z M311.7,72.1c-0.2-1-0.8-1.6-1.8-1.6c-1,0-1.7,0.7-1.9,1.6H311.7z"/>
		<path d="M321.1,71.5c-0.5-0.6-1.1-0.9-1.9-0.9c-1.2,0-2.2,1.1-2.2,2.3c0,1.3,0.9,2.3,2.3,2.3c0.7,0,1.3-0.3,1.8-0.9v1.6
			c-0.6,0.3-1.1,0.4-1.8,0.4c-1.9,0-3.5-1.5-3.5-3.4c0-2,1.6-3.5,3.6-3.5c0.6,0,1.2,0.1,1.7,0.4V71.5z"/>
		<path d="M326.5,66.6c0,0.5-0.4,0.9-0.9,0.9c-0.5,0-0.9-0.4-0.9-0.9c0-0.5,0.4-0.9,0.9-0.9C326.1,65.7,326.5,66.1,326.5,66.6z
			 M326.3,76.1H325v-6.6h1.3V76.1z"/>
		<path d="M335.4,75.1L335.4,75.1c-0.5,0.7-1.3,1.2-2.3,1.2c-2,0-3.1-1.7-3.1-3.5c0-1.8,1.2-3.4,3.1-3.4c1,0,1.8,0.5,2.3,1.3h0V64
			h1.3v12.2h-1.3V75.1z M335.5,72.9c0-1.3-0.8-2.4-2.1-2.4c-1.3,0-2.1,1.1-2.1,2.4c0,1.2,0.7,2.4,2.1,2.4
			C334.7,75.3,335.5,74.2,335.5,72.9z"/>
		<path d="M341.3,73.1c0,1.1,0.8,2.2,2,2.2c1,0,1.5-0.5,2-1.3l1.1,0.6c-0.6,1.1-1.8,1.8-3,1.8c-2,0-3.2-1.5-3.2-3.4
			c0-2,1.1-3.5,3.2-3.5c2.1,0,3.1,1.5,3.1,3.5v0.2H341.3z M345,72.1c-0.2-1-0.8-1.6-1.8-1.6c-1,0-1.7,0.7-1.9,1.6H345z"/>
		<path d="M354.5,75.1L354.5,75.1c-0.5,0.7-1.3,1.2-2.3,1.2c-2,0-3.1-1.7-3.1-3.5c0-1.8,1.2-3.4,3.1-3.4c1,0,1.8,0.5,2.3,1.3h0V64
			h1.3v12.2h-1.3V75.1z M354.6,72.9c0-1.3-0.8-2.4-2.1-2.4c-1.3,0-2.1,1.1-2.1,2.4c0,1.2,0.7,2.4,2.1,2.4
			C353.8,75.3,354.6,74.2,354.6,72.9z"/>
		<path d="M367.4,76.1h-1.3v-5.4h-0.7v-1.2h0.7v-2.5h1.3v2.5h1.2v1.2h-1.2V76.1z"/>
		<path d="M377.9,72.9c0,2-1.5,3.5-3.5,3.5s-3.5-1.5-3.5-3.5s1.5-3.5,3.5-3.5S377.9,70.9,377.9,72.9z M372.2,72.9
			c0,1.2,1,2.3,2.2,2.3s2.2-1.1,2.2-2.3c0-1.2-1-2.3-2.2-2.3S372.2,71.6,372.2,72.9z"/>
		<path d="M390.2,71.1c-0.2-0.3-0.5-0.6-0.8-0.6c-0.4,0-0.7,0.3-0.7,0.6c0,0.6,0.8,0.8,1.5,1.2s1.5,0.8,1.5,1.9c0,1.2-1,2.2-2.3,2.2
			c-1,0-1.9-0.5-2.3-1.5l1.1-0.5c0.3,0.5,0.6,0.8,1.2,0.8c0.5,0,1-0.4,1-0.9c0-0.4-0.2-0.5-0.5-0.7l-1.2-0.7
			c-0.7-0.4-1.3-0.8-1.3-1.7c0-1.1,0.9-1.9,1.9-1.9c0.8,0,1.4,0.4,1.8,1.1L390.2,71.1z"/>
		<path d="M396.7,76.1h-1.3v-5.4h-0.7v-1.2h0.7v-2.5h1.3v2.5h1.2v1.2h-1.2V76.1z"/>
		<path d="M402,69.6v3.6c0,1.1,0.3,2,1.5,2c1.2,0,1.5-0.9,1.5-2v-3.6h1.3v3.8c0,1.8-0.8,3-2.8,3c-1.9,0-2.8-1.2-2.8-3v-3.8H402z"/>
		<path d="M415.1,75.1L415.1,75.1c-0.5,0.7-1.3,1.2-2.3,1.2c-2,0-3.1-1.7-3.1-3.5c0-1.8,1.2-3.4,3.1-3.4c1,0,1.8,0.5,2.3,1.3h0V64
			h1.3v12.2h-1.3V75.1z M415.2,72.9c0-1.3-0.8-2.4-2.1-2.4c-1.3,0-2.1,1.1-2.1,2.4c0,1.2,0.7,2.4,2.1,2.4
			C414.4,75.3,415.2,74.2,415.2,72.9z"/>
		<path d="M419.2,69.6h1.5l2.2,4.2l2.1-4.2h1.4l-5.3,10.3h-1.4l2.6-4.9L419.2,69.6z"/>
		<path d="M437,76.1h-1.3v-5.4h-0.7v-1.2h0.7v-2.5h1.3v2.5h1.2v1.2H437V76.1z"/>
		<path d="M441.9,73.1c0,1.1,0.8,2.2,2,2.2c1,0,1.5-0.5,2-1.3l1.1,0.6c-0.6,1.1-1.8,1.8-3,1.8c-2,0-3.2-1.5-3.2-3.4
			c0-2,1.1-3.5,3.2-3.5c2.1,0,3.1,1.5,3.1,3.5v0.2H441.9z M445.7,72.1c-0.2-1-0.8-1.6-1.8-1.6c-1,0-1.7,0.7-1.9,1.6H445.7z"/>
		<path d="M449.7,69.6h1.5l1.6,2.1l1.7-2.1h1.5l-2.4,3l2.8,3.6h-1.5l-2.2-2.7l-2.1,2.7h-1.5l2.9-3.6L449.7,69.6z"/>
		<path d="M460.8,76.1h-1.3v-5.4h-0.7v-1.2h0.7v-2.5h1.3v2.5h1.2v1.2h-1.2V76.1z"/>
		<path d="M466.1,69.6v3.6c0,1.1,0.3,2,1.5,2c1.2,0,1.5-0.9,1.5-2v-3.6h1.3v3.8c0,1.8-0.8,3-2.8,3c-1.9,0-2.8-1.2-2.8-3v-3.8H466.1z
			"/>
		<path d="M475.7,70.7L475.7,70.7c0.3-0.8,1-1.3,1.8-1.3c0.4,0,0.7,0.1,1,0.3l-0.6,1.1c-0.2-0.2-0.5-0.3-0.8-0.3
			c-1.4,0-1.5,1.3-1.5,2.3v3.2h-1.3v-6.6h1.3V70.7z"/>
		<path d="M482.2,73.1c0,1.1,0.8,2.2,2,2.2c1,0,1.5-0.5,2-1.3l1.1,0.6c-0.6,1.1-1.8,1.8-3,1.8c-2,0-3.2-1.5-3.2-3.4
			c0-2,1.1-3.5,3.2-3.5c2.1,0,3.1,1.5,3.1,3.5v0.2H482.2z M486,72.1c-0.2-1-0.8-1.6-1.8-1.6c-1,0-1.7,0.7-1.9,1.6H486z"/>
		<path d="M493.2,71.1c-0.2-0.3-0.5-0.6-0.8-0.6c-0.4,0-0.7,0.3-0.7,0.6c0,0.6,0.8,0.8,1.5,1.2s1.5,0.8,1.5,1.9c0,1.2-1,2.2-2.3,2.2
			c-1,0-1.9-0.5-2.3-1.5l1.1-0.5c0.3,0.5,0.6,0.8,1.2,0.8c0.5,0,1-0.4,1-0.9c0-0.4-0.2-0.5-0.5-0.7l-1.2-0.7
			c-0.7-0.4-1.3-0.8-1.3-1.7c0-1.1,0.9-1.9,1.9-1.9c0.8,0,1.4,0.4,1.8,1.1L493.2,71.1z"/>
		<path d="M6.7,97.3H5.4v-1h0c-0.5,0.7-1.3,1.2-2.2,1.2c-2,0-3.1-1.7-3.1-3.5c0-1.8,1.2-3.4,3.1-3.4c1,0,1.8,0.5,2.3,1.3h0v-1.1h1.3
			V97.3z M5.5,94.1c0-1.3-0.8-2.4-2.1-2.4c-1.3,0-2.1,1.1-2.1,2.4c0,1.2,0.7,2.4,2.1,2.4C4.7,96.5,5.5,95.4,5.5,94.1z"/>
		<path d="M11.8,91.7L11.8,91.7c0.4-0.7,1.2-1.1,2-1.1c1.8,0,2.3,1.2,2.3,2.8v3.9h-1.3v-3.8c0-1.1-0.2-1.9-1.4-1.9
			c-1.6,0-1.6,1.4-1.6,2.6v3h-1.3v-6.6h1.3V91.7z"/>
		<path d="M25,96.3L25,96.3c-0.5,0.7-1.3,1.2-2.3,1.2c-2,0-3.1-1.7-3.1-3.5c0-1.8,1.2-3.4,3.1-3.4c1,0,1.8,0.5,2.3,1.3h0v-6.7h1.3
			v12.2H25V96.3z M25,94.1c0-1.3-0.8-2.4-2.1-2.4c-1.3,0-2.1,1.1-2.1,2.4c0,1.2,0.7,2.4,2.1,2.4C24.3,96.5,25,95.4,25,94.1z"/>
		<path d="M37.6,91.6L37.6,91.6c0.4-0.6,1.1-1,1.8-1c0.9,0,1.5,0.4,1.9,1.2c0.4-0.7,1.2-1.2,2-1.2c1.7,0,2.2,1.3,2.2,2.8v3.9h-1.3
			v-3.7c0-0.8-0.1-1.9-1.2-1.9c-1.3,0-1.4,1.4-1.4,2.4v3.2h-1.3v-3.5c0-0.9,0-2.2-1.2-2.2c-1.3,0-1.5,1.4-1.5,2.4v3.2h-1.3v-6.6h1.3
			V91.6z"/>
		<path d="M55.5,97.3h-1.3v-1h0c-0.5,0.7-1.3,1.2-2.2,1.2c-2,0-3.1-1.7-3.1-3.5c0-1.8,1.2-3.4,3.1-3.4c1,0,1.8,0.5,2.3,1.3h0v-1.1
			h1.3V97.3z M54.3,94.1c0-1.3-0.8-2.4-2.1-2.4c-1.3,0-2.1,1.1-2.1,2.4c0,1.2,0.7,2.4,2.1,2.4C53.6,96.5,54.3,95.4,54.3,94.1z"/>
		<path d="M60.7,93.3l2.5-2.5h1.7l-2.8,2.7l3.1,3.8h-1.6l-2.3-3l-0.4,0.4v2.5h-1.3V85.2h1.3V93.3z"/>
		<path d="M68.9,94.3c0,1.1,0.8,2.2,2,2.2c1,0,1.5-0.5,2-1.3l1.1,0.6c-0.6,1.1-1.8,1.8-3,1.8c-2,0-3.2-1.5-3.2-3.4
			c0-2,1.1-3.5,3.2-3.5c2.1,0,3.1,1.5,3.1,3.5v0.2H68.9z M72.6,93.3c-0.2-1-0.8-1.6-1.8-1.6c-1,0-1.7,0.7-1.9,1.6H72.6z"/>
		<path d="M84.9,97.3h-1.3V92H83v-1.2h0.7v-2.5h1.3v2.5h1.2V92h-1.2V97.3z"/>
		<path d="M90.3,85.2v6.5h0c0.4-0.7,1.2-1.1,2-1.1c1.8,0,2.3,1.2,2.3,2.8v3.9h-1.3v-3.8c0-1.1-0.2-1.9-1.4-1.9
			c-1.6,0-1.6,1.4-1.6,2.6v3h-1.3V85.2H90.3z"/>
		<path d="M100.4,87.8c0,0.5-0.4,0.9-0.9,0.9c-0.5,0-0.9-0.4-0.9-0.9c0-0.5,0.4-0.9,0.9-0.9C100,86.9,100.4,87.3,100.4,87.8z
			 M100.2,97.3h-1.3v-6.6h1.3V97.3z"/>
		<path d="M107.1,92.3c-0.2-0.3-0.5-0.6-0.8-0.6c-0.4,0-0.7,0.3-0.7,0.6c0,0.6,0.8,0.8,1.5,1.2s1.5,0.8,1.5,1.9c0,1.2-1,2.2-2.3,2.2
			c-1,0-1.9-0.5-2.3-1.5l1.1-0.5c0.3,0.5,0.6,0.8,1.2,0.8c0.5,0,1-0.4,1-0.9c0-0.4-0.2-0.5-0.5-0.7l-1.2-0.7
			c-0.7-0.4-1.3-0.8-1.3-1.7c0-1.1,0.9-1.9,1.9-1.9c0.8,0,1.4,0.4,1.8,1.1L107.1,92.3z"/>
		<path d="M124.5,97.3h-1.3v-1h0c-0.5,0.7-1.3,1.2-2.2,1.2c-2,0-3.1-1.7-3.1-3.5c0-1.8,1.2-3.4,3.1-3.4c1,0,1.8,0.5,2.3,1.3h0v-1.1
			h1.3V97.3z M123.3,94.1c0-1.3-0.8-2.4-2.1-2.4c-1.3,0-2.1,1.1-2.1,2.4c0,1.2,0.7,2.4,2.1,2.4C122.5,96.5,123.3,95.4,123.3,94.1z"
			/>
		<path d="M137.3,92.3c-0.2-0.3-0.5-0.6-0.8-0.6c-0.4,0-0.7,0.3-0.7,0.6c0,0.6,0.8,0.8,1.5,1.2s1.5,0.8,1.5,1.9c0,1.2-1,2.2-2.3,2.2
			c-1,0-1.9-0.5-2.3-1.5l1.1-0.5c0.3,0.5,0.6,0.8,1.2,0.8c0.5,0,1-0.4,1-0.9c0-0.4-0.2-0.5-0.5-0.7l-1.2-0.7
			c-0.7-0.4-1.3-0.8-1.3-1.7c0-1.1,0.9-1.9,1.9-1.9c0.8,0,1.4,0.4,1.8,1.1L137.3,92.3z"/>
		<path d="M143.4,91.9L143.4,91.9c0.5-0.8,1.3-1.3,2.3-1.3c1.9,0,3.1,1.6,3.1,3.4c0,1.9-1.1,3.5-3.1,3.5c-0.9,0-1.7-0.5-2.2-1.2h0
			v4.8h-1.3V90.8h1.3V91.9z M147.5,94.1c0-1.3-0.8-2.4-2.1-2.4c-1.3,0-2.1,1.1-2.1,2.4c0,1.2,0.7,2.4,2.1,2.4
			C146.8,96.5,147.5,95.4,147.5,94.1z"/>
		<path d="M153,94.3c0,1.1,0.8,2.2,2,2.2c1,0,1.5-0.5,2-1.3l1.1,0.6c-0.6,1.1-1.8,1.8-3,1.8c-2,0-3.2-1.5-3.2-3.4
			c0-2,1.1-3.5,3.2-3.5c2.1,0,3.1,1.5,3.1,3.5v0.2H153z M156.8,93.3c-0.2-1-0.8-1.6-1.8-1.6c-1,0-1.7,0.7-1.9,1.6H156.8z"/>
		<path d="M162.1,94.3c0,1.1,0.8,2.2,2,2.2c1,0,1.5-0.5,2-1.3l1.1,0.6c-0.6,1.1-1.8,1.8-3,1.8c-2,0-3.2-1.5-3.2-3.4
			c0-2,1.1-3.5,3.2-3.5c2.1,0,3.1,1.5,3.1,3.5v0.2H162.1z M165.8,93.3c-0.2-1-0.8-1.6-1.8-1.6c-1,0-1.7,0.7-1.9,1.6H165.8z"/>
		<path d="M175.3,96.3L175.3,96.3c-0.5,0.7-1.3,1.2-2.3,1.2c-2,0-3.1-1.7-3.1-3.5c0-1.8,1.2-3.4,3.1-3.4c1,0,1.8,0.5,2.3,1.3h0v-6.7
			h1.3v12.2h-1.3V96.3z M175.4,94.1c0-1.3-0.8-2.4-2.1-2.4c-1.3,0-2.1,1.1-2.1,2.4c0,1.2,0.7,2.4,2.1,2.4
			C174.6,96.5,175.4,95.4,175.4,94.1z"/>
		<path d="M183.4,92.3v1.1h-3.1v-1.1H183.4z"/>
		<path d="M188.5,91.9L188.5,91.9c0.5-0.8,1.3-1.3,2.3-1.3c1.9,0,3.1,1.6,3.1,3.4c0,1.9-1.1,3.5-3.1,3.5c-0.9,0-1.7-0.5-2.2-1.2h0
			v4.8h-1.3V90.8h1.3V91.9z M192.6,94.1c0-1.3-0.8-2.4-2.1-2.4c-1.3,0-2.1,1.1-2.1,2.4c0,1.2,0.7,2.4,2.1,2.4
			C191.9,96.5,192.6,95.4,192.6,94.1z"/>
		<path d="M203.5,97.3h-1.3v-1h0c-0.5,0.7-1.3,1.2-2.2,1.2c-2,0-3.1-1.7-3.1-3.5c0-1.8,1.2-3.4,3.1-3.4c1,0,1.8,0.5,2.3,1.3h0v-1.1
			h1.3V97.3z M202.3,94.1c0-1.3-0.8-2.4-2.1-2.4c-1.3,0-2.1,1.1-2.1,2.4c0,1.2,0.7,2.4,2.1,2.4C201.6,96.5,202.3,95.4,202.3,94.1z"
			/>
		<path d="M209.2,87.8c0,0.5-0.4,0.9-0.9,0.9c-0.5,0-0.9-0.4-0.9-0.9c0-0.5,0.4-0.9,0.9-0.9C208.8,86.9,209.2,87.3,209.2,87.8z
			 M208.9,97.3h-1.3v-6.6h1.3V97.3z"/>
		<path d="M214.4,91.7L214.4,91.7c0.4-0.7,1.2-1.1,2-1.1c1.8,0,2.3,1.2,2.3,2.8v3.9h-1.3v-3.8c0-1.1-0.2-1.9-1.4-1.9
			c-1.6,0-1.6,1.4-1.6,2.6v3h-1.3v-6.6h1.3V91.7z"/>
		<path d="M224.2,97.3h-1.3V92h-0.7v-1.2h0.7v-2.5h1.3v2.5h1.2V92h-1.2V97.3z"/>
		<path d="M230.1,87.8c0,0.5-0.4,0.9-0.9,0.9c-0.5,0-0.9-0.4-0.9-0.9c0-0.5,0.4-0.9,0.9-0.9C229.7,86.9,230.1,87.3,230.1,87.8z
			 M229.9,97.3h-1.3v-6.6h1.3V97.3z"/>
		<path d="M235.4,91.7L235.4,91.7c0.4-0.7,1.2-1.1,2-1.1c1.8,0,2.3,1.2,2.3,2.8v3.9h-1.3v-3.8c0-1.1-0.2-1.9-1.4-1.9
			c-1.6,0-1.6,1.4-1.6,2.6v3h-1.3v-6.6h1.3V91.7z"/>
		<path d="M249.8,97.2c0,2.3-0.6,3.9-3.2,3.9c-1.8,0-3.1-1.1-3.2-3h1.3c0,1.2,0.8,1.8,2,1.8c1.6,0,1.9-1.1,1.9-2.4v-1.2h0
			c-0.5,0.7-1.3,1.2-2.2,1.2c-2,0-3.1-1.7-3.1-3.5c0-1.8,1.2-3.4,3.1-3.4c1,0,1.8,0.5,2.3,1.3h0v-1.1h1.3V97.2z M248.6,94.1
			c0-1.3-0.8-2.4-2.1-2.4c-1.3,0-2.1,1.1-2.1,2.4c0,1.2,0.7,2.4,2.1,2.4C247.9,96.5,248.6,95.4,248.6,94.1z"/>
		<path d="M262.6,92.3c-0.2-0.3-0.5-0.6-0.8-0.6c-0.4,0-0.7,0.3-0.7,0.6c0,0.6,0.8,0.8,1.5,1.2s1.5,0.8,1.5,1.9c0,1.2-1,2.2-2.3,2.2
			c-1,0-1.9-0.5-2.3-1.5l1.1-0.5c0.3,0.5,0.6,0.8,1.2,0.8c0.5,0,1-0.4,1-0.9c0-0.4-0.2-0.5-0.5-0.7l-1.2-0.7
			c-0.7-0.4-1.3-0.8-1.3-1.7c0-1.1,0.9-1.9,1.9-1.9c0.8,0,1.4,0.4,1.8,1.1L262.6,92.3z"/>
		<path d="M269.1,97.3h-1.3V92h-0.7v-1.2h0.7v-2.5h1.3v2.5h1.2V92h-1.2V97.3z"/>
		<path d="M274.4,90.8v3.6c0,1.1,0.3,2,1.5,2c1.2,0,1.5-0.9,1.5-2v-3.6h1.3v3.8c0,1.8-0.8,3-2.8,3c-1.9,0-2.8-1.2-2.8-3v-3.8H274.4z
			"/>
		<path d="M287.5,96.3L287.5,96.3c-0.5,0.7-1.3,1.2-2.3,1.2c-2,0-3.1-1.7-3.1-3.5c0-1.8,1.2-3.4,3.1-3.4c1,0,1.8,0.5,2.3,1.3h0v-6.7
			h1.3v12.2h-1.3V96.3z M287.6,94.1c0-1.3-0.8-2.4-2.1-2.4c-1.3,0-2.1,1.1-2.1,2.4c0,1.2,0.7,2.4,2.1,2.4
			C286.8,96.5,287.6,95.4,287.6,94.1z"/>
		<path d="M291.6,90.8h1.5l2.2,4.2l2.1-4.2h1.4l-5.3,10.3H292l2.6-4.9L291.6,90.8z"/>
		<path d="M302.5,96.8c0,0.4-0.4,0.8-0.8,0.8s-0.8-0.4-0.8-0.8c0-0.4,0.4-0.8,0.8-0.8S302.5,96.3,302.5,96.8z"/>
		<path d="M314.5,97.3h-1.3V86.8h1.3V97.3z"/>
		<path d="M326.1,91.6L326.1,91.6c0.4-0.6,1.1-1,1.8-1c0.9,0,1.5,0.4,1.9,1.2c0.4-0.7,1.2-1.2,2-1.2c1.7,0,2.2,1.3,2.2,2.8v3.9h-1.3
			v-3.7c0-0.8-0.1-1.9-1.2-1.9c-1.3,0-1.4,1.4-1.4,2.4v3.2h-1.3v-3.5c0-0.9,0-2.2-1.2-2.2c-1.3,0-1.5,1.4-1.5,2.4v3.2h-1.3v-6.6h1.3
			V91.6z"/>
		<path d="M344,97.3h-1.3v-1h0c-0.5,0.7-1.3,1.2-2.2,1.2c-2,0-3.1-1.7-3.1-3.5c0-1.8,1.2-3.4,3.1-3.4c1,0,1.8,0.5,2.3,1.3h0v-1.1
			h1.3V97.3z M342.8,94.1c0-1.3-0.8-2.4-2.1-2.4c-1.3,0-2.1,1.1-2.1,2.4c0,1.2,0.7,2.4,2.1,2.4C342.1,96.5,342.8,95.4,342.8,94.1z"
			/>
		<path d="M352.8,96.3L352.8,96.3c-0.5,0.7-1.3,1.2-2.3,1.2c-2,0-3.1-1.7-3.1-3.5c0-1.8,1.2-3.4,3.1-3.4c1,0,1.8,0.5,2.3,1.3h0v-6.7
			h1.3v12.2h-1.3V96.3z M352.8,94.1c0-1.3-0.8-2.4-2.1-2.4c-1.3,0-2.1,1.1-2.1,2.4c0,1.2,0.7,2.4,2.1,2.4
			C352.1,96.5,352.8,95.4,352.8,94.1z"/>
		<path d="M358.7,94.3c0,1.1,0.8,2.2,2,2.2c1,0,1.5-0.5,2-1.3l1.1,0.6c-0.6,1.1-1.8,1.8-3,1.8c-2,0-3.2-1.5-3.2-3.4
			c0-2,1.1-3.5,3.2-3.5c2.1,0,3.1,1.5,3.1,3.5v0.2H358.7z M362.4,93.3c-0.2-1-0.8-1.6-1.8-1.6c-1,0-1.7,0.7-1.9,1.6H362.4z"/>
		<path d="M379.4,97.3h-1.3v-1h0c-0.5,0.7-1.3,1.2-2.2,1.2c-2,0-3.1-1.7-3.1-3.5c0-1.8,1.2-3.4,3.1-3.4c1,0,1.8,0.5,2.3,1.3h0v-1.1
			h1.3V97.3z M378.2,94.1c0-1.3-0.8-2.4-2.1-2.4c-1.3,0-2.1,1.1-2.1,2.4c0,1.2,0.7,2.4,2.1,2.4C377.5,96.5,378.2,95.4,378.2,94.1z"
			/>
		<path d="M390.7,91.9L390.7,91.9c0.5-0.8,1.3-1.3,2.3-1.3c1.9,0,3.1,1.6,3.1,3.4c0,1.9-1.1,3.5-3.1,3.5c-0.9,0-1.7-0.5-2.2-1.2h0
			v4.8h-1.3V90.8h1.3V91.9z M394.9,94.1c0-1.3-0.8-2.4-2.1-2.4c-1.3,0-2.1,1.1-2.1,2.4c0,1.2,0.7,2.4,2.1,2.4
			C394.1,96.5,394.9,95.4,394.9,94.1z"/>
		<path d="M406,94.1c0,2-1.5,3.5-3.5,3.5s-3.5-1.5-3.5-3.5s1.5-3.5,3.5-3.5S406,92.1,406,94.1z M400.3,94.1c0,1.2,1,2.3,2.2,2.3
			s2.2-1.1,2.2-2.3c0-1.2-1-2.3-2.2-2.3S400.3,92.8,400.3,94.1z"/>
		<path d="M411.2,87.8c0,0.5-0.4,0.9-0.9,0.9s-0.9-0.4-0.9-0.9c0-0.5,0.4-0.9,0.9-0.9S411.2,87.3,411.2,87.8z M410.9,97.3h-1.3v-6.6
			h1.3V97.3z"/>
		<path d="M416.5,91.7L416.5,91.7c0.4-0.7,1.2-1.1,2-1.1c1.8,0,2.3,1.2,2.3,2.8v3.9h-1.3v-3.8c0-1.1-0.2-1.9-1.4-1.9
			c-1.6,0-1.6,1.4-1.6,2.6v3h-1.3v-6.6h1.3V91.7z"/>
		<path d="M426.2,97.3h-1.3V92h-0.7v-1.2h0.7v-2.5h1.3v2.5h1.2V92h-1.2V97.3z"/>
		<path d="M443.1,94.1c0,2-1.5,3.5-3.5,3.5c-2,0-3.5-1.5-3.5-3.5s1.5-3.5,3.5-3.5C441.5,90.6,443.1,92.1,443.1,94.1z M437.3,94.1
			c0,1.2,1,2.3,2.2,2.3c1.2,0,2.2-1.1,2.2-2.3c0-1.2-1-2.3-2.2-2.3C438.3,91.8,437.3,92.8,437.3,94.1z"/>
		<path d="M449.7,86.5c-0.3-0.1-0.6-0.3-0.8-0.3c-0.9,0-0.9,1.1-0.9,1.8v2.8h1.7V92H448v5.4h-1.3V92h-0.6v-1.2h0.6v-3.2
			c0-1.4,0.5-2.6,2.1-2.6c0.3,0,0.6,0.1,0.9,0.2V86.5z"/>
		<path d="M3.1,113.5c-0.2-0.3-0.5-0.6-0.8-0.6c-0.4,0-0.7,0.3-0.7,0.6c0,0.6,0.8,0.8,1.5,1.2s1.5,0.8,1.5,1.9c0,1.2-1,2.2-2.3,2.2
			c-1,0-1.9-0.5-2.3-1.5l1.1-0.5c0.3,0.5,0.6,0.8,1.2,0.8c0.5,0,1-0.4,1-0.9c0-0.4-0.2-0.5-0.5-0.7l-1.2-0.7
			c-0.7-0.4-1.3-0.8-1.3-1.7c0-1.1,0.9-1.9,1.9-1.9c0.8,0,1.4,0.4,1.8,1.1L3.1,113.5z"/>
		<path d="M9.3,113.1L9.3,113.1c0.5-0.8,1.3-1.3,2.3-1.3c1.9,0,3.1,1.6,3.1,3.4c0,1.9-1.1,3.5-3.1,3.5c-0.9,0-1.7-0.5-2.2-1.2h0v4.8
			H8V112h1.3V113.1z M13.4,115.3c0-1.3-0.8-2.4-2.1-2.4c-1.3,0-2.1,1.1-2.1,2.4c0,1.2,0.7,2.4,2.1,2.4
			C12.7,117.7,13.4,116.6,13.4,115.3z"/>
		<path d="M18.9,115.5c0,1.1,0.8,2.2,2,2.2c1,0,1.5-0.5,2-1.3l1.1,0.6c-0.6,1.1-1.8,1.8-3,1.8c-2,0-3.2-1.5-3.2-3.4
			c0-2,1.1-3.5,3.2-3.5c2.1,0,3.1,1.5,3.1,3.5v0.2H18.9z M22.6,114.5c-0.2-1-0.8-1.6-1.8-1.6c-1,0-1.7,0.7-1.9,1.6H22.6z"/>
		<path d="M28.5,112.9L28.5,112.9c0.4-0.7,1.2-1.1,2-1.1c1.8,0,2.3,1.2,2.3,2.8v3.9h-1.3v-3.8c0-1.1-0.2-1.9-1.4-1.9
			c-1.6,0-1.6,1.4-1.6,2.6v3h-1.3V112h1.3V112.9z"/>
		<path d="M41.7,117.5L41.7,117.5c-0.5,0.7-1.3,1.2-2.3,1.2c-2,0-3.1-1.7-3.1-3.5c0-1.8,1.2-3.4,3.1-3.4c1,0,1.8,0.5,2.3,1.3h0v-6.7
			h1.3v12.2h-1.3V117.5z M41.7,115.3c0-1.3-0.8-2.4-2.1-2.4c-1.3,0-2.1,1.1-2.1,2.4c0,1.2,0.7,2.4,2.1,2.4
			C41,117.7,41.7,116.6,41.7,115.3z"/>
		<path d="M48.6,109c0,0.5-0.4,0.9-0.9,0.9c-0.5,0-0.9-0.4-0.9-0.9c0-0.5,0.4-0.9,0.9-0.9C48.2,108.1,48.6,108.5,48.6,109z
			 M48.3,118.5h-1.3V112h1.3V118.5z"/>
		<path d="M53.9,112.9L53.9,112.9c0.4-0.7,1.2-1.1,2-1.1c1.8,0,2.3,1.2,2.3,2.8v3.9h-1.3v-3.8c0-1.1-0.2-1.9-1.4-1.9
			c-1.6,0-1.6,1.4-1.6,2.6v3h-1.3V112h1.3V112.9z"/>
		<path d="M68.3,118.4c0,2.3-0.6,3.9-3.2,3.9c-1.8,0-3.1-1.1-3.2-3h1.3c0,1.2,0.8,1.8,2,1.8c1.6,0,1.9-1.1,1.9-2.4v-1.2h0
			c-0.5,0.7-1.3,1.2-2.2,1.2c-2,0-3.1-1.7-3.1-3.5c0-1.8,1.2-3.4,3.1-3.4c1,0,1.8,0.5,2.3,1.3h0V112h1.3V118.4z M67.1,115.3
			c0-1.3-0.8-2.4-2.1-2.4c-1.3,0-2.1,1.1-2.1,2.4c0,1.2,0.7,2.4,2.1,2.4C66.3,117.7,67.1,116.6,67.1,115.3z"/>
		<path d="M79.7,112.9L79.7,112.9c0.4-0.7,1.2-1.1,2-1.1c1.8,0,2.3,1.2,2.3,2.8v3.9h-1.3v-3.8c0-1.1-0.2-1.9-1.4-1.9
			c-1.6,0-1.6,1.4-1.6,2.6v3h-1.3V112h1.3V112.9z"/>
		<path d="M94.4,115.3c0,2-1.5,3.5-3.5,3.5c-2,0-3.5-1.5-3.5-3.5s1.5-3.5,3.5-3.5C92.9,111.8,94.4,113.3,94.4,115.3z M88.7,115.3
			c0,1.2,1,2.3,2.2,2.3c1.2,0,2.2-1.1,2.2-2.3c0-1.2-1-2.3-2.2-2.3C89.7,113,88.7,114,88.7,115.3z"/>
		<path d="M105.3,112.8L105.3,112.8c0.4-0.6,1.1-1,1.8-1c0.9,0,1.5,0.4,1.9,1.2c0.4-0.7,1.2-1.2,2-1.2c1.7,0,2.2,1.3,2.2,2.8v3.9
			h-1.3v-3.7c0-0.8-0.1-1.9-1.2-1.9c-1.3,0-1.4,1.4-1.4,2.4v3.2H108v-3.5c0-0.9,0-2.2-1.2-2.2c-1.3,0-1.5,1.4-1.5,2.4v3.2h-1.3V112
			h1.3V112.8z"/>
		<path d="M123.5,115.3c0,2-1.5,3.5-3.5,3.5c-2,0-3.5-1.5-3.5-3.5s1.5-3.5,3.5-3.5C122,111.8,123.5,113.3,123.5,115.3z M117.8,115.3
			c0,1.2,1,2.3,2.2,2.3c1.2,0,2.2-1.1,2.2-2.3c0-1.2-1-2.3-2.2-2.3C118.7,113,117.8,114,117.8,115.3z"/>
		<path d="M128.2,113.1L128.2,113.1c0.4-0.8,1-1.3,1.8-1.3c0.4,0,0.7,0.1,1,0.3l-0.6,1.1c-0.2-0.2-0.5-0.3-0.8-0.3
			c-1.4,0-1.5,1.3-1.5,2.3v3.2H127V112h1.3V113.1z"/>
		<path d="M134.8,115.5c0,1.1,0.8,2.2,2,2.2c1,0,1.5-0.5,2-1.3l1.1,0.6c-0.6,1.1-1.8,1.8-3,1.8c-2,0-3.2-1.5-3.2-3.4
			c0-2,1.1-3.5,3.2-3.5c2.1,0,3.1,1.5,3.1,3.5v0.2H134.8z M138.5,114.5c-0.2-1-0.8-1.6-1.8-1.6c-1,0-1.7,0.7-1.9,1.6H138.5z"/>
		<path d="M150.8,118.5h-1.3v-5.4h-0.7V112h0.7v-2.5h1.3v2.5h1.2v1.2h-1.2V118.5z"/>
		<path d="M156.3,106.4v6.5h0c0.4-0.7,1.2-1.1,2-1.1c1.8,0,2.3,1.2,2.3,2.8v3.9h-1.3v-3.8c0-1.1-0.2-1.9-1.4-1.9
			c-1.6,0-1.6,1.4-1.6,2.6v3H155v-12.2H156.3z"/>
		<path d="M170.7,118.5h-1.3v-1h0c-0.5,0.7-1.3,1.2-2.2,1.2c-2,0-3.1-1.7-3.1-3.5c0-1.8,1.2-3.4,3.1-3.4c1,0,1.8,0.5,2.3,1.3h0V112
			h1.3V118.5z M169.5,115.3c0-1.3-0.8-2.4-2.1-2.4c-1.3,0-2.1,1.1-2.1,2.4c0,1.2,0.7,2.4,2.1,2.4
			C168.8,117.7,169.5,116.6,169.5,115.3z"/>
		<path d="M175.8,112.9L175.8,112.9c0.4-0.7,1.2-1.1,2-1.1c1.8,0,2.3,1.2,2.3,2.8v3.9h-1.3v-3.8c0-1.1-0.2-1.9-1.4-1.9
			c-1.6,0-1.6,1.4-1.6,2.6v3h-1.3V112h1.3V112.9z"/>
		<path d="M191.3,109.2l0.7-1.2h2.4v10.6h-1.3v-9.4H191.3z"/>
		<path d="M200.3,113.3c0-2.2,1-5.5,3.7-5.5s3.7,3.3,3.7,5.5c0,2.2-1,5.5-3.7,5.5C201.2,118.8,200.3,115.4,200.3,113.3z
			 M201.5,113.3c0,1.5,0.5,4.3,2.4,4.3s2.4-2.9,2.4-4.3c0-1.5-0.5-4.4-2.4-4.4S201.5,111.8,201.5,113.3z"/>
		<path d="M218.6,112.8L218.6,112.8c0.4-0.6,1.1-1,1.8-1c0.9,0,1.5,0.4,1.9,1.2c0.4-0.7,1.2-1.2,2-1.2c1.7,0,2.2,1.3,2.2,2.8v3.9
			h-1.3v-3.7c0-0.8-0.1-1.9-1.2-1.9c-1.3,0-1.4,1.4-1.4,2.4v3.2h-1.3v-3.5c0-0.9,0-2.2-1.2-2.2c-1.3,0-1.5,1.4-1.5,2.4v3.2h-1.3V112
			h1.3V112.8z"/>
		<path d="M232.1,109c0,0.5-0.4,0.9-0.9,0.9s-0.9-0.4-0.9-0.9c0-0.5,0.4-0.9,0.9-0.9S232.1,108.5,232.1,109z M231.9,118.5h-1.3V112
			h1.3V118.5z"/>
		<path d="M237.4,112.9L237.4,112.9c0.4-0.7,1.2-1.1,2-1.1c1.8,0,2.3,1.2,2.3,2.8v3.9h-1.3v-3.8c0-1.1-0.2-1.9-1.4-1.9
			c-1.6,0-1.6,1.4-1.6,2.6v3h-1.3V112h1.3V112.9z"/>
		<path d="M246.9,112v3.6c0,1.1,0.3,2,1.5,2c1.2,0,1.5-0.9,1.5-2V112h1.3v3.8c0,1.8-0.8,3-2.8,3c-1.9,0-2.8-1.2-2.8-3V112H246.9z"/>
		<path d="M256.6,118.5h-1.3v-5.4h-0.7V112h0.7v-2.5h1.3v2.5h1.2v1.2h-1.2V118.5z"/>
		<path d="M261.5,115.5c0,1.1,0.8,2.2,2,2.2c1,0,1.5-0.5,2-1.3l1.1,0.6c-0.6,1.1-1.8,1.8-3,1.8c-2,0-3.2-1.5-3.2-3.4
			c0-2,1.1-3.5,3.2-3.5c2.1,0,3.1,1.5,3.1,3.5v0.2H261.5z M265.2,114.5c-0.2-1-0.8-1.6-1.8-1.6c-1,0-1.7,0.7-1.9,1.6H265.2z"/>
		<path d="M272.4,113.5c-0.2-0.3-0.5-0.6-0.8-0.6c-0.4,0-0.7,0.3-0.7,0.6c0,0.6,0.8,0.8,1.5,1.2s1.5,0.8,1.5,1.9
			c0,1.2-1,2.2-2.3,2.2c-1,0-1.9-0.5-2.3-1.5l1.1-0.5c0.3,0.5,0.6,0.8,1.2,0.8c0.5,0,1-0.4,1-0.9c0-0.4-0.2-0.5-0.5-0.7l-1.2-0.7
			c-0.7-0.4-1.3-0.8-1.3-1.7c0-1.1,0.9-1.9,1.9-1.9c0.8,0,1.4,0.4,1.8,1.1L272.4,113.5z"/>
		<path d="M290.1,115.3c0,2-1.5,3.5-3.5,3.5s-3.5-1.5-3.5-3.5s1.5-3.5,3.5-3.5S290.1,113.3,290.1,115.3z M284.4,115.3
			c0,1.2,1,2.3,2.2,2.3s2.2-1.1,2.2-2.3c0-1.2-1-2.3-2.2-2.3S284.4,114,284.4,115.3z"/>
		<path d="M294.8,112.9L294.8,112.9c0.4-0.7,1.2-1.1,2-1.1c1.8,0,2.3,1.2,2.3,2.8v3.9h-1.3v-3.8c0-1.1-0.2-1.9-1.4-1.9
			c-1.6,0-1.6,1.4-1.6,2.6v3h-1.3V112h1.3V112.9z"/>
		<path d="M310.1,115.5c0,1.1,0.8,2.2,2,2.2c1,0,1.5-0.5,2-1.3l1.1,0.6c-0.6,1.1-1.8,1.8-3,1.8c-2,0-3.2-1.5-3.2-3.4
			c0-2,1.1-3.5,3.2-3.5c2.1,0,3.1,1.5,3.1,3.5v0.2H310.1z M313.8,114.5c-0.2-1-0.8-1.6-1.8-1.6c-1,0-1.7,0.7-1.9,1.6H313.8z"/>
		<path d="M324.6,118.5h-1.3v-1h0c-0.5,0.7-1.3,1.2-2.2,1.2c-2,0-3.1-1.7-3.1-3.5c0-1.8,1.2-3.4,3.1-3.4c1,0,1.8,0.5,2.3,1.3h0V112
			h1.3V118.5z M323.4,115.3c0-1.3-0.8-2.4-2.1-2.4c-1.3,0-2.1,1.1-2.1,2.4c0,1.2,0.7,2.4,2.1,2.4
			C322.6,117.7,323.4,116.6,323.4,115.3z"/>
		<path d="M333.3,113.9c-0.5-0.6-1.1-0.9-1.9-0.9c-1.2,0-2.2,1.1-2.2,2.3c0,1.3,0.9,2.3,2.3,2.3c0.7,0,1.3-0.3,1.8-0.9v1.6
			c-0.6,0.3-1.1,0.4-1.8,0.4c-1.9,0-3.5-1.5-3.5-3.4c0-2,1.6-3.5,3.6-3.5c0.6,0,1.2,0.1,1.7,0.4V113.9z"/>
		<path d="M338.1,106.4v6.5h0c0.4-0.7,1.2-1.1,2-1.1c1.8,0,2.3,1.2,2.3,2.8v3.9h-1.3v-3.8c0-1.1-0.2-1.9-1.4-1.9
			c-1.6,0-1.6,1.4-1.6,2.6v3h-1.3v-12.2H338.1z"/>
		<path d="M354,118.5h-1.3v-12.2h1.3V118.5z"/>
		<path d="M358.8,115.5c0,1.1,0.8,2.2,2,2.2c1,0,1.5-0.5,2-1.3l1.1,0.6c-0.6,1.1-1.8,1.8-3,1.8c-2,0-3.2-1.5-3.2-3.4
			c0-2,1.1-3.5,3.2-3.5c2.1,0,3.1,1.5,3.1,3.5v0.2H358.8z M362.5,114.5c-0.2-1-0.8-1.6-1.8-1.6c-1,0-1.7,0.7-1.9,1.6H362.5z"/>
		<path d="M368.6,118.5h-1.3v-5.4h-0.7V112h0.7v-2.5h1.3v2.5h1.2v1.2h-1.2V118.5z"/>
		<path d="M374.2,118.5h-1.3v-5.4h-0.7V112h0.7v-2.5h1.3v2.5h1.2v1.2h-1.2V118.5z"/>
		<path d="M379.1,115.5c0,1.1,0.8,2.2,2,2.2c1,0,1.5-0.5,2-1.3l1.1,0.6c-0.6,1.1-1.8,1.8-3,1.8c-2,0-3.2-1.5-3.2-3.4
			c0-2,1.1-3.5,3.2-3.5c2.1,0,3.1,1.5,3.1,3.5v0.2H379.1z M382.8,114.5c-0.2-1-0.8-1.6-1.8-1.6c-1,0-1.7,0.7-1.9,1.6H382.8z"/>
		<path d="M388.7,113.1L388.7,113.1c0.3-0.8,1-1.3,1.8-1.3c0.4,0,0.7,0.1,1,0.3l-0.6,1.1c-0.2-0.2-0.5-0.3-0.8-0.3
			c-1.4,0-1.5,1.3-1.5,2.3v3.2h-1.3V112h1.3V113.1z"/>
		<path d="M395.1,118c0,0.4-0.4,0.8-0.8,0.8s-0.8-0.4-0.8-0.8c0-0.4,0.4-0.8,0.8-0.8S395.1,117.5,395.1,118z"/>
	</g>
</g>
</svg>
