<?xml version="1.0" encoding="utf-8"?>
<!-- Generator: Adobe Illustrator 19.0.1, SVG Export Plug-In . SVG Version: 6.00 Build 0)  -->
<svg version="1.1" xmlns="http://www.w3.org/2000/svg" xmlns:xlink="http://www.w3.org/1999/xlink" x="0px" y="0px"
	 viewBox="0 0 667.3 86.3" style="enable-background:new 0 0 667.3 86.3;" xml:space="preserve">
<style type="text/css">
	.st0{display:none;}
	.st1{display:inline;fill:#FFFFFF;}
</style>
<g id="Layer_1" class="st0">
	<rect x="-307.7" y="-166.1" class="st1" width="1280" height="500"/>
</g>
<g id="Layer_2">
	<g>
		<g>
			<path d="M0,1.8h20c15.1,0,27.6,11.9,27.6,27.2S35.1,56.1,20,56.1H0V1.8z M14.1,44.1h3.2c8.4,0,15.6-4.6,15.6-15.2
				c0-9.7-6.4-15.2-15.5-15.2h-3.3V44.1z"/>
			<path d="M68,46.7l-3.7,9.4h-15L70.2,1.8h15.4L106,56.1H91l-3.5-9.4H68z M77.9,18.6h-0.1l-5.8,17.3h11.7L77.9,18.6z"/>
			<path d="M124.5,56.1h-14.1V1.8h14.1V56.1z"/>
			<path d="M147.9,44.1h16.9v12h-31V1.8h14.1V44.1z"/>
			<path d="M156.8,1.8h16.9l10.2,14.8l10.2-14.8H211L191,30v26.1h-14.1V30L156.8,1.8z"/>
			<path d="M238.9,1.8h20c15.1,0,27.6,11.9,27.6,27.2S274,56.1,258.9,56.1h-20V1.8z M253,44.1h3.2c8.4,0,15.6-4.6,15.6-15.2
				c0-9.7-6.4-15.2-15.5-15.2H253V44.1z"/>
			<path d="M338.2,56.1h-17.6l-13.3-20.9h-0.1v20.9h-14.1V1.8h21.1c10.7,0,18.9,5.1,18.9,16.7c0,7.5-4.2,14-11.9,15.3L338.2,56.1z
				 M307.2,26.1h1.4c4.6,0,9.8-0.9,9.8-6.8s-5.2-6.8-9.8-6.8h-1.4V26.1z"/>
			<path d="M399.4,27.9c0,17.6-12.6,30-30,30c-17.4,0-30-12.4-30-30c0-16.4,14.4-27.9,30-27.9S399.4,11.5,399.4,27.9z M354,28
				c0,9.4,6.9,16.2,15.3,16.2c8.4,0,15.3-6.8,15.3-16.2c0-7.5-6.9-14.3-15.3-14.3C360.9,13.7,354,20.5,354,28z"/>
			<path d="M406,1.8h21.6c11.7,0,19.7,5.4,19.7,17.9c0,12.8-6.9,18.4-19.2,18.4h-8v18H406V1.8z M420.1,26.7h2.4
				c5.1,0,10.2,0,10.2-6.6c0-6.8-4.7-6.9-10.2-6.9h-2.4V26.7z"/>
			<path d="M517.1,20c-2.9-3.9-7.6-6-12.4-6c-8.6,0-14.5,6.6-14.5,15.1c0,8.6,5.9,14.8,14.7,14.8c4.6,0,9.2-2.2,12.2-5.8V55
				c-4.7,1.4-8.1,2.5-12.5,2.5c-7.6,0-14.8-2.9-20.4-8c-6-5.4-8.7-12.5-8.7-20.5c0-7.4,2.8-14.5,8-19.9c5.3-5.5,13-8.8,20.7-8.8
				c4.5,0,8.7,1,12.9,2.7V20z"/>
			<path d="M539.6,46.7l-3.7,9.4h-15l20.9-54.3h15.4l20.5,54.3h-15.1l-3.5-9.4H539.6z M549.5,18.6h-0.1l-5.8,17.3h11.7L549.5,18.6z"
				/>
			<path d="M582.1,1.8h21.6c11.7,0,19.7,5.4,19.7,17.9c0,12.8-6.9,18.4-19.2,18.4h-8v18h-14.1V1.8z M596.2,26.7h2.4
				c5.1,0,10.2,0,10.2-6.6c0-6.8-4.7-6.9-10.2-6.9h-2.4V26.7z"/>
			<path d="M659.5,15.8c-2.6-2.2-5.9-3.6-9.4-3.6c-2.6,0-6,1.5-6,4.5c0,3.2,3.8,4.4,6.3,5.2l3.6,1.1c7.6,2.2,13.4,6,13.4,14.8
				c0,5.4-1.3,10.9-5.6,14.6c-4.2,3.6-9.9,5.1-15.4,5.1c-6.8,0-13.5-2.3-19.1-6.2l6.1-11.4c3.5,3.1,7.7,5.6,12.5,5.6
				c3.3,0,6.8-1.7,6.8-5.5c0-4-5.5-5.3-8.6-6.2c-8.9-2.5-14.7-4.8-14.7-15.3c0-11,7.9-18.2,18.7-18.2c5.5,0,12.2,1.7,17,4.5
				L659.5,15.8z"/>
		</g>
		<g>
			<path d="M120.3,80.8L120.3,80.8c-0.6,0.8-1.5,1.4-2.6,1.4c-2.3,0-3.6-1.9-3.6-4c0-2,1.4-3.9,3.5-3.9c1.1,0,2,0.6,2.6,1.5h0v-7.7
				h1.4V82h-1.4V80.8z M120.3,78.2c0-1.5-0.9-2.7-2.4-2.7c-1.5,0-2.4,1.3-2.4,2.7c0,1.4,0.8,2.7,2.4,2.7
				C119.5,80.9,120.3,79.7,120.3,78.2z"/>
			<path d="M133.5,82H132v-1.2h0c-0.6,0.8-1.5,1.4-2.5,1.4c-2.3,0-3.6-1.9-3.6-4c0-2,1.4-3.9,3.5-3.9c1.1,0,2,0.6,2.6,1.5h0v-1.2
				h1.4V82z M132.1,78.2c0-1.5-0.9-2.7-2.4-2.7c-1.5,0-2.4,1.3-2.4,2.7c0,1.4,0.8,2.7,2.4,2.7C131.2,80.9,132.1,79.7,132.1,78.2z"/>
			<path d="M140.3,71.1c0,0.5-0.4,1-1,1c-0.5,0-1-0.4-1-1c0-0.6,0.4-1,1-1C139.8,70,140.3,70.5,140.3,71.1z M140,82h-1.4v-7.5h1.4
				V82z"/>
			<path d="M146.7,82h-1.4V68.1h1.4V82z"/>
			<path d="M150.4,74.5h1.7l2.5,4.8l2.4-4.8h1.6l-6.1,11.8h-1.6l2.9-5.6L150.4,74.5z"/>
			<path d="M172.7,76.2c-0.2-0.4-0.5-0.7-1-0.7c-0.4,0-0.8,0.3-0.8,0.7c0,0.7,0.9,0.9,1.7,1.3c0.9,0.4,1.7,0.9,1.7,2.1
				c0,1.4-1.2,2.5-2.6,2.5c-1.1,0-2.2-0.6-2.6-1.7l1.2-0.6c0.3,0.6,0.7,1,1.4,1c0.6,0,1.1-0.4,1.1-1.1c0-0.4-0.2-0.6-0.5-0.8
				l-1.4-0.8c-0.8-0.4-1.4-0.9-1.4-1.9c0-1.2,1-2.2,2.2-2.2c0.9,0,1.6,0.5,2,1.3L172.7,76.2z"/>
			<path d="M180.4,82H179v-6.1h-0.8v-1.3h0.8v-2.9h1.4v2.9h1.4v1.3h-1.4V82z"/>
			<path d="M186.8,74.5v4.1c0,1.2,0.3,2.3,1.7,2.3s1.7-1.1,1.7-2.3v-4.1h1.4v4.3c0,2-1,3.4-3.2,3.4s-3.2-1.4-3.2-3.4v-4.3H186.8z"/>
			<path d="M202.1,80.8L202.1,80.8c-0.6,0.8-1.5,1.4-2.6,1.4c-2.3,0-3.6-1.9-3.6-4c0-2,1.4-3.9,3.5-3.9c1.1,0,2,0.6,2.6,1.5h0v-7.7
				h1.4V82h-1.4V80.8z M202.2,78.2c0-1.5-0.9-2.7-2.4-2.7c-1.5,0-2.4,1.3-2.4,2.7c0,1.4,0.8,2.7,2.4,2.7
				C201.3,80.9,202.2,79.7,202.2,78.2z"/>
			<path d="M210.3,71.1c0,0.5-0.4,1-1,1c-0.5,0-1-0.4-1-1c0-0.6,0.4-1,1-1C209.9,70,210.3,70.5,210.3,71.1z M210.1,82h-1.4v-7.5h1.4
				V82z"/>
			<path d="M216.1,78.5c0,1.3,0.9,2.5,2.3,2.5c1.1,0,1.7-0.6,2.2-1.5l1.2,0.7c-0.7,1.3-2,2-3.5,2c-2.3,0-3.7-1.7-3.7-3.9
				c0-2.3,1.2-4,3.6-4c2.4,0,3.5,1.8,3.5,4v0.2H216.1z M220.4,77.4c-0.2-1.1-0.9-1.9-2.1-1.9c-1.1,0-2,0.8-2.1,1.9H220.4z"/>
			<path d="M229,76.2c-0.2-0.4-0.5-0.7-1-0.7c-0.4,0-0.8,0.3-0.8,0.7c0,0.7,0.9,0.9,1.7,1.3c0.9,0.4,1.7,0.9,1.7,2.1
				c0,1.4-1.2,2.5-2.6,2.5c-1.1,0-2.2-0.6-2.6-1.7l1.2-0.6c0.3,0.6,0.7,1,1.4,1c0.6,0,1.1-0.4,1.1-1.1c0-0.4-0.2-0.6-0.5-0.8
				l-1.4-0.8c-0.8-0.4-1.4-0.9-1.4-1.9c0-1.2,1-2.2,2.2-2.2c0.9,0,1.6,0.5,2,1.3L229,76.2z"/>
			<path d="M244.5,71.1c0,0.5-0.4,1-1,1c-0.5,0-1-0.4-1-1c0-0.6,0.4-1,1-1C244.1,70,244.5,70.5,244.5,71.1z M244.2,82h-1.4v-7.5h1.4
				V82z"/>
			<path d="M250.9,75.5L250.9,75.5c0.5-0.8,1.4-1.2,2.3-1.2c2.1,0,2.7,1.4,2.7,3.2V82h-1.4v-4.3c0-1.3-0.2-2.1-1.6-2.1
				c-1.9,0-1.9,1.6-1.9,3V82h-1.4v-7.5h1.4V75.5z"/>
			<path d="M269.8,82h-1.4v-6.1h-0.8v-1.3h0.8v-2.9h1.4v2.9h1.4v1.3h-1.4V82z"/>
			<path d="M273.7,74.5h1.7l2.5,4.8l2.4-4.8h1.6l-6.1,11.8h-1.6l2.9-5.6L273.7,74.5z"/>
			<path d="M286.8,75.7L286.8,75.7c0.6-0.9,1.5-1.5,2.6-1.5c2.2,0,3.5,1.9,3.5,3.9c0,2.1-1.3,4-3.6,4c-1.1,0-2-0.6-2.5-1.4h0v5.5
				h-1.4V74.5h1.4V75.7z M291.6,78.2c0-1.5-0.9-2.7-2.4-2.7c-1.5,0-2.4,1.3-2.4,2.7c0,1.4,0.8,2.7,2.4,2.7
				C290.7,80.9,291.6,79.7,291.6,78.2z"/>
			<path d="M304.6,78.2c0,2.3-1.8,4-4,4s-4-1.7-4-4s1.8-4,4-4S304.6,76,304.6,78.2z M298.1,78.2c0,1.4,1.1,2.6,2.6,2.6
				c1.4,0,2.6-1.2,2.6-2.6c0-1.4-1.1-2.6-2.6-2.6C299.2,75.6,298.1,76.8,298.1,78.2z"/>
			<path d="M315.8,81.8c0,2.6-0.7,4.4-3.6,4.4c-2.1,0-3.6-1.3-3.6-3.4h1.4c0,1.3,0.9,2.1,2.2,2.1c1.8,0,2.1-1.2,2.1-2.8v-1.4h0
				c-0.6,0.8-1.5,1.4-2.5,1.4c-2.3,0-3.6-1.9-3.6-4c0-2,1.4-3.9,3.5-3.9c1.1,0,2,0.6,2.6,1.5h0v-1.3h1.4V81.8z M314.5,78.2
				c0-1.5-0.9-2.7-2.4-2.7c-1.5,0-2.4,1.3-2.4,2.7c0,1.4,0.8,2.7,2.4,2.7C313.6,80.9,314.5,79.7,314.5,78.2z"/>
			<path d="M322.1,75.7L322.1,75.7c0.4-0.9,1.1-1.4,2.1-1.4c0.4,0,0.8,0.1,1.2,0.4l-0.7,1.3c-0.3-0.2-0.5-0.3-0.9-0.3
				c-1.6,0-1.7,1.4-1.7,2.7V82h-1.4v-7.5h1.4V75.7z"/>
			<path d="M336.1,82h-1.4v-1.2h0c-0.6,0.8-1.5,1.4-2.5,1.4c-2.3,0-3.6-1.9-3.6-4c0-2,1.4-3.9,3.5-3.9c1.1,0,2,0.6,2.6,1.5h0v-1.2
				h1.4V82z M334.7,78.2c0-1.5-0.9-2.7-2.4-2.7c-1.5,0-2.4,1.3-2.4,2.7c0,1.4,0.8,2.7,2.4,2.7C333.9,80.9,334.7,79.7,334.7,78.2z"/>
			<path d="M342.2,75.7L342.2,75.7c0.6-0.9,1.5-1.5,2.6-1.5c2.2,0,3.5,1.9,3.5,3.9c0,2.1-1.3,4-3.6,4c-1.1,0-2-0.6-2.5-1.4h0v5.5
				h-1.4V74.5h1.4V75.7z M346.9,78.2c0-1.5-0.9-2.7-2.4-2.7c-1.5,0-2.4,1.3-2.4,2.7c0,1.4,0.8,2.7,2.4,2.7
				C346,80.9,346.9,79.7,346.9,78.2z"/>
			<path d="M354.1,68.1v7.4h0c0.4-0.8,1.3-1.2,2.3-1.2c2.1,0,2.7,1.4,2.7,3.2V82h-1.4v-4.3c0-1.3-0.2-2.1-1.6-2.1
				c-1.9,0-1.9,1.6-1.9,3V82h-1.4V68.1H354.1z"/>
			<path d="M362.7,74.5h1.7l2.5,4.8l2.4-4.8h1.6l-6.1,11.8h-1.6l2.9-5.6L362.7,74.5z"/>
			<path d="M413.7,82h-1.4v-6.1h-0.8v-1.3h0.8v-2.9h1.4v2.9h1.4v1.3h-1.4V82z"/>
			<path d="M419.6,78.5c0,1.3,0.9,2.5,2.3,2.5c1.1,0,1.7-0.6,2.2-1.5l1.2,0.7c-0.7,1.3-2,2-3.5,2c-2.3,0-3.7-1.7-3.7-3.9
				c0-2.3,1.2-4,3.6-4c2.4,0,3.5,1.8,3.5,4v0.2H419.6z M423.9,77.4c-0.2-1.1-0.9-1.9-2.1-1.9c-1.1,0-2,0.8-2.1,1.9H423.9z"/>
			<path d="M428.9,74.5h1.7l1.8,2.4l1.9-2.4h1.7l-2.8,3.4l3.2,4.1h-1.7l-2.5-3l-2.4,3h-1.7l3.3-4.1L428.9,74.5z"/>
			<path d="M441.8,82h-1.4v-6.1h-0.8v-1.3h0.8v-2.9h1.4v2.9h1.4v1.3h-1.4V82z"/>
			<path d="M448.2,74.5v4.1c0,1.2,0.3,2.3,1.7,2.3s1.7-1.1,1.7-2.3v-4.1h1.4v4.3c0,2-1,3.4-3.2,3.4s-3.2-1.4-3.2-3.4v-4.3H448.2z"/>
			<path d="M459.5,75.7L459.5,75.7c0.4-0.9,1.1-1.4,2.1-1.4c0.4,0,0.8,0.1,1.2,0.4l-0.7,1.3c-0.3-0.2-0.5-0.3-0.9-0.3
				c-1.6,0-1.7,1.4-1.7,2.7V82H458v-7.5h1.4V75.7z"/>
			<path d="M467.3,78.5c0,1.3,0.9,2.5,2.3,2.5c1.1,0,1.7-0.6,2.2-1.5l1.2,0.7c-0.7,1.3-2,2-3.5,2c-2.3,0-3.7-1.7-3.7-3.9
				c0-2.3,1.2-4,3.6-4c2.4,0,3.5,1.8,3.5,4v0.2H467.3z M471.6,77.4c-0.2-1.1-0.9-1.9-2.1-1.9c-1.1,0-2,0.8-2.1,1.9H471.6z"/>
			<path d="M512.6,76.6c-0.6-0.7-1.3-1-2.1-1c-1.4,0-2.5,1.2-2.5,2.6c0,1.5,1.1,2.7,2.6,2.7c0.8,0,1.5-0.4,2-1v1.8
				c-0.7,0.4-1.3,0.5-2.1,0.5c-2.2,0-4-1.7-4-3.9c0-2.3,1.8-4,4.1-4c0.7,0,1.4,0.2,2,0.5V76.6z"/>
			<path d="M524.4,78.2c0,2.3-1.8,4-4,4c-2.2,0-4-1.7-4-4s1.8-4,4-4C522.6,74.3,524.4,76,524.4,78.2z M517.8,78.2
				c0,1.4,1.1,2.6,2.6,2.6c1.4,0,2.6-1.2,2.6-2.6c0-1.4-1.1-2.6-2.6-2.6C519,75.6,517.8,76.8,517.8,78.2z"/>
			<path d="M530.1,82h-1.4V68.1h1.4V82z"/>
			<path d="M542.3,78.2c0,2.3-1.8,4-4,4c-2.2,0-4-1.7-4-4s1.8-4,4-4C540.6,74.3,542.3,76,542.3,78.2z M535.8,78.2
				c0,1.4,1.1,2.6,2.6,2.6c1.4,0,2.6-1.2,2.6-2.6c0-1.4-1.1-2.6-2.6-2.6C536.9,75.6,535.8,76.8,535.8,78.2z"/>
			<path d="M548.1,75.7L548.1,75.7c0.4-0.9,1.1-1.4,2.1-1.4c0.4,0,0.8,0.1,1.2,0.4l-0.7,1.3c-0.3-0.2-0.5-0.3-0.9-0.3
				c-1.6,0-1.7,1.4-1.7,2.7V82h-1.4v-7.5h1.4V75.7z"/>
		</g>
		<circle cx="388.7" cy="77.7" r="3.2"/>
		<circle cx="489.7" cy="77.7" r="3.2"/>
	</g>
</g>
</svg>
