<?xml version="1.0" encoding="utf-8"?>
<!-- Generator: Adobe Illustrator 19.0.1, SVG Export Plug-In . SVG Version: 6.00 Build 0)  -->
<svg version="1.1" xmlns="http://www.w3.org/2000/svg" xmlns:xlink="http://www.w3.org/1999/xlink" x="0px" y="0px"
	 viewBox="0 0 121.4 12.3" style="enable-background:new 0 0 121.4 12.3;" xml:space="preserve">
<style type="text/css">
	.st0{display:none;}
	.st1{display:inline;fill:#FFFFFF;}
	.st2{fill:#FFFFFF;}
	.st3{fill:#3399CC;}
	.st4{fill:#231F20;}
</style>
<g id="Layer_1" class="st0">
	<rect x="-290.4" y="-56.8" class="st1" width="1280" height="1480.2"/>
</g>
<g id="Layer_2">
	<g>
		<path d="M0,12V0.4h4.3c2.1,0,3.4,0.8,3.4,3c0,1-0.3,1.9-1.3,2.4v0C8.1,6,8.8,7.1,8.8,8.7c0,2.4-2.1,3.2-4.2,3.2H0z M3,4.9h0.3
			C4.1,4.9,5,4.8,5,3.8C5,2.7,4,2.7,3.2,2.7H3V4.9z M3,9.7h0.4c0.9,0,2.4,0,2.4-1.2c0-1.4-1.5-1.3-2.5-1.3H3V9.7z"/>
		<path d="M16.2,12h-3V0.4h3V12z"/>
		<path d="M23.9,9.4h3.6V12h-6.6V0.4h3V9.4z"/>
		<path d="M34.3,9.4h3.6V12h-6.6V0.4h3V9.4z"/>
		<path d="M41.6,12V0.4h4.3c2.1,0,3.4,0.8,3.4,3c0,1-0.3,1.9-1.3,2.4v0c1.7,0.2,2.4,1.3,2.4,2.9c0,2.4-2.1,3.2-4.2,3.2H41.6z
			 M44.6,4.9h0.3c0.8,0,1.6-0.1,1.6-1.1c0-1.1-0.9-1.1-1.8-1.1h-0.2V4.9z M44.6,9.7H45c0.9,0,2.4,0,2.4-1.2c0-1.4-1.5-1.3-2.5-1.3
			h-0.3V9.7z"/>
		<path d="M67,6c0,3.7-2.7,6.4-6.4,6.4S54.2,9.7,54.2,6c0-3.5,3.1-6,6.4-6S67,2.5,67,6z M57.3,6c0,2,1.5,3.5,3.3,3.5S63.8,8,63.8,6
			c0-1.6-1.5-3.1-3.3-3.1S57.3,4.4,57.3,6z"/>
		<path d="M74.1,9.9l-0.8,2h-3.2l4.5-11.6h3.3L82.2,12H79l-0.8-2H74.1z M76.2,4L76.2,4l-1.3,3.7h2.5L76.2,4z"/>
		<path d="M95.5,12h-3.7l-2.8-4.5h0V12h-3V0.4h4.5c2.3,0,4,1.1,4,3.6c0,1.6-0.9,3-2.5,3.3L95.5,12z M88.9,5.6h0.3
			c1,0,2.1-0.2,2.1-1.4s-1.1-1.4-2.1-1.4h-0.3V5.6z"/>
		<path d="M99.1,0.4h4.3c3.2,0,5.9,2.5,5.9,5.8c0,3.3-2.7,5.8-5.9,5.8h-4.3V0.4z M102.1,9.4h0.7c1.8,0,3.3-1,3.3-3.2
			c0-2.1-1.4-3.2-3.3-3.2h-0.7V9.4z"/>
		<path d="M119.7,3.4c-0.6-0.5-1.3-0.8-2-0.8c-0.6,0-1.3,0.3-1.3,1c0,0.7,0.8,0.9,1.3,1.1l0.8,0.2c1.6,0.5,2.9,1.3,2.9,3.2
			c0,1.2-0.3,2.3-1.2,3.1c-0.9,0.8-2.1,1.1-3.3,1.1c-1.5,0-2.9-0.5-4.1-1.3l1.3-2.4c0.8,0.7,1.6,1.2,2.7,1.2c0.7,0,1.5-0.4,1.5-1.2
			c0-0.8-1.2-1.1-1.8-1.3c-1.9-0.5-3.1-1-3.1-3.3c0-2.3,1.7-3.9,4-3.9c1.2,0,2.6,0.4,3.6,1L119.7,3.4z"/>
	</g>
</g>
</svg>
