<?xml version="1.0" encoding="utf-8"?>
<!-- Generator: Adobe Illustrator 19.0.1, SVG Export Plug-In . SVG Version: 6.00 Build 0)  -->
<svg version="1.1" xmlns="http://www.w3.org/2000/svg" xmlns:xlink="http://www.w3.org/1999/xlink" x="0px" y="0px"
	 viewBox="0 0 486.6 185.8" style="enable-background:new 0 0 486.6 185.8;" xml:space="preserve">
<style type="text/css">
	.st0{display:none;}
	.st1{display:inline;fill:#FFFFFF;}
	.st2{fill:#FFFFFF;}
	.st3{fill:#3399CC;}
	.st4{fill:#F9D04B;}
	.st5{clip-path:url(#SVGID_4_);}
	.st6{clip-path:url(#SVGID_5_);}
	.st7{fill:none;stroke:#FFFFFF;stroke-width:0.7637;stroke-miterlimit:10;}
	.st8{clip-path:url(#SVGID_8_);}
	.st9{fill:#F49A32;}
	.st10{clip-path:url(#SVGID_12_);}
	.st11{opacity:0.49;clip-path:url(#SVGID_12_);}
	.st12{opacity:0.49;}
	.st13{clip-path:url(#SVGID_14_);fill:none;}
	.st14{opacity:0.5;clip-path:url(#SVGID_12_);}
	.st15{opacity:0.5;}
	.st16{fill:none;stroke:#FFFFFF;stroke-width:1.0312;}
	.st17{clip-path:url(#SVGID_12_);fill:none;stroke:#FFFFFF;stroke-width:1.1321;}
	.st18{fill-rule:evenodd;clip-rule:evenodd;fill:#FFFFFF;}
	.st19{fill:#C77F44;}
	.st20{fill:url(#SVGID_17_);}
	.st21{fill:url(#SVGID_18_);}
	.st22{fill:url(#SVGID_19_);}
	.st23{fill:url(#SVGID_20_);}
	.st24{fill:url(#SVGID_21_);}
	.st25{fill:url(#SVGID_22_);}
	.st26{fill:url(#SVGID_23_);}
	.st27{fill:url(#SVGID_24_);}
	.st28{fill:url(#SVGID_25_);}
	.st29{fill:url(#SVGID_26_);}
	.st30{fill:url(#SVGID_27_);}
	.st31{fill:url(#SVGID_28_);}
	.st32{fill:url(#SVGID_29_);}
	.st33{fill:url(#SVGID_30_);}
	.st34{fill:url(#SVGID_31_);}
	.st35{fill:url(#SVGID_32_);}
	.st36{fill:url(#SVGID_33_);}
	.st37{fill:url(#SVGID_34_);}
	.st38{fill:url(#SVGID_35_);}
	.st39{fill:url(#SVGID_36_);}
	.st40{fill:url(#SVGID_37_);}
	.st41{fill:url(#SVGID_38_);}
	.st42{fill:url(#SVGID_39_);}
	.st43{fill:url(#SVGID_40_);}
	.st44{fill:url(#SVGID_41_);}
	.st45{fill:url(#SVGID_42_);}
	.st46{fill:url(#SVGID_43_);}
	.st47{fill-rule:evenodd;clip-rule:evenodd;fill:url(#SVGID_44_);}
	.st48{fill-rule:evenodd;clip-rule:evenodd;fill:url(#SVGID_45_);}
	.st49{fill-rule:evenodd;clip-rule:evenodd;fill:url(#SVGID_46_);}
	.st50{fill:url(#SVGID_47_);}
	.st51{fill-rule:evenodd;clip-rule:evenodd;fill:url(#SVGID_48_);}
	.st52{fill-rule:evenodd;clip-rule:evenodd;fill:url(#SVGID_49_);}
	.st53{fill-rule:evenodd;clip-rule:evenodd;fill:url(#SVGID_50_);}
	.st54{fill:url(#SVGID_51_);}
	.st55{fill:url(#SVGID_52_);}
	.st56{fill:url(#SVGID_53_);}
	.st57{fill:url(#SVGID_54_);}
	.st58{fill:url(#SVGID_55_);}
	.st59{fill:url(#SVGID_56_);}
	.st60{fill:url(#SVGID_57_);}
	.st61{fill:url(#SVGID_58_);}
	.st62{fill:url(#SVGID_59_);}
	.st63{fill:url(#SVGID_60_);}
	.st64{fill:url(#SVGID_61_);}
	.st65{fill:url(#SVGID_62_);}
	.st66{fill:url(#SVGID_63_);}
	.st67{fill:url(#SVGID_64_);}
	.st68{fill:url(#SVGID_65_);}
	.st69{fill:url(#SVGID_66_);}
	.st70{fill:url(#SVGID_67_);}
	.st71{fill:url(#SVGID_68_);}
	.st72{fill:url(#SVGID_69_);}
	.st73{fill:url(#SVGID_70_);}
	.st74{fill:url(#SVGID_71_);}
	.st75{fill:url(#SVGID_72_);}
	.st76{fill:url(#SVGID_73_);}
	.st77{fill-rule:evenodd;clip-rule:evenodd;fill:url(#SVGID_74_);}
	.st78{fill-rule:evenodd;clip-rule:evenodd;fill:url(#SVGID_75_);}
	.st79{fill-rule:evenodd;clip-rule:evenodd;fill:url(#SVGID_76_);}
	.st80{fill:url(#SVGID_77_);}
	.st81{fill:url(#SVGID_78_);}
	.st82{fill-rule:evenodd;clip-rule:evenodd;fill:url(#SVGID_79_);}
	.st83{fill:url(#SVGID_80_);}
	.st84{fill-rule:evenodd;clip-rule:evenodd;fill:url(#SVGID_81_);}
	.st85{fill-rule:evenodd;clip-rule:evenodd;fill:url(#SVGID_82_);}
	.st86{fill-rule:evenodd;clip-rule:evenodd;fill:url(#SVGID_83_);}
	.st87{fill-rule:evenodd;clip-rule:evenodd;fill:url(#SVGID_84_);}
	.st88{fill:#336699;}
	.st89{clip-path:url(#SVGID_86_);fill:#00305B;}
	.st90{filter:url(#Adobe_OpacityMaskFilter);}
	.st91{clip-path:url(#SVGID_86_);fill:url(#SVGID_88_);}
	.st92{filter:url(#Adobe_OpacityMaskFilter_1_);}
	.st93{clip-path:url(#SVGID_86_);fill:url(#SVGID_90_);}
	.st94{filter:url(#Adobe_OpacityMaskFilter_2_);}
	.st95{clip-path:url(#SVGID_86_);fill:url(#SVGID_92_);}
	.st96{clip-path:url(#SVGID_86_);mask:url(#SVGID_91_);}
	.st97{filter:url(#Adobe_OpacityMaskFilter_3_);}
	.st98{clip-path:url(#SVGID_86_);fill:url(#SVGID_94_);}
	.st99{clip-path:url(#SVGID_86_);mask:url(#SVGID_93_);}
	.st100{clip-path:url(#SVGID_86_);fill:url(#SVGID_95_);}
	.st101{clip-path:url(#SVGID_86_);}
	.st102{filter:url(#Adobe_OpacityMaskFilter_4_);}
	.st103{clip-path:url(#SVGID_86_);mask:url(#SVGID_96_);}
	.st104{fill:#FFF100;}
	.st105{clip-path:url(#SVGID_98_);fill:url(#SVGID_99_);}
	.st106{filter:url(#Adobe_OpacityMaskFilter_5_);}
	.st107{clip-path:url(#SVGID_98_);}
	.st108{fill:#D6DE23;}
	.st109{clip-path:url(#SVGID_102_);}
	.st110{filter:url(#Adobe_OpacityMaskFilter_6_);}
	.st111{clip-path:url(#SVGID_102_);mask:url(#SVGID_103_);}
	.st112{clip-path:url(#SVGID_105_);fill:#00305B;}
	.st113{filter:url(#Adobe_OpacityMaskFilter_7_);}
	.st114{clip-path:url(#SVGID_105_);fill:url(#SVGID_107_);}
	.st115{filter:url(#Adobe_OpacityMaskFilter_8_);}
	.st116{clip-path:url(#SVGID_105_);fill:url(#SVGID_109_);}
	.st117{filter:url(#Adobe_OpacityMaskFilter_9_);}
	.st118{clip-path:url(#SVGID_105_);fill:url(#SVGID_111_);}
	.st119{clip-path:url(#SVGID_105_);mask:url(#SVGID_110_);}
	.st120{filter:url(#Adobe_OpacityMaskFilter_10_);}
	.st121{clip-path:url(#SVGID_105_);fill:url(#SVGID_113_);}
	.st122{clip-path:url(#SVGID_105_);mask:url(#SVGID_112_);}
	.st123{clip-path:url(#SVGID_105_);fill:url(#SVGID_114_);}
	.st124{filter:url(#Adobe_OpacityMaskFilter_11_);}
	.st125{clip-path:url(#SVGID_105_);mask:url(#SVGID_115_);}
	.st126{clip-path:url(#SVGID_105_);}
</style>
<g id="Layer_1" class="st0">
	<rect x="-392.4" y="-59.9" class="st1" width="1280" height="300"/>
</g>
<g id="Layer_2">
	<g>
		<path d="M3.8,12.5H0.7V0.4h3.1V12.5z"/>
		<path d="M9,0.4h3.1l5.7,7.4h0V0.4h3.1v12.1H18l-5.7-7.4h0v7.4H9V0.4z"/>
		<path d="M31.1,12.5H28V3.1h-2.6V0.4h8.3v2.7h-2.6V12.5z"/>
		<path d="M41.2,3.1v2h3.5v2.7h-3.5v2.1h3.7v2.7h-6.9V0.4h6.9v2.7H41.2z"/>
		<path d="M60.1,12.5h-3.9l-3-4.6h0v4.6h-3.1V0.4h4.7c2.4,0,4.2,1.1,4.2,3.7c0,1.7-0.9,3.1-2.6,3.4L60.1,12.5z M53.2,5.8h0.3
			c1,0,2.2-0.2,2.2-1.5s-1.2-1.5-2.2-1.5h-0.3V5.8z"/>
		<path d="M64.1,0.4h3.1L73,7.8h0V0.4h3.1v12.1h-3.1l-5.7-7.4h0v7.4h-3.1V0.4z"/>
		<path d="M88.1,3.5C87.5,3,86.8,2.7,86,2.7c-0.6,0-1.3,0.3-1.3,1c0,0.7,0.8,1,1.4,1.2l0.8,0.2c1.7,0.5,3,1.3,3,3.3
			c0,1.2-0.3,2.4-1.2,3.2c-0.9,0.8-2.2,1.1-3.4,1.1c-1.5,0-3-0.5-4.2-1.4l1.3-2.5C83,9.6,84,10.1,85,10.1c0.7,0,1.5-0.4,1.5-1.2
			c0-0.9-1.2-1.2-1.9-1.4c-2-0.6-3.3-1.1-3.3-3.4c0-2.4,1.7-4,4.2-4c1.2,0,2.7,0.4,3.8,1L88.1,3.5z"/>
		<path d="M102.2,5.1V0.4h3.1v12.1h-3.1V7.5h-4.5v4.9h-3.1V0.4h3.1v4.7H102.2z"/>
		<path d="M113.7,12.5h-3.1V0.4h3.1V12.5z"/>
		<path d="M118.9,0.4h4.8c2.6,0,4.4,1.2,4.4,4c0,2.8-1.5,4.1-4.3,4.1h-1.8v4h-3.1V0.4z M122.1,5.9h0.5c1.1,0,2.3,0,2.3-1.5
			c0-1.5-1-1.5-2.3-1.5h-0.5V5.9z"/>
		<path d="M145.5,8.2L145.5,8.2l2.6-7.8h2.5l2.4,7.8h0l2.3-7.8h3.3l-3.9,12.1h-3.2l-2.1-7h0l-2.4,7h-3.2l-3.6-12.1h3.3L145.5,8.2z"
			/>
		<path d="M165.6,12.5h-3.1V0.4h3.1V12.5z"/>
		<path d="M175.7,12.5h-3.1V3.1h-2.6V0.4h8.3v2.7h-2.6V12.5z"/>
		<path d="M190.2,5.1V0.4h3.1v12.1h-3.1V7.5h-4.5v4.9h-3.1V0.4h3.1v4.7H190.2z"/>
		<path d="M211.4,8.2L211.4,8.2l2.6-7.8h2.5l2.4,7.8h0l2.3-7.8h3.3l-3.9,12.1h-3.2l-2.1-7h0l-2.4,7h-3.2L206,0.4h3.3L211.4,8.2z"/>
		<path d="M227.1,0.4h3.8l2.3,3.3l2.3-3.3h3.8l-4.5,6.3v5.8h-3.1V6.7L227.1,0.4z"/>
		<path d="M243,0.4h3.1l5.7,7.4h0V0.4h3.1v12.1h-3.1l-5.7-7.4h0v7.4H243V0.4z"/>
		<path d="M260.3,0.4h3.1l5.7,7.4h0V0.4h3.1v12.1h-3.1l-5.7-7.4h0v7.4h-3.1V0.4z"/>
		<path d="M289.4,9.8h3.8v2.7h-6.9V0.4h3.1V9.8z"/>
		<path d="M300.5,10.4l-0.8,2.1h-3.3L301,0.4h3.4l4.5,12.1h-3.3l-0.8-2.1H300.5z M302.7,4.1L302.7,4.1L301.3,8h2.6L302.7,4.1z"/>
		<path d="M319.7,3.5c-0.6-0.5-1.3-0.8-2.1-0.8c-0.6,0-1.3,0.3-1.3,1c0,0.7,0.8,1,1.4,1.2l0.8,0.2c1.7,0.5,3,1.3,3,3.3
			c0,1.2-0.3,2.4-1.2,3.2c-0.9,0.8-2.2,1.1-3.4,1.1c-1.5,0-3-0.5-4.2-1.4l1.3-2.5c0.8,0.7,1.7,1.2,2.8,1.2c0.7,0,1.5-0.4,1.5-1.2
			c0-0.9-1.2-1.2-1.9-1.4c-2-0.6-3.3-1.1-3.3-3.4c0-2.4,1.7-4,4.2-4c1.2,0,2.7,0.4,3.8,1L319.7,3.5z"/>
		<path d="M339.9,7.7l2.9-7.3h3.4l-5.2,12.1h-2.4l-5.1-12.1h3.4L339.9,7.7z"/>
		<path d="M353.4,3.1v2h3.5v2.7h-3.5v2.1h3.7v2.7h-6.9V0.4h6.9v2.7H353.4z"/>
		<path d="M374.3,5.7c0,1.8-0.2,3.3-1.2,4.8c-1.2,1.6-3,2.4-5,2.4c-3.8,0-6.4-2.6-6.4-6.4c0-3.9,2.7-6.5,6.5-6.5
			c2.5,0,4.4,1.1,5.4,3.4l-3,1.2c-0.4-1.2-1.3-1.9-2.6-1.9c-2.1,0-3.1,2-3.1,3.8c0,1.9,1.1,3.8,3.2,3.8c1.4,0,2.4-0.7,2.5-2.1H368
			V5.7H374.3z"/>
		<path d="M382,10.4l-0.8,2.1h-3.3l4.6-12.1h3.4l4.5,12.1h-3.3l-0.8-2.1H382z M384.2,4.1L384.2,4.1L382.8,8h2.6L384.2,4.1z"/>
		<path d="M401.2,3.5c-0.6-0.5-1.3-0.8-2.1-0.8c-0.6,0-1.3,0.3-1.3,1c0,0.7,0.8,1,1.4,1.2l0.8,0.2c1.7,0.5,3,1.3,3,3.3
			c0,1.2-0.3,2.4-1.2,3.2c-0.9,0.8-2.2,1.1-3.4,1.1c-1.5,0-3-0.5-4.2-1.4l1.3-2.5c0.8,0.7,1.7,1.2,2.8,1.2c0.7,0,1.5-0.4,1.5-1.2
			c0-0.9-1.2-1.2-1.9-1.4c-2-0.6-3.3-1.1-3.3-3.4c0-2.4,1.7-4,4.2-4c1.2,0,2.7,0.4,3.8,1L401.2,3.5z"/>
		<path d="M0.5,23.1h2.2c3.2,0,5.9,1.7,5.9,5.2c0,3.6-2.6,5.3-6,5.3H0.5V23.1z M1.8,32.5h0.5c2.7,0,5-1,5-4.1c0-3.1-2.3-4.1-5-4.1
			H1.8V32.5z"/>
		<path d="M13.3,27.1v3.6c0,1.1,0.3,2,1.5,2s1.5-0.9,1.5-2v-3.6h1.3v3.8c0,1.8-0.8,3-2.8,3s-2.8-1.2-2.8-3v-3.8H13.3z"/>
		<path d="M22.8,28.2L22.8,28.2c0.4-0.8,1-1.3,1.8-1.3c0.4,0,0.7,0.1,1,0.3l-0.6,1.1c-0.2-0.2-0.5-0.3-0.8-0.3
			c-1.4,0-1.5,1.3-1.5,2.3v3.2h-1.3v-6.6h1.3V28.2z"/>
		<path d="M30.4,24.1c0,0.5-0.4,0.9-0.9,0.9c-0.5,0-0.9-0.4-0.9-0.9c0-0.5,0.4-0.9,0.9-0.9C30,23.2,30.4,23.6,30.4,24.1z M30.2,33.7
			h-1.3v-6.6h1.3V33.7z"/>
		<path d="M35.7,28L35.7,28c0.4-0.7,1.2-1.1,2-1.1c1.8,0,2.3,1.2,2.3,2.8v3.9h-1.3v-3.8c0-1.1-0.2-1.9-1.4-1.9
			c-1.6,0-1.6,1.4-1.6,2.6v3h-1.3v-6.6h1.3V28z"/>
		<path d="M50.1,33.5c0,2.3-0.6,3.9-3.2,3.9c-1.8,0-3.1-1.1-3.2-3H45c0,1.2,0.8,1.8,2,1.8c1.6,0,1.9-1.1,1.9-2.4v-1.2h0
			c-0.5,0.7-1.3,1.2-2.2,1.2c-2,0-3.1-1.7-3.1-3.5c0-1.8,1.2-3.4,3.1-3.4c1,0,1.8,0.5,2.3,1.3h0v-1.1h1.3V33.5z M48.9,30.4
			c0-1.3-0.8-2.4-2.1-2.4c-1.3,0-2.1,1.1-2.1,2.4c0,1.2,0.7,2.4,2.1,2.4C48.2,32.8,48.9,31.7,48.9,30.4z"/>
		<path d="M61.5,27.9L61.5,27.9c0.4-0.6,1.1-1,1.8-1c0.9,0,1.5,0.4,1.9,1.2c0.4-0.7,1.2-1.2,2-1.2c1.7,0,2.2,1.3,2.2,2.8v3.9h-1.3
			V30c0-0.8-0.1-1.9-1.2-1.9c-1.3,0-1.4,1.4-1.4,2.4v3.2h-1.3v-3.5c0-0.9,0-2.2-1.2-2.2c-1.3,0-1.5,1.4-1.5,2.4v3.2h-1.3v-6.6h1.3
			V27.9z"/>
		<path d="M72.2,27.1h1.5l2.2,4.2l2.1-4.2h1.4L74,37.4h-1.4l2.6-4.9L72.2,27.1z"/>
		<path d="M89.9,33.7h-1.3V21.5h1.3V33.7z"/>
		<path d="M100,33.7h-1.3v-1h0c-0.5,0.7-1.3,1.2-2.2,1.2c-2,0-3.1-1.7-3.1-3.5c0-1.8,1.2-3.4,3.1-3.4c1,0,1.8,0.5,2.3,1.3h0v-1.1
			h1.3V33.7z M98.9,30.4c0-1.3-0.8-2.4-2.1-2.4c-1.3,0-2.1,1.1-2.1,2.4c0,1.2,0.7,2.4,2.1,2.4C98.1,32.8,98.9,31.7,98.9,30.4z"/>
		<path d="M106.6,28.6c-0.2-0.3-0.5-0.6-0.8-0.6c-0.4,0-0.7,0.3-0.7,0.6c0,0.6,0.8,0.8,1.5,1.2s1.5,0.8,1.5,1.9c0,1.2-1,2.2-2.3,2.2
			c-1,0-1.9-0.5-2.3-1.5l1.1-0.5c0.3,0.5,0.6,0.8,1.2,0.8c0.5,0,1-0.4,1-0.9c0-0.4-0.2-0.5-0.5-0.7l-1.2-0.7
			c-0.7-0.4-1.3-0.8-1.3-1.7c0-1.1,0.9-1.9,1.9-1.9c0.8,0,1.4,0.4,1.8,1.1L106.6,28.6z"/>
		<path d="M113,33.7h-1.3v-5.4H111v-1.2h0.7v-2.5h1.3v2.5h1.2v1.2H113V33.7z"/>
		<path d="M126.1,28.6c-0.2-0.3-0.5-0.6-0.8-0.6c-0.4,0-0.7,0.3-0.7,0.6c0,0.6,0.8,0.8,1.5,1.2s1.5,0.8,1.5,1.9c0,1.2-1,2.2-2.3,2.2
			c-1,0-1.9-0.5-2.3-1.5l1.1-0.5c0.3,0.5,0.6,0.8,1.2,0.8c0.5,0,1-0.4,1-0.9c0-0.4-0.2-0.5-0.5-0.7l-1.2-0.7
			c-0.7-0.4-1.3-0.8-1.3-1.7c0-1.1,0.9-1.9,1.9-1.9c0.8,0,1.4,0.4,1.8,1.1L126.1,28.6z"/>
		<path d="M131.8,30.6c0,1.1,0.8,2.2,2,2.2c1,0,1.5-0.5,2-1.3l1.1,0.6c-0.6,1.1-1.8,1.8-3,1.8c-2,0-3.2-1.5-3.2-3.4
			c0-2,1.1-3.5,3.2-3.5c2.1,0,3.1,1.5,3.1,3.5v0.2H131.8z M135.5,29.6c-0.2-1-0.8-1.6-1.8-1.6c-1,0-1.7,0.7-1.9,1.6H135.5z"/>
		<path d="M141.3,27.9L141.3,27.9c0.4-0.6,1.1-1,1.8-1c0.9,0,1.5,0.4,1.9,1.2c0.4-0.7,1.2-1.2,2-1.2c1.7,0,2.2,1.3,2.2,2.8v3.9h-1.3
			V30c0-0.8-0.1-1.9-1.2-1.9c-1.3,0-1.4,1.4-1.4,2.4v3.2H144v-3.5c0-0.9,0-2.2-1.2-2.2c-1.3,0-1.5,1.4-1.5,2.4v3.2h-1.3v-6.6h1.3
			V27.9z"/>
		<path d="M153.8,30.6c0,1.1,0.8,2.2,2,2.2c1,0,1.5-0.5,2-1.3l1.1,0.6c-0.6,1.1-1.8,1.8-3,1.8c-2,0-3.2-1.5-3.2-3.4
			c0-2,1.1-3.5,3.2-3.5c2.1,0,3.1,1.5,3.1,3.5v0.2H153.8z M157.6,29.6c-0.2-1-0.8-1.6-1.8-1.6c-1,0-1.7,0.7-1.9,1.6H157.6z"/>
		<path d="M164.8,28.6c-0.2-0.3-0.5-0.6-0.8-0.6c-0.4,0-0.7,0.3-0.7,0.6c0,0.6,0.8,0.8,1.5,1.2s1.5,0.8,1.5,1.9c0,1.2-1,2.2-2.3,2.2
			c-1,0-1.9-0.5-2.3-1.5l1.1-0.5c0.3,0.5,0.6,0.8,1.2,0.8c0.5,0,1-0.4,1-0.9c0-0.4-0.2-0.5-0.5-0.7l-1.2-0.7
			c-0.7-0.4-1.3-0.8-1.3-1.7c0-1.1,0.9-1.9,1.9-1.9c0.8,0,1.4,0.4,1.8,1.1L164.8,28.6z"/>
		<path d="M171.2,33.7H170v-5.4h-0.7v-1.2h0.7v-2.5h1.3v2.5h1.2v1.2h-1.2V33.7z"/>
		<path d="M176.1,30.6c0,1.1,0.8,2.2,2,2.2c1,0,1.5-0.5,2-1.3l1.1,0.6c-0.6,1.1-1.8,1.8-3,1.8c-2,0-3.2-1.5-3.2-3.4
			c0-2,1.1-3.5,3.2-3.5c2.1,0,3.1,1.5,3.1,3.5v0.2H176.1z M179.9,29.6c-0.2-1-0.8-1.6-1.8-1.6c-1,0-1.7,0.7-1.9,1.6H179.9z"/>
		<path d="M185.8,28.2L185.8,28.2c0.4-0.8,1-1.3,1.8-1.3c0.4,0,0.7,0.1,1,0.3l-0.6,1.1c-0.2-0.2-0.5-0.3-0.8-0.3
			c-1.4,0-1.5,1.3-1.5,2.3v3.2h-1.3v-6.6h1.3V28.2z"/>
		<path d="M204,33.7h-1.3v-1h0c-0.5,0.7-1.3,1.2-2.2,1.2c-2,0-3.1-1.7-3.1-3.5c0-1.8,1.2-3.4,3.1-3.4c1,0,1.8,0.5,2.3,1.3h0v-1.1
			h1.3V33.7z M202.8,30.4c0-1.3-0.8-2.4-2.1-2.4c-1.3,0-2.1,1.1-2.1,2.4c0,1.2,0.7,2.4,2.1,2.4C202.1,32.8,202.8,31.7,202.8,30.4z"
			/>
		<path d="M209.4,33.7h-1.3v-5.4h-0.7v-1.2h0.7v-2.5h1.3v2.5h1.2v1.2h-1.2V33.7z"/>
		<path d="M221.1,23.1v6.2c0,1.7,0.5,3.3,2.5,3.3c2,0,2.5-1.6,2.5-3.3v-6.2h1.3v6.7c0,2.3-1.4,4.1-3.9,4.1s-3.9-1.8-3.9-4.1v-6.7
			H221.1z"/>
		<path d="M231.4,22.6l7.9,8.3v-7.8h1.3v11l-7.9-8.3v7.9h-1.3V22.6z"/>
		<path d="M246.1,32.5h3.2v1.2h-4.5V23.1h1.3V32.5z"/>
		<path d="M255.3,30.9l3.1-7.8h1.4l-4.6,11.1l-4.6-11.1h1.4L255.3,30.9z"/>
		<path d="M263.8,32.4l-1.9,3.7l-0.8-0.3l1.5-3.9L263.8,32.4z"/>
		<path d="M275.2,33.7h-1.3V23.1h1.3V33.7z"/>
		<path d="M287.8,31.3l1.9-4.5l1.9,4.5l1.9-4.2h1.4l-3.3,6.8l-1.9-4.4l-1.9,4.4l-3.3-6.8h1.4L287.8,31.3z"/>
		<path d="M304,33.7h-1.3v-1h0c-0.5,0.7-1.3,1.2-2.2,1.2c-2,0-3.1-1.7-3.1-3.5c0-1.8,1.2-3.4,3.1-3.4c1,0,1.8,0.5,2.3,1.3h0v-1.1
			h1.3V33.7z M302.8,30.4c0-1.3-0.8-2.4-2.1-2.4c-1.3,0-2.1,1.1-2.1,2.4c0,1.2,0.7,2.4,2.1,2.4C302.1,32.8,302.8,31.7,302.8,30.4z"
			/>
		<path d="M310.5,28.6c-0.2-0.3-0.5-0.6-0.8-0.6c-0.4,0-0.7,0.3-0.7,0.6c0,0.6,0.8,0.8,1.5,1.2s1.5,0.8,1.5,1.9c0,1.2-1,2.2-2.3,2.2
			c-1,0-1.9-0.5-2.3-1.5l1.1-0.5c0.3,0.5,0.6,0.8,1.2,0.8c0.5,0,1-0.4,1-0.9c0-0.4-0.2-0.5-0.5-0.7l-1.2-0.7
			c-0.7-0.4-1.3-0.8-1.3-1.7c0-1.1,0.9-1.9,1.9-1.9c0.8,0,1.4,0.4,1.8,1.1L310.5,28.6z"/>
		<path d="M327.9,33.7h-1.3v-1h0c-0.5,0.7-1.3,1.2-2.2,1.2c-2,0-3.1-1.7-3.1-3.5c0-1.8,1.2-3.4,3.1-3.4c1,0,1.8,0.5,2.3,1.3h0v-1.1
			h1.3V33.7z M326.8,30.4c0-1.3-0.8-2.4-2.1-2.4c-1.3,0-2.1,1.1-2.1,2.4c0,1.2,0.7,2.4,2.1,2.4C326,32.8,326.8,31.7,326.8,30.4z"/>
		<path d="M343,32.6L343,32.6c-0.5,0.7-1.3,1.2-2.3,1.2c-2,0-3.1-1.7-3.1-3.5c0-1.8,1.2-3.4,3.1-3.4c1,0,1.8,0.5,2.3,1.3h0v-6.7h1.3
			v12.2H343V32.6z M343.1,30.4c0-1.3-0.8-2.4-2.1-2.4c-1.3,0-2.1,1.1-2.1,2.4c0,1.2,0.7,2.4,2.1,2.4
			C342.3,32.8,343.1,31.7,343.1,30.4z"/>
		<path d="M348.9,30.6c0,1.1,0.8,2.2,2,2.2c1,0,1.5-0.5,2-1.3l1.1,0.6c-0.6,1.1-1.8,1.8-3,1.8c-2,0-3.2-1.5-3.2-3.4
			c0-2,1.1-3.5,3.2-3.5c2.1,0,3.1,1.5,3.1,3.5v0.2H348.9z M352.6,29.6c-0.2-1-0.8-1.6-1.8-1.6c-1,0-1.7,0.7-1.9,1.6H352.6z"/>
		<path d="M359.8,28.6c-0.2-0.3-0.5-0.6-0.8-0.6c-0.4,0-0.7,0.3-0.7,0.6c0,0.6,0.8,0.8,1.5,1.2s1.5,0.8,1.5,1.9c0,1.2-1,2.2-2.3,2.2
			c-1,0-1.9-0.5-2.3-1.5l1.1-0.5c0.3,0.5,0.6,0.8,1.2,0.8c0.5,0,1-0.4,1-0.9c0-0.4-0.2-0.5-0.5-0.7l-1.2-0.7
			c-0.7-0.4-1.3-0.8-1.3-1.7c0-1.1,0.9-1.9,1.9-1.9c0.8,0,1.4,0.4,1.8,1.1L359.8,28.6z"/>
		<path d="M366.6,24.1c0,0.5-0.4,0.9-0.9,0.9c-0.5,0-0.9-0.4-0.9-0.9c0-0.5,0.4-0.9,0.9-0.9C366.2,23.2,366.6,23.6,366.6,24.1z
			 M366.4,33.7h-1.3v-6.6h1.3V33.7z"/>
		<path d="M376.7,33.5c0,2.3-0.6,3.9-3.2,3.9c-1.8,0-3.1-1.1-3.2-3h1.3c0,1.2,0.8,1.8,2,1.8c1.6,0,1.9-1.1,1.9-2.4v-1.2h0
			c-0.5,0.7-1.3,1.2-2.2,1.2c-2,0-3.1-1.7-3.1-3.5c0-1.8,1.2-3.4,3.1-3.4c1,0,1.8,0.5,2.3,1.3h0v-1.1h1.3V33.5z M375.6,30.4
			c0-1.3-0.8-2.4-2.1-2.4c-1.3,0-2.1,1.1-2.1,2.4c0,1.2,0.7,2.4,2.1,2.4C374.8,32.8,375.6,31.7,375.6,30.4z"/>
		<path d="M381.9,28L381.9,28c0.4-0.7,1.2-1.1,2-1.1c1.8,0,2.3,1.2,2.3,2.8v3.9h-1.3v-3.8c0-1.1-0.2-1.9-1.4-1.9
			c-1.6,0-1.6,1.4-1.6,2.6v3h-1.3v-6.6h1.3V28z"/>
		<path d="M398.2,24.1c0,0.5-0.4,0.9-0.9,0.9c-0.5,0-0.9-0.4-0.9-0.9c0-0.5,0.4-0.9,0.9-0.9C397.9,23.2,398.2,23.6,398.2,24.1z
			 M398,33.7h-1.3v-6.6h1.3V33.7z"/>
		<path d="M403.5,28L403.5,28c0.4-0.7,1.2-1.1,2-1.1c1.8,0,2.3,1.2,2.3,2.8v3.9h-1.3v-3.8c0-1.1-0.2-1.9-1.4-1.9
			c-1.6,0-1.6,1.4-1.6,2.6v3h-1.3v-6.6h1.3V28z"/>
		<path d="M413.3,33.7H412v-5.4h-0.7v-1.2h0.7v-2.5h1.3v2.5h1.2v1.2h-1.2V33.7z"/>
		<path d="M418.2,30.6c0,1.1,0.8,2.2,2,2.2c1,0,1.5-0.5,2-1.3l1.1,0.6c-0.6,1.1-1.8,1.8-3,1.8c-2,0-3.2-1.5-3.2-3.4
			c0-2,1.1-3.5,3.2-3.5c2.1,0,3.1,1.5,3.1,3.5v0.2H418.2z M421.9,29.6c-0.2-1-0.8-1.6-1.8-1.6c-1,0-1.7,0.7-1.9,1.6H421.9z"/>
		<path d="M427.8,28.2L427.8,28.2c0.4-0.8,1-1.3,1.8-1.3c0.4,0,0.7,0.1,1,0.3l-0.6,1.1c-0.2-0.2-0.5-0.3-0.8-0.3
			c-1.4,0-1.5,1.3-1.5,2.3v3.2h-1.3v-6.6h1.3V28.2z"/>
		<path d="M435,28L435,28c0.4-0.7,1.2-1.1,2-1.1c1.8,0,2.3,1.2,2.3,2.8v3.9h-1.3v-3.8c0-1.1-0.2-1.9-1.4-1.9c-1.6,0-1.6,1.4-1.6,2.6
			v3h-1.3v-6.6h1.3V28z"/>
		<path d="M452.9,22.8c-0.3-0.1-0.6-0.3-0.8-0.3c-0.9,0-0.9,1.1-0.9,1.8v2.8h1.7v1.2h-1.7v5.4h-1.3v-5.4h-0.6v-1.2h0.6v-3.2
			c0-1.4,0.5-2.6,2.1-2.6c0.3,0,0.6,0.1,0.9,0.2V22.8z"/>
		<path d="M462.1,30.4c0,2-1.5,3.5-3.5,3.5c-2,0-3.5-1.5-3.5-3.5s1.5-3.5,3.5-3.5C460.6,26.9,462.1,28.4,462.1,30.4z M456.4,30.4
			c0,1.2,1,2.3,2.2,2.3c1.2,0,2.2-1.1,2.2-2.3c0-1.2-1-2.3-2.2-2.3C457.4,28.1,456.4,29.2,456.4,30.4z"/>
		<path d="M466.8,28.2L466.8,28.2c0.4-0.8,1-1.3,1.8-1.3c0.4,0,0.7,0.1,1,0.3l-0.6,1.1c-0.2-0.2-0.5-0.3-0.8-0.3
			c-1.4,0-1.5,1.3-1.5,2.3v3.2h-1.3v-6.6h1.3V28.2z"/>
		<path d="M1.9,54.9H0.7v-5.4H0v-1.2h0.7v-2.5h1.3v2.5h1.2v1.2H1.9V54.9z"/>
		<path d="M7.4,42.7v6.5h0c0.4-0.7,1.2-1.1,2-1.1c1.8,0,2.3,1.2,2.3,2.8v3.9h-1.3v-3.8c0-1.1-0.2-1.9-1.4-1.9
			c-1.6,0-1.6,1.4-1.6,2.6v3H6.1V42.7H7.4z"/>
		<path d="M16.4,51.8c0,1.1,0.8,2.2,2,2.2c1,0,1.5-0.5,2-1.3l1.1,0.6c-0.6,1.1-1.8,1.8-3,1.8c-2,0-3.2-1.5-3.2-3.4
			c0-2,1.1-3.5,3.2-3.5c2.1,0,3.1,1.5,3.1,3.5v0.2H16.4z M20.2,50.8c-0.2-1-0.8-1.6-1.8-1.6c-1,0-1.7,0.7-1.9,1.6H20.2z"/>
		<path d="M32.3,49.2L32.3,49.2c0.4-0.7,1.2-1.1,2-1.1c1.8,0,2.3,1.2,2.3,2.8v3.9h-1.3v-3.8c0-1.1-0.2-1.9-1.4-1.9
			c-1.6,0-1.6,1.4-1.6,2.6v3H31v-6.6h1.3V49.2z"/>
		<path d="M42.4,45.3c0,0.5-0.4,0.9-0.9,0.9c-0.5,0-0.9-0.4-0.9-0.9c0-0.5,0.4-0.9,0.9-0.9C42,44.4,42.4,44.8,42.4,45.3z M42.1,54.9
			h-1.3v-6.6h1.3V54.9z"/>
		<path d="M52.5,54.7c0,2.3-0.6,3.9-3.2,3.9c-1.8,0-3.1-1.1-3.2-3h1.3c0,1.2,0.8,1.8,2,1.8c1.6,0,1.9-1.1,1.9-2.4v-1.2h0
			c-0.5,0.7-1.3,1.2-2.2,1.2c-2,0-3.1-1.7-3.1-3.5c0-1.8,1.2-3.4,3.1-3.4c1,0,1.8,0.5,2.3,1.3h0v-1.1h1.3V54.7z M51.3,51.6
			c0-1.3-0.8-2.4-2.1-2.4c-1.3,0-2.1,1.1-2.1,2.4c0,1.2,0.7,2.4,2.1,2.4C50.6,54,51.3,52.9,51.3,51.6z"/>
		<path d="M57.7,42.7v6.5h0c0.4-0.7,1.2-1.1,2-1.1c1.8,0,2.3,1.2,2.3,2.8v3.9h-1.3v-3.8c0-1.1-0.2-1.9-1.4-1.9
			c-1.6,0-1.6,1.4-1.6,2.6v3h-1.3V42.7H57.7z"/>
		<path d="M67.4,54.9h-1.3v-5.4h-0.7v-1.2h0.7v-2.5h1.3v2.5h1.2v1.2h-1.2V54.9z"/>
		<path d="M72.9,54.9h-1.3V42.7h1.3V54.9z"/>
		<path d="M78.7,45.3c0,0.5-0.4,0.9-0.9,0.9c-0.5,0-0.9-0.4-0.9-0.9c0-0.5,0.4-0.9,0.9-0.9C78.3,44.4,78.7,44.8,78.7,45.3z
			 M78.4,54.9h-1.3v-6.6h1.3V54.9z"/>
		<path d="M85.9,44c-0.3-0.1-0.6-0.3-0.8-0.3c-0.9,0-0.9,1.1-0.9,1.8v2.8h1.7v1.2h-1.7v5.4h-1.3v-5.4h-0.6v-1.2h0.6v-3.2
			c0-1.4,0.5-2.6,2.1-2.6c0.3,0,0.6,0.1,0.9,0.2V44z"/>
		<path d="M89.5,51.8c0,1.1,0.8,2.2,2,2.2c1,0,1.5-0.5,2-1.3l1.1,0.6c-0.6,1.1-1.8,1.8-3,1.8c-2,0-3.2-1.5-3.2-3.4
			c0-2,1.1-3.5,3.2-3.5c2.1,0,3.1,1.5,3.1,3.5v0.2H89.5z M93.3,50.8c-0.2-1-0.8-1.6-1.8-1.6c-1,0-1.7,0.7-1.9,1.6H93.3z"/>
		<path d="M109,53.8L109,53.8c-0.5,0.7-1.3,1.2-2.3,1.2c-2,0-3.1-1.7-3.1-3.5c0-1.8,1.2-3.4,3.1-3.4c1,0,1.8,0.5,2.3,1.3h0v-6.7h1.3
			v12.2H109V53.8z M109.1,51.6c0-1.3-0.8-2.4-2.1-2.4c-1.3,0-2.1,1.1-2.1,2.4c0,1.2,0.7,2.4,2.1,2.4C108.3,54,109.1,52.9,109.1,51.6
			z"/>
		<path d="M114.9,51.8c0,1.1,0.8,2.2,2,2.2c1,0,1.5-0.5,2-1.3l1.1,0.6c-0.6,1.1-1.8,1.8-3,1.8c-2,0-3.2-1.5-3.2-3.4
			c0-2,1.1-3.5,3.2-3.5c2.1,0,3.1,1.5,3.1,3.5v0.2H114.9z M118.7,50.8c-0.2-1-0.8-1.6-1.8-1.6c-1,0-1.7,0.7-1.9,1.6H118.7z"/>
		<path d="M124.4,49.4L124.4,49.4c0.5-0.8,1.3-1.3,2.3-1.3c1.9,0,3.1,1.6,3.1,3.4c0,1.9-1.1,3.5-3.1,3.5c-0.9,0-1.7-0.5-2.2-1.2h0
			v4.8h-1.3V48.3h1.3V49.4z M128.5,51.6c0-1.3-0.8-2.4-2.1-2.4c-1.3,0-2.1,1.1-2.1,2.4c0,1.2,0.7,2.4,2.1,2.4
			C127.8,54,128.5,52.9,128.5,51.6z"/>
		<path d="M139.4,54.9h-1.3v-1h0c-0.5,0.7-1.3,1.2-2.2,1.2c-2,0-3.1-1.7-3.1-3.5c0-1.8,1.2-3.4,3.1-3.4c1,0,1.8,0.5,2.3,1.3h0v-1.1
			h1.3V54.9z M138.2,51.6c0-1.3-0.8-2.4-2.1-2.4c-1.3,0-2.1,1.1-2.1,2.4c0,1.2,0.7,2.4,2.1,2.4C137.5,54,138.2,52.9,138.2,51.6z"/>
		<path d="M144.6,49.4L144.6,49.4c0.4-0.8,1-1.3,1.8-1.3c0.4,0,0.7,0.1,1,0.3l-0.6,1.1c-0.2-0.2-0.5-0.3-0.8-0.3
			c-1.4,0-1.5,1.3-1.5,2.3v3.2h-1.3v-6.6h1.3V49.4z"/>
		<path d="M152.2,54.9h-1.3v-5.4h-0.7v-1.2h0.7v-2.5h1.3v2.5h1.2v1.2h-1.2V54.9z"/>
		<path d="M157.5,49.1L157.5,49.1c0.4-0.6,1.1-1,1.8-1c0.9,0,1.5,0.4,1.9,1.2c0.4-0.7,1.2-1.2,2-1.2c1.7,0,2.2,1.3,2.2,2.8v3.9h-1.3
			v-3.7c0-0.8-0.1-1.9-1.2-1.9c-1.3,0-1.4,1.4-1.4,2.4v3.2h-1.3v-3.5c0-0.9,0-2.2-1.2-2.2c-1.3,0-1.5,1.4-1.5,2.4v3.2h-1.3v-6.6h1.3
			V49.1z"/>
		<path d="M170.1,51.8c0,1.1,0.8,2.2,2,2.2c1,0,1.5-0.5,2-1.3l1.1,0.6c-0.6,1.1-1.8,1.8-3,1.8c-2,0-3.2-1.5-3.2-3.4
			c0-2,1.1-3.5,3.2-3.5c2.1,0,3.1,1.5,3.1,3.5v0.2H170.1z M173.8,50.8c-0.2-1-0.8-1.6-1.8-1.6c-1,0-1.7,0.7-1.9,1.6H173.8z"/>
		<path d="M179.6,49.2L179.6,49.2c0.4-0.7,1.2-1.1,2-1.1c1.8,0,2.3,1.2,2.3,2.8v3.9h-1.3v-3.8c0-1.1-0.2-1.9-1.4-1.9
			c-1.6,0-1.6,1.4-1.6,2.6v3h-1.3v-6.6h1.3V49.2z"/>
		<path d="M189.4,54.9h-1.3v-5.4h-0.7v-1.2h0.7v-2.5h1.3v2.5h1.2v1.2h-1.2V54.9z"/>
		<path d="M206,54.9h-1.3v-1h0c-0.5,0.7-1.3,1.2-2.2,1.2c-2,0-3.1-1.7-3.1-3.5c0-1.8,1.2-3.4,3.1-3.4c1,0,1.8,0.5,2.3,1.3h0v-1.1
			h1.3V54.9z M204.8,51.6c0-1.3-0.8-2.4-2.1-2.4c-1.3,0-2.1,1.1-2.1,2.4c0,1.2,0.7,2.4,2.1,2.4C204,54,204.8,52.9,204.8,51.6z"/>
		<path d="M211.3,54.9H210v-5.4h-0.7v-1.2h0.7v-2.5h1.3v2.5h1.2v1.2h-1.2V54.9z"/>
		<path d="M223.2,54.9h-1.3v-5.4h-0.7v-1.2h0.7v-2.5h1.3v2.5h1.2v1.2h-1.2V54.9z"/>
		<path d="M228.6,42.7v6.5h0c0.4-0.7,1.2-1.1,2-1.1c1.8,0,2.3,1.2,2.3,2.8v3.9h-1.3v-3.8c0-1.1-0.2-1.9-1.4-1.9
			c-1.6,0-1.6,1.4-1.6,2.6v3h-1.3V42.7H228.6z"/>
		<path d="M237.6,51.8c0,1.1,0.8,2.2,2,2.2c1,0,1.5-0.5,2-1.3l1.1,0.6c-0.6,1.1-1.8,1.8-3,1.8c-2,0-3.2-1.5-3.2-3.4
			c0-2,1.1-3.5,3.2-3.5c2.1,0,3.1,1.5,3.1,3.5v0.2H237.6z M241.4,50.8c-0.2-1-0.8-1.6-1.8-1.6c-1,0-1.7,0.7-1.9,1.6H241.4z"/>
		<path d="M255.6,51.9l3-7.8l3,7.8l3-7.6h1.4l-4.4,11l-3-7.7l-3,7.7l-4.4-11h1.4L255.6,51.9z"/>
		<path d="M267.8,48.3h1.5l2.2,4.2l2.1-4.2h1.4l-5.3,10.3h-1.4l2.6-4.9L267.8,48.3z"/>
		<path d="M279.1,49.2L279.1,49.2c0.4-0.7,1.2-1.1,2-1.1c1.8,0,2.3,1.2,2.3,2.8v3.9h-1.3v-3.8c0-1.1-0.2-1.9-1.4-1.9
			c-1.6,0-1.6,1.4-1.6,2.6v3h-1.3v-6.6h1.3V49.2z"/>
		<path d="M288.7,49.2L288.7,49.2c0.4-0.7,1.2-1.1,2-1.1c1.8,0,2.3,1.2,2.3,2.8v3.9h-1.3v-3.8c0-1.1-0.2-1.9-1.4-1.9
			c-1.6,0-1.6,1.4-1.6,2.6v3h-1.3v-6.6h1.3V49.2z"/>
		<path d="M305.1,45.3c0,0.5-0.4,0.9-0.9,0.9c-0.5,0-0.9-0.4-0.9-0.9c0-0.5,0.4-0.9,0.9-0.9C304.7,44.4,305.1,44.8,305.1,45.3z
			 M304.8,54.9h-1.3v-6.6h1.3V54.9z"/>
		<path d="M310.3,49.2L310.3,49.2c0.4-0.7,1.2-1.1,2-1.1c1.8,0,2.3,1.2,2.3,2.8v3.9h-1.3v-3.8c0-1.1-0.2-1.9-1.4-1.9
			c-1.6,0-1.6,1.4-1.6,2.6v3h-1.3v-6.6h1.3V49.2z"/>
		<path d="M326.4,53.7h3.2v1.2h-4.5V44.3h1.3V53.7z"/>
		<path d="M338.7,54.9h-1.3v-1h0c-0.5,0.7-1.3,1.2-2.2,1.2c-2,0-3.1-1.7-3.1-3.5c0-1.8,1.2-3.4,3.1-3.4c1,0,1.8,0.5,2.3,1.3h0v-1.1
			h1.3V54.9z M337.5,51.6c0-1.3-0.8-2.4-2.1-2.4c-1.3,0-2.1,1.1-2.1,2.4c0,1.2,0.7,2.4,2.1,2.4C336.8,54,337.5,52.9,337.5,51.6z"/>
		<path d="M345.2,49.8c-0.2-0.3-0.5-0.6-0.8-0.6c-0.4,0-0.7,0.3-0.7,0.6c0,0.6,0.8,0.8,1.5,1.2s1.5,0.8,1.5,1.9c0,1.2-1,2.2-2.3,2.2
			c-1,0-1.9-0.5-2.3-1.5l1.1-0.5c0.3,0.5,0.6,0.8,1.2,0.8c0.5,0,1-0.4,1-0.9c0-0.4-0.2-0.5-0.5-0.7l-1.2-0.7
			c-0.7-0.4-1.3-0.8-1.3-1.7c0-1.1,0.9-1.9,1.9-1.9c0.8,0,1.4,0.4,1.8,1.1L345.2,49.8z"/>
		<path d="M360.1,52.1l3.1-7.8h1.4l-4.6,11.1l-4.6-11.1h1.4L360.1,52.1z"/>
		<path d="M367.3,51.8c0,1.1,0.8,2.2,2,2.2c1,0,1.5-0.5,2-1.3l1.1,0.6c-0.6,1.1-1.8,1.8-3,1.8c-2,0-3.2-1.5-3.2-3.4
			c0-2,1.1-3.5,3.2-3.5c2.1,0,3.1,1.5,3.1,3.5v0.2H367.3z M371.1,50.8c-0.2-1-0.8-1.6-1.8-1.6c-1,0-1.7,0.7-1.9,1.6H371.1z"/>
		<path d="M381.8,54.7c0,2.3-0.6,3.9-3.2,3.9c-1.8,0-3.1-1.1-3.2-3h1.3c0,1.2,0.8,1.8,2,1.8c1.6,0,1.9-1.1,1.9-2.4v-1.2h0
			c-0.5,0.7-1.3,1.2-2.2,1.2c-2,0-3.1-1.7-3.1-3.5c0-1.8,1.2-3.4,3.1-3.4c1,0,1.8,0.5,2.3,1.3h0v-1.1h1.3V54.7z M380.6,51.6
			c0-1.3-0.8-2.4-2.1-2.4c-1.3,0-2.1,1.1-2.1,2.4c0,1.2,0.7,2.4,2.1,2.4C379.8,54,380.6,52.9,380.6,51.6z"/>
		<path d="M391.8,54.9h-1.3v-1h0c-0.5,0.7-1.3,1.2-2.2,1.2c-2,0-3.1-1.7-3.1-3.5c0-1.8,1.2-3.4,3.1-3.4c1,0,1.8,0.5,2.3,1.3h0v-1.1
			h1.3V54.9z M390.6,51.6c0-1.3-0.8-2.4-2.1-2.4c-1.3,0-2.1,1.1-2.1,2.4c0,1.2,0.7,2.4,2.1,2.4C389.9,54,390.6,52.9,390.6,51.6z"/>
		<path d="M398.3,49.8c-0.2-0.3-0.5-0.6-0.8-0.6c-0.4,0-0.7,0.3-0.7,0.6c0,0.6,0.8,0.8,1.5,1.2s1.5,0.8,1.5,1.9c0,1.2-1,2.2-2.3,2.2
			c-1,0-1.9-0.5-2.3-1.5l1.1-0.5c0.3,0.5,0.6,0.8,1.2,0.8c0.5,0,1-0.4,1-0.9c0-0.4-0.2-0.5-0.5-0.7l-1.2-0.7
			c-0.7-0.4-1.3-0.8-1.3-1.7c0-1.1,0.9-1.9,1.9-1.9c0.8,0,1.4,0.4,1.8,1.1L398.3,49.8z"/>
		<path d="M405.3,54.3c0,0.4-0.4,0.8-0.8,0.8s-0.8-0.4-0.8-0.8c0-0.4,0.4-0.8,0.8-0.8S405.3,53.8,405.3,54.3z"/>
		<path d="M417.3,54.9H416V44.3h1.3V54.9z"/>
		<path d="M432.5,50.2c-0.5-0.6-1.1-0.9-1.9-0.9c-1.2,0-2.2,1.1-2.2,2.3c0,1.3,0.9,2.3,2.3,2.3c0.7,0,1.3-0.3,1.8-0.9v1.6
			c-0.6,0.3-1.1,0.4-1.8,0.4c-1.9,0-3.5-1.5-3.5-3.4c0-2,1.6-3.5,3.6-3.5c0.6,0,1.2,0.1,1.7,0.4V50.2z"/>
		<path d="M437.4,49.4L437.4,49.4c0.4-0.8,1-1.3,1.8-1.3c0.4,0,0.7,0.1,1,0.3l-0.6,1.1c-0.2-0.2-0.5-0.3-0.8-0.3
			c-1.4,0-1.5,1.3-1.5,2.3v3.2h-1.3v-6.6h1.3V49.4z"/>
		<path d="M444,51.8c0,1.1,0.8,2.2,2,2.2c1,0,1.5-0.5,2-1.3l1.1,0.6c-0.6,1.1-1.8,1.8-3,1.8c-2,0-3.2-1.5-3.2-3.4
			c0-2,1.1-3.5,3.2-3.5c2.1,0,3.1,1.5,3.1,3.5v0.2H444z M447.7,50.8c-0.2-1-0.8-1.6-1.8-1.6c-1,0-1.7,0.7-1.9,1.6H447.7z"/>
		<path d="M458.4,54.9h-1.3v-1h0c-0.5,0.7-1.3,1.2-2.2,1.2c-2,0-3.1-1.7-3.1-3.5c0-1.8,1.2-3.4,3.1-3.4c1,0,1.8,0.5,2.3,1.3h0v-1.1
			h1.3V54.9z M457.2,51.6c0-1.3-0.8-2.4-2.1-2.4c-1.3,0-2.1,1.1-2.1,2.4c0,1.2,0.7,2.4,2.1,2.4C456.5,54,457.2,52.9,457.2,51.6z"/>
		<path d="M463.7,54.9h-1.3v-5.4h-0.7v-1.2h0.7v-2.5h1.3v2.5h1.2v1.2h-1.2V54.9z"/>
		<path d="M468.7,51.8c0,1.1,0.8,2.2,2,2.2c1,0,1.5-0.5,2-1.3l1.1,0.6c-0.6,1.1-1.8,1.8-3,1.8c-2,0-3.2-1.5-3.2-3.4
			c0-2,1.1-3.5,3.2-3.5c2.1,0,3.1,1.5,3.1,3.5v0.2H468.7z M472.4,50.8c-0.2-1-0.8-1.6-1.8-1.6c-1,0-1.7,0.7-1.9,1.6H472.4z"/>
		<path d="M481.9,53.8L481.9,53.8c-0.5,0.7-1.3,1.2-2.3,1.2c-2,0-3.1-1.7-3.1-3.5c0-1.8,1.2-3.4,3.1-3.4c1,0,1.8,0.5,2.3,1.3h0v-6.7
			h1.3v12.2h-1.3V53.8z M481.9,51.6c0-1.3-0.8-2.4-2.1-2.4c-1.3,0-2.1,1.1-2.1,2.4c0,1.2,0.7,2.4,2.1,2.4
			C481.2,54,481.9,52.9,481.9,51.6z"/>
		<path d="M6.7,76.1H5.4v-1h0c-0.5,0.7-1.3,1.2-2.2,1.2c-2,0-3.1-1.7-3.1-3.5c0-1.8,1.2-3.4,3.1-3.4c1,0,1.8,0.5,2.3,1.3h0v-1.1h1.3
			V76.1z M5.5,72.8c0-1.3-0.8-2.4-2.1-2.4c-1.3,0-2.1,1.1-2.1,2.4c0,1.2,0.7,2.4,2.1,2.4C4.7,75.2,5.5,74.1,5.5,72.8z"/>
		<path d="M19.1,73.6l1.9-4.1h1.4l-3.3,6.8l-3.3-6.8h1.4L19.1,73.6z"/>
		<path d="M31.4,76.1h-1.3v-1h0c-0.5,0.7-1.3,1.2-2.2,1.2c-2,0-3.1-1.7-3.1-3.5c0-1.8,1.2-3.4,3.1-3.4c1,0,1.8,0.5,2.3,1.3h0v-1.1
			h1.3V76.1z M30.2,72.8c0-1.3-0.8-2.4-2.1-2.4c-1.3,0-2.1,1.1-2.1,2.4c0,1.2,0.7,2.4,2.1,2.4C29.5,75.2,30.2,74.1,30.2,72.8z"/>
		<path d="M36.7,70.6L36.7,70.6c0.4-0.8,1-1.3,1.8-1.3c0.4,0,0.7,0.1,1,0.3L39,70.8c-0.2-0.2-0.5-0.3-0.8-0.3
			c-1.4,0-1.5,1.3-1.5,2.3v3.2h-1.3v-6.6h1.3V70.6z"/>
		<path d="M44.2,66.5c0,0.5-0.4,0.9-0.9,0.9c-0.5,0-0.9-0.4-0.9-0.9c0-0.5,0.4-0.9,0.9-0.9C43.8,65.6,44.2,66,44.2,66.5z M44,76.1
			h-1.3v-6.6H44V76.1z"/>
		<path d="M49,73c0,1.1,0.8,2.2,2,2.2c1,0,1.5-0.5,2-1.3l1.1,0.6c-0.6,1.1-1.8,1.8-3,1.8c-2,0-3.2-1.5-3.2-3.4c0-2,1.1-3.5,3.2-3.5
			c2.1,0,3.1,1.5,3.1,3.5V73H49z M52.8,72c-0.2-1-0.8-1.6-1.8-1.6c-1,0-1.7,0.7-1.9,1.6H52.8z"/>
		<path d="M58.8,76.1h-1.3v-5.4h-0.7v-1.2h0.7V67h1.3v2.5H60v1.2h-1.2V76.1z"/>
		<path d="M61.9,69.5h1.5l2.2,4.2l2.1-4.2H69l-5.3,10.3h-1.4l2.6-4.9L61.9,69.5z"/>
		<path d="M84.6,72.8c0,2-1.5,3.5-3.5,3.5c-2,0-3.5-1.5-3.5-3.5s1.5-3.5,3.5-3.5C83.1,69.3,84.6,70.8,84.6,72.8z M78.9,72.8
			c0,1.2,1,2.3,2.2,2.3c1.2,0,2.2-1.1,2.2-2.3c0-1.2-1-2.3-2.2-2.3C79.9,70.5,78.9,71.6,78.9,72.8z"/>
		<path d="M91.3,65.2c-0.3-0.1-0.6-0.3-0.8-0.3c-0.9,0-0.9,1.1-0.9,1.8v2.8h1.7v1.2h-1.7v5.4h-1.3v-5.4h-0.6v-1.2h0.6v-3.2
			c0-1.4,0.5-2.6,2.1-2.6c0.3,0,0.6,0.1,0.9,0.2V65.2z"/>
		<path d="M105.3,75L105.3,75c-0.5,0.7-1.3,1.2-2.3,1.2c-2,0-3.1-1.7-3.1-3.5c0-1.8,1.2-3.4,3.1-3.4c1,0,1.8,0.5,2.3,1.3h0v-6.7h1.3
			v12.2h-1.3V75z M105.4,72.8c0-1.3-0.8-2.4-2.1-2.4c-1.3,0-2.1,1.1-2.1,2.4c0,1.2,0.7,2.4,2.1,2.4
			C104.6,75.2,105.4,74.1,105.4,72.8z"/>
		<path d="M111.2,73c0,1.1,0.8,2.2,2,2.2c1,0,1.5-0.5,2-1.3l1.1,0.6c-0.6,1.1-1.8,1.8-3,1.8c-2,0-3.2-1.5-3.2-3.4
			c0-2,1.1-3.5,3.2-3.5c2.1,0,3.1,1.5,3.1,3.5V73H111.2z M114.9,72c-0.2-1-0.8-1.6-1.8-1.6c-1,0-1.7,0.7-1.9,1.6H114.9z"/>
		<path d="M122.1,71c-0.2-0.3-0.5-0.6-0.8-0.6c-0.4,0-0.7,0.3-0.7,0.6c0,0.6,0.8,0.8,1.5,1.2s1.5,0.8,1.5,1.9c0,1.2-1,2.2-2.3,2.2
			c-1,0-1.9-0.5-2.3-1.5l1.1-0.5c0.3,0.5,0.6,0.8,1.2,0.8c0.5,0,1-0.4,1-0.9c0-0.4-0.2-0.5-0.5-0.7l-1.2-0.7
			c-0.7-0.4-1.3-0.8-1.3-1.7c0-1.1,0.9-1.9,1.9-1.9c0.8,0,1.4,0.4,1.8,1.1L122.1,71z"/>
		<path d="M128.9,66.5c0,0.5-0.4,0.9-0.9,0.9c-0.5,0-0.9-0.4-0.9-0.9c0-0.5,0.4-0.9,0.9-0.9C128.5,65.6,128.9,66,128.9,66.5z
			 M128.7,76.1h-1.3v-6.6h1.3V76.1z"/>
		<path d="M139.1,75.9c0,2.3-0.6,3.9-3.2,3.9c-1.8,0-3.1-1.1-3.2-3h1.3c0,1.2,0.8,1.8,2,1.8c1.6,0,1.9-1.1,1.9-2.4V75h0
			c-0.5,0.7-1.3,1.2-2.2,1.2c-2,0-3.1-1.7-3.1-3.5c0-1.8,1.2-3.4,3.1-3.4c1,0,1.8,0.5,2.3,1.3h0v-1.1h1.3V75.9z M137.9,72.8
			c0-1.3-0.8-2.4-2.1-2.4c-1.3,0-2.1,1.1-2.1,2.4c0,1.2,0.7,2.4,2.1,2.4C137.1,75.2,137.9,74.1,137.9,72.8z"/>
		<path d="M144.2,70.4L144.2,70.4c0.4-0.7,1.2-1.1,2-1.1c1.8,0,2.3,1.2,2.3,2.8v3.9h-1.3v-3.8c0-1.1-0.2-1.9-1.4-1.9
			c-1.6,0-1.6,1.4-1.6,2.6v3h-1.3v-6.6h1.3V70.4z"/>
		<path d="M159.9,70.6L159.9,70.6c0.5-0.8,1.3-1.3,2.3-1.3c1.9,0,3.1,1.6,3.1,3.4c0,1.9-1.1,3.5-3.1,3.5c-0.9,0-1.7-0.5-2.2-1.2h0
			v4.8h-1.3V69.5h1.3V70.6z M164.1,72.8c0-1.3-0.8-2.4-2.1-2.4c-1.3,0-2.1,1.1-2.1,2.4c0,1.2,0.7,2.4,2.1,2.4
			C163.3,75.2,164.1,74.1,164.1,72.8z"/>
		<path d="M170.1,70.6L170.1,70.6c0.4-0.8,1-1.3,1.8-1.3c0.4,0,0.7,0.1,1,0.3l-0.6,1.1c-0.2-0.2-0.5-0.3-0.8-0.3
			c-1.4,0-1.5,1.3-1.5,2.3v3.2h-1.3v-6.6h1.3V70.6z"/>
		<path d="M182.4,72.8c0,2-1.5,3.5-3.5,3.5c-2,0-3.5-1.5-3.5-3.5s1.5-3.5,3.5-3.5C180.8,69.3,182.4,70.8,182.4,72.8z M176.6,72.8
			c0,1.2,1,2.3,2.2,2.3c1.2,0,2.2-1.1,2.2-2.3c0-1.2-1-2.3-2.2-2.3C177.6,70.5,176.6,71.6,176.6,72.8z"/>
		<path d="M190.6,75L190.6,75c-0.5,0.7-1.3,1.2-2.3,1.2c-2,0-3.1-1.7-3.1-3.5c0-1.8,1.2-3.4,3.1-3.4c1,0,1.8,0.5,2.3,1.3h0v-6.7h1.3
			v12.2h-1.3V75z M190.7,72.8c0-1.3-0.8-2.4-2.1-2.4c-1.3,0-2.1,1.1-2.1,2.4c0,1.2,0.7,2.4,2.1,2.4C190,75.2,190.7,74.1,190.7,72.8z
			"/>
		<path d="M197,69.5v3.6c0,1.1,0.3,2,1.5,2s1.5-0.9,1.5-2v-3.6h1.3v3.8c0,1.8-0.8,3-2.8,3s-2.8-1.2-2.8-3v-3.8H197z"/>
		<path d="M210,71.4c-0.5-0.6-1.1-0.9-1.9-0.9c-1.2,0-2.2,1.1-2.2,2.3c0,1.3,0.9,2.3,2.3,2.3c0.7,0,1.3-0.3,1.8-0.9v1.6
			c-0.6,0.3-1.1,0.4-1.8,0.4c-1.9,0-3.5-1.5-3.5-3.4c0-2,1.6-3.5,3.6-3.5c0.6,0,1.2,0.1,1.7,0.4V71.4z"/>
		<path d="M215,76.1h-1.3v-5.4h-0.7v-1.2h0.7V67h1.3v2.5h1.2v1.2H215V76.1z"/>
		<path d="M221.8,71c-0.2-0.3-0.5-0.6-0.8-0.6c-0.4,0-0.7,0.3-0.7,0.6c0,0.6,0.8,0.8,1.5,1.2s1.5,0.8,1.5,1.9c0,1.2-1,2.2-2.3,2.2
			c-1,0-1.9-0.5-2.3-1.5l1.1-0.5c0.3,0.5,0.6,0.8,1.2,0.8c0.5,0,1-0.4,1-0.9c0-0.4-0.2-0.5-0.5-0.7l-1.2-0.7
			c-0.7-0.4-1.3-0.8-1.3-1.7c0-1.1,0.9-1.9,1.9-1.9c0.8,0,1.4,0.4,1.8,1.1L221.8,71z"/>
		<path d="M236.4,65.2c-0.3-0.1-0.6-0.3-0.8-0.3c-0.9,0-0.9,1.1-0.9,1.8v2.8h1.7v1.2h-1.7v5.4h-1.3v-5.4h-0.6v-1.2h0.6v-3.2
			c0-1.4,0.5-2.6,2.1-2.6c0.3,0,0.6,0.1,0.9,0.2V65.2z"/>
		<path d="M245.6,72.8c0,2-1.5,3.5-3.5,3.5c-2,0-3.5-1.5-3.5-3.5s1.5-3.5,3.5-3.5C244.1,69.3,245.6,70.8,245.6,72.8z M239.9,72.8
			c0,1.2,1,2.3,2.2,2.3c1.2,0,2.2-1.1,2.2-2.3c0-1.2-1-2.3-2.2-2.3C240.9,70.5,239.9,71.6,239.9,72.8z"/>
		<path d="M250.3,70.6L250.3,70.6c0.4-0.8,1-1.3,1.8-1.3c0.4,0,0.7,0.1,1,0.3l-0.6,1.1c-0.2-0.2-0.5-0.3-0.8-0.3
			c-1.4,0-1.5,1.3-1.5,2.3v3.2h-1.3v-6.6h1.3V70.6z"/>
		<path d="M262.6,65.5h5.7v1.2h-4.4v3h4.2v1.2h-4.2v4h4.4v1.2h-5.7V65.5z"/>
		<path d="M273.2,70.4L273.2,70.4c0.4-0.7,1.2-1.1,2-1.1c1.8,0,2.3,1.2,2.3,2.8v3.9h-1.3v-3.8c0-1.1-0.2-1.9-1.4-1.9
			c-1.6,0-1.6,1.4-1.6,2.6v3H272v-6.6h1.3V70.4z"/>
		<path d="M286.3,71.4c-0.5-0.6-1.1-0.9-1.9-0.9c-1.2,0-2.2,1.1-2.2,2.3c0,1.3,0.9,2.3,2.3,2.3c0.7,0,1.3-0.3,1.8-0.9v1.6
			c-0.6,0.3-1.1,0.4-1.8,0.4c-1.9,0-3.5-1.5-3.5-3.4c0-2,1.6-3.5,3.6-3.5c0.6,0,1.2,0.1,1.7,0.4V71.4z"/>
		<path d="M296.4,72.8c0,2-1.5,3.5-3.5,3.5c-2,0-3.5-1.5-3.5-3.5s1.5-3.5,3.5-3.5C294.8,69.3,296.4,70.8,296.4,72.8z M290.6,72.8
			c0,1.2,1,2.3,2.2,2.3c1.2,0,2.2-1.1,2.2-2.3c0-1.2-1-2.3-2.2-2.3C291.6,70.5,290.6,71.6,290.6,72.8z"/>
		<path d="M301.1,70.6L301.1,70.6c0.4-0.8,1-1.3,1.8-1.3c0.4,0,0.7,0.1,1,0.3l-0.6,1.1c-0.2-0.2-0.5-0.3-0.8-0.3
			c-1.4,0-1.5,1.3-1.5,2.3v3.2h-1.3v-6.6h1.3V70.6z"/>
		<path d="M307.7,73c0,1.1,0.8,2.2,2,2.2c1,0,1.5-0.5,2-1.3l1.1,0.6c-0.6,1.1-1.8,1.8-3,1.8c-2,0-3.2-1.5-3.2-3.4
			c0-2,1.1-3.5,3.2-3.5c2.1,0,3.1,1.5,3.1,3.5V73H307.7z M311.4,72c-0.2-1-0.8-1.6-1.8-1.6c-1,0-1.7,0.7-1.9,1.6H311.4z"/>
		<path d="M322.3,65.5h1.3c2,0,3.9,0.5,3.9,2.9c0,0.8-0.4,1.7-1.1,2v0c1.2,0.2,2.1,1.4,2.1,2.7c0,2.1-1.8,3-3.7,3h-2.5V65.5z
			 M323.6,70.2h0.3c1.2,0,2.3-0.3,2.3-1.8c0-1.5-1-1.7-2.2-1.7h-0.4V70.2z M323.6,74.9h1c1.2,0,2.5-0.4,2.5-1.9
			c0-1.5-1.5-1.8-2.7-1.8h-0.8V74.9z"/>
		<path d="M332.7,73c0,1.1,0.8,2.2,2,2.2c1,0,1.5-0.5,2-1.3l1.1,0.6c-0.6,1.1-1.8,1.8-3,1.8c-2,0-3.2-1.5-3.2-3.4
			c0-2,1.1-3.5,3.2-3.5c2.1,0,3.1,1.5,3.1,3.5V73H332.7z M336.5,72c-0.2-1-0.8-1.6-1.8-1.6c-1,0-1.7,0.7-1.9,1.6H336.5z"/>
		<path d="M347.2,76.1h-1.3v-1h0c-0.5,0.7-1.3,1.2-2.2,1.2c-2,0-3.1-1.7-3.1-3.5c0-1.8,1.2-3.4,3.1-3.4c1,0,1.8,0.5,2.3,1.3h0v-1.1
			h1.3V76.1z M346,72.8c0-1.3-0.8-2.4-2.1-2.4c-1.3,0-2.1,1.1-2.1,2.4c0,1.2,0.7,2.4,2.1,2.4C345.3,75.2,346,74.1,346,72.8z"/>
		<path d="M355.9,71.4c-0.5-0.6-1.1-0.9-1.9-0.9c-1.2,0-2.2,1.1-2.2,2.3c0,1.3,0.9,2.3,2.3,2.3c0.7,0,1.3-0.3,1.8-0.9v1.6
			c-0.6,0.3-1.1,0.4-1.8,0.4c-1.9,0-3.5-1.5-3.5-3.4c0-2,1.6-3.5,3.6-3.5c0.6,0,1.2,0.1,1.7,0.4V71.4z"/>
		<path d="M360.8,63.9v6.5h0c0.4-0.7,1.2-1.1,2-1.1c1.8,0,2.3,1.2,2.3,2.8v3.9h-1.3v-3.8c0-1.1-0.2-1.9-1.4-1.9
			c-1.6,0-1.6,1.4-1.6,2.6v3h-1.3V63.9H360.8z"/>
		<path d="M383.2,67.5c-0.8-0.7-1.8-1-2.8-1c-2.4,0-4.2,2-4.2,4.3c0,2.3,1.8,4.3,4.1,4.3c1,0,2-0.4,2.8-1.1v1.6
			c-0.8,0.5-1.8,0.7-2.8,0.7c-3,0-5.5-2.4-5.5-5.4c0-3.1,2.5-5.6,5.6-5.6c0.9,0,1.9,0.2,2.7,0.7V67.5z"/>
		<path d="M388.1,76.1h-1.3V63.9h1.3V76.1z"/>
		<path d="M393.4,69.5v3.6c0,1.1,0.3,2,1.5,2s1.5-0.9,1.5-2v-3.6h1.3v3.8c0,1.8-0.8,3-2.8,3s-2.8-1.2-2.8-3v-3.8H393.4z"/>
		<path d="M401.5,63.9h1.3v6.7h0c0.5-0.8,1.3-1.3,2.3-1.3c1.9,0,3.1,1.6,3.1,3.4c0,1.9-1.1,3.5-3.1,3.5c-0.9,0-1.7-0.5-2.2-1.2h0v1
			h-1.3V63.9z M406.9,72.8c0-1.3-0.8-2.4-2.1-2.4c-1.3,0-2.1,1.1-2.1,2.4c0,1.2,0.7,2.4,2.1,2.4C406.1,75.2,406.9,74.1,406.9,72.8z"
			/>
		<path d="M414.1,74.8l-1.9,3.7l-0.8-0.3l1.5-3.9L414.1,74.8z"/>
		<path d="M429,67.5c-0.4-0.7-0.9-1-1.7-1c-0.8,0-1.8,0.6-1.8,1.5c0,0.8,0.8,1.3,1.5,1.5l0.8,0.3c1.5,0.6,2.6,1.4,2.6,3.2
			c0,1.9-1.5,3.3-3.4,3.3c-1.7,0-3-1.3-3.3-3l1.3-0.3c0,1.2,0.9,2,2,2c1.1,0,1.9-1,1.9-2.1c0-1.1-0.9-1.6-1.8-2l-0.7-0.3
			c-1.2-0.5-2.3-1.2-2.3-2.7c0-1.7,1.5-2.7,3.1-2.7c1.2,0,2.1,0.6,2.7,1.6L429,67.5z"/>
		<path d="M435.1,69.5v3.6c0,1.1,0.3,2,1.5,2s1.5-0.9,1.5-2v-3.6h1.3v3.8c0,1.8-0.8,3-2.8,3s-2.8-1.2-2.8-3v-3.8H435.1z"/>
		<path d="M444.7,70.6L444.7,70.6c0.4-0.8,1-1.3,1.8-1.3c0.4,0,0.7,0.1,1,0.3l-0.6,1.1c-0.2-0.2-0.5-0.3-0.8-0.3
			c-1.4,0-1.5,1.3-1.5,2.3v3.2h-1.3v-6.6h1.3V70.6z"/>
		<path d="M451.8,70.6L451.8,70.6c0.4-0.8,1-1.3,1.8-1.3c0.4,0,0.7,0.1,1,0.3l-0.6,1.1c-0.2-0.2-0.5-0.3-0.8-0.3
			c-1.4,0-1.5,1.3-1.5,2.3v3.2h-1.3v-6.6h1.3V70.6z"/>
		<path d="M458.4,73c0,1.1,0.8,2.2,2,2.2c1,0,1.5-0.5,2-1.3l1.1,0.6c-0.6,1.1-1.8,1.8-3,1.8c-2,0-3.2-1.5-3.2-3.4
			c0-2,1.1-3.5,3.2-3.5c2.1,0,3.1,1.5,3.1,3.5V73H458.4z M462.2,72c-0.2-1-0.8-1.6-1.8-1.6c-1,0-1.7,0.7-1.9,1.6H462.2z"/>
		<path d="M468,70.4L468,70.4c0.4-0.7,1.2-1.1,2-1.1c1.8,0,2.3,1.2,2.3,2.8v3.9h-1.3v-3.8c0-1.1-0.2-1.9-1.4-1.9
			c-1.6,0-1.6,1.4-1.6,2.6v3h-1.3v-6.6h1.3V70.4z"/>
		<path d="M479.3,71.1v1.1h-3.1v-1.1H479.3z"/>
		<path d="M5.4,96.2L5.4,96.2c-0.5,0.7-1.3,1.2-2.3,1.2c-2,0-3.1-1.7-3.1-3.5c0-1.8,1.2-3.4,3.1-3.4c1,0,1.8,0.5,2.3,1.3h0v-6.7h1.3
			v12.2H5.4V96.2z M5.5,94c0-1.3-0.8-2.4-2.1-2.4c-1.3,0-2.1,1.1-2.1,2.4c0,1.2,0.7,2.4,2.1,2.4C4.7,96.4,5.5,95.3,5.5,94z"/>
		<path d="M11.3,94.2c0,1.1,0.8,2.2,2,2.2c1,0,1.5-0.5,2-1.3l1.1,0.6c-0.6,1.1-1.8,1.8-3,1.8c-2,0-3.2-1.5-3.2-3.4
			c0-2,1.1-3.5,3.2-3.5c2.1,0,3.1,1.5,3.1,3.5v0.2H11.3z M15,93.2c-0.2-1-0.8-1.6-1.8-1.6c-1,0-1.7,0.7-1.9,1.6H15z"/>
		<path d="M20.9,91.8L20.9,91.8c0.4-0.8,1-1.3,1.8-1.3c0.4,0,0.7,0.1,1,0.3L23.2,92c-0.2-0.2-0.5-0.3-0.8-0.3
			c-1.4,0-1.5,1.3-1.5,2.3v3.2h-1.3v-6.6h1.3V91.8z"/>
		<path d="M33.1,86.2l7.9,8.3v-7.8h1.3v11l-7.9-8.3v7.9h-1.3V86.2z"/>
		<path d="M48,87.7c0,0.5-0.4,0.9-0.9,0.9c-0.5,0-0.9-0.4-0.9-0.9c0-0.5,0.4-0.9,0.9-0.9C47.7,86.8,48,87.2,48,87.7z M47.8,97.3
			h-1.3v-6.6h1.3V97.3z"/>
		<path d="M58.2,97.1c0,2.3-0.6,3.9-3.2,3.9c-1.8,0-3.1-1.1-3.2-3h1.3c0,1.2,0.8,1.8,2,1.8c1.6,0,1.9-1.1,1.9-2.4v-1.2h0
			c-0.5,0.7-1.3,1.2-2.2,1.2c-2,0-3.1-1.7-3.1-3.5c0-1.8,1.2-3.4,3.1-3.4c1,0,1.8,0.5,2.3,1.3h0v-1.1h1.3V97.1z M57,94
			c0-1.3-0.8-2.4-2.1-2.4c-1.3,0-2.1,1.1-2.1,2.4c0,1.2,0.7,2.4,2.1,2.4C56.3,96.4,57,95.3,57,94z"/>
		<path d="M63.3,85.1v6.5h0c0.4-0.7,1.2-1.1,2-1.1c1.8,0,2.3,1.2,2.3,2.8v3.9h-1.3v-3.8c0-1.1-0.2-1.9-1.4-1.9
			c-1.6,0-1.6,1.4-1.6,2.6v3h-1.3V85.1H63.3z"/>
		<path d="M73.1,97.3h-1.3v-5.4h-0.7v-1.2h0.7v-2.5h1.3v2.5h1.2v1.2h-1.2V97.3z"/>
		<path d="M82.1,92.6c-0.5-0.6-1.1-0.9-1.9-0.9c-1.2,0-2.2,1.1-2.2,2.3c0,1.3,0.9,2.3,2.3,2.3c0.7,0,1.3-0.3,1.8-0.9v1.6
			c-0.6,0.3-1.1,0.4-1.8,0.4c-1.9,0-3.5-1.5-3.5-3.4c0-2,1.6-3.5,3.6-3.5c0.6,0,1.2,0.1,1.7,0.4V92.6z"/>
		<path d="M87,97.3h-1.3V85.1H87V97.3z"/>
		<path d="M92.2,90.7v3.6c0,1.1,0.3,2,1.5,2s1.5-0.9,1.5-2v-3.6h1.3v3.8c0,1.8-0.8,3-2.8,3s-2.8-1.2-2.8-3v-3.8H92.2z"/>
		<path d="M100.3,85.1h1.3v6.7h0c0.5-0.8,1.3-1.3,2.3-1.3c1.9,0,3.1,1.6,3.1,3.4c0,1.9-1.1,3.5-3.1,3.5c-0.9,0-1.7-0.5-2.2-1.2h0v1
			h-1.3V85.1z M105.7,94c0-1.3-0.8-2.4-2.1-2.4c-1.3,0-2.1,1.1-2.1,2.4c0,1.2,0.7,2.4,2.1,2.4C104.9,96.4,105.7,95.3,105.7,94z"/>
		<path d="M113,96l-1.9,3.7l-0.8-0.3l1.5-3.9L113,96z"/>
		<path d="M129.2,97.3h-1.3v-1h0c-0.5,0.7-1.3,1.2-2.2,1.2c-2,0-3.1-1.7-3.1-3.5c0-1.8,1.2-3.4,3.1-3.4c1,0,1.8,0.5,2.3,1.3h0v-1.1
			h1.3V97.3z M128,94c0-1.3-0.8-2.4-2.1-2.4c-1.3,0-2.1,1.1-2.1,2.4c0,1.2,0.7,2.4,2.1,2.4C127.2,96.4,128,95.3,128,94z"/>
		<path d="M134.3,91.6L134.3,91.6c0.4-0.7,1.2-1.1,2-1.1c1.8,0,2.3,1.2,2.3,2.8v3.9h-1.3v-3.8c0-1.1-0.2-1.9-1.4-1.9
			c-1.6,0-1.6,1.4-1.6,2.6v3H133v-6.6h1.3V91.6z"/>
		<path d="M147.5,96.2L147.5,96.2c-0.5,0.7-1.3,1.2-2.3,1.2c-2,0-3.1-1.7-3.1-3.5c0-1.8,1.2-3.4,3.1-3.4c1,0,1.8,0.5,2.3,1.3h0v-6.7
			h1.3v12.2h-1.3V96.2z M147.5,94c0-1.3-0.8-2.4-2.1-2.4c-1.3,0-2.1,1.1-2.1,2.4c0,1.2,0.7,2.4,2.1,2.4
			C146.8,96.4,147.5,95.3,147.5,94z"/>
		<path d="M160.5,94.6l-1.2,2.6h-1.4l5-11l5,11h-1.4l-1.2-2.6H160.5z M163,89.1l-1.9,4.3h3.8L163,89.1z"/>
		<path d="M172.2,91.6L172.2,91.6c0.4-0.7,1.2-1.1,2-1.1c1.8,0,2.3,1.2,2.3,2.8v3.9h-1.3v-3.8c0-1.1-0.2-1.9-1.4-1.9
			c-1.6,0-1.6,1.4-1.6,2.6v3H171v-6.6h1.3V91.6z"/>
		<path d="M185.4,96.2L185.4,96.2c-0.5,0.7-1.3,1.2-2.3,1.2c-2,0-3.1-1.7-3.1-3.5c0-1.8,1.2-3.4,3.1-3.4c1,0,1.8,0.5,2.3,1.3h0v-6.7
			h1.3v12.2h-1.3V96.2z M185.5,94c0-1.3-0.8-2.4-2.1-2.4c-1.3,0-2.1,1.1-2.1,2.4c0,1.2,0.7,2.4,2.1,2.4
			C184.7,96.4,185.5,95.3,185.5,94z"/>
		<path d="M191.9,91.8L191.9,91.8c0.4-0.8,1-1.3,1.8-1.3c0.4,0,0.7,0.1,1,0.3l-0.6,1.1c-0.2-0.2-0.5-0.3-0.8-0.3
			c-1.4,0-1.5,1.3-1.5,2.3v3.2h-1.3v-6.6h1.3V91.8z"/>
		<path d="M198.5,94.2c0,1.1,0.8,2.2,2,2.2c1,0,1.5-0.5,2-1.3l1.1,0.6c-0.6,1.1-1.8,1.8-3,1.8c-2,0-3.2-1.5-3.2-3.4
			c0-2,1.1-3.5,3.2-3.5c2.1,0,3.1,1.5,3.1,3.5v0.2H198.5z M202.2,93.2c-0.2-1-0.8-1.6-1.8-1.6c-1,0-1.7,0.7-1.9,1.6H202.2z"/>
		<path d="M212.9,97.3h-1.3v-1h0c-0.5,0.7-1.3,1.2-2.2,1.2c-2,0-3.1-1.7-3.1-3.5c0-1.8,1.2-3.4,3.1-3.4c1,0,1.8,0.5,2.3,1.3h0v-1.1
			h1.3V97.3z M211.8,94c0-1.3-0.8-2.4-2.1-2.4c-1.3,0-2.1,1.1-2.1,2.4c0,1.2,0.7,2.4,2.1,2.4C211,96.4,211.8,95.3,211.8,94z"/>
		<path d="M219,86.9l-1.9,3.7l-0.8-0.3l1.5-3.9L219,86.9z"/>
		<path d="M224.2,92.2c-0.2-0.3-0.5-0.6-0.8-0.6c-0.4,0-0.7,0.3-0.7,0.6c0,0.6,0.8,0.8,1.5,1.2s1.5,0.8,1.5,1.9c0,1.2-1,2.2-2.3,2.2
			c-1,0-1.9-0.5-2.3-1.5l1.1-0.5c0.3,0.5,0.6,0.8,1.2,0.8c0.5,0,1-0.4,1-0.9c0-0.4-0.2-0.5-0.5-0.7l-1.2-0.7
			c-0.7-0.4-1.3-0.8-1.3-1.7c0-1.1,0.9-1.9,1.9-1.9c0.8,0,1.4,0.4,1.8,1.1L224.2,92.2z"/>
		<path d="M241.8,91v-4.3h1.3v10.6h-1.3v-5.1h-5v5.1h-1.3V86.7h1.3V91H241.8z"/>
		<path d="M248.9,87.7c0,0.5-0.4,0.9-0.9,0.9c-0.5,0-0.9-0.4-0.9-0.9c0-0.5,0.4-0.9,0.9-0.9C248.5,86.8,248.9,87.2,248.9,87.7z
			 M248.7,97.3h-1.3v-6.6h1.3V97.3z"/>
		<path d="M254.1,91.8L254.1,91.8c0.5-0.8,1.3-1.3,2.3-1.3c1.9,0,3.1,1.6,3.1,3.4c0,1.9-1.1,3.5-3.1,3.5c-0.9,0-1.7-0.5-2.2-1.2h0
			v4.8h-1.3V90.7h1.3V91.8z M258.2,94c0-1.3-0.8-2.4-2.1-2.4c-1.3,0-2.1,1.1-2.1,2.4c0,1.2,0.7,2.4,2.1,2.4
			C257.5,96.4,258.2,95.3,258.2,94z"/>
		<path d="M270.9,94.6l-1.2,2.6h-1.4l5-11l5,11h-1.4l-1.2-2.6H270.9z M273.3,89.1l-1.9,4.3h3.8L273.3,89.1z"/>
		<path d="M284,92.2c-0.2-0.3-0.5-0.6-0.8-0.6c-0.4,0-0.7,0.3-0.7,0.6c0,0.6,0.8,0.8,1.5,1.2s1.5,0.8,1.5,1.9c0,1.2-1,2.2-2.3,2.2
			c-1,0-1.9-0.5-2.3-1.5l1.1-0.5c0.3,0.5,0.6,0.8,1.2,0.8c0.5,0,1-0.4,1-0.9c0-0.4-0.2-0.5-0.5-0.7l-1.2-0.7
			c-0.7-0.4-1.3-0.8-1.3-1.7c0-1.1,0.9-1.9,1.9-1.9c0.8,0,1.4,0.4,1.8,1.1L284,92.2z"/>
		<path d="M290.7,87.7c0,0.5-0.4,0.9-0.9,0.9c-0.5,0-0.9-0.4-0.9-0.9c0-0.5,0.4-0.9,0.9-0.9C290.3,86.8,290.7,87.2,290.7,87.7z
			 M290.5,97.3h-1.3v-6.6h1.3V97.3z"/>
		<path d="M300.9,97.3h-1.3v-1h0c-0.5,0.7-1.3,1.2-2.2,1.2c-2,0-3.1-1.7-3.1-3.5c0-1.8,1.2-3.4,3.1-3.4c1,0,1.8,0.5,2.3,1.3h0v-1.1
			h1.3V97.3z M299.7,94c0-1.3-0.8-2.4-2.1-2.4c-1.3,0-2.1,1.1-2.1,2.4c0,1.2,0.7,2.4,2.1,2.4C298.9,96.4,299.7,95.3,299.7,94z"/>
		<path d="M306,91.6L306,91.6c0.4-0.7,1.2-1.1,2-1.1c1.8,0,2.3,1.2,2.3,2.8v3.9h-1.3v-3.8c0-1.1-0.2-1.9-1.4-1.9
			c-1.6,0-1.6,1.4-1.6,2.6v3h-1.3v-6.6h1.3V91.6z"/>
		<path d="M320.6,86.7h2.2c3.2,0,5.9,1.7,5.9,5.2c0,3.6-2.6,5.3-6,5.3h-2.1V86.7z M321.9,96.1h0.5c2.7,0,5-1,5-4.1
			c0-3.1-2.3-4.1-5-4.1h-0.5V96.1z"/>
		<path d="M333.9,87.7c0,0.5-0.4,0.9-0.9,0.9c-0.5,0-0.9-0.4-0.9-0.9c0-0.5,0.4-0.9,0.9-0.9C333.5,86.8,333.9,87.2,333.9,87.7z
			 M333.7,97.3h-1.3v-6.6h1.3V97.3z"/>
		<path d="M339.2,91.6L339.2,91.6c0.4-0.7,1.2-1.1,2-1.1c1.8,0,2.3,1.2,2.3,2.8v3.9h-1.3v-3.8c0-1.1-0.2-1.9-1.4-1.9
			c-1.6,0-1.6,1.4-1.6,2.6v3h-1.3v-6.6h1.3V91.6z"/>
		<path d="M349.3,87.7c0,0.5-0.4,0.9-0.9,0.9c-0.5,0-0.9-0.4-0.9-0.9c0-0.5,0.4-0.9,0.9-0.9C348.9,86.8,349.3,87.2,349.3,87.7z
			 M349,97.3h-1.3v-6.6h1.3V97.3z"/>
		<path d="M354.6,91.6L354.6,91.6c0.4-0.7,1.2-1.1,2-1.1c1.8,0,2.3,1.2,2.3,2.8v3.9h-1.3v-3.8c0-1.1-0.2-1.9-1.4-1.9
			c-1.6,0-1.6,1.4-1.6,2.6v3h-1.3v-6.6h1.3V91.6z"/>
		<path d="M369,97.1c0,2.3-0.6,3.9-3.2,3.9c-1.8,0-3.1-1.1-3.2-3h1.3c0,1.2,0.8,1.8,2,1.8c1.6,0,1.9-1.1,1.9-2.4v-1.2h0
			c-0.5,0.7-1.3,1.2-2.2,1.2c-2,0-3.1-1.7-3.1-3.5c0-1.8,1.2-3.4,3.1-3.4c1,0,1.8,0.5,2.3,1.3h0v-1.1h1.3V97.1z M367.8,94
			c0-1.3-0.8-2.4-2.1-2.4c-1.3,0-2.1,1.1-2.1,2.4c0,1.2,0.7,2.4,2.1,2.4C367.1,96.4,367.8,95.3,367.8,94z"/>
		<path d="M374.9,96.7c0,0.4-0.4,0.8-0.8,0.8s-0.8-0.4-0.8-0.8c0-0.4,0.4-0.8,0.8-0.8S374.9,96.2,374.9,96.7z"/>
		<path d="M387.4,90.3L387.4,90.3l-1.3,7h-1.4l2.2-11l3.6,8.3l3.6-8.3l2.2,11H395l-1.2-7h0l-3.2,7.2L387.4,90.3z"/>
		<path d="M398.6,90.7h1.5l2.2,4.2l2.1-4.2h1.4l-5.3,10.3H399l2.6-4.9L398.6,90.7z"/>
		<path d="M416.7,87.7c0,0.5-0.4,0.9-0.9,0.9c-0.5,0-0.9-0.4-0.9-0.9c0-0.5,0.4-0.9,0.9-0.9C416.3,86.8,416.7,87.2,416.7,87.7z
			 M416.4,97.3h-1.3v-6.6h1.3V97.3z"/>
		<path d="M422,91.6L422,91.6c0.4-0.7,1.2-1.1,2-1.1c1.8,0,2.3,1.2,2.3,2.8v3.9H425v-3.8c0-1.1-0.2-1.9-1.4-1.9
			c-1.6,0-1.6,1.4-1.6,2.6v3h-1.3v-6.6h1.3V91.6z"/>
		<path d="M431.7,97.3h-1.3v-5.4h-0.7v-1.2h0.7v-2.5h1.3v2.5h1.2v1.2h-1.2V97.3z"/>
		<path d="M436.6,94.2c0,1.1,0.8,2.2,2,2.2c1,0,1.5-0.5,2-1.3l1.1,0.6c-0.6,1.1-1.8,1.8-3,1.8c-2,0-3.2-1.5-3.2-3.4
			c0-2,1.1-3.5,3.2-3.5c2.1,0,3.1,1.5,3.1,3.5v0.2H436.6z M440.4,93.2c-0.2-1-0.8-1.6-1.8-1.6c-1,0-1.7,0.7-1.9,1.6H440.4z"/>
		<path d="M446.3,91.8L446.3,91.8c0.4-0.8,1-1.3,1.8-1.3c0.4,0,0.7,0.1,1,0.3l-0.6,1.1c-0.2-0.2-0.5-0.3-0.8-0.3
			c-1.4,0-1.5,1.3-1.5,2.3v3.2H445v-6.6h1.3V91.8z"/>
		<path d="M453.5,91.6L453.5,91.6c0.4-0.7,1.2-1.1,2-1.1c1.8,0,2.3,1.2,2.3,2.8v3.9h-1.3v-3.8c0-1.1-0.2-1.9-1.4-1.9
			c-1.6,0-1.6,1.4-1.6,2.6v3h-1.3v-6.6h1.3V91.6z"/>
		<path d="M464.8,92.3v1.1h-3.1v-1.1H464.8z"/>
		<path d="M3.1,113.4c-0.2-0.3-0.5-0.6-0.8-0.6c-0.4,0-0.7,0.3-0.7,0.6c0,0.6,0.8,0.8,1.5,1.2s1.5,0.8,1.5,1.9c0,1.2-1,2.2-2.3,2.2
			c-1,0-1.9-0.5-2.3-1.5l1.1-0.5c0.3,0.5,0.6,0.8,1.2,0.8c0.5,0,1-0.4,1-0.9c0-0.4-0.2-0.5-0.5-0.7l-1.2-0.7
			c-0.7-0.4-1.3-0.8-1.3-1.7c0-1.1,0.9-1.9,1.9-1.9c0.8,0,1.4,0.4,1.8,1.1L3.1,113.4z"/>
		<path d="M9.4,106.3v6.5h0c0.4-0.7,1.2-1.1,2-1.1c1.8,0,2.3,1.2,2.3,2.8v3.9h-1.3v-3.8c0-1.1-0.2-1.9-1.4-1.9
			c-1.6,0-1.6,1.4-1.6,2.6v3H8.1v-12.2H9.4z"/>
		<path d="M19.5,108.9c0,0.5-0.4,0.9-0.9,0.9c-0.5,0-0.9-0.4-0.9-0.9c0-0.5,0.4-0.9,0.9-0.9C19.1,108,19.5,108.4,19.5,108.9z
			 M19.2,118.5H18v-6.6h1.3V118.5z"/>
		<path d="M24.6,113L24.6,113c0.5-0.8,1.3-1.3,2.3-1.3c1.9,0,3.1,1.6,3.1,3.4c0,1.9-1.1,3.5-3.1,3.5c-0.9,0-1.7-0.5-2.2-1.2h0v4.8
			h-1.3v-10.3h1.3V113z M28.8,115.2c0-1.3-0.8-2.4-2.1-2.4c-1.3,0-2.1,1.1-2.1,2.4c0,1.2,0.7,2.4,2.1,2.4
			C28,117.6,28.8,116.5,28.8,115.2z"/>
		<path d="M39.7,106.3H41v6.7h0c0.5-0.8,1.3-1.3,2.3-1.3c1.9,0,3.1,1.6,3.1,3.4c0,1.9-1.1,3.5-3.1,3.5c-0.9,0-1.7-0.5-2.2-1.2h0v1
			h-1.3V106.3z M45.1,115.2c0-1.3-0.8-2.4-2.1-2.4c-1.3,0-2.1,1.1-2.1,2.4c0,1.2,0.7,2.4,2.1,2.4C44.3,117.6,45.1,116.5,45.1,115.2z
			"/>
		<path d="M50.6,115.4c0,1.1,0.8,2.2,2,2.2c1,0,1.5-0.5,2-1.3l1.1,0.6c-0.6,1.1-1.8,1.8-3,1.8c-2,0-3.2-1.5-3.2-3.4
			c0-2,1.1-3.5,3.2-3.5c2.1,0,3.1,1.5,3.1,3.5v0.2H50.6z M54.3,114.4c-0.2-1-0.8-1.6-1.8-1.6c-1,0-1.7,0.7-1.9,1.6H54.3z"/>
		<path d="M65,118.3c0,2.3-0.6,3.9-3.2,3.9c-1.8,0-3.1-1.1-3.2-3h1.3c0,1.2,0.8,1.8,2,1.8c1.6,0,1.9-1.1,1.9-2.4v-1.2h0
			c-0.5,0.7-1.3,1.2-2.2,1.2c-2,0-3.1-1.7-3.1-3.5c0-1.8,1.2-3.4,3.1-3.4c1,0,1.8,0.5,2.3,1.3h0v-1.1H65V118.3z M63.8,115.2
			c0-1.3-0.8-2.4-2.1-2.4c-1.3,0-2.1,1.1-2.1,2.4c0,1.2,0.7,2.4,2.1,2.4C63.1,117.6,63.8,116.5,63.8,115.2z"/>
		<path d="M75,118.5h-1.3v-1h0c-0.5,0.7-1.3,1.2-2.2,1.2c-2,0-3.1-1.7-3.1-3.5c0-1.8,1.2-3.4,3.1-3.4c1,0,1.8,0.5,2.3,1.3h0v-1.1H75
			V118.5z M73.9,115.2c0-1.3-0.8-2.4-2.1-2.4c-1.3,0-2.1,1.1-2.1,2.4c0,1.2,0.7,2.4,2.1,2.4C73.1,117.6,73.9,116.5,73.9,115.2z"/>
		<path d="M80.2,112.8L80.2,112.8c0.4-0.7,1.2-1.1,2-1.1c1.8,0,2.3,1.2,2.3,2.8v3.9h-1.3v-3.8c0-1.1-0.2-1.9-1.4-1.9
			c-1.6,0-1.6,1.4-1.6,2.6v3h-1.3v-6.6h1.3V112.8z"/>
		<path d="M97,116.1l1.9-4.5l1.9,4.5l1.9-4.2h1.4l-3.3,6.8l-1.9-4.4l-1.9,4.4l-3.3-6.8h1.4L97,116.1z"/>
		<path d="M108.8,108.9c0,0.5-0.4,0.9-0.9,0.9c-0.5,0-0.9-0.4-0.9-0.9c0-0.5,0.4-0.9,0.9-0.9C108.4,108,108.8,108.4,108.8,108.9z
			 M108.6,118.5h-1.3v-6.6h1.3V118.5z"/>
		<path d="M114.3,118.5H113v-5.4h-0.7v-1.2h0.7v-2.5h1.3v2.5h1.2v1.2h-1.2V118.5z"/>
		<path d="M119.7,106.3v6.5h0c0.4-0.7,1.2-1.1,2-1.1c1.8,0,2.3,1.2,2.3,2.8v3.9h-1.3v-3.8c0-1.1-0.2-1.9-1.4-1.9
			c-1.6,0-1.6,1.4-1.6,2.6v3h-1.3v-12.2H119.7z"/>
		<path d="M135.7,118.5h-1.3v-5.4h-0.7v-1.2h0.7v-2.5h1.3v2.5h1.2v1.2h-1.2V118.5z"/>
		<path d="M141.2,106.3v6.5h0c0.4-0.7,1.2-1.1,2-1.1c1.8,0,2.3,1.2,2.3,2.8v3.9h-1.3v-3.8c0-1.1-0.2-1.9-1.4-1.9
			c-1.6,0-1.6,1.4-1.6,2.6v3h-1.3v-12.2H141.2z"/>
		<path d="M150.2,115.4c0,1.1,0.8,2.2,2,2.2c1,0,1.5-0.5,2-1.3l1.1,0.6c-0.6,1.1-1.8,1.8-3,1.8c-2,0-3.2-1.5-3.2-3.4
			c0-2,1.1-3.5,3.2-3.5c2.1,0,3.1,1.5,3.1,3.5v0.2H150.2z M154,114.4c-0.2-1-0.8-1.6-1.8-1.6c-1,0-1.7,0.7-1.9,1.6H154z"/>
		<path d="M166,113L166,113c0.5-0.8,1.3-1.3,2.3-1.3c1.9,0,3.1,1.6,3.1,3.4c0,1.9-1.1,3.5-3.1,3.5c-0.9,0-1.7-0.5-2.2-1.2h0v4.8
			h-1.3v-10.3h1.3V113z M170.1,115.2c0-1.3-0.8-2.4-2.1-2.4c-1.3,0-2.1,1.1-2.1,2.4c0,1.2,0.7,2.4,2.1,2.4
			C169.4,117.6,170.1,116.5,170.1,115.2z"/>
		<path d="M176.2,113L176.2,113c0.4-0.8,1-1.3,1.8-1.3c0.4,0,0.7,0.1,1,0.3l-0.6,1.1c-0.2-0.2-0.5-0.3-0.8-0.3
			c-1.4,0-1.5,1.3-1.5,2.3v3.2h-1.3v-6.6h1.3V113z"/>
		<path d="M188.4,115.2c0,2-1.5,3.5-3.5,3.5c-2,0-3.5-1.5-3.5-3.5s1.5-3.5,3.5-3.5C186.9,111.7,188.4,113.2,188.4,115.2z
			 M182.7,115.2c0,1.2,1,2.3,2.2,2.3c1.2,0,2.2-1.1,2.2-2.3c0-1.2-1-2.3-2.2-2.3C183.7,112.9,182.7,114,182.7,115.2z"/>
		<path d="M196.7,117.4L196.7,117.4c-0.5,0.7-1.3,1.2-2.3,1.2c-2,0-3.1-1.7-3.1-3.5c0-1.8,1.2-3.4,3.1-3.4c1,0,1.8,0.5,2.3,1.3h0
			v-6.7h1.3v12.2h-1.3V117.4z M196.8,115.2c0-1.3-0.8-2.4-2.1-2.4c-1.3,0-2.1,1.1-2.1,2.4c0,1.2,0.7,2.4,2.1,2.4
			C196,117.6,196.8,116.5,196.8,115.2z"/>
		<path d="M203,111.9v3.6c0,1.1,0.3,2,1.5,2s1.5-0.9,1.5-2v-3.6h1.3v3.8c0,1.8-0.8,3-2.8,3s-2.8-1.2-2.8-3v-3.8H203z"/>
		<path d="M216.1,113.8c-0.5-0.6-1.1-0.9-1.9-0.9c-1.2,0-2.2,1.1-2.2,2.3c0,1.3,0.9,2.3,2.3,2.3c0.7,0,1.3-0.3,1.8-0.9v1.6
			c-0.6,0.3-1.1,0.4-1.8,0.4c-1.9,0-3.5-1.5-3.5-3.4c0-2,1.6-3.5,3.6-3.5c0.6,0,1.2,0.1,1.7,0.4V113.8z"/>
		<path d="M221.1,118.5h-1.3v-5.4h-0.7v-1.2h0.7v-2.5h1.3v2.5h1.2v1.2h-1.2V118.5z"/>
		<path d="M227,108.9c0,0.5-0.4,0.9-0.9,0.9c-0.5,0-0.9-0.4-0.9-0.9c0-0.5,0.4-0.9,0.9-0.9C226.6,108,227,108.4,227,108.9z
			 M226.8,118.5h-1.3v-6.6h1.3V118.5z"/>
		<path d="M237.5,115.2c0,2-1.5,3.5-3.5,3.5c-2,0-3.5-1.5-3.5-3.5s1.5-3.5,3.5-3.5C235.9,111.7,237.5,113.2,237.5,115.2z
			 M231.7,115.2c0,1.2,1,2.3,2.2,2.3c1.2,0,2.2-1.1,2.2-2.3c0-1.2-1-2.3-2.2-2.3C232.7,112.9,231.7,114,231.7,115.2z"/>
		<path d="M242.1,112.8L242.1,112.8c0.4-0.7,1.2-1.1,2-1.1c1.8,0,2.3,1.2,2.3,2.8v3.9h-1.3v-3.8c0-1.1-0.2-1.9-1.4-1.9
			c-1.6,0-1.6,1.4-1.6,2.6v3h-1.3v-6.6h1.3V112.8z"/>
		<path d="M263.1,115.2c0,2-1.5,3.5-3.5,3.5c-2,0-3.5-1.5-3.5-3.5s1.5-3.5,3.5-3.5C261.6,111.7,263.1,113.2,263.1,115.2z
			 M257.4,115.2c0,1.2,1,2.3,2.2,2.3c1.2,0,2.2-1.1,2.2-2.3c0-1.2-1-2.3-2.2-2.3C258.4,112.9,257.4,114,257.4,115.2z"/>
		<path d="M269.7,107.6c-0.3-0.1-0.6-0.3-0.8-0.3c-0.9,0-0.9,1.1-0.9,1.8v2.8h1.7v1.2H268v5.4h-1.3v-5.4h-0.6v-1.2h0.6v-3.2
			c0-1.4,0.5-2.6,2.1-2.6c0.3,0,0.6,0.1,0.9,0.2V107.6z"/>
		<path d="M278.8,106.3h1.3v6.7h0c0.5-0.8,1.3-1.3,2.3-1.3c1.9,0,3.1,1.6,3.1,3.4c0,1.9-1.1,3.5-3.1,3.5c-0.9,0-1.7-0.5-2.2-1.2h0v1
			h-1.3V106.3z M284.2,115.2c0-1.3-0.8-2.4-2.1-2.4c-1.3,0-2.1,1.1-2.1,2.4c0,1.2,0.7,2.4,2.1,2.4
			C283.4,117.6,284.2,116.5,284.2,115.2z"/>
		<path d="M290.7,108.9c0,0.5-0.4,0.9-0.9,0.9c-0.5,0-0.9-0.4-0.9-0.9c0-0.5,0.4-0.9,0.9-0.9C290.3,108,290.7,108.4,290.7,108.9z
			 M290.4,118.5h-1.3v-6.6h1.3V118.5z"/>
		<path d="M296,118.5h-1.3v-12.2h1.3V118.5z"/>
		<path d="M301.4,118.5h-1.3v-12.2h1.3V118.5z"/>
		<path d="M305.3,106.3h1.3v6.7h0c0.5-0.8,1.3-1.3,2.3-1.3c1.9,0,3.1,1.6,3.1,3.4c0,1.9-1.1,3.5-3.1,3.5c-0.9,0-1.7-0.5-2.2-1.2h0v1
			h-1.3V106.3z M310.7,115.2c0-1.3-0.8-2.4-2.1-2.4c-1.3,0-2.1,1.1-2.1,2.4c0,1.2,0.7,2.4,2.1,2.4
			C309.9,117.6,310.7,116.5,310.7,115.2z"/>
		<path d="M321.8,115.2c0,2-1.5,3.5-3.5,3.5c-2,0-3.5-1.5-3.5-3.5s1.5-3.5,3.5-3.5C320.3,111.7,321.8,113.2,321.8,115.2z
			 M316.1,115.2c0,1.2,1,2.3,2.2,2.3c1.2,0,2.2-1.1,2.2-2.3c0-1.2-1-2.3-2.2-2.3C317.1,112.9,316.1,114,316.1,115.2z"/>
		<path d="M331.4,118.5h-1.3v-1h0c-0.5,0.7-1.3,1.2-2.2,1.2c-2,0-3.1-1.7-3.1-3.5c0-1.8,1.2-3.4,3.1-3.4c1,0,1.8,0.5,2.3,1.3h0v-1.1
			h1.3V118.5z M330.2,115.2c0-1.3-0.8-2.4-2.1-2.4c-1.3,0-2.1,1.1-2.1,2.4c0,1.2,0.7,2.4,2.1,2.4
			C329.4,117.6,330.2,116.5,330.2,115.2z"/>
		<path d="M336.6,113L336.6,113c0.4-0.8,1-1.3,1.8-1.3c0.4,0,0.7,0.1,1,0.3l-0.6,1.1c-0.2-0.2-0.5-0.3-0.8-0.3
			c-1.4,0-1.5,1.3-1.5,2.3v3.2h-1.3v-6.6h1.3V113z"/>
		<path d="M347.3,117.4L347.3,117.4c-0.5,0.7-1.3,1.2-2.3,1.2c-2,0-3.1-1.7-3.1-3.5c0-1.8,1.2-3.4,3.1-3.4c1,0,1.8,0.5,2.3,1.3h0
			v-6.7h1.3v12.2h-1.3V117.4z M347.3,115.2c0-1.3-0.8-2.4-2.1-2.4c-1.3,0-2.1,1.1-2.1,2.4c0,1.2,0.7,2.4,2.1,2.4
			C346.6,117.6,347.3,116.5,347.3,115.2z"/>
		<path d="M355,113.4c-0.2-0.3-0.5-0.6-0.8-0.6c-0.4,0-0.7,0.3-0.7,0.6c0,0.6,0.8,0.8,1.5,1.2s1.5,0.8,1.5,1.9c0,1.2-1,2.2-2.3,2.2
			c-1,0-1.9-0.5-2.3-1.5l1.1-0.5c0.3,0.5,0.6,0.8,1.2,0.8c0.5,0,1-0.4,1-0.9c0-0.4-0.2-0.5-0.5-0.7l-1.2-0.7
			c-0.7-0.4-1.3-0.8-1.3-1.7c0-1.1,0.9-1.9,1.9-1.9c0.8,0,1.4,0.4,1.8,1.1L355,113.4z"/>
		<path d="M362.5,117.2l-1.9,3.7l-0.8-0.3l1.5-3.9L362.5,117.2z"/>
		<path d="M374.8,116.1l1.9-4.5l1.9,4.5l1.9-4.2h1.4l-3.3,6.8l-1.9-4.4l-1.9,4.4l-3.3-6.8h1.4L374.8,116.1z"/>
		<path d="M385.6,115.4c0,1.1,0.8,2.2,2,2.2c1,0,1.5-0.5,2-1.3l1.1,0.6c-0.6,1.1-1.8,1.8-3,1.8c-2,0-3.2-1.5-3.2-3.4
			c0-2,1.1-3.5,3.2-3.5c2.1,0,3.1,1.5,3.1,3.5v0.2H385.6z M389.4,114.4c-0.2-1-0.8-1.6-1.8-1.6c-1,0-1.7,0.7-1.9,1.6H389.4z"/>
		<path d="M393.9,106.3h1.3v6.7h0c0.5-0.8,1.3-1.3,2.3-1.3c1.9,0,3.1,1.6,3.1,3.4c0,1.9-1.1,3.5-3.1,3.5c-0.9,0-1.7-0.5-2.2-1.2h0v1
			h-1.3V106.3z M399.3,115.2c0-1.3-0.8-2.4-2.1-2.4c-1.3,0-2.1,1.1-2.1,2.4c0,1.2,0.7,2.4,2.1,2.4
			C398.5,117.6,399.3,116.5,399.3,115.2z"/>
		<path d="M410.2,106.3h1.3v6.7h0c0.5-0.8,1.3-1.3,2.3-1.3c1.9,0,3.1,1.6,3.1,3.4c0,1.9-1.1,3.5-3.1,3.5c-0.9,0-1.7-0.5-2.2-1.2h0v1
			h-1.3V106.3z M415.6,115.2c0-1.3-0.8-2.4-2.1-2.4c-1.3,0-2.1,1.1-2.1,2.4c0,1.2,0.7,2.4,2.1,2.4
			C414.8,117.6,415.6,116.5,415.6,115.2z"/>
		<path d="M426.4,118.5h-1.3v-1h0c-0.5,0.7-1.3,1.2-2.2,1.2c-2,0-3.1-1.7-3.1-3.5c0-1.8,1.2-3.4,3.1-3.4c1,0,1.8,0.5,2.3,1.3h0v-1.1
			h1.3V118.5z M425.3,115.2c0-1.3-0.8-2.4-2.1-2.4c-1.3,0-2.1,1.1-2.1,2.4c0,1.2,0.7,2.4,2.1,2.4
			C424.5,117.6,425.3,116.5,425.3,115.2z"/>
		<path d="M431.6,112.8L431.6,112.8c0.4-0.7,1.2-1.1,2-1.1c1.8,0,2.3,1.2,2.3,2.8v3.9h-1.3v-3.8c0-1.1-0.2-1.9-1.4-1.9
			c-1.6,0-1.6,1.4-1.6,2.6v3h-1.3v-6.6h1.3V112.8z"/>
		<path d="M441.1,112.8L441.1,112.8c0.4-0.7,1.2-1.1,2-1.1c1.8,0,2.3,1.2,2.3,2.8v3.9h-1.3v-3.8c0-1.1-0.2-1.9-1.4-1.9
			c-1.6,0-1.6,1.4-1.6,2.6v3h-1.3v-6.6h1.3V112.8z"/>
		<path d="M450.2,115.4c0,1.1,0.8,2.2,2,2.2c1,0,1.5-0.5,2-1.3l1.1,0.6c-0.6,1.1-1.8,1.8-3,1.8c-2,0-3.2-1.5-3.2-3.4
			c0-2,1.1-3.5,3.2-3.5c2.1,0,3.1,1.5,3.1,3.5v0.2H450.2z M453.9,114.4c-0.2-1-0.8-1.6-1.8-1.6c-1,0-1.7,0.7-1.9,1.6H453.9z"/>
		<path d="M459.9,113L459.9,113c0.4-0.8,1-1.3,1.8-1.3c0.4,0,0.7,0.1,1,0.3l-0.6,1.1c-0.2-0.2-0.5-0.3-0.8-0.3
			c-1.4,0-1.5,1.3-1.5,2.3v3.2h-1.3v-6.6h1.3V113z"/>
		<path d="M468.3,113.4c-0.2-0.3-0.5-0.6-0.8-0.6c-0.4,0-0.7,0.3-0.7,0.6c0,0.6,0.8,0.8,1.5,1.2s1.5,0.8,1.5,1.9
			c0,1.2-1,2.2-2.3,2.2c-1,0-1.9-0.5-2.3-1.5l1.1-0.5c0.3,0.5,0.6,0.8,1.2,0.8c0.5,0,1-0.4,1-0.9c0-0.4-0.2-0.5-0.5-0.7l-1.2-0.7
			c-0.7-0.4-1.3-0.8-1.3-1.7c0-1.1,0.9-1.9,1.9-1.9c0.8,0,1.4,0.4,1.8,1.1L468.3,113.4z"/>
		<path d="M475.8,117.2l-1.9,3.7l-0.8-0.3l1.5-3.9L475.8,117.2z"/>
		<path d="M6.7,139.7H5.4v-1h0c-0.5,0.7-1.3,1.2-2.2,1.2c-2,0-3.1-1.7-3.1-3.5c0-1.8,1.2-3.4,3.1-3.4c1,0,1.8,0.5,2.3,1.3h0v-1.1
			h1.3V139.7z M5.5,136.4c0-1.3-0.8-2.4-2.1-2.4c-1.3,0-2.1,1.1-2.1,2.4c0,1.2,0.7,2.4,2.1,2.4C4.7,138.8,5.5,137.7,5.5,136.4z"/>
		<path d="M11.8,134L11.8,134c0.4-0.7,1.2-1.1,2-1.1c1.8,0,2.3,1.2,2.3,2.8v3.9h-1.3v-3.8c0-1.1-0.2-1.9-1.4-1.9
			c-1.6,0-1.6,1.4-1.6,2.6v3h-1.3v-6.6h1.3V134z"/>
		<path d="M25,138.6L25,138.6c-0.5,0.7-1.3,1.2-2.3,1.2c-2,0-3.1-1.7-3.1-3.5c0-1.8,1.2-3.4,3.1-3.4c1,0,1.8,0.5,2.3,1.3h0v-6.7h1.3
			v12.2H25V138.6z M25,136.4c0-1.3-0.8-2.4-2.1-2.4c-1.3,0-2.1,1.1-2.1,2.4c0,1.2,0.7,2.4,2.1,2.4C24.3,138.8,25,137.7,25,136.4z"/>
		<path d="M37.6,134.2L37.6,134.2c0.5-0.8,1.3-1.3,2.3-1.3c1.9,0,3.1,1.6,3.1,3.4c0,1.9-1.1,3.5-3.1,3.5c-0.9,0-1.7-0.5-2.2-1.2h0
			v4.8h-1.3v-10.3h1.3V134.2z M41.7,136.4c0-1.3-0.8-2.4-2.1-2.4c-1.3,0-2.1,1.1-2.1,2.4c0,1.2,0.7,2.4,2.1,2.4
			C40.9,138.8,41.7,137.7,41.7,136.4z"/>
		<path d="M47.8,134.2L47.8,134.2c0.4-0.8,1-1.3,1.8-1.3c0.4,0,0.7,0.1,1,0.3l-0.6,1.1c-0.2-0.2-0.5-0.3-0.8-0.3
			c-1.4,0-1.5,1.3-1.5,2.3v3.2h-1.3v-6.6h1.3V134.2z"/>
		<path d="M55.4,130.1c0,0.5-0.4,0.9-0.9,0.9c-0.5,0-0.9-0.4-0.9-0.9c0-0.5,0.4-0.9,0.9-0.9C55,129.2,55.4,129.6,55.4,130.1z
			 M55.1,139.7h-1.3v-6.6h1.3V139.7z"/>
		<path d="M60.6,134L60.6,134c0.4-0.7,1.2-1.1,2-1.1c1.8,0,2.3,1.2,2.3,2.8v3.9h-1.3v-3.8c0-1.1-0.2-1.9-1.4-1.9
			c-1.6,0-1.6,1.4-1.6,2.6v3h-1.3v-6.6h1.3V134z"/>
		<path d="M70.4,139.7h-1.3v-5.4h-0.7v-1.2h0.7v-2.5h1.3v2.5h1.2v1.2h-1.2V139.7z"/>
		<path d="M85.7,138.6L85.7,138.6c-0.5,0.7-1.3,1.2-2.3,1.2c-2,0-3.1-1.7-3.1-3.5c0-1.8,1.2-3.4,3.1-3.4c1,0,1.8,0.5,2.3,1.3h0v-6.7
			H87v12.2h-1.3V138.6z M85.8,136.4c0-1.3-0.8-2.4-2.1-2.4c-1.3,0-2.1,1.1-2.1,2.4c0,1.2,0.7,2.4,2.1,2.4
			C85,138.8,85.8,137.7,85.8,136.4z"/>
		<path d="M91.6,136.6c0,1.1,0.8,2.2,2,2.2c1,0,1.5-0.5,2-1.3l1.1,0.6c-0.6,1.1-1.8,1.8-3,1.8c-2,0-3.2-1.5-3.2-3.4
			c0-2,1.1-3.5,3.2-3.5c2.1,0,3.1,1.5,3.1,3.5v0.2H91.6z M95.3,135.6c-0.2-1-0.8-1.6-1.8-1.6c-1,0-1.7,0.7-1.9,1.6H95.3z"/>
		<path d="M102.6,134.6c-0.2-0.3-0.5-0.6-0.8-0.6c-0.4,0-0.7,0.3-0.7,0.6c0,0.6,0.8,0.8,1.5,1.2s1.5,0.8,1.5,1.9
			c0,1.2-1,2.2-2.3,2.2c-1,0-1.9-0.5-2.3-1.5l1.1-0.5c0.3,0.5,0.6,0.8,1.2,0.8c0.5,0,1-0.4,1-0.9c0-0.4-0.2-0.5-0.5-0.7l-1.2-0.7
			c-0.7-0.4-1.3-0.8-1.3-1.7c0-1.1,0.9-1.9,1.9-1.9c0.8,0,1.4,0.4,1.8,1.1L102.6,134.6z"/>
		<path d="M109.3,130.1c0,0.5-0.4,0.9-0.9,0.9c-0.5,0-0.9-0.4-0.9-0.9c0-0.5,0.4-0.9,0.9-0.9C108.9,129.2,109.3,129.6,109.3,130.1z
			 M109.1,139.7h-1.3v-6.6h1.3V139.7z"/>
		<path d="M119.5,139.5c0,2.3-0.6,3.9-3.2,3.9c-1.8,0-3.1-1.1-3.2-3h1.3c0,1.2,0.8,1.8,2,1.8c1.6,0,1.9-1.1,1.9-2.4v-1.2h0
			c-0.5,0.7-1.3,1.2-2.2,1.2c-2,0-3.1-1.7-3.1-3.5c0-1.8,1.2-3.4,3.1-3.4c1,0,1.8,0.5,2.3,1.3h0v-1.1h1.3V139.5z M118.3,136.4
			c0-1.3-0.8-2.4-2.1-2.4c-1.3,0-2.1,1.1-2.1,2.4c0,1.2,0.7,2.4,2.1,2.4C117.5,138.8,118.3,137.7,118.3,136.4z"/>
		<path d="M124.6,134L124.6,134c0.4-0.7,1.2-1.1,2-1.1c1.8,0,2.3,1.2,2.3,2.8v3.9h-1.3v-3.8c0-1.1-0.2-1.9-1.4-1.9
			c-1.6,0-1.6,1.4-1.6,2.6v3h-1.3v-6.6h1.3V134z"/>
		<path d="M142.4,128.8c-0.3-0.1-0.6-0.3-0.8-0.3c-0.9,0-0.9,1.1-0.9,1.8v2.8h1.7v1.2h-1.7v5.4h-1.3v-5.4h-0.6v-1.2h0.6v-3.2
			c0-1.4,0.5-2.6,2.1-2.6c0.3,0,0.6,0.1,0.9,0.2V128.8z"/>
		<path d="M151.7,136.4c0,2-1.5,3.5-3.5,3.5c-2,0-3.5-1.5-3.5-3.5s1.5-3.5,3.5-3.5C150.2,132.9,151.7,134.4,151.7,136.4z M146,136.4
			c0,1.2,1,2.3,2.2,2.3c1.2,0,2.2-1.1,2.2-2.3c0-1.2-1-2.3-2.2-2.3C146.9,134.1,146,135.2,146,136.4z"/>
		<path d="M156.4,134.2L156.4,134.2c0.4-0.8,1-1.3,1.8-1.3c0.4,0,0.7,0.1,1,0.3l-0.6,1.1c-0.2-0.2-0.5-0.3-0.8-0.3
			c-1.4,0-1.5,1.3-1.5,2.3v3.2h-1.3v-6.6h1.3V134.2z"/>
		<path d="M170,139.7h-1.3v-5.4H168v-1.2h0.7v-2.5h1.3v2.5h1.2v1.2H170V139.7z"/>
		<path d="M175.4,127.5v6.5h0c0.4-0.7,1.2-1.1,2-1.1c1.8,0,2.3,1.2,2.3,2.8v3.9h-1.3v-3.8c0-1.1-0.2-1.9-1.4-1.9
			c-1.6,0-1.6,1.4-1.6,2.6v3h-1.3v-12.2H175.4z"/>
		<path d="M184.4,136.6c0,1.1,0.8,2.2,2,2.2c1,0,1.5-0.5,2-1.3l1.1,0.6c-0.6,1.1-1.8,1.8-3,1.8c-2,0-3.2-1.5-3.2-3.4
			c0-2,1.1-3.5,3.2-3.5c2.1,0,3.1,1.5,3.1,3.5v0.2H184.4z M188.2,135.6c-0.2-1-0.8-1.6-1.8-1.6c-1,0-1.7,0.7-1.9,1.6H188.2z"/>
		<path d="M203.9,138.6L203.9,138.6c-0.5,0.7-1.3,1.2-2.3,1.2c-2,0-3.1-1.7-3.1-3.5c0-1.8,1.2-3.4,3.1-3.4c1,0,1.8,0.5,2.3,1.3h0
			v-6.7h1.3v12.2h-1.3V138.6z M204,136.4c0-1.3-0.8-2.4-2.1-2.4c-1.3,0-2.1,1.1-2.1,2.4c0,1.2,0.7,2.4,2.1,2.4
			C203.2,138.8,204,137.7,204,136.4z"/>
		<path d="M215.2,139.7H214v-1h0c-0.5,0.7-1.3,1.2-2.2,1.2c-2,0-3.1-1.7-3.1-3.5c0-1.8,1.2-3.4,3.1-3.4c1,0,1.8,0.5,2.3,1.3h0v-1.1
			h1.3V139.7z M214,136.4c0-1.3-0.8-2.4-2.1-2.4c-1.3,0-2.1,1.1-2.1,2.4c0,1.2,0.7,2.4,2.1,2.4C213.3,138.8,214,137.7,214,136.4z"/>
		<path d="M220.9,130.1c0,0.5-0.4,0.9-0.9,0.9c-0.5,0-0.9-0.4-0.9-0.9c0-0.5,0.4-0.9,0.9-0.9C220.5,129.2,220.9,129.6,220.9,130.1z
			 M220.6,139.7h-1.3v-6.6h1.3V139.7z"/>
		<path d="M226.2,139.7h-1.3v-12.2h1.3V139.7z"/>
		<path d="M229.2,133.1h1.5l2.2,4.2l2.1-4.2h1.4l-5.3,10.3h-1.4l2.6-4.9L229.2,133.1z"/>
		<path d="M251.7,139.7h-1.3v-1h0c-0.5,0.7-1.3,1.2-2.2,1.2c-2,0-3.1-1.7-3.1-3.5c0-1.8,1.2-3.4,3.1-3.4c1,0,1.8,0.5,2.3,1.3h0v-1.1
			h1.3V139.7z M250.5,136.4c0-1.3-0.8-2.4-2.1-2.4c-1.3,0-2.1,1.1-2.1,2.4c0,1.2,0.7,2.4,2.1,2.4
			C249.7,138.8,250.5,137.7,250.5,136.4z"/>
		<path d="M256.8,134L256.8,134c0.4-0.7,1.2-1.1,2-1.1c1.8,0,2.3,1.2,2.3,2.8v3.9h-1.3v-3.8c0-1.1-0.2-1.9-1.4-1.9
			c-1.6,0-1.6,1.4-1.6,2.6v3h-1.3v-6.6h1.3V134z"/>
		<path d="M270,138.6L270,138.6c-0.5,0.7-1.3,1.2-2.3,1.2c-2,0-3.1-1.7-3.1-3.5c0-1.8,1.2-3.4,3.1-3.4c1,0,1.8,0.5,2.3,1.3h0v-6.7
			h1.3v12.2H270V138.6z M270.1,136.4c0-1.3-0.8-2.4-2.1-2.4c-1.3,0-2.1,1.1-2.1,2.4c0,1.2,0.7,2.4,2.1,2.4
			C269.3,138.8,270.1,137.7,270.1,136.4z"/>
		<path d="M282.7,134L282.7,134c0.4-0.7,1.2-1.1,2-1.1c1.8,0,2.3,1.2,2.3,2.8v3.9h-1.3v-3.8c0-1.1-0.2-1.9-1.4-1.9
			c-1.6,0-1.6,1.4-1.6,2.6v3h-1.3v-6.6h1.3V134z"/>
		<path d="M292.8,130.1c0,0.5-0.4,0.9-0.9,0.9c-0.5,0-0.9-0.4-0.9-0.9c0-0.5,0.4-0.9,0.9-0.9C292.4,129.2,292.8,129.6,292.8,130.1z
			 M292.5,139.7h-1.3v-6.6h1.3V139.7z"/>
		<path d="M302.9,139.5c0,2.3-0.6,3.9-3.2,3.9c-1.8,0-3.1-1.1-3.2-3h1.3c0,1.2,0.8,1.8,2,1.8c1.6,0,1.9-1.1,1.9-2.4v-1.2h0
			c-0.5,0.7-1.3,1.2-2.2,1.2c-2,0-3.1-1.7-3.1-3.5c0-1.8,1.2-3.4,3.1-3.4c1,0,1.8,0.5,2.3,1.3h0v-1.1h1.3V139.5z M301.7,136.4
			c0-1.3-0.8-2.4-2.1-2.4c-1.3,0-2.1,1.1-2.1,2.4c0,1.2,0.7,2.4,2.1,2.4C301,138.8,301.7,137.7,301.7,136.4z"/>
		<path d="M308.1,127.5v6.5h0c0.4-0.7,1.2-1.1,2-1.1c1.8,0,2.3,1.2,2.3,2.8v3.9h-1.3v-3.8c0-1.1-0.2-1.9-1.4-1.9
			c-1.6,0-1.6,1.4-1.6,2.6v3h-1.3v-12.2H308.1z"/>
		<path d="M317.8,139.7h-1.3v-5.4h-0.7v-1.2h0.7v-2.5h1.3v2.5h1.2v1.2h-1.2V139.7z"/>
		<path d="M323.3,139.7H322v-12.2h1.3V139.7z"/>
		<path d="M326.3,133.1h1.5l2.2,4.2l2.1-4.2h1.4l-5.3,10.3h-1.4l2.6-4.9L326.3,133.1z"/>
		<path d="M343.4,136.6c0,1.1,0.8,2.2,2,2.2c1,0,1.5-0.5,2-1.3l1.1,0.6c-0.6,1.1-1.8,1.8-3,1.8c-2,0-3.2-1.5-3.2-3.4
			c0-2,1.1-3.5,3.2-3.5c2.1,0,3.1,1.5,3.1,3.5v0.2H343.4z M347.1,135.6c-0.2-1-0.8-1.6-1.8-1.6c-1,0-1.7,0.7-1.9,1.6H347.1z"/>
		<path d="M353.9,137.2l1.9-4.1h1.4l-3.3,6.8l-3.3-6.8h1.4L353.9,137.2z"/>
		<path d="M360.9,136.6c0,1.1,0.8,2.2,2,2.2c1,0,1.5-0.5,2-1.3l1.1,0.6c-0.6,1.1-1.8,1.8-3,1.8c-2,0-3.2-1.5-3.2-3.4
			c0-2,1.1-3.5,3.2-3.5c2.1,0,3.1,1.5,3.1,3.5v0.2H360.9z M364.6,135.6c-0.2-1-0.8-1.6-1.8-1.6c-1,0-1.7,0.7-1.9,1.6H364.6z"/>
		<path d="M370.5,134L370.5,134c0.4-0.7,1.2-1.1,2-1.1c1.8,0,2.3,1.2,2.3,2.8v3.9h-1.3v-3.8c0-1.1-0.2-1.9-1.4-1.9
			c-1.6,0-1.6,1.4-1.6,2.6v3h-1.3v-6.6h1.3V134z"/>
		<path d="M380.2,139.7H379v-5.4h-0.7v-1.2h0.7v-2.5h1.3v2.5h1.2v1.2h-1.2V139.7z"/>
		<path d="M387,134.6c-0.2-0.3-0.5-0.6-0.8-0.6c-0.4,0-0.7,0.3-0.7,0.6c0,0.6,0.8,0.8,1.5,1.2s1.5,0.8,1.5,1.9c0,1.2-1,2.2-2.3,2.2
			c-1,0-1.9-0.5-2.3-1.5l1.1-0.5c0.3,0.5,0.6,0.8,1.2,0.8c0.5,0,1-0.4,1-0.9c0-0.4-0.2-0.5-0.5-0.7l-1.2-0.7
			c-0.7-0.4-1.3-0.8-1.3-1.7c0-1.1,0.9-1.9,1.9-1.9c0.8,0,1.4,0.4,1.8,1.1L387,134.6z"/>
		<path d="M404.4,139.7h-1.3v-1h0c-0.5,0.7-1.3,1.2-2.2,1.2c-2,0-3.1-1.7-3.1-3.5c0-1.8,1.2-3.4,3.1-3.4c1,0,1.8,0.5,2.3,1.3h0v-1.1
			h1.3V139.7z M403.2,136.4c0-1.3-0.8-2.4-2.1-2.4c-1.3,0-2.1,1.1-2.1,2.4c0,1.2,0.7,2.4,2.1,2.4
			C402.5,138.8,403.2,137.7,403.2,136.4z"/>
		<path d="M409.8,139.7h-1.3v-5.4h-0.7v-1.2h0.7v-2.5h1.3v2.5h1.2v1.2h-1.2V139.7z"/>
		<path d="M421.6,139.7h-1.3v-5.4h-0.7v-1.2h0.7v-2.5h1.3v2.5h1.2v1.2h-1.2V139.7z"/>
		<path d="M427.1,127.5v6.5h0c0.4-0.7,1.2-1.1,2-1.1c1.8,0,2.3,1.2,2.3,2.8v3.9h-1.3v-3.8c0-1.1-0.2-1.9-1.4-1.9
			c-1.6,0-1.6,1.4-1.6,2.6v3h-1.3v-12.2H427.1z"/>
		<path d="M436.1,136.6c0,1.1,0.8,2.2,2,2.2c1,0,1.5-0.5,2-1.3l1.1,0.6c-0.6,1.1-1.8,1.8-3,1.8c-2,0-3.2-1.5-3.2-3.4
			c0-2,1.1-3.5,3.2-3.5c2.1,0,3.1,1.5,3.1,3.5v0.2H436.1z M439.9,135.6c-0.2-1-0.8-1.6-1.8-1.6c-1,0-1.7,0.7-1.9,1.6H439.9z"/>
		<path d="M5.3,156.2c-0.5-0.6-1.1-0.9-1.9-0.9c-1.2,0-2.2,1.1-2.2,2.3c0,1.3,0.9,2.3,2.3,2.3c0.7,0,1.3-0.3,1.8-0.9v1.6
			c-0.6,0.3-1.1,0.4-1.8,0.4c-1.9,0-3.5-1.5-3.5-3.4c0-2,1.6-3.5,3.6-3.5c0.6,0,1.2,0.1,1.7,0.4V156.2z"/>
		<path d="M10.2,160.9H9v-12.2h1.3V160.9z"/>
		<path d="M15.5,154.3v3.6c0,1.1,0.3,2,1.5,2s1.5-0.9,1.5-2v-3.6h1.3v3.8c0,1.8-0.8,3-2.8,3s-2.8-1.2-2.8-3v-3.8H15.5z"/>
		<path d="M23.6,148.7h1.3v6.7h0c0.5-0.8,1.3-1.3,2.3-1.3c1.9,0,3.1,1.6,3.1,3.4c0,1.9-1.1,3.5-3.1,3.5c-0.9,0-1.7-0.5-2.2-1.2h0v1
			h-1.3V148.7z M29,157.6c0-1.3-0.8-2.4-2.1-2.4c-1.3,0-2.1,1.1-2.1,2.4c0,1.2,0.7,2.4,2.1,2.4C28.2,160,29,158.9,29,157.6z"/>
		<path d="M36.3,155.8c-0.2-0.3-0.5-0.6-0.8-0.6c-0.4,0-0.7,0.3-0.7,0.6c0,0.6,0.8,0.8,1.5,1.2s1.5,0.8,1.5,1.9c0,1.2-1,2.2-2.3,2.2
			c-1,0-1.9-0.5-2.3-1.5l1.1-0.5c0.3,0.5,0.6,0.8,1.2,0.8c0.5,0,1-0.4,1-0.9c0-0.4-0.2-0.5-0.5-0.7l-1.2-0.7
			c-0.7-0.4-1.3-0.8-1.3-1.7c0-1.1,0.9-1.9,1.9-1.9c0.8,0,1.4,0.4,1.8,1.1L36.3,155.8z"/>
		<path d="M43.3,160.3c0,0.4-0.4,0.8-0.8,0.8s-0.8-0.4-0.8-0.8c0-0.4,0.4-0.8,0.8-0.8S43.3,159.8,43.3,160.3z"/>
		<path d="M55.3,159.7h3.2v1.2H54v-10.6h1.3V159.7z"/>
		<path d="M67.7,160.9h-1.3v-1h0c-0.5,0.7-1.3,1.2-2.2,1.2c-2,0-3.1-1.7-3.1-3.5c0-1.8,1.2-3.4,3.1-3.4c1,0,1.8,0.5,2.3,1.3h0v-1.1
			h1.3V160.9z M66.5,157.6c0-1.3-0.8-2.4-2.1-2.4c-1.3,0-2.1,1.1-2.1,2.4c0,1.2,0.7,2.4,2.1,2.4C65.7,160,66.5,158.9,66.5,157.6z"/>
		<path d="M73,160.9h-1.3v-5.4H71v-1.2h0.7v-2.5H73v2.5h1.2v1.2H73V160.9z"/>
		<path d="M77.9,157.8c0,1.1,0.8,2.2,2,2.2c1,0,1.5-0.5,2-1.3l1.1,0.6c-0.6,1.1-1.8,1.8-3,1.8c-2,0-3.2-1.5-3.2-3.4
			c0-2,1.1-3.5,3.2-3.5c2.1,0,3.1,1.5,3.1,3.5v0.2H77.9z M81.6,156.8c-0.2-1-0.8-1.6-1.8-1.6c-1,0-1.7,0.7-1.9,1.6H81.6z"/>
		<path d="M87.6,155.4L87.6,155.4c0.4-0.8,1-1.3,1.8-1.3c0.4,0,0.7,0.1,1,0.3l-0.6,1.1c-0.2-0.2-0.5-0.3-0.8-0.3
			c-1.4,0-1.5,1.3-1.5,2.3v3.2h-1.3v-6.6h1.3V155.4z"/>
		<path d="M101.1,160.9h-1.3v-10.6h1.3V160.9z"/>
		<path d="M112.9,160.9h-1.3v-5.4h-0.7v-1.2h0.7v-2.5h1.3v2.5h1.2v1.2h-1.2V160.9z"/>
		<path d="M123.4,157.6c0,2-1.5,3.5-3.5,3.5c-2,0-3.5-1.5-3.5-3.5s1.5-3.5,3.5-3.5C121.9,154.1,123.4,155.6,123.4,157.6z
			 M117.7,157.6c0,1.2,1,2.3,2.2,2.3c1.2,0,2.2-1.1,2.2-2.3c0-1.2-1-2.3-2.2-2.3C118.7,155.3,117.7,156.4,117.7,157.6z"/>
		<path d="M133.2,157.6c0,2-1.5,3.5-3.5,3.5c-2,0-3.5-1.5-3.5-3.5s1.5-3.5,3.5-3.5C131.7,154.1,133.2,155.6,133.2,157.6z
			 M127.5,157.6c0,1.2,1,2.3,2.2,2.3c1.2,0,2.2-1.1,2.2-2.3c0-1.2-1-2.3-2.2-2.3C128.5,155.3,127.5,156.4,127.5,157.6z"/>
		<path d="M138,156.8l2.5-2.5h1.7l-2.8,2.7l3.1,3.8h-1.6l-2.3-3l-0.4,0.4v2.5h-1.3v-12.2h1.3V156.8z"/>
		<path d="M158,157.6c0,2-1.5,3.5-3.5,3.5c-2,0-3.5-1.5-3.5-3.5s1.5-3.5,3.5-3.5C156.5,154.1,158,155.6,158,157.6z M152.3,157.6
			c0,1.2,1,2.3,2.2,2.3c1.2,0,2.2-1.1,2.2-2.3c0-1.2-1-2.3-2.2-2.3C153.3,155.3,152.3,156.4,152.3,157.6z"/>
		<path d="M162.7,155.2L162.7,155.2c0.4-0.7,1.2-1.1,2-1.1c1.8,0,2.3,1.2,2.3,2.8v3.9h-1.3v-3.8c0-1.1-0.2-1.9-1.4-1.9
			c-1.6,0-1.6,1.4-1.6,2.6v3h-1.3v-6.6h1.3V155.2z"/>
		<path d="M178.4,155.4L178.4,155.4c0.5-0.8,1.3-1.3,2.3-1.3c1.9,0,3.1,1.6,3.1,3.4c0,1.9-1.1,3.5-3.1,3.5c-0.9,0-1.7-0.5-2.2-1.2h0
			v4.8h-1.3v-10.3h1.3V155.4z M182.6,157.6c0-1.3-0.8-2.4-2.1-2.4c-1.3,0-2.1,1.1-2.1,2.4c0,1.2,0.7,2.4,2.1,2.4
			C181.8,160,182.6,158.9,182.6,157.6z"/>
		<path d="M188.6,155.4L188.6,155.4c0.4-0.8,1-1.3,1.8-1.3c0.4,0,0.7,0.1,1,0.3l-0.6,1.1c-0.2-0.2-0.5-0.3-0.8-0.3
			c-1.4,0-1.5,1.3-1.5,2.3v3.2h-1.3v-6.6h1.3V155.4z"/>
		<path d="M196.2,151.3c0,0.5-0.4,0.9-0.9,0.9c-0.5,0-0.9-0.4-0.9-0.9c0-0.5,0.4-0.9,0.9-0.9C195.8,150.4,196.2,150.8,196.2,151.3z
			 M196,160.9h-1.3v-6.6h1.3V160.9z"/>
		<path d="M201.5,155.2L201.5,155.2c0.4-0.7,1.2-1.1,2-1.1c1.8,0,2.3,1.2,2.3,2.8v3.9h-1.3v-3.8c0-1.1-0.2-1.9-1.4-1.9
			c-1.6,0-1.6,1.4-1.6,2.6v3h-1.3v-6.6h1.3V155.2z"/>
		<path d="M211.2,160.9H210v-5.4h-0.7v-1.2h0.7v-2.5h1.3v2.5h1.2v1.2h-1.2V160.9z"/>
		<path d="M217.2,151.3c0,0.5-0.4,0.9-0.9,0.9c-0.5,0-0.9-0.4-0.9-0.9c0-0.5,0.4-0.9,0.9-0.9C216.8,150.4,217.2,150.8,217.2,151.3z
			 M216.9,160.9h-1.3v-6.6h1.3V160.9z"/>
		<path d="M222.5,155.2L222.5,155.2c0.4-0.7,1.2-1.1,2-1.1c1.8,0,2.3,1.2,2.3,2.8v3.9h-1.3v-3.8c0-1.1-0.2-1.9-1.4-1.9
			c-1.6,0-1.6,1.4-1.6,2.6v3h-1.3v-6.6h1.3V155.2z"/>
		<path d="M236.9,160.7c0,2.3-0.6,3.9-3.2,3.9c-1.8,0-3.1-1.1-3.2-3h1.3c0,1.2,0.8,1.8,2,1.8c1.6,0,1.9-1.1,1.9-2.4v-1.2h0
			c-0.5,0.7-1.3,1.2-2.2,1.2c-2,0-3.1-1.7-3.1-3.5c0-1.8,1.2-3.4,3.1-3.4c1,0,1.8,0.5,2.3,1.3h0v-1.1h1.3V160.7z M235.7,157.6
			c0-1.3-0.8-2.4-2.1-2.4c-1.3,0-2.1,1.1-2.1,2.4c0,1.2,0.7,2.4,2.1,2.4C234.9,160,235.7,158.9,235.7,157.6z"/>
		<path d="M251.9,159.8L251.9,159.8c-0.5,0.7-1.3,1.2-2.3,1.2c-2,0-3.1-1.7-3.1-3.5c0-1.8,1.2-3.4,3.1-3.4c1,0,1.8,0.5,2.3,1.3h0
			v-6.7h1.3v12.2h-1.3V159.8z M252,157.6c0-1.3-0.8-2.4-2.1-2.4c-1.3,0-2.1,1.1-2.1,2.4c0,1.2,0.7,2.4,2.1,2.4
			C251.3,160,252,158.9,252,157.6z"/>
		<path d="M258.3,154.3v3.6c0,1.1,0.3,2,1.5,2s1.5-0.9,1.5-2v-3.6h1.3v3.8c0,1.8-0.8,3-2.8,3s-2.8-1.2-2.8-3v-3.8H258.3z"/>
		<path d="M267.9,160.9h-1.3v-5.4H266v-1.2h0.7v-2.5h1.3v2.5h1.2v1.2h-1.2V160.9z"/>
		<path d="M273.9,151.3c0,0.5-0.4,0.9-0.9,0.9c-0.5,0-0.9-0.4-0.9-0.9c0-0.5,0.4-0.9,0.9-0.9C273.5,150.4,273.9,150.8,273.9,151.3z
			 M273.6,160.9h-1.3v-6.6h1.3V160.9z"/>
		<path d="M278.6,157.8c0,1.1,0.8,2.2,2,2.2c1,0,1.5-0.5,2-1.3l1.1,0.6c-0.6,1.1-1.8,1.8-3,1.8c-2,0-3.2-1.5-3.2-3.4
			c0-2,1.1-3.5,3.2-3.5c2.1,0,3.1,1.5,3.1,3.5v0.2H278.6z M282.4,156.8c-0.2-1-0.8-1.6-1.8-1.6c-1,0-1.7,0.7-1.9,1.6H282.4z"/>
		<path d="M289.6,155.8c-0.2-0.3-0.5-0.6-0.8-0.6c-0.4,0-0.7,0.3-0.7,0.6c0,0.6,0.8,0.8,1.5,1.2s1.5,0.8,1.5,1.9
			c0,1.2-1,2.2-2.3,2.2c-1,0-1.9-0.5-2.3-1.5l1.1-0.5c0.3,0.5,0.6,0.8,1.2,0.8c0.5,0,1-0.4,1-0.9c0-0.4-0.2-0.5-0.5-0.7l-1.2-0.7
			c-0.7-0.4-1.3-0.8-1.3-1.7c0-1.1,0.9-1.9,1.9-1.9c0.8,0,1.4,0.4,1.8,1.1L289.6,155.8z"/>
		<path d="M297.1,159.6l-1.9,3.7l-0.8-0.3l1.5-3.9L297.1,159.6z"/>
		<path d="M309.8,155.8c-0.2-0.3-0.5-0.6-0.8-0.6c-0.4,0-0.7,0.3-0.7,0.6c0,0.6,0.8,0.8,1.5,1.2s1.5,0.8,1.5,1.9
			c0,1.2-1,2.2-2.3,2.2c-1,0-1.9-0.5-2.3-1.5l1.1-0.5c0.3,0.5,0.6,0.8,1.2,0.8c0.5,0,1-0.4,1-0.9c0-0.4-0.2-0.5-0.5-0.7l-1.2-0.7
			c-0.7-0.4-1.3-0.8-1.3-1.7c0-1.1,0.9-1.9,1.9-1.9c0.8,0,1.4,0.4,1.8,1.1L309.8,155.8z"/>
		<path d="M321.2,157.6c0,2-1.5,3.5-3.5,3.5c-2,0-3.5-1.5-3.5-3.5s1.5-3.5,3.5-3.5C319.6,154.1,321.2,155.6,321.2,157.6z
			 M315.4,157.6c0,1.2,1,2.3,2.2,2.3c1.2,0,2.2-1.1,2.2-2.3c0-1.2-1-2.3-2.2-2.3C316.4,155.3,315.4,156.4,315.4,157.6z"/>
		<path d="M329.4,156.2c-0.5-0.6-1.1-0.9-1.9-0.9c-1.2,0-2.2,1.1-2.2,2.3c0,1.3,0.9,2.3,2.3,2.3c0.7,0,1.3-0.3,1.8-0.9v1.6
			c-0.6,0.3-1.1,0.4-1.8,0.4c-1.9,0-3.5-1.5-3.5-3.4c0-2,1.6-3.5,3.6-3.5c0.6,0,1.2,0.1,1.7,0.4V156.2z"/>
		<path d="M334.8,151.3c0,0.5-0.4,0.9-0.9,0.9c-0.5,0-0.9-0.4-0.9-0.9c0-0.5,0.4-0.9,0.9-0.9C334.4,150.4,334.8,150.8,334.8,151.3z
			 M334.5,160.9h-1.3v-6.6h1.3V160.9z"/>
		<path d="M344.9,160.9h-1.3v-1h0c-0.5,0.7-1.3,1.2-2.2,1.2c-2,0-3.1-1.7-3.1-3.5c0-1.8,1.2-3.4,3.1-3.4c1,0,1.8,0.5,2.3,1.3h0v-1.1
			h1.3V160.9z M343.7,157.6c0-1.3-0.8-2.4-2.1-2.4c-1.3,0-2.1,1.1-2.1,2.4c0,1.2,0.7,2.4,2.1,2.4C343,160,343.7,158.9,343.7,157.6z"
			/>
		<path d="M350.1,160.9h-1.3v-12.2h1.3V160.9z"/>
		<path d="M361.6,155.1L361.6,155.1c0.4-0.6,1.1-1,1.8-1c0.9,0,1.5,0.4,1.9,1.2c0.4-0.7,1.2-1.2,2-1.2c1.7,0,2.2,1.3,2.2,2.8v3.9
			h-1.3v-3.7c0-0.8-0.1-1.9-1.2-1.9c-1.3,0-1.4,1.4-1.4,2.4v3.2h-1.3v-3.5c0-0.9,0-2.2-1.2-2.2c-1.3,0-1.5,1.4-1.5,2.4v3.2h-1.3
			v-6.6h1.3V155.1z"/>
		<path d="M374.2,157.8c0,1.1,0.8,2.2,2,2.2c1,0,1.5-0.5,2-1.3l1.1,0.6c-0.6,1.1-1.8,1.8-3,1.8c-2,0-3.2-1.5-3.2-3.4
			c0-2,1.1-3.5,3.2-3.5c2.1,0,3.1,1.5,3.1,3.5v0.2H374.2z M377.9,156.8c-0.2-1-0.8-1.6-1.8-1.6c-1,0-1.7,0.7-1.9,1.6H377.9z"/>
		<path d="M387.4,159.8L387.4,159.8c-0.5,0.7-1.3,1.2-2.3,1.2c-2,0-3.1-1.7-3.1-3.5c0-1.8,1.2-3.4,3.1-3.4c1,0,1.8,0.5,2.3,1.3h0
			v-6.7h1.3v12.2h-1.3V159.8z M387.4,157.6c0-1.3-0.8-2.4-2.1-2.4c-1.3,0-2.1,1.1-2.1,2.4c0,1.2,0.7,2.4,2.1,2.4
			C386.7,160,387.4,158.9,387.4,157.6z"/>
		<path d="M394.3,151.3c0,0.5-0.4,0.9-0.9,0.9c-0.5,0-0.9-0.4-0.9-0.9c0-0.5,0.4-0.9,0.9-0.9C393.9,150.4,394.3,150.8,394.3,151.3z
			 M394,160.9h-1.3v-6.6h1.3V160.9z"/>
		<path d="M404.4,160.9h-1.3v-1h0c-0.5,0.7-1.3,1.2-2.2,1.2c-2,0-3.1-1.7-3.1-3.5c0-1.8,1.2-3.4,3.1-3.4c1,0,1.8,0.5,2.3,1.3h0v-1.1
			h1.3V160.9z M403.3,157.6c0-1.3-0.8-2.4-2.1-2.4c-1.3,0-2.1,1.1-2.1,2.4c0,1.2,0.7,2.4,2.1,2.4C402.5,160,403.3,158.9,403.3,157.6
			z"/>
		<path d="M420.8,160.9h-1.3v-1h0c-0.5,0.7-1.3,1.2-2.2,1.2c-2,0-3.1-1.7-3.1-3.5c0-1.8,1.2-3.4,3.1-3.4c1,0,1.8,0.5,2.3,1.3h0v-1.1
			h1.3V160.9z M419.6,157.6c0-1.3-0.8-2.4-2.1-2.4c-1.3,0-2.1,1.1-2.1,2.4c0,1.2,0.7,2.4,2.1,2.4C418.8,160,419.6,158.9,419.6,157.6
			z"/>
		<path d="M427.3,155.8c-0.2-0.3-0.5-0.6-0.8-0.6c-0.4,0-0.7,0.3-0.7,0.6c0,0.6,0.8,0.8,1.5,1.2s1.5,0.8,1.5,1.9
			c0,1.2-1,2.2-2.3,2.2c-1,0-1.9-0.5-2.3-1.5l1.1-0.5c0.3,0.5,0.6,0.8,1.2,0.8c0.5,0,1-0.4,1-0.9c0-0.4-0.2-0.5-0.5-0.7l-1.2-0.7
			c-0.7-0.4-1.3-0.8-1.3-1.7c0-1.1,0.9-1.9,1.9-1.9c0.8,0,1.4,0.4,1.8,1.1L427.3,155.8z"/>
		<path d="M434.9,155.8c-0.2-0.3-0.5-0.6-0.8-0.6c-0.4,0-0.7,0.3-0.7,0.6c0,0.6,0.8,0.8,1.5,1.2s1.5,0.8,1.5,1.9
			c0,1.2-1,2.2-2.3,2.2c-1,0-1.9-0.5-2.3-1.5l1.1-0.5c0.3,0.5,0.6,0.8,1.2,0.8c0.5,0,1-0.4,1-0.9c0-0.4-0.2-0.5-0.5-0.7l-1.2-0.7
			c-0.7-0.4-1.3-0.8-1.3-1.7c0-1.1,0.9-1.9,1.9-1.9c0.8,0,1.4,0.4,1.8,1.1L434.9,155.8z"/>
		<path d="M440.6,157.8c0,1.1,0.8,2.2,2,2.2c1,0,1.5-0.5,2-1.3l1.1,0.6c-0.6,1.1-1.8,1.8-3,1.8c-2,0-3.2-1.5-3.2-3.4
			c0-2,1.1-3.5,3.2-3.5c2.1,0,3.1,1.5,3.1,3.5v0.2H440.6z M444.4,156.8c-0.2-1-0.8-1.6-1.8-1.6c-1,0-1.7,0.7-1.9,1.6H444.4z"/>
		<path d="M450.4,160.9h-1.3v-5.4h-0.7v-1.2h0.7v-2.5h1.3v2.5h1.2v1.2h-1.2V160.9z"/>
		<path d="M467,160.9h-1.3v-1h0c-0.5,0.7-1.3,1.2-2.2,1.2c-2,0-3.1-1.7-3.1-3.5c0-1.8,1.2-3.4,3.1-3.4c1,0,1.8,0.5,2.3,1.3h0v-1.1
			h1.3V160.9z M465.8,157.6c0-1.3-0.8-2.4-2.1-2.4c-1.3,0-2.1,1.1-2.1,2.4c0,1.2,0.7,2.4,2.1,2.4C465,160,465.8,158.9,465.8,157.6z"
			/>
		<path d="M472.1,155.2L472.1,155.2c0.4-0.7,1.2-1.1,2-1.1c1.8,0,2.3,1.2,2.3,2.8v3.9h-1.3v-3.8c0-1.1-0.2-1.9-1.4-1.9
			c-1.6,0-1.6,1.4-1.6,2.6v3h-1.3v-6.6h1.3V155.2z"/>
		<path d="M485.3,159.8L485.3,159.8c-0.5,0.7-1.3,1.2-2.3,1.2c-2,0-3.1-1.7-3.1-3.5c0-1.8,1.2-3.4,3.1-3.4c1,0,1.8,0.5,2.3,1.3h0
			v-6.7h1.3v12.2h-1.3V159.8z M485.4,157.6c0-1.3-0.8-2.4-2.1-2.4c-1.3,0-2.1,1.1-2.1,2.4c0,1.2,0.7,2.4,2.1,2.4
			C484.6,160,485.4,158.9,485.4,157.6z"/>
		<path d="M3.1,177c-0.2-0.3-0.5-0.6-0.8-0.6c-0.4,0-0.7,0.3-0.7,0.6c0,0.6,0.8,0.8,1.5,1.2s1.5,0.8,1.5,1.9c0,1.2-1,2.2-2.3,2.2
			c-1,0-1.9-0.5-2.3-1.5l1.1-0.5c0.3,0.5,0.6,0.8,1.2,0.8c0.5,0,1-0.4,1-0.9c0-0.4-0.2-0.5-0.5-0.7l-1.2-0.7
			c-0.7-0.4-1.3-0.8-1.3-1.7c0-1.1,0.9-1.9,1.9-1.9c0.8,0,1.4,0.4,1.8,1.1L3.1,177z"/>
		<path d="M9.3,176.6L9.3,176.6c0.5-0.8,1.3-1.3,2.3-1.3c1.9,0,3.1,1.6,3.1,3.4c0,1.9-1.1,3.5-3.1,3.5c-0.9,0-1.7-0.5-2.2-1.2h0v4.8
			H8v-10.3h1.3V176.6z M13.4,178.8c0-1.3-0.8-2.4-2.1-2.4c-1.3,0-2.1,1.1-2.1,2.4c0,1.2,0.7,2.4,2.1,2.4
			C12.7,181.2,13.4,180.1,13.4,178.8z"/>
		<path d="M18.9,179c0,1.1,0.8,2.2,2,2.2c1,0,1.5-0.5,2-1.3l1.1,0.6c-0.6,1.1-1.8,1.8-3,1.8c-2,0-3.2-1.5-3.2-3.4
			c0-2,1.1-3.5,3.2-3.5c2.1,0,3.1,1.5,3.1,3.5v0.2H18.9z M22.6,178c-0.2-1-0.8-1.6-1.8-1.6c-1,0-1.7,0.7-1.9,1.6H22.6z"/>
		<path d="M32,177.4c-0.5-0.6-1.1-0.9-1.9-0.9c-1.2,0-2.2,1.1-2.2,2.3c0,1.3,0.9,2.3,2.3,2.3c0.7,0,1.3-0.3,1.8-0.9v1.6
			c-0.6,0.3-1.1,0.4-1.8,0.4c-1.9,0-3.5-1.5-3.5-3.4c0-2,1.6-3.5,3.6-3.5c0.6,0,1.2,0.1,1.7,0.4V177.4z"/>
		<path d="M37.4,172.5c0,0.5-0.4,0.9-0.9,0.9c-0.5,0-0.9-0.4-0.9-0.9c0-0.5,0.4-0.9,0.9-0.9C37,171.6,37.4,172,37.4,172.5z
			 M37.2,182.1h-1.3v-6.6h1.3V182.1z"/>
		<path d="M47.6,182.1h-1.3v-1h0c-0.5,0.7-1.3,1.2-2.2,1.2c-2,0-3.1-1.7-3.1-3.5c0-1.8,1.2-3.4,3.1-3.4c1,0,1.8,0.5,2.3,1.3h0v-1.1
			h1.3V182.1z M46.4,178.8c0-1.3-0.8-2.4-2.1-2.4c-1.3,0-2.1,1.1-2.1,2.4c0,1.2,0.7,2.4,2.1,2.4C45.6,181.2,46.4,180.1,46.4,178.8z"
			/>
		<path d="M52.8,182.1h-1.3v-12.2h1.3V182.1z"/>
		<path d="M63.8,179c0,1.1,0.8,2.2,2,2.2c1,0,1.5-0.5,2-1.3l1.1,0.6c-0.6,1.1-1.8,1.8-3,1.8c-2,0-3.2-1.5-3.2-3.4
			c0-2,1.1-3.5,3.2-3.5c2.1,0,3.1,1.5,3.1,3.5v0.2H63.8z M67.6,178c-0.2-1-0.8-1.6-1.8-1.6c-1,0-1.7,0.7-1.9,1.6H67.6z"/>
		<path d="M74.4,179.6l1.9-4.1h1.4l-3.3,6.8l-3.3-6.8h1.4L74.4,179.6z"/>
		<path d="M81.4,179c0,1.1,0.8,2.2,2,2.2c1,0,1.5-0.5,2-1.3l1.1,0.6c-0.6,1.1-1.8,1.8-3,1.8c-2,0-3.2-1.5-3.2-3.4
			c0-2,1.1-3.5,3.2-3.5c2.1,0,3.1,1.5,3.1,3.5v0.2H81.4z M85.1,178c-0.2-1-0.8-1.6-1.8-1.6c-1,0-1.7,0.7-1.9,1.6H85.1z"/>
		<path d="M91,176.4L91,176.4c0.4-0.7,1.2-1.1,2-1.1c1.8,0,2.3,1.2,2.3,2.8v3.9H94v-3.8c0-1.1-0.2-1.9-1.4-1.9
			c-1.6,0-1.6,1.4-1.6,2.6v3h-1.3v-6.6H91V176.4z"/>
		<path d="M100.7,182.1h-1.3v-5.4h-0.7v-1.2h0.7V173h1.3v2.5h1.2v1.2h-1.2V182.1z"/>
		<path d="M113.8,177c-0.2-0.3-0.5-0.6-0.8-0.6c-0.4,0-0.7,0.3-0.7,0.6c0,0.6,0.8,0.8,1.5,1.2s1.5,0.8,1.5,1.9c0,1.2-1,2.2-2.3,2.2
			c-1,0-1.9-0.5-2.3-1.5l1.1-0.5c0.3,0.5,0.6,0.8,1.2,0.8c0.5,0,1-0.4,1-0.9c0-0.4-0.2-0.5-0.5-0.7l-1.2-0.7
			c-0.7-0.4-1.3-0.8-1.3-1.7c0-1.1,0.9-1.9,1.9-1.9c0.8,0,1.4,0.4,1.8,1.1L113.8,177z"/>
		<path d="M120.5,172.5c0,0.5-0.4,0.9-0.9,0.9c-0.5,0-0.9-0.4-0.9-0.9c0-0.5,0.4-0.9,0.9-0.9C120.1,171.6,120.5,172,120.5,172.5z
			 M120.3,182.1H119v-6.6h1.3V182.1z"/>
		<path d="M130.7,181.9c0,2.3-0.6,3.9-3.2,3.9c-1.8,0-3.1-1.1-3.2-3h1.3c0,1.2,0.8,1.8,2,1.8c1.6,0,1.9-1.1,1.9-2.4V181h0
			c-0.5,0.7-1.3,1.2-2.2,1.2c-2,0-3.1-1.7-3.1-3.5c0-1.8,1.2-3.4,3.1-3.4c1,0,1.8,0.5,2.3,1.3h0v-1.1h1.3V181.9z M129.5,178.8
			c0-1.3-0.8-2.4-2.1-2.4c-1.3,0-2.1,1.1-2.1,2.4c0,1.2,0.7,2.4,2.1,2.4C128.7,181.2,129.5,180.1,129.5,178.8z"/>
		<path d="M135.8,176.4L135.8,176.4c0.4-0.7,1.2-1.1,2-1.1c1.8,0,2.3,1.2,2.3,2.8v3.9h-1.3v-3.8c0-1.1-0.2-1.9-1.4-1.9
			c-1.6,0-1.6,1.4-1.6,2.6v3h-1.3v-6.6h1.3V176.4z"/>
		<path d="M150.3,182.1H149v-1h0c-0.5,0.7-1.3,1.2-2.2,1.2c-2,0-3.1-1.7-3.1-3.5c0-1.8,1.2-3.4,3.1-3.4c1,0,1.8,0.5,2.3,1.3h0v-1.1
			h1.3V182.1z M149.1,178.8c0-1.3-0.8-2.4-2.1-2.4c-1.3,0-2.1,1.1-2.1,2.4c0,1.2,0.7,2.4,2.1,2.4
			C148.3,181.2,149.1,180.1,149.1,178.8z"/>
		<path d="M160.3,181.9c0,2.3-0.6,3.9-3.2,3.9c-1.8,0-3.1-1.1-3.2-3h1.3c0,1.2,0.8,1.8,2,1.8c1.6,0,1.9-1.1,1.9-2.4V181h0
			c-0.5,0.7-1.3,1.2-2.2,1.2c-2,0-3.1-1.7-3.1-3.5c0-1.8,1.2-3.4,3.1-3.4c1,0,1.8,0.5,2.3,1.3h0v-1.1h1.3V181.9z M159.1,178.8
			c0-1.3-0.8-2.4-2.1-2.4c-1.3,0-2.1,1.1-2.1,2.4c0,1.2,0.7,2.4,2.1,2.4C158.3,181.2,159.1,180.1,159.1,178.8z"/>
		<path d="M164.9,179c0,1.1,0.8,2.2,2,2.2c1,0,1.5-0.5,2-1.3l1.1,0.6c-0.6,1.1-1.8,1.8-3,1.8c-2,0-3.2-1.5-3.2-3.4
			c0-2,1.1-3.5,3.2-3.5c2.1,0,3.1,1.5,3.1,3.5v0.2H164.9z M168.7,178c-0.2-1-0.8-1.6-1.8-1.6c-1,0-1.7,0.7-1.9,1.6H168.7z"/>
		<path d="M184.3,177.4c-0.5-0.6-1.1-0.9-1.9-0.9c-1.2,0-2.2,1.1-2.2,2.3c0,1.3,0.9,2.3,2.3,2.3c0.7,0,1.3-0.3,1.8-0.9v1.6
			c-0.6,0.3-1.1,0.4-1.8,0.4c-1.9,0-3.5-1.5-3.5-3.4c0-2,1.6-3.5,3.6-3.5c0.6,0,1.2,0.1,1.7,0.4V177.4z"/>
		<path d="M189.3,176.6L189.3,176.6c0.4-0.8,1-1.3,1.8-1.3c0.4,0,0.7,0.1,1,0.3l-0.6,1.1c-0.2-0.2-0.5-0.3-0.8-0.3
			c-1.4,0-1.5,1.3-1.5,2.3v3.2H188v-6.6h1.3V176.6z"/>
		<path d="M195.8,179c0,1.1,0.8,2.2,2,2.2c1,0,1.5-0.5,2-1.3l1.1,0.6c-0.6,1.1-1.8,1.8-3,1.8c-2,0-3.2-1.5-3.2-3.4
			c0-2,1.1-3.5,3.2-3.5c2.1,0,3.1,1.5,3.1,3.5v0.2H195.8z M199.6,178c-0.2-1-0.8-1.6-1.8-1.6c-1,0-1.7,0.7-1.9,1.6H199.6z"/>
		<path d="M210.3,182.1h-1.3v-1h0c-0.5,0.7-1.3,1.2-2.2,1.2c-2,0-3.1-1.7-3.1-3.5c0-1.8,1.2-3.4,3.1-3.4c1,0,1.8,0.5,2.3,1.3h0v-1.1
			h1.3V182.1z M209.1,178.8c0-1.3-0.8-2.4-2.1-2.4c-1.3,0-2.1,1.1-2.1,2.4c0,1.2,0.7,2.4,2.1,2.4
			C208.4,181.2,209.1,180.1,209.1,178.8z"/>
		<path d="M215.6,182.1h-1.3v-5.4h-0.7v-1.2h0.7V173h1.3v2.5h1.2v1.2h-1.2V182.1z"/>
		<path d="M221.6,172.5c0,0.5-0.4,0.9-0.9,0.9c-0.5,0-0.9-0.4-0.9-0.9c0-0.5,0.4-0.9,0.9-0.9C221.2,171.6,221.6,172,221.6,172.5z
			 M221.3,182.1h-1.3v-6.6h1.3V182.1z"/>
		<path d="M232,178.8c0,2-1.5,3.5-3.5,3.5c-2,0-3.5-1.5-3.5-3.5s1.5-3.5,3.5-3.5C230.5,175.3,232,176.8,232,178.8z M226.3,178.8
			c0,1.2,1,2.3,2.2,2.3c1.2,0,2.2-1.1,2.2-2.3c0-1.2-1-2.3-2.2-2.3C227.2,176.5,226.3,177.6,226.3,178.8z"/>
		<path d="M236.6,176.4L236.6,176.4c0.4-0.7,1.2-1.1,2-1.1c1.8,0,2.3,1.2,2.3,2.8v3.9h-1.3v-3.8c0-1.1-0.2-1.9-1.4-1.9
			c-1.6,0-1.6,1.4-1.6,2.6v3h-1.3v-6.6h1.3V176.4z"/>
		<path d="M246.9,181.5c0,0.4-0.4,0.8-0.8,0.8s-0.8-0.4-0.8-0.8c0-0.4,0.4-0.8,0.8-0.8S246.9,181,246.9,181.5z"/>
	</g>
</g>
</svg>
