<?xml version="1.0" encoding="utf-8"?>
<!-- Generator: Adobe Illustrator 19.0.1, SVG Export Plug-In . SVG Version: 6.00 Build 0)  -->
<svg version="1.1" xmlns="http://www.w3.org/2000/svg" xmlns:xlink="http://www.w3.org/1999/xlink" x="0px" y="0px"
	 viewBox="0 0 486.6 185.8" style="enable-background:new 0 0 486.6 185.8;" xml:space="preserve">
<style type="text/css">
	.st0{display:none;}
	.st1{display:inline;fill:#FFFFFF;}
	.st2{fill:#FFFFFF;}
	.st3{fill:#3399CC;}
	.st4{fill:#F9D04B;}
	.st5{clip-path:url(#SVGID_4_);}
	.st6{clip-path:url(#SVGID_5_);}
	.st7{fill:none;stroke:#FFFFFF;stroke-width:0.7615;stroke-miterlimit:10;}
	.st8{clip-path:url(#SVGID_8_);}
	.st9{clip-path:url(#SVGID_12_);}
	.st10{fill:#F49A32;}
	.st11{clip-path:url(#SVGID_16_);}
	.st12{clip-path:url(#SVGID_20_);}
	.st13{clip-path:url(#SVGID_26_);}
	.st14{opacity:0.49;clip-path:url(#SVGID_26_);}
	.st15{opacity:0.49;}
	.st16{opacity:0.5;clip-path:url(#SVGID_26_);}
	.st17{opacity:0.5;}
	.st18{fill:none;stroke:#FFFFFF;stroke-width:1.0312;}
	.st19{clip-path:url(#SVGID_26_);fill:none;stroke:#FFFFFF;stroke-width:1.1321;}
	.st20{fill-rule:evenodd;clip-rule:evenodd;fill:#FFFFFF;}
	.st21{fill:#C77F44;}
	.st22{fill:url(#SVGID_31_);}
	.st23{fill:url(#SVGID_32_);}
	.st24{fill:url(#SVGID_33_);}
	.st25{fill:url(#SVGID_34_);}
	.st26{fill:url(#SVGID_35_);}
	.st27{fill:url(#SVGID_36_);}
	.st28{fill:url(#SVGID_37_);}
	.st29{fill:url(#SVGID_38_);}
	.st30{fill:url(#SVGID_39_);}
	.st31{fill:url(#SVGID_40_);}
	.st32{fill:url(#SVGID_41_);}
	.st33{fill:url(#SVGID_42_);}
	.st34{fill:url(#SVGID_43_);}
	.st35{fill:url(#SVGID_44_);}
	.st36{fill:url(#SVGID_45_);}
	.st37{fill:url(#SVGID_46_);}
	.st38{fill:url(#SVGID_47_);}
	.st39{fill:url(#SVGID_48_);}
	.st40{fill:url(#SVGID_49_);}
	.st41{fill:url(#SVGID_50_);}
	.st42{fill:url(#SVGID_51_);}
	.st43{fill:url(#SVGID_52_);}
	.st44{fill:url(#SVGID_53_);}
	.st45{fill:url(#SVGID_54_);}
	.st46{fill:url(#SVGID_55_);}
	.st47{fill:url(#SVGID_56_);}
	.st48{fill:url(#SVGID_57_);}
	.st49{fill-rule:evenodd;clip-rule:evenodd;fill:url(#SVGID_58_);}
	.st50{fill-rule:evenodd;clip-rule:evenodd;fill:url(#SVGID_59_);}
	.st51{fill-rule:evenodd;clip-rule:evenodd;fill:url(#SVGID_60_);}
	.st52{fill:url(#SVGID_61_);}
	.st53{fill-rule:evenodd;clip-rule:evenodd;fill:url(#SVGID_62_);}
	.st54{fill-rule:evenodd;clip-rule:evenodd;fill:url(#SVGID_63_);}
	.st55{fill-rule:evenodd;clip-rule:evenodd;fill:url(#SVGID_64_);}
	.st56{fill:url(#SVGID_65_);}
	.st57{fill:url(#SVGID_66_);}
	.st58{fill:url(#SVGID_67_);}
	.st59{fill:url(#SVGID_68_);}
	.st60{fill:url(#SVGID_69_);}
	.st61{fill:url(#SVGID_70_);}
	.st62{fill:url(#SVGID_71_);}
	.st63{fill:url(#SVGID_72_);}
	.st64{fill:url(#SVGID_73_);}
	.st65{fill:url(#SVGID_74_);}
	.st66{fill:url(#SVGID_75_);}
	.st67{fill:url(#SVGID_76_);}
	.st68{fill:url(#SVGID_77_);}
	.st69{fill:url(#SVGID_78_);}
	.st70{fill:url(#SVGID_79_);}
	.st71{fill:url(#SVGID_80_);}
	.st72{fill:url(#SVGID_81_);}
	.st73{fill:url(#SVGID_82_);}
	.st74{fill:url(#SVGID_83_);}
	.st75{fill:url(#SVGID_84_);}
	.st76{fill:url(#SVGID_85_);}
	.st77{fill:url(#SVGID_86_);}
	.st78{fill:url(#SVGID_87_);}
	.st79{fill-rule:evenodd;clip-rule:evenodd;fill:url(#SVGID_88_);}
	.st80{fill-rule:evenodd;clip-rule:evenodd;fill:url(#SVGID_89_);}
	.st81{fill-rule:evenodd;clip-rule:evenodd;fill:url(#SVGID_90_);}
	.st82{fill:url(#SVGID_91_);}
	.st83{fill:url(#SVGID_92_);}
	.st84{fill-rule:evenodd;clip-rule:evenodd;fill:url(#SVGID_93_);}
	.st85{fill:url(#SVGID_94_);}
	.st86{fill-rule:evenodd;clip-rule:evenodd;fill:url(#SVGID_95_);}
	.st87{fill-rule:evenodd;clip-rule:evenodd;fill:url(#SVGID_96_);}
	.st88{fill-rule:evenodd;clip-rule:evenodd;fill:url(#SVGID_97_);}
	.st89{fill-rule:evenodd;clip-rule:evenodd;fill:url(#SVGID_98_);}
	.st90{clip-path:url(#SVGID_100_);}
	.st91{fill:#336699;}
	.st92{clip-path:url(#SVGID_108_);}
	.st93{fill:#00305B;}
	.st94{filter:url(#Adobe_OpacityMaskFilter);}
	.st95{clip-path:url(#SVGID_108_);fill:url(#SVGID_110_);}
	.st96{filter:url(#Adobe_OpacityMaskFilter_1_);}
	.st97{clip-path:url(#SVGID_108_);fill:url(#SVGID_112_);}
	.st98{filter:url(#Adobe_OpacityMaskFilter_2_);}
	.st99{clip-path:url(#SVGID_108_);fill:url(#SVGID_114_);}
	.st100{clip-path:url(#SVGID_108_);mask:url(#SVGID_113_);}
	.st101{filter:url(#Adobe_OpacityMaskFilter_3_);}
	.st102{clip-path:url(#SVGID_108_);fill:url(#SVGID_116_);}
	.st103{clip-path:url(#SVGID_108_);mask:url(#SVGID_115_);}
	.st104{clip-path:url(#SVGID_108_);fill:url(#SVGID_117_);}
	.st105{filter:url(#Adobe_OpacityMaskFilter_4_);}
	.st106{clip-path:url(#SVGID_108_);mask:url(#SVGID_118_);}
	.st107{fill:#FFF100;}
	.st108{clip-path:url(#SVGID_128_);fill:url(#SVGID_129_);}
	.st109{filter:url(#Adobe_OpacityMaskFilter_5_);}
	.st110{clip-path:url(#SVGID_128_);}
	.st111{fill:#D6DE23;}
	.st112{clip-path:url(#SVGID_132_);}
	.st113{filter:url(#Adobe_OpacityMaskFilter_6_);}
	.st114{clip-path:url(#SVGID_132_);mask:url(#SVGID_133_);}
	.st115{clip-path:url(#SVGID_135_);}
	.st116{filter:url(#Adobe_OpacityMaskFilter_7_);}
	.st117{clip-path:url(#SVGID_135_);fill:url(#SVGID_137_);}
	.st118{filter:url(#Adobe_OpacityMaskFilter_8_);}
	.st119{clip-path:url(#SVGID_135_);fill:url(#SVGID_139_);}
	.st120{filter:url(#Adobe_OpacityMaskFilter_9_);}
	.st121{clip-path:url(#SVGID_135_);fill:url(#SVGID_141_);}
	.st122{clip-path:url(#SVGID_135_);mask:url(#SVGID_140_);}
	.st123{filter:url(#Adobe_OpacityMaskFilter_10_);}
	.st124{clip-path:url(#SVGID_135_);fill:url(#SVGID_143_);}
	.st125{clip-path:url(#SVGID_135_);mask:url(#SVGID_142_);}
	.st126{clip-path:url(#SVGID_135_);fill:url(#SVGID_144_);}
	.st127{filter:url(#Adobe_OpacityMaskFilter_11_);}
	.st128{clip-path:url(#SVGID_135_);mask:url(#SVGID_145_);}
</style>
<g id="Layer_1" class="st0">
	<rect x="248.1" y="-53.2" class="st1" width="1280" height="300"/>
</g>
<g id="Layer_2">
	<g>
		<path d="M3.8,12.5H0.7V0.4h3.1V12.5z"/>
		<path d="M9,0.4h3.1l5.7,7.4h0V0.4h3.1v12.1H18l-5.7-7.4h0v7.4H9V0.4z"/>
		<path d="M31.1,12.5H28V3.1h-2.6V0.4h8.3v2.7h-2.6V12.5z"/>
		<path d="M41.2,3.1v2h3.5v2.7h-3.5v2.1h3.7v2.7h-6.9V0.4h6.9v2.7H41.2z"/>
		<path d="M60.1,12.5h-3.9l-3-4.6h0v4.6h-3.1V0.4h4.7c2.4,0,4.2,1.1,4.2,3.7c0,1.7-0.9,3.1-2.6,3.4L60.1,12.5z M53.2,5.8h0.3
			c1,0,2.2-0.2,2.2-1.5s-1.2-1.5-2.2-1.5h-0.3V5.8z"/>
		<path d="M64.1,0.4h3.1L73,7.8h0V0.4h3.1v12.1h-3.1l-5.7-7.4h0v7.4h-3.1V0.4z"/>
		<path d="M88.1,3.5C87.5,3,86.8,2.7,86,2.7c-0.6,0-1.3,0.3-1.3,1c0,0.7,0.8,1,1.4,1.2l0.8,0.2c1.7,0.5,3,1.3,3,3.3
			c0,1.2-0.3,2.4-1.2,3.2c-0.9,0.8-2.2,1.1-3.4,1.1c-1.5,0-3-0.5-4.2-1.4l1.3-2.5C83,9.6,84,10.1,85,10.1c0.7,0,1.5-0.4,1.5-1.2
			c0-0.9-1.2-1.2-1.9-1.4c-2-0.6-3.3-1.1-3.3-3.4c0-2.4,1.7-4,4.2-4c1.2,0,2.7,0.4,3.8,1L88.1,3.5z"/>
		<path d="M102.2,5.1V0.4h3.1v12.1h-3.1V7.5h-4.5v4.9h-3.1V0.4h3.1v4.7H102.2z"/>
		<path d="M113.7,12.5h-3.1V0.4h3.1V12.5z"/>
		<path d="M118.9,0.4h4.8c2.6,0,4.4,1.2,4.4,4c0,2.8-1.5,4.1-4.3,4.1h-1.8v4h-3.1V0.4z M122.1,5.9h0.5c1.1,0,2.3,0,2.3-1.5
			c0-1.5-1-1.5-2.3-1.5h-0.5V5.9z"/>
		<path d="M145.5,8.2L145.5,8.2l2.6-7.8h2.5l2.4,7.8h0l2.3-7.8h3.3l-3.9,12.1h-3.2l-2.1-7h0l-2.4,7h-3.2l-3.6-12.1h3.3L145.5,8.2z"
			/>
		<path d="M165.6,12.5h-3.1V0.4h3.1V12.5z"/>
		<path d="M175.7,12.5h-3.1V3.1h-2.6V0.4h8.3v2.7h-2.6V12.5z"/>
		<path d="M190.2,5.1V0.4h3.1v12.1h-3.1V7.5h-4.5v4.9h-3.1V0.4h3.1v4.7H190.2z"/>
		<path d="M211.4,8.2L211.4,8.2l2.6-7.8h2.5l2.4,7.8h0l2.3-7.8h3.3l-3.9,12.1h-3.2l-2.1-7h0l-2.4,7h-3.2L206,0.4h3.3L211.4,8.2z"/>
		<path d="M227.1,0.4h3.8l2.3,3.3l2.3-3.3h3.8l-4.5,6.3v5.8h-3.1V6.7L227.1,0.4z"/>
		<path d="M243,0.4h3.1l5.7,7.4h0V0.4h3.1v12.1h-3.1l-5.7-7.4h0v7.4H243V0.4z"/>
		<path d="M260.3,0.4h3.1l5.7,7.4h0V0.4h3.1v12.1h-3.1l-5.7-7.4h0v7.4h-3.1V0.4z"/>
		<path d="M289.4,9.8h3.8v2.7h-6.9V0.4h3.1V9.8z"/>
		<path d="M300.5,10.4l-0.8,2.1h-3.3L301,0.4h3.4l4.5,12.1h-3.3l-0.8-2.1H300.5z M302.7,4.1L302.7,4.1L301.3,8h2.6L302.7,4.1z"/>
		<path d="M319.7,3.5c-0.6-0.5-1.3-0.8-2.1-0.8c-0.6,0-1.3,0.3-1.3,1c0,0.7,0.8,1,1.4,1.2l0.8,0.2c1.7,0.5,3,1.3,3,3.3
			c0,1.2-0.3,2.4-1.2,3.2c-0.9,0.8-2.2,1.1-3.4,1.1c-1.5,0-3-0.5-4.2-1.4l1.3-2.5c0.8,0.7,1.7,1.2,2.8,1.2c0.7,0,1.5-0.4,1.5-1.2
			c0-0.9-1.2-1.2-1.9-1.4c-2-0.6-3.3-1.1-3.3-3.4c0-2.4,1.7-4,4.2-4c1.2,0,2.7,0.4,3.8,1L319.7,3.5z"/>
		<path d="M339.9,7.7l2.9-7.3h3.4l-5.2,12.1h-2.4l-5.1-12.1h3.4L339.9,7.7z"/>
		<path d="M353.4,3.1v2h3.5v2.7h-3.5v2.1h3.7v2.7h-6.9V0.4h6.9v2.7H353.4z"/>
		<path d="M374.3,5.7c0,1.8-0.2,3.3-1.2,4.8c-1.2,1.6-3,2.4-5,2.4c-3.8,0-6.4-2.6-6.4-6.4c0-3.9,2.7-6.5,6.5-6.5
			c2.5,0,4.4,1.1,5.4,3.4l-3,1.2c-0.4-1.2-1.3-1.9-2.6-1.9c-2.1,0-3.1,2-3.1,3.8c0,1.9,1.1,3.8,3.2,3.8c1.4,0,2.4-0.7,2.5-2.1H368
			V5.7H374.3z"/>
		<path d="M382,10.4l-0.8,2.1h-3.3l4.6-12.1h3.4l4.5,12.1h-3.3l-0.8-2.1H382z M384.2,4.1L384.2,4.1L382.8,8h2.6L384.2,4.1z"/>
		<path d="M401.2,3.5c-0.6-0.5-1.3-0.8-2.1-0.8c-0.6,0-1.3,0.3-1.3,1c0,0.7,0.8,1,1.4,1.2l0.8,0.2c1.7,0.5,3,1.3,3,3.3
			c0,1.2-0.3,2.4-1.2,3.2c-0.9,0.8-2.2,1.1-3.4,1.1c-1.5,0-3-0.5-4.2-1.4l1.3-2.5c0.8,0.7,1.7,1.2,2.8,1.2c0.7,0,1.5-0.4,1.5-1.2
			c0-0.9-1.2-1.2-1.9-1.4c-2-0.6-3.3-1.1-3.3-3.4c0-2.4,1.7-4,4.2-4c1.2,0,2.7,0.4,3.8,1L401.2,3.5z"/>
		<path d="M0.5,23.1h2.2c3.2,0,5.9,1.7,5.9,5.2c0,3.6-2.6,5.3-6,5.3H0.5V23.1z M1.8,32.5h0.5c2.7,0,5-1,5-4.1c0-3.1-2.3-4.1-5-4.1
			H1.8V32.5z"/>
		<path d="M13.3,27.1v3.6c0,1.1,0.3,2,1.5,2s1.5-0.9,1.5-2v-3.6h1.3v3.8c0,1.8-0.8,3-2.8,3s-2.8-1.2-2.8-3v-3.8H13.3z"/>
		<path d="M22.8,28.2L22.8,28.2c0.4-0.8,1-1.3,1.8-1.3c0.4,0,0.7,0.1,1,0.3l-0.6,1.1c-0.2-0.2-0.5-0.3-0.8-0.3
			c-1.4,0-1.5,1.3-1.5,2.3v3.2h-1.3v-6.6h1.3V28.2z"/>
		<path d="M30.4,24.1c0,0.5-0.4,0.9-0.9,0.9c-0.5,0-0.9-0.4-0.9-0.9c0-0.5,0.4-0.9,0.9-0.9C30,23.2,30.4,23.6,30.4,24.1z M30.2,33.7
			h-1.3v-6.6h1.3V33.7z"/>
		<path d="M35.7,28L35.7,28c0.4-0.7,1.2-1.1,2-1.1c1.8,0,2.3,1.2,2.3,2.8v3.9h-1.3v-3.8c0-1.1-0.2-1.9-1.4-1.9
			c-1.6,0-1.6,1.4-1.6,2.6v3h-1.3v-6.6h1.3V28z"/>
		<path d="M50.1,33.5c0,2.3-0.6,3.9-3.2,3.9c-1.8,0-3.1-1.1-3.2-3H45c0,1.2,0.8,1.8,2,1.8c1.6,0,1.9-1.1,1.9-2.4v-1.2h0
			c-0.5,0.7-1.3,1.2-2.2,1.2c-2,0-3.1-1.7-3.1-3.5c0-1.8,1.2-3.4,3.1-3.4c1,0,1.8,0.5,2.3,1.3h0v-1.1h1.3V33.5z M48.9,30.4
			c0-1.3-0.8-2.4-2.1-2.4c-1.3,0-2.1,1.1-2.1,2.4c0,1.2,0.7,2.4,2.1,2.4C48.2,32.8,48.9,31.7,48.9,30.4z"/>
		<path d="M61.5,27.9L61.5,27.9c0.4-0.6,1.1-1,1.8-1c0.9,0,1.5,0.4,1.9,1.2c0.4-0.7,1.2-1.2,2-1.2c1.7,0,2.2,1.3,2.2,2.8v3.9h-1.3
			V30c0-0.8-0.1-1.9-1.2-1.9c-1.3,0-1.4,1.4-1.4,2.4v3.2h-1.3v-3.5c0-0.9,0-2.2-1.2-2.2c-1.3,0-1.5,1.4-1.5,2.4v3.2h-1.3v-6.6h1.3
			V27.9z"/>
		<path d="M72.2,27.1h1.5l2.2,4.2l2.1-4.2h1.4L74,37.4h-1.4l2.6-4.9L72.2,27.1z"/>
		<path d="M89.9,33.7h-1.3V21.5h1.3V33.7z"/>
		<path d="M100,33.7h-1.3v-1h0c-0.5,0.7-1.3,1.2-2.2,1.2c-2,0-3.1-1.7-3.1-3.5c0-1.8,1.2-3.4,3.1-3.4c1,0,1.8,0.5,2.3,1.3h0v-1.1
			h1.3V33.7z M98.9,30.4c0-1.3-0.8-2.4-2.1-2.4c-1.3,0-2.1,1.1-2.1,2.4c0,1.2,0.7,2.4,2.1,2.4C98.1,32.8,98.9,31.7,98.9,30.4z"/>
		<path d="M106.6,28.6c-0.2-0.3-0.5-0.6-0.8-0.6c-0.4,0-0.7,0.3-0.7,0.6c0,0.6,0.8,0.8,1.5,1.2s1.5,0.8,1.5,1.9c0,1.2-1,2.2-2.3,2.2
			c-1,0-1.9-0.5-2.3-1.5l1.1-0.5c0.3,0.5,0.6,0.8,1.2,0.8c0.5,0,1-0.4,1-0.9c0-0.4-0.2-0.5-0.5-0.7l-1.2-0.7
			c-0.7-0.4-1.3-0.8-1.3-1.7c0-1.1,0.9-1.9,1.9-1.9c0.8,0,1.4,0.4,1.8,1.1L106.6,28.6z"/>
		<path d="M113,33.7h-1.3v-5.4H111v-1.2h0.7v-2.5h1.3v2.5h1.2v1.2H113V33.7z"/>
		<path d="M126.1,28.6c-0.2-0.3-0.5-0.6-0.8-0.6c-0.4,0-0.7,0.3-0.7,0.6c0,0.6,0.8,0.8,1.5,1.2s1.5,0.8,1.5,1.9c0,1.2-1,2.2-2.3,2.2
			c-1,0-1.9-0.5-2.3-1.5l1.1-0.5c0.3,0.5,0.6,0.8,1.2,0.8c0.5,0,1-0.4,1-0.9c0-0.4-0.2-0.5-0.5-0.7l-1.2-0.7
			c-0.7-0.4-1.3-0.8-1.3-1.7c0-1.1,0.9-1.9,1.9-1.9c0.8,0,1.4,0.4,1.8,1.1L126.1,28.6z"/>
		<path d="M131.8,30.6c0,1.1,0.8,2.2,2,2.2c1,0,1.5-0.5,2-1.3l1.1,0.6c-0.6,1.1-1.8,1.8-3,1.8c-2,0-3.2-1.5-3.2-3.4
			c0-2,1.1-3.5,3.2-3.5c2.1,0,3.1,1.5,3.1,3.5v0.2H131.8z M135.5,29.6c-0.2-1-0.8-1.6-1.8-1.6c-1,0-1.7,0.7-1.9,1.6H135.5z"/>
		<path d="M141.3,27.9L141.3,27.9c0.4-0.6,1.1-1,1.8-1c0.9,0,1.5,0.4,1.9,1.2c0.4-0.7,1.2-1.2,2-1.2c1.7,0,2.2,1.3,2.2,2.8v3.9h-1.3
			V30c0-0.8-0.1-1.9-1.2-1.9c-1.3,0-1.4,1.4-1.4,2.4v3.2H144v-3.5c0-0.9,0-2.2-1.2-2.2c-1.3,0-1.5,1.4-1.5,2.4v3.2h-1.3v-6.6h1.3
			V27.9z"/>
		<path d="M153.8,30.6c0,1.1,0.8,2.2,2,2.2c1,0,1.5-0.5,2-1.3l1.1,0.6c-0.6,1.1-1.8,1.8-3,1.8c-2,0-3.2-1.5-3.2-3.4
			c0-2,1.1-3.5,3.2-3.5c2.1,0,3.1,1.5,3.1,3.5v0.2H153.8z M157.6,29.6c-0.2-1-0.8-1.6-1.8-1.6c-1,0-1.7,0.7-1.9,1.6H157.6z"/>
		<path d="M164.8,28.6c-0.2-0.3-0.5-0.6-0.8-0.6c-0.4,0-0.7,0.3-0.7,0.6c0,0.6,0.8,0.8,1.5,1.2s1.5,0.8,1.5,1.9c0,1.2-1,2.2-2.3,2.2
			c-1,0-1.9-0.5-2.3-1.5l1.1-0.5c0.3,0.5,0.6,0.8,1.2,0.8c0.5,0,1-0.4,1-0.9c0-0.4-0.2-0.5-0.5-0.7l-1.2-0.7
			c-0.7-0.4-1.3-0.8-1.3-1.7c0-1.1,0.9-1.9,1.9-1.9c0.8,0,1.4,0.4,1.8,1.1L164.8,28.6z"/>
		<path d="M171.2,33.7H170v-5.4h-0.7v-1.2h0.7v-2.5h1.3v2.5h1.2v1.2h-1.2V33.7z"/>
		<path d="M176.1,30.6c0,1.1,0.8,2.2,2,2.2c1,0,1.5-0.5,2-1.3l1.1,0.6c-0.6,1.1-1.8,1.8-3,1.8c-2,0-3.2-1.5-3.2-3.4
			c0-2,1.1-3.5,3.2-3.5c2.1,0,3.1,1.5,3.1,3.5v0.2H176.1z M179.9,29.6c-0.2-1-0.8-1.6-1.8-1.6c-1,0-1.7,0.7-1.9,1.6H179.9z"/>
		<path d="M185.8,28.2L185.8,28.2c0.4-0.8,1-1.3,1.8-1.3c0.4,0,0.7,0.1,1,0.3l-0.6,1.1c-0.2-0.2-0.5-0.3-0.8-0.3
			c-1.4,0-1.5,1.3-1.5,2.3v3.2h-1.3v-6.6h1.3V28.2z"/>
		<path d="M204,33.7h-1.3v-1h0c-0.5,0.7-1.3,1.2-2.2,1.2c-2,0-3.1-1.7-3.1-3.5c0-1.8,1.2-3.4,3.1-3.4c1,0,1.8,0.5,2.3,1.3h0v-1.1
			h1.3V33.7z M202.8,30.4c0-1.3-0.8-2.4-2.1-2.4c-1.3,0-2.1,1.1-2.1,2.4c0,1.2,0.7,2.4,2.1,2.4C202.1,32.8,202.8,31.7,202.8,30.4z"
			/>
		<path d="M209.4,33.7h-1.3v-5.4h-0.7v-1.2h0.7v-2.5h1.3v2.5h1.2v1.2h-1.2V33.7z"/>
		<path d="M221.1,23.1v6.2c0,1.7,0.5,3.3,2.5,3.3c2,0,2.5-1.6,2.5-3.3v-6.2h1.3v6.7c0,2.3-1.4,4.1-3.9,4.1s-3.9-1.8-3.9-4.1v-6.7
			H221.1z"/>
		<path d="M231.4,22.6l7.9,8.3v-7.8h1.3v11l-7.9-8.3v7.9h-1.3V22.6z"/>
		<path d="M246.1,32.5h3.2v1.2h-4.5V23.1h1.3V32.5z"/>
		<path d="M255.3,30.9l3.1-7.8h1.4l-4.6,11.1l-4.6-11.1h1.4L255.3,30.9z"/>
		<path d="M263.8,32.4l-1.9,3.7l-0.8-0.3l1.5-3.9L263.8,32.4z"/>
		<path d="M275.2,33.7h-1.3V23.1h1.3V33.7z"/>
		<path d="M287.8,31.3l1.9-4.5l1.9,4.5l1.9-4.2h1.4l-3.3,6.8l-1.9-4.4l-1.9,4.4l-3.3-6.8h1.4L287.8,31.3z"/>
		<path d="M304,33.7h-1.3v-1h0c-0.5,0.7-1.3,1.2-2.2,1.2c-2,0-3.1-1.7-3.1-3.5c0-1.8,1.2-3.4,3.1-3.4c1,0,1.8,0.5,2.3,1.3h0v-1.1
			h1.3V33.7z M302.8,30.4c0-1.3-0.8-2.4-2.1-2.4c-1.3,0-2.1,1.1-2.1,2.4c0,1.2,0.7,2.4,2.1,2.4C302.1,32.8,302.8,31.7,302.8,30.4z"
			/>
		<path d="M310.5,28.6c-0.2-0.3-0.5-0.6-0.8-0.6c-0.4,0-0.7,0.3-0.7,0.6c0,0.6,0.8,0.8,1.5,1.2s1.5,0.8,1.5,1.9c0,1.2-1,2.2-2.3,2.2
			c-1,0-1.9-0.5-2.3-1.5l1.1-0.5c0.3,0.5,0.6,0.8,1.2,0.8c0.5,0,1-0.4,1-0.9c0-0.4-0.2-0.5-0.5-0.7l-1.2-0.7
			c-0.7-0.4-1.3-0.8-1.3-1.7c0-1.1,0.9-1.9,1.9-1.9c0.8,0,1.4,0.4,1.8,1.1L310.5,28.6z"/>
		<path d="M327.9,33.7h-1.3v-1h0c-0.5,0.7-1.3,1.2-2.2,1.2c-2,0-3.1-1.7-3.1-3.5c0-1.8,1.2-3.4,3.1-3.4c1,0,1.8,0.5,2.3,1.3h0v-1.1
			h1.3V33.7z M326.8,30.4c0-1.3-0.8-2.4-2.1-2.4c-1.3,0-2.1,1.1-2.1,2.4c0,1.2,0.7,2.4,2.1,2.4C326,32.8,326.8,31.7,326.8,30.4z"/>
		<path d="M343,32.6L343,32.6c-0.5,0.7-1.3,1.2-2.3,1.2c-2,0-3.1-1.7-3.1-3.5c0-1.8,1.2-3.4,3.1-3.4c1,0,1.8,0.5,2.3,1.3h0v-6.7h1.3
			v12.2H343V32.6z M343.1,30.4c0-1.3-0.8-2.4-2.1-2.4c-1.3,0-2.1,1.1-2.1,2.4c0,1.2,0.7,2.4,2.1,2.4
			C342.3,32.8,343.1,31.7,343.1,30.4z"/>
		<path d="M348.9,30.6c0,1.1,0.8,2.2,2,2.2c1,0,1.5-0.5,2-1.3l1.1,0.6c-0.6,1.1-1.8,1.8-3,1.8c-2,0-3.2-1.5-3.2-3.4
			c0-2,1.1-3.5,3.2-3.5c2.1,0,3.1,1.5,3.1,3.5v0.2H348.9z M352.6,29.6c-0.2-1-0.8-1.6-1.8-1.6c-1,0-1.7,0.7-1.9,1.6H352.6z"/>
		<path d="M359.8,28.6c-0.2-0.3-0.5-0.6-0.8-0.6c-0.4,0-0.7,0.3-0.7,0.6c0,0.6,0.8,0.8,1.5,1.2s1.5,0.8,1.5,1.9c0,1.2-1,2.2-2.3,2.2
			c-1,0-1.9-0.5-2.3-1.5l1.1-0.5c0.3,0.5,0.6,0.8,1.2,0.8c0.5,0,1-0.4,1-0.9c0-0.4-0.2-0.5-0.5-0.7l-1.2-0.7
			c-0.7-0.4-1.3-0.8-1.3-1.7c0-1.1,0.9-1.9,1.9-1.9c0.8,0,1.4,0.4,1.8,1.1L359.8,28.6z"/>
		<path d="M366.6,24.1c0,0.5-0.4,0.9-0.9,0.9c-0.5,0-0.9-0.4-0.9-0.9c0-0.5,0.4-0.9,0.9-0.9C366.2,23.2,366.6,23.6,366.6,24.1z
			 M366.4,33.7h-1.3v-6.6h1.3V33.7z"/>
		<path d="M376.7,33.5c0,2.3-0.6,3.9-3.2,3.9c-1.8,0-3.1-1.1-3.2-3h1.3c0,1.2,0.8,1.8,2,1.8c1.6,0,1.9-1.1,1.9-2.4v-1.2h0
			c-0.5,0.7-1.3,1.2-2.2,1.2c-2,0-3.1-1.7-3.1-3.5c0-1.8,1.2-3.4,3.1-3.4c1,0,1.8,0.5,2.3,1.3h0v-1.1h1.3V33.5z M375.6,30.4
			c0-1.3-0.8-2.4-2.1-2.4c-1.3,0-2.1,1.1-2.1,2.4c0,1.2,0.7,2.4,2.1,2.4C374.8,32.8,375.6,31.7,375.6,30.4z"/>
		<path d="M381.9,28L381.9,28c0.4-0.7,1.2-1.1,2-1.1c1.8,0,2.3,1.2,2.3,2.8v3.9h-1.3v-3.8c0-1.1-0.2-1.9-1.4-1.9
			c-1.6,0-1.6,1.4-1.6,2.6v3h-1.3v-6.6h1.3V28z"/>
		<path d="M398.2,24.1c0,0.5-0.4,0.9-0.9,0.9c-0.5,0-0.9-0.4-0.9-0.9c0-0.5,0.4-0.9,0.9-0.9C397.9,23.2,398.2,23.6,398.2,24.1z
			 M398,33.7h-1.3v-6.6h1.3V33.7z"/>
		<path d="M403.5,28L403.5,28c0.4-0.7,1.2-1.1,2-1.1c1.8,0,2.3,1.2,2.3,2.8v3.9h-1.3v-3.8c0-1.1-0.2-1.9-1.4-1.9
			c-1.6,0-1.6,1.4-1.6,2.6v3h-1.3v-6.6h1.3V28z"/>
		<path d="M413.3,33.7H412v-5.4h-0.7v-1.2h0.7v-2.5h1.3v2.5h1.2v1.2h-1.2V33.7z"/>
		<path d="M418.2,30.6c0,1.1,0.8,2.2,2,2.2c1,0,1.5-0.5,2-1.3l1.1,0.6c-0.6,1.1-1.8,1.8-3,1.8c-2,0-3.2-1.5-3.2-3.4
			c0-2,1.1-3.5,3.2-3.5c2.1,0,3.1,1.5,3.1,3.5v0.2H418.2z M421.9,29.6c-0.2-1-0.8-1.6-1.8-1.6c-1,0-1.7,0.7-1.9,1.6H421.9z"/>
		<path d="M427.8,28.2L427.8,28.2c0.4-0.8,1-1.3,1.8-1.3c0.4,0,0.7,0.1,1,0.3l-0.6,1.1c-0.2-0.2-0.5-0.3-0.8-0.3
			c-1.4,0-1.5,1.3-1.5,2.3v3.2h-1.3v-6.6h1.3V28.2z"/>
		<path d="M435,28L435,28c0.4-0.7,1.2-1.1,2-1.1c1.8,0,2.3,1.2,2.3,2.8v3.9h-1.3v-3.8c0-1.1-0.2-1.9-1.4-1.9c-1.6,0-1.6,1.4-1.6,2.6
			v3h-1.3v-6.6h1.3V28z"/>
		<path d="M452.9,22.8c-0.3-0.1-0.6-0.3-0.8-0.3c-0.9,0-0.9,1.1-0.9,1.8v2.8h1.7v1.2h-1.7v5.4h-1.3v-5.4h-0.6v-1.2h0.6v-3.2
			c0-1.4,0.5-2.6,2.1-2.6c0.3,0,0.6,0.1,0.9,0.2V22.8z"/>
		<path d="M462.1,30.4c0,2-1.5,3.5-3.5,3.5c-2,0-3.5-1.5-3.5-3.5s1.5-3.5,3.5-3.5C460.6,26.9,462.1,28.4,462.1,30.4z M456.4,30.4
			c0,1.2,1,2.3,2.2,2.3c1.2,0,2.2-1.1,2.2-2.3c0-1.2-1-2.3-2.2-2.3C457.4,28.1,456.4,29.2,456.4,30.4z"/>
		<path d="M466.8,28.2L466.8,28.2c0.4-0.8,1-1.3,1.8-1.3c0.4,0,0.7,0.1,1,0.3l-0.6,1.1c-0.2-0.2-0.5-0.3-0.8-0.3
			c-1.4,0-1.5,1.3-1.5,2.3v3.2h-1.3v-6.6h1.3V28.2z"/>
		<path d="M1.9,54.9H0.7v-5.4H0v-1.2h0.7v-2.5h1.3v2.5h1.2v1.2H1.9V54.9z"/>
		<path d="M7.4,42.7v6.5h0c0.4-0.7,1.2-1.1,2-1.1c1.8,0,2.3,1.2,2.3,2.8v3.9h-1.3v-3.8c0-1.1-0.2-1.9-1.4-1.9
			c-1.6,0-1.6,1.4-1.6,2.6v3H6.1V42.7H7.4z"/>
		<path d="M16.4,51.8c0,1.1,0.8,2.2,2,2.2c1,0,1.5-0.5,2-1.3l1.1,0.6c-0.6,1.1-1.8,1.8-3,1.8c-2,0-3.2-1.5-3.2-3.4
			c0-2,1.1-3.5,3.2-3.5c2.1,0,3.1,1.5,3.1,3.5v0.2H16.4z M20.2,50.8c-0.2-1-0.8-1.6-1.8-1.6c-1,0-1.7,0.7-1.9,1.6H20.2z"/>
		<path d="M32.3,49.2L32.3,49.2c0.4-0.7,1.2-1.1,2-1.1c1.8,0,2.3,1.2,2.3,2.8v3.9h-1.3v-3.8c0-1.1-0.2-1.9-1.4-1.9
			c-1.6,0-1.6,1.4-1.6,2.6v3H31v-6.6h1.3V49.2z"/>
		<path d="M42.4,45.3c0,0.5-0.4,0.9-0.9,0.9c-0.5,0-0.9-0.4-0.9-0.9c0-0.5,0.4-0.9,0.9-0.9C42,44.4,42.4,44.8,42.4,45.3z M42.1,54.9
			h-1.3v-6.6h1.3V54.9z"/>
		<path d="M52.5,54.7c0,2.3-0.6,3.9-3.2,3.9c-1.8,0-3.1-1.1-3.2-3h1.3c0,1.2,0.8,1.8,2,1.8c1.6,0,1.9-1.1,1.9-2.4v-1.2h0
			c-0.5,0.7-1.3,1.2-2.2,1.2c-2,0-3.1-1.7-3.1-3.5c0-1.8,1.2-3.4,3.1-3.4c1,0,1.8,0.5,2.3,1.3h0v-1.1h1.3V54.7z M51.3,51.6
			c0-1.3-0.8-2.4-2.1-2.4c-1.3,0-2.1,1.1-2.1,2.4c0,1.2,0.7,2.4,2.1,2.4C50.6,54,51.3,52.9,51.3,51.6z"/>
		<path d="M57.7,42.7v6.5h0c0.4-0.7,1.2-1.1,2-1.1c1.8,0,2.3,1.2,2.3,2.8v3.9h-1.3v-3.8c0-1.1-0.2-1.9-1.4-1.9
			c-1.6,0-1.6,1.4-1.6,2.6v3h-1.3V42.7H57.7z"/>
		<path d="M67.4,54.9h-1.3v-5.4h-0.7v-1.2h0.7v-2.5h1.3v2.5h1.2v1.2h-1.2V54.9z"/>
		<path d="M72.9,54.9h-1.3V42.7h1.3V54.9z"/>
		<path d="M78.7,45.3c0,0.5-0.4,0.9-0.9,0.9c-0.5,0-0.9-0.4-0.9-0.9c0-0.5,0.4-0.9,0.9-0.9C78.3,44.4,78.7,44.8,78.7,45.3z
			 M78.4,54.9h-1.3v-6.6h1.3V54.9z"/>
		<path d="M85.9,44c-0.3-0.1-0.6-0.3-0.8-0.3c-0.9,0-0.9,1.1-0.9,1.8v2.8h1.7v1.2h-1.7v5.4h-1.3v-5.4h-0.6v-1.2h0.6v-3.2
			c0-1.4,0.5-2.6,2.1-2.6c0.3,0,0.6,0.1,0.9,0.2V44z"/>
		<path d="M89.5,51.8c0,1.1,0.8,2.2,2,2.2c1,0,1.5-0.5,2-1.3l1.1,0.6c-0.6,1.1-1.8,1.8-3,1.8c-2,0-3.2-1.5-3.2-3.4
			c0-2,1.1-3.5,3.2-3.5c2.1,0,3.1,1.5,3.1,3.5v0.2H89.5z M93.3,50.8c-0.2-1-0.8-1.6-1.8-1.6c-1,0-1.7,0.7-1.9,1.6H93.3z"/>
		<path d="M109,53.8L109,53.8c-0.5,0.7-1.3,1.2-2.3,1.2c-2,0-3.1-1.7-3.1-3.5c0-1.8,1.2-3.4,3.1-3.4c1,0,1.8,0.5,2.3,1.3h0v-6.7h1.3
			v12.2H109V53.8z M109.1,51.6c0-1.3-0.8-2.4-2.1-2.4c-1.3,0-2.1,1.1-2.1,2.4c0,1.2,0.7,2.4,2.1,2.4C108.3,54,109.1,52.9,109.1,51.6
			z"/>
		<path d="M114.9,51.8c0,1.1,0.8,2.2,2,2.2c1,0,1.5-0.5,2-1.3l1.1,0.6c-0.6,1.1-1.8,1.8-3,1.8c-2,0-3.2-1.5-3.2-3.4
			c0-2,1.1-3.5,3.2-3.5c2.1,0,3.1,1.5,3.1,3.5v0.2H114.9z M118.7,50.8c-0.2-1-0.8-1.6-1.8-1.6c-1,0-1.7,0.7-1.9,1.6H118.7z"/>
		<path d="M124.4,49.4L124.4,49.4c0.5-0.8,1.3-1.3,2.3-1.3c1.9,0,3.1,1.6,3.1,3.4c0,1.9-1.1,3.5-3.1,3.5c-0.9,0-1.7-0.5-2.2-1.2h0
			v4.8h-1.3V48.3h1.3V49.4z M128.5,51.6c0-1.3-0.8-2.4-2.1-2.4c-1.3,0-2.1,1.1-2.1,2.4c0,1.2,0.7,2.4,2.1,2.4
			C127.8,54,128.5,52.9,128.5,51.6z"/>
		<path d="M139.4,54.9h-1.3v-1h0c-0.5,0.7-1.3,1.2-2.2,1.2c-2,0-3.1-1.7-3.1-3.5c0-1.8,1.2-3.4,3.1-3.4c1,0,1.8,0.5,2.3,1.3h0v-1.1
			h1.3V54.9z M138.2,51.6c0-1.3-0.8-2.4-2.1-2.4c-1.3,0-2.1,1.1-2.1,2.4c0,1.2,0.7,2.4,2.1,2.4C137.5,54,138.2,52.9,138.2,51.6z"/>
		<path d="M144.6,49.4L144.6,49.4c0.4-0.8,1-1.3,1.8-1.3c0.4,0,0.7,0.1,1,0.3l-0.6,1.1c-0.2-0.2-0.5-0.3-0.8-0.3
			c-1.4,0-1.5,1.3-1.5,2.3v3.2h-1.3v-6.6h1.3V49.4z"/>
		<path d="M152.2,54.9h-1.3v-5.4h-0.7v-1.2h0.7v-2.5h1.3v2.5h1.2v1.2h-1.2V54.9z"/>
		<path d="M157.5,49.1L157.5,49.1c0.4-0.6,1.1-1,1.8-1c0.9,0,1.5,0.4,1.9,1.2c0.4-0.7,1.2-1.2,2-1.2c1.7,0,2.2,1.3,2.2,2.8v3.9h-1.3
			v-3.7c0-0.8-0.1-1.9-1.2-1.9c-1.3,0-1.4,1.4-1.4,2.4v3.2h-1.3v-3.5c0-0.9,0-2.2-1.2-2.2c-1.3,0-1.5,1.4-1.5,2.4v3.2h-1.3v-6.6h1.3
			V49.1z"/>
		<path d="M170.1,51.8c0,1.1,0.8,2.2,2,2.2c1,0,1.5-0.5,2-1.3l1.1,0.6c-0.6,1.1-1.8,1.8-3,1.8c-2,0-3.2-1.5-3.2-3.4
			c0-2,1.1-3.5,3.2-3.5c2.1,0,3.1,1.5,3.1,3.5v0.2H170.1z M173.8,50.8c-0.2-1-0.8-1.6-1.8-1.6c-1,0-1.7,0.7-1.9,1.6H173.8z"/>
		<path d="M179.6,49.2L179.6,49.2c0.4-0.7,1.2-1.1,2-1.1c1.8,0,2.3,1.2,2.3,2.8v3.9h-1.3v-3.8c0-1.1-0.2-1.9-1.4-1.9
			c-1.6,0-1.6,1.4-1.6,2.6v3h-1.3v-6.6h1.3V49.2z"/>
		<path d="M189.4,54.9h-1.3v-5.4h-0.7v-1.2h0.7v-2.5h1.3v2.5h1.2v1.2h-1.2V54.9z"/>
		<path d="M206,54.9h-1.3v-1h0c-0.5,0.7-1.3,1.2-2.2,1.2c-2,0-3.1-1.7-3.1-3.5c0-1.8,1.2-3.4,3.1-3.4c1,0,1.8,0.5,2.3,1.3h0v-1.1
			h1.3V54.9z M204.8,51.6c0-1.3-0.8-2.4-2.1-2.4c-1.3,0-2.1,1.1-2.1,2.4c0,1.2,0.7,2.4,2.1,2.4C204,54,204.8,52.9,204.8,51.6z"/>
		<path d="M211.3,54.9H210v-5.4h-0.7v-1.2h0.7v-2.5h1.3v2.5h1.2v1.2h-1.2V54.9z"/>
		<path d="M223.2,54.9h-1.3v-5.4h-0.7v-1.2h0.7v-2.5h1.3v2.5h1.2v1.2h-1.2V54.9z"/>
		<path d="M228.6,42.7v6.5h0c0.4-0.7,1.2-1.1,2-1.1c1.8,0,2.3,1.2,2.3,2.8v3.9h-1.3v-3.8c0-1.1-0.2-1.9-1.4-1.9
			c-1.6,0-1.6,1.4-1.6,2.6v3h-1.3V42.7H228.6z"/>
		<path d="M237.6,51.8c0,1.1,0.8,2.2,2,2.2c1,0,1.5-0.5,2-1.3l1.1,0.6c-0.6,1.1-1.8,1.8-3,1.8c-2,0-3.2-1.5-3.2-3.4
			c0-2,1.1-3.5,3.2-3.5c2.1,0,3.1,1.5,3.1,3.5v0.2H237.6z M241.4,50.8c-0.2-1-0.8-1.6-1.8-1.6c-1,0-1.7,0.7-1.9,1.6H241.4z"/>
		<path d="M255.6,51.9l3-7.8l3,7.8l3-7.6h1.4l-4.4,11l-3-7.7l-3,7.7l-4.4-11h1.4L255.6,51.9z"/>
		<path d="M267.8,48.3h1.5l2.2,4.2l2.1-4.2h1.4l-5.3,10.3h-1.4l2.6-4.9L267.8,48.3z"/>
		<path d="M279.1,49.2L279.1,49.2c0.4-0.7,1.2-1.1,2-1.1c1.8,0,2.3,1.2,2.3,2.8v3.9h-1.3v-3.8c0-1.1-0.2-1.9-1.4-1.9
			c-1.6,0-1.6,1.4-1.6,2.6v3h-1.3v-6.6h1.3V49.2z"/>
		<path d="M288.7,49.2L288.7,49.2c0.4-0.7,1.2-1.1,2-1.1c1.8,0,2.3,1.2,2.3,2.8v3.9h-1.3v-3.8c0-1.1-0.2-1.9-1.4-1.9
			c-1.6,0-1.6,1.4-1.6,2.6v3h-1.3v-6.6h1.3V49.2z"/>
		<path d="M305.1,45.3c0,0.5-0.4,0.9-0.9,0.9c-0.5,0-0.9-0.4-0.9-0.9c0-0.5,0.4-0.9,0.9-0.9C304.7,44.4,305.1,44.8,305.1,45.3z
			 M304.8,54.9h-1.3v-6.6h1.3V54.9z"/>
		<path d="M310.3,49.2L310.3,49.2c0.4-0.7,1.2-1.1,2-1.1c1.8,0,2.3,1.2,2.3,2.8v3.9h-1.3v-3.8c0-1.1-0.2-1.9-1.4-1.9
			c-1.6,0-1.6,1.4-1.6,2.6v3h-1.3v-6.6h1.3V49.2z"/>
		<path d="M326.4,53.7h3.2v1.2h-4.5V44.3h1.3V53.7z"/>
		<path d="M338.7,54.9h-1.3v-1h0c-0.5,0.7-1.3,1.2-2.2,1.2c-2,0-3.1-1.7-3.1-3.5c0-1.8,1.2-3.4,3.1-3.4c1,0,1.8,0.5,2.3,1.3h0v-1.1
			h1.3V54.9z M337.5,51.6c0-1.3-0.8-2.4-2.1-2.4c-1.3,0-2.1,1.1-2.1,2.4c0,1.2,0.7,2.4,2.1,2.4C336.8,54,337.5,52.9,337.5,51.6z"/>
		<path d="M345.2,49.8c-0.2-0.3-0.5-0.6-0.8-0.6c-0.4,0-0.7,0.3-0.7,0.6c0,0.6,0.8,0.8,1.5,1.2s1.5,0.8,1.5,1.9c0,1.2-1,2.2-2.3,2.2
			c-1,0-1.9-0.5-2.3-1.5l1.1-0.5c0.3,0.5,0.6,0.8,1.2,0.8c0.5,0,1-0.4,1-0.9c0-0.4-0.2-0.5-0.5-0.7l-1.2-0.7
			c-0.7-0.4-1.3-0.8-1.3-1.7c0-1.1,0.9-1.9,1.9-1.9c0.8,0,1.4,0.4,1.8,1.1L345.2,49.8z"/>
		<path d="M360.1,52.1l3.1-7.8h1.4l-4.6,11.1l-4.6-11.1h1.4L360.1,52.1z"/>
		<path d="M367.3,51.8c0,1.1,0.8,2.2,2,2.2c1,0,1.5-0.5,2-1.3l1.1,0.6c-0.6,1.1-1.8,1.8-3,1.8c-2,0-3.2-1.5-3.2-3.4
			c0-2,1.1-3.5,3.2-3.5c2.1,0,3.1,1.5,3.1,3.5v0.2H367.3z M371.1,50.8c-0.2-1-0.8-1.6-1.8-1.6c-1,0-1.7,0.7-1.9,1.6H371.1z"/>
		<path d="M381.8,54.7c0,2.3-0.6,3.9-3.2,3.9c-1.8,0-3.1-1.1-3.2-3h1.3c0,1.2,0.8,1.8,2,1.8c1.6,0,1.9-1.1,1.9-2.4v-1.2h0
			c-0.5,0.7-1.3,1.2-2.2,1.2c-2,0-3.1-1.7-3.1-3.5c0-1.8,1.2-3.4,3.1-3.4c1,0,1.8,0.5,2.3,1.3h0v-1.1h1.3V54.7z M380.6,51.6
			c0-1.3-0.8-2.4-2.1-2.4c-1.3,0-2.1,1.1-2.1,2.4c0,1.2,0.7,2.4,2.1,2.4C379.8,54,380.6,52.9,380.6,51.6z"/>
		<path d="M391.8,54.9h-1.3v-1h0c-0.5,0.7-1.3,1.2-2.2,1.2c-2,0-3.1-1.7-3.1-3.5c0-1.8,1.2-3.4,3.1-3.4c1,0,1.8,0.5,2.3,1.3h0v-1.1
			h1.3V54.9z M390.6,51.6c0-1.3-0.8-2.4-2.1-2.4c-1.3,0-2.1,1.1-2.1,2.4c0,1.2,0.7,2.4,2.1,2.4C389.9,54,390.6,52.9,390.6,51.6z"/>
		<path d="M398.3,49.8c-0.2-0.3-0.5-0.6-0.8-0.6c-0.4,0-0.7,0.3-0.7,0.6c0,0.6,0.8,0.8,1.5,1.2s1.5,0.8,1.5,1.9c0,1.2-1,2.2-2.3,2.2
			c-1,0-1.9-0.5-2.3-1.5l1.1-0.5c0.3,0.5,0.6,0.8,1.2,0.8c0.5,0,1-0.4,1-0.9c0-0.4-0.2-0.5-0.5-0.7l-1.2-0.7
			c-0.7-0.4-1.3-0.8-1.3-1.7c0-1.1,0.9-1.9,1.9-1.9c0.8,0,1.4,0.4,1.8,1.1L398.3,49.8z"/>
		<path d="M405.3,54.3c0,0.4-0.4,0.8-0.8,0.8s-0.8-0.4-0.8-0.8c0-0.4,0.4-0.8,0.8-0.8S405.3,53.8,405.3,54.3z"/>
		<path d="M417.3,54.9H416V44.3h1.3V54.9z"/>
		<path d="M432.5,50.2c-0.5-0.6-1.1-0.9-1.9-0.9c-1.2,0-2.2,1.1-2.2,2.3c0,1.3,0.9,2.3,2.3,2.3c0.7,0,1.3-0.3,1.8-0.9v1.6
			c-0.6,0.3-1.1,0.4-1.8,0.4c-1.9,0-3.5-1.5-3.5-3.4c0-2,1.6-3.5,3.6-3.5c0.6,0,1.2,0.1,1.7,0.4V50.2z"/>
		<path d="M437.4,49.4L437.4,49.4c0.4-0.8,1-1.3,1.8-1.3c0.4,0,0.7,0.1,1,0.3l-0.6,1.1c-0.2-0.2-0.5-0.3-0.8-0.3
			c-1.4,0-1.5,1.3-1.5,2.3v3.2h-1.3v-6.6h1.3V49.4z"/>
		<path d="M444,51.8c0,1.1,0.8,2.2,2,2.2c1,0,1.5-0.5,2-1.3l1.1,0.6c-0.6,1.1-1.8,1.8-3,1.8c-2,0-3.2-1.5-3.2-3.4
			c0-2,1.1-3.5,3.2-3.5c2.1,0,3.1,1.5,3.1,3.5v0.2H444z M447.7,50.8c-0.2-1-0.8-1.6-1.8-1.6c-1,0-1.7,0.7-1.9,1.6H447.7z"/>
		<path d="M458.4,54.9h-1.3v-1h0c-0.5,0.7-1.3,1.2-2.2,1.2c-2,0-3.1-1.7-3.1-3.5c0-1.8,1.2-3.4,3.1-3.4c1,0,1.8,0.5,2.3,1.3h0v-1.1
			h1.3V54.9z M457.2,51.6c0-1.3-0.8-2.4-2.1-2.4c-1.3,0-2.1,1.1-2.1,2.4c0,1.2,0.7,2.4,2.1,2.4C456.5,54,457.2,52.9,457.2,51.6z"/>
		<path d="M463.7,54.9h-1.3v-5.4h-0.7v-1.2h0.7v-2.5h1.3v2.5h1.2v1.2h-1.2V54.9z"/>
		<path d="M468.7,51.8c0,1.1,0.8,2.2,2,2.2c1,0,1.5-0.5,2-1.3l1.1,0.6c-0.6,1.1-1.8,1.8-3,1.8c-2,0-3.2-1.5-3.2-3.4
			c0-2,1.1-3.5,3.2-3.5c2.1,0,3.1,1.5,3.1,3.5v0.2H468.7z M472.4,50.8c-0.2-1-0.8-1.6-1.8-1.6c-1,0-1.7,0.7-1.9,1.6H472.4z"/>
		<path d="M481.9,53.8L481.9,53.8c-0.5,0.7-1.3,1.2-2.3,1.2c-2,0-3.1-1.7-3.1-3.5c0-1.8,1.2-3.4,3.1-3.4c1,0,1.8,0.5,2.3,1.3h0v-6.7
			h1.3v12.2h-1.3V53.8z M481.9,51.6c0-1.3-0.8-2.4-2.1-2.4c-1.3,0-2.1,1.1-2.1,2.4c0,1.2,0.7,2.4,2.1,2.4
			C481.2,54,481.9,52.9,481.9,51.6z"/>
		<path d="M6.7,76.1H5.4v-1h0c-0.5,0.7-1.3,1.2-2.2,1.2c-2,0-3.1-1.7-3.1-3.5c0-1.8,1.2-3.4,3.1-3.4c1,0,1.8,0.5,2.3,1.3h0v-1.1h1.3
			V76.1z M5.5,72.8c0-1.3-0.8-2.4-2.1-2.4c-1.3,0-2.1,1.1-2.1,2.4c0,1.2,0.7,2.4,2.1,2.4C4.7,75.2,5.5,74.1,5.5,72.8z"/>
		<path d="M19.1,73.6l1.9-4.1h1.4l-3.3,6.8l-3.3-6.8h1.4L19.1,73.6z"/>
		<path d="M31.4,76.1h-1.3v-1h0c-0.5,0.7-1.3,1.2-2.2,1.2c-2,0-3.1-1.7-3.1-3.5c0-1.8,1.2-3.4,3.1-3.4c1,0,1.8,0.5,2.3,1.3h0v-1.1
			h1.3V76.1z M30.2,72.8c0-1.3-0.8-2.4-2.1-2.4c-1.3,0-2.1,1.1-2.1,2.4c0,1.2,0.7,2.4,2.1,2.4C29.5,75.2,30.2,74.1,30.2,72.8z"/>
		<path d="M36.7,70.6L36.7,70.6c0.4-0.8,1-1.3,1.8-1.3c0.4,0,0.7,0.1,1,0.3L39,70.8c-0.2-0.2-0.5-0.3-0.8-0.3
			c-1.4,0-1.5,1.3-1.5,2.3v3.2h-1.3v-6.6h1.3V70.6z"/>
		<path d="M44.2,66.5c0,0.5-0.4,0.9-0.9,0.9c-0.5,0-0.9-0.4-0.9-0.9c0-0.5,0.4-0.9,0.9-0.9C43.8,65.6,44.2,66,44.2,66.5z M44,76.1
			h-1.3v-6.6H44V76.1z"/>
		<path d="M49,73c0,1.1,0.8,2.2,2,2.2c1,0,1.5-0.5,2-1.3l1.1,0.6c-0.6,1.1-1.8,1.8-3,1.8c-2,0-3.2-1.5-3.2-3.4c0-2,1.1-3.5,3.2-3.5
			c2.1,0,3.1,1.5,3.1,3.5V73H49z M52.8,72c-0.2-1-0.8-1.6-1.8-1.6c-1,0-1.7,0.7-1.9,1.6H52.8z"/>
		<path d="M58.8,76.1h-1.3v-5.4h-0.7v-1.2h0.7V67h1.3v2.5H60v1.2h-1.2V76.1z"/>
		<path d="M61.9,69.5h1.5l2.2,4.2l2.1-4.2H69l-5.3,10.3h-1.4l2.6-4.9L61.9,69.5z"/>
		<path d="M84.6,72.8c0,2-1.5,3.5-3.5,3.5c-2,0-3.5-1.5-3.5-3.5s1.5-3.5,3.5-3.5C83.1,69.3,84.6,70.8,84.6,72.8z M78.9,72.8
			c0,1.2,1,2.3,2.2,2.3c1.2,0,2.2-1.1,2.2-2.3c0-1.2-1-2.3-2.2-2.3C79.9,70.5,78.9,71.6,78.9,72.8z"/>
		<path d="M91.3,65.2c-0.3-0.1-0.6-0.3-0.8-0.3c-0.9,0-0.9,1.1-0.9,1.8v2.8h1.7v1.2h-1.7v5.4h-1.3v-5.4h-0.6v-1.2h0.6v-3.2
			c0-1.4,0.5-2.6,2.1-2.6c0.3,0,0.6,0.1,0.9,0.2V65.2z"/>
		<path d="M105.3,75L105.3,75c-0.5,0.7-1.3,1.2-2.3,1.2c-2,0-3.1-1.7-3.1-3.5c0-1.8,1.2-3.4,3.1-3.4c1,0,1.8,0.5,2.3,1.3h0v-6.7h1.3
			v12.2h-1.3V75z M105.4,72.8c0-1.3-0.8-2.4-2.1-2.4c-1.3,0-2.1,1.1-2.1,2.4c0,1.2,0.7,2.4,2.1,2.4
			C104.6,75.2,105.4,74.1,105.4,72.8z"/>
		<path d="M111.2,73c0,1.1,0.8,2.2,2,2.2c1,0,1.5-0.5,2-1.3l1.1,0.6c-0.6,1.1-1.8,1.8-3,1.8c-2,0-3.2-1.5-3.2-3.4
			c0-2,1.1-3.5,3.2-3.5c2.1,0,3.1,1.5,3.1,3.5V73H111.2z M114.9,72c-0.2-1-0.8-1.6-1.8-1.6c-1,0-1.7,0.7-1.9,1.6H114.9z"/>
		<path d="M122.1,71c-0.2-0.3-0.5-0.6-0.8-0.6c-0.4,0-0.7,0.3-0.7,0.6c0,0.6,0.8,0.8,1.5,1.2s1.5,0.8,1.5,1.9c0,1.2-1,2.2-2.3,2.2
			c-1,0-1.9-0.5-2.3-1.5l1.1-0.5c0.3,0.5,0.6,0.8,1.2,0.8c0.5,0,1-0.4,1-0.9c0-0.4-0.2-0.5-0.5-0.7l-1.2-0.7
			c-0.7-0.4-1.3-0.8-1.3-1.7c0-1.1,0.9-1.9,1.9-1.9c0.8,0,1.4,0.4,1.8,1.1L122.1,71z"/>
		<path d="M128.9,66.5c0,0.5-0.4,0.9-0.9,0.9c-0.5,0-0.9-0.4-0.9-0.9c0-0.5,0.4-0.9,0.9-0.9C128.5,65.6,128.9,66,128.9,66.5z
			 M128.7,76.1h-1.3v-6.6h1.3V76.1z"/>
		<path d="M139.1,75.9c0,2.3-0.6,3.9-3.2,3.9c-1.8,0-3.1-1.1-3.2-3h1.3c0,1.2,0.8,1.8,2,1.8c1.6,0,1.9-1.1,1.9-2.4V75h0
			c-0.5,0.7-1.3,1.2-2.2,1.2c-2,0-3.1-1.7-3.1-3.5c0-1.8,1.2-3.4,3.1-3.4c1,0,1.8,0.5,2.3,1.3h0v-1.1h1.3V75.9z M137.9,72.8
			c0-1.3-0.8-2.4-2.1-2.4c-1.3,0-2.1,1.1-2.1,2.4c0,1.2,0.7,2.4,2.1,2.4C137.1,75.2,137.9,74.1,137.9,72.8z"/>
		<path d="M144.2,70.4L144.2,70.4c0.4-0.7,1.2-1.1,2-1.1c1.8,0,2.3,1.2,2.3,2.8v3.9h-1.3v-3.8c0-1.1-0.2-1.9-1.4-1.9
			c-1.6,0-1.6,1.4-1.6,2.6v3h-1.3v-6.6h1.3V70.4z"/>
		<path d="M159.9,70.6L159.9,70.6c0.5-0.8,1.3-1.3,2.3-1.3c1.9,0,3.1,1.6,3.1,3.4c0,1.9-1.1,3.5-3.1,3.5c-0.9,0-1.7-0.5-2.2-1.2h0
			v4.8h-1.3V69.5h1.3V70.6z M164.1,72.8c0-1.3-0.8-2.4-2.1-2.4c-1.3,0-2.1,1.1-2.1,2.4c0,1.2,0.7,2.4,2.1,2.4
			C163.3,75.2,164.1,74.1,164.1,72.8z"/>
		<path d="M170.1,70.6L170.1,70.6c0.4-0.8,1-1.3,1.8-1.3c0.4,0,0.7,0.1,1,0.3l-0.6,1.1c-0.2-0.2-0.5-0.3-0.8-0.3
			c-1.4,0-1.5,1.3-1.5,2.3v3.2h-1.3v-6.6h1.3V70.6z"/>
		<path d="M182.4,72.8c0,2-1.5,3.5-3.5,3.5c-2,0-3.5-1.5-3.5-3.5s1.5-3.5,3.5-3.5C180.8,69.3,182.4,70.8,182.4,72.8z M176.6,72.8
			c0,1.2,1,2.3,2.2,2.3c1.2,0,2.2-1.1,2.2-2.3c0-1.2-1-2.3-2.2-2.3C177.6,70.5,176.6,71.6,176.6,72.8z"/>
		<path d="M190.6,75L190.6,75c-0.5,0.7-1.3,1.2-2.3,1.2c-2,0-3.1-1.7-3.1-3.5c0-1.8,1.2-3.4,3.1-3.4c1,0,1.8,0.5,2.3,1.3h0v-6.7h1.3
			v12.2h-1.3V75z M190.7,72.8c0-1.3-0.8-2.4-2.1-2.4c-1.3,0-2.1,1.1-2.1,2.4c0,1.2,0.7,2.4,2.1,2.4C190,75.2,190.7,74.1,190.7,72.8z
			"/>
		<path d="M197,69.5v3.6c0,1.1,0.3,2,1.5,2s1.5-0.9,1.5-2v-3.6h1.3v3.8c0,1.8-0.8,3-2.8,3s-2.8-1.2-2.8-3v-3.8H197z"/>
		<path d="M210,71.4c-0.5-0.6-1.1-0.9-1.9-0.9c-1.2,0-2.2,1.1-2.2,2.3c0,1.3,0.9,2.3,2.3,2.3c0.7,0,1.3-0.3,1.8-0.9v1.6
			c-0.6,0.3-1.1,0.4-1.8,0.4c-1.9,0-3.5-1.5-3.5-3.4c0-2,1.6-3.5,3.6-3.5c0.6,0,1.2,0.1,1.7,0.4V71.4z"/>
		<path d="M215,76.1h-1.3v-5.4h-0.7v-1.2h0.7V67h1.3v2.5h1.2v1.2H215V76.1z"/>
		<path d="M221.8,71c-0.2-0.3-0.5-0.6-0.8-0.6c-0.4,0-0.7,0.3-0.7,0.6c0,0.6,0.8,0.8,1.5,1.2s1.5,0.8,1.5,1.9c0,1.2-1,2.2-2.3,2.2
			c-1,0-1.9-0.5-2.3-1.5l1.1-0.5c0.3,0.5,0.6,0.8,1.2,0.8c0.5,0,1-0.4,1-0.9c0-0.4-0.2-0.5-0.5-0.7l-1.2-0.7
			c-0.7-0.4-1.3-0.8-1.3-1.7c0-1.1,0.9-1.9,1.9-1.9c0.8,0,1.4,0.4,1.8,1.1L221.8,71z"/>
		<path d="M236.4,65.2c-0.3-0.1-0.6-0.3-0.8-0.3c-0.9,0-0.9,1.1-0.9,1.8v2.8h1.7v1.2h-1.7v5.4h-1.3v-5.4h-0.6v-1.2h0.6v-3.2
			c0-1.4,0.5-2.6,2.1-2.6c0.3,0,0.6,0.1,0.9,0.2V65.2z"/>
		<path d="M245.6,72.8c0,2-1.5,3.5-3.5,3.5c-2,0-3.5-1.5-3.5-3.5s1.5-3.5,3.5-3.5C244.1,69.3,245.6,70.8,245.6,72.8z M239.9,72.8
			c0,1.2,1,2.3,2.2,2.3c1.2,0,2.2-1.1,2.2-2.3c0-1.2-1-2.3-2.2-2.3C240.9,70.5,239.9,71.6,239.9,72.8z"/>
		<path d="M250.3,70.6L250.3,70.6c0.4-0.8,1-1.3,1.8-1.3c0.4,0,0.7,0.1,1,0.3l-0.6,1.1c-0.2-0.2-0.5-0.3-0.8-0.3
			c-1.4,0-1.5,1.3-1.5,2.3v3.2h-1.3v-6.6h1.3V70.6z"/>
		<path d="M262.6,65.5h5.7v1.2h-4.4v3h4.2v1.2h-4.2v4h4.4v1.2h-5.7V65.5z"/>
		<path d="M273.2,70.4L273.2,70.4c0.4-0.7,1.2-1.1,2-1.1c1.8,0,2.3,1.2,2.3,2.8v3.9h-1.3v-3.8c0-1.1-0.2-1.9-1.4-1.9
			c-1.6,0-1.6,1.4-1.6,2.6v3H272v-6.6h1.3V70.4z"/>
		<path d="M286.3,71.4c-0.5-0.6-1.1-0.9-1.9-0.9c-1.2,0-2.2,1.1-2.2,2.3c0,1.3,0.9,2.3,2.3,2.3c0.7,0,1.3-0.3,1.8-0.9v1.6
			c-0.6,0.3-1.1,0.4-1.8,0.4c-1.9,0-3.5-1.5-3.5-3.4c0-2,1.6-3.5,3.6-3.5c0.6,0,1.2,0.1,1.7,0.4V71.4z"/>
		<path d="M296.4,72.8c0,2-1.5,3.5-3.5,3.5c-2,0-3.5-1.5-3.5-3.5s1.5-3.5,3.5-3.5C294.8,69.3,296.4,70.8,296.4,72.8z M290.6,72.8
			c0,1.2,1,2.3,2.2,2.3c1.2,0,2.2-1.1,2.2-2.3c0-1.2-1-2.3-2.2-2.3C291.6,70.5,290.6,71.6,290.6,72.8z"/>
		<path d="M301.1,70.6L301.1,70.6c0.4-0.8,1-1.3,1.8-1.3c0.4,0,0.7,0.1,1,0.3l-0.6,1.1c-0.2-0.2-0.5-0.3-0.8-0.3
			c-1.4,0-1.5,1.3-1.5,2.3v3.2h-1.3v-6.6h1.3V70.6z"/>
		<path d="M307.7,73c0,1.1,0.8,2.2,2,2.2c1,0,1.5-0.5,2-1.3l1.1,0.6c-0.6,1.1-1.8,1.8-3,1.8c-2,0-3.2-1.5-3.2-3.4
			c0-2,1.1-3.5,3.2-3.5c2.1,0,3.1,1.5,3.1,3.5V73H307.7z M311.4,72c-0.2-1-0.8-1.6-1.8-1.6c-1,0-1.7,0.7-1.9,1.6H311.4z"/>
		<path d="M322.3,65.5h1.3c2,0,3.9,0.5,3.9,2.9c0,0.8-0.4,1.7-1.1,2v0c1.2,0.2,2.1,1.4,2.1,2.7c0,2.1-1.8,3-3.7,3h-2.5V65.5z
			 M323.6,70.2h0.3c1.2,0,2.3-0.3,2.3-1.8c0-1.5-1-1.7-2.2-1.7h-0.4V70.2z M323.6,74.9h1c1.2,0,2.5-0.4,2.5-1.9
			c0-1.5-1.5-1.8-2.7-1.8h-0.8V74.9z"/>
		<path d="M332.7,73c0,1.1,0.8,2.2,2,2.2c1,0,1.5-0.5,2-1.3l1.1,0.6c-0.6,1.1-1.8,1.8-3,1.8c-2,0-3.2-1.5-3.2-3.4
			c0-2,1.1-3.5,3.2-3.5c2.1,0,3.1,1.5,3.1,3.5V73H332.7z M336.5,72c-0.2-1-0.8-1.6-1.8-1.6c-1,0-1.7,0.7-1.9,1.6H336.5z"/>
		<path d="M347.2,76.1h-1.3v-1h0c-0.5,0.7-1.3,1.2-2.2,1.2c-2,0-3.1-1.7-3.1-3.5c0-1.8,1.2-3.4,3.1-3.4c1,0,1.8,0.5,2.3,1.3h0v-1.1
			h1.3V76.1z M346,72.8c0-1.3-0.8-2.4-2.1-2.4c-1.3,0-2.1,1.1-2.1,2.4c0,1.2,0.7,2.4,2.1,2.4C345.3,75.2,346,74.1,346,72.8z"/>
		<path d="M355.9,71.4c-0.5-0.6-1.1-0.9-1.9-0.9c-1.2,0-2.2,1.1-2.2,2.3c0,1.3,0.9,2.3,2.3,2.3c0.7,0,1.3-0.3,1.8-0.9v1.6
			c-0.6,0.3-1.1,0.4-1.8,0.4c-1.9,0-3.5-1.5-3.5-3.4c0-2,1.6-3.5,3.6-3.5c0.6,0,1.2,0.1,1.7,0.4V71.4z"/>
		<path d="M360.8,63.9v6.5h0c0.4-0.7,1.2-1.1,2-1.1c1.8,0,2.3,1.2,2.3,2.8v3.9h-1.3v-3.8c0-1.1-0.2-1.9-1.4-1.9
			c-1.6,0-1.6,1.4-1.6,2.6v3h-1.3V63.9H360.8z"/>
		<path d="M383.2,67.5c-0.8-0.7-1.8-1-2.8-1c-2.4,0-4.2,2-4.2,4.3c0,2.3,1.8,4.3,4.1,4.3c1,0,2-0.4,2.8-1.1v1.6
			c-0.8,0.5-1.8,0.7-2.8,0.7c-3,0-5.5-2.4-5.5-5.4c0-3.1,2.5-5.6,5.6-5.6c0.9,0,1.9,0.2,2.7,0.7V67.5z"/>
		<path d="M388.1,76.1h-1.3V63.9h1.3V76.1z"/>
		<path d="M393.4,69.5v3.6c0,1.1,0.3,2,1.5,2s1.5-0.9,1.5-2v-3.6h1.3v3.8c0,1.8-0.8,3-2.8,3s-2.8-1.2-2.8-3v-3.8H393.4z"/>
		<path d="M401.5,63.9h1.3v6.7h0c0.5-0.8,1.3-1.3,2.3-1.3c1.9,0,3.1,1.6,3.1,3.4c0,1.9-1.1,3.5-3.1,3.5c-0.9,0-1.7-0.5-2.2-1.2h0v1
			h-1.3V63.9z M406.9,72.8c0-1.3-0.8-2.4-2.1-2.4c-1.3,0-2.1,1.1-2.1,2.4c0,1.2,0.7,2.4,2.1,2.4C406.1,75.2,406.9,74.1,406.9,72.8z"
			/>
		<path d="M414.1,74.8l-1.9,3.7l-0.8-0.3l1.5-3.9L414.1,74.8z"/>
		<path d="M5.3,88.7c-0.4-0.7-0.9-1-1.7-1c-0.8,0-1.8,0.6-1.8,1.5c0,0.8,0.8,1.3,1.5,1.5L4.1,91c1.5,0.6,2.6,1.4,2.6,3.2
			c0,1.9-1.5,3.3-3.4,3.3c-1.7,0-3-1.3-3.3-3l1.3-0.3c0,1.2,0.9,2,2,2c1.1,0,1.9-1,1.9-2.1c0-1.1-0.9-1.6-1.8-2l-0.7-0.3
			c-1.2-0.5-2.3-1.2-2.3-2.7c0-1.7,1.5-2.7,3.1-2.7c1.2,0,2.1,0.6,2.7,1.6L5.3,88.7z"/>
		<path d="M11.5,90.7v3.6c0,1.1,0.3,2,1.5,2s1.5-0.9,1.5-2v-3.6h1.3v3.8c0,1.8-0.8,3-2.8,3s-2.8-1.2-2.8-3v-3.8H11.5z"/>
		<path d="M21,91.8L21,91.8c0.4-0.8,1-1.3,1.8-1.3c0.4,0,0.7,0.1,1,0.3L23.3,92c-0.2-0.2-0.5-0.3-0.8-0.3C21.2,91.7,21,93,21,94v3.2
			h-1.3v-6.6H21V91.8z"/>
		<path d="M28.2,91.8L28.2,91.8c0.4-0.8,1-1.3,1.8-1.3c0.4,0,0.7,0.1,1,0.3L30.5,92c-0.2-0.2-0.5-0.3-0.8-0.3
			c-1.4,0-1.5,1.3-1.5,2.3v3.2h-1.3v-6.6h1.3V91.8z"/>
		<path d="M34.7,94.2c0,1.1,0.8,2.2,2,2.2c1,0,1.5-0.5,2-1.3l1.1,0.6c-0.6,1.1-1.8,1.8-3,1.8c-2,0-3.2-1.5-3.2-3.4
			c0-2,1.1-3.5,3.2-3.5c2.1,0,3.1,1.5,3.1,3.5v0.2H34.7z M38.5,93.2c-0.2-1-0.8-1.6-1.8-1.6c-1,0-1.7,0.7-1.9,1.6H38.5z"/>
		<path d="M44.3,91.6L44.3,91.6c0.4-0.7,1.2-1.1,2-1.1c1.8,0,2.3,1.2,2.3,2.8v3.9h-1.3v-3.8c0-1.1-0.2-1.9-1.4-1.9
			c-1.6,0-1.6,1.4-1.6,2.6v3h-1.3v-6.6h1.3V91.6z"/>
		<path d="M57.5,96.2L57.5,96.2c-0.5,0.7-1.3,1.2-2.3,1.2c-2,0-3.1-1.7-3.1-3.5c0-1.8,1.2-3.4,3.1-3.4c1,0,1.8,0.5,2.3,1.3h0v-6.7
			h1.3v12.2h-1.3V96.2z M57.6,94c0-1.3-0.8-2.4-2.1-2.4c-1.3,0-2.1,1.1-2.1,2.4c0,1.2,0.7,2.4,2.1,2.4C56.8,96.4,57.6,95.3,57.6,94z
			"/>
		<path d="M63.4,94.2c0,1.1,0.8,2.2,2,2.2c1,0,1.5-0.5,2-1.3l1.1,0.6c-0.6,1.1-1.8,1.8-3,1.8c-2,0-3.2-1.5-3.2-3.4
			c0-2,1.1-3.5,3.2-3.5c2.1,0,3.1,1.5,3.1,3.5v0.2H63.4z M67.1,93.2c-0.2-1-0.8-1.6-1.8-1.6c-1,0-1.7,0.7-1.9,1.6H67.1z"/>
		<path d="M73.1,91.8L73.1,91.8c0.4-0.8,1-1.3,1.8-1.3c0.4,0,0.7,0.1,1,0.3L75.3,92c-0.2-0.2-0.5-0.3-0.8-0.3
			c-1.4,0-1.5,1.3-1.5,2.3v3.2h-1.3v-6.6h1.3V91.8z"/>
		<path d="M85.2,86.2l7.9,8.3v-7.8h1.3v11l-7.9-8.3v7.9h-1.3V86.2z"/>
		<path d="M100.2,87.7c0,0.5-0.4,0.9-0.9,0.9c-0.5,0-0.9-0.4-0.9-0.9c0-0.5,0.4-0.9,0.9-0.9C99.8,86.8,100.2,87.2,100.2,87.7z
			 M99.9,97.3h-1.3v-6.6h1.3V97.3z"/>
		<path d="M110.3,97.1c0,2.3-0.6,3.9-3.2,3.9c-1.8,0-3.1-1.1-3.2-3h1.3c0,1.2,0.8,1.8,2,1.8c1.6,0,1.9-1.1,1.9-2.4v-1.2h0
			c-0.5,0.7-1.3,1.2-2.2,1.2c-2,0-3.1-1.7-3.1-3.5c0-1.8,1.2-3.4,3.1-3.4c1,0,1.8,0.5,2.3,1.3h0v-1.1h1.3V97.1z M109.1,94
			c0-1.3-0.8-2.4-2.1-2.4c-1.3,0-2.1,1.1-2.1,2.4c0,1.2,0.7,2.4,2.1,2.4C108.4,96.4,109.1,95.3,109.1,94z"/>
		<path d="M115.4,85.1v6.5h0c0.4-0.7,1.2-1.1,2-1.1c1.8,0,2.3,1.2,2.3,2.8v3.9h-1.3v-3.8c0-1.1-0.2-1.9-1.4-1.9
			c-1.6,0-1.6,1.4-1.6,2.6v3h-1.3V85.1H115.4z"/>
		<path d="M125.2,97.3h-1.3v-5.4h-0.7v-1.2h0.7v-2.5h1.3v2.5h1.2v1.2h-1.2V97.3z"/>
		<path d="M134.2,92.6c-0.5-0.6-1.1-0.9-1.9-0.9c-1.2,0-2.2,1.1-2.2,2.3c0,1.3,0.9,2.3,2.3,2.3c0.7,0,1.3-0.3,1.8-0.9v1.6
			c-0.6,0.3-1.1,0.4-1.8,0.4c-1.9,0-3.5-1.5-3.5-3.4c0-2,1.6-3.5,3.6-3.5c0.6,0,1.2,0.1,1.7,0.4V92.6z"/>
		<path d="M139.1,97.3h-1.3V85.1h1.3V97.3z"/>
		<path d="M144.3,90.7v3.6c0,1.1,0.3,2,1.5,2s1.5-0.9,1.5-2v-3.6h1.3v3.8c0,1.8-0.8,3-2.8,3s-2.8-1.2-2.8-3v-3.8H144.3z"/>
		<path d="M152.4,85.1h1.3v6.7h0c0.5-0.8,1.3-1.3,2.3-1.3c1.9,0,3.1,1.6,3.1,3.4c0,1.9-1.1,3.5-3.1,3.5c-0.9,0-1.7-0.5-2.2-1.2h0v1
			h-1.3V85.1z M157.8,94c0-1.3-0.8-2.4-2.1-2.4c-1.3,0-2.1,1.1-2.1,2.4c0,1.2,0.7,2.4,2.1,2.4C157.1,96.4,157.8,95.3,157.8,94z"/>
		<path d="M165.1,96l-1.9,3.7l-0.8-0.3l1.5-3.9L165.1,96z"/>
		<path d="M181.3,97.3H180v-1h0c-0.5,0.7-1.3,1.2-2.2,1.2c-2,0-3.1-1.7-3.1-3.5c0-1.8,1.2-3.4,3.1-3.4c1,0,1.8,0.5,2.3,1.3h0v-1.1
			h1.3V97.3z M180.1,94c0-1.3-0.8-2.4-2.1-2.4c-1.3,0-2.1,1.1-2.1,2.4c0,1.2,0.7,2.4,2.1,2.4C179.3,96.4,180.1,95.3,180.1,94z"/>
		<path d="M186.4,91.6L186.4,91.6c0.4-0.7,1.2-1.1,2-1.1c1.8,0,2.3,1.2,2.3,2.8v3.9h-1.3v-3.8c0-1.1-0.2-1.9-1.4-1.9
			c-1.6,0-1.6,1.4-1.6,2.6v3h-1.3v-6.6h1.3V91.6z"/>
		<path d="M199.6,96.2L199.6,96.2c-0.5,0.7-1.3,1.2-2.3,1.2c-2,0-3.1-1.7-3.1-3.5c0-1.8,1.2-3.4,3.1-3.4c1,0,1.8,0.5,2.3,1.3h0v-6.7
			h1.3v12.2h-1.3V96.2z M199.7,94c0-1.3-0.8-2.4-2.1-2.4c-1.3,0-2.1,1.1-2.1,2.4c0,1.2,0.7,2.4,2.1,2.4
			C198.9,96.4,199.7,95.3,199.7,94z"/>
		<path d="M212.6,94.6l-1.2,2.6H210l5-11l5,11h-1.4l-1.2-2.6H212.6z M215.1,89.1l-1.9,4.3h3.8L215.1,89.1z"/>
		<path d="M224.3,91.6L224.3,91.6c0.4-0.7,1.2-1.1,2-1.1c1.8,0,2.3,1.2,2.3,2.8v3.9h-1.3v-3.8c0-1.1-0.2-1.9-1.4-1.9
			c-1.6,0-1.6,1.4-1.6,2.6v3h-1.3v-6.6h1.3V91.6z"/>
		<path d="M237.5,96.2L237.5,96.2c-0.5,0.7-1.3,1.2-2.3,1.2c-2,0-3.1-1.7-3.1-3.5c0-1.8,1.2-3.4,3.1-3.4c1,0,1.8,0.5,2.3,1.3h0v-6.7
			h1.3v12.2h-1.3V96.2z M237.6,94c0-1.3-0.8-2.4-2.1-2.4c-1.3,0-2.1,1.1-2.1,2.4c0,1.2,0.7,2.4,2.1,2.4
			C236.9,96.4,237.6,95.3,237.6,94z"/>
		<path d="M244,91.8L244,91.8c0.4-0.8,1-1.3,1.8-1.3c0.4,0,0.7,0.1,1,0.3l-0.6,1.1c-0.2-0.2-0.5-0.3-0.8-0.3c-1.4,0-1.5,1.3-1.5,2.3
			v3.2h-1.3v-6.6h1.3V91.8z"/>
		<path d="M250.6,94.2c0,1.1,0.8,2.2,2,2.2c1,0,1.5-0.5,2-1.3l1.1,0.6c-0.6,1.1-1.8,1.8-3,1.8c-2,0-3.2-1.5-3.2-3.4
			c0-2,1.1-3.5,3.2-3.5c2.1,0,3.1,1.5,3.1,3.5v0.2H250.6z M254.3,93.2c-0.2-1-0.8-1.6-1.8-1.6c-1,0-1.7,0.7-1.9,1.6H254.3z"/>
		<path d="M265.1,97.3h-1.3v-1h0c-0.5,0.7-1.3,1.2-2.2,1.2c-2,0-3.1-1.7-3.1-3.5c0-1.8,1.2-3.4,3.1-3.4c1,0,1.8,0.5,2.3,1.3h0v-1.1
			h1.3V97.3z M263.9,94c0-1.3-0.8-2.4-2.1-2.4c-1.3,0-2.1,1.1-2.1,2.4c0,1.2,0.7,2.4,2.1,2.4C263.1,96.4,263.9,95.3,263.9,94z"/>
		<path d="M271.1,86.9l-1.9,3.7l-0.8-0.3l1.5-3.9L271.1,86.9z"/>
		<path d="M276.3,92.2c-0.2-0.3-0.5-0.6-0.8-0.6c-0.4,0-0.7,0.3-0.7,0.6c0,0.6,0.8,0.8,1.5,1.2s1.5,0.8,1.5,1.9c0,1.2-1,2.2-2.3,2.2
			c-1,0-1.9-0.5-2.3-1.5l1.1-0.5c0.3,0.5,0.6,0.8,1.2,0.8c0.5,0,1-0.4,1-0.9c0-0.4-0.2-0.5-0.5-0.7l-1.2-0.7
			c-0.7-0.4-1.3-0.8-1.3-1.7c0-1.1,0.9-1.9,1.9-1.9c0.8,0,1.4,0.4,1.8,1.1L276.3,92.2z"/>
		<path d="M293.9,91v-4.3h1.3v10.6h-1.3v-5.1h-5v5.1h-1.3V86.7h1.3V91H293.9z"/>
		<path d="M301,87.7c0,0.5-0.4,0.9-0.9,0.9c-0.5,0-0.9-0.4-0.9-0.9c0-0.5,0.4-0.9,0.9-0.9C300.6,86.8,301,87.2,301,87.7z
			 M300.8,97.3h-1.3v-6.6h1.3V97.3z"/>
		<path d="M306.2,91.8L306.2,91.8c0.5-0.8,1.3-1.3,2.3-1.3c1.9,0,3.1,1.6,3.1,3.4c0,1.9-1.1,3.5-3.1,3.5c-0.9,0-1.7-0.5-2.2-1.2h0
			v4.8h-1.3V90.7h1.3V91.8z M310.3,94c0-1.3-0.8-2.4-2.1-2.4c-1.3,0-2.1,1.1-2.1,2.4c0,1.2,0.7,2.4,2.1,2.4
			C309.6,96.4,310.3,95.3,310.3,94z"/>
		<path d="M323,94.6l-1.2,2.6h-1.4l5-11l5,11H329l-1.2-2.6H323z M325.4,89.1l-1.9,4.3h3.8L325.4,89.1z"/>
		<path d="M336.1,92.2c-0.2-0.3-0.5-0.6-0.8-0.6c-0.4,0-0.7,0.3-0.7,0.6c0,0.6,0.8,0.8,1.5,1.2s1.5,0.8,1.5,1.9c0,1.2-1,2.2-2.3,2.2
			c-1,0-1.9-0.5-2.3-1.5l1.1-0.5c0.3,0.5,0.6,0.8,1.2,0.8c0.5,0,1-0.4,1-0.9c0-0.4-0.2-0.5-0.5-0.7l-1.2-0.7
			c-0.7-0.4-1.3-0.8-1.3-1.7c0-1.1,0.9-1.9,1.9-1.9c0.8,0,1.4,0.4,1.8,1.1L336.1,92.2z"/>
		<path d="M342.8,87.7c0,0.5-0.4,0.9-0.9,0.9c-0.5,0-0.9-0.4-0.9-0.9c0-0.5,0.4-0.9,0.9-0.9C342.4,86.8,342.8,87.2,342.8,87.7z
			 M342.6,97.3h-1.3v-6.6h1.3V97.3z"/>
		<path d="M353,97.3h-1.3v-1h0c-0.5,0.7-1.3,1.2-2.2,1.2c-2,0-3.1-1.7-3.1-3.5c0-1.8,1.2-3.4,3.1-3.4c1,0,1.8,0.5,2.3,1.3h0v-1.1
			h1.3V97.3z M351.8,94c0-1.3-0.8-2.4-2.1-2.4c-1.3,0-2.1,1.1-2.1,2.4c0,1.2,0.7,2.4,2.1,2.4C351,96.4,351.8,95.3,351.8,94z"/>
		<path d="M358.1,91.6L358.1,91.6c0.4-0.7,1.2-1.1,2-1.1c1.8,0,2.3,1.2,2.3,2.8v3.9h-1.3v-3.8c0-1.1-0.2-1.9-1.4-1.9
			c-1.6,0-1.6,1.4-1.6,2.6v3h-1.3v-6.6h1.3V91.6z"/>
		<path d="M372.7,86.7h2.2c3.2,0,5.9,1.7,5.9,5.2c0,3.6-2.6,5.3-6,5.3h-2.1V86.7z M374.1,96.1h0.5c2.7,0,5-1,5-4.1
			c0-3.1-2.3-4.1-5-4.1h-0.5V96.1z"/>
		<path d="M386,87.7c0,0.5-0.4,0.9-0.9,0.9c-0.5,0-0.9-0.4-0.9-0.9c0-0.5,0.4-0.9,0.9-0.9C385.6,86.8,386,87.2,386,87.7z
			 M385.8,97.3h-1.3v-6.6h1.3V97.3z"/>
		<path d="M391.3,91.6L391.3,91.6c0.4-0.7,1.2-1.1,2-1.1c1.8,0,2.3,1.2,2.3,2.8v3.9h-1.3v-3.8c0-1.1-0.2-1.9-1.4-1.9
			c-1.6,0-1.6,1.4-1.6,2.6v3h-1.3v-6.6h1.3V91.6z"/>
		<path d="M401.4,87.7c0,0.5-0.4,0.9-0.9,0.9c-0.5,0-0.9-0.4-0.9-0.9c0-0.5,0.4-0.9,0.9-0.9C401,86.8,401.4,87.2,401.4,87.7z
			 M401.2,97.3h-1.3v-6.6h1.3V97.3z"/>
		<path d="M406.7,91.6L406.7,91.6c0.4-0.7,1.2-1.1,2-1.1c1.8,0,2.3,1.2,2.3,2.8v3.9h-1.3v-3.8c0-1.1-0.2-1.9-1.4-1.9
			c-1.6,0-1.6,1.4-1.6,2.6v3h-1.3v-6.6h1.3V91.6z"/>
		<path d="M421.1,97.1c0,2.3-0.6,3.9-3.2,3.9c-1.8,0-3.1-1.1-3.2-3h1.3c0,1.2,0.8,1.8,2,1.8c1.6,0,1.9-1.1,1.9-2.4v-1.2h0
			c-0.5,0.7-1.3,1.2-2.2,1.2c-2,0-3.1-1.7-3.1-3.5c0-1.8,1.2-3.4,3.1-3.4c1,0,1.8,0.5,2.3,1.3h0v-1.1h1.3V97.1z M419.9,94
			c0-1.3-0.8-2.4-2.1-2.4c-1.3,0-2.1,1.1-2.1,2.4c0,1.2,0.7,2.4,2.1,2.4C419.2,96.4,419.9,95.3,419.9,94z"/>
		<path d="M427,96.7c0,0.4-0.4,0.8-0.8,0.8s-0.8-0.4-0.8-0.8c0-0.4,0.4-0.8,0.8-0.8S427,96.2,427,96.7z"/>
		<path d="M439.5,90.3L439.5,90.3l-1.3,7h-1.4l2.2-11l3.6,8.3l3.6-8.3l2.2,11h-1.4l-1.2-7h0l-3.2,7.2L439.5,90.3z"/>
		<path d="M450.7,90.7h1.5l2.2,4.2l2.1-4.2h1.4l-5.3,10.3h-1.4l2.6-4.9L450.7,90.7z"/>
		<path d="M2.3,108.9c0,0.5-0.4,0.9-0.9,0.9c-0.5,0-0.9-0.4-0.9-0.9c0-0.5,0.4-0.9,0.9-0.9C1.9,108,2.3,108.4,2.3,108.9z M2,118.5
			H0.8v-6.6H2V118.5z"/>
		<path d="M7.6,112.8L7.6,112.8c0.4-0.7,1.2-1.1,2-1.1c1.8,0,2.3,1.2,2.3,2.8v3.9h-1.3v-3.8c0-1.1-0.2-1.9-1.4-1.9
			c-1.6,0-1.6,1.4-1.6,2.6v3H6.3v-6.6h1.3V112.8z"/>
		<path d="M17.3,118.5H16v-5.4h-0.7v-1.2H16v-2.5h1.3v2.5h1.2v1.2h-1.2V118.5z"/>
		<path d="M22.2,115.4c0,1.1,0.8,2.2,2,2.2c1,0,1.5-0.5,2-1.3l1.1,0.6c-0.6,1.1-1.8,1.8-3,1.8c-2,0-3.2-1.5-3.2-3.4
			c0-2,1.1-3.5,3.2-3.5c2.1,0,3.1,1.5,3.1,3.5v0.2H22.2z M26,114.4c-0.2-1-0.8-1.6-1.8-1.6c-1,0-1.7,0.7-1.9,1.6H26z"/>
		<path d="M31.9,113L31.9,113c0.4-0.8,1-1.3,1.8-1.3c0.4,0,0.7,0.1,1,0.3l-0.6,1.1c-0.2-0.2-0.5-0.3-0.8-0.3c-1.4,0-1.5,1.3-1.5,2.3
			v3.2h-1.3v-6.6h1.3V113z"/>
		<path d="M39.1,112.8L39.1,112.8c0.4-0.7,1.2-1.1,2-1.1c1.8,0,2.3,1.2,2.3,2.8v3.9h-1.3v-3.8c0-1.1-0.2-1.9-1.4-1.9
			c-1.6,0-1.6,1.4-1.6,2.6v3h-1.3v-6.6h1.3V112.8z"/>
		<path d="M50,113.4c-0.2-0.3-0.5-0.6-0.8-0.6c-0.4,0-0.7,0.3-0.7,0.6c0,0.6,0.8,0.8,1.5,1.2s1.5,0.8,1.5,1.9c0,1.2-1,2.2-2.3,2.2
			c-1,0-1.9-0.5-2.3-1.5l1.1-0.5c0.3,0.5,0.6,0.8,1.2,0.8c0.5,0,1-0.4,1-0.9c0-0.4-0.2-0.5-0.5-0.7l-1.2-0.7
			c-0.7-0.4-1.3-0.8-1.3-1.7c0-1.1,0.9-1.9,1.9-1.9c0.8,0,1.4,0.4,1.8,1.1L50,113.4z"/>
		<path d="M56.2,106.3v6.5h0c0.4-0.7,1.2-1.1,2-1.1c1.8,0,2.3,1.2,2.3,2.8v3.9h-1.3v-3.8c0-1.1-0.2-1.9-1.4-1.9
			c-1.6,0-1.6,1.4-1.6,2.6v3H55v-12.2H56.2z"/>
		<path d="M66.3,108.9c0,0.5-0.4,0.9-0.9,0.9c-0.5,0-0.9-0.4-0.9-0.9c0-0.5,0.4-0.9,0.9-0.9C65.9,108,66.3,108.4,66.3,108.9z
			 M66.1,118.5h-1.3v-6.6h1.3V118.5z"/>
		<path d="M71.5,113L71.5,113c0.5-0.8,1.3-1.3,2.3-1.3c1.9,0,3.1,1.6,3.1,3.4c0,1.9-1.1,3.5-3.1,3.5c-0.9,0-1.7-0.5-2.2-1.2h0v4.8
			h-1.3v-10.3h1.3V113z M75.6,115.2c0-1.3-0.8-2.4-2.1-2.4c-1.3,0-2.1,1.1-2.1,2.4c0,1.2,0.7,2.4,2.1,2.4
			C74.9,117.6,75.6,116.5,75.6,115.2z"/>
		<path d="M86.5,106.3h1.3v6.7h0c0.5-0.8,1.3-1.3,2.3-1.3c1.9,0,3.1,1.6,3.1,3.4c0,1.9-1.1,3.5-3.1,3.5c-0.9,0-1.7-0.5-2.2-1.2h0v1
			h-1.3V106.3z M91.9,115.2c0-1.3-0.8-2.4-2.1-2.4c-1.3,0-2.1,1.1-2.1,2.4c0,1.2,0.7,2.4,2.1,2.4C91.2,117.6,91.9,116.5,91.9,115.2z
			"/>
		<path d="M97.4,115.4c0,1.1,0.8,2.2,2,2.2c1,0,1.5-0.5,2-1.3l1.1,0.6c-0.6,1.1-1.8,1.8-3,1.8c-2,0-3.2-1.5-3.2-3.4
			c0-2,1.1-3.5,3.2-3.5c2.1,0,3.1,1.5,3.1,3.5v0.2H97.4z M101.2,114.4c-0.2-1-0.8-1.6-1.8-1.6c-1,0-1.7,0.7-1.9,1.6H101.2z"/>
		<path d="M111.9,118.3c0,2.3-0.6,3.9-3.2,3.9c-1.8,0-3.1-1.1-3.2-3h1.3c0,1.2,0.8,1.8,2,1.8c1.6,0,1.9-1.1,1.9-2.4v-1.2h0
			c-0.5,0.7-1.3,1.2-2.2,1.2c-2,0-3.1-1.7-3.1-3.5c0-1.8,1.2-3.4,3.1-3.4c1,0,1.8,0.5,2.3,1.3h0v-1.1h1.3V118.3z M110.7,115.2
			c0-1.3-0.8-2.4-2.1-2.4c-1.3,0-2.1,1.1-2.1,2.4c0,1.2,0.7,2.4,2.1,2.4C109.9,117.6,110.7,116.5,110.7,115.2z"/>
		<path d="M121.9,118.5h-1.3v-1h0c-0.5,0.7-1.3,1.2-2.2,1.2c-2,0-3.1-1.7-3.1-3.5c0-1.8,1.2-3.4,3.1-3.4c1,0,1.8,0.5,2.3,1.3h0v-1.1
			h1.3V118.5z M120.7,115.2c0-1.3-0.8-2.4-2.1-2.4c-1.3,0-2.1,1.1-2.1,2.4c0,1.2,0.7,2.4,2.1,2.4C120,117.6,120.7,116.5,120.7,115.2
			z"/>
		<path d="M127,112.8L127,112.8c0.4-0.7,1.2-1.1,2-1.1c1.8,0,2.3,1.2,2.3,2.8v3.9h-1.3v-3.8c0-1.1-0.2-1.9-1.4-1.9
			c-1.6,0-1.6,1.4-1.6,2.6v3h-1.3v-6.6h1.3V112.8z"/>
		<path d="M143.9,116.1l1.9-4.5l1.9,4.5l1.9-4.2h1.4l-3.3,6.8l-1.9-4.4l-1.9,4.4l-3.3-6.8h1.4L143.9,116.1z"/>
		<path d="M155.7,108.9c0,0.5-0.4,0.9-0.9,0.9c-0.5,0-0.9-0.4-0.9-0.9c0-0.5,0.4-0.9,0.9-0.9C155.3,108,155.7,108.4,155.7,108.9z
			 M155.5,118.5h-1.3v-6.6h1.3V118.5z"/>
		<path d="M161.2,118.5h-1.3v-5.4h-0.7v-1.2h0.7v-2.5h1.3v2.5h1.2v1.2h-1.2V118.5z"/>
		<path d="M166.6,106.3v6.5h0c0.4-0.7,1.2-1.1,2-1.1c1.8,0,2.3,1.2,2.3,2.8v3.9h-1.3v-3.8c0-1.1-0.2-1.9-1.4-1.9
			c-1.6,0-1.6,1.4-1.6,2.6v3h-1.3v-12.2H166.6z"/>
		<path d="M182.6,118.5h-1.3v-5.4h-0.7v-1.2h0.7v-2.5h1.3v2.5h1.2v1.2h-1.2V118.5z"/>
		<path d="M188,106.3v6.5h0c0.4-0.7,1.2-1.1,2-1.1c1.8,0,2.3,1.2,2.3,2.8v3.9h-1.3v-3.8c0-1.1-0.2-1.9-1.4-1.9
			c-1.6,0-1.6,1.4-1.6,2.6v3h-1.3v-12.2H188z"/>
		<path d="M197.1,115.4c0,1.1,0.8,2.2,2,2.2c1,0,1.5-0.5,2-1.3l1.1,0.6c-0.6,1.1-1.8,1.8-3,1.8c-2,0-3.2-1.5-3.2-3.4
			c0-2,1.1-3.5,3.2-3.5c2.1,0,3.1,1.5,3.1,3.5v0.2H197.1z M200.8,114.4c-0.2-1-0.8-1.6-1.8-1.6c-1,0-1.7,0.7-1.9,1.6H200.8z"/>
		<path d="M212.8,113L212.8,113c0.5-0.8,1.3-1.3,2.3-1.3c1.9,0,3.1,1.6,3.1,3.4c0,1.9-1.1,3.5-3.1,3.5c-0.9,0-1.7-0.5-2.2-1.2h0v4.8
			h-1.3v-10.3h1.3V113z M217,115.2c0-1.3-0.8-2.4-2.1-2.4c-1.3,0-2.1,1.1-2.1,2.4c0,1.2,0.7,2.4,2.1,2.4
			C216.2,117.6,217,116.5,217,115.2z"/>
		<path d="M223,113L223,113c0.4-0.8,1-1.3,1.8-1.3c0.4,0,0.7,0.1,1,0.3l-0.6,1.1c-0.2-0.2-0.5-0.3-0.8-0.3c-1.4,0-1.5,1.3-1.5,2.3
			v3.2h-1.3v-6.6h1.3V113z"/>
		<path d="M235.3,115.2c0,2-1.5,3.5-3.5,3.5c-2,0-3.5-1.5-3.5-3.5s1.5-3.5,3.5-3.5C233.7,111.7,235.3,113.2,235.3,115.2z
			 M229.5,115.2c0,1.2,1,2.3,2.2,2.3c1.2,0,2.2-1.1,2.2-2.3c0-1.2-1-2.3-2.2-2.3C230.5,112.9,229.5,114,229.5,115.2z"/>
		<path d="M243.5,117.4L243.5,117.4c-0.5,0.7-1.3,1.2-2.3,1.2c-2,0-3.1-1.7-3.1-3.5c0-1.8,1.2-3.4,3.1-3.4c1,0,1.8,0.5,2.3,1.3h0
			v-6.7h1.3v12.2h-1.3V117.4z M243.6,115.2c0-1.3-0.8-2.4-2.1-2.4c-1.3,0-2.1,1.1-2.1,2.4c0,1.2,0.7,2.4,2.1,2.4
			C242.9,117.6,243.6,116.5,243.6,115.2z"/>
		<path d="M249.9,111.9v3.6c0,1.1,0.3,2,1.5,2s1.5-0.9,1.5-2v-3.6h1.3v3.8c0,1.8-0.8,3-2.8,3s-2.8-1.2-2.8-3v-3.8H249.9z"/>
		<path d="M262.9,113.8c-0.5-0.6-1.1-0.9-1.9-0.9c-1.2,0-2.2,1.1-2.2,2.3c0,1.3,0.9,2.3,2.3,2.3c0.7,0,1.3-0.3,1.8-0.9v1.6
			c-0.6,0.3-1.1,0.4-1.8,0.4c-1.9,0-3.5-1.5-3.5-3.4c0-2,1.6-3.5,3.6-3.5c0.6,0,1.2,0.1,1.7,0.4V113.8z"/>
		<path d="M267.9,118.5h-1.3v-5.4H266v-1.2h0.7v-2.5h1.3v2.5h1.2v1.2h-1.2V118.5z"/>
		<path d="M273.9,108.9c0,0.5-0.4,0.9-0.9,0.9c-0.5,0-0.9-0.4-0.9-0.9c0-0.5,0.4-0.9,0.9-0.9C273.5,108,273.9,108.4,273.9,108.9z
			 M273.6,118.5h-1.3v-6.6h1.3V118.5z"/>
		<path d="M284.3,115.2c0,2-1.5,3.5-3.5,3.5c-2,0-3.5-1.5-3.5-3.5s1.5-3.5,3.5-3.5C282.8,111.7,284.3,113.2,284.3,115.2z
			 M278.6,115.2c0,1.2,1,2.3,2.2,2.3c1.2,0,2.2-1.1,2.2-2.3c0-1.2-1-2.3-2.2-2.3C279.6,112.9,278.6,114,278.6,115.2z"/>
		<path d="M289,112.8L289,112.8c0.4-0.7,1.2-1.1,2-1.1c1.8,0,2.3,1.2,2.3,2.8v3.9H292v-3.8c0-1.1-0.2-1.9-1.4-1.9
			c-1.6,0-1.6,1.4-1.6,2.6v3h-1.3v-6.6h1.3V112.8z"/>
		<path d="M310,115.2c0,2-1.5,3.5-3.5,3.5c-2,0-3.5-1.5-3.5-3.5s1.5-3.5,3.5-3.5C308.4,111.7,310,113.2,310,115.2z M304.2,115.2
			c0,1.2,1,2.3,2.2,2.3c1.2,0,2.2-1.1,2.2-2.3c0-1.2-1-2.3-2.2-2.3C305.2,112.9,304.2,114,304.2,115.2z"/>
		<path d="M316.6,107.6c-0.3-0.1-0.6-0.3-0.8-0.3c-0.9,0-0.9,1.1-0.9,1.8v2.8h1.7v1.2h-1.7v5.4h-1.3v-5.4H313v-1.2h0.6v-3.2
			c0-1.4,0.5-2.6,2.1-2.6c0.3,0,0.6,0.1,0.9,0.2V107.6z"/>
		<path d="M325.6,106.3h1.3v6.7h0c0.5-0.8,1.3-1.3,2.3-1.3c1.9,0,3.1,1.6,3.1,3.4c0,1.9-1.1,3.5-3.1,3.5c-0.9,0-1.7-0.5-2.2-1.2h0v1
			h-1.3V106.3z M331,115.2c0-1.3-0.8-2.4-2.1-2.4c-1.3,0-2.1,1.1-2.1,2.4c0,1.2,0.7,2.4,2.1,2.4C330.3,117.6,331,116.5,331,115.2z"
			/>
		<path d="M337.5,108.9c0,0.5-0.4,0.9-0.9,0.9c-0.5,0-0.9-0.4-0.9-0.9c0-0.5,0.4-0.9,0.9-0.9C337.1,108,337.5,108.4,337.5,108.9z
			 M337.3,118.5H336v-6.6h1.3V118.5z"/>
		<path d="M342.9,118.5h-1.3v-12.2h1.3V118.5z"/>
		<path d="M348.2,118.5h-1.3v-12.2h1.3V118.5z"/>
		<path d="M352.1,106.3h1.3v6.7h0c0.5-0.8,1.3-1.3,2.3-1.3c1.9,0,3.1,1.6,3.1,3.4c0,1.9-1.1,3.5-3.1,3.5c-0.9,0-1.7-0.5-2.2-1.2h0v1
			h-1.3V106.3z M357.5,115.2c0-1.3-0.8-2.4-2.1-2.4c-1.3,0-2.1,1.1-2.1,2.4c0,1.2,0.7,2.4,2.1,2.4
			C356.8,117.6,357.5,116.5,357.5,115.2z"/>
		<path d="M368.7,115.2c0,2-1.5,3.5-3.5,3.5c-2,0-3.5-1.5-3.5-3.5s1.5-3.5,3.5-3.5C367.1,111.7,368.7,113.2,368.7,115.2z
			 M362.9,115.2c0,1.2,1,2.3,2.2,2.3c1.2,0,2.2-1.1,2.2-2.3c0-1.2-1-2.3-2.2-2.3C363.9,112.9,362.9,114,362.9,115.2z"/>
		<path d="M378.2,118.5h-1.3v-1h0c-0.5,0.7-1.3,1.2-2.2,1.2c-2,0-3.1-1.7-3.1-3.5c0-1.8,1.2-3.4,3.1-3.4c1,0,1.8,0.5,2.3,1.3h0v-1.1
			h1.3V118.5z M377,115.2c0-1.3-0.8-2.4-2.1-2.4c-1.3,0-2.1,1.1-2.1,2.4c0,1.2,0.7,2.4,2.1,2.4C376.3,117.6,377,116.5,377,115.2z"/>
		<path d="M383.4,113L383.4,113c0.4-0.8,1-1.3,1.8-1.3c0.4,0,0.7,0.1,1,0.3l-0.6,1.1c-0.2-0.2-0.5-0.3-0.8-0.3
			c-1.4,0-1.5,1.3-1.5,2.3v3.2h-1.3v-6.6h1.3V113z"/>
		<path d="M394.1,117.4L394.1,117.4c-0.5,0.7-1.3,1.2-2.3,1.2c-2,0-3.1-1.7-3.1-3.5c0-1.8,1.2-3.4,3.1-3.4c1,0,1.8,0.5,2.3,1.3h0
			v-6.7h1.3v12.2h-1.3V117.4z M394.2,115.2c0-1.3-0.8-2.4-2.1-2.4c-1.3,0-2.1,1.1-2.1,2.4c0,1.2,0.7,2.4,2.1,2.4
			C393.4,117.6,394.2,116.5,394.2,115.2z"/>
		<path d="M401.9,113.4c-0.2-0.3-0.5-0.6-0.8-0.6c-0.4,0-0.7,0.3-0.7,0.6c0,0.6,0.8,0.8,1.5,1.2s1.5,0.8,1.5,1.9
			c0,1.2-1,2.2-2.3,2.2c-1,0-1.9-0.5-2.3-1.5l1.1-0.5c0.3,0.5,0.6,0.8,1.2,0.8c0.5,0,1-0.4,1-0.9c0-0.4-0.2-0.5-0.5-0.7l-1.2-0.7
			c-0.7-0.4-1.3-0.8-1.3-1.7c0-1.1,0.9-1.9,1.9-1.9c0.8,0,1.4,0.4,1.8,1.1L401.9,113.4z"/>
		<path d="M409.4,117.2l-1.9,3.7l-0.8-0.3l1.5-3.9L409.4,117.2z"/>
		<path d="M421.7,116.1l1.9-4.5l1.9,4.5l1.9-4.2h1.4l-3.3,6.8l-1.9-4.4l-1.9,4.4l-3.3-6.8h1.4L421.7,116.1z"/>
		<path d="M432.5,115.4c0,1.1,0.8,2.2,2,2.2c1,0,1.5-0.5,2-1.3l1.1,0.6c-0.6,1.1-1.8,1.8-3,1.8c-2,0-3.2-1.5-3.2-3.4
			c0-2,1.1-3.5,3.2-3.5c2.1,0,3.1,1.5,3.1,3.5v0.2H432.5z M436.2,114.4c-0.2-1-0.8-1.6-1.8-1.6c-1,0-1.7,0.7-1.9,1.6H436.2z"/>
		<path d="M440.7,106.3h1.3v6.7h0c0.5-0.8,1.3-1.3,2.3-1.3c1.9,0,3.1,1.6,3.1,3.4c0,1.9-1.1,3.5-3.1,3.5c-0.9,0-1.7-0.5-2.2-1.2h0v1
			h-1.3V106.3z M446.1,115.2c0-1.3-0.8-2.4-2.1-2.4c-1.3,0-2.1,1.1-2.1,2.4c0,1.2,0.7,2.4,2.1,2.4
			C445.4,117.6,446.1,116.5,446.1,115.2z"/>
		<path d="M0.4,127.5h1.3v6.7h0c0.5-0.8,1.3-1.3,2.3-1.3c1.9,0,3.1,1.6,3.1,3.4c0,1.9-1.1,3.5-3.1,3.5c-0.9,0-1.7-0.5-2.2-1.2h0v1
			H0.4V127.5z M5.8,136.4c0-1.3-0.8-2.4-2.1-2.4c-1.3,0-2.1,1.1-2.1,2.4c0,1.2,0.7,2.4,2.1,2.4C5,138.8,5.8,137.7,5.8,136.4z"/>
		<path d="M16.7,139.7h-1.3v-1h0c-0.5,0.7-1.3,1.2-2.2,1.2c-2,0-3.1-1.7-3.1-3.5c0-1.8,1.2-3.4,3.1-3.4c1,0,1.8,0.5,2.3,1.3h0v-1.1
			h1.3V139.7z M15.5,136.4c0-1.3-0.8-2.4-2.1-2.4c-1.3,0-2.1,1.1-2.1,2.4c0,1.2,0.7,2.4,2.1,2.4C14.7,138.8,15.5,137.7,15.5,136.4z"
			/>
		<path d="M21.8,134L21.8,134c0.4-0.7,1.2-1.1,2-1.1c1.8,0,2.3,1.2,2.3,2.8v3.9h-1.3v-3.8c0-1.1-0.2-1.9-1.4-1.9
			c-1.6,0-1.6,1.4-1.6,2.6v3h-1.3v-6.6h1.3V134z"/>
		<path d="M31.4,134L31.4,134c0.4-0.7,1.2-1.1,2-1.1c1.8,0,2.3,1.2,2.3,2.8v3.9h-1.3v-3.8c0-1.1-0.2-1.9-1.4-1.9
			c-1.6,0-1.6,1.4-1.6,2.6v3h-1.3v-6.6h1.3V134z"/>
		<path d="M40.4,136.6c0,1.1,0.8,2.2,2,2.2c1,0,1.5-0.5,2-1.3l1.1,0.6c-0.6,1.1-1.8,1.8-3,1.8c-2,0-3.2-1.5-3.2-3.4
			c0-2,1.1-3.5,3.2-3.5c2.1,0,3.1,1.5,3.1,3.5v0.2H40.4z M44.2,135.6c-0.2-1-0.8-1.6-1.8-1.6c-1,0-1.7,0.7-1.9,1.6H44.2z"/>
		<path d="M50.1,134.2L50.1,134.2c0.4-0.8,1-1.3,1.8-1.3c0.4,0,0.7,0.1,1,0.3l-0.6,1.1c-0.2-0.2-0.5-0.3-0.8-0.3
			c-1.4,0-1.5,1.3-1.5,2.3v3.2h-1.3v-6.6h1.3V134.2z"/>
		<path d="M58.5,134.6c-0.2-0.3-0.5-0.6-0.8-0.6c-0.4,0-0.7,0.3-0.7,0.6c0,0.6,0.8,0.8,1.5,1.2s1.5,0.8,1.5,1.9c0,1.2-1,2.2-2.3,2.2
			c-1,0-1.9-0.5-2.3-1.5l1.1-0.5c0.3,0.5,0.6,0.8,1.2,0.8c0.5,0,1-0.4,1-0.9c0-0.4-0.2-0.5-0.5-0.7l-1.2-0.7
			c-0.7-0.4-1.3-0.8-1.3-1.7c0-1.1,0.9-1.9,1.9-1.9c0.8,0,1.4,0.4,1.8,1.1L58.5,134.6z"/>
		<path d="M66,138.4l-1.9,3.7l-0.8-0.3l1.5-3.9L66,138.4z"/>
		<path d="M82.2,139.7H81v-1h0c-0.5,0.7-1.3,1.2-2.2,1.2c-2,0-3.1-1.7-3.1-3.5c0-1.8,1.2-3.4,3.1-3.4c1,0,1.8,0.5,2.3,1.3h0v-1.1
			h1.3V139.7z M81,136.4c0-1.3-0.8-2.4-2.1-2.4c-1.3,0-2.1,1.1-2.1,2.4c0,1.2,0.7,2.4,2.1,2.4C80.3,138.8,81,137.7,81,136.4z"/>
		<path d="M87.4,134L87.4,134c0.4-0.7,1.2-1.1,2-1.1c1.8,0,2.3,1.2,2.3,2.8v3.9h-1.3v-3.8c0-1.1-0.2-1.9-1.4-1.9
			c-1.6,0-1.6,1.4-1.6,2.6v3h-1.3v-6.6h1.3V134z"/>
		<path d="M100.6,138.6L100.6,138.6c-0.5,0.7-1.3,1.2-2.3,1.2c-2,0-3.1-1.7-3.1-3.5c0-1.8,1.2-3.4,3.1-3.4c1,0,1.8,0.5,2.3,1.3h0
			v-6.7h1.3v12.2h-1.3V138.6z M100.6,136.4c0-1.3-0.8-2.4-2.1-2.4c-1.3,0-2.1,1.1-2.1,2.4c0,1.2,0.7,2.4,2.1,2.4
			C99.9,138.8,100.6,137.7,100.6,136.4z"/>
		<path d="M113.1,134.2L113.1,134.2c0.5-0.8,1.3-1.3,2.3-1.3c1.9,0,3.1,1.6,3.1,3.4c0,1.9-1.1,3.5-3.1,3.5c-0.9,0-1.7-0.5-2.2-1.2h0
			v4.8h-1.3v-10.3h1.3V134.2z M117.3,136.4c0-1.3-0.8-2.4-2.1-2.4c-1.3,0-2.1,1.1-2.1,2.4c0,1.2,0.7,2.4,2.1,2.4
			C116.5,138.8,117.3,137.7,117.3,136.4z"/>
		<path d="M123.4,134.2L123.4,134.2c0.4-0.8,1-1.3,1.8-1.3c0.4,0,0.7,0.1,1,0.3l-0.6,1.1c-0.2-0.2-0.5-0.3-0.8-0.3
			c-1.4,0-1.5,1.3-1.5,2.3v3.2h-1.3v-6.6h1.3V134.2z"/>
		<path d="M130.9,130.1c0,0.5-0.4,0.9-0.9,0.9c-0.5,0-0.9-0.4-0.9-0.9c0-0.5,0.4-0.9,0.9-0.9C130.6,129.2,130.9,129.6,130.9,130.1z
			 M130.7,139.7h-1.3v-6.6h1.3V139.7z"/>
		<path d="M136.2,134L136.2,134c0.4-0.7,1.2-1.1,2-1.1c1.8,0,2.3,1.2,2.3,2.8v3.9h-1.3v-3.8c0-1.1-0.2-1.9-1.4-1.9
			c-1.6,0-1.6,1.4-1.6,2.6v3H135v-6.6h1.3V134z"/>
		<path d="M146,139.7h-1.3v-5.4H144v-1.2h0.7v-2.5h1.3v2.5h1.2v1.2H146V139.7z"/>
		<path d="M161.3,138.6L161.3,138.6c-0.5,0.7-1.3,1.2-2.3,1.2c-2,0-3.1-1.7-3.1-3.5c0-1.8,1.2-3.4,3.1-3.4c1,0,1.8,0.5,2.3,1.3h0
			v-6.7h1.3v12.2h-1.3V138.6z M161.4,136.4c0-1.3-0.8-2.4-2.1-2.4c-1.3,0-2.1,1.1-2.1,2.4c0,1.2,0.7,2.4,2.1,2.4
			C160.6,138.8,161.4,137.7,161.4,136.4z"/>
		<path d="M167.2,136.6c0,1.1,0.8,2.2,2,2.2c1,0,1.5-0.5,2-1.3l1.1,0.6c-0.6,1.1-1.8,1.8-3,1.8c-2,0-3.2-1.5-3.2-3.4
			c0-2,1.1-3.5,3.2-3.5c2.1,0,3.1,1.5,3.1,3.5v0.2H167.2z M170.9,135.6c-0.2-1-0.8-1.6-1.8-1.6c-1,0-1.7,0.7-1.9,1.6H170.9z"/>
		<path d="M178.1,134.6c-0.2-0.3-0.5-0.6-0.8-0.6c-0.4,0-0.7,0.3-0.7,0.6c0,0.6,0.8,0.8,1.5,1.2s1.5,0.8,1.5,1.9
			c0,1.2-1,2.2-2.3,2.2c-1,0-1.9-0.5-2.3-1.5l1.1-0.5c0.3,0.5,0.6,0.8,1.2,0.8c0.5,0,1-0.4,1-0.9c0-0.4-0.2-0.5-0.5-0.7l-1.2-0.7
			c-0.7-0.4-1.3-0.8-1.3-1.7c0-1.1,0.9-1.9,1.9-1.9c0.8,0,1.4,0.4,1.8,1.1L178.1,134.6z"/>
		<path d="M184.9,130.1c0,0.5-0.4,0.9-0.9,0.9c-0.5,0-0.9-0.4-0.9-0.9c0-0.5,0.4-0.9,0.9-0.9C184.5,129.2,184.9,129.6,184.9,130.1z
			 M184.7,139.7h-1.3v-6.6h1.3V139.7z"/>
		<path d="M195.1,139.5c0,2.3-0.6,3.9-3.2,3.9c-1.8,0-3.1-1.1-3.2-3h1.3c0,1.2,0.8,1.8,2,1.8c1.6,0,1.9-1.1,1.9-2.4v-1.2h0
			c-0.5,0.7-1.3,1.2-2.2,1.2c-2,0-3.1-1.7-3.1-3.5c0-1.8,1.2-3.4,3.1-3.4c1,0,1.8,0.5,2.3,1.3h0v-1.1h1.3V139.5z M193.9,136.4
			c0-1.3-0.8-2.4-2.1-2.4c-1.3,0-2.1,1.1-2.1,2.4c0,1.2,0.7,2.4,2.1,2.4C193.1,138.8,193.9,137.7,193.9,136.4z"/>
		<path d="M200.2,134L200.2,134c0.4-0.7,1.2-1.1,2-1.1c1.8,0,2.3,1.2,2.3,2.8v3.9h-1.3v-3.8c0-1.1-0.2-1.9-1.4-1.9
			c-1.6,0-1.6,1.4-1.6,2.6v3h-1.3v-6.6h1.3V134z"/>
		<path d="M218,128.8c-0.3-0.1-0.6-0.3-0.8-0.3c-0.9,0-0.9,1.1-0.9,1.8v2.8h1.7v1.2h-1.7v5.4H215v-5.4h-0.6v-1.2h0.6v-3.2
			c0-1.4,0.5-2.6,2.1-2.6c0.3,0,0.6,0.1,0.9,0.2V128.8z"/>
		<path d="M227.3,136.4c0,2-1.5,3.5-3.5,3.5c-2,0-3.5-1.5-3.5-3.5s1.5-3.5,3.5-3.5C225.7,132.9,227.3,134.4,227.3,136.4z
			 M221.5,136.4c0,1.2,1,2.3,2.2,2.3c1.2,0,2.2-1.1,2.2-2.3c0-1.2-1-2.3-2.2-2.3C222.5,134.1,221.5,135.2,221.5,136.4z"/>
		<path d="M232,134.2L232,134.2c0.4-0.8,1-1.3,1.8-1.3c0.4,0,0.7,0.1,1,0.3l-0.6,1.1c-0.2-0.2-0.5-0.3-0.8-0.3
			c-1.4,0-1.5,1.3-1.5,2.3v3.2h-1.3v-6.6h1.3V134.2z"/>
		<path d="M245.5,139.7h-1.3v-5.4h-0.7v-1.2h0.7v-2.5h1.3v2.5h1.2v1.2h-1.2V139.7z"/>
		<path d="M251,127.5v6.5h0c0.4-0.7,1.2-1.1,2-1.1c1.8,0,2.3,1.2,2.3,2.8v3.9H254v-3.8c0-1.1-0.2-1.9-1.4-1.9
			c-1.6,0-1.6,1.4-1.6,2.6v3h-1.3v-12.2H251z"/>
		<path d="M260,136.6c0,1.1,0.8,2.2,2,2.2c1,0,1.5-0.5,2-1.3l1.1,0.6c-0.6,1.1-1.8,1.8-3,1.8c-2,0-3.2-1.5-3.2-3.4
			c0-2,1.1-3.5,3.2-3.5c2.1,0,3.1,1.5,3.1,3.5v0.2H260z M263.8,135.6c-0.2-1-0.8-1.6-1.8-1.6c-1,0-1.7,0.7-1.9,1.6H263.8z"/>
		<path d="M279.5,138.6L279.5,138.6c-0.5,0.7-1.3,1.2-2.3,1.2c-2,0-3.1-1.7-3.1-3.5c0-1.8,1.2-3.4,3.1-3.4c1,0,1.8,0.5,2.3,1.3h0
			v-6.7h1.3v12.2h-1.3V138.6z M279.6,136.4c0-1.3-0.8-2.4-2.1-2.4c-1.3,0-2.1,1.1-2.1,2.4c0,1.2,0.7,2.4,2.1,2.4
			C278.8,138.8,279.6,137.7,279.6,136.4z"/>
		<path d="M290.8,139.7h-1.3v-1h0c-0.5,0.7-1.3,1.2-2.2,1.2c-2,0-3.1-1.7-3.1-3.5c0-1.8,1.2-3.4,3.1-3.4c1,0,1.8,0.5,2.3,1.3h0v-1.1
			h1.3V139.7z M289.6,136.4c0-1.3-0.8-2.4-2.1-2.4c-1.3,0-2.1,1.1-2.1,2.4c0,1.2,0.7,2.4,2.1,2.4
			C288.9,138.8,289.6,137.7,289.6,136.4z"/>
		<path d="M296.5,130.1c0,0.5-0.4,0.9-0.9,0.9c-0.5,0-0.9-0.4-0.9-0.9c0-0.5,0.4-0.9,0.9-0.9C296.1,129.2,296.5,129.6,296.5,130.1z
			 M296.2,139.7H295v-6.6h1.3V139.7z"/>
		<path d="M301.8,139.7h-1.3v-12.2h1.3V139.7z"/>
		<path d="M304.8,133.1h1.5l2.2,4.2l2.1-4.2h1.4l-5.3,10.3h-1.4l2.6-4.9L304.8,133.1z"/>
		<path d="M327.3,139.7H326v-1h0c-0.5,0.7-1.3,1.2-2.2,1.2c-2,0-3.1-1.7-3.1-3.5c0-1.8,1.2-3.4,3.1-3.4c1,0,1.8,0.5,2.3,1.3h0v-1.1
			h1.3V139.7z M326.1,136.4c0-1.3-0.8-2.4-2.1-2.4c-1.3,0-2.1,1.1-2.1,2.4c0,1.2,0.7,2.4,2.1,2.4
			C325.3,138.8,326.1,137.7,326.1,136.4z"/>
		<path d="M332.4,134L332.4,134c0.4-0.7,1.2-1.1,2-1.1c1.8,0,2.3,1.2,2.3,2.8v3.9h-1.3v-3.8c0-1.1-0.2-1.9-1.4-1.9
			c-1.6,0-1.6,1.4-1.6,2.6v3h-1.3v-6.6h1.3V134z"/>
		<path d="M345.6,138.6L345.6,138.6c-0.5,0.7-1.3,1.2-2.3,1.2c-2,0-3.1-1.7-3.1-3.5c0-1.8,1.2-3.4,3.1-3.4c1,0,1.8,0.5,2.3,1.3h0
			v-6.7h1.3v12.2h-1.3V138.6z M345.7,136.4c0-1.3-0.8-2.4-2.1-2.4c-1.3,0-2.1,1.1-2.1,2.4c0,1.2,0.7,2.4,2.1,2.4
			C344.9,138.8,345.7,137.7,345.7,136.4z"/>
		<path d="M358.3,134L358.3,134c0.4-0.7,1.2-1.1,2-1.1c1.8,0,2.3,1.2,2.3,2.8v3.9h-1.3v-3.8c0-1.1-0.2-1.9-1.4-1.9
			c-1.6,0-1.6,1.4-1.6,2.6v3H357v-6.6h1.3V134z"/>
		<path d="M368.4,130.1c0,0.5-0.4,0.9-0.9,0.9c-0.5,0-0.9-0.4-0.9-0.9c0-0.5,0.4-0.9,0.9-0.9C368,129.2,368.4,129.6,368.4,130.1z
			 M368.1,139.7h-1.3v-6.6h1.3V139.7z"/>
		<path d="M378.5,139.5c0,2.3-0.6,3.9-3.2,3.9c-1.8,0-3.1-1.1-3.2-3h1.3c0,1.2,0.8,1.8,2,1.8c1.6,0,1.9-1.1,1.9-2.4v-1.2h0
			c-0.5,0.7-1.3,1.2-2.2,1.2c-2,0-3.1-1.7-3.1-3.5c0-1.8,1.2-3.4,3.1-3.4c1,0,1.8,0.5,2.3,1.3h0v-1.1h1.3V139.5z M377.3,136.4
			c0-1.3-0.8-2.4-2.1-2.4c-1.3,0-2.1,1.1-2.1,2.4c0,1.2,0.7,2.4,2.1,2.4C376.6,138.8,377.3,137.7,377.3,136.4z"/>
		<path d="M383.6,127.5v6.5h0c0.4-0.7,1.2-1.1,2-1.1c1.8,0,2.3,1.2,2.3,2.8v3.9h-1.3v-3.8c0-1.1-0.2-1.9-1.4-1.9
			c-1.6,0-1.6,1.4-1.6,2.6v3h-1.3v-12.2H383.6z"/>
		<path d="M393.4,139.7h-1.3v-5.4h-0.7v-1.2h0.7v-2.5h1.3v2.5h1.2v1.2h-1.2V139.7z"/>
		<path d="M398.9,139.7h-1.3v-12.2h1.3V139.7z"/>
		<path d="M401.8,133.1h1.5l2.2,4.2l2.1-4.2h1.4l-5.3,10.3h-1.4l2.6-4.9L401.8,133.1z"/>
		<path d="M418.9,136.6c0,1.1,0.8,2.2,2,2.2c1,0,1.5-0.5,2-1.3l1.1,0.6c-0.6,1.1-1.8,1.8-3,1.8c-2,0-3.2-1.5-3.2-3.4
			c0-2,1.1-3.5,3.2-3.5c2.1,0,3.1,1.5,3.1,3.5v0.2H418.9z M422.7,135.6c-0.2-1-0.8-1.6-1.8-1.6c-1,0-1.7,0.7-1.9,1.6H422.7z"/>
		<path d="M429.5,137.2l1.9-4.1h1.4l-3.3,6.8l-3.3-6.8h1.4L429.5,137.2z"/>
		<path d="M436.5,136.6c0,1.1,0.8,2.2,2,2.2c1,0,1.5-0.5,2-1.3l1.1,0.6c-0.6,1.1-1.8,1.8-3,1.8c-2,0-3.2-1.5-3.2-3.4
			c0-2,1.1-3.5,3.2-3.5c2.1,0,3.1,1.5,3.1,3.5v0.2H436.5z M440.2,135.6c-0.2-1-0.8-1.6-1.8-1.6c-1,0-1.7,0.7-1.9,1.6H440.2z"/>
		<path d="M446.1,134L446.1,134c0.4-0.7,1.2-1.1,2-1.1c1.8,0,2.3,1.2,2.3,2.8v3.9h-1.3v-3.8c0-1.1-0.2-1.9-1.4-1.9
			c-1.6,0-1.6,1.4-1.6,2.6v3h-1.3v-6.6h1.3V134z"/>
		<path d="M455.8,139.7h-1.3v-5.4h-0.7v-1.2h0.7v-2.5h1.3v2.5h1.2v1.2h-1.2V139.7z"/>
		<path d="M462.6,134.6c-0.2-0.3-0.5-0.6-0.8-0.6c-0.4,0-0.7,0.3-0.7,0.6c0,0.6,0.8,0.8,1.5,1.2s1.5,0.8,1.5,1.9
			c0,1.2-1,2.2-2.3,2.2c-1,0-1.9-0.5-2.3-1.5l1.1-0.5c0.3,0.5,0.6,0.8,1.2,0.8c0.5,0,1-0.4,1-0.9c0-0.4-0.2-0.5-0.5-0.7l-1.2-0.7
			c-0.7-0.4-1.3-0.8-1.3-1.7c0-1.1,0.9-1.9,1.9-1.9c0.8,0,1.4,0.4,1.8,1.1L462.6,134.6z"/>
		<path d="M480,139.7h-1.3v-1h0c-0.5,0.7-1.3,1.2-2.2,1.2c-2,0-3.1-1.7-3.1-3.5c0-1.8,1.2-3.4,3.1-3.4c1,0,1.8,0.5,2.3,1.3h0v-1.1
			h1.3V139.7z M478.8,136.4c0-1.3-0.8-2.4-2.1-2.4c-1.3,0-2.1,1.1-2.1,2.4c0,1.2,0.7,2.4,2.1,2.4
			C478.1,138.8,478.8,137.7,478.8,136.4z"/>
		<path d="M485.3,139.7h-1.3v-5.4h-0.7v-1.2h0.7v-2.5h1.3v2.5h1.2v1.2h-1.2V139.7z"/>
		<path d="M1.9,160.9H0.7v-5.4H0v-1.2h0.7v-2.5h1.3v2.5h1.2v1.2H1.9V160.9z"/>
		<path d="M7.4,148.7v6.5h0c0.4-0.7,1.2-1.1,2-1.1c1.8,0,2.3,1.2,2.3,2.8v3.9h-1.3v-3.8c0-1.1-0.2-1.9-1.4-1.9
			c-1.6,0-1.6,1.4-1.6,2.6v3H6.1v-12.2H7.4z"/>
		<path d="M16.4,157.8c0,1.1,0.8,2.2,2,2.2c1,0,1.5-0.5,2-1.3l1.1,0.6c-0.6,1.1-1.8,1.8-3,1.8c-2,0-3.2-1.5-3.2-3.4
			c0-2,1.1-3.5,3.2-3.5c2.1,0,3.1,1.5,3.1,3.5v0.2H16.4z M20.2,156.8c-0.2-1-0.8-1.6-1.8-1.6c-1,0-1.7,0.7-1.9,1.6H20.2z"/>
		<path d="M35.8,156.2c-0.5-0.6-1.1-0.9-1.9-0.9c-1.2,0-2.2,1.1-2.2,2.3c0,1.3,0.9,2.3,2.3,2.3c0.7,0,1.3-0.3,1.8-0.9v1.6
			c-0.6,0.3-1.1,0.4-1.8,0.4c-1.9,0-3.5-1.5-3.5-3.4c0-2,1.6-3.5,3.6-3.5c0.6,0,1.2,0.1,1.7,0.4V156.2z"/>
		<path d="M40.8,160.9h-1.3v-12.2h1.3V160.9z"/>
		<path d="M46,154.3v3.6c0,1.1,0.3,2,1.5,2s1.5-0.9,1.5-2v-3.6h1.3v3.8c0,1.8-0.8,3-2.8,3s-2.8-1.2-2.8-3v-3.8H46z"/>
		<path d="M54.1,148.7h1.3v6.7h0c0.5-0.8,1.3-1.3,2.3-1.3c1.9,0,3.1,1.6,3.1,3.4c0,1.9-1.1,3.5-3.1,3.5c-0.9,0-1.7-0.5-2.2-1.2h0v1
			h-1.3V148.7z M59.5,157.6c0-1.3-0.8-2.4-2.1-2.4c-1.3,0-2.1,1.1-2.1,2.4c0,1.2,0.7,2.4,2.1,2.4C58.7,160,59.5,158.9,59.5,157.6z"
			/>
		<path d="M66.9,155.8c-0.2-0.3-0.5-0.6-0.8-0.6c-0.4,0-0.7,0.3-0.7,0.6c0,0.6,0.8,0.8,1.5,1.2s1.5,0.8,1.5,1.9c0,1.2-1,2.2-2.3,2.2
			c-1,0-1.9-0.5-2.3-1.5l1.1-0.5c0.3,0.5,0.6,0.8,1.2,0.8c0.5,0,1-0.4,1-0.9c0-0.4-0.2-0.5-0.5-0.7l-1.2-0.7
			c-0.7-0.4-1.3-0.8-1.3-1.7c0-1.1,0.9-1.9,1.9-1.9c0.8,0,1.4,0.4,1.8,1.1L66.9,155.8z"/>
		<path d="M73.8,160.3c0,0.4-0.4,0.8-0.8,0.8s-0.8-0.4-0.8-0.8c0-0.4,0.4-0.8,0.8-0.8S73.8,159.8,73.8,160.3z"/>
		<path d="M85.9,159.7h3.2v1.2h-4.5v-10.6h1.3V159.7z"/>
		<path d="M98.2,160.9h-1.3v-1h0c-0.5,0.7-1.3,1.2-2.2,1.2c-2,0-3.1-1.7-3.1-3.5c0-1.8,1.2-3.4,3.1-3.4c1,0,1.8,0.5,2.3,1.3h0v-1.1
			h1.3V160.9z M97,157.6c0-1.3-0.8-2.4-2.1-2.4c-1.3,0-2.1,1.1-2.1,2.4c0,1.2,0.7,2.4,2.1,2.4C96.2,160,97,158.9,97,157.6z"/>
		<path d="M103.5,160.9h-1.3v-5.4h-0.7v-1.2h0.7v-2.5h1.3v2.5h1.2v1.2h-1.2V160.9z"/>
		<path d="M108.4,157.8c0,1.1,0.8,2.2,2,2.2c1,0,1.5-0.5,2-1.3l1.1,0.6c-0.6,1.1-1.8,1.8-3,1.8c-2,0-3.2-1.5-3.2-3.4
			c0-2,1.1-3.5,3.2-3.5c2.1,0,3.1,1.5,3.1,3.5v0.2H108.4z M112.2,156.8c-0.2-1-0.8-1.6-1.8-1.6c-1,0-1.7,0.7-1.9,1.6H112.2z"/>
		<path d="M118.1,155.4L118.1,155.4c0.4-0.8,1-1.3,1.8-1.3c0.4,0,0.7,0.1,1,0.3l-0.6,1.1c-0.2-0.2-0.5-0.3-0.8-0.3
			c-1.4,0-1.5,1.3-1.5,2.3v3.2h-1.3v-6.6h1.3V155.4z"/>
		<path d="M131.6,160.9h-1.3v-10.6h1.3V160.9z"/>
		<path d="M143.4,160.9h-1.3v-5.4h-0.7v-1.2h0.7v-2.5h1.3v2.5h1.2v1.2h-1.2V160.9z"/>
		<path d="M154,157.6c0,2-1.5,3.5-3.5,3.5c-2,0-3.5-1.5-3.5-3.5s1.5-3.5,3.5-3.5C152.4,154.1,154,155.6,154,157.6z M148.2,157.6
			c0,1.2,1,2.3,2.2,2.3c1.2,0,2.2-1.1,2.2-2.3c0-1.2-1-2.3-2.2-2.3C149.2,155.3,148.2,156.4,148.2,157.6z"/>
		<path d="M163.8,157.6c0,2-1.5,3.5-3.5,3.5c-2,0-3.5-1.5-3.5-3.5s1.5-3.5,3.5-3.5C162.2,154.1,163.8,155.6,163.8,157.6z M158,157.6
			c0,1.2,1,2.3,2.2,2.3c1.2,0,2.2-1.1,2.2-2.3c0-1.2-1-2.3-2.2-2.3C159,155.3,158,156.4,158,157.6z"/>
		<path d="M168.5,156.8l2.5-2.5h1.7l-2.8,2.7l3.1,3.8h-1.6l-2.3-3l-0.4,0.4v2.5h-1.3v-12.2h1.3V156.8z"/>
		<path d="M188.6,157.6c0,2-1.5,3.5-3.5,3.5c-2,0-3.5-1.5-3.5-3.5s1.5-3.5,3.5-3.5C187,154.1,188.6,155.6,188.6,157.6z M182.8,157.6
			c0,1.2,1,2.3,2.2,2.3c1.2,0,2.2-1.1,2.2-2.3c0-1.2-1-2.3-2.2-2.3C183.8,155.3,182.8,156.4,182.8,157.6z"/>
		<path d="M193.2,155.2L193.2,155.2c0.4-0.7,1.2-1.1,2-1.1c1.8,0,2.3,1.2,2.3,2.8v3.9h-1.3v-3.8c0-1.1-0.2-1.9-1.4-1.9
			c-1.6,0-1.6,1.4-1.6,2.6v3h-1.3v-6.6h1.3V155.2z"/>
		<path d="M208.9,155.4L208.9,155.4c0.5-0.8,1.3-1.3,2.3-1.3c1.9,0,3.1,1.6,3.1,3.4c0,1.9-1.1,3.5-3.1,3.5c-0.9,0-1.7-0.5-2.2-1.2h0
			v4.8h-1.3v-10.3h1.3V155.4z M213.1,157.6c0-1.3-0.8-2.4-2.1-2.4c-1.3,0-2.1,1.1-2.1,2.4c0,1.2,0.7,2.4,2.1,2.4
			C212.3,160,213.1,158.9,213.1,157.6z"/>
		<path d="M219.2,155.4L219.2,155.4c0.4-0.8,1-1.3,1.8-1.3c0.4,0,0.7,0.1,1,0.3l-0.6,1.1c-0.2-0.2-0.5-0.3-0.8-0.3
			c-1.4,0-1.5,1.3-1.5,2.3v3.2h-1.3v-6.6h1.3V155.4z"/>
		<path d="M226.7,151.3c0,0.5-0.4,0.9-0.9,0.9c-0.5,0-0.9-0.4-0.9-0.9c0-0.5,0.4-0.9,0.9-0.9C226.4,150.4,226.7,150.8,226.7,151.3z
			 M226.5,160.9h-1.3v-6.6h1.3V160.9z"/>
		<path d="M232,155.2L232,155.2c0.4-0.7,1.2-1.1,2-1.1c1.8,0,2.3,1.2,2.3,2.8v3.9h-1.3v-3.8c0-1.1-0.2-1.9-1.4-1.9
			c-1.6,0-1.6,1.4-1.6,2.6v3h-1.3v-6.6h1.3V155.2z"/>
		<path d="M241.8,160.9h-1.3v-5.4h-0.7v-1.2h0.7v-2.5h1.3v2.5h1.2v1.2h-1.2V160.9z"/>
		<path d="M247.7,151.3c0,0.5-0.4,0.9-0.9,0.9c-0.5,0-0.9-0.4-0.9-0.9c0-0.5,0.4-0.9,0.9-0.9C247.3,150.4,247.7,150.8,247.7,151.3z
			 M247.5,160.9h-1.3v-6.6h1.3V160.9z"/>
		<path d="M253,155.2L253,155.2c0.4-0.7,1.2-1.1,2-1.1c1.8,0,2.3,1.2,2.3,2.8v3.9H256v-3.8c0-1.1-0.2-1.9-1.4-1.9
			c-1.6,0-1.6,1.4-1.6,2.6v3h-1.3v-6.6h1.3V155.2z"/>
		<path d="M267.4,160.7c0,2.3-0.6,3.9-3.2,3.9c-1.8,0-3.1-1.1-3.2-3h1.3c0,1.2,0.8,1.8,2,1.8c1.6,0,1.9-1.1,1.9-2.4v-1.2h0
			c-0.5,0.7-1.3,1.2-2.2,1.2c-2,0-3.1-1.7-3.1-3.5c0-1.8,1.2-3.4,3.1-3.4c1,0,1.8,0.5,2.3,1.3h0v-1.1h1.3V160.7z M266.2,157.6
			c0-1.3-0.8-2.4-2.1-2.4c-1.3,0-2.1,1.1-2.1,2.4c0,1.2,0.7,2.4,2.1,2.4C265.5,160,266.2,158.9,266.2,157.6z"/>
		<path d="M282.5,159.8L282.5,159.8c-0.5,0.7-1.3,1.2-2.3,1.2c-2,0-3.1-1.7-3.1-3.5c0-1.8,1.2-3.4,3.1-3.4c1,0,1.8,0.5,2.3,1.3h0
			v-6.7h1.3v12.2h-1.3V159.8z M282.5,157.6c0-1.3-0.8-2.4-2.1-2.4c-1.3,0-2.1,1.1-2.1,2.4c0,1.2,0.7,2.4,2.1,2.4
			C281.8,160,282.5,158.9,282.5,157.6z"/>
		<path d="M288.8,154.3v3.6c0,1.1,0.3,2,1.5,2s1.5-0.9,1.5-2v-3.6h1.3v3.8c0,1.8-0.8,3-2.8,3s-2.8-1.2-2.8-3v-3.8H288.8z"/>
		<path d="M298.5,160.9h-1.3v-5.4h-0.7v-1.2h0.7v-2.5h1.3v2.5h1.2v1.2h-1.2V160.9z"/>
		<path d="M304.4,151.3c0,0.5-0.4,0.9-0.9,0.9c-0.5,0-0.9-0.4-0.9-0.9c0-0.5,0.4-0.9,0.9-0.9C304,150.4,304.4,150.8,304.4,151.3z
			 M304.1,160.9h-1.3v-6.6h1.3V160.9z"/>
		<path d="M309.2,157.8c0,1.1,0.8,2.2,2,2.2c1,0,1.5-0.5,2-1.3l1.1,0.6c-0.6,1.1-1.8,1.8-3,1.8c-2,0-3.2-1.5-3.2-3.4
			c0-2,1.1-3.5,3.2-3.5c2.1,0,3.1,1.5,3.1,3.5v0.2H309.2z M312.9,156.8c-0.2-1-0.8-1.6-1.8-1.6c-1,0-1.7,0.7-1.9,1.6H312.9z"/>
		<path d="M320.1,155.8c-0.2-0.3-0.5-0.6-0.8-0.6c-0.4,0-0.7,0.3-0.7,0.6c0,0.6,0.8,0.8,1.5,1.2s1.5,0.8,1.5,1.9
			c0,1.2-1,2.2-2.3,2.2c-1,0-1.9-0.5-2.3-1.5l1.1-0.5c0.3,0.5,0.6,0.8,1.2,0.8c0.5,0,1-0.4,1-0.9c0-0.4-0.2-0.5-0.5-0.7l-1.2-0.7
			c-0.7-0.4-1.3-0.8-1.3-1.7c0-1.1,0.9-1.9,1.9-1.9c0.8,0,1.4,0.4,1.8,1.1L320.1,155.8z"/>
		<path d="M327.6,159.6l-1.9,3.7l-0.8-0.3l1.5-3.9L327.6,159.6z"/>
		<path d="M340.3,155.8c-0.2-0.3-0.5-0.6-0.8-0.6c-0.4,0-0.7,0.3-0.7,0.6c0,0.6,0.8,0.8,1.5,1.2s1.5,0.8,1.5,1.9
			c0,1.2-1,2.2-2.3,2.2c-1,0-1.9-0.5-2.3-1.5l1.1-0.5c0.3,0.5,0.6,0.8,1.2,0.8c0.5,0,1-0.4,1-0.9c0-0.4-0.2-0.5-0.5-0.7l-1.2-0.7
			c-0.7-0.4-1.3-0.8-1.3-1.7c0-1.1,0.9-1.9,1.9-1.9c0.8,0,1.4,0.4,1.8,1.1L340.3,155.8z"/>
		<path d="M351.7,157.6c0,2-1.5,3.5-3.5,3.5c-2,0-3.5-1.5-3.5-3.5s1.5-3.5,3.5-3.5C350.2,154.1,351.7,155.6,351.7,157.6z M346,157.6
			c0,1.2,1,2.3,2.2,2.3c1.2,0,2.2-1.1,2.2-2.3c0-1.2-1-2.3-2.2-2.3C346.9,155.3,346,156.4,346,157.6z"/>
		<path d="M359.9,156.2c-0.5-0.6-1.1-0.9-1.9-0.9c-1.2,0-2.2,1.1-2.2,2.3c0,1.3,0.9,2.3,2.3,2.3c0.7,0,1.3-0.3,1.8-0.9v1.6
			c-0.6,0.3-1.1,0.4-1.8,0.4c-1.9,0-3.5-1.5-3.5-3.4c0-2,1.6-3.5,3.6-3.5c0.6,0,1.2,0.1,1.7,0.4V156.2z"/>
		<path d="M365.3,151.3c0,0.5-0.4,0.9-0.9,0.9c-0.5,0-0.9-0.4-0.9-0.9c0-0.5,0.4-0.9,0.9-0.9C364.9,150.4,365.3,150.8,365.3,151.3z
			 M365,160.9h-1.3v-6.6h1.3V160.9z"/>
		<path d="M375.4,160.9h-1.3v-1h0c-0.5,0.7-1.3,1.2-2.2,1.2c-2,0-3.1-1.7-3.1-3.5c0-1.8,1.2-3.4,3.1-3.4c1,0,1.8,0.5,2.3,1.3h0v-1.1
			h1.3V160.9z M374.2,157.6c0-1.3-0.8-2.4-2.1-2.4c-1.3,0-2.1,1.1-2.1,2.4c0,1.2,0.7,2.4,2.1,2.4C373.5,160,374.2,158.9,374.2,157.6
			z"/>
		<path d="M380.6,160.9h-1.3v-12.2h1.3V160.9z"/>
		<path d="M392.2,155.1L392.2,155.1c0.4-0.6,1.1-1,1.8-1c0.9,0,1.5,0.4,1.9,1.2c0.4-0.7,1.2-1.2,2-1.2c1.7,0,2.2,1.3,2.2,2.8v3.9
			h-1.3v-3.7c0-0.8-0.1-1.9-1.2-1.9c-1.3,0-1.4,1.4-1.4,2.4v3.2h-1.3v-3.5c0-0.9,0-2.2-1.2-2.2c-1.3,0-1.5,1.4-1.5,2.4v3.2h-1.3
			v-6.6h1.3V155.1z"/>
		<path d="M404.7,157.8c0,1.1,0.8,2.2,2,2.2c1,0,1.5-0.5,2-1.3l1.1,0.6c-0.6,1.1-1.8,1.8-3,1.8c-2,0-3.2-1.5-3.2-3.4
			c0-2,1.1-3.5,3.2-3.5c2.1,0,3.1,1.5,3.1,3.5v0.2H404.7z M408.4,156.8c-0.2-1-0.8-1.6-1.8-1.6c-1,0-1.7,0.7-1.9,1.6H408.4z"/>
		<path d="M417.9,159.8L417.9,159.8c-0.5,0.7-1.3,1.2-2.3,1.2c-2,0-3.1-1.7-3.1-3.5c0-1.8,1.2-3.4,3.1-3.4c1,0,1.8,0.5,2.3,1.3h0
			v-6.7h1.3v12.2h-1.3V159.8z M418,157.6c0-1.3-0.8-2.4-2.1-2.4c-1.3,0-2.1,1.1-2.1,2.4c0,1.2,0.7,2.4,2.1,2.4
			C417.2,160,418,158.9,418,157.6z"/>
		<path d="M424.8,151.3c0,0.5-0.4,0.9-0.9,0.9c-0.5,0-0.9-0.4-0.9-0.9c0-0.5,0.4-0.9,0.9-0.9C424.4,150.4,424.8,150.8,424.8,151.3z
			 M424.6,160.9h-1.3v-6.6h1.3V160.9z"/>
		<path d="M435,160.9h-1.3v-1h0c-0.5,0.7-1.3,1.2-2.2,1.2c-2,0-3.1-1.7-3.1-3.5c0-1.8,1.2-3.4,3.1-3.4c1,0,1.8,0.5,2.3,1.3h0v-1.1
			h1.3V160.9z M433.8,157.6c0-1.3-0.8-2.4-2.1-2.4c-1.3,0-2.1,1.1-2.1,2.4c0,1.2,0.7,2.4,2.1,2.4C433,160,433.8,158.9,433.8,157.6z"
			/>
		<path d="M6.7,182.1H5.4v-1h0c-0.5,0.7-1.3,1.2-2.2,1.2c-2,0-3.1-1.7-3.1-3.5c0-1.8,1.2-3.4,3.1-3.4c1,0,1.8,0.5,2.3,1.3h0v-1.1
			h1.3V182.1z M5.5,178.8c0-1.3-0.8-2.4-2.1-2.4c-1.3,0-2.1,1.1-2.1,2.4c0,1.2,0.7,2.4,2.1,2.4C4.7,181.2,5.5,180.1,5.5,178.8z"/>
		<path d="M13.2,177c-0.2-0.3-0.5-0.6-0.8-0.6c-0.4,0-0.7,0.3-0.7,0.6c0,0.6,0.8,0.8,1.5,1.2s1.5,0.8,1.5,1.9c0,1.2-1,2.2-2.3,2.2
			c-1,0-1.9-0.5-2.3-1.5l1.1-0.5c0.3,0.5,0.6,0.8,1.2,0.8c0.5,0,1-0.4,1-0.9c0-0.4-0.2-0.5-0.5-0.7l-1.2-0.7
			c-0.7-0.4-1.3-0.8-1.3-1.7c0-1.1,0.9-1.9,1.9-1.9c0.8,0,1.4,0.4,1.8,1.1L13.2,177z"/>
		<path d="M20.8,177c-0.2-0.3-0.5-0.6-0.8-0.6c-0.4,0-0.7,0.3-0.7,0.6c0,0.6,0.8,0.8,1.5,1.2s1.5,0.8,1.5,1.9c0,1.2-1,2.2-2.3,2.2
			c-1,0-1.9-0.5-2.3-1.5l1.1-0.5c0.3,0.5,0.6,0.8,1.2,0.8c0.5,0,1-0.4,1-0.9c0-0.4-0.2-0.5-0.5-0.7l-1.2-0.7
			c-0.7-0.4-1.3-0.8-1.3-1.7c0-1.1,0.9-1.9,1.9-1.9c0.8,0,1.4,0.4,1.8,1.1L20.8,177z"/>
		<path d="M26.5,179c0,1.1,0.8,2.2,2,2.2c1,0,1.5-0.5,2-1.3l1.1,0.6c-0.6,1.1-1.8,1.8-3,1.8c-2,0-3.2-1.5-3.2-3.4
			c0-2,1.1-3.5,3.2-3.5c2.1,0,3.1,1.5,3.1,3.5v0.2H26.5z M30.3,178c-0.2-1-0.8-1.6-1.8-1.6c-1,0-1.7,0.7-1.9,1.6H30.3z"/>
		<path d="M36.3,182.1H35v-5.4h-0.7v-1.2H35V173h1.3v2.5h1.2v1.2h-1.2V182.1z"/>
		<path d="M43.1,177c-0.2-0.3-0.5-0.6-0.8-0.6c-0.4,0-0.7,0.3-0.7,0.6c0,0.6,0.8,0.8,1.5,1.2s1.5,0.8,1.5,1.9c0,1.2-1,2.2-2.3,2.2
			c-1,0-1.9-0.5-2.3-1.5l1.1-0.5c0.3,0.5,0.6,0.8,1.2,0.8c0.5,0,1-0.4,1-0.9c0-0.4-0.2-0.5-0.5-0.7l-1.2-0.7
			c-0.7-0.4-1.3-0.8-1.3-1.7c0-1.1,0.9-1.9,1.9-1.9c0.8,0,1.4,0.4,1.8,1.1L43.1,177z"/>
		<path d="M60.5,182.1h-1.3v-1h0c-0.5,0.7-1.3,1.2-2.2,1.2c-2,0-3.1-1.7-3.1-3.5c0-1.8,1.2-3.4,3.1-3.4c1,0,1.8,0.5,2.3,1.3h0v-1.1
			h1.3V182.1z M59.3,178.8c0-1.3-0.8-2.4-2.1-2.4c-1.3,0-2.1,1.1-2.1,2.4c0,1.2,0.7,2.4,2.1,2.4C58.5,181.2,59.3,180.1,59.3,178.8z"
			/>
		<path d="M65.6,176.4L65.6,176.4c0.4-0.7,1.2-1.1,2-1.1c1.8,0,2.3,1.2,2.3,2.8v3.9h-1.3v-3.8c0-1.1-0.2-1.9-1.4-1.9
			c-1.6,0-1.6,1.4-1.6,2.6v3h-1.3v-6.6h1.3V176.4z"/>
		<path d="M78.8,181L78.8,181c-0.5,0.7-1.3,1.2-2.3,1.2c-2,0-3.1-1.7-3.1-3.5c0-1.8,1.2-3.4,3.1-3.4c1,0,1.8,0.5,2.3,1.3h0v-6.7h1.3
			v12.2h-1.3V181z M78.9,178.8c0-1.3-0.8-2.4-2.1-2.4c-1.3,0-2.1,1.1-2.1,2.4c0,1.2,0.7,2.4,2.1,2.4
			C78.1,181.2,78.9,180.1,78.9,178.8z"/>
		<path d="M92.9,177c-0.2-0.3-0.5-0.6-0.8-0.6c-0.4,0-0.7,0.3-0.7,0.6c0,0.6,0.8,0.8,1.5,1.2s1.5,0.8,1.5,1.9c0,1.2-1,2.2-2.3,2.2
			c-1,0-1.9-0.5-2.3-1.5l1.1-0.5c0.3,0.5,0.6,0.8,1.2,0.8c0.5,0,1-0.4,1-0.9c0-0.4-0.2-0.5-0.5-0.7l-1.2-0.7
			c-0.7-0.4-1.3-0.8-1.3-1.7c0-1.1,0.9-1.9,1.9-1.9c0.8,0,1.4,0.4,1.8,1.1L92.9,177z"/>
		<path d="M99,176.6L99,176.6c0.5-0.8,1.3-1.3,2.3-1.3c1.9,0,3.1,1.6,3.1,3.4c0,1.9-1.1,3.5-3.1,3.5c-0.9,0-1.7-0.5-2.2-1.2h0v4.8
			h-1.3v-10.3H99V176.6z M103.1,178.8c0-1.3-0.8-2.4-2.1-2.4c-1.3,0-2.1,1.1-2.1,2.4c0,1.2,0.7,2.4,2.1,2.4
			C102.4,181.2,103.1,180.1,103.1,178.8z"/>
		<path d="M108.6,179c0,1.1,0.8,2.2,2,2.2c1,0,1.5-0.5,2-1.3l1.1,0.6c-0.6,1.1-1.8,1.8-3,1.8c-2,0-3.2-1.5-3.2-3.4
			c0-2,1.1-3.5,3.2-3.5c2.1,0,3.1,1.5,3.1,3.5v0.2H108.6z M112.4,178c-0.2-1-0.8-1.6-1.8-1.6c-1,0-1.7,0.7-1.9,1.6H112.4z"/>
		<path d="M121.8,177.4c-0.5-0.6-1.1-0.9-1.9-0.9c-1.2,0-2.2,1.1-2.2,2.3c0,1.3,0.9,2.3,2.3,2.3c0.7,0,1.3-0.3,1.8-0.9v1.6
			c-0.6,0.3-1.1,0.4-1.8,0.4c-1.9,0-3.5-1.5-3.5-3.4c0-2,1.6-3.5,3.6-3.5c0.6,0,1.2,0.1,1.7,0.4V177.4z"/>
		<path d="M127.1,172.5c0,0.5-0.4,0.9-0.9,0.9c-0.5,0-0.9-0.4-0.9-0.9c0-0.5,0.4-0.9,0.9-0.9C126.7,171.6,127.1,172,127.1,172.5z
			 M126.9,182.1h-1.3v-6.6h1.3V182.1z"/>
		<path d="M137.3,182.1H136v-1h0c-0.5,0.7-1.3,1.2-2.2,1.2c-2,0-3.1-1.7-3.1-3.5c0-1.8,1.2-3.4,3.1-3.4c1,0,1.8,0.5,2.3,1.3h0v-1.1
			h1.3V182.1z M136.1,178.8c0-1.3-0.8-2.4-2.1-2.4c-1.3,0-2.1,1.1-2.1,2.4c0,1.2,0.7,2.4,2.1,2.4
			C135.4,181.2,136.1,180.1,136.1,178.8z"/>
		<path d="M142.5,182.1h-1.3v-12.2h1.3V182.1z"/>
		<path d="M153.6,179c0,1.1,0.8,2.2,2,2.2c1,0,1.5-0.5,2-1.3l1.1,0.6c-0.6,1.1-1.8,1.8-3,1.8c-2,0-3.2-1.5-3.2-3.4
			c0-2,1.1-3.5,3.2-3.5c2.1,0,3.1,1.5,3.1,3.5v0.2H153.6z M157.3,178c-0.2-1-0.8-1.6-1.8-1.6c-1,0-1.7,0.7-1.9,1.6H157.3z"/>
		<path d="M164.1,179.6l1.9-4.1h1.4l-3.3,6.8l-3.3-6.8h1.4L164.1,179.6z"/>
		<path d="M171.1,179c0,1.1,0.8,2.2,2,2.2c1,0,1.5-0.5,2-1.3l1.1,0.6c-0.6,1.1-1.8,1.8-3,1.8c-2,0-3.2-1.5-3.2-3.4
			c0-2,1.1-3.5,3.2-3.5c2.1,0,3.1,1.5,3.1,3.5v0.2H171.1z M174.8,178c-0.2-1-0.8-1.6-1.8-1.6c-1,0-1.7,0.7-1.9,1.6H174.8z"/>
		<path d="M180.7,176.4L180.7,176.4c0.4-0.7,1.2-1.1,2-1.1c1.8,0,2.3,1.2,2.3,2.8v3.9h-1.3v-3.8c0-1.1-0.2-1.9-1.4-1.9
			c-1.6,0-1.6,1.4-1.6,2.6v3h-1.3v-6.6h1.3V176.4z"/>
		<path d="M190.4,182.1h-1.3v-5.4h-0.7v-1.2h0.7V173h1.3v2.5h1.2v1.2h-1.2V182.1z"/>
		<path d="M203.5,177c-0.2-0.3-0.5-0.6-0.8-0.6c-0.4,0-0.7,0.3-0.7,0.6c0,0.6,0.8,0.8,1.5,1.2s1.5,0.8,1.5,1.9c0,1.2-1,2.2-2.3,2.2
			c-1,0-1.9-0.5-2.3-1.5l1.1-0.5c0.3,0.5,0.6,0.8,1.2,0.8c0.5,0,1-0.4,1-0.9c0-0.4-0.2-0.5-0.5-0.7l-1.2-0.7
			c-0.7-0.4-1.3-0.8-1.3-1.7c0-1.1,0.9-1.9,1.9-1.9c0.8,0,1.4,0.4,1.8,1.1L203.5,177z"/>
		<path d="M210.3,172.5c0,0.5-0.4,0.9-0.9,0.9c-0.5,0-0.9-0.4-0.9-0.9c0-0.5,0.4-0.9,0.9-0.9C209.9,171.6,210.3,172,210.3,172.5z
			 M210,182.1h-1.3v-6.6h1.3V182.1z"/>
		<path d="M220.4,181.9c0,2.3-0.6,3.9-3.2,3.9c-1.8,0-3.1-1.1-3.2-3h1.3c0,1.2,0.8,1.8,2,1.8c1.6,0,1.9-1.1,1.9-2.4V181h0
			c-0.5,0.7-1.3,1.2-2.2,1.2c-2,0-3.1-1.7-3.1-3.5c0-1.8,1.2-3.4,3.1-3.4c1,0,1.8,0.5,2.3,1.3h0v-1.1h1.3V181.9z M219.2,178.8
			c0-1.3-0.8-2.4-2.1-2.4c-1.3,0-2.1,1.1-2.1,2.4c0,1.2,0.7,2.4,2.1,2.4C218.5,181.2,219.2,180.1,219.2,178.8z"/>
		<path d="M225.6,176.4L225.6,176.4c0.4-0.7,1.2-1.1,2-1.1c1.8,0,2.3,1.2,2.3,2.8v3.9h-1.3v-3.8c0-1.1-0.2-1.9-1.4-1.9
			c-1.6,0-1.6,1.4-1.6,2.6v3h-1.3v-6.6h1.3V176.4z"/>
		<path d="M240,182.1h-1.3v-1h0c-0.5,0.7-1.3,1.2-2.2,1.2c-2,0-3.1-1.7-3.1-3.5c0-1.8,1.2-3.4,3.1-3.4c1,0,1.8,0.5,2.3,1.3h0v-1.1
			h1.3V182.1z M238.8,178.8c0-1.3-0.8-2.4-2.1-2.4c-1.3,0-2.1,1.1-2.1,2.4c0,1.2,0.7,2.4,2.1,2.4
			C238.1,181.2,238.8,180.1,238.8,178.8z"/>
		<path d="M250,181.9c0,2.3-0.6,3.9-3.2,3.9c-1.8,0-3.1-1.1-3.2-3h1.3c0,1.2,0.8,1.8,2,1.8c1.6,0,1.9-1.1,1.9-2.4V181h0
			c-0.5,0.7-1.3,1.2-2.2,1.2c-2,0-3.1-1.7-3.1-3.5c0-1.8,1.2-3.4,3.1-3.4c1,0,1.8,0.5,2.3,1.3h0v-1.1h1.3V181.9z M248.8,178.8
			c0-1.3-0.8-2.4-2.1-2.4c-1.3,0-2.1,1.1-2.1,2.4c0,1.2,0.7,2.4,2.1,2.4C248.1,181.2,248.8,180.1,248.8,178.8z"/>
		<path d="M254.6,179c0,1.1,0.8,2.2,2,2.2c1,0,1.5-0.5,2-1.3l1.1,0.6c-0.6,1.1-1.8,1.8-3,1.8c-2,0-3.2-1.5-3.2-3.4
			c0-2,1.1-3.5,3.2-3.5c2.1,0,3.1,1.5,3.1,3.5v0.2H254.6z M258.4,178c-0.2-1-0.8-1.6-1.8-1.6c-1,0-1.7,0.7-1.9,1.6H258.4z"/>
		<path d="M264.9,181.5c0,0.4-0.4,0.8-0.8,0.8s-0.8-0.4-0.8-0.8c0-0.4,0.4-0.8,0.8-0.8S264.9,181,264.9,181.5z"/>
	</g>
</g>
</svg>
