<?xml version="1.0" encoding="utf-8"?>
<!-- Generator: Adobe Illustrator 19.0.1, SVG Export Plug-In . SVG Version: 6.00 Build 0)  -->
<svg version="1.1" xmlns="http://www.w3.org/2000/svg" xmlns:xlink="http://www.w3.org/1999/xlink" x="0px" y="0px"
	 viewBox="0 0 491.8 189.4" style="enable-background:new 0 0 491.8 189.4;" xml:space="preserve">
<style type="text/css">
	.st0{display:none;}
	.st1{display:inline;fill:#FFFFFF;}
	.st2{fill:#FFFFFF;}
	.st3{fill:#3399CC;}
	.st4{fill:#231F20;}
</style>
<g id="Layer_1" class="st0">
	<rect x="-395.1" y="-55.3" class="st1" width="1280" height="300"/>
</g>
<g id="Layer_2">
	<g>
		<path d="M4,13.5H1V1.9h3V13.5z"/>
		<path d="M8.7,1.9h3L17.2,9h0V1.9h3v11.6h-3l-5.5-7.1h0v7.1h-3V1.9z"/>
		<path d="M29.6,13.5h-3v-9h-2.5V1.9h8v2.5h-2.5V13.5z"/>
		<path d="M38.9,4.4v1.9h3.4v2.5h-3.4v2h3.6v2.5h-6.6V1.9h6.6v2.5H38.9z"/>
		<path d="M56.8,13.5H53L50.2,9h0v4.5h-3V1.9h4.5c2.3,0,4,1.1,4,3.6c0,1.6-0.9,3-2.5,3.3L56.8,13.5z M50.2,7.1h0.3
			c1,0,2.1-0.2,2.1-1.4s-1.1-1.4-2.1-1.4h-0.3V7.1z"/>
		<path d="M60.3,1.9h3L68.9,9h0V1.9h3v11.6h-3l-5.5-7.1h0v7.1h-3V1.9z"/>
		<path d="M83,4.9c-0.6-0.5-1.3-0.8-2-0.8c-0.6,0-1.3,0.3-1.3,1c0,0.7,0.8,0.9,1.3,1.1l0.8,0.2c1.6,0.5,2.9,1.3,2.9,3.2
			c0,1.2-0.3,2.3-1.2,3.1c-0.9,0.8-2.1,1.1-3.3,1.1c-1.5,0-2.9-0.5-4.1-1.3l1.3-2.4c0.8,0.7,1.6,1.2,2.7,1.2c0.7,0,1.5-0.4,1.5-1.2
			c0-0.8-1.2-1.1-1.8-1.3c-1.9-0.5-3.1-1-3.1-3.3c0-2.3,1.7-3.9,4-3.9c1.2,0,2.6,0.4,3.6,1L83,4.9z"/>
		<path d="M96.2,6.4V1.9h3v11.6h-3V8.7h-4.3v4.7h-3V1.9h3v4.5H96.2z"/>
		<path d="M106.9,13.5h-3V1.9h3V13.5z"/>
		<path d="M111.7,1.9h4.6c2.5,0,4.2,1.2,4.2,3.8c0,2.7-1.5,3.9-4.1,3.9h-1.7v3.8h-3V1.9z M114.7,7.2h0.5c1.1,0,2.2,0,2.2-1.4
			c0-1.5-1-1.5-2.2-1.5h-0.5V7.2z"/>
		<path d="M136.5,9.4L136.5,9.4l2.5-7.5h2.4l2.3,7.5h0l2.2-7.5h3.1l-3.7,11.6h-3.1l-2-6.7h0l-2.3,6.7h-3.1l-3.5-11.6h3.1L136.5,9.4z
			"/>
		<path d="M155.5,13.5h-3V1.9h3V13.5z"/>
		<path d="M164.8,13.5h-3v-9h-2.5V1.9h8v2.5h-2.5V13.5z"/>
		<path d="M178.5,6.4V1.9h3v11.6h-3V8.7h-4.3v4.7h-3V1.9h3v4.5H178.5z"/>
		<path d="M197.3,10.9h3.6v2.5h-6.6V1.9h3V10.9z"/>
		<path d="M208.1,8.9l2.8-7h3.3l-4.9,11.6h-2.3L202,1.9h3.3L208.1,8.9z"/>
		<path d="M217.7,1.9h3l5.5,7.1h0V1.9h3v11.6h-3l-5.5-7.1h0v7.1h-3V1.9z"/>
		<path d="M245.5,7c0,1.7-0.2,3.1-1.2,4.6c-1.1,1.6-2.8,2.3-4.8,2.3c-3.6,0-6.2-2.5-6.2-6.1c0-3.8,2.5-6.2,6.3-6.2
			c2.4,0,4.2,1.1,5.2,3.2L242,5.9c-0.4-1.1-1.3-1.8-2.5-1.8c-2,0-3,1.9-3,3.7c0,1.8,1.1,3.6,3.1,3.6c1.3,0,2.3-0.7,2.4-2h-2.5V7
			H245.5z"/>
		<path class="st4" d="M1,26.4h2.4c3.5,0,6.5,1.9,6.5,5.7C9.9,36.1,7,38,3.3,38H1V26.4z M2.4,36.7h0.5c2.9,0,5.5-1.1,5.5-4.5
			c0-3.4-2.5-4.5-5.5-4.5H2.4V36.7z"/>
		<path class="st4" d="M12.2,30.8v4c0,1.2,0.3,2.2,1.7,2.2s1.7-1,1.7-2.2v-4h1.4V35c0,2-0.9,3.3-3,3.3s-3-1.3-3-3.3v-4.1H12.2z"/>
		<path class="st4" d="M19.9,32L19.9,32c0.4-0.8,1.1-1.4,2-1.4c0.4,0,0.8,0.1,1.1,0.4l-0.6,1.3c-0.2-0.2-0.5-0.3-0.8-0.3
			c-1.5,0-1.7,1.4-1.7,2.5V38h-1.4v-7.2h1.4V32z"/>
		<path class="st4" d="M25.4,27.5c0,0.5-0.4,0.9-1,0.9c-0.5,0-1-0.4-1-0.9c0-0.5,0.4-1,1-1C25,26.6,25.4,27,25.4,27.5z M25.2,38
			h-1.4v-7.2h1.4V38z"/>
		<path class="st4" d="M28.5,31.8L28.5,31.8c0.5-0.8,1.3-1.2,2.2-1.2c2,0,2.5,1.4,2.5,3.1V38h-1.4v-4.1c0-1.2-0.2-2.1-1.6-2.1
			c-1.8,0-1.8,1.6-1.8,2.9V38h-1.4v-7.2h1.4V31.8z"/>
		<path class="st4" d="M41.5,37.9c0,2.5-0.7,4.3-3.5,4.3c-2,0-3.4-1.2-3.5-3.3h1.4c0,1.3,0.9,2,2.1,2c1.7,0,2.1-1.2,2.1-2.6v-1.4h0
			c-0.6,0.8-1.4,1.4-2.4,1.4c-2.2,0-3.4-1.8-3.4-3.9c0-2,1.3-3.8,3.4-3.8c1.1,0,1.9,0.6,2.5,1.4h0v-1.2h1.4V37.9z M40.2,34.4
			c0-1.4-0.8-2.6-2.3-2.6c-1.4,0-2.3,1.2-2.3,2.6c0,1.4,0.8,2.6,2.3,2.6C39.4,37,40.2,35.8,40.2,34.4z"/>
		<path class="st4" d="M48.5,31.7L48.5,31.7c0.4-0.6,1.2-1.1,1.9-1.1c0.9,0,1.6,0.5,2.1,1.3c0.4-0.8,1.3-1.3,2.2-1.3
			c1.9,0,2.4,1.5,2.4,3.1V38h-1.4v-4.1c0-0.9-0.1-2.1-1.3-2.1c-1.5,0-1.6,1.5-1.6,2.6V38h-1.4v-3.8c0-0.9,0-2.4-1.3-2.4
			c-1.5,0-1.6,1.5-1.6,2.6V38h-1.4v-7.2h1.4V31.7z"/>
		<path class="st4" d="M57.4,30.8h1.6l2.4,4.6l2.3-4.6h1.6l-5.8,11.3h-1.6l2.8-5.3L57.4,30.8z"/>
		<path class="st4" d="M71.3,38h-1.4V24.7h1.4V38z"/>
		<path class="st4" d="M79.7,38h-1.4v-1.1h0c-0.6,0.8-1.4,1.4-2.4,1.4c-2.2,0-3.4-1.8-3.4-3.9c0-2,1.3-3.8,3.4-3.8
			c1.1,0,1.9,0.6,2.5,1.4h0v-1.2h1.4V38z M78.4,34.4c0-1.4-0.8-2.6-2.3-2.6c-1.4,0-2.3,1.2-2.3,2.6c0,1.4,0.8,2.6,2.3,2.6
			C77.5,37,78.4,35.8,78.4,34.4z"/>
		<path class="st4" d="M84.1,32.5c-0.2-0.4-0.5-0.6-0.9-0.6c-0.4,0-0.8,0.3-0.8,0.7c0,0.6,0.8,0.9,1.7,1.3s1.7,0.9,1.7,2
			c0,1.4-1.1,2.4-2.5,2.4c-1,0-2.1-0.6-2.5-1.6l1.2-0.5c0.3,0.5,0.6,0.9,1.3,0.9c0.6,0,1.1-0.4,1.1-1c0-0.4-0.2-0.6-0.5-0.8
			l-1.4-0.7c-0.8-0.4-1.4-0.8-1.4-1.8c0-1.2,1-2.1,2.1-2.1c0.9,0,1.6,0.5,2,1.3L84.1,32.5z"/>
		<path class="st4" d="M88.3,38H87v-5.9h-0.8v-1.3H87v-2.7h1.4v2.7h1.4v1.3h-1.4V38z"/>
		<path class="st4" d="M97.1,32.5c-0.2-0.4-0.5-0.6-0.9-0.6c-0.4,0-0.8,0.3-0.8,0.7c0,0.6,0.8,0.9,1.7,1.3s1.7,0.9,1.7,2
			c0,1.4-1.1,2.4-2.5,2.4c-1,0-2.1-0.6-2.5-1.6l1.2-0.5c0.3,0.5,0.6,0.9,1.3,0.9c0.6,0,1.1-0.4,1.1-1c0-0.4-0.2-0.6-0.5-0.8
			l-1.4-0.7c-0.8-0.4-1.4-0.8-1.4-1.8c0-1.2,1-2.1,2.1-2.1c0.9,0,1.6,0.5,2,1.3L97.1,32.5z"/>
		<path class="st4" d="M100.7,34.7c0,1.2,0.8,2.4,2.2,2.4c1.1,0,1.6-0.5,2.1-1.4l1.2,0.7c-0.7,1.2-1.9,2-3.3,2
			c-2.2,0-3.5-1.7-3.5-3.8c0-2.2,1.2-3.9,3.5-3.9c2.3,0,3.4,1.7,3.4,3.8v0.2H100.7z M104.8,33.6c-0.2-1.1-0.9-1.8-2-1.8
			c-1.1,0-1.9,0.8-2,1.8H104.8z"/>
		<path class="st4" d="M108.4,31.7L108.4,31.7c0.4-0.6,1.2-1.1,1.9-1.1c0.9,0,1.6,0.5,2.1,1.3c0.4-0.8,1.3-1.3,2.2-1.3
			c1.9,0,2.4,1.5,2.4,3.1V38h-1.4v-4.1c0-0.9-0.1-2.1-1.3-2.1c-1.5,0-1.6,1.5-1.6,2.6V38h-1.4v-3.8c0-0.9,0-2.4-1.3-2.4
			c-1.5,0-1.6,1.5-1.6,2.6V38H107v-7.2h1.4V31.7z"/>
		<path class="st4" d="M119.3,34.7c0,1.2,0.8,2.4,2.2,2.4c1.1,0,1.6-0.5,2.1-1.4l1.2,0.7c-0.7,1.2-1.9,2-3.3,2
			c-2.2,0-3.5-1.7-3.5-3.8c0-2.2,1.2-3.9,3.5-3.9c2.3,0,3.4,1.7,3.4,3.8v0.2H119.3z M123.4,33.6c-0.2-1.1-0.9-1.8-2-1.8
			c-1.1,0-1.9,0.8-2,1.8H123.4z"/>
		<path class="st4" d="M128.6,32.5c-0.2-0.4-0.5-0.6-0.9-0.6c-0.4,0-0.8,0.3-0.8,0.7c0,0.6,0.8,0.9,1.7,1.3s1.7,0.9,1.7,2
			c0,1.4-1.1,2.4-2.5,2.4c-1,0-2.1-0.6-2.5-1.6l1.2-0.5c0.3,0.5,0.6,0.9,1.3,0.9c0.6,0,1.1-0.4,1.1-1c0-0.4-0.2-0.6-0.5-0.8
			l-1.4-0.7c-0.8-0.4-1.4-0.8-1.4-1.8c0-1.2,1-2.1,2.1-2.1c0.9,0,1.6,0.5,2,1.3L128.6,32.5z"/>
		<path class="st4" d="M132.8,38h-1.4v-5.9h-0.8v-1.3h0.8v-2.7h1.4v2.7h1.4v1.3h-1.4V38z"/>
		<path class="st4" d="M135.5,34.7c0,1.2,0.8,2.4,2.2,2.4c1.1,0,1.6-0.5,2.1-1.4l1.2,0.7c-0.7,1.2-1.9,2-3.3,2
			c-2.2,0-3.5-1.7-3.5-3.8c0-2.2,1.2-3.9,3.5-3.9c2.3,0,3.4,1.7,3.4,3.8v0.2H135.5z M139.6,33.6c-0.2-1.1-0.9-1.8-2-1.8
			c-1.1,0-1.9,0.8-2,1.8H139.6z"/>
		<path class="st4" d="M143.3,32L143.3,32c0.4-0.8,1.1-1.4,2-1.4c0.4,0,0.8,0.1,1.1,0.4l-0.6,1.3c-0.2-0.2-0.5-0.3-0.8-0.3
			c-1.5,0-1.7,1.4-1.7,2.5V38h-1.4v-7.2h1.4V32z"/>
		<path class="st4" d="M157.8,38h-1.4v-1.1h0c-0.6,0.8-1.4,1.4-2.4,1.4c-2.2,0-3.4-1.8-3.4-3.9c0-2,1.3-3.8,3.4-3.8
			c1.1,0,1.9,0.6,2.5,1.4h0v-1.2h1.4V38z M156.5,34.4c0-1.4-0.8-2.6-2.3-2.6c-1.4,0-2.3,1.2-2.3,2.6c0,1.4,0.8,2.6,2.3,2.6
			C155.6,37,156.5,35.8,156.5,34.4z"/>
		<path class="st4" d="M160.8,38h-1.4v-5.9h-0.8v-1.3h0.8v-2.7h1.4v2.7h1.4v1.3h-1.4V38z"/>
		<path class="st4" d="M168.1,26.4v6.8c0,1.9,0.6,3.6,2.8,3.6c2.2,0,2.8-1.7,2.8-3.6v-6.8h1.4v7.3c0,2.5-1.6,4.5-4.2,4.5
			c-2.7,0-4.2-2-4.2-4.5v-7.3H168.1z"/>
		<path class="st4" d="M176.7,25.9l8.7,9.1v-8.6h1.4v12.1l-8.7-9.1V38h-1.4V25.9z"/>
		<path class="st4" d="M190,36.7h3.5V38h-5V26.4h1.4V36.7z"/>
		<path class="st4" d="M197.4,35l3.4-8.6h1.6l-5,12.2l-5-12.2h1.6L197.4,35z"/>
		<path class="st4" d="M208.6,38h-1.4V26.4h1.4V38z"/>
		<path class="st4" d="M216.9,35.4l2.1-5l2.1,5l2.1-4.6h1.6l-3.7,7.4l-2.1-4.8l-2.1,4.8l-3.7-7.4h1.6L216.9,35.4z"/>
		<path class="st4" d="M231.9,38h-1.4v-1.1h0c-0.6,0.8-1.4,1.4-2.4,1.4c-2.2,0-3.4-1.8-3.4-3.9c0-2,1.3-3.8,3.4-3.8
			c1.1,0,1.9,0.6,2.5,1.4h0v-1.2h1.4V38z M230.6,34.4c0-1.4-0.8-2.6-2.3-2.6c-1.4,0-2.3,1.2-2.3,2.6c0,1.4,0.8,2.6,2.3,2.6
			C229.8,37,230.6,35.8,230.6,34.4z"/>
		<path class="st4" d="M236.3,32.5c-0.2-0.4-0.5-0.6-0.9-0.6c-0.4,0-0.8,0.3-0.8,0.7c0,0.6,0.8,0.9,1.7,1.3s1.7,0.9,1.7,2
			c0,1.4-1.1,2.4-2.5,2.4c-1,0-2.1-0.6-2.5-1.6l1.2-0.5c0.3,0.5,0.6,0.9,1.3,0.9c0.6,0,1.1-0.4,1.1-1c0-0.4-0.2-0.6-0.5-0.8
			l-1.4-0.7c-0.8-0.4-1.4-0.8-1.4-1.8c0-1.2,1-2.1,2.1-2.1c0.9,0,1.6,0.5,2,1.3L236.3,32.5z"/>
		<path class="st4" d="M249.9,38h-1.4v-1.1h0c-0.6,0.8-1.4,1.4-2.4,1.4c-2.2,0-3.4-1.8-3.4-3.9c0-2,1.3-3.8,3.4-3.8
			c1.1,0,1.9,0.6,2.5,1.4h0v-1.2h1.4V38z M248.5,34.4c0-1.4-0.8-2.6-2.3-2.6c-1.4,0-2.3,1.2-2.3,2.6c0,1.4,0.8,2.6,2.3,2.6
			C247.7,37,248.5,35.8,248.5,34.4z"/>
		<path class="st4" d="M252.7,31.8L252.7,31.8c0.5-0.8,1.3-1.2,2.2-1.2c2,0,2.5,1.4,2.5,3.1V38h-1.4v-4.1c0-1.2-0.2-2.1-1.6-2.1
			c-1.8,0-1.8,1.6-1.8,2.9V38h-1.4v-7.2h1.4V31.8z"/>
		<path class="st4" d="M265.1,27.5c0,0.5-0.4,0.9-1,0.9c-0.5,0-1-0.4-1-0.9c0-0.5,0.4-1,1-1C264.7,26.6,265.1,27,265.1,27.5z
			 M264.9,38h-1.4v-7.2h1.4V38z"/>
		<path class="st4" d="M268.2,31.8L268.2,31.8c0.5-0.8,1.3-1.2,2.2-1.2c2,0,2.5,1.4,2.5,3.1V38h-1.4v-4.1c0-1.2-0.2-2.1-1.6-2.1
			c-1.8,0-1.8,1.6-1.8,2.9V38h-1.4v-7.2h1.4V31.8z"/>
		<path class="st4" d="M276.1,38h-1.4v-5.9h-0.8v-1.3h0.8v-2.7h1.4v2.7h1.4v1.3h-1.4V38z"/>
		<path class="st4" d="M278.7,34.7c0,1.2,0.8,2.4,2.2,2.4c1.1,0,1.6-0.5,2.1-1.4l1.2,0.7c-0.7,1.2-1.9,2-3.3,2
			c-2.2,0-3.5-1.7-3.5-3.8c0-2.2,1.2-3.9,3.5-3.9c2.3,0,3.4,1.7,3.4,3.8v0.2H278.7z M282.8,33.6c-0.2-1.1-0.9-1.8-2-1.8
			c-1.1,0-1.9,0.8-2,1.8H282.8z"/>
		<path class="st4" d="M286.5,32L286.5,32c0.4-0.8,1.1-1.4,2-1.4c0.4,0,0.8,0.1,1.1,0.4l-0.6,1.3c-0.2-0.2-0.5-0.3-0.8-0.3
			c-1.5,0-1.7,1.4-1.7,2.5V38h-1.4v-7.2h1.4V32z"/>
		<path class="st4" d="M291.6,31.8L291.6,31.8c0.5-0.8,1.3-1.2,2.2-1.2c2,0,2.5,1.4,2.5,3.1V38H295v-4.1c0-1.2-0.2-2.1-1.6-2.1
			c-1.8,0-1.8,1.6-1.8,2.9V38h-1.4v-7.2h1.4V31.8z"/>
		<path class="st4" d="M305.7,26.1c-0.3-0.1-0.6-0.3-0.9-0.3c-1,0-1,1.2-1,1.9v3.1h1.9v1.3h-1.9V38h-1.4v-5.9h-0.6v-1.3h0.6v-3.5
			c0-1.6,0.5-2.8,2.3-2.8c0.3,0,0.7,0.1,1,0.2V26.1z"/>
		<path class="st4" d="M313,34.4c0,2.2-1.7,3.8-3.8,3.8s-3.8-1.7-3.8-3.8c0-2.2,1.7-3.8,3.8-3.8S313,32.3,313,34.4z M306.8,34.4
			c0,1.4,1.1,2.5,2.5,2.5s2.5-1.2,2.5-2.5c0-1.4-1.1-2.5-2.5-2.5S306.8,33.1,306.8,34.4z"/>
		<path class="st4" d="M315.5,32L315.5,32c0.4-0.8,1.1-1.4,2-1.4c0.4,0,0.8,0.1,1.1,0.4l-0.6,1.3c-0.2-0.2-0.5-0.3-0.8-0.3
			c-1.5,0-1.7,1.4-1.7,2.5V38h-1.4v-7.2h1.4V32z"/>
		<path class="st4" d="M324.8,38h-1.4v-5.9h-0.8v-1.3h0.8v-2.7h1.4v2.7h1.4v1.3h-1.4V38z"/>
		<path class="st4" d="M328,24.7v7.1h0c0.4-0.8,1.3-1.2,2.2-1.2c2,0,2.5,1.4,2.5,3.1V38h-1.4v-4.1c0-1.2-0.2-2.1-1.6-2.1
			c-1.8,0-1.8,1.6-1.8,2.9V38h-1.4V24.7H328z"/>
		<path class="st4" d="M335.1,34.7c0,1.2,0.8,2.4,2.2,2.4c1.1,0,1.6-0.5,2.1-1.4l1.2,0.7c-0.7,1.2-1.9,2-3.3,2
			c-2.2,0-3.5-1.7-3.5-3.8c0-2.2,1.2-3.9,3.5-3.9c2.3,0,3.4,1.7,3.4,3.8v0.2H335.1z M339.2,33.6c-0.2-1.1-0.9-1.8-2-1.8
			c-1.1,0-1.9,0.8-2,1.8H339.2z"/>
		<path class="st4" d="M347.2,36.7h3.5V38h-5V26.4h1.4V36.7z"/>
		<path class="st4" d="M357.9,38h-1.4v-1.1h0c-0.6,0.8-1.4,1.4-2.4,1.4c-2.2,0-3.4-1.8-3.4-3.9c0-2,1.3-3.8,3.4-3.8
			c1.1,0,1.9,0.6,2.5,1.4h0v-1.2h1.4V38z M356.6,34.4c0-1.4-0.8-2.6-2.3-2.6c-1.4,0-2.3,1.2-2.3,2.6c0,1.4,0.8,2.6,2.3,2.6
			C355.8,37,356.6,35.8,356.6,34.4z"/>
		<path class="st4" d="M362.3,32.5c-0.2-0.4-0.5-0.6-0.9-0.6c-0.4,0-0.8,0.3-0.8,0.7c0,0.6,0.8,0.9,1.7,1.3c0.8,0.4,1.7,0.9,1.7,2
			c0,1.4-1.1,2.4-2.5,2.4c-1,0-2.1-0.6-2.5-1.6l1.2-0.5c0.3,0.5,0.6,0.9,1.3,0.9c0.6,0,1.1-0.4,1.1-1c0-0.4-0.2-0.6-0.5-0.8
			l-1.4-0.7c-0.8-0.4-1.4-0.8-1.4-1.8c0-1.2,1-2.1,2.1-2.1c0.9,0,1.6,0.5,2,1.3L362.3,32.5z"/>
		<path class="st4" d="M373.1,35l3.4-8.6h1.6l-5,12.2l-5-12.2h1.6L373.1,35z"/>
		<path class="st4" d="M378.3,34.7c0,1.2,0.8,2.4,2.2,2.4c1.1,0,1.6-0.5,2.1-1.4l1.2,0.7c-0.7,1.2-1.9,2-3.3,2
			c-2.2,0-3.5-1.7-3.5-3.8c0-2.2,1.2-3.9,3.5-3.9c2.3,0,3.4,1.7,3.4,3.8v0.2H378.3z M382.4,33.6c-0.2-1.1-0.9-1.8-2-1.8
			c-1.1,0-1.9,0.8-2,1.8H382.4z"/>
		<path class="st4" d="M391.3,37.9c0,2.5-0.7,4.3-3.5,4.3c-2,0-3.4-1.2-3.5-3.3h1.4c0,1.3,0.9,2,2.1,2c1.7,0,2.1-1.2,2.1-2.6v-1.4h0
			c-0.6,0.8-1.4,1.4-2.4,1.4c-2.2,0-3.4-1.8-3.4-3.9c0-2,1.3-3.8,3.4-3.8c1.1,0,1.9,0.6,2.5,1.4h0v-1.2h1.4V37.9z M390,34.4
			c0-1.4-0.8-2.6-2.3-2.6c-1.4,0-2.3,1.2-2.3,2.6c0,1.4,0.8,2.6,2.3,2.6C389.2,37,390,35.8,390,34.4z"/>
		<path class="st4" d="M399.6,38h-1.4v-1.1h0c-0.6,0.8-1.4,1.4-2.4,1.4c-2.2,0-3.4-1.8-3.4-3.9c0-2,1.3-3.8,3.4-3.8
			c1.1,0,1.9,0.6,2.5,1.4h0v-1.2h1.4V38z M398.3,34.4c0-1.4-0.8-2.6-2.3-2.6c-1.4,0-2.3,1.2-2.3,2.6c0,1.4,0.8,2.6,2.3,2.6
			C397.4,37,398.3,35.8,398.3,34.4z"/>
		<path class="st4" d="M403.9,32.5c-0.2-0.4-0.5-0.6-0.9-0.6c-0.4,0-0.8,0.3-0.8,0.7c0,0.6,0.8,0.9,1.7,1.3c0.8,0.4,1.7,0.9,1.7,2
			c0,1.4-1.1,2.4-2.5,2.4c-1,0-2.1-0.6-2.5-1.6l1.2-0.5c0.3,0.5,0.6,0.9,1.3,0.9c0.6,0,1.1-0.4,1.1-1c0-0.4-0.2-0.6-0.5-0.8
			l-1.4-0.7c-0.8-0.4-1.4-0.8-1.4-1.8c0-1.2,1-2.1,2.1-2.1c0.9,0,1.6,0.5,2,1.3L403.9,32.5z"/>
		<path class="st4" d="M410.8,25.9l8.7,9.1v-8.6h1.4v12.1l-8.7-9.1V38h-1.4V25.9z"/>
		<path class="st4" d="M424.5,27.5c0,0.5-0.4,0.9-1,0.9c-0.5,0-1-0.4-1-0.9c0-0.5,0.4-1,1-1C424,26.6,424.5,27,424.5,27.5z
			 M424.2,38h-1.4v-7.2h1.4V38z"/>
		<path class="st4" d="M432.8,37.9c0,2.5-0.7,4.3-3.5,4.3c-2,0-3.4-1.2-3.5-3.3h1.4c0,1.3,0.9,2,2.1,2c1.7,0,2.1-1.2,2.1-2.6v-1.4h0
			c-0.6,0.8-1.4,1.4-2.4,1.4c-2.2,0-3.4-1.8-3.4-3.9c0-2,1.3-3.8,3.4-3.8c1.1,0,1.9,0.6,2.5,1.4h0v-1.2h1.4V37.9z M431.5,34.4
			c0-1.4-0.8-2.6-2.3-2.6c-1.4,0-2.3,1.2-2.3,2.6c0,1.4,0.8,2.6,2.3,2.6C430.7,37,431.5,35.8,431.5,34.4z"/>
		<path class="st4" d="M435.7,24.7v7.1h0c0.4-0.8,1.3-1.2,2.2-1.2c2,0,2.5,1.4,2.5,3.1V38h-1.4v-4.1c0-1.2-0.2-2.1-1.6-2.1
			c-1.8,0-1.8,1.6-1.8,2.9V38h-1.4V24.7H435.7z"/>
		<path class="st4" d="M443.6,38h-1.4v-5.9h-0.8v-1.3h0.8v-2.7h1.4v2.7h1.4v1.3h-1.4V38z"/>
		<path class="st4" d="M446.8,38h-1.4V24.7h1.4V38z"/>
		<path class="st4" d="M450.5,27.5c0,0.5-0.4,0.9-1,0.9c-0.5,0-1-0.4-1-0.9c0-0.5,0.4-1,1-1C450,26.6,450.5,27,450.5,27.5z
			 M450.2,38h-1.4v-7.2h1.4V38z"/>
		<path class="st4" d="M455.7,26.1c-0.3-0.1-0.6-0.3-0.9-0.3c-1,0-1,1.2-1,1.9v3.1h1.9v1.3h-1.9V38h-1.4v-5.9h-0.6v-1.3h0.6v-3.5
			c0-1.6,0.5-2.8,2.3-2.8c0.3,0,0.7,0.1,1,0.2V26.1z"/>
		<path class="st4" d="M456.8,34.7c0,1.2,0.8,2.4,2.2,2.4c1.1,0,1.6-0.5,2.1-1.4l1.2,0.7c-0.7,1.2-1.9,2-3.3,2
			c-2.2,0-3.5-1.7-3.5-3.8c0-2.2,1.2-3.9,3.5-3.9c2.3,0,3.4,1.7,3.4,3.8v0.2H456.8z M460.9,33.6c-0.2-1.1-0.9-1.8-2-1.8
			c-1.1,0-1.9,0.8-2,1.8H460.9z"/>
		<path class="st4" d="M11.7,56.7v0.5c0,3.2-2.2,5.6-5.5,5.6s-5.8-2.8-5.8-6c0-3.3,2.7-6.1,6-6.1c1.8,0,3.6,0.8,4.7,2.2l-1,1
			c-0.8-1.1-2.2-1.9-3.6-1.9c-2.6,0-4.6,2.1-4.6,4.7c0,2.4,2,4.7,4.5,4.7c1.8,0,3.7-1.5,3.8-3.4h-3v-1.3H11.7z"/>
		<path class="st4" d="M14.1,56.5L14.1,56.5c0.4-0.8,1.1-1.4,2-1.4c0.4,0,0.8,0.1,1.1,0.4l-0.6,1.3c-0.2-0.2-0.5-0.3-0.8-0.3
			c-1.5,0-1.7,1.4-1.7,2.5v3.5h-1.4v-7.2h1.4V56.5z"/>
		<path class="st4" d="M24.7,59c0,2.2-1.7,3.8-3.8,3.8s-3.8-1.7-3.8-3.8c0-2.2,1.7-3.8,3.8-3.8S24.7,56.8,24.7,59z M18.4,59
			c0,1.4,1.1,2.5,2.5,2.5s2.5-1.2,2.5-2.5c0-1.4-1.1-2.5-2.5-2.5S18.4,57.6,18.4,59z"/>
		<path class="st4" d="M27,55.4v4c0,1.2,0.3,2.2,1.7,2.2s1.7-1,1.7-2.2v-4h1.4v4.1c0,2-0.9,3.3-3,3.3s-3-1.3-3-3.3v-4.1H27z"/>
		<path class="st4" d="M34.5,56.6L34.5,56.6c0.6-0.9,1.5-1.4,2.5-1.4c2.1,0,3.4,1.8,3.4,3.8c0,2.1-1.2,3.9-3.4,3.9
			c-1,0-1.9-0.6-2.4-1.4h0v5.2h-1.4V55.4h1.4V56.6z M39,59c0-1.4-0.8-2.6-2.3-2.6c-1.4,0-2.3,1.2-2.3,2.6c0,1.4,0.8,2.6,2.3,2.6
			C38.2,61.6,39,60.4,39,59z"/>
		<path class="st4" d="M43.6,61.9c0,0.5-0.4,0.9-0.9,0.9s-0.9-0.4-0.9-0.9c0-0.5,0.4-0.9,0.9-0.9S43.6,61.4,43.6,61.9z"/>
		<path class="st4" d="M51.8,54.9L51.8,54.9l-1.4,7.6H49l2.4-12.1l4,9.1l4-9.1l2.4,12.1h-1.5l-1.4-7.6h0l-3.5,7.9L51.8,54.9z"/>
		<path class="st4" d="M69.5,59c0,2.2-1.7,3.8-3.8,3.8s-3.8-1.7-3.8-3.8c0-2.2,1.7-3.8,3.8-3.8S69.5,56.8,69.5,59z M63.2,59
			c0,1.4,1.1,2.5,2.5,2.5s2.5-1.2,2.5-2.5c0-1.4-1.1-2.5-2.5-2.5S63.2,57.6,63.2,59z"/>
		<path class="st4" d="M73.3,57c-0.2-0.4-0.5-0.6-0.9-0.6c-0.4,0-0.8,0.3-0.8,0.7c0,0.6,0.8,0.9,1.7,1.3s1.7,0.9,1.7,2
			c0,1.4-1.1,2.4-2.5,2.4c-1,0-2.1-0.6-2.5-1.6l1.2-0.5c0.3,0.5,0.6,0.9,1.3,0.9c0.6,0,1.1-0.4,1.1-1c0-0.4-0.2-0.6-0.5-0.8
			l-1.4-0.7c-0.8-0.4-1.4-0.8-1.4-1.8c0-1.2,1-2.1,2.1-2.1c0.9,0,1.6,0.5,2,1.3L73.3,57z"/>
		<path class="st4" d="M77.6,62.6h-1.4v-5.9h-0.8v-1.3h0.8v-2.7h1.4v2.7H79v1.3h-1.4V62.6z"/>
		<path class="st4" d="M90.6,59c0,2.2-1.7,3.8-3.8,3.8s-3.8-1.7-3.8-3.8c0-2.2,1.7-3.8,3.8-3.8S90.6,56.8,90.6,59z M84.3,59
			c0,1.4,1.1,2.5,2.5,2.5s2.5-1.2,2.5-2.5c0-1.4-1.1-2.5-2.5-2.5S84.3,57.6,84.3,59z"/>
		<path class="st4" d="M95.1,50.6c-0.3-0.1-0.6-0.3-0.9-0.3c-1,0-1,1.2-1,1.9v3.1h1.9v1.3h-1.9v5.9h-1.4v-5.9h-0.6v-1.3h0.6v-3.5
			c0-1.6,0.5-2.8,2.3-2.8c0.3,0,0.7,0.1,1,0.2V50.6z"/>
		<path class="st4" d="M100.9,56.3L100.9,56.3c0.4-0.6,1.2-1.1,1.9-1.1c0.9,0,1.6,0.5,2.1,1.3c0.4-0.8,1.3-1.3,2.2-1.3
			c1.9,0,2.4,1.5,2.4,3.1v4.3h-1.4v-4.1c0-0.9-0.1-2.1-1.3-2.1c-1.5,0-1.6,1.5-1.6,2.6v3.5h-1.4v-3.8c0-0.9,0-2.4-1.3-2.4
			c-1.5,0-1.6,1.5-1.6,2.6v3.5h-1.4v-7.2h1.4V56.3z"/>
		<path class="st4" d="M109.9,55.4h1.6l2.4,4.6l2.3-4.6h1.6l-5.8,11.3h-1.6l2.8-5.3L109.9,55.4z"/>
		<path class="st4" d="M124.7,60l2.1-5l2.1,5l2.1-4.6h1.6l-3.7,7.4l-2.1-4.8l-2.1,4.8l-3.7-7.4h1.6L124.7,60z"/>
		<path class="st4" d="M140,59c0,2.2-1.7,3.8-3.8,3.8s-3.8-1.7-3.8-3.8c0-2.2,1.7-3.8,3.8-3.8S140,56.8,140,59z M133.7,59
			c0,1.4,1.1,2.5,2.5,2.5s2.5-1.2,2.5-2.5c0-1.4-1.1-2.5-2.5-2.5S133.7,57.6,133.7,59z"/>
		<path class="st4" d="M142.4,56.5L142.4,56.5c0.4-0.8,1.1-1.4,2-1.4c0.4,0,0.8,0.1,1.1,0.4l-0.6,1.3c-0.2-0.2-0.5-0.3-0.8-0.3
			c-1.5,0-1.7,1.4-1.7,2.5v3.5H141v-7.2h1.4V56.5z"/>
		<path class="st4" d="M147.5,58.1l2.7-2.7h1.8l-3.1,3l3.4,4.2h-1.8l-2.6-3.3l-0.5,0.5v2.8h-1.4V49.2h1.4V58.1z"/>
		<path class="st4" d="M163.7,62.6h-1.4v-1.1h0c-0.6,0.8-1.4,1.4-2.4,1.4c-2.2,0-3.4-1.8-3.4-3.9c0-2,1.3-3.8,3.4-3.8
			c1.1,0,1.9,0.6,2.5,1.4h0v-1.2h1.4V62.6z M162.4,59c0-1.4-0.8-2.6-2.3-2.6c-1.4,0-2.3,1.2-2.3,2.6c0,1.4,0.8,2.6,2.3,2.6
			C161.6,61.6,162.4,60.4,162.4,59z"/>
		<path class="st4" d="M166.8,62.6h-1.4v-5.9h-0.8v-1.3h0.8v-2.7h1.4v2.7h1.4v1.3h-1.4V62.6z"/>
		<path class="st4" d="M174.3,62.6h-1.4v-5.9h-0.8v-1.3h0.8v-2.7h1.4v2.7h1.4v1.3h-1.4V62.6z"/>
		<path class="st4" d="M177.4,49.2v7.1h0c0.4-0.8,1.3-1.2,2.2-1.2c2,0,2.5,1.4,2.5,3.1v4.3h-1.4v-4.1c0-1.2-0.2-2.1-1.6-2.1
			c-1.8,0-1.8,1.6-1.8,2.9v3.3h-1.4V49.2H177.4z"/>
		<path class="st4" d="M184.6,59.2c0,1.2,0.8,2.4,2.2,2.4c1.1,0,1.6-0.5,2.1-1.4l1.2,0.7c-0.7,1.2-1.9,2-3.3,2
			c-2.2,0-3.5-1.7-3.5-3.8c0-2.2,1.2-3.9,3.5-3.9c2.3,0,3.4,1.7,3.4,3.8v0.2H184.6z M188.7,58.2c-0.2-1.1-0.9-1.8-2-1.8
			c-1.1,0-1.9,0.8-2,1.8H188.7z"/>
		<path class="st4" d="M198,57c-0.2-0.4-0.5-0.6-0.9-0.6c-0.4,0-0.8,0.3-0.8,0.7c0,0.6,0.8,0.9,1.7,1.3s1.7,0.9,1.7,2
			c0,1.4-1.1,2.4-2.5,2.4c-1,0-2.1-0.6-2.5-1.6l1.2-0.5c0.3,0.5,0.6,0.9,1.3,0.9c0.6,0,1.1-0.4,1.1-1c0-0.4-0.2-0.6-0.5-0.8
			l-1.4-0.7c-0.8-0.4-1.4-0.8-1.4-1.8c0-1.2,1-2.1,2.1-2.1c0.9,0,1.6,0.5,2,1.3L198,57z"/>
		<path class="st4" d="M202.2,62.6h-1.4v-5.9h-0.8v-1.3h0.8v-2.7h1.4v2.7h1.4v1.3h-1.4V62.6z"/>
		<path class="st4" d="M210.8,62.6h-1.4v-1.1h0c-0.6,0.8-1.4,1.4-2.4,1.4c-2.2,0-3.4-1.8-3.4-3.9c0-2,1.3-3.8,3.4-3.8
			c1.1,0,1.9,0.6,2.5,1.4h0v-1.2h1.4V62.6z M209.5,59c0-1.4-0.8-2.6-2.3-2.6c-1.4,0-2.3,1.2-2.3,2.6c0,1.4,0.8,2.6,2.3,2.6
			C208.6,61.6,209.5,60.4,209.5,59z"/>
		<path class="st4" d="M213.7,56.5L213.7,56.5c0.4-0.8,1.1-1.4,2-1.4c0.4,0,0.8,0.1,1.1,0.4l-0.6,1.3c-0.2-0.2-0.5-0.3-0.8-0.3
			c-1.5,0-1.7,1.4-1.7,2.5v3.5h-1.4v-7.2h1.4V56.5z"/>
		<path class="st4" d="M219.2,62.6h-1.4v-5.9h-0.8v-1.3h0.8v-2.7h1.4v2.7h1.4v1.3h-1.4V62.6z"/>
		<path class="st4" d="M227.1,52.1c0,0.5-0.4,0.9-1,0.9c-0.5,0-1-0.4-1-0.9c0-0.5,0.4-1,1-1C226.7,51.1,227.1,51.6,227.1,52.1z
			 M226.8,62.6h-1.4v-7.2h1.4V62.6z"/>
		<path class="st4" d="M230.1,56.3L230.1,56.3c0.5-0.8,1.3-1.2,2.2-1.2c2,0,2.5,1.4,2.5,3.1v4.3h-1.4v-4.1c0-1.2-0.2-2.1-1.6-2.1
			c-1.8,0-1.8,1.6-1.8,2.9v3.3h-1.4v-7.2h1.4V56.3z"/>
		<path class="st4" d="M241.7,57.4c-0.6-0.6-1.2-1-2.1-1c-1.4,0-2.4,1.2-2.4,2.5c0,1.5,1,2.5,2.5,2.5c0.8,0,1.4-0.4,2-1v1.8
			c-0.6,0.3-1.3,0.5-2,0.5c-2.1,0-3.9-1.6-3.9-3.8c0-2.2,1.7-3.9,3.9-3.9c0.6,0,1.4,0.2,1.9,0.5V57.4z"/>
		<path class="st4" d="M244.4,62.6H243V49.2h1.4V62.6z"/>
		<path class="st4" d="M247.3,55.4v4c0,1.2,0.3,2.2,1.7,2.2c1.4,0,1.7-1,1.7-2.2v-4h1.4v4.1c0,2-0.9,3.3-3,3.3c-2.1,0-3-1.3-3-3.3
			v-4.1H247.3z"/>
		<path class="st4" d="M258.9,61.4L258.9,61.4c-0.6,0.8-1.5,1.4-2.5,1.4c-2.2,0-3.4-1.8-3.4-3.9c0-2,1.3-3.8,3.4-3.8
			c1.1,0,1.9,0.6,2.5,1.4h0v-7.3h1.4v13.3h-1.4V61.4z M259,59c0-1.4-0.8-2.6-2.3-2.6c-1.4,0-2.3,1.2-2.3,2.6c0,1.4,0.8,2.6,2.3,2.6
			C258.2,61.6,259,60.4,259,59z"/>
		<path class="st4" d="M262.6,59.2c0,1.2,0.8,2.4,2.2,2.4c1.1,0,1.6-0.5,2.1-1.4l1.2,0.7c-0.7,1.2-1.9,2-3.3,2
			c-2.2,0-3.5-1.7-3.5-3.8c0-2.2,1.2-3.9,3.5-3.9c2.3,0,3.4,1.7,3.4,3.8v0.2H262.6z M266.7,58.2c-0.2-1.1-0.9-1.8-2-1.8
			c-1.1,0-1.9,0.8-2,1.8H266.7z"/>
		<path class="st4" d="M274.3,61.4L274.3,61.4c-0.6,0.8-1.5,1.4-2.5,1.4c-2.2,0-3.4-1.8-3.4-3.9c0-2,1.3-3.8,3.4-3.8
			c1.1,0,1.9,0.6,2.5,1.4h0v-7.3h1.4v13.3h-1.4V61.4z M274.4,59c0-1.4-0.8-2.6-2.3-2.6c-1.4,0-2.3,1.2-2.3,2.6
			c0,1.4,0.8,2.6,2.3,2.6C273.6,61.6,274.4,60.4,274.4,59z"/>
		<path class="st4" d="M288.1,62.6h-1.4v-1.1h0c-0.6,0.8-1.4,1.4-2.4,1.4c-2.2,0-3.4-1.8-3.4-3.9c0-2,1.3-3.8,3.4-3.8
			c1.1,0,1.9,0.6,2.5,1.4h0v-1.2h1.4V62.6z M286.8,59c0-1.4-0.8-2.6-2.3-2.6c-1.4,0-2.3,1.2-2.3,2.6c0,1.4,0.8,2.6,2.3,2.6
			C285.9,61.6,286.8,60.4,286.8,59z"/>
		<path class="st4" d="M291,56.5L291,56.5c0.4-0.8,1.1-1.4,2-1.4c0.4,0,0.8,0.1,1.1,0.4l-0.6,1.3c-0.2-0.2-0.5-0.3-0.8-0.3
			c-1.5,0-1.7,1.4-1.7,2.5v3.5h-1.4v-7.2h1.4V56.5z"/>
		<path class="st4" d="M296.5,62.6h-1.4v-5.9h-0.8v-1.3h0.8v-2.7h1.4v2.7h1.4v1.3h-1.4V62.6z"/>
		<path class="st4" d="M303.7,56.6L303.7,56.6c0.6-0.9,1.5-1.4,2.5-1.4c2.1,0,3.4,1.8,3.4,3.8c0,2.1-1.2,3.9-3.4,3.9
			c-1,0-1.9-0.6-2.4-1.4h0v5.2h-1.4V55.4h1.4V56.6z M308.3,59c0-1.4-0.8-2.6-2.3-2.6c-1.4,0-2.3,1.2-2.3,2.6c0,1.4,0.8,2.6,2.3,2.6
			C307.4,61.6,308.3,60.4,308.3,59z"/>
		<path class="st4" d="M312.1,56.5L312.1,56.5c0.4-0.8,1.1-1.4,2-1.4c0.4,0,0.8,0.1,1.1,0.4l-0.6,1.3c-0.2-0.2-0.5-0.3-0.8-0.3
			c-1.5,0-1.7,1.4-1.7,2.5v3.5h-1.4v-7.2h1.4V56.5z"/>
		<path class="st4" d="M322.8,59c0,2.2-1.7,3.8-3.8,3.8s-3.8-1.7-3.8-3.8c0-2.2,1.7-3.8,3.8-3.8S322.8,56.8,322.8,59z M316.5,59
			c0,1.4,1.1,2.5,2.5,2.5s2.5-1.2,2.5-2.5c0-1.4-1.1-2.5-2.5-2.5S316.5,57.6,316.5,59z"/>
		<path class="st4" d="M329.1,61.4L329.1,61.4c-0.6,0.8-1.5,1.4-2.5,1.4c-2.2,0-3.4-1.8-3.4-3.9c0-2,1.3-3.8,3.4-3.8
			c1.1,0,1.9,0.6,2.5,1.4h0v-7.3h1.4v13.3h-1.4V61.4z M329.2,59c0-1.4-0.8-2.6-2.3-2.6c-1.4,0-2.3,1.2-2.3,2.6
			c0,1.4,0.8,2.6,2.3,2.6C328.3,61.6,329.2,60.4,329.2,59z"/>
		<path class="st4" d="M333.3,55.4v4c0,1.2,0.3,2.2,1.7,2.2s1.7-1,1.7-2.2v-4h1.4v4.1c0,2-0.9,3.3-3,3.3s-3-1.3-3-3.3v-4.1H333.3z"
			/>
		<path class="st4" d="M344.8,57.4c-0.6-0.6-1.2-1-2.1-1c-1.4,0-2.4,1.2-2.4,2.5c0,1.5,1,2.5,2.5,2.5c0.8,0,1.4-0.4,2-1v1.8
			c-0.6,0.3-1.3,0.5-2,0.5c-2.1,0-3.9-1.6-3.9-3.8c0-2.2,1.7-3.9,3.9-3.9c0.6,0,1.4,0.2,1.9,0.5V57.4z"/>
		<path class="st4" d="M347.6,62.6h-1.4v-5.9h-0.8v-1.3h0.8v-2.7h1.4v2.7h1.4v1.3h-1.4V62.6z"/>
		<path class="st4" d="M351.3,52.1c0,0.5-0.4,0.9-1,0.9c-0.5,0-1-0.4-1-0.9c0-0.5,0.4-1,1-1C350.9,51.1,351.3,51.6,351.3,52.1z
			 M351,62.6h-1.4v-7.2h1.4V62.6z"/>
		<path class="st4" d="M360,59c0,2.2-1.7,3.8-3.8,3.8s-3.8-1.7-3.8-3.8c0-2.2,1.7-3.8,3.8-3.8S360,56.8,360,59z M353.7,59
			c0,1.4,1.1,2.5,2.5,2.5s2.5-1.2,2.5-2.5c0-1.4-1.1-2.5-2.5-2.5S353.7,57.6,353.7,59z"/>
		<path class="st4" d="M362.3,56.3L362.3,56.3c0.5-0.8,1.3-1.2,2.2-1.2c2,0,2.5,1.4,2.5,3.1v4.3h-1.4v-4.1c0-1.2-0.2-2.1-1.6-2.1
			c-1.8,0-1.8,1.6-1.8,2.9v3.3h-1.4v-7.2h1.4V56.3z"/>
		<path class="st4" d="M376.3,50.6c-0.3-0.1-0.6-0.3-0.9-0.3c-1,0-1,1.2-1,1.9v3.1h1.9v1.3h-1.9v5.9H373v-5.9h-0.6v-1.3h0.6v-3.5
			c0-1.6,0.5-2.8,2.3-2.8c0.3,0,0.7,0.1,1,0.2V50.6z"/>
		<path class="st4" d="M383.7,59c0,2.2-1.7,3.8-3.8,3.8S376,61.2,376,59c0-2.2,1.7-3.8,3.8-3.8S383.7,56.8,383.7,59z M377.4,59
			c0,1.4,1.1,2.5,2.5,2.5s2.5-1.2,2.5-2.5c0-1.4-1.1-2.5-2.5-2.5S377.4,57.6,377.4,59z"/>
		<path class="st4" d="M386.1,56.5L386.1,56.5c0.4-0.8,1.1-1.4,2-1.4c0.4,0,0.8,0.1,1.1,0.4l-0.6,1.3c-0.2-0.2-0.5-0.3-0.8-0.3
			c-1.5,0-1.7,1.4-1.7,2.5v3.5h-1.4v-7.2h1.4V56.5z"/>
		<path class="st4" d="M395.1,56.6L395.1,56.6c0.6-0.9,1.5-1.4,2.5-1.4c2.1,0,3.4,1.8,3.4,3.8c0,2.1-1.2,3.9-3.4,3.9
			c-1,0-1.9-0.6-2.4-1.4h0v5.2h-1.4V55.4h1.4V56.6z M399.7,59c0-1.4-0.8-2.6-2.3-2.6c-1.4,0-2.3,1.2-2.3,2.6c0,1.4,0.8,2.6,2.3,2.6
			C398.8,61.6,399.7,60.4,399.7,59z"/>
		<path class="st4" d="M403.6,56.5L403.6,56.5c0.4-0.8,1.1-1.4,2-1.4c0.4,0,0.8,0.1,1.1,0.4l-0.6,1.3c-0.2-0.2-0.5-0.3-0.8-0.3
			c-1.5,0-1.7,1.4-1.7,2.5v3.5h-1.4v-7.2h1.4V56.5z"/>
		<path class="st4" d="M409.1,52.1c0,0.5-0.4,0.9-1,0.9c-0.5,0-1-0.4-1-0.9c0-0.5,0.4-1,1-1C408.7,51.1,409.1,51.6,409.1,52.1z
			 M408.9,62.6h-1.4v-7.2h1.4V62.6z"/>
		<path class="st4" d="M412.1,56.3L412.1,56.3c0.5-0.8,1.3-1.2,2.2-1.2c2,0,2.5,1.4,2.5,3.1v4.3h-1.4v-4.1c0-1.2-0.2-2.1-1.6-2.1
			c-1.8,0-1.8,1.6-1.8,2.9v3.3h-1.4v-7.2h1.4V56.3z"/>
		<path class="st4" d="M420.1,62.6h-1.4v-5.9h-0.8v-1.3h0.8v-2.7h1.4v2.7h1.4v1.3h-1.4V62.6z"/>
		<path class="st4" d="M424.6,61.2l-2,4.1l-0.8-0.4l1.7-4.2L424.6,61.2z"/>
		<path class="st4" d="M432.6,60l2.1-5l2.1,5l2.1-4.6h1.6l-3.7,7.4l-2.1-4.8l-2.1,4.8l-3.7-7.4h1.6L432.6,60z"/>
		<path class="st4" d="M441.7,59.2c0,1.2,0.8,2.4,2.2,2.4c1.1,0,1.6-0.5,2.1-1.4l1.2,0.7c-0.7,1.2-1.9,2-3.3,2
			c-2.2,0-3.5-1.7-3.5-3.8c0-2.2,1.2-3.9,3.5-3.9c2.3,0,3.4,1.7,3.4,3.8v0.2H441.7z M445.8,58.2c-0.2-1.1-0.9-1.8-2-1.8
			c-1.1,0-1.9,0.8-2,1.8H445.8z"/>
		<path class="st4" d="M447.9,49.2h1.4v7.3h0c0.6-0.9,1.4-1.4,2.5-1.4c2.1,0,3.4,1.8,3.4,3.8c0,2.1-1.2,3.9-3.4,3.9
			c-1,0-1.9-0.6-2.4-1.4h0v1.1h-1.4V49.2z M453.8,59c0-1.4-0.8-2.6-2.3-2.6c-1.4,0-2.3,1.2-2.3,2.6c0,1.4,0.8,2.6,2.3,2.6
			C453,61.6,453.8,60.4,453.8,59z"/>
		<path class="st4" d="M459,61.2l-2,4.1l-0.8-0.4l1.7-4.2L459,61.2z"/>
		<path class="st4" d="M471.2,62.6h-1.4v-1.1h0c-0.6,0.8-1.4,1.4-2.4,1.4c-2.2,0-3.4-1.8-3.4-3.9c0-2,1.3-3.8,3.4-3.8
			c1.1,0,1.9,0.6,2.5,1.4h0v-1.2h1.4V62.6z M469.9,59c0-1.4-0.8-2.6-2.3-2.6c-1.4,0-2.3,1.2-2.3,2.6c0,1.4,0.8,2.6,2.3,2.6
			C469.1,61.6,469.9,60.4,469.9,59z"/>
		<path class="st4" d="M474.1,56.3L474.1,56.3c0.5-0.8,1.3-1.2,2.2-1.2c2,0,2.5,1.4,2.5,3.1v4.3h-1.4v-4.1c0-1.2-0.2-2.1-1.6-2.1
			c-1.8,0-1.8,1.6-1.8,2.9v3.3h-1.4v-7.2h1.4V56.3z"/>
		<path class="st4" d="M485.8,61.4L485.8,61.4c-0.6,0.8-1.5,1.4-2.5,1.4c-2.2,0-3.4-1.8-3.4-3.9c0-2,1.3-3.8,3.4-3.8
			c1.1,0,1.9,0.6,2.5,1.4h0v-7.3h1.4v13.3h-1.4V61.4z M485.9,59c0-1.4-0.8-2.6-2.3-2.6c-1.4,0-2.3,1.2-2.3,2.6
			c0,1.4,0.8,2.6,2.3,2.6C485,61.6,485.9,60.4,485.9,59z"/>
		<path class="st4" d="M2.4,87.1H1V73.8h1.4V87.1z"/>
		<path class="st4" d="M10.8,87.1H9.4V86h0c-0.6,0.8-1.4,1.4-2.4,1.4c-2.2,0-3.4-1.8-3.4-3.9c0-2,1.3-3.8,3.4-3.8
			c1.1,0,1.9,0.6,2.5,1.4h0v-1.2h1.4V87.1z M9.5,83.5c0-1.4-0.8-2.6-2.3-2.6c-1.4,0-2.3,1.2-2.3,2.6c0,1.4,0.8,2.6,2.3,2.6
			C8.7,86.1,9.5,84.9,9.5,83.5z"/>
		<path class="st4" d="M13.8,81.1L13.8,81.1c0.4-0.8,1.1-1.4,2-1.4c0.4,0,0.8,0.1,1.1,0.4l-0.6,1.3C16,81.1,15.7,81,15.4,81
			c-1.5,0-1.7,1.4-1.7,2.5v3.5h-1.4v-7.2h1.4V81.1z"/>
		<path class="st4" d="M24.1,87c0,2.5-0.7,4.3-3.5,4.3c-2,0-3.4-1.2-3.5-3.3h1.4c0,1.3,0.9,2,2.1,2c1.7,0,2.1-1.2,2.1-2.6V86h0
			c-0.6,0.8-1.4,1.4-2.4,1.4c-2.2,0-3.4-1.8-3.4-3.9c0-2,1.3-3.8,3.4-3.8c1.1,0,1.9,0.6,2.5,1.4h0v-1.2h1.4V87z M22.8,83.5
			c0-1.4-0.8-2.6-2.3-2.6c-1.4,0-2.3,1.2-2.3,2.6c0,1.4,0.8,2.6,2.3,2.6C21.9,86.1,22.8,84.9,22.8,83.5z"/>
		<path class="st4" d="M26.4,83.8c0,1.2,0.8,2.4,2.2,2.4c1.1,0,1.6-0.5,2.1-1.4l1.2,0.7c-0.7,1.2-1.9,2-3.3,2
			c-2.2,0-3.5-1.7-3.5-3.8c0-2.2,1.2-3.9,3.5-3.9c2.3,0,3.4,1.7,3.4,3.8v0.2H26.4z M30.5,82.7c-0.2-1.1-0.9-1.8-2-1.8
			c-1.1,0-1.9,0.8-2,1.8H30.5z"/>
		<path class="st4" d="M40.4,75.2c-0.3-0.1-0.6-0.3-0.9-0.3c-1,0-1,1.2-1,1.9v3.1h1.9v1.3h-1.9v5.9h-1.4v-5.9h-0.6v-1.3h0.6v-3.5
			c0-1.6,0.5-2.8,2.3-2.8c0.3,0,0.7,0.1,1,0.2V75.2z"/>
		<path class="st4" d="M47.8,83.5c0,2.2-1.7,3.8-3.8,3.8s-3.8-1.7-3.8-3.8c0-2.2,1.7-3.8,3.8-3.8S47.8,81.4,47.8,83.5z M41.5,83.5
			c0,1.4,1.1,2.5,2.5,2.5s2.5-1.2,2.5-2.5c0-1.4-1.1-2.5-2.5-2.5S41.5,82.2,41.5,83.5z"/>
		<path class="st4" d="M50.2,81.1L50.2,81.1c0.4-0.8,1.1-1.4,2-1.4c0.4,0,0.8,0.1,1.1,0.4l-0.6,1.3c-0.2-0.2-0.5-0.3-0.8-0.3
			c-1.5,0-1.7,1.4-1.7,2.5v3.5h-1.4v-7.2h1.4V81.1z"/>
		<path class="st4" d="M55.3,80.8L55.3,80.8c0.4-0.6,1.2-1.1,1.9-1.1c0.9,0,1.6,0.5,2.1,1.3c0.4-0.8,1.3-1.3,2.2-1.3
			c1.9,0,2.4,1.5,2.4,3.1v4.3h-1.4v-4.1c0-0.9-0.1-2.1-1.3-2.1c-1.5,0-1.6,1.5-1.6,2.6v3.5h-1.4v-3.8c0-0.9,0-2.4-1.3-2.4
			c-1.5,0-1.6,1.5-1.6,2.6v3.5h-1.4v-7.2h1.4V80.8z"/>
		<path class="st4" d="M72.2,87.1h-1.4V86h0c-0.6,0.8-1.4,1.4-2.4,1.4c-2.2,0-3.4-1.8-3.4-3.9c0-2,1.3-3.8,3.4-3.8
			c1.1,0,1.9,0.6,2.5,1.4h0v-1.2h1.4V87.1z M70.9,83.5c0-1.4-0.8-2.6-2.3-2.6c-1.4,0-2.3,1.2-2.3,2.6c0,1.4,0.8,2.6,2.3,2.6
			C70,86.1,70.9,84.9,70.9,83.5z"/>
		<path class="st4" d="M75.2,87.1h-1.4v-5.9h-0.8v-1.3h0.8v-2.7h1.4v2.7h1.4v1.3h-1.4V87.1z"/>
		<path class="st4" d="M82,83.8c0,1.2,0.8,2.4,2.2,2.4c1.1,0,1.6-0.5,2.1-1.4l1.2,0.7c-0.7,1.2-1.9,2-3.3,2c-2.2,0-3.5-1.7-3.5-3.8
			c0-2.2,1.2-3.9,3.5-3.9c2.3,0,3.4,1.7,3.4,3.8v0.2H82z M86.1,82.7c-0.2-1.1-0.9-1.8-2-1.8c-1.1,0-1.9,0.8-2,1.8H86.1z"/>
		<path class="st4" d="M89.8,87.1h-1.4V73.8h1.4V87.1z"/>
		<path class="st4" d="M92.3,83.8c0,1.2,0.8,2.4,2.2,2.4c1.1,0,1.6-0.5,2.1-1.4l1.2,0.7c-0.7,1.2-1.9,2-3.3,2
			c-2.2,0-3.5-1.7-3.5-3.8c0-2.2,1.2-3.9,3.5-3.9c2.3,0,3.4,1.7,3.4,3.8v0.2H92.3z M96.4,82.7c-0.2-1.1-0.9-1.8-2-1.8
			c-1.1,0-1.9,0.8-2,1.8H96.4z"/>
		<path class="st4" d="M103.9,82c-0.6-0.6-1.2-1-2.1-1c-1.4,0-2.4,1.2-2.4,2.5c0,1.5,1,2.5,2.5,2.5c0.8,0,1.4-0.4,2-1v1.8
			c-0.6,0.3-1.3,0.5-2,0.5c-2.1,0-3.9-1.6-3.9-3.8c0-2.2,1.7-3.9,3.9-3.9c0.6,0,1.4,0.2,1.9,0.5V82z"/>
		<path class="st4" d="M106.7,87.1h-1.4v-5.9h-0.8v-1.3h0.8v-2.7h1.4v2.7h1.4v1.3h-1.4V87.1z"/>
		<path class="st4" d="M109.9,81.1L109.9,81.1c0.4-0.8,1.1-1.4,2-1.4c0.4,0,0.8,0.1,1.1,0.4l-0.6,1.3c-0.2-0.2-0.5-0.3-0.8-0.3
			c-1.5,0-1.7,1.4-1.7,2.5v3.5h-1.4v-7.2h1.4V81.1z"/>
		<path class="st4" d="M120.6,83.5c0,2.2-1.7,3.8-3.8,3.8s-3.8-1.7-3.8-3.8c0-2.2,1.7-3.8,3.8-3.8S120.6,81.4,120.6,83.5z
			 M114.3,83.5c0,1.4,1.1,2.5,2.5,2.5s2.5-1.2,2.5-2.5c0-1.4-1.1-2.5-2.5-2.5S114.3,82.2,114.3,83.5z"/>
		<path class="st4" d="M122.9,80.9L122.9,80.9c0.5-0.8,1.3-1.2,2.2-1.2c2,0,2.5,1.4,2.5,3.1v4.3h-1.4V83c0-1.2-0.2-2.1-1.6-2.1
			c-1.8,0-1.8,1.6-1.8,2.9v3.3h-1.4v-7.2h1.4V80.9z"/>
		<path class="st4" d="M131.2,76.7c0,0.5-0.4,0.9-1,0.9c-0.5,0-1-0.4-1-0.9c0-0.5,0.4-1,1-1C130.8,75.7,131.2,76.1,131.2,76.7z
			 M130.9,87.1h-1.4v-7.2h1.4V87.1z"/>
		<path class="st4" d="M138.1,82c-0.6-0.6-1.2-1-2.1-1c-1.4,0-2.4,1.2-2.4,2.5c0,1.5,1,2.5,2.5,2.5c0.8,0,1.4-0.4,2-1v1.8
			c-0.6,0.3-1.3,0.5-2,0.5c-2.1,0-3.9-1.6-3.9-3.8c0-2.2,1.7-3.9,3.9-3.9c0.6,0,1.4,0.2,1.9,0.5V82z"/>
		<path class="st4" d="M148.8,86L148.8,86c-0.6,0.8-1.5,1.4-2.5,1.4c-2.2,0-3.4-1.8-3.4-3.9c0-2,1.3-3.8,3.4-3.8
			c1.1,0,1.9,0.6,2.5,1.4h0v-7.3h1.4v13.3h-1.4V86z M148.9,83.5c0-1.4-0.8-2.6-2.3-2.6c-1.4,0-2.3,1.2-2.3,2.6
			c0,1.4,0.8,2.6,2.3,2.6C148,86.1,148.9,84.9,148.9,83.5z"/>
		<path class="st4" d="M153.6,76.7c0,0.5-0.4,0.9-1,0.9c-0.5,0-1-0.4-1-0.9c0-0.5,0.4-1,1-1C153.2,75.7,153.6,76.1,153.6,76.7z
			 M153.3,87.1H152v-7.2h1.4V87.1z"/>
		<path class="st4" d="M158.1,81.6c-0.2-0.4-0.5-0.6-0.9-0.6c-0.4,0-0.8,0.3-0.8,0.7c0,0.6,0.8,0.9,1.7,1.3s1.7,0.9,1.7,2
			c0,1.4-1.1,2.4-2.5,2.4c-1,0-2.1-0.6-2.5-1.6l1.2-0.5c0.3,0.5,0.6,0.9,1.3,0.9c0.6,0,1.1-0.4,1.1-1c0-0.4-0.2-0.6-0.5-0.8
			l-1.4-0.7c-0.8-0.4-1.4-0.8-1.4-1.8c0-1.2,1-2.1,2.1-2.1c0.9,0,1.6,0.5,2,1.3L158.1,81.6z"/>
		<path class="st4" d="M162.1,81.1L162.1,81.1c0.6-0.9,1.5-1.4,2.5-1.4c2.1,0,3.4,1.8,3.4,3.8c0,2.1-1.2,3.9-3.4,3.9
			c-1,0-1.9-0.6-2.4-1.4h0v5.2h-1.4V79.9h1.4V81.1z M166.6,83.5c0-1.4-0.8-2.6-2.3-2.6c-1.4,0-2.3,1.2-2.3,2.6
			c0,1.4,0.8,2.6,2.3,2.6C165.8,86.1,166.6,84.9,166.6,83.5z"/>
		<path class="st4" d="M170.5,87.1h-1.4V73.8h1.4V87.1z"/>
		<path class="st4" d="M178.9,87.1h-1.4V86h0c-0.6,0.8-1.4,1.4-2.4,1.4c-2.2,0-3.4-1.8-3.4-3.9c0-2,1.3-3.8,3.4-3.8
			c1.1,0,1.9,0.6,2.5,1.4h0v-1.2h1.4V87.1z M177.6,83.5c0-1.4-0.8-2.6-2.3-2.6c-1.4,0-2.3,1.2-2.3,2.6c0,1.4,0.8,2.6,2.3,2.6
			C176.8,86.1,177.6,84.9,177.6,83.5z"/>
		<path class="st4" d="M179.2,79.9h1.6l2.4,4.6l2.3-4.6h1.6l-5.8,11.3h-1.6l2.8-5.3L179.2,79.9z"/>
		<path class="st4" d="M188.4,86.5c0,0.5-0.4,0.9-0.9,0.9s-0.9-0.4-0.9-0.9c0-0.5,0.4-0.9,0.9-0.9S188.4,86,188.4,86.5z"/>
		<path class="st4" d="M196.6,79.5L196.6,79.5l-1.4,7.6h-1.5l2.4-12.1l4,9.1l4-9.1l2.4,12.1H205l-1.4-7.6h0l-3.5,7.9L196.6,79.5z"/>
		<path class="st4" d="M214.3,83.5c0,2.2-1.7,3.8-3.8,3.8s-3.8-1.7-3.8-3.8c0-2.2,1.7-3.8,3.8-3.8S214.3,81.4,214.3,83.5z M208,83.5
			c0,1.4,1.1,2.5,2.5,2.5s2.5-1.2,2.5-2.5c0-1.4-1.1-2.5-2.5-2.5S208,82.2,208,83.5z"/>
		<path class="st4" d="M218.1,81.6c-0.2-0.4-0.5-0.6-0.9-0.6c-0.4,0-0.8,0.3-0.8,0.7c0,0.6,0.8,0.9,1.7,1.3s1.7,0.9,1.7,2
			c0,1.4-1.1,2.4-2.5,2.4c-1,0-2.1-0.6-2.5-1.6l1.2-0.5c0.3,0.5,0.6,0.9,1.3,0.9c0.6,0,1.1-0.4,1.1-1c0-0.4-0.2-0.6-0.5-0.8
			l-1.4-0.7c-0.8-0.4-1.4-0.8-1.4-1.8c0-1.2,1-2.1,2.1-2.1c0.9,0,1.6,0.5,2,1.3L218.1,81.6z"/>
		<path class="st4" d="M222.4,87.1H221v-5.9h-0.8v-1.3h0.8v-2.7h1.4v2.7h1.4v1.3h-1.4V87.1z"/>
		<path class="st4" d="M235.4,83.5c0,2.2-1.7,3.8-3.8,3.8s-3.8-1.7-3.8-3.8c0-2.2,1.7-3.8,3.8-3.8S235.4,81.4,235.4,83.5z
			 M229.1,83.5c0,1.4,1.1,2.5,2.5,2.5s2.5-1.2,2.5-2.5c0-1.4-1.1-2.5-2.5-2.5S229.1,82.2,229.1,83.5z"/>
		<path class="st4" d="M239.9,75.2c-0.3-0.1-0.6-0.3-0.9-0.3c-1,0-1,1.2-1,1.9v3.1h1.9v1.3H238v5.9h-1.4v-5.9H236v-1.3h0.6v-3.5
			c0-1.6,0.5-2.8,2.3-2.8c0.3,0,0.7,0.1,1,0.2V75.2z"/>
		<path class="st4" d="M245.7,80.8L245.7,80.8c0.4-0.6,1.2-1.1,1.9-1.1c0.9,0,1.6,0.5,2.1,1.3c0.4-0.8,1.3-1.3,2.2-1.3
			c1.9,0,2.4,1.5,2.4,3.1v4.3h-1.4v-4.1c0-0.9-0.1-2.1-1.3-2.1c-1.5,0-1.6,1.5-1.6,2.6v3.5h-1.4v-3.8c0-0.9,0-2.4-1.3-2.4
			c-1.5,0-1.6,1.5-1.6,2.6v3.5h-1.4v-7.2h1.4V80.8z"/>
		<path class="st4" d="M254.7,79.9h1.6l2.4,4.6l2.3-4.6h1.6l-5.8,11.3h-1.6l2.8-5.3L254.7,79.9z"/>
		<path class="st4" d="M273.8,87.1h-1.4V86h0c-0.6,0.8-1.4,1.4-2.4,1.4c-2.2,0-3.4-1.8-3.4-3.9c0-2,1.3-3.8,3.4-3.8
			c1.1,0,1.9,0.6,2.5,1.4h0v-1.2h1.4V87.1z M272.5,83.5c0-1.4-0.8-2.6-2.3-2.6c-1.4,0-2.3,1.2-2.3,2.6c0,1.4,0.8,2.6,2.3,2.6
			C271.7,86.1,272.5,84.9,272.5,83.5z"/>
		<path class="st4" d="M276.8,81.1L276.8,81.1c0.4-0.8,1.1-1.4,2-1.4c0.4,0,0.8,0.1,1.1,0.4l-0.6,1.3c-0.2-0.2-0.5-0.3-0.8-0.3
			c-1.5,0-1.7,1.4-1.7,2.5v3.5h-1.4v-7.2h1.4V81.1z"/>
		<path class="st4" d="M282.3,87.1h-1.4v-5.9h-0.8v-1.3h0.8v-2.7h1.4v2.7h1.4v1.3h-1.4V87.1z"/>
		<path class="st4" d="M286.5,84.5l2.1-5l2.1,5l2.1-4.6h1.6l-3.7,7.4l-2.1-4.8l-2.1,4.8l-3.7-7.4h1.6L286.5,84.5z"/>
		<path class="st4" d="M301.8,83.5c0,2.2-1.7,3.8-3.8,3.8s-3.8-1.7-3.8-3.8c0-2.2,1.7-3.8,3.8-3.8S301.8,81.4,301.8,83.5z
			 M295.5,83.5c0,1.4,1.1,2.5,2.5,2.5s2.5-1.2,2.5-2.5c0-1.4-1.1-2.5-2.5-2.5S295.5,82.2,295.5,83.5z"/>
		<path class="st4" d="M304.2,81.1L304.2,81.1c0.4-0.8,1.1-1.4,2-1.4c0.4,0,0.8,0.1,1.1,0.4l-0.6,1.3c-0.2-0.2-0.5-0.3-0.8-0.3
			c-1.5,0-1.7,1.4-1.7,2.5v3.5h-1.4v-7.2h1.4V81.1z"/>
		<path class="st4" d="M309.3,82.6l2.7-2.7h1.8l-3.1,3l3.4,4.2h-1.8l-2.6-3.3l-0.5,0.5v2.8h-1.4V73.8h1.4V82.6z"/>
		<path class="st4" d="M321.2,84.5l2.1-5l2.1,5l2.1-4.6h1.6l-3.7,7.4l-2.1-4.8l-2.1,4.8l-3.7-7.4h1.6L321.2,84.5z"/>
		<path class="st4" d="M336.2,87.1h-1.4V86h0c-0.6,0.8-1.4,1.4-2.4,1.4c-2.2,0-3.4-1.8-3.4-3.9c0-2,1.3-3.8,3.4-3.8
			c1.1,0,1.9,0.6,2.5,1.4h0v-1.2h1.4V87.1z M334.9,83.5c0-1.4-0.8-2.6-2.3-2.6c-1.4,0-2.3,1.2-2.3,2.6c0,1.4,0.8,2.6,2.3,2.6
			C334.1,86.1,334.9,84.9,334.9,83.5z"/>
		<path class="st4" d="M340.6,81.6c-0.2-0.4-0.5-0.6-0.9-0.6c-0.4,0-0.8,0.3-0.8,0.7c0,0.6,0.8,0.9,1.7,1.3c0.8,0.4,1.7,0.9,1.7,2
			c0,1.4-1.1,2.4-2.5,2.4c-1,0-2.1-0.6-2.5-1.6l1.2-0.5c0.3,0.5,0.6,0.9,1.3,0.9c0.6,0,1.1-0.4,1.1-1c0-0.4-0.2-0.6-0.5-0.8
			l-1.4-0.7c-0.8-0.4-1.4-0.8-1.4-1.8c0-1.2,1-2.1,2.1-2.1c0.9,0,1.6,0.5,2,1.3L340.6,81.6z"/>
		<path class="st4" d="M351,75.2c-0.3-0.1-0.6-0.3-0.9-0.3c-1,0-1,1.2-1,1.9v3.1h1.9v1.3h-1.9v5.9h-1.4v-5.9H347v-1.3h0.6v-3.5
			c0-1.6,0.5-2.8,2.3-2.8c0.3,0,0.7,0.1,1,0.2V75.2z"/>
		<path class="st4" d="M358.3,83.5c0,2.2-1.7,3.8-3.8,3.8s-3.8-1.7-3.8-3.8c0-2.2,1.7-3.8,3.8-3.8S358.3,81.4,358.3,83.5z M352,83.5
			c0,1.4,1.1,2.5,2.5,2.5s2.5-1.2,2.5-2.5c0-1.4-1.1-2.5-2.5-2.5S352,82.2,352,83.5z"/>
		<path class="st4" d="M360.8,81.1L360.8,81.1c0.4-0.8,1.1-1.4,2-1.4c0.4,0,0.8,0.1,1.1,0.4l-0.6,1.3c-0.2-0.2-0.5-0.3-0.8-0.3
			c-1.5,0-1.7,1.4-1.7,2.5v3.5h-1.4v-7.2h1.4V81.1z"/>
		<path class="st4" d="M368.7,75.5h6.2v1.3h-4.8v3.2h4.6v1.3h-4.6v4.4h4.8v1.3h-6.2V75.5z"/>
		<path class="st4" d="M377.6,80.9L377.6,80.9c0.5-0.8,1.3-1.2,2.2-1.2c2,0,2.5,1.4,2.5,3.1v4.3h-1.4V83c0-1.2-0.2-2.1-1.6-2.1
			c-1.8,0-1.8,1.6-1.8,2.9v3.3h-1.4v-7.2h1.4V80.9z"/>
		<path class="st4" d="M389.2,82c-0.6-0.6-1.2-1-2.1-1c-1.4,0-2.4,1.2-2.4,2.5c0,1.5,1,2.5,2.5,2.5c0.8,0,1.4-0.4,2-1v1.8
			c-0.6,0.3-1.3,0.5-2,0.5c-2.1,0-3.9-1.6-3.9-3.8c0-2.2,1.7-3.9,3.9-3.9c0.6,0,1.4,0.2,1.9,0.5V82z"/>
		<path class="st4" d="M397.4,83.5c0,2.2-1.7,3.8-3.8,3.8s-3.8-1.7-3.8-3.8c0-2.2,1.7-3.8,3.8-3.8S397.4,81.4,397.4,83.5z
			 M391.1,83.5c0,1.4,1.1,2.5,2.5,2.5s2.5-1.2,2.5-2.5c0-1.4-1.1-2.5-2.5-2.5S391.1,82.2,391.1,83.5z"/>
		<path class="st4" d="M399.8,81.1L399.8,81.1c0.4-0.8,1.1-1.4,2-1.4c0.4,0,0.8,0.1,1.1,0.4l-0.6,1.3c-0.2-0.2-0.5-0.3-0.8-0.3
			c-1.5,0-1.7,1.4-1.7,2.5v3.5h-1.4v-7.2h1.4V81.1z"/>
		<path class="st4" d="M404.3,83.8c0,1.2,0.8,2.4,2.2,2.4c1.1,0,1.6-0.5,2.1-1.4l1.2,0.7c-0.7,1.2-1.9,2-3.3,2
			c-2.2,0-3.5-1.7-3.5-3.8c0-2.2,1.2-3.9,3.5-3.9c2.3,0,3.4,1.7,3.4,3.8v0.2H404.3z M408.4,82.7c-0.2-1.1-0.9-1.8-2-1.8
			c-1.1,0-1.9,0.8-2,1.8H408.4z"/>
		<path class="st4" d="M414.8,75.5h1.4c2.2,0,4.2,0.6,4.2,3.2c0,0.8-0.5,1.8-1.2,2.2v0c1.4,0.2,2.3,1.6,2.3,2.9c0,2.3-2,3.2-4,3.2
			h-2.7V75.5z M416.2,80.7h0.4c1.4,0,2.5-0.3,2.5-1.9c0-1.6-1.1-1.9-2.5-1.9h-0.4V80.7z M416.2,85.8h1.1c1.3,0,2.7-0.4,2.7-2
			c0-1.6-1.7-2-2.9-2h-0.9V85.8z"/>
		<path class="st4" d="M423.5,83.8c0,1.2,0.8,2.4,2.2,2.4c1.1,0,1.6-0.5,2.1-1.4l1.2,0.7c-0.7,1.2-1.9,2-3.3,2
			c-2.2,0-3.5-1.7-3.5-3.8c0-2.2,1.2-3.9,3.5-3.9c2.3,0,3.4,1.7,3.4,3.8v0.2H423.5z M427.6,82.7c-0.2-1.1-0.9-1.8-2-1.8
			c-1.1,0-1.9,0.8-2,1.8H427.6z"/>
		<path class="st4" d="M436.6,87.1h-1.4V86h0c-0.6,0.8-1.4,1.4-2.4,1.4c-2.2,0-3.4-1.8-3.4-3.9c0-2,1.3-3.8,3.4-3.8
			c1.1,0,1.9,0.6,2.5,1.4h0v-1.2h1.4V87.1z M435.3,83.5c0-1.4-0.8-2.6-2.3-2.6c-1.4,0-2.3,1.2-2.3,2.6c0,1.4,0.8,2.6,2.3,2.6
			C434.4,86.1,435.3,84.9,435.3,83.5z"/>
		<path class="st4" d="M443.3,82c-0.6-0.6-1.2-1-2.1-1c-1.4,0-2.4,1.2-2.4,2.5c0,1.5,1,2.5,2.5,2.5c0.8,0,1.4-0.4,2-1v1.8
			c-0.6,0.3-1.3,0.5-2,0.5c-2.1,0-3.9-1.6-3.9-3.8c0-2.2,1.7-3.9,3.9-3.9c0.6,0,1.4,0.2,1.9,0.5V82z"/>
		<path class="st4" d="M445.9,73.8v7.1h0c0.4-0.8,1.3-1.2,2.2-1.2c2,0,2.5,1.4,2.5,3.1v4.3h-1.4V83c0-1.2-0.2-2.1-1.6-2.1
			c-1.8,0-1.8,1.6-1.8,2.9v3.3h-1.4V73.8H445.9z"/>
		<path class="st4" d="M464.9,77.8c-0.8-0.7-2-1.1-3.1-1.1c-2.6,0-4.6,2.2-4.6,4.7c0,2.5,2,4.7,4.5,4.7c1.1,0,2.2-0.4,3.1-1.2v1.7
			c-0.9,0.5-2,0.8-3,0.8c-3.3,0-6-2.6-6-6c0-3.4,2.7-6.1,6.2-6.1c1,0,2,0.2,2.9,0.8V77.8z"/>
		<path class="st4" d="M467.6,87.1h-1.4V73.8h1.4V87.1z"/>
		<path class="st4" d="M470.6,79.9v4c0,1.2,0.3,2.2,1.7,2.2s1.7-1,1.7-2.2v-4h1.4v4.1c0,2-0.9,3.3-3,3.3s-3-1.3-3-3.3v-4.1H470.6z"
			/>
		<path class="st4" d="M476.7,73.8h1.4v7.3h0c0.6-0.9,1.4-1.4,2.5-1.4c2.1,0,3.4,1.8,3.4,3.8c0,2.1-1.2,3.9-3.4,3.9
			c-1,0-1.9-0.6-2.4-1.4h0v1.1h-1.4V73.8z M482.6,83.5c0-1.4-0.8-2.6-2.3-2.6c-1.4,0-2.3,1.2-2.3,2.6c0,1.4,0.8,2.6,2.3,2.6
			C481.8,86.1,482.6,84.9,482.6,83.5z"/>
		<path class="st4" d="M7.7,111.7H6.3v-1.1h0c-0.6,0.8-1.4,1.4-2.4,1.4c-2.2,0-3.4-1.8-3.4-3.9c0-2,1.3-3.8,3.4-3.8
			c1.1,0,1.9,0.6,2.5,1.4h0v-1.2h1.4V111.7z M6.4,108.1c0-1.4-0.8-2.6-2.3-2.6c-1.4,0-2.3,1.2-2.3,2.6c0,1.4,0.8,2.6,2.3,2.6
			C5.6,110.7,6.4,109.5,6.4,108.1z"/>
		<path class="st4" d="M10.6,105.5L10.6,105.5c0.5-0.8,1.3-1.2,2.2-1.2c2,0,2.5,1.4,2.5,3.1v4.3h-1.4v-4.1c0-1.2-0.2-2.1-1.6-2.1
			c-1.8,0-1.8,1.6-1.8,2.9v3.3H9.2v-7.2h1.4V105.5z"/>
		<path class="st4" d="M22.3,110.6L22.3,110.6c-0.6,0.8-1.5,1.4-2.5,1.4c-2.2,0-3.4-1.8-3.4-3.9c0-2,1.3-3.8,3.4-3.8
			c1.1,0,1.9,0.6,2.5,1.4h0v-7.3h1.4v13.3h-1.4V110.6z M22.3,108.1c0-1.4-0.8-2.6-2.3-2.6c-1.4,0-2.3,1.2-2.3,2.6
			c0,1.4,0.8,2.6,2.3,2.6C21.5,110.7,22.3,109.5,22.3,108.1z"/>
		<path class="st4" d="M34.5,102.3c-0.4-0.7-1-1.1-1.9-1.1c-0.9,0-1.9,0.6-1.9,1.6c0,0.9,0.9,1.4,1.6,1.7l0.8,0.3
			c1.6,0.6,2.9,1.5,2.9,3.5c0,2.1-1.6,3.6-3.7,3.6c-1.9,0-3.3-1.4-3.6-3.2l1.5-0.3c0,1.3,1,2.2,2.2,2.2c1.2,0,2.1-1,2.1-2.3
			c0-1.2-1-1.8-2-2.2l-0.8-0.3c-1.3-0.6-2.5-1.3-2.5-2.9c0-1.9,1.7-3,3.4-3c1.3,0,2.3,0.6,3,1.8L34.5,102.3z"/>
		<path class="st4" d="M38.5,104.5v4c0,1.2,0.3,2.2,1.7,2.2s1.7-1,1.7-2.2v-4h1.4v4.1c0,2-0.9,3.3-3,3.3s-3-1.3-3-3.3v-4.1H38.5z"/>
		<path class="st4" d="M46.2,105.7L46.2,105.7c0.4-0.8,1.1-1.4,2-1.4c0.4,0,0.8,0.1,1.1,0.4l-0.6,1.3c-0.2-0.2-0.5-0.3-0.8-0.3
			c-1.5,0-1.7,1.4-1.7,2.5v3.5h-1.4v-7.2h1.4V105.7z"/>
		<path class="st4" d="M51.3,105.7L51.3,105.7c0.4-0.8,1.1-1.4,2-1.4c0.4,0,0.8,0.1,1.1,0.4l-0.6,1.3c-0.2-0.2-0.5-0.3-0.8-0.3
			c-1.5,0-1.7,1.4-1.7,2.5v3.5h-1.4v-7.2h1.4V105.7z"/>
		<path class="st4" d="M55.7,108.3c0,1.2,0.8,2.4,2.2,2.4c1.1,0,1.6-0.5,2.1-1.4l1.2,0.7c-0.7,1.2-1.9,2-3.3,2
			c-2.2,0-3.5-1.7-3.5-3.8c0-2.2,1.2-3.9,3.5-3.9c2.3,0,3.4,1.7,3.4,3.8v0.2H55.7z M59.8,107.3c-0.2-1.1-0.9-1.8-2-1.8
			c-1.1,0-1.9,0.8-2,1.8H59.8z"/>
		<path class="st4" d="M63.5,105.5L63.5,105.5c0.5-0.8,1.3-1.2,2.2-1.2c2,0,2.5,1.4,2.5,3.1v4.3h-1.4v-4.1c0-1.2-0.2-2.1-1.6-2.1
			c-1.8,0-1.8,1.6-1.8,2.9v3.3h-1.4v-7.2h1.4V105.5z"/>
		<path class="st4" d="M75.2,110.6L75.2,110.6c-0.6,0.8-1.5,1.4-2.5,1.4c-2.2,0-3.4-1.8-3.4-3.9c0-2,1.3-3.8,3.4-3.8
			c1.1,0,1.9,0.6,2.5,1.4h0v-7.3h1.4v13.3h-1.4V110.6z M75.2,108.1c0-1.4-0.8-2.6-2.3-2.6c-1.4,0-2.3,1.2-2.3,2.6
			c0,1.4,0.8,2.6,2.3,2.6C74.4,110.7,75.2,109.5,75.2,108.1z"/>
		<path class="st4" d="M78.8,108.3c0,1.2,0.8,2.4,2.2,2.4c1.1,0,1.6-0.5,2.1-1.4l1.2,0.7c-0.7,1.2-1.9,2-3.3,2
			c-2.2,0-3.5-1.7-3.5-3.8c0-2.2,1.2-3.9,3.5-3.9c2.3,0,3.4,1.7,3.4,3.8v0.2H78.8z M82.9,107.3c-0.2-1.1-0.9-1.8-2-1.8
			c-1.1,0-1.9,0.8-2,1.8H82.9z"/>
		<path class="st4" d="M86.7,105.7L86.7,105.7c0.4-0.8,1.1-1.4,2-1.4c0.4,0,0.8,0.1,1.1,0.4l-0.6,1.3c-0.2-0.2-0.5-0.3-0.8-0.3
			c-1.5,0-1.7,1.4-1.7,2.5v3.5h-1.4v-7.2h1.4V105.7z"/>
		<path class="st4" d="M94.4,99.5l8.7,9.1v-8.6h1.4v12.1l-8.7-9.1v8.6h-1.4V99.5z"/>
		<path class="st4" d="M108.1,101.2c0,0.5-0.4,0.9-1,0.9c-0.5,0-1-0.4-1-0.9c0-0.5,0.4-1,1-1C107.7,100.2,108.1,100.7,108.1,101.2z
			 M107.8,111.7h-1.4v-7.2h1.4V111.7z"/>
		<path class="st4" d="M116.5,111.5c0,2.5-0.7,4.3-3.5,4.3c-2,0-3.4-1.2-3.5-3.3h1.4c0,1.3,0.9,2,2.1,2c1.7,0,2.1-1.2,2.1-2.6v-1.4
			h0c-0.6,0.8-1.4,1.4-2.4,1.4c-2.2,0-3.4-1.8-3.4-3.9c0-2,1.3-3.8,3.4-3.8c1.1,0,1.9,0.6,2.5,1.4h0v-1.2h1.4V111.5z M115.2,108.1
			c0-1.4-0.8-2.6-2.3-2.6c-1.4,0-2.3,1.2-2.3,2.6c0,1.4,0.8,2.6,2.3,2.6C114.3,110.7,115.2,109.5,115.2,108.1z"/>
		<path class="st4" d="M119.3,98.3v7.1h0c0.4-0.8,1.3-1.2,2.2-1.2c2,0,2.5,1.4,2.5,3.1v4.3h-1.4v-4.1c0-1.2-0.2-2.1-1.6-2.1
			c-1.8,0-1.8,1.6-1.8,2.9v3.3H118V98.3H119.3z"/>
		<path class="st4" d="M127.3,111.7h-1.4v-5.9h-0.8v-1.3h0.8v-2.7h1.4v2.7h1.4v1.3h-1.4V111.7z"/>
		<path class="st4" d="M141.8,102.3c-0.8-0.7-2-1.1-3.1-1.1c-2.6,0-4.6,2.2-4.6,4.7c0,2.5,2,4.7,4.5,4.7c1.1,0,2.2-0.4,3.1-1.2v1.7
			c-0.9,0.5-2,0.8-3,0.8c-3.3,0-6-2.6-6-6c0-3.4,2.7-6.1,6.2-6.1c1,0,2,0.2,2.9,0.8V102.3z"/>
		<path class="st4" d="M144.5,111.7h-1.4V98.3h1.4V111.7z"/>
		<path class="st4" d="M147.4,104.5v4c0,1.2,0.3,2.2,1.7,2.2s1.7-1,1.7-2.2v-4h1.4v4.1c0,2-0.9,3.3-3,3.3s-3-1.3-3-3.3v-4.1H147.4z"
			/>
		<path class="st4" d="M153.6,98.3h1.4v7.3h0c0.6-0.9,1.4-1.4,2.5-1.4c2.1,0,3.4,1.8,3.4,3.8c0,2.1-1.2,3.9-3.4,3.9
			c-1,0-1.9-0.6-2.4-1.4h0v1.1h-1.4V98.3z M159.5,108.1c0-1.4-0.8-2.6-2.3-2.6c-1.4,0-2.3,1.2-2.3,2.6c0,1.4,0.8,2.6,2.3,2.6
			C158.6,110.7,159.5,109.5,159.5,108.1z"/>
		<path class="st4" d="M172.8,111.7h-1.4v-1.1h0c-0.6,0.8-1.4,1.4-2.4,1.4c-2.2,0-3.4-1.8-3.4-3.9c0-2,1.3-3.8,3.4-3.8
			c1.1,0,1.9,0.6,2.5,1.4h0v-1.2h1.4V111.7z M171.4,108.1c0-1.4-0.8-2.6-2.3-2.6c-1.4,0-2.3,1.2-2.3,2.6c0,1.4,0.8,2.6,2.3,2.6
			C170.6,110.7,171.4,109.5,171.4,108.1z"/>
		<path class="st4" d="M175.6,105.5L175.6,105.5c0.5-0.8,1.3-1.2,2.2-1.2c2,0,2.5,1.4,2.5,3.1v4.3H179v-4.1c0-1.2-0.2-2.1-1.6-2.1
			c-1.8,0-1.8,1.6-1.8,2.9v3.3h-1.4v-7.2h1.4V105.5z"/>
		<path class="st4" d="M187.3,110.6L187.3,110.6c-0.6,0.8-1.5,1.4-2.5,1.4c-2.2,0-3.4-1.8-3.4-3.9c0-2,1.3-3.8,3.4-3.8
			c1.1,0,1.9,0.6,2.5,1.4h0v-7.3h1.4v13.3h-1.4V110.6z M187.4,108.1c0-1.4-0.8-2.6-2.3-2.6c-1.4,0-2.3,1.2-2.3,2.6
			c0,1.4,0.8,2.6,2.3,2.6C186.6,110.7,187.4,109.5,187.4,108.1z"/>
		<path class="st4" d="M195.9,111.7h-1.4v-5.9h-0.8v-1.3h0.8v-2.7h1.4v2.7h1.4v1.3h-1.4V111.7z"/>
		<path class="st4" d="M199.1,98.3v7.1h0c0.4-0.8,1.3-1.2,2.2-1.2c2,0,2.5,1.4,2.5,3.1v4.3h-1.4v-4.1c0-1.2-0.2-2.1-1.6-2.1
			c-1.8,0-1.8,1.6-1.8,2.9v3.3h-1.4V98.3H199.1z"/>
		<path class="st4" d="M206.2,108.3c0,1.2,0.8,2.4,2.2,2.4c1.1,0,1.6-0.5,2.1-1.4l1.2,0.7c-0.7,1.2-1.9,2-3.3,2
			c-2.2,0-3.5-1.7-3.5-3.8c0-2.2,1.2-3.9,3.5-3.9c2.3,0,3.4,1.7,3.4,3.8v0.2H206.2z M210.3,107.3c-0.2-1.1-0.9-1.8-2-1.8
			c-1.1,0-1.9,0.8-2,1.8H210.3z"/>
		<path class="st4" d="M214.5,101.2c0,0.5-0.4,0.9-1,0.9c-0.5,0-1-0.4-1-0.9c0-0.5,0.4-1,1-1C214.1,100.2,214.5,100.7,214.5,101.2z
			 M214.3,111.7h-1.4v-7.2h1.4V111.7z"/>
		<path class="st4" d="M217.7,105.7L217.7,105.7c0.4-0.8,1.1-1.4,2-1.4c0.4,0,0.8,0.1,1.1,0.4l-0.6,1.3c-0.2-0.2-0.5-0.3-0.8-0.3
			c-1.5,0-1.7,1.4-1.7,2.5v3.5h-1.4v-7.2h1.4V105.7z"/>
		<path class="st4" d="M226.8,111.7h-1.4V98.3h1.4V111.7z"/>
		<path class="st4" d="M230.4,101.2c0,0.5-0.4,0.9-1,0.9c-0.5,0-1-0.4-1-0.9c0-0.5,0.4-1,1-1C230,100.2,230.4,100.7,230.4,101.2z
			 M230.2,111.7h-1.4v-7.2h1.4V111.7z"/>
		<path class="st4" d="M233.5,105.5L233.5,105.5c0.5-0.8,1.3-1.2,2.2-1.2c2,0,2.5,1.4,2.5,3.1v4.3h-1.4v-4.1c0-1.2-0.2-2.1-1.6-2.1
			c-1.8,0-1.8,1.6-1.8,2.9v3.3h-1.4v-7.2h1.4V105.5z"/>
		<path class="st4" d="M240.6,108.3c0,1.2,0.8,2.4,2.2,2.4c1.1,0,1.6-0.5,2.1-1.4l1.2,0.7c-0.7,1.2-1.9,2-3.3,2
			c-2.2,0-3.5-1.7-3.5-3.8c0-2.2,1.2-3.9,3.5-3.9c2.3,0,3.4,1.7,3.4,3.8v0.2H240.6z M244.7,107.3c-0.2-1.1-0.9-1.8-2-1.8
			c-1.1,0-1.9,0.8-2,1.8H244.7z"/>
		<path class="st4" d="M250.3,106.2v1.2h-3.4v-1.2H250.3z"/>
		<path class="st4" d="M253.1,104.5v4c0,1.2,0.3,2.2,1.7,2.2s1.7-1,1.7-2.2v-4h1.4v4.1c0,2-0.9,3.3-3,3.3s-3-1.3-3-3.3v-4.1H253.1z"
			/>
		<path class="st4" d="M260.6,105.7L260.6,105.7c0.6-0.9,1.5-1.4,2.5-1.4c2.1,0,3.4,1.8,3.4,3.8c0,2.1-1.2,3.9-3.4,3.9
			c-1,0-1.9-0.6-2.4-1.4h0v5.2h-1.4v-11.3h1.4V105.7z M265.1,108.1c0-1.4-0.8-2.6-2.3-2.6c-1.4,0-2.3,1.2-2.3,2.6
			c0,1.4,0.8,2.6,2.3,2.6C264.3,110.7,265.1,109.5,265.1,108.1z"/>
		<path class="st4" d="M278.7,108.1c0,2.2-1.7,3.8-3.8,3.8s-3.8-1.7-3.8-3.8c0-2.2,1.7-3.8,3.8-3.8S278.7,105.9,278.7,108.1z
			 M272.4,108.1c0,1.4,1.1,2.5,2.5,2.5s2.5-1.2,2.5-2.5c0-1.4-1.1-2.5-2.5-2.5S272.4,106.7,272.4,108.1z"/>
		<path class="st4" d="M283.2,99.7c-0.3-0.1-0.6-0.3-0.9-0.3c-1,0-1,1.2-1,1.9v3.1h1.9v1.3h-1.9v5.9h-1.4v-5.9h-0.6v-1.3h0.6V101
			c0-1.6,0.5-2.8,2.3-2.8c0.3,0,0.7,0.1,1,0.2V99.7z"/>
		<path class="st4" d="M287.7,100.1h2.4c3.5,0,6.5,1.9,6.5,5.7c0,3.9-2.9,5.8-6.5,5.8h-2.3V100.1z M289.2,110.4h0.5
			c2.9,0,5.5-1.1,5.5-4.5c0-3.4-2.5-4.5-5.5-4.5h-0.5V110.4z"/>
		<path class="st4" d="M301.3,100.1v7.4c0,2.2-0.4,4.5-3.1,4.5c-0.7,0-1.2-0.2-1.8-0.5l0.7-1.2c0.3,0.2,0.7,0.4,1.2,0.4
			c1.7,0,1.6-1.9,1.6-3.1v-7.4H301.3z"/>
		<path class="st4" d="M305.7,106.1c-0.2-0.4-0.5-0.6-0.9-0.6c-0.4,0-0.8,0.3-0.8,0.7c0,0.6,0.8,0.9,1.7,1.3c0.8,0.4,1.7,0.9,1.7,2
			c0,1.4-1.1,2.4-2.5,2.4c-1,0-2.1-0.6-2.5-1.6l1.2-0.5c0.3,0.5,0.6,0.9,1.3,0.9c0.6,0,1.1-0.4,1.1-1c0-0.4-0.2-0.6-0.5-0.8
			l-1.4-0.7c-0.8-0.4-1.4-0.8-1.4-1.8c0-1.2,1-2.1,2.1-2.1c0.9,0,1.6,0.5,2,1.3L305.7,106.1z"/>
		<path class="st4" d="M310.6,111c0,0.5-0.4,0.9-0.9,0.9s-0.9-0.4-0.9-0.9c0-0.5,0.4-0.9,0.9-0.9S310.6,110.6,310.6,111z"/>
		<path class="st4" d="M318.5,108.8l-1.3,2.9h-1.6l5.5-12.1l5.5,12.1h-1.6l-1.3-2.9H318.5z M321.1,102.8l-2.1,4.7h4.1L321.1,102.8z"
			/>
		<path class="st4" d="M330,106.1c-0.2-0.4-0.5-0.6-0.9-0.6c-0.4,0-0.8,0.3-0.8,0.7c0,0.6,0.8,0.9,1.7,1.3c0.8,0.4,1.7,0.9,1.7,2
			c0,1.4-1.1,2.4-2.5,2.4c-1,0-2.1-0.6-2.5-1.6l1.2-0.5c0.3,0.5,0.6,0.9,1.3,0.9c0.6,0,1.1-0.4,1.1-1c0-0.4-0.2-0.6-0.5-0.8
			l-1.4-0.7c-0.8-0.4-1.4-0.8-1.4-1.8c0-1.2,1-2.1,2.1-2.1c0.9,0,1.6,0.5,2,1.3L330,106.1z"/>
		<path class="st4" d="M338.5,111.7h-1.4v-5.9h-0.8v-1.3h0.8v-2.7h1.4v2.7h1.4v1.3h-1.4V111.7z"/>
		<path class="st4" d="M341.6,98.3v7.1h0c0.4-0.8,1.3-1.2,2.2-1.2c2,0,2.5,1.4,2.5,3.1v4.3H345v-4.1c0-1.2-0.2-2.1-1.6-2.1
			c-1.8,0-1.8,1.6-1.8,2.9v3.3h-1.4V98.3H341.6z"/>
		<path class="st4" d="M348.8,108.3c0,1.2,0.8,2.4,2.2,2.4c1.1,0,1.6-0.5,2.1-1.4l1.2,0.7c-0.7,1.2-1.9,2-3.3,2
			c-2.2,0-3.5-1.7-3.5-3.8c0-2.2,1.2-3.9,3.5-3.9c2.3,0,3.4,1.7,3.4,3.8v0.2H348.8z M352.9,107.3c-0.2-1.1-0.9-1.8-2-1.8
			c-1.1,0-1.9,0.8-2,1.8H352.9z"/>
		<path class="st4" d="M361.2,101.2c0,0.5-0.4,0.9-1,0.9c-0.5,0-1-0.4-1-0.9c0-0.5,0.4-1,1-1C360.8,100.2,361.2,100.7,361.2,101.2z
			 M361,111.7h-1.4v-7.2h1.4V111.7z"/>
		<path class="st4" d="M364.3,105.5L364.3,105.5c0.5-0.8,1.3-1.2,2.2-1.2c2,0,2.5,1.4,2.5,3.1v4.3h-1.4v-4.1c0-1.2-0.2-2.1-1.6-2.1
			c-1.8,0-1.8,1.6-1.8,2.9v3.3h-1.4v-7.2h1.4V105.5z"/>
		<path class="st4" d="M372.2,111.7h-1.4v-5.9H370v-1.3h0.8v-2.7h1.4v2.7h1.4v1.3h-1.4V111.7z"/>
		<path class="st4" d="M374.8,108.3c0,1.2,0.8,2.4,2.2,2.4c1.1,0,1.6-0.5,2.1-1.4l1.2,0.7c-0.7,1.2-1.9,2-3.3,2
			c-2.2,0-3.5-1.7-3.5-3.8c0-2.2,1.2-3.9,3.5-3.9c2.3,0,3.4,1.7,3.4,3.8v0.2H374.8z M378.9,107.3c-0.2-1.1-0.9-1.8-2-1.8
			c-1.1,0-1.9,0.8-2,1.8H378.9z"/>
		<path class="st4" d="M382.6,105.7L382.6,105.7c0.4-0.8,1.1-1.4,2-1.4c0.4,0,0.8,0.1,1.1,0.4l-0.6,1.3c-0.2-0.2-0.5-0.3-0.8-0.3
			c-1.5,0-1.7,1.4-1.7,2.5v3.5h-1.4v-7.2h1.4V105.7z"/>
		<path class="st4" d="M387.7,105.5L387.7,105.5c0.5-0.8,1.3-1.2,2.2-1.2c2,0,2.5,1.4,2.5,3.1v4.3h-1.4v-4.1c0-1.2-0.2-2.1-1.6-2.1
			c-1.8,0-1.8,1.6-1.8,2.9v3.3h-1.4v-7.2h1.4V105.5z"/>
		<path class="st4" d="M397,106.1c-0.2-0.4-0.5-0.6-0.9-0.6c-0.4,0-0.8,0.3-0.8,0.7c0,0.6,0.8,0.9,1.7,1.3c0.8,0.4,1.7,0.9,1.7,2
			c0,1.4-1.1,2.4-2.5,2.4c-1,0-2.1-0.6-2.5-1.6l1.2-0.5c0.3,0.5,0.6,0.9,1.3,0.9c0.6,0,1.1-0.4,1.1-1c0-0.4-0.2-0.6-0.5-0.8
			l-1.4-0.7c-0.8-0.4-1.4-0.8-1.4-1.8c0-1.2,1-2.1,2.1-2.1c0.9,0,1.6,0.5,2,1.3L397,106.1z"/>
		<path class="st4" d="M401,98.3v7.1h0c0.4-0.8,1.3-1.2,2.2-1.2c2,0,2.5,1.4,2.5,3.1v4.3h-1.4v-4.1c0-1.2-0.2-2.1-1.6-2.1
			c-1.8,0-1.8,1.6-1.8,2.9v3.3h-1.4V98.3H401z"/>
		<path class="st4" d="M409.3,101.2c0,0.5-0.4,0.9-1,0.9c-0.5,0-1-0.4-1-0.9c0-0.5,0.4-1,1-1C408.9,100.2,409.3,100.7,409.3,101.2z
			 M409.1,111.7h-1.4v-7.2h1.4V111.7z"/>
		<path class="st4" d="M412.2,105.7L412.2,105.7c0.6-0.9,1.5-1.4,2.5-1.4c2.1,0,3.4,1.8,3.4,3.8c0,2.1-1.2,3.9-3.4,3.9
			c-1,0-1.9-0.6-2.4-1.4h0v5.2h-1.4v-11.3h1.4V105.7z M416.8,108.1c0-1.4-0.8-2.6-2.3-2.6c-1.4,0-2.3,1.2-2.3,2.6
			c0,1.4,0.8,2.6,2.3,2.6C415.9,110.7,416.8,109.5,416.8,108.1z"/>
		<path class="st4" d="M2.2,130.2L2.2,130.2c0.6-0.9,1.5-1.4,2.5-1.4c2.1,0,3.4,1.8,3.4,3.8c0,2.1-1.2,3.9-3.4,3.9
			c-1,0-1.9-0.6-2.4-1.4h0v5.2H0.8V129h1.4V130.2z M6.8,132.6c0-1.4-0.8-2.6-2.3-2.6c-1.4,0-2.3,1.2-2.3,2.6c0,1.4,0.8,2.6,2.3,2.6
			C5.9,135.2,6.8,134,6.8,132.6z"/>
		<path class="st4" d="M10.7,130.2L10.7,130.2c0.4-0.8,1.1-1.4,2-1.4c0.4,0,0.8,0.1,1.1,0.4l-0.6,1.3c-0.2-0.2-0.5-0.3-0.8-0.3
			c-1.5,0-1.7,1.4-1.7,2.5v3.5H9.3V129h1.4V130.2z"/>
		<path class="st4" d="M21.3,132.7c0,2.2-1.7,3.8-3.8,3.8s-3.8-1.7-3.8-3.8c0-2.2,1.7-3.8,3.8-3.8S21.3,130.5,21.3,132.7z M15,132.7
			c0,1.4,1.1,2.5,2.5,2.5s2.5-1.2,2.5-2.5c0-1.4-1.1-2.5-2.5-2.5S15,131.3,15,132.7z"/>
		<path class="st4" d="M29,136.1c0,2.5-0.7,4.3-3.5,4.3c-2,0-3.4-1.2-3.5-3.3h1.4c0,1.3,0.9,2,2.1,2c1.7,0,2.1-1.2,2.1-2.6v-1.4h0
			c-0.6,0.8-1.4,1.4-2.4,1.4c-2.2,0-3.4-1.8-3.4-3.9c0-2,1.3-3.8,3.4-3.8c1.1,0,1.9,0.6,2.5,1.4h0V129H29V136.1z M27.7,132.6
			c0-1.4-0.8-2.6-2.3-2.6c-1.4,0-2.3,1.2-2.3,2.6c0,1.4,0.8,2.6,2.3,2.6C26.8,135.2,27.7,134,27.7,132.6z"/>
		<path class="st4" d="M31.9,130.2L31.9,130.2c0.4-0.8,1.1-1.4,2-1.4c0.4,0,0.8,0.1,1.1,0.4l-0.6,1.3c-0.2-0.2-0.5-0.3-0.8-0.3
			c-1.5,0-1.7,1.4-1.7,2.5v3.5h-1.4V129h1.4V130.2z"/>
		<path class="st4" d="M36.4,132.9c0,1.2,0.8,2.4,2.2,2.4c1.1,0,1.6-0.5,2.1-1.4l1.2,0.7c-0.7,1.2-1.9,2-3.3,2
			c-2.2,0-3.5-1.7-3.5-3.8c0-2.2,1.2-3.9,3.5-3.9c2.3,0,3.4,1.7,3.4,3.8v0.2H36.4z M40.5,131.8c-0.2-1.1-0.9-1.8-2-1.8
			c-1.1,0-1.9,0.8-2,1.8H40.5z"/>
		<path class="st4" d="M45.6,130.7c-0.2-0.4-0.5-0.6-0.9-0.6c-0.4,0-0.8,0.3-0.8,0.7c0,0.6,0.8,0.9,1.7,1.3s1.7,0.9,1.7,2
			c0,1.4-1.1,2.4-2.5,2.4c-1,0-2.1-0.6-2.5-1.6l1.2-0.5c0.3,0.5,0.6,0.9,1.3,0.9c0.6,0,1.1-0.4,1.1-1c0-0.4-0.2-0.6-0.5-0.8
			l-1.4-0.7c-0.8-0.4-1.4-0.8-1.4-1.8c0-1.2,1-2.1,2.1-2.1c0.9,0,1.6,0.5,2,1.3L45.6,130.7z"/>
		<path class="st4" d="M51.2,130.7c-0.2-0.4-0.5-0.6-0.9-0.6c-0.4,0-0.8,0.3-0.8,0.7c0,0.6,0.8,0.9,1.7,1.3s1.7,0.9,1.7,2
			c0,1.4-1.1,2.4-2.5,2.4c-1,0-2.1-0.6-2.5-1.6l1.2-0.5c0.3,0.5,0.6,0.9,1.3,0.9c0.6,0,1.1-0.4,1.1-1c0-0.4-0.2-0.6-0.5-0.8
			l-1.4-0.7c-0.8-0.4-1.4-0.8-1.4-1.8c0-1.2,1-2.1,2.1-2.1c0.9,0,1.6,0.5,2,1.3L51.2,130.7z"/>
		<path class="st4" d="M54.7,132.9c0,1.2,0.8,2.4,2.2,2.4c1.1,0,1.6-0.5,2.1-1.4l1.2,0.7c-0.7,1.2-1.9,2-3.3,2
			c-2.2,0-3.5-1.7-3.5-3.8c0-2.2,1.2-3.9,3.5-3.9c2.3,0,3.4,1.7,3.4,3.8v0.2H54.7z M58.8,131.8c-0.2-1.1-0.9-1.8-2-1.8
			c-1.1,0-1.9,0.8-2,1.8H58.8z"/>
		<path class="st4" d="M66.4,135.1L66.4,135.1c-0.6,0.8-1.5,1.4-2.5,1.4c-2.2,0-3.4-1.8-3.4-3.9c0-2,1.3-3.8,3.4-3.8
			c1.1,0,1.9,0.6,2.5,1.4h0v-7.3h1.4v13.3h-1.4V135.1z M66.5,132.6c0-1.4-0.8-2.6-2.3-2.6c-1.4,0-2.3,1.2-2.3,2.6
			c0,1.4,0.8,2.6,2.3,2.6C65.7,135.2,66.5,134,66.5,132.6z"/>
		<path class="st4" d="M72.1,134.9l-2,4.1l-0.8-0.4l1.7-4.2L72.1,134.9z"/>
		<path class="st4" d="M79.1,136.2h-1.4v-11.6h1.4V136.2z"/>
		<path class="st4" d="M86.5,136.2h-1.4v-5.9h-0.8V129h0.8v-2.7h1.4v2.7h1.4v1.3h-1.4V136.2z"/>
		<path class="st4" d="M95.3,132.7c0,2.2-1.7,3.8-3.8,3.8s-3.8-1.7-3.8-3.8c0-2.2,1.7-3.8,3.8-3.8S95.3,130.5,95.3,132.7z M89,132.7
			c0,1.4,1.1,2.5,2.5,2.5s2.5-1.2,2.5-2.5c0-1.4-1.1-2.5-2.5-2.5S89,131.3,89,132.7z"/>
		<path class="st4" d="M103.3,132.7c0,2.2-1.7,3.8-3.8,3.8s-3.8-1.7-3.8-3.8c0-2.2,1.7-3.8,3.8-3.8S103.3,130.5,103.3,132.7z
			 M97,132.7c0,1.4,1.1,2.5,2.5,2.5s2.5-1.2,2.5-2.5c0-1.4-1.1-2.5-2.5-2.5S97,131.3,97,132.7z"/>
		<path class="st4" d="M105.7,131.7l2.7-2.7h1.8l-3.1,3l3.4,4.2h-1.8l-2.6-3.3l-0.5,0.5v2.8h-1.4v-13.3h1.4V131.7z"/>
		<path class="st4" d="M122.2,132.7c0,2.2-1.7,3.8-3.8,3.8s-3.8-1.7-3.8-3.8c0-2.2,1.7-3.8,3.8-3.8S122.2,130.5,122.2,132.7z
			 M115.9,132.7c0,1.4,1.1,2.5,2.5,2.5s2.5-1.2,2.5-2.5c0-1.4-1.1-2.5-2.5-2.5S115.9,131.3,115.9,132.7z"/>
		<path class="st4" d="M124.5,130L124.5,130c0.5-0.8,1.3-1.2,2.2-1.2c2,0,2.5,1.4,2.5,3.1v4.3h-1.4v-4.1c0-1.2-0.2-2.1-1.6-2.1
			c-1.8,0-1.8,1.6-1.8,2.9v3.3h-1.4V129h1.4V130z"/>
		<path class="st4" d="M136.3,130.2L136.3,130.2c0.6-0.9,1.5-1.4,2.5-1.4c2.1,0,3.4,1.8,3.4,3.8c0,2.1-1.2,3.9-3.4,3.9
			c-1,0-1.9-0.6-2.4-1.4h0v5.2h-1.4V129h1.4V130.2z M140.8,132.6c0-1.4-0.8-2.6-2.3-2.6c-1.4,0-2.3,1.2-2.3,2.6
			c0,1.4,0.8,2.6,2.3,2.6C140,135.2,140.8,134,140.8,132.6z"/>
		<path class="st4" d="M144.7,130.2L144.7,130.2c0.4-0.8,1.1-1.4,2-1.4c0.4,0,0.8,0.1,1.1,0.4l-0.6,1.3c-0.2-0.2-0.5-0.3-0.8-0.3
			c-1.5,0-1.7,1.4-1.7,2.5v3.5h-1.4V129h1.4V130.2z"/>
		<path class="st4" d="M150.3,125.8c0,0.5-0.4,0.9-1,0.9c-0.5,0-1-0.4-1-0.9c0-0.5,0.4-1,1-1C149.8,124.8,150.3,125.2,150.3,125.8z
			 M150,136.2h-1.4V129h1.4V136.2z"/>
		<path class="st4" d="M153.3,130L153.3,130c0.5-0.8,1.3-1.2,2.2-1.2c2,0,2.5,1.4,2.5,3.1v4.3h-1.4v-4.1c0-1.2-0.2-2.1-1.6-2.1
			c-1.8,0-1.8,1.6-1.8,2.9v3.3h-1.4V129h1.4V130z"/>
		<path class="st4" d="M161.2,136.2h-1.4v-5.9h-0.8V129h0.8v-2.7h1.4v2.7h1.4v1.3h-1.4V136.2z"/>
		<path class="st4" d="M164.9,125.8c0,0.5-0.4,0.9-1,0.9c-0.5,0-1-0.4-1-0.9c0-0.5,0.4-1,1-1C164.5,124.8,164.9,125.2,164.9,125.8z
			 M164.7,136.2h-1.4V129h1.4V136.2z"/>
		<path class="st4" d="M168,130L168,130c0.5-0.8,1.3-1.2,2.2-1.2c2,0,2.5,1.4,2.5,3.1v4.3h-1.4v-4.1c0-1.2-0.2-2.1-1.6-2.1
			c-1.8,0-1.8,1.6-1.8,2.9v3.3h-1.4V129h1.4V130z"/>
		<path class="st4" d="M181,136.1c0,2.5-0.7,4.3-3.5,4.3c-2,0-3.4-1.2-3.5-3.3h1.4c0,1.3,0.9,2,2.1,2c1.7,0,2.1-1.2,2.1-2.6v-1.4h0
			c-0.6,0.8-1.4,1.4-2.4,1.4c-2.2,0-3.4-1.8-3.4-3.9c0-2,1.3-3.8,3.4-3.8c1.1,0,1.9,0.6,2.5,1.4h0V129h1.4V136.1z M179.7,132.6
			c0-1.4-0.8-2.6-2.3-2.6c-1.4,0-2.3,1.2-2.3,2.6c0,1.4,0.8,2.6,2.3,2.6C178.9,135.2,179.7,134,179.7,132.6z"/>
		<path class="st4" d="M192,135.1L192,135.1c-0.6,0.8-1.5,1.4-2.5,1.4c-2.2,0-3.4-1.8-3.4-3.9c0-2,1.3-3.8,3.4-3.8
			c1.1,0,1.9,0.6,2.5,1.4h0v-7.3h1.4v13.3H192V135.1z M192.1,132.6c0-1.4-0.8-2.6-2.3-2.6c-1.4,0-2.3,1.2-2.3,2.6
			c0,1.4,0.8,2.6,2.3,2.6C191.2,135.2,192.1,134,192.1,132.6z"/>
		<path class="st4" d="M196.2,129v4c0,1.2,0.3,2.2,1.7,2.2s1.7-1,1.7-2.2v-4h1.4v4.1c0,2-0.9,3.3-3,3.3s-3-1.3-3-3.3V129H196.2z"/>
		<path class="st4" d="M204,136.2h-1.4v-5.9h-0.8V129h0.8v-2.7h1.4v2.7h1.4v1.3H204V136.2z"/>
		<path class="st4" d="M207.7,125.8c0,0.5-0.4,0.9-1,0.9c-0.5,0-1-0.4-1-0.9c0-0.5,0.4-1,1-1C207.3,124.8,207.7,125.2,207.7,125.8z
			 M207.5,136.2h-1.4V129h1.4V136.2z"/>
		<path class="st4" d="M210.2,132.9c0,1.2,0.8,2.4,2.2,2.4c1.1,0,1.6-0.5,2.1-1.4l1.2,0.7c-0.7,1.2-1.9,2-3.3,2
			c-2.2,0-3.5-1.7-3.5-3.8c0-2.2,1.2-3.9,3.5-3.9c2.3,0,3.4,1.7,3.4,3.8v0.2H210.2z M214.3,131.8c-0.2-1.1-0.9-1.8-2-1.8
			c-1.1,0-1.9,0.8-2,1.8H214.3z"/>
		<path class="st4" d="M219.4,130.7c-0.2-0.4-0.5-0.6-0.9-0.6c-0.4,0-0.8,0.3-0.8,0.7c0,0.6,0.8,0.9,1.7,1.3s1.7,0.9,1.7,2
			c0,1.4-1.1,2.4-2.5,2.4c-1,0-2.1-0.6-2.5-1.6l1.2-0.5c0.3,0.5,0.6,0.9,1.3,0.9c0.6,0,1.1-0.4,1.1-1c0-0.4-0.2-0.6-0.5-0.8
			l-1.4-0.7c-0.8-0.4-1.4-0.8-1.4-1.8c0-1.2,1-2.1,2.1-2.1c0.9,0,1.6,0.5,2,1.3L219.4,130.7z"/>
		<path class="st4" d="M233,136.2h-1.4v-1.1h0c-0.6,0.8-1.4,1.4-2.4,1.4c-2.2,0-3.4-1.8-3.4-3.9c0-2,1.3-3.8,3.4-3.8
			c1.1,0,1.9,0.6,2.5,1.4h0V129h1.4V136.2z M231.7,132.6c0-1.4-0.8-2.6-2.3-2.6c-1.4,0-2.3,1.2-2.3,2.6c0,1.4,0.8,2.6,2.3,2.6
			C230.9,135.2,231.7,134,231.7,132.6z"/>
		<path class="st4" d="M237.4,130.7c-0.2-0.4-0.5-0.6-0.9-0.6c-0.4,0-0.8,0.3-0.8,0.7c0,0.6,0.8,0.9,1.7,1.3s1.7,0.9,1.7,2
			c0,1.4-1.1,2.4-2.5,2.4c-1,0-2.1-0.6-2.5-1.6l1.2-0.5c0.3,0.5,0.6,0.9,1.3,0.9c0.6,0,1.1-0.4,1.1-1c0-0.4-0.2-0.6-0.5-0.8
			l-1.4-0.7c-0.8-0.4-1.4-0.8-1.4-1.8c0-1.2,1-2.1,2.1-2.1c0.9,0,1.6,0.5,2,1.3L237.4,130.7z"/>
		<path class="st4" d="M246.7,133.6l2.1-5l2.1,5l2.1-4.6h1.6l-3.7,7.4l-2.1-4.8l-2.1,4.8L243,129h1.6L246.7,133.6z"/>
		<path class="st4" d="M255.8,132.9c0,1.2,0.8,2.4,2.2,2.4c1.1,0,1.6-0.5,2.1-1.4l1.2,0.7c-0.7,1.2-1.9,2-3.3,2
			c-2.2,0-3.5-1.7-3.5-3.8c0-2.2,1.2-3.9,3.5-3.9c2.3,0,3.4,1.7,3.4,3.8v0.2H255.8z M259.9,131.8c-0.2-1.1-0.9-1.8-2-1.8
			c-1.1,0-1.9,0.8-2,1.8H259.9z"/>
		<path class="st4" d="M263.6,136.2h-1.4v-13.3h1.4V136.2z"/>
		<path class="st4" d="M266.7,136.2h-1.4v-13.3h1.4V136.2z"/>
		<path class="st4" d="M279.2,136.2h-1.4v-1.1h0c-0.6,0.8-1.4,1.4-2.4,1.4c-2.2,0-3.4-1.8-3.4-3.9c0-2,1.3-3.8,3.4-3.8
			c1.1,0,1.9,0.6,2.5,1.4h0V129h1.4V136.2z M277.9,132.6c0-1.4-0.8-2.6-2.3-2.6c-1.4,0-2.3,1.2-2.3,2.6c0,1.4,0.8,2.6,2.3,2.6
			C277,135.2,277.9,134,277.9,132.6z"/>
		<path class="st4" d="M283.5,130.7c-0.2-0.4-0.5-0.6-0.9-0.6c-0.4,0-0.8,0.3-0.8,0.7c0,0.6,0.8,0.9,1.7,1.3c0.8,0.4,1.7,0.9,1.7,2
			c0,1.4-1.1,2.4-2.5,2.4c-1,0-2.1-0.6-2.5-1.6l1.2-0.5c0.3,0.5,0.6,0.9,1.3,0.9c0.6,0,1.1-0.4,1.1-1c0-0.4-0.2-0.6-0.5-0.8
			l-1.4-0.7c-0.8-0.4-1.4-0.8-1.4-1.8c0-1.2,1-2.1,2.1-2.1c0.9,0,1.6,0.5,2,1.3L283.5,130.7z"/>
		<path class="st4" d="M293.3,130.7c-0.2-0.4-0.5-0.6-0.9-0.6c-0.4,0-0.8,0.3-0.8,0.7c0,0.6,0.8,0.9,1.7,1.3c0.8,0.4,1.7,0.9,1.7,2
			c0,1.4-1.1,2.4-2.5,2.4c-1,0-2.1-0.6-2.5-1.6l1.2-0.5c0.3,0.5,0.6,0.9,1.3,0.9c0.6,0,1.1-0.4,1.1-1c0-0.4-0.2-0.6-0.5-0.8
			l-1.4-0.7c-0.8-0.4-1.4-0.8-1.4-1.8c0-1.2,1-2.1,2.1-2.1c0.9,0,1.6,0.5,2,1.3L293.3,130.7z"/>
		<path class="st4" d="M303,132.7c0,2.2-1.7,3.8-3.8,3.8s-3.8-1.7-3.8-3.8c0-2.2,1.7-3.8,3.8-3.8S303,130.5,303,132.7z M296.7,132.7
			c0,1.4,1.1,2.5,2.5,2.5s2.5-1.2,2.5-2.5c0-1.4-1.1-2.5-2.5-2.5S296.7,131.3,296.7,132.7z"/>
		<path class="st4" d="M309.2,131.1c-0.6-0.6-1.2-1-2.1-1c-1.4,0-2.4,1.2-2.4,2.5c0,1.5,1,2.5,2.5,2.5c0.8,0,1.4-0.4,2-1v1.8
			c-0.6,0.3-1.3,0.5-2,0.5c-2.1,0-3.9-1.6-3.9-3.8c0-2.2,1.7-3.9,3.9-3.9c0.6,0,1.4,0.2,1.9,0.5V131.1z"/>
		<path class="st4" d="M312.4,125.8c0,0.5-0.4,0.9-1,0.9c-0.5,0-1-0.4-1-0.9c0-0.5,0.4-1,1-1C311.9,124.8,312.4,125.2,312.4,125.8z
			 M312.1,136.2h-1.4V129h1.4V136.2z"/>
		<path class="st4" d="M320.7,136.2h-1.4v-1.1h0c-0.6,0.8-1.4,1.4-2.4,1.4c-2.2,0-3.4-1.8-3.4-3.9c0-2,1.3-3.8,3.4-3.8
			c1.1,0,1.9,0.6,2.5,1.4h0V129h1.4V136.2z M319.4,132.6c0-1.4-0.8-2.6-2.3-2.6c-1.4,0-2.3,1.2-2.3,2.6c0,1.4,0.8,2.6,2.3,2.6
			C318.6,135.2,319.4,134,319.4,132.6z"/>
		<path class="st4" d="M323.7,136.2h-1.4v-13.3h1.4V136.2z"/>
		<path class="st4" d="M330.8,129.9L330.8,129.9c0.4-0.6,1.2-1.1,1.9-1.1c0.9,0,1.6,0.5,2.1,1.3c0.4-0.8,1.3-1.3,2.2-1.3
			c1.9,0,2.4,1.5,2.4,3.1v4.3H338v-4.1c0-0.9-0.1-2.1-1.3-2.1c-1.5,0-1.6,1.5-1.6,2.6v3.5h-1.4v-3.8c0-0.9,0-2.4-1.3-2.4
			c-1.5,0-1.6,1.5-1.6,2.6v3.5h-1.4V129h1.4V129.9z"/>
		<path class="st4" d="M341.7,132.9c0,1.2,0.8,2.4,2.2,2.4c1.1,0,1.6-0.5,2.1-1.4l1.2,0.7c-0.7,1.2-1.9,2-3.3,2
			c-2.2,0-3.5-1.7-3.5-3.8c0-2.2,1.2-3.9,3.5-3.9c2.3,0,3.4,1.7,3.4,3.8v0.2H341.7z M345.8,131.8c-0.2-1.1-0.9-1.8-2-1.8
			c-1.1,0-1.9,0.8-2,1.8H345.8z"/>
		<path class="st4" d="M353.4,135.1L353.4,135.1c-0.6,0.8-1.5,1.4-2.5,1.4c-2.2,0-3.4-1.8-3.4-3.9c0-2,1.3-3.8,3.4-3.8
			c1.1,0,1.9,0.6,2.5,1.4h0v-7.3h1.4v13.3h-1.4V135.1z M353.5,132.6c0-1.4-0.8-2.6-2.3-2.6c-1.4,0-2.3,1.2-2.3,2.6
			c0,1.4,0.8,2.6,2.3,2.6C352.7,135.2,353.5,134,353.5,132.6z"/>
		<path class="st4" d="M358.3,125.8c0,0.5-0.4,0.9-1,0.9c-0.5,0-1-0.4-1-0.9c0-0.5,0.4-1,1-1C357.8,124.8,358.3,125.2,358.3,125.8z
			 M358,136.2h-1.4V129h1.4V136.2z"/>
		<path class="st4" d="M366.6,136.2h-1.4v-1.1h0c-0.6,0.8-1.4,1.4-2.4,1.4c-2.2,0-3.4-1.8-3.4-3.9c0-2,1.3-3.8,3.4-3.8
			c1.1,0,1.9,0.6,2.5,1.4h0V129h1.4V136.2z M365.3,132.6c0-1.4-0.8-2.6-2.3-2.6c-1.4,0-2.3,1.2-2.3,2.6c0,1.4,0.8,2.6,2.3,2.6
			C364.5,135.2,365.3,134,365.3,132.6z"/>
		<path class="st4" d="M379,136.2h-1.4v-1.1h0c-0.6,0.8-1.4,1.4-2.4,1.4c-2.2,0-3.4-1.8-3.4-3.9c0-2,1.3-3.8,3.4-3.8
			c1.1,0,1.9,0.6,2.5,1.4h0V129h1.4V136.2z M377.7,132.6c0-1.4-0.8-2.6-2.3-2.6c-1.4,0-2.3,1.2-2.3,2.6c0,1.4,0.8,2.6,2.3,2.6
			C376.9,135.2,377.7,134,377.7,132.6z"/>
		<path class="st4" d="M381.9,130L381.9,130c0.5-0.8,1.3-1.2,2.2-1.2c2,0,2.5,1.4,2.5,3.1v4.3h-1.4v-4.1c0-1.2-0.2-2.1-1.6-2.1
			c-1.8,0-1.8,1.6-1.8,2.9v3.3h-1.4V129h1.4V130z"/>
		<path class="st4" d="M393.6,135.1L393.6,135.1c-0.6,0.8-1.5,1.4-2.5,1.4c-2.2,0-3.4-1.8-3.4-3.9c0-2,1.3-3.8,3.4-3.8
			c1.1,0,1.9,0.6,2.5,1.4h0v-7.3h1.4v13.3h-1.4V135.1z M393.6,132.6c0-1.4-0.8-2.6-2.3-2.6c-1.4,0-2.3,1.2-2.3,2.6
			c0,1.4,0.8,2.6,2.3,2.6C392.8,135.2,393.6,134,393.6,132.6z"/>
		<path class="st4" d="M403.4,130.7c-0.2-0.4-0.5-0.6-0.9-0.6c-0.4,0-0.8,0.3-0.8,0.7c0,0.6,0.8,0.9,1.7,1.3c0.8,0.4,1.7,0.9,1.7,2
			c0,1.4-1.1,2.4-2.5,2.4c-1,0-2.1-0.6-2.5-1.6l1.2-0.5c0.3,0.5,0.6,0.9,1.3,0.9c0.6,0,1.1-0.4,1.1-1c0-0.4-0.2-0.6-0.5-0.8
			l-1.4-0.7c-0.8-0.4-1.4-0.8-1.4-1.8c0-1.2,1-2.1,2.1-2.1c0.9,0,1.6,0.5,2,1.3L403.4,130.7z"/>
		<path class="st4" d="M407.4,130.2L407.4,130.2c0.6-0.9,1.5-1.4,2.5-1.4c2.1,0,3.4,1.8,3.4,3.8c0,2.1-1.2,3.9-3.4,3.9
			c-1,0-1.9-0.6-2.4-1.4h0v5.2H406V129h1.4V130.2z M411.9,132.6c0-1.4-0.8-2.6-2.3-2.6c-1.4,0-2.3,1.2-2.3,2.6
			c0,1.4,0.8,2.6,2.3,2.6C411.1,135.2,411.9,134,411.9,132.6z"/>
		<path class="st4" d="M415.2,132.9c0,1.2,0.8,2.4,2.2,2.4c1.1,0,1.6-0.5,2.1-1.4l1.2,0.7c-0.7,1.2-1.9,2-3.3,2
			c-2.2,0-3.5-1.7-3.5-3.8c0-2.2,1.2-3.9,3.5-3.9c2.3,0,3.4,1.7,3.4,3.8v0.2H415.2z M419.3,131.8c-0.2-1.1-0.9-1.8-2-1.8
			c-1.1,0-1.9,0.8-2,1.8H419.3z"/>
		<path class="st4" d="M426.8,131.1c-0.6-0.6-1.2-1-2.1-1c-1.4,0-2.4,1.2-2.4,2.5c0,1.5,1,2.5,2.5,2.5c0.8,0,1.4-0.4,2-1v1.8
			c-0.6,0.3-1.3,0.5-2,0.5c-2.1,0-3.9-1.6-3.9-3.8c0-2.2,1.7-3.9,3.9-3.9c0.6,0,1.4,0.2,1.9,0.5V131.1z"/>
		<path class="st4" d="M430,125.8c0,0.5-0.4,0.9-1,0.9c-0.5,0-1-0.4-1-0.9c0-0.5,0.4-1,1-1C429.5,124.8,430,125.2,430,125.8z
			 M429.7,136.2h-1.4V129h1.4V136.2z"/>
		<path class="st4" d="M438.3,136.2H437v-1.1h0c-0.6,0.8-1.4,1.4-2.4,1.4c-2.2,0-3.4-1.8-3.4-3.9c0-2,1.3-3.8,3.4-3.8
			c1.1,0,1.9,0.6,2.5,1.4h0V129h1.4V136.2z M437,132.6c0-1.4-0.8-2.6-2.3-2.6c-1.4,0-2.3,1.2-2.3,2.6c0,1.4,0.8,2.6,2.3,2.6
			C436.2,135.2,437,134,437,132.6z"/>
		<path class="st4" d="M441.3,136.2h-1.4v-13.3h1.4V136.2z"/>
		<path class="st4" d="M447.9,132.9c0,1.2,0.8,2.4,2.2,2.4c1.1,0,1.6-0.5,2.1-1.4l1.2,0.7c-0.7,1.2-1.9,2-3.3,2
			c-2.2,0-3.5-1.7-3.5-3.8c0-2.2,1.2-3.9,3.5-3.9c2.3,0,3.4,1.7,3.4,3.8v0.2H447.9z M452,131.8c-0.2-1.1-0.9-1.8-2-1.8
			c-1.1,0-1.9,0.8-2,1.8H452z"/>
		<path class="st4" d="M456.7,133.5l2.1-4.5h1.5l-3.6,7.4l-3.6-7.4h1.5L456.7,133.5z"/>
		<path class="st4" d="M461.6,132.9c0,1.2,0.8,2.4,2.2,2.4c1.1,0,1.6-0.5,2.1-1.4l1.2,0.7c-0.7,1.2-1.9,2-3.3,2
			c-2.2,0-3.5-1.7-3.5-3.8c0-2.2,1.2-3.9,3.5-3.9c2.3,0,3.4,1.7,3.4,3.8v0.2H461.6z M465.7,131.8c-0.2-1.1-0.9-1.8-2-1.8
			c-1.1,0-1.9,0.8-2,1.8H465.7z"/>
		<path class="st4" d="M469.3,130L469.3,130c0.5-0.8,1.3-1.2,2.2-1.2c2,0,2.5,1.4,2.5,3.1v4.3h-1.4v-4.1c0-1.2-0.2-2.1-1.6-2.1
			c-1.8,0-1.8,1.6-1.8,2.9v3.3h-1.4V129h1.4V130z"/>
		<path class="st4" d="M477.2,136.2h-1.4v-5.9h-0.8V129h0.8v-2.7h1.4v2.7h1.4v1.3h-1.4V136.2z"/>
		<path class="st4" d="M6.2,155.6c-0.6-0.6-1.2-1-2.1-1c-1.4,0-2.4,1.2-2.4,2.5c0,1.5,1,2.5,2.5,2.5c0.8,0,1.4-0.4,2-1v1.8
			c-0.6,0.3-1.3,0.5-2,0.5c-2.1,0-3.9-1.6-3.9-3.8c0-2.2,1.7-3.9,3.9-3.9c0.6,0,1.4,0.2,1.9,0.5V155.6z"/>
		<path class="st4" d="M14.4,157.2c0,2.2-1.7,3.8-3.8,3.8s-3.8-1.7-3.8-3.8c0-2.2,1.7-3.8,3.8-3.8S14.4,155,14.4,157.2z M8.1,157.2
			c0,1.4,1.1,2.5,2.5,2.5s2.5-1.2,2.5-2.5c0-1.4-1.1-2.5-2.5-2.5S8.1,155.8,8.1,157.2z"/>
		<path class="st4" d="M16.8,160.8h-1.4v-13.3h1.4V160.8z"/>
		<path class="st4" d="M19.9,160.8h-1.4v-13.3h1.4V160.8z"/>
		<path class="st4" d="M28.3,160.8h-1.4v-1.1h0c-0.6,0.8-1.4,1.4-2.4,1.4c-2.2,0-3.4-1.8-3.4-3.9c0-2,1.3-3.8,3.4-3.8
			c1.1,0,1.9,0.6,2.5,1.4h0v-1.2h1.4V160.8z M27,157.2c0-1.4-0.8-2.6-2.3-2.6c-1.4,0-2.3,1.2-2.3,2.6c0,1.4,0.8,2.6,2.3,2.6
			C26.2,159.8,27,158.6,27,157.2z"/>
		<path class="st4" d="M31.4,160.8H30v-5.9h-0.8v-1.3H30v-2.7h1.4v2.7h1.4v1.3h-1.4V160.8z"/>
		<path class="st4" d="M34,157.4c0,1.2,0.8,2.4,2.2,2.4c1.1,0,1.6-0.5,2.1-1.4l1.2,0.7c-0.7,1.2-1.9,2-3.3,2c-2.2,0-3.5-1.7-3.5-3.8
			c0-2.2,1.2-3.9,3.5-3.9c2.3,0,3.4,1.7,3.4,3.8v0.2H34z M38.1,156.4c-0.2-1.1-0.9-1.8-2-1.8c-1.1,0-1.9,0.8-2,1.8H38.1z"/>
		<path class="st4" d="M41.8,154.8L41.8,154.8c0.4-0.8,1.1-1.4,2-1.4c0.4,0,0.8,0.1,1.1,0.4l-0.6,1.3c-0.2-0.2-0.5-0.3-0.8-0.3
			c-1.5,0-1.7,1.4-1.7,2.5v3.5h-1.4v-7.2h1.4V154.8z"/>
		<path class="st4" d="M52.2,160.8h-1.4v-1.1h0c-0.6,0.8-1.4,1.4-2.4,1.4c-2.2,0-3.4-1.8-3.4-3.9c0-2,1.3-3.8,3.4-3.8
			c1.1,0,1.9,0.6,2.5,1.4h0v-1.2h1.4V160.8z M50.9,157.2c0-1.4-0.8-2.6-2.3-2.6c-1.4,0-2.3,1.2-2.3,2.6c0,1.4,0.8,2.6,2.3,2.6
			C50.1,159.8,50.9,158.6,50.9,157.2z"/>
		<path class="st4" d="M55.1,160.8h-1.4v-13.3h1.4V160.8z"/>
		<path class="st4" d="M62.2,154.8L62.2,154.8c0.6-0.9,1.5-1.4,2.5-1.4c2.1,0,3.4,1.8,3.4,3.8c0,2.1-1.2,3.9-3.4,3.9
			c-1,0-1.9-0.6-2.4-1.4h0v5.2h-1.4v-11.3h1.4V154.8z M66.7,157.2c0-1.4-0.8-2.6-2.3-2.6c-1.4,0-2.3,1.2-2.3,2.6
			c0,1.4,0.8,2.6,2.3,2.6C65.9,159.8,66.7,158.6,66.7,157.2z"/>
		<path class="st4" d="M70.6,154.8L70.6,154.8c0.4-0.8,1.1-1.4,2-1.4c0.4,0,0.8,0.1,1.1,0.4l-0.6,1.3c-0.2-0.2-0.5-0.3-0.8-0.3
			c-1.5,0-1.7,1.4-1.7,2.5v3.5h-1.4v-7.2h1.4V154.8z"/>
		<path class="st4" d="M81.2,157.2c0,2.2-1.7,3.8-3.8,3.8s-3.8-1.7-3.8-3.8c0-2.2,1.7-3.8,3.8-3.8S81.2,155,81.2,157.2z M75,157.2
			c0,1.4,1.1,2.5,2.5,2.5s2.5-1.2,2.5-2.5c0-1.4-1.1-2.5-2.5-2.5S75,155.8,75,157.2z"/>
		<path class="st4" d="M87.6,159.7L87.6,159.7c-0.6,0.8-1.5,1.4-2.5,1.4c-2.2,0-3.4-1.8-3.4-3.9c0-2,1.3-3.8,3.4-3.8
			c1.1,0,1.9,0.6,2.5,1.4h0v-7.3h1.4v13.3h-1.4V159.7z M87.6,157.2c0-1.4-0.8-2.6-2.3-2.6c-1.4,0-2.3,1.2-2.3,2.6
			c0,1.4,0.8,2.6,2.3,2.6C86.8,159.8,87.6,158.6,87.6,157.2z"/>
		<path class="st4" d="M91.7,153.6v4c0,1.2,0.3,2.2,1.7,2.2s1.7-1,1.7-2.2v-4h1.4v4.1c0,2-0.9,3.3-3,3.3s-3-1.3-3-3.3v-4.1H91.7z"/>
		<path class="st4" d="M103.3,155.6c-0.6-0.6-1.2-1-2.1-1c-1.4,0-2.4,1.2-2.4,2.5c0,1.5,1,2.5,2.5,2.5c0.8,0,1.4-0.4,2-1v1.8
			c-0.6,0.3-1.3,0.5-2,0.5c-2.1,0-3.9-1.6-3.9-3.8c0-2.2,1.7-3.9,3.9-3.9c0.6,0,1.4,0.2,1.9,0.5V155.6z"/>
		<path class="st4" d="M106,160.8h-1.4v-5.9h-0.8v-1.3h0.8v-2.7h1.4v2.7h1.4v1.3H106V160.8z"/>
		<path class="st4" d="M109.8,150.3c0,0.5-0.4,0.9-1,0.9c-0.5,0-1-0.4-1-0.9c0-0.5,0.4-1,1-1C109.3,149.3,109.8,149.8,109.8,150.3z
			 M109.5,160.8h-1.4v-7.2h1.4V160.8z"/>
		<path class="st4" d="M118.4,157.2c0,2.2-1.7,3.8-3.8,3.8s-3.8-1.7-3.8-3.8c0-2.2,1.7-3.8,3.8-3.8S118.4,155,118.4,157.2z
			 M112.1,157.2c0,1.4,1.1,2.5,2.5,2.5s2.5-1.2,2.5-2.5c0-1.4-1.1-2.5-2.5-2.5S112.1,155.8,112.1,157.2z"/>
		<path class="st4" d="M120.8,154.6L120.8,154.6c0.5-0.8,1.3-1.2,2.2-1.2c2,0,2.5,1.4,2.5,3.1v4.3h-1.4v-4.1c0-1.2-0.2-2.1-1.6-2.1
			c-1.8,0-1.8,1.6-1.8,2.9v3.3h-1.4v-7.2h1.4V154.6z"/>
		<path class="st4" d="M129.3,160.1c0,0.5-0.4,0.9-0.9,0.9s-0.9-0.4-0.9-0.9c0-0.5,0.4-0.9,0.9-0.9S129.3,159.7,129.3,160.1z"/>
		<path class="st4" d="M137.5,153.1L137.5,153.1l-1.4,7.6h-1.5l2.4-12.1l4,9.1l4-9.1l2.4,12.1h-1.5l-1.4-7.6h0l-3.5,7.9L137.5,153.1
			z"/>
		<path class="st4" d="M155.1,157.2c0,2.2-1.7,3.8-3.8,3.8s-3.8-1.7-3.8-3.8c0-2.2,1.7-3.8,3.8-3.8S155.1,155,155.1,157.2z
			 M148.8,157.2c0,1.4,1.1,2.5,2.5,2.5s2.5-1.2,2.5-2.5c0-1.4-1.1-2.5-2.5-2.5S148.8,155.8,148.8,157.2z"/>
		<path class="st4" d="M159,155.2c-0.2-0.4-0.5-0.6-0.9-0.6c-0.4,0-0.8,0.3-0.8,0.7c0,0.6,0.8,0.9,1.7,1.3s1.7,0.9,1.7,2
			c0,1.4-1.1,2.4-2.5,2.4c-1,0-2.1-0.6-2.5-1.6l1.2-0.5c0.3,0.5,0.6,0.9,1.3,0.9c0.6,0,1.1-0.4,1.1-1c0-0.4-0.2-0.6-0.5-0.8
			l-1.4-0.7c-0.8-0.4-1.4-0.8-1.4-1.8c0-1.2,1-2.1,2.1-2.1c0.9,0,1.6,0.5,2,1.3L159,155.2z"/>
		<path class="st4" d="M163.3,160.8h-1.4v-5.9h-0.8v-1.3h0.8v-2.7h1.4v2.7h1.4v1.3h-1.4V160.8z"/>
		<path class="st4" d="M176.2,157.2c0,2.2-1.7,3.8-3.8,3.8s-3.8-1.7-3.8-3.8c0-2.2,1.7-3.8,3.8-3.8S176.2,155,176.2,157.2z
			 M169.9,157.2c0,1.4,1.1,2.5,2.5,2.5s2.5-1.2,2.5-2.5c0-1.4-1.1-2.5-2.5-2.5S169.9,155.8,169.9,157.2z"/>
		<path class="st4" d="M180.7,148.9c-0.3-0.1-0.6-0.3-0.9-0.3c-1,0-1,1.2-1,1.9v3.1h1.9v1.3h-1.9v5.9h-1.4v-5.9h-0.6v-1.3h0.6v-3.5
			c0-1.6,0.5-2.8,2.3-2.8c0.3,0,0.7,0.1,1,0.2V148.9z"/>
		<path class="st4" d="M186.5,154.5L186.5,154.5c0.4-0.6,1.2-1.1,1.9-1.1c0.9,0,1.6,0.5,2.1,1.3c0.4-0.8,1.3-1.3,2.2-1.3
			c1.9,0,2.4,1.5,2.4,3.1v4.3h-1.4v-4.1c0-0.9-0.1-2.1-1.3-2.1c-1.5,0-1.6,1.5-1.6,2.6v3.5h-1.4V157c0-0.9,0-2.4-1.3-2.4
			c-1.5,0-1.6,1.5-1.6,2.6v3.5h-1.4v-7.2h1.4V154.5z"/>
		<path class="st4" d="M195.5,153.6h1.6l2.4,4.6l2.3-4.6h1.6l-5.8,11.3H196l2.8-5.3L195.5,153.6z"/>
		<path class="st4" d="M210.4,158.2l2.1-5l2.1,5l2.1-4.6h1.6l-3.7,7.4l-2.1-4.8l-2.1,4.8l-3.7-7.4h1.6L210.4,158.2z"/>
		<path class="st4" d="M225.7,157.2c0,2.2-1.7,3.8-3.8,3.8s-3.8-1.7-3.8-3.8c0-2.2,1.7-3.8,3.8-3.8S225.7,155,225.7,157.2z
			 M219.4,157.2c0,1.4,1.1,2.5,2.5,2.5s2.5-1.2,2.5-2.5c0-1.4-1.1-2.5-2.5-2.5S219.4,155.8,219.4,157.2z"/>
		<path class="st4" d="M228.1,154.8L228.1,154.8c0.4-0.8,1.1-1.4,2-1.4c0.4,0,0.8,0.1,1.1,0.4l-0.6,1.3c-0.2-0.2-0.5-0.3-0.8-0.3
			c-1.5,0-1.7,1.4-1.7,2.5v3.5h-1.4v-7.2h1.4V154.8z"/>
		<path class="st4" d="M233.2,156.3l2.7-2.7h1.8l-3.1,3l3.4,4.2h-1.8l-2.6-3.3l-0.5,0.5v2.8h-1.4v-13.3h1.4V156.3z"/>
		<path class="st4" d="M245,158.2l2.1-5l2.1,5l2.1-4.6h1.6l-3.7,7.4l-2.1-4.8L245,161l-3.7-7.4h1.6L245,158.2z"/>
		<path class="st4" d="M260,160.8h-1.4v-1.1h0c-0.6,0.8-1.4,1.4-2.4,1.4c-2.2,0-3.4-1.8-3.4-3.9c0-2,1.3-3.8,3.4-3.8
			c1.1,0,1.9,0.6,2.5,1.4h0v-1.2h1.4V160.8z M258.7,157.2c0-1.4-0.8-2.6-2.3-2.6c-1.4,0-2.3,1.2-2.3,2.6c0,1.4,0.8,2.6,2.3,2.6
			C257.9,159.8,258.7,158.6,258.7,157.2z"/>
		<path class="st4" d="M264.4,155.2c-0.2-0.4-0.5-0.6-0.9-0.6c-0.4,0-0.8,0.3-0.8,0.7c0,0.6,0.8,0.9,1.7,1.3c0.8,0.4,1.7,0.9,1.7,2
			c0,1.4-1.1,2.4-2.5,2.4c-1,0-2.1-0.6-2.5-1.6l1.2-0.5c0.3,0.5,0.6,0.9,1.3,0.9c0.6,0,1.1-0.4,1.1-1c0-0.4-0.2-0.6-0.5-0.8
			l-1.4-0.7c-0.8-0.4-1.4-0.8-1.4-1.8c0-1.2,1-2.1,2.1-2.1c0.9,0,1.6,0.5,2,1.3L264.4,155.2z"/>
		<path class="st4" d="M276.6,159.7L276.6,159.7c-0.6,0.8-1.5,1.4-2.5,1.4c-2.2,0-3.4-1.8-3.4-3.9c0-2,1.3-3.8,3.4-3.8
			c1.1,0,1.9,0.6,2.5,1.4h0v-7.3h1.4v13.3h-1.4V159.7z M276.7,157.2c0-1.4-0.8-2.6-2.3-2.6c-1.4,0-2.3,1.2-2.3,2.6
			c0,1.4,0.8,2.6,2.3,2.6C275.8,159.8,276.7,158.6,276.7,157.2z"/>
		<path class="st4" d="M286.5,157.2c0,2.2-1.7,3.8-3.8,3.8s-3.8-1.7-3.8-3.8c0-2.2,1.7-3.8,3.8-3.8S286.5,155,286.5,157.2z
			 M280.2,157.2c0,1.4,1.1,2.5,2.5,2.5s2.5-1.2,2.5-2.5c0-1.4-1.1-2.5-2.5-2.5S280.2,155.8,280.2,157.2z"/>
		<path class="st4" d="M288.8,154.6L288.8,154.6c0.5-0.8,1.3-1.2,2.2-1.2c2,0,2.5,1.4,2.5,3.1v4.3h-1.4v-4.1c0-1.2-0.2-2.1-1.6-2.1
			c-1.8,0-1.8,1.6-1.8,2.9v3.3h-1.4v-7.2h1.4V154.6z"/>
		<path class="st4" d="M296,157.4c0,1.2,0.8,2.4,2.2,2.4c1.1,0,1.6-0.5,2.1-1.4l1.2,0.7c-0.7,1.2-1.9,2-3.3,2
			c-2.2,0-3.5-1.7-3.5-3.8c0-2.2,1.2-3.9,3.5-3.9c2.3,0,3.4,1.7,3.4,3.8v0.2H296z M300.1,156.4c-0.2-1.1-0.9-1.8-2-1.8
			c-1.1,0-1.9,0.8-2,1.8H300.1z"/>
		<path class="st4" d="M308.4,150.3c0,0.5-0.4,0.9-1,0.9c-0.5,0-1-0.4-1-0.9c0-0.5,0.4-1,1-1C308,149.3,308.4,149.8,308.4,150.3z
			 M308.2,160.8h-1.4v-7.2h1.4V160.8z"/>
		<path class="st4" d="M311.4,154.6L311.4,154.6c0.5-0.8,1.3-1.2,2.2-1.2c2,0,2.5,1.4,2.5,3.1v4.3h-1.4v-4.1c0-1.2-0.2-2.1-1.6-2.1
			c-1.8,0-1.8,1.6-1.8,2.9v3.3h-1.4v-7.2h1.4V154.6z"/>
		<path class="st4" d="M328.7,160.8h-1.4v-1.1h0c-0.6,0.8-1.4,1.4-2.4,1.4c-2.2,0-3.4-1.8-3.4-3.9c0-2,1.3-3.8,3.4-3.8
			c1.1,0,1.9,0.6,2.5,1.4h0v-1.2h1.4V160.8z M327.3,157.2c0-1.4-0.8-2.6-2.3-2.6c-1.4,0-2.3,1.2-2.3,2.6c0,1.4,0.8,2.6,2.3,2.6
			C326.5,159.8,327.3,158.6,327.3,157.2z"/>
		<path class="st4" d="M337.2,155.2c-0.2-0.4-0.5-0.6-0.9-0.6c-0.4,0-0.8,0.3-0.8,0.7c0,0.6,0.8,0.9,1.7,1.3c0.8,0.4,1.7,0.9,1.7,2
			c0,1.4-1.1,2.4-2.5,2.4c-1,0-2.1-0.6-2.5-1.6l1.2-0.5c0.3,0.5,0.6,0.9,1.3,0.9c0.6,0,1.1-0.4,1.1-1c0-0.4-0.2-0.6-0.5-0.8
			l-1.4-0.7c-0.8-0.4-1.4-0.8-1.4-1.8c0-1.2,1-2.1,2.1-2.1c0.9,0,1.6,0.5,2,1.3L337.2,155.2z"/>
		<path class="st4" d="M341.2,154.5L341.2,154.5c0.4-0.6,1.2-1.1,1.9-1.1c0.9,0,1.6,0.5,2.1,1.3c0.4-0.8,1.3-1.3,2.2-1.3
			c1.9,0,2.4,1.5,2.4,3.1v4.3h-1.4v-4.1c0-0.9-0.1-2.1-1.3-2.1c-1.5,0-1.6,1.5-1.6,2.6v3.5h-1.4V157c0-0.9,0-2.4-1.3-2.4
			c-1.5,0-1.6,1.5-1.6,2.6v3.5h-1.4v-7.2h1.4V154.5z"/>
		<path class="st4" d="M358.1,160.8h-1.4v-1.1h0c-0.6,0.8-1.4,1.4-2.4,1.4c-2.2,0-3.4-1.8-3.4-3.9c0-2,1.3-3.8,3.4-3.8
			c1.1,0,1.9,0.6,2.5,1.4h0v-1.2h1.4V160.8z M356.8,157.2c0-1.4-0.8-2.6-2.3-2.6c-1.4,0-2.3,1.2-2.3,2.6c0,1.4,0.8,2.6,2.3,2.6
			C355.9,159.8,356.8,158.6,356.8,157.2z"/>
		<path class="st4" d="M361,160.8h-1.4v-13.3h1.4V160.8z"/>
		<path class="st4" d="M364.1,160.8h-1.4v-13.3h1.4V160.8z"/>
		<path class="st4" d="M371.5,160.8h-1.4v-5.9h-0.8v-1.3h0.8v-2.7h1.4v2.7h1.4v1.3h-1.4V160.8z"/>
		<path class="st4" d="M374.1,157.4c0,1.2,0.8,2.4,2.2,2.4c1.1,0,1.6-0.5,2.1-1.4l1.2,0.7c-0.7,1.2-1.9,2-3.3,2
			c-2.2,0-3.5-1.7-3.5-3.8c0-2.2,1.2-3.9,3.5-3.9c2.3,0,3.4,1.7,3.4,3.8v0.2H374.1z M378.2,156.4c-0.2-1.1-0.9-1.8-2-1.8
			c-1.1,0-1.9,0.8-2,1.8H378.2z"/>
		<path class="st4" d="M387.2,160.8h-1.4v-1.1h0c-0.6,0.8-1.4,1.4-2.4,1.4c-2.2,0-3.4-1.8-3.4-3.9c0-2,1.3-3.8,3.4-3.8
			c1.1,0,1.9,0.6,2.5,1.4h0v-1.2h1.4V160.8z M385.9,157.2c0-1.4-0.8-2.6-2.3-2.6c-1.4,0-2.3,1.2-2.3,2.6c0,1.4,0.8,2.6,2.3,2.6
			C385,159.8,385.9,158.6,385.9,157.2z"/>
		<path class="st4" d="M390,154.5L390,154.5c0.4-0.6,1.2-1.1,1.9-1.1c0.9,0,1.6,0.5,2.1,1.3c0.4-0.8,1.3-1.3,2.2-1.3
			c1.9,0,2.4,1.5,2.4,3.1v4.3h-1.4v-4.1c0-0.9-0.1-2.1-1.3-2.1c-1.5,0-1.6,1.5-1.6,2.6v3.5h-1.4V157c0-0.9,0-2.4-1.3-2.4
			c-1.5,0-1.6,1.5-1.6,2.6v3.5h-1.4v-7.2h1.4V154.5z"/>
		<path class="st4" d="M407.1,155.2c-0.2-0.4-0.5-0.6-0.9-0.6c-0.4,0-0.8,0.3-0.8,0.7c0,0.6,0.8,0.9,1.7,1.3c0.8,0.4,1.7,0.9,1.7,2
			c0,1.4-1.1,2.4-2.5,2.4c-1,0-2.1-0.6-2.5-1.6l1.2-0.5c0.3,0.5,0.6,0.9,1.3,0.9c0.6,0,1.1-0.4,1.1-1c0-0.4-0.2-0.6-0.5-0.8
			l-1.4-0.7c-0.8-0.4-1.4-0.8-1.4-1.8c0-1.2,1-2.1,2.1-2.1c0.9,0,1.6,0.5,2,1.3L407.1,155.2z"/>
		<path class="st4" d="M410.7,157.4c0,1.2,0.8,2.4,2.2,2.4c1.1,0,1.6-0.5,2.1-1.4l1.2,0.7c-0.7,1.2-1.9,2-3.3,2
			c-2.2,0-3.5-1.7-3.5-3.8c0-2.2,1.2-3.9,3.5-3.9c2.3,0,3.4,1.7,3.4,3.8v0.2H410.7z M414.8,156.4c-0.2-1.1-0.9-1.8-2-1.8
			c-1.1,0-1.9,0.8-2,1.8H414.8z"/>
		<path class="st4" d="M418.6,160.8h-1.4v-5.9h-0.8v-1.3h0.8v-2.7h1.4v2.7h1.4v1.3h-1.4V160.8z"/>
		<path class="st4" d="M422,160.8h-1.4v-5.9h-0.8v-1.3h0.8v-2.7h1.4v2.7h1.4v1.3H422V160.8z"/>
		<path class="st4" d="M425.7,150.3c0,0.5-0.4,0.9-1,0.9c-0.5,0-1-0.4-1-0.9c0-0.5,0.4-1,1-1C425.3,149.3,425.7,149.8,425.7,150.3z
			 M425.5,160.8h-1.4v-7.2h1.4V160.8z"/>
		<path class="st4" d="M428.7,154.6L428.7,154.6c0.5-0.8,1.3-1.2,2.2-1.2c2,0,2.5,1.4,2.5,3.1v4.3h-1.4v-4.1c0-1.2-0.2-2.1-1.6-2.1
			c-1.8,0-1.8,1.6-1.8,2.9v3.3h-1.4v-7.2h1.4V154.6z"/>
		<path class="st4" d="M441.8,160.6c0,2.5-0.7,4.3-3.5,4.3c-2,0-3.4-1.2-3.5-3.3h1.4c0,1.3,0.9,2,2.1,2c1.7,0,2.1-1.2,2.1-2.6v-1.4
			h0c-0.6,0.8-1.4,1.4-2.4,1.4c-2.2,0-3.4-1.8-3.4-3.9c0-2,1.3-3.8,3.4-3.8c1.1,0,1.9,0.6,2.5,1.4h0v-1.2h1.4V160.6z M440.5,157.2
			c0-1.4-0.8-2.6-2.3-2.6c-1.4,0-2.3,1.2-2.3,2.6c0,1.4,0.8,2.6,2.3,2.6C439.7,159.8,440.5,158.6,440.5,157.2z"/>
		<path class="st4" d="M449.9,158.2l2.1-5l2.1,5l2.1-4.6h1.6l-3.7,7.4l-2.1-4.8l-2.1,4.8l-3.7-7.4h1.6L449.9,158.2z"/>
		<path class="st4" d="M459.5,147.5v7.1h0c0.4-0.8,1.3-1.2,2.2-1.2c2,0,2.5,1.4,2.5,3.1v4.3h-1.4v-4.1c0-1.2-0.2-2.1-1.6-2.1
			c-1.8,0-1.8,1.6-1.8,2.9v3.3h-1.4v-13.3H459.5z"/>
		<path class="st4" d="M467.8,150.3c0,0.5-0.4,0.9-1,0.9c-0.5,0-1-0.4-1-0.9c0-0.5,0.4-1,1-1C467.4,149.3,467.8,149.8,467.8,150.3z
			 M467.5,160.8h-1.4v-7.2h1.4V160.8z"/>
		<path class="st4" d="M470.9,160.8h-1.4v-13.3h1.4V160.8z"/>
		<path class="st4" d="M473.4,157.4c0,1.2,0.8,2.4,2.2,2.4c1.1,0,1.6-0.5,2.1-1.4l1.2,0.7c-0.7,1.2-1.9,2-3.3,2
			c-2.2,0-3.5-1.7-3.5-3.8c0-2.2,1.2-3.9,3.5-3.9c2.3,0,3.4,1.7,3.4,3.8v0.2H473.4z M477.5,156.4c-0.2-1.1-0.9-1.8-2-1.8
			c-1.1,0-1.9,0.8-2,1.8H477.5z"/>
		<path class="st4" d="M6.2,180.2c-0.6-0.6-1.2-1-2.1-1c-1.4,0-2.4,1.2-2.4,2.5c0,1.5,1,2.5,2.5,2.5c0.8,0,1.4-0.4,2-1v1.8
			c-0.6,0.3-1.3,0.5-2,0.5c-2.1,0-3.9-1.6-3.9-3.8c0-2.2,1.7-3.9,3.9-3.9c0.6,0,1.4,0.2,1.9,0.5V180.2z"/>
		<path class="st4" d="M14.4,181.8c0,2.2-1.7,3.8-3.8,3.8s-3.8-1.7-3.8-3.8c0-2.2,1.7-3.8,3.8-3.8S14.4,179.6,14.4,181.8z
			 M8.1,181.8c0,1.4,1.1,2.5,2.5,2.5s2.5-1.2,2.5-2.5c0-1.4-1.1-2.5-2.5-2.5S8.1,180.4,8.1,181.8z"/>
		<path class="st4" d="M22.4,181.8c0,2.2-1.7,3.8-3.8,3.8s-3.8-1.7-3.8-3.8c0-2.2,1.7-3.8,3.8-3.8S22.4,179.6,22.4,181.8z
			 M16.1,181.8c0,1.4,1.1,2.5,2.5,2.5s2.5-1.2,2.5-2.5c0-1.4-1.1-2.5-2.5-2.5S16.1,180.4,16.1,181.8z"/>
		<path class="st4" d="M24.8,179.3L24.8,179.3c0.4-0.8,1.1-1.4,2-1.4c0.4,0,0.8,0.1,1.1,0.4l-0.6,1.3c-0.2-0.2-0.5-0.3-0.8-0.3
			c-1.5,0-1.7,1.4-1.7,2.5v3.5h-1.4v-7.2h1.4V179.3z"/>
		<path class="st4" d="M33.8,184.2L33.8,184.2c-0.6,0.8-1.5,1.4-2.5,1.4c-2.2,0-3.4-1.8-3.4-3.9c0-2,1.3-3.8,3.4-3.8
			c1.1,0,1.9,0.6,2.5,1.4h0V172h1.4v13.3h-1.4V184.2z M33.9,181.7c0-1.4-0.8-2.6-2.3-2.6c-1.4,0-2.3,1.2-2.3,2.6
			c0,1.4,0.8,2.6,2.3,2.6C33.1,184.4,33.9,183.2,33.9,181.7z"/>
		<path class="st4" d="M38.6,174.9c0,0.5-0.4,0.9-1,0.9c-0.5,0-1-0.4-1-0.9c0-0.5,0.4-1,1-1C38.2,173.9,38.6,174.3,38.6,174.9z
			 M38.4,185.3H37v-7.2h1.4V185.3z"/>
		<path class="st4" d="M41.7,179.1L41.7,179.1c0.5-0.8,1.3-1.2,2.2-1.2c2,0,2.5,1.4,2.5,3.1v4.3H45v-4.1c0-1.2-0.2-2.1-1.6-2.1
			c-1.8,0-1.8,1.6-1.8,2.9v3.3h-1.4v-7.2h1.4V179.1z"/>
		<path class="st4" d="M54.7,185.3h-1.4v-1.1h0c-0.6,0.8-1.4,1.4-2.4,1.4c-2.2,0-3.4-1.8-3.4-3.9c0-2,1.3-3.8,3.4-3.8
			c1.1,0,1.9,0.6,2.5,1.4h0v-1.2h1.4V185.3z M53.4,181.7c0-1.4-0.8-2.6-2.3-2.6c-1.4,0-2.3,1.2-2.3,2.6c0,1.4,0.8,2.6,2.3,2.6
			C52.6,184.4,53.4,183.2,53.4,181.7z"/>
		<path class="st4" d="M57.8,185.3h-1.4v-5.9h-0.8v-1.3h0.8v-2.7h1.4v2.7h1.4v1.3h-1.4V185.3z"/>
		<path class="st4" d="M61.5,174.9c0,0.5-0.4,0.9-1,0.9c-0.5,0-1-0.4-1-0.9c0-0.5,0.4-1,1-1C61.1,173.9,61.5,174.3,61.5,174.9z
			 M61.3,185.3h-1.4v-7.2h1.4V185.3z"/>
		<path class="st4" d="M64.6,179.1L64.6,179.1c0.5-0.8,1.3-1.2,2.2-1.2c2,0,2.5,1.4,2.5,3.1v4.3h-1.4v-4.1c0-1.2-0.2-2.1-1.6-2.1
			c-1.8,0-1.8,1.6-1.8,2.9v3.3h-1.4v-7.2h1.4V179.1z"/>
		<path class="st4" d="M77.6,185.2c0,2.5-0.7,4.3-3.5,4.3c-2,0-3.4-1.2-3.5-3.3H72c0,1.3,0.9,2,2.1,2c1.7,0,2.1-1.2,2.1-2.6v-1.4h0
			c-0.6,0.8-1.4,1.4-2.4,1.4c-2.2,0-3.4-1.8-3.4-3.9c0-2,1.3-3.8,3.4-3.8c1.1,0,1.9,0.6,2.5,1.4h0v-1.2h1.4V185.2z M76.3,181.7
			c0-1.4-0.8-2.6-2.3-2.6c-1.4,0-2.3,1.2-2.3,2.6c0,1.4,0.8,2.6,2.3,2.6C75.5,184.4,76.3,183.2,76.3,181.7z"/>
		<path class="st4" d="M85.7,182.7l2.1-5l2.1,5l2.1-4.6h1.6l-3.7,7.4l-2.1-4.8l-2.1,4.8l-3.7-7.4h1.6L85.7,182.7z"/>
		<path class="st4" d="M95.9,174.9c0,0.5-0.4,0.9-1,0.9c-0.5,0-1-0.4-1-0.9c0-0.5,0.4-1,1-1C95.5,173.9,95.9,174.3,95.9,174.9z
			 M95.6,185.3h-1.4v-7.2h1.4V185.3z"/>
		<path class="st4" d="M99.1,185.3h-1.4v-5.9H97v-1.3h0.8v-2.7h1.4v2.7h1.4v1.3h-1.4V185.3z"/>
		<path class="st4" d="M102.3,172v7.1h0c0.4-0.8,1.3-1.2,2.2-1.2c2,0,2.5,1.4,2.5,3.1v4.3h-1.4v-4.1c0-1.2-0.2-2.1-1.6-2.1
			c-1.8,0-1.8,1.6-1.8,2.9v3.3h-1.4V172H102.3z"/>
		<path class="st4" d="M119.8,181.8c0,2.2-1.7,3.8-3.8,3.8s-3.8-1.7-3.8-3.8c0-2.2,1.7-3.8,3.8-3.8S119.8,179.6,119.8,181.8z
			 M113.5,181.8c0,1.4,1.1,2.5,2.5,2.5s2.5-1.2,2.5-2.5c0-1.4-1.1-2.5-2.5-2.5S113.5,180.4,113.5,181.8z"/>
		<path class="st4" d="M122.3,185.3h-1.4v-5.9h-0.8v-1.3h0.8v-2.7h1.4v2.7h1.4v1.3h-1.4V185.3z"/>
		<path class="st4" d="M125.5,172v7.1h0c0.4-0.8,1.3-1.2,2.2-1.2c2,0,2.5,1.4,2.5,3.1v4.3h-1.4v-4.1c0-1.2-0.2-2.1-1.6-2.1
			c-1.8,0-1.8,1.6-1.8,2.9v3.3h-1.4V172H125.5z"/>
		<path class="st4" d="M132.7,182c0,1.2,0.8,2.4,2.2,2.4c1.1,0,1.6-0.5,2.1-1.4l1.2,0.7c-0.7,1.2-1.9,2-3.3,2
			c-2.2,0-3.5-1.7-3.5-3.8c0-2.2,1.2-3.9,3.5-3.9c2.3,0,3.4,1.7,3.4,3.8v0.2H132.7z M136.8,180.9c-0.2-1.1-0.9-1.8-2-1.8
			c-1.1,0-1.9,0.8-2,1.8H136.8z"/>
		<path class="st4" d="M140.5,179.3L140.5,179.3c0.4-0.8,1.1-1.4,2-1.4c0.4,0,0.8,0.1,1.1,0.4l-0.6,1.3c-0.2-0.2-0.5-0.3-0.8-0.3
			c-1.5,0-1.7,1.4-1.7,2.5v3.5h-1.4v-7.2h1.4V179.3z"/>
		<path class="st4" d="M153.6,184.2L153.6,184.2c-0.6,0.8-1.5,1.4-2.5,1.4c-2.2,0-3.4-1.8-3.4-3.9c0-2,1.3-3.8,3.4-3.8
			c1.1,0,1.9,0.6,2.5,1.4h0V172h1.4v13.3h-1.4V184.2z M153.7,181.7c0-1.4-0.8-2.6-2.3-2.6c-1.4,0-2.3,1.2-2.3,2.6
			c0,1.4,0.8,2.6,2.3,2.6C152.8,184.4,153.7,183.2,153.7,181.7z"/>
		<path class="st4" d="M157.3,182c0,1.2,0.8,2.4,2.2,2.4c1.1,0,1.6-0.5,2.1-1.4l1.2,0.7c-0.7,1.2-1.9,2-3.3,2
			c-2.2,0-3.5-1.7-3.5-3.8c0-2.2,1.2-3.9,3.5-3.9c2.3,0,3.4,1.7,3.4,3.8v0.2H157.3z M161.4,180.9c-0.2-1.1-0.9-1.8-2-1.8
			c-1.1,0-1.9,0.8-2,1.8H161.4z"/>
		<path class="st4" d="M164.9,179.3L164.9,179.3c0.6-0.9,1.5-1.4,2.5-1.4c2.1,0,3.4,1.8,3.4,3.8c0,2.1-1.2,3.9-3.4,3.9
			c-1,0-1.9-0.6-2.4-1.4h0v5.2h-1.4v-11.3h1.4V179.3z M169.4,181.7c0-1.4-0.8-2.6-2.3-2.6c-1.4,0-2.3,1.2-2.3,2.6
			c0,1.4,0.8,2.6,2.3,2.6C168.6,184.4,169.4,183.2,169.4,181.7z"/>
		<path class="st4" d="M178.6,185.3h-1.4v-1.1h0c-0.6,0.8-1.4,1.4-2.4,1.4c-2.2,0-3.4-1.8-3.4-3.9c0-2,1.3-3.8,3.4-3.8
			c1.1,0,1.9,0.6,2.5,1.4h0v-1.2h1.4V185.3z M177.3,181.7c0-1.4-0.8-2.6-2.3-2.6c-1.4,0-2.3,1.2-2.3,2.6c0,1.4,0.8,2.6,2.3,2.6
			C176.5,184.4,177.3,183.2,177.3,181.7z"/>
		<path class="st4" d="M181.6,179.3L181.6,179.3c0.4-0.8,1.1-1.4,2-1.4c0.4,0,0.8,0.1,1.1,0.4l-0.6,1.3c-0.2-0.2-0.5-0.3-0.8-0.3
			c-1.5,0-1.7,1.4-1.7,2.5v3.5h-1.4v-7.2h1.4V179.3z"/>
		<path class="st4" d="M187.1,185.3h-1.4v-5.9h-0.8v-1.3h0.8v-2.7h1.4v2.7h1.4v1.3h-1.4V185.3z"/>
		<path class="st4" d="M190.2,179.1L190.2,179.1c0.4-0.6,1.2-1.1,1.9-1.1c0.9,0,1.6,0.5,2.1,1.3c0.4-0.8,1.3-1.3,2.2-1.3
			c1.9,0,2.4,1.5,2.4,3.1v4.3h-1.4v-4.1c0-0.9-0.1-2.1-1.3-2.1c-1.5,0-1.6,1.5-1.6,2.6v3.5h-1.4v-3.8c0-0.9,0-2.4-1.3-2.4
			c-1.5,0-1.6,1.5-1.6,2.6v3.5h-1.4v-7.2h1.4V179.1z"/>
		<path class="st4" d="M201.1,182c0,1.2,0.8,2.4,2.2,2.4c1.1,0,1.6-0.5,2.1-1.4l1.2,0.7c-0.7,1.2-1.9,2-3.3,2
			c-2.2,0-3.5-1.7-3.5-3.8c0-2.2,1.2-3.9,3.5-3.9c2.3,0,3.4,1.7,3.4,3.8v0.2H201.1z M205.2,180.9c-0.2-1.1-0.9-1.8-2-1.8
			c-1.1,0-1.9,0.8-2,1.8H205.2z"/>
		<path class="st4" d="M208.9,179.1L208.9,179.1c0.5-0.8,1.3-1.2,2.2-1.2c2,0,2.5,1.4,2.5,3.1v4.3h-1.4v-4.1c0-1.2-0.2-2.1-1.6-2.1
			c-1.8,0-1.8,1.6-1.8,2.9v3.3h-1.4v-7.2h1.4V179.1z"/>
		<path class="st4" d="M216.8,185.3h-1.4v-5.9h-0.8v-1.3h0.8v-2.7h1.4v2.7h1.4v1.3h-1.4V185.3z"/>
		<path class="st4" d="M221.5,179.8c-0.2-0.4-0.5-0.6-0.9-0.6c-0.4,0-0.8,0.3-0.8,0.7c0,0.6,0.8,0.9,1.7,1.3s1.7,0.9,1.7,2
			c0,1.4-1.1,2.4-2.5,2.4c-1,0-2.1-0.6-2.5-1.6l1.2-0.5c0.3,0.5,0.6,0.9,1.3,0.9c0.6,0,1.1-0.4,1.1-1c0-0.4-0.2-0.6-0.5-0.8
			l-1.4-0.7c-0.8-0.4-1.4-0.8-1.4-1.8c0-1.2,1-2.1,2.1-2.1c0.9,0,1.6,0.5,2,1.3L221.5,179.8z"/>
		<path class="st4" d="M226.3,184.7c0,0.5-0.4,0.9-0.9,0.9s-0.9-0.4-0.9-0.9c0-0.5,0.4-0.9,0.9-0.9S226.3,184.2,226.3,184.7z"/>
		<path class="st4" d="M232.5,173.8h1.4c2.2,0,4.2,0.6,4.2,3.2c0,0.8-0.5,1.8-1.2,2.2v0c1.4,0.2,2.3,1.6,2.3,2.9c0,2.3-2,3.2-4,3.2
			h-2.7V173.8z M233.9,178.9h0.4c1.4,0,2.5-0.3,2.5-1.9c0-1.6-1.1-1.9-2.5-1.9h-0.4V178.9z M233.9,184h1.1c1.3,0,2.7-0.4,2.7-2
			c0-1.6-1.7-2-2.9-2h-0.9V184z"/>
		<path class="st4" d="M241.2,182c0,1.2,0.8,2.4,2.2,2.4c1.1,0,1.6-0.5,2.1-1.4l1.2,0.7c-0.7,1.2-1.9,2-3.3,2
			c-2.2,0-3.5-1.7-3.5-3.8c0-2.2,1.2-3.9,3.5-3.9c2.3,0,3.4,1.7,3.4,3.8v0.2H241.2z M245.3,180.9c-0.2-1.1-0.9-1.8-2-1.8
			c-1.1,0-1.9,0.8-2,1.8H245.3z"/>
		<path class="st4" d="M249,185.3h-1.4V172h1.4V185.3z"/>
		<path class="st4" d="M257.6,181.8c0,2.2-1.7,3.8-3.8,3.8s-3.8-1.7-3.8-3.8c0-2.2,1.7-3.8,3.8-3.8S257.6,179.6,257.6,181.8z
			 M251.4,181.8c0,1.4,1.1,2.5,2.5,2.5s2.5-1.2,2.5-2.5c0-1.4-1.1-2.5-2.5-2.5S251.4,180.4,251.4,181.8z"/>
		<path class="st4" d="M261.1,182.7l2.1-5l2.1,5l2.1-4.6h1.6l-3.7,7.4l-2.1-4.8l-2.1,4.8l-3.7-7.4h1.6L261.1,182.7z"/>
		<path class="st4" d="M280.2,185.3h-1.4v-1.1h0c-0.6,0.8-1.4,1.4-2.4,1.4c-2.2,0-3.4-1.8-3.4-3.9c0-2,1.3-3.8,3.4-3.8
			c1.1,0,1.9,0.6,2.5,1.4h0v-1.2h1.4V185.3z M278.9,181.7c0-1.4-0.8-2.6-2.3-2.6c-1.4,0-2.3,1.2-2.3,2.6c0,1.4,0.8,2.6,2.3,2.6
			C278,184.4,278.9,183.2,278.9,181.7z"/>
		<path class="st4" d="M283.1,179.3L283.1,179.3c0.4-0.8,1.1-1.4,2-1.4c0.4,0,0.8,0.1,1.1,0.4l-0.6,1.3c-0.2-0.2-0.5-0.3-0.8-0.3
			c-1.5,0-1.7,1.4-1.7,2.5v3.5h-1.4v-7.2h1.4V179.3z"/>
		<path class="st4" d="M287.6,182c0,1.2,0.8,2.4,2.2,2.4c1.1,0,1.6-0.5,2.1-1.4l1.2,0.7c-0.7,1.2-1.9,2-3.3,2
			c-2.2,0-3.5-1.7-3.5-3.8c0-2.2,1.2-3.9,3.5-3.9c2.3,0,3.4,1.7,3.4,3.8v0.2H287.6z M291.7,180.9c-0.2-1.1-0.9-1.8-2-1.8
			c-1.1,0-1.9,0.8-2,1.8H291.7z"/>
		<path class="st4" d="M304.8,185.3h-1.4v-1.1h0c-0.6,0.8-1.4,1.4-2.4,1.4c-2.2,0-3.4-1.8-3.4-3.9c0-2,1.3-3.8,3.4-3.8
			c1.1,0,1.9,0.6,2.5,1.4h0v-1.2h1.4V185.3z M303.5,181.7c0-1.4-0.8-2.6-2.3-2.6c-1.4,0-2.3,1.2-2.3,2.6c0,1.4,0.8,2.6,2.3,2.6
			C302.7,184.4,303.5,183.2,303.5,181.7z"/>
		<path class="st4" d="M314,173.4c-0.3-0.1-0.6-0.3-0.9-0.3c-1,0-1,1.2-1,1.9v3.1h1.9v1.3h-1.9v5.9h-1.4v-5.9H310v-1.3h0.6v-3.5
			c0-1.6,0.5-2.8,2.3-2.8c0.3,0,0.7,0.1,1,0.2V173.4z"/>
		<path class="st4" d="M315.1,182c0,1.2,0.8,2.4,2.2,2.4c1.1,0,1.6-0.5,2.1-1.4l1.2,0.7c-0.7,1.2-1.9,2-3.3,2
			c-2.2,0-3.5-1.7-3.5-3.8c0-2.2,1.2-3.9,3.5-3.9c2.3,0,3.4,1.7,3.4,3.8v0.2H315.1z M319.2,180.9c-0.2-1.1-0.9-1.8-2-1.8
			c-1.1,0-1.9,0.8-2,1.8H319.2z"/>
		<path class="st4" d="M324,182.7l2.1-5l2.1,5l2.1-4.6h1.6l-3.7,7.4l-2.1-4.8l-2.1,4.8l-3.7-7.4h1.6L324,182.7z"/>
		<path class="st4" d="M337.9,185.3h-1.4v-5.9h-0.8v-1.3h0.8v-2.7h1.4v2.7h1.4v1.3h-1.4V185.3z"/>
		<path class="st4" d="M338.6,178.2h1.6l2.4,4.6l2.3-4.6h1.6l-5.8,11.3H339l2.8-5.3L338.6,178.2z"/>
		<path class="st4" d="M348.1,179.3L348.1,179.3c0.6-0.9,1.5-1.4,2.5-1.4c2.1,0,3.4,1.8,3.4,3.8c0,2.1-1.2,3.9-3.4,3.9
			c-1,0-1.9-0.6-2.4-1.4h0v5.2h-1.4v-11.3h1.4V179.3z M352.6,181.7c0-1.4-0.8-2.6-2.3-2.6c-1.4,0-2.3,1.2-2.3,2.6
			c0,1.4,0.8,2.6,2.3,2.6C351.8,184.4,352.6,183.2,352.6,181.7z"/>
		<path class="st4" d="M357,174.9c0,0.5-0.4,0.9-1,0.9c-0.5,0-1-0.4-1-0.9c0-0.5,0.4-1,1-1C356.6,173.9,357,174.3,357,174.9z
			 M356.7,185.3h-1.4v-7.2h1.4V185.3z"/>
		<path class="st4" d="M363.9,180.2c-0.6-0.6-1.2-1-2.1-1c-1.4,0-2.4,1.2-2.4,2.5c0,1.5,1,2.5,2.5,2.5c0.8,0,1.4-0.4,2-1v1.8
			c-0.6,0.3-1.3,0.5-2,0.5c-2.1,0-3.9-1.6-3.9-3.8c0-2.2,1.7-3.9,3.9-3.9c0.6,0,1.4,0.2,1.9,0.5V180.2z"/>
		<path class="st4" d="M371.8,185.3h-1.4v-1.1h0c-0.6,0.8-1.4,1.4-2.4,1.4c-2.2,0-3.4-1.8-3.4-3.9c0-2,1.3-3.8,3.4-3.8
			c1.1,0,1.9,0.6,2.5,1.4h0v-1.2h1.4V185.3z M370.5,181.7c0-1.4-0.8-2.6-2.3-2.6c-1.4,0-2.3,1.2-2.3,2.6c0,1.4,0.8,2.6,2.3,2.6
			C369.7,184.4,370.5,183.2,370.5,181.7z"/>
		<path class="st4" d="M374.8,185.3h-1.4V172h1.4V185.3z"/>
		<path class="st4" d="M381.8,179.3L381.8,179.3c0.6-0.9,1.5-1.4,2.5-1.4c2.1,0,3.4,1.8,3.4,3.8c0,2.1-1.2,3.9-3.4,3.9
			c-1,0-1.9-0.6-2.4-1.4h0v5.2h-1.4v-11.3h1.4V179.3z M386.4,181.7c0-1.4-0.8-2.6-2.3-2.6c-1.4,0-2.3,1.2-2.3,2.6
			c0,1.4,0.8,2.6,2.3,2.6C385.5,184.4,386.4,183.2,386.4,181.7z"/>
		<path class="st4" d="M390.3,179.3L390.3,179.3c0.4-0.8,1.1-1.4,2-1.4c0.4,0,0.8,0.1,1.1,0.4l-0.6,1.3c-0.2-0.2-0.5-0.3-0.8-0.3
			c-1.5,0-1.7,1.4-1.7,2.5v3.5h-1.4v-7.2h1.4V179.3z"/>
		<path class="st4" d="M400.9,181.8c0,2.2-1.7,3.8-3.8,3.8s-3.8-1.7-3.8-3.8c0-2.2,1.7-3.8,3.8-3.8S400.9,179.6,400.9,181.8z
			 M394.6,181.8c0,1.4,1.1,2.5,2.5,2.5s2.5-1.2,2.5-2.5c0-1.4-1.1-2.5-2.5-2.5S394.6,180.4,394.6,181.8z"/>
		<path class="st4" d="M403.8,174.9c0,0.5-0.4,0.9-1,0.9c-0.5,0-1-0.4-1-0.9c0-0.5,0.4-1,1-1C403.4,173.9,403.8,174.3,403.8,174.9z
			 M403.5,189.5h-1.4v-11.3h1.4V189.5z"/>
		<path class="st4" d="M406.3,182c0,1.2,0.8,2.4,2.2,2.4c1.1,0,1.6-0.5,2.1-1.4l1.2,0.7c-0.7,1.2-1.9,2-3.3,2
			c-2.2,0-3.5-1.7-3.5-3.8c0-2.2,1.2-3.9,3.5-3.9c2.3,0,3.4,1.7,3.4,3.8v0.2H406.3z M410.4,180.9c-0.2-1.1-0.9-1.8-2-1.8
			c-1.1,0-1.9,0.8-2,1.8H410.4z"/>
		<path class="st4" d="M417.9,180.2c-0.6-0.6-1.2-1-2.1-1c-1.4,0-2.4,1.2-2.4,2.5c0,1.5,1,2.5,2.5,2.5c0.8,0,1.4-0.4,2-1v1.8
			c-0.6,0.3-1.3,0.5-2,0.5c-2.1,0-3.9-1.6-3.9-3.8c0-2.2,1.7-3.9,3.9-3.9c0.6,0,1.4,0.2,1.9,0.5V180.2z"/>
		<path class="st4" d="M420.7,185.3h-1.4v-5.9h-0.8v-1.3h0.8v-2.7h1.4v2.7h1.4v1.3h-1.4V185.3z"/>
		<path class="st4" d="M425.3,179.8c-0.2-0.4-0.5-0.6-0.9-0.6c-0.4,0-0.8,0.3-0.8,0.7c0,0.6,0.8,0.9,1.7,1.3c0.8,0.4,1.7,0.9,1.7,2
			c0,1.4-1.1,2.4-2.5,2.4c-1,0-2.1-0.6-2.5-1.6l1.2-0.5c0.3,0.5,0.6,0.9,1.3,0.9c0.6,0,1.1-0.4,1.1-1c0-0.4-0.2-0.6-0.5-0.8
			l-1.4-0.7c-0.8-0.4-1.4-0.8-1.4-1.8c0-1.2,1-2.1,2.1-2.1c0.9,0,1.6,0.5,2,1.3L425.3,179.8z"/>
		<path class="st4" d="M430.2,184.7c0,0.5-0.4,0.9-0.9,0.9s-0.9-0.4-0.9-0.9c0-0.5,0.4-0.9,0.9-0.9S430.2,184.2,430.2,184.7z"/>
	</g>
</g>
</svg>
