<?xml version="1.0" encoding="utf-8"?>
<!-- Generator: Adobe Illustrator 19.0.1, SVG Export Plug-In . SVG Version: 6.00 Build 0)  -->
<svg version="1.1" xmlns="http://www.w3.org/2000/svg" xmlns:xlink="http://www.w3.org/1999/xlink" x="0px" y="0px"
	 viewBox="0 0 118.4 12.3" style="enable-background:new 0 0 118.4 12.3;" xml:space="preserve">
<style type="text/css">
	.st0{display:none;}
	.st1{display:inline;fill:#FFFFFF;}
	.st2{fill:#FFFFFF;}
	.st3{fill:#3399CC;}
	.st4{fill:#231F20;}
</style>
<g id="Layer_1" class="st0">
	<rect x="-290.4" y="-57.8" class="st1" width="1280" height="875.8"/>
</g>
<g id="Layer_2">
	<g>
		<path d="M3,12H0V0.4h3V12z"/>
		<path d="M7.7,0.4h3l5.5,7.1h0V0.4h3V12h-3l-5.5-7.1h0V12h-3V0.4z"/>
		<path d="M30.4,3.4c-0.6-0.5-1.3-0.8-2-0.8c-0.6,0-1.3,0.3-1.3,1c0,0.7,0.8,0.9,1.3,1.1l0.8,0.2C30.8,5.4,32,6.2,32,8.1
			c0,1.2-0.3,2.3-1.2,3.1c-0.9,0.8-2.1,1.1-3.3,1.1c-1.5,0-2.9-0.5-4.1-1.3l1.3-2.4c0.8,0.7,1.6,1.2,2.7,1.2c0.7,0,1.5-0.4,1.5-1.2
			c0-0.8-1.2-1.1-1.8-1.3C25.2,6.7,24,6.2,24,4c0-2.3,1.7-3.9,4-3.9c1.2,0,2.6,0.4,3.6,1L30.4,3.4z"/>
		<path d="M40.8,12h-3v-9h-2.5V0.4h8v2.5h-2.5V12z"/>
		<path d="M49.2,9.9l-0.8,2h-3.2l4.5-11.6h3.3L57.3,12h-3.2l-0.8-2H49.2z M51.3,4L51.3,4L50,7.6h2.5L51.3,4z"/>
		<path d="M72.5,5.5c0,1.7-0.2,3.1-1.2,4.6c-1.1,1.6-2.8,2.3-4.8,2.3c-3.6,0-6.2-2.5-6.2-6.1C60.4,2.5,63,0,66.7,0
			c2.4,0,4.2,1.1,5.2,3.2l-2.9,1.2c-0.4-1.1-1.3-1.8-2.5-1.8c-2,0-3,1.9-3,3.7c0,1.8,1.1,3.6,3.1,3.6c1.3,0,2.3-0.7,2.4-2h-2.5V5.5
			H72.5z"/>
		<path d="M86.3,12h-3.7l-2.8-4.5h0V12h-3V0.4h4.5c2.3,0,4,1.1,4,3.6c0,1.6-0.9,3-2.5,3.3L86.3,12z M79.7,5.6H80
			c1,0,2.1-0.2,2.1-1.4S81,2.7,80,2.7h-0.3V5.6z"/>
		<path d="M92.8,9.9L92,12h-3.2l4.5-11.6h3.3l4.4,11.6h-3.2l-0.8-2H92.8z M94.9,4L94.9,4l-1.3,3.7h2.5L94.9,4z"/>
		<path d="M105.9,0.4h3l2.3,6.2l2.5-6.2h3l1.8,11.6h-3l-0.8-6.7h0l-2.8,6.7h-1.2l-2.7-6.7h0l-1,6.7h-3L105.9,0.4z"/>
	</g>
</g>
</svg>
