<?xml version="1.0" encoding="utf-8"?>
<!-- Generator: Adobe Illustrator 19.0.1, SVG Export Plug-In . SVG Version: 6.00 Build 0)  -->
<svg version="1.1" xmlns="http://www.w3.org/2000/svg" xmlns:xlink="http://www.w3.org/1999/xlink" x="0px" y="0px"
	 viewBox="0 0 178.3 12.3" style="enable-background:new 0 0 178.3 12.3;" xml:space="preserve">
<style type="text/css">
	.st0{display:none;}
	.st1{display:inline;fill:#FFFFFF;}
	.st2{fill:#FFFFFF;}
	.st3{fill:#3399CC;}
	.st4{fill:#231F20;}
</style>
<g id="Layer_1" class="st0">
	<rect x="-289.8" y="-59.1" class="st1" width="1280" height="1903.2"/>
</g>
<g id="Layer_2">
	<g>
		<path d="M2,0.4h3l2.3,6.2l2.5-6.2h3L14.5,12h-3l-0.8-6.7h0L7.8,12H6.6L4,5.3h0L3,12H0L2,0.4z"/>
		<path d="M30.8,6c0,3.7-2.7,6.4-6.4,6.4S18,9.7,18,6c0-3.5,3.1-6,6.4-6S30.8,2.5,30.8,6z M21.1,6c0,2,1.5,3.5,3.3,3.5
			S27.6,8,27.6,6c0-1.6-1.5-3.1-3.3-3.1S21.1,4.4,21.1,6z"/>
		<path d="M34.9,12V0.4h4.3c2.1,0,3.4,0.8,3.4,3c0,1-0.3,1.9-1.3,2.4v0C43,6,43.7,7.1,43.7,8.7c0,2.4-2.1,3.2-4.2,3.2H34.9z
			 M37.9,4.9h0.3c0.8,0,1.6-0.1,1.6-1.1c0-1.1-0.9-1.1-1.8-1.1h-0.2V4.9z M37.9,9.7h0.4c0.9,0,2.4,0,2.4-1.2c0-1.4-1.5-1.3-2.5-1.3
			h-0.3V9.7z"/>
		<path d="M51.1,12h-3V0.4h3V12z"/>
		<path d="M58.8,9.4h3.6V12h-6.6V0.4h3V9.4z"/>
		<path d="M69.2,2.9v1.9h3.4v2.5h-3.4v2h3.6V12h-6.6V0.4h6.6v2.5H69.2z"/>
		<path d="M85.4,12V0.4h4.3c2.1,0,3.4,0.8,3.4,3c0,1-0.3,1.9-1.3,2.4v0c1.7,0.2,2.4,1.3,2.4,2.9c0,2.4-2.1,3.2-4.2,3.2H85.4z
			 M88.4,4.9h0.3c0.8,0,1.6-0.1,1.6-1.1c0-1.1-0.9-1.1-1.8-1.1h-0.2V4.9z M88.4,9.7h0.4c0.9,0,2.4,0,2.4-1.2c0-1.4-1.5-1.3-2.5-1.3
			h-0.3V9.7z"/>
		<path d="M101.5,9.9l-0.8,2h-3.2l4.5-11.6h3.3l4.4,11.6h-3.2l-0.8-2H101.5z M103.6,4L103.6,4l-1.3,3.7h2.5L103.6,4z"/>
		<path d="M113.3,0.4h3l5.5,7.1h0V0.4h3V12h-3l-5.5-7.1h0V12h-3V0.4z"/>
		<path d="M129.6,0.4h3l5.5,7.1h0V0.4h3V12h-3l-5.5-7.1h0V12h-3V0.4z"/>
		<path d="M148.9,2.9v1.9h3.4v2.5h-3.4v2h3.6V12h-6.6V0.4h6.6v2.5H148.9z"/>
		<path d="M166.7,12h-3.7l-2.8-4.5h0V12h-3V0.4h4.5c2.3,0,4,1.1,4,3.6c0,1.6-0.9,3-2.5,3.3L166.7,12z M160.1,5.6h0.3
			c1,0,2.1-0.2,2.1-1.4s-1.1-1.4-2.1-1.4h-0.3V5.6z"/>
		<path d="M176.6,3.4c-0.6-0.5-1.3-0.8-2-0.8c-0.6,0-1.3,0.3-1.3,1c0,0.7,0.8,0.9,1.3,1.1l0.8,0.2c1.6,0.5,2.9,1.3,2.9,3.2
			c0,1.2-0.3,2.3-1.2,3.1c-0.9,0.8-2.1,1.1-3.3,1.1c-1.5,0-2.9-0.5-4.1-1.3l1.3-2.4c0.8,0.7,1.6,1.2,2.7,1.2c0.7,0,1.5-0.4,1.5-1.2
			c0-0.8-1.2-1.1-1.8-1.3c-1.9-0.5-3.1-1-3.1-3.3c0-2.3,1.7-3.9,4-3.9c1.2,0,2.6,0.4,3.6,1L176.6,3.4z"/>
	</g>
</g>
</svg>
