<?xml version="1.0" encoding="utf-8"?>
<!-- Generator: Adobe Illustrator 19.0.1, SVG Export Plug-In . SVG Version: 6.00 Build 0)  -->
<svg version="1.1" xmlns="http://www.w3.org/2000/svg" xmlns:xlink="http://www.w3.org/1999/xlink" x="0px" y="0px"
	 viewBox="0 0 1192.9 143.3" style="enable-background:new 0 0 1192.9 143.3;" xml:space="preserve">
<style type="text/css">
	.st0{fill:#FFFFFF;}
	.st1{fill:#392C3E;}
	.st2{fill:#382C3D;}
	.st3{fill:#3399CC;}
	.st4{fill:#CDCBCA;}
	.st5{fill-rule:evenodd;clip-rule:evenodd;fill:#CDCBCA;}
	.st6{fill-rule:evenodd;clip-rule:evenodd;fill:#392C3E;}
	.st7{fill:none;stroke:#CDCBCA;stroke-width:1.3323;stroke-miterlimit:10;}
	.st8{clip-path:url(#SVGID_4_);}
	.st9{fill-rule:evenodd;clip-rule:evenodd;fill:#989898;}
	.st10{fill-rule:evenodd;clip-rule:evenodd;fill:#FFFFFF;}
	.st11{fill:#979797;}
	.st12{opacity:0.67;}
	.st13{fill:#EFEFEF;}
	.st14{opacity:0.78;}
	.st15{fill-rule:evenodd;clip-rule:evenodd;fill:#998881;}
	.st16{fill:#998881;}
	.st17{fill:#FF9966;}
	.st18{fill:#231F20;}
</style>
<g id="Layer_1">
</g>
<g id="Layer_2">
	<g>
		<circle cx="336.3" cy="129.2" r="5.1"/>
		<circle cx="733.3" cy="129.2" r="5.1"/>
		<g>
			<path d="M41.1,62.8h0.2L60.7,3.1h19.1L98,62.8h0.2l17.4-59.8h25l-29.6,92.5H86.6L70.4,42h-0.2L52,95.6H27.6L0,3.1h25L41.1,62.8z"
				/>
			<path d="M136.6,3.1h28.8l17.3,25.2L200,3.1h28.8l-34.1,48.1v44.4h-24.1V51.2L136.6,3.1z"/>
			<path d="M234.4,3.1h24.1l44.1,56.6h0.2V3.1h24.1v92.5h-24.1l-44.1-56.7h-0.2v56.7h-24.1V3.1z"/>
			<path d="M342.5,3.1h24.1l44.1,56.6h0.2V3.1h24.1v92.5h-24.1l-44.1-56.7h-0.2v56.7h-24.1V3.1z"/>
			<path d="M516.8,75.2h28.8v20.4h-52.9V3.1h24.1V75.2z"/>
			<path d="M577,79.5l-6.4,16.1h-25.5l35.6-92.5h26.3l34.9,92.5h-25.6l-6-16.1H577z M593.8,31.7h-0.2l-9.9,29.5h20L593.8,31.7z"/>
			<path d="M700.1,26.9c-4.4-3.7-10.1-6.1-16-6.1c-4.4,0-10.3,2.6-10.3,7.7c0,5.4,6.5,7.5,10.7,8.8l6.1,1.8
				c12.9,3.8,22.8,10.3,22.8,25.3c0,9.2-2.2,18.7-9.6,24.9c-7.2,6.1-16.9,8.7-26.3,8.7c-11.7,0-23.1-3.9-32.5-10.6l10.3-19.4
				c6,5.3,13.1,9.6,21.4,9.6c5.6,0,11.7-2.8,11.7-9.3c0-6.7-9.4-9.1-14.6-10.6c-15.1-4.3-25-8.2-25-26.1c0-18.8,13.4-31,31.9-31
				c9.3,0,20.7,2.9,29,7.6L700.1,26.9z"/>
			<path d="M805.7,59.3l22.5-56.2h26.1l-39.5,92.5h-18.7L757.3,3.1h26.1L805.7,59.3z"/>
			<path d="M884.4,23.4v15.5h27.1v20.4h-27.1v16H913v20.4h-52.6V3.1H913v20.4H884.4z"/>
			<path d="M1020.1,43.9c-0.2,13.5-1.2,25-9.4,36.6c-9.1,12.6-22.7,18.2-38.2,18.2c-29.1,0-49.3-19.8-49.3-48.8
				c0-30.1,20.4-49.8,50.2-49.8c19,0,33.7,8.6,41.7,25.9l-22.8,9.6c-3.3-8.8-10.3-14.7-20-14.7c-15.8,0-24.1,15.1-24.1,29.2
				c0,14.4,8.6,29,24.4,29c10.4,0,18.4-5.4,19.4-16.1h-19.6V43.9H1020.1z"/>
			<path d="M1054.7,79.5l-6.4,16.1h-25.5l35.6-92.5h26.3l34.9,92.5h-25.6l-6-16.1H1054.7z M1071.5,31.7h-0.2l-9.9,29.5h20
				L1071.5,31.7z"/>
			<path d="M1177.8,26.9c-4.4-3.7-10.1-6.1-16-6.1c-4.4,0-10.3,2.6-10.3,7.7c0,5.4,6.5,7.5,10.7,8.8l6.1,1.8
				c12.9,3.8,22.8,10.3,22.8,25.3c0,9.2-2.2,18.7-9.6,24.9c-7.2,6.1-16.9,8.7-26.3,8.7c-11.7,0-23.1-3.9-32.5-10.6l10.3-19.4
				c6,5.3,13.1,9.6,21.4,9.6c5.6,0,11.7-2.8,11.7-9.3c0-6.7-9.4-9.1-14.6-10.6c-15.1-4.3-25-8.2-25-26.1c0-18.8,13.4-31,31.9-31
				c9.3,0,20.7,2.9,29,7.6L1177.8,26.9z"/>
		</g>
		<g>
			<path d="M7.4,129.8c0,2.2,1.5,4.3,3.9,4.3c1.9,0,2.9-1,3.9-2.5l2.1,1.2c-1.2,2.2-3.5,3.5-6,3.5c-4,0-6.4-3-6.4-6.8
				c0-4,2.1-7,6.3-7c4.1,0,6.1,3,6.1,6.9v0.4H7.4z M14.8,127.9c-0.3-1.9-1.6-3.2-3.6-3.2c-1.9,0-3.4,1.4-3.7,3.2H14.8z"/>
			<path d="M27.4,124.7L27.4,124.7c0.8-1.4,2.4-2.1,4-2.1c3.7,0,4.6,2.5,4.6,5.6v7.7h-2.5v-7.4c0-2.2-0.3-3.7-2.9-3.7
				c-3.2,0-3.2,2.8-3.2,5.2v6h-2.5v-13h2.5V124.7z"/>
			<path d="M54.5,126.6c-1-1.1-2.2-1.7-3.7-1.7c-2.4,0-4.3,2.2-4.3,4.5c0,2.7,1.9,4.6,4.5,4.6c1.4,0,2.6-0.7,3.5-1.7v3.2
				c-1.1,0.6-2.3,0.9-3.6,0.9c-3.8,0-7-2.9-7-6.8c0-4,3.1-7,7.1-7c1.2,0,2.4,0.3,3.4,0.9V126.6z"/>
			<path d="M75.4,129.4c0,3.9-3,6.9-6.9,6.9s-6.9-3-6.9-6.9c0-3.9,3-6.9,6.9-6.9S75.4,125.5,75.4,129.4z M64.1,129.4
				c0,2.4,2,4.5,4.4,4.5s4.4-2.1,4.4-4.5c0-2.5-2-4.5-4.4-4.5S64.1,127,64.1,129.4z"/>
			<path d="M85.9,125L85.9,125c0.7-1.5,2-2.5,3.6-2.5c0.7,0,1.4,0.2,2.1,0.6l-1.1,2.3c-0.4-0.4-0.9-0.5-1.5-0.5c-2.7,0-3,2.5-3,4.6
				v6.4h-2.5v-13h2.5V125z"/>
			<path d="M100,129.8c0,2.2,1.5,4.3,3.9,4.3c1.9,0,2.9-1,3.9-2.5l2.1,1.2c-1.2,2.2-3.5,3.5-6,3.5c-4,0-6.4-3-6.4-6.8
				c0-4,2.1-7,6.3-7c4.1,0,6.1,3,6.1,6.9v0.4H100z M107.4,127.9c-0.3-1.9-1.6-3.2-3.6-3.2c-1.9,0-3.4,1.4-3.7,3.2H107.4z"/>
			<path d="M130.9,111.8h2.5v13.2h0.1c1-1.6,2.6-2.5,4.5-2.5c3.7,0,6.1,3.2,6.1,6.8c0,3.7-2.2,7-6.2,7c-1.8,0-3.4-1-4.4-2.5h-0.1v2
				h-2.5V111.8z M141.6,129.4c0-2.5-1.5-4.7-4.2-4.7c-2.6,0-4.1,2.2-4.1,4.7c0,2.4,1.5,4.7,4.1,4.7
				C140.1,134.1,141.6,132,141.6,129.4z"/>
			<path d="M153.6,129.8c0,2.2,1.5,4.3,3.9,4.3c1.9,0,2.9-1,3.9-2.5l2.1,1.2c-1.2,2.2-3.5,3.5-6,3.5c-4,0-6.4-3-6.4-6.8
				c0-4,2.1-7,6.3-7c4.1,0,6.1,3,6.1,6.9v0.4H153.6z M161,127.9c-0.3-1.9-1.6-3.2-3.6-3.2c-1.9,0-3.4,1.4-3.7,3.2H161z"/>
			<path d="M183.3,135.9h-2.5v-2h-0.1c-1,1.5-2.5,2.5-4.4,2.5c-4,0-6.2-3.3-6.2-7c0-3.5,2.4-6.8,6.1-6.8c1.9,0,3.5,1,4.5,2.5h0.1
				v-2.2h2.5V135.9z M180.9,129.4c0-2.5-1.5-4.7-4.2-4.7c-2.6,0-4.1,2.2-4.1,4.7c0,2.4,1.5,4.7,4.1,4.7
				C179.4,134.1,180.9,132,180.9,129.4z"/>
			<path d="M201.6,126.6c-1-1.1-2.2-1.7-3.7-1.7c-2.4,0-4.3,2.2-4.3,4.5c0,2.7,1.9,4.6,4.5,4.6c1.4,0,2.6-0.7,3.5-1.7v3.2
				c-1.1,0.6-2.3,0.9-3.6,0.9c-3.8,0-7-2.9-7-6.8c0-4,3.1-7,7.1-7c1.2,0,2.4,0.3,3.4,0.9V126.6z"/>
			<path d="M212.3,111.8v12.8h0.1c0.8-1.4,2.3-2.1,3.9-2.1c3.7,0,4.6,2.5,4.6,5.6v7.7h-2.5v-7.4c0-2.2-0.3-3.7-2.9-3.7
				c-3.2,0-3.2,2.8-3.2,5.2v6h-2.5v-24.1H212.3z"/>
			<path d="M253,126.6c-1-1.1-2.2-1.7-3.7-1.7c-2.4,0-4.3,2.2-4.3,4.5c0,2.7,1.9,4.6,4.5,4.6c1.4,0,2.6-0.7,3.5-1.7v3.2
				c-1.1,0.6-2.3,0.9-3.6,0.9c-3.8,0-7-2.9-7-6.8c0-4,3.1-7,7.1-7c1.2,0,2.4,0.3,3.4,0.9V126.6z"/>
			<path d="M263.8,135.9h-2.5v-24.1h2.5V135.9z"/>
			<path d="M275.3,122.9v7.2c0,2.1,0.5,3.9,3,3.9s3-1.8,3-3.9v-7.2h2.5v7.5c0,3.5-1.7,6-5.5,6s-5.5-2.4-5.5-6v-7.5H275.3z"/>
			<path d="M292.4,111.8h2.5v13.2h0.1c1-1.6,2.6-2.5,4.5-2.5c3.7,0,6.1,3.2,6.1,6.8c0,3.7-2.2,7-6.2,7c-1.8,0-3.4-1-4.4-2.5h-0.1v2
				h-2.5V111.8z M303.1,129.4c0-2.5-1.5-4.7-4.2-4.7c-2.6,0-4.1,2.2-4.1,4.7c0,2.4,1.5,4.7,4.1,4.7
				C301.6,134.1,303.1,132,303.1,129.4z"/>
			<path d="M373,125.9c-0.3-0.6-0.9-1.1-1.7-1.1c-0.7,0-1.4,0.6-1.4,1.3c0,1.1,1.5,1.6,3,2.3c1.5,0.7,3,1.6,3,3.7
				c0,2.5-2.1,4.3-4.5,4.3c-1.9,0-3.8-1.1-4.5-2.9l2.1-1c0.5,1,1.2,1.7,2.4,1.7c1.1,0,2-0.7,2-1.8c0-0.7-0.3-1-0.9-1.4l-2.4-1.3
				c-1.4-0.8-2.5-1.5-2.5-3.3c0-2.1,1.7-3.8,3.8-3.8c1.6,0,2.9,0.9,3.5,2.3L373,125.9z"/>
			<path d="M386.3,122.9v7.2c0,2.1,0.5,3.9,3,3.9s3-1.8,3-3.9v-7.2h2.5v7.5c0,3.5-1.7,6-5.5,6s-5.5-2.4-5.5-6v-7.5H386.3z"/>
			<path d="M406.3,125L406.3,125c0.7-1.5,2-2.5,3.6-2.5c0.7,0,1.4,0.2,2.1,0.6l-1.1,2.3c-0.4-0.4-0.9-0.5-1.5-0.5
				c-2.7,0-3,2.5-3,4.6v6.4h-2.5v-13h2.5V125z"/>
			<path d="M421.6,125L421.6,125c0.7-1.5,2-2.5,3.6-2.5c0.7,0,1.4,0.2,2.1,0.6l-1.1,2.3c-0.4-0.4-0.9-0.5-1.5-0.5
				c-2.7,0-3,2.5-3,4.6v6.4h-2.5v-13h2.5V125z"/>
			<path d="M435.7,129.8c0,2.2,1.5,4.3,3.9,4.3c1.9,0,2.9-1,3.9-2.5l2.1,1.2c-1.2,2.2-3.5,3.5-6,3.5c-4,0-6.4-3-6.4-6.8
				c0-4,2.1-7,6.3-7c4.1,0,6.1,3,6.1,6.9v0.4H435.7z M443.1,127.9c-0.3-1.9-1.6-3.2-3.6-3.2c-1.9,0-3.4,1.4-3.7,3.2H443.1z"/>
			<path d="M455.8,124.7L455.8,124.7c0.8-1.4,2.4-2.1,4-2.1c3.7,0,4.6,2.5,4.6,5.6v7.7h-2.5v-7.4c0-2.2-0.3-3.7-2.9-3.7
				c-3.2,0-3.2,2.8-3.2,5.2v6h-2.5v-13h2.5V124.7z"/>
			<path d="M483,133.9L483,133.9c-1.1,1.5-2.6,2.5-4.5,2.5c-4,0-6.2-3.3-6.2-7c0-3.5,2.4-6.8,6.1-6.8c1.9,0,3.5,1,4.5,2.5h0.1v-13.2
				h2.5v24.1H483V133.9z M483.1,129.4c0-2.5-1.5-4.7-4.2-4.7c-2.6,0-4.1,2.2-4.1,4.7c0,2.4,1.5,4.7,4.1,4.7
				C481.6,134.1,483.1,132,483.1,129.4z"/>
			<path d="M495.8,129.8c0,2.2,1.5,4.3,3.9,4.3c1.9,0,2.9-1,3.9-2.5l2.1,1.2c-1.2,2.2-3.5,3.5-6,3.5c-4,0-6.4-3-6.4-6.8
				c0-4,2.1-7,6.3-7c4.1,0,6.1,3,6.1,6.9v0.4H495.8z M503.1,127.9c-0.3-1.9-1.6-3.2-3.6-3.2c-1.9,0-3.4,1.4-3.7,3.2H503.1z"/>
			<path d="M516,125L516,125c0.7-1.5,2-2.5,3.6-2.5c0.7,0,1.4,0.2,2.1,0.6l-1.1,2.3c-0.4-0.4-0.9-0.5-1.5-0.5c-2.7,0-3,2.5-3,4.6
				v6.4h-2.5v-13h2.5V125z"/>
			<path d="M544.6,124.7L544.6,124.7c0.8-1.4,2.4-2.1,4-2.1c3.7,0,4.6,2.5,4.6,5.6v7.7h-2.5v-7.4c0-2.2-0.3-3.7-2.9-3.7
				c-3.2,0-3.2,2.8-3.2,5.2v6h-2.5v-13h2.5V124.7z"/>
			<path d="M565.7,117c0,0.9-0.8,1.7-1.7,1.7c-0.9,0-1.7-0.7-1.7-1.7c0-1,0.8-1.7,1.7-1.7C564.9,115.2,565.7,116,565.7,117z
				 M565.2,135.9h-2.5v-13h2.5V135.9z"/>
			<path d="M586.9,135.6c0,4.5-1.3,7.7-6.3,7.7c-3.6,0-6.2-2.2-6.3-5.9h2.5c0,2.3,1.6,3.7,3.9,3.7c3.1,0,3.7-2.1,3.7-4.8v-2.5h-0.1
				c-1,1.5-2.6,2.5-4.4,2.5c-4,0-6.2-3.3-6.2-7c0-3.5,2.4-6.8,6.1-6.8c1.9,0,3.5,1,4.5,2.6h0.1v-2.2h2.5V135.6z M584.5,129.4
				c0-2.5-1.5-4.7-4.2-4.7c-2.6,0-4.1,2.2-4.1,4.7c0,2.4,1.5,4.7,4.1,4.7C583,134.1,584.5,132,584.5,129.4z"/>
			<path d="M598.2,111.8v12.8h0.1c0.8-1.4,2.3-2.1,3.9-2.1c3.7,0,4.6,2.5,4.6,5.6v7.7h-2.5v-7.4c0-2.2-0.3-3.7-2.9-3.7
				c-3.2,0-3.2,2.8-3.2,5.2v6h-2.5v-24.1H598.2z"/>
			<path d="M618.6,135.9h-2.5v-10.6h-1.4v-2.3h1.4v-5h2.5v5h2.4v2.3h-2.4V135.9z"/>
			<path d="M651,126.6c-1-1.1-2.2-1.7-3.7-1.7c-2.4,0-4.3,2.2-4.3,4.5c0,2.7,1.9,4.6,4.5,4.6c1.4,0,2.6-0.7,3.5-1.7v3.2
				c-1.1,0.6-2.3,0.9-3.6,0.9c-3.8,0-7-2.9-7-6.8c0-4,3.1-7,7.1-7c1.2,0,2.4,0.3,3.4,0.9V126.6z"/>
			<path d="M661.8,135.9h-2.5v-24.1h2.5V135.9z"/>
			<path d="M673.3,122.9v7.2c0,2.1,0.5,3.9,3,3.9s3-1.8,3-3.9v-7.2h2.5v7.5c0,3.5-1.7,6-5.5,6s-5.5-2.4-5.5-6v-7.5H673.3z"/>
			<path d="M690.4,111.8h2.5v13.2h0.1c1-1.6,2.6-2.5,4.5-2.5c3.7,0,6.1,3.2,6.1,6.8c0,3.7-2.2,7-6.2,7c-1.8,0-3.4-1-4.4-2.5h-0.1v2
				h-2.5V111.8z M701.1,129.4c0-2.5-1.5-4.7-4.2-4.7c-2.6,0-4.1,2.2-4.1,4.7c0,2.4,1.5,4.7,4.1,4.7
				C699.6,134.1,701.1,132,701.1,129.4z"/>
			<path d="M777.9,135.9h-2.5v-2h-0.1c-1,1.5-2.5,2.5-4.4,2.5c-4,0-6.2-3.3-6.2-7c0-3.5,2.4-6.8,6.1-6.8c1.9,0,3.5,1,4.5,2.5h0.1
				v-2.2h2.5V135.9z M775.6,129.4c0-2.5-1.5-4.7-4.2-4.7c-2.6,0-4.1,2.2-4.1,4.7c0,2.4,1.5,4.7,4.1,4.7
				C774.1,134.1,775.6,132,775.6,129.4z"/>
			<path d="M789.2,124.7L789.2,124.7c0.8-1.4,2.4-2.1,4-2.1c3.7,0,4.6,2.5,4.6,5.6v7.7h-2.5v-7.4c0-2.2-0.3-3.7-2.9-3.7
				c-3.2,0-3.2,2.8-3.2,5.2v6h-2.5v-13h2.5V124.7z"/>
			<path d="M816.4,133.9L816.4,133.9c-1.1,1.5-2.6,2.5-4.5,2.5c-4,0-6.2-3.3-6.2-7c0-3.5,2.4-6.8,6.1-6.8c1.9,0,3.5,1,4.5,2.5h0.1
				v-13.2h2.5v24.1h-2.5V133.9z M816.6,129.4c0-2.5-1.5-4.7-4.2-4.7c-2.6,0-4.1,2.2-4.1,4.7c0,2.4,1.5,4.7,4.1,4.7
				C815.1,134.1,816.6,132,816.6,129.4z"/>
			<path d="M830.4,125L830.4,125c0.7-1.5,2-2.5,3.6-2.5c0.7,0,1.4,0.2,2.1,0.6l-1.1,2.3c-0.4-0.4-0.9-0.5-1.5-0.5
				c-2.7,0-3,2.5-3,4.6v6.4h-2.5v-13h2.5V125z"/>
			<path d="M844.5,129.8c0,2.2,1.5,4.3,3.9,4.3c1.9,0,2.9-1,3.9-2.5l2.1,1.2c-1.2,2.2-3.5,3.5-6,3.5c-4,0-6.4-3-6.4-6.8
				c0-4,2.1-7,6.3-7c4.1,0,6.1,3,6.1,6.9v0.4H844.5z M851.9,127.9c-0.3-1.9-1.6-3.2-3.6-3.2c-1.9,0-3.4,1.4-3.7,3.2H851.9z"/>
			<path d="M874.2,135.9h-2.5v-2h-0.1c-1,1.5-2.5,2.5-4.4,2.5c-4,0-6.2-3.3-6.2-7c0-3.5,2.4-6.8,6.1-6.8c1.9,0,3.5,1,4.5,2.5h0.1
				v-2.2h2.5V135.9z M871.9,129.4c0-2.5-1.5-4.7-4.2-4.7c-2.6,0-4.1,2.2-4.1,4.7c0,2.4,1.5,4.7,4.1,4.7
				C870.4,134.1,871.9,132,871.9,129.4z"/>
			<path d="M887.3,115.4l-3.7,7.4l-1.6-0.6l3-7.6L887.3,115.4z"/>
			<path d="M898.7,125.9c-0.3-0.6-0.9-1.1-1.7-1.1c-0.7,0-1.4,0.6-1.4,1.3c0,1.1,1.5,1.6,3,2.3c1.5,0.7,3,1.6,3,3.7
				c0,2.5-2.1,4.3-4.5,4.3c-1.9,0-3.8-1.1-4.5-2.9l2.1-1c0.5,1,1.2,1.7,2.4,1.7c1.1,0,2-0.7,2-1.8c0-0.7-0.3-1-0.9-1.4l-2.4-1.3
				c-1.4-0.8-2.5-1.5-2.5-3.3c0-2.1,1.7-3.8,3.8-3.8c1.6,0,2.9,0.9,3.5,2.3L898.7,125.9z"/>
			<path d="M925.7,111.8v12.8h0.1c0.8-1.4,2.3-2.1,3.9-2.1c3.7,0,4.6,2.5,4.6,5.6v7.7h-2.5v-7.4c0-2.2-0.3-3.7-2.9-3.7
				c-3.2,0-3.2,2.8-3.2,5.2v6h-2.5v-24.1H925.7z"/>
			<path d="M946.7,117c0,0.9-0.8,1.7-1.7,1.7c-0.9,0-1.7-0.7-1.7-1.7c0-1,0.8-1.7,1.7-1.7C946,115.2,946.7,116,946.7,117z
				 M946.3,135.9h-2.5v-13h2.5V135.9z"/>
			<path d="M958.1,125.1L958.1,125.1c1.1-1.6,2.6-2.5,4.6-2.5c3.7,0,6.1,3.2,6.1,6.8c0,3.7-2.2,7-6.2,7c-1.8,0-3.4-1-4.4-2.5h-0.1
				v9.4h-2.5v-20.4h2.5V125.1z M966.3,129.4c0-2.5-1.5-4.7-4.2-4.7c-2.6,0-4.1,2.2-4.1,4.7c0,2.4,1.5,4.7,4.1,4.7
				C964.8,134.1,966.3,132,966.3,129.4z"/>
			<path d="M1002.5,135.9h-2.5v-2h-0.1c-1,1.5-2.5,2.5-4.4,2.5c-4,0-6.2-3.3-6.2-7c0-3.5,2.4-6.8,6.1-6.8c1.9,0,3.5,1,4.5,2.5h0.1
				v-2.2h2.5V135.9z M1000.1,129.4c0-2.5-1.5-4.7-4.2-4.7c-2.6,0-4.1,2.2-4.1,4.7c0,2.4,1.5,4.7,4.1,4.7
				C998.6,134.1,1000.1,132,1000.1,129.4z"/>
			<path d="M1016.5,125.9c-0.3-0.6-0.9-1.1-1.7-1.1c-0.7,0-1.4,0.6-1.4,1.3c0,1.1,1.5,1.6,3,2.3c1.5,0.7,3,1.6,3,3.7
				c0,2.5-2.1,4.3-4.5,4.3c-1.9,0-3.8-1.1-4.5-2.9l2.1-1c0.5,1,1.2,1.7,2.4,1.7c1.1,0,2-0.7,2-1.8c0-0.7-0.3-1-0.9-1.4l-2.4-1.3
				c-1.4-0.8-2.5-1.5-2.5-3.3c0-2.1,1.7-3.8,3.8-3.8c1.6,0,2.9,0.9,3.5,2.3L1016.5,125.9z"/>
			<path d="M1030.9,117c0,0.9-0.8,1.7-1.7,1.7c-0.9,0-1.7-0.7-1.7-1.7c0-1,0.8-1.7,1.7-1.7C1030.2,115.2,1030.9,116,1030.9,117z
				 M1030.5,135.9h-2.5v-13h2.5V135.9z"/>
			<path d="M1052.2,135.9h-2.5v-2h-0.1c-1,1.5-2.5,2.5-4.4,2.5c-4,0-6.2-3.3-6.2-7c0-3.5,2.4-6.8,6.1-6.8c1.9,0,3.5,1,4.5,2.5h0.1
				v-2.2h2.5V135.9z M1049.8,129.4c0-2.5-1.5-4.7-4.2-4.7c-2.6,0-4.1,2.2-4.1,4.7c0,2.4,1.5,4.7,4.1,4.7
				C1048.3,134.1,1049.8,132,1049.8,129.4z"/>
			<path d="M1063.5,124.7L1063.5,124.7c0.8-1.4,2.4-2.1,4-2.1c3.7,0,4.6,2.5,4.6,5.6v7.7h-2.5v-7.4c0-2.2-0.3-3.7-2.9-3.7
				c-3.2,0-3.2,2.8-3.2,5.2v6h-2.5v-13h2.5V124.7z"/>
			<path d="M1104.2,133.9L1104.2,133.9c-1.1,1.5-2.6,2.5-4.5,2.5c-4,0-6.2-3.3-6.2-7c0-3.5,2.4-6.8,6.1-6.8c1.9,0,3.5,1,4.5,2.5h0.1
				v-13.2h2.5v24.1h-2.5V133.9z M1104.4,129.4c0-2.5-1.5-4.7-4.2-4.7c-2.6,0-4.1,2.2-4.1,4.7c0,2.4,1.5,4.7,4.1,4.7
				C1102.9,134.1,1104.4,132,1104.4,129.4z"/>
			<path d="M1119,117c0,0.9-0.8,1.7-1.7,1.7c-0.9,0-1.7-0.7-1.7-1.7c0-1,0.8-1.7,1.7-1.7C1118.2,115.2,1119,116,1119,117z
				 M1118.5,135.9h-2.5v-13h2.5V135.9z"/>
			<path d="M1130.6,124.7L1130.6,124.7c0.8-1.4,2.4-2.1,4-2.1c3.7,0,4.6,2.5,4.6,5.6v7.7h-2.5v-7.4c0-2.2-0.3-3.7-2.9-3.7
				c-3.2,0-3.2,2.8-3.2,5.2v6h-2.5v-13h2.5V124.7z"/>
			<path d="M1151.6,117c0,0.9-0.8,1.7-1.7,1.7c-0.9,0-1.7-0.7-1.7-1.7c0-1,0.8-1.7,1.7-1.7C1150.8,115.2,1151.6,116,1151.6,117z
				 M1151.2,135.9h-2.5v-13h2.5V135.9z"/>
			<path d="M1163.2,124.7L1163.2,124.7c0.8-1.4,2.4-2.1,4-2.1c3.7,0,4.6,2.5,4.6,5.6v7.7h-2.5v-7.4c0-2.2-0.3-3.7-2.9-3.7
				c-3.2,0-3.2,2.8-3.2,5.2v6h-2.5v-13h2.5V124.7z"/>
			<path d="M1192.9,135.6c0,4.5-1.3,7.7-6.3,7.7c-3.6,0-6.2-2.2-6.3-5.9h2.5c0,2.3,1.6,3.7,3.9,3.7c3.1,0,3.7-2.1,3.7-4.8v-2.5h-0.1
				c-1,1.5-2.6,2.5-4.4,2.5c-4,0-6.2-3.3-6.2-7c0-3.5,2.4-6.8,6.1-6.8c1.9,0,3.5,1,4.5,2.6h0.1v-2.2h2.5V135.6z M1190.5,129.4
				c0-2.5-1.5-4.7-4.2-4.7c-2.6,0-4.1,2.2-4.1,4.7c0,2.4,1.5,4.7,4.1,4.7C1189,134.1,1190.5,132,1190.5,129.4z"/>
		</g>
	</g>
</g>
</svg>
