<?xml version="1.0" encoding="utf-8"?>
<!-- Generator: Adobe Illustrator 19.0.1, SVG Export Plug-In . SVG Version: 6.00 Build 0)  -->
<svg version="1.1" xmlns="http://www.w3.org/2000/svg" xmlns:xlink="http://www.w3.org/1999/xlink" x="0px" y="0px"
	 viewBox="0 0 699.2 89.3" style="enable-background:new 0 0 699.2 89.3;" xml:space="preserve">
<style type="text/css">
	.st0{display:none;}
	.st1{display:inline;fill:#FFFFFF;}
	.st2{fill:#FFFFFF;}
	.st3{fill:#3399CC;}
	.st4{fill:#F9D04B;}
	.st5{clip-path:url(#SVGID_4_);}
	.st6{clip-path:url(#SVGID_5_);}
	.st7{fill:none;stroke:#FFFFFF;stroke-width:0.7637;stroke-miterlimit:10;}
	.st8{clip-path:url(#SVGID_8_);}
	.st9{fill:#F49A32;}
	.st10{clip-path:url(#SVGID_12_);}
	.st11{opacity:0.49;clip-path:url(#SVGID_12_);}
	.st12{opacity:0.49;}
	.st13{clip-path:url(#SVGID_14_);fill:none;}
	.st14{opacity:0.5;clip-path:url(#SVGID_12_);}
	.st15{opacity:0.5;}
	.st16{fill:none;stroke:#FFFFFF;stroke-width:1.0312;}
	.st17{clip-path:url(#SVGID_12_);fill:none;stroke:#FFFFFF;stroke-width:1.1321;}
	.st18{fill-rule:evenodd;clip-rule:evenodd;fill:#FFFFFF;}
	.st19{fill:#C77F44;}
	.st20{fill:url(#SVGID_17_);}
	.st21{fill:url(#SVGID_18_);}
	.st22{fill:url(#SVGID_19_);}
	.st23{fill:url(#SVGID_20_);}
	.st24{fill:url(#SVGID_21_);}
	.st25{fill:url(#SVGID_22_);}
	.st26{fill:url(#SVGID_23_);}
	.st27{fill:url(#SVGID_24_);}
	.st28{fill:url(#SVGID_25_);}
	.st29{fill:url(#SVGID_26_);}
	.st30{fill:url(#SVGID_27_);}
	.st31{fill:url(#SVGID_28_);}
	.st32{fill:url(#SVGID_29_);}
	.st33{fill:url(#SVGID_30_);}
	.st34{fill:url(#SVGID_31_);}
	.st35{fill:url(#SVGID_32_);}
	.st36{fill:url(#SVGID_33_);}
	.st37{fill:url(#SVGID_34_);}
	.st38{fill:url(#SVGID_35_);}
	.st39{fill:url(#SVGID_36_);}
	.st40{fill:url(#SVGID_37_);}
	.st41{fill:url(#SVGID_38_);}
	.st42{fill:url(#SVGID_39_);}
	.st43{fill:url(#SVGID_40_);}
	.st44{fill:url(#SVGID_41_);}
	.st45{fill:url(#SVGID_42_);}
	.st46{fill:url(#SVGID_43_);}
	.st47{fill-rule:evenodd;clip-rule:evenodd;fill:url(#SVGID_44_);}
	.st48{fill-rule:evenodd;clip-rule:evenodd;fill:url(#SVGID_45_);}
	.st49{fill-rule:evenodd;clip-rule:evenodd;fill:url(#SVGID_46_);}
	.st50{fill:url(#SVGID_47_);}
	.st51{fill-rule:evenodd;clip-rule:evenodd;fill:url(#SVGID_48_);}
	.st52{fill-rule:evenodd;clip-rule:evenodd;fill:url(#SVGID_49_);}
	.st53{fill-rule:evenodd;clip-rule:evenodd;fill:url(#SVGID_50_);}
	.st54{fill:url(#SVGID_51_);}
	.st55{fill:url(#SVGID_52_);}
	.st56{fill:url(#SVGID_53_);}
	.st57{fill:url(#SVGID_54_);}
	.st58{fill:url(#SVGID_55_);}
	.st59{fill:url(#SVGID_56_);}
	.st60{fill:url(#SVGID_57_);}
	.st61{fill:url(#SVGID_58_);}
	.st62{fill:url(#SVGID_59_);}
	.st63{fill:url(#SVGID_60_);}
	.st64{fill:url(#SVGID_61_);}
	.st65{fill:url(#SVGID_62_);}
	.st66{fill:url(#SVGID_63_);}
	.st67{fill:url(#SVGID_64_);}
	.st68{fill:url(#SVGID_65_);}
	.st69{fill:url(#SVGID_66_);}
	.st70{fill:url(#SVGID_67_);}
	.st71{fill:url(#SVGID_68_);}
	.st72{fill:url(#SVGID_69_);}
	.st73{fill:url(#SVGID_70_);}
	.st74{fill:url(#SVGID_71_);}
	.st75{fill:url(#SVGID_72_);}
	.st76{fill:url(#SVGID_73_);}
	.st77{fill-rule:evenodd;clip-rule:evenodd;fill:url(#SVGID_74_);}
	.st78{fill-rule:evenodd;clip-rule:evenodd;fill:url(#SVGID_75_);}
	.st79{fill-rule:evenodd;clip-rule:evenodd;fill:url(#SVGID_76_);}
	.st80{fill:url(#SVGID_77_);}
	.st81{fill:url(#SVGID_78_);}
	.st82{fill-rule:evenodd;clip-rule:evenodd;fill:url(#SVGID_79_);}
	.st83{fill:url(#SVGID_80_);}
	.st84{fill-rule:evenodd;clip-rule:evenodd;fill:url(#SVGID_81_);}
	.st85{fill-rule:evenodd;clip-rule:evenodd;fill:url(#SVGID_82_);}
	.st86{fill-rule:evenodd;clip-rule:evenodd;fill:url(#SVGID_83_);}
	.st87{fill-rule:evenodd;clip-rule:evenodd;fill:url(#SVGID_84_);}
	.st88{fill:#336699;}
	.st89{clip-path:url(#SVGID_86_);fill:#00305B;}
	.st90{filter:url(#Adobe_OpacityMaskFilter);}
	.st91{clip-path:url(#SVGID_86_);fill:url(#SVGID_88_);}
	.st92{filter:url(#Adobe_OpacityMaskFilter_1_);}
	.st93{clip-path:url(#SVGID_86_);fill:url(#SVGID_90_);}
	.st94{filter:url(#Adobe_OpacityMaskFilter_2_);}
	.st95{clip-path:url(#SVGID_86_);fill:url(#SVGID_92_);}
	.st96{clip-path:url(#SVGID_86_);mask:url(#SVGID_91_);}
	.st97{filter:url(#Adobe_OpacityMaskFilter_3_);}
	.st98{clip-path:url(#SVGID_86_);fill:url(#SVGID_94_);}
	.st99{clip-path:url(#SVGID_86_);mask:url(#SVGID_93_);}
	.st100{clip-path:url(#SVGID_86_);fill:url(#SVGID_95_);}
	.st101{clip-path:url(#SVGID_86_);}
	.st102{filter:url(#Adobe_OpacityMaskFilter_4_);}
	.st103{clip-path:url(#SVGID_86_);mask:url(#SVGID_96_);}
	.st104{fill:#FFF100;}
	.st105{clip-path:url(#SVGID_98_);fill:url(#SVGID_99_);}
	.st106{filter:url(#Adobe_OpacityMaskFilter_5_);}
	.st107{clip-path:url(#SVGID_98_);}
	.st108{fill:#D6DE23;}
	.st109{clip-path:url(#SVGID_102_);}
	.st110{filter:url(#Adobe_OpacityMaskFilter_6_);}
	.st111{clip-path:url(#SVGID_102_);mask:url(#SVGID_103_);}
	.st112{clip-path:url(#SVGID_105_);fill:#00305B;}
	.st113{filter:url(#Adobe_OpacityMaskFilter_7_);}
	.st114{clip-path:url(#SVGID_105_);fill:url(#SVGID_107_);}
	.st115{filter:url(#Adobe_OpacityMaskFilter_8_);}
	.st116{clip-path:url(#SVGID_105_);fill:url(#SVGID_109_);}
	.st117{filter:url(#Adobe_OpacityMaskFilter_9_);}
	.st118{clip-path:url(#SVGID_105_);fill:url(#SVGID_111_);}
	.st119{clip-path:url(#SVGID_105_);mask:url(#SVGID_110_);}
	.st120{filter:url(#Adobe_OpacityMaskFilter_10_);}
	.st121{clip-path:url(#SVGID_105_);fill:url(#SVGID_113_);}
	.st122{clip-path:url(#SVGID_105_);mask:url(#SVGID_112_);}
	.st123{clip-path:url(#SVGID_105_);fill:url(#SVGID_114_);}
	.st124{filter:url(#Adobe_OpacityMaskFilter_11_);}
	.st125{clip-path:url(#SVGID_105_);mask:url(#SVGID_115_);}
	.st126{clip-path:url(#SVGID_105_);}
</style>
<g id="Layer_1" class="st0">
	<rect x="-289" y="-163.1" class="st1" width="1280" height="500"/>
</g>
<g id="Layer_2">
	<g>
		<g>
			<path d="M24.1,36.9h0.1L35.7,1.8h11.2l10.7,35.1h0.1L67.9,1.8h14.7L65.3,56.1H50.8l-9.5-31.5h-0.1L30.5,56.1H16.2L0,1.8h14.7
				L24.1,36.9z"/>
			<path d="M80.2,1.8h16.9l10.2,14.8l10.2-14.8h16.9l-20,28.2v26.1h-14.1V30L80.2,1.8z"/>
			<path d="M137.6,1.8h14.1L177.5,35h0.1V1.8h14.1v54.3h-14.1l-25.9-33.3h-0.1v33.3h-14.1V1.8z"/>
			<path d="M201,1.8h14.1L241,35h0.1V1.8h14.1v54.3h-14.1l-25.9-33.3h-0.1v33.3H201V1.8z"/>
			<path d="M303.3,44.1h16.9v12h-31V1.8h14.1V44.1z"/>
			<path d="M338.7,46.7l-3.7,9.4h-15l20.9-54.3h15.4l20.5,54.3h-15.1l-3.5-9.4H338.7z M348.5,18.6h-0.1l-5.8,17.3h11.7L348.5,18.6z"
				/>
			<path d="M410.9,15.8c-2.6-2.2-5.9-3.6-9.4-3.6c-2.6,0-6,1.5-6,4.5c0,3.2,3.8,4.4,6.3,5.2l3.6,1.1c7.6,2.2,13.4,6,13.4,14.8
				c0,5.4-1.3,10.9-5.6,14.6c-4.2,3.6-9.9,5.1-15.4,5.1c-6.8,0-13.5-2.3-19.1-6.2l6-11.4c3.5,3.1,7.7,5.6,12.5,5.6
				c3.3,0,6.8-1.7,6.8-5.5c0-4-5.5-5.3-8.6-6.2c-8.9-2.5-14.7-4.8-14.7-15.3c0-11,7.9-18.2,18.7-18.2c5.5,0,12.2,1.7,17,4.5
				L410.9,15.8z"/>
			<path d="M472.9,34.8l13.2-33h15.3l-23.2,54.3h-10.9L444.5,1.8h15.3L472.9,34.8z"/>
			<path d="M519.1,13.8v9.1H535v12h-15.9v9.4h16.8v12H505V1.8h30.9v12H519.1z"/>
			<path d="M598.8,25.8c-0.1,7.9-0.7,14.7-5.5,21.5c-5.3,7.4-13.3,10.7-22.4,10.7c-17.1,0-29-11.6-29-28.7c0-17.6,12-29.2,29.5-29.2
				c11.2,0,19.8,5,24.5,15.2l-13.4,5.6c-1.9-5.2-6-8.6-11.7-8.6c-9.3,0-14.1,8.9-14.1,17.1c0,8.4,5,17,14.3,17
				c6.1,0,10.8-3.2,11.4-9.4h-11.5V25.8H598.8z"/>
			<path d="M619.1,46.7l-3.7,9.4h-15l20.9-54.3h15.4l20.5,54.3H642l-3.5-9.4H619.1z M628.9,18.6h-0.1L623,35.9h11.7L628.9,18.6z"/>
			<path d="M691.3,15.8c-2.6-2.2-5.9-3.6-9.4-3.6c-2.6,0-6,1.5-6,4.5c0,3.2,3.8,4.4,6.3,5.2l3.6,1.1c7.6,2.2,13.4,6,13.4,14.8
				c0,5.4-1.3,10.9-5.6,14.6c-4.2,3.6-9.9,5.1-15.4,5.1c-6.8,0-13.5-2.3-19.1-6.2l6.1-11.4c3.5,3.1,7.7,5.6,12.5,5.6
				c3.3,0,6.8-1.7,6.8-5.5c0-4-5.5-5.3-8.6-6.2c-8.9-2.5-14.7-4.8-14.7-15.3c0-11,7.9-18.2,18.7-18.2c5.5,0,12.2,1.7,17,4.5
				L691.3,15.8z"/>
		</g>
		<g>
			<path d="M12.9,81.5c0,1.3,0.9,2.5,2.3,2.5c1.1,0,1.7-0.6,2.2-1.5l1.2,0.7c-0.7,1.3-2,2-3.5,2c-2.3,0-3.7-1.7-3.7-3.9
				c0-2.3,1.2-4,3.6-4c2.4,0,3.5,1.8,3.5,4v0.2H12.9z M17.2,80.4c-0.2-1.1-0.9-1.9-2.1-1.9c-1.1,0-2,0.8-2.1,1.9H17.2z"/>
			<path d="M24.2,78.5L24.2,78.5c0.5-0.8,1.4-1.2,2.3-1.2c2.1,0,2.7,1.4,2.7,3.2V85h-1.4v-4.3c0-1.3-0.2-2.1-1.6-2.1
				c-1.9,0-1.9,1.6-1.9,3V85h-1.4v-7.5h1.4V78.5z"/>
			<path d="M39.5,79.6c-0.6-0.7-1.3-1-2.1-1c-1.4,0-2.5,1.2-2.5,2.6c0,1.5,1.1,2.7,2.6,2.7c0.8,0,1.5-0.4,2-1v1.8
				c-0.7,0.4-1.3,0.5-2.1,0.5c-2.2,0-4-1.7-4-3.9c0-2.3,1.8-4,4.1-4c0.7,0,1.4,0.2,2,0.5V79.6z"/>
			<path d="M51.3,81.2c0,2.3-1.8,4-4,4s-4-1.7-4-4s1.8-4,4-4S51.3,79,51.3,81.2z M44.7,81.2c0,1.4,1.1,2.6,2.6,2.6
				c1.4,0,2.6-1.2,2.6-2.6c0-1.4-1.1-2.6-2.6-2.6C45.8,78.6,44.7,79.8,44.7,81.2z"/>
			<path d="M57,78.7L57,78.7c0.4-0.9,1.1-1.4,2.1-1.4c0.4,0,0.8,0.1,1.2,0.4l-0.7,1.3c-0.3-0.2-0.5-0.3-0.9-0.3
				c-1.6,0-1.7,1.4-1.7,2.7V85h-1.4v-7.5H57V78.7z"/>
			<path d="M64.8,81.5c0,1.3,0.9,2.5,2.3,2.5c1.1,0,1.7-0.6,2.2-1.5l1.2,0.7c-0.7,1.3-2,2-3.5,2c-2.3,0-3.7-1.7-3.7-3.9
				c0-2.3,1.2-4,3.6-4c2.4,0,3.5,1.8,3.5,4v0.2H64.8z M69.1,80.4c-0.2-1.1-0.9-1.9-2.1-1.9c-1.1,0-2,0.8-2.1,1.9H69.1z"/>
			<path d="M82,71.1h1.4v7.7h0c0.6-0.9,1.5-1.5,2.6-1.5c2.2,0,3.5,1.9,3.5,3.9c0,2.1-1.3,4-3.6,4c-1.1,0-2-0.6-2.5-1.4h0V85H82V71.1
				z M88.2,81.2c0-1.5-0.9-2.7-2.4-2.7c-1.5,0-2.4,1.3-2.4,2.7c0,1.4,0.8,2.7,2.4,2.7C87.3,83.9,88.2,82.7,88.2,81.2z"/>
			<path d="M94.8,81.5c0,1.3,0.9,2.5,2.3,2.5c1.1,0,1.7-0.6,2.2-1.5l1.2,0.7c-0.7,1.3-2,2-3.5,2c-2.3,0-3.7-1.7-3.7-3.9
				c0-2.3,1.2-4,3.6-4c2.4,0,3.5,1.8,3.5,4v0.2H94.8z M99.1,80.4c-0.2-1.1-0.9-1.9-2.1-1.9c-1.1,0-2,0.8-2.1,1.9H99.1z"/>
			<path d="M111.6,85h-1.4v-1.2h0c-0.6,0.8-1.5,1.4-2.5,1.4c-2.3,0-3.6-1.9-3.6-4c0-2,1.4-3.9,3.5-3.9c1.1,0,2,0.6,2.6,1.5h0v-1.2
				h1.4V85z M110.3,81.2c0-1.5-0.9-2.7-2.4-2.7c-1.5,0-2.4,1.3-2.4,2.7c0,1.4,0.8,2.7,2.4,2.7C109.4,83.9,110.3,82.7,110.3,81.2z"/>
			<path d="M121.9,79.6c-0.6-0.7-1.3-1-2.1-1c-1.4,0-2.5,1.2-2.5,2.6c0,1.5,1.1,2.7,2.6,2.7c0.8,0,1.5-0.4,2-1v1.8
				c-0.7,0.4-1.3,0.5-2.1,0.5c-2.2,0-4-1.7-4-3.9c0-2.3,1.8-4,4.1-4c0.7,0,1.4,0.2,2,0.5V79.6z"/>
			<path d="M127.8,71.1v7.4h0c0.4-0.8,1.3-1.2,2.3-1.2c2.1,0,2.7,1.4,2.7,3.2V85h-1.4v-4.3c0-1.3-0.2-2.1-1.6-2.1
				c-1.9,0-1.9,1.6-1.9,3V85h-1.4V71.1H127.8z"/>
			<path d="M150.6,79.6c-0.6-0.7-1.3-1-2.1-1c-1.4,0-2.5,1.2-2.5,2.6c0,1.5,1.1,2.7,2.6,2.7c0.8,0,1.5-0.4,2-1v1.8
				c-0.7,0.4-1.3,0.5-2.1,0.5c-2.2,0-4-1.7-4-3.9c0-2.3,1.8-4,4.1-4c0.7,0,1.4,0.2,2,0.5V79.6z"/>
			<path d="M156.5,85h-1.4V71.1h1.4V85z"/>
			<path d="M162.8,77.5v4.1c0,1.2,0.3,2.3,1.7,2.3s1.7-1.1,1.7-2.3v-4.1h1.4v4.3c0,2-1,3.4-3.2,3.4s-3.2-1.4-3.2-3.4v-4.3H162.8z"/>
			<path d="M172.4,71.1h1.4v7.7h0c0.6-0.9,1.5-1.5,2.6-1.5c2.2,0,3.5,1.9,3.5,3.9c0,2.1-1.3,4-3.6,4c-1.1,0-2-0.6-2.5-1.4h0V85h-1.4
				V71.1z M178.6,81.2c0-1.5-0.9-2.7-2.4-2.7c-1.5,0-2.4,1.3-2.4,2.7c0,1.4,0.8,2.7,2.4,2.7C177.7,83.9,178.6,82.7,178.6,81.2z"/>
			<path d="M224.8,79.2c-0.2-0.4-0.5-0.7-1-0.7c-0.4,0-0.8,0.3-0.8,0.7c0,0.7,0.9,0.9,1.7,1.3c0.9,0.4,1.7,0.9,1.7,2.1
				c0,1.4-1.2,2.5-2.6,2.5c-1.1,0-2.2-0.6-2.6-1.7l1.2-0.6c0.3,0.6,0.7,1,1.4,1c0.6,0,1.1-0.4,1.1-1.1c0-0.4-0.2-0.6-0.5-0.8
				l-1.4-0.8c-0.8-0.4-1.4-0.9-1.4-1.9c0-1.2,1-2.2,2.2-2.2c0.9,0,1.6,0.5,2,1.3L224.8,79.2z"/>
			<path d="M232.2,77.5v4.1c0,1.2,0.3,2.3,1.7,2.3s1.7-1.1,1.7-2.3v-4.1h1.4v4.3c0,2-1,3.4-3.2,3.4s-3.2-1.4-3.2-3.4v-4.3H232.2z"/>
			<path d="M243.4,78.7L243.4,78.7c0.4-0.9,1.1-1.4,2.1-1.4c0.4,0,0.8,0.1,1.2,0.4l-0.7,1.3c-0.3-0.2-0.5-0.3-0.9-0.3
				c-1.6,0-1.7,1.4-1.7,2.7V85H242v-7.5h1.4V78.7z"/>
			<path d="M251.9,78.7L251.9,78.7c0.4-0.9,1.1-1.4,2.1-1.4c0.4,0,0.8,0.1,1.2,0.4l-0.7,1.3c-0.3-0.2-0.5-0.3-0.9-0.3
				c-1.6,0-1.7,1.4-1.7,2.7V85h-1.4v-7.5h1.4V78.7z"/>
			<path d="M259.8,81.5c0,1.3,0.9,2.5,2.3,2.5c1.1,0,1.7-0.6,2.2-1.5l1.2,0.7c-0.7,1.3-2,2-3.5,2c-2.3,0-3.7-1.7-3.7-3.9
				c0-2.3,1.2-4,3.6-4c2.4,0,3.5,1.8,3.5,4v0.2H259.8z M264,80.4c-0.2-1.1-0.9-1.9-2.1-1.9c-1.1,0-2,0.8-2.1,1.9H264z"/>
			<path d="M271,78.5L271,78.5c0.5-0.8,1.4-1.2,2.3-1.2c2.1,0,2.7,1.4,2.7,3.2V85h-1.4v-4.3c0-1.3-0.2-2.1-1.6-2.1
				c-1.9,0-1.9,1.6-1.9,3V85h-1.4v-7.5h1.4V78.5z"/>
			<path d="M286.4,83.8L286.4,83.8c-0.6,0.8-1.5,1.4-2.6,1.4c-2.3,0-3.6-1.9-3.6-4c0-2,1.4-3.9,3.5-3.9c1.1,0,2,0.6,2.6,1.5h0v-7.7
				h1.4V85h-1.4V83.8z M286.5,81.2c0-1.5-0.9-2.7-2.4-2.7c-1.5,0-2.4,1.3-2.4,2.7c0,1.4,0.8,2.7,2.4,2.7
				C285.6,83.9,286.5,82.7,286.5,81.2z"/>
			<path d="M293.5,81.5c0,1.3,0.9,2.5,2.3,2.5c1.1,0,1.7-0.6,2.2-1.5l1.2,0.7c-0.7,1.3-2,2-3.5,2c-2.3,0-3.7-1.7-3.7-3.9
				c0-2.3,1.2-4,3.6-4c2.4,0,3.5,1.8,3.5,4v0.2H293.5z M297.8,80.4c-0.2-1.1-0.9-1.9-2.1-1.9c-1.1,0-2,0.8-2.1,1.9H297.8z"/>
			<path d="M304.8,78.7L304.8,78.7c0.4-0.9,1.1-1.4,2.1-1.4c0.4,0,0.8,0.1,1.2,0.4l-0.7,1.3c-0.3-0.2-0.5-0.3-0.9-0.3
				c-1.6,0-1.7,1.4-1.7,2.7V85h-1.4v-7.5h1.4V78.7z"/>
			<path d="M320.7,78.5L320.7,78.5c0.5-0.8,1.4-1.2,2.3-1.2c2.1,0,2.7,1.4,2.7,3.2V85h-1.4v-4.3c0-1.3-0.2-2.1-1.6-2.1
				c-1.9,0-1.9,1.6-1.9,3V85h-1.4v-7.5h1.4V78.5z"/>
			<path d="M332.6,74.1c0,0.5-0.4,1-1,1c-0.5,0-1-0.4-1-1c0-0.6,0.4-1,1-1C332.1,73,332.6,73.5,332.6,74.1z M332.3,85h-1.4v-7.5h1.4
				V85z"/>
			<path d="M344.5,84.8c0,2.6-0.7,4.4-3.6,4.4c-2.1,0-3.6-1.3-3.6-3.4h1.4c0,1.3,0.9,2.1,2.2,2.1c1.8,0,2.1-1.2,2.1-2.8v-1.4h0
				c-0.6,0.8-1.5,1.4-2.5,1.4c-2.3,0-3.6-1.9-3.6-4c0-2,1.4-3.9,3.5-3.9c1.1,0,2,0.6,2.6,1.5h0v-1.3h1.4V84.8z M343.1,81.2
				c0-1.5-0.9-2.7-2.4-2.7c-1.5,0-2.4,1.3-2.4,2.7c0,1.4,0.8,2.7,2.4,2.7C342.3,83.9,343.1,82.7,343.1,81.2z"/>
			<path d="M350.7,71.1v7.4h0c0.4-0.8,1.3-1.2,2.3-1.2c2.1,0,2.7,1.4,2.7,3.2V85h-1.4v-4.3c0-1.3-0.2-2.1-1.6-2.1
				c-1.9,0-1.9,1.6-1.9,3V85h-1.4V71.1H350.7z"/>
			<path d="M362.1,85h-1.4v-6.1h-0.8v-1.3h0.8v-2.9h1.4v2.9h1.4v1.3h-1.4V85z"/>
			<path d="M380.2,79.6c-0.6-0.7-1.3-1-2.1-1c-1.4,0-2.5,1.2-2.5,2.6c0,1.5,1.1,2.7,2.6,2.7c0.8,0,1.5-0.4,2-1v1.8
				c-0.7,0.4-1.3,0.5-2.1,0.5c-2.2,0-4-1.7-4-3.9c0-2.3,1.8-4,4.1-4c0.7,0,1.4,0.2,2,0.5V79.6z"/>
			<path d="M386.2,85h-1.4V71.1h1.4V85z"/>
			<path d="M392.5,77.5v4.1c0,1.2,0.3,2.3,1.7,2.3s1.7-1.1,1.7-2.3v-4.1h1.4v4.3c0,2-1,3.4-3.2,3.4s-3.2-1.4-3.2-3.4v-4.3H392.5z"/>
			<path d="M402.1,71.1h1.4v7.7h0c0.6-0.9,1.5-1.5,2.6-1.5c2.2,0,3.5,1.9,3.5,3.9c0,2.1-1.3,4-3.6,4c-1.1,0-2-0.6-2.5-1.4h0V85h-1.4
				V71.1z M408.2,81.2c0-1.5-0.9-2.7-2.4-2.7c-1.5,0-2.4,1.3-2.4,2.7c0,1.4,0.8,2.7,2.4,2.7C407.4,83.9,408.2,82.7,408.2,81.2z"/>
			<path d="M458.5,85H457v-1.2h0c-0.6,0.8-1.5,1.4-2.5,1.4c-2.3,0-3.6-1.9-3.6-4c0-2,1.4-3.9,3.5-3.9c1.1,0,2,0.6,2.6,1.5h0v-1.2
				h1.4V85z M457.1,81.2c0-1.5-0.9-2.7-2.4-2.7c-1.5,0-2.4,1.3-2.4,2.7c0,1.4,0.8,2.7,2.4,2.7C456.3,83.9,457.1,82.7,457.1,81.2z"/>
			<path d="M464.7,78.5L464.7,78.5c0.5-0.8,1.4-1.2,2.3-1.2c2.1,0,2.7,1.4,2.7,3.2V85h-1.4v-4.3c0-1.3-0.2-2.1-1.6-2.1
				c-1.9,0-1.9,1.6-1.9,3V85h-1.4v-7.5h1.4V78.5z"/>
			<path d="M480.1,83.8L480.1,83.8c-0.6,0.8-1.5,1.4-2.6,1.4c-2.3,0-3.6-1.9-3.6-4c0-2,1.4-3.9,3.5-3.9c1.1,0,2,0.6,2.6,1.5h0v-7.7
				h1.4V85h-1.4V83.8z M480.2,81.2c0-1.5-0.9-2.7-2.4-2.7c-1.5,0-2.4,1.3-2.4,2.7c0,1.4,0.8,2.7,2.4,2.7
				C479.3,83.9,480.2,82.7,480.2,81.2z"/>
			<path d="M487.8,78.7L487.8,78.7c0.4-0.9,1.1-1.4,2.1-1.4c0.4,0,0.8,0.1,1.2,0.4l-0.7,1.3c-0.3-0.2-0.5-0.3-0.9-0.3
				c-1.6,0-1.7,1.4-1.7,2.7V85h-1.4v-7.5h1.4V78.7z"/>
			<path d="M495.6,81.5c0,1.3,0.9,2.5,2.3,2.5c1.1,0,1.7-0.6,2.2-1.5l1.2,0.7c-0.7,1.3-2,2-3.5,2c-2.3,0-3.7-1.7-3.7-3.9
				c0-2.3,1.2-4,3.6-4c2.4,0,3.5,1.8,3.5,4v0.2H495.6z M499.9,80.4c-0.2-1.1-0.9-1.9-2.1-1.9c-1.1,0-2,0.8-2.1,1.9H499.9z"/>
			<path d="M512.5,85H511v-1.2h0c-0.6,0.8-1.5,1.4-2.5,1.4c-2.3,0-3.6-1.9-3.6-4c0-2,1.4-3.9,3.5-3.9c1.1,0,2,0.6,2.6,1.5h0v-1.2
				h1.4V85z M511.1,81.2c0-1.5-0.9-2.7-2.4-2.7c-1.5,0-2.4,1.3-2.4,2.7c0,1.4,0.8,2.7,2.4,2.7C510.2,83.9,511.1,82.7,511.1,81.2z"/>
			<path d="M519.7,73.1l-2.1,4.3l-0.9-0.4l1.8-4.4L519.7,73.1z"/>
			<path d="M525.9,79.2c-0.2-0.4-0.5-0.7-1-0.7c-0.4,0-0.8,0.3-0.8,0.7c0,0.7,0.9,0.9,1.7,1.3c0.9,0.4,1.7,0.9,1.7,2.1
				c0,1.4-1.2,2.5-2.6,2.5c-1.1,0-2.2-0.6-2.6-1.7l1.2-0.6c0.3,0.6,0.7,1,1.4,1c0.6,0,1.1-0.4,1.1-1.1c0-0.4-0.2-0.6-0.5-0.8
				l-1.4-0.8c-0.8-0.4-1.4-0.9-1.4-1.9c0-1.2,1-2.2,2.2-2.2c0.9,0,1.6,0.5,2,1.3L525.9,79.2z"/>
			<path d="M540.9,71.1v7.4h0c0.4-0.8,1.3-1.2,2.3-1.2c2.1,0,2.7,1.4,2.7,3.2V85h-1.4v-4.3c0-1.3-0.2-2.1-1.6-2.1
				c-1.9,0-1.9,1.6-1.9,3V85h-1.4V71.1H540.9z"/>
			<path d="M552.7,74.1c0,0.5-0.4,1-1,1c-0.5,0-1-0.4-1-1c0-0.6,0.4-1,1-1C552.3,73,552.7,73.5,552.7,74.1z M552.5,85H551v-7.5h1.4
				V85z"/>
			<path d="M559,78.7L559,78.7c0.6-0.9,1.5-1.5,2.6-1.5c2.2,0,3.5,1.9,3.5,3.9c0,2.1-1.3,4-3.6,4c-1.1,0-2-0.6-2.5-1.4h0v5.5h-1.4
				V77.5h1.4V78.7z M563.7,81.2c0-1.5-0.9-2.7-2.4-2.7c-1.5,0-2.4,1.3-2.4,2.7c0,1.4,0.8,2.7,2.4,2.7
				C562.8,83.9,563.7,82.7,563.7,81.2z"/>
			<path d="M584,85h-1.4v-1.2h0c-0.6,0.8-1.5,1.4-2.5,1.4c-2.3,0-3.6-1.9-3.6-4c0-2,1.4-3.9,3.5-3.9c1.1,0,2,0.6,2.6,1.5h0v-1.2h1.4
				V85z M582.6,81.2c0-1.5-0.9-2.7-2.4-2.7c-1.5,0-2.4,1.3-2.4,2.7c0,1.4,0.8,2.7,2.4,2.7C581.7,83.9,582.6,82.7,582.6,81.2z"/>
			<path d="M591.7,79.2c-0.2-0.4-0.5-0.7-1-0.7c-0.4,0-0.8,0.3-0.8,0.7c0,0.7,0.9,0.9,1.7,1.3c0.9,0.4,1.7,0.9,1.7,2.1
				c0,1.4-1.2,2.5-2.6,2.5c-1.1,0-2.2-0.6-2.6-1.7l1.2-0.6c0.3,0.6,0.7,1,1.4,1c0.6,0,1.1-0.4,1.1-1.1c0-0.4-0.2-0.6-0.5-0.8
				l-1.4-0.8c-0.8-0.4-1.4-0.9-1.4-1.9c0-1.2,1-2.2,2.2-2.2c0.9,0,1.6,0.5,2,1.3L591.7,79.2z"/>
			<path d="M599.8,74.1c0,0.5-0.4,1-1,1c-0.5,0-1-0.4-1-1c0-0.6,0.4-1,1-1C599.3,73,599.8,73.5,599.8,74.1z M599.5,85h-1.4v-7.5h1.4
				V85z"/>
			<path d="M611.7,85h-1.4v-1.2h0c-0.6,0.8-1.5,1.4-2.5,1.4c-2.3,0-3.6-1.9-3.6-4c0-2,1.4-3.9,3.5-3.9c1.1,0,2,0.6,2.6,1.5h0v-1.2
				h1.4V85z M610.3,81.2c0-1.5-0.9-2.7-2.4-2.7c-1.5,0-2.4,1.3-2.4,2.7c0,1.4,0.8,2.7,2.4,2.7C609.5,83.9,610.3,82.7,610.3,81.2z"/>
			<path d="M617.9,78.5L617.9,78.5c0.5-0.8,1.4-1.2,2.3-1.2c2.1,0,2.7,1.4,2.7,3.2V85h-1.4v-4.3c0-1.3-0.2-2.1-1.6-2.1
				c-1.9,0-1.9,1.6-1.9,3V85h-1.4v-7.5h1.4V78.5z"/>
			<path d="M640.8,83.8L640.8,83.8c-0.6,0.8-1.5,1.4-2.6,1.4c-2.3,0-3.6-1.9-3.6-4c0-2,1.4-3.9,3.5-3.9c1.1,0,2,0.6,2.6,1.5h0v-7.7
				h1.4V85h-1.4V83.8z M640.9,81.2c0-1.5-0.9-2.7-2.4-2.7c-1.5,0-2.4,1.3-2.4,2.7c0,1.4,0.8,2.7,2.4,2.7
				C640,83.9,640.9,82.7,640.9,81.2z"/>
			<path d="M649,74.1c0,0.5-0.4,1-1,1c-0.5,0-1-0.4-1-1c0-0.6,0.4-1,1-1C648.6,73,649,73.5,649,74.1z M648.7,85h-1.4v-7.5h1.4V85z"
				/>
			<path d="M655.4,78.5L655.4,78.5c0.5-0.8,1.4-1.2,2.3-1.2c2.1,0,2.7,1.4,2.7,3.2V85h-1.4v-4.3c0-1.3-0.2-2.1-1.6-2.1
				c-1.9,0-1.9,1.6-1.9,3V85h-1.4v-7.5h1.4V78.5z"/>
			<path d="M667.2,74.1c0,0.5-0.4,1-1,1c-0.5,0-1-0.4-1-1c0-0.6,0.4-1,1-1C666.8,73,667.2,73.5,667.2,74.1z M666.9,85h-1.4v-7.5h1.4
				V85z"/>
			<path d="M673.6,78.5L673.6,78.5c0.5-0.8,1.4-1.2,2.3-1.2c2.1,0,2.7,1.4,2.7,3.2V85h-1.4v-4.3c0-1.3-0.2-2.1-1.6-2.1
				c-1.9,0-1.9,1.6-1.9,3V85h-1.4v-7.5h1.4V78.5z"/>
			<path d="M690.4,84.8c0,2.6-0.7,4.4-3.6,4.4c-2.1,0-3.6-1.3-3.6-3.4h1.4c0,1.3,0.9,2.1,2.2,2.1c1.8,0,2.1-1.2,2.1-2.8v-1.4h0
				c-0.6,0.8-1.5,1.4-2.5,1.4c-2.3,0-3.6-1.9-3.6-4c0-2,1.4-3.9,3.5-3.9c1.1,0,2,0.6,2.6,1.5h0v-1.3h1.4V84.8z M689,81.2
				c0-1.5-0.9-2.7-2.4-2.7c-1.5,0-2.4,1.3-2.4,2.7c0,1.4,0.8,2.7,2.4,2.7C688.2,83.9,689,82.7,689,81.2z"/>
		</g>
		<circle cx="199.2" cy="79.9" r="3.2"/>
		<circle cx="431" cy="79.9" r="3.2"/>
	</g>
</g>
</svg>
