<?xml version="1.0" encoding="utf-8"?>
<!-- Generator: Adobe Illustrator 19.0.1, SVG Export Plug-In . SVG Version: 6.00 Build 0)  -->
<svg version="1.1" xmlns="http://www.w3.org/2000/svg" xmlns:xlink="http://www.w3.org/1999/xlink" x="0px" y="0px"
	 viewBox="0 0 696.9 67.3" style="enable-background:new 0 0 696.9 67.3;" xml:space="preserve">
<style type="text/css">
	.st0{display:none;}
	.st1{display:inline;fill:#FFFFFF;}
	.st2{fill:#FFFFFF;}
	.st3{fill:#3399CC;}
	.st4{fill:#231F20;}
</style>
<g id="Layer_1" class="st0">
	<rect x="-291.5" y="-216.4" class="st1" width="1280" height="500"/>
</g>
<g id="Layer_2">
	<g>
		<g>
			<path d="M8.8,27.5h10.5V35H0V1.1h8.8V27.5z"/>
			<path d="M30.8,29.1L28.5,35h-9.3l13-33.8h9.6L54.5,35h-9.4L43,29.1H30.8z M37,11.6L37,11.6l-3.7,10.8h7.3L37,11.6z"/>
			<path d="M75.9,9.8c-1.6-1.3-3.7-2.2-5.8-2.2c-1.6,0-3.8,0.9-3.8,2.8c0,2,2.4,2.7,3.9,3.2l2.2,0.7c4.7,1.4,8.3,3.8,8.3,9.2
				c0,3.4-0.8,6.8-3.5,9.1c-2.6,2.2-6.2,3.2-9.6,3.2c-4.3,0-8.4-1.4-11.9-3.9l3.8-7.1c2.2,1.9,4.8,3.5,7.8,3.5c2.1,0,4.3-1,4.3-3.4
				c0-2.5-3.5-3.3-5.3-3.9c-5.5-1.6-9.2-3-9.2-9.6c0-6.9,4.9-11.4,11.7-11.4c3.4,0,7.6,1.1,10.6,2.8L75.9,9.8z"/>
			<path d="M114.5,21.7l8.2-20.6h9.6L117.8,35H111L96.8,1.1h9.6L114.5,21.7z"/>
			<path d="M143.3,8.6v5.7h9.9v7.5h-9.9v5.8h10.5V35h-19.3V1.1h19.3v7.5H143.3z"/>
			<path d="M192.9,16.1c-0.1,4.9-0.4,9.2-3.5,13.4c-3.3,4.6-8.3,6.6-14,6.6c-10.6,0-18-7.2-18-17.9c0-11,7.5-18.2,18.4-18.2
				c7,0,12.3,3.1,15.3,9.5l-8.4,3.5c-1.2-3.2-3.8-5.4-7.3-5.4c-5.8,0-8.8,5.5-8.8,10.7c0,5.3,3.1,10.6,8.9,10.6c3.8,0,6.7-2,7.1-5.9
				h-7.2v-6.9H192.9z"/>
			<path d="M205.6,29.1l-2.3,5.9h-9.3l13-33.8h9.6L229.3,35h-9.4l-2.2-5.9H205.6z M211.7,11.6L211.7,11.6L208,22.4h7.3L211.7,11.6z"
				/>
			<path d="M250.6,9.8c-1.6-1.3-3.7-2.2-5.8-2.2c-1.6,0-3.8,0.9-3.8,2.8c0,2,2.4,2.7,3.9,3.2l2.2,0.7c4.7,1.4,8.3,3.8,8.3,9.2
				c0,3.4-0.8,6.8-3.5,9.1c-2.6,2.2-6.2,3.2-9.6,3.2c-4.3,0-8.4-1.4-11.9-3.9l3.8-7.1c2.2,1.9,4.8,3.5,7.8,3.5c2.1,0,4.3-1,4.3-3.4
				c0-2.5-3.5-3.3-5.3-3.9c-5.5-1.6-9.2-3-9.2-9.6c0-6.9,4.9-11.4,11.7-11.4c3.4,0,7.6,1.1,10.6,2.8L250.6,9.8z"/>
			<path d="M275.1,1.1h8.8L300,21.8h0.1V1.1h8.8V35h-8.8L284,14.2h-0.1V35h-8.8V1.1z"/>
			<path d="M323.4,35h-8.8V1.1h8.8V35z"/>
			<path d="M362.9,16.1c-0.1,4.9-0.4,9.2-3.5,13.4c-3.3,4.6-8.3,6.6-14,6.6c-10.6,0-18-7.2-18-17.9c0-11,7.5-18.2,18.4-18.2
				c7,0,12.3,3.1,15.3,9.5l-8.3,3.5c-1.2-3.2-3.8-5.4-7.3-5.4c-5.8,0-8.8,5.5-8.8,10.7c0,5.3,3.1,10.6,8.9,10.6c3.8,0,6.7-2,7.1-5.9
				h-7.2v-6.9H362.9z"/>
			<path d="M388.4,14.2V1.1h8.8V35h-8.8V21.1h-12.7V35h-8.8V1.1h8.8v13.1H388.4z"/>
			<path d="M416.5,35h-8.8V8.6h-7.3V1.1h23.3v7.5h-7.3V35z"/>
			<path d="M435.7,27.5h10.5V35h-19.3V1.1h8.8V27.5z"/>
			<path d="M457.9,35h-8.8V1.1h8.8V35z"/>
			<path d="M472.5,8.6v5.7h9.7v7.5h-9.7V35h-8.8V1.1h19.4v7.5H472.5z"/>
			<path d="M496.8,8.6v5.7h9.9v7.5h-9.9v5.8h10.5V35H488V1.1h19.3v7.5H496.8z"/>
			<path d="M561.8,16.1c-0.1,4.9-0.4,9.2-3.5,13.4c-3.3,4.6-8.3,6.6-14,6.6c-10.6,0-18-7.2-18-17.9c0-11,7.5-18.2,18.4-18.2
				c7,0,12.3,3.1,15.3,9.5l-8.3,3.5c-1.2-3.2-3.8-5.4-7.3-5.4c-5.8,0-8.8,5.5-8.8,10.7c0,5.3,3.1,10.6,8.9,10.6c3.8,0,6.7-2,7.1-5.9
				h-7.2v-6.9H561.8z"/>
			<path d="M594,35h-11l-8.3-13h-0.1v13h-8.8V1.1H579c6.7,0,11.8,3.2,11.8,10.4c0,4.7-2.6,8.7-7.4,9.6L594,35z M574.7,16.3h0.9
				c2.9,0,6.1-0.5,6.1-4.2c0-3.7-3.2-4.2-6.1-4.2h-0.9V16.3z"/>
			<path d="M632.1,17.4c0,11-7.9,18.7-18.7,18.7c-10.9,0-18.7-7.7-18.7-18.7c0-10.2,9-17.4,18.7-17.4S632.1,7.2,632.1,17.4z
				 M603.9,17.5c0,5.8,4.3,10.1,9.6,10.1c5.3,0,9.6-4.3,9.6-10.1c0-4.7-4.3-8.9-9.6-8.9C608.2,8.5,603.9,12.8,603.9,17.5z"/>
			<path d="M665.6,1.1v19c0,4.4-0.2,8.7-3.5,11.9c-2.8,2.8-7.3,3.8-11.2,3.8s-8.4-1-11.2-3.8c-3.4-3.3-3.5-7.6-3.5-11.9v-19h8.8
				v17.8c0,4.4,0.3,9.2,6,9.2s6-4.8,6-9.2V1.1H665.6z"/>
			<path d="M671.1,1.1h13.5c7.3,0,12.3,3.4,12.3,11.1c0,8-4.3,11.5-12,11.5h-5V35h-8.8V1.1z M679.9,16.7h1.5c3.2,0,6.3,0,6.3-4.1
				c0-4.3-2.9-4.3-6.3-4.3h-1.5V16.7z"/>
			<path d="M3,58.1c0,1.7,1.2,3,2.9,3c1.3,0,2.1-0.8,2.7-1.9L10,60c-0.9,1.6-2.3,2.5-4.2,2.5c-2.7,0-4.4-2-4.4-4.6
				c0-2.7,1.6-4.9,4.4-4.9c2.9,0,4.4,2.4,4.3,5.1H3z M8.4,56.8c-0.2-1.3-1.3-2.4-2.6-2.4c-1.3,0-2.5,1.1-2.7,2.4H8.4z"/>
			<path d="M23.2,54.4L23.2,54.4c0.7-0.9,1.5-1.3,2.6-1.3c2.5,0,3.1,1.8,3.1,3.9v5.3h-1.5v-5.1c0-1.5-0.1-2.8-1.9-2.8
				c-2.1,0-2.2,2-2.2,3.6v4.3h-1.5v-9h1.5V54.4z"/>
			<path d="M48.1,56L48.1,56c-0.7-0.9-1.6-1.5-2.8-1.5c-1.9,0-3.2,1.5-3.2,3.3c0,1.8,1.2,3.3,3.1,3.3c1.3,0,2.2-0.6,2.9-1.5h0v2
				c-0.9,0.6-1.8,0.9-2.9,0.9c-2.7,0-4.8-2-4.8-4.7c0-2.7,2.2-4.7,4.8-4.7c1,0,2,0.3,2.8,0.9V56z"/>
			<path d="M59.2,57.8c0-2.6,2.1-4.8,4.7-4.8s4.7,2.1,4.7,4.8s-2.1,4.7-4.7,4.7C61.4,62.5,59.2,60.4,59.2,57.8z M60.8,57.8
				c0,1.8,1.3,3.3,3.2,3.3c1.9,0,3.2-1.5,3.2-3.3c0-1.8-1.3-3.3-3.2-3.3C62.1,54.4,60.8,56,60.8,57.8z"/>
			<path d="M81.8,54.3L81.8,54.3c0.6-0.7,1-1.2,2-1.2c0.5,0,0.9,0.2,1.4,0.4l-0.7,1.4c-0.3-0.2-0.5-0.4-0.9-0.4
				c-1.7,0-1.8,2.2-1.8,3.3v4.5h-1.5v-9h1.5V54.3z"/>
			<path d="M97.1,58.1c0,1.7,1.2,3,2.9,3c1.3,0,2.1-0.8,2.7-1.9l1.3,0.7c-0.9,1.6-2.3,2.5-4.2,2.5c-2.7,0-4.4-2-4.4-4.6
				c0-2.7,1.6-4.9,4.4-4.9c2.9,0,4.4,2.4,4.3,5.1H97.1z M102.6,56.8c-0.2-1.3-1.3-2.4-2.6-2.4c-1.3,0-2.5,1.1-2.7,2.4H102.6z"/>
			<path d="M131.2,46.5h1.5v8.1h0c0.7-1,1.9-1.5,3.1-1.5c2.7,0,4.3,2.2,4.3,4.7c0,2.5-1.7,4.7-4.3,4.7c-1.2,0-2.4-0.5-3.1-1.5h0v1.2
				h-1.5V46.5z M132.7,57.7c0,1.8,1,3.4,2.9,3.4c2,0,3-1.6,3-3.4c0-1.8-1.1-3.3-3-3.3C133.8,54.4,132.7,56,132.7,57.7z"/>
			<path d="M152.7,58.1c0,1.7,1.2,3,2.9,3c1.3,0,2.1-0.8,2.7-1.9l1.3,0.7c-0.9,1.6-2.3,2.5-4.2,2.5c-2.7,0-4.4-2-4.4-4.6
				c0-2.7,1.6-4.9,4.4-4.9c2.9,0,4.4,2.4,4.3,5.1H152.7z M158.1,56.8c-0.2-1.3-1.3-2.4-2.6-2.4c-1.3,0-2.5,1.1-2.7,2.4H158.1z"/>
			<path d="M179.6,62.3h-1.5V61h0c-0.8,1-1.8,1.5-3.1,1.5c-2.6,0-4.3-2.2-4.3-4.7c0-2.6,1.6-4.8,4.3-4.8c1.2,0,2.3,0.6,3.1,1.5h0
				v-1.3h1.5V62.3z M172.2,57.7c0,1.8,1,3.4,2.9,3.4c2,0,3-1.6,3-3.4c0-1.8-1.1-3.3-3-3.3C173.4,54.4,172.2,56,172.2,57.7z"/>
			<path d="M198.7,56L198.7,56c-0.7-0.9-1.6-1.5-2.8-1.5c-1.9,0-3.2,1.5-3.2,3.3c0,1.8,1.2,3.3,3.1,3.3c1.3,0,2.2-0.6,2.9-1.5h0v2
				c-0.9,0.6-1.8,0.9-2.9,0.9c-2.7,0-4.8-2-4.8-4.7c0-2.7,2.2-4.7,4.8-4.7c1,0,2,0.3,2.8,0.9V56z"/>
			<path d="M212.2,46.5v7.8l0,0c0.6-0.9,1.5-1.3,2.6-1.3c2.5,0,3.1,1.8,3.1,3.9v5.3h-1.5v-5.1c0-1.5-0.1-2.8-1.9-2.8
				c-2.1,0-2.2,2-2.2,3.6v4.3h-1.5V46.5H212.2z"/>
			<path d="M252.5,56L252.5,56c-0.7-0.9-1.6-1.5-2.8-1.5c-1.9,0-3.2,1.5-3.2,3.3c0,1.8,1.2,3.3,3.1,3.3c1.3,0,2.2-0.6,2.9-1.5h0v2
				c-0.9,0.6-1.8,0.9-2.9,0.9c-2.7,0-4.8-2-4.8-4.7c0-2.7,2.2-4.7,4.8-4.7c1,0,2,0.3,2.8,0.9V56z"/>
			<path d="M266,62.3h-1.5V46.5h1.5V62.3z"/>
			<path d="M279.8,58.3c0,1.5,0.2,2.8,2,2.8s2-1.3,2-2.8v-5h1.5v5.2c0,2.4-0.9,4.1-3.6,4.1s-3.6-1.7-3.6-4.1v-5.2h1.5V58.3z"/>
			<path d="M297.7,46.5h1.5v8.1h0c0.7-1,1.9-1.5,3.1-1.5c2.7,0,4.3,2.2,4.3,4.7c0,2.5-1.7,4.7-4.3,4.7c-1.2,0-2.4-0.5-3.1-1.5h0v1.2
				h-1.5V46.5z M299.2,57.7c0,1.8,1,3.4,2.9,3.4c2,0,3-1.6,3-3.4c0-1.8-1.1-3.3-3-3.3C300.3,54.4,299.2,56,299.2,57.7z"/>
			<path d="M353,55.4c-0.2-0.5-0.7-0.9-1.2-0.9c-0.5,0-1.1,0.4-1.1,1c0,0.8,1,1.1,2.1,1.6c1.1,0.4,2.1,1.1,2.1,2.6
				c0,1.7-1.4,2.9-3,2.9c-1.5,0-2.7-0.9-3.2-2.3l1.4-0.6c0.4,0.8,0.8,1.4,1.8,1.4c0.8,0,1.5-0.6,1.5-1.4c0-2-4.1-1.3-4.1-4.2
				c0-1.5,1.2-2.5,2.7-2.5c1,0,2,0.7,2.4,1.7L353,55.4z"/>
			<path d="M367.9,58.3c0,1.5,0.2,2.8,2,2.8s2-1.3,2-2.8v-5h1.5v5.2c0,2.4-0.9,4.1-3.6,4.1s-3.6-1.7-3.6-4.1v-5.2h1.5V58.3z"/>
			<path d="M387.3,54.3L387.3,54.3c0.6-0.7,1-1.2,2-1.2c0.5,0,0.9,0.2,1.4,0.4l-0.7,1.4c-0.3-0.2-0.5-0.4-0.9-0.4
				c-1.7,0-1.8,2.2-1.8,3.3v4.5h-1.5v-9h1.5V54.3z"/>
			<path d="M403.3,54.3L403.3,54.3c0.6-0.7,1-1.2,2-1.2c0.5,0,0.9,0.2,1.4,0.4l-0.7,1.4c-0.3-0.2-0.5-0.4-0.9-0.4
				c-1.7,0-1.8,2.2-1.8,3.3v4.5h-1.5v-9h1.5V54.3z"/>
			<path d="M418.6,58.1c0,1.7,1.2,3,2.9,3c1.3,0,2.1-0.8,2.7-1.9l1.3,0.7c-0.9,1.6-2.3,2.5-4.2,2.5c-2.7,0-4.4-2-4.4-4.6
				c0-2.7,1.5-4.9,4.4-4.9c2.9,0,4.4,2.4,4.3,5.1H418.6z M424.1,56.8c-0.2-1.3-1.3-2.4-2.6-2.4c-1.3,0-2.5,1.1-2.7,2.4H424.1z"/>
			<path d="M438.9,54.4L438.9,54.4c0.7-0.9,1.5-1.3,2.6-1.3c2.5,0,3.1,1.8,3.1,3.9v5.3H443v-5.1c0-1.5-0.1-2.8-1.9-2.8
				c-2.1,0-2.2,2-2.2,3.6v4.3h-1.5v-9h1.5V54.4z"/>
			<path d="M463.7,61L463.7,61c-0.8,1-1.9,1.5-3.1,1.5c-2.6,0-4.3-2.2-4.3-4.7c0-2.6,1.6-4.8,4.3-4.8c1.2,0,2.4,0.6,3.1,1.5h0v-8.1
				h1.5v15.8h-1.5V61z M457.8,57.7c0,1.8,1,3.4,2.9,3.4c2,0,3-1.6,3-3.4c0-1.8-1.1-3.3-3-3.3C459,54.4,457.8,56,457.8,57.7z"/>
			<path d="M478.4,58.1c0,1.7,1.2,3,2.9,3c1.3,0,2.1-0.8,2.7-1.9l1.3,0.7c-0.9,1.6-2.3,2.5-4.2,2.5c-2.7,0-4.4-2-4.4-4.6
				c0-2.7,1.5-4.9,4.4-4.9c2.9,0,4.4,2.4,4.3,5.1H478.4z M483.8,56.8c-0.2-1.3-1.3-2.4-2.6-2.4c-1.3,0-2.5,1.1-2.7,2.4H483.8z"/>
			<path d="M498.6,54.3L498.6,54.3c0.6-0.7,1-1.2,2-1.2c0.5,0,0.9,0.2,1.4,0.4l-0.7,1.4c-0.3-0.2-0.5-0.4-0.9-0.4
				c-1.7,0-1.8,2.2-1.8,3.3v4.5H497v-9h1.5V54.3z"/>
			<path d="M530.1,54.4L530.1,54.4c0.7-0.9,1.5-1.3,2.6-1.3c2.5,0,3.1,1.8,3.1,3.9v5.3h-1.5v-5.1c0-1.5-0.1-2.8-1.9-2.8
				c-2.1,0-2.2,2-2.2,3.6v4.3h-1.5v-9h1.5V54.4z"/>
			<path d="M550.4,49.9c0,0.6-0.5,1.1-1.1,1.1c-0.6,0-1.1-0.5-1.1-1.1c0-0.6,0.5-1.1,1.1-1.1C549.9,48.8,550.4,49.3,550.4,49.9z
				 M550.1,62.3h-1.5v-9h1.5V62.3z"/>
			<path d="M570.9,61.8c0,1.4,0,2.7-0.9,3.9c-0.8,1.1-2.1,1.6-3.5,1.6c-2.5,0-4.4-1.6-4.4-4.1h1.5c0,1.7,1.2,2.7,2.9,2.7
				c2.4,0,2.9-1.7,2.9-3.8V61h0c-0.7,0.9-1.9,1.5-3.1,1.5c-2.6,0-4.3-2.2-4.3-4.7c0-2.5,1.7-4.8,4.3-4.8c1.2,0,2.3,0.6,3.1,1.5h0
				v-1.3h1.5V61.8z M563.5,57.7c0,1.8,1,3.4,2.9,3.4c2,0,3-1.6,3-3.4c0-1.8-1.1-3.3-3-3.3C564.7,54.4,563.5,56,563.5,57.7z"/>
			<path d="M585,46.5v7.8l0,0c0.6-0.9,1.5-1.3,2.6-1.3c2.5,0,3.1,1.8,3.1,3.9v5.3h-1.5v-5.1c0-1.5-0.1-2.8-1.9-2.8
				c-2.1,0-2.2,2-2.2,3.6v4.3h-1.5V46.5H585z"/>
			<path d="M604.8,62.3h-1.5v-7.6h-0.9v-1.4h0.9V50h1.5v3.2h1.6v1.4h-1.6V62.3z"/>
			<path d="M639.5,56L639.5,56c-0.7-0.9-1.6-1.5-2.8-1.5c-1.9,0-3.2,1.5-3.2,3.3c0,1.8,1.2,3.3,3.1,3.3c1.3,0,2.2-0.6,2.9-1.5h0v2
				c-0.9,0.6-1.8,0.9-2.9,0.9c-2.7,0-4.8-2-4.8-4.7c0-2.7,2.2-4.7,4.8-4.7c1,0,2,0.3,2.8,0.9V56z"/>
			<path d="M652.9,62.3h-1.5V46.5h1.5V62.3z"/>
			<path d="M666.8,58.3c0,1.5,0.2,2.8,2,2.8s2-1.3,2-2.8v-5h1.5v5.2c0,2.4-0.9,4.1-3.6,4.1s-3.6-1.7-3.6-4.1v-5.2h1.5V58.3z"/>
			<path d="M684.7,46.5h1.5v8.1h0c0.7-1,1.9-1.5,3.1-1.5c2.7,0,4.3,2.2,4.3,4.7c0,2.5-1.7,4.7-4.3,4.7c-1.2,0-2.4-0.5-3.1-1.5h0v1.2
				h-1.5V46.5z M686.1,57.7c0,1.8,1,3.4,2.9,3.4c2,0,3-1.6,3-3.4c0-1.8-1.1-3.3-3-3.3C687.3,54.4,686.1,56,686.1,57.7z"/>
		</g>
		<circle cx="327.7" cy="56.6" r="3.2"/>
	</g>
</g>
</svg>
