<?xml version="1.0" encoding="utf-8"?>
<!-- Generator: Adobe Illustrator 19.0.1, SVG Export Plug-In . SVG Version: 6.00 Build 0)  -->
<svg version="1.1" xmlns="http://www.w3.org/2000/svg" xmlns:xlink="http://www.w3.org/1999/xlink" x="0px" y="0px"
	 viewBox="0 0 698.9 88.8" style="enable-background:new 0 0 698.9 88.8;" xml:space="preserve">
<style type="text/css">
	.st0{display:none;}
	.st1{display:inline;fill:#FFFFFF;}
	.st2{fill:#FFFFFF;}
	.st3{fill:#3399CC;}
	.st4{fill:#231F20;}
</style>
<g id="Layer_1" class="st0">
	<rect x="-288.9" y="-194.9" class="st1" width="1280" height="500"/>
</g>
<g id="Layer_2">
	<g>
		<g>
			<g>
				<path d="M5.6,79.6c0,1.7,1.2,3,2.9,3c1.3,0,2.1-0.8,2.7-1.9l1.3,0.7c-0.9,1.6-2.3,2.5-4.2,2.5c-2.7,0-4.4-2-4.4-4.6
					c0-2.7,1.6-4.9,4.4-4.9c2.9,0,4.4,2.4,4.3,5.1H5.6z M11,78.3c-0.2-1.3-1.3-2.4-2.6-2.4c-1.3,0-2.5,1.1-2.7,2.4H11z"/>
				<path d="M25.9,75.8L25.9,75.8c0.7-0.9,1.5-1.3,2.6-1.3c2.5,0,3.1,1.8,3.1,3.9v5.3H30v-5.1c0-1.5-0.1-2.8-1.9-2.8
					c-2.1,0-2.2,2-2.2,3.6v4.3h-1.5v-9h1.5V75.8z"/>
				<path d="M50.7,77.4L50.7,77.4c-0.7-0.9-1.6-1.5-2.8-1.5c-1.9,0-3.2,1.5-3.2,3.3c0,1.8,1.2,3.3,3.1,3.3c1.3,0,2.2-0.6,2.9-1.5h0
					v2C49.9,83.7,49,84,47.9,84c-2.7,0-4.8-2-4.8-4.7c0-2.7,2.2-4.7,4.8-4.7c1,0,2,0.3,2.8,0.9V77.4z"/>
				<path d="M61.9,79.3c0-2.6,2.1-4.8,4.7-4.8s4.7,2.1,4.7,4.8S69.2,84,66.6,84C64,84,61.9,81.9,61.9,79.3z M63.4,79.2
					c0,1.8,1.3,3.3,3.2,3.3c1.9,0,3.2-1.5,3.2-3.3c0-1.8-1.3-3.3-3.2-3.3C64.7,75.9,63.4,77.4,63.4,79.2z"/>
				<path d="M84.5,75.7L84.5,75.7c0.6-0.7,1-1.2,2-1.2c0.5,0,0.9,0.2,1.4,0.4l-0.7,1.4c-0.3-0.2-0.5-0.4-0.9-0.4
					c-1.7,0-1.8,2.2-1.8,3.3v4.5h-1.5v-9h1.5V75.7z"/>
				<path d="M99.7,79.6c0,1.7,1.2,3,2.9,3c1.3,0,2.1-0.8,2.7-1.9l1.3,0.7c-0.9,1.6-2.3,2.5-4.2,2.5c-2.7,0-4.4-2-4.4-4.6
					c0-2.7,1.6-4.9,4.4-4.9c2.9,0,4.4,2.4,4.3,5.1H99.7z M105.2,78.3c-0.2-1.3-1.3-2.4-2.6-2.4c-1.3,0-2.5,1.1-2.7,2.4H105.2z"/>
				<path d="M133.9,68h1.5V76h0c0.7-1,1.9-1.5,3.1-1.5c2.7,0,4.3,2.2,4.3,4.7c0,2.5-1.7,4.7-4.3,4.7c-1.2,0-2.4-0.5-3.1-1.5h0v1.2
					h-1.5V68z M135.3,79.2c0,1.8,1,3.4,2.9,3.4c2,0,3-1.6,3-3.4c0-1.8-1.1-3.3-3-3.3C136.5,75.9,135.3,77.5,135.3,79.2z"/>
				<path d="M155.3,79.6c0,1.7,1.2,3,2.9,3c1.3,0,2.1-0.8,2.7-1.9l1.3,0.7c-0.9,1.6-2.3,2.5-4.2,2.5c-2.7,0-4.4-2-4.4-4.6
					c0-2.7,1.6-4.9,4.4-4.9c2.9,0,4.4,2.4,4.3,5.1H155.3z M160.8,78.3c-0.2-1.3-1.3-2.4-2.6-2.4c-1.3,0-2.5,1.1-2.7,2.4H160.8z"/>
				<path d="M182.3,83.7h-1.5v-1.2h0c-0.8,1-1.8,1.5-3.1,1.5c-2.6,0-4.3-2.2-4.3-4.7c0-2.6,1.6-4.8,4.3-4.8c1.2,0,2.3,0.6,3.1,1.5h0
					v-1.3h1.5V83.7z M174.8,79.2c0,1.8,1,3.4,2.9,3.4c2,0,3-1.6,3-3.4c0-1.8-1.1-3.3-3-3.3C176,75.9,174.8,77.5,174.8,79.2z"/>
				<path d="M201.3,77.4L201.3,77.4c-0.7-0.9-1.6-1.5-2.8-1.5c-1.9,0-3.2,1.5-3.2,3.3c0,1.8,1.2,3.3,3.1,3.3c1.3,0,2.2-0.6,2.9-1.5
					h0v2c-0.9,0.6-1.8,0.9-2.9,0.9c-2.7,0-4.8-2-4.8-4.7c0-2.7,2.2-4.7,4.8-4.7c1,0,2,0.3,2.8,0.9V77.4z"/>
				<path d="M214.9,68v7.8l0,0c0.6-0.9,1.5-1.3,2.6-1.3c2.5,0,3.1,1.8,3.1,3.9v5.3H219v-5.1c0-1.5-0.1-2.8-1.9-2.8
					c-2.1,0-2.2,2-2.2,3.6v4.3h-1.5V68H214.9z"/>
				<path d="M255.1,77.4L255.1,77.4c-0.7-0.9-1.6-1.5-2.8-1.5c-1.9,0-3.2,1.5-3.2,3.3c0,1.8,1.2,3.3,3.1,3.3c1.3,0,2.2-0.6,2.9-1.5
					h0v2c-0.9,0.6-1.8,0.9-2.9,0.9c-2.7,0-4.8-2-4.8-4.7c0-2.7,2.2-4.7,4.8-4.7c1,0,2,0.3,2.8,0.9V77.4z"/>
				<path d="M268.6,83.7h-1.5V68h1.5V83.7z"/>
				<path d="M282.5,79.8c0,1.5,0.2,2.8,2,2.8s2-1.3,2-2.8v-5h1.5v5.2c0,2.4-0.9,4.1-3.6,4.1s-3.6-1.7-3.6-4.1v-5.2h1.5V79.8z"/>
				<path d="M300.3,68h1.5V76h0c0.7-1,1.9-1.5,3.1-1.5c2.7,0,4.3,2.2,4.3,4.7c0,2.5-1.7,4.7-4.3,4.7c-1.2,0-2.4-0.5-3.1-1.5h0v1.2
					h-1.5V68z M301.8,79.2c0,1.8,1,3.4,2.9,3.4c2,0,3-1.6,3-3.4c0-1.8-1.1-3.3-3-3.3C302.9,75.9,301.8,77.5,301.8,79.2z"/>
				<path d="M355.6,76.8c-0.2-0.5-0.7-0.9-1.2-0.9c-0.5,0-1.1,0.4-1.1,1c0,0.8,1,1.1,2.1,1.6c1.1,0.4,2.1,1.1,2.1,2.6
					c0,1.7-1.4,2.9-3,2.9c-1.5,0-2.7-0.9-3.2-2.3l1.4-0.6c0.4,0.8,0.8,1.4,1.8,1.4c0.8,0,1.5-0.6,1.5-1.4c0-2-4.1-1.3-4.1-4.2
					c0-1.5,1.2-2.5,2.7-2.5c1,0,2,0.7,2.4,1.7L355.6,76.8z"/>
				<path d="M370.6,79.8c0,1.5,0.2,2.8,2,2.8s2-1.3,2-2.8v-5h1.5v5.2c0,2.4-0.9,4.1-3.6,4.1s-3.6-1.7-3.6-4.1v-5.2h1.5V79.8z"/>
				<path d="M390,75.7L390,75.7c0.6-0.7,1-1.2,2-1.2c0.5,0,0.9,0.2,1.4,0.4l-0.7,1.4c-0.3-0.2-0.5-0.4-0.9-0.4
					c-1.7,0-1.8,2.2-1.8,3.3v4.5h-1.5v-9h1.5V75.7z"/>
				<path d="M405.9,75.7L405.9,75.7c0.6-0.7,1-1.2,2-1.2c0.5,0,0.9,0.2,1.4,0.4l-0.7,1.4c-0.3-0.2-0.5-0.4-0.9-0.4
					c-1.7,0-1.8,2.2-1.8,3.3v4.5h-1.5v-9h1.5V75.7z"/>
				<path d="M421.2,79.6c0,1.7,1.2,3,2.9,3c1.3,0,2.1-0.8,2.7-1.9l1.3,0.7c-0.9,1.6-2.3,2.5-4.2,2.5c-2.7,0-4.4-2-4.4-4.6
					c0-2.7,1.5-4.9,4.4-4.9c2.9,0,4.4,2.4,4.3,5.1H421.2z M426.7,78.3c-0.2-1.3-1.3-2.4-2.6-2.4c-1.3,0-2.5,1.1-2.7,2.4H426.7z"/>
				<path d="M441.5,75.8L441.5,75.8c0.7-0.9,1.5-1.3,2.6-1.3c2.5,0,3.1,1.8,3.1,3.9v5.3h-1.5v-5.1c0-1.5-0.1-2.8-1.9-2.8
					c-2.1,0-2.2,2-2.2,3.6v4.3H440v-9h1.5V75.8z"/>
				<path d="M466.3,82.5L466.3,82.5c-0.8,1-1.9,1.5-3.1,1.5c-2.6,0-4.3-2.2-4.3-4.7c0-2.6,1.6-4.8,4.3-4.8c1.2,0,2.4,0.6,3.1,1.5h0
					V68h1.5v15.8h-1.5V82.5z M460.4,79.2c0,1.8,1,3.4,2.9,3.4c2,0,3-1.6,3-3.4c0-1.8-1.1-3.3-3-3.3
					C461.6,75.9,460.4,77.5,460.4,79.2z"/>
				<path d="M481,79.6c0,1.7,1.2,3,2.9,3c1.3,0,2.1-0.8,2.7-1.9l1.3,0.7c-0.9,1.6-2.3,2.5-4.2,2.5c-2.7,0-4.4-2-4.4-4.6
					c0-2.7,1.5-4.9,4.4-4.9c2.9,0,4.4,2.4,4.3,5.1H481z M486.5,78.3c-0.2-1.3-1.3-2.4-2.6-2.4c-1.3,0-2.5,1.1-2.7,2.4H486.5z"/>
				<path d="M501.2,75.7L501.2,75.7c0.6-0.7,1-1.2,2-1.2c0.5,0,0.9,0.2,1.4,0.4l-0.7,1.4c-0.3-0.2-0.5-0.4-0.9-0.4
					c-1.7,0-1.8,2.2-1.8,3.3v4.5h-1.5v-9h1.5V75.7z"/>
				<path d="M532.7,75.8L532.7,75.8c0.7-0.9,1.5-1.3,2.6-1.3c2.5,0,3.1,1.8,3.1,3.9v5.3h-1.5v-5.1c0-1.5-0.1-2.8-1.9-2.8
					c-2.1,0-2.2,2-2.2,3.6v4.3h-1.5v-9h1.5V75.8z"/>
				<path d="M553,71.4c0,0.6-0.5,1.1-1.1,1.1c-0.6,0-1.1-0.5-1.1-1.1c0-0.6,0.5-1.1,1.1-1.1C552.5,70.3,553,70.8,553,71.4z
					 M552.7,83.7h-1.5v-9h1.5V83.7z"/>
				<path d="M573.6,83.3c0,1.4,0,2.7-0.9,3.9c-0.8,1.1-2.1,1.6-3.5,1.6c-2.5,0-4.4-1.6-4.4-4.1h1.5c0,1.7,1.2,2.7,2.9,2.7
					c2.4,0,2.9-1.7,2.9-3.8v-1.1h0c-0.7,0.9-1.9,1.5-3.1,1.5c-2.6,0-4.3-2.2-4.3-4.7c0-2.5,1.7-4.8,4.3-4.8c1.2,0,2.3,0.6,3.1,1.5h0
					v-1.3h1.5V83.3z M566.2,79.2c0,1.8,1,3.4,2.9,3.4c2,0,3-1.6,3-3.4c0-1.8-1.1-3.3-3-3.3C567.3,75.9,566.2,77.5,566.2,79.2z"/>
				<path d="M587.6,68v7.8l0,0c0.6-0.9,1.5-1.3,2.6-1.3c2.5,0,3.1,1.8,3.1,3.9v5.3h-1.5v-5.1c0-1.5-0.1-2.8-1.9-2.8
					c-2.1,0-2.2,2-2.2,3.6v4.3h-1.5V68H587.6z"/>
				<path d="M607.4,83.7h-1.5v-7.6h-0.9v-1.4h0.9v-3.2h1.5v3.2h1.6v1.4h-1.6V83.7z"/>
				<path d="M642.1,77.4L642.1,77.4c-0.7-0.9-1.6-1.5-2.8-1.5c-1.9,0-3.2,1.5-3.2,3.3c0,1.8,1.2,3.3,3.1,3.3c1.3,0,2.2-0.6,2.9-1.5
					h0v2c-0.9,0.6-1.8,0.9-2.9,0.9c-2.7,0-4.8-2-4.8-4.7c0-2.7,2.2-4.7,4.8-4.7c1,0,2,0.3,2.8,0.9V77.4z"/>
				<path d="M655.6,83.7H654V68h1.5V83.7z"/>
				<path d="M669.4,79.8c0,1.5,0.2,2.8,2,2.8s2-1.3,2-2.8v-5h1.5v5.2c0,2.4-0.9,4.1-3.6,4.1s-3.6-1.7-3.6-4.1v-5.2h1.5V79.8z"/>
				<path d="M687.3,68h1.5V76h0c0.7-1,1.9-1.5,3.1-1.5c2.7,0,4.3,2.2,4.3,4.7c0,2.5-1.7,4.7-4.3,4.7c-1.2,0-2.4-0.5-3.1-1.5h0v1.2
					h-1.5V68z M688.7,79.2c0,1.8,1,3.4,2.9,3.4c2,0,3-1.6,3-3.4c0-1.8-1.1-3.3-3-3.3C689.9,75.9,688.7,77.5,688.7,79.2z"/>
			</g>
			<circle cx="330.3" cy="78.1" r="3.2"/>
		</g>
		<g>
			<path d="M24.1,36.9h0.1L35.6,1.8h11.2l10.7,35.1h0.1L67.9,1.8h14.7L65.2,56.1H50.8l-9.5-31.5h-0.1L30.5,56.1H16.2L0,1.8h14.7
				L24.1,36.9z"/>
			<path d="M80.1,1.8h16.9l10.2,14.8l10.2-14.8h16.9l-20,28.2v26.1h-14.1V30L80.1,1.8z"/>
			<path d="M137.5,1.8h14.1L177.5,35h0.1V1.8h14.1v54.3h-14.1l-25.9-33.3h-0.1v33.3h-14.1V1.8z"/>
			<path d="M201,1.8h14.1L240.9,35h0.1V1.8h14.1v54.3h-14.1l-25.9-33.3h-0.1v33.3H201V1.8z"/>
			<path d="M303.2,44.1h16.9v12h-31V1.8h14.1V44.1z"/>
			<path d="M338.5,46.7l-3.7,9.4h-15l20.9-54.3h15.4l20.5,54.3h-15l-3.5-9.4H338.5z M348.4,18.6h-0.1l-5.8,17.3h11.7L348.4,18.6z"/>
			<path d="M410.8,15.8c-2.6-2.2-5.9-3.6-9.4-3.6c-2.6,0-6,1.5-6,4.5c0,3.2,3.8,4.4,6.3,5.2l3.6,1.1c7.6,2.2,13.4,6,13.4,14.8
				c0,5.4-1.3,10.9-5.6,14.6c-4.2,3.6-9.9,5.1-15.4,5.1c-6.8,0-13.5-2.3-19.1-6.2l6-11.4c3.5,3.1,7.7,5.6,12.5,5.6
				c3.3,0,6.8-1.7,6.8-5.5c0-4-5.5-5.3-8.6-6.2c-8.9-2.5-14.7-4.8-14.7-15.3c0-11,7.8-18.2,18.7-18.2c5.5,0,12.2,1.7,17,4.5
				L410.8,15.8z"/>
			<path d="M472.7,34.8l13.2-33h15.3l-23.2,54.3h-10.9L444.3,1.8h15.3L472.7,34.8z"/>
			<path d="M518.9,13.8v9.1h15.9v12h-15.9v9.4h16.8v12h-30.9V1.8h30.9v12H518.9z"/>
			<path d="M598.5,25.8c-0.1,7.9-0.7,14.7-5.5,21.5c-5.3,7.4-13.3,10.7-22.4,10.7c-17.1,0-28.9-11.6-28.9-28.7
				c0-17.6,12-29.2,29.5-29.2c11.2,0,19.8,5,24.5,15.2l-13.4,5.6c-1.9-5.2-6-8.6-11.7-8.6c-9.3,0-14.1,8.9-14.1,17.1
				c0,8.4,5,17,14.3,17c6.1,0,10.8-3.2,11.4-9.4h-11.5V25.8H598.5z"/>
			<path d="M618.8,46.7l-3.7,9.4h-15L621,1.8h15.4l20.5,54.3h-15l-3.5-9.4H618.8z M628.7,18.6h-0.1l-5.8,17.3h11.7L628.7,18.6z"/>
			<path d="M691.1,15.8c-2.6-2.2-5.9-3.6-9.4-3.6c-2.6,0-6,1.5-6,4.5c0,3.2,3.8,4.4,6.3,5.2l3.6,1.1c7.6,2.2,13.4,6,13.4,14.8
				c0,5.4-1.3,10.9-5.6,14.6c-4.2,3.6-9.9,5.1-15.4,5.1c-6.8,0-13.5-2.3-19.1-6.2l6-11.4c3.5,3.1,7.7,5.6,12.5,5.6
				c3.3,0,6.8-1.7,6.8-5.5c0-4-5.5-5.3-8.6-6.2c-8.9-2.5-14.7-4.8-14.7-15.3c0-11,7.8-18.2,18.7-18.2c5.5,0,12.2,1.7,17,4.5
				L691.1,15.8z"/>
		</g>
	</g>
</g>
</svg>
