<?xml version="1.0" encoding="utf-8"?>
<!-- Generator: Adobe Illustrator 19.0.1, SVG Export Plug-In . SVG Version: 6.00 Build 0)  -->
<svg version="1.1" xmlns="http://www.w3.org/2000/svg" xmlns:xlink="http://www.w3.org/1999/xlink" x="0px" y="0px"
	 viewBox="0 0 705.5 226.5" style="enable-background:new 0 0 705.5 226.5;" xml:space="preserve">
<style type="text/css">
	.st0{fill:#FFFFFF;}
	.st1{fill:#3399CC;}
	.st2{fill:#653614;}
	.st3{fill:#382C3D;}
	.st4{fill:#3D220E;}
	.st5{fill:#CDCBCA;}
	.st6{fill:#392C3E;}
	.st7{clip-path:url(#SVGID_2_);}
	.st8{clip-path:url(#SVGID_4_);}
	.st9{clip-path:url(#SVGID_14_);fill:#292929;}
	.st10{clip-path:url(#SVGID_14_);}
	.st11{clip-path:url(#SVGID_16_);}
	.st12{clip-path:url(#SVGID_14_);fill:#ECEAE5;}
	.st13{clip-path:url(#SVGID_14_);fill:#727272;}
	.st14{fill:#727272;}
	.st15{clip-path:url(#SVGID_14_);fill:none;stroke:#727272;stroke-width:1.0618;stroke-miterlimit:10;}
	.st16{clip-path:url(#SVGID_14_);fill:none;stroke:#D6B35A;stroke-width:0.8374;}
	.st17{clip-path:url(#SVGID_20_);fill:#898B8D;}
	.st18{clip-path:url(#SVGID_20_);fill:none;stroke:#FFFFFF;stroke-width:0.2094;stroke-miterlimit:10;}
	.st19{clip-path:url(#SVGID_20_);fill:#FFFFFF;}
	.st20{clip-path:url(#SVGID_14_);fill:none;stroke:#878686;stroke-width:0.2094;stroke-miterlimit:10;}
	.st21{clip-path:url(#SVGID_22_);}
	.st22{fill:#ECEAE5;}
	.st23{clip-path:url(#SVGID_24_);fill:none;stroke:#727272;stroke-width:0.8374;}
	.st24{clip-path:url(#SVGID_26_);}
	.st25{clip-path:url(#SVGID_28_);}
	.st26{clip-path:url(#SVGID_38_);}
	.st27{fill:#EBE9E3;}
	.st28{fill:#6C6C6C;}
	.st29{fill:none;stroke:#58595B;stroke-width:0.3812;stroke-miterlimit:10;}
	.st30{fill:#231F20;}
	.st31{fill:#58595B;}
	.st32{clip-path:url(#SVGID_42_);}
	.st33{clip-path:url(#SVGID_46_);}
	.st34{clip-path:url(#SVGID_50_);}
	.st35{opacity:0.5;fill:#653614;}
	.st36{fill-rule:evenodd;clip-rule:evenodd;fill:#CDCBCA;}
	.st37{fill-rule:evenodd;clip-rule:evenodd;fill:#392C3E;}
	.st38{fill:none;stroke:#CDCBCA;stroke-width:0.9925;stroke-miterlimit:10;}
	.st39{clip-path:url(#SVGID_54_);}
	.st40{fill-rule:evenodd;clip-rule:evenodd;fill:#989898;}
	.st41{fill-rule:evenodd;clip-rule:evenodd;fill:#FFFFFF;}
	.st42{fill:#979797;}
	.st43{opacity:0.78;}
	.st44{opacity:0.67;}
	.st45{fill:#EFEFEF;}
	.st46{fill-rule:evenodd;clip-rule:evenodd;fill:#998881;}
	.st47{fill:#998881;}
	.st48{opacity:0.5;clip-path:url(#SVGID_60_);fill:#653614;}
	.st49{clip-path:url(#SVGID_62_);}
	.st50{clip-path:url(#SVGID_64_);}
	.st51{fill:none;stroke:#FFFFFF;stroke-width:1.0598;stroke-miterlimit:10;}
	.st52{fill:none;stroke:#FFFFFF;stroke-width:1.7138;stroke-miterlimit:10;}
	.st53{clip-path:url(#SVGID_68_);}
	.st54{fill:none;stroke:#FFFFFF;stroke-width:1.0849;stroke-miterlimit:10;}
	.st55{fill:none;stroke:#FFFFFF;stroke-width:0.7232;stroke-miterlimit:10;}
	.st56{clip-path:url(#SVGID_72_);}
	.st57{clip-path:url(#SVGID_76_);}
	.st58{clip-path:url(#SVGID_80_);}
	.st59{fill:none;stroke:#FFFFFF;stroke-width:1.4465;stroke-miterlimit:10;}
	.st60{fill:none;stroke:#653614;stroke-width:1.0849;stroke-miterlimit:10;}
	.st61{fill:none;stroke:#FFFFFF;stroke-width:1.9662;stroke-miterlimit:10;}
	.st62{fill:none;stroke:#653614;stroke-width:2.1697;stroke-miterlimit:10;}
	.st63{fill:none;stroke:#FFFFFF;stroke-width:1.9057;stroke-miterlimit:10;}
	.st64{fill:none;stroke:#FFFFFF;stroke-width:2.3905;stroke-miterlimit:10;}
</style>
<g id="Layer_1">
</g>
<g id="Layer_2">
	<g>
		<g>
			<circle class="st52" cx="113.3" cy="113.3" r="106.2"/>
			<path class="st52" d="M225.7,113.3c0-62.1-50.3-112.4-112.4-112.4C51.2,0.9,0.9,51.2,0.9,113.3c0,62.1,50.3,112.4,112.4,112.4
				C175.4,225.7,225.7,175.4,225.7,113.3z"/>
			<path class="st0" d="M182.8,109.6c0-0.3,0.2-0.4,0.5-0.4c0.3,0,0.5,0.2,0.5,0.5c-0.1,0.5-0.1,1-0.1,1.4c0,0.4,0,0.9,0,1.3h0.2
				c0.5,0.1,0.8,0.3,0.8,0.8c0,0.2,0.1,0.5,0.2,0.8c0.6,0.1,1.3,0.2,1.9,0.3c0.7,0.2,1.4,0.4,2.1,0.8c0.3,0.1,0.4,0.3,0.3,0.5
				c-0.1,0.2-0.3,0.3-0.6,0.3c-1-0.3-2.1-0.4-3.4-0.2c-0.1,0.2-0.4,0.3-0.7,0.3H184c-0.2,1.4-0.4,3-0.4,4.7c0.9-0.3,1.7-0.6,2.4-1
				c0.8-0.3,1.2-0.6,1.3-0.8c0.1-0.2,0.3-0.4,0.6-0.3c0.2,0,0.4,0.2,0.4,0.5c-0.1,0.7-0.7,1.3-1.7,1.8c-1,0.6-2,1-2.9,1.4
				c0,0.1,0,0.1,0,0.1c0,0,0,0.1,0,0.1v0.1c0,0.4-0.1,0.7-0.4,0.8c-0.1,0.6-0.1,1.1-0.1,1.7c0,0.6,0,1.1-0.1,1.7c0,0.4,0,0.7,0,1.1
				c0,0.4,0,0.7,0.1,1v1c-0.1,0.3-0.3,0.5-0.5,0.5c-0.2,0-0.4-0.1-0.5-0.4c-0.2-1-0.3-2-0.4-3c-0.1-1-0.2-2-0.2-3.1
				c-1.2,0.3-2.4,0.8-3.4,1.4c-1,0.6-2,1.3-3,2.1c-1,0.7-2,1.4-3,2c-1,0.6-2.2,1-3.5,1.3c-0.1,1.4-0.1,2.7-0.1,4
				c0,1.3,0,2.6-0.1,3.9c0,1.4,0,2.8,0,4.2c0,1.4,0,2.8-0.1,4.2c0,0.1-0.1,0.3-0.3,0.5c-0.1,1-0.1,2-0.1,2.9c0,1,0,1.9,0,2.9v1.8
				c0,1.7-0.1,3.3-0.2,4.6v2.8c-0.1,0.9-0.4,1.5-1,1.8c0.1,0.4,0.1,0.9,0.1,1.3c0,0.4,0.1,0.9,0.2,1.3c0.2,0.1,0.3,0.3,0.3,0.5
				c0,0.2,0,0.3-0.1,0.4c-0.1,0.3-0.2,0.4-0.4,0.4c-0.2,0-0.4-0.1-0.5-0.3c-0.1-0.5-0.2-1-0.3-1.5c-0.1-0.5-0.2-1.1-0.2-1.6
				c-0.5,0.4-1.1,0.9-1.8,1.3l-1.3,1.1c0,0.1,0,0.1-0.1,0.2l-0.2,0.1c-1.9,1.6-4.1,3.1-6.6,4.4c-0.4,0.2-0.7,0.4-1.1,0.6
				c-1.1,1-2.2,1.9-3.3,2.8c-1.1,0.9-2.4,1.6-3.8,2.2c-1.9,0.7-3.8,1.3-5.8,1.8c-1.9,0.4-3.9,0.9-5.9,1.5c-2.3,0.6-4.7,1.3-7,2.1
				c-2.3,0.8-4.7,1.3-7.1,1.5c-8.9,0.7-17.6,0.3-26.1-1.2c-8.5-1.5-16.7-4.3-24.7-8.5c-0.9-0.5-2-1.2-3.6-2.1
				c-1.5-0.9-3.1-2-4.8-3.2c-1.7-1.2-3.5-2.6-5.3-4c-1.8-1.4-3.5-2.9-5-4.5c-1.5-1.5-2.8-3.1-3.9-4.6c-1.1-1.5-1.7-3-2-4.4v-0.1
				c-0.7-1.7-1.2-3.3-1.6-5c-0.4-1.7-0.8-3.4-1.4-5.2c-0.2-0.8-0.5-1.5-0.9-2.2c-0.3-0.7-0.7-1.4-1-2.1c-0.3-0.9-0.5-1.9-0.6-2.8
				c-0.1-1-0.2-1.9-0.4-2.8c-0.2-1.4-0.5-2.5-0.8-3.5c-0.3-1-0.6-2-0.9-2.9c-0.3-1-0.6-2-0.9-3c-0.3-1-0.4-2.4-0.5-4
				c-0.2-2.8-0.1-5.6,0.1-8.4c0.3-2.9,0.7-5.7,1.2-8.4c0.4-2.7,1-5.3,1.8-7.8c0.1-0.3,0.2-0.5,0.5-0.6c0.6-1.7,1.1-3.4,1.8-5
				c0.6-1.6,1.3-3.2,2-4.8c0.9-1.9,1.9-3.7,3.1-5.4c1.2-1.7,2.5-3.3,3.7-4.9c0.9-1.2,1.8-2.6,2.6-4.1c0.8-1.5,1.7-2.9,2.7-4.3
				c1-1.4,2-2.6,3.1-3.7c1.1-1.1,2.5-1.9,4.1-2.4h0.1c2.1-1.9,4.1-3.5,6.1-4.8c2-1.3,4-2.5,6.1-3.5c2.1-1,4.3-1.8,6.6-2.5
				c2.3-0.7,4.9-1.4,7.8-2c4.9-1.4,9.3-2.2,13-2.7c0.5-0.1,1-0.1,1.5-0.1c1.4-0.2,2.8-0.3,4.1-0.4c1.3-0.1,2.7-0.1,4,0
				c1.8,0.1,3.6,0.2,5.4,0.3c4.2,0.4,8.4,1.4,12.6,3c1.1,0.1,2.2,0.2,3.2,0.3c1,0.2,2.1,0.4,3.2,0.8c1.1,0.4,2.2,0.9,3.4,1.5
				c1.2,0.6,2.4,1.5,3.8,2.5c0.2-0.3,0.4-0.6,0.7-1c0.3-0.4,0.6-0.7,0.9-1c-0.1-0.1-0.1-0.3-0.1-0.6c0-0.3,0.1-0.5,0.2-0.6
				c-0.3,0-0.8,0.1-1.4,0.2h-0.2c-0.1,0-0.2,0-0.3,0.1c-0.3-0.1-0.5-0.3-0.5-0.5c0-0.2,0.1-0.4,0.3-0.5c0.2-0.1,0.5-0.2,0.7-0.2
				c0.2,0,0.5-0.1,0.8-0.1c0.1-0.2,0.3-0.4,0.5-0.4h1.6c0.4-0.9,0.8-1.7,1.3-2.5c0.5-0.8,1.1-1.4,1.9-1.9c0.2-0.2,0.4-0.2,0.6,0
				c0.2,0.2,0.2,0.4,0.2,0.6c-0.1,0.2-0.2,0.4-0.3,0.6c-0.1,0.2-0.2,0.4-0.3,0.6c-0.2,0.4-0.5,0.5-0.7,0.4c-0.2,0.3-0.3,0.6-0.4,1
				c-0.1,0.4-0.2,0.7-0.3,1c0.1,0.1,0.2,0.1,0.4,0.1c1.3,0,2.6,0,3.8,0.1c1.3,0.1,2.5,0.2,3.8,0.3c0.3-0.4,0.6-0.7,0.9-0.7
				c0.1-0.6,0.1-1.2,0.1-1.8c0-0.6,0.1-1.2,0.1-1.9c0-0.3,0.2-0.4,0.5-0.4c0.3,0,0.5,0.2,0.5,0.5c0,0.4,0,0.8,0,1.2
				c0,0.4,0,0.8,0,1.2c0.4,0.1,0.6,0.3,0.6,0.8v0.7c0.1,0.1,0.1,0.2,0.1,0.2c0,0,0.1,0.1,0.1,0.2c0.6,0.1,1.2,0.1,1.8,0.1
				c0.6,0,1.3,0.1,1.9,0.1c0.3,0.1,0.5,0.3,0.5,0.6c0,0.2-0.2,0.4-0.5,0.4c-0.4,0.1-0.9,0.1-1.3,0.1c-0.4,0-0.9,0-1.3,0
				c0.1,0.1,0.1,0.2,0.2,0.3c0.1,0.1,0.1,0.2,0.1,0.4c0,0.3-0.2,0.5-0.6,0.6l-0.6,0.1c-0.1,6.6-0.2,13.2-0.3,19.8
				c-0.1,6.6-0.2,13.2-0.3,19.8c0.6,0.1,1.2,0.2,1.8,0.4c0.6,0.1,1.2,0.2,1.8,0.2c-0.1-0.2-0.1-0.4,0.1-0.5c0.2-0.1,0.4-0.1,0.6,0
				c0.2,0.2,0.4,0.5,0.5,0.8c0,0.2-0.2,0.4-0.5,0.6l-0.2,0.2c-0.2,0.1-0.5,0.2-0.7,0.3c-0.2,0.1-0.4,0.2-0.7,0.3
				c0.2,0.1,0.4,0.3,0.4,0.6V92c-0.1,0.4-0.4,0.6-0.8,0.6h-0.3c-1-0.2-2-0.3-3-0.5c0,0.9,0,1.7,0,2.4c0,0.8-0.1,1.6-0.1,2.4
				c0,0.3-0.2,0.5-0.5,0.5c-0.3,0-0.5-0.2-0.5-0.5c-0.1-0.8-0.1-1.6-0.1-2.4c0-0.8-0.1-1.6-0.1-2.5l-0.1-0.1l-2.1-0.2
				c-1,0.1-2.1,0.1-3.2,0c0.4,0.7,0.8,1.3,1.2,2c0.4,0.6,0.8,1.3,1.3,1.9c0.2,0.2,0.2,0.5,0,0.6c-0.2,0.2-0.4,0.2-0.6-0.1
				c-0.1-0.1-0.2-0.2-0.3-0.2c-0.1,0-0.2-0.1-0.3-0.2c0.1,0.2,0.4,0.6,0.7,1.1c0.2,0.2,0.2,0.5,0,0.6c-0.2,0.2-0.4,0.2-0.6-0.1
				c-0.9-0.9-1.6-1.8-2.2-2.8c-0.6-1-1.2-2-1.7-3h-0.2l0.1,0.2v0.5c0,0.5-0.1,0.8-0.2,0.9c-0.2,0.2-0.4,0.3-0.7,0.3h-0.2
				c-0.4-0.1-0.6-0.3-0.8-0.6c-0.1-0.1-0.1-0.4-0.2-0.9c-0.2,0.1-0.4,0.2-0.6,0.3c-0.1,0.1-0.2,0.2-0.3,0.3V93
				c0,0.4-0.2,0.6-0.7,0.6c-0.6,0-1-0.3-1-0.8v-0.3c0-0.3,0.1-0.6,0.2-0.8c-0.3,0-0.6,0-1,0c-0.3,0-0.7,0-1-0.1
				c-0.3,0-0.5-0.1-0.5-0.4c-0.5,0-0.8,0-1,0.1h-0.3h-0.2c-0.2-0.1-0.3-0.3-0.3-0.5c0-0.2,0.1-0.4,0.3-0.4c1.5-0.4,3.2-0.7,5-1.1
				c-0.5-0.6-1-1.4-1.4-2.3c-0.5-0.9-0.9-1.8-1.2-2.7c-0.4-0.9-0.7-1.7-1-2.4c-0.3-0.7-0.5-1.3-0.6-1.7c-1-2.3-2.1-4.7-3.2-7.1
				c-1.1-2.4-2.4-4.6-3.9-6.6c-0.4-0.1-0.6-0.4-0.6-0.8c-1-1.2-2.1-2.2-3.3-3.1c-1.2-0.9-2.6-1.6-4.1-2.3c-0.6-0.2-1.9-0.6-3.9-1
				c-2-0.4-4.2-0.7-6.6-1c-2.4-0.3-4.7-0.4-6.9-0.5c-2.2,0-3.8,0.2-4.8,0.6c-0.6,0.3-1.1,0.7-1.5,1.2c-0.5,0.5-1,0.8-1.5,1.2
				c-0.9,0.5-1.8,1-2.8,1.4c-0.9,0.5-1.8,0.9-2.8,1.4c-2.7,2.2-5.1,4.3-7.2,6.2c-2.1,1.9-3.8,4-5.4,6c-1.5,2.1-2.8,4.4-3.9,6.9
				c-1.1,2.5-2.1,5.4-2.9,8.7c-0.3,1.2-0.6,2.4-0.8,3.6c-0.2,1.2-0.4,2.4-0.5,3.6l0.1,1.1c0,0.4-0.1,0.6-0.3,0.8
				c-0.1,0.2-0.1,0.5-0.1,0.9v11c0.4,5.2,1.2,10.3,2.5,15.3c1.3,5,2.9,9.8,4.9,14.3c1,2.5,2.1,4.6,3.1,6.6c1,1.9,2.2,3.6,3.5,5.1
				c1.3,1.5,2.7,2.8,4.3,3.9c1.6,1.1,3.6,2.2,5.9,3.1c1.8,0.7,3.3,1.3,4.4,1.7c1.1,0.4,2.2,0.7,3.1,0.8c1,0.2,2.1,0.2,3.3,0.2
				c1.2,0,2.9-0.1,5.1-0.2c1.5-0.1,3.1-0.2,4.8-0.3c1.7-0.1,3.2-0.3,4.6-0.8c1-0.4,2.1-1.1,3-2.1c1-1,2-1.9,3-2.6
				c0.1,0,0.2,0,0.4-0.1c0.1-3.8,0.2-7.6,0.3-11.4c0.2-3.8,0.3-7.5,0.4-11.4c-0.2-0.2-0.4-0.5-0.4-0.7c-0.2-0.1-0.5-0.1-0.7-0.1
				c-0.2,0-0.5,0-0.6-0.1c-0.5-0.1-1-0.3-1.4-0.6c-0.5-0.2-0.9-0.5-1.4-0.8c-1.4-0.7-2.7-1.6-3.9-2.6c-1.2-1.1-2.5-2.1-3.8-3
				c-0.7-0.2-1.5-0.6-2.4-1.2c-0.2,0.5-0.6,0.8-1.1,1c-0.5,0.2-1,0.1-1.5-0.2c-0.1,0.6-0.1,1.2-0.2,1.8c-0.1,0.6-0.1,1.1-0.2,1.7
				c-0.1,0.2-0.3,0.3-0.6,0.3c-0.2,0-0.4-0.1-0.4-0.4c0-1,0-2,0-2.9c0-1,0-2,0-3h-0.3c-0.4,0-0.6-0.2-0.7-0.6
				c-0.1-0.1-0.1-0.2-0.1-0.4c0-0.4,0.2-0.6,0.6-0.6h0.5v-0.2c-0.6-0.8-1-1.6-1.1-2.3c-0.1-0.3,0.1-0.6,0.4-0.7
				c0.1-0.1,0.2-0.1,0.4-0.1c0.1,0,0.2,0,0.4-0.1v-1.9c-0.1-0.1-0.2-0.2-0.2-0.4c-0.1-0.1-0.2-0.1-0.3-0.2l-0.2-0.1
				c-0.6-0.1-1.2-0.1-1.8-0.1c-0.6,0-1.1,0-1.8,0c0.1,0,0.2,0.1,0.3,0.2c0.3,0.1,0.4,0.3,0.2,0.6c-0.2,0.3-0.4,0.3-0.7,0.1
				c-0.4-0.3-0.9-0.4-1.3-0.4c-0.5,0-0.9-0.1-1.3-0.4c-0.4-0.4-0.4-0.8,0.2-1.2c1-0.4,2.2-0.7,3.4-0.7c1.2-0.1,2.4,0,3.6,0.1
				c0-0.5,0-1,0.1-1.4c0.1-0.4,0.1-0.9,0.2-1.4v-0.1c0.1-0.4,0.4-0.6,0.7-0.6c0.3,0,0.6,0.2,0.7,0.5h0.1v2c0.4,0.1,0.7,0.3,0.7,0.6
				c5.7,0,11.3,0,16.9,0.1c5.6,0.1,11.2,0.2,16.9,0.2c1.9-0.1,3.3-0.1,4.1-0.2c4.7-0.2,8.8-0.4,12.5-0.4c4.5,0,8.2,0.2,11.3,0.6
				c0.6-0.1,1.2-0.1,1.7-0.1c0.5,0,1-0.1,1.5-0.1c0.1-0.8,0.3-1.6,0.4-2.3C182.5,111.1,182.6,110.3,182.8,109.6z M46.6,116.9
				c-2.2-2.8-4-5-5.4-6.5c-0.1,0.9-0.2,1.8-0.2,2.7c0,0.9,0,1.8,0,2.7l0.2,1c1.3,1,3.3,3.3,6.1,6.9c2.3,2.9,4.4,5.3,6.4,7.1
				c0.6,0.6,2.1,1.9,4.5,4c1.8,1.6,3.3,3,4.4,4.1c1.1,1,2.4,2.5,4,4.2c2.1,2.4,3.4,3.8,3.8,4.3c2.3,2.5,8.1,8.2,17.3,16.9
				c3.3,3.1,6.1,5.8,8.3,8.1c3.1,3.3,5.3,5.7,6.4,7.1c1.6,0.1,3.2,0.2,4.8,0.2c-1-1.3-2.9-3.7-5.6-7.1c-1.5-2-4.6-5-9.1-9
				c-1.7-1.5-8.2-8.4-19.6-20.5c-4.7-5.2-8.1-8.6-10.1-10.3l-9.9-8.6C51.3,122.8,49.2,120.3,46.6,116.9z M116.5,179.7
				c-7.3-7.8-11.9-12.3-13.8-13.8c-0.1-0.1-0.1-0.2-0.1-0.3L99,164c-1.6-0.7-3-1.4-4.3-2.1c-1.3-0.7-2.5-1.5-3.6-2.4
				c-1.1-0.9-2.2-1.9-3.1-3c-1-1.1-2-2.5-3-4.1c-1.5-2.4-2.9-5-4.2-7.8c-0.4-0.8-0.8-1.6-1.1-2.4h-0.2c-0.1,0-0.2-0.1-0.3-0.2
				c-3.3-4.2-7.8-9.4-13.8-15.6c-5.5-5.8-10.1-10.4-13.9-13.8c-2.7-2.3-5.9-5.1-9.5-8.2c-0.2,0.9-0.3,1.7-0.4,2.6
				c-0.1,0.9-0.2,1.7-0.3,2.6c1.6,1.5,3.7,3.8,6.2,7c2.8,3.6,4.9,6.1,6.5,7.6c1.2,1,3,2.6,5.3,4.5c2.4,2,4.1,3.5,5.2,4.5
				c1,0.9,4.2,4.2,9.6,9.9c11.3,12.1,17.8,18.9,19.6,20.4c4.2,3.9,7.2,6.9,9,9c2.8,3.6,4.6,6,5.6,7.3h4.2
				C113.7,179.8,115.2,179.8,116.5,179.7z M46.6,124c-2.2-2.8-4-4.8-5.4-6.2c0.3,2.1,0.7,4.5,1.1,7.3v0.4c0.2,0.6,0.4,1.2,0.6,1.7
				c0.2,0.5,0.5,1.1,0.6,1.6c2.2,1.7,5.5,4.6,10.1,8.8c5.7,5.4,9.9,9.7,12.6,12.7c4.9,5.4,14.1,14.9,27.7,28.4
				c2.3,0.3,4.6,0.6,7.1,0.7c-1.5-1.8-4-4.5-7.5-8c-2.7-2.6-5.5-5.4-8.4-8.1c-8.1-7.5-13.6-13-16.6-16.4c-3.8-4.4-6.4-7.3-7.8-8.5
				c-0.7-0.6-2.1-1.9-4.2-3.8c-1.7-1.5-3.1-2.8-4.2-3.8C51.1,129.6,49.2,127.3,46.6,124z M50.9,104.4c-3.1-2.6-5.6-4.9-7.5-6.7
				c-0.6,2-1,3.9-1.4,5.9c0.3,0.2,0.6,0.4,0.9,0.6c1.9,1.5,2.8,2.2,2.7,2.1c3.3,2.8,7.3,6.3,11.9,10.7c1.7,1.7,5.6,5.8,11.7,12.3
				c4,4.2,7.2,8,9.7,11.3v-0.1c-0.6-1.4-1.2-2.9-1.6-4.3c-0.5-1.5-0.9-3-1.3-4.5l-0.1-0.1c-2.4-2-5.1-4.9-8-8.9
				c-3.9-5-6.4-8.2-7.6-9.5C58.4,111.1,55.3,108.2,50.9,104.4z M68.4,122c2.7,3.6,5.1,6.3,7.2,8.3c-0.3-1-0.6-2-0.7-2.9
				c-0.2-1-0.4-1.9-0.6-2.9c-1.2-1.4-3.6-4.6-7.3-9.6c-3-4-5.6-7.1-7.8-9.2c-7.3-6.9-11.9-11.3-14-13.1c-0.2,0.7-0.5,1.4-0.7,2.1
				c-0.2,0.7-0.5,1.4-0.7,2.1c10.1,9,15.8,14.3,17.2,15.8C62,113.9,64.6,117.1,68.4,122z M53.6,138.6c-4.1-3.9-7.3-6.7-9.5-8.5
				c0.3,0.9,0.4,1.9,0.4,3c0,1,0.1,2,0.5,3c0.1,0.2,0.2,0.6,0.5,1.1c2.4,2.2,8.4,8.5,17.9,19.1c1.4,1.6,4.8,5,10.1,10.2
				c3.7,3.7,6.6,6.9,8.8,9.6c0.7,0.3,1.5,0.6,2.3,0.8c0.8,0.2,1.6,0.5,2.4,0.8c1.8,0.4,3.8,0.7,5.7,1
				c-12.7-12.6-21.4-21.7-26.3-27.1C62.9,147.6,58.7,143.4,53.6,138.6z M67.9,114.7c2.8,3.8,4.8,6.5,6.1,8.1c-0.2-1-0.3-2.1-0.5-3.2
				c-0.1-1.1-0.2-2.2-0.4-3.2c-6.6-9.2-11.1-14.7-13.4-16.7c-6.2-4.9-10.4-8.6-12.8-11.2c-0.3,0.6-0.6,1.2-0.8,1.8
				c-0.2,0.6-0.4,1.2-0.7,1.8c1.7,1.7,4,3.8,6.8,6.3c3.9,3.4,6.6,5.8,8,7.3C62.4,107.8,64.9,110.8,67.9,114.7z M62.2,156.3
				c-7.6-8.7-13-14.6-16-17.5c0.1,0.3,0.2,0.6,0.3,0.8c0.1,0.2,0.2,0.5,0.3,0.8c0.4,1.2,0.8,2.3,1,3.5c0.2,1.2,0.5,2.3,0.8,3.4
				c4.4,5.4,11.8,13.2,22.3,23.4c0.4,0.2,0.7,0.4,1,0.6c0.3,0.2,0.5,0.3,0.8,0.4c1.2,0.7,2.5,1.3,3.8,1.9c1.3,0.6,2.6,1.2,3.9,1.7
				c-2.1-2.5-4.8-5.4-8.1-8.7C67.4,161.7,64,158.3,62.2,156.3z M72.8,106.1C64.7,98.4,57,90.7,49.7,82.8c-0.4,0.7-0.8,1.5-1.2,2.3
				c-0.4,0.8-0.8,1.6-1.2,2.4c2.2,2.1,6.8,6.2,14,12.4c1.8,1.7,5.7,6.6,11.7,14.8C72.7,111.8,72.6,109,72.8,106.1z M51.4,153.4
				c0.9,1.5,1.9,2.9,2.9,4.2c1.8,2,4,3.9,6.4,5.8c2.4,1.9,4.7,3.5,6.9,4.9l-7.2-7c-4.8-4.7-8.4-8.7-10.8-11.8c0.1,0.3,0.3,0.6,0.4,1
				c0.2,0.4,0.3,0.7,0.5,1c0,0.1,0,0.2,0,0.3c0,0.1,0,0.2,0,0.3C50.8,152.6,51,153,51.4,153.4z M62.2,94.4
				c3.8,3.9,7.3,7.4,10.5,10.6l0.3-4.7c-9.5-9-16.3-16.4-20.4-22.2c-0.5,0.7-0.9,1.4-1.3,2c-0.4,0.7-0.8,1.4-1.2,2.1l5.7,5.6
				C55.8,87.9,57.9,90,62.2,94.4z M55.4,74.2c-0.2,0.3-0.4,0.6-0.5,0.8c-0.2,0.2-0.3,0.4-0.5,0.7c-0.2,0.3-0.5,0.6-0.7,0.9
				c-0.2,0.3-0.4,0.6-0.7,0.9c4.9,6.6,11.6,13.9,20.1,21.9c0.1-0.9,0.2-1.7,0.4-2.5c0.1-0.8,0.2-1.7,0.4-2.5
				c-1.7-1.6-3.6-3.8-5.9-6.5c-3.4-3.8-5.5-6.2-6.4-7.1c-2-2.1-3.5-3.7-4.5-4.8L55.4,74.2z M61.4,72.3c-1.4-1.5-2.3-2.6-3-3.3
				c-0.5,0.8-0.9,1.6-1.3,2.4c-0.4,0.8-0.8,1.6-1.3,2.3c0.3,0.2,0.6,0.5,1,0.8c-0.1-0.1,1.5,1.6,4.7,5c1.8,1.8,4.1,4.3,6.8,7.3
				c2.6,3,4.6,5.2,5.7,6.5c0.1-0.7,0.3-1.4,0.4-2c0.2-0.7,0.3-1.4,0.4-2c-1.8-3.3-4.8-7.3-8.9-11.8c-0.4-0.4-1.1-1.3-2.3-2.5
				C62.7,73.8,62,73,61.4,72.3z M67.6,77.9c3.6,4,6.1,7.4,7.7,10.1c0.3-1.1,0.6-2.2,1-3.3c0.4-1.1,0.8-2.2,1.2-3.3
				c-1.8-2-4.5-4.8-7.9-8.5c-3.4-3.5-6-6.3-7.8-8.3c-0.6,0.6-1.1,1.2-1.5,1.8c-0.5,0.7-0.9,1.4-1.4,2.1c0.7,0.7,2.1,2.2,4.2,4.2
				c0.2,0.3,1,1.2,2.3,2.6C66.2,76.4,67,77.2,67.6,77.9z M65.8,62.3c-0.6,0.3-1.1,0.4-1.7,0.3c-0.4,0.2-0.7,0.4-1,0.6
				c-0.3,0.2-0.6,0.4-0.9,0.7c0.1,0.1,0.1,0.2,0.1,0.3c4.9,4.9,10,10.3,15.3,16.4c0.3-0.7,0.6-1.4,0.9-2.1c0.3-0.7,0.6-1.4,1-2.1
				c0.1-0.2,0.2-0.5,0.3-0.6c-2-1.8-4.4-4.1-7.2-7c-2.6-2.7-4.7-5.1-6.3-7.1L65.8,62.3z M76.6,63.3c-2.8-2.3-4.9-4.1-6.1-5.4
				c-0.6,0.5-1.2,1-1.8,1.6c-0.6,0.6-1.2,1.1-1.7,1.6c2.5,2.8,7,7.5,13.5,13.9c1-1.5,2.1-2.9,3.4-4.2C82.4,68.8,80,66.2,76.6,63.3z
				 M79.9,61.8c-2.8-3-4.5-5.2-5.3-6.8c-0.7,0.4-1.3,0.8-1.9,1.2c-0.6,0.5-1.2,0.9-1.8,1.4c2.1,1.7,4.5,3.8,7.3,6.1
				c2.8,2.5,5,4.6,6.4,6.6l1.8-1.8C84.2,66.4,82,64.2,79.9,61.8z M84.1,58.4c-2.3-2.3-4-4.2-5.1-5.4c-1,0.4-2,0.7-2.8,1.1
				c-0.2,0.1-0.4,0.2-0.6,0.2c-0.2,0-0.3,0.1-0.5,0.2c0.5,0.7,1.3,1.8,2.4,3.2c1.2,1.7,2.3,3,3.2,4c2,2.2,4.1,4.2,6.2,6
				c0.5-0.4,0.9-0.8,1.3-1.2c0.4-0.4,0.8-0.8,1.1-1.1l1.1-1.1C88.6,62.9,86.4,60.9,84.1,58.4z M87.3,53.6c-1-1.2-1.8-2.2-2.1-2.8
				c-0.9,0.3-1.8,0.6-2.7,0.9c-0.9,0.3-1.7,0.6-2.5,0.9c0.5,0.6,1.1,1.2,1.8,1.8c1.6,1.8,2.6,3,3,3.4c2.3,2.5,4.5,4.5,6.5,6
				c0.6-0.6,1.2-1.1,1.8-1.5c0.6-0.5,1.2-0.9,1.8-1.2C91.9,58.7,89.4,56.2,87.3,53.6z M93.5,53.7c-1.7-1.7-3-3.1-3.7-4.2
				c-0.7,0.2-1.4,0.4-2,0.6c-0.7,0.2-1.4,0.4-2,0.6h0.1c0.1,0.1,0.2,0.3,0.4,0.5c0.2,0.2,0.3,0.3,0.4,0.5c1.2,1.4,1.9,2.3,2.3,2.7
				c1.5,1.7,3.6,3.8,6.5,6.4c0.3-0.2,0.6-0.4,1-0.6c0.4-0.2,0.7-0.4,1.1-0.6c0.2-0.2,0.5-0.5,0.8-0.6C97.4,57.8,95.8,56.1,93.5,53.7
				z M96.1,48c-0.9,0.2-1.8,0.4-2.8,0.6c-0.9,0.2-1.8,0.4-2.8,0.7c1,1.3,2.5,3,4.6,5c1.7,1.8,3,3.1,3.9,4.1l0.6-0.4l2.4-1.3
				c0.2-0.2,0.3-0.3,0.5-0.4c-0.9-0.9-2.1-2.4-3.7-4.6L96.1,48z M104.3,49.4c-0.8-1-1.5-1.8-2-2.4c-0.9,0.1-1.8,0.3-2.7,0.4
				c-0.9,0.2-1.8,0.3-2.8,0.5c0.6,0.7,1.4,1.7,2.4,3c0.4,0.6,1.2,1.5,2.3,2.8c0.7,0.9,1.3,1.6,1.8,2.2l0.8-0.6
				c0.7-0.4,1.4-0.6,2.2-0.8c0.8-0.2,1.6-0.3,2.5-0.3C107.1,52.7,105.6,51.1,104.3,49.4z M111.2,49.6c-1.2-1.4-2.1-2.5-2.5-3.3
				c-0.9,0.1-1.8,0.1-2.7,0.2c-0.9,0.1-1.9,0.2-2.9,0.3c0.7,0.9,1.2,1.5,1.7,2c1.4,1.7,3.1,3.4,5,5.1c0.1,0.1,0.1,0.2,0.1,0.3h0.6
				c1.2-0.2,2.4-0.3,3.7-0.3c0.5,0,1,0,1.5,0.1C114.4,53.2,113,51.7,111.2,49.6z M125.5,174c-2.5-2.8-4.5-5-6-6.4
				c-1,0.1-2.2,0.1-3.3,0.1h-0.8c-1.7-0.1-3.4-0.2-5.1-0.4c-0.7,0-1.5,0-2.2-0.1c-0.7-0.1-1.4-0.2-2.1-0.4c-0.6-0.1-1.1-0.2-1.4-0.4
				c1.4,1,3.1,2.6,5.2,4.7c0.1,0,2.5,2.6,7.3,7.9c0.1,0.1,0.1,0.2,0.1,0.3c0,0.1,0,0.2-0.1,0.3c2.3-0.1,4.4-0.2,6.1-0.3
				c0.4-0.1,0.8-0.1,1.2-0.2c-5-5.1-8.7-8.7-11.3-10.7c-0.1-0.1-0.1-0.1-0.1-0.2c0-0.1,0-0.1,0.1-0.2c0.1-0.1,0.1-0.1,0.2-0.1h0.1
				c2.8,1.8,6.7,5.5,11.9,11.1c1.5-0.1,3-0.3,4.5-0.6C128.7,177.6,127.2,176,125.5,174z M122.2,54.9c0.2,0.1,0.3,0.1,0.5,0.1
				c0.4,0.1,0.8,0.1,1.2,0.1c0.4,0,0.7,0.1,1.1,0.2c-0.8-0.7-1.7-1.7-2.6-2.9c-1.7-1.8-2.6-2.9-2.9-3.1l-2.3-2.3
				c-0.5-0.2-1-0.3-1.5-0.5c-0.5-0.1-1-0.2-1.5-0.3c-0.7-0.1-1.4-0.1-2.1-0.1c-0.7,0-1.5,0-2.3,0c0.2,0.3,0.4,0.6,0.6,0.9
				c0.7,1,1.2,1.7,1.7,2.2c0.4,0.5,1.1,1.2,2.1,2.1c1,0.9,1.8,1.7,2.2,2.2c0.1,0.1,0.1,0.1,0.1,0.2l-0.1,0.1
				C118.3,54.2,120.2,54.5,122.2,54.9z M135.7,131.1c0.2,0.1,0.4,0.3,0.6,0.4c0.2,0.2,0.3,0.4,0.5,0.7c0.6,0.4,1.2,0.9,1.7,1.3
				c0.5,0.5,1,0.9,1.3,1.4c0.2,0.1,0.3,0.3,0.1,0.6l-0.1,0.1c-0.2,0.3-0.4,0.4-0.6,0.4c-0.2-0.1-0.3-0.2-0.3-0.6
				c-0.1-0.1-0.2-0.1-0.4-0.2c-0.1-0.1-0.3-0.2-0.5-0.3c1.2,1.4,2.7,2.8,4.4,4.3c3.9,3.6,6.3,6,7.4,7.2c0.9,0.9,3.6,3.6,8.3,8.1
				c2.3,2.3,4.2,4.3,5.8,6.2c0-1.2,0-2.3,0-3.5c0-1.1,0.1-2.3,0.1-3.5c-0.2-0.4-0.5-0.8-0.6-1.2c-2.5-2-5.5-5-9-9
				c-4.3-5.1-7.4-8.5-9.4-10.2c-1.1-0.9-2.8-2.3-5.2-4.1l-5.3-4.2c-3.5-2.9-5.9-5.4-7.2-7.5c-1.6-0.1-3.2-0.1-4.7-0.1
				c-1.5,0-3.1,0-4.7,0c0.1,0.7,0.1,1.3,0.1,1.9c0,0.6,0.1,1.2,0.1,1.9c2.1,0.9,4,2.1,5.9,3.6c1.8,1.5,3.7,2.9,5.7,4.1
				c0.1,0,0.2,0,0.3,0c0.1,0,0.2,0,0.3,0c-1-1-2.4-2.5-4-4.3c-0.4-0.4-1.7-1.7-3.7-3.9c-0.9-0.9-1.5-1.5-1.7-1.8
				c-0.1,0.1-0.2,0.2-0.3,0.2h-0.1c-0.6-0.2-0.8-0.5-0.8-0.9c0-0.4,0.2-0.6,0.6-0.6c0.1,0,0.3,0,0.5,0.1c0.1,0,0.2,0.1,0.2,0.2
				c0,0.1-0.1,0.2-0.2,0.2l-0.1,0.1c0,0.1,0,0.1,0.1,0.2c0.1-0.1,0.2-0.2,0.3-0.2c0.4,0.2,0.9,0.6,1.7,1.4c0.1,0.1,1.3,1.4,3.8,4
				c2.8,2.9,4.8,5,6,6.2c0.3,0.1,0.6,0.2,0.9,0.3c0.3,0.1,0.6,0.2,0.9,0.3l0.3-2.2c0-0.3,0.1-0.4,0.4-0.4c0.3,0,0.4,0.2,0.5,0.5
				V131.1z M141.5,62.9c-3.9-3.6-7.2-6.6-9.9-9l0.9,0.6c5.7,4.6,9.1,7.5,10.4,8.8c2.5,2.5,5.4,5.8,8.5,10c2.8,3.8,4.9,6.5,6.1,8.2
				c0.1-1.2,0.1-2.5,0.1-3.8c0-1.3,0-2.6,0.1-3.8c-10.9-12.2-18-20-21.4-23.4c-1.4-0.4-2.9-0.7-4.4-0.8c-1.5-0.1-3.3-0.3-5.5-0.5
				l0.7,0.7c-0.3-0.2-0.6-0.5-0.8-0.7c-0.7-0.1-1.3-0.1-2-0.2c-0.6-0.1-1.4-0.2-2.2-0.3c-0.6-0.1-1.1-0.2-1.6-0.3
				c-0.5-0.2-1-0.3-1.5-0.5l1.5,1.5c2.8,3,4.6,5,5.4,6c0.1,0.1,0.1,0.1,0.1,0.2c0,0.1,0,0.1-0.1,0.2c1.4,0.4,2.6,0.8,3.9,1.4
				c2,1,3.7,2.1,5.1,3.1h0.1c0.5,0,0.8,0.2,0.8,0.7c1.8,1.5,3.3,3.2,4.5,5.1c1.2,1.9,2.5,4.2,3.8,6.9c0.1,0.1,0.1,0.3,0.2,0.5
				c0.1,0.2,0.1,0.3,0.2,0.5c0.1,0,0.3,0.1,0.6,0.2l0.1,0.1l-0.1,0.1c0.5,0.5,0.9,0.8,1.1,1c1.7,1.5,2.6,2.4,2.7,2.5
				c0.7,0.7,2.5,2.5,5.3,5.2c1.3,1.4,2.5,2.6,3.5,3.6v-3.9c-1.2-1.6-3.4-4.6-6.8-9C146.9,68.6,143.9,65,141.5,62.9z M132.1,173.1
				c-3.6-3.2-6.1-5.4-7.3-6.5c-1.4,0.4-3,0.7-4.6,0.9c1.5,1.2,3.3,3,5.4,5.4c0.4,0.4,2.1,2.3,5.3,5.5c0.4-0.1,0.9-0.2,1.4-0.3
				c0.4-0.1,0.9-0.2,1.3-0.4c0.4-0.1,0.9-0.2,1.5-0.4c0.2-0.1,0.7-0.2,1.3-0.4l-0.7-0.7C134.1,175,133,173.9,132.1,173.1z
				 M136.3,169.6c-2.5-2.4-4.5-4.3-5.8-5.8c-0.2,0.2-0.5,0.4-0.8,0.6c-0.6,0.5-1.2,0.9-1.9,1.2c-0.2,0.1-0.4,0.2-0.5,0.2
				c-0.6,0.2-1.1,0.5-1.7,0.6c2.2,1.7,4.9,4.1,8,7c1.5,1.3,2.7,2.4,3.8,3.4c0.8-0.2,1.6-0.4,2.4-0.5c0.8-0.2,1.6-0.3,2.4-0.5
				C140.8,174.2,138.8,172.1,136.3,169.6z M151.8,133.1c-5.3-4.8-10.1-9.9-14.4-15.2c-1.5-0.1-3-0.1-4.4-0.1c-1.5,0-3,0-4.4,0
				c2,1.7,7.8,6.9,17.6,15.6c2.1,1.8,5.2,5.1,9.3,9.7c3.4,4,6.3,7,8.7,9c0.1-1,0.1-2,0.1-3c0-1,0.1-2,0.1-3
				c-1.4-1.2-3.4-3.3-5.8-6.1C156.8,138,154.5,135.7,151.8,133.1z M134.1,161.1c0-0.1,0-0.1,0.1-0.2v-0.4c-0.3,0.2-0.6,0.4-0.8,0.6
				c-0.2,0.2-0.5,0.4-0.7,0.6c-0.5,0.6-1,1-1.6,1.5c5,4.7,9,8.8,11.9,12.4c0.6-0.2,1.1-0.4,1.6-0.6c0.5-0.2,1-0.4,1.5-0.6
				c0.5-0.2,0.8-0.4,1-0.6c-0.6-0.4-1.2-0.9-2-1.7c-1.2-1-2.6-2.3-4.2-3.9c-2.9-2.8-4.9-4.8-6-6h-0.3l-0.4-0.2
				c-0.4-0.2-0.4-0.5-0.2-0.7V161.1z M131.6,53.8c-0.1-0.1-0.2-0.2-0.3-0.3L131.6,53.8z M143.6,161.7c-3.2-2.6-5.7-5-7.5-7.1v3.8
				c-0.1,0.3-0.1,0.6-0.2,0.8c-0.1,0.2-0.2,0.4-0.3,0.6c-0.1,0.3-0.1,0.6-0.2,1c-0.1,0.3-0.1,0.7-0.2,1c0.7,0.7,2.7,2.6,5.8,5.6
				c0.6,0.6,2.8,2.6,6.8,6c0.7-0.5,1.4-1,2.1-1.6c0.6-0.6,1.3-1.1,2-1.7C150.2,167.8,147.4,165,143.6,161.7z M140.5,152.1
				c-1.7-1.9-3.1-3.4-4.2-4.5c-0.1,1-0.1,2-0.1,3c0,1,0,2,0,3c2,2.3,5.2,5.3,9.6,9c3.3,2.8,5.6,5.1,6.9,6.9c0.5-0.4,1-0.8,1.4-1.2
				c0.4-0.4,0.9-0.7,1.4-1.1c-1.7-1.8-4.6-4.6-8.7-8.6C145.1,157,143,154.8,140.5,152.1z M148,153.6c-5.4-5.7-9.2-9.7-11.4-12
				c0,0.9,0,1.7,0,2.5c0,0.8-0.1,1.6-0.1,2.5c1.4,1.4,3.1,3.2,5.2,5.4c3,3.3,5.2,5.6,6.6,6.9c4.2,3.7,6.3,5.5,6.4,5.5
				c0.7,0.8,1.4,1.5,1.9,2c0.1,0,0.1,0,0.2-0.1c0.5-0.3,1-0.6,1.4-0.8c0.5-0.2,0.9-0.5,1.4-0.8c-1.2-1.2-2.7-2.6-4.3-4.2
				C151.6,157.1,149.2,154.8,148,153.6z M140.7,138.8c-1.6-1.5-2.9-2.8-4-4c0,0.9,0,1.9,0,2.8c0,1,0,1.9,0,2.8
				c1.6,1.5,3.4,3.3,5.4,5.4c4.1,4.6,6.4,7.2,7.1,7.8c0.6,0.6,2.9,2.7,7,6.5c1.6,1.5,3,3,4.2,4.2c1.1-0.6,2-1.3,2.8-2l0.6-0.3
				c-2.6-2.8-7.6-8-15.1-15.8c-1-1-2.3-2.2-3.9-3.8C142.6,140.6,141.3,139.4,140.7,138.8z M144.3,54.8c-0.1-0.1-0.2-0.1-0.3-0.2
				l-0.1-0.1c-1.6-1.2-3-2.1-4.2-2.8l-1.9-1c3.7,3.8,10.3,11,19.8,21.8v-0.4c-0.1-0.1-0.1-0.2-0.1-0.5c0-0.2,0-0.3,0.1-0.5
				c0-1,0-2,0-2.9c0-1,0-1.9,0-2.9c-1-0.9-2.6-2.3-4.6-4.2c-2.4-2-4.2-3.8-5.4-5.4c-0.1-0.2-0.2-0.3-0.4-0.5
				c-0.4,0.3-0.9,0.4-1.4,0.4c-0.5,0-0.9-0.3-1.2-0.8C144.6,55.1,144.4,55,144.3,54.8z M154.1,127.8c-0.9-0.6-4.1-3.9-9.5-9.8h-1.3
				c-0.9,0-1.7,0-2.5,0c-0.8,0-1.6,0-2.5,0c7.6,8.2,12.2,13,14,14.6c1.6,1.5,3.8,3.8,6.7,6.9c2.2,2.3,4,4.2,5.4,5.6
				c0.1-1.2,0.1-2.5,0.2-3.7c0.1-1.3,0.1-2.5,0.2-3.7C162.9,135.5,159.3,132.3,154.1,127.8z M145.2,75.3c0.7,1.5,1.3,2.9,1.9,4.3
				c0.6,1.4,1.3,2.9,1.9,4.3l0.1-0.1c0,0.1,0.1,0.3,0.2,0.6c0.4,0.7,0.9,1.6,1.4,2.5c0.2,0.2,0.4,0.4,0.6,0.6l0.4,0.6
				c0.9,0.1,1.9,0.1,3,0.1c1.1,0,2-0.1,2.7-0.2v-0.3c-1.7-1.8-4.9-5-9.5-9.6L145.2,75.3z M164.8,132.3c-0.2,0.1-0.4,0.1-0.6,0
				c-0.2-0.2-0.2-0.4,0-0.6c0.1-0.1,0.2-0.2,0.3-0.3c0.1-0.1,0.2-0.2,0.3-0.3c-0.1-0.1-0.3-0.2-0.5-0.3c-0.1,0.1-0.2,0.1-0.3,0.1
				c-0.4,0.1-0.8,0.1-1.2,0.2c-0.4,0.1-0.8,0.1-1.2,0.2c-0.2,0-0.4,0-0.6,0c-0.2,0-0.4,0-0.6,0c-0.3-0.1-0.5-0.2-0.6-0.5
				c-0.1-0.2,0-0.5,0.1-0.7V130h0.1l0.2-0.1c0.1,0,0.1,0,0.2,0c0.1,0,0.2,0,0.3,0c0.7-0.1,1.3-0.3,1.8-0.6c-2-1.8-4.2-4.1-6.6-6.6
				c-2.2-2.3-3.2-3.5-3.1-3.4c-0.4-0.4-0.7-0.8-0.9-1.2h-6.4c1,1,2.1,2.2,3.3,3.5c2.6,2.9,4.6,5,6.2,6.2c4.4,3.6,7.6,6.5,9.6,8.6
				c0.1-0.7,0.1-1.4,0.1-2C164.9,133.6,164.9,132.9,164.8,132.3L164.8,132.3z M153.2,55.5c-1.2-1.3-2.3-2.7-3.4-4.2
				c-0.4,0.6-0.8,1.1-1.1,1.7c-0.3,0.6-0.5,1.1-0.6,1.4l-0.2,0.4c0.1,0.2,0.3,0.4,0.5,0.6c1.4,1.7,2.3,2.6,2.6,3
				c3.3,3,5.6,5.1,6.9,6.4c0.1-0.9,0.1-1.7,0.1-2.5c0-0.8,0-1.7,0.1-2.5C156.6,59,155,57.6,153.2,55.5z M156.2,57.1
				c0.7,0.7,1.3,1.2,1.8,1.6v-5c-0.3-0.4-0.9-1-1.8-1.9c-0.5-0.5-1-1-1.7-1.5c-0.6-0.1-1.2-0.1-1.8-0.1c-0.6,0-1.2-0.1-1.7-0.2
				c-0.3,0.2-0.6,0.4-0.7,0.7c0.4,0.4,0.8,0.8,1.3,1.4c1,1.3,1.8,2.2,2.3,2.8C154.4,55.5,155.2,56.3,156.2,57.1z M165,127.7
				c0.2-0.9,0.7-1.4,1.6-1.7h0.1c-1-1-2.3-2.4-3.8-4c-1.7-1.6-3.1-3-4.2-4.1h-5.5c0.3,0.2,0.6,0.6,0.9,0.9c1.2,1.5,2.6,3,4.1,4.5
				c0.9,0.9,2.3,2.1,4.1,3.8c0.6,0.6,1.2,1.1,1.7,1.6c0.2-0.1,0.4-0.2,0.6-0.3c0.2-0.1,0.4-0.2,0.6-0.3V127.7z M156.8,51.2
				c0.5,0.6,0.9,1,1.2,1.4c0-0.4,0-0.7,0-1.1c0-0.4,0-0.8,0-1.2h-2.2L156.8,51.2z M166.8,124c0-0.3,0.1-0.5,0.4-0.5
				c0.2,0,0.4,0.2,0.6,0.5c0,0.4,0,0.7,0,1.1c0,0.3,0,0.7,0,1c0.1,0.1,0.2,0.2,0.4,0.3c0.6-0.3,1.2-0.6,1.8-0.9
				c0.6-0.3,1.2-0.5,1.9-0.7l-6.2-6.3c-0.1,0-0.2,0-0.3,0c-0.1,0-0.1,0-0.2,0c-2-0.2-3.9-0.3-5.7-0.3l7.2,6.9c0-0.2,0-0.4,0-0.5
				C166.8,124.3,166.8,124.2,166.8,124z M162.4,90.4c-0.2,0-0.5,0-0.6,0c-0.2,0-0.4,0-0.6,0v0.1C161.5,90.5,161.9,90.5,162.4,90.4z
				 M172.5,118.9c-1-0.1-2.1-0.1-3-0.2c-1-0.1-1.8-0.1-2.5-0.2l5.8,5.9c0.2-0.1,0.7-0.1,1.3-0.1c0.4-0.2,0.7-0.5,1.1-0.7
				c0.3-0.2,0.7-0.5,1-0.7C175,121.9,173.8,120.6,172.5,118.9z M175.4,120.8c0.5,0.6,0.9,1.1,1.3,1.6c0.5-0.3,1-0.6,1.4-0.8
				c0.5-0.2,1-0.5,1.5-0.6c-0.2-0.7-0.3-1.5-0.3-2.3c-0.8,0.2-1.7,0.3-2.7,0.4c-1,0.1-2,0.1-3.1,0
				C173.9,119.4,174.5,120,175.4,120.8z"/>
		</g>
		<g>
			<g>
				<rect x="259.8" y="119.8" class="st0" width="443.1" height="4"/>
			</g>
			<g>
				<rect x="259.8" y="178.3" class="st0" width="443.1" height="4"/>
			</g>
			<g>
				<path class="st0" d="M308.4,98.2c-3,1.7-6.3,2.9-9.6,3.7c-3.4,0.8-6.8,1.2-10.2,1.2c-4.1,0-7.9-0.7-11.4-2
					c-3.4-1.3-6.4-3.2-9-5.7c-2.5-2.4-4.5-5.4-5.9-8.8c-1.4-3.4-2.1-7.2-2.1-11.4c0-4.2,0.7-8,2.2-11.4c1.5-3.4,3.5-6.3,6.1-8.8
					c2.6-2.4,5.6-4.3,9.1-5.7c3.4-1.3,7.2-2,11.2-2c3.5,0,6.9,0.5,10.1,1.6c3.2,1,6.1,2.8,8.7,5.4l-4.7,4.9c-1.8-1.9-4-3.4-6.6-4.5
					c-2.6-1-5.2-1.6-7.9-1.6c-3,0-5.9,0.5-8.5,1.6c-2.6,1.1-4.9,2.6-6.8,4.6c-1.9,1.9-3.4,4.3-4.5,7c-1.1,2.7-1.6,5.6-1.6,8.8
					c0,3.1,0.5,6.1,1.6,8.8c1.1,2.7,2.6,5,4.5,7c1.9,2,4.2,3.5,6.9,4.6c2.7,1.1,5.7,1.6,8.9,1.6c2.1,0,4.4-0.3,6.7-0.8
					c2.3-0.5,4.5-1.3,6.4-2.3V77.9h-12.2v-5.8h18.5V98.2z"/>
				<path class="st0" d="M323,48.7h13.6c2.5,0,5.1,0.2,7.6,0.5c2.5,0.3,4.8,0.9,6.8,1.9c2,1,3.6,2.5,4.9,4.4
					c1.2,1.9,1.9,4.5,1.9,7.8c0,3.9-1.2,7-3.5,9.4c-2.3,2.4-5.6,3.9-9.7,4.6l15.1,24.4h-7.7l-14.4-23.8h-8.1v23.8H323V48.7z
					 M329.3,72.1h5.6c1.7,0,3.6,0,5.4-0.2c1.9-0.1,3.6-0.4,5.2-1s2.9-1.4,3.9-2.6c1-1.2,1.5-2.9,1.5-5.1c0-1.9-0.4-3.4-1.1-4.6
					s-1.7-2-3-2.7c-1.2-0.6-2.6-1-4.1-1.2c-1.5-0.2-3.1-0.3-4.6-0.3h-8.8V72.1z"/>
				<path class="st0" d="M387.6,48.7h5.9l22.6,53.1h-7.3l-5.4-13h-26.5l-5.5,13h-7.1L387.6,48.7z M390.4,56.8h-0.2l-11,26.1h21.7
					L390.4,56.8z"/>
				<path class="st0" d="M461.8,59.6c-1.6-2.1-3.6-3.8-5.9-4.8c-2.3-1.1-4.8-1.6-7.3-1.6c-2.9,0-5.7,0.6-8.1,1.8
					c-2.5,1.2-4.6,2.8-6.4,4.8s-3.2,4.4-4.2,7c-1,2.7-1.5,5.5-1.5,8.4c0,3.1,0.5,6,1.5,8.7c1,2.7,2.4,5,4.2,7c1.8,2,3.9,3.5,6.4,4.7
					c2.5,1.1,5.2,1.7,8.2,1.7c3.2,0,6.1-0.6,8.7-1.9c2.5-1.3,4.8-3.1,6.7-5.5l4.7,4c-2.4,3.2-5.3,5.5-8.7,7
					c-3.4,1.5-7.2,2.2-11.4,2.2c-3.8,0-7.3-0.7-10.6-2.1c-3.3-1.4-6.2-3.3-8.6-5.8c-2.4-2.5-4.3-5.4-5.7-8.8
					c-1.4-3.4-2.1-7.1-2.1-11.2c0-3.9,0.7-7.5,2-10.9c1.3-3.4,3.2-6.3,5.6-8.8c2.4-2.5,5.2-4.5,8.5-5.9c3.3-1.4,6.9-2.2,10.9-2.2
					c3.6,0,7.1,0.7,10.4,1.9c3.3,1.3,6.1,3.4,8.4,6.4L461.8,59.6z"/>
				<path class="st0" d="M478.8,48.7h33.3v5.8h-27.1v16.6h25.3V77h-25.3v18.9h28.4v5.8h-34.7V48.7z"/>
				<path class="st0" d="M584.3,59.6c-1.6-2.1-3.6-3.8-5.9-4.8c-2.3-1.1-4.8-1.6-7.3-1.6c-2.9,0-5.7,0.6-8.1,1.8
					c-2.5,1.2-4.6,2.8-6.4,4.8s-3.2,4.4-4.2,7c-1,2.7-1.5,5.5-1.5,8.4c0,3.1,0.5,6,1.5,8.7c1,2.7,2.4,5,4.2,7c1.8,2,3.9,3.5,6.4,4.7
					c2.5,1.1,5.2,1.7,8.2,1.7c3.2,0,6.1-0.6,8.7-1.9c2.5-1.3,4.8-3.1,6.7-5.5l4.7,4c-2.4,3.2-5.3,5.5-8.7,7
					c-3.4,1.5-7.2,2.2-11.4,2.2c-3.8,0-7.3-0.7-10.6-2.1c-3.3-1.4-6.2-3.3-8.6-5.8c-2.4-2.5-4.3-5.4-5.7-8.8
					c-1.4-3.4-2.1-7.1-2.1-11.2c0-3.9,0.7-7.5,2-10.9c1.3-3.4,3.2-6.3,5.6-8.8c2.4-2.5,5.2-4.5,8.5-5.9c3.3-1.4,6.9-2.2,10.9-2.2
					c3.6,0,7.1,0.7,10.4,1.9c3.3,1.3,6.1,3.4,8.4,6.4L584.3,59.6z"/>
				<path class="st0" d="M601.4,48.7h6.3v53.1h-6.3V48.7z"/>
				<path class="st0" d="M658,54.5h-17.5v47.2h-6.3V54.5h-17.5v-5.8H658V54.5z"/>
				<path class="st0" d="M679.4,78.9l-19.8-30.2h8l14.9,24l15.4-24h7.6l-19.8,30.2v22.9h-6.3V78.9z"/>
				<path class="st0" d="M285.4,140.5l-1.9,6.1H282c0.1-0.5,0.1-1,0.1-1.4c0-1.3-0.3-2.2-0.9-2.6c-0.6-0.4-1.3-0.5-2.3-0.5h-1.9
					l-4.7,15.4c-0.2,0.6-0.3,1.1-0.3,1.4c0,0.6,0.2,1,0.7,1.2c0.4,0.2,0.9,0.3,1.3,0.3h0.8l-0.5,1.4h-10.5l0.4-1.4h0.5
					c1.1,0,1.8-0.2,2.2-0.5c0.4-0.3,0.7-0.9,1-1.9l4.9-15.9h-1.2h-0.4c-1.1,0-2.1,0.3-3.1,0.8s-1.9,1.8-2.7,3.7h-1.5l1.9-6.1H285.4z
					"/>
				<path class="st0" d="M300.7,157.6c-0.7,1.2-1.5,2.3-2.4,3.1c-1,0.8-2,1.3-3.2,1.3c-0.9,0-1.5-0.2-1.9-0.6
					c-0.4-0.4-0.6-0.9-0.6-1.4c0-0.3,0-0.5,0.1-0.7s0.2-0.6,0.3-1.1l1.2-4c0.2-0.8,0.4-1.4,0.4-1.9c0-0.2,0-0.4-0.1-0.6
					c-0.1-0.2-0.2-0.3-0.3-0.4s-0.3-0.1-0.5-0.1c-0.8,0-1.7,0.7-2.8,2c-1,1.3-1.8,2.5-2.2,3.6c-0.9,2.2-1.4,3.5-1.5,4l-0.3,1.1H283
					l5.4-17.6c0.2-0.7,0.4-1.1,0.4-1.3c0-0.4-0.1-0.6-0.4-0.7c-0.3-0.1-0.7-0.2-1.3-0.2h-0.5l0.5-1.4c2.5,0,4.3-0.2,5.3-0.4h1.1
					l-4.1,13.3c0.7-1,1.3-1.8,1.9-2.4c0.5-0.6,1.2-1.2,2.1-1.7c0.9-0.5,1.8-0.8,2.9-0.8c0.8,0,1.4,0.2,1.9,0.6s0.7,0.9,0.7,1.5
					c0,0.5-0.2,1.4-0.6,2.6l-1.6,5.2c-0.2,0.6-0.3,0.9-0.3,1.1c0,0.1,0,0.2,0.1,0.3c0.1,0.1,0.2,0.2,0.3,0.2c0.6,0,1.4-0.8,2.3-2.3
					H300.7z"/>
				<path class="st0" d="M317,151c0,0.4-0.1,0.9-0.4,1.5c-0.3,0.6-0.7,1.2-1.4,1.8s-1.7,1.2-3,1.7c-1.3,0.5-2.9,0.8-4.9,1l-0.4,0
					c-0.1,0.4-0.1,0.8-0.1,1.2c0,0.8,0.2,1.3,0.6,1.7s0.9,0.5,1.6,0.5c1.6,0,3.1-0.8,4.5-2.5h1.7c-0.6,1-1.6,2-2.9,2.9
					c-1.3,1-2.9,1.5-4.7,1.5c-1.3,0-2.3-0.3-3.2-1c-0.9-0.7-1.3-1.7-1.3-3c0-1.6,0.4-3.2,1.3-4.7s2.1-2.7,3.6-3.7
					c1.5-0.9,3.2-1.4,5-1.4c1.5,0,2.5,0.2,3.1,0.7C316.7,149.6,317,150.3,317,151z M313.7,151c0-0.3-0.1-0.7-0.4-0.9
					c-0.2-0.3-0.6-0.4-1-0.4c-0.7,0-1.4,0.3-2,0.8c-0.6,0.5-1.1,1.1-1.5,1.8c-0.4,0.7-0.8,1.4-1,2.1s-0.4,1.2-0.5,1.3
					c2.1-0.4,3.7-1,4.8-1.8C313.1,152.9,313.7,152,313.7,151z"/>
				<path class="st0" d="M361.3,140.5l-0.5,1.4c-0.8,0-1.4,0.1-1.8,0.3c-0.4,0.2-0.7,0.5-0.9,0.8c-0.2,0.4-0.4,1.1-0.7,2l-3.2,12.4
					c-0.2,0.7-0.3,1.1-0.3,1.4c0,0.6,0.2,0.9,0.7,1.1c0.5,0.2,1.1,0.3,2,0.3l-0.5,1.4h-9.9l0.5-1.4c0.8,0,1.4-0.1,1.8-0.2
					s0.7-0.3,0.9-0.7c0.2-0.3,0.4-0.8,0.6-1.6l3.7-14.7l-12.6,18.5h-2l-1.2-18.5l-5.3,13.9c-0.3,0.8-0.5,1.3-0.5,1.6
					c0,0.6,0.2,1,0.7,1.2c0.5,0.2,1.1,0.3,2,0.4l-0.5,1.4h-7l0.5-1.4c0.7-0.1,1.3-0.5,1.9-1.2c0.6-0.7,1.1-1.5,1.4-2.5l4.7-12.2
					c0.1-0.3,0.2-0.6,0.2-0.9c0-0.5-0.2-0.9-0.6-1.2s-0.9-0.4-1.6-0.4h-0.4l0.4-1.4h7.7l1.1,16.2l11.1-16.2H361.3z"/>
				<path class="st0" d="M376.4,158c-0.3,0.6-0.6,1.2-1,1.7c-0.4,0.5-0.8,1-1.3,1.3s-0.9,0.7-1.4,0.9c-0.5,0.2-0.9,0.3-1.5,0.3
					c-1.1,0-1.8-0.3-2.1-1s-0.5-1.5-0.5-2.4c-0.8,1-1.7,1.8-2.5,2.4c-0.8,0.6-1.7,0.9-2.8,0.9c-0.6,0-1.1-0.2-1.5-0.5
					c-0.4-0.3-0.7-0.8-0.9-1.4s-0.3-1.2-0.3-1.9c0-1.4,0.4-2.9,1.1-4.5c0.7-1.6,1.7-2.9,2.9-4c1.2-1.1,2.6-1.6,4-1.6
					c0.7,0,1.2,0.1,1.6,0.4c0.4,0.3,0.6,0.6,0.8,0.9c0.1,0.3,0.3,0.7,0.4,1.1l0.6-2h3.5l-2.9,9.6c-0.2,0.7-0.3,1.1-0.3,1.3
					c0,0.1,0,0.3,0.1,0.3c0.1,0.1,0.2,0.1,0.3,0.1c0.7,0,1.4-0.7,2.2-2.2H376.4z M370.5,151.7c0-0.5-0.1-1-0.3-1.3
					c-0.2-0.4-0.5-0.5-1.1-0.5c-0.8,0-1.5,0.5-2.3,1.4c-0.7,0.9-1.3,2-1.8,3.3c-0.5,1.3-0.7,2.4-0.7,3.2c0,1.3,0.4,1.9,1.2,1.9
					c0.6,0,1.1-0.3,1.7-0.8c0.6-0.5,1.1-1.2,1.6-2c0.5-0.9,0.9-1.8,1.2-2.7C370.4,153.2,370.5,152.4,370.5,151.7z"/>
				<path class="st0" d="M396,150.2c0,0.4-0.2,0.8-0.5,1.1c-0.3,0.3-0.7,0.5-1.2,0.5c-0.5,0-1.1-0.2-1.7-0.5c-0.6-0.3-1-0.4-1.4-0.4
					c-0.6,0-1.3,0.2-2.1,0.7c-0.7,0.5-1.6,1.2-2.7,2.2c0.9,0,1.8,0.2,2.5,0.6c0.8,0.4,1.2,0.9,1.5,1.6s0.4,1.5,0.4,2.6
					c0,0.6,0.1,1,0.2,1.3c0.1,0.2,0.3,0.4,0.6,0.4c0.5,0,0.9-0.3,1.3-0.8c0.4-0.5,0.8-1.1,1-1.6h1.5c-0.4,1.1-1.1,2.1-2,3
					c-0.9,0.9-2,1.3-3.4,1.3c-1.1,0-1.8-0.3-2.3-0.8c-0.5-0.5-0.7-1.1-0.7-1.8c0-0.2,0-0.6,0.1-1.2c0.1-0.6,0.1-1.1,0.1-1.4
					c0-1.3-0.7-2-2.1-2l-1.4,1.3l-1.7,5.6h-3.7l5.3-17.3c0.3-1,0.4-1.5,0.4-1.6c0-0.4-0.2-0.7-0.5-0.8c-0.3-0.1-0.9-0.1-1.7-0.1
					l0.4-1.4c2.4,0,4.2-0.1,5.3-0.4h1.1l-4.2,13.8c1.5-1.4,2.7-2.4,3.4-3.1c0.7-0.6,1.5-1.2,2.5-1.6s1.9-0.7,2.9-0.7
					c0.8,0,1.5,0.2,2,0.5S396,149.7,396,150.2z"/>
				<path class="st0" d="M406.8,158c-0.4,0.9-1,1.8-1.9,2.8c-0.9,1-2,1.4-3.3,1.4c-0.9,0-1.5-0.2-2-0.7s-0.7-0.9-0.7-1.5
					c0-0.6,0.2-1.4,0.6-2.5l2-5.5c0.2-0.5,0.3-0.8,0.3-1c0-0.1,0-0.2-0.1-0.3s-0.2-0.1-0.3-0.1c-0.4,0-0.7,0.3-1.2,0.8
					c-0.4,0.6-0.7,1.1-0.9,1.5H398c0.6-1.4,1.4-2.4,2.4-3.2c1-0.8,2-1.1,3-1.1c0.7,0,1.3,0.2,1.7,0.5c0.5,0.3,0.7,0.8,0.7,1.4
					c0,0.6-0.1,1.2-0.3,1.8l-2.4,6.6c-0.2,0.5-0.3,0.8-0.3,1.1c0,0.1,0,0.2,0.1,0.4s0.2,0.2,0.3,0.2c0.3,0,0.6-0.2,1-0.5
					c0.3-0.3,0.8-1,1.3-1.9H406.8z M408,142.1c0,0.6-0.2,1-0.6,1.5s-0.9,0.6-1.4,0.6c-0.6,0-1.1-0.2-1.5-0.6
					c-0.4-0.4-0.6-0.9-0.6-1.5c0-0.5,0.2-1,0.6-1.4c0.4-0.4,0.9-0.6,1.5-0.6c0.4,0,0.7,0.1,1,0.3c0.3,0.2,0.6,0.4,0.7,0.7
					S408,141.7,408,142.1z"/>
				<path class="st0" d="M427.1,157.6c-0.3,0.6-0.7,1.2-1.2,1.8c-0.5,0.7-1.2,1.2-1.9,1.7s-1.6,0.8-2.5,0.8c-0.8,0-1.4-0.2-1.8-0.6
					c-0.5-0.4-0.7-0.9-0.7-1.5c0-0.5,0.1-1.1,0.4-2l1.1-3.8c0.3-1,0.5-1.7,0.5-2.1c0-0.2-0.1-0.4-0.2-0.6c-0.1-0.2-0.3-0.3-0.6-0.3
					c-0.6,0-1.3,0.5-2.1,1.4c-0.8,1-1.6,2.2-2.5,3.9c-0.8,1.6-1.6,3.4-2.2,5.3h-3.7l2.8-9.2c0.3-0.9,0.4-1.5,0.4-1.6
					c0-0.1,0-0.3-0.1-0.4s-0.2-0.2-0.4-0.2c-0.4,0-0.8,0.3-1.2,0.8c-0.4,0.5-0.7,1.1-0.9,1.7h-1.3c0.4-1.1,1-2.1,1.8-3
					c0.8-0.9,1.9-1.3,3.2-1.3c0.8,0,1.4,0.2,1.8,0.7c0.4,0.4,0.6,0.9,0.6,1.4c0,0.3-0.1,0.7-0.2,1.2c-0.1,0.6-0.2,1.1-0.4,1.6
					l-0.5,1.6c1.3-2,2.5-3.6,3.7-4.7c1.1-1.2,2.4-1.7,3.8-1.7c0.8,0,1.4,0.2,1.8,0.7c0.4,0.5,0.5,1,0.5,1.5c0,0.3-0.1,1-0.4,1.9
					l-1.6,5.5c-0.2,0.7-0.3,1.2-0.3,1.4c0,0.1,0,0.2,0.1,0.3c0.1,0.1,0.2,0.1,0.3,0.1c0.3,0,0.7-0.2,1.1-0.6s0.9-1,1.3-1.6H427.1z"
					/>
				<path class="st0" d="M444.9,149.6c0,0.4-0.1,0.6-0.3,0.7c-0.2,0.1-0.4,0.2-0.7,0.2c-0.3,0-0.5-0.1-0.8-0.3
					c-0.2-0.1-0.3-0.2-0.5-0.2c-0.3,0-0.5,0.1-0.6,0.4c0.2,0.3,0.4,0.7,0.5,1s0.2,0.7,0.2,1.2c0,0.4-0.1,0.9-0.3,1.5s-0.5,1.1-1,1.6
					c-0.5,0.5-1.2,1-2.1,1.3c-0.9,0.4-2.1,0.5-3.4,0.5c-1.3,0-2.2,0.1-2.6,0.3c-0.4,0.2-0.7,0.6-0.7,1c0,0.2,0.1,0.4,0.2,0.5
					c0.2,0.1,0.4,0.3,0.7,0.4c0.3,0.1,0.9,0.3,1.7,0.5c0.8,0.2,1.6,0.5,2.4,0.7c2.8,0.8,4.2,2.1,4.2,3.9c0,0.8-0.3,1.5-0.8,2.2
					s-1.4,1.2-2.7,1.7c-1.3,0.4-2.9,0.7-5,0.7c-0.8,0-1.8-0.1-2.9-0.2c-1.1-0.2-2.1-0.5-3-1s-1.4-1.3-1.4-2.3c0-0.5,0.1-1,0.3-1.3
					c0.2-0.4,0.5-0.7,0.9-0.9c0.3-0.2,0.7-0.3,1-0.3c0.2,0,0.4,0,0.5,0.1c0.1,0.1,0.2,0.2,0.2,0.3s-0.1,0.3-0.3,0.6
					c-0.4,0.5-0.5,0.9-0.5,1.3c0,1,0.6,1.7,1.7,2c1.1,0.3,2.3,0.5,3.5,0.5c1.5,0,2.6-0.2,3.5-0.6c0.9-0.4,1.3-0.9,1.3-1.6
					c0-0.3-0.1-0.6-0.3-0.8c-0.2-0.2-0.5-0.4-1-0.6c-0.5-0.2-1.4-0.5-2.7-0.9c-1.2-0.4-2.1-0.7-2.8-1c-0.7-0.3-1.1-0.7-1.5-1.1
					c-0.3-0.4-0.5-0.9-0.5-1.5c0-0.9,0.4-1.6,1.1-2.1c0.7-0.6,1.6-0.9,2.7-1.1c-0.8-0.3-1.4-0.8-1.8-1.5c-0.4-0.6-0.6-1.3-0.6-2
					c0-0.8,0.3-1.7,0.8-2.4c0.5-0.8,1.3-1.4,2.2-1.9c1-0.5,2-0.7,3.2-0.7c1.8,0,3.1,0.4,4,1.3c0.4-0.4,0.7-0.7,1.1-0.9
					c0.4-0.2,0.8-0.3,1.3-0.3c0.4,0,0.7,0.1,1,0.3C444.8,149,444.9,149.3,444.9,149.6z M439.3,151.5c0-0.4-0.1-0.7-0.2-1
					c-0.1-0.3-0.3-0.5-0.6-0.7s-0.6-0.3-0.9-0.3c-0.6,0-1.2,0.3-1.7,0.9c-0.5,0.6-0.9,1.2-1.1,2c-0.3,0.8-0.4,1.5-0.4,2.1
					c0,0.6,0.2,1.1,0.5,1.4c0.3,0.3,0.7,0.5,1.2,0.5c1.1,0,1.9-0.6,2.4-1.7S439.3,152.5,439.3,151.5z"/>
				<path class="st0" d="M460.1,151.1c0,0.4-0.1,0.8-0.4,1.1c-0.3,0.3-0.7,0.5-1.2,0.5c-0.4,0-0.7-0.1-0.9-0.2s-0.4-0.3-0.5-0.6
					s-0.3-0.6-0.4-1.2c-0.1-0.4-0.3-0.6-0.5-0.8c-0.2-0.2-0.6-0.3-1.2-0.3c-0.5,0-1,0.1-1.5,0.4c-0.4,0.3-0.7,0.7-0.7,1.1
					c0,0.3,0.1,0.6,0.3,0.9c0.2,0.3,0.4,0.5,0.7,0.8c0.3,0.3,0.7,0.6,1.2,1.1c1,0.8,1.8,1.5,2.2,2.1c0.5,0.6,0.7,1.3,0.7,2.1
					c0,0.7-0.2,1.3-0.6,2s-1.1,1.1-2,1.5c-0.9,0.4-2.1,0.6-3.5,0.6c-2.1,0-3.5-0.4-4.3-1.1c-0.8-0.8-1.3-1.5-1.3-2.2
					c0-0.5,0.2-0.9,0.5-1.2c0.3-0.4,0.8-0.5,1.3-0.5c1.1,0,1.7,0.7,1.8,2.1c0.1,0.6,0.2,1,0.5,1.4c0.3,0.3,0.8,0.5,1.6,0.5
					c0.7,0,1.3-0.2,1.7-0.5c0.4-0.4,0.7-0.8,0.7-1.4c0-0.3-0.1-0.6-0.2-0.9c-0.2-0.3-0.5-0.6-0.9-1c-0.8-0.7-1.5-1.3-2.1-1.9
					s-1-1.1-1.2-1.6s-0.4-1-0.4-1.6c0-0.5,0.2-1,0.5-1.6c0.3-0.6,0.9-1.1,1.8-1.5c0.9-0.4,2.1-0.7,3.7-0.7c0.9,0,1.7,0.1,2.4,0.3
					s1.1,0.4,1.5,0.7c0.3,0.3,0.6,0.5,0.7,0.8C460,150.5,460.1,150.8,460.1,151.1z"/>
				<path class="st0" d="M486.8,153.9c0,1-0.2,2.1-0.6,3.1s-1,1.9-1.8,2.7s-1.7,1.4-2.7,1.8c-1,0.4-2.2,0.7-3.5,0.7
					c-1.2,0-2.3-0.2-3.2-0.7s-1.7-1.1-2.2-2c-0.5-0.9-0.8-1.8-0.8-2.9c0-1.4,0.4-2.7,1.2-4c0.8-1.3,1.8-2.3,3.2-3s2.8-1.1,4.3-1.1
					c1.3,0,2.4,0.3,3.3,0.8s1.6,1.2,2.1,2C486.6,152.1,486.8,153,486.8,153.9z M483.1,152.9c0-1-0.2-1.7-0.6-2.3
					c-0.4-0.6-1-0.8-1.8-0.8c-0.8,0-1.5,0.3-2.1,0.9c-0.6,0.6-1.1,1.3-1.5,2.2c-0.4,0.9-0.7,1.8-0.9,2.7c-0.2,0.9-0.3,1.7-0.3,2.3
					c0,0.9,0.2,1.6,0.6,2.2c0.4,0.6,1,0.9,1.7,0.9c0.8,0,1.6-0.3,2.2-0.9c0.6-0.6,1.2-1.3,1.6-2.2c0.4-0.9,0.7-1.8,0.9-2.7
					C483,154.2,483.1,153.5,483.1,152.9z"/>
				<path class="st0" d="M504.5,142.4c0,0.5-0.1,0.8-0.4,1.2s-0.7,0.5-1.1,0.5c-0.5,0-0.8-0.1-1-0.4c-0.2-0.3-0.4-0.7-0.6-1.4
					c-0.1-0.2-0.2-0.4-0.3-0.6c-0.1-0.1-0.3-0.2-0.5-0.2c-0.3,0-0.5,0.1-0.6,0.3c-0.1,0.2-0.3,0.5-0.4,0.9l-1.9,6.2h2.6l-0.5,1.4
					h-2.6l-2.7,8.9c-0.7,2.3-1.4,4.1-2,5.5c-0.6,1.3-1.4,2.5-2.5,3.4c-1.1,1-2.4,1.4-4,1.4c-1.2,0-2.1-0.3-2.7-0.8
					c-0.6-0.5-0.9-1.1-0.9-1.7c0-0.5,0.2-0.9,0.5-1.3c0.3-0.4,0.8-0.5,1.3-0.5c0.6,0,1.1,0.2,1.3,0.5c0.2,0.3,0.3,0.8,0.4,1.3
					c0.1,0.7,0.4,1.1,0.9,1.1c0.5,0,1-0.3,1.3-0.9c0.3-0.6,0.7-1.5,1.1-2.7l4.4-14.3h-2.8l0.4-1.4h2.8l0.3-1
					c0.4-1.4,0.9-2.7,1.3-3.7c0.5-1.1,1.2-2,2.2-2.8c1-0.8,2.2-1.2,3.6-1.2c0.5,0,1.1,0.1,1.6,0.3c0.5,0.2,0.9,0.4,1.2,0.8
					C504.4,141.5,504.5,141.9,504.5,142.4z"/>
				<path class="st0" d="M526.4,158c-0.3,0.6-0.6,1.2-1,1.7c-0.4,0.5-0.8,1-1.3,1.3s-0.9,0.7-1.4,0.9c-0.5,0.2-0.9,0.3-1.5,0.3
					c-1.1,0-1.8-0.3-2.1-1s-0.5-1.5-0.5-2.4c-0.8,1-1.7,1.8-2.5,2.4c-0.8,0.6-1.7,0.9-2.8,0.9c-0.6,0-1.1-0.2-1.5-0.5
					c-0.4-0.3-0.7-0.8-0.9-1.4s-0.3-1.2-0.3-1.9c0-1.4,0.4-2.9,1.1-4.5c0.7-1.6,1.7-2.9,2.9-4c1.2-1.1,2.6-1.6,4-1.6
					c0.7,0,1.2,0.1,1.6,0.4c0.4,0.3,0.6,0.6,0.8,0.9c0.1,0.3,0.3,0.7,0.4,1.1l0.6-2h3.5l-2.9,9.6c-0.2,0.7-0.3,1.1-0.3,1.3
					c0,0.1,0,0.3,0.1,0.3c0.1,0.1,0.2,0.1,0.3,0.1c0.7,0,1.4-0.7,2.2-2.2H526.4z M520.5,151.7c0-0.5-0.1-1-0.3-1.3
					c-0.2-0.4-0.5-0.5-1.1-0.5c-0.8,0-1.5,0.5-2.3,1.4c-0.7,0.9-1.3,2-1.8,3.3c-0.5,1.3-0.7,2.4-0.7,3.2c0,1.3,0.4,1.9,1.2,1.9
					c0.6,0,1.1-0.3,1.7-0.8c0.6-0.5,1.1-1.2,1.6-2c0.5-0.9,0.9-1.8,1.2-2.7C520.4,153.2,520.5,152.4,520.5,151.7z"/>
				<path class="st0" d="M570.7,140.5l-0.5,1.4c-0.8,0-1.4,0.1-1.8,0.3c-0.4,0.2-0.7,0.5-0.9,0.8c-0.2,0.4-0.4,1.1-0.7,2l-3.2,12.4
					c-0.2,0.7-0.3,1.1-0.3,1.4c0,0.6,0.2,0.9,0.7,1.1c0.5,0.2,1.1,0.3,2,0.3l-0.5,1.4h-9.9l0.5-1.4c0.8,0,1.4-0.1,1.8-0.2
					c0.4-0.1,0.7-0.3,0.9-0.7c0.2-0.3,0.4-0.8,0.6-1.6l3.7-14.7l-12.6,18.5h-2l-1.2-18.5l-5.3,13.9c-0.3,0.8-0.5,1.3-0.5,1.6
					c0,0.6,0.2,1,0.7,1.2s1.1,0.3,2,0.4l-0.5,1.4h-7l0.5-1.4c0.7-0.1,1.3-0.5,1.9-1.2s1.1-1.5,1.4-2.5l4.7-12.2
					c0.1-0.3,0.2-0.6,0.2-0.9c0-0.5-0.2-0.9-0.6-1.2c-0.4-0.3-0.9-0.4-1.6-0.4h-0.4l0.4-1.4h7.7l1.1,16.2l11.1-16.2H570.7z"/>
				<path class="st0" d="M584.8,153.9c0,1-0.2,2.1-0.6,3.1s-1,1.9-1.8,2.7s-1.7,1.4-2.7,1.8c-1,0.4-2.2,0.7-3.5,0.7
					c-1.2,0-2.3-0.2-3.2-0.7s-1.7-1.1-2.2-2c-0.5-0.9-0.8-1.8-0.8-2.9c0-1.4,0.4-2.7,1.2-4c0.8-1.3,1.8-2.3,3.2-3s2.8-1.1,4.3-1.1
					c1.3,0,2.4,0.3,3.3,0.8s1.6,1.2,2.1,2C584.6,152.1,584.8,153,584.8,153.9z M581.1,152.9c0-1-0.2-1.7-0.6-2.3
					c-0.4-0.6-1-0.8-1.8-0.8c-0.8,0-1.5,0.3-2.1,0.9c-0.6,0.6-1.1,1.3-1.5,2.2c-0.4,0.9-0.7,1.8-0.9,2.7c-0.2,0.9-0.3,1.7-0.3,2.3
					c0,0.9,0.2,1.6,0.6,2.2c0.4,0.6,1,0.9,1.7,0.9c0.8,0,1.6-0.3,2.2-0.9c0.6-0.6,1.2-1.3,1.6-2.2c0.4-0.9,0.7-1.8,0.9-2.7
					C581,154.2,581.1,153.5,581.1,152.9z"/>
				<path class="st0" d="M603.6,150.8c0,1.1-0.3,2.4-0.9,3.7s-1.4,2.6-2.4,3.7c-1,1.2-2.2,2.1-3.4,2.8s-2.5,1.1-3.8,1.1
					c-0.6,0-1.2-0.1-1.7-0.3c-0.6-0.2-1-0.6-1.4-1.1c-0.4-0.5-0.6-1.1-0.6-1.9c0-1,0.3-1.8,0.8-2.5c0.5-0.7,1.2-1.5,2.2-2.3
					c0.8-0.6,1.3-1.2,1.7-1.6c0.4-0.4,0.7-0.9,1-1.4c-0.8,0.6-1.6,0.8-2.3,0.8c-0.5,0-1.1-0.2-1.6-0.5c-0.3-0.2-0.6-0.3-0.8-0.3
					c-0.5,0-0.8,0.3-1,0.9H588c0.7-2.3,1.8-3.5,3.2-3.5c0.7,0,1.5,0.3,2.3,1c0.3,0.2,0.5,0.4,0.6,0.4c0.2,0.1,0.3,0.1,0.4,0.1
					c0.5,0,0.8-0.3,0.9-0.9c0.1-0.5,0.3-0.7,0.6-0.7c0.2,0,0.4,0.1,0.6,0.2s0.2,0.4,0.2,0.6c0,0.5-0.2,1.1-0.5,1.7s-0.7,1.3-1.2,2.1
					c-0.8,1.3-1.4,2.4-1.7,3.1s-0.5,1.4-0.5,2c0,0.6,0.2,1.1,0.6,1.3c0.4,0.3,0.9,0.4,1.4,0.4c1,0,2-0.4,2.9-1.1
					c0.9-0.8,1.7-1.6,2.3-2.7s0.9-1.9,0.9-2.7c0-0.5-0.1-1.1-0.3-1.7c-0.2-0.5-0.2-1-0.2-1.4c0-0.7,0.2-1.2,0.5-1.4
					c0.3-0.3,0.6-0.4,1-0.4c0.5,0,0.9,0.2,1.2,0.7C603.4,149.5,603.6,150.1,603.6,150.8z"/>
				<path class="st0" d="M620.4,151c0,0.4-0.1,0.9-0.4,1.5c-0.3,0.6-0.7,1.2-1.4,1.8s-1.7,1.2-3,1.7c-1.3,0.5-2.9,0.8-4.9,1l-0.4,0
					c-0.1,0.4-0.1,0.8-0.1,1.2c0,0.8,0.2,1.3,0.6,1.7c0.4,0.3,0.9,0.5,1.6,0.5c1.6,0,3.1-0.8,4.5-2.5h1.7c-0.6,1-1.6,2-2.9,2.9
					c-1.3,1-2.9,1.5-4.7,1.5c-1.3,0-2.3-0.3-3.2-1c-0.9-0.7-1.3-1.7-1.3-3c0-1.6,0.4-3.2,1.3-4.7s2.1-2.7,3.6-3.7
					c1.5-0.9,3.2-1.4,5-1.4c1.5,0,2.5,0.2,3.1,0.7S620.4,150.3,620.4,151z M617.1,151c0-0.3-0.1-0.7-0.4-0.9s-0.6-0.4-1-0.4
					c-0.7,0-1.4,0.3-2,0.8c-0.6,0.5-1.1,1.1-1.5,1.8s-0.8,1.4-1,2.1s-0.4,1.2-0.5,1.3c2.1-0.4,3.7-1,4.8-1.8S617.1,152,617.1,151z"
					/>
				<path class="st0" d="M652.3,157.6c-1.6,2.9-3.5,4.4-5.8,4.4c-0.8,0-1.4-0.2-1.9-0.7c-0.4-0.4-0.7-0.9-0.7-1.5
					c0-0.4,0.1-1,0.3-1.7l1.2-3.9c0.3-0.9,0.4-1.5,0.4-1.8c0-0.4-0.1-0.7-0.3-0.9c-0.2-0.2-0.5-0.3-0.9-0.3c-0.9,0-1.8,0.5-2.8,1.5
					c-1,1-1.9,2.2-2.8,3.8s-1.5,3.1-2,4.6l-0.2,0.7h-3.7l2.4-7.9c0.2-0.7,0.3-1.2,0.3-1.5c0-0.3-0.1-0.6-0.3-0.9
					c-0.2-0.2-0.5-0.4-0.9-0.4c-0.7,0-1.5,0.3-2.2,0.9c-0.8,0.6-1.5,1.4-2.2,2.4c-0.7,1-1.3,2.1-1.9,3.3c-0.6,1.2-1,2.3-1.4,3.5
					l-0.2,0.5h-3.7l2.7-9c0.3-1,0.4-1.6,0.4-1.8c0-0.2-0.1-0.3-0.2-0.4c-0.1-0.1-0.2-0.1-0.4-0.1c-0.1,0-0.3,0.1-0.6,0.2
					c-0.2,0.1-0.5,0.4-0.8,0.7c-0.3,0.4-0.6,0.9-0.9,1.5h-1.4c0.4-1.1,1.1-2.1,2-3c0.9-0.9,1.9-1.3,3.2-1.3c0.4,0,0.8,0.1,1.2,0.2
					c0.4,0.2,0.7,0.4,0.9,0.8c0.2,0.3,0.4,0.8,0.4,1.3c0,0.6-0.2,1.5-0.5,2.7l-0.5,1.5c0.6-1,1.2-1.9,1.9-2.7
					c0.7-0.8,1.4-1.5,2.1-2.1c0.7-0.6,1.4-1,2.1-1.3c0.7-0.3,1.3-0.4,2-0.4c0.9,0,1.6,0.2,2.1,0.7c0.5,0.5,0.8,1.1,0.8,1.8
					c0,0.5-0.2,1.4-0.5,2.5l-0.4,1.4c0.6-1.1,1.3-2.1,2.1-3c0.8-0.9,1.7-1.7,2.7-2.4s2.1-1,3.2-1c0.7,0,1.2,0.1,1.7,0.4
					c0.4,0.3,0.7,0.6,0.9,1c0.2,0.4,0.3,0.8,0.3,1.1c0,0.3,0,0.6-0.1,0.8c-0.1,0.2-0.2,0.7-0.4,1.5l-1.5,4.9c-0.2,0.6-0.3,1-0.3,1.2
					c0,0.3,0.2,0.5,0.5,0.5c0.3,0,0.6-0.2,1.1-0.5c0.4-0.3,0.9-0.9,1.4-1.8H652.3z"/>
				<path class="st0" d="M668.5,151c0,0.4-0.1,0.9-0.4,1.5c-0.3,0.6-0.7,1.2-1.4,1.8s-1.7,1.2-3,1.7c-1.3,0.5-2.9,0.8-4.9,1l-0.4,0
					c-0.1,0.4-0.1,0.8-0.1,1.2c0,0.8,0.2,1.3,0.6,1.7c0.4,0.3,0.9,0.5,1.6,0.5c1.6,0,3.1-0.8,4.5-2.5h1.7c-0.6,1-1.6,2-2.9,2.9
					c-1.3,1-2.9,1.5-4.7,1.5c-1.3,0-2.3-0.3-3.2-1c-0.9-0.7-1.3-1.7-1.3-3c0-1.6,0.4-3.2,1.3-4.7s2.1-2.7,3.6-3.7
					c1.5-0.9,3.2-1.4,5-1.4c1.5,0,2.5,0.2,3.1,0.7S668.5,150.3,668.5,151z M665.2,151c0-0.3-0.1-0.7-0.4-0.9s-0.6-0.4-1-0.4
					c-0.7,0-1.4,0.3-2,0.8c-0.6,0.5-1.1,1.1-1.5,1.8s-0.8,1.4-1,2.1s-0.4,1.2-0.5,1.3c2.1-0.4,3.7-1,4.8-1.8S665.2,152,665.2,151z"
					/>
				<path class="st0" d="M688.6,157.6c-0.3,0.6-0.7,1.2-1.2,1.8c-0.5,0.7-1.2,1.2-1.9,1.7s-1.6,0.8-2.5,0.8c-0.8,0-1.4-0.2-1.8-0.6
					c-0.5-0.4-0.7-0.9-0.7-1.5c0-0.5,0.1-1.1,0.4-2l1.1-3.8c0.3-1,0.5-1.7,0.5-2.1c0-0.2-0.1-0.4-0.2-0.6c-0.1-0.2-0.3-0.3-0.6-0.3
					c-0.6,0-1.3,0.5-2.1,1.4c-0.8,1-1.6,2.2-2.5,3.9c-0.8,1.6-1.6,3.4-2.2,5.3h-3.7l2.8-9.2c0.3-0.9,0.4-1.5,0.4-1.6
					c0-0.1,0-0.3-0.1-0.4s-0.2-0.2-0.4-0.2c-0.4,0-0.8,0.3-1.2,0.8c-0.4,0.5-0.7,1.1-0.9,1.7h-1.3c0.4-1.1,1-2.1,1.8-3
					c0.8-0.9,1.9-1.3,3.2-1.3c0.8,0,1.4,0.2,1.8,0.7c0.4,0.4,0.6,0.9,0.6,1.4c0,0.3-0.1,0.7-0.2,1.2c-0.1,0.6-0.2,1.1-0.4,1.6
					l-0.5,1.6c1.3-2,2.5-3.6,3.7-4.7c1.1-1.2,2.4-1.7,3.8-1.7c0.8,0,1.4,0.2,1.8,0.7c0.4,0.5,0.5,1,0.5,1.5c0,0.3-0.1,1-0.4,1.9
					l-1.6,5.5c-0.2,0.7-0.3,1.2-0.3,1.4c0,0.1,0,0.2,0.1,0.3c0.1,0.1,0.2,0.1,0.3,0.1c0.3,0,0.7-0.2,1.1-0.6s0.9-1,1.3-1.6H688.6z"
					/>
				<path class="st0" d="M701.3,148.9l-0.4,1.4h-3.1l-2.4,7.7c-0.2,0.6-0.3,1-0.3,1.2c0,0.2,0.1,0.4,0.2,0.6
					c0.1,0.2,0.3,0.3,0.5,0.3c0.6,0,1.1-0.3,1.6-0.9s0.9-1.2,1.2-1.9h1.5c-0.6,1.3-1.2,2.3-2,3c-0.7,0.7-1.4,1.2-2.1,1.4
					c-0.6,0.2-1.2,0.4-1.8,0.4c-0.9,0-1.6-0.3-2.1-0.8s-0.8-1.2-0.8-2.1c0-0.6,0.2-1.4,0.5-2.4l2-6.6h-2.9l0.5-1.4h2.9l1.4-4.8h3.7
					l-1.4,4.8H701.3z"/>
			</g>
		</g>
	</g>
</g>
</svg>
