<?xml version="1.0" encoding="utf-8"?>
<!-- Generator: Adobe Illustrator 19.0.1, SVG Export Plug-In . SVG Version: 6.00 Build 0)  -->
<svg version="1.1" xmlns="http://www.w3.org/2000/svg" xmlns:xlink="http://www.w3.org/1999/xlink" x="0px" y="0px"
	 viewBox="0 0 275.6 259.6" style="enable-background:new 0 0 275.6 259.6;" xml:space="preserve">
<style type="text/css">
	.st0{fill:#FFFFFF;}
	.st1{fill:#3399CC;}
	.st2{fill:#653614;}
	.st3{fill:#382C3D;}
	.st4{fill:#3D220E;}
	.st5{fill:#CDCBCA;}
	.st6{fill:#392C3E;}
	.st7{clip-path:url(#SVGID_2_);}
	.st8{clip-path:url(#SVGID_4_);}
	.st9{clip-path:url(#SVGID_14_);fill:#292929;}
	.st10{clip-path:url(#SVGID_14_);}
	.st11{clip-path:url(#SVGID_16_);}
	.st12{clip-path:url(#SVGID_14_);fill:#ECEAE5;}
	.st13{clip-path:url(#SVGID_14_);fill:#727272;}
	.st14{fill:#727272;}
	.st15{clip-path:url(#SVGID_14_);fill:none;stroke:#727272;stroke-width:1.0618;stroke-miterlimit:10;}
	.st16{clip-path:url(#SVGID_14_);fill:none;stroke:#D6B35A;stroke-width:0.8374;}
	.st17{clip-path:url(#SVGID_20_);fill:#898B8D;}
	.st18{clip-path:url(#SVGID_20_);fill:none;stroke:#FFFFFF;stroke-width:0.2094;stroke-miterlimit:10;}
	.st19{clip-path:url(#SVGID_20_);fill:#FFFFFF;}
	.st20{clip-path:url(#SVGID_14_);fill:none;stroke:#878686;stroke-width:0.2094;stroke-miterlimit:10;}
	.st21{clip-path:url(#SVGID_22_);}
	.st22{fill:#ECEAE5;}
	.st23{clip-path:url(#SVGID_24_);fill:none;stroke:#727272;stroke-width:0.8374;}
	.st24{clip-path:url(#SVGID_26_);}
	.st25{clip-path:url(#SVGID_28_);}
	.st26{clip-path:url(#SVGID_38_);}
	.st27{fill:#EBE9E3;}
	.st28{fill:#6C6C6C;}
	.st29{fill:none;stroke:#58595B;stroke-width:0.3812;stroke-miterlimit:10;}
	.st30{fill:#231F20;}
	.st31{fill:#58595B;}
	.st32{clip-path:url(#SVGID_42_);}
	.st33{clip-path:url(#SVGID_46_);}
	.st34{clip-path:url(#SVGID_50_);}
	.st35{opacity:0.5;fill:#653614;}
	.st36{fill-rule:evenodd;clip-rule:evenodd;fill:#CDCBCA;}
	.st37{fill-rule:evenodd;clip-rule:evenodd;fill:#392C3E;}
	.st38{fill:none;stroke:#CDCBCA;stroke-width:0.9925;stroke-miterlimit:10;}
	.st39{clip-path:url(#SVGID_54_);}
	.st40{fill-rule:evenodd;clip-rule:evenodd;fill:#989898;}
	.st41{fill-rule:evenodd;clip-rule:evenodd;fill:#FFFFFF;}
	.st42{fill:#979797;}
	.st43{opacity:0.78;}
	.st44{opacity:0.67;}
	.st45{fill:#EFEFEF;}
	.st46{fill-rule:evenodd;clip-rule:evenodd;fill:#998881;}
	.st47{fill:#998881;}
	.st48{opacity:0.5;clip-path:url(#SVGID_60_);fill:#653614;}
	.st49{clip-path:url(#SVGID_62_);}
	.st50{clip-path:url(#SVGID_64_);}
	.st51{fill:none;stroke:#FFFFFF;stroke-width:1.0598;stroke-miterlimit:10;}
	.st52{fill:none;stroke:#FFFFFF;stroke-width:1.7138;stroke-miterlimit:10;}
	.st53{clip-path:url(#SVGID_68_);}
	.st54{fill:none;stroke:#FFFFFF;stroke-width:1.0849;stroke-miterlimit:10;}
	.st55{fill:none;stroke:#FFFFFF;stroke-width:0.7232;stroke-miterlimit:10;}
	.st56{clip-path:url(#SVGID_72_);}
	.st57{clip-path:url(#SVGID_76_);}
	.st58{clip-path:url(#SVGID_80_);}
	.st59{fill:none;stroke:#FFFFFF;stroke-width:1.4465;stroke-miterlimit:10;}
	.st60{fill:none;stroke:#653614;stroke-width:1.0849;stroke-miterlimit:10;}
	.st61{fill:none;stroke:#FFFFFF;stroke-width:1.9662;stroke-miterlimit:10;}
	.st62{fill:none;stroke:#653614;stroke-width:2.1697;stroke-miterlimit:10;}
	.st63{fill:none;stroke:#FFFFFF;stroke-width:1.9057;stroke-miterlimit:10;}
	.st64{fill:none;stroke:#FFFFFF;stroke-width:2.3905;stroke-miterlimit:10;}
</style>
<g id="Layer_1">
</g>
<g id="Layer_2">
	<g>
		<g>
			<circle class="st51" cx="137.1" cy="70" r="65.7"/>
			<circle class="st51" cx="137.1" cy="70" r="69.5"/>
			<path class="st0" d="M180.1,67.8c0-0.2,0.1-0.3,0.3-0.3c0.2,0,0.3,0.1,0.3,0.3c0,0.3-0.1,0.6-0.1,0.9c0,0.3,0,0.5,0,0.8h0.1
				c0.3,0,0.5,0.2,0.5,0.5c0,0.2,0,0.3,0.1,0.5c0.4,0,0.8,0.1,1.2,0.2c0.4,0.1,0.9,0.3,1.3,0.5c0.2,0.1,0.2,0.2,0.2,0.3
				c-0.1,0.1-0.2,0.2-0.4,0.2c-0.6-0.2-1.3-0.2-2.1-0.1c-0.1,0.1-0.2,0.2-0.5,0.2h-0.2c-0.2,0.9-0.2,1.8-0.2,2.9
				c0.5-0.2,1-0.4,1.5-0.6c0.5-0.2,0.8-0.4,0.8-0.5c0.1-0.2,0.2-0.2,0.3-0.2c0.2,0,0.2,0.1,0.2,0.3c-0.1,0.4-0.4,0.8-1.1,1.1
				c-0.6,0.3-1.2,0.6-1.8,0.9c0,0,0,0.1,0,0.1c0,0,0,0,0,0.1v0.1c0,0.3-0.1,0.4-0.2,0.5c0,0.3-0.1,0.7-0.1,1c0,0.3,0,0.7-0.1,1
				c0,0.2,0,0.5,0,0.7c0,0.2,0,0.4,0.1,0.6v0.6c-0.1,0.2-0.2,0.3-0.3,0.3c-0.1,0-0.2-0.1-0.3-0.2c-0.1-0.6-0.2-1.2-0.3-1.9
				c-0.1-0.6-0.1-1.3-0.1-1.9c-0.8,0.2-1.5,0.5-2.1,0.9c-0.6,0.4-1.2,0.8-1.9,1.3c-0.6,0.5-1.2,0.9-1.9,1.3
				c-0.6,0.4-1.4,0.6-2.2,0.8c0,0.8-0.1,1.7-0.1,2.5c0,0.8,0,1.6-0.1,2.4c0,0.9,0,1.8,0,2.6c0,0.9,0,1.8-0.1,2.6
				c0,0.1-0.1,0.2-0.2,0.3c0,0.6-0.1,1.2-0.1,1.8c0,0.6,0,1.2,0,1.8v1.1c0,1.1,0,2-0.1,2.9v1.7c0,0.5-0.2,0.9-0.6,1.1
				c0,0.3,0.1,0.5,0.1,0.8c0,0.3,0.1,0.5,0.1,0.8c0.1,0.1,0.2,0.2,0.2,0.3c0,0.1,0,0.2-0.1,0.2c0,0.2-0.1,0.3-0.3,0.3
				c-0.1,0-0.2-0.1-0.3-0.2c-0.1-0.3-0.1-0.6-0.2-0.9c-0.1-0.3-0.1-0.7-0.1-1c-0.3,0.3-0.7,0.5-1.1,0.8l-0.8,0.7c0,0,0,0.1-0.1,0.1
				l-0.1,0.1c-1.2,1-2.5,1.9-4.1,2.7c-0.2,0.1-0.5,0.2-0.7,0.4c-0.7,0.6-1.4,1.2-2.1,1.7c-0.7,0.5-1.5,1-2.3,1.4
				c-1.2,0.5-2.4,0.8-3.6,1.1c-1.2,0.3-2.4,0.6-3.6,0.9c-1.4,0.4-2.9,0.8-4.3,1.3c-1.4,0.5-2.9,0.8-4.4,0.9
				c-5.5,0.4-10.9,0.2-16.2-0.7c-5.3-0.9-10.4-2.7-15.3-5.3c-0.5-0.3-1.3-0.7-2.2-1.3c-0.9-0.6-1.9-1.2-3-2
				c-1.1-0.8-2.2-1.6-3.3-2.5c-1.1-0.9-2.2-1.8-3.1-2.8c-0.9-1-1.7-1.9-2.4-2.9c-0.7-1-1.1-1.9-1.2-2.7v-0.1c-0.4-1-0.7-2.1-1-3.1
				c-0.2-1-0.5-2.1-0.9-3.2c-0.2-0.5-0.3-1-0.5-1.4c-0.2-0.4-0.4-0.9-0.6-1.3c-0.2-0.6-0.3-1.1-0.4-1.7c-0.1-0.6-0.1-1.2-0.3-1.7
				c-0.2-0.8-0.3-1.6-0.5-2.2c-0.2-0.6-0.4-1.2-0.6-1.8c-0.2-0.6-0.4-1.2-0.5-1.9c-0.2-0.6-0.3-1.5-0.3-2.5
				c-0.1-1.7-0.1-3.5,0.1-5.2c0.2-1.8,0.4-3.5,0.8-5.2c0.2-1.7,0.6-3.3,1.1-4.8c0-0.2,0.1-0.3,0.3-0.3c0.3-1.1,0.7-2.1,1.1-3.1
				c0.4-1,0.8-2,1.3-3c0.5-1.2,1.2-2.3,1.9-3.3c0.8-1,1.5-2,2.3-3c0.6-0.8,1.1-1.6,1.6-2.5c0.5-0.9,1.1-1.8,1.7-2.7
				c0.6-0.9,1.2-1.6,1.9-2.3c0.7-0.7,1.6-1.2,2.5-1.5h0.1c1.3-1.2,2.6-2.2,3.8-3c1.2-0.8,2.5-1.5,3.8-2.1c1.3-0.6,2.6-1.1,4.1-1.5
				c1.4-0.4,3-0.8,4.8-1.3c3-0.8,5.7-1.4,8-1.7c0.3,0,0.6-0.1,0.9-0.1c0.9-0.1,1.7-0.2,2.5-0.3c0.8-0.1,1.6,0,2.5,0
				c1.1,0,2.2,0.1,3.3,0.2c2.6,0.2,5.2,0.8,7.8,1.8c0.7,0,1.4,0.1,2,0.2c0.6,0.1,1.3,0.3,2,0.5c0.7,0.2,1.4,0.5,2.1,0.9
				c0.7,0.4,1.5,0.9,2.3,1.6c0.1-0.2,0.3-0.4,0.5-0.6c0.2-0.2,0.4-0.4,0.6-0.6c0-0.1-0.1-0.2-0.1-0.3c0-0.2,0-0.3,0.1-0.4
				c-0.2,0-0.5,0-0.9,0.1h-0.1c-0.1,0-0.1,0-0.2,0.1c-0.2-0.1-0.3-0.2-0.3-0.3c0-0.1,0-0.2,0.2-0.3c0.2-0.1,0.3-0.1,0.5-0.1
				c0.2,0,0.3,0,0.5-0.1c0.1-0.2,0.2-0.2,0.3-0.2h1c0.2-0.5,0.5-1,0.8-1.5c0.3-0.5,0.7-0.9,1.2-1.2c0.2-0.1,0.3-0.1,0.4,0
				c0.1,0.1,0.1,0.2,0.1,0.4c-0.1,0.2-0.1,0.3-0.2,0.4c0,0.1-0.1,0.2-0.2,0.4c-0.2,0.2-0.3,0.3-0.5,0.2c-0.1,0.2-0.2,0.4-0.3,0.6
				c-0.1,0.2-0.1,0.4-0.2,0.6c0,0,0.1,0.1,0.2,0.1c0.8,0,1.6,0,2.4,0.1c0.8,0,1.6,0.1,2.4,0.2c0.2-0.3,0.4-0.4,0.6-0.5
				c0-0.4,0.1-0.8,0.1-1.1c0-0.4,0-0.8,0.1-1.2c0-0.2,0.1-0.3,0.3-0.3c0.2,0,0.3,0.1,0.3,0.3c0,0.3,0,0.5,0,0.8c0,0.2,0,0.5,0,0.8
				c0.2,0,0.3,0.2,0.3,0.5v0.5c0,0.1,0.1,0.1,0.1,0.1c0,0,0,0.1,0.1,0.1c0.4,0,0.8,0.1,1.1,0.1c0.4,0,0.8,0,1.2,0.1
				c0.2,0.1,0.3,0.2,0.3,0.3c0,0.2-0.1,0.2-0.3,0.2c-0.3,0-0.5,0.1-0.8,0.1c-0.3,0-0.5,0-0.8,0c0,0.1,0.1,0.1,0.1,0.2
				c0,0.1,0.1,0.2,0.1,0.2c0,0.2-0.1,0.3-0.4,0.3l-0.3,0.1c0,4.1-0.1,8.2-0.2,12.2c-0.1,4.1-0.1,8.1-0.2,12.2
				c0.4,0.1,0.8,0.2,1.1,0.2c0.4,0.1,0.7,0.1,1.1,0.1c-0.1-0.2,0-0.3,0.1-0.3c0.1-0.1,0.3,0,0.4,0c0.2,0.1,0.2,0.3,0.3,0.5
				c0,0.2-0.1,0.3-0.3,0.3l-0.1,0.1c-0.2,0.1-0.3,0.1-0.4,0.2c-0.1,0.1-0.3,0.1-0.4,0.2c0.2,0.1,0.2,0.2,0.2,0.3v0.2
				c-0.1,0.3-0.2,0.4-0.5,0.4H168c-0.6-0.1-1.2-0.2-1.8-0.3c0,0.5,0,1,0,1.5c0,0.5,0,1-0.1,1.5c0,0.2-0.1,0.3-0.3,0.3
				c-0.2,0-0.3-0.1-0.3-0.3c0-0.5-0.1-1-0.1-1.5c0-0.5,0-1-0.1-1.5l-0.1-0.1l-1.3-0.1c-0.6,0.1-1.3,0.1-2,0c0.3,0.4,0.5,0.8,0.8,1.2
				c0.2,0.4,0.5,0.8,0.8,1.2c0.1,0.2,0.1,0.3,0,0.4c-0.1,0.1-0.2,0.1-0.4-0.1c-0.1-0.1-0.1-0.1-0.2-0.1c0,0-0.1-0.1-0.2-0.1
				c0.1,0.2,0.2,0.4,0.5,0.7c0.1,0.2,0.1,0.3,0,0.4c-0.1,0.1-0.2,0.1-0.4-0.1c-0.5-0.5-1-1.1-1.4-1.7c-0.4-0.6-0.7-1.2-1-1.9h-0.1
				l0.1,0.1v0.3c0,0.3,0,0.5-0.1,0.6c-0.1,0.1-0.3,0.2-0.5,0.2h-0.1c-0.2-0.1-0.4-0.2-0.5-0.4c0,0-0.1-0.2-0.1-0.6
				c-0.2,0-0.3,0.1-0.3,0.2c-0.1,0-0.1,0.1-0.2,0.2v0.3c0,0.3-0.2,0.4-0.5,0.4c-0.4,0-0.6-0.2-0.6-0.5v-0.2c0-0.2,0-0.4,0.1-0.5
				c-0.2,0-0.4,0-0.6,0c-0.2,0-0.4,0-0.6-0.1c-0.2,0-0.3-0.1-0.3-0.2c-0.3,0-0.5,0-0.6,0.1h-0.2h-0.1c-0.1-0.1-0.2-0.2-0.2-0.3
				c0-0.1,0-0.2,0.2-0.3c1-0.2,2-0.5,3.1-0.7c-0.3-0.4-0.6-0.9-0.9-1.4c-0.3-0.6-0.5-1.1-0.8-1.7c-0.2-0.6-0.4-1.1-0.6-1.5
				c-0.2-0.5-0.3-0.8-0.4-1c-0.6-1.4-1.3-2.9-2-4.4c-0.7-1.5-1.5-2.8-2.4-4.1c-0.2-0.1-0.4-0.2-0.4-0.5c-0.6-0.7-1.3-1.4-2-1.9
				c-0.7-0.6-1.6-1-2.5-1.4c-0.4-0.2-1.2-0.4-2.4-0.6c-1.2-0.2-2.6-0.5-4.1-0.6c-1.5-0.2-2.9-0.3-4.3-0.3c-1.4,0-2.3,0.1-2.9,0.4
				c-0.3,0.2-0.7,0.4-0.9,0.7c-0.3,0.3-0.6,0.5-0.9,0.7c-0.6,0.3-1.1,0.6-1.7,0.9c-0.6,0.3-1.1,0.6-1.7,0.9
				c-1.7,1.4-3.1,2.7-4.4,3.9c-1.3,1.2-2.4,2.4-3.3,3.7c-0.9,1.3-1.7,2.7-2.4,4.3c-0.7,1.5-1.3,3.3-1.8,5.4
				c-0.2,0.8-0.4,1.5-0.5,2.2c-0.1,0.7-0.2,1.5-0.3,2.2l0.1,0.7c0,0.2-0.1,0.4-0.2,0.5c0,0.1-0.1,0.3-0.1,0.6v6.8
				c0.2,3.2,0.7,6.4,1.5,9.5c0.8,3.1,1.8,6,3,8.8c0.6,1.5,1.3,2.9,1.9,4.1c0.6,1.2,1.4,2.2,2.1,3.1c0.8,0.9,1.7,1.7,2.7,2.4
				c1,0.7,2.2,1.3,3.6,1.9c1.1,0.5,2.1,0.8,2.7,1.1c0.7,0.2,1.3,0.4,1.9,0.5c0.6,0.1,1.3,0.1,2.1,0.1c0.8,0,1.8-0.1,3.1-0.1
				c1-0.1,1.9-0.1,3-0.2c1,0,2-0.2,2.9-0.5c0.6-0.2,1.3-0.7,1.9-1.3c0.6-0.6,1.2-1.2,1.8-1.6c0.1,0,0.2,0,0.2-0.1
				c0-2.4,0.1-4.7,0.2-7c0.1-2.3,0.2-4.7,0.3-7c-0.2-0.2-0.2-0.3-0.2-0.5c-0.2,0-0.3-0.1-0.5-0.1c-0.2,0-0.3,0-0.4-0.1
				c-0.3-0.1-0.6-0.2-0.9-0.3c-0.3-0.2-0.6-0.3-0.9-0.5c-0.9-0.4-1.7-1-2.4-1.6c-0.7-0.7-1.5-1.3-2.4-1.9c-0.4-0.1-0.9-0.4-1.5-0.7
				c-0.2,0.3-0.4,0.5-0.7,0.6c-0.3,0.1-0.6,0-0.9-0.1c0,0.4-0.1,0.7-0.1,1.1c0,0.3-0.1,0.7-0.1,1c-0.1,0.1-0.2,0.2-0.3,0.2
				c-0.2,0-0.2-0.1-0.2-0.3c0-0.6,0-1.2,0-1.8c0-0.6,0-1.2,0-1.9h-0.2c-0.2,0-0.4-0.1-0.5-0.4c0-0.1-0.1-0.2-0.1-0.2
				c0-0.2,0.1-0.4,0.4-0.4h0.3v-0.1c-0.4-0.5-0.6-1-0.7-1.4c0-0.2,0-0.3,0.2-0.5c0.1,0,0.2-0.1,0.2-0.1c0.1,0,0.2,0,0.2-0.1v-1.2
				c-0.1-0.1-0.1-0.2-0.1-0.2c-0.1,0-0.1-0.1-0.2-0.1l-0.1-0.1c-0.4,0-0.7-0.1-1.1-0.1c-0.3,0-0.7,0-1.1,0c0,0,0.1,0,0.2,0.1
				c0.2,0.1,0.2,0.2,0.1,0.4c-0.1,0.2-0.2,0.2-0.4,0.1c-0.3-0.2-0.5-0.3-0.8-0.3c-0.3,0-0.6-0.1-0.8-0.3c-0.3-0.3-0.2-0.5,0.1-0.7
				c0.6-0.3,1.3-0.4,2.1-0.5c0.7,0,1.5,0,2.3,0.1c0-0.3,0-0.6,0.1-0.9c0-0.3,0.1-0.6,0.1-0.9v-0.1c0.1-0.2,0.2-0.3,0.4-0.3
				c0.2,0,0.4,0.1,0.4,0.3h0.1V70c0.3,0,0.4,0.2,0.5,0.4c3.5,0,7,0,10.4,0.1c3.5,0.1,6.9,0.1,10.4,0.1c1.2,0,2-0.1,2.5-0.1
				c2.9-0.2,5.5-0.2,7.7-0.2c2.8,0,5.1,0.1,7,0.4c0.4,0,0.7-0.1,1.1-0.1c0.3,0,0.6,0,0.9-0.1c0.1-0.5,0.2-1,0.3-1.4
				C179.9,68.7,180,68.2,180.1,67.8z M95.8,72.3c-1.3-1.7-2.5-3.1-3.4-4c-0.1,0.5-0.1,1.1-0.1,1.7c0,0.6,0,1.1,0,1.7l0.1,0.6
				c0.8,0.6,2.1,2,3.8,4.3c1.4,1.8,2.7,3.3,3.9,4.4c0.4,0.3,1.3,1.2,2.8,2.5c1.1,1,2.1,1.8,2.7,2.5c0.7,0.6,1.5,1.5,2.5,2.6
				c1.3,1.5,2.1,2.4,2.3,2.7c1.4,1.6,5,5,10.7,10.4c2.1,1.9,3.8,3.6,5.1,5c1.9,2.1,3.3,3.5,3.9,4.4c1,0.1,2,0.1,3,0.1
				c-0.6-0.8-1.8-2.3-3.5-4.4c-1-1.2-2.8-3.1-5.7-5.6c-1-1-5.1-5.2-12.1-12.7c-2.9-3.2-5-5.3-6.2-6.4l-6.1-5.3
				C98.7,75.9,97.5,74.4,95.8,72.3z M139.1,111.1c-4.5-4.8-7.4-7.6-8.6-8.5c0,0-0.1-0.1-0.1-0.2l-2.2-1c-1-0.4-1.9-0.8-2.7-1.3
				c-0.8-0.4-1.5-0.9-2.2-1.5c-0.7-0.6-1.3-1.2-1.9-1.9c-0.6-0.7-1.2-1.6-1.8-2.5c-0.9-1.5-1.8-3.1-2.6-4.9c-0.3-0.5-0.5-1-0.7-1.5
				h-0.1c-0.1,0-0.1,0-0.2-0.1c-2-2.6-4.9-5.8-8.5-9.6c-3.4-3.6-6.3-6.5-8.6-8.5c-1.7-1.4-3.6-3.1-5.9-5.1c-0.1,0.5-0.2,1.1-0.3,1.6
				c-0.1,0.5-0.1,1.1-0.2,1.6c1,0.9,2.3,2.4,3.8,4.3c1.7,2.2,3,3.8,4,4.7c0.8,0.6,1.8,1.6,3.3,2.8c1.5,1.3,2.5,2.2,3.2,2.8
				c0.6,0.6,2.6,2.6,5.9,6.1c7,7.5,11,11.7,12.1,12.6c2.6,2.4,4.5,4.3,5.5,5.6c1.7,2.2,2.9,3.7,3.5,4.5h2.6
				C137.4,111.2,138.2,111.2,139.1,111.1z M95.9,76.7c-1.3-1.7-2.5-3-3.4-3.8c0.2,1.3,0.4,2.8,0.7,4.5v0.2c0.1,0.4,0.2,0.7,0.4,1.1
				c0.2,0.3,0.3,0.7,0.4,1c1.3,1,3.4,2.8,6.2,5.4c3.5,3.3,6.1,6,7.8,7.9c3,3.4,8.7,9.2,17.1,17.6c1.4,0.2,2.9,0.3,4.4,0.5
				c-0.9-1.1-2.5-2.8-4.6-5c-1.7-1.6-3.4-3.3-5.2-5c-5-4.6-8.4-8-10.3-10.2c-2.4-2.7-4-4.5-4.8-5.3c-0.4-0.4-1.3-1.2-2.6-2.3
				c-1.1-0.9-1.9-1.7-2.6-2.3C98.6,80.1,97.4,78.7,95.9,76.7z M98.5,64.6c-1.9-1.6-3.4-3-4.6-4.2c-0.3,1.2-0.6,2.4-0.9,3.7
				c0.2,0.1,0.4,0.2,0.6,0.4c1.2,0.9,1.7,1.4,1.7,1.3c2.1,1.7,4.5,3.9,7.4,6.6c1.1,1,3.5,3.6,7.2,7.6c2.5,2.6,4.5,4.9,6,7v-0.1
				c-0.4-0.9-0.7-1.8-1-2.7c-0.3-0.9-0.6-1.8-0.8-2.8l-0.1-0.1c-1.5-1.2-3.1-3-5-5.5c-2.4-3.1-4-5.1-4.7-5.9
				C103.1,68.7,101.2,66.9,98.5,64.6z M109.3,75.5c1.7,2.2,3.2,3.9,4.5,5.1c-0.2-0.6-0.3-1.2-0.5-1.8c-0.1-0.6-0.2-1.2-0.3-1.8
				c-0.7-0.8-2.2-2.8-4.5-5.9c-1.8-2.5-3.4-4.4-4.9-5.7c-4.5-4.3-7.4-7-8.7-8.1c-0.2,0.4-0.3,0.9-0.5,1.3c-0.2,0.5-0.3,0.9-0.5,1.3
				c6.2,5.6,9.8,8.8,10.6,9.8C105.4,70.4,106.9,72.4,109.3,75.5z M100.2,85.7c-2.6-2.4-4.5-4.1-5.9-5.3c0.2,0.6,0.3,1.2,0.3,1.8
				c0,0.6,0.1,1.3,0.3,1.8c0,0.2,0.1,0.4,0.3,0.7c1.5,1.3,5.2,5.3,11.1,11.8c0.9,1,2.9,3.1,6.2,6.3c2.3,2.3,4.1,4.3,5.4,5.9
				c0.5,0.2,0.9,0.4,1.4,0.5c0.5,0.1,1,0.3,1.5,0.5c1.1,0.2,2.3,0.4,3.5,0.6C116.4,102.6,111,97,108,93.6
				C105.9,91.3,103.3,88.7,100.2,85.7z M109,70.9c1.7,2.4,3,4,3.8,5c-0.1-0.6-0.2-1.3-0.3-2c-0.1-0.7-0.2-1.4-0.2-2
				c-4.1-5.7-6.9-9.1-8.3-10.3c-3.8-3-6.5-5.3-7.9-6.9c-0.2,0.4-0.4,0.8-0.5,1.1c-0.1,0.4-0.3,0.7-0.4,1.1c1.1,1.1,2.5,2.4,4.2,3.9
				c2.4,2.1,4.1,3.6,5,4.5C105.6,66.6,107.2,68.5,109,70.9z M105.5,96.6c-4.7-5.4-8-9-9.9-10.8c0.1,0.2,0.1,0.4,0.2,0.5
				c0.1,0.2,0.1,0.3,0.2,0.5c0.3,0.7,0.5,1.4,0.6,2.2c0.2,0.7,0.3,1.4,0.5,2.1c2.7,3.3,7.3,8.2,13.8,14.4c0.2,0.2,0.4,0.3,0.6,0.4
				c0.2,0.1,0.3,0.2,0.5,0.3c0.8,0.4,1.5,0.8,2.3,1.2c0.8,0.4,1.6,0.7,2.4,1.1c-1.3-1.5-3-3.3-5-5.4
				C108.7,100,106.6,97.9,105.5,96.6z M112,65.6c-5-4.7-9.7-9.5-14.3-14.4c-0.3,0.5-0.5,0.9-0.8,1.4c-0.2,0.5-0.5,1-0.7,1.5
				c1.3,1.3,4.2,3.8,8.7,7.6c1.1,1,3.5,4.1,7.3,9.1C112,69.2,112,67.4,112,65.6z M98.8,94.9c0.6,0.9,1.2,1.8,1.8,2.6
				c1.1,1.2,2.5,2.4,4,3.6c1.5,1.2,2.9,2.2,4.3,3.1l-4.5-4.3c-3-2.9-5.2-5.4-6.7-7.3c0.1,0.2,0.2,0.4,0.3,0.6
				c0.1,0.2,0.2,0.4,0.3,0.6c0,0.1,0,0.1,0,0.2c0,0,0,0.1,0,0.2C98.4,94.3,98.6,94.6,98.8,94.9z M105.5,58.3
				c2.3,2.4,4.5,4.6,6.5,6.6l0.2-2.9c-5.9-5.6-10.1-10.1-12.6-13.8c-0.3,0.4-0.6,0.8-0.8,1.3c-0.2,0.4-0.5,0.9-0.8,1.3l3.5,3.5
				C101.5,54.3,102.9,55.7,105.5,58.3z M101.3,45.9c-0.1,0.2-0.2,0.4-0.3,0.5c-0.1,0.1-0.2,0.3-0.3,0.4c-0.2,0.2-0.3,0.4-0.4,0.5
				c-0.1,0.2-0.3,0.4-0.4,0.5c3,4.1,7.2,8.6,12.4,13.5c0.1-0.5,0.2-1.1,0.2-1.6c0.1-0.5,0.2-1,0.2-1.6c-1-1-2.2-2.3-3.7-4
				c-2.1-2.4-3.4-3.8-3.9-4.4c-1.2-1.3-2.2-2.3-2.8-3L101.3,45.9z M105,44.7c-0.8-0.9-1.4-1.6-1.8-2.1c-0.3,0.5-0.6,1-0.8,1.5
				c-0.2,0.5-0.5,1-0.8,1.4c0.2,0.1,0.4,0.3,0.6,0.5c0,0,0.9,1,2.9,3.1c1.1,1.1,2.5,2.6,4.2,4.5c1.6,1.9,2.8,3.2,3.5,4
				c0.1-0.4,0.2-0.8,0.3-1.3c0.1-0.4,0.2-0.8,0.3-1.3c-1.1-2.1-3-4.5-5.5-7.3c-0.2-0.3-0.7-0.8-1.4-1.5
				C105.8,45.7,105.3,45.1,105,44.7z M108.8,48.2c2.2,2.5,3.8,4.5,4.7,6.2c0.2-0.7,0.4-1.4,0.6-2.1c0.2-0.7,0.5-1.4,0.7-2.1
				c-1.1-1.2-2.8-3-4.9-5.3c-2.1-2.2-3.7-3.9-4.9-5.1c-0.3,0.3-0.7,0.7-0.9,1.1c-0.3,0.4-0.6,0.9-0.9,1.3c0.4,0.5,1.3,1.3,2.6,2.6
				c0.2,0.2,0.6,0.7,1.4,1.6C108,47.2,108.4,47.8,108.8,48.2z M107.7,38.5c-0.3,0.2-0.7,0.2-1,0.2c-0.2,0.1-0.4,0.2-0.6,0.4
				c-0.2,0.1-0.4,0.3-0.5,0.4c0,0,0.1,0.1,0.1,0.2c3,3,6.2,6.4,9.5,10.2c0.2-0.4,0.4-0.8,0.6-1.3c0.2-0.4,0.4-0.9,0.6-1.3
				c0.1-0.2,0.1-0.3,0.2-0.4c-1.2-1.1-2.7-2.6-4.5-4.3c-1.6-1.7-2.9-3.1-3.9-4.4L107.7,38.5z M114.4,39.2c-1.8-1.4-3-2.6-3.8-3.3
				c-0.4,0.3-0.8,0.6-1.1,1c-0.4,0.3-0.7,0.7-1.1,1c1.5,1.8,4.3,4.6,8.3,8.6c0.6-0.9,1.3-1.8,2.1-2.6C118,42.5,116.5,41,114.4,39.2z
				 M116.4,38.2c-1.7-1.8-2.8-3.2-3.3-4.2c-0.4,0.2-0.8,0.5-1.2,0.8c-0.4,0.3-0.7,0.6-1.1,0.9c1.3,1.1,2.8,2.3,4.5,3.8
				c1.8,1.5,3.1,2.9,3.9,4.1l1.1-1.1C119.1,41,117.7,39.7,116.4,38.2z M119,36.1c-1.4-1.4-2.5-2.6-3.1-3.4c-0.6,0.2-1.2,0.5-1.7,0.7
				c-0.1,0.1-0.2,0.1-0.3,0.1c-0.1,0-0.2,0.1-0.3,0.1c0.3,0.5,0.8,1.1,1.5,2c0.8,1,1.4,1.8,2,2.5c1.3,1.3,2.5,2.6,3.8,3.7
				c0.3-0.3,0.6-0.5,0.8-0.8c0.2-0.2,0.5-0.5,0.7-0.7l0.7-0.7C121.8,38.9,120.5,37.7,119,36.1z M121,33.2c-0.6-0.8-1.1-1.3-1.3-1.7
				c-0.6,0.2-1.1,0.4-1.7,0.5c-0.6,0.2-1.1,0.4-1.6,0.5c0.3,0.3,0.7,0.7,1.1,1.1c1,1.1,1.6,1.8,1.9,2.1c1.4,1.5,2.8,2.8,4,3.7
				c0.4-0.3,0.7-0.7,1.1-0.9c0.3-0.3,0.7-0.5,1.1-0.8C123.8,36.3,122.3,34.7,121,33.2z M124.9,33.2c-1.1-1.1-1.8-1.9-2.3-2.6
				c-0.4,0.1-0.8,0.2-1.3,0.3c-0.4,0.1-0.8,0.2-1.3,0.4h0.1c0.1,0.1,0.2,0.2,0.2,0.3c0.1,0.1,0.2,0.2,0.2,0.3
				c0.7,0.9,1.2,1.4,1.4,1.7c0.9,1.1,2.2,2.4,4,3.9c0.2-0.1,0.4-0.2,0.6-0.4c0.2-0.1,0.5-0.3,0.7-0.4c0.2-0.2,0.3-0.3,0.5-0.4
				C127.3,35.8,126.3,34.7,124.9,33.2z M126.5,29.7c-0.6,0.1-1.1,0.2-1.7,0.4c-0.6,0.1-1.1,0.3-1.7,0.4c0.6,0.8,1.6,1.8,2.9,3.1
				c1.1,1.1,1.9,1.9,2.4,2.5l0.3-0.2l1.5-0.8c0.1-0.1,0.2-0.2,0.3-0.2c-0.5-0.5-1.3-1.5-2.3-2.9L126.5,29.7z M131.5,30.5
				c-0.5-0.6-0.9-1.1-1.3-1.5c-0.5,0.1-1.1,0.2-1.7,0.3c-0.6,0.1-1.1,0.2-1.7,0.3c0.4,0.5,0.9,1.1,1.5,1.8c0.3,0.3,0.7,0.9,1.4,1.7
				c0.4,0.5,0.8,1,1.1,1.4l0.5-0.3c0.4-0.2,0.9-0.4,1.4-0.5c0.5-0.1,1-0.2,1.5-0.2C133.3,32.6,132.3,31.6,131.5,30.5z M135.8,30.7
				c-0.8-0.8-1.3-1.5-1.5-2.1c-0.5,0-1.1,0.1-1.7,0.1c-0.6,0.1-1.2,0.1-1.8,0.2c0.4,0.5,0.8,1,1,1.3c0.9,1.1,1.9,2.1,3.1,3.1
				c0,0,0.1,0.1,0.1,0.2h0.3c0.7-0.1,1.5-0.2,2.3-0.2c0.3,0,0.6,0,0.9,0.1C137.8,32.9,136.9,32,135.8,30.7z M144.6,107.6
				c-1.6-1.7-2.8-3.1-3.7-3.9c-0.6,0-1.3,0.1-2.1,0.1h-0.5c-1.1,0-2.1-0.1-3.1-0.2c-0.5,0-0.9,0-1.3-0.1c-0.4,0-0.9-0.1-1.3-0.2
				c-0.4-0.1-0.7-0.2-0.9-0.2c0.8,0.6,1.9,1.6,3.2,2.9c0,0,1.5,1.6,4.5,4.9c0,0,0.1,0.1,0.1,0.2c0,0,0,0.1-0.1,0.2
				c1.4,0,2.7-0.1,3.8-0.2c0.3,0,0.5-0.1,0.7-0.1c-3.1-3.2-5.4-5.4-7-6.6c0,0-0.1-0.1-0.1-0.1c0,0,0-0.1,0.1-0.1
				c0,0,0.1-0.1,0.1-0.1h0.1c1.7,1.1,4.2,3.4,7.4,6.9c1-0.1,1.9-0.2,2.8-0.3C146.6,109.8,145.7,108.9,144.6,107.6z M142.6,34
				c0.1,0,0.2,0.1,0.3,0.1c0.3,0,0.5,0.1,0.7,0.1c0.2,0,0.5,0.1,0.7,0.1c-0.5-0.5-1-1-1.6-1.8c-1-1.1-1.6-1.8-1.8-1.9l-1.4-1.4
				c-0.3-0.1-0.6-0.2-0.9-0.3c-0.3-0.1-0.6-0.1-0.9-0.2c-0.4,0-0.9-0.1-1.3-0.1c-0.5,0-0.9,0-1.4,0c0.1,0.2,0.2,0.4,0.4,0.6
				c0.4,0.6,0.8,1.1,1,1.4c0.3,0.3,0.7,0.7,1.3,1.3c0.6,0.6,1.1,1,1.4,1.4c0,0,0.1,0.1,0.1,0.1l-0.1,0.1
				C140.2,33.5,141.3,33.7,142.6,34z M151,81.1c0.1,0.1,0.2,0.2,0.3,0.3c0.1,0.1,0.2,0.2,0.3,0.4c0.4,0.3,0.7,0.5,1.1,0.8
				c0.3,0.3,0.6,0.6,0.8,0.9c0.2,0.1,0.2,0.2,0.1,0.3l-0.1,0.1c-0.1,0.2-0.2,0.3-0.4,0.2c-0.1,0-0.2-0.2-0.2-0.3
				c-0.1,0-0.2-0.1-0.2-0.1c-0.1,0-0.2-0.1-0.3-0.2c0.8,0.8,1.7,1.7,2.7,2.7c2.4,2.2,3.9,3.7,4.6,4.5c0.5,0.5,2.2,2.2,5.1,5
				c1.4,1.4,2.6,2.7,3.6,3.8c0-0.7,0-1.4,0-2.1c0-0.7,0-1.4,0.1-2.1c-0.2-0.2-0.3-0.5-0.4-0.7c-1.6-1.2-3.4-3.1-5.5-5.6
				c-2.7-3.2-4.6-5.3-5.8-6.3c-0.7-0.6-1.8-1.4-3.2-2.5l-3.3-2.6c-2.2-1.8-3.7-3.3-4.5-4.6c-1,0-2-0.1-2.9-0.1c-1,0-1.9,0-2.9,0
				c0,0.4,0.1,0.8,0.1,1.2c0,0.4,0,0.8,0.1,1.2c1.3,0.5,2.5,1.3,3.6,2.2c1.1,1,2.3,1.8,3.5,2.5c0.1,0,0.1,0,0.2,0c0,0,0.1,0,0.2,0
				c-0.6-0.6-1.5-1.5-2.5-2.7c-0.3-0.3-1-1.1-2.3-2.4c-0.6-0.6-0.9-0.9-1-1.1c0,0.1-0.1,0.1-0.2,0.1h-0.1c-0.3-0.1-0.5-0.3-0.5-0.6
				c0-0.2,0.1-0.3,0.3-0.3c0.1,0,0.2,0,0.3,0.1c0.1,0,0.1,0,0.1,0.1c0,0.1,0,0.1-0.1,0.1l-0.1,0.1c0,0,0,0.1,0.1,0.1
				c0-0.1,0.1-0.1,0.2-0.1c0.2,0.1,0.6,0.4,1,0.9c0,0,0.8,0.9,2.3,2.5c1.7,1.8,2.9,3.1,3.7,3.8c0.2,0.1,0.4,0.1,0.6,0.2
				c0.2,0.1,0.4,0.1,0.6,0.2l0.2-1.4c0-0.2,0.1-0.3,0.3-0.3c0.2,0,0.3,0.1,0.3,0.3V81.1z M154.5,38.9c-2.4-2.2-4.4-4.1-6.1-5.6
				l0.6,0.3c3.5,2.9,5.7,4.7,6.5,5.4c1.6,1.5,3.3,3.6,5.3,6.2c1.8,2.3,3,4,3.8,5.1c0-0.8,0.1-1.5,0.1-2.3c0-0.8,0-1.6,0.1-2.3
				c-6.7-7.5-11.2-12.4-13.2-14.5c-0.9-0.3-1.8-0.4-2.7-0.5c-0.9-0.1-2.1-0.2-3.4-0.3l0.5,0.5c-0.2-0.2-0.4-0.3-0.5-0.5
				c-0.4,0-0.8-0.1-1.2-0.1c-0.4,0-0.8-0.1-1.3-0.2c-0.3,0-0.7-0.1-1-0.2c-0.3-0.1-0.6-0.2-0.9-0.3l0.9,0.9c1.8,1.8,2.9,3.1,3.3,3.7
				c0,0,0.1,0.1,0.1,0.1s0,0.1-0.1,0.1c0.8,0.2,1.6,0.5,2.4,0.9c1.2,0.6,2.3,1.3,3.1,1.9h0.1c0.3,0,0.5,0.2,0.5,0.5
				c1.1,1,2,2,2.8,3.2c0.8,1.2,1.5,2.6,2.3,4.3c0,0.1,0.1,0.2,0.1,0.3c0,0.1,0.1,0.2,0.1,0.3c0.1,0,0.2,0,0.3,0.1l0.1,0.1l-0.1,0.1
				c0.3,0.3,0.5,0.5,0.7,0.6c1,1,1.6,1.5,1.7,1.5c0.5,0.5,1.5,1.5,3.3,3.2c0.8,0.8,1.5,1.6,2.2,2.2V51c-0.7-1-2.1-2.9-4.2-5.6
				C157.9,42.4,156,40.2,154.5,38.9z M148.7,107c-2.2-2-3.7-3.3-4.5-4c-0.9,0.3-1.8,0.5-2.9,0.6c0.9,0.7,2,1.8,3.3,3.3
				c0.2,0.3,1.3,1.4,3.3,3.4c0.3,0,0.6-0.1,0.9-0.2c0.3-0.1,0.5-0.2,0.8-0.2c0.3-0.1,0.6-0.2,0.9-0.2c0.2-0.1,0.4-0.2,0.8-0.2
				l-0.5-0.5C150,108.2,149.3,107.5,148.7,107z M151.3,104.9c-1.6-1.5-2.8-2.7-3.6-3.6c-0.2,0.1-0.3,0.2-0.5,0.3
				c-0.3,0.3-0.7,0.6-1.2,0.7c-0.2,0.1-0.2,0.1-0.3,0.1c-0.3,0.2-0.7,0.3-1,0.4c1.4,1.1,3,2.5,5,4.3c0.9,0.8,1.7,1.5,2.3,2.1
				c0.5-0.1,1-0.2,1.5-0.3c0.5-0.1,1-0.2,1.5-0.3C154.1,107.7,152.9,106.4,151.3,104.9z M160.9,82.3c-3.3-3-6.2-6.1-8.9-9.4
				c-0.9,0-1.8-0.1-2.7-0.1c-0.9,0-1.8,0-2.7,0c1.2,1.1,4.9,4.3,10.9,9.6c1.3,1.1,3.2,3.1,5.8,6c2.1,2.5,3.9,4.3,5.4,5.6
				c0-0.6,0.1-1.2,0.1-1.8c0-0.6,0-1.2,0.1-1.8c-0.9-0.8-2.1-2-3.6-3.8C164,85.3,162.6,83.9,160.9,82.3z M149.9,99.6
				c0,0,0-0.1,0.1-0.1v-0.2c-0.2,0.1-0.4,0.2-0.5,0.3c-0.2,0.1-0.3,0.2-0.5,0.4c-0.3,0.3-0.6,0.6-1,0.9c3.1,2.9,5.6,5.4,7.4,7.6
				c0.3-0.1,0.7-0.2,1-0.3c0.3-0.1,0.6-0.2,0.9-0.4c0.3-0.2,0.5-0.3,0.6-0.3c-0.3-0.2-0.8-0.6-1.3-1c-0.7-0.6-1.6-1.4-2.6-2.4
				c-1.8-1.8-3-3-3.7-3.7h-0.2l-0.2-0.1c-0.2-0.2-0.3-0.3-0.1-0.5V99.6z M148.4,33.3c-0.1,0-0.1-0.1-0.2-0.2L148.4,33.3z M155.8,100
				c-2-1.6-3.5-3.1-4.6-4.4V98c0,0.2-0.1,0.4-0.1,0.5c0,0.2-0.1,0.3-0.2,0.3c0,0.2-0.1,0.4-0.1,0.6c0,0.2-0.1,0.4-0.1,0.6
				c0.5,0.4,1.7,1.6,3.6,3.5c0.3,0.3,1.8,1.6,4.2,3.7c0.5-0.3,0.9-0.6,1.3-1c0.4-0.3,0.8-0.7,1.2-1C159.9,103.8,158.2,102,155.8,100
				z M153.9,94.1c-1.1-1.2-1.9-2.1-2.6-2.8c0,0.6-0.1,1.3-0.1,1.9c0,0.6,0,1.2,0,1.9c1.2,1.4,3.2,3.3,5.9,5.5
				c2.1,1.7,3.5,3.1,4.3,4.3c0.3-0.3,0.6-0.5,0.9-0.7c0.3-0.2,0.6-0.5,0.9-0.7c-1.1-1.1-2.9-2.9-5.4-5.3
				C156.7,97.1,155.4,95.8,153.9,94.1z M158.6,95c-3.3-3.5-5.7-6-7.1-7.4c0,0.5,0,1,0,1.5c0,0.5,0,1-0.1,1.5c0.9,0.9,1.9,2,3.2,3.3
				c1.8,2,3.2,3.4,4.1,4.3c2.6,2.3,3.9,3.4,3.9,3.4c0.5,0.5,0.9,0.9,1.2,1.3c0,0,0.1,0,0.1-0.1c0.3-0.2,0.6-0.4,0.9-0.5
				c0.3-0.2,0.6-0.3,0.9-0.5c-0.8-0.8-1.7-1.6-2.7-2.6C160.8,97.2,159.3,95.8,158.6,95z M154,85.8c-1-0.9-1.8-1.7-2.5-2.5
				c0,0.6,0,1.2,0,1.7c0,0.6,0,1.2,0,1.7c1,0.9,2.1,2,3.3,3.3c2.5,2.8,4,4.4,4.4,4.9c0.3,0.3,1.8,1.7,4.3,4c1,1,1.8,1.8,2.6,2.6
				c0.7-0.4,1.3-0.8,1.7-1.3l0.3-0.2c-1.6-1.7-4.7-5-9.4-9.8c-0.6-0.6-1.4-1.4-2.4-2.3C155.2,86.9,154.4,86.2,154,85.8z M156.3,33.9
				c-0.1,0-0.1-0.1-0.2-0.1l-0.1-0.1c-1-0.7-1.8-1.3-2.6-1.7l-1.2-0.6c2.3,2.3,6.4,6.8,12.3,13.5v-0.2c0,0-0.1-0.1-0.1-0.3
				c0-0.1,0-0.2,0.1-0.3c0-0.6,0-1.2,0-1.8c0-0.6,0-1.2,0-1.8c-0.6-0.6-1.6-1.4-2.9-2.6c-1.5-1.3-2.6-2.4-3.4-3.3
				c-0.1-0.1-0.2-0.2-0.2-0.3c-0.3,0.2-0.6,0.3-0.9,0.3c-0.3,0-0.6-0.2-0.7-0.5C156.4,34.1,156.3,34,156.3,33.9z M162.3,79
				c-0.6-0.4-2.5-2.4-5.9-6.1h-0.8c-0.5,0-1,0-1.5,0c-0.5,0-1,0-1.5,0c4.7,5.1,7.6,8.1,8.7,9c1,0.9,2.4,2.3,4.2,4.3
				c1.4,1.4,2.5,2.6,3.3,3.5c0-0.8,0.1-1.5,0.1-2.3c0-0.8,0.1-1.6,0.1-2.3C167.8,83.8,165.6,81.8,162.3,79z M156.8,46.6
				c0.4,0.9,0.8,1.8,1.2,2.7c0.4,0.9,0.8,1.8,1.2,2.7l0.1-0.1c0,0.1,0,0.2,0.1,0.3c0.3,0.5,0.6,1,0.9,1.5c0.1,0.1,0.2,0.2,0.4,0.3
				l0.2,0.3c0.6,0,1.2,0.1,1.9,0.1c0.7,0,1.2,0,1.7-0.1v-0.2c-1.1-1.1-3-3.1-5.9-5.9L156.8,46.6z M168.9,81.8
				c-0.2,0.1-0.3,0.1-0.4,0c-0.1-0.1-0.1-0.2,0-0.4c0.1-0.1,0.1-0.1,0.2-0.2c0-0.1,0.1-0.1,0.2-0.2c-0.1-0.1-0.2-0.1-0.3-0.2
				c0,0-0.1,0.1-0.2,0.1c-0.2,0-0.5,0.1-0.7,0.1c-0.2,0-0.5,0.1-0.7,0.1c-0.1,0-0.2,0-0.3,0c-0.1,0-0.2,0-0.3,0
				c-0.2,0-0.3-0.1-0.4-0.3c-0.1-0.2,0-0.3,0.1-0.5v-0.1h0.1l0.1-0.1c0,0,0.1,0,0.1,0c0,0,0.1,0,0.2,0c0.4-0.1,0.8-0.2,1.1-0.3
				c-1.2-1.1-2.6-2.5-4.1-4.1c-1.3-1.4-2-2.2-1.9-2.1c-0.2-0.3-0.4-0.5-0.6-0.7h-3.9c0.6,0.6,1.3,1.4,2.1,2.2
				c1.6,1.8,2.9,3.1,3.8,3.8c2.7,2.2,4.7,4,5.9,5.3c0-0.4,0.1-0.8,0.1-1.3C169,82.6,169,82.2,168.9,81.8L168.9,81.8z M161.7,34.3
				c-0.7-0.8-1.4-1.7-2.1-2.6c-0.3,0.3-0.5,0.7-0.7,1.1c-0.2,0.4-0.3,0.7-0.4,0.9l-0.1,0.2c0.1,0.1,0.2,0.2,0.3,0.3
				c0.9,1,1.4,1.6,1.6,1.8c2,1.9,3.4,3.2,4.3,3.9c0-0.5,0.1-1.1,0.1-1.6c0-0.5,0-1,0.1-1.6C163.9,36.5,162.9,35.6,161.7,34.3z
				 M163.6,35.3c0.5,0.4,0.8,0.7,1.1,1v-3.1c-0.2-0.2-0.6-0.6-1.1-1.2c-0.3-0.3-0.6-0.6-1-0.9c-0.4,0-0.8-0.1-1.1-0.1
				c-0.4,0-0.7-0.1-1.1-0.1c-0.2,0.1-0.3,0.3-0.5,0.5c0.2,0.2,0.5,0.5,0.8,0.9c0.6,0.8,1.1,1.4,1.4,1.7
				C162.5,34.3,163,34.8,163.6,35.3z M169.1,79c0.1-0.5,0.4-0.9,1-1h0.1c-0.6-0.6-1.4-1.5-2.3-2.5c-1-1-1.9-1.8-2.6-2.5h-3.4
				c0.2,0.2,0.4,0.3,0.6,0.6c0.8,0.9,1.6,1.8,2.5,2.8c0.6,0.5,1.4,1.3,2.5,2.3c0.4,0.4,0.7,0.7,1,1c0.1-0.1,0.2-0.1,0.4-0.2
				c0.1,0,0.3-0.1,0.4-0.2V79z M164,31.7c0.3,0.3,0.6,0.6,0.7,0.9c0-0.2,0-0.5,0-0.7c0-0.2,0-0.5,0-0.7h-1.4L164,31.7z M170.2,76.7
				c0-0.2,0.1-0.3,0.2-0.3c0.2,0,0.3,0.1,0.3,0.3c0,0.2,0,0.4,0,0.7c0,0.2,0,0.4,0,0.6c0.1,0.1,0.2,0.1,0.2,0.2
				c0.4-0.2,0.8-0.4,1.1-0.5c0.4-0.2,0.8-0.3,1.2-0.4l-3.8-3.9c-0.1,0-0.1,0-0.2,0c0,0-0.1,0-0.1,0c-1.2-0.1-2.4-0.2-3.5-0.2
				l4.5,4.3c0-0.1,0-0.2,0-0.3C170.2,76.9,170.2,76.8,170.2,76.7z M167.5,55.9c-0.2,0-0.3,0-0.4,0c-0.1,0-0.2,0-0.4,0v0.1
				C166.9,56,167.2,56,167.5,55.9z M173.7,73.5c-0.6,0-1.3-0.1-1.9-0.1c-0.6,0-1.1-0.1-1.5-0.1l3.6,3.7c0.2,0,0.4-0.1,0.8-0.1
				c0.2-0.2,0.4-0.3,0.7-0.5c0.2-0.2,0.4-0.3,0.6-0.5C175.2,75.4,174.5,74.6,173.7,73.5z M175.5,74.7c0.3,0.4,0.6,0.7,0.8,1
				c0.3-0.2,0.6-0.4,0.9-0.5c0.3-0.2,0.6-0.3,0.9-0.4c-0.1-0.5-0.2-0.9-0.2-1.4c-0.5,0.1-1.1,0.2-1.7,0.2c-0.6,0-1.3,0-1.9,0
				C174.6,73.8,174.9,74.2,175.5,74.7z"/>
		</g>
		<g>
			<g>
				<rect y="221" class="st0" width="274" height="2.5"/>
			</g>
			<g>
				<rect y="257.1" class="st0" width="274" height="2.5"/>
			</g>
			<g>
				<path class="st0" d="M30,207.6c-1.9,1.1-3.9,1.8-6,2.3c-2.1,0.5-4.2,0.7-6.3,0.7c-2.6,0-4.9-0.4-7-1.3c-2.1-0.8-4-2-5.5-3.5
					c-1.6-1.5-2.8-3.3-3.6-5.4c-0.9-2.1-1.3-4.5-1.3-7c0-2.6,0.5-5,1.4-7.1c0.9-2.1,2.2-3.9,3.8-5.4c1.6-1.5,3.5-2.7,5.6-3.5
					c2.1-0.8,4.4-1.3,6.9-1.3c2.2,0,4.2,0.3,6.2,1c2,0.6,3.8,1.8,5.4,3.3l-2.9,3.1c-1.1-1.2-2.5-2.1-4.1-2.8c-1.6-0.6-3.2-1-4.9-1
					c-1.9,0-3.6,0.3-5.2,1c-1.6,0.7-3,1.6-4.2,2.8c-1.2,1.2-2.1,2.6-2.8,4.3c-0.7,1.7-1,3.5-1,5.5c0,1.9,0.3,3.8,1,5.4
					c0.7,1.7,1.6,3.1,2.8,4.3c1.2,1.2,2.6,2.2,4.3,2.8c1.7,0.7,3.5,1,5.5,1c1.3,0,2.7-0.2,4.2-0.5c1.5-0.3,2.8-0.8,4-1.4v-10.1h-7.6
					v-3.6H30V207.6z"/>
				<path class="st0" d="M39.1,177h8.4c1.6,0,3.1,0.1,4.7,0.3c1.6,0.2,3,0.6,4.2,1.2c1.2,0.6,2.2,1.5,3,2.7c0.8,1.2,1.2,2.8,1.2,4.8
					c0,2.4-0.7,4.4-2.2,5.8c-1.5,1.5-3.5,2.4-6,2.8l9.3,15.1h-4.8L48,195.1h-5v14.7h-3.9V177z M43,191.5h3.5c1.1,0,2.2,0,3.4-0.1
					c1.2-0.1,2.2-0.3,3.2-0.6c1-0.3,1.8-0.9,2.4-1.6c0.6-0.7,1-1.8,1-3.1c0-1.2-0.2-2.1-0.7-2.8c-0.5-0.7-1.1-1.3-1.8-1.6
					c-0.8-0.4-1.6-0.6-2.5-0.8c-0.9-0.1-1.9-0.2-2.8-0.2H43V191.5z"/>
				<path class="st0" d="M79,177h3.7l13.9,32.8h-4.5l-3.3-8.1H72.3l-3.4,8.1h-4.4L79,177z M80.8,182L80.8,182l-6.9,16.1h13.4
					L80.8,182z"/>
				<path class="st0" d="M124.9,183.8c-1-1.3-2.2-2.3-3.7-3c-1.5-0.7-3-1-4.5-1c-1.8,0-3.5,0.4-5,1.1c-1.5,0.7-2.9,1.7-4,3
					c-1.1,1.3-2,2.7-2.6,4.4c-0.6,1.7-0.9,3.4-0.9,5.2c0,1.9,0.3,3.7,0.9,5.4c0.6,1.7,1.5,3.1,2.6,4.3c1.1,1.2,2.4,2.2,3.9,2.9
					c1.5,0.7,3.2,1.1,5.1,1.1c2,0,3.8-0.4,5.4-1.2c1.6-0.8,3-1.9,4.1-3.4l2.9,2.5c-1.5,2-3.3,3.4-5.4,4.4c-2.1,0.9-4.4,1.4-7.1,1.4
					c-2.3,0-4.5-0.4-6.6-1.3s-3.8-2.1-5.3-3.6c-1.5-1.5-2.7-3.3-3.5-5.4c-0.9-2.1-1.3-4.4-1.3-6.9c0-2.4,0.4-4.7,1.2-6.8
					c0.8-2.1,2-3.9,3.5-5.5c1.5-1.5,3.2-2.8,5.3-3.7s4.3-1.3,6.7-1.3c2.2,0,4.4,0.4,6.4,1.2c2.1,0.8,3.8,2.1,5.2,3.9L124.9,183.8z"
					/>
				<path class="st0" d="M135.4,177h20.6v3.6h-16.7v10.3H155v3.6h-15.6v11.7h17.6v3.6h-21.5V177z"/>
				<path class="st0" d="M200.7,183.8c-1-1.3-2.2-2.3-3.7-3c-1.5-0.7-3-1-4.5-1c-1.8,0-3.5,0.4-5,1.1c-1.5,0.7-2.8,1.7-4,3
					c-1.1,1.3-2,2.7-2.6,4.4c-0.6,1.7-0.9,3.4-0.9,5.2c0,1.9,0.3,3.7,0.9,5.4c0.6,1.7,1.5,3.1,2.6,4.3c1.1,1.2,2.4,2.2,3.9,2.9
					c1.5,0.7,3.2,1.1,5.1,1.1c2,0,3.8-0.4,5.4-1.2c1.6-0.8,2.9-1.9,4.1-3.4l2.9,2.5c-1.5,2-3.3,3.4-5.4,4.4
					c-2.1,0.9-4.4,1.4-7.1,1.4c-2.3,0-4.5-0.4-6.6-1.3s-3.8-2.1-5.3-3.6c-1.5-1.5-2.7-3.3-3.5-5.4c-0.8-2.1-1.3-4.4-1.3-6.9
					c0-2.4,0.4-4.7,1.2-6.8c0.8-2.1,2-3.9,3.5-5.5c1.5-1.5,3.2-2.8,5.3-3.7s4.3-1.3,6.7-1.3c2.2,0,4.4,0.4,6.4,1.2
					c2.1,0.8,3.8,2.1,5.2,3.9L200.7,183.8z"/>
				<path class="st0" d="M211.2,177h3.9v32.8h-3.9V177z"/>
				<path class="st0" d="M246.2,180.6h-10.8v29.2h-3.9v-29.2h-10.8V177h25.6V180.6z"/>
				<path class="st0" d="M259.5,195.7L247.2,177h5l9.2,14.8l9.5-14.8h4.7l-12.2,18.7v14.1h-3.9V195.7z"/>
				<path class="st0" d="M15.8,233.7l-1.1,3.8h-0.9c0.1-0.3,0.1-0.6,0.1-0.9c0-0.8-0.2-1.4-0.5-1.6s-0.8-0.3-1.4-0.3h-1.2l-2.9,9.5
					c-0.1,0.4-0.2,0.7-0.2,0.9c0,0.4,0.1,0.6,0.4,0.7c0.3,0.1,0.5,0.2,0.8,0.2h0.5L9,246.9H2.5l0.3-0.9h0.3c0.7,0,1.1-0.1,1.3-0.3
					c0.2-0.2,0.4-0.6,0.6-1.2l3-9.8H7.3H7.1c-0.7,0-1.3,0.2-1.9,0.5c-0.6,0.3-1.2,1.1-1.7,2.3H2.5l1.2-3.8H15.8z"/>
				<path class="st0" d="M25.3,244.3c-0.4,0.8-0.9,1.4-1.5,1.9c-0.6,0.5-1.2,0.8-2,0.8c-0.5,0-0.9-0.1-1.2-0.4
					c-0.3-0.2-0.4-0.5-0.4-0.9c0-0.2,0-0.3,0.1-0.4c0-0.1,0.1-0.4,0.2-0.7l0.7-2.5c0.1-0.5,0.2-0.9,0.2-1.2c0-0.1,0-0.2-0.1-0.3
					s-0.1-0.2-0.2-0.3c-0.1-0.1-0.2-0.1-0.3-0.1c-0.5,0-1.1,0.4-1.7,1.2c-0.6,0.8-1.1,1.5-1.4,2.2c-0.5,1.3-0.9,2.2-0.9,2.5
					l-0.2,0.7h-2.3l3.3-10.9c0.1-0.4,0.2-0.7,0.2-0.8c0-0.2-0.1-0.4-0.3-0.5c-0.2-0.1-0.4-0.1-0.8-0.1h-0.3l0.3-0.9
					c1.6,0,2.6-0.1,3.3-0.2h0.7l-2.5,8.2c0.4-0.6,0.8-1.1,1.2-1.5c0.3-0.4,0.8-0.7,1.3-1.1s1.1-0.5,1.8-0.5c0.5,0,0.9,0.1,1.2,0.4
					c0.3,0.2,0.5,0.5,0.5,0.9c0,0.3-0.1,0.8-0.4,1.6l-1,3.2c-0.1,0.3-0.2,0.6-0.2,0.7c0,0.1,0,0.1,0.1,0.2c0,0.1,0.1,0.1,0.2,0.1
					c0.4,0,0.9-0.5,1.4-1.4H25.3z"/>
				<path class="st0" d="M35.4,240.3c0,0.3-0.1,0.6-0.2,0.9s-0.5,0.7-0.9,1.1c-0.4,0.4-1,0.7-1.8,1c-0.8,0.3-1.8,0.5-3,0.6l-0.2,0
					c-0.1,0.3-0.1,0.5-0.1,0.7c0,0.5,0.1,0.8,0.3,1s0.6,0.3,1,0.3c1,0,1.9-0.5,2.8-1.6h1c-0.4,0.6-1,1.2-1.8,1.8
					c-0.8,0.6-1.8,0.9-2.9,0.9c-0.8,0-1.4-0.2-2-0.6c-0.6-0.4-0.8-1-0.8-1.8c0-1,0.3-2,0.8-2.9c0.5-0.9,1.3-1.7,2.2-2.3
					c1-0.6,2-0.9,3.1-0.9c0.9,0,1.5,0.2,1.9,0.5C35.2,239.4,35.4,239.8,35.4,240.3z M33.3,240.2c0-0.2-0.1-0.4-0.2-0.6
					c-0.1-0.2-0.4-0.3-0.6-0.3c-0.5,0-0.9,0.2-1.2,0.5c-0.4,0.3-0.7,0.7-1,1.1c-0.3,0.4-0.5,0.9-0.6,1.3c-0.2,0.4-0.3,0.7-0.3,0.8
					c1.3-0.2,2.3-0.6,3-1.1C33,241.4,33.3,240.9,33.3,240.2z"/>
				<path class="st0" d="M62.8,233.7l-0.3,0.9c-0.5,0-0.9,0.1-1.1,0.2c-0.3,0.1-0.5,0.3-0.6,0.5c-0.1,0.2-0.3,0.7-0.4,1.2l-2,7.7
					c-0.1,0.4-0.2,0.7-0.2,0.9c0,0.3,0.1,0.6,0.4,0.7c0.3,0.1,0.7,0.2,1.2,0.2l-0.3,0.9h-6.1l0.3-0.9c0.5,0,0.8,0,1.1-0.1
					c0.2-0.1,0.4-0.2,0.6-0.4c0.1-0.2,0.2-0.5,0.4-1l2.3-9.1l-7.8,11.4H49l-0.7-11.4l-3.3,8.6c-0.2,0.5-0.3,0.8-0.3,1
					c0,0.4,0.1,0.6,0.4,0.7c0.3,0.1,0.7,0.2,1.2,0.3l-0.3,0.9h-4.3l0.3-0.9c0.4-0.1,0.8-0.3,1.2-0.7c0.4-0.4,0.7-1,0.9-1.5l2.9-7.5
					c0.1-0.2,0.1-0.4,0.1-0.6c0-0.3-0.1-0.5-0.3-0.7c-0.2-0.2-0.6-0.3-1-0.3h-0.2l0.3-0.9h4.7l0.7,10l6.8-10H62.8z"/>
				<path class="st0" d="M72.1,244.6c-0.2,0.4-0.4,0.7-0.6,1c-0.2,0.3-0.5,0.6-0.8,0.8c-0.3,0.2-0.6,0.4-0.9,0.5
					c-0.3,0.1-0.6,0.2-0.9,0.2c-0.7,0-1.1-0.2-1.3-0.6c-0.2-0.4-0.3-0.9-0.3-1.5c-0.5,0.6-1,1.1-1.5,1.5c-0.5,0.4-1.1,0.6-1.7,0.6
					c-0.4,0-0.7-0.1-1-0.3c-0.3-0.2-0.4-0.5-0.6-0.8s-0.2-0.7-0.2-1.1c0-0.9,0.2-1.8,0.7-2.8c0.4-1,1.1-1.8,1.8-2.4
					c0.8-0.7,1.6-1,2.5-1c0.4,0,0.7,0.1,1,0.2c0.2,0.2,0.4,0.3,0.5,0.5c0.1,0.2,0.2,0.4,0.2,0.7l0.4-1.2h2.1l-1.8,5.9
					c-0.1,0.4-0.2,0.7-0.2,0.8c0,0.1,0,0.2,0.1,0.2c0.1,0.1,0.1,0.1,0.2,0.1c0.4,0,0.9-0.4,1.3-1.3H72.1z M68.5,240.7
					c0-0.3-0.1-0.6-0.2-0.8c-0.1-0.2-0.3-0.3-0.7-0.3c-0.5,0-1,0.3-1.4,0.8c-0.5,0.6-0.8,1.2-1.1,2c-0.3,0.8-0.4,1.5-0.4,2
					c0,0.8,0.2,1.2,0.7,1.2c0.3,0,0.7-0.2,1.1-0.5c0.4-0.3,0.7-0.7,1-1.3c0.3-0.5,0.6-1.1,0.7-1.6C68.4,241.7,68.5,241.1,68.5,240.7
					z"/>
				<path class="st0" d="M84.2,239.8c0,0.3-0.1,0.5-0.3,0.7c-0.2,0.2-0.4,0.3-0.7,0.3c-0.3,0-0.7-0.1-1-0.3
					c-0.3-0.2-0.6-0.3-0.9-0.3c-0.4,0-0.8,0.1-1.3,0.4c-0.5,0.3-1,0.7-1.7,1.3c0.6,0,1.1,0.1,1.6,0.4c0.5,0.3,0.8,0.6,0.9,1
					c0.1,0.4,0.2,0.9,0.3,1.6c0,0.4,0.1,0.6,0.1,0.8s0.2,0.2,0.4,0.2c0.3,0,0.6-0.2,0.8-0.5c0.3-0.3,0.5-0.7,0.6-1h0.9
					c-0.3,0.7-0.7,1.3-1.2,1.8s-1.2,0.8-2.1,0.8c-0.7,0-1.1-0.2-1.4-0.5c-0.3-0.3-0.4-0.7-0.4-1.1c0-0.1,0-0.4,0.1-0.7
					c0-0.4,0.1-0.7,0.1-0.9c0-0.8-0.4-1.2-1.3-1.2l-0.9,0.8l-1,3.5h-2.3l3.3-10.7c0.2-0.6,0.3-0.9,0.3-1c0-0.3-0.1-0.4-0.3-0.5
					c-0.2-0.1-0.5-0.1-1.1-0.1l0.3-0.9c1.5,0,2.6-0.1,3.3-0.2h0.7l-2.6,8.5c1-0.9,1.7-1.5,2.1-1.9c0.4-0.4,1-0.7,1.5-1
					c0.6-0.3,1.2-0.4,1.8-0.4c0.5,0,0.9,0.1,1.2,0.3C84.1,239.2,84.2,239.4,84.2,239.8z"/>
				<path class="st0" d="M90.9,244.6c-0.3,0.6-0.6,1.1-1.2,1.7c-0.5,0.6-1.2,0.9-2,0.9c-0.5,0-1-0.1-1.2-0.4c-0.3-0.3-0.4-0.6-0.4-1
					c0-0.4,0.1-0.9,0.4-1.6l1.3-3.4c0.1-0.3,0.2-0.5,0.2-0.6c0-0.1,0-0.1-0.1-0.2c-0.1-0.1-0.1-0.1-0.2-0.1c-0.2,0-0.5,0.2-0.7,0.5
					c-0.3,0.3-0.5,0.6-0.6,0.9h-0.9c0.4-0.9,0.9-1.5,1.5-2s1.2-0.7,1.8-0.7c0.4,0,0.8,0.1,1.1,0.3c0.3,0.2,0.4,0.5,0.4,0.8
					c0,0.4-0.1,0.7-0.2,1.1l-1.5,4.1c-0.1,0.3-0.2,0.5-0.2,0.7c0,0.1,0,0.2,0.1,0.2s0.1,0.1,0.2,0.1c0.2,0,0.4-0.1,0.6-0.3
					c0.2-0.2,0.5-0.6,0.8-1.1H90.9z M91.6,234.8c0,0.3-0.1,0.6-0.4,0.9c-0.2,0.2-0.5,0.4-0.9,0.4c-0.4,0-0.7-0.1-0.9-0.4
					c-0.2-0.2-0.4-0.5-0.4-0.9c0-0.3,0.1-0.6,0.4-0.9c0.2-0.2,0.5-0.4,0.9-0.4c0.2,0,0.4,0.1,0.6,0.2c0.2,0.1,0.3,0.3,0.5,0.4
					C91.6,234.3,91.6,234.5,91.6,234.8z"/>
				<path class="st0" d="M103.5,244.4c-0.2,0.3-0.4,0.7-0.8,1.1c-0.3,0.4-0.7,0.8-1.2,1.1s-1,0.5-1.5,0.5c-0.5,0-0.9-0.1-1.1-0.3
					s-0.4-0.5-0.4-0.9c0-0.3,0.1-0.7,0.2-1.2l0.7-2.3c0.2-0.6,0.3-1.1,0.3-1.3c0-0.1,0-0.3-0.1-0.4c-0.1-0.1-0.2-0.2-0.4-0.2
					c-0.3,0-0.8,0.3-1.3,0.9c-0.5,0.6-1,1.4-1.5,2.4c-0.5,1-1,2.1-1.4,3.3h-2.3l1.8-5.7c0.2-0.6,0.2-0.9,0.2-1c0-0.1,0-0.2-0.1-0.2
					c0-0.1-0.1-0.1-0.2-0.1c-0.3,0-0.5,0.2-0.7,0.5s-0.4,0.7-0.6,1h-0.8c0.2-0.7,0.6-1.3,1.1-1.9s1.2-0.8,1.9-0.8
					c0.5,0,0.9,0.1,1.1,0.4c0.2,0.3,0.4,0.6,0.4,0.9c0,0.2,0,0.4-0.1,0.8s-0.2,0.7-0.2,1l-0.3,1c0.8-1.2,1.6-2.2,2.3-2.9
					s1.5-1.1,2.3-1.1c0.5,0,0.9,0.1,1.1,0.4c0.2,0.3,0.3,0.6,0.3,0.9c0,0.2-0.1,0.6-0.2,1.2l-1,3.4c-0.1,0.4-0.2,0.7-0.2,0.9
					c0,0.1,0,0.1,0.1,0.2s0.1,0.1,0.2,0.1c0.2,0,0.4-0.1,0.7-0.4s0.5-0.6,0.8-1H103.5z"/>
				<path class="st0" d="M114.5,239.4c0,0.2-0.1,0.4-0.2,0.5c-0.1,0.1-0.3,0.1-0.4,0.1c-0.2,0-0.3-0.1-0.5-0.2
					c-0.1-0.1-0.2-0.1-0.3-0.1c-0.2,0-0.3,0.1-0.4,0.3c0.1,0.2,0.2,0.4,0.3,0.6c0.1,0.2,0.1,0.5,0.1,0.8c0,0.3-0.1,0.6-0.2,0.9
					c-0.1,0.3-0.3,0.7-0.6,1c-0.3,0.3-0.7,0.6-1.3,0.8c-0.6,0.2-1.3,0.3-2.1,0.3c-0.8,0-1.3,0.1-1.6,0.2c-0.3,0.1-0.4,0.3-0.4,0.6
					c0,0.1,0,0.2,0.1,0.3s0.2,0.2,0.4,0.2c0.2,0.1,0.5,0.2,1.1,0.3c0.5,0.1,1,0.3,1.5,0.4c1.7,0.5,2.6,1.3,2.6,2.4
					c0,0.5-0.2,0.9-0.5,1.3c-0.3,0.4-0.9,0.8-1.7,1c-0.8,0.3-1.8,0.4-3.1,0.4c-0.5,0-1.1-0.1-1.8-0.2s-1.3-0.3-1.8-0.6
					c-0.6-0.3-0.8-0.8-0.8-1.4c0-0.3,0.1-0.6,0.2-0.8c0.1-0.2,0.3-0.4,0.5-0.6s0.4-0.2,0.6-0.2c0.1,0,0.2,0,0.3,0.1s0.1,0.1,0.1,0.2
					c0,0.1-0.1,0.2-0.2,0.4c-0.2,0.3-0.3,0.5-0.3,0.8c0,0.6,0.4,1,1.1,1.3s1.4,0.3,2.2,0.3c0.9,0,1.6-0.1,2.2-0.4
					c0.5-0.2,0.8-0.6,0.8-1c0-0.2-0.1-0.4-0.2-0.5c-0.1-0.1-0.3-0.2-0.6-0.4c-0.3-0.1-0.9-0.3-1.7-0.6c-0.7-0.2-1.3-0.4-1.7-0.6
					c-0.4-0.2-0.7-0.4-0.9-0.7c-0.2-0.3-0.3-0.6-0.3-0.9c0-0.5,0.2-1,0.7-1.3c0.5-0.3,1-0.6,1.7-0.7c-0.5-0.2-0.9-0.5-1.1-0.9
					c-0.2-0.4-0.4-0.8-0.4-1.2c0-0.5,0.2-1,0.5-1.5c0.3-0.5,0.8-0.9,1.4-1.2s1.3-0.4,2-0.4c1.1,0,1.9,0.3,2.5,0.8
					c0.2-0.2,0.5-0.4,0.7-0.6c0.2-0.1,0.5-0.2,0.8-0.2c0.3,0,0.5,0.1,0.6,0.2C114.4,239,114.5,239.2,114.5,239.4z M111,240.6
					c0-0.2,0-0.4-0.1-0.6s-0.2-0.3-0.4-0.4c-0.2-0.1-0.4-0.2-0.6-0.2c-0.4,0-0.8,0.2-1.1,0.5c-0.3,0.4-0.5,0.8-0.7,1.3
					s-0.2,0.9-0.2,1.3c0,0.4,0.1,0.7,0.3,0.9c0.2,0.2,0.4,0.3,0.8,0.3c0.7,0,1.2-0.4,1.5-1.1S111,241.2,111,240.6z"/>
				<path class="st0" d="M123.9,240.3c0,0.3-0.1,0.5-0.3,0.7c-0.2,0.2-0.4,0.3-0.7,0.3c-0.2,0-0.4,0-0.5-0.1s-0.2-0.2-0.3-0.4
					c-0.1-0.2-0.2-0.4-0.3-0.7c-0.1-0.2-0.2-0.4-0.3-0.5c-0.1-0.1-0.4-0.2-0.8-0.2c-0.3,0-0.6,0.1-0.9,0.3c-0.3,0.2-0.4,0.4-0.4,0.7
					c0,0.2,0.1,0.4,0.2,0.6c0.1,0.2,0.2,0.3,0.4,0.5c0.2,0.2,0.4,0.4,0.7,0.7c0.6,0.5,1.1,1,1.4,1.3s0.4,0.8,0.4,1.3
					c0,0.4-0.1,0.8-0.4,1.2c-0.2,0.4-0.7,0.7-1.2,0.9s-1.3,0.4-2.2,0.4c-1.3,0-2.2-0.2-2.7-0.7c-0.5-0.5-0.8-0.9-0.8-1.4
					c0-0.3,0.1-0.5,0.3-0.8c0.2-0.2,0.5-0.3,0.8-0.3c0.7,0,1,0.4,1.1,1.3c0,0.4,0.1,0.6,0.3,0.9c0.2,0.2,0.5,0.3,1,0.3
					c0.4,0,0.8-0.1,1.1-0.3s0.4-0.5,0.4-0.8c0-0.2,0-0.4-0.1-0.5c-0.1-0.2-0.3-0.4-0.6-0.6c-0.5-0.4-1-0.8-1.3-1.2
					c-0.3-0.3-0.6-0.7-0.8-1c-0.2-0.3-0.3-0.6-0.3-1c0-0.3,0.1-0.6,0.3-1c0.2-0.4,0.6-0.7,1.1-0.9c0.6-0.3,1.3-0.4,2.3-0.4
					c0.6,0,1.1,0.1,1.5,0.2c0.4,0.1,0.7,0.2,0.9,0.4c0.2,0.2,0.4,0.3,0.5,0.5C123.8,239.9,123.9,240.1,123.9,240.3z"/>
				<path class="st0" d="M140.4,242.1c0,0.6-0.1,1.3-0.4,1.9s-0.6,1.2-1.1,1.6c-0.5,0.5-1.1,0.9-1.7,1.1s-1.4,0.4-2.1,0.4
					c-0.8,0-1.4-0.1-2-0.4c-0.6-0.3-1-0.7-1.3-1.2c-0.3-0.5-0.5-1.1-0.5-1.8c0-0.9,0.2-1.7,0.7-2.5c0.5-0.8,1.1-1.4,2-1.9
					c0.8-0.5,1.7-0.7,2.7-0.7c0.8,0,1.5,0.2,2.1,0.5c0.6,0.3,1,0.7,1.3,1.3C140.2,240.9,140.4,241.5,140.4,242.1z M138.1,241.4
					c0-0.6-0.1-1.1-0.4-1.4s-0.6-0.5-1.1-0.5c-0.5,0-0.9,0.2-1.3,0.5c-0.4,0.4-0.7,0.8-0.9,1.4c-0.3,0.5-0.4,1.1-0.6,1.6
					c-0.1,0.6-0.2,1-0.2,1.4c0,0.6,0.1,1,0.4,1.4c0.3,0.4,0.6,0.5,1.1,0.5c0.5,0,1-0.2,1.4-0.5c0.4-0.4,0.7-0.8,1-1.4
					c0.3-0.5,0.4-1.1,0.6-1.7C138,242.2,138.1,241.8,138.1,241.4z"/>
				<path class="st0" d="M151.3,234.9c0,0.3-0.1,0.5-0.3,0.7c-0.2,0.2-0.4,0.3-0.7,0.3c-0.3,0-0.5-0.1-0.6-0.3
					c-0.1-0.2-0.3-0.5-0.4-0.9c0-0.1-0.1-0.3-0.2-0.3s-0.2-0.1-0.3-0.1c-0.2,0-0.3,0.1-0.4,0.2c-0.1,0.1-0.2,0.3-0.2,0.5l-1.2,3.8
					h1.6l-0.3,0.9h-1.6l-1.7,5.5c-0.4,1.4-0.8,2.6-1.2,3.4c-0.4,0.8-0.9,1.5-1.5,2.1c-0.7,0.6-1.5,0.9-2.5,0.9
					c-0.7,0-1.3-0.2-1.7-0.5c-0.4-0.3-0.6-0.7-0.6-1.1c0-0.3,0.1-0.6,0.3-0.8c0.2-0.2,0.5-0.3,0.8-0.3c0.4,0,0.7,0.1,0.8,0.3
					c0.1,0.2,0.2,0.5,0.2,0.8c0,0.4,0.2,0.7,0.6,0.7c0.3,0,0.6-0.2,0.8-0.5c0.2-0.4,0.4-0.9,0.6-1.7l2.7-8.8h-1.7l0.3-0.9h1.7
					l0.2-0.6c0.3-0.9,0.5-1.6,0.8-2.3c0.3-0.7,0.8-1.2,1.4-1.8c0.6-0.5,1.3-0.8,2.2-0.8c0.3,0,0.7,0.1,1,0.2
					c0.3,0.1,0.5,0.3,0.7,0.5C151.2,234.4,151.3,234.6,151.3,234.9z"/>
				<path class="st0" d="M164.8,244.6c-0.2,0.4-0.4,0.7-0.6,1c-0.2,0.3-0.5,0.6-0.8,0.8c-0.3,0.2-0.6,0.4-0.9,0.5
					c-0.3,0.1-0.6,0.2-0.9,0.2c-0.7,0-1.1-0.2-1.3-0.6c-0.2-0.4-0.3-0.9-0.3-1.5c-0.5,0.6-1,1.1-1.5,1.5c-0.5,0.4-1.1,0.6-1.7,0.6
					c-0.4,0-0.7-0.1-1-0.3c-0.3-0.2-0.4-0.5-0.6-0.8c-0.1-0.4-0.2-0.7-0.2-1.1c0-0.9,0.2-1.8,0.7-2.8c0.4-1,1.1-1.8,1.8-2.4
					c0.8-0.7,1.6-1,2.5-1c0.4,0,0.7,0.1,1,0.2c0.2,0.2,0.4,0.3,0.5,0.5c0.1,0.2,0.2,0.4,0.2,0.7l0.4-1.2h2.1l-1.8,5.9
					c-0.1,0.4-0.2,0.7-0.2,0.8c0,0.1,0,0.2,0.1,0.2c0.1,0.1,0.1,0.1,0.2,0.1c0.4,0,0.9-0.4,1.3-1.3H164.8z M161.2,240.7
					c0-0.3-0.1-0.6-0.2-0.8c-0.1-0.2-0.3-0.3-0.7-0.3c-0.5,0-1,0.3-1.4,0.8c-0.5,0.6-0.8,1.2-1.1,2c-0.3,0.8-0.4,1.5-0.4,2
					c0,0.8,0.2,1.2,0.7,1.2c0.3,0,0.7-0.2,1.1-0.5c0.4-0.3,0.7-0.7,1-1.3c0.3-0.5,0.6-1.1,0.7-1.6
					C161.1,241.7,161.2,241.1,161.2,240.7z"/>
				<path class="st0" d="M192.3,233.7l-0.3,0.9c-0.5,0-0.9,0.1-1.1,0.2c-0.3,0.1-0.5,0.3-0.6,0.5c-0.1,0.2-0.3,0.7-0.4,1.2l-2,7.7
					c-0.1,0.4-0.2,0.7-0.2,0.9c0,0.3,0.1,0.6,0.4,0.7c0.3,0.1,0.7,0.2,1.2,0.2l-0.3,0.9h-6.1l0.3-0.9c0.5,0,0.8,0,1.1-0.1
					c0.2-0.1,0.4-0.2,0.6-0.4s0.2-0.5,0.4-1l2.3-9.1l-7.8,11.4h-1.3l-0.7-11.4l-3.3,8.6c-0.2,0.5-0.3,0.8-0.3,1
					c0,0.4,0.1,0.6,0.4,0.7c0.3,0.1,0.7,0.2,1.2,0.3l-0.3,0.9h-4.3l0.3-0.9c0.4-0.1,0.8-0.3,1.2-0.7c0.4-0.4,0.7-1,0.9-1.5l2.9-7.5
					c0.1-0.2,0.1-0.4,0.1-0.6c0-0.3-0.1-0.5-0.3-0.7c-0.2-0.2-0.6-0.3-1-0.3H175l0.3-0.9h4.7l0.7,10l6.8-10H192.3z"/>
				<path class="st0" d="M201,242.1c0,0.6-0.1,1.3-0.4,1.9c-0.3,0.6-0.6,1.2-1.1,1.6c-0.5,0.5-1.1,0.9-1.7,1.1s-1.4,0.4-2.1,0.4
					c-0.8,0-1.4-0.1-2-0.4c-0.6-0.3-1-0.7-1.3-1.2c-0.3-0.5-0.5-1.1-0.5-1.8c0-0.9,0.2-1.7,0.7-2.5c0.5-0.8,1.1-1.4,2-1.9
					s1.7-0.7,2.7-0.7c0.8,0,1.5,0.2,2.1,0.5c0.6,0.3,1,0.7,1.3,1.3C200.8,240.9,201,241.5,201,242.1z M198.7,241.4
					c0-0.6-0.1-1.1-0.4-1.4c-0.3-0.3-0.6-0.5-1.1-0.5c-0.5,0-0.9,0.2-1.3,0.5c-0.4,0.4-0.7,0.8-1,1.4s-0.4,1.1-0.6,1.6
					c-0.1,0.6-0.2,1-0.2,1.4c0,0.6,0.1,1,0.4,1.4c0.3,0.4,0.6,0.5,1.1,0.5c0.5,0,1-0.2,1.4-0.5c0.4-0.4,0.7-0.8,1-1.4
					c0.3-0.5,0.4-1.1,0.6-1.7C198.6,242.2,198.7,241.8,198.7,241.4z"/>
				<path class="st0" d="M212.6,240.2c0,0.7-0.2,1.5-0.6,2.3c-0.4,0.8-0.9,1.6-1.5,2.3c-0.6,0.7-1.3,1.3-2.1,1.7
					c-0.8,0.4-1.6,0.7-2.3,0.7c-0.4,0-0.7-0.1-1.1-0.2s-0.6-0.4-0.9-0.7c-0.2-0.3-0.4-0.7-0.4-1.2c0-0.6,0.2-1.1,0.5-1.6
					c0.3-0.5,0.8-0.9,1.4-1.4c0.5-0.4,0.8-0.7,1.1-1c0.2-0.3,0.4-0.5,0.6-0.9c-0.5,0.3-1,0.5-1.4,0.5c-0.3,0-0.7-0.1-1-0.3
					c-0.2-0.1-0.4-0.2-0.5-0.2c-0.3,0-0.5,0.2-0.6,0.6h-0.8c0.4-1.4,1.1-2.2,2-2.2c0.4,0,0.9,0.2,1.4,0.6c0.2,0.1,0.3,0.2,0.4,0.3
					c0.1,0,0.2,0.1,0.3,0.1c0.3,0,0.5-0.2,0.6-0.5c0.1-0.3,0.2-0.4,0.4-0.4c0.1,0,0.3,0,0.3,0.1s0.1,0.2,0.1,0.4
					c0,0.3-0.1,0.7-0.3,1.1s-0.4,0.8-0.7,1.3c-0.5,0.8-0.9,1.5-1.1,1.9c-0.2,0.5-0.3,0.9-0.3,1.2c0,0.4,0.1,0.7,0.4,0.8
					s0.5,0.3,0.8,0.3c0.6,0,1.2-0.2,1.8-0.7c0.6-0.5,1-1,1.4-1.7c0.4-0.6,0.5-1.2,0.5-1.7c0-0.3-0.1-0.7-0.2-1.1
					c-0.1-0.3-0.1-0.6-0.1-0.9c0-0.4,0.1-0.7,0.3-0.9c0.2-0.2,0.4-0.3,0.6-0.3c0.3,0,0.5,0.1,0.7,0.4S212.6,239.7,212.6,240.2z"/>
				<path class="st0" d="M223,240.3c0,0.3-0.1,0.6-0.2,0.9c-0.2,0.3-0.5,0.7-0.9,1.1c-0.4,0.4-1,0.7-1.8,1c-0.8,0.3-1.8,0.5-3,0.6
					l-0.2,0c-0.1,0.3-0.1,0.5-0.1,0.7c0,0.5,0.1,0.8,0.3,1s0.6,0.3,1,0.3c1,0,1.9-0.5,2.8-1.6h1c-0.4,0.6-1,1.2-1.8,1.8
					s-1.8,0.9-2.9,0.9c-0.8,0-1.4-0.2-2-0.6s-0.8-1-0.8-1.8c0-1,0.3-2,0.8-2.9c0.5-0.9,1.3-1.7,2.2-2.3c1-0.6,2-0.9,3.1-0.9
					c0.9,0,1.5,0.2,1.9,0.5C222.8,239.4,223,239.8,223,240.3z M221,240.2c0-0.2-0.1-0.4-0.2-0.6c-0.1-0.2-0.4-0.3-0.6-0.3
					c-0.5,0-0.9,0.2-1.2,0.5s-0.7,0.7-1,1.1s-0.5,0.9-0.6,1.3c-0.2,0.4-0.3,0.7-0.3,0.8c1.3-0.2,2.3-0.6,3-1.1
					C220.6,241.4,221,240.9,221,240.2z"/>
				<path class="st0" d="M242.7,244.3c-1,1.8-2.2,2.7-3.6,2.7c-0.5,0-0.9-0.1-1.1-0.4c-0.3-0.3-0.4-0.6-0.4-0.9
					c0-0.3,0.1-0.6,0.2-1.1l0.8-2.4c0.2-0.6,0.3-0.9,0.3-1.1c0-0.2-0.1-0.4-0.2-0.6s-0.3-0.2-0.6-0.2c-0.5,0-1.1,0.3-1.7,0.9
					c-0.6,0.6-1.2,1.4-1.7,2.3c-0.5,1-0.9,1.9-1.2,2.9l-0.1,0.5h-2.3l1.5-4.9c0.1-0.4,0.2-0.7,0.2-0.9s-0.1-0.4-0.2-0.5
					c-0.1-0.1-0.3-0.2-0.5-0.2c-0.4,0-0.9,0.2-1.4,0.6c-0.5,0.4-0.9,0.9-1.3,1.5c-0.4,0.6-0.8,1.3-1.2,2c-0.4,0.7-0.6,1.4-0.9,2.2
					l-0.1,0.3h-2.3l1.7-5.6c0.2-0.6,0.3-1,0.3-1.1c0-0.1,0-0.2-0.1-0.2c-0.1-0.1-0.1-0.1-0.2-0.1c-0.1,0-0.2,0-0.3,0.1
					c-0.1,0.1-0.3,0.2-0.5,0.5c-0.2,0.2-0.4,0.5-0.5,0.9h-0.9c0.3-0.7,0.7-1.3,1.2-1.9s1.2-0.8,2-0.8c0.3,0,0.5,0,0.8,0.1
					c0.2,0.1,0.4,0.3,0.6,0.5s0.2,0.5,0.2,0.8c0,0.3-0.1,0.9-0.3,1.6l-0.3,0.9c0.4-0.6,0.8-1.2,1.2-1.7c0.4-0.5,0.8-0.9,1.3-1.3
					s0.9-0.6,1.3-0.8c0.4-0.2,0.8-0.2,1.2-0.2c0.5,0,1,0.1,1.3,0.4c0.3,0.3,0.5,0.6,0.5,1.1c0,0.3-0.1,0.8-0.3,1.5l-0.3,0.9
					c0.4-0.7,0.8-1.3,1.3-1.9c0.5-0.6,1.1-1.1,1.7-1.5c0.6-0.4,1.3-0.6,2-0.6c0.4,0,0.8,0.1,1,0.3c0.3,0.2,0.5,0.4,0.6,0.6
					c0.1,0.2,0.2,0.5,0.2,0.7c0,0.2,0,0.4,0,0.5s-0.1,0.4-0.3,0.9l-0.9,3c-0.1,0.4-0.2,0.6-0.2,0.8c0,0.2,0.1,0.3,0.3,0.3
					c0.2,0,0.4-0.1,0.7-0.3s0.6-0.6,0.9-1.1H242.7z"/>
				<path class="st0" d="M252.8,240.3c0,0.3-0.1,0.6-0.2,0.9c-0.2,0.3-0.5,0.7-0.9,1.1c-0.4,0.4-1,0.7-1.8,1c-0.8,0.3-1.8,0.5-3,0.6
					l-0.2,0c-0.1,0.3-0.1,0.5-0.1,0.7c0,0.5,0.1,0.8,0.3,1s0.6,0.3,1,0.3c1,0,1.9-0.5,2.8-1.6h1c-0.4,0.6-1,1.2-1.8,1.8
					s-1.8,0.9-2.9,0.9c-0.8,0-1.4-0.2-2-0.6s-0.8-1-0.8-1.8c0-1,0.3-2,0.8-2.9c0.5-0.9,1.3-1.7,2.2-2.3c1-0.6,2-0.9,3.1-0.9
					c0.9,0,1.5,0.2,1.9,0.5C252.6,239.4,252.8,239.8,252.8,240.3z M250.7,240.2c0-0.2-0.1-0.4-0.2-0.6c-0.1-0.2-0.4-0.3-0.6-0.3
					c-0.5,0-0.9,0.2-1.2,0.5s-0.7,0.7-1,1.1s-0.5,0.9-0.6,1.3c-0.2,0.4-0.3,0.7-0.3,0.8c1.3-0.2,2.3-0.6,3-1.1
					C250.4,241.4,250.7,240.9,250.7,240.2z"/>
				<path class="st0" d="M265.2,244.4c-0.2,0.3-0.4,0.7-0.8,1.1c-0.3,0.4-0.7,0.8-1.2,1.1s-1,0.5-1.5,0.5c-0.5,0-0.9-0.1-1.1-0.3
					s-0.4-0.5-0.4-0.9c0-0.3,0.1-0.7,0.2-1.2l0.7-2.3c0.2-0.6,0.3-1.1,0.3-1.3c0-0.1,0-0.3-0.1-0.4c-0.1-0.1-0.2-0.2-0.4-0.2
					c-0.3,0-0.8,0.3-1.3,0.9c-0.5,0.6-1,1.4-1.5,2.4c-0.5,1-1,2.1-1.4,3.3h-2.3l1.8-5.7c0.2-0.6,0.2-0.9,0.2-1c0-0.1,0-0.2-0.1-0.2
					c0-0.1-0.1-0.1-0.2-0.1c-0.3,0-0.5,0.2-0.7,0.5s-0.4,0.7-0.6,1H254c0.2-0.7,0.6-1.3,1.1-1.9s1.2-0.8,1.9-0.8
					c0.5,0,0.9,0.1,1.1,0.4s0.4,0.6,0.4,0.9c0,0.2,0,0.4-0.1,0.8s-0.2,0.7-0.2,1l-0.3,1c0.8-1.2,1.6-2.2,2.3-2.9s1.5-1.1,2.3-1.1
					c0.5,0,0.9,0.1,1.1,0.4c0.2,0.3,0.3,0.6,0.3,0.9c0,0.2-0.1,0.6-0.2,1.2l-1,3.4c-0.1,0.4-0.2,0.7-0.2,0.9c0,0.1,0,0.1,0.1,0.2
					s0.1,0.1,0.2,0.1c0.2,0,0.4-0.1,0.7-0.4s0.5-0.6,0.8-1H265.2z"/>
				<path class="st0" d="M273,239l-0.3,0.9h-1.9l-1.5,4.8c-0.1,0.3-0.2,0.6-0.2,0.7c0,0.1,0,0.3,0.1,0.4c0.1,0.1,0.2,0.2,0.3,0.2
					c0.4,0,0.7-0.2,1-0.5c0.3-0.4,0.5-0.8,0.8-1.2h0.9c-0.4,0.8-0.8,1.4-1.2,1.9s-0.9,0.7-1.3,0.9s-0.8,0.2-1.1,0.2
					c-0.6,0-1-0.2-1.3-0.5c-0.3-0.3-0.5-0.8-0.5-1.3c0-0.4,0.1-0.9,0.3-1.5l1.3-4.1h-1.8l0.3-0.9h1.8l0.9-3h2.3l-0.9,3H273z"/>
			</g>
		</g>
	</g>
</g>
</svg>
