<?xml version="1.0" encoding="utf-8"?>
<!-- Generator: Adobe Illustrator 19.0.1, SVG Export Plug-In . SVG Version: 6.00 Build 0)  -->
<svg version="1.1" id="Layer_1" xmlns="http://www.w3.org/2000/svg" xmlns:xlink="http://www.w3.org/1999/xlink" x="0px" y="0px"
	 viewBox="0 0 378.5 243.7" style="enable-background:new 0 0 378.5 243.7;" xml:space="preserve">
<style type="text/css">
	.st0{fill:#272223;}
	.st1{fill:#FFFFFF;}
	.st2{fill:#EC1C24;}
	.st3{fill:#CC2036;}
	.st4{clip-path:url(#SVGID_2_);}
	.st5{clip-path:url(#SVGID_6_);}
	.st6{clip-path:url(#SVGID_8_);}
	.st7{opacity:0.33;fill:#EC1E24;}
	.st8{opacity:0.5;fill:#EC1E24;}
	.st9{opacity:0.33;fill:#5D52A2;}
	.st10{opacity:0.33;fill:#EC248F;}
	.st11{opacity:0.42;fill:#EC248F;}
	.st12{fill:#333333;}
	.st13{clip-path:url(#SVGID_10_);}
	.st14{clip-path:url(#SVGID_14_);}
	.st15{clip-path:url(#SVGID_18_);}
	.st16{clip-path:url(#SVGID_22_);}
	.st17{clip-path:url(#SVGID_26_);}
	.st18{clip-path:url(#SVGID_30_);}
	.st19{clip-path:url(#SVGID_32_);}
	.st20{clip-path:url(#SVGID_36_);}
	.st21{clip-path:url(#SVGID_40_);}
	.st22{clip-path:url(#SVGID_42_);}
	.st23{clip-path:url(#SVGID_46_);}
	.st24{clip-path:url(#SVGID_50_);}
	.st25{clip-path:url(#SVGID_52_);}
	.st26{clip-path:url(#SVGID_58_);}
	.st27{clip-path:url(#SVGID_62_);}
	.st28{clip-path:url(#SVGID_66_);}
	.st29{clip-path:url(#SVGID_70_);}
	.st30{clip-path:url(#SVGID_74_);}
	.st31{clip-path:url(#SVGID_78_);}
	.st32{clip-path:url(#SVGID_82_);}
	.st33{clip-path:url(#SVGID_84_);}
	.st34{clip-path:url(#SVGID_88_);}
	.st35{clip-path:url(#SVGID_92_);}
	.st36{clip-path:url(#SVGID_94_);}
	.st37{clip-path:url(#SVGID_98_);}
	.st38{clip-path:url(#SVGID_102_);}
	.st39{clip-path:url(#SVGID_104_);}
	.st40{clip-path:url(#SVGID_108_);}
	.st41{clip-path:url(#SVGID_112_);}
	.st42{clip-path:url(#SVGID_114_);}
	.st43{clip-path:url(#SVGID_118_);}
	.st44{clip-path:url(#SVGID_122_);}
	.st45{clip-path:url(#SVGID_124_);}
	.st46{clip-path:url(#SVGID_128_);}
	.st47{clip-path:url(#SVGID_132_);}
	.st48{clip-path:url(#SVGID_134_);}
	.st49{clip-path:url(#SVGID_138_);}
	.st50{clip-path:url(#SVGID_142_);}
	.st51{clip-path:url(#SVGID_144_);}
	.st52{clip-path:url(#SVGID_148_);}
	.st53{clip-path:url(#SVGID_152_);}
	.st54{clip-path:url(#SVGID_154_);}
	.st55{clip-path:url(#SVGID_158_);}
	.st56{clip-path:url(#SVGID_162_);}
	.st57{clip-path:url(#SVGID_164_);}
	.st58{clip-path:url(#SVGID_168_);}
	.st59{clip-path:url(#SVGID_172_);}
	.st60{clip-path:url(#SVGID_176_);}
	.st61{clip-path:url(#SVGID_178_);}
	.st62{clip-path:url(#SVGID_182_);}
	.st63{clip-path:url(#SVGID_186_);}
	.st64{clip-path:url(#SVGID_188_);}
	.st65{clip-path:url(#SVGID_192_);}
	.st66{clip-path:url(#SVGID_196_);}
	.st67{clip-path:url(#SVGID_198_);}
	.st68{clip-path:url(#SVGID_202_);}
	.st69{clip-path:url(#SVGID_206_);}
	.st70{clip-path:url(#SVGID_208_);}
	.st71{clip-path:url(#SVGID_212_);}
	.st72{clip-path:url(#SVGID_216_);}
	.st73{clip-path:url(#SVGID_218_);}
	.st74{clip-path:url(#SVGID_222_);}
	.st75{clip-path:url(#SVGID_226_);}
	.st76{clip-path:url(#SVGID_228_);}
	.st77{clip-path:url(#SVGID_232_);}
	.st78{clip-path:url(#SVGID_236_);}
	.st79{clip-path:url(#SVGID_240_);}
	.st80{clip-path:url(#SVGID_242_);}
	.st81{clip-path:url(#SVGID_246_);}
	.st82{clip-path:url(#SVGID_250_);}
	.st83{clip-path:url(#SVGID_254_);}
	.st84{clip-path:url(#SVGID_258_);}
	.st85{clip-path:url(#SVGID_262_);}
	.st86{clip-path:url(#SVGID_266_);}
	.st87{clip-path:url(#SVGID_270_);}
	.st88{clip-path:url(#SVGID_274_);}
	.st89{clip-path:url(#SVGID_278_);}
	.st90{clip-path:url(#SVGID_282_);}
	.st91{clip-path:url(#SVGID_286_);}
	.st92{clip-path:url(#SVGID_290_);}
	.st93{clip-path:url(#SVGID_294_);}
	.st94{clip-path:url(#SVGID_298_);}
	.st95{clip-path:url(#SVGID_302_);}
	.st96{clip-path:url(#SVGID_306_);}
	.st97{clip-path:url(#SVGID_310_);}
	.st98{clip-path:url(#SVGID_314_);}
	.st99{clip-path:url(#SVGID_318_);}
	.st100{clip-path:url(#SVGID_322_);}
	.st101{clip-path:url(#SVGID_326_);}
	.st102{clip-path:url(#SVGID_330_);}
	.st103{clip-path:url(#SVGID_334_);}
	.st104{fill:#91D8F7;}
	.st105{clip-path:url(#SVGID_338_);}
	.st106{clip-path:url(#SVGID_342_);}
	.st107{clip-path:url(#SVGID_346_);}
	.st108{clip-path:url(#SVGID_348_);}
	.st109{clip-path:url(#SVGID_352_);}
	.st110{clip-path:url(#SVGID_356_);}
	.st111{clip-path:url(#SVGID_358_);}
	.st112{clip-path:url(#SVGID_362_);}
	.st113{clip-path:url(#SVGID_366_);}
	.st114{clip-path:url(#SVGID_368_);}
	.st115{clip-path:url(#SVGID_372_);fill:#91D8F7;}
	.st116{clip-path:url(#SVGID_372_);fill:#F1F1F2;}
	.st117{clip-path:url(#SVGID_374_);}
	.st118{clip-path:url(#SVGID_378_);}
	.st119{clip-path:url(#SVGID_382_);}
	.st120{clip-path:url(#SVGID_386_);}
	.st121{clip-path:url(#SVGID_390_);}
	.st122{clip-path:url(#SVGID_394_);}
	.st123{clip-path:url(#SVGID_398_);}
	.st124{clip-path:url(#SVGID_400_);}
	.st125{clip-path:url(#SVGID_404_);}
	.st126{clip-path:url(#SVGID_408_);}
	.st127{clip-path:url(#SVGID_410_);}
	.st128{clip-path:url(#SVGID_414_);}
	.st129{clip-path:url(#SVGID_418_);}
	.st130{clip-path:url(#SVGID_420_);}
	.st131{clip-path:url(#SVGID_424_);}
	.st132{clip-path:url(#SVGID_428_);}
	.st133{clip-path:url(#SVGID_430_);}
	.st134{clip-path:url(#SVGID_434_);}
	.st135{clip-path:url(#SVGID_438_);}
	.st136{clip-path:url(#SVGID_440_);}
	.st137{clip-path:url(#SVGID_444_);}
	.st138{clip-path:url(#SVGID_448_);}
	.st139{clip-path:url(#SVGID_450_);}
	.st140{clip-path:url(#SVGID_454_);}
	.st141{clip-path:url(#SVGID_458_);}
	.st142{clip-path:url(#SVGID_460_);}
	.st143{clip-path:url(#SVGID_464_);}
	.st144{clip-path:url(#SVGID_468_);}
	.st145{clip-path:url(#SVGID_470_);}
	.st146{clip-path:url(#SVGID_474_);}
	.st147{clip-path:url(#SVGID_478_);}
	.st148{clip-path:url(#SVGID_480_);}
	.st149{clip-path:url(#SVGID_484_);}
	.st150{clip-path:url(#SVGID_488_);}
	.st151{clip-path:url(#SVGID_492_);}
	.st152{clip-path:url(#SVGID_494_);}
	.st153{clip-path:url(#SVGID_498_);}
	.st154{clip-path:url(#SVGID_502_);}
	.st155{clip-path:url(#SVGID_504_);}
	.st156{clip-path:url(#SVGID_508_);}
	.st157{clip-path:url(#SVGID_512_);}
	.st158{clip-path:url(#SVGID_514_);}
	.st159{clip-path:url(#SVGID_518_);}
	.st160{clip-path:url(#SVGID_522_);}
	.st161{clip-path:url(#SVGID_524_);}
	.st162{clip-path:url(#SVGID_528_);}
	.st163{clip-path:url(#SVGID_532_);}
	.st164{clip-path:url(#SVGID_534_);}
	.st165{clip-path:url(#SVGID_538_);}
	.st166{clip-path:url(#SVGID_542_);}
	.st167{clip-path:url(#SVGID_544_);}
	.st168{clip-path:url(#SVGID_548_);}
	.st169{clip-path:url(#SVGID_552_);}
	.st170{clip-path:url(#SVGID_556_);}
	.st171{clip-path:url(#SVGID_558_);}
	.st172{clip-path:url(#SVGID_562_);}
	.st173{clip-path:url(#SVGID_566_);}
	.st174{clip-path:url(#SVGID_570_);}
	.st175{clip-path:url(#SVGID_574_);}
	.st176{clip-path:url(#SVGID_578_);}
	.st177{clip-path:url(#SVGID_582_);}
	.st178{clip-path:url(#SVGID_586_);}
	.st179{clip-path:url(#SVGID_590_);}
	.st180{clip-path:url(#SVGID_594_);}
	.st181{clip-path:url(#SVGID_598_);}
	.st182{clip-path:url(#SVGID_602_);}
	.st183{clip-path:url(#SVGID_606_);}
	.st184{clip-path:url(#SVGID_610_);}
	.st185{clip-path:url(#SVGID_614_);}
	.st186{clip-path:url(#SVGID_618_);}
	.st187{clip-path:url(#SVGID_622_);}
	.st188{clip-path:url(#SVGID_626_);}
	.st189{clip-path:url(#SVGID_630_);}
	.st190{clip-path:url(#SVGID_634_);}
	.st191{clip-path:url(#SVGID_638_);}
	.st192{clip-path:url(#SVGID_642_);}
	.st193{clip-path:url(#SVGID_646_);}
	.st194{clip-path:url(#SVGID_650_);}
	.st195{clip-path:url(#SVGID_654_);}
	.st196{clip-path:url(#SVGID_658_);}
	.st197{clip-path:url(#SVGID_662_);}
	.st198{clip-path:url(#SVGID_664_);}
	.st199{clip-path:url(#SVGID_668_);}
	.st200{clip-path:url(#SVGID_672_);}
	.st201{clip-path:url(#SVGID_674_);}
	.st202{clip-path:url(#SVGID_678_);}
	.st203{clip-path:url(#SVGID_682_);}
	.st204{clip-path:url(#SVGID_684_);}
	.st205{clip-path:url(#SVGID_690_);}
	.st206{clip-path:url(#SVGID_694_);}
	.st207{clip-path:url(#SVGID_698_);}
	.st208{clip-path:url(#SVGID_702_);}
	.st209{clip-path:url(#SVGID_706_);}
	.st210{clip-path:url(#SVGID_710_);}
	.st211{clip-path:url(#SVGID_714_);}
	.st212{clip-path:url(#SVGID_716_);}
	.st213{clip-path:url(#SVGID_720_);}
	.st214{clip-path:url(#SVGID_724_);}
	.st215{clip-path:url(#SVGID_726_);}
	.st216{clip-path:url(#SVGID_730_);}
	.st217{clip-path:url(#SVGID_734_);}
	.st218{clip-path:url(#SVGID_736_);}
	.st219{clip-path:url(#SVGID_740_);}
	.st220{clip-path:url(#SVGID_744_);}
	.st221{clip-path:url(#SVGID_746_);}
	.st222{clip-path:url(#SVGID_750_);}
	.st223{clip-path:url(#SVGID_754_);}
	.st224{clip-path:url(#SVGID_756_);}
	.st225{clip-path:url(#SVGID_760_);}
	.st226{clip-path:url(#SVGID_764_);}
	.st227{clip-path:url(#SVGID_766_);}
	.st228{clip-path:url(#SVGID_770_);}
	.st229{clip-path:url(#SVGID_774_);}
	.st230{clip-path:url(#SVGID_776_);}
	.st231{clip-path:url(#SVGID_780_);}
	.st232{clip-path:url(#SVGID_784_);}
	.st233{clip-path:url(#SVGID_786_);}
	.st234{clip-path:url(#SVGID_790_);}
	.st235{clip-path:url(#SVGID_794_);}
	.st236{clip-path:url(#SVGID_796_);}
	.st237{clip-path:url(#SVGID_800_);}
	.st238{clip-path:url(#SVGID_804_);}
	.st239{clip-path:url(#SVGID_808_);}
	.st240{clip-path:url(#SVGID_810_);}
	.st241{clip-path:url(#SVGID_814_);}
	.st242{clip-path:url(#SVGID_818_);}
	.st243{clip-path:url(#SVGID_820_);}
	.st244{clip-path:url(#SVGID_824_);}
	.st245{clip-path:url(#SVGID_828_);}
	.st246{clip-path:url(#SVGID_830_);}
	.st247{clip-path:url(#SVGID_834_);}
	.st248{clip-path:url(#SVGID_838_);}
	.st249{clip-path:url(#SVGID_840_);}
	.st250{clip-path:url(#SVGID_844_);}
	.st251{clip-path:url(#SVGID_848_);}
	.st252{clip-path:url(#SVGID_850_);}
	.st253{clip-path:url(#SVGID_854_);}
	.st254{clip-path:url(#SVGID_858_);}
	.st255{clip-path:url(#SVGID_860_);}
	.st256{clip-path:url(#SVGID_864_);}
	.st257{clip-path:url(#SVGID_868_);}
	.st258{clip-path:url(#SVGID_872_);}
	.st259{clip-path:url(#SVGID_874_);}
	.st260{clip-path:url(#SVGID_878_);}
	.st261{clip-path:url(#SVGID_882_);}
	.st262{clip-path:url(#SVGID_886_);}
	.st263{clip-path:url(#SVGID_890_);}
	.st264{clip-path:url(#SVGID_894_);}
	.st265{clip-path:url(#SVGID_898_);}
	.st266{clip-path:url(#SVGID_902_);}
	.st267{clip-path:url(#SVGID_906_);}
	.st268{clip-path:url(#SVGID_910_);}
	.st269{clip-path:url(#SVGID_914_);}
	.st270{clip-path:url(#SVGID_918_);}
	.st271{clip-path:url(#SVGID_922_);}
	.st272{clip-path:url(#SVGID_926_);}
	.st273{clip-path:url(#SVGID_930_);}
	.st274{clip-path:url(#SVGID_934_);}
	.st275{clip-path:url(#SVGID_938_);}
	.st276{clip-path:url(#SVGID_942_);}
	.st277{clip-path:url(#SVGID_946_);}
	.st278{clip-path:url(#SVGID_950_);}
	.st279{clip-path:url(#SVGID_954_);}
	.st280{clip-path:url(#SVGID_958_);}
	.st281{fill:url(#SVGID_963_);}
	.st282{opacity:0.27;clip-path:url(#SVGID_965_);}
	.st283{fill:#CA2027;}
	.st284{clip-path:url(#SVGID_967_);}
	.st285{clip-path:url(#SVGID_969_);fill:#231F20;}
	.st286{clip-path:url(#SVGID_969_);fill:#EC1C24;}
	.st287{fill:#F5CBC0;}
	.st288{fill:#F9F9F9;}
	.st289{fill:#EDC8BF;}
	.st290{fill:#F3F2F2;}
	.st291{fill:#E8C6C1;}
	.st292{fill:#C4B0AD;}
	.st293{fill:#CCCCCC;}
	.st294{fill:#422E26;}
	.st295{fill:#D81F45;}
	.st296{opacity:0.5;fill:#6598CB;}
	.st297{opacity:0.5;fill:#CC6666;}
	.st298{fill:#B0CBE4;}
	.st299{fill:#C59BA4;}
	.st300{fill:#E4B1B2;}
	.st301{opacity:0.5;fill:none;stroke:#6598CB;stroke-width:2.1265;stroke-miterlimit:10;}
	.st302{fill:none;stroke:#E4B1B2;stroke-width:2.1265;stroke-miterlimit:10;}
	.st303{fill:#993333;}
	.st304{fill:#663433;}
	.st305{fill:#231F20;}
	.st306{fill:#5D5D5D;}
	.st307{fill:#CCCBCB;}
	.st308{fill:#989898;}
	.st309{fill:none;stroke:#CCCBCB;stroke-width:1.6911;stroke-miterlimit:10;}
	.st310{fill:#CC3366;}
</style>
<g>
	<g>
		<path class="st2" d="M177.2,199.3c0-11,5.8-13.6,15.4-13.6h12.6c15.3,0,17.3,3.5,17.2,14.2h-10.7v-1c0-2.7-1.8-3.5-5-3.5H195
			c-5.7,0-6.7,2.9-6.7,7.5v4.1c0,5.5,1.1,7.5,6.1,7.5h11.5c4.8,0,6.3-0.5,6.3-5.2h10.7v3.5c0,6.3-2.1,11.3-12.9,11.3h-17.3
			c-9.7,0-15.4-2.6-15.4-13.6V199.3z"/>
		<path class="st2" d="M228.7,211.4h10.7c0,4,1.5,4.3,4.6,4.3h13.2c2.3,0,4.6-0.3,4.6-3.2c0-3.3-1.3-3.5-15.1-3.5
			c-16.2,0-18-2.1-18-11.3c0-6.8,0.6-12.1,14.1-12.1h15c12.4,0,13.5,4.5,13.5,11.1v1.2h-10.7c0-2.8-0.3-3.9-5.2-3.9h-11.9
			c-2.4,0-4.1,0.9-4.1,2.9c0,3.3,1.3,3.4,12.8,3.3c16.7-0.1,20.6,1,20.6,12c0,10.1-3.2,11.8-17.5,11.8h-13c-9.8,0-13.7-2-13.7-10.1
			V211.4z"/>
		<path class="st2" d="M279.5,186.1h10.7v21.7c0,4.8,1.6,6.7,6,6.7h10.6c4.4,0,6-1.9,6-6.7v-21.7h10.7v24.2
			c0,9.4-4.5,13.8-14.4,13.8h-15.4c-9.9,0-14.4-4.5-14.4-13.8V186.1z"/>
		<polygon class="st2" points="330.9,186.1 347.5,186.1 367.6,213.4 367.7,213.4 367.7,186.1 378.5,186.1 378.5,223.7 361.8,223.7 
			341.7,196.4 341.6,196.4 341.6,223.7 330.9,223.7 		"/>
		<path class="st2" d="M35,187.6h5.8v25.5c0,1.8-0.1,3.3-0.4,4.4c-0.6,2.6-2.5,4.5-5.7,5.6c-1.6,0.5-3.2,0.9-4.7,1
			c-2.5,0.2-5.8,0.3-10,0.3c-3.4,0-6-0.1-7.8-0.2c-1.7-0.1-3.3-0.4-4.6-0.7c-3-0.8-5.1-2-6.2-3.7c-0.9-1.4-1.4-3.6-1.4-6.7v-25.5
			h5.8v25.5c0,2.7,0.4,4.5,1.1,5.3c0.9,1.1,2.6,1.8,5.2,2.1c1.4,0.2,4,0.3,7.7,0.3c5.5,0,9.2-0.2,11.1-0.7c1.9-0.4,3.1-1.5,3.6-3.1
			c0.3-0.9,0.5-2.2,0.5-3.9V187.6z"/>
		<polygon class="st2" points="94,187.6 94,224.5 84.2,224.5 54.8,191.1 54.8,224.5 48.9,224.5 48.9,187.6 58.6,187.6 88.1,221.1 
			88.1,187.6 		"/>
		<polygon class="st2" points="106.6,187.6 106.6,220.5 133.1,220.5 133.1,224.4 100.8,224.4 100.8,187.6 		"/>
		<polygon class="st2" points="168.2,187.4 174.6,187.4 155.8,224.3 147.2,224.3 128.1,187.4 134.6,187.4 151.5,221 		"/>
		<path class="st2" d="M12.5,232.8h-2c0-0.7,0-1.2-0.1-1.5c-0.1-0.6-0.5-0.9-1.1-1.1c-0.4-0.1-1.1-0.2-2.1-0.2
			c-1.4,0-2.4,0.1-2.8,0.2c-0.5,0.1-0.9,0.4-1,0.8c-0.2,0.3-0.2,0.8-0.2,1.5c0,0.6,0.1,1.1,0.3,1.5c0.2,0.4,0.6,0.7,1.4,0.7
			c0.3,0,1.1,0.1,2.4,0.1c1.5,0.1,2.5,0.1,3.1,0.2c1.1,0.2,1.8,0.7,2.2,1.6c0.2,0.5,0.4,1.4,0.4,2.5c0,1.2-0.1,2.1-0.4,2.7
			c-0.3,0.7-1,1.3-1.9,1.6c-0.6,0.2-2.1,0.3-4.3,0.3c-1.4,0-2.4-0.1-3-0.3c-1.1-0.3-1.7-1-2-2c-0.2-0.5-0.2-1.5-0.3-2.8h2v0.6
			c0,0.8,0.1,1.3,0.2,1.6c0.2,0.5,0.5,0.9,1,1c0.4,0.1,1.2,0.1,2.6,0.1c1.4,0,2.3-0.1,2.7-0.2c0.6-0.1,1-0.4,1.1-0.8
			c0.1-0.4,0.2-1,0.2-1.9c0-1-0.3-1.7-0.8-1.9c-0.2-0.1-0.6-0.2-1.1-0.2c-0.1,0-0.8,0-2.1-0.1c-1.4-0.1-2.3-0.1-2.5-0.2
			c-1.1-0.2-2-0.6-2.5-1.3c-0.5-0.6-0.7-1.5-0.7-2.7c0-1.7,0.4-2.9,1.2-3.5c0.6-0.5,1.4-0.7,2.3-0.8c0.7-0.1,1.5-0.1,2.4-0.1
			c1.5,0,2.5,0.1,3.1,0.2c1.3,0.3,2.1,1.1,2.4,2.3C12.4,231.1,12.5,231.8,12.5,232.8"/>
		<polygon class="st2" points="27.6,230.3 27.6,243.5 25.5,243.5 25.5,230.3 20.5,230.3 20.5,228.4 32.5,228.4 32.5,230.4 		"/>
		<path class="st2" d="M52.8,228.4h2v10.5c0,0.8,0,1.4-0.1,1.8c-0.2,1.1-0.8,2-1.7,2.4c-0.5,0.2-0.9,0.4-1.4,0.4
			c-0.8,0.1-1.8,0.1-3.2,0.1c-1.1,0-1.8,0-2.3-0.1c-0.5-0.1-1-0.2-1.4-0.3c-0.9-0.3-1.5-0.9-1.9-1.6c-0.3-0.6-0.4-1.5-0.4-2.8v-10.5
			h2v10.5c0,1.1,0.1,1.8,0.3,2.1c0.2,0.4,0.7,0.7,1.4,0.8c0.4,0.1,1.2,0.1,2.3,0.1c1.7,0,2.8-0.1,3.3-0.3c0.5-0.2,0.8-0.5,0.9-1.2
			c0.1-0.3,0.1-0.9,0.1-1.6V228.4z"/>
		<path class="st2" d="M66.2,243.5v-15.1h7.4c1,0,1.8,0.1,2.4,0.3c1,0.2,1.8,0.9,2.4,1.9c0.4,0.7,0.6,1.7,0.7,3c0,0.4,0,1,0,1.7
			c0,1.7,0,2.9-0.1,3.6c-0.2,1.9-0.9,3.2-2.2,3.9c-0.3,0.1-0.7,0.3-1.3,0.4c-0.6,0.1-1.1,0.2-1.5,0.2H66.2z M68.2,241.6h5
			c1.6,0,2.6-0.3,3.1-0.8c0.4-0.5,0.6-1.3,0.7-2.4c0-0.5,0.1-1.2,0.1-2.2c0-1.7,0-2.9-0.1-3.6c-0.2-1.2-0.7-1.9-1.5-2.2
			c-0.5-0.2-1.1-0.2-1.9-0.2h-5.3V241.6z"/>
		<polygon class="st2" points="89.9,230.2 89.9,234.8 97.8,234.8 97.8,236.6 89.9,236.6 89.9,241.6 98.1,241.6 98.1,243.5 
			87.9,243.5 87.9,228.4 98.1,228.4 98.1,230.2 		"/>
		<polygon class="st2" points="122.4,228.4 122.4,243.5 119.4,243.5 111.1,230.3 111.1,243.5 109.1,243.5 109.1,228.4 112.1,228.4 
			120.4,241.6 120.4,228.4 		"/>
		<polygon class="st2" points="137.5,230.3 137.5,243.5 135.4,243.5 135.4,230.3 130.4,230.3 130.4,228.4 142.4,228.4 142.4,230.4 
					"/>
		<path class="st2" d="M166.7,235.8h6.7c0,0.6,0.1,1.2,0.1,1.7c0,1.4,0,2.5-0.1,3.1c-0.1,1-0.6,1.8-1.3,2.3
			c-0.5,0.4-1.1,0.6-1.8,0.7c-0.8,0.1-1.9,0.1-3.2,0.1c-1.2,0-2,0-2.6-0.1c-0.5-0.1-1.1-0.2-1.5-0.4c-0.9-0.4-1.5-0.9-1.8-1.6
			c-0.3-0.6-0.5-1.4-0.6-2.2c0-0.6,0-1.3,0-2.1c0-0.2,0-0.7,0-1.6v-0.6c0-1.1,0-2,0.1-2.6c0.2-2.1,1-3.4,2.3-4
			c0.5-0.2,1.2-0.4,2.1-0.4c0.5,0,1.2,0,1.9,0c1.5,0,2.5,0,3,0.1c0.5,0,1,0.1,1.4,0.3c1.1,0.4,1.8,1.1,2,2.1
			c0.1,0.4,0.1,1.2,0.1,2.4h-2c0-1.1-0.1-1.9-0.3-2.2c-0.2-0.3-0.5-0.6-1.1-0.7c-0.5-0.1-1.6-0.1-3.3-0.1c-1.3,0-2.2,0.1-2.8,0.2
			c-0.5,0.1-0.8,0.4-1,0.8c-0.2,0.4-0.3,1.1-0.4,2.1c0,0.6,0,1.5,0,2.5c0,2.1,0,3.5,0.1,4.1c0.1,0.7,0.3,1.2,0.7,1.5
			c0.4,0.3,0.9,0.4,1.6,0.4c0.8,0.1,1.6,0.1,2.4,0.1c1.4,0,2.4-0.1,2.8-0.2c0.4-0.1,0.6-0.2,0.8-0.4c0.2-0.2,0.3-0.4,0.3-0.8
			c0.1-0.5,0.2-1.3,0.2-2.3c0-0.1,0-0.3,0-0.6h-4.7V235.8z"/>
		<path class="st2" d="M188.7,228.2c1.2,0,2.1,0,2.7,0.1c0.6,0.1,1.1,0.2,1.6,0.4c1.3,0.5,2,1.8,2.3,3.7c0.1,0.5,0.1,1.5,0.1,3
			c0,2.2,0,3.6-0.1,4.2c-0.2,1.2-0.5,2.1-1,2.7c-0.5,0.6-1.3,1-2.3,1.2c-0.5,0.1-1.6,0.2-3.3,0.2c-1.8,0-2.9-0.1-3.5-0.3
			c-0.9-0.2-1.5-0.6-1.9-1.1c-0.6-0.7-0.9-1.7-1-3.2c0-0.5-0.1-1.7-0.1-3.7c0-1.5,0-2.5,0.1-3c0.2-1.9,1-3.1,2.3-3.7
			c0.6-0.2,1.3-0.4,2.2-0.5C187.2,228.2,187.9,228.2,188.7,228.2 M188.7,230.1c-1.6,0-2.6,0.1-3,0.2c-0.4,0.1-0.7,0.3-1,0.5
			c-0.2,0.2-0.4,0.6-0.5,1c-0.1,0.5-0.2,1.1-0.2,1.8v2.3c0,1.8,0,2.9,0.1,3.2c0.1,1.2,0.5,2,1.1,2.3c0.3,0.2,0.7,0.2,1,0.3
			c0.6,0,1.4,0.1,2.4,0.1c1.6,0,2.6-0.1,3-0.2c0.4-0.1,0.7-0.3,0.9-0.5c0.4-0.4,0.6-1.2,0.7-2.3c0-0.2,0-1.2,0-2.9
			c0-1.8,0-2.9-0.1-3.2c-0.1-1.2-0.5-2-1.1-2.3c-0.3-0.2-0.7-0.2-1-0.3C190.5,230.1,189.7,230.1,188.7,230.1"/>
		<polygon class="st2" points="215.3,228.4 217.5,228.4 212,243.5 209.3,243.5 203.7,228.4 205.9,228.4 210.6,241.3 		"/>
		<polygon class="st2" points="228.5,230.2 228.5,234.8 236.4,234.8 236.4,236.6 228.5,236.6 228.5,241.6 236.7,241.6 236.7,243.5 
			226.5,243.5 226.5,228.4 236.7,228.4 236.7,230.2 		"/>
		<path class="st2" d="M246.6,243.5v-15.1h7.6c1.3,0,2.4,0.2,3,0.7c0.6,0.4,1,1,1.2,1.8c0.1,0.5,0.2,1.1,0.2,1.9
			c0,1.6-0.3,2.7-0.8,3.2c-0.4,0.4-0.9,0.6-1.6,0.7c1.5,0.1,2.2,1,2.2,2.9v3.9h-2v-3.6c0-0.9-0.2-1.6-0.6-1.9
			c-0.3-0.2-0.6-0.4-1.1-0.4c-0.1,0-0.4,0-0.8,0h-5.2v5.9H246.6z M248.7,235.7h5c1,0,1.8-0.1,2.2-0.4c0.5-0.3,0.8-1,0.8-2
			c0-1.3-0.1-2.1-0.4-2.5c-0.3-0.4-1-0.6-2.1-0.6h-5.6V235.7z"/>
		<polygon class="st2" points="282.6,228.4 282.6,243.5 279.6,243.5 271.3,230.3 271.3,243.5 269.3,243.5 269.3,228.4 272.3,228.4 
			280.6,241.6 280.6,228.4 		"/>
		<polygon class="st2" points="309.7,228.4 309.7,243.5 307.6,243.5 307.6,230.3 302.2,243.5 300.3,243.5 294.9,230.3 294.9,243.5 
			292.8,243.5 292.8,228.4 296,228.4 301.2,241.2 306.5,228.4 		"/>
		<polygon class="st2" points="322.5,230.2 322.5,234.8 330.3,234.8 330.3,236.6 322.5,236.6 322.5,241.6 330.7,241.6 330.7,243.5 
			320.4,243.5 320.4,228.4 330.7,228.4 330.7,230.2 		"/>
		<polygon class="st2" points="353.6,228.4 353.6,243.5 350.6,243.5 342.3,230.3 342.3,243.5 340.3,243.5 340.3,228.4 343.3,228.4 
			351.6,241.6 351.6,228.4 		"/>
		<polygon class="st2" points="370.8,230.3 370.8,243.5 368.8,243.5 368.8,230.3 363.8,230.3 363.8,228.4 375.8,228.4 375.8,230.4 
					"/>
	</g>
	<g>
		<path class="st2" d="M325.4,63.9c-1.7-2.6-3.6-4.9-6-6.9c-5.6-4.8-12.3-7.6-19.3-9.5c-7.8-2.1-15.8-2.9-23.9-3.2
			c-0.7,0-1.2,0.2-1.8,0.6c-7.6,5.4-15.4,10.5-23.4,15.2c-7.3,4.3-14.8,8.4-22.8,11.2c-0.9,0.3-1.1,0.1-1.4-0.7
			c-3.4-10-8.4-19.1-14.7-27.5c-1.5-2-3.2-3.4-5.6-4c-0.9-0.2-1.4-0.2-2.1,0.5c-3.1,3.3-6.4,6.4-9.5,9.7c-0.5,0.5-0.8,0.6-1.3-0.1
			c-2.1-2.8-4.6-5.2-7.1-7.7c-0.2-0.2-0.4-0.5-0.7-0.4c-1.7,0.7-3.5,0.7-4.9,2.3c-5.9,6.7-10.4,14.2-14.1,22.2
			c-0.2,0.5-0.4,1-0.7,1.5c-0.2,0.4-0.4,0.9-0.7,1.5c-0.1-0.4-0.2-0.6-0.2-0.8c-1.9-9.9,0.1-18.9,5.8-27.2c0.5-0.8,0.6-1.3,0.2-2.2
			c-6.6-12.9-6.2-25.5,1.7-37.7c0.1-0.2,0.4-0.4,0.2-0.7c-0.4,0.1-0.9,0.1-1.3,0.2c-10.6,2-20.2,6.1-28.3,13.5
			c-10,9.1-15.1,20.4-14.4,34c0.5,9,3.4,17,9,24c1.8,2.3,3.9,4.4,6.2,6.5c-0.6,0.1-0.9,0-1.2-0.1c-4.6-1.2-9-2.7-13.4-4.5
			c-12.9-5.4-24.9-12.5-36.1-20.8c-0.4-0.3-0.8-0.7-1.5-0.6c-6.5,0.6-12.3,2.9-17.4,7c-6.3,5-10.4,11.5-13.6,18.8
			c-1.3,3-1.4,5.7-0.2,8.9c7,17.8,17.6,33,32.3,45.3c0.7,0.6,1.1,1.1,0.8,2.2c-0.6,2.5-0.7,5.2-0.4,7.8c0.9,7.9,4.8,14.2,10.9,18.9
			c12.8,9.8,26.9,11.2,42,6.5c1-0.3,1.3-0.2,1.8,0.7c3.4,6.3,9.8,9.4,16.8,8.2c2.9-0.5,5.5-1.7,8-3.4c2.4-1.6,5.1-2.4,8.1-2.1
			c3.1,0.3,6,1.5,8.4,3.4c2.9,2.4,6.2,3.6,10,3.4c7.8-0.3,15.2-2.3,22-6.2c4.8-2.8,8.7-6.4,10.4-11.9c0.2-0.7,0.7-0.4,1.1-0.3
			c13.4,3.7,26.9,4.8,40.6,2.7c7.7-1.2,15.1-3.4,21.7-7.6c10.8-6.8,16.7-16.5,16.8-29.5c0-5.4-1.2-10.6-3.2-15.7
			c-0.3-0.6-0.2-1.1,0.2-1.7c1.2-1.8,2.4-3.6,3.6-5.5c6.4-9.9,11.3-20.3,13.6-31.9C326.8,67.8,326.6,65.8,325.4,63.9z M183.3,47.5
			c0.6,0,0.8,0.5,1.1,0.9c2.5,3.3,5.1,6.6,8,9.6c0.7,0.7,1.1,0.6,1.7,0c3.2-3.2,6.6-6.2,9.6-9.6c0.6-0.7,1.3-0.6,2.1-0.3
			c1.3,0.6,2.3,1.7,3.2,2.8c2.9,3.6,5,7.8,7,12c1.7,3.5,3.2,7.1,4.7,10.7c0.1,0.2,0.1,0.3,0.1,0.5c0,0,0,0,0,0h0c0,0,0,0,0,0
			c0,0,0.1,0.1,0.1,0.1c0,0-0.1,0-0.1,0c0,0,0-0.1,0-0.1c0,0,0,0,0,0c0,0,0,0,0,0c-0.8-0.2-1.6-0.5-2.4-0.8
			c-0.8-0.3-1.6-0.6-2.5-0.8c-6.6-1.6-13.2-1.9-20-1.8c-1.6,0-3.1,0-4.7,0c4.2-4.1,8-8.5,11-13.6c-0.5-0.3-0.6,0.2-0.9,0.3
			c-2.8,2.4-5.8,4.7-8.8,6.9c-0.7,0.5-1.1,0.5-1.6-0.1c-4.1-4.1-6.6-8.9-7.4-14.6C183.4,48.9,183.2,48.2,183.3,47.5z M214.6,76.8
			c-14.2,4.9-28.8,7.3-43.8,6.7C184.5,75.2,199.2,74.2,214.6,76.8z M161.4,33.3c0.1,0.4,0.3,0.8,0.4,1.2c0.6,1.5,0.6,1.6-0.9,2
			c-4.1,1.1-7.9,2.7-11.4,5.2c-0.2,0.1-0.4,0.4-0.9,0.3c1.1-8.8,4.6-16.4,10.8-23.2c0,2.1,0.2,3.8-1.4,5.2c-0.5,0.5-1,1-1.4,1.7
			c-0.4,0.6-0.8,1.3-1,2c0,0.1,0,0.2,0.1,0.3c0,0.1,0.1,0.1,0.2,0.2c0.1,0,0.1,0,0.2,0c1-0.6,2-1.2,2.9-1.8c0.5-0.3,0.7-0.3,0.8,0.4
			c0.5,2.4,0.5,2.4-1.6,3.8c-1.9,1.2-3.5,2.7-5,4.8c1.1-0.1,1.8-0.7,2.6-1c1.4-0.6,2.8-1,4.2-1.6C160.8,32.3,161.2,32.5,161.4,33.3z
			 M161.7,78.4c-5.6-5.5-9.5-12-11.7-19.5c-0.7-2.6-1.2-5.3-1.5-8c-0.1-0.6,0.1-1.1,0.4-1.6c2-3.2,5-5,8.3-6.5
			c1.5-0.6,2.9-1.2,4.6-1.5C155.3,53.7,155.6,66.1,161.7,78.4z M155.3,78.6c0,0.1-0.1,0.1-0.1,0.1c0,0-0.1-0.1-0.1-0.1
			C155.2,78.6,155.2,78.6,155.3,78.6C155.3,78.5,155.3,78.6,155.3,78.6z M141,27.1c3.9-6.6,9.3-11.5,16.2-14.7c1-0.4,2-0.7,3-1.1
			c-8.2,7.1-13.4,15.9-15.6,26.8c-1.2-2.1-2.2-4.1-3.7-5.6C139,30.4,140,28.8,141,27.1z M140.6,63.1c-4.4-8.7-5.4-17.8-3.1-27.2
			c0.4,0,0.5,0.2,0.5,0.3c2.7,4,4.9,8.2,5.7,13c0.5,3.2,0.7,6.4,1.5,9.5c1.7,7,4.9,13.2,9.4,18.9c0.2,0.2,0.3,0.4,0.5,0.6
			c0,0,0,0.1,0,0.4C148.7,74.8,143.9,69.6,140.6,63.1z M144.5,78.4L144.5,78.4L144.5,78.4L144.5,78.4z M144.1,148
			c-0.3,1.1-0.6,2.3-0.4,3.5c0.3,1.8,0.3,3.7,0.9,5.4c0.2,0.6-0.3,0.7-0.7,0.8c-4.8,2.1-9.7,3.2-14.9,3.2c-7.3,0-14-2-19.8-6.5
			c-5.5-4.3-8-10.3-8.5-17.1c0-0.1,0.1-0.1,0.1-0.3c0.3,0.5,0.5,1,0.8,1.4c1.9,2.7,4.2,4.9,7.4,5.9c4.3,1.4,8.3,0.3,12.1-1.7
			c5.2-2.7,9.3-6.7,13.2-10.9c5.3-5.7,11.2-10.7,18.5-13.7c7.1-3,14.3-3.7,21.6-0.9c0.7,0.3,1.5,0.7,2.2,1c-0.2,0.5-0.6,0.5-0.9,0.6
			c-1.8,0.8-3.5,1.8-4.9,3.2c-2.4,2.5-3.4,5.4-2.7,8.8c0.1,0.7,0,1-0.7,1.3c-3.6,1.5-7.3,2.6-11,3.6
			C149.8,137.3,145.8,141.5,144.1,148z M176.1,113.1c-0.4-0.2-0.8-0.3-1.1-0.4c-0.9-0.2-1.5-0.7-1.4-1.8c0.1-1,0.8-1.3,1.6-1.5
			c0.5-0.2,1.1-0.2,0.8,0.7C175.8,111,176,112,176.1,113.1z M174,106.6c-0.2,0-0.4,0.1-0.7,0.1c-2.6,0.6-3.4,1.7-2.8,4.5
			c-3-0.7-5.9-0.8-9-0.5c2.1-1.4,2-3.8,3-5.6c1.2-2.2,3.4-2.7,5.7-2.9c2.4-0.2,4.9,0,7.3,0.5c0.8,0.2,0.9,0.4,0.4,1
			c0,0,0,0.1-0.1,0.1C177.2,105.7,176.3,107.1,174,106.6z M224.6,154.2c-1.1,2.2-2.8,3.9-4.8,5.4c-4.3,3.1-9.2,4.9-14.4,5.9
			c-1.7,0.3-3.3,0.6-5,0.8c-3.1,0.3-5.7-0.7-7.8-3c-1.6-1.8-3-3.8-4.3-5.8c-1.4-2.1-2.9-4-5.1-5.4c-2.7-1.6-5.6-1.9-8.8-0.6
			c5.5,1,8.3,4.5,10.4,9.4c-1.5-0.5-2.7-1.1-4-1.3c-4.1-0.6-7.8,0.6-11.2,2.8c-1.5,1-3.1,1.9-4.8,2.4c-3.8,1.1-7.3,0-9.5-3.2
			c-2.2-3.3-3.8-6.8-4.2-10.8c-0.5-5.2,1.7-8.7,6.7-10.4c2.6-0.9,5.3-1.3,7.8-2.3c3.4-1.3,6.6-2.9,9.1-5.7c0.2-0.2,0.4-0.4,0.5-0.6
			c1.3-1.7,1.3-1.8-0.4-3.1c-1.8-1.4-1.8-2.8,0-4.1c2.6-1.9,5.5-2.8,8.6-3.3c5.5-1,11-1.1,16.5-0.7c0.7,0,1.4,0.2,2,0.5
			c0.9,0.5,1.4,1.2,1.3,2.3c-0.2,1.4,0.2,1.9,1.5,2.2c0.9,0.2,1.8,0.3,2.6,0.1c0.9-0.2,1.5,0,2.2,0.6c6.4,5,11.7,10.8,15,18.3
			C225.8,147.7,226.3,150.9,224.6,154.2z M193.8,106.1c0.8,0.3,1.5,0.6,2,1.2c1,1.1,0.8,2.2-0.5,2.8c-1.8,0.7-3.4,1.6-5,2.7
			c-0.3-1.4,0.3-2.5,1.2-3.6c-1.3-0.5-2.5-0.3-3.7,0c-0.6,0.2-0.9,0.4-0.7,1.2c0.7,2.4-0.6,4.6-2.8,5.3c-2.2,0.7-4.7-0.6-5.4-2.9
			c-0.4-1.1-0.3-2.3,0.2-3.3c1.9-3.7,3.8-7.4,5.6-11c0.6-1.3,1.2-1.3,2.1-0.3c1,1,1.8,2.5,3,3c1.2,0.4,2.6-0.8,3.9-1.3
			c4.6-1.5,9.2-2.4,14-1.1c3.2,0.9,5.8,2.7,7.6,5.7c-1.6,0.2-3,0.3-4.5,0.5c-2.6,0.3-4.9,1.4-7.5,1.6c-2.3,0.2-4.6-0.1-6.6-1.3
			c-1.7-1-3.5-1.6-5.5-1.3c-1.4,0.2-2.6,0.8-3.6,2.1C189.7,105.4,191.7,105.4,193.8,106.1z M300.2,138.1c-3.8,4.5-8.8,7.1-14.2,9.3
			c-7.1,2.8-14.5,4.1-22.1,4.2c-10.8,0.2-21.1-1.9-31.1-5.8c-0.4-0.2-0.8-0.3-1-0.7c-1.4-2.5-2.9-4.9-4.3-7.4c-2-2.8-4-5.7-6.3-8.3
			c-2.7-3-5.6-5.9-9.4-7.6c-1.1-0.5-2.2-0.8-3.4-0.8c-0.3,0-0.6,0.2-0.7-0.3c-0.2-1.4-1.3-1.9-2.4-2.4c-2.3-0.9-4.8-1.1-7.2-1.2
			c-0.6,0-1.3,0-2.2,0c2.3-2,4.7-3.3,7.2-4.4c6.9-2.9,14.1-3.5,21.4-2.6c10.6,1.2,20.3,5.1,29.6,10.1c7,3.8,14.2,7.1,21.9,8.9
			c6,1.4,11.9,2,18,0.4c4.1-1.1,7.6-3.1,10.2-6.4c0.1-0.1,0.1-0.1,0.2-0.2c0,0.1,0.1,0.1,0.1,0.2c0,0.2,0.1,0.3,0.1,0.5
			C305.4,129,303.7,133.8,300.2,138.1z M223.9,102.5c0.7-0.9,1.4-1.8,2.4-2.4c1.4-0.9,2.6-0.7,3.7,0.5c1.6,1.7,2.2,3.8,2.9,6.2
			c-2.9-0.9-5.5-1.6-8.2-2.1C222.6,104.3,222.6,104.3,223.9,102.5z M314.7,63.1c-9.5-2.8-19.2-4.4-29.1-5.1
			c-2.6-0.2-5.1-0.2-7.7-0.4c-0.9-0.1-1.6,0.2-2.3,0.8c-14.4,11-30.2,19.7-47.2,26c-11.9,4.4-24.1,7.5-36.8,8.8
			c-11,1.1-22,1.2-33.1,0.1c-14.8-1.4-29.1-5.1-42.6-11.3c-8.3-3.8-16-8.7-23.7-13.7c-0.3-0.2-0.7-0.4-1-0.6
			c-1.5-1.5-3.1-1.2-4.8-0.6c-6.3,2.3-11.8,6-16.9,10.3c-0.3,0.3-0.6,0.8-1.2,0.6c1.9-2.9,3.8-5.6,6-8.1c3.2-3.6,6.8-6.8,11.4-8.5
			c0.9-0.4,1.9-0.6,2.9-0.8c1.2-0.2,2.2-0.2,3.3,0.7c11.5,9.1,24.3,15.8,38.1,20.6c12,4.2,24.4,6.6,37.2,7.3
			c18.2,0.9,36-1.8,53.3-7.6c15.7-5.3,30.3-12.8,44.1-21.8c3.8-2.5,7.5-5.1,11.2-7.8c0.4-0.3,0.7-0.5,1.2-0.4
			c11.1,1.5,22.2,3.4,32.6,8c1.5,0.7,2.9,1.5,4.3,2.4c0.5,0.4,1,0.8,1.6,1.2C315.2,63.4,315,63.2,314.7,63.1z"/>
		<path class="st2" d="M195.3,126.7c-3.8,0.2-7.6,0.6-11.4,1.4c-0.5,0.1-0.9,0.3-0.9,0.9c0.1,0.6,0.6,0.7,1.1,0.7
			c0.8-0.1,1.6-0.1,2.4-0.1c1.1,0,2.1,0,3.2,0.2c0.3,0.1,0.7,0.1,1,0.2c2.3,0.6,2.7,1.6,1.6,3.6c-0.3,0.5-0.3,0.8,0.1,1.2
			c0.4,0.3,0.8,0.1,1.1-0.2c2-1.8,2.9-4.1,2.9-6.8C196.6,127,196.1,126.6,195.3,126.7z"/>
	</g>
</g>
</svg>
