<?xml version="1.0" encoding="utf-8"?>
<!-- Generator: Adobe Illustrator 19.0.1, SVG Export Plug-In . SVG Version: 6.00 Build 0)  -->
<svg version="1.1" id="Layer_1" xmlns="http://www.w3.org/2000/svg" xmlns:xlink="http://www.w3.org/1999/xlink" x="0px" y="0px"
	 viewBox="0 0 714 340.2" style="enable-background:new 0 0 714 340.2;" xml:space="preserve">
<style type="text/css">
	.st0{fill:#272223;}
	.st1{fill:#FFFFFF;}
	.st2{fill:#EC1C24;}
	.st3{fill:#CC2036;}
	.st4{clip-path:url(#SVGID_2_);}
	.st5{clip-path:url(#SVGID_6_);}
	.st6{clip-path:url(#SVGID_10_);}
	.st7{clip-path:url(#SVGID_14_);}
	.st8{clip-path:url(#SVGID_18_);}
	.st9{clip-path:url(#SVGID_20_);}
	.st10{opacity:0.33;fill:#EC1E24;}
	.st11{opacity:0.5;fill:#EC1E24;}
	.st12{opacity:0.33;fill:#5D52A2;}
	.st13{opacity:0.33;fill:#EC248F;}
	.st14{opacity:0.42;fill:#EC248F;}
	.st15{fill:#333333;}
	.st16{clip-path:url(#SVGID_22_);}
	.st17{clip-path:url(#SVGID_26_);}
	.st18{clip-path:url(#SVGID_30_);}
	.st19{clip-path:url(#SVGID_34_);}
	.st20{fill:url(#SVGID_45_);}
	.st21{opacity:0.27;clip-path:url(#SVGID_47_);}
	.st22{fill:#CA2027;}
	.st23{clip-path:url(#SVGID_49_);}
	.st24{clip-path:url(#SVGID_51_);fill:#231F20;}
	.st25{clip-path:url(#SVGID_51_);fill:#EC1C24;}
	.st26{fill:#F5CBC0;}
	.st27{fill:#EDC8BF;}
	.st28{fill:#E8C6C1;}
	.st29{fill:#C4B0AD;}
	.st30{fill:#D81F45;}
	.st31{opacity:0.5;fill:#6598CB;}
	.st32{opacity:0.5;fill:#CC6666;}
	.st33{fill:#B0CBE4;}
	.st34{fill:#C59BA4;}
	.st35{fill:#E4B1B2;}
	.st36{opacity:0.5;fill:none;stroke:#6598CB;stroke-width:2.1265;stroke-miterlimit:10;}
	.st37{fill:none;stroke:#E4B1B2;stroke-width:2.1265;stroke-miterlimit:10;}
	.st38{fill:#993333;}
	.st39{fill:#663433;}
	.st40{fill:#231F20;}
	.st41{fill:#5D5D5D;}
	.st42{fill:#CCCBCB;}
	.st43{fill:#989898;}
	.st44{fill:none;stroke:#CCCBCB;stroke-width:1.6911;stroke-miterlimit:10;}
	.st45{fill:#CC3366;}
	.st46{clip-path:url(#SVGID_63_);}
	.st47{fill:#91D8F7;}
	.st48{fill:url(#SVGID_64_);}
	.st49{fill:url(#SVGID_65_);}
	.st50{fill:url(#SVGID_66_);}
	.st51{fill:url(#SVGID_67_);}
	.st52{fill:url(#SVGID_68_);}
	.st53{fill:url(#SVGID_69_);}
	.st54{fill:url(#SVGID_70_);}
	.st55{fill:url(#SVGID_71_);}
	.st56{fill:url(#SVGID_72_);}
	.st57{fill:url(#SVGID_73_);}
	.st58{fill:#F1F1F2;}
</style>
<rect x="-279.9" y="-32.5" class="st1" width="1280" height="405.2"/>
<g>
	<g>
		<g>
			<path class="st38" d="M433.6,149.6L433.6,149.6C433.6,149.6,433.6,149.6,433.6,149.6c0.1,0.3,0.3,0.5,0.5,0.7
				c1.2,1.6,5.3,5.6,17.7,8c4.6,0.9,11.4,1.8,18.7,2.1c2.8,0.2,5.6,0.2,8.4,0.2c0.5,0.1,1,0,1.5-0.1c1.5-0.6,2.8-2,4-0.5
				c1.2,1.4,1,3.9,1.5,5.9c0.1,0.6,0.1,1.2,0.3,1.7c1.4,4.8,1.5,9.1-2.4,13.3c-3.2,3.4-2.6,5,1.6,7.3c2.5,1.4,3.7,3.4,3.5,6.3
				c-0.1,2.9-1,5.6-2.5,8.1c-2.3,3.7-3.7,7.5-3.5,12c0.3,4.5-0.2,9-1.1,13.5c-0.7,3.6-0.1,6.9,3.5,8.9c2,1.2,2.5,2.8,1.6,5.2
				c-1.8,5-2.3,10.4-2.8,15.6c-0.8,8.5-1.5,17-3.9,25.3c-0.4,1.4-0.4,2.7,0.4,4c1.3,2.2,1,4.3-0.2,6.4c-1,1.9-2.2,4-1.7,6.2
				c1,4.7,0.7,9.6,1.9,14.3l0,0c0,0,0.4,11.6,27.7,16c0,0-0.1,0-0.3-0.1c4.3,1.3,8.6,2.5,13,3.6c5.6,1.4,11.3,2.4,17.1,3.3
				c78.6,11.9,111.3-9.3,111.3-9.3v0c3.1-1.5,6.1-3.3,8.8-5.6c7.8-2.8,10.8-12,10.8-12l0,0c0.7-1.3,1.1-2.7,1.2-4.1
				c0.5-11.1-0.1-22-4.3-32.5c-1-2.4-2.7-4.6-2.1-7.5c1.1-6.2,0.4-12.3-1-18.4c-0.4-1.9-1-4.2,1.1-5.8c2.7-2,2.7-4.5,1.7-7.4
				c-1-2.7-2.4-5.2-2.2-8.2c0.4-6.4-1-12.5-2.1-18.7c-0.5-3.2-0.2-5.8,1.9-8.2c2.1-2.4,2.5-5.3,1.4-8.3c-1-2.9-2-5.8-2.9-8.7
				c-1.4-4.8-1.3-4.8,3.2-7.2c3.4-1.8,4.1-3.7,2.7-7.3c-1.2-3-2.4-6-3.6-9.1c-1.9-4.7,0.3-8.9,2-13c0.1-0.3,0.4-0.6,0.7-0.8
				c17.9-0.9,33.7-7.4,41.5-12.1c6-3.6,6-5.5,6-5.5c0.3-0.9-0.1-1.9-0.5-2.9c-1.2-2.9-2.5-5.8-3.6-8.7c-4.4-12.2-7-25-10.6-37.4
				c-3.5-11.9-7.1-23.8-13.4-34.6c-5.2-9-11.9-16.1-22.2-19.2c-8-2.4-16-4.9-24-7.3c-12.2-3.7-24.3-7.6-35-14.7
				c-1.8-1.2-4-1.7-6.1-1.9c0.2,1.1,0.7,2,1.5,2.6c0,0,0,0,0,0s7.4,6.1-4.3,16.4c0,0-21.6,11.9-47.3,9.8c0,0-21.4-6.1-19.7-17.4l0,0
				c1.9-1.1,3.7-2.4,5-4.3c-2.7,0.1-4.9,1-6.6,2.8v0l0,0c-0.1,0.1-0.2,0.3-0.4,0.4c-1.5,1.5-8,7.5-29.1,18
				c-5.4,2.4-10.9,4.6-16.1,7.4c-5.1,2.1-15.9,6.8-17.9,9c0,0-12.2,16.7-17.6,44.9c-4.6,18.7-7.9,38.5-12.5,56c0,0,0,0,0,0
				C433.1,147.2,433.1,148.5,433.6,149.6z"/>
			<g>
				<path class="st39" d="M713.4,123.9c-1.2-2.9-2.5-5.8-3.6-8.7c-4.4-12.2-7-25-10.6-37.4c-3.5-11.9-7.1-23.8-13.4-34.6
					c-5.2-9-11.9-16.1-22.2-19.2c-8-2.4-16-4.9-24-7.3c-12.2-3.7-24.3-7.6-35-14.7c-1.8-1.2-4-1.7-6.1-1.9c0.2,1.1,0.7,2,1.5,2.6
					c0,0,0,0,0,0s7.4,6.1-4.3,16.4c0,0-21.6,11.9-47.3,9.8c0,0-21.4-6.1-19.7-17.4l0,0c1.9-1.1,3.7-2.4,5-4.3
					c-2.7,0.1-4.9,1-6.6,2.8v0l0,0c-0.1,0.1-0.2,0.3-0.4,0.4c-1.5,1.5-8,7.5-29.1,18c-5.4,2.4-10.9,4.6-16.1,7.4
					c-5.1,2.1-15.9,6.8-17.9,9c0,0-12.2,16.7-17.6,44.9c-4.6,18.7-7.9,38.5-12.5,56c0,0,0,0,0,0c-0.5,1.7-0.5,3,0,4l0,0
					c0,0,0,0,0,0.1c0.1,0.2,0.3,0.5,0.4,0.7c1.2,1.6,5.3,5.6,17.7,8c4.6,0.9,11.4,1.8,18.7,2.1c2.8,0.2,5.6,0.2,8.4,0.2
					c0.5,0.1,1,0,1.5-0.1c1.5-0.6,2.8-2,4-0.5c1.2,1.4,1,3.9,1.5,5.9c0.1,0.6,0.1,1.2,0.3,1.7c1.4,4.8,1.5,9.1-2.4,13.3
					c-3.2,3.4-2.6,5,1.6,7.3c2.5,1.4,3.7,3.4,3.5,6.3c-0.1,2.9-1,5.6-2.5,8.1c-2.3,3.7-3.7,7.5-3.5,12c0.3,4.5-0.2,9-1.1,13.5
					c-0.7,3.6-0.1,6.9,3.5,8.9c2,1.2,2.5,2.8,1.6,5.2c-1.8,5-2.3,10.4-2.8,15.6c-0.8,8.5-1.5,17-3.9,25.3c-0.4,1.4-0.4,2.7,0.4,4
					c1.3,2.2,1,4.3-0.2,6.4c-1,1.9-2.2,4-1.7,6.2c1,4.7,0.7,9.6,1.9,14.3l0,0c0,0,0.4,11.6,27.7,16c0,0-0.1,0-0.3-0.1
					c4.3,1.3,8.6,2.5,13,3.6c5.6,1.4,11.3,2.4,17.1,3.3c78.6,11.9,111.3-9.3,111.3-9.3v0c3.1-1.5,6.1-3.3,8.8-5.6
					c7.8-2.8,10.8-12,10.8-12l0,0c0.7-1.3,1.1-2.7,1.2-4.1c0.5-11.1-0.1-22-4.3-32.5c-1-2.4-2.7-4.6-2.1-7.5
					c1.1-6.2,0.4-12.3-1-18.4c-0.4-1.9-1-4.2,1.1-5.8c2.7-2,2.7-4.5,1.7-7.4c-1-2.7-2.4-5.2-2.2-8.2c0.4-6.4-1-12.5-2.1-18.7
					c-0.5-3.2-0.2-5.8,1.9-8.2c2.1-2.4,2.5-5.3,1.4-8.3c-1-2.9-2-5.8-2.9-8.7c-1.4-4.8-1.3-4.8,3.2-7.2c3.4-1.8,4.1-3.7,2.7-7.3
					c-1.2-3-2.4-6-3.6-9.1c-1.9-4.7,0.3-8.9,2-13c0.1-0.3,0.4-0.6,0.7-0.8c17.9-0.9,33.7-7.4,41.5-12.1c6-3.6,6-5.5,6-5.5
					C714.2,125.9,713.8,124.9,713.4,123.9z M712.7,127.5c-17.8,10.5-37.6,13.2-45.6,13.8c0.3-0.8,0.3-1.5,0.4-2.2
					c0.5-2.9,0.3-5.8,0.3-8.8c0-1,0.3-1.7,1.5-1.7c1.2,0,2.5,0,2.7-1.6c0.2-1.7-1.1-2.1-2.3-2.5c-2.2-0.7-2.5-2.1-1.7-4.1
					c-0.1-0.1-0.2-0.2-0.3-0.3c-0.1-0.5-0.4-1-0.3-1.4c1.6-7.5,2.1-15.3,5-22.4c4.1-10.1,5.8-20.4,5-31.2c-0.3-3.5-0.7-7.1-2.8-10.2
					c1.3,4.7,1.1,9.3,0.5,14c-0.6,5.4-1.6,11.2-3,13.2c-0.1-3-0.3-5.9-1.8-8.6c-0.4-0.8-0.9-1.9-1.9-1.5c-1,0.4-0.5,1.5-0.4,2.3
					c0.6,3,0.7,6-0.1,9c-0.3,1-0.6,2-2,1.3c-0.6-0.3-1.3-0.9-1.9-0.3c-0.8,0.7,0,1.5,0.3,2.1c0.2,0.6,0.5,1.1,0.8,1.6
					c0.4,0.8,0.4,1.5-0.4,2.1c-0.8,0.6-1.2-0.2-1.7-0.6c-1.1-0.9-2.2-2-3.5-2.7c-2.6-1.6-3.5-1-3.6,2c0,1.9,0.8,3.4,1.8,4.9
					c1.4,2.1,2.9,4.2,4.2,6.4c1.4,2.3,1.3,2.5,0.6,4.9c-1.6-3.1-3.6-5.7-8.2-6.3c3.3,2.2,4.9,4.7,6.2,7.5c0.3,0.7,1,1.4,0.5,2.2
					c-0.6,0.9-1.6,0.5-2.5,0.4c-0.8-0.1-1.5-0.4-2.2-0.7c-2.6-0.8-5.1-2.2-7.9-2.2c-1.1,0-2.4-0.3-2.8,1c-0.4,1.3-0.6,2.7,0.3,3.9
					c0.5,0.7,1.1,1.4,1.9,1.9c4.1,2.7,7.3,6.6,11.6,9.1c1.7,1,3.5,2.3,2.3,4.4c-1.1,2-3.4,1.8-5.3,1.3c-1.2-0.3-2.3-1.1-3.5-1.6
					c-1.4-0.6-2.9-1.2-4.4-1.7c-1.2-0.4-2.5-0.9-3.4,0.7c-0.8,1.5,0.1,2.4,1.1,3.3c2.8,3,6.6,4.2,10.3,5.6c5.4,2.2,5.4,2.2,5,7.9
					c-0.1,1.6,0,3.2-0.1,4.7c-0.2,2.7-0.5,5.4-0.7,8.4c-0.7-0.6-1.1-0.8-1.4-1.2c-2-2.4-4-4.8-6.1-7.2c-0.4-0.5-1-1.1-1.8-0.8
					c-0.9,0.3-0.6,1.1-0.7,1.8c-0.1,2.2,0.5,4.3,1.8,6.1c2,2.8,4.6,5.2,7,7.6c1.5,1.5,2.8,3.1,3.5,5c0.6,1.6,0.6,2.7-1.6,2.4
					c-2.4-0.3-3.6,0.3-2.6,3.1c0.4,0.9,0.5,2.3-0.6,3c-1,0.6-2.1-0.1-3-0.7c-2.1-1.3-4.1-2.7-6.1-4.1c-0.6-0.4-1.4-1-2.2-0.5
					c-0.7,0.5-0.5,1.5-0.3,2.2c0.8,2.8,1.9,5.5,3.9,7.9c2.6,3.1,5.3,6.1,7.4,9.5c0.3,0.5,1,0.9,0.7,1.5c-0.3,0.7-1.1,0.6-1.6,0.4
					c-3.2-1-3,1-2.9,3c0.1,1.2,0,2.4,0,3.6l0,0c-2.5-1.2-3.3-3.8-4.4-6c-1-2-0.1-1.8-2-3.2c-0.9-0.6-1.9-0.9-2.8-0.3
					c-0.9,0.6-0.3,1.6-0.1,2.4c1,3.5,1,4.3,3.1,7.1c4.6,6,10.2,11.4,10.1,19.7c0,0.9,0.5,1.9-0.3,2.5c-0.8,0.6-1.7,0-2.5-0.4
					c-3.4-1.5-6.1-3.8-8.4-6.7c-3.7-4.7-6.4-10.2-11-14.2c-0.6-0.5-1-1.5-1.9-1.2c-0.9,0.3-1,1.5-1.1,2.3c-0.6,4.2,1.6,7.6,3.7,10.9
					c3.5,5.7,9.1,9.1,14.1,13.2c3.1,2.5,6.3,5,8.1,8.8c1.1,2.2,1,4.2-1,6.2c-2.9,3-6.4,3.3-10.1,2.5c-6.9-1.4-12.9-4.7-18.5-8.9
					c-0.5-0.3-0.9-1-1.5-0.5c-0.3,0.2-0.3,0.9-0.3,1.4c0,2.7,1.3,4.9,3,6.8c4.3,4.8,10.1,6.2,16.1,7.3c2.6,0.5,5.3,0.7,7.8,1.4
					c1.5,0.4,3.5,1,3.8,2.9c0.3,2-1.1,3.2-2.5,4.4c-5.8,4.6-12.4,4.6-19.3,3.5c-3.7-0.6-7.1-2.2-10.7-3.1c-1-0.3-2.6-0.7-3,0.3
					c-0.6,1.4,1.2,1.5,2,2c5.8,3.2,12.2,4.2,18.6,5.3c3.2,0.5,6.3,1.4,9.4,2.4c0.6,0.2,1.2,0.4,1.2,1.1c0.1,0.7-0.5,1-1,1.3
					c-1.3,0.6-2.5,1-3.8,1.7c-3.1,1.5-3.6,4.1-1.2,6.6c1.4,1.5,3.1,2.8,4.7,4c2.5,1.9,5.1,3.6,7,6.3c3.3,4.8,3.9,10.4,4.6,16
					c0.4,3.1,0.7,6.1,1.8,9.3c-1.5,1.6-3,3-4.4,4.1c0.4-0.8,1.1-1.4,1.3-2.3c0.3-1.3,1.6-2.7,0.8-3.8c-0.8-1.2-2.5,0.5-3.9-0.2
					c-0.4-0.2-1.2,0.5-1.8,0.9c-5,2.8-10.1,5.3-14.6,9c-1.3,1-2.8,1.9-4.4,2.4c2.3-2.5,3.5-5.5,3.5-5.5c-6.4,2.3-14.6,4.9-18.2,6.1
					c-6.2-0.4-12.4-1.1-18.6-0.5c-6,0.6-11.5,3.2-17,5.6c-3.1,0.5-7.6,0.8-13.3,0.3c-3.2-1.8-6.3-3.3-10.2-2.4
					c-4.1,0.9-8.2,0.9-12.3,0.4c-0.6-0.5-2-1-5-0.7c-0.7-0.1-1.3-0.2-2-0.3c-2-0.4-4.8-0.5-5.7-1.8c-2-2.7-4.7-3.3-7.5-4.1
					c-6-1.6-12-3.1-18-4.6c-1-0.3-1.9-0.5-2.2-1.6c-0.7-2.4-2.6-3.9-4.6-5.2c-4.2-2.6-8.5-4.9-12.2-8.2c-11.1-9.8-15.9-20-9.2-34.1
					c0.6-1.3,0.8-3.2,3-3.2c2,0,3,1.5,3.8,2.9c1,1.7,2,3.4,3.2,5c1,1.3,1.6,0.7,2-0.4c0.6-2-0.6-3.4-1.6-4.8
					c-1.2-1.7-2.5-3.2-3.7-4.9c-1.5-2.1-1.1-4.4,0.3-6.3c1.4-1.9,3.4-2.3,5.8-1.8c6,1.2,9.4,5.8,13.1,9.9c4.7,5.2,9.3,10.7,17.4,10
					c3.2-0.3,4-1.3,2.9-4.3c-1.3-3.6-3.9-6.1-6.9-8.2c-5.5-3.9-11.5-6.8-17.7-9.2c-1-0.4-2.3-0.9-1.9-2.2c0.3-1.3,1.6-1.5,2.9-1.5
					c2.1,0,4,1.2,6,1.5c1.2,0.2,2.8,1.5,3.4,0.3c0.6-1.1-0.7-2.5-1.6-3.5c-0.6-0.6-1.3-1.2-2.1-1.5c-2.9-1.4-6-2.3-9.3-2.7
					c-2.8-0.4-6.2-0.1-8.1-2.2c-1.9-2.1-4-3-6.4-3.7c-5.8-1.8-8.8-10.2-5.5-15.4c2.3-3.5,5.5-6.1,8.6-8.9c3.7-3.4,8.2-5.8,11.6-9.5
					c1.5-1.6,3.7-3.6,2-5.8c-1.7-2.3-4.5-1.3-6.8-0.4c-0.9,0.4-1.7,1-2.4,1.7c-2.3,2-4.5,4.2-6.8,6.1c-1.8,1.5-3.3,3.4-5.8,3.8
					c0.3-0.7,0.4-1.7,0.9-2.1c3.8-3.2,4.1-7.4,3.8-11.9c-0.1-1.6,0.4-2.8,1.2-4.2c2.3-3.7,6.3-4.5,9.8-6.2c2.7-1.3,3.1-2.8,4.7-5.4
					c1.3-2.1,0.5-3.2-1.9-3.5c-4-0.5-5.1,1.4-8.3,3.5c-2.6,1.7-5.1,3.6-8.2,4.4c-0.1-0.4-0.2-0.5-0.2-0.7c0-0.4,0.1-0.8,0.2-1.2
					c1.3-5.8,2.7-11.5-0.1-17.3c-0.6-1.2,0-2.3,0.9-3.2c1.7-1.7,3.6-3,5.6-4.3c3-2.1,6.5-3.9,7.6-7.9c0.1-0.2,0.3-0.4,0.4-0.6
					c-0.1,0-0.2-0.1-0.2-0.1c-0.1,0.3-0.1,0.5-0.2,0.8c-1.4-0.2-2.1,0.8-3,1.5c-2.9,2.5-5.9,5-9.3,6.7c-0.8,0.4-1.8,1.1-2.7,0.3
					c-2-1.8-1.5-7.9,0.8-9.7c2.9-2.2,6-4.2,8.4-6.9c0.7-0.8,2.1-1.9,1.1-2.9c-0.9-0.8-2.1,0.4-3,1.2c-1.7,1.4-3.2,2.9-4.9,4.2
					c-1.5,1.2-3.2,1.2-4.7,0.2c-1.5-0.9-1.1-2.4-0.4-3.7c0.6-1,0.1-2.5,0.7-3.1c3.1-2.9,1.2-4.7-0.7-7.3c-2-2.7-3.9-6-0.3-9.4
					c1.2-1.1,1.5-3.4,0-4.5c-1.5-1-2.2,1.1-3.1,1.9c-2.7,2.5-3.7,2.3-5-1.1c-1.5-4,0.5-7.5,1.7-11.1c0.7-2.4,2.3-4.5,2.3-7
					c-1.3-0.5-1.6,1.2-2.7,0.9c-0.4-1.3,0.3-2.6-0.6-4c-2.3,3.1-3,6.8-4.7,10.1c-3.1-12.9-5.8-25.7-2.9-39c-1.7,1.9-2,4.2-2.1,6.5
					c-0.1,5.8-0.1,11.6,0.6,17.3c-3.2-9.2-4.6-18.6-4.6-28.3l0,0c0.7-1,0.7-2,0-3.8c-0.1,1.7-0.2,2.6-0.2,3.6
					c-1.3,5.2-0.2,10.3,0.3,15.4c0.5,4.7,2.5,9,2.8,13.8l0,0c-1.9-2.4-0.8-6.1-3.9-8.7c0.6,10.5,6.5,18.6,9.2,27.8
					c-1.4-0.9-2.1-2.3-2.8-3.7c-3.2-6.5-5.4-13.5-8.2-20.2c-0.5-1.3-0.9-3.6-2.5-3c-1.6,0.6-0.3,2.7,0.2,3.9
					c2.4,6.7,5.6,13,8.7,19.4c0.5,0.9,1.6,1.9,0.2,3.1c-2-3.6-3.1-7.6-5.5-10.9c-0.4-0.6-0.8-1.3-1.6-0.9c-0.8,0.4-0.7,1.1-0.5,1.8
					c0.2,0.6,0.2,1.4,0.5,2c3.3,7.2,6.9,14.2,13.3,19.3c1.8,1.4,2.9,3.4,4.3,5.2c0.7,0.8,0.7,1.9,0.1,2.8c-0.4,0.7-1,0.3-1.5,0.1
					c-0.7-0.3-1.5-0.9-2.1,0c-0.5,0.9,0,1.7,0.6,2.4c0.3,0.4,0.7,0.7,1,1.1c0.5,0.6,1.6,1.3,0.7,2.2c-0.7,0.8-1.4-0.1-2-0.6
					c-1.1-0.9-2.1-1.7-3.2-2.6c-1-0.8-2.4-2.5-3.4-1.4c-1.2,1.3,0.5,2.6,1.5,3.6c1.8,1.9,3.8,3.7,5.6,5.7c1.4,1.5,2.5,2.9-0.3,4.3
					c-1.7,0.8-2.1,2.8-0.7,4c2.7,2.5,1.2,3.2-2.2,3.7c3.3,0.8,5.3,2.5,8,2.3c-15.4,1.4-29.6-1.6-41.6-12.1
					c2.4,7.1,18.9,13.3,36.1,13.8c-1.4,0.7-2.5,1.3-2,2.7c0.8,2.2,2.8,0.6,4.6,1.2c-2.2,1.9-4.2,2.8-6.7,2.5
					c-9.7-1.2-19.3-2.9-28.3-6.6c-3.6-1.5-7.5-3.1-7.1-8.8c-0.1,0.2-0.1,0.3-0.2,0.5c1.7-5.4,7-27.1,11.1-45c0.9-3.5,1.9-8,1.9-8
					s4.9-25.1,16.1-41.9l-0.1,0.4c0-0.3,0.7-3.4,10.5-9.1c0.7,0,1.2-0.2,1.4-0.8c1.8-1,3.8-2,6.1-3.1c0,0.1,0.1,0.2,0.1,0.2
					c4-1.9,8.1-3.7,12.1-5.6c2.8-1.2,5.8-2.6,8.6-3.9c0,0,0,0.1,0.1,0.1c3.1-1.6,6.2-3.2,9.4-4.8c0,0,0-0.1,0-0.1
					c0.8-0.5,1.6-0.9,2.4-1.4c0.4-0.1,0.8-0.3,1.1-0.6c0.7-0.4,1.3-0.8,1.9-1.2c0.6,0.1,1-0.2,1.2-0.8c0.2-0.1,0.3-0.2,0.5-0.3
					c0.4-0.2,0.7-0.4,1-0.7c1-0.7,1.8-1.3,2.6-1.9c0.2,0,0.3-0.2,0.4-0.3c0.6-0.5,1.1-1,1.6-1.4c0.1,0,0.2-0.1,0.4-0.2
					c0.2-0.2,0.4-0.4,0.6-0.6c0,0-0.1-0.1-0.1-0.1v0c0,0,0.1,0.1,0.1,0.1c0.2-0.2,0.4-0.4,0.6-0.6c0.1,0,0.3,0,0.4-0.1
					c0.3,0.2,0.7,0.6,0.9,1.2c0,0,0.6,16.2,31.2,17.8c0,0,0.1,0,0.2,0c10.5,1.3,17.8-0.6,27-4.2c2.9-1.1,5.9-2.2,8.1-4.5
					c0.7-0.4,1.3-0.7,2-1.1c0.3-0.2,0.7-0.4,1-0.6c0,0,0.1,0,0.1,0l0,0c1.2-0.8,2.4-1.7,3.3-2.8c4-3.3,8.7-8.7,5.2-13.7
					c0.5-0.5,1.2-0.1,2,0.3c3.6,2,7.2,4.1,11,5.8c12.2,5.4,25.2,8.5,37.8,12.4c5.4,1.6,10.8,3.1,15.6,6.2c1.2,0.8,1.4,1.3,0.7,2.7
					c-1.5,3.1-1.3,6.5-1.4,9.8c1-2.9,2-5.8,2.6-8.7c0.5-2.4,1.2-1.6,2.4-0.5c5,4.6,8.6,10.3,11.5,16.3c5.7,12,9.5,24.8,12.9,37.6
					c3.4,12.7,6.2,25.6,11.7,37.7C712.4,125.4,712.8,126.4,712.7,127.5z"/>
				<path class="st39" d="M547.8,276.1c-9.8,2.7-19.3,6.7-29.3,9.3c6.8,0.2,13.7,0.6,20.6-0.4c4-0.6,7.9-1.6,11.1-4.2
					c1.3-1.1,2.6-2.7,1.8-4.3C551.1,274.5,549.3,275.7,547.8,276.1z"/>
				<path class="st39" d="M609.6,15.5c-0.7-0.4-1.2,0.4-1.6,0.9c-2,2.8-4.3,5.3-7,7.5c-10.6,8.3-22.3,13.9-36.1,14.1
					c-4.8,0.1-9.6-0.3-14.4-1c3.8,1.6,7.8,2.1,11.7,2.2c10.8,0.3,20.8-2.4,30.2-7.6c6.5-3.6,12.5-7.9,16.8-14.1
					C609.6,16.8,610.6,16.1,609.6,15.5z"/>
				<path class="st39" d="M707.9,119.1c-11.2,10.4-23.3,17.7-38.9,19.3C677.4,141.4,705.6,127.4,707.9,119.1z"/>
				<path class="st39" d="M673.7,116.4c1.6-0.9,3.4-1.6,4.6-3c0.4-0.5,0.9-1.2,0.4-1.9c-0.4-0.6-0.9-0.7-1.5-0.4
					c-4.1,2.1-7.7,4.6-9.6,9c0.1,0.1,0.2,0.2,0.3,0.3C669.6,118.8,671.6,117.5,673.7,116.4z"/>
				<path class="st39" d="M522.1,27.2L522.1,27.2c-0.2-0.2-0.4-0.4-0.6-0.6c0-0.5-0.1-0.9-0.6-1.2l0,0c-0.1-0.1-0.3-0.1-0.4-0.2
					c0.1,0.1,0.1,0.3,0.2,0.4c0.2,0.4,0.4,0.8,0.7,1.1l0,0c0.2,0.2,0.4,0.4,0.6,0.6c2.5,4.5,6.8,5.9,11.2,7.2
					c0.1-0.2,0.3-0.4,0.4-0.7C529.8,31.7,525.9,29.4,522.1,27.2z"/>
				<path class="st39" d="M548.9,36.5c-0.1-0.1-0.3-0.3-0.4-0.3c-0.2,0-0.3,0.2-0.5,0.3c0.2,0.1,0.3,0.1,0.5,0.2
					C548.6,36.6,548.7,36.6,548.9,36.5z"/>
				<path class="st39" d="M463.4,55c0,0.1,0.2,0.2,0.3,0.3c0.1-0.2,0.2-0.3,0.2-0.5c0-0.2-0.1-0.3-0.2-0.5
					C463.6,54.6,463.5,54.7,463.4,55z"/>
				<path class="st39" d="M464.7,51c0,0.1,0.1,0.1,0.1,0.2c0.1,0,0.2-0.1,0.2-0.1c0-0.1,0-0.2,0-0.3C464.9,50.9,464.8,50.9,464.7,51
					z"/>
				<path class="st39" d="M464.1,52.8c0,0.1,0.1,0.2,0.1,0.2c0.1,0,0.2-0.1,0.2-0.1c0-0.1,0-0.2,0-0.3
					C464.3,52.6,464.2,52.7,464.1,52.8z"/>
			</g>
		</g>
		<g>
			<g>
				<path class="st1" d="M543.8,125.1c-0.2,0.3-1.3,0.6-1.6,0.2c1.6-2,0.5-2.9-0.4-2.6c-1,0.3-1.2,1.1-1,2.6
					c0.2,1.3,0.9,2.3,0.9,3.8c0.1,1.6-0.4,3-2.4,3.7c-3.1,1.1-4.4-1.6-3.1-3.7c0,0,1.8-0.5,1.5-0.1c-1,2,0.2,3.1,1.2,2.8
					c0.8-0.2,0.8-0.8,0.8-1.9c0-1.1-0.4-1.8-1-3.8c-0.4-1.9,0.6-3.7,2.8-4.5C543.8,120.9,545.6,122.7,543.8,125.1z"/>
				<path class="st1" d="M552,126.1c-1.5,2.8-4.1,6.4-6.9,6.6c-2.8,0.2-3.5-1.9-2.1-4.5c1.1-2.1,2.6-3.1,3.6-3.1
					c1.6-0.1,2.7,1.4,1.2,3.5c-0.9,1.3-2,1.9-3,1.6c-0.3-0.1-0.5-0.2-0.6-0.3c-0.1,0.9,0.3,1.5,1.3,1.4c1.9-0.1,4.2-2.9,6.2-6
					C552,125,552.1,126,552,126.1z M544.7,128.7c0,0.1-0.1,0.1-0.1,0.2c0.6,0.4,1.2-0.1,1.7-0.5c0.7-0.7,1.2-2,0.6-2
					C546.4,126.4,545.4,127.4,544.7,128.7z"/>
				<path class="st1" d="M557,125.9c-0.3,0.3-3.8,4.3-4.7,5.2c-0.9,1-1.5,1.3-2,1.3c-0.7,0-1.1-0.5-0.5-1.7c0.4-0.9,1-2.1,1.5-3.1
					c0.5-1-0.2-1-0.5-1.2c-0.6-0.3-1.6-1.2-0.8-2.3c0.6-0.9,1.6-0.8,2.2-0.4c0.6,0.3,0.1,1.1-0.5,1.9c0.1,0.1,0.2,0.1,0.3,0.2
					c0.9,0.4,2-0.2,1.3,1.3c-0.3,0.6-0.3,0.6-0.8,1.6c-0.2,0.3-0.4,1-0.3,1c0.1,0.1,0.4-0.2,0.6-0.4c0.4-0.4,3.6-3.8,4-4.3
					C557,124.8,557.1,125.7,557,125.9z"/>
				<path class="st1" d="M563.1,125.5c-0.1,0.1-2.2,3.6-4.1,2.9c-1.7,2.9-2.7,3.7-3.6,3.8c-1.3,0.1-1.7-1-1.3-2.3
					c0.5-1.5,1.8-5.2,1.8-5.2l1.8-0.1c0,0-0.9,2.8-1.4,4.4c-0.2,0.6-0.1,1,0.4,1c0.6,0,1.2-0.9,1.8-2.1c-0.4-1.2,0.7-3.4,1.6-3.4
					c0.3,0,0.9,0.4,0.5,1.4c-0.2,0.4-0.8,1.5-0.8,1.5c1,0.6,2.6-1.8,2.9-2.2C562.8,124.6,563.2,125.4,563.1,125.5z"/>
				<path class="st1" d="M567,125.3c-0.3,0.3-3.8,4.3-4.7,5.2c-0.9,1-1.5,1.3-2,1.3c-0.7,0-1.1-0.5-0.5-1.7c0.4-0.9,2.8-5.9,2.8-5.9
					l1.8-0.1c0,0-1.4,3.1-1.9,4c-0.2,0.3-0.4,1-0.3,1c0.1,0.1,0.4-0.2,0.6-0.4c0.4-0.4,3.6-3.8,4-4.3
					C567,124.2,567.1,125.2,567,125.3z M563.2,121.4c0.3-0.7,1-1.3,1.7-1.4c0.7,0,1,0.5,0.8,1.2c-0.3,0.7-1,1.3-1.7,1.3
					C563.3,122.7,562.9,122.2,563.2,121.4z"/>
				<path class="st1" d="M573.3,124.9c-1.5,2.8-4.1,6.4-6.9,6.6c-2.6,0.1-3.5-1.9-2.1-4.5c1.1-2.1,2.6-3.1,3.6-3.1
					c1.6-0.1,2.7,1.4,1.2,3.5c-0.5,0.8-1.6-0.3-1.6-0.3c0.7-0.7,1.2-2,0.6-2c-0.6,0-1.6,1.1-2.2,2.4c-0.8,1.6-0.5,2.7,0.8,2.6
					c1.9-0.1,4.2-2.9,6.2-6C573.2,123.8,573.4,124.7,573.3,124.9z"/>
				<path class="st1" d="M576.1,129.1c-1.2,1.1-2.4,1.9-3.6,2c-2.8,0.2-3.5-1.9-2.1-4.5c1.1-2.1,2.6-3.1,3.6-3.1
					c1.6-0.1,2.7,1.4,1.2,3.5c-0.9,1.3-2,1.9-3,1.6c-0.3-0.1-0.5-0.2-0.6-0.3c-0.1,0.9,0.3,1.5,1.3,1.4c0.9-0.1,1.8-0.6,2.8-1.6
					C575.7,128.2,576.5,128.8,576.1,129.1z M572.1,127.1c0,0.1-0.1,0.1-0.1,0.2c0.6,0.4,1.2-0.1,1.7-0.5c0.7-0.7,1.2-2,0.6-2
					C573.8,124.8,572.8,125.9,572.1,127.1z"/>
				<path class="st1" d="M594.1,125.3c-1.7,3.8-4.1,4.9-5.5,4.9c-1.8,0.1-2.5-0.7-2.7-1.6c-1.2,1.5-2.4,1.9-3.6,2
					c-2.7,0.2-1.9-4.4,3.5-5.4c0.9-1.8,2.8-6.2,2.8-6.2l2-0.1c0,0-0.2,0.4-0.4,1c0.6-0.5,1.4-1,2.2-1.1
					C594.8,118.7,595.8,121.4,594.1,125.3z M585.4,126.2c-2.9,0.7-3.9,3.2-2.9,3.1C583.1,129.3,584.1,128.5,585.4,126.2z M591.7,120
					c-0.9,0.1-1.8,1.1-2.2,1.6c-0.8,1.9-1.9,4.1-2.2,4.7c-0.1,0.2-0.2,0.4-0.3,0.6c-0.4,1.2,0.3,1.9,1.2,1.8
					c1.3-0.1,2.6-1.4,3.9-4.2C593.5,121.7,593,119.9,591.7,120z"/>
				<path class="st1" d="M605.2,123.1c-0.3,0.3-3.8,4.3-4.7,5.2c-0.9,1-1.5,1.3-2,1.3c-0.6,0-1-0.3-0.7-1.2
					c-0.6,0.7-1.4,1.3-2.2,1.3c-1.5,0.1-2.1-1.7-0.6-4.2c1.5-2.5,2.9-3.4,3.9-3.5c0.6,0,1.2,0.5,1.3,1.2c0.4-0.8,0.6-1.3,0.6-1.3
					l1.8-0.1c0,0-1.4,3.1-1.9,4c-0.2,0.3-0.4,1-0.3,1c0.1,0.1,0.4-0.2,0.6-0.4c0.4-0.4,3.6-3.8,4-4.3
					C605.2,122,605.3,123,605.2,123.1z M599,125.6c0.7-1.3,0.7-2.3,0.1-2.2c-0.6,0-1.6,1.1-2.3,2.4c-0.7,1.3-0.7,2.3-0.1,2.2
					C597.3,127.9,598.3,126.8,599,125.6z"/>
				<path class="st1" d="M612.8,122.6c-1.9,2.3-4,4.1-5.8,5.6c-0.7,1.4-1.2,2.6-1.4,3c-0.8,1.6-1.4,2.6-2.8,2.7
					c-0.7,0-1.8-0.4-1.8-1.4c-0.1-1.3,1.8-1.9,4-3.4l1.2-2.6c-1.2,1.4-2.6,2.8-3.3,2.9c-1.1,0.1-1.4-1.1-0.9-2.4
					c0.4-0.9,2.4-5.3,2.4-5.3l1.8-0.1c0,0-1.4,3.1-1.9,4c-0.2,0.3-0.4,1,0.2,1c0.7,0,2.6-2.3,3.1-3.5c0,0,0,0,0,0l0.7-1.6l1.8-0.1
					c0,0-1.3,2.8-2.5,5.5c1.7-1.6,3.7-3.7,5-5.1C612.9,121.5,612.9,122.5,612.8,122.6z M604.4,130.4c-1.3,1-2.1,1.8-2.1,2.3
					c0,0.4,0.2,0.5,0.5,0.5c0.5,0,0.7-0.9,1.3-2L604.4,130.4z"/>
			</g>
			
				<rect x="511.6" y="105.5" transform="matrix(-0.9983 5.765719e-02 -5.765719e-02 -0.9983 1030.6672 189.029)" class="st1" width="2" height="7.8"/>
			<path class="st1" d="M526.9,103c-0.7,0.6-1.4,1-2.3,1.4l5.2,7.9l3.1-0.2L526.9,103z"/>
			<path class="st1" d="M523.7,98.2L513,98.8l-0.3-4.5l-2,0.1l0.4,6.3l10.7-0.6c0.9-0.1,1.6-0.4,2.2-1.1c0.3-0.3,0.5-0.7,0.6-1
				C524.3,98.2,524,98.2,523.7,98.2z"/>
			<path class="st1" d="M527,91.1c1.6,1.5,2.5,3.3,2.7,5.5c0.1,1.7-0.3,3.3-1.2,4.7c-0.1,0.1-0.2,0.2-0.2,0.4
				c0.9-0.6,1.6-1.4,2.2-2.3c0.9-1.4,1.3-3,1.2-4.7c-0.1-2.2-1-4-2.7-5.5c-1.6-1.5-3.6-2.1-5.8-2L507.5,88l0.1,1.8l13.5-0.8
				C523.4,88.9,525.3,89.6,527,91.1z"/>
			<polygon class="st1" points="543.2,102.2 541.2,102.3 541.6,108.6 557.3,107.6 557.5,110.7 559.5,110.6 559.2,105.7 543.5,106.6 
							"/>
			<polygon class="st1" points="555.9,90.1 558,90 557.7,85.2 537.5,86.3 537.6,88.1 555.8,87.1 			"/>
			<polygon class="st1" points="540.9,97.4 549.8,96.9 550,100 552,99.9 551.7,95 542.8,95.5 542.7,92.6 540.6,92.8 			"/>
			<path class="st1" d="M569.9,105.1l-0.3-4.4l-2,0.1l0.4,6.2l10.8-0.6c0.9,0,1.6-0.3,2.3-0.9c0.4-0.3,0.6-0.7,0.7-1.2
				c-0.3,0.1-0.7,0.2-1.1,0.2L569.9,105.1z"/>
			<path class="st1" d="M579.6,94.6c0.3-0.3,0.5-0.7,0.6-1.2c-0.1,0-0.1,0-0.2,0l-10.8,0.6l-0.2-3l-2,0.1l0.3,4.7l10.8-0.6
				C578.7,95.4,579.2,95.1,579.6,94.6z"/>
			<path class="st1" d="M584.6,95.6c1.7-1.1,2.5-2.8,2.4-5.4c-0.1-1.9-0.9-3.5-2.3-4.7c-1.4-1.2-3.1-1.8-5.2-1.6l-15.6,0.9l0.1,1.8
				l13.6-0.8c2-0.1,3.7,0.4,5.2,1.6c1.4,1.2,2.2,2.8,2.3,4.7c0.1,2.5-0.7,4.3-2.4,5.4c2.7,1,4.1,2.9,4.3,5.5
				c0.1,1.9-0.3,3.5-1.1,4.8c0.4-0.3,0.7-0.5,1.1-0.9c1.5-1.5,2.1-3.4,2-5.8C588.7,98.5,587.3,96.7,584.6,95.6z"/>
			<polygon class="st1" points="612.1,86.8 614.1,86.7 613.8,81.9 593.6,83.1 593.7,84.9 611.9,83.8 			"/>
			<polygon class="st1" points="597.1,94.1 606,93.6 606.2,96.8 608.2,96.7 607.9,91.7 599,92.2 598.8,89.4 596.8,89.5 			"/>
			<polygon class="st1" points="599.4,99 597.4,99.1 597.7,105.3 613.5,104.4 613.7,107.4 615.7,107.3 615.4,102.5 599.6,103.4 			
				"/>
			<polygon class="st1" points="642.2,100.9 626.4,101.9 625.2,81.3 620.4,81.5 620.5,83.3 623.3,83.2 624.5,103.8 640.3,102.9 
				640.4,105.9 642.4,105.8 			"/>
			<g>
				<g>
					<path class="st40" d="M530.1,115.2l-5.6,0.3l-6.2-9.2l-7.9,0.5l0.5,9.5l-4.8,0.3l-1.5-25.4l15.5-0.9c2.2-0.1,4.2,0.5,5.8,2
						c1.6,1.5,2.5,3.3,2.7,5.5c0.1,1.7-0.3,3.3-1.2,4.7c-0.9,1.4-2.2,2.5-3.8,3.2L530.1,115.2z M523.9,98c0-0.8-0.4-1.5-1.1-2.1
						c-0.7-0.6-1.4-0.9-2.3-0.8l-10.7,0.6l0.4,6.3l10.7-0.6c0.9-0.1,1.6-0.4,2.2-1.1C523.7,99.7,523.9,98.9,523.9,98z"/>
					<path class="st40" d="M556.7,113.7l-20.6,1.2l-1.5-25.4l20.2-1.2l0.3,4.8L539.7,94l0.3,4.6l8.9-0.5l0.3,4.9l-8.9,0.5l0.4,6.2
						l15.8-0.9L556.7,113.7z"/>
					<path class="st40" d="M586,104.2c0.1,2.4-0.5,4.4-2,5.8c-1.5,1.5-3.4,2.3-5.9,2.4l-15.6,0.9l-1.5-25.4l15.6-0.9
						c2-0.1,3.7,0.4,5.2,1.6c1.4,1.2,2.2,2.8,2.3,4.7c0.1,2.5-0.7,4.3-2.4,5.4C584.4,99.8,585.9,101.6,586,104.2z M579.4,94
						c-0.1-0.8-0.4-1.3-0.9-1.7c-0.5-0.4-1-0.5-1.5-0.5l-10.8,0.6l0.3,4.7l10.8-0.6c0.6,0,1.1-0.2,1.5-0.7
						C579.2,95.4,579.4,94.8,579.4,94z M581,104.5c0-1-0.4-1.8-1.1-2.3c-0.7-0.6-1.5-0.8-2.3-0.7l-10.8,0.6l0.4,6.2l10.8-0.6
						c0.9,0,1.6-0.3,2.3-0.9C580.8,106.1,581,105.4,581,104.5z"/>
					<path class="st40" d="M612.9,110.5l-20.6,1.2l-1.5-25.4L611,85l0.3,4.8l-15.4,0.9l0.3,4.6l8.9-0.5l0.3,4.9l-8.9,0.5l0.4,6.2
						l15.8-0.9L612.9,110.5z"/>
					<path class="st40" d="M639.6,108.9l-20.6,1.2l-1.5-25.4l4.8-0.3l1.2,20.6l15.8-0.9L639.6,108.9z"/>
				</g>
			</g>
			<g>
				<polygon class="st1" points="632.6,129.1 575.7,145.8 517.3,135.7 516.3,118.7 513.3,118.9 514.5,138 575.9,148.9 635.7,131 
					634.6,111.9 631.6,112.1 				"/>
				<polygon class="st1" points="571.7,67.5 571.6,67.5 511,78.3 511.4,85.5 514.4,85.3 514.1,81 571.7,70.5 629.4,74.3 630.8,98.8 
					633.8,98.6 632.2,71.3 				"/>
			</g>
		</g>
	</g>
	<g>
		<g>
			<path class="st41" d="M105.6,221.9c-0.5,0.7-3.7,1.4-4.3,0.4c4.5-5.1,1.8-7.6-0.8-6.9c-2.6,0.7-3.4,2.7-3.2,6.9
				c0.2,3.6,2,6.4,1.9,10.3c-0.1,4.3-1.5,8.1-7.1,9.6c-8.6,2.3-11.4-5-7.8-10.3c0,0,5-1.1,4.1,0c-2.9,5.1,0.2,8.3,2.8,7.6
				c2.1-0.5,2.3-2.1,2.5-5c0.2-2.9-0.7-5-2-10.4c-0.8-5.2,2.1-10,8.2-11.6C106.3,210.8,110.7,215.7,105.6,221.9z"/>
			<path class="st41" d="M127.7,225.9c-4.5,7.3-12.1,16.6-19.6,16.6c-7.4,0-9-5.7-4.8-12.4c3.4-5.4,7.6-7.8,10.2-7.8
				c4.4,0,7.1,4.2,2.8,9.6c-2.6,3.3-5.6,4.7-8.3,3.9c-0.7-0.2-1.2-0.5-1.6-0.9c-0.5,2.4,0.5,4,3.2,4c5.2,0,11.8-7.1,17.6-15.2
				C127.6,223,127.9,225.6,127.7,225.9z M107.7,231.8c-0.1,0.2-0.2,0.3-0.2,0.4c1.5,1.2,3.2,0,4.6-1.2c1.9-1.6,3.6-5.2,2-5.2
				C112.6,225.9,109.7,228.5,107.7,231.8z"/>
			<path class="st41" d="M141.6,226.1c-0.9,0.9-10.8,11-13.3,13.3c-2.6,2.5-4.3,3.2-5.6,3.2c-2,0-2.9-1.5-1.2-4.6
				c1.2-2.3,2.9-5.6,4.4-8.1c1.5-2.6-0.3-2.8-1-3.2c-1.6-0.9-4-3.5-1.8-6.3c1.8-2.2,4.4-1.8,5.9-0.8c1.6,1,0.2,3.1-1.7,5
				c0.2,0.2,0.4,0.4,0.7,0.5c2.3,1.3,5.3-0.2,3.3,3.7c-0.8,1.5-1,1.6-2.3,4.1c-0.5,0.8-1.2,2.5-1,2.7c0.2,0.3,1-0.4,1.7-1.1
				c1.2-1,10.4-9.7,11.5-10.9C141.9,223.1,141.9,225.7,141.6,226.1z"/>
			<path class="st41" d="M158.6,226c-0.3,0.3-6.5,9.3-11.5,7c-5,7.4-7.7,9.5-10.3,9.5c-3.5,0-4.5-3-3.1-6.5
				c1.6-4.1,5.5-13.6,5.5-13.6l4.8,0c0,0-2.8,7.3-4.5,11.5c-0.6,1.5-0.5,2.8,0.9,2.8c1.7,0,3.4-2.3,5.1-5.5c-1-3.2,2.3-8.9,4.8-8.9
				c0.9,0,2.4,1.3,1.1,3.7c-0.5,1-2.2,3.9-2.2,3.9c2.5,1.7,7.2-4.3,8-5.3C157.9,223.6,158.9,225.7,158.6,226z"/>
			<path class="st41" d="M169.6,226.1c-0.9,0.9-10.9,11-13.3,13.3c-2.6,2.5-4.3,3.2-5.6,3.2c-2,0-2.9-1.5-1.2-4.6
				c1.2-2.3,8.3-15.5,8.3-15.5l4.8,0c0,0-4.3,8.1-5.6,10.5c-0.5,0.8-1.3,2.5-1,2.7c0.2,0.3,1-0.4,1.8-1.1c1.2-1,10.4-9.7,11.5-10.9
				C169.8,223.1,169.9,225.7,169.6,226.1z M160,215.2c0.9-1.9,3-3.4,4.9-3.4c1.9,0,2.7,1.5,1.9,3.4c-0.8,1.9-3,3.3-4.9,3.3
				C160,218.5,159.2,217,160,215.2z"/>
			<path class="st41" d="M187.1,225.9c-4.5,7.3-12.1,16.6-19.6,16.6c-6.9,0-9-5.7-4.8-12.4c3.4-5.4,7.6-7.8,10.3-7.8
				c4.4,0,7,4,2.8,9.6c-1.5,2-4.2-1-4.2-1c1.9-1.6,3.6-5.2,2-5.2s-4.4,2.6-6.4,6c-2.5,4.2-1.8,7.1,1.8,7.1c5.2,0,11.8-7.1,17.6-15.2
				C187.1,223,187.4,225.6,187.1,225.9z"/>
			<path class="st41" d="M194.5,237.8c-3.3,2.7-6.6,4.7-10.1,4.7c-7.4,0-9-5.7-4.8-12.4c3.4-5.4,7.6-7.8,10.2-7.8
				c4.4,0,7.1,4.2,2.8,9.6c-2.6,3.3-5.6,4.7-8.3,3.9c-0.7-0.2-1.2-0.5-1.6-0.9c-0.5,2.4,0.5,4,3.2,4c2.3,0,5-1.4,7.7-3.7
				C193.6,235.2,195.7,236.8,194.5,237.8z M184.1,231.8c-0.1,0.2-0.2,0.3-0.2,0.4c1.5,1.2,3.2,0,4.6-1.2c1.9-1.6,3.6-5.2,2-5.2
				C189,225.9,186.1,228.5,184.1,231.8z"/>
			<path class="st41" d="M243.4,230.2c-5.2,10-11.6,12.4-15.5,12.4c-5,0-6.6-2.3-6.9-4.8c-3.5,3.9-6.8,4.8-10,4.8
				c-7.1,0-4.4-12.1,10.3-13.9c2.6-4.7,8.6-16.1,8.6-16.1h5.4c0,0-0.5,1-1.3,2.6c1.7-1.3,3.9-2.6,6.1-2.6
				C246.3,212.6,248.5,220.2,243.4,230.2z M219.8,231.3c-7.8,1.5-11.1,7.9-8.3,7.9C213.3,239.2,216.1,237.4,219.8,231.3z
				 M237.7,215.7c-2.4,0-5.1,2.7-6.1,3.8c-2.6,4.8-5.6,10.7-6.5,12.2c-0.3,0.5-0.6,1-0.9,1.5c-1.3,3,0.6,5.1,2.9,5.1
				c3.5,0,7.2-3.3,11.1-10.5C242.3,220.4,241.3,215.7,237.7,215.7z"/>
			<path class="st41" d="M273.5,226.1c-0.8,0.9-10.9,11-13.3,13.3c-2.6,2.5-4.3,3.2-5.6,3.2c-1.7,0-2.6-1-1.8-3.3
				c-1.8,1.8-3.9,3.3-6,3.3c-4.1,0-5.4-4.9-1.1-11.4c4.3-6.6,8.2-8.7,10.9-8.7c1.7,0,3,1.6,3.4,3.4c1.1-2,1.8-3.4,1.8-3.4l4.8,0
				c0,0-4.3,8.1-5.6,10.5c-0.5,0.8-1.3,2.5-1,2.7c0.3,0.3,1-0.4,1.8-1.1c1.2-1,10.4-9.7,11.5-10.9
				C273.8,223.1,273.8,225.7,273.5,226.1z M256.5,231.8c2-3.3,2.3-6,0.7-6c-1.6,0-4.4,2.7-6.4,6c-1.9,3.3-2.2,6-0.7,6
				C251.7,237.8,254.6,235.1,256.5,231.8z"/>
			<path class="st41" d="M294.7,226.1c-5.5,5.8-11.3,10.4-16.4,14.1c-2,3.8-3.7,6.9-4.2,7.8c-2.5,4.3-4.1,6.7-8,6.7
				c-1.9,0-4.7-1.3-4.7-4c0-3.5,5-4.8,11.1-8.5l3.6-6.8c-3.3,3.7-7.3,7.2-9.3,7.2c-3,0-3.7-3.2-2-6.4c1.2-2.3,7.4-13.7,7.4-13.7
				l4.8,0c0,0-4.3,8.1-5.6,10.5c-0.5,0.8-1.3,2.7,0.4,2.7s7.2-5.8,8.8-8.9c0-0.1,0.1-0.1,0.1-0.1l2.2-4.3h4.8c0,0-3.9,7.4-7.6,14.3
				c4.8-4,10.5-9.4,14.2-13C295,223.1,295,225.7,294.7,226.1z M270.9,245.4c-3.6,2.6-5.9,4.5-5.9,5.9c0,1,0.5,1.3,1.2,1.3
				c1.2,0,2.1-2.2,3.7-5.2L270.9,245.4z"/>
		</g>
		<rect x="23.9" y="164.8" class="st41" width="5.4" height="20.8"/>
		<path class="st41" d="M65.9,160.2c-1.8,1.4-3.9,2.5-6.2,3.4l12.8,22h8.2L65.9,160.2z"/>
		<path class="st41" d="M58.1,147H29.3v-12h-5.4v16.8h28.8c2.4,0,4.4-0.8,6.1-2.5c0.8-0.8,1.4-1.7,1.8-2.6
			C59.8,146.9,59,147,58.1,147z"/>
		<path class="st41" d="M68,128.3c4.2,4.2,6.3,9.2,6.3,15.1c0,4.6-1.3,8.7-4,12.4c-0.2,0.3-0.5,0.6-0.7,0.9c2.4-1.5,4.4-3.4,6.1-5.7
			c2.7-3.7,4-7.8,4-12.4c0-5.9-2.1-10.9-6.3-15.1c-4.2-4.2-9.3-6.3-15.3-6.3H16.4v4.8h36.3C58.7,122,63.8,124.1,68,128.3z"/>
		<polygon class="st41" points="109.8,160.7 104.4,160.7 104.4,177.4 146.8,177.4 146.8,185.6 152.2,185.6 152.2,172.6 109.8,172.6 
					"/>
		<polygon class="st41" points="145.8,130.2 151.2,130.2 151.2,117.2 96.8,117.2 96.8,122 145.8,122 		"/>
		<polygon class="st41" points="104.4,147.4 128.3,147.4 128.3,155.9 133.8,155.9 133.8,142.6 109.8,142.6 109.8,135 104.4,135 		
			"/>
		<path class="st41" d="M180.9,172.6v-11.9h-5.4v16.7h29c2.4,0.1,4.5-0.6,6.2-2.1c1-0.9,1.7-1.9,2.2-3c-0.9,0.3-1.9,0.4-3,0.4H180.9
			z"/>
		<path class="st41" d="M208.6,146c0.9-0.8,1.5-1.9,1.8-3.1c-0.2,0-0.3,0-0.5,0h-29v-8h-5.4v12.8h29
			C206,147.8,207.4,147.2,208.6,146z"/>
		<path class="st41" d="M221.6,149.4c4.8-2.6,7.2-7.2,7.2-14c0-5.2-1.8-9.6-5.4-13.1c-3.6-3.5-8.1-5.2-13.6-5.2h-42v4.8h36.5
			c5.4,0,10,1.7,13.6,5.2c3.6,3.5,5.4,7.8,5.4,13.1c0,6.7-2.4,11.4-7.2,14c7.1,3.2,10.6,8.3,10.6,15.3c0,5.1-1.3,9.3-3.8,12.7
			c1-0.6,2-1.3,2.9-2.2c4.2-3.7,6.3-8.8,6.3-15.3C232.3,157.7,228.7,152.6,221.6,149.4z"/>
		<polygon class="st41" points="296.9,130.2 302.3,130.2 302.3,117.2 247.9,117.2 247.9,122 296.9,122 		"/>
		<polygon class="st41" points="255.4,147.4 279.4,147.4 279.4,155.9 284.8,155.9 284.8,142.6 260.8,142.6 260.8,135 255.4,135 		
			"/>
		<polygon class="st41" points="260.8,160.7 255.4,160.7 255.4,177.4 297.9,177.4 297.9,185.6 303.3,185.6 303.3,172.6 260.8,172.6 
					"/>
		<polygon class="st41" points="375.3,172.6 332.8,172.6 332.8,117.2 319.8,117.2 319.8,122 327.4,122 327.4,177.4 369.9,177.4 
			369.9,185.6 375.3,185.6 		"/>
		<g>
			<g>
				<path class="st40" d="M72.3,193.4H57.2l-15.1-25.6H20.9v25.6H8V125h41.7c6,0,11.1,2.1,15.3,6.3c4.2,4.2,6.3,9.2,6.3,15.1
					c0,4.6-1.3,8.7-4,12.4c-2.7,3.7-6.2,6.3-10.6,7.9L72.3,193.4z M58.3,146.3c0-2.2-0.8-4.2-2.5-5.9c-1.7-1.7-3.7-2.5-6.1-2.5H20.9
					v16.8h28.8c2.4,0,4.4-0.8,6.1-2.5C57.5,150.6,58.3,148.6,58.3,146.3z"/>
				<path class="st40" d="M143.8,193.4H88.4V125h54.4v13h-41.4v12.5h24v13.3h-24v16.7h42.5V193.4z"/>
				<path class="st40" d="M223.8,172.6c0,6.5-2.1,11.6-6.3,15.3c-4.2,3.7-9.5,5.5-16.1,5.5h-42V125h42c5.4,0,10,1.7,13.6,5.2
					c3.6,3.5,5.4,7.8,5.4,13.1c0,6.7-2.4,11.4-7.2,14C220.3,160.5,223.8,165.6,223.8,172.6z M207.6,144.2c-0.2-2-0.9-3.6-2.1-4.7
					c-1.2-1.1-2.5-1.6-4-1.5h-29v12.8h29c1.5,0.1,2.9-0.5,4.1-1.7C206.9,147.8,207.5,146.2,207.6,144.2z M210.4,172.5
					c0.1-2.7-0.8-4.8-2.7-6.4c-1.9-1.6-3.9-2.4-6.2-2.3h-29v16.7h29c2.4,0.1,4.5-0.6,6.2-2.1C209.5,176.8,210.4,174.8,210.4,172.5z"
					/>
				<path class="st40" d="M294.9,193.4h-55.4V125h54.4v13h-41.4v12.5h24v13.3h-24v16.7h42.5V193.4z"/>
				<path class="st40" d="M366.9,193.4h-55.4V125h13v55.4h42.5V193.4z"/>
			</g>
		</g>
		<g>
			<polygon class="st41" points="345.2,246.5 190.2,282.7 35.1,246.5 35.1,200.8 27.1,200.8 27.1,252.2 190.2,290.9 353.2,252.2 
				353.2,200.8 345.2,200.8 			"/>
			<polygon class="st41" points="191.4,72.1 191.2,72 27.1,91.6 27.1,111 35.1,111 35.1,99.2 191.2,80.2 345.2,99.2 345.2,165.1 
				353.2,165.1 353.2,91.6 			"/>
		</g>
	</g>
</g>
</svg>
