<?xml version="1.0" encoding="utf-8"?>
<!-- Generator: Adobe Illustrator 19.0.1, SVG Export Plug-In . SVG Version: 6.00 Build 0)  -->
<svg version="1.1" xmlns="http://www.w3.org/2000/svg" xmlns:xlink="http://www.w3.org/1999/xlink" x="0px" y="0px"
	 viewBox="0 0 257.3 257.4" style="enable-background:new 0 0 257.3 257.4;" xml:space="preserve">
<style type="text/css">
	.st0{fill:#FFFFFF;}
	.st1{fill:#392C3E;}
	.st2{fill:#382C3D;}
	.st3{fill:#3399CC;}
	.st4{fill:#CDCBCA;}
	.st5{fill-rule:evenodd;clip-rule:evenodd;fill:#CDCBCA;}
	.st6{fill-rule:evenodd;clip-rule:evenodd;fill:#392C3E;}
	.st7{fill:none;stroke:#CDCBCA;stroke-width:1.1438;stroke-miterlimit:10;}
	.st8{clip-path:url(#SVGID_4_);}
	.st9{fill-rule:evenodd;clip-rule:evenodd;fill:#989898;}
	.st10{fill-rule:evenodd;clip-rule:evenodd;fill:#FFFFFF;}
	.st11{fill:#979797;}
	.st12{opacity:0.67;}
	.st13{fill:#EFEFEF;}
	.st14{opacity:0.78;}
	.st15{fill-rule:evenodd;clip-rule:evenodd;fill:#998881;}
	.st16{fill:#998881;}
</style>
<g id="Layer_1">
	<g>
		<g>
			<path class="st4" d="M128.6,0C57.8-0.1,0.1,57.7,0,128.7c0,71.1,57.5,128.7,128.5,128.7c71.1-0.1,128.7-57.6,128.8-128.6
				C257.3,58,199.5,0.1,128.6,0 M128.4,246c-64.7-0.1-117.4-53.1-117-117.8C11.7,63.7,64.4,11.5,129,11.7
				c64.6,0.2,116.7,52.6,116.6,117.4C245.4,193.7,193,246,128.4,246"/>
		</g>
		<g>
			<g>
				<path class="st4" d="M22.5,115.7h13.6c7,0,11.5,3.4,11.5,8.9c0,4.9-4.2,8.9-9.4,8.9h-8.7v10.7h-7V115.7z M29.5,121v7.4h6.4
					c2.5,0,4.4-1.6,4.4-3.8c0-2.3-1.6-3.6-4.2-3.6H29.5z"/>
			</g>
			<g>
				<path class="st4" d="M64.6,115c8.1,0,14.8,5.3,14.8,15.1c0,9.5-6.7,15.1-14.8,15.1c-8.1,0-14.8-5.4-14.8-15.1
					C49.9,120.3,56.6,115,64.6,115 M64.6,139c4.7,0,7.4-3.5,7.4-9c0-5.5-2.7-8.9-7.4-8.9c-4.7,0-7.4,3.4-7.4,8.9
					C57.3,135.6,60,139,64.6,139"/>
			</g>
			<g>
				<polygon class="st4" points="82.8,115.7 92.8,115.7 97.3,133.1 101.8,115.7 111.8,115.7 111.8,144.3 106,144.3 106,120.9 
					99.9,144.3 94.5,144.3 88.5,120.7 88.5,144.3 82.8,144.3 				"/>
			</g>
			<g>
				<path class="st4" d="M117.1,115.7h13.6c7,0,11.5,3.4,11.5,8.9c0,4.9-4.2,8.9-9.4,8.9h-8.7v10.7h-7V115.7z M124.1,121v7.4h6.4
					c2.5,0,4.4-1.6,4.4-3.8c0-2.3-1.6-3.6-4.2-3.6H124.1z"/>
			</g>
			<g>
				<path class="st4" d="M159.3,115c8.1,0,14.8,5.3,14.8,15.1c0,9.5-6.7,15.1-14.8,15.1c-8.1,0-14.8-5.4-14.8-15.1
					C144.5,120.3,151.2,115,159.3,115 M159.3,139c4.7,0,7.4-3.5,7.4-9c0-5.5-2.7-8.9-7.4-8.9c-4.7,0-7.4,3.4-7.4,8.9
					C151.9,135.6,154.6,139,159.3,139"/>
			</g>
			<g>
				<path class="st4" d="M180.8,134.5c1,2.1,2.5,5.5,9.1,5.5c4.2,0,6.4-1.1,6.4-3.2c0-2-2-3.1-6.8-3.7c-6.1-0.7-11.9-3.2-11.9-8.9
					c0-3.7,2-6.7,5.4-8.1c1.8-0.7,4.1-1.1,7-1.1c8.2,0,11.4,4,12.3,5.8l-4.3,3.7c-1.7-3-4-4.4-7.8-4.4c-3.7,0-5.8,1.1-5.8,3
					c0,1.7,1.5,2.5,6.2,3.2c7.5,1.1,12.5,3.3,12.5,9.3c0,2.5-0.8,4.6-2.3,6.2c-2.3,2.3-5.4,3.3-10.7,3.3c-8.6,0-11.4-2.7-13.7-6.5
					L180.8,134.5z"/>
			</g>
			<g>
				<path class="st4" d="M220,115c8.1,0,14.7,5.3,14.7,15.1c0,9.5-6.7,15.1-14.7,15.1c-8.1,0-14.8-5.4-14.8-15.1
					C205.3,120.3,212,115,220,115 M220,139c4.7,0,7.3-3.5,7.3-9c0-5.5-2.7-8.9-7.3-8.9c-4.7,0-7.4,3.4-7.4,8.9
					C212.7,135.6,215.4,139,220,139"/>
			</g>
		</g>
		<g>
			<rect x="31.9" y="98.5" class="st4" width="193.4" height="3.5"/>
		</g>
		<g>
			<rect x="31.9" y="158.1" class="st4" width="193.4" height="3.5"/>
		</g>
		<g>
			<path class="st4" d="M102.9,208.4c2.2,0,4,1.8,4,4c0,0.9-0.4,1.8-0.9,2.4c1.5,1.2,3.9,1.8,6.5,1.8c4.1,0,7.2-2.4,7.2-6.1
				c0-2.3-1.1-4.4-4-5.6c-1.5-0.7-3.6-1-6.3-1h-1.8v-5.2h2c2.6,0,4.9-0.5,6.6-1.3c2.1-1.1,3.3-2.7,3.3-4.9c0-3.3-3-4.9-6.6-4.9
				c-2.4,0-4.1,0.4-5.1,1.2c0.5,0.7,0.9,1.6,0.9,2.4c0,2.2-1.8,4-4,4c-2.2,0-4.1-1.9-4.1-4.8c0-1,0.4-2.3,1.2-3.5
				c1.7-2.5,5.4-4.8,11.4-4.8c7.7,0,13.2,4.3,13.2,10.2c0,3.2-2,5.9-4.8,7.5c-1.2,0.7-2.4,1.2-3.8,1.4c1.2,0.3,2.4,0.8,3.5,1.4
				c2.9,1.6,5.4,4.4,5.4,8.5c0,6.8-6,11.2-14.1,11.2c-5.7,0-10.3-2.3-12.4-5.3c-0.8-1.2-1.3-2.5-1.3-3.8
				C98.7,210.5,100.4,208.4,102.9,208.4z"/>
			<path class="st4" d="M134.7,209.9c2.2,0,4,1.8,4,4c0,0.6-0.2,1.3-0.5,1.9c1.2,0.4,2.7,0.6,4.5,0.6c5.1,0,7.8-3.3,7.8-7.5
				c0-3.9-2.5-6.8-8.1-6.8c-2.3,0-5.2,0.5-7.4,1.8l-3.1-1.7l2.4-19.8h20.8v6.2h-15.8l-1,8.5c1.4-0.4,3.3-0.6,5.2-0.6
				c7.8,0,13.8,4.4,13.8,12.4c0,7.8-6,13.2-14.1,13.2c-5.1,0-8.6-1.4-10.7-3.3c-1.3-1.3-2-2.9-2-4.3
				C130.4,211.9,132.3,209.9,134.7,209.9z"/>
		</g>
		<g>
			<path class="st4" d="M109.8,74.6c-2,2.3-5,3.6-8.3,3.6c-6.3,0-10.3-4.5-10.3-10.2c0-6.1,4.6-10.3,10.6-10.3
				c4.6,0,7.7,2.6,7.7,5.2c0,1.7-1,2.8-2.6,2.8c-1.6,0-2.6-0.9-2.6-2.4c0-0.4,0.1-1,0.3-1.3c-0.6-0.4-1.7-0.7-3.1-0.7
				c-3.6,0-6.2,2.6-6.2,6.7c0,4,2.7,6.6,6.1,6.6c2.4,0,4.3-1,5.8-2.7L109.8,74.6z"/>
			<path class="st4" d="M112.7,77.7v-3.4h3V61.6h-3v-3.4h10v3.4h-3v12.7h3v3.4H112.7z"/>
			<path class="st4" d="M125.6,77.7v-3.4h2.9V61.6h-2.9v-3.4h9.5c5,0,7.2,2.2,7.2,5.1c0,2.3-1.4,3.7-3.3,4.3
				c2.4,0.7,3.9,2.2,3.9,4.6c0,3.3-2.5,5.5-7.5,5.5H125.6z M135.1,66.5c2,0,3.1-1,3.1-2.5c0-1.5-1.1-2.4-3.2-2.4h-2.5v4.9H135.1z
				 M135.4,74.4c2,0,3.3-0.9,3.3-2.6c0-1.6-1.2-2.5-3.3-2.5h-2.9v5.1H135.4z"/>
			<path class="st4" d="M166.1,67.9c0,5.7-4,10.3-10.2,10.3c-6.3,0-10.2-4.6-10.2-10.3c0-5.6,4-10.2,10.2-10.2
				C162,57.7,166.1,62.2,166.1,67.9z M161.9,68c0-4-2.6-6.6-6.1-6.6s-6.1,2.6-6.1,6.6c0,4,2.6,6.6,6.1,6.6S161.9,72,161.9,68z"/>
		</g>
	</g>
</g>
<g id="Layer_2">
</g>
</svg>
