<?xml version="1.0" encoding="utf-8"?>
<!-- Generator: Adobe Illustrator 19.0.1, SVG Export Plug-In . SVG Version: 6.00 Build 0)  -->
<svg version="1.1" xmlns="http://www.w3.org/2000/svg" xmlns:xlink="http://www.w3.org/1999/xlink" x="0px" y="0px"
	 viewBox="0 0 700 185.7" style="enable-background:new 0 0 700 185.7;" xml:space="preserve">
<style type="text/css">
	.st0{fill:#FFFFFF;}
	.st1{fill:#392C3E;}
	.st2{fill:#382C3D;}
	.st3{fill:#3399CC;}
	.st4{fill:#CDCBCA;}
	.st5{fill-rule:evenodd;clip-rule:evenodd;fill:#CDCBCA;}
	.st6{fill-rule:evenodd;clip-rule:evenodd;fill:#392C3E;}
	.st7{fill:none;stroke:#CDCBCA;stroke-width:1.1438;stroke-miterlimit:10;}
	.st8{clip-path:url(#SVGID_4_);}
	.st9{fill-rule:evenodd;clip-rule:evenodd;fill:#989898;}
	.st10{fill-rule:evenodd;clip-rule:evenodd;fill:#FFFFFF;}
	.st11{fill:#979797;}
	.st12{opacity:0.67;}
	.st13{fill:#EFEFEF;}
	.st14{opacity:0.78;}
	.st15{fill-rule:evenodd;clip-rule:evenodd;fill:#998881;}
	.st16{fill:#998881;}
</style>
<g id="Layer_1">
</g>
<g id="Layer_2">
	<g>
		<g>
			<g>
				<path class="st5" d="M546.5,150.4c-1.1,0.3-1.6,1.1-2.1,1.8c-2.9,4.6-7.2,5.6-12.1,5c-4.6-0.6-7.6-4.6-6.5-8.8
					c1.3,2.7,2.6,5.3,5.6,6.2c0.5,0.4,1.1,0.6,1.9,0.1c-0.6-0.2-1-0.4-1.5-0.6v0c-0.4-0.6-2.2-0.3-0.9-1.8l0,0l0,0
					c0.7,0.5,1.5,0.4,2.4,0.2c-0.6-0.2-1.3-0.4-1.9-0.6l0,0c-2.4-0.8-2.6-3.7-4.7-4.9c-0.4-0.3-0.4-1.7-0.3-2.5
					c0.2-2.6,0.7-5.1,1.6-7.6c1.1-3,2.1-6,2.8-9.1c0.2-1.1-0.7-2.9,0.8-3.2c1.1-0.2,2.2,0.9,3.2,1.6c0.1,0,0.1,0.1,0.2,0.1
					c3,2.1,3.6,4,2.7,7.6c-0.1,0.3-0.2,0.7-0.2,1.1c0.5,2.3-0.6,3.6-2.9,3c-1.1-0.3-2.1-0.9-3.1-1.3c-0.3,3.5,2.9,6.4,5.9,5l0,0
					c0.9-0.1,1.7-0.5,2.2-1.3l0,0c0.6-0.3,1-0.8,1.3-1.3l0,0c2.4-2.7,2.6-5.7,1.3-8.9c0,0,0,0,0,0c0,0,0,0,0,0v0l0,0v0
					c-0.4-0.4-1.1-0.7-1-1.5c2.7,0.3,5.3,0.9,7.6,2.2c1.4,0.8,3.3,1.4,2.8,3.8c-0.1,0.7,0.6,1.3,1.1,1.9c2.4,2.7,2.4,2.7-0.1,4.6
					c0.2,0.3,0.4,0.4,0.7,0.3c1.1-0.2,1.8-0.9,2.2-2c0.5-1.5-0.7-2.1-1.4-2.9c-0.6-0.7-1.6-1.2-1.3-2.4c0.3-1.2,1.3-1.5,2.3-1.7
					c0.5-0.1,1-0.2,1.5-0.2v0c1.8-0.1,3.6,0.4,5.3-0.4c1.2-0.1,2.3-0.4,2.5-1.9c0.2-1.3,0.3-2.8-0.9-3.6c-1.1-0.7-2.3-0.5-3.5,0.3
					c1.6-0.3,2.8,0.1,3,1.8c0.2,1.7-1,2.3-2.3,2.7c-0.3,0.1-0.7,0.1-1,0.2c-1.3,0-2.6,0-3.9,0c0,0,0,0,0,0c0,0,0,0,0,0
					c-2.8-0.3-5.6-0.9-8.4-3c5.6-1.4,9.3-4.9,13.1-8.4c2.9-2.6,5.8-5.2,9.5-6.5c4.8-1.8,9.5-2.2,13.3,2.2c0.3,0.3,0.6,0.9,1.5,0.4
					c-2.8-4.6-7.3-5-12.1-5.5c1.4-1.7,2.4-3.4,0.7-5.3c-0.8-0.9-1.8-1.4-3.3-1c1,1.1,3.5,0.9,2.5,3c-1,2.2-3.2,3.2-5.1,4.4
					c-0.6,0.4-0.8-0.4-1.2-0.7c-1.1-0.7-2.3-1.4-4.1-0.9c1.6,0.6,2.9,1.2,2.7,2.8c-0.2,1.6-1.6,1.4-2.8,1.4c-1.1,0-1.4,0.8-1.8,1.6
					c-0.9,1.9-2,3.8-3.4,5.4c-5.4,6.1-13.8,7.4-22,3.6c-4.9-2.3-9-5.6-12.9-9.3c-7.7-7.4-16.5-12.4-26.6-15.2l0,0
					c-1.5-0.9-3.2-1.1-4.8-1.7l0,0l0,0c-4.7-1.4-9.2-3.1-13.8-5.5c2.2-1.6,4.4-2.4,6.4-3.5c1.9-0.6,3.7-1.2,5.6-1.8l0,0
					c0.6-0.1,1.2-0.2,1.7-0.6c-0.5-0.4-1.3-0.1-1.7-0.7l0,0c0.3-0.4,0.6-0.9,0.9-1.3c3.1-4.8,5.2-9.9,4.8-15.9
					c0-0.7-0.1-1.9-0.4-1.8c-2.5,0.5-1.5-1.7-1.7-2.6c-1.5-6.3-10.3-9.6-15.3-5.7c-1.5,1.2-2.4,2.7-1.9,5.2c0.7-2.9,2-4.8,4.4-5.7
					c0.9-0.3,2.4-1.3,2.1,1.2c-0.1,0.8,0.4,1,1.1,0.8c4.3-1.4,4.9-1.2,7,2.7c2.4,4.4,3.9,9,2.1,14c-0.3,0.7-0.2,3.2-2.2,1.3
					c-0.3-0.3-0.7,0.1-0.7,0.5c0,0.7-0.1,1.3,0,2c0.5,3.8,0.1,4.7-3.2,6.5c-0.8,0.5-1.7,0.8-2.5,1.2c-3.3,0.6-6.5,1.5-9.5,2.8
					c-1.4,0.6-1.5,1.3-0.1,2.1c0.6,0.3,1.3,0.7,2,0.9c2.8,0.8,5.6,1.5,8.3,2.4c4.6,1.5,5.9,3.9,5.4,8.7c0,0.4-0.4,0.8,0.1,1.2
					c2-1.5,2.1-1.5,2.7,1.2c1.3,5.2,0.3,10-2.4,14.5c-0.8,1.4-1.9,2.6-3.4,3.4c-1.1,0.6-2-0.6-3-0.7c-0.6-0.1-1.5-0.7-1.4,0.8
					c0.1,1.4-0.9,1.3-1.8,1.1c-2.7-0.8-4.1-2.9-4.6-5.6c0,0,0,0,0,0c0,0,0,0,0,0c0-0.9,0.2-1.7-0.1-2.6c-0.7,0.4-0.6,1.1-0.6,1.8
					l0,0h0c0,3.1,1,5.7,3.7,7.3c2.7,1.6,5.4,1.2,8-0.5c2.9-1.9,4.8-4.6,6.1-7.9c0.2-0.6,0-1.9,1.4-1.1c0.5,0.3,0.6-0.3,0.6-0.6
					c0.1-1,0.3-2,0.2-3.1c-0.3-5.4-2.4-10.1-5.1-14.5c-0.9-1.5-0.2-1.6,1-1.5l0,0c1.5,0.6,2.9,1.2,4.4,1.8l0,0l0,0
					c1.5,0.9,2.8,2.1,3.7,3.7c3.5,6.2,3.3,12.8,2.4,19.5l0,0v0c-0.6,0.6-1.2,1.2-1.7,1.8l0,0c-0.8,0.2-1.5,0.4-2.1,0.9c0,0,0,0,0,0
					c-1.6,0.2-3.3,0.5-4.9,0.7c0.1,0.9,2.1,0.5,0.8,1.8c-1.8,1.7-2.7,4-3.6,6.3c-0.4,0.9-2.6,2.3,0.3,3c0.1,0,0.1,0.3,0.1,0.4
					c0.6,1.8,2.1,2.6,3.7,3c2.8,0.9,5,0.4,5.8-1.6c-1.7,1.4-3.4,1.7-5.4,1.2c-4.4-1.5-4.7-6.3-1.6-9.7c1.7-1.8,3.6-3.2,5.5-4.7v0
					c0.6-0.3,1.1-0.7,1.4-1.3h0c0.8-0.1,1.3-0.6,1.7-1.3v0c0.3-0.1,0.6-0.4,0.9-0.1h0c0.5,3.5,1.4,6.9,3.4,9.9c0,0,0,0,0,0
					c0,0,0,0,0,0c0.1,0.7,0.4,1.2,0.9,1.7c0.4,1.5,2.2,2.2,2.2,4c-0.4,0.2-0.9,0.3-1,0.9c0,0.1,0.2,0.3,0.4,0.3c0.6,0,0.9-0.3,1-0.8
					l0,0c1.1-2.7-1.2-3.6-2.5-4.9c-0.2-0.7-0.3-1.5-0.5-2.2l0,0c0.2-0.4,0.3-0.8,0-1.2c-1.8-2.3-2.7-5-3.4-7.7h0
					c0.1-1.7-0.4-3.4,0.5-5.4c1.5,2.1,2.9,3.7,5.6,3c-0.5-0.8-0.4-1.8-1.5-2.1c-3-0.7-4-3.1-4.6-5.8c-0.8-3.6-0.7-7.3-2.4-11.1
					c1.7,0.7,3,1.3,4.2,1.9c4.9,2.3,9.7,4.6,13.3,9c0.8,1,1.9,2,0.6,3.4c-0.5,0.5-1.1,1.2-0.5,2c0.6,0.8,0.8-0.8,1.3-0.4
					c0.2,0.1,0.3,0.4,0.4,0.7l0,0c-0.4,0.7-0.9,1.5-1.3,2.2c-1.2,1.2-2.9,2.1-3.3,4.3c1.9-0.9,3-2.3,3.8-3.8
					c0.7-0.8,1.1-1.7,1.3-2.7l0,0c0.4-0.9,0.7-1.8,1.1-2.8c1.7,1.3,3.1,2.5,4.7,3.6c2.3,1.7,3.2,4.1,3.3,6.9c0.1,2.5-0.7,5-1.4,7.4
					c-1.2,3.8-2.6,7.6-3.1,11.6c-0.6,4.7,1.4,9,5.4,10.9c4.6,2.2,11,1.1,14.6-2.4C545.4,153.7,546.4,152.4,546.5,150.4z M505.6,134
					c0-0.1,0.1-0.3,0.2-0.4C505.8,133.8,505.7,133.9,505.6,134z"/>
				<path class="st5" d="M679.4,104.2c1.2,0.7,2,1.1,2.8,1.5c2.6,1.5,4,3.7,4.3,6.8c0.2,2-1.4,3.4-1.9,5.1
					c-1.3,4.5-8.4,7.4-12.9,2.9c-2.1-2.2-4-4.5-5.7-7c-0.6-0.9-2-1.6-1.7-2.7c0.4-1.1,1.9,0,3-0.5c-0.8-1-1.8-1.2-2.9-1.2
					c-2.5,0-4.9-0.6-7.1-1.6c-2.1-0.9-4.3-1.9-6.6-2.2c-1.9-0.2-4,0.2-3.3-3c0.2-0.8-0.7-1.2-1.5-1.1c-0.7,0.1-0.6,0.6-0.6,1.2
					c0.1,3-0.6,3.6-4,3.9c0.3-0.6,0.5-1.2,0.8-1.8c0.9-2.2,1-4.5,0.1-6.7c-0.8-1.9-2.1-2.2-3.9-0.8c1.7,1.3,1.8,3.1,1.4,5
					c-0.3,1.7-1.1,3.2-2.1,4.6c-0.1-0.3-0.3-0.6-0.4-0.9l0,0l0,0c0-1.2,0.3-2.4-0.3-3.5c-0.3-0.6-0.9-1.1-1.6-0.8
					c-0.8,0.3-0.2,0.9,0,1.3c0.5,2.3,0,4.3-1.1,6.4c-0.5-0.7-0.9-1.2-1.3-1.6c-0.1-0.1-0.6-0.1-0.8-0.1c-0.3,0.1-0.4,0.5-0.2,0.8
					c1,1.7,0,3.1-0.3,4.7c-1-0.9-0.2-3-2.4-3.5c0.5,1.6,0.7,3,0.7,4.5c-0.3,0.6-0.2,1.5-1.1,1.8c-0.5-1,0.3-2.6-1.2-3.6
					c0.5,5.6-1,9.5-5.8,15.6c0.1-2.8,1.2-5.5-0.8-8.6c-0.2,1.9-0.2,3.2-0.4,4.5c-0.7,6-3,11.6-5.5,17l0,0c-0.4,0.6-0.9,1.1-1,1.9
					c0.9-0.2,1.1-0.8,1.5-1.4l0,0l0,0c2-2.7,4-5.4,6.1-8.1c2.8-3.5,5.9-6.6,10.3-7.7c4.2-1.1,7.9,0.8,8.5,4.5
					c0.2,1.1,0.3,2.3-1.3,2.4c-1.5,0.2-1.3,1.2-0.6,2c0.9,1.2,1.8,1.3,2.8,0c1.9-2.6,1.2-6-2-8.8c0.2-0.2,0.3-0.3,0.5-0.5l0,0
					c1.1,0.1,2.1,0.6,3,1.1c3.8,1.9,6.1,8,2.2,11.6c-0.7,0.6-1.2,1.5-1.5,2.4c-0.2,0.6-0.4,1.2,0.1,1.7c0.6,0.6,1-0.1,1.5-0.4
					c3-1.9,4.5-6.1,3.8-10c-0.2-0.8-1-2,0.8-2c0.6,0,1.3-0.1,1.1-1c-0.1-0.7-0.8-0.8-1.4-0.8c-1-0.2-2.2,0.4-3-0.7
					c-3.5-4.5-8.2-4.4-13-3.2c-3.6,0.9-6.7,2.8-9.9,5c3.6-7.1,7-14.2,13.7-18.7c3.5-2.4,7.6-3.4,11.8-3c9,0.8,15.3,6,20.1,13.5
					c1.2,1.8,2.6,3.1,4.6,3.8c6.3,2.1,12.9-2,14-8.8C688.7,109.9,684.7,104.4,679.4,104.2z"/>
				<path class="st5" d="M682.7,62.9c-3.7-2.4-6.9-1.9-11.4,1.7c-2.4,1.9-4.3,4.4-6.3,6.8c-7.3,8.4-18.8,10.2-28.1,4.2
					c-7.2-4.7-11.9-11.6-15-19.6c0.8-0.4,1,0.4,1.4,0.8c1.5,1.2,2.9,2.4,4.3,3.7l0,0v0c5.4,4.4,11.1,5,17,1.1
					c1.8-1.2,3.5-2.4,5.5-2.9c0.3-0.1,0.7-0.3,0.7-0.7c0-0.4-0.3-0.8-0.6-0.8c-2,0.1-1.4-1.2-1.2-2.3c0.7-3.5-1.1-7.9-3.8-9.5
					c-1.2-0.6-1.6-0.3-1.6,1c0,1.2,0.7,2.1,1.4,2.9c2.7,3.1,2.7,6.6-0.1,9.7c-1.4,1.6-3.1,2.7-5.2,3c-0.2-0.2-0.3-0.3-0.5-0.5
					c1.9-1.5,3-3.4,3-5.8c0-1.6-0.7-2.9-2.2-3.4c-1.1-0.4-1.9,0.1-2.3,1.1c-0.4,1,0.5,1.3,1.2,1.4c1.5,0.2,1.6,1.1,1.4,2.4
					c-0.4,2.3-1.8,3.6-3.8,4.4c-3.1,1.1-5.8-0.1-8.5-1.4l0,0c-1.9-1.7-4.1-3.2-5.7-5.3c-2-2.5-4-5.1-6-7.6l0,0
					c-0.8-1-1.3-2.1-3.1-2.8c1.1,1.4,1.9,2.4,2.7,3.3l0,0c2.8,6.1,4.1,12.7,5.4,19.7c1.6-2.3,0.6-4.3,0.7-6.3
					c-0.1-0.1-0.1-0.2-0.1-0.3c0,0.1,0.1,0.2,0.1,0.3c0.2-0.3,0.3-0.6,0.5-0.9c0.6,1.1,1.2,2.2,1.9,3.2c2.4,3.5,4.6,7.1,2.4,11.9
					c2.6-0.9,1.1-3.2,2.3-4.6c0.2,0.5,0.4,0.8,0.5,1.1c0.3,1.4,0.2,2.8,0,4.2c-0.1,0.5,0,1.1,0.4,1.1c0.7,0.1,0.8-0.5,0.8-1
					c0.1-0.9-0.4-1.7,0.1-2.8c1.2,1.7,1.6,3.5,1,5.4c-0.1,0.3-0.3,0.7,0.1,0.9c0.4,0.2,0.8-0.1,0.9-0.4c0.4-0.7,0.7-1.5,1.1-2.5
					c1.3,2.7,0.7,5.3,1.2,7.7c0.1,0.4-0.1,1,0.5,1.1c0.6,0.1,0.9-0.3,1.2-0.8c0.4-0.8,0.3-1.6,0.2-2.4c-0.2-1.2-0.5-2.3-0.8-3.4
					c2.7,3.6,5.1,7.1,1.9,11.6c3.4,0.4,4.5-0.6,4.6-3.8c0.1-2.4-1.3-4.3-1.9-6.6c1.4,0.4,2.5,0.7,3.6,1c0.2,0.1,0.5,0.3,0.6,0.6
					c0.5,1,0.2,2,0,3c-0.1,0.4,0.2,0.7,0.6,0.7c0.7,0.1,1.4-0.1,1.6-0.9c0.2-0.6,0.1-1.3,0.1-2c0-0.8,0.1-1.3,1.1-1.2
					c3,0.2,5.7-1,8.3-2.2c2.1-1,4.1-1.6,6.5-1.4c1.5,0.2,3.1,0,4-1.7c-1.2-0.8-2.4,0.7-3.6-0.7c2.5-1.6,3.8-4.1,5.4-6.5
					c3.3-5,5.7-5.7,11.2-3.9c3.8,1.2,5.5,3.9,6.1,7.6c0.7,3.9-1.4,7.1-5.1,8.1c-0.8,0.2-1,1.1-1.6,1.4c-0.8,0.2-1.5-0.7-2.8-0.7
					c1.7,1.9,3.3,1.7,4.9,1.1c3.6-0.9,4.7-3.8,5.4-7.1C688.3,70.1,686.6,65.4,682.7,62.9z"/>
				<path class="st5" d="M585.4,138.1c0.5,0.3,1,0.9,1.5,0.5c0.6-0.3,0.2-0.9,0.1-1.4c-1-4.9-1.6-9.8,0.3-14.7c0.1-0.1,0-0.3,0-0.4
					c0.7-2.6,1.4-5.2-0.1-7.7c0.2,2.4,0,4.8-0.4,7.2c-0.8,2.8-1.8,5.5-4.1,7.4c-1.3,1.1-3.4,2-4.2,0.4c-1.3-2.6-3.5-2.9-5.5-3.8
					c-0.2,1.5-0.2,2.8,0.8,3.9c2.2,2.4,5,2.2,8,1.7c-1.9,3.4-5.9,3.9-8.4,1.1c-2.7-3.1-3.7-6.9-2.4-11c0.6-1.9,1.9-3.1,3.9-3.3
					c2.1-0.2,2.9,1.1,3.7,2.7c0.4,0.9,0.8,2.4,2,1.8c1.1-0.6,0.3-2-0.1-3c-0.3-0.7-0.9-1.2-1.5-1.6c-3.3-2.1-7.5-0.7-9,3
					c-1.5,3.6-0.9,7.1,0.8,10.5c1.6,3.1,4.1,4.6,7.6,4.5c1.6-0.1,2.8-2.2,4.1-1.4C583.7,135.3,584.1,137.2,585.4,138.1z"/>
				<path class="st5" d="M612.4,90.8c-3,1.6-3,2.7-0.2,4.5c3.5,2.3,7.3,1.9,11.1,1.5c4.7-0.6,9.2-2.2,13.9-3.4c0.4,0,1,0,0.9-0.6
					c0-0.4-0.6-0.2-0.9-0.2c-4.1-0.4-8-1.8-12.1-2.5C620.8,89.3,616.5,88.6,612.4,90.8z"/>
				<path class="st5" d="M563.5,38c0.3-3.5-0.4-6.1-3-7.9c-0.5-0.5-1-0.8-1.7-0.9c0.3,0.6,0.7,1,1.3,1.3c1.6,2.3,2.3,4.8,2.1,7.6
					c-0.1,1.7-0.5,3.5-2.1,4.4c-1.2,0.7-1.4,1.6-1.3,2.7l0,0c-0.6,1.2-1.5,2.2-1.1,3.7c0.5-1.1,1-2.2,1.6-3.3l0,0h0
					c9-14.8,29.4-20.3,44.7-14.1c3.2,1.3,5.8,3.5,8.5,5.6c1.8,1.4,3.7,2,5.9,0.2c-1.4-0.2-2.4-0.9-3.4-1.7c-0.5-0.4-1.2-0.8-1.8-0.5
					c-1.1,0.5-1.8-0.2-2.5-0.7c-13-8.2-26.4-9.4-39.9-1.4C568.3,34.4,566.1,36.2,563.5,38z"/>
				<path class="st5" d="M634.2,143.8c-0.3-3.1-1.7-5.7-3.6-6.3c2.3,3.1,2.7,4.4,2.7,8.4c0,2.5-0.2,5-0.8,7.5
					c-0.5,2.1,0.3,3.3,2.1,4c0.9,0.4,1.9,0.7,2.9,0.7c5.2,0.2,10.3-4.1,11.7-10c0.3-1.3,0.9-2.6,0-4.3c-0.4,1.4-0.7,2.5-1,3.6
					c-1.6,5-5.1,7.6-10.1,8.5c-1.6,0.3-2.3-0.4-2.9-1.6c-0.9-1.8-0.4-3.1,1.7-4.4c2.2-1.3,4.7-2,6.8-3.5c1.1-0.8,2-1.7,2.1-3.2
					c0.1-0.7-0.1-1.3-0.9-0.8c-1.8,1.1-3,0.9-3.2-1.9c-1.6,2.9,0.2,7.4-4.5,7.7c-1.4,0.2-1.8-0.4-1.3-1.7c0.6-1.5,0.5-3.2,0.2-4.8
					c-0.5,2.2-0.4,4.5-1.5,6.5C633.7,146.9,634.3,145.3,634.2,143.8z"/>
				<path class="st5" d="M573.2,52.2c-3.4,2.7-4.9,9.8-2.8,13.7c0.8,1.5,1.9,2.6,3.5,3.2c2.9,1.1,6.8-0.7,7-3.2
					c0.1-0.7,0.2-1.7-0.6-2c-0.9-0.2-1,0.8-1.3,1.5c-0.4,1.2-0.8,2.5-2.4,2.5c-3.7,0-6.5-1.9-6.1-6.2c0.2-2,0.8-3.9,2-5.6
					c2.4-3.7,6.2-5.9,9.7-1c-0.8,0.6-1.3-0.2-2-0.3c-2.4-0.5-4.4,0.2-6,2c-1.2,1.3-1.5,2.8-0.5,4.9c0.2-1.6,0.8-2.3,2.1-2.3
					c0.8,0,1.4-0.7,1.8-1.4c1.3-2.2,2.9-2.4,4.9-1.2c2.2,1.8,3.1,4.5,4.5,7c-0.2-2-0.7-4-1.2-5.9c-0.2-0.9-0.5-1.8-0.1-2.6
					c1.3-2,1-4.3,1.3-6.5c0-0.3,0.1-0.9-0.1-1c-0.4-0.3-0.8,0-1.2,0.3c-1.1,0.7-2,1.7-2.6,2.9c-0.6,1.3-1.4,1.4-2.6,0.7
					C578.1,50.1,575.5,50.3,573.2,52.2z"/>
				<path class="st5" d="M661.4,128.9c4.3,3.3,9,4.1,14.2,3.5c5-0.6,9.6-2.1,14.1-4.3c-3.2,6.8-8.9,7.6-15.7,6.8
					c3.5,2.9,9.6,1.9,13.3-0.9c3.9-3,6.3-7.9,5.4-11.8C683.5,130.5,673.4,134.2,661.4,128.9z"/>
				<path class="st5" d="M571,154c7.6,4,15.7,4.7,24,4c4.9-0.5,9.6-1.9,13.9-4.5c1.6-1,2.9-3.1,5.3-2.1c0.1,0.1,0.5-0.1,0.6-0.3
					c0.7-1.2,1.9-1.7,3.2-2.2c-3-1.9-3.4-1.8-5.4,0.3c-2,2.2-4.4,3.8-7.1,5c-6.3,2.9-13,3.5-19.7,3c-6.7-0.6-13.1-2.4-18.4-7
					c-3.5-3.1-5.8-7.2-8.7-10.7l0,0c-0.3-0.6-0.6-1.1-1.6-1.2c0.5,0.7,0.8,1.2,1.2,1.7v0c0.4,1.6,0.5,3.4,2.4,4.1
					c0.3,0.1,0.6,0.5,0.6,0.9c0.9,3.7,1.9,7.3-0.8,10.7c-2.5,1.9-5.3,2.3-8.3,1.3v0c-0.3-0.4-0.4-1-1.1-0.7c0.2,0.6,0.7,0.9,1.2,1.2
					l0,0c3.2,1.6,6.1,1.1,8.7-1.3c2.5-1.9,3-4.7,2.9-8C565.8,150.9,568.3,152.6,571,154z"/>
				<path class="st5" d="M637,28.3c-3.4,0.4-4.2,1.3-4.1,4.7c0,1.1,0,2.2,0.1,3.3c0.6,4.6,0.6,9.1-2.3,13.1c2.6-1.6,3.1-4.2,3.5-7
					c0.2-1.5-0.4-3,0.4-4.4c0.4,1.2,0.9,2.4,1.3,3.6l0,0l0,0l0,3.6c1.2-1.8,0.3-2.9,0.4-4.1l0,0c0.3-1.1-1.5-2.2,0-3.2c0,0,0,0,0,0
					c0,0,0,0,0,0c3.7,0.5,4.6,0.9,4.4,4.7c-0.1,0.8,0.1,1.6,1,2.2c0.4-1.5,1.4-1.8,2.7-1.4c1.6,0.5,1.5-0.4,1.2-1.5
					c-0.6-2.5-2.6-3.2-4.6-3.8c-1.6-0.5-3.4-0.9-4.9-1.8c-1.7-1-1.8-2.6-1.4-4.3c0.4-1.7,1.7-2.3,3.3-2.1c1.2,0.1,2.4,0.6,3.4,1.2
					c2.8,1.7,5.3,3.9,7,6.8h0c0.1,0.5,0,1.1,0.8,1.2c0.1-0.6,0.1-1.2-0.3-1.6h0v0C647.1,31.2,642.6,27.7,637,28.3z"/>
				<path class="st5" d="M654.4,62.9c0.6-1.4,1.5-2.5,2.7-3.4c1-0.8,1.8-1.8,2.2-2.9c0.6-1.5,0.9-3.2-0.5-4.5
					c-0.4-0.4-1.2-1.1-1.7-0.6c-0.6,0.7,0.2,1.2,0.6,1.5c1.3,1,1.3,2.1,0.2,3.2c-1.2,1.3-2.5,2.5-3.7,3.7c-1.6,1.6-2.4,3.6-1.8,5.9
					c0.4,1.5-0.2,2.1-1.3,2.6c-2.5,1.1-5.1,1.5-7.8,1.2c-3.3-0.3-6.5-1-10-2c0.7,1.3,1.4,1.7,2.2,2c5.7,2.6,11.3,2.6,16.9-0.4
					c0.8-0.4,1.5-0.9,2.4-0.8c2.4,0.3,3.9-1.1,5.2-2.9c0.5-0.8,1-1.7,1.6-2.4c0.7-0.9,1.6-2,2.9-1.6c1.4,0.5,0.7,1.9,0.7,2.9
					c0,0.1,0.2,0.2,0.4,0.4c0.9-1.4,1.1-3.1,0.1-4c-1.1-1-2.8-0.6-3.9,0.6c-0.7,0.8-1.3,1.8-1.9,2.7c-0.5,0.8-1.1,1.6-1.9,2.1
					c-1.1,0.6-2.4,1-3.4,0.1C653.6,65.4,653.9,64.1,654.4,62.9z"/>
				<path class="st5" d="M671.3,45c1.7-2.1,3.4-4,5.5-5.5c2.9-2,6-3.6,9.7-3.2c2.8,0.3,3.4,1.4,1.9,3.9c-0.9,1.6-2.4,2.6-4.1,3.1
					c-2.7,0.8-5.4,1.5-8.1,2.3c-1.8,0.5-3.6,1.2-4.5,3.1c2.5-2.2,5.6-2.1,8.4-2.1c4-0.1,6.8-1.7,8.5-5.3c1.2-2.3,2.3-4.7,5.2-5.8
					C682.8,31.8,671.9,38.2,671.3,45z"/>
				<path class="st5" d="M652.6,121c-0.7,2.2,0.2,3.9,1.7,5.4c0.9,0.9,2,1.7,2.9,2.7c1.9,2,1.9,2.8,0,4.8c-0.2,0.2-0.4,0.4-0.1,0.7
					c3-1.4,3.4-2.9,1.4-5.6c-1.3-1.8-3.1-3.2-4-5.3c-0.5-1.2-1.6-2.6,0.1-3.8c1.6-1.1,2.9-0.4,4,0.9c0.7,0.7,1.2,1.7,1.7,2.6
					c0.5,0.8,1,1.6,1.9,2.1c1.2,0.6,2.7,1.2,3.6,0c0.8-1.1,0.8-2.8-0.5-4.1c-0.5,0.7-0.1,1.1-0.1,1.5c0.1,0.9,0.4,1.9-0.5,2.4
					c-0.9,0.4-1.6-0.4-2.2-1c-1.3-1.1-2-2.7-3-4.1c-1.2-1.7-2.7-2.7-4.8-2c-0.7,0.2-1.2,0.1-1.8-0.3c-5.6-4.1-11.5-3.5-17.4-1
					c-1,0.4-1.9,1.2-2.1,2.7c0.8-0.4,1.2-0.7,1.8-1c5.2-2.2,10.5-3.1,15.9-0.4C652.1,118.8,653.1,119.5,652.6,121z"/>
				<path class="st5" d="M629.9,107.1c1.1-0.5,0.3-1.4,0-2.1c-0.9-2,0.2-3.3,1.6-4.3c1.4-1,2.9-1.7,4.5-2.6
					c-5.3-2.2-11.4-0.1-14.3,4.8c-2.3,3.9-1.8,8.6,1.4,11.4c1.1-3.3,1.6-6.8,4.3-9.4c0.3,0.5,0.4,0.9,0.6,1.2
					C628.5,106.7,629.1,107.5,629.9,107.1z"/>
				<path class="st5" d="M622,84.2c2.8,4,8.3,6.2,13.2,3.9c-0.1-0.6-0.6-0.5-1-0.7c-2.7-1.4-5-3.1-4.1-6.8c0.1-0.4,0.1-0.8-0.3-0.9
					c-0.3-0.1-0.8,0-1,0.2c-0.5,0.5-0.9,1.1-1.5,2c-2.1-3-2.6-6.6-4.5-9.5C619.7,75.5,619.5,80.7,622,84.2z"/>
				<path class="st5" d="M480.7,45.8c-0.3,0.1-0.7,0.5-0.7,0.7c0.1,1.5-0.9,2.6-1.7,3.9c1.2,0.1,1.8-0.5,2.5-1.1
					c3.5-3,3.9-7.4,4.9-11.5c0.3,0.1,0.5,0.2,0.5,0.3c2.2,4.6-0.1,11.2-4.6,13.4c-0.5,0.2-1,0.5-0.8,1.1c0.3,0.7,0.9,0.3,1.3,0.1
					c1.5-0.5,2.7-1.3,3.6-2.7c2.7-3.9,2.8-10.6,0.4-14.6c-1.9-3-5.1-4.2-7.8-2.8c-1.3,0.7-1.5,1.1-1.2,2.7c3.1-3.1,5-2.5,6.2,1.8
					c0.2,0.8,0.3,1.7,0.4,2.6C483.9,42.5,483.5,44.9,480.7,45.8z"/>
				<path class="st5" d="M486.9,149.4c1.6-3.9,1.4-7.9-0.4-11.6c-1-2-2.4-3.5-5.1-3.6c5.4,4.1,7,10.1,4.3,14.6
					c-1.8-8.7-3-10.9-6.3-12.1c0,3.5,0,3.5,2.3,5.5c0.8,0.7,1.6,1.5,2.1,2.5c1.2,2.1,0.7,5.8-1,7.2c-1.7,1.5-3.5,1.3-5.8-0.7
					c-0.1-0.1-0.2,0-0.4,0c0.9,2.6,2.1,3.3,4.5,3C483.9,153.7,485.8,152.1,486.9,149.4z"/>
				<path class="st5" d="M568.2,92C568.2,92,568.2,92,568.2,92C568.2,92,568.2,92,568.2,92c-1,4,2.1,9.2,6.3,10.9
					c2.6,1,5.9-0.1,7.4-2.5c1.3-2.1,0.7-4.3-1.4-5.2c0,0.2-0.1,0.4-0.1,0.6c0.2,1.1,0.2,2.1-1.1,2.5c-1.2,0.3-2.1,0.2-2.6-1.4
					c-0.4-1.4-1.6-1.6-2.6-0.4c-0.6,0.7-1.3,1.2-2.2,0.7c-1.7-1.1-3.2-2.3-3.2-4.7c0.3-0.5,0.6-1,1-1.5c1.6-2.3,2.4-2.5,4.7-1
					c1.3,0.8,2.4,0.8,2.6-1.1c0.2-1.7,1.1-1.5,2.1-1c0.8,0.4,1.2,1.2,1.4,2.1c0.1,0.5,0.1,1.2,0.7,1.2c0.5,0,0.8-0.6,1-1.1
					c1.6-3.1-0.6-6.7-4.2-7.1C573.5,82.7,568.9,86.9,568.2,92z"/>
				<path class="st5" d="M619.2,40.4c4.2-0.1,3.3-3.9,4.5-6.1c1.2,1.2,0.6,2.6,1.1,4.1c1.1-1.9,1.5-3.7,0.4-5.6
					c-1.9-3.3-5-4.4-8.8-4.7C618.8,32,623.7,34.9,619.2,40.4z"/>
				<path class="st5" d="M618.7,146.3c2.9,2.5,3.2,4,1.1,7.5c-0.9,1.4-2,2.7-3.1,4.2c4.1,0.5,6.4-0.8,8.1-4.1
					c1.2-2.3,1.1-4.5-0.4-6.4c0.2,1.8,0.6,3.5-0.8,5C622.7,146.9,621.8,145.8,618.7,146.3z"/>
				<path class="st5" d="M555.9,95.6c2.1,0.3,4.2,0.1,6.2-0.8c0.8-0.4,1.8-0.9,1.8-1.8c0-1-1.2-1.2-1.9-1.4c-5-1.7-9.8-0.4-14.5,1.6
					C550.2,94.6,553,95.2,555.9,95.6z"/>
				<path class="st5" d="M655.8,155.4c-0.5-1-1.1-1.9-2-2.6c-0.4-0.3-0.9-0.5-1.4-0.2c-0.6,0.3-0.4,0.9-0.3,1.4
					c0.4,1.9,1.5,3.2,3.3,3.8c3.8,1.2,7.4,0.8,10.4-2.3c3.9-4.1,5-11.1,2.6-16.3c-0.2-0.4-0.3-1.2-0.8-1c-0.4,0.2,0.1,0.7,0.3,1
					c0.2,1.4,0.6,2.8,0.7,4.2c0.4,6.2-2.2,12.7-9.3,13.9C657.6,157.4,656.5,156.9,655.8,155.4z"/>
				<path class="st5" d="M676,152.8c1.4,0.5,3,0.6,4.3,1.6c0.7,0.5,1.5,1.1,1.3,1.9c-0.3,1-1.3,0.5-2.1,0.4
					c-3.4-0.2-6.3-1.6-8.1-4.9c0,1.6,0.6,2.6,1.6,3.4c3,2.6,6.4,3.6,10.2,3.3c1.1-0.1,2.3-0.4,3.3-1c1-0.5,1-1,0-1.5
					c-1.1-0.5-2.1-1-3.2-1.4c-3.5-1.5-6.9-3.3-11-4.6C673.3,152.1,674.7,152.4,676,152.8z"/>
				<path class="st5" d="M568.4,148.3c6.1,3.9,12.3,7.2,19.8,6.7c4.3-0.3,8.5-0.9,12.5-2.3c1.3-0.6,2.6-1.2,3.9-1.8l0,0
					c0.4-0.2,1.1-0.6,0.9-1c-0.3-0.5-0.6,0.2-0.9,0.5v0c-1.4,0.5-2.9,1.1-4.3,1.6c-0.1,0-0.3,0.1-0.5,0.2c-0.8,0.2-1.7,0.3-2.5,0.5
					h0l0,0c-0.3-0.2-0.6-0.3-0.9-0.5l0,0h0l0,0v0l0,0c0.5-0.2,0.9-0.5,1.1-1.4c-0.7,0.4-1.1,0.7-1.5,0.9h0c-10.1,4-19.3,1.2-28-4.6
					C568.1,147.9,568.2,148.2,568.4,148.3z"/>
				<path class="st5" d="M671.9,32.7c-0.3,0.4-0.7,1-0.2,1.3c0.3,0.2,0.5-0.5,0.7-0.8c2.1-2.6,4.8-3.6,8.1-3.2
					c0.4,0.1,0.9,0.1,1.1,0.6c0.2,0.6-0.4,0.9-0.8,1.2c-1.5,1-3.2,1.3-4.8,1.8c-1,0.4-2.2,0.6-2.6,2.5c5.1-2.2,9.9-3.8,14.5-7.1
					c-5-1.6-9.3-1.3-13.4,1C673.2,30.6,672.3,31.5,671.9,32.7z"/>
				<path class="st5" d="M601.1,80.2c0-0.9-0.3-1.8-0.1-2.5c1.1-3.6-1-5.7-3.2-7.8c-2-1.9-4.5-3.3-6.2-5.5c-0.2-0.5-0.5-1-1.4-1.1
					c0.4,0.7,0.7,1.2,1,1.6l0,0c0.5,1.1,1.3,2,2.2,2.7c3.2,2.5,5.3,5.7,5.9,10C599.3,78.7,599.8,79.8,601.1,80.2z"/>
				<path class="st5" d="M690.8,76.1c2.8-0.4,3.9,0.7,4.1,3.9c0.1,3.3-1.7,5.4-3.9,7.2v0c-1.7,1-3.5,2.1-5.2,3.1
					c-0.7,0.2-1.5,0.5-2.2,0.7c-0.5,0.2-1.3,0.4-1.3,0.5c0.3,1.3-0.8,2.6-0.4,3.6c0.4,1.1,1.8,0.5,2.9,0.5c-1.5-2.7-1.5-2.7,1.1-4.5
					c0.2-0.1,0.4-0.2,0.5-0.4c1.8-0.9,3.6-1.8,5.2-3.1c0,0,0,0,0,0c1.5-0.8,2.8-1.8,4-3c2.5-2.7,2.7-5.9,0.5-8.8
					C694.6,74.1,691.7,74.3,690.8,76.1z"/>
				<path class="st5" d="M667.3,96.2c1-0.6,1.3-1.2,0.1-1.9c-1.5-0.8-1.1-1.6,0-2.4c0.4-0.3,1.2-0.8,0.4-1.6
					c-1.4-1.4-5.9-1.5-7.3-0.1c0.9,0,1.8-0.1,2.6,0c0.8,0.1,1.9,0.2,2,1c0.1,1.4-1.4-0.2-1.8,1c1.8,0.5,1.2,1.2-0.3,2
					c0.9,0.6,2.2-0.5,2.3,0.8c0,0.9-1.1,1-1.9,1c-0.9,0.1-1.9,0-3.4,0C662.9,97.7,665.2,97.6,667.3,96.2z"/>
				<path class="st5" d="M641.5,93.4c4.4,2,5.4,7.7,10.8,8.9c-1.4-1.2-2.4-1.9-3-3l0,0c0.4,0.1,0.9,0.3,1.3,0.4
					c2.9,0.9,4.3,0.4,5.4-2c-2.9,0.9-4.7-1.4-7-2.4c0.8,1.6,2.3,2.5,3.4,3.7c-0.5,0.4-0.9,0.2-1.4,0.2c-0.6-0.6-1.2-1.3-1.8-1.9
					c-0.7-0.8-1.2-0.5-1.7,0.1l0,0l0,0c-1-1.3-2.1-2.4-3.4-3.3c-0.6-0.4-1.1-0.9-0.2-1.5c1.8-1.2,2.9-3,4.4-4.5
					c0.1,0.5-0.4,1,0.1,1.6c0.8-0.8,1.3-1.8,2.3-2.3c0.4-0.2,0.9-0.4,1.2,0c0.4,0.5-0.2,0.8-0.5,1c-1,0.8-1.9,1.5-2.8,3.2
					c1.6-1.1,2.6-1.8,3.6-2.5c1.1-0.8,2.4-0.5,3.8-0.5c-1-2.4-2.6-2.6-4.5-2.3c-0.7,0.1-1.4,1-2.2,0.3c0.7-0.6,1.5-1.3,2.2-1.9
					C646.7,85.8,645.5,91,641.5,93.4z"/>
				<path class="st5" d="M595.2,117.2c-0.9,0.8-1.8,1.7-2.7,2.5c-1.2,0.9-1.9,2-2.1,4c1.1-1.4,1.8-2.4,2.6-3.5c2-1.6,4.1-3.1,6-4.7
					c1.4-1.2,2.6-2.8,2.4-4.7c-0.1-1.5-0.3-3,0.1-4.7c-1.8,0.7-2.4,1.4-2.4,3.3C599.1,112.8,597.6,115.2,595.2,117.2z"/>
				<path class="st5" d="M539.9,93.4c0.1-0.4-0.1-0.6-0.3-0.7c-1.1-0.3-1.5-1.3-2-2.2c-0.3-0.4-0.7-0.7-1-0.2
					c-1.2,1.7-3,1.8-4.8,1.8c-0.5,0-1,0.1-1,0.9c0.3,0.7,0.8,1.1,1.6,1.3c1.3,0.3,2.7,0.6,4,0.9C536.9,95.4,539.7,94.1,539.9,93.4z"
					/>
				<path class="st5" d="M512.9,154.8c-0.8-0.3-1.8-0.6-1-1.8c1.4-2.1,1.4-4.4,1.2-6.8l0,0l0,0c-0.2-2.2-0.7-4.3-1.7-6.3l0,0v0
					c0.7,0.3,1.4,0.6,2.2,0.9c0,0,0,0,0,0c2,1.6,4.1,2.2,6.1,0.1c2.6-1,3.8-3.4,3-6.5c-0.1-0.4-0.1-0.9-0.6-1
					c-0.6-0.1-0.9,0.3-1.3,0.7c-0.8,1.1-0.8,2.4-0.7,3.6c0,1.2,0,2.3-1.3,2.7c-1.6,0.5-3.2,0-4.7-0.1l0,0c-0.9-0.4-1.8-0.8-2.7-1.3
					l0,0l0,0c-0.3-0.2-0.5-0.3-0.8-0.5h0l0,0c-0.3-0.3-0.5-0.9-0.9-0.5c-0.3,0.3,0.1,0.7,0.4,1l0,0c1.5,3.2,2.6,6.5,2.3,10.2
					c0,0,0,0,0,0c0,0,0,0,0,0c-1.3,3.9-3.9,5.3-7.4,4.1l0,0c-0.2-1.7-1-2.4-2.6-1.4h0v0c-0.9-0.4-1.8-0.8-2.7-1.2
					c-0.2,0-0.4-0.1-0.6-0.1c-1-0.1-1.9,0.2-2.2,1.3c-0.1,0.2,0,0.6,0.1,0.6c1,0.3,1.2-0.9,1.9-1c1.1-0.1,2.1,0.5,3.1,0.9
					c0,0,0,0,0,0l0,0c0.8,0.5,1.7,0.9,2.5,1.4l0,0c0.8,0.9,2.1,0.8,3.2,1.6c-2.1,1.2-4.2,2-6.4,1c-1.2-0.5-1.2,0.3-1.6,0.9
					c-1.3-0.3-2.7-0.6-3.9-1.3l0,0c-0.4-0.3-0.9-0.6-1.3-0.9l0,0v0c-0.5-0.7-1-1.3-1.4-2c-1.2-2.1-1.1-4.1,0.2-5.6
					c1.7-1.9,2.8-0.4,3.9,0.7c0.3,0.3,0.8,0.5,1.2,0.2c0.5-0.4,0.4-0.9,0.2-1.4c-0.3-0.7-0.9-1.1-1.6-1.3c-1.5-0.5-5.5,0.5-6.3,1.9
					c-0.9,1.4-0.4,3,0.2,4.5c0.6,1.6,1.6,2.8,3.1,3.5h0c0.4,0.3,0.9,0.6,1.3,0.9l0,0c1.3,0.8,2.8,1.1,4.4,1.3
					c4.6,1,8.4-2.4,12.8-2.4C512.7,155.3,512.8,155,512.9,154.8z"/>
				<path class="st5" d="M678.5,98.9c-4-1.3-8.3,2-8.9,6.6l0,0c-0.6,1-0.3,2.1-0.4,3.1c0.1-0.1,0.1-0.2,0.2-0.4
					c0,0.1-0.1,0.3-0.2,0.4c0.2,1.6,0.4,3.1,1.3,4.5l0,0c0.1,0.6,0.3,1,0.8,1.3h0c0.3,1.3,1.2,2,2.2,2.7c0.5,0.3,0.9,0.7,1.4,0.9
					c2.3,1,4.6,0.7,6.5-1c1.9-1.7,2-4,1.5-6.4c-0.4-1.8-1.8-2.6-3.6-2.2c3.3,2.5,3.7,4.8,1.4,7.3c-2.2,2.3-4.6,2-7.1,0.7
					c-0.6-0.7-1.2-1.4-1.8-2.1l0,0h0c-0.4-0.6-0.8-1.2-1.2-1.8v0l0,0c0.1-1.1-1-2.3-0.1-3.4c0.4,2.3,1.6,3.9,3.5,4.9
					c-1.7-1.7-2.4-3.9-3.5-6h0c0-0.3,0-0.6-0.1-0.9l0,0l0,0c0-0.9,0-1.8,0-2.7l0,0l0,0c0.2-0.5,0.1-1,0.7-1.3
					c-0.2,6.5,2.3,10.2,6.4,9.4c-3.5-1.9-5.7-4.7-5.5-8.8C672.3,99.9,675.3,99.2,678.5,98.9z"/>
				<path class="st5" d="M522.6,52.6c0.3-1.7,0.7-3.7-0.3-5.2c-1.2-1.7-3.5-2-5-3.4c0,0-0.1,0-0.2,0c-1.7,0.7-3.5,1.2-4.8,2.8
					c1.7-0.6,3.5-0.8,5.3-0.7c1.7,0.1,2.7,0.8,2.6,2.8c-0.1,1.4,0.1,2.7,1,3.8C521.6,53.1,522.4,53.7,522.6,52.6z"/>
				<path class="st5" d="M659.8,150.4c4.7,0.2,6.7-10.9,3.6-14.4C662.6,141,663.5,146.2,659.8,150.4z"/>
				<path class="st5" d="M561.1,99.1c-5.1,0.6-9.8-1.1-14.8-2.6C549.8,101.3,558.6,103.6,561.1,99.1z"/>
				<path class="st5" d="M662.7,84.3c1.8,1.3,3.7,1.5,5.7,1.5c1.3,0,1.4-0.6,0.6-1.5c-2.1-2.4-4.7-3.8-7.9-3.9c-1.5,0-2.9,0.4-4,1.7
					c1.5-0.1,2.9-0.3,4.4-0.4c1.7-0.1,3,0.5,3.7,2.3C664.4,84.7,663.7,83.4,662.7,84.3z"/>
				<path class="st5" d="M558.1,78.3c3.1,2.5,3,8.3,8.4,8.3C563.6,83.9,563.4,78.3,558.1,78.3z"/>
				<path class="st5" d="M546.9,90.1c4.5-2.2,9.1-3.5,14.5-2.5c-2-3-4.6-2.8-7.2-2.5C550.7,85.5,547.4,87.8,546.9,90.1z"/>
				<path class="st5" d="M664,50.6c1.6-4.2,1.3-8.4-0.9-12.4c-0.6-1.2-1.5-2.1-2.9-2.4c-0.4-0.3-1-0.6-1.3-0.2
					c-0.2,0.4,0.5,0.5,0.8,0.7c2.3,1.7,2.8,4.2,3,6.8c0.2,2.5,0.4,5.1,0.7,7.6C663.6,50.7,663.8,50.7,664,50.6z"/>
				<path class="st5" d="M656.1,104.4c1.4,1.1,2.9,1.4,4.3,1.5c3.2,0.2,6.2-0.7,8.2-3.5c0.3-0.4,1.1-1.1,0.1-1.6
					c-0.8-0.4-5,0.9-5.7,1.7c0.8,0.5,1.9-0.7,2.1,0.5c0.1,0.9-1,1.1-1.7,1.4c-1.4,0.4-2.9,0.3-4.3,0.1
					C658.1,104.2,657.3,104.1,656.1,104.4z"/>
				<path class="st5" d="M565.8,99.9c-4.8,0.6-4.9,5.7-7.7,8.3C563.3,108,563.7,103.2,565.8,99.9z"/>
				<path class="st5" d="M516.6,95.7c1.5,0,2.6-1,2.6-2.3c0-1.5-1.6-2.7-3.6-2.7c-1.8,0-3.6,1.3-3.5,2.6
					C512.1,94.4,514.7,95.8,516.6,95.7z"/>
				<path class="st5" d="M584.7,105.4c-0.2,3.3,2.7,6.8,5.5,7.2c2.3,0.3,4.3-0.2,5.9-2.1c1.3-1.7,0.8-3.4-1.6-4.3
					c1.5,1.5,1.6,2.9,0.3,4.2c-1.1,1.1-2.7,2.1-3.9,1.2C588.7,109.7,585.2,109.2,584.7,105.4z"/>
				<path class="st5" d="M594.9,79.3c-0.2,0.2-0.4,0.5-0.2,0.8c0.2,0.4,0.6,0.4,0.9,0.3c1.1-0.4,1.3-1.3,1.2-2.3
					c-0.3-2.8-2.3-4.5-5-4.2c-3,0.3-5.5,1.7-6.6,4.8c-0.3,0.4-0.6,1-0.2,1.3c0.4,0.2,0.5-0.5,0.7-0.8c1-1.1,1.6-2.7,3.5-2.5
					c0.2,0,0.5-0.2,0.7-0.4c1.6-1.8,3.2-1.9,4.8-0.1C595.4,77,596.8,78.1,594.9,79.3z"/>
				<path class="st5" d="M475.5,51.8c-1.7-3.6-1.6-4.3,1.2-7.1c1-1,2.2-1.8,2.6-3.6c-5.9,3.6-8.2,11.1-3.6,13.6
					C476,52.8,476,52.8,475.5,51.8z"/>
				<path class="st5" d="M493.3,39.9L493.3,39.9c1.3,0.9,2.8,1.1,4.3,0.8c0.7-0.2,1.1-0.7,1.2-1.4c0.1-0.4,0-0.8-0.3-1
					c-0.7-0.4-1.3,0-1.8,0.4c-1,1-2.1,1.6-3.5,0.7l0,0l0,0c-1.8-2.7-1.7-4.4,0.4-6.8c1.1-1.3,2.6-1.9,4-2.9c1.2-0.4,2.1,0.8,3.3,0.5
					c5.7-1.1,9.3,1.6,11.5,7l0,0h0c-0.2,0.8,0.6,1.5,0.2,2.3c-2.8-1.8-4.5-1.1-4.9,2c0.9,0.1,1-0.6,1.3-1.2c0.3-0.8,0.7-1.5,1.7-1.2
					c0.8,0.2,1.2,1,1.3,1.9c0,0.7,0,1.3,0,2l0,0c-0.4,1-1,2-0.7,3.3c1.3-1.3,1.3-1.3,1.6-3.2l0,0c0.7-2,0.5-3.9,0-5.9h0
					c-0.1-0.9-0.2-1.8-0.3-2.6c-0.1-0.8-0.4-1.7-0.2-2.4c0.3-1.1,0.2-1.5-0.5-1.2c-1.8,0.6-3-0.4-4.4-1.1c-3.1-1.5-6.4-1.6-9.7-0.7
					c-3,0.8-5.4,2.4-6.7,5.4C489.5,38,490,39,493.3,39.9z M512.8,41.1C512.7,41.1,512.7,41.1,512.8,41.1
					C512.7,41.1,512.7,41.1,512.8,41.1C512.7,41.1,512.7,41,512.8,41.1C513,40.7,512.8,41,512.8,41.1z"/>
				<path class="st5" d="M477.3,142.6c-2.8-2.4-3.2-4.2-1.9-7.5c0.4-1,0.9-2.1,0.4-3.2c-0.1-0.4-0.5-0.3-0.7-0.2
					c-1,0.7-1.5,1.8-1.7,3c-0.7,3.7,1.7,8,5.8,10.1C478.7,143.6,477.9,143.1,477.3,142.6z"/>
				<path class="st5" d="M659.5,98.8c0.5,0.1,1.3,0,1.3,0.8c0,0.6-0.7,0.7-1.1,0.9c-0.7,0.3-1.6,0.3-2.5,1.4c3.5,0,6.3-0.5,8.3-3.4
					c-2.5,0.2-4.8-0.6-7.4-0.7C658.5,98.7,659,98.7,659.5,98.8z"/>
				<path class="st5" d="M653.2,40.9c1.6,3.4,6.6,2.9,7.3,7.4C660.6,43.5,657.3,40.3,653.2,40.9z"/>
				<path class="st5" d="M622.9,47.5c0.3,2,2.1,3.1,4.4,3c-1.4-1.7-1.9-3.8-1.6-6.3C623.4,44.9,622.6,45.8,622.9,47.5z"/>
				<path class="st5" d="M528.8,96.9c0-1.3,0-2.5,0-3.8h0c0-1.3,0-2.5,0-3.8c0-0.6,0-1.3-0.9-1.1c-0.6,0.1-0.9,0.6-0.7,1.2
					c0.5,1.6-0.2,3.2-0.1,4.9c0.1,1-0.1,1.9,0.3,2.8c0.2,0.4,0.3,1.1,1,1C528.9,97.9,528.8,97.4,528.8,96.9z"/>
				<path class="st5" d="M540.1,98.4c-0.3,0.2-1,0.3-0.8,0.7c0.3,0.5,0.8,0.1,1.2-0.2c3.2-1.3,4.6-4.4,3.4-7.9
					c-0.8-2.3-2.5-3.4-4.4-2.7c2.2,0.8,3.6,2.1,3.7,4.7C543.2,95.4,542,97.1,540.1,98.4z"/>
				<path class="st5" d="M652.5,145.7c3.9,0.6,6.5-1.2,7.7-5.3c0.5-0.7,0.5-1.6,0.2-2.4c-0.2,0.7-0.4,1.3-0.6,2
					C657.8,142.4,654.9,143.6,652.5,145.7z"/>
				<path class="st5" d="M543.7,98.9c0.2,4.7,3.2,6.9,8.5,5.8C548.6,103.6,546.2,101.3,543.7,98.9z"/>
				<path class="st5" d="M659.8,85.8c0.6,0.2,1.3,0.4,1.3,1c0,0.7-0.8,0.7-1.3,0.9c-0.5,0-1.1,0.1-1.3,0.9c1.6-0.1,3,0.3,4.4-0.4
					l0,0c1-0.1,2.1,0.2,3.2-0.3c-2.1-2.5-6-3.7-8.5-2.7C658.3,85.4,659.1,85.6,659.8,85.8z"/>
				<path class="st5" d="M625.7,136c-1-0.3-1.8,0.5-2.2,1.4c-0.2,0.5-0.2,1.1-0.3,1.5c0.1,0.6,0,1,0.1,1.3c0.3,1,0.7,2,1.8,1.9
					c1.3-0.1,0.1-1.2,0.4-1.8c0.3-0.7,0.5-1.4,0.7-2.1C626.3,137.5,626.9,136.4,625.7,136z"/>
				<path class="st5" d="M594,87.4c-0.4,0.1-1.1,0.1-1.2,0.7c-0.1,0.7,0.6,0.8,1,0.9c3,0.9,5.9,0.3,8.6-1.2
					c-2.1,0.4-4.1-0.2-6.2-0.4C595.5,87.4,594.8,87.1,594,87.4z"/>
				<path class="st5" d="M551.3,81.7c-4.6-0.6-7.4,1.4-7.4,5.4C546.5,85.5,548.4,82.9,551.3,81.7z"/>
				<path class="st5" d="M494.9,59.1c1.1,0.4,2.4,0.6,3.6,0.9l0,0c1,0.7,1.9,1.6,2.6,2.6l0,0c0.2,0.6,0.3,1.2,0.5,1.7h0l0,0
					c0.6,2.4,0.4,4.8,0.5,7.2h0l0,0c0,1.7-0.6,3.3-0.9,5l0,0c-1.3,3.9-3.5,7-6.7,9.5c0.4,0.1,0.7,0,1,0c11.2-2.7,20.7-8.6,29.1-16.4
					c4.2-4,8.8-7.5,14.5-9.1c4.4-1.3,8.9-2.1,13.2,0.4l0,0c0.6,0.4,1.2,0.9,1.8,1.3c2.4,2,4.1,4.6,5.8,7.2c0.9,1.4,1.6,3,3.7,2.8
					c0.9-0.1,1.6,0.8,1.6,1.8c0.1,1-0.7,1.4-1.5,1.6c-0.5,0.2-1.2,0-1.4,0.8c1,0.3,1.8,0.1,2.7-0.3c1-0.5,1.6-2.1,2.9-1.5
					c1,0.4,1.8,1.4,2.7,2.2c0.8,0.7,1.7,1.4,2.1,2.5c0.4,1.3-0.7,1.9-1.5,3.1c3.3-1.7,3.8-3.2,2.2-5.6c-1-1.4,0.1-1.2,0.9-1.3
					c2.9-0.2,5.8-0.5,8.2-2.4c1.1-0.9,2.1-1.8,1.9-3.9c-7.1,7.5-13.7,4.2-20.2-0.3c-3.3-2.3-6.4-4.8-9.6-7.2
					c-0.6-0.4-1.2-0.9-1.8-1.3l0,0v0c-1.6-0.9-3.2-1.8-5-2.8c2.4-1.7,5.1-2,7.6-2.6v0c1.8,0.1,3.6,0,5.4,0.2c2,0.3,2.8,1.6,2.4,3.2
					c-0.7,2.2-2,1-3.5,0.3c0.8,2,1.7,2.3,3.2,1.6c1.8-0.8,1.8-2.3,1.5-3.9c-0.3-1.5-1.2-2.3-2.7-2.3c-2.5,0-5,0-7.6,0
					c-1.9-1.8-2-2.3-0.2-4.1c0.4-0.4,0.9-0.8,1.2-1.3c0.5-0.7,1-1.4,0.4-2.2c-0.6-0.8-1.2-1.6-2.8-1.3c1,0.8,2.4,1.2,1.9,2.4
					c-1,2.2-2.2,4.7-3.6,6.4c-2.3,2.9-6.4,3.5-10.6,4.1c1.1-1.8,1.8-3.1,2.2-4.6c1.2-4.6-0.7-8.1-4.8-9c-2.8-0.6-5.8,1-6.5,3.5
					c-0.2,0.6-0.4,1.4,0.1,1.9c0.7,0.6,1.2-0.2,1.7-0.5c0.5-0.4,1-0.8,1.6-1.1c1.1-0.6,1.9,0.1,2.7,0.9c0.5,0.4,1.2,1.5,0.9,1.6
					c-2.1,0.9-0.2,1.7-0.1,2.6c0.1,0.4,0.3,0.9,0.3,1.3c0.3,3-4,7.5-7,7.4c-0.7,0-0.9-0.4-0.8-1c0.5-5.2-1.9-9.7-3.5-14.3l0,0h0
					c-0.3-1.3-0.6-2.6-0.7-3.9c-0.2-1.9-0.3-3.9,2.2-4.6c0.6-0.2,1.3-0.8,1.1-1.5c-0.5-1.7,0.7-1.7,1.6-1.9c0.9-0.2,1.9-0.2,3.2-1.1
					h-4c0.3-1.2,1.6-0.9,2-2.1c-3.9,0.6-5.1,4-7.1,7.1v-3.2l0,0c1.5-4.6,5-6.5,9.3-6.6c4.2-0.1,8.2,1,10,5.7
					c0.3,0.8,0.7,1.6,1.8,1.6c0.2-1.1-0.3-1.7-0.7-2.4c-3.9-7.2-13.8-6.9-18.3-3.7c-1.6,1.1-2.6,2.8-2.6,4.9l0,0
					c-0.8,4.1,0.5,7.9,1.7,11.7h0c0.7,2.8,1.3,5.6,2,8.4c0.9,3.4,0.1,6.6-1.5,9.3c-1.1,1.8-3.4,2.9-5.1,4.4
					c-1.1,0.9-1.5,0.7-1.7-0.8c-0.1-1-0.4-2-1.4-2.6l0,0l0,0c-0.4-0.9-1-1.7-1.1-2.6c-0.1-1.2-0.8-1-1.5-1l0,0
					c-0.3-0.3-0.8-0.7-1-0.4c-0.3,0.4,0.2,0.7,0.6,0.9c0,0,0,0,0,0l0,0c1,1,2,2.1,3,3.1h0c-0.3,0.5,0.8,1.5-0.3,1.6
					c-1.7,0.1-1.2,1.3-0.8,1.7c2,2,0.5,3.1-0.8,4.3c-1.1,1-2.2,2.1-3.5,3c-4.2,3.1-8.9,5.3-13.8,7.1c1-1.8,1.6-3.7,1.8-5.6
					c0.1-0.2,0.2-0.4,0.2-0.6c0.5-1.9,0.7-3.8,1.1-5.7h0l0,0c0.5-1.6,0.7-3.9,2.2-4.3c1.6-0.4,2.5-1.4,3.5-2.4v0
					c1.4,0.4,2.5,1.2,3,2.7c-0.4,1.7-0.8,3.5-1.3,5.8c1.8-2.4,2.9-4.3,1.7-6.7c-0.8-1.4-1.8-2.2-3.4-2.2c-2.6-0.4-4.3,1-5.6,3.1
					c-0.9-1.1-0.2-2.4-0.5-3.6c0.4-5.4,3.5-9.7,5.5-14.4c0.4-1,1.8-1.8,1.1-2.9c-4.2,4.3-5.7,9.9-7.4,15.4c0,0,0,0,0,0
					c-0.9-0.7-1.7-1.4-2.6-2.1l0,0c-2.3-1.7-4.8-3.4-6.9-5.4c-1.1-1.6-2-3.3-1.8-5.4c-0.1,0.1-0.1,0.3-0.2,0.4
					c0-0.2,0.1-0.3,0.2-0.4c-0.2-1.1-1-1-1.6-0.8c-0.8,0.4-0.2,1,0,1.4c0.2,0.4,0.5,0.7,0.7,1.1c0.7,1.4,1.4,2.7,2.1,4.1l0,0
					c0.2,1.2,2,2.1,1.7,2.7C491.7,60.1,494.2,58.8,494.9,59.1z M554,54.2L554,54.2c0.1,0.1,0.2,0.1,0.3,0.2
					C554.1,54.4,554,54.3,554,54.2z"/>
				<path class="st5" d="M593.4,98.1c0,0.3,0,0.5,0,0.8h8.7c0.7,0.5,1.4,0.6,2.3,0.6c-0.4-0.7-1-0.9-1.5-1.1
					C599.7,97.1,596.5,96.1,593.4,98.1z"/>
				<path class="st5" d="M676.6,89.5c-2.4-1.3-4.8-2.3-7.6-1.5c1.5-0.1,2.6,0.7,3.7,1.5l0,0l0,0c-0.2,0.2-0.3,0.3-0.5,0.5
					c-0.5,0.1-1-0.2-1.3,0.7c1.5,0.2,2.8,0.8,4.1,1.6c1.2,0.8,1,1.4-0.1,2c-1.3,0.7-2.8,1-4,2c0.4,0.4,0.9,0.2,1.3,0.2
					c0.1,0.1,0.3,0.3,0.4,0.4l0,0c-1.2,0.5-2.4,1.1-3.6,1.6c1.3,0.3,2.5,0.2,3.7,0c1.8-0.4,3.6-1,4.9-2.5c0.3-0.4,0.8-0.9,0.4-1.4
					c-0.4-0.5-0.9,0.2-1.4,0.1c-0.1-0.2-0.3-0.3-0.4-0.5l0,0l0,0c0.5-0.5,1.3-0.7,1.4-1.6c-0.6-0.3-1.2-0.5-1.5-1.1l0,0l0,0
					c0.6-0.5,1.8,0.6,2-0.5C678.3,90.3,677.3,89.8,676.6,89.5z"/>
				<path class="st5" d="M586.8,81.7c-2.5,4.6,2.2,10.3,7.4,10.5c0.1,0.1,0.2,0.1,0.3,0.1c1.7,0.5,3.3,0.5,5-0.1l0,0c0,0,0,0,0,0
					c6.9-0.9,11.2-5.3,13.6-11.5c3-7.7,3.2-15.7,1-23.8c-0.8-2.9-2-5.7-3.8-8.1c0,0,0,0,0,0c-1.1-2-2.6-3.7-4.3-5.3
					c-6.2-6-13.7-8.2-22.1-7.6c-7.6,0.6-14.2,3.7-19.6,9.3l0,0l0,0c-0.5,0.4-1.2,0.7-1.3,1.6c0.7,0,1-0.6,1.4-1l0,0l0,0
					c0.7-0.4,1.4-0.8,2.1-1.2c2.5-1.6,5-3,7.9-3.7c3.4-0.8,5.7-0.2,5.2,4.2h0v0c-0.7,0.2-1.5,0.4-2.2,0.6c0.8,0.4,1.6,0.5,2.3,0l0,0
					c1.4-0.3,1.7-1.4,1.8-2.7c0.2-3.4-3-2.4-4.5-3.7c5.6-4.2,20.4-2.9,27.9,7.2h0l0,0c0.7,1.4,1.4,2.7,2,4.1l0,0
					c0,0.9,0.1,1.8,0.1,2.7c0,3.3-1.2,5.4-3.6,6.2c-2.4,0.9-3.3,0.4-5.7-2.6c-1.8-2.3-1.8-2.4,0.6-4.3c0.5-0.4,1-0.8,0.8-1.4
					c-0.3-0.8-1.1-0.6-1.7-0.5c-0.8,0.1-1.2,0.8-1.5,1.5c-1.7,3.5,0.3,7.8,4.2,8.2c2.2,0.3,4.5,0.1,6.7,0.1c1.1,0,1.5-0.6,1.6-1.7
					c0.1-2.8,0.1-5.5-0.9-8.1c-0.4-1.7-0.9-3.3-2.1-4.5l0,0c-0.6-1.4-1.5-2.5-2.6-3.5c0.1-0.1,0.3-0.3,0.4-0.5c2.7,2,5,4.4,7,7.1
					l0,0h0c1.8,2.5,2.8,5.3,3.6,8.2c0,0.2,0.1,0.4,0.2,0.6c0,0.1,0,0.2,0.1,0.2c0.2,2.9-0.3,5.8-1.6,8.4c-0.3,0.6-0.4,1,0.1,1.6
					c1.2,1.6,0.8,3.3,0.1,4.8c-1,2.2-4,2.9-6.2,1.7c-1.8-1-1.8-2.1-0.3-4.7c0-0.1-0.1-0.3-0.1-0.4c-1.7,1.2-2.6,3.4-1.8,5.4
					c0.7,1.9,2.4,2,4,1.9c1.7-0.1,3.2-0.8,4.7-1.7c0.5-0.3,0.8-0.9,1.5-0.6c-1.3,8.2-7.5,15.2-15,17l0,0c-1.5,0-2.9,0-4.4,0l0,0l0,0
					C589.7,90.5,586.5,87.8,586.8,81.7z"/>
				<path class="st5" d="M540.1,101.9c0,1.1,0.1,2.1,0.1,3.2c0.7,3.2,2,4.2,4.5,3.4c-1.6-1.4-2-3.4-2.9-5.1
					C541.5,102.7,541.5,101.3,540.1,101.9z"/>
				<path class="st5" d="M593.7,49c-0.9,1.9-1.1,4.1,0.4,6.6c-0.3-3.6,0.2-6.3,3.5-7.5C596.2,47.9,594.5,47.5,593.7,49z"/>
				<path class="st5" d="M543.8,79c0.3-0.4,1.1-0.8,0.6-1.4c-0.4-0.4-1.1-0.3-1.6-0.1c-0.9,0.2-1.6,0.6-1.8,1.7
					c-0.9,1.6-0.8,3.4-0.8,5.1c0,0.4-0.1,1.2,0.8,0.7c0,0,0,0,0,0l0,0C542,83,542.5,80.8,543.8,79z"/>
				<path class="st5" d="M654.9,93.1c0.2,1.3-1.4,0.8-2.1,1.2c-0.2,0.1-0.4,0.1-0.1,0.4c0.8,0,1.5,0.1,2.3,0c0.9-0.1,1.8-0.3,2-1.4
					c0.2-1.2-0.9-1.4-1.7-1.7c-1.3-0.5-2.6-0.6-4.2,0.7c0.7,0.1,1,0.1,1.3,0.1C653.3,92.7,654.7,92.1,654.9,93.1z"/>
				<path class="st5" d="M671.4,71.1c-0.4,0.4-0.9,0.8-0.6,1.5c0.6-0.1,0.8-0.6,1.1-1l0,0c2.1-1.5,4.3-2.4,6.9-2.2l0,0
					c1,0.6,2,1.2,3,1.8l0,0c1.3,3.1,0.5,5.4-2.8,6.7c4.2-0.5,5.3-3,3.3-6.7c0,0,0,0,0-0.1c-0.6-1.1-1.5-1.7-2.5-2.2c0,0,0,0,0,0v0
					C676.1,67.5,673.7,68.2,671.4,71.1z"/>
				<path class="st5" d="M485.7,110.4c-2.5,1.3-4.3,3.1-6.5,4.7C482.6,115,484.8,113.5,485.7,110.4z"/>
				<path class="st5" d="M479.8,71.4c1.6,1.5,3.1,3.2,5.7,4.3C484.5,72.3,482.2,71.7,479.8,71.4z"/>
				<path class="st5" d="M593.5,131.4c-0.2,2.9-0.8,5.2,1.2,6.8c0.9,0.7,2.1,0.7,3.3-0.5C593.3,138.1,594.8,134.1,593.5,131.4z"/>
				<path class="st5" d="M532.3,103.3c0.8-1.5,0.3-2.7-0.8-3.7c-1.4-1.2-2.5-0.8-2.9,1.1c2.3-0.9,2.7-0.6,3.3,2.2
					c-1.8,2.5-4.2,2-6.5,1.3l0,0c-0.3-0.3-0.7-0.8-1-0.4c-0.3,0.4,0.3,0.7,0.6,0.9l0,0C528.2,106.8,531,106.3,532.3,103.3z"/>
				<path class="st5" d="M521,56.4c0,0,0.1,0.1,0.2,0.1c0,0,0.1,0,0.1,0c1,0.5,1.9,0.5,3.3-0.3c-1.4,0.1-2.2,0.1-3.1,0.2
					c0.3-1.4,2.1-0.8,2.5-2.5c-2.1,1.5-3.6,0.2-5.4-1.1C518.7,54.8,519.4,55.9,521,56.4z"/>
				<path class="st5" d="M483,117c-1.5-0.7-3-0.6-5.1,0.5c2.3-0.1,3.7,0.9,5.5,2.4C483,118.6,484.2,117.6,483,117z"/>
				<path class="st5" d="M525,97.1L525,97.1c0.3-0.3,0.7-0.8,0.4-1.1c-0.4-0.4-0.7,0.2-0.9,0.5h0c-1.5,1.5-2.2,3.2-1.1,5.6
					c0.2-0.4,0.2-0.6,0.3-0.8c0.1-0.2-0.2-0.7,0.4-0.5c0.1,0.1,0.1,0.4,0.2,0.6c0.3,0.9,0.6,1.8,2.4,1.9c-1.4-0.7-1.6-1.6-2.1-2.4
					C524.4,99.7,524.7,98.4,525,97.1L525,97.1z"/>
				<path class="st5" d="M523.3,88.4c0.5,0.5,1.1,0.7,1.1-0.3c0-1.6,0.6-3,0.9-4.6c-1.2,0.8-1,2.2-1.9,3c-0.2-0.5-0.3-1-0.4-1.5
					C522.1,86.3,522.3,87.4,523.3,88.4z"/>
				<path class="st5" d="M511,114.9c-0.3-0.3-0.7-0.8-1-0.5c-0.4,0.4,0.2,0.7,0.5,0.9c0.3,1.6,0.5,3.3,0.8,5
					C512.9,118.2,512.8,116.8,511,114.9z"/>
				<path class="st5" d="M483.3,68.5c-0.6-0.6,0.6-1.3-0.1-2.1c-0.4,0.6-0.8,1.1-1.2,1.5c0,0,0,0,0,0c-1.2,0.6-2.6,0.4-4,0.7
					C480.1,70.4,481.7,70.3,483.3,68.5z"/>
				<path class="st5" d="M491.5,45.7c-0.3,0.3-0.9,0.6-0.5,0.9c0.4,0.3,0.7-0.5,1-0.8c1.8-0.8,3.6-1.4,5.7-1.5
					C495.2,42.8,493.5,43.2,491.5,45.7z"/>
				<path class="st5" d="M548.3,75.3c-0.1-0.6,0.9-1.6-0.3-1.8c-0.9-0.1-1.3,0.7-1.5,1.6c-0.6,1.1,0.1,1.9,0.5,2.8v-2.3
					c0.8,1,1,2.6,3,2.7C549,77.4,548.4,76.5,548.3,75.3z"/>
				<path class="st5" d="M699.4,106.8c1-2.2,0.9-3.9-0.6-5.3c-0.4-0.6-0.8-1.3-1.8-1.2c0.5,0.7,0.9,1.2,1.3,1.7
					C698.6,103.5,698.4,105.1,699.4,106.8z"/>
				<path class="st5" d="M699.2,79.5c-0.6,2.2-1.1,3.9-1.6,5.8C699.8,84.2,700.1,83.1,699.2,79.5z"/>
				<path class="st5" d="M597.3,32.8c-3.4-0.7-6.8-1.4-10.1-2.1c-0.4-0.1-0.9-0.2-1.3,0c-4.7,1.9-9.8,2.7-14.2,5.2
					c-1.5,0.9-2.8,1.9-3.6,3.6c0.4-0.1,0.7-0.2,0.9-0.4c4.5-3.5,9.5-5.5,15-6.4c3.9-0.6,7.8-0.6,11.1,2.1c0.7,0.6,1.6,1,2.5,0.6
					c0.1-0.9-2.3-0.6-0.8-2.1c2.3,0.8,4.6,1.5,7,2.2C601.9,33.7,599.6,33.3,597.3,32.8z"/>
				<path class="st5" d="M506.3,99.2L506.3,99.2c7.3,3.3,13.8,8,19.8,13.4c3.4,3,6.8,6.1,10.9,8c6.7,3.1,12.8,2.6,16.6-4.9
					c0.8-1.6,1.6-2.6-0.9-3.6c-2.1-0.8-2-1.2-2.3,1.3c-0.5,4.7-3.5,7-8,6.1c-5.4-1-10-3.7-13.9-7.7c-0.4-0.4-1-0.7-0.7-1.5
					c2.4,0.6,4.5-0.3,6.8-0.9c2.7-0.7,3.1-0.4,2.7,2.6c1.1-0.7,2-1.4,1.9-2.8c-0.1-1.2-0.9-1.6-1.8-1.9c-0.5-0.1-0.9-0.4-1.1-0.9
					c1.8-2.4,1.2-4.9-0.2-7.2c-1.2-2-3-3.3-5.7-3c6.6,4.4,7.3,5.8,5.4,10.2c-3.4,3.6-10.2,3.6-14.5,0.1c-1.4-1.1-0.5-3.4-1.6-3.7
					c-1.2-0.4-2.7,0.8-4.3-0.1c-2.8-1.6-5.6-3-8.7-3.9l0,0c-2.5-1.3-5.1-2.2-7.8-2.7c0,0,0,0,0,0c-0.5-0.5-1.1-0.4-1.7-0.5l0,0l0,0
					c-1.4-0.5-2.7-1-4.7-0.6c1.8,0.4,3,0.8,4.3,1.1c0.6,0.1,1.2,0.3,1.7,0.4c0,0,0,0,0,0l0,0C501.2,97.1,503.7,98.3,506.3,99.2z"/>
				<path class="st5" d="M679.9,95.7c1.6-2.2,1.3-4.1-0.7-5.2C680.3,92,679.8,93.8,679.9,95.7z"/>
				<path class="st5" d="M556.1,37.7c1.5-0.3,2.4-1,2.1-2.7c-0.6,0.9-1.2,1.7-2.1,2.3c-2.2,0.2-4.2,0-6-2.1
					C551.1,37.9,553.1,38.6,556.1,37.7z"/>
				<path class="st5" d="M556.1,154.1C556.1,154.1,556.1,154.1,556.1,154.1C556.1,154.1,556.1,154.2,556.1,154.1L556.1,154.1z"/>
				<path class="st5" d="M556.6,152.5c0.6-1.7-0.3-2.2-2-2.3c0.5,1.4,1,2.7,1.5,4C556.3,153.6,556.4,153,556.6,152.5z"/>
				<path class="st5" d="M554,148.4c-1,0-1.9,0.2-2.6,0.8l0,0c-0.4,0.3-1,0.5-0.8,1.4c0.5-0.4,0.9-0.7,1.3-1
					c0.7-0.3,1.5-0.6,2.2-0.8c1.9,0,3.1,1.2,4.5,2.6C558,148.8,557.2,148.3,554,148.4z"/>
				<path class="st5" d="M508.3,147.1c0.3,0.3,0.6,0.6,1.4,0.4c-0.2-0.5-0.4-0.8-0.6-1.2c-0.3-0.7-0.2-1.7-1.2-1.8
					c-0.1,0-0.4,0.2-0.4,0.3C507.3,145.7,507.7,146.5,508.3,147.1z"/>
				<path class="st5" d="M528.5,85.2c-0.2,1.8,0.6,2.1,1.8,2c1.3-0.1,2.2-0.7,2-2.2c-0.1-0.9,0.2-1.9-0.4-2.7c0,0,0,0,0,0
					c-1.7-2-2.8-2.1-5.5-0.4c2.2-0.2,4.1,0,5.5,1.4l0,0c0,0.6,0,1.1,0,1.7C530.9,86.4,530,87.5,528.5,85.2z"/>
				<path class="st5" d="M512.3,50.6c-0.2-1.4-1.1-1.4-2-1.3c-1.2,0-1.7,0.8-2.2,2.4c1.1-0.7,1.7-1.1,2.2-1.6
					C511.2,49.4,511.6,50.8,512.3,50.6z"/>
				<path class="st5" d="M491.1,92c-0.4,0.1-0.9,0.1-1.3,0.2c-0.6,0.2-1.5,0.2-1.4,1.1c0,0.6,0.8,0.9,1.3,1c1.4,0.1,0-0.9,0.4-1.2
					c0.4-0.3,0.8-0.5,1.2-0.8C491.2,92.2,491.2,92.1,491.1,92z"/>
				<path class="st5" d="M553.1,29c1.9,0,3.7,0.1,5.6,0.2C556.9,28,555,28,553.1,29z"/>
				<path class="st5" d="M558.7,29.2L558.7,29.2L558.7,29.2L558.7,29.2C558.7,29.2,558.7,29.2,558.7,29.2
					C558.7,29.2,558.7,29.2,558.7,29.2L558.7,29.2C558.7,29.2,558.7,29.2,558.7,29.2C558.7,29.2,558.7,29.2,558.7,29.2L558.7,29.2z"
					/>
				<path class="st5" d="M673.7,51.5h7.3c5.3,1.1,8,3.3,8.8,7.3c-4.5-3.3-9.6-4.5-14.9-4.9c-3.9-0.4-7.8,0.1-11.2,2.5l0,0
					c-0.7,0.4-1.3,0.9-1.7,2.2c1-0.8,1.6-1.3,2.2-1.8l0,0c3.9-1.9,8-1.8,12.1-1.1c5.7,1,11.2,2.5,15.1,7.5c0.4,0.5,1,1,1.7,0.7
					c0.9-0.4,0.3-1.2,0.3-1.8c-1.1-8.4-10.1-14.8-18.3-11.5C674.5,50.7,673.9,50.7,673.7,51.5z"/>
				<path class="st5" d="M661,94.2c-1.3-0.1-2.6-0.8-3.5,0.8C658.6,94.6,660,95.2,661,94.2z"/>
				<path class="st5" d="M661.2,92.1c-1.6-0.5-2.6-0.9-4.1-0.6C658.5,92.5,659.5,92.8,661.2,92.1z"/>
				<path class="st5" d="M547.6,107.7c-1.2,1-1.8,2.1-1,3.6c0.2,0.8,0.6,1.5,1.5,1.2c0.8-0.2,0.3-1,0.3-1.5c0-1,0.7-1.7,0.9-2.6
					c-1.9-0.2-0.8,2.3-2.2,2.4C546.9,109.8,547.1,108.7,547.6,107.7z"/>
				<path class="st5" d="M672.3,94.3c0.7-0.4,1.8-0.5,1.5-1.5c-0.3-0.9-1.4-0.8-2.3-0.5c0.3,0.6,1.6,0.6,0.8,1.7h-3.5
					C670.1,95,671.2,94.9,672.3,94.3z"/>
				<path class="st5" d="M509.7,52.8c1.8,1.3,1.9,1.2,2.4-0.7C511.5,53,510.6,52.7,509.7,52.8z"/>
				<path class="st5" d="M670.1,77.9L670.1,77.9c-1.9,2.9-0.6,6.9,3,8.9c0.7,0.5,1.5,0.7,2.4,0.6c-0.3-0.8-1-0.7-1.5-1
					c-2.3-2-2.3-4.5-1.7-7.2l0,0c0.4-3.2,4-3,5.4-5.2c-2.9-0.9-5,0.7-5.8,4.3l0,0c0,0,0,0,0,0c-0.3,1.3-0.7,2.6-1,3.9
					c-0.1,0-0.1,0-0.2,0v-3.8l0,0c0.5-1.2,1.1-2.4,1.7-3.6l0,0c0.7-0.8,1.4-1.7,2.4-2.9c-1.6,0.5-2.2,1.5-2.8,2.4l0,0
					C670.9,75.3,670.6,76.6,670.1,77.9z M672.2,79.1c-0.1-0.1-0.1-0.2-0.1-0.3C672.2,78.9,672.2,79,672.2,79.1z"/>
				<path class="st5" d="M493.4,91.6c1.6,0,2.7-0.2,3.8-0.8l0,0c5.8-1.3,11.2-3.5,16.5-6.2c2-0.2,3.6-2.4,5.9-0.8
					c0.5,0.3,0.6-0.7,0.5-1.1c-0.7-1.8,0.5-2.5,1.8-3.3c1.7-1,3.6-1.7,5.5-1.9c4.3-0.5,8.5,0.8,9.3,4.8l0,0c0.5,4.8-3.2,6.2-6.7,8.2
					c4.7,0,8-4.3,7.2-8.4c0-0.1,0-0.2-0.1-0.3c-0.4-1.4-0.2-2.4,1.3-3.3c1.8-1.1,1.3-2.8-0.9-3.9c-0.5,0.6,0.1,1.1,0,1.7
					c-0.2,1-0.6,1.6-1.6,1.2c-2.7-1-5.5-1.5-8.4-1.7c4.8-5,10.1-8.6,17.2-8.7c3,0,4.9,1.4,5.8,4.4c0.4,1.2,0.5,2.5,0.9,4
					c0.9-0.8,1.6-1.4,2.5-1.6c0.9-0.2,1.2-0.7,0.7-1.6c-2.3-5-6.2-9.2-13.1-7.3c-4.3,1.2-7.8,3.8-11.3,6.5
					c-5.6,4.3-10.7,9.3-16.9,12.7c-5.3,2.6-10.8,4.7-16.5,6.3l0,0l0,0C495.7,90.6,494.7,90.8,493.4,91.6z"/>
				<path class="st5" d="M500.8,138.8c0.4-1.3,0.4-2.1-0.7-3.3C500.3,136.8,500,137.7,500.8,138.8z"/>
				<path class="st5" d="M556.1,154.2L556.1,154.2C556.1,154.2,556.1,154.2,556.1,154.2L556.1,154.2z"/>
				<path class="st5" d="M558.3,154.2h-2.2C557,155.7,557,155.7,558.3,154.2z"/>
				<path class="st5" d="M520.6,130.1c-1.1,0.8-1.7,1.7-1.5,3.2c1.3-1.6,2.9-1.7,4.8-1c-0.6-1.3-1.7-1.3-2.4-1.8
					c0.5-0.6,1.1-0.4,1.7-0.4l0,0c0.6,0.2,1.1,0.8,1.9,0.6c-0.3-0.8-0.8-1-1.4-1.1l0,0l0,0C522.5,128.8,521.5,129.4,520.6,130.1z"/>
				<path class="st5" d="M669.2,46.1c1.3-5.2,0.4-10-3-14.2c-3.2-3.8-8.9-4.8-12.8-2.1c-1.3,0.9-1.2,2.2-1.5,3.5
					c-0.1,0.4,0.2,0.8,0.6,0.8c1.4,0,2-1,2.7-2c0.1-0.2,0.2-0.4,0.3-0.6c0.7-1.6,1.9-2.1,3.5-2.3c2.4-0.3,4.4,0.9,5.9,2.7
					c3.1,3.8,4.2,8.4,3.9,13.3c-0.5,0.8-0.6,1.7-0.8,2.8C668.8,47.5,669,46.7,669.2,46.1z"/>
				<path class="st5" d="M560.4,138.1c5,6.1,11.4,9.9,19.1,11.2c0,0,0,0,0,0c0.9,0.7,2,0.4,3,0.5l0,0l0,0c1.9,0.5,3.8,0.6,5.7,0.2
					c0.3,0.1,0.6-0.2,0.9-0.2c4-0.2,7.7-1.4,11.2-3.2l0,0v0c6.5-3.3,11-8.5,13.4-15.6l0,0h0c2.1-6.7,2.4-13.5,0.9-20.4c0,0,0,0,0,0
					c0,0,0,0,0,0c-0.5-2.4-1.1-4.7-2.5-6.8c0,0,0,0,0,0c-0.9-2.3-2.5-4.2-4.3-5.8c-5.8-5.3-15.3-5.3-20.1,0.1
					c-1.6,1.6-2.2,3.5-1,5.7c0.2-1.8-0.1-3.8,1.5-5.2c3.7-3.5,7.9-4.3,12.7-2.7c4.6,1.5,8.1,4.4,10.8,8.5h0l0,0
					c1.2,2.5,2.4,5.1,2.1,8l0,0c-2.8-2.7-6.1-3.4-8.6-2c-2,1.1-1.5,2.9-1.1,4.5c0.3,1.4,1.3,2.2,2.8,2c-1.5-0.8-2.5-1.9-2.4-3.6
					c0.1-1.1,1.1-1.7,2-2.1c1.8-0.7,3.9,0.2,5.5,2.2c1.2,1.6,1.5,3.3,0.4,5.1c-0.4,0.6-0.7,1.1-0.3,1.8c1.8,3.3,2,6.7,1.3,10.3h0
					c-0.3,0.7-0.6,1.3-0.8,2c-1.9,4.5-4.7,8.3-8.7,11l0,0l0,0c0-0.2,0-0.4,0-0.5c0,0,0,0,0,0c0,0,0,0,0,0c1-1.5,2.2-3,2.7-4.8
					c0.8-1.1,0.9-2.4,1.2-3.7l0,0c0.5-2.4,0.6-4.7,0.1-7.1c-0.2-0.7-0.2-1.3-1.1-1.4c-1.4-0.1-2.7-0.4-4.1-0.5
					c-3.4-0.2-6.4,2-7.2,5.4c-0.4,1.7,0.1,3.1,1.5,4.1c0.6,0.4,1.4,1.3,2,0.3c0.5-0.8-0.5-1.2-1.1-1.5c-1.2-0.7-2-1.4-1.4-3
					c0.9-2.2,3.4-4,5.8-4c2.3,0,3.7,1.2,4.8,4.1l0,0l0,0c0,2.3,0.1,4.6-0.8,6.7c-3.9,7.4-10.5,10.4-18.2,11.6l0,0l0,0
					c-1.5,0-2.9,0-4.4,0c-0.1,0.1-0.2,0.1-0.3,0.1c0.1,0,0.2-0.1,0.3-0.1c-1-0.1-2-0.3-3-0.4l0,0v0c-1.2-0.4-2.4-0.7-3.5-1.6
					c3-0.6,4.6-2.1,4.3-4.3c-0.2-1.7-1-2.7-2.9-2.5c1.9,2.5,1.6,3.7-1.4,4.8c-2.9,1.1-5.5-0.1-8-1.5c-2.9-1.6-5.4-4-8-6.1
					c-0.4-0.5-0.6-1.1-1.4-1.1C559.4,137.4,559.9,137.7,560.4,138.1z"/>
				<path class="st5" d="M693.2,79.2c-0.6-0.7-1.2-0.6-1.9-0.1c-1.3,0.9-2.4,2-2.7,3.6c1.2-0.9,1.9-2.4,3.2-3.2
					C692.2,79.5,692.8,79.8,693.2,79.2z"/>
				<path class="st5" d="M687.4,96.8c-0.5-0.4-0.9-1-1.8-0.8C686,96.7,686.6,96.8,687.4,96.8z"/>
				<path class="st5" d="M543.5,131c0.4,0.6,0.8,1.2,1.3,1.8l0,0c0.1,0.2,0.1,0.4,0.2,0.6c1.3,3.7,0.8,7.2-1,10.5
					c-1.4,2.6-3.6,3.7-6.5,2.7c-0.3-0.1-0.7,0.1-0.9,0.5c-0.1,0.4,0.2,0.6,0.5,0.8c1.9,1.3,3.7,1,5.4-0.2c3.9-2.9,7.1-10.1,2.7-15.4
					c-0.4-0.8-1-1.4-1.7-1.8v0c-0.3-0.5-0.7-1.1-1.3-0.4C542.7,130.4,543.1,130.7,543.5,131L543.5,131z"/>
				<path class="st5" d="M496.9,34.3c0.3,1.2,0.8,1.5,1.6,1.6v0l0,0c1,0,1.8-0.3,2.6-0.8c2.3,0.6,3.4-1.5,5.1-2.3l0,0
					c0.3-0.2,1.1-0.4,0.8-0.7c-0.4-0.5-1.1-0.2-1.7,0.2h0c-1.7,0.4-3.1,1.6-4.7,2.3c-0.7,0.3-1.5,0.6-2.2,0.8h0v0
					C498,35.1,497.5,34.7,496.9,34.3z"/>
				<path class="st5" d="M559.3,32.9c-0.2-0.9-0.8-1.2-1.4-1.5c-1.5-0.3-2.4,0.1-2.2,1.9c0.1,0.6,0.1,1.2-0.5,1.5
					c-0.7,0.3-1,0.8-0.3,1.3c0.6,0.5,1.1,0.1,1.5-0.4c0.5-0.7,0.7-1.4,0.4-2.3c-0.4-1,0.1-1.5,1.1-1.7
					C558.2,32.3,558.4,33,559.3,32.9z"/>
				<path class="st5" d="M586.7,73.5c0.7-0.4,0.8-1,1-1.5c0.5-1.9,0.8-3.9,0.1-5.8l0,0c-0.1-0.5,0.2-1.2-0.8-1.5
					c0.1,1,0.2,1.9,0.3,2.9c0,1.3-0.1,2.7-0.1,4C586.9,72.1,586.7,72.7,586.7,73.5z"/>
				<path class="st5" d="M593.4,121.6c-0.7,0.4-1.3,0.9-1.2,1.9c0.4-0.5,0.8-1,1.2-1.5c0.7-0.3,1.5-0.6,2.2-0.8h0
					c1.7-0.2,3.4-0.3,5.1-0.5c0.5-0.1,1.1-0.1,1-0.8c-0.1-0.5-0.7-0.5-1.1-0.5c-2-0.2-3.8,0.4-5.6,1.3l0,0l0,0
					C594.6,121,594,121.3,593.4,121.6z"/>
				<path class="st5" d="M671.8,138.1c1.1,1.5,2.7,2.2,4.4,2.7c2.7,0.8,5.5,1.4,8.1,2.3c2.3,0.7,4,2.2,4.7,4.8
					c0.4,1.6,0.2,2.3-1.6,2.4c-4.1,0.1-7.7-1.2-10.9-3.6c-1.9-1.5-3.5-3.2-5.3-5.1c0.4,7.5,15.3,13.5,22.1,8.9
					c-2.4-0.8-3.5-2.8-4.4-5c-1.5-3.6-4.2-5.2-7.9-5.6c-2.9-0.4-5.9-0.3-8.6-1.8c-0.4-0.5-0.8-1.2-1.5-1.4
					C670.8,137.4,671.3,137.7,671.8,138.1z"/>
				<path class="st5" d="M560.3,49.3c-0.2,0-0.5,0.5-0.7,0.7c0.1,0.1,0.2,0.2,0.3,0.3c0.2-0.1,0.4-0.2,0.5-0.4
					C560.6,49.7,561.2,49.3,560.3,49.3z"/>
				<path class="st5" d="M544.8,54.6c4.8-5.4,1.9-12.4-1.8-15.5c-1.3-1.1-2.8-1.8-4.6-1.2c-0.8,0.2-2,0.3-1.8,1.4
					c0.2,0.9,1.4,0.7,2.1,0.4c2.3-0.7,3.8,0.4,5,2.1c2.6,3.9,2.4,8.1,0.8,12.3c-0.5,0.5-0.8,1.1-0.9,1.8
					C544.1,55.6,544.6,55.2,544.8,54.6z"/>
				<path class="st5" d="M528,103.7c0.1,0.6,0.8,0.1,1.2,0c0.8-0.6,1.3-1.3,0.8-2.8c-0.4,1.1-0.6,1.7-0.8,2.3
					C528.8,103.4,527.9,102.9,528,103.7z"/>
				<path class="st5" d="M552,29.5c-0.2,0.1-0.4,0.1-0.5,0.2c-0.2,0.2-0.7,0.6-0.2,0.8C551.6,30.7,552.1,30.2,552,29.5z"/>
				<polygon class="st5" points="543.5,56 543.6,56 543.6,55.9 543.6,55.9 543.6,55.9 				"/>
				<path class="st5" d="M542.2,57c0.8,0.1,1-0.6,1.4-1.1C542.9,56.1,542.4,56.2,542.2,57z"/>
				<path class="st5" d="M499.9,45.3c-0.2-0.1-0.6-0.8-0.6,0.1c0,0.2,0.5,0.5,0.7,0.7c0.1-0.1,0.2-0.2,0.3-0.3
					C500.2,45.6,500.1,45.4,499.9,45.3z"/>
				<path class="st5" d="M689.2,105.1c0.7,1,1.4,2.1,2.8,2.3c-0.8-0.9-1.5-1.8-2.3-2.7c-0.3-0.4-0.6-1-1.4-0.7
					C688.6,104.4,688.9,104.7,689.2,105.1z"/>
				<path class="st5" d="M500.7,94.6c-0.2,0.5,0.5,0.5,0.9,0.5c1.4,0,2.9,0.2,4.3,0c1.1-0.2,1.7,0.1,2.3,1c3,4.2,8.2,4.9,12.1,1.6
					c2-1.7,3-3.9,2.3-6.5c-0.7-2.5-2.3-4.3-4.9-4.7c-2.6-0.5-5.1,0.2-7,2c-2.3,2.1-4.8,3.2-7.8,2.6c-0.3,0-0.6,0-0.9,0.1l0,0
					c-0.5,0.1-1.1,0-1.3,0.8h1.7c3.6,1.5,6.7,0.8,9.5-1.9c1.4-1.4,3.3-1.8,5.3-1.5c3,0.3,4.5,2,4.4,4.7c-0.1,2.6-2.1,4.5-4.8,4.7
					c-2.2,0.1-3.9-1-5.4-2.4c-2.2-1.9-4.7-2-7.3-1.5c-0.6,0.1-1.3,0.2-1.9,0.3C501.5,94.4,500.8,94.1,500.7,94.6z"/>
				<path class="st5" d="M690.8,98.8c1.4,1.6,3.2,3,3.8,5.3c1,3.4-0.3,6-3.3,6.5c1.9,1.6,3.5,1.5,4.8-0.6c0.7-1.2,1.3-2.4,1.4-3.9
					c0.1-3.5-1.6-5.6-6-7.3c-0.4-0.3-0.9-1-1.3-0.6C689.8,98.5,690.5,98.7,690.8,98.8z"/>
				<path class="st5" d="M591.5,62.6c-0.4,0.4,0.3,0.7,0.6,0.9c0.5,0.4,1,0.9,1.5,1.3c2.3,1.6,4.6,2.7,7.5,1.8
					c0.4-0.1,0.9-0.3,0.8-0.9c-0.1-0.5-0.6-0.8-1-0.6c-3.3,1.7-5.8-0.3-8.3-2.1C592.3,62.8,591.8,62.3,591.5,62.6z"/>
				<path class="st5" d="M508,134.8c-0.3,0.3,0.2,0.7,0.5,1c0.9,1.1,2,2,3.3,1c1.1-0.8,0.8-2.1,0.2-3.7c0,3.3-0.4,3.6-3,2.1
					C508.6,135.1,508.4,134.5,508,134.8z"/>
			</g>
			<g>
				<path class="st5" d="M26.2,124c2-0.7,3.4-1.9,4.6-3.8c4.8-7.5,11.1-12.7,20.1-13.5c4.2-0.4,8.2,0.6,11.8,3
					c6.7,4.6,10.1,11.7,13.7,18.7c-3.1-2.1-6.3-4-9.8-5c-4.8-1.3-9.5-1.4-13,3.2c-0.9,1.1-2,0.6-3,0.7c-0.6,0.1-1.2,0.1-1.4,0.8
					c-0.1,0.8,0.5,1,1.1,1c1.8,0,1,1.2,0.8,2c-0.7,3.8,0.8,8,3.8,10c0.5,0.3,0.9,0.9,1.5,0.4c0.5-0.5,0.3-1.1,0.1-1.7
					c-0.3-1-0.8-1.8-1.5-2.4c-3.8-3.6-1.5-9.7,2.2-11.6c1-0.5,1.9-1.1,3-1.1l0,0c0.2,0.2,0.3,0.3,0.5,0.5c-3.2,2.8-3.9,6.2-2,8.8
					c1,1.3,1.9,1.2,2.8,0c0.7-0.9,0.9-1.9-0.6-2c-1.7-0.2-1.5-1.3-1.3-2.4c0.7-3.7,4.4-5.6,8.5-4.5c4.4,1.2,7.5,4.3,10.3,7.7
					c2.1,2.6,4.1,5.4,6.1,8.1l0,0l0,0c0.4,0.6,0.7,1.3,1.5,1.4c-0.1-0.8-0.6-1.4-1-1.9l0,0c-2.5-5.4-4.8-10.9-5.5-17
					c-0.2-1.3-0.2-2.6-0.4-4.5c-2,3.1-0.9,5.9-0.8,8.6c-4.8-6.1-6.3-10-5.8-15.6c-1.5,1-0.7,2.5-1.2,3.6c-0.9-0.3-0.8-1.2-1.1-1.8
					c-0.1-1.5,0.1-2.9,0.7-4.5c-2.2,0.5-1.3,2.6-2.4,3.5c-0.4-1.5-1.4-3-0.3-4.7c0.2-0.3,0.1-0.6-0.2-0.8c-0.2-0.1-0.6-0.1-0.8,0.1
					c-0.4,0.4-0.8,1-1.3,1.6c-1.1-2.1-1.7-4.1-1.1-6.4c0.1-0.4,0.7-1,0-1.3c-0.7-0.3-1.3,0.2-1.6,0.8c-0.6,1.1-0.2,2.3-0.3,3.5l0,0
					l0,0c-0.2,0.3-0.3,0.6-0.4,0.9c-1-1.4-1.8-2.9-2.1-4.6c-0.3-1.9-0.3-3.7,1.4-5c-1.8-1.4-3.1-1.1-3.9,0.8
					c-0.9,2.2-0.8,4.5,0.1,6.7c0.2,0.6,0.5,1.2,0.8,1.8c-3.4-0.2-4.1-0.9-4-3.9c0-0.6,0-1.1-0.6-1.2c-0.8-0.1-1.7,0.4-1.5,1.1
					c0.7,3.2-1.5,2.8-3.3,3c-2.3,0.3-4.4,1.3-6.6,2.2c-2.3,1-4.6,1.6-7.1,1.6c-1.1,0-2.1,0.2-2.9,1.2c1.1,0.6,2.6-0.5,3,0.5
					c0.4,1-1.1,1.8-1.7,2.7c-1.7,2.5-3.6,4.8-5.7,7c-4.4,4.6-11.5,1.6-12.9-2.9c-0.5-1.8-2.1-3.1-1.9-5.1c0.3-3,1.7-5.3,4.3-6.8
					c0.8-0.4,1.6-0.9,2.8-1.5c-5.3,0.2-9.3,5.7-8.4,11C13.3,121.9,19.9,126.1,26.2,124z"/>
				<path class="st5" d="M18.1,82.3c1.7,0.7,3.2,0.8,4.9-1.1c-1.3,0-1.9,0.9-2.8,0.7c-0.7-0.3-0.8-1.1-1.6-1.4
					c-3.7-1-5.8-4.2-5.1-8.1c0.6-3.7,2.3-6.4,6.1-7.6c5.5-1.8,7.9-1.1,11.2,3.9c1.6,2.4,2.9,4.9,5.4,6.5c-1.1,1.4-2.4-0.1-3.6,0.7
					c0.9,1.7,2.5,1.9,4,1.7c2.3-0.2,4.4,0.4,6.5,1.4c2.6,1.3,5.3,2.5,8.3,2.2c1-0.1,1.1,0.4,1,1.2c0,0.7-0.1,1.4,0.1,2
					c0.2,0.8,0.9,0.9,1.6,0.9c0.4,0,0.7-0.3,0.6-0.7c-0.2-1-0.5-2.1,0-3c0.1-0.2,0.4-0.5,0.6-0.6c1.1-0.4,2.2-0.6,3.6-1
					c-0.7,2.4-2,4.3-1.9,6.6c0.1,3.2,1.2,4.2,4.6,3.8c-3.1-4.5-0.7-8.1,1.9-11.6c-0.3,1.1-0.6,2.3-0.8,3.4c-0.1,0.8-0.2,1.6,0.2,2.4
					c0.2,0.5,0.6,0.9,1.2,0.8c0.6-0.1,0.4-0.7,0.5-1.1c0.5-2.4-0.1-5.1,1.2-7.7c0.4,1,0.7,1.8,1.1,2.5c0.2,0.3,0.5,0.6,0.9,0.4
					c0.5-0.2,0.2-0.6,0.1-0.9c-0.6-2-0.2-3.7,1-5.4c0.6,1.1,0,1.9,0.1,2.8c0.1,0.5,0.2,1.2,0.8,1c0.4-0.1,0.5-0.7,0.4-1.1
					c-0.2-1.4-0.3-2.8,0-4.2c0.1-0.3,0.3-0.6,0.5-1.1c1.2,1.3-0.3,3.7,2.3,4.6c-2.2-4.8,0-8.4,2.4-11.9c0.7-1,1.3-2.1,1.9-3.2
					c0.2,0.3,0.3,0.6,0.5,0.9l0,0c0.1,1.9-0.9,3.9,0.7,6.3c1.3-7,2.5-13.6,5.4-19.7l0,0l0,0c0.8-0.9,1.5-1.9,2.7-3.3
					c-1.8,0.7-2.4,1.9-3.1,2.8h0c-2,2.5-4,5.1-6,7.6c-1.7,2-3.8,3.5-5.7,5.3l0,0c-2.7,1.3-5.4,2.4-8.5,1.4c-2.1-0.7-3.4-2.1-3.8-4.4
					c-0.2-1.3-0.1-2.2,1.4-2.4c0.7-0.1,1.6-0.4,1.2-1.4c-0.4-1-1.2-1.5-2.3-1.1c-1.5,0.6-2.3,1.8-2.2,3.4c0,2.5,1.1,4.4,3,5.8
					c-0.2,0.2-0.3,0.3-0.5,0.5c-2.1-0.3-3.8-1.4-5.2-3c-2.7-3.1-2.8-6.6-0.1-9.7c0.7-0.8,1.4-1.7,1.4-2.9c0-1.3-0.4-1.6-1.6-1
					c-2.7,1.5-4.6,5.9-3.9,9.5c0.2,1.1,0.8,2.4-1.2,2.3c-0.3,0-0.7,0.3-0.6,0.8c0,0.4,0.3,0.7,0.7,0.7c2.1,0.5,3.8,1.8,5.5,2.9
					c5.9,3.9,11.6,3.3,17-1.1l0,0l0,0c1.4-1.2,2.8-2.5,4.3-3.7c0.4-0.3,0.6-1.1,1.4-0.8c-3.1,8.1-7.7,14.9-15,19.6
					c-9.3,6-20.8,4.3-28.1-4.2c-2-2.3-3.8-4.8-6.3-6.8c-4.5-3.6-7.7-4.1-11.4-1.7c-3.9,2.5-5.6,7.2-4.5,12.3
					C13.5,78.5,14.5,81.4,18.1,82.3z M78.1,60.7c0,0.1-0.1,0.2-0.1,0.2C78.1,60.8,78.1,60.7,78.1,60.7z"/>
				<path class="st5" d="M169.9,71.4c-3.5-2.7-7-5.3-11.3-6.5c-6.9-2-10.8,2.3-13.1,7.3c-0.4,0.9-0.1,1.4,0.7,1.6
					c0.9,0.2,1.7,0.8,2.5,1.6c0.3-1.5,0.5-2.8,0.9-4c1-2.9,2.8-4.4,5.8-4.4c7,0.1,12.4,3.7,17.2,8.7c-2.9,0.2-5.7,0.7-8.4,1.7
					c-1,0.3-1.5-0.3-1.6-1.2c-0.1-0.6,0.5-1.1,0-1.7c-2.2,1.2-2.7,2.8-0.9,3.9c1.5,0.9,1.6,1.9,1.3,3.3c0,0.1-0.1,0.2-0.1,0.3
					c-0.8,4.1,2.5,8.5,7.2,8.4c-3.5-2.1-7.2-3.5-6.7-8.2l0,0c0.8-4,5-5.3,9.3-4.8c1.9,0.2,3.8,0.9,5.5,1.9c1.2,0.7,2.4,1.4,1.8,3.3
					c-0.1,0.4,0,1.5,0.5,1.1c2.3-1.6,3.9,0.6,5.9,0.8c5.3,2.7,10.7,4.9,16.5,6.2h0c1.1,0.6,2.2,0.8,3.8,0.8
					c-1.3-0.8-2.3-1.1-3.4-1.3l0,0c-5.7-1.6-11.2-3.7-16.5-6.3C180.5,80.7,175.4,75.7,169.9,71.4z"/>
				<path class="st5" d="M113.1,121.6L113.1,121.6c-0.4-2.4-0.6-4.8-0.4-7.2c-1.5,2.5-0.8,5.1-0.1,7.7c0,0.1,0,0.3,0,0.4
					c2,4.9,1.3,9.8,0.3,14.7c-0.1,0.5-0.5,1.1,0.1,1.4c0.6,0.3,1.1-0.2,1.5-0.5c1.3-0.9,1.7-2.8,2.9-3.5c1.3-0.8,2.4,1.3,4.1,1.4
					c3.5,0.1,6-1.3,7.6-4.5c1.7-3.4,2.3-6.9,0.8-10.5c-1.5-3.7-5.7-5.1-9-3c-0.6,0.4-1.2,0.9-1.5,1.6c-0.4,1-1.2,2.4-0.1,3
					c1.1,0.6,1.6-1,1.9-1.8c0.8-1.7,1.7-3,3.7-2.7c2,0.2,3.3,1.5,3.9,3.3c1.4,4.1,0.3,7.8-2.4,11c-2.5,2.9-6.5,2.4-8.4-1.1
					c3,0.5,5.8,0.7,8-1.7c1-1.1,1-2.4,0.8-3.9c-2.1,1-4.3,1.2-5.5,3.8c-0.8,1.6-2.9,0.7-4.2-0.4
					C114.9,127.1,113.9,124.4,113.1,121.6z"/>
				<path class="st5" d="M87.8,95.3c2.8-1.9,2.8-3-0.2-4.5c-4.1-2.2-8.4-1.4-12.7-0.7c-4,0.7-8,2.1-12.1,2.5c-0.3,0-0.9-0.1-0.9,0.2
					c-0.1,0.6,0.5,0.5,0.9,0.6c4.6,1.2,9.1,2.9,13.9,3.4C80.5,97.2,84.4,97.6,87.8,95.3z"/>
				<path class="st5" d="M86.8,35.2c-0.7-0.3-1.3,0.1-1.8,0.5c-0.9,0.8-1.9,1.5-3.4,1.7c2.3,1.8,4.2,1.2,5.9-0.2
					c2.7-2.1,5.3-4.3,8.5-5.6c15.3-6.2,35.7-0.7,44.7,14.1h0l0,0c0.5,1.1,1,2.2,1.6,3.3c0.4-1.5-0.5-2.6-1.1-3.7l0,0l0,0
					c0-1.1-0.1-2.1-1.3-2.7c-1.6-0.9-2-2.7-2.1-4.4c-0.1-2.7,0.6-5.3,2.1-7.6c0.5-0.3,1-0.7,1.3-1.3c-0.7,0-1.3,0.3-1.7,0.9
					c-2.7,1.8-3.4,4.5-3,7.9c-2.6-1.8-4.8-3.6-7.2-5c-13.6-7.9-26.9-6.8-39.9,1.4C88.6,34.9,87.9,35.6,86.8,35.2z"/>
				<path class="st5" d="M54.2,143.5c0.1,1.5,1.1,2.4,2.2,3.2c2.1,1.5,4.6,2.1,6.8,3.5c2,1.3,2.5,2.6,1.7,4.4
					c-0.6,1.2-1.3,1.9-2.9,1.6c-5-0.9-8.5-3.5-10.1-8.5c-0.4-1.1-0.6-2.2-1-3.6c-0.8,1.7-0.3,3,0,4.3c1.4,5.9,6.6,10.2,11.7,10
					c1,0,2-0.3,2.9-0.7c1.8-0.8,2.5-2,2-4c-0.5-2.5-0.8-5-0.7-7.5c0.1-4,0.4-5.3,2.7-8.4c-2,0.6-3.3,3.2-3.6,6.3
					c-0.1,1.5,0.5,3.1-0.4,4.5c-1.2-2-1.1-4.3-1.5-6.5c-0.3,1.6-0.4,3.2,0.2,4.8c0.5,1.4,0.2,1.9-1.3,1.7c-4.7-0.3-2.9-4.8-4.5-7.7
					c-0.2,2.9-1.4,3.1-3.2,1.9C54.3,142.1,54.1,142.8,54.2,143.5z"/>
				<path class="st5" d="M113,47.8c-0.2,0.2-0.2,0.7-0.1,1c0.3,2.2,0,4.5,1.3,6.5c0.5,0.8,0.2,1.7-0.1,2.6c-0.5,1.9-1,3.8-1.2,5.9
					c1.3-2.5,2.2-5.2,4.5-7c2-1.2,3.7-0.9,4.9,1.2c0.4,0.7,1,1.5,1.8,1.4c1.3,0,1.9,0.7,2.1,2.3c1-2.1,0.7-3.6-0.5-4.9
					c-1.6-1.9-3.6-2.6-6-2c-0.7,0.1-1.2,0.9-2,0.3c3.5-4.9,7.3-2.7,9.7,1c1.1,1.7,1.8,3.6,2,5.6c0.4,4.3-2.4,6.2-6.1,6.2
					c-1.5,0-1.9-1.3-2.4-2.5c-0.2-0.7-0.4-1.7-1.3-1.5c-0.8,0.2-0.6,1.3-0.6,2c0.2,2.5,4.1,4.2,7,3.2c1.6-0.6,2.7-1.7,3.5-3.2
					c2-3.9,0.6-11-2.8-13.7c-2.4-1.8-4.9-2.1-7.5-0.5c-1.2,0.7-1.9,0.6-2.6-0.7c-0.6-1.2-1.5-2.2-2.6-2.9
					C113.8,47.8,113.4,47.5,113,47.8z"/>
				<path class="st5" d="M10.3,128.1c4.5,2.2,9.1,3.8,14.1,4.3c5.1,0.6,9.8-0.2,14.2-3.5c-12,5.3-22.1,1.7-31.3-6.6
					c-0.9,3.8,1.5,8.8,5.4,11.8c3.7,2.8,9.9,3.8,13.3,0.9C19.2,135.7,13.4,134.9,10.3,128.1z"/>
				<path class="st5" d="M129,154c2.7-1.4,5.2-3.2,7.2-6.1c-0.1,3.4,0.4,6.1,2.9,8c2.6,2.4,5.5,2.9,8.7,1.3c0,0,0,0,0,0
					c0.5-0.3,1-0.6,1.2-1.2c-0.7-0.3-0.8,0.4-1.1,0.7v0c-3,1-5.7,0.6-8.3-1.3c-2.7-3.4-1.7-7.1-0.8-10.7c0.1-0.3,0.4-0.8,0.6-0.9
					c1.9-0.7,1.9-2.5,2.4-4.1v0l0,0c0.3-0.5,0.6-0.9,1.2-1.7c-1,0.1-1.3,0.7-1.6,1.2h0c-3,3.5-5.2,7.7-8.7,10.7
					c-5.3,4.6-11.7,6.4-18.4,7c-6.8,0.6-13.4-0.1-19.7-3c-2.7-1.2-5.1-2.8-7.1-5c-2-2.1-2.4-2.2-5.4-0.3c1.3,0.6,2.5,1,3.2,2.2
					c0.1,0.2,0.4,0.3,0.6,0.3c2.4-1.1,3.7,1,5.3,2.1c4.3,2.7,9,4.1,13.9,4.5C113.3,158.8,121.4,158.1,129,154z"/>
				<path class="st5" d="M67,36.4c0.1-1.1,0.1-2.2,0.1-3.3c0.1-3.5-0.7-4.4-4.1-4.7c-5.6-0.6-10.1,2.9-12,9.4c0,0,0,0,0,0
					c-0.4,0.5-0.4,1-0.3,1.6c0.8,0,0.7-0.7,0.8-1.2h0c1.7-2.9,4.1-5.1,7-6.8c1.1-0.7,2.2-1.1,3.4-1.2c1.6-0.2,2.9,0.4,3.3,2.1
					c0.4,1.7,0.3,3.3-1.4,4.3c-1.5,0.9-3.2,1.2-4.9,1.8c-2,0.7-4,1.3-4.6,3.8c-0.3,1.1-0.4,2,1.2,1.5c1.2-0.4,2.3-0.1,2.7,1.4
					c0.9-0.6,1.1-1.4,1-2.2c-0.3-3.8,0.6-4.2,4.4-4.7c0,0,0,0,0,0c0,0,0,0,0,0c1.5,1.1-0.3,2.1,0,3.2l0,0c0.1,1.2-0.8,2.3,0.4,4.1
					v-3.6l0,0c0.4-1.2,0.9-2.4,1.3-3.6c0.8,1.4,0.2,3,0.4,4.4c0.4,2.8,0.9,5.4,3.5,7C66.4,45.5,66.4,41,67,36.4z"/>
				<path class="st5" d="M8.8,63.2c3.9-5,9.4-6.4,15.1-7.5c4.1-0.7,8.2-0.8,12.1,1.1h0c0.6,0.5,1.2,1,2.2,1.8
					c-0.4-1.3-1-1.8-1.7-2.2l0,0v0c-3.4-2.4-7.2-2.9-11.2-2.5c-5.3,0.5-10.4,1.7-14.9,4.9c0.8-4.1,3.5-6.2,8.8-7.3h7.3
					c-0.3-0.8-0.8-0.7-1.3-0.8c-8.2-3.3-17.2,3.1-18.3,11.5c-0.1,0.6-0.6,1.4,0.3,1.8C7.8,64.2,8.4,63.7,8.8,63.2z"/>
				<path class="st5" d="M100.5,92.2L100.5,92.2c1.7,0.6,3.3,0.6,5,0.1c0.1,0,0.2,0,0.3-0.1c5.2-0.2,9.9-5.9,7.4-10.5
					c0.3,6.1-2.9,8.8-7.9,10.1l0,0c0,0,0,0,0,0c-1.5,0-2.9,0-4.4,0l0,0c-7.5-1.8-13.7-8.8-15-17c0.7-0.3,1,0.3,1.5,0.6
					c1.5,0.9,2.9,1.6,4.7,1.7c1.6,0.1,3.3,0,4-1.9c0.7-2-0.1-4.1-1.8-5.4c0,0.1-0.1,0.3-0.1,0.4c1.5,2.6,1.5,3.7-0.3,4.7
					c-2.2,1.3-5.2,0.5-6.2-1.7c-0.7-1.6-1.2-3.3,0.1-4.8c0.5-0.6,0.4-1,0.1-1.6c-1.3-2.6-1.8-5.5-1.6-8.4c0-0.1,0-0.2,0.1-0.2
					c0.1-0.2,0.1-0.4,0.2-0.6c0.8-2.9,1.8-5.7,3.6-8.2l0,0l0,0c2-2.7,4.3-5.2,7-7.1c0.1,0.1,0.3,0.3,0.4,0.5c-1.1,1-2,2.2-2.6,3.5
					l0,0c-1.2,1.2-1.7,2.9-2.1,4.5c-1,2.6-1,5.4-0.9,8.1c0,1.1,0.5,1.7,1.6,1.7c2.2,0,4.5,0.2,6.7-0.1c3.8-0.5,5.9-4.7,4.2-8.2
					c-0.3-0.7-0.7-1.3-1.5-1.5c-0.6-0.1-1.4-0.3-1.7,0.5c-0.3,0.7,0.3,1.1,0.8,1.4c2.3,1.9,2.3,2,0.6,4.3c-2.4,3.1-3.3,3.5-5.7,2.6
					c-2.4-0.9-3.6-3-3.6-6.2c0-0.9,0.1-1.8,0.1-2.7c0.7-1.4,1.4-2.7,2-4.1l0,0l0,0c7.5-10.1,22.4-11.5,27.9-7.2
					c-1.5,1.3-4.7,0.4-4.5,3.7c0.1,1.3,0.4,2.3,1.8,2.7l0,0c0.7,0.6,1.4,0.4,2.3,0c-0.7-0.2-1.5-0.4-2.2-0.6v0h0
					c-0.5-4.4,1.8-5,5.2-4.2c2.8,0.6,5.4,2.1,7.9,3.7c0.7,0.4,1.4,0.8,2.1,1.2c0,0,0,0,0,0c0,0,0,0,0,0c0.4,0.4,0.6,1,1.4,1
					c-0.1-0.9-0.8-1.2-1.3-1.6l0,0c-5.4-5.6-12-8.7-19.6-9.3c-8.4-0.7-15.9,1.6-22.1,7.6c-1.6,1.6-3.1,3.3-4.3,5.3l0,0
					c-1.9,2.4-3,5.2-3.8,8.1c-2.2,8-2,16,1,23.8C89.3,86.9,93.6,91.3,100.5,92.2L100.5,92.2z"/>
				<path class="st5" d="M47.5,65.8c0.6-2.3-0.2-4.2-1.8-5.9c-1.2-1.3-2.5-2.4-3.7-3.7c-1-1.1-1-2.2,0.2-3.2
					c0.5-0.4,1.3-0.9,0.6-1.5c-0.5-0.5-1.2,0.1-1.7,0.6c-1.4,1.4-1.1,3-0.5,4.5c0.4,1.2,1.2,2.2,2.2,2.9c1.2,0.9,2.1,2,2.7,3.4
					c0.5,1.1,0.8,2.4-0.2,3.3c-1.1,0.9-2.3,0.5-3.4-0.1c-0.8-0.5-1.4-1.3-1.9-2.1c-0.6-0.9-1.1-1.9-1.9-2.7
					c-1.1-1.2-2.8-1.6-3.9-0.6c-1,0.9-0.8,2.6,0.1,4c0.2-0.2,0.4-0.3,0.4-0.4c0.1-1-0.6-2.5,0.7-2.9c1.2-0.4,2.1,0.7,2.9,1.6
					c0.6,0.7,1.1,1.6,1.6,2.4c1.3,1.9,2.8,3.2,5.2,2.9c0.9-0.1,1.6,0.4,2.4,0.8c5.6,3,11.2,2.9,16.9,0.4c0.8-0.4,1.6-0.8,2.2-2
					c-3.5,1-6.7,1.7-10,2c-2.7,0.3-5.3-0.2-7.8-1.2C47.6,67.9,47.1,67.3,47.5,65.8z"/>
				<path class="st5" d="M23.8,45.7c-2.7-0.8-5.4-1.5-8.1-2.3c-1.7-0.5-3.1-1.5-4.1-3.1c-1.5-2.5-0.9-3.7,1.9-3.9
					c3.7-0.4,6.8,1.2,9.7,3.2c2.1,1.5,3.8,3.4,5.5,5.5c-0.6-6.8-11.6-13.3-22.5-9.4c2.8,1.1,4,3.5,5.2,5.8c1.8,3.6,4.6,5.2,8.5,5.3
					c2.9,0.1,6-0.1,8.4,2.1C27.4,46.9,25.6,46.2,23.8,45.7z"/>
				<path class="st5" d="M28.8,141.5c-1.7,1.8-3.3,3.6-5.3,5.1c-3.3,2.5-6.8,3.7-10.9,3.6c-1.8-0.1-2.1-0.8-1.6-2.4
					c0.7-2.6,2.4-4.1,4.7-4.8c2.7-0.9,5.4-1.5,8.1-2.3c1.7-0.5,3.3-1.1,4.4-2.7l0,0c0.5-0.3,1-0.6,1-1.4c-0.8,0.2-1.1,0.9-1.5,1.4
					c-2.7,1.5-5.7,1.4-8.6,1.8c-3.7,0.5-6.4,2-7.9,5.6c-0.9,2.2-2,4.1-4.4,5C13.5,155.1,28.4,149,28.8,141.5z"/>
				<path class="st5" d="M45.4,123.7c-0.9,2.1-2.7,3.5-4,5.3c-2,2.7-1.6,4.3,1.4,5.6c0.4-0.3,0.1-0.5-0.1-0.7c-1.9-2-1.9-2.8,0-4.8
					c0.9-1,2-1.7,2.9-2.7c1.5-1.5,2.3-3.2,1.7-5.4c-0.5-1.5,0.5-2.2,1.6-2.8c5.3-2.7,10.6-1.8,15.9,0.4c0.5,0.2,1,0.5,1.8,1
					c-0.3-1.5-1.1-2.3-2.1-2.7c-5.9-2.5-11.8-3.2-17.4,1c-0.6,0.4-1.1,0.5-1.8,0.3c-2.1-0.7-3.6,0.3-4.8,2c-1,1.4-1.7,3-3,4.1
					c-0.6,0.6-1.3,1.4-2.2,1c-1-0.5-0.6-1.5-0.5-2.4c0-0.4,0.4-0.8-0.1-1.5c-1.3,1.4-1.3,3-0.5,4.1c0.9,1.2,2.4,0.6,3.6,0
					c0.9-0.5,1.4-1.3,1.9-2.1c0.5-0.9,1-1.8,1.7-2.6c1.1-1.2,2.4-2,4-0.9C47,121.1,45.9,122.5,45.4,123.7z"/>
				<path class="st5" d="M207.6,65.2c-0.2,0.9,0.8,3-1.7,2.6c-0.3-0.1-0.4,1.2-0.4,1.8c-0.4,5.9,1.7,11.1,4.8,15.9
					c0.3,0.4,0.6,0.9,0.9,1.3l0,0l0,0c-0.4,0.6-1.2,0.3-1.7,0.7c0.5,0.5,1.1,0.6,1.7,0.6l0,0c1.9,0.6,3.7,1.2,5.6,1.8
					c2,1.2,4.3,1.9,6.4,3.5c-4.6,2.4-9.1,4.1-13.8,5.5c0,0,0,0,0,0l0,0c-1.6,0.5-3.3,0.8-4.8,1.7l0,0c-10.1,2.8-19,7.8-26.6,15.2
					c-3.9,3.7-8,7-12.9,9.3c-8.1,3.8-16.6,2.4-22-3.6c-1.4-1.6-2.5-3.4-3.4-5.4c-0.4-0.8-0.7-1.6-1.8-1.6c-1.1,0-2.5,0.3-2.8-1.4
					c-0.2-1.7,1.1-2.2,2.7-2.8c-1.8-0.5-3,0.1-4.1,0.9c-0.4,0.3-0.6,1.1-1.2,0.7c-1.9-1.2-4.1-2.2-5.1-4.4c-1-2.1,1.4-1.9,2.5-3
					c-1.5-0.4-2.4,0.1-3.3,1c-1.6,1.9-0.7,3.5,0.7,5.3c-4.8,0.5-9.3,1-12.1,5.5c0.9,0.5,1.2-0.1,1.5-0.4c3.9-4.4,8.6-4,13.3-2.2
					c3.7,1.4,6.6,3.9,9.5,6.5c3.8,3.4,7.5,6.9,13.1,8.4c-2.8,2.1-5.6,2.6-8.4,3c0,0,0,0,0,0c0,0,0,0,0,0c-1.3,0-2.6,0-3.9,0
					c-0.3-0.1-0.7-0.1-1-0.2c-1.3-0.5-2.5-1-2.3-2.7c0.2-1.8,1.4-2.2,3-1.8c-1.1-0.8-2.4-1-3.5-0.3c-1.2,0.8-1.1,2.3-0.9,3.6
					c0.2,1.5,1.3,1.8,2.5,1.9c1.7,0.8,3.5,0.3,5.3,0.4v0c0.5,0.1,1,0.1,1.5,0.2c1,0.3,2,0.5,2.3,1.7c0.3,1.2-0.7,1.7-1.3,2.4
					c-0.8,0.8-2,1.4-1.4,2.9c0.4,1.1,1.1,1.7,2.2,2c0.3,0.1,0.6,0,0.7-0.3c-2.5-2-2.5-2-0.1-4.6c0.5-0.6,1.2-1.2,1.1-1.9
					c-0.5-2.5,1.3-3.1,2.8-3.8c2.3-1.3,4.8-1.9,7.6-2.2c0.1,0.9-0.6,1.1-1,1.5v0l0,0l0,0c0,0,0,0,0,0c0,0,0,0,0,0
					c-1.3,3.2-1.1,6.2,1.3,8.9h0c0.3,0.6,0.7,1,1.3,1.3l0,0c0.5,0.8,1.3,1.2,2.2,1.3l0,0c3,1.3,6.2-1.6,5.9-5
					c-1.1,0.5-2.1,1-3.1,1.3c-2.3,0.6-3.5-0.6-2.9-3c0.1-0.3-0.1-0.7-0.2-1.1c-0.9-3.6-0.3-5.4,2.7-7.6c0.1,0,0.1-0.1,0.2-0.1
					c1-0.7,2.2-1.8,3.2-1.6c1.5,0.3,0.6,2.1,0.8,3.2c0.7,3.1,1.7,6.1,2.8,9.1c0.9,2.5,1.4,5,1.6,7.6c0.1,0.9,0.1,2.3-0.3,2.5
					c-2.1,1.2-2.3,4.1-4.7,4.9l0,0c-0.6,0.2-1.3,0.4-1.9,0.6c0.9,0.3,1.7,0.4,2.4-0.2l0,0l0,0c1.3,1.4-0.5,1.2-0.9,1.8l0,0l0,0
					c-0.4,0.2-0.9,0.3-1.5,0.6c0.8,0.5,1.3,0.3,1.9-0.1c3-0.9,4.3-3.5,5.6-6.2c1,4.2-2,8.2-6.5,8.8c-4.9,0.6-9.2-0.4-12.1-5
					c-0.4-0.7-1-1.4-2.1-1.8c0.1,1.9,1.1,3.3,2.3,4.4c3.6,3.5,10,4.5,14.6,2.4c4-1.9,6.1-6.1,5.4-10.9c-0.5-4-1.9-7.8-3.1-11.6
					c-0.7-2.4-1.5-4.8-1.4-7.4c0.1-2.8,1-5.2,3.3-6.9c1.5-1.1,3-2.3,4.7-3.6c0.4,1,0.7,1.9,1.1,2.8l0,0c0.2,1,0.6,1.9,1.2,2.7
					c0.8,1.6,1.9,2.9,3.8,3.8c-0.4-2.3-2.1-3.1-3.3-4.3c-0.4-0.7-0.9-1.5-1.3-2.2l0,0c0.1-0.2,0.2-0.5,0.4-0.7
					c0.6-0.4,0.7,1.2,1.3,0.4c0.6-0.7-0.1-1.5-0.5-2c-1.3-1.4-0.3-2.4,0.6-3.4c3.6-4.3,8.4-6.7,13.3-9c1.3-0.6,2.6-1.2,4.2-1.9
					c-1.7,3.7-1.6,7.5-2.4,11.1c-0.6,2.7-1.6,5.1-4.6,5.8c-1.1,0.3-1,1.3-1.5,2.1c2.6,0.7,4.1-0.9,5.6-3c0.8,1.9,0.3,3.7,0.4,5.4
					l0,0c-0.8,2.8-1.6,5.5-3.4,7.7c-0.3,0.4-0.2,0.8,0,1.2l0,0c-0.2,0.7-0.3,1.5-0.5,2.2c-1.4,1.4-3.6,2.3-2.5,4.9c0,0,0,0,0,0
					c0.2,0.5,0.5,0.9,1,0.8c0.1,0,0.4-0.3,0.4-0.3c-0.1-0.6-0.7-0.6-1-0.9c-0.1-1.8,1.8-2.5,2.2-4c0.5-0.5,0.8-1,0.9-1.7
					c0,0,0,0,0,0c0,0,0,0,0,0c2-3,2.9-6.4,3.4-9.9h0c0.3-0.3,0.6,0,0.9,0.1v0c0.4,0.7,0.9,1.2,1.7,1.3l0,0c0.3,0.6,0.8,1,1.4,1.3v0
					c1.9,1.4,3.9,2.9,5.5,4.7c3.1,3.4,2.8,8.2-1.6,9.7c-1.9,0.5-3.7,0.2-5.4-1.2c0.8,2,3,2.5,5.8,1.6c1.7-0.4,3.1-1.2,3.7-3
					c0-0.1,0.1-0.4,0.1-0.4c2.8-0.7,0.7-2.1,0.3-3c-0.9-2.2-1.8-4.5-3.6-6.3c-1.3-1.3,0.7-0.9,0.9-1.8c-1.6-0.2-3.3-0.5-4.9-0.7
					c0,0,0,0,0,0c-0.6-0.5-1.4-0.7-2.1-0.9l0,0c-0.6-0.6-1.2-1.2-1.7-1.8v0c0,0,0,0,0,0c-0.9-6.7-1.1-13.4,2.4-19.5
					c0.9-1.6,2.2-2.7,3.7-3.7l0,0l0,0c1.5-0.6,2.9-1.2,4.4-1.8l0,0c1.2-0.1,1.9,0,1,1.5c-2.7,4.5-4.8,9.1-5.1,14.5
					c-0.1,1.1,0.1,2.1,0.2,3.1c0,0.3,0.1,0.9,0.6,0.6c1.4-0.8,1.2,0.5,1.4,1.1c1.3,3.2,3.2,6,6.1,7.9c2.6,1.7,5.2,2.1,8,0.5
					c2.7-1.6,3.7-4.2,3.7-7.3l0,0l0,0c0-0.6,0.1-1.3-0.6-1.8c-0.3,0.9-0.1,1.8-0.1,2.6c0,0,0,0,0,0c0,0,0,0,0,0
					c-0.5,2.8-1.9,4.8-4.6,5.6c-0.9,0.3-1.9,0.4-1.8-1.1c0.1-1.4-0.8-0.9-1.4-0.8c-1,0.1-1.9,1.3-3,0.7c-1.4-0.8-2.5-2-3.4-3.4
					c-2.7-4.5-3.7-9.3-2.4-14.5c0.7-2.7,0.7-2.7,2.7-1.2c0.5-0.4,0.1-0.8,0.1-1.2c-0.6-4.9,0.8-7.2,5.4-8.7c2.7-0.9,5.5-1.6,8.3-2.4
					c0.7-0.2,1.4-0.5,2-0.9c1.3-0.8,1.3-1.5-0.1-2.1c-3.1-1.3-6.3-2.2-9.5-2.8c-0.8-0.4-1.7-0.8-2.5-1.2c-3.3-1.8-3.7-2.7-3.2-6.5
					c0.1-0.7,0.1-1.3,0-2c0-0.4-0.4-0.8-0.7-0.5c-2,1.9-2-0.6-2.2-1.3c-1.8-5-0.3-9.6,2.1-14c2.1-3.9,2.7-4.1,7-2.7
					c0.8,0.2,1.2,0,1.1-0.8c-0.3-2.4,1.2-1.5,2.1-1.2c2.4,0.9,3.7,2.8,4.4,5.7c0.6-2.5-0.3-4-1.8-5.2
					C217.9,55.6,209.1,58.9,207.6,65.2z M194.2,133.6c0.1,0.1,0.1,0.2,0.2,0.4C194.3,133.9,194.2,133.8,194.2,133.6z"/>
				<path class="st5" d="M78.3,102.9c-2.9-4.9-9-7-14.3-4.8c1.6,0.9,3.1,1.6,4.5,2.6c1.4,1,2.5,2.3,1.6,4.3c-0.3,0.7-1.1,1.6,0,2.1
					c0.8,0.4,1.5-0.4,1.9-1c0.2-0.3,0.4-0.7,0.6-1.2c2.7,2.6,3.1,6.2,4.3,9.4C80.1,111.4,80.6,106.8,78.3,102.9z"/>
				<path class="st5" d="M70.3,79.7c-0.5,0.1-0.4,0.5-0.3,0.9c0.9,3.7-1.4,5.4-4.1,6.8c-0.4,0.2-0.9,0.1-1,0.7
					c4.8,2.3,10.3,0.1,13.1-3.9c2.5-3.6,2.3-8.7-0.7-11.9c-1.9,2.9-2.3,6.5-4.5,9.5c-0.6-0.8-1-1.5-1.5-2
					C71.1,79.7,70.7,79.6,70.3,79.7z"/>
				<path class="st5" d="M213.9,35.6c-2.5,4-2.3,10.7,0.4,14.6c0.9,1.3,2.1,2.2,3.6,2.7c0.4,0.1,1,0.6,1.3-0.1
					c0.3-0.6-0.3-0.9-0.8-1.1c-4.5-2.2-6.8-8.8-4.6-13.4c0-0.1,0.2-0.1,0.5-0.3c1,4.2,1.5,8.5,4.9,11.5c0.6,0.5,1.3,1.1,2.5,1.1
					c-0.8-1.3-1.7-2.4-1.7-3.9c0-0.2-0.4-0.6-0.7-0.7c-2.9-1-3.2-3.3-3.1-5.9c0-0.9,0.1-1.8,0.4-2.6c1.3-4.4,3.1-4.9,6.2-1.8
					c0.3-1.5,0.1-1.9-1.2-2.7C219,31.4,215.8,32.5,213.9,35.6z"/>
				<path class="st5" d="M216.3,144.6c0.5-1,1.3-1.8,2.1-2.5c2.3-2,2.3-2,2.3-5.5c-3.4,1.2-4.5,3.4-6.3,12.1
					c-2.7-4.5-1.1-10.4,4.3-14.6c-2.7,0.1-4.2,1.6-5.1,3.6c-1.8,3.8-2.1,7.7-0.4,11.6c1.1,2.7,3,4.3,5.8,4.7c2.4,0.4,3.6-0.4,4.5-3
					c-0.1,0-0.3-0.1-0.4,0c-2.3,2-4.1,2.2-5.8,0.7C215.6,150.4,215.1,146.7,216.3,144.6z"/>
				<path class="st5" d="M86.3,130.9L86.3,130.9c2.4,7.1,6.9,12.3,13.4,15.6v0l0,0c3.5,1.9,7.2,3,11.2,3.2c0.3,0,0.7,0.3,0.9,0.2
					c1.9,0.4,3.8,0.3,5.7-0.2l0,0c0,0,0,0,0,0c1-0.1,2.1,0.2,3-0.5c0,0,0,0,0,0c7.7-1.3,14-5.1,19.1-11.2c0.5-0.4,1-0.8,0.9-1.5
					c-0.8-0.1-1,0.6-1.4,1.1c-2.6,2.1-5,4.4-8,6.1c-2.5,1.4-5.1,2.6-8,1.5c-2.9-1.1-3.3-2.3-1.4-4.8c-1.9-0.2-2.7,0.9-2.9,2.5
					c-0.2,2.2,1.4,3.7,4.3,4.3c-1.1,1-2.4,1.2-3.5,1.6v0l0,0c-1,0.1-2,0.3-3,0.4l0,0c-1.5,0-3,0-4.4,0l0,0l0,0
					c-7.7-1.2-14.3-4.2-18.2-11.6c-1-2.2-0.9-4.4-0.8-6.7l0,0c1-2.9,2.4-4.1,4.8-4.1c2.4,0,4.9,1.7,5.8,4c0.7,1.6-0.2,2.3-1.4,3
					c-0.6,0.3-1.6,0.7-1.1,1.5c0.6,1,1.4,0.1,2-0.3c1.4-1,1.9-2.3,1.5-4.1c-0.9-3.4-3.8-5.7-7.2-5.4c-1.4,0.1-2.7,0.4-4.1,0.5
					c-0.9,0.1-1,0.7-1.1,1.4c-0.5,2.4-0.4,4.7,0.1,7.1h0c0.3,1.3,0.3,2.6,1.2,3.7c0.5,1.9,1.7,3.3,2.7,4.8l0,0l0,0
					c0,0.2,0,0.4,0,0.5l0,0l0,0c-4-2.7-6.8-6.5-8.7-11c-0.3-0.7-0.6-1.3-0.8-2l0,0c-0.7-3.6-0.5-7.1,1.3-10.3c0.4-0.7,0-1.2-0.3-1.8
					c-1.1-1.8-0.8-3.6,0.4-5.1c1.5-2,3.6-2.9,5.5-2.2c1,0.3,2,0.9,2,2.1c0.1,1.7-0.9,2.8-2.4,3.6c1.5,0.2,2.5-0.6,2.8-2
					c0.3-1.6,0.9-3.4-1.1-4.5c-2.5-1.4-5.8-0.7-8.6,2c0,0,0,0,0,0l0,0c-0.3-3,0.9-5.5,2.1-8l0,0h0c2.7-4.1,6.2-7,10.8-8.5
					c4.7-1.5,9-0.7,12.7,2.7c1.6,1.4,1.3,3.4,1.5,5.2c1.1-2.2,0.5-4-1-5.7c-4.7-5.3-14.3-5.4-20.1-0.1c-1.8,1.7-3.3,3.5-4.3,5.8l0,0
					c-1.4,2-2,4.4-2.5,6.8c0,0,0,0,0,0c0,0,0,0,0,0C83.9,117.4,84.2,124.2,86.3,130.9z M116.6,149.3c0.1,0,0.2,0.1,0.3,0.1
					C116.8,149.4,116.7,149.4,116.6,149.3z"/>
				<path class="st5" d="M117.9,90.2c0.2,0.5,0.4,1.1,1,1.1c0.6,0,0.6-0.7,0.7-1.2c0.1-1,0.5-1.7,1.4-2.1c1-0.4,2-0.7,2.1,1
					c0.2,1.9,1.3,2,2.6,1.1c2.3-1.5,3.1-1.4,4.7,1c0.3,0.5,0.6,1,1,1.5c0,2.3-1.5,3.6-3.2,4.7c-0.9,0.6-1.6,0.1-2.2-0.7
					c-1.1-1.3-2.2-1.1-2.6,0.4c-0.5,1.6-1.4,1.7-2.6,1.4c-1.3-0.3-1.3-1.4-1.1-2.5c0-0.2-0.1-0.4-0.1-0.6c-2.1,0.9-2.7,3.1-1.4,5.2
					c1.5,2.4,4.8,3.5,7.4,2.5c4.3-1.6,7.3-6.9,6.3-10.9c-0.7-5.1-5.3-9.3-9.7-8.9C118.5,83.5,116.3,87.1,117.9,90.2z"/>
				<path class="st5" d="M80.8,40.4c-4.5-5.4,0.4-8.4,2.8-12.3c-3.8,0.3-6.9,1.4-8.8,4.7c-1.1,1.9-0.7,3.6,0.4,5.6
					c0.5-1.4-0.1-2.9,1.1-4.1C77.5,36.4,76.6,40.3,80.8,40.4z"/>
				<path class="st5" d="M75.6,147.6c-1.5,1.8-1.6,4.1-0.4,6.4c1.7,3.3,4.1,4.6,8.1,4.1c-1.1-1.5-2.2-2.8-3.1-4.2
					c-2.1-3.5-1.9-5.1,1.1-7.5c-3.2-0.5-4.1,0.6-4.8,6.3C75.1,151.1,75.5,149.4,75.6,147.6z"/>
				<path class="st5" d="M138,91.6c-0.7,0.3-2,0.4-1.9,1.4c0,0.8,1,1.4,1.8,1.8c2,0.9,4.1,1.1,6.2,0.8c2.9-0.4,5.8-1.1,8.5-2.4
					C147.8,91.2,143,89.9,138,91.6z"/>
				<path class="st5" d="M27,155.2c1-0.8,1.6-1.8,1.6-3.4c-1.9,3.2-4.7,4.6-8.1,4.9c-0.7,0-1.8,0.6-2.1-0.4
					c-0.2-0.8,0.6-1.4,1.3-1.9c1.3-0.9,2.8-1.1,4.3-1.6c1.3-0.5,2.6-0.8,3.6-2.7c-4.1,1.3-7.4,3.1-11,4.6c-1.1,0.4-2.1,0.9-3.2,1.4
					c-1,0.5-1,0.9,0,1.5c1,0.6,2.2,0.9,3.3,1C20.6,158.8,24.1,157.8,27,155.2z"/>
				<path class="st5" d="M24.2,33.6c-1.6-0.6-3.4-0.8-4.8-1.8c-0.4-0.3-1-0.5-0.8-1.2c0.1-0.5,0.7-0.5,1.1-0.6
					c3.2-0.4,5.9,0.6,8.1,3.2c0.2,0.3,0.3,1,0.7,0.8c0.5-0.3,0.1-0.9-0.3-1.3c-0.5-1.2-1.4-2.1-2.5-2.7c-4.1-2.3-8.4-2.6-13.4-1
					c4.6,3.3,9.4,4.9,14.5,7.1C26.4,34.2,25.2,33.9,24.2,33.6z"/>
				<path class="st5" d="M44.4,31.4c0.1,0.2,0.2,0.4,0.3,0.6c0.7,1,1.3,2,2.7,2c0.4,0,0.7-0.4,0.6-0.8c-0.2-1.3-0.2-2.7-1.5-3.5
					c-3.9-2.6-9.6-1.7-12.8,2.1c-3.4,4.2-4.3,9-3,14.2c0.2,0.7,0.4,1.4,1.2,2c-0.2-1.1-0.3-2-0.8-2.8c-0.3-4.9,0.7-9.5,3.9-13.3
					c1.5-1.8,3.4-3,5.9-2.7C42.5,29.3,43.8,29.9,44.4,31.4z"/>
				<path class="st5" d="M131,39c0.3,0.2,0.6,0.4,0.9,0.4c-0.8-1.6-2-2.7-3.6-3.6c-4.5-2.5-9.5-3.4-14.2-5.2c-0.4-0.1-0.9-0.1-1.3,0
					c-3.4,0.7-6.8,1.4-10.1,2.1c-2.3,0.5-4.6,0.9-6.5,2.7c2.3-0.7,4.6-1.5,7-2.2c1.5,1.4-0.9,1.2-0.8,2.1c0.9,0.4,1.8,0,2.5-0.6
					c3.4-2.7,7.2-2.7,11.1-2.1C121.5,33.5,126.5,35.5,131,39z"/>
				<path class="st5" d="M155.2,54.6c0.3,0.6,0.7,1,1.3,1.3c-0.1-0.7-0.3-1.3-0.9-1.8c-1.6-4.2-1.8-8.4,0.8-12.3
					c1.2-1.8,2.7-2.8,5-2.1c0.7,0.2,1.9,0.5,2.1-0.4c0.3-1.1-1-1.2-1.8-1.4c-1.8-0.6-3.3,0.1-4.6,1.2
					C153.2,42.2,150.4,49.2,155.2,54.6z"/>
				<path class="st5" d="M5.4,104.1c0.6-2.3,2.4-3.7,3.8-5.3c0.4-0.1,1-0.3,0.7-0.6c-0.4-0.4-0.9,0.2-1.3,0.6
					c-4.5,1.8-6.1,3.9-6,7.3c0,1.5,0.6,2.7,1.4,3.9c1.3,2,2.9,2.2,4.8,0.6C5.7,110.1,4.4,107.6,5.4,104.1z"/>
				<path class="st5" d="M106.6,67.7c0.9-0.7,1.7-1.6,2.2-2.7c0,0,0,0,0,0c0.3-0.4,0.5-0.8,1-1.6c-0.9,0.2-1.2,0.6-1.4,1.1
					c-1.8,2.2-4.2,3.6-6.2,5.5c-2.2,2.1-4.3,4.2-3.2,7.8c0.2,0.7,0,1.6-0.1,2.5c1.4-0.5,1.8-1.5,1.9-2.6
					C101.3,73.4,103.4,70.2,106.6,67.7z"/>
				<path class="st5" d="M32.1,90.3c-0.8,0.8,0,1.3,0.4,1.6c1.1,0.9,1.5,1.6,0,2.4c-1.2,0.7-0.9,1.3,0.1,1.9
					c2.1,1.4,4.5,1.5,7.2-0.1c-1.5,0-2.4,0.1-3.4,0c-0.8-0.1-1.9-0.1-1.9-1c0.1-1.3,1.3-0.2,2.3-0.8c-1.5-0.7-2.1-1.4-0.3-2
					c-0.3-1.1-1.9,0.4-1.8-1c0.1-0.9,1.2-1,2-1c0.8-0.1,1.7,0,2.6,0C38,88.8,33.5,88.9,32.1,90.3z"/>
				<path class="st5" d="M154.3,33.7c-0.4,0.7-0.9,1.3-0.7,2.4c1,0,1.5-0.8,1.8-1.6c1.9-4.7,5.8-5.8,10-5.7c4.3,0.1,7.8,2,9.3,6.6
					v3.2c-2-3.2-3.3-6.5-7.1-7.1c0.4,1.2,1.7,0.9,2,2.1h-4c1.4,0.9,2.3,0.9,3.2,1.1c0.9,0.2,2.1,0.3,1.6,1.9
					c-0.2,0.7,0.5,1.3,1.1,1.5c2.5,0.7,2.3,2.7,2.2,4.6c-0.1,1.3-0.5,2.6-0.7,3.9h0l0,0c-1.6,4.6-4,9.1-3.5,14.3
					c0.1,0.6-0.1,0.9-0.8,1c-3,0.1-7.2-4.4-7-7.4c0-0.4,0.2-0.9,0.3-1.3c0.1-0.8,2.1-1.7-0.1-2.6c-0.3-0.1,0.5-1.1,0.9-1.6
					c0.7-0.7,1.5-1.5,2.7-0.9c0.6,0.3,1.1,0.8,1.6,1.1c0.5,0.4,1,1.1,1.7,0.5c0.5-0.5,0.3-1.2,0.1-1.9c-0.7-2.5-3.7-4.1-6.5-3.5
					c-4.2,0.9-6,4.4-4.8,9c0.4,1.5,1.1,2.9,2.2,4.6c-4.2-0.7-8.2-1.2-10.6-4.1c-1.4-1.7-2.6-4.2-3.6-6.4c-0.6-1.2,0.9-1.6,1.9-2.4
					c-1.6-0.3-2.2,0.5-2.8,1.3c-0.6,0.8-0.1,1.6,0.4,2.2c0.3,0.5,0.8,0.9,1.2,1.3c1.8,1.8,1.8,2.3-0.2,4.1c-2.5,0-5,0-7.6,0
					c-1.5,0-2.4,0.8-2.7,2.3c-0.3,1.6-0.3,3.1,1.5,3.9c1.5,0.7,2.4,0.4,3.2-1.6c-1.4,0.7-2.8,2-3.5-0.3c-0.5-1.6,0.3-2.9,2.4-3.2
					c1.8-0.3,3.6-0.2,5.4-0.2v0c2.6,0.6,5.2,0.9,7.6,2.6c-1.8,1-3.4,1.9-5,2.8v0l0,0c-0.6,0.4-1.2,0.9-1.8,1.3
					c-3.2,2.4-6.3,4.9-9.6,7.2c-6.5,4.5-13.1,7.8-20.2,0.3c-0.1,2.1,0.8,3,1.9,3.9c2.4,1.9,5.3,2.2,8.2,2.4c0.8,0.1,1.9-0.2,0.9,1.3
					c-1.6,2.4-1.1,3.9,2.2,5.6c-0.8-1.2-2-1.8-1.5-3.1c0.4-1.1,1.3-1.8,2.1-2.5c0.8-0.8,1.7-1.8,2.7-2.2c1.3-0.6,1.9,1.1,2.9,1.5
					c0.9,0.4,1.8,0.6,2.7,0.3c-0.2-0.8-0.9-0.6-1.4-0.8c-0.8-0.3-1.5-0.6-1.5-1.6c0.1-1,0.8-1.9,1.6-1.8c2.2,0.2,2.8-1.4,3.7-2.8
					c1.7-2.6,3.3-5.2,5.8-7.2c0.6-0.4,1.2-0.9,1.8-1.3l0,0c4.3-2.5,8.8-1.7,13.2-0.4c5.6,1.7,10.2,5.2,14.5,9.1
					c8.5,7.9,17.9,13.7,29.1,16.4c0.3,0.1,0.5,0.1,1,0c-3.2-2.5-5.4-5.6-6.6-9.5l0,0c-0.3-1.7-0.9-3.2-0.9-5l0,0h0
					c0.1-2.4-0.1-4.8,0.5-7.2l0,0l0,0c0.2-0.6,0.3-1.2,0.5-1.7l0,0c0.7-1,1.6-1.9,2.6-2.6l0,0c1.2-0.3,2.4-0.5,3.6-0.9
					c0.7-0.3,3.2,1,1.7-1.8c-0.3-0.6,1.5-1.5,1.7-2.7l0,0c0.7-1.4,1.4-2.7,2.1-4.1c0.2-0.4,0.5-0.7,0.7-1.1c0.2-0.5,0.8-1.1,0-1.4
					c-0.6-0.3-1.4-0.3-1.6,0.8c0.1,0.1,0.2,0.2,0.2,0.4c-0.1-0.1-0.1-0.3-0.2-0.4c0.2,2.1-0.6,3.8-1.8,5.4c-2.1,2-4.5,3.7-6.9,5.4
					l0,0c-0.9,0.7-1.7,1.4-2.6,2.1l0,0c-1.7-5.5-3.2-11.1-7.4-15.4c-0.7,1.1,0.7,1.9,1.1,2.9c2,4.7,5.1,9,5.5,14.4h0
					c-0.3,1.2,0.4,2.5-0.5,3.6c-1.3-2.1-3-3.5-5.6-3.1l0,0v0c-1.6,0-2.7,0.9-3.4,2.2c-1.1,2.5-0.1,4.4,1.7,6.7
					c-0.5-2.3-0.9-4.1-1.3-5.8c0.5-1.5,1.5-2.3,3-2.7c1,1,1.9,1.9,3.5,2.4c1.5,0.4,1.7,2.7,2.2,4.3l0,0c0,0,0,0,0,0
					c0.3,1.9,0.5,3.8,1.1,5.7c0,0.2,0.1,0.4,0.2,0.6c0.2,2,0.8,3.8,1.8,5.6c-4.9-1.8-9.6-4-13.8-7.1c-1.2-0.9-2.3-2-3.5-3
					c-1.3-1.2-2.8-2.3-0.8-4.3c0.4-0.4,0.9-1.6-0.8-1.7c-1.1,0,0-1.1-0.3-1.6h0c1-1,2-2.1,3-3.1l0,0l0,0c0.3-0.2,0.9-0.5,0.6-0.9
					c-0.3-0.3-0.7,0.1-1,0.4l0,0c-0.7,0.1-1.4-0.1-1.5,1c-0.1,0.9-0.7,1.7-1.1,2.6l0,0l0,0c-1,0.6-1.3,1.6-1.4,2.6
					c-0.1,1.5-0.6,1.7-1.7,0.8c-1.7-1.4-4-2.5-5.1-4.4c-1.6-2.7-2.5-5.9-1.5-9.3c0.8-2.8,1.4-5.6,2-8.4h0c1.2-3.8,2.5-7.6,1.7-11.7
					c0-2.1-0.9-3.7-2.6-4.9C168.1,26.8,158.2,26.5,154.3,33.7z M146,54.2c-0.1,0.1-0.2,0.2-0.3,0.2C145.8,54.3,145.9,54.2,146,54.2
					L146,54.2z"/>
				<path class="st5" d="M58.5,93.4c-4-2.4-5.2-7.6-10.1-8.6c0.7,0.6,1.5,1.3,2.2,1.9c-0.8,0.7-1.5-0.1-2.2-0.3
					c-2-0.4-3.6-0.1-4.5,2.3c1.4-0.1,2.7-0.3,3.8,0.5c1,0.7,2,1.4,3.6,2.5c-0.9-1.7-1.9-2.5-2.8-3.2c-0.3-0.3-0.9-0.5-0.5-1
					c0.3-0.4,0.8-0.2,1.2,0c1,0.5,1.5,1.5,2.3,2.3c0.6-0.6,0-1.1,0.1-1.6c1.5,1.5,2.6,3.3,4.4,4.5c0.9,0.6,0.4,1.1-0.2,1.5
					c-1.3,0.9-2.4,2-3.4,3.3l0,0l0,0c-0.5-0.7-1.1-0.9-1.7-0.1c-0.6,0.7-1.2,1.3-1.8,1.9c-0.4,0-0.9,0.2-1.4-0.2
					c1.2-1.2,2.6-2.1,3.4-3.7c-2.3,1.1-4.1,3.3-7,2.4c1.1,2.4,2.4,2.9,5.4,2c0.4-0.1,0.9-0.3,1.3-0.4h0l0,0c-0.7,1.1-1.7,1.8-3,3
					C53,101.1,54.1,95.4,58.5,93.4z"/>
				<path class="st5" d="M98.5,106.1c0.4,1.6,0.2,3.1,0.1,4.7c-0.1,1.9,1,3.5,2.4,4.7c1.9,1.7,4,3.2,6,4.7c0.8,1,1.5,2.1,2.6,3.5
					c-0.2-1.9-0.9-3.1-2.1-4c-0.9-0.8-1.8-1.7-2.7-2.5c-2.4-2-3.9-4.5-3.8-7.8C100.9,107.5,100.3,106.8,98.5,106.1z"/>
				<path class="st5" d="M162.5,90.5c-0.5,0.9-0.9,1.8-2,2.2c-0.3,0.1-0.4,0.3-0.3,0.7c0.2,0.7,3,2.1,3.7,1.9c1.3-0.4,2.6-0.6,4-0.9
					c0.7-0.2,1.3-0.6,1.6-1.3c0-0.8-0.5-0.9-1-0.9c-1.8,0-3.6-0.1-4.8-1.8C163.1,89.8,162.7,90.1,162.5,90.5z"/>
				<path class="st5" d="M182.9,44c-0.1,0-0.2-0.1-0.2,0c-1.5,1.4-3.8,1.7-5,3.4c-1,1.5-0.6,3.5-0.3,5.2c0.2,1.1,1,0.5,1.5,0
					c0.9-1.1,1.1-2.4,1-3.8c-0.2-2,0.9-2.7,2.6-2.8c1.8-0.1,3.6,0.1,5.3,0.7C186.4,45.2,184.6,44.7,182.9,44z"/>
				<path class="st5" d="M205.9,155.5c1.5-0.7,2.6-1.9,3.1-3.5c0.5-1.5,1.1-3.1,0.2-4.5c-0.9-1.4-4.9-2.4-6.4-1.9
					c-0.7,0.2-1.3,0.6-1.6,1.3c-0.2,0.5-0.3,1,0.2,1.4c0.4,0.3,0.9,0.1,1.2-0.2c1.2-1,2.3-2.6,3.9-0.7c1.3,1.5,1.4,3.5,0.3,5.6
					c-0.4,0.7-0.9,1.3-1.4,2v0l0,0c-0.4,0.3-0.9,0.6-1.3,0.9l0,0c-1.2,0.7-2.6,1-3.9,1.3c-0.3-0.6-0.4-1.4-1.6-0.9
					c-2.2,1-4.3,0.2-6.4-1c1.1-0.8,2.4-0.7,3.2-1.6l0,0c0.8-0.5,1.7-0.9,2.5-1.4l0,0c1-0.4,1.9-1,3.1-0.9c0.8,0.2,1,1.4,1.9,1
					c0.1,0,0.2-0.4,0.1-0.6c-0.4-1.1-1.2-1.4-2.2-1.3c-0.2,0-0.4,0-0.6,0.1c-0.9,0.4-1.8,0.8-2.7,1.2l0,0l0,0
					c-1.6-1-2.3-0.3-2.6,1.4l0,0c-3.5,1.3-6.1-0.2-7.4-4.1l0,0l0,0c-0.3-3.7,0.7-7,2.3-10.2v0c0.3-0.3,0.7-0.7,0.4-1
					c-0.4-0.4-0.7,0.2-0.9,0.5l0,0l0,0c-0.3,0.2-0.5,0.3-0.8,0.5l0,0l0,0c-0.9,0.4-1.8,0.8-2.7,1.3l0,0l0,0
					c-1.6,0.1-3.1,0.6-4.7,0.1c-1.3-0.5-1.3-1.6-1.3-2.7c0.1-1.3,0.1-2.5-0.7-3.6c-0.3-0.4-0.7-0.8-1.3-0.7c-0.5,0.1-0.5,0.6-0.6,1
					c-0.7,3,0.4,5.4,3,6.5c2.1,2.1,4.1,1.5,6.1-0.1l0,0c0.7-0.3,1.4-0.6,2.2-0.9v0l0,0c-1,2-1.5,4.1-1.7,6.3l0,0
					c-0.2,2.4-0.2,4.7,1.2,6.8c0.8,1.2-0.2,1.5-1,1.8c0.2,0.2,0.3,0.5,0.3,0.5c4.4,0.1,8.2,3.5,12.8,2.4c1.5-0.1,3-0.4,4.4-1.3l0,0
					C205,156.1,205.5,155.8,205.9,155.5L205.9,155.5z"/>
				<path class="st5" d="M40.2,150.4c-3.7-4.2-2.8-9.5-3.6-14.4C33.4,139.6,35.5,150.6,40.2,150.4z"/>
				<path class="st5" d="M153.7,96.5c-5,1.5-9.7,3.2-14.8,2.6C141.4,103.6,150.2,101.3,153.7,96.5z"/>
				<path class="st5" d="M42.9,82.2c-1.1-1.3-2.5-1.7-4-1.7c-3.2,0.1-5.8,1.5-7.9,3.9c-0.8,0.9-0.7,1.4,0.6,1.5c2,0,3.9-0.2,5.7-1.5
					c-1-1-1.7,0.3-2.5-0.2c0.6-1.8,2-2.4,3.7-2.3C40,81.9,41.4,82.1,42.9,82.2z"/>
				<path class="st5" d="M133.5,86.5c5.4,0,5.3-5.8,8.4-8.3C136.6,78.3,136.4,83.9,133.5,86.5z"/>
				<path class="st5" d="M145.7,85.1c-2.5-0.3-5.1-0.5-7.2,2.5c5.4-1,10,0.3,14.5,2.5C152.6,87.8,149.4,85.5,145.7,85.1z"/>
				<path class="st5" d="M36.6,50.7c0.2-2.5,0.4-5.1,0.7-7.6c0.2-2.6,0.7-5.2,3-6.8c0.3-0.2,1-0.3,0.8-0.7c-0.3-0.5-0.9-0.1-1.3,0.2
					c-1.4,0.3-2.3,1.2-2.9,2.4c-2.2,4-2.4,8.2-0.9,12.4C36.2,50.7,36.4,50.7,36.6,50.7z"/>
				<path class="st5" d="M37.1,102.4c-0.8-0.9-4.9-2.2-5.7-1.7c-1,0.5-0.2,1.2,0.1,1.6c2,2.9,4.9,3.8,8.2,3.5
					c1.4-0.1,2.8-0.4,4.3-1.5c-1.1-0.3-2-0.1-2.9,0.1c-1.4,0.3-2.9,0.4-4.3-0.1c-0.8-0.2-1.9-0.5-1.7-1.4
					C35.1,101.7,36.3,102.9,37.1,102.4z"/>
				<path class="st5" d="M141.8,108.2c-2.7-2.6-2.9-7.7-7.7-8.3C136.3,103.2,136.7,108,141.8,108.2z"/>
				<path class="st5" d="M188.3,31c-0.8-0.3-0.8,0.1-0.5,1.2c0.2,0.7-0.1,1.6-0.2,2.4c-0.1,0.9-0.2,1.8-0.3,2.6l0,0
					c-0.6,2-0.7,3.9,0,5.9l0,0c0.3,1.9,0.3,1.9,1.6,3.2c0.3-1.3-0.3-2.3-0.7-3.3l0,0c0-0.7,0-1.3,0-2c0-0.9,0.4-1.6,1.3-1.9
					c1-0.3,1.4,0.5,1.7,1.2c0.3,0.6,0.4,1.3,1.3,1.2c-0.4-3.1-2-3.8-4.9-2c-0.4-0.8,0.3-1.6,0.2-2.3h0l0,0c2.1-5.4,5.8-8.1,11.4-7
					c1.2,0.2,2.1-1,3.3-0.5c1.3,1,2.8,1.6,4,2.9c2.1,2.4,2.2,4.2,0.4,6.8l0,0l0,0c-1.4,0.9-2.5,0.3-3.5-0.7
					c-0.5-0.5-1.1-0.8-1.8-0.4c-0.3,0.2-0.4,0.6-0.3,1c0.2,0.7,0.6,1.3,1.2,1.4c1.5,0.4,3,0.2,4.3-0.8v0c3.3-0.9,3.8-1.9,2.4-5.3
					c-1.3-3-3.7-4.6-6.7-5.4c-3.3-0.9-6.6-0.8-9.7,0.7C191.3,30.6,190.1,31.7,188.3,31z M187.2,41.1C187.2,41,187,40.7,187.2,41.1
					C187.3,41,187.3,41.1,187.2,41.1L187.2,41.1C187.3,41.1,187.3,41.1,187.2,41.1z"/>
				<path class="st5" d="M184.4,90.8c-2.1,0-3.7,1.2-3.6,2.7c0,1.3,1.1,2.3,2.6,2.3c1.9,0,4.5-1.3,4.5-2.4
					C188,92.1,186.2,90.8,184.4,90.8z"/>
				<path class="st5" d="M115.3,105.4c-0.5,3.8-4,4.3-6.2,6.1c-1.2,0.9-2.8-0.1-3.9-1.2c-1.3-1.3-1.2-2.7,0.3-4.2
					c-2.4,0.9-2.9,2.7-1.6,4.3c1.5,1.9,3.6,2.4,5.9,2.1C112.6,112.2,115.5,108.7,115.3,105.4z"/>
				<path class="st5" d="M110.9,76.6c1.9-0.2,2.5,1.4,3.5,2.5c0.2,0.3,0.3,1,0.7,0.8c0.4-0.3,0.1-0.9-0.2-1.3
					c-1.1-3.2-3.6-4.5-6.6-4.8c-2.8-0.3-4.8,1.5-5,4.2c-0.1,1,0.2,1.9,1.2,2.3c0.4,0.1,0.7,0.1,0.9-0.3c0.2-0.3,0-0.6-0.2-0.8
					c-1.9-1.2-0.5-2.3,0.3-3.2c1.6-1.8,3.2-1.8,4.8,0.1C110.4,76.4,110.7,76.7,110.9,76.6z"/>
				<path class="st5" d="M223.3,44.7c2.8,2.9,2.9,3.5,1.2,7.1c-0.5,1-0.5,1-0.2,2.9c4.6-2.5,2.3-10-3.6-13.6
					C221.1,42.8,222.3,43.6,223.3,44.7z"/>
				<path class="st5" d="M224.2,131.9c-0.4,1.1,0.1,2.2,0.4,3.2c1.3,3.3,0.8,5.1-1.9,7.5c-0.7,0.6-1.4,1-1.9,2.2
					c4.2-2.1,6.6-6.4,5.8-10.1c-0.2-1.2-0.7-2.3-1.7-3C224.7,131.5,224.3,131.5,224.2,131.9z"/>
				<path class="st5" d="M42.8,101.9c-0.9-1.1-1.8-1.1-2.5-1.4c-0.5-0.2-1.1-0.3-1.1-0.9c0-0.8,0.7-0.8,1.3-0.8c0.5-0.1,1-0.1,1.5-1
					c-2.6,0.1-4.9,0.9-7.4,0.7C36.5,101.4,39.3,101.9,42.8,101.9z"/>
				<path class="st5" d="M46.8,40.9c-4.1-0.6-7.5,2.6-7.3,7.4C40.2,43.8,45.3,44.3,46.8,40.9z"/>
				<path class="st5" d="M77.1,47.5c0.3-1.7-0.5-2.6-2.8-3.3c0.3,2.5-0.2,4.5-1.6,6.3C75.1,50.7,76.8,49.5,77.1,47.5z"/>
				<path class="st5" d="M171.2,89.4c0,1.3,0,2.5,0,3.8h0c0,1.3,0,2.5,0,3.8c0,0.4-0.1,1,0.5,1.1c0.6,0.1,0.8-0.5,1-1
					c0.4-0.9,0.2-1.9,0.3-2.8c0.1-1.6-0.6-3.2-0.1-4.9c0.2-0.6-0.1-1.1-0.7-1.2C171.2,88.1,171.2,88.8,171.2,89.4z"/>
				<path class="st5" d="M159.5,98.9c0.4,0.3,1,0.6,1.2,0.2c0.2-0.4-0.5-0.5-0.8-0.7c-1.9-1.3-3.1-3-3-5.5c0-2.5,1.5-3.8,3.7-4.7
					c-1.9-0.7-3.7,0.4-4.4,2.7C154.9,94.5,156.2,97.6,159.5,98.9z"/>
				<path class="st5" d="M40.2,139.9c-0.2-0.7-0.4-1.3-0.6-2c-0.3,0.9-0.3,1.7,0.2,2.4c1.3,4.1,3.8,5.9,7.7,5.3
					C45.1,143.6,42.2,142.4,40.2,139.9z"/>
				<path class="st5" d="M147.8,104.7c5.4,1,8.4-1.1,8.5-5.8C153.8,101.3,151.4,103.6,147.8,104.7z"/>
				<path class="st5" d="M37.2,88.1c1.4,0.7,2.8,0.3,4.4,0.4c-0.3-0.8-0.8-0.8-1.3-0.9c-0.5-0.2-1.3-0.1-1.3-0.9
					c0-0.6,0.7-0.8,1.3-1c0.7-0.2,1.5-0.4,2.3-0.6c-2.4-1.1-6.4,0.2-8.5,2.7C35.1,88.3,36.2,88.1,37.2,88.1z"/>
				<path class="st5" d="M74.9,142.2c1.1,0.1,1.5-1,1.8-1.9c0.1-0.3,0.1-0.7,0.1-1.3c-0.1-0.4-0.1-1-0.3-1.5
					c-0.4-0.9-1.1-1.8-2.2-1.4c-1.1,0.4-0.6,1.5-0.5,2.3c0.1,0.7,0.4,1.4,0.7,2.1C74.8,141,73.6,142.1,74.9,142.2z"/>
				<path class="st5" d="M106.2,89c0.5-0.1,1.1-0.2,1-0.9c-0.1-0.7-0.7-0.6-1.2-0.7c-0.8-0.3-1.6,0-2.3,0.1c-2,0.2-4.1,0.8-6.2,0.4
					C100.3,89.3,103.1,90,106.2,89z"/>
				<path class="st5" d="M27.3,98.6c1.2,0.2,2.4,0.3,3.7,0c-1.2-0.5-2.4-1.1-3.6-1.6c0.1-0.1,0.3-0.3,0.4-0.4c0.4,0,0.9,0.2,1.3-0.2
					c-1.1-1.1-2.7-1.3-4-2c-1.1-0.6-1.3-1.3-0.1-2c1.3-0.8,2.6-1.4,4.1-1.6c-0.3-0.9-0.9-0.6-1.3-0.7c-0.2-0.2-0.3-0.3-0.5-0.5l0,0
					c1.1-0.8,2.2-1.6,3.7-1.5c-2.8-0.8-5.2,0.2-7.6,1.5c-0.7,0.4-1.7,0.8-1.5,1.7c0.2,1.2,1.4,0,2,0.5l0,0l0,0
					c-0.3,0.7-1,0.8-1.5,1.1c0.1,0.9,1,1.1,1.4,1.6l0,0l0,0c-0.1,0.2-0.3,0.3-0.4,0.5c-0.5,0-1-0.7-1.4-0.1c-0.4,0.5,0.1,1,0.4,1.4
					C23.6,97.6,25.4,98.2,27.3,98.6z"/>
				<path class="st5" d="M156.2,87.1c0-4-2.8-6-7.4-5.4C151.6,82.9,153.5,85.5,156.2,87.1z"/>
				<path class="st5" d="M106.6,98.1c-3.2-1.9-6.3-0.9-9.5,0.3c-0.5,0.2-1.1,0.3-1.5,1.1c0.9-0.1,1.7-0.1,2.3-0.6h8.7
					C106.6,98.6,106.6,98.3,106.6,98.1z"/>
				<path class="st5" d="M155.3,108.5c2.5,0.9,3.8-0.2,4.5-3.4c0-1.1,0.1-2.1,0.1-3.2c-1.4-0.6-1.4,0.8-1.7,1.5
					C157.3,105.2,156.9,107.2,155.3,108.5z"/>
				<path class="st5" d="M18.3,95.1c0.4-1-0.7-2.3-0.4-3.6c0-0.1-0.9-0.4-1.3-0.5c-0.7-0.2-1.5-0.5-2.2-0.7c-1.7-1-3.5-2.1-5.2-3.1
					v0c-2.2-1.9-4.1-4-3.9-7.2c0.1-3.1,1.3-4.2,4.1-3.9c-0.9-1.8-3.8-2-5-0.3c-2.2,2.9-2,6.1,0.5,8.8c1.2,1.2,2.5,2.3,4,3
					c0,0,0,0,0,0c1.6,1.3,3.4,2.2,5.2,3.1c0.2,0.1,0.4,0.2,0.5,0.4c2.6,1.8,2.6,1.8,1.1,4.5C16.5,95.6,17.9,96.2,18.3,95.1z"/>
				<path class="st5" d="M106.3,49c-0.7-1.5-2.5-1.1-3.9-0.9c3.3,1.2,3.9,3.9,3.5,7.5C107.4,53.1,107.2,50.9,106.3,49z"/>
				<path class="st5" d="M47.6,92.5c0.3,0,0.6-0.1,1.3-0.1c-1.6-1.3-2.9-1.2-4.2-0.7c-0.8,0.3-1.8,0.5-1.7,1.7c0.2,1,1.1,1.3,2,1.4
					c0.8,0.1,1.6,0,2.3,0c0.3-0.3,0.1-0.3-0.1-0.4c-0.8-0.4-2.3,0.1-2.1-1.2C45.3,92.1,46.7,92.7,47.6,92.5z"/>
				<path class="st5" d="M98.2,65.7c-0.1,0.6,0.4,0.7,0.8,0.9c2.8,0.9,5.2-0.2,7.5-1.8c0.5-0.4,1-0.9,1.5-1.3
					c0.3-0.2,0.9-0.5,0.6-0.9c-0.3-0.4-0.7,0.2-1,0.5c-2.5,1.8-4.9,3.8-8.3,2.1C98.8,65,98.3,65.3,98.2,65.7z"/>
				<path class="st5" d="M28.1,71.6c0.3,0.4,0.5,0.9,1.1,1c0.2-0.7-0.3-1-0.6-1.5c-2.3-3-4.7-3.6-8.2-2.2l0,0
					c-1.1,0.4-2,1.1-2.5,2.2c0,0,0,0,0,0.1c-2,3.7-0.9,6.2,3.3,6.7c-3.3-1.3-4.1-3.6-2.8-6.7c1-0.6,2-1.2,3-1.8c0,0,0,0,0,0
					C23.8,69.2,26,70.1,28.1,71.6C28.1,71.6,28.1,71.6,28.1,71.6z"/>
				<path class="st5" d="M220.9,115.2c-2.2-1.6-4-3.4-6.5-4.7C215.2,113.5,217.4,115,220.9,115.2z"/>
				<path class="st5" d="M214.5,75.7c2.6-1.1,4.1-2.8,5.7-4.3C217.8,71.7,215.5,72.3,214.5,75.7z"/>
				<path class="st5" d="M105.3,138.2c2-1.6,1.4-4,1.2-6.8c-1.3,2.7,0.1,6.7-4.6,6.4C103.2,138.9,104.4,138.9,105.3,138.2z"/>
				<path class="st5" d="M179,56.4c1.6-0.5,2.3-1.6,2.4-3.6c-1.7,1.3-3.3,2.6-5.4,1.1c0.4,1.7,2.3,1.1,2.5,2.5
					c-0.9,0-1.8-0.1-3.1-0.2c1.4,0.8,2.3,0.8,3.3,0.3c0,0,0.1,0,0.1,0C179,56.5,179,56.5,179,56.4z"/>
				<path class="st5" d="M216.6,119.9c1.8-1.5,3.2-2.4,5.5-2.4c-2.1-1.1-3.6-1.2-5.1-0.5C215.8,117.6,217,118.6,216.6,119.9z"/>
				<path class="st5" d="M143.2,33.5c-0.3,0.9,0,1.6,0.4,2.3c0.4,0.5,0.9,0.9,1.5,0.4c0.7-0.6,0.4-1-0.3-1.3c-0.7-0.3-0.6-1-0.5-1.5
					c0.2-1.8-0.7-2.2-2.2-1.9c-0.6,0.3-1.2,0.6-1.4,1.5c0.8,0.1,1.1-0.6,1.4-1.1C143.1,32,143.6,32.5,143.2,33.5z"/>
				<path class="st5" d="M179.4,130.1c-1-0.6-1.9-1.2-3.1-0.5l0,0l0,0c-0.6,0.2-1.1,0.4-1.4,1.1c0.8,0.2,1.3-0.4,1.9-0.6l0,0
					c0.6,0,1.2-0.2,1.7,0.4c-0.7,0.5-1.8,0.5-2.4,1.8c1.9-0.7,3.5-0.6,4.8,1C181.1,131.8,180.5,130.8,179.4,130.1z"/>
				<path class="st5" d="M176.4,101.3c0.1,0.2,0.1,0.4,0.3,0.8c1-2.4,0.4-4.1-1.1-5.6h0c-0.3-0.3-0.5-0.9-0.9-0.5
					c-0.3,0.3,0.1,0.7,0.4,1.1v0c0.3,1.3,0.6,2.6,0.5,3.9c-0.5,0.7-0.7,1.6-2.1,2.4c1.9-0.1,2.1-1.1,2.4-1.9
					c0.1-0.2,0.1-0.6,0.2-0.6C176.6,100.6,176.3,101.1,176.4,101.3z"/>
				<path class="st5" d="M176.7,88.4c1-1,1.2-2.1,0.3-3.5c-0.2,0.6-0.3,1-0.4,1.5c-1-0.8-0.7-2.2-1.9-3c0.3,1.7,0.9,3.1,0.9,4.6
					C175.6,89.1,176.2,88.9,176.7,88.4z"/>
				<path class="st5" d="M149.9,78.3c2-0.1,2.2-1.7,3-2.7v2.3c0.4-0.9,1.1-1.8,0.5-2.8c-0.2-0.9-0.6-1.8-1.5-1.6
					c-1.2,0.2-0.3,1.2-0.3,1.8C151.6,76.5,151,77.4,149.9,78.3z"/>
				<path class="st5" d="M1.8,102c0.4-0.5,0.8-1,1.3-1.7c-1-0.1-1.4,0.6-1.8,1.2c-1.5,1.5-1.6,3.1-0.6,5.3
					C1.6,105.1,1.4,103.5,1.8,102L1.8,102z"/>
				<path class="st5" d="M2.4,85.3c-0.5-1.9-1-3.6-1.6-5.8C-0.1,83.1,0.2,84.2,2.4,85.3z"/>
				<path class="st5" d="M168.1,82.3C168.1,82.3,168.1,82.3,168.1,82.3c-0.7,0.8-0.4,1.8-0.4,2.7c-0.2,1.5,0.6,2.1,2,2.2
					c1.2,0.1,2-0.2,1.8-2c-1.5,2.4-2.4,1.2-3.3-0.2c0-0.6,0-1.2,0-1.7l0,0c1.4-1.4,3.2-1.6,5.5-1.4
					C170.9,80.1,169.9,80.3,168.1,82.3z"/>
				<path class="st5" d="M20.8,90.5c-2,1.1-2.3,3-0.7,5.2C20.2,93.8,19.7,92,20.8,90.5z"/>
				<path class="st5" d="M188.3,136.9c1.2,0.9,2.4,0.1,3.3-1c0.3-0.3,0.8-0.7,0.5-1c-0.4-0.4-0.7,0.2-0.9,0.5c-2.6,1.4-3,1.2-3-2.1
					C187.5,134.8,187.2,136.1,188.3,136.9z"/>
				<path class="st5" d="M150.7,108.4c0.2,1,1,1.6,0.9,2.6c0,0.5-0.5,1.3,0.3,1.5c0.9,0.2,1.3-0.4,1.5-1.2c0,0,0,0,0,0
					c0.8-1.6,0.2-2.7-1-3.6c0.4,1,0.7,2,0.5,3.1C151.6,110.7,152.7,108.2,150.7,108.4z"/>
				<path class="st5" d="M143.4,152.5c0.2,0.5,0.3,1.1,0.5,1.6c0.5-1.3,0.9-2.5,1.5-4C143.7,150.3,142.8,150.8,143.4,152.5z"/>
				<path class="st5" d="M143.9,154.1L143.9,154.1C143.9,154.2,143.9,154.1,143.9,154.1C143.9,154.1,143.9,154.1,143.9,154.1z"/>
				<path class="st5" d="M190.3,147.5c0.8,0.3,1.1-0.1,1.3-0.4c0.6-0.6,1-1.4,0.9-2.3c0-0.1-0.3-0.4-0.4-0.3
					c-1.1,0.1-0.9,1.1-1.2,1.8C190.8,146.7,190.6,147,190.3,147.5z"/>
				<path class="st5" d="M191.9,51.6c-0.5-1.6-1-2.3-2.2-2.4c-0.9,0-1.8-0.1-2,1.3c0.8,0.2,1.2-1.2,2-0.5
					C190.2,50.5,190.8,50.9,191.9,51.6z"/>
				<path class="st5" d="M112.6,67.5C112.6,67.5,112.6,67.5,112.6,67.5C112.6,67.5,112.6,67.5,112.6,67.5c0.1-0.9,0.2-1.8,0.4-2.9
					c-1,0.3-0.7,1-0.8,1.5l0,0c-0.8,1.9-0.5,3.9,0.1,5.8c0.2,0.5,0.3,1.1,1,1.5c0-0.8-0.2-1.4-0.6-1.9
					C112.7,70.2,112.7,68.9,112.6,67.5z"/>
				<path class="st5" d="M210.3,94.2c0.5,0,1.3-0.3,1.3-1c0-0.8-0.8-0.9-1.4-1.1c-0.4-0.1-0.8-0.2-1.3-0.2c-0.1,0.1-0.1,0.2-0.2,0.3
					c0.4,0.3,0.8,0.5,1.2,0.8C210.3,93.4,208.9,94.3,210.3,94.2z"/>
				<path class="st5" d="M141.3,29.2c1.8-0.1,3.7-0.2,5.6-0.2C145,28,143.1,28,141.3,29.2z"/>
				<path class="st5" d="M39,94.2c1,1,2.4,0.4,3.5,0.8C41.6,93.4,40.3,94.1,39,94.2z"/>
				<path class="st5" d="M159.9,84.3c0.1-1.8,0.1-3.5-0.8-5.1c-0.2-1-0.9-1.4-1.8-1.7c-0.5-0.1-1.3-0.3-1.6,0.1
					c-0.5,0.7,0.3,1,0.6,1.4c1.3,1.8,1.8,4,2.8,5.9c0,0,0,0,0,0s0,0,0,0C159.9,85.4,159.8,84.7,159.9,84.3z"/>
				<path class="st5" d="M38.8,92.1c1.7,0.7,2.7,0.5,4.1-0.6C41.3,91.2,40.3,91.6,38.8,92.1z"/>
				<path class="st5" d="M11.4,82.8c-0.4-1.6-1.4-2.7-2.7-3.6c-0.6-0.5-1.2-0.6-1.9,0.1c0.5,0.6,1,0.3,1.4,0.4
					C9.5,80.4,10.2,81.8,11.4,82.8z"/>
				<path class="st5" d="M99.3,152.8c4.1,1.4,8.2,2,12.5,2.3c7.5,0.5,13.7-2.9,19.8-6.7c0.2-0.1,0.3-0.4,0.4-1
					c-8.7,5.8-17.9,8.6-28,4.6l0,0c-0.4-0.3-0.8-0.5-1.5-0.9c0.2,0.9,0.6,1.2,1.1,1.4l0,0v0l0,0l0,0c-0.3,0.2-0.6,0.3-0.9,0.5l0,0
					l0,0c-0.8-0.2-1.7-0.3-2.5-0.5c-0.2-0.1-0.3-0.2-0.5-0.2c-1.4-0.5-2.9-1.1-4.3-1.6l0,0l0,0c-0.2-0.3-0.6-1-0.9-0.5
					c-0.2,0.4,0.5,0.7,0.9,1v0l0,0L99.3,152.8z"/>
				<path class="st5" d="M143.9,37.7c3,1,5.1,0.3,6-2.5c-1.8,2.1-3.9,2.3-6,2.1c-0.9-0.5-1.5-1.4-2.1-2.3
					C141.5,36.7,142.4,37.4,143.9,37.7z"/>
				<path class="st5" d="M27.7,93.9c-0.7-1,0.5-1.1,0.8-1.7c-0.9-0.2-2-0.4-2.3,0.5c-0.3,1,0.8,1.2,1.5,1.5c1.1,0.6,2.2,0.7,3.5-0.4
					H27.7z"/>
				<path class="st5" d="M187.9,52.2c0.5,1.9,0.6,1.9,2.4,0.7C189.4,52.7,188.5,53,187.9,52.2z"/>
				<path class="st5" d="M199.2,138.8c0.8-1.1,0.5-2,0.7-3.3C198.8,136.7,198.8,137.6,199.2,138.8z"/>
				<path class="st5" d="M143.9,154.2h-2.2C143,155.7,143,155.7,143.9,154.2z"/>
				<path class="st5" d="M143.9,154.1C143.9,154.2,143.9,154.2,143.9,154.1L143.9,154.1L143.9,154.1z"/>
				<path class="st5" d="M216.7,68.5c1.5,1.8,3.1,1.9,5.3,0.2c-1.4-0.3-2.8-0.1-4-0.7c0,0,0,0,0,0c-0.4-0.5-0.7-1-1.2-1.5
					C216.2,67.2,217.3,67.9,216.7,68.5z"/>
				<path class="st5" d="M146,148.4c-3.2-0.1-4,0.4-4.4,3c1.4-1.4,2.6-2.6,4.5-2.6c0.7,0.3,1.5,0.6,2.2,0.8l0,0l0,0
					c0.4,0.3,0.8,0.6,1.3,1c0.1-0.9-0.4-1.1-0.9-1.4l0,0l0,0C147.9,148.6,147,148.4,146,148.4z"/>
				<path class="st5" d="M24.5,87.3c0.9,0.1,1.7-0.1,2.4-0.6c3.6-2.1,4.9-6,3-8.9h0c-0.5-1.2-0.8-2.6-1.7-3.6l0,0
					c-0.6-1-1.2-1.9-2.8-2.4c1,1.2,1.7,2,2.4,2.9l0,0c0.6,1.2,1.1,2.4,1.6,3.6h0l0,3.8c-0.1,0-0.1,0-0.2,0c-0.3-1.3-0.7-2.6-1-3.9
					c0,0,0,0,0,0c-0.8-3.6-3-5.2-5.8-4.3c1.4,2.2,5,2,5.4,5.2l0,0c0.5,2.7,0.5,5.2-1.7,7.2l0,0c0,0,0,0,0,0
					C25.5,86.7,24.8,86.5,24.5,87.3z M27.9,78.8c0,0.1,0,0.2-0.1,0.3C27.8,79,27.8,78.9,27.9,78.8z"/>
				<path class="st5" d="M14.4,95.9c-0.9-0.1-1.3,0.4-1.8,0.8C13.4,96.8,14,96.7,14.4,95.9z"/>
				<path class="st5" d="M203.1,34.3c-0.7,0.5-1.1,0.8-1.6,1.2v0l0,0c-0.7-0.3-1.5-0.6-2.2-0.8c-1.6-0.7-2.9-1.9-4.7-2.3h0
					c-0.5-0.4-1.2-0.7-1.7-0.2c-0.3,0.3,0.5,0.5,0.8,0.7v0c1.7,0.8,2.8,3,5.1,2.3c0.8,0.6,1.7,0.9,2.6,0.8h0v0
					C202.3,35.8,202.9,35.4,203.1,34.3z"/>
				<path class="st5" d="M30.3,105.5C30.3,105.5,30.3,105.5,30.3,105.5c-0.6-4.6-4.8-7.9-8.9-6.6c3.2,0.3,6.2,1,6.4,5
					c0.2,4.1-2,6.9-5.5,8.8c4.1,0.8,6.5-2.8,6.4-9.4c0.6,0.2,0.5,0.8,0.7,1.3l0,0l0,0c0,0.9,0,1.8,0,2.7c0,0.3,0,0.6-0.1,0.9l0,0
					c-1,2.1-1.8,4.3-3.5,6c1.9-1.1,3.2-2.7,3.5-4.9c0.9,1.2-0.2,2.3-0.1,3.4l0,0l0,0c-0.4,0.6-0.8,1.2-1.3,1.8h0l0,0
					c-0.6,0.7-1.2,1.4-1.8,2.1c-2.5,1.2-5,1.6-7.1-0.7c-2.3-2.5-1.9-4.8,1.4-7.3c-1.9-0.3-3.2,0.4-3.6,2.2c-0.6,2.3-0.5,4.7,1.5,6.4
					c1.9,1.7,4.1,2,6.5,1c0.5-0.2,1-0.6,1.5-0.9c1-0.7,1.9-1.4,2.2-2.7h0c0.5-0.3,0.8-0.7,0.8-1.3v0c0.9-1.4,1.1-2.9,1.3-4.5
					c-0.1-0.1-0.1-0.2-0.2-0.4c0.1,0.1,0.1,0.2,0.2,0.4C30.7,107.5,31,106.4,30.3,105.5z"/>
				<path class="st5" d="M198,91.3L198,91.3c-0.3,0-0.6-0.1-0.9-0.1c-3.1,0.5-5.5-0.6-7.8-2.6c-2-1.8-4.4-2.4-7-2
					c-2.7,0.5-4.2,2.3-4.9,4.7c-0.7,2.6,0.3,4.8,2.3,6.5c4,3.2,9.1,2.5,12.1-1.6c0.6-0.9,1.2-1.2,2.3-1c1.4,0.2,2.9,0,4.3,0
					c0.4-0.1,1,0,0.9-0.5c-0.2-0.5-0.8-0.2-1.3-0.2c-0.6-0.1-1.3-0.2-1.9-0.3c-2.6-0.5-5.1-0.4-7.3,1.5c-1.5,1.3-3.2,2.5-5.4,2.4
					c-2.7-0.1-4.7-2-4.9-4.7c-0.1-2.7,1.4-4.4,4.4-4.7c1.9-0.2,3.8,0.2,5.3,1.5c2.8,2.8,5.9,3.4,9.5,1.9h1.7
					C199.1,91.2,198.5,91.3,198,91.3z"/>
				<path class="st5" d="M104.9,120.7L104.9,120.7c-1.7-1-3.6-1.5-5.6-1.3c-0.4,0-1-0.1-1.1,0.5c-0.1,0.7,0.6,0.8,1,0.8
					c1.7,0.2,3.4,0.4,5.1,0.5l0,0c0.7,0.3,1.5,0.6,2.2,0.8c0.4,0.5,0.8,1,1.2,1.5c0-1-0.5-1.5-1.2-1.9
					C106,121.3,105.4,121,104.9,120.7z"/>
				<path class="st5" d="M139.6,49.9c0.1,0.2,0.3,0.3,0.5,0.4c0.1-0.1,0.2-0.2,0.3-0.3c-0.2-0.3-0.4-0.7-0.7-0.7
					C138.8,49.3,139.4,49.7,139.6,49.9z"/>
				<path class="st5" d="M170.8,103.2c-0.2-0.6-0.4-1.2-0.8-2.3c-0.5,1.6,0,2.2,0.8,2.8c0.4,0.1,1.1,0.6,1.2,0
					C172.1,102.9,171.2,103.4,170.8,103.2z"/>
				<path class="st5" d="M148.5,29.8c-0.1-0.1-0.3-0.1-0.5-0.2c-0.1,0.7,0.4,1.2,0.8,1C149.2,30.4,148.7,30,148.5,29.8z"/>
				<path class="st5" d="M157.8,57c-0.2-0.8-0.7-1-1.3-1.1C156.8,56.4,157,57.1,157.8,57z"/>
				<polygon class="st5" points="156.5,56 156.4,55.9 156.4,55.9 156.4,55.9 156.4,56 				"/>
				<path class="st5" d="M141.3,29.2L141.3,29.2C141.3,29.2,141.3,29.2,141.3,29.2C141.3,29.2,141.3,29.2,141.3,29.2L141.3,29.2
					L141.3,29.2L141.3,29.2L141.3,29.2C141.3,29.2,141.3,29.2,141.3,29.2C141.3,29.2,141.3,29.2,141.3,29.2L141.3,29.2z"/>
				<path class="st5" d="M200.7,45.3c0-0.8-0.4-0.2-0.6-0.1c-0.2,0.1-0.2,0.3-0.4,0.5c0.1,0.1,0.2,0.2,0.3,0.3
					C200.2,45.8,200.7,45.6,200.7,45.3z"/>
				<path class="st5" d="M203.2,96.1c1.2-0.3,2.5-0.6,4.3-1.1c-2-0.4-3.4,0.1-4.7,0.6l0,0c-0.6,0-1.2,0-1.7,0.5c0,0,0,0,0,0
					c-2.7,0.5-5.3,1.3-7.8,2.7h0c-3.1,0.9-5.9,2.3-8.7,3.9c-1.6,0.9-3.1-0.3-4.3,0.1c-1.1,0.4-0.2,2.6-1.6,3.7
					c-4.3,3.4-11.1,3.5-14.5-0.1c-1.9-4.5-1.2-5.8,5.4-10.2c-2.7-0.3-4.5,1-5.7,3c-1.4,2.3-2,4.8-0.2,7.2c-0.2,0.5-0.6,0.8-1.1,0.9
					c-1,0.3-1.8,0.7-1.8,1.9c-0.1,1.4,0.8,2.1,1.9,2.8c-0.4-3,0-3.3,2.7-2.6c2.2,0.6,4.4,1.5,6.8,0.9c0.3,0.9-0.4,1.1-0.7,1.5
					c-3.9,4-8.4,6.7-13.9,7.7c-4.5,0.9-7.5-1.4-8-6.1c-0.3-2.5-0.1-2.1-2.3-1.3c-2.4,1-1.7,2-0.9,3.6c3.7,7.5,9.9,8,16.5,4.9
					c4.1-1.9,7.5-5,10.9-8c6-5.4,12.5-10.1,19.8-13.4l0,0c2.6-0.9,5.1-2.1,7.8-2.7l0,0c0,0,0,0,0,0
					C202.1,96.4,202.7,96.2,203.2,96.1z"/>
				<path class="st5" d="M10.4,104.6c-0.8,0.9-1.5,1.8-2.3,2.7c1.4-0.2,2-1.3,2.8-2.3c0.3-0.3,0.6-0.7,1-1.1
					C10.9,103.6,10.7,104.2,10.4,104.6z"/>
				<path class="st5" d="M156.5,130.5L156.5,130.5c-0.7,0.5-1.3,1-1.7,1.8c-4.4,5.3-1.2,12.6,2.7,15.4c1.7,1.3,3.6,1.5,5.4,0.2
					c0.3-0.2,0.7-0.4,0.5-0.8c-0.1-0.4-0.5-0.6-0.8-0.5c-2.9,1-5.1-0.1-6.5-2.7c-1.8-3.3-2.3-6.8-1-10.5c0.1-0.2,0.1-0.4,0.2-0.6
					c0.4-0.6,0.8-1.2,1.3-1.8l0,0c0.4-0.3,0.9-0.6,1.3-0.9C157.1,129.4,156.8,130,156.5,130.5z"/>
				<path class="st5" d="M189.9,114.4c-0.3-0.3-0.7,0.1-1,0.5c-1.8,2-1.8,3.3-0.3,5.5c0.3-1.7,0.5-3.3,0.8-5
					C189.7,115.1,190.3,114.8,189.9,114.4z"/>
				<path class="st5" d="M175.7,103.7c-0.3-0.4-0.7,0.1-1,0.4l0,0c-2.4,0.7-4.8,1.2-6.5-1.3c0.5-2.8,1-3.1,3.3-2.2
					c-0.4-1.9-1.5-2.3-2.9-1.1c-1.1,1-1.6,2.2-0.8,3.7c1.4,3,4.1,3.5,7.4,1.3l0,0C175.4,104.4,176,104.1,175.7,103.7z"/>
				<path class="st5" d="M209,46.6c0.5-0.3-0.2-0.6-0.5-0.9c-2.1-2.5-3.7-2.9-6.3-1.4c2.1,0.1,4,0.7,5.7,1.5
					C208.3,46.1,208.6,46.8,209,46.6z"/>
				<path class="st5" d="M31.6,139c-2.4,5.2-1.3,12.3,2.6,16.3c3,3.1,6.5,3.5,10.4,2.3c1.8-0.5,2.9-1.9,3.3-3.8
					c0.1-0.5,0.3-1.1-0.3-1.4c-0.5-0.3-1-0.1-1.4,0.2c-0.9,0.7-1.5,1.6-2,2.6c-0.8,1.5-1.8,2-3.5,1.7c-7.1-1.3-9.7-7.8-9.3-13.9
					c0.1-1.4,0.5-2.8,0.7-4.2c0.3-0.3,0.7-0.8,0.3-1C31.9,137.8,31.8,138.6,31.6,139z"/>
			</g>
		</g>
		<g>
			<g>
				<path class="st4" d="M350,0c-51.1-0.1-92.8,41.6-92.8,92.9c0,51.3,41.5,92.9,92.7,92.8c51.3,0,92.9-41.6,92.9-92.8
					C442.8,41.8,401.1,0,350,0 M349.8,177.4c-46.6-0.1-84.7-38.3-84.4-85c0.3-46.6,38.2-84.2,84.9-84.1c46.6,0.1,84.2,38,84.1,84.7
					C434.2,139.7,396.4,177.5,349.8,177.4"/>
			</g>
			<g>
				<g>
					<path class="st4" d="M273.4,83.5h9.8c5.1,0,8.3,2.5,8.3,6.4c0,3.6-3,6.4-6.8,6.4h-6.2v7.7h-5V83.5z M278.4,87.3v5.3h4.6
						c1.8,0,3.1-1.1,3.1-2.7c0-1.6-1.1-2.6-3-2.6H278.4z"/>
				</g>
				<g>
					<path class="st4" d="M303.8,83c5.8,0,10.6,3.9,10.6,10.9c0,6.9-4.8,10.9-10.6,10.9c-5.8,0-10.6-3.9-10.6-10.9
						C293.2,86.8,298,83,303.8,83 M303.8,100.3c3.4,0,5.3-2.5,5.3-6.5c0-4-1.9-6.4-5.3-6.4c-3.4,0-5.3,2.4-5.3,6.4
						C298.5,97.8,300.4,100.3,303.8,100.3"/>
				</g>
				<g>
					<polygon class="st4" points="316.9,83.5 324.2,83.5 327.4,96 330.6,83.5 337.9,83.5 337.9,104.1 333.7,104.1 333.7,87.2 
						329.3,104.1 325.4,104.1 321,87.1 321,104.1 316.9,104.1 					"/>
				</g>
				<g>
					<path class="st4" d="M341.7,83.5h9.8c5.1,0,8.3,2.5,8.3,6.4c0,3.6-3,6.4-6.8,6.4h-6.3v7.7h-5.1V83.5z M346.7,87.3v5.3h4.6
						c1.8,0,3.1-1.1,3.1-2.7c0-1.6-1.1-2.6-3-2.6H346.7z"/>
				</g>
				<g>
					<path class="st4" d="M372.1,83c5.8,0,10.6,3.9,10.6,10.9c0,6.9-4.8,10.9-10.6,10.9c-5.8,0-10.6-3.9-10.6-10.9
						C361.5,86.8,366.3,83,372.1,83 M372.1,100.3c3.4,0,5.3-2.5,5.3-6.5c0-4-1.9-6.4-5.3-6.4c-3.4,0-5.3,2.4-5.3,6.4
						C366.8,97.8,368.7,100.3,372.1,100.3"/>
				</g>
				<g>
					<path class="st4" d="M387.6,97.1c0.7,1.5,1.8,4,6.5,4c3,0,4.6-0.8,4.6-2.3c0-1.5-1.4-2.2-4.9-2.7c-4.4-0.5-8.6-2.3-8.6-6.4
						c0-2.7,1.4-4.8,3.9-5.8c1.3-0.5,3-0.8,5.1-0.8c5.9,0,8.2,2.9,8.9,4.2l-3.1,2.6c-1.3-2.2-2.9-3.2-5.7-3.2
						c-2.6,0-4.2,0.8-4.2,2.2c0,1.3,1.1,1.8,4.5,2.3c5.4,0.8,9,2.4,9,6.7c0,1.8-0.6,3.3-1.7,4.5c-1.6,1.7-3.9,2.4-7.7,2.4
						c-6.2,0-8.2-1.9-9.9-4.7L387.6,97.1z"/>
				</g>
				<g>
					<path class="st4" d="M415.9,83c5.8,0,10.6,3.9,10.6,10.9c0,6.9-4.8,10.9-10.6,10.9c-5.8,0-10.6-3.9-10.6-10.9
						C405.3,86.8,410.1,83,415.9,83 M415.9,100.3c3.4,0,5.3-2.5,5.3-6.5c0-4-1.9-6.4-5.3-6.4c-3.4,0-5.3,2.4-5.3,6.4
						C410.6,97.8,412.6,100.3,415.9,100.3"/>
				</g>
			</g>
			<g>
				<rect x="280.2" y="71" class="st4" width="139.5" height="2.6"/>
			</g>
			<g>
				<rect x="280.2" y="114.1" class="st4" width="139.5" height="2.6"/>
			</g>
			<g>
				<path class="st4" d="M331.4,150.4c1.6,0,2.9,1.3,2.9,2.9c0,0.6-0.3,1.3-0.6,1.8c1.1,0.9,2.8,1.3,4.7,1.3c3,0,5.2-1.8,5.2-4.4
					c0-1.7-0.8-3.2-2.9-4c-1.1-0.5-2.6-0.7-4.6-0.7h-1.3v-3.8h1.4c1.9,0,3.5-0.4,4.7-1c1.5-0.8,2.4-2,2.4-3.6c0-2.4-2.2-3.6-4.8-3.6
					c-1.8,0-2.9,0.3-3.7,0.9c0.4,0.5,0.6,1.1,0.6,1.8c0,1.6-1.3,2.9-2.9,2.9s-3-1.4-3-3.5c0-0.7,0.3-1.7,0.9-2.5
					c1.2-1.8,3.9-3.5,8.3-3.5c5.5,0,9.5,3.1,9.5,7.3c0,2.3-1.4,4.3-3.5,5.4c-0.8,0.5-1.8,0.8-2.7,1c0.8,0.2,1.7,0.6,2.5,1
					c2.1,1.2,3.9,3.2,3.9,6.1c0,4.9-4.3,8.1-10.1,8.1c-4.1,0-7.4-1.6-9-3.8c-0.6-0.8-0.9-1.8-0.9-2.8
					C328.4,151.8,329.6,150.4,331.4,150.4z"/>
				<path class="st4" d="M354.4,151.4c1.6,0,2.9,1.3,2.9,2.9c0,0.4-0.2,1-0.4,1.4c0.9,0.3,2,0.4,3.2,0.4c3.6,0,5.6-2.4,5.6-5.4
					c0-2.8-1.8-4.9-5.8-4.9c-1.7,0-3.7,0.4-5.4,1.3l-2.2-1.2l1.8-14.3h15v4.5h-11.4l-0.7,6.1c1-0.3,2.4-0.4,3.7-0.4
					c5.6,0,9.9,3.2,9.9,9c0,5.6-4.3,9.5-10.1,9.5c-3.6,0-6.2-1-7.7-2.4c-1-0.9-1.4-2.1-1.4-3.1C351.3,152.9,352.7,151.4,354.4,151.4
					z"/>
			</g>
			<g>
				<path class="st4" d="M336.4,53.8c-1.4,1.6-3.6,2.6-6,2.6c-4.5,0-7.4-3.3-7.4-7.4c0-4.4,3.3-7.4,7.7-7.4c3.3,0,5.6,1.9,5.6,3.7
					c0,1.2-0.7,2-1.8,2c-1.1,0-1.9-0.7-1.9-1.8c0-0.3,0.1-0.7,0.2-0.9c-0.5-0.3-1.2-0.5-2.2-0.5c-2.6,0-4.5,1.9-4.5,4.8
					c0,2.9,2,4.7,4.4,4.7c1.7,0,3.1-0.7,4.2-1.9L336.4,53.8z"/>
				<path class="st4" d="M338.5,56.1v-2.4h2.1v-9.2h-2.1V42h7.2v2.4h-2.1v9.2h2.1v2.4H338.5z"/>
				<path class="st4" d="M347.8,56.1v-2.4h2.1v-9.2h-2.1V42h6.8c3.6,0,5.2,1.6,5.2,3.7c0,1.6-1,2.7-2.4,3.1c1.7,0.5,2.8,1.6,2.8,3.3
					c0,2.4-1.8,3.9-5.4,3.9H347.8z M354.6,48c1.4,0,2.2-0.7,2.2-1.8c0-1.1-0.8-1.7-2.3-1.7h-1.8V48H354.6z M354.9,53.7
					c1.4,0,2.4-0.6,2.4-1.9c0-1.2-0.9-1.8-2.4-1.8h-2.1v3.7H354.9z"/>
				<path class="st4" d="M377,49c0,4.1-2.9,7.4-7.4,7.4c-4.5,0-7.4-3.3-7.4-7.4c0-4.1,2.9-7.4,7.4-7.4C374.1,41.6,377,44.9,377,49z
					 M374,49c0-2.9-1.9-4.8-4.4-4.8c-2.5,0-4.4,1.9-4.4,4.8c0,2.9,1.9,4.7,4.4,4.7C372.1,53.8,374,51.9,374,49z"/>
			</g>
		</g>
	</g>
</g>
</svg>
