<?xml version="1.0" encoding="utf-8"?>
<!-- Generator: Adobe Illustrator 19.0.1, SVG Export Plug-In . SVG Version: 6.00 Build 0)  -->
<svg version="1.1" xmlns="http://www.w3.org/2000/svg" xmlns:xlink="http://www.w3.org/1999/xlink" x="0px" y="0px"
	 viewBox="0 0 703.3 235.8" style="enable-background:new 0 0 703.3 235.8;" xml:space="preserve">
<style type="text/css">
	.st0{fill:#FFFFFF;}
	.st1{fill:#392C3E;}
	.st2{fill:#382C3D;}
	.st3{fill:#3399CC;}
	.st4{fill:#CDCBCA;}
	.st5{fill-rule:evenodd;clip-rule:evenodd;fill:#CDCBCA;}
	.st6{fill-rule:evenodd;clip-rule:evenodd;fill:#392C3E;}
	.st7{fill:none;stroke:#CDCBCA;stroke-width:1.1438;stroke-miterlimit:10;}
	.st8{clip-path:url(#SVGID_4_);}
	.st9{fill-rule:evenodd;clip-rule:evenodd;fill:#989898;}
	.st10{fill-rule:evenodd;clip-rule:evenodd;fill:#FFFFFF;}
	.st11{fill:#979797;}
	.st12{opacity:0.67;}
	.st13{fill:#EFEFEF;}
	.st14{opacity:0.78;}
	.st15{fill-rule:evenodd;clip-rule:evenodd;fill:#998881;}
	.st16{fill:#998881;}
</style>
<g id="Layer_1">
	<g>
		<g>
			<path class="st2" d="M11,11.2H8.6l-1-2.5H3.3l-0.9,2.5H0l4.3-11h2.3L11,11.2z M6.9,6.8L5.4,2.8L3.9,6.8H6.9z"/>
			<path class="st2" d="M15,11.2v-11h4.7c1.2,0,2,0.1,2.6,0.3c0.5,0.2,1,0.5,1.3,1.1C23.8,2,24,2.6,24,3.3c0,0.8-0.2,1.5-0.7,2
				c-0.5,0.5-1.2,0.9-2.2,1c0.5,0.3,0.9,0.6,1.2,0.9C22.6,7.6,23,8.2,23.5,9l1.3,2.1h-2.7l-1.6-2.4c-0.6-0.9-1-1.4-1.2-1.6
				c-0.2-0.2-0.4-0.4-0.7-0.5s-0.6-0.1-1.1-0.1h-0.4v4.6H15z M17.2,4.8h1.6c1.1,0,1.7,0,2-0.1c0.3-0.1,0.5-0.2,0.6-0.5
				s0.2-0.5,0.2-0.8c0-0.4-0.1-0.7-0.3-0.9s-0.5-0.4-0.8-0.4c-0.2,0-0.7,0-1.6,0h-1.7V4.8z"/>
			<path class="st2" d="M28.7,11.2v-11H31v11H28.7z"/>
			<path class="st2" d="M45.7,11.2h-2.4l-1-2.5H38l-0.9,2.5h-2.4l4.3-11h2.3L45.7,11.2z M41.7,6.8l-1.5-4.1l-1.5,4.1H41.7z"/>
			<path class="st2" d="M49.7,11.2V0.3H52v9h5.5v1.9H49.7z"/>
			<path class="st2" d="M68.6,0.2H73c0.9,0,1.5,0,1.9,0.1s0.8,0.2,1.1,0.5c0.3,0.2,0.6,0.5,0.8,0.9C77.1,2,77.2,2.5,77.2,3
				c0,0.5-0.1,1-0.4,1.4c-0.3,0.4-0.7,0.8-1.1,1c0.7,0.2,1.2,0.5,1.5,1c0.4,0.5,0.5,1,0.5,1.7c0,0.5-0.1,1-0.3,1.5
				c-0.2,0.5-0.5,0.8-1,1.1c-0.4,0.3-0.9,0.5-1.5,0.5c-0.4,0-1.3,0.1-2.7,0.1h-3.7V0.2z M70.8,2v2.5h1.5c0.9,0,1.4,0,1.6,0
				c0.4,0,0.7-0.2,0.9-0.4c0.2-0.2,0.3-0.5,0.3-0.9c0-0.3-0.1-0.6-0.3-0.8c-0.2-0.2-0.5-0.3-0.8-0.4c-0.2,0-0.9,0-1.9,0H70.8z
				 M70.8,6.4v2.9h2.1c0.8,0,1.3,0,1.5-0.1C74.7,9.2,75,9,75.2,8.8c0.2-0.2,0.3-0.5,0.3-0.9c0-0.3-0.1-0.6-0.2-0.8
				c-0.2-0.2-0.4-0.4-0.7-0.5c-0.3-0.1-1-0.2-2-0.2H70.8z"/>
			<path class="st2" d="M82,5.7c0-1.1,0.2-2.1,0.5-2.8c0.2-0.6,0.6-1.1,1-1.5c0.4-0.4,0.9-0.8,1.4-1C85.6,0.1,86.4,0,87.3,0
				c1.6,0,2.9,0.5,3.9,1.5s1.5,2.4,1.5,4.2c0,1.8-0.5,3.2-1.4,4.2c-1,1-2.3,1.5-3.9,1.5c-1.6,0-2.9-0.5-3.9-1.5
				C82.4,8.9,82,7.5,82,5.7z M84.2,5.7c0,1.2,0.3,2.2,0.9,2.8c0.6,0.6,1.3,1,2.2,1s1.6-0.3,2.2-1c0.6-0.6,0.9-1.6,0.9-2.9
				c0-1.3-0.3-2.2-0.8-2.8c-0.6-0.6-1.3-0.9-2.2-0.9c-0.9,0-1.7,0.3-2.2,0.9S84.2,4.4,84.2,5.7z"/>
			<path class="st2" d="M97.2,11.2V0.3h2.2v9h5.5v1.9H97.2z"/>
			<path class="st2" d="M109.2,0.2h4.1c0.9,0,1.6,0.1,2.1,0.2c0.6,0.2,1.2,0.5,1.7,1c0.5,0.5,0.8,1.1,1,1.8c0.2,0.7,0.4,1.6,0.4,2.6
				c0,0.9-0.1,1.7-0.3,2.3c-0.3,0.8-0.7,1.4-1.2,1.9c-0.4,0.4-0.9,0.7-1.6,0.9c-0.5,0.2-1.1,0.2-2,0.2h-4.2V0.2z M111.5,2v7.3h1.7
				c0.6,0,1.1,0,1.3-0.1c0.4-0.1,0.7-0.2,0.9-0.5s0.4-0.6,0.6-1.1c0.1-0.5,0.2-1.2,0.2-2c0-0.8-0.1-1.5-0.2-2
				c-0.1-0.5-0.4-0.8-0.6-1.1c-0.3-0.3-0.6-0.4-1-0.5C114,2.1,113.4,2,112.4,2H111.5z"/>
			<path class="st2" d="M1.1,37.7v-11h3.6c1.3,0,2.2,0.1,2.6,0.2c0.6,0.2,1.2,0.5,1.6,1.1c0.4,0.6,0.6,1.3,0.6,2.1
				c0,0.7-0.1,1.2-0.4,1.7c-0.2,0.5-0.6,0.8-0.9,1.1c-0.4,0.3-0.8,0.4-1.2,0.5c-0.5,0.1-1.3,0.2-2.3,0.2H3.3v4.1H1.1z M3.3,28.6v3.1
				h1.2c0.9,0,1.5-0.1,1.8-0.2S6.8,31.2,7,31c0.2-0.2,0.3-0.5,0.3-0.9c0-0.4-0.1-0.7-0.4-1c-0.2-0.3-0.5-0.4-0.9-0.5
				c-0.3,0-0.8-0.1-1.6-0.1H3.3z"/>
			<path class="st2" d="M13.6,33.6c0-0.7,0.2-1.4,0.5-2c0.3-0.7,0.8-1.2,1.5-1.5c0.6-0.3,1.3-0.5,2.1-0.5c1.2,0,2.2,0.4,3,1.2
				c0.8,0.8,1.2,1.8,1.2,3c0,1.2-0.4,2.2-1.2,3c-0.8,0.8-1.8,1.2-2.9,1.2c-0.7,0-1.4-0.2-2.1-0.5c-0.7-0.3-1.2-0.8-1.5-1.5
				S13.6,34.5,13.6,33.6z M15.8,33.7c0,0.8,0.2,1.4,0.6,1.8c0.4,0.4,0.8,0.6,1.4,0.6s1-0.2,1.4-0.6c0.4-0.4,0.6-1,0.6-1.8
				c0-0.8-0.2-1.4-0.6-1.8c-0.4-0.4-0.8-0.6-1.4-0.6s-1,0.2-1.4,0.6C16,32.4,15.8,33,15.8,33.7z"/>
			<path class="st2" d="M26.1,29.8H28v1.1c0.7-0.8,1.5-1.3,2.5-1.3c0.5,0,1,0.1,1.3,0.3c0.4,0.2,0.7,0.5,0.9,1
				c0.3-0.4,0.7-0.7,1.1-1c0.4-0.2,0.8-0.3,1.3-0.3c0.6,0,1.1,0.1,1.5,0.4c0.4,0.2,0.7,0.6,0.9,1c0.1,0.3,0.2,0.9,0.2,1.6v5.1h-2.1
				v-4.5c0-0.8-0.1-1.3-0.2-1.5c-0.2-0.3-0.5-0.4-0.9-0.4c-0.3,0-0.6,0.1-0.8,0.3s-0.4,0.4-0.6,0.8c-0.1,0.3-0.2,0.9-0.2,1.6v3.8
				h-2.1v-4.4c0-0.8,0-1.3-0.1-1.5c-0.1-0.2-0.2-0.4-0.3-0.5c-0.2-0.1-0.4-0.2-0.6-0.2c-0.3,0-0.6,0.1-0.9,0.3
				c-0.3,0.2-0.4,0.4-0.6,0.8c-0.1,0.3-0.2,0.9-0.2,1.6v3.9h-2.1V29.8z"/>
			<path class="st2" d="M42.6,29.8h2v1.2c0.3-0.4,0.6-0.7,1-1s0.9-0.4,1.4-0.4c0.9,0,1.7,0.4,2.4,1.1s1,1.7,1,3c0,1.3-0.3,2.4-1,3.1
				c-0.6,0.7-1.4,1.1-2.4,1.1c-0.4,0-0.8-0.1-1.2-0.3c-0.4-0.2-0.7-0.5-1.1-0.9v4h-2.1V29.8z M44.7,33.6c0,0.9,0.2,1.6,0.5,2
				c0.4,0.4,0.8,0.6,1.3,0.6c0.5,0,0.9-0.2,1.2-0.6s0.5-1,0.5-1.9c0-0.8-0.2-1.5-0.5-1.9c-0.3-0.4-0.7-0.6-1.2-0.6
				c-0.5,0-0.9,0.2-1.3,0.6C44.8,32.2,44.7,32.8,44.7,33.6z"/>
			<path class="st2" d="M54.3,33.6c0-0.7,0.2-1.4,0.5-2c0.3-0.7,0.8-1.2,1.5-1.5c0.6-0.3,1.3-0.5,2.1-0.5c1.2,0,2.2,0.4,3,1.2
				c0.8,0.8,1.2,1.8,1.2,3c0,1.2-0.4,2.2-1.2,3c-0.8,0.8-1.8,1.2-2.9,1.2c-0.7,0-1.4-0.2-2.1-0.5c-0.7-0.3-1.2-0.8-1.5-1.5
				S54.3,34.5,54.3,33.6z M56.5,33.7c0,0.8,0.2,1.4,0.6,1.8c0.4,0.4,0.8,0.6,1.4,0.6s1-0.2,1.4-0.6c0.4-0.4,0.6-1,0.6-1.8
				c0-0.8-0.2-1.4-0.6-1.8c-0.4-0.4-0.8-0.6-1.4-0.6s-1,0.2-1.4,0.6C56.6,32.4,56.5,33,56.5,33.7z"/>
			<path class="st2" d="M66.2,35.5l2.1-0.3c0.1,0.4,0.3,0.7,0.5,0.9c0.3,0.2,0.7,0.3,1.2,0.3c0.5,0,1-0.1,1.2-0.3
				c0.2-0.1,0.3-0.3,0.3-0.6c0-0.2,0-0.3-0.1-0.4c-0.1-0.1-0.3-0.2-0.7-0.3c-1.7-0.4-2.8-0.7-3.2-1c-0.6-0.4-0.9-1-0.9-1.8
				c0-0.7,0.3-1.3,0.8-1.7c0.5-0.5,1.4-0.7,2.5-0.7c1.1,0,1.9,0.2,2.4,0.5s0.9,0.9,1.1,1.6l-2,0.4c-0.1-0.3-0.2-0.5-0.5-0.7
				c-0.2-0.2-0.6-0.2-1-0.2c-0.6,0-1,0.1-1.2,0.2c-0.2,0.1-0.2,0.3-0.2,0.4c0,0.2,0.1,0.3,0.2,0.4c0.2,0.1,0.8,0.3,2,0.6
				c1.1,0.3,1.9,0.6,2.3,0.9c0.4,0.4,0.7,0.9,0.7,1.6c0,0.7-0.3,1.4-0.9,1.9s-1.5,0.8-2.7,0.8c-1.1,0-1.9-0.2-2.6-0.7
				C66.8,36.8,66.4,36.2,66.2,35.5z"/>
			<path class="st2" d="M77.7,33.6c0-0.7,0.2-1.4,0.5-2c0.3-0.7,0.8-1.2,1.5-1.5c0.6-0.3,1.3-0.5,2.1-0.5c1.2,0,2.2,0.4,3,1.2
				c0.8,0.8,1.2,1.8,1.2,3c0,1.2-0.4,2.2-1.2,3c-0.8,0.8-1.8,1.2-2.9,1.2c-0.7,0-1.4-0.2-2.1-0.5c-0.7-0.3-1.2-0.8-1.5-1.5
				S77.7,34.5,77.7,33.6z M79.9,33.7c0,0.8,0.2,1.4,0.6,1.8c0.4,0.4,0.8,0.6,1.4,0.6s1-0.2,1.4-0.6c0.4-0.4,0.6-1,0.6-1.8
				c0-0.8-0.2-1.4-0.6-1.8c-0.4-0.4-0.8-0.6-1.4-0.6s-1,0.2-1.4,0.6C80.1,32.4,79.9,33,79.9,33.7z"/>
			<path class="st2" d="M97.4,28.7v-1.9h2.1v1.9H97.4z M97.4,37.7v-8h2.1v8H97.4z"/>
			<path class="st2" d="M103.7,35.5l2.1-0.3c0.1,0.4,0.3,0.7,0.5,0.9c0.3,0.2,0.7,0.3,1.2,0.3c0.5,0,1-0.1,1.2-0.3
				c0.2-0.1,0.3-0.3,0.3-0.6c0-0.2,0-0.3-0.1-0.4c-0.1-0.1-0.3-0.2-0.7-0.3c-1.7-0.4-2.8-0.7-3.2-1c-0.6-0.4-0.9-1-0.9-1.8
				c0-0.7,0.3-1.3,0.8-1.7c0.5-0.5,1.4-0.7,2.5-0.7c1.1,0,1.9,0.2,2.4,0.5s0.9,0.9,1.1,1.6l-2,0.4c-0.1-0.3-0.2-0.5-0.5-0.7
				c-0.2-0.2-0.6-0.2-1-0.2c-0.6,0-1,0.1-1.2,0.2c-0.2,0.1-0.2,0.3-0.2,0.4c0,0.2,0.1,0.3,0.2,0.4c0.2,0.1,0.8,0.3,2,0.6
				c1.1,0.3,1.9,0.6,2.3,0.9c0.4,0.4,0.7,0.9,0.7,1.6c0,0.7-0.3,1.4-0.9,1.9s-1.5,0.8-2.7,0.8c-1.1,0-1.9-0.2-2.6-0.7
				C104.3,36.8,103.9,36.2,103.7,35.5z"/>
			<path class="st2" d="M124.3,32.2l-1.9-0.3c0.2-0.8,0.6-1.3,1.1-1.7c0.5-0.4,1.3-0.6,2.3-0.6c0.9,0,1.6,0.1,2.1,0.3
				c0.5,0.2,0.8,0.5,1,0.8c0.2,0.3,0.3,1,0.3,1.9l0,2.5c0,0.7,0,1.2,0.1,1.5c0.1,0.3,0.2,0.7,0.4,1.1h-2.1c-0.1-0.1-0.1-0.3-0.2-0.6
				c0-0.1-0.1-0.2-0.1-0.2c-0.4,0.3-0.7,0.6-1.2,0.8s-0.8,0.3-1.3,0.3c-0.8,0-1.5-0.2-1.9-0.7c-0.5-0.4-0.7-1-0.7-1.7
				c0-0.4,0.1-0.9,0.3-1.2c0.2-0.4,0.5-0.6,0.9-0.8s0.9-0.4,1.7-0.5c1-0.2,1.7-0.4,2-0.5v-0.2c0-0.4-0.1-0.7-0.3-0.9
				c-0.2-0.2-0.6-0.3-1.1-0.3c-0.4,0-0.7,0.1-0.9,0.2S124.4,31.8,124.3,32.2z M127.1,33.9c-0.3,0.1-0.7,0.2-1.3,0.3s-1,0.2-1.1,0.4
				c-0.3,0.2-0.4,0.4-0.4,0.7c0,0.3,0.1,0.5,0.3,0.8c0.2,0.2,0.5,0.3,0.8,0.3c0.4,0,0.7-0.1,1.1-0.4c0.3-0.2,0.4-0.4,0.5-0.7
				c0.1-0.2,0.1-0.5,0.1-1V33.9z"/>
			<path class="st2" d="M141.3,37.7h-2.1v-4.1c0-0.9,0-1.4-0.1-1.7c-0.1-0.3-0.2-0.4-0.4-0.6s-0.4-0.2-0.7-0.2c-0.4,0-0.7,0.1-1,0.3
				c-0.3,0.2-0.5,0.5-0.6,0.8c-0.1,0.3-0.2,0.9-0.2,1.8v3.6H134v-8h2v1.2c0.7-0.9,1.6-1.3,2.6-1.3c0.5,0,0.9,0.1,1.3,0.3
				c0.4,0.2,0.7,0.4,0.9,0.6s0.3,0.6,0.4,0.9c0.1,0.3,0.1,0.8,0.1,1.4V37.7z"/>
			<path class="st2" d="M153.2,28.7v-1.9h2.1v1.9H153.2z M153.2,37.7v-8h2.1v8H153.2z"/>
			<path class="st2" d="M167.4,37.7h-2.1v-4.1c0-0.9,0-1.4-0.1-1.7c-0.1-0.3-0.2-0.4-0.4-0.6s-0.4-0.2-0.7-0.2c-0.4,0-0.7,0.1-1,0.3
				c-0.3,0.2-0.5,0.5-0.6,0.8c-0.1,0.3-0.2,0.9-0.2,1.8v3.6h-2.1v-8h2v1.2c0.7-0.9,1.6-1.3,2.6-1.3c0.5,0,0.9,0.1,1.3,0.3
				c0.4,0.2,0.7,0.4,0.9,0.6s0.3,0.6,0.4,0.9c0.1,0.3,0.1,0.8,0.1,1.4V37.7z"/>
			<path class="st2" d="M179.6,37.7h-2v-1.2c-0.3,0.5-0.7,0.8-1.2,1c-0.4,0.2-0.9,0.3-1.3,0.3c-0.9,0-1.7-0.4-2.3-1.1
				c-0.7-0.7-1-1.8-1-3.1c0-1.3,0.3-2.4,1-3.1c0.6-0.7,1.4-1.1,2.4-1.1c0.9,0,1.7,0.4,2.3,1.1v-4h2.1V37.7z M174,33.6
				c0,0.8,0.1,1.5,0.4,1.8c0.3,0.5,0.8,0.8,1.4,0.8c0.5,0,0.9-0.2,1.2-0.6c0.3-0.4,0.5-1,0.5-1.8c0-0.9-0.2-1.6-0.5-2
				c-0.3-0.4-0.8-0.6-1.3-0.6c-0.5,0-0.9,0.2-1.3,0.6C174.2,32.2,174,32.8,174,33.6z"/>
			<path class="st2" d="M189.7,37.7v-1.2c-0.3,0.4-0.7,0.8-1.1,1c-0.5,0.2-1,0.4-1.5,0.4c-0.5,0-1-0.1-1.4-0.4
				c-0.4-0.2-0.7-0.6-0.9-1s-0.3-1-0.3-1.8v-5h2.1v3.7c0,1.1,0,1.8,0.1,2.1c0.1,0.3,0.2,0.5,0.4,0.6c0.2,0.1,0.5,0.2,0.8,0.2
				c0.4,0,0.7-0.1,1-0.3s0.5-0.4,0.6-0.7c0.1-0.3,0.2-1,0.2-2.1v-3.4h2.1v8H189.7z"/>
			<path class="st2" d="M195.9,35.5l2.1-0.3c0.1,0.4,0.3,0.7,0.5,0.9c0.3,0.2,0.7,0.3,1.2,0.3c0.5,0,1-0.1,1.2-0.3
				c0.2-0.1,0.3-0.3,0.3-0.6c0-0.2,0-0.3-0.1-0.4c-0.1-0.1-0.3-0.2-0.7-0.3c-1.7-0.4-2.8-0.7-3.2-1c-0.6-0.4-0.9-1-0.9-1.8
				c0-0.7,0.3-1.3,0.8-1.7c0.5-0.5,1.4-0.7,2.5-0.7c1.1,0,1.9,0.2,2.4,0.5s0.9,0.9,1.1,1.6l-2,0.4c-0.1-0.3-0.2-0.5-0.5-0.7
				c-0.2-0.2-0.6-0.2-1-0.2c-0.6,0-1,0.1-1.2,0.2c-0.2,0.1-0.2,0.3-0.2,0.4c0,0.2,0.1,0.3,0.2,0.4c0.2,0.1,0.8,0.3,2,0.6
				c1.1,0.3,1.9,0.6,2.3,0.9c0.4,0.4,0.7,0.9,0.7,1.6c0,0.7-0.3,1.4-0.9,1.9s-1.5,0.8-2.7,0.8c-1.1,0-1.9-0.2-2.6-0.7
				C196.5,36.8,196.1,36.2,195.9,35.5z"/>
			<path class="st2" d="M211.6,29.8v1.7h-1.4v3.2c0,0.6,0,1,0,1.1c0,0.1,0.1,0.2,0.2,0.3c0.1,0.1,0.2,0.1,0.4,0.1
				c0.2,0,0.5-0.1,0.8-0.2l0.2,1.6c-0.5,0.2-1,0.3-1.7,0.3c-0.4,0-0.7-0.1-1-0.2c-0.3-0.1-0.5-0.3-0.7-0.5c-0.1-0.2-0.2-0.5-0.3-0.8
				c0-0.2-0.1-0.7-0.1-1.5v-3.5h-1v-1.7h1v-1.6l2.1-1.2v2.8H211.6z"/>
			<path class="st2" d="M217.8,37.7h-2.1v-8h2v1.1c0.3-0.5,0.6-0.9,0.9-1.1c0.3-0.2,0.6-0.3,0.9-0.3c0.5,0,0.9,0.1,1.4,0.4l-0.7,1.8
				c-0.4-0.2-0.7-0.3-1-0.3c-0.3,0-0.5,0.1-0.7,0.2c-0.2,0.2-0.4,0.5-0.5,0.9c-0.1,0.4-0.2,1.3-0.2,2.7V37.7z"/>
			<path class="st2" d="M224.5,28.7v-1.9h2.1v1.9H224.5z M224.5,37.7v-8h2.1v8H224.5z"/>
			<path class="st2" d="M233.1,32.2l-1.9-0.3c0.2-0.8,0.6-1.3,1.1-1.7c0.5-0.4,1.3-0.6,2.3-0.6c0.9,0,1.6,0.1,2.1,0.3
				c0.5,0.2,0.8,0.5,1,0.8c0.2,0.3,0.3,1,0.3,1.9l0,2.5c0,0.7,0,1.2,0.1,1.5c0.1,0.3,0.2,0.7,0.4,1.1h-2.1c-0.1-0.1-0.1-0.3-0.2-0.6
				c0-0.1-0.1-0.2-0.1-0.2c-0.4,0.3-0.7,0.6-1.2,0.8s-0.8,0.3-1.3,0.3c-0.8,0-1.5-0.2-1.9-0.7c-0.5-0.4-0.7-1-0.7-1.7
				c0-0.4,0.1-0.9,0.3-1.2c0.2-0.4,0.5-0.6,0.9-0.8s0.9-0.4,1.7-0.5c1-0.2,1.7-0.4,2-0.5v-0.2c0-0.4-0.1-0.7-0.3-0.9
				c-0.2-0.2-0.6-0.3-1.1-0.3c-0.4,0-0.7,0.1-0.9,0.2S233.3,31.8,233.1,32.2z M235.9,33.9c-0.3,0.1-0.7,0.2-1.3,0.3s-1,0.2-1.1,0.4
				c-0.3,0.2-0.4,0.4-0.4,0.7c0,0.3,0.1,0.5,0.3,0.8c0.2,0.2,0.5,0.3,0.8,0.3c0.4,0,0.7-0.1,1.1-0.4c0.3-0.2,0.4-0.4,0.5-0.7
				c0.1-0.2,0.1-0.5,0.1-1V33.9z"/>
			<path class="st2" d="M242.8,37.7v-11h2.1v11H242.8z"/>
			<path class="st2" d="M258.5,32.2l-1.9-0.3c0.2-0.8,0.6-1.3,1.1-1.7c0.5-0.4,1.3-0.6,2.3-0.6c0.9,0,1.6,0.1,2.1,0.3
				c0.5,0.2,0.8,0.5,1,0.8c0.2,0.3,0.3,1,0.3,1.9l0,2.5c0,0.7,0,1.2,0.1,1.5s0.2,0.7,0.4,1.1h-2.1c-0.1-0.1-0.1-0.3-0.2-0.6
				c0-0.1-0.1-0.2-0.1-0.2c-0.4,0.3-0.7,0.6-1.2,0.8c-0.4,0.2-0.8,0.3-1.3,0.3c-0.8,0-1.5-0.2-1.9-0.7c-0.5-0.4-0.7-1-0.7-1.7
				c0-0.4,0.1-0.9,0.3-1.2c0.2-0.4,0.5-0.6,0.9-0.8c0.4-0.2,0.9-0.4,1.7-0.5c1-0.2,1.7-0.4,2-0.5v-0.2c0-0.4-0.1-0.7-0.3-0.9
				c-0.2-0.2-0.6-0.3-1.1-0.3c-0.4,0-0.7,0.1-0.9,0.2S258.6,31.8,258.5,32.2z M261.3,33.9c-0.3,0.1-0.7,0.2-1.3,0.3
				c-0.6,0.1-1,0.2-1.1,0.4c-0.3,0.2-0.4,0.4-0.4,0.7c0,0.3,0.1,0.5,0.3,0.8s0.5,0.3,0.8,0.3c0.4,0,0.7-0.1,1.1-0.4
				c0.3-0.2,0.4-0.4,0.5-0.7c0.1-0.2,0.1-0.5,0.1-1V33.9z"/>
			<path class="st2" d="M275.4,37.7h-2.1v-4.1c0-0.9,0-1.4-0.1-1.7c-0.1-0.3-0.2-0.4-0.4-0.6s-0.4-0.2-0.7-0.2c-0.4,0-0.7,0.1-1,0.3
				c-0.3,0.2-0.5,0.5-0.6,0.8c-0.1,0.3-0.2,0.9-0.2,1.8v3.6h-2.1v-8h2v1.2c0.7-0.9,1.6-1.3,2.6-1.3c0.5,0,0.9,0.1,1.3,0.3
				c0.4,0.2,0.7,0.4,0.9,0.6s0.3,0.6,0.4,0.9c0.1,0.3,0.1,0.8,0.1,1.4V37.7z"/>
			<path class="st2" d="M287.6,37.7h-2v-1.2c-0.3,0.5-0.7,0.8-1.2,1s-0.9,0.3-1.3,0.3c-0.9,0-1.7-0.4-2.3-1.1c-0.7-0.7-1-1.8-1-3.1
				c0-1.3,0.3-2.4,1-3.1c0.6-0.7,1.4-1.1,2.4-1.1c0.9,0,1.7,0.4,2.3,1.1v-4h2.1V37.7z M282,33.6c0,0.8,0.1,1.5,0.4,1.8
				c0.3,0.5,0.8,0.8,1.4,0.8c0.5,0,0.9-0.2,1.2-0.6s0.5-1,0.5-1.8c0-0.9-0.2-1.6-0.5-2c-0.3-0.4-0.8-0.6-1.3-0.6
				c-0.5,0-0.9,0.2-1.3,0.6C282.2,32.2,282,32.8,282,33.6z"/>
			<path class="st2" d="M299.3,29.8h1.9v1.1c0.7-0.8,1.5-1.3,2.5-1.3c0.5,0,1,0.1,1.3,0.3c0.4,0.2,0.7,0.5,0.9,1
				c0.3-0.4,0.7-0.7,1.1-1c0.4-0.2,0.8-0.3,1.3-0.3c0.6,0,1.1,0.1,1.5,0.4c0.4,0.2,0.7,0.6,0.9,1c0.1,0.3,0.2,0.9,0.2,1.6v5.1h-2.1
				v-4.5c0-0.8-0.1-1.3-0.2-1.5c-0.2-0.3-0.5-0.4-0.9-0.4c-0.3,0-0.6,0.1-0.8,0.3s-0.4,0.4-0.6,0.8c-0.1,0.3-0.2,0.9-0.2,1.6v3.8
				h-2.1v-4.4c0-0.8,0-1.3-0.1-1.5c-0.1-0.2-0.2-0.4-0.3-0.5c-0.2-0.1-0.4-0.2-0.6-0.2c-0.3,0-0.6,0.1-0.9,0.3s-0.4,0.4-0.6,0.8
				c-0.1,0.3-0.2,0.9-0.2,1.6v3.9h-2.1V29.8z"/>
			<path class="st2" d="M315.4,33.6c0-0.7,0.2-1.4,0.5-2c0.3-0.7,0.8-1.2,1.5-1.5s1.3-0.5,2.1-0.5c1.2,0,2.2,0.4,3,1.2
				c0.8,0.8,1.2,1.8,1.2,3c0,1.2-0.4,2.2-1.2,3c-0.8,0.8-1.8,1.2-2.9,1.2c-0.7,0-1.4-0.2-2.1-0.5s-1.2-0.8-1.5-1.5
				C315.6,35.3,315.4,34.5,315.4,33.6z M317.6,33.7c0,0.8,0.2,1.4,0.6,1.8c0.4,0.4,0.8,0.6,1.4,0.6s1-0.2,1.4-0.6
				c0.4-0.4,0.6-1,0.6-1.8c0-0.8-0.2-1.4-0.6-1.8c-0.4-0.4-0.8-0.6-1.4-0.6s-1,0.2-1.4,0.6C317.8,32.4,317.6,33,317.6,33.7z"/>
			<path class="st2" d="M335.3,37.7h-2v-1.2c-0.3,0.5-0.7,0.8-1.2,1s-0.9,0.3-1.3,0.3c-0.9,0-1.7-0.4-2.3-1.1c-0.7-0.7-1-1.8-1-3.1
				c0-1.3,0.3-2.4,1-3.1c0.6-0.7,1.4-1.1,2.4-1.1c0.9,0,1.7,0.4,2.3,1.1v-4h2.1V37.7z M329.7,33.6c0,0.8,0.1,1.5,0.4,1.8
				c0.3,0.5,0.8,0.8,1.4,0.8c0.5,0,0.9-0.2,1.2-0.6s0.5-1,0.5-1.8c0-0.9-0.2-1.6-0.5-2c-0.3-0.4-0.8-0.6-1.3-0.6
				c-0.5,0-0.9,0.2-1.3,0.6C329.9,32.2,329.7,32.8,329.7,33.6z"/>
			<path class="st2" d="M344.8,35.2l2.1,0.4c-0.3,0.8-0.7,1.4-1.3,1.8s-1.3,0.6-2.2,0.6c-1.4,0-2.4-0.5-3.1-1.4
				c-0.5-0.7-0.8-1.6-0.8-2.7c0-1.3,0.3-2.4,1-3.1c0.7-0.7,1.6-1.1,2.6-1.1c1.2,0,2.1,0.4,2.8,1.2c0.7,0.8,1,2,1,3.6h-5.3
				c0,0.6,0.2,1.1,0.5,1.5c0.3,0.3,0.7,0.5,1.2,0.5c0.3,0,0.6-0.1,0.8-0.3S344.7,35.6,344.8,35.2z M344.9,33.1
				c0-0.6-0.2-1.1-0.5-1.4s-0.7-0.5-1.1-0.5c-0.5,0-0.8,0.2-1.1,0.5c-0.3,0.3-0.4,0.8-0.4,1.4H344.9z"/>
			<path class="st2" d="M353.5,37.7h-2.1v-8h2v1.1c0.3-0.5,0.6-0.9,0.9-1.1s0.6-0.3,0.9-0.3c0.5,0,0.9,0.1,1.4,0.4l-0.7,1.8
				c-0.4-0.2-0.7-0.3-1-0.3c-0.3,0-0.5,0.1-0.8,0.2c-0.2,0.2-0.4,0.5-0.5,0.9s-0.2,1.3-0.2,2.7V37.7z"/>
			<path class="st2" d="M367.4,37.7h-2.1v-4.1c0-0.9,0-1.4-0.1-1.7c-0.1-0.3-0.2-0.4-0.4-0.6s-0.4-0.2-0.7-0.2c-0.4,0-0.7,0.1-1,0.3
				c-0.3,0.2-0.5,0.5-0.6,0.8c-0.1,0.3-0.2,0.9-0.2,1.8v3.6h-2.1v-8h2v1.2c0.7-0.9,1.6-1.3,2.6-1.3c0.5,0,0.9,0.1,1.3,0.3
				c0.4,0.2,0.7,0.4,0.9,0.6s0.3,0.6,0.4,0.9c0.1,0.3,0.1,0.8,0.1,1.4V37.7z"/>
			<path class="st2" d="M1.1,51.2v-1.9h2.1v1.9H1.1z M1.1,60.3v-8h2.1v8H1.1z"/>
			<path class="st2" d="M11.8,52.3V54h-1.4v3.2c0,0.6,0,1,0,1.1c0,0.1,0.1,0.2,0.2,0.3c0.1,0.1,0.2,0.1,0.4,0.1
				c0.2,0,0.5-0.1,0.8-0.2l0.2,1.6c-0.5,0.2-1,0.3-1.7,0.3c-0.4,0-0.7-0.1-1-0.2C9,60.1,8.7,60,8.6,59.8c-0.1-0.2-0.2-0.5-0.3-0.8
				c0-0.2-0.1-0.7-0.1-1.5V54h-1v-1.7h1v-1.6l2.1-1.2v2.8H11.8z"/>
			<path class="st2" d="M17.6,54.8l-1.9-0.3c0.2-0.8,0.6-1.3,1.1-1.7c0.5-0.4,1.3-0.6,2.3-0.6c0.9,0,1.6,0.1,2.1,0.3
				c0.5,0.2,0.8,0.5,1,0.8c0.2,0.3,0.3,1,0.3,1.9l0,2.5c0,0.7,0,1.2,0.1,1.5c0.1,0.3,0.2,0.7,0.4,1.1h-2.1c-0.1-0.1-0.1-0.3-0.2-0.6
				c0-0.1-0.1-0.2-0.1-0.2c-0.4,0.3-0.7,0.6-1.2,0.8s-0.8,0.3-1.3,0.3c-0.8,0-1.5-0.2-1.9-0.7c-0.5-0.4-0.7-1-0.7-1.7
				c0-0.5,0.1-0.9,0.3-1.2s0.5-0.6,0.9-0.8s0.9-0.4,1.7-0.5c1-0.2,1.7-0.4,2-0.5v-0.2c0-0.4-0.1-0.7-0.3-0.9
				c-0.2-0.2-0.6-0.3-1.1-0.3c-0.4,0-0.7,0.1-0.9,0.2S17.7,54.4,17.6,54.8z M20.4,56.5c-0.3,0.1-0.7,0.2-1.3,0.3
				c-0.6,0.1-1,0.2-1.1,0.4c-0.3,0.2-0.4,0.4-0.4,0.7c0,0.3,0.1,0.5,0.3,0.8c0.2,0.2,0.5,0.3,0.8,0.3c0.4,0,0.7-0.1,1.1-0.4
				c0.3-0.2,0.4-0.4,0.5-0.7c0.1-0.2,0.1-0.5,0.1-1V56.5z"/>
			<path class="st2" d="M27.3,60.3v-11h2.1v11H27.3z"/>
			<path class="st2" d="M34.3,51.2v-1.9h2.1v1.9H34.3z M34.3,60.3v-8h2.1v8H34.3z"/>
			<path class="st2" d="M42.9,54.8L41,54.4c0.2-0.8,0.6-1.3,1.1-1.7c0.5-0.4,1.3-0.6,2.3-0.6c0.9,0,1.6,0.1,2.1,0.3
				c0.5,0.2,0.8,0.5,1,0.8c0.2,0.3,0.3,1,0.3,1.9l0,2.5c0,0.7,0,1.2,0.1,1.5c0.1,0.3,0.2,0.7,0.4,1.1h-2.1c-0.1-0.1-0.1-0.3-0.2-0.6
				c0-0.1-0.1-0.2-0.1-0.2c-0.4,0.3-0.7,0.6-1.2,0.8s-0.8,0.3-1.3,0.3c-0.8,0-1.5-0.2-1.9-0.7c-0.5-0.4-0.7-1-0.7-1.7
				c0-0.5,0.1-0.9,0.3-1.2s0.5-0.6,0.9-0.8s0.9-0.4,1.7-0.5c1-0.2,1.7-0.4,2-0.5v-0.2c0-0.4-0.1-0.7-0.3-0.9
				c-0.2-0.2-0.6-0.3-1.1-0.3c-0.4,0-0.7,0.1-0.9,0.2S43.1,54.4,42.9,54.8z M45.7,56.5c-0.3,0.1-0.7,0.2-1.3,0.3
				c-0.6,0.1-1,0.2-1.1,0.4c-0.3,0.2-0.4,0.4-0.4,0.7c0,0.3,0.1,0.5,0.3,0.8c0.2,0.2,0.5,0.3,0.8,0.3c0.4,0,0.7-0.1,1.1-0.4
				c0.3-0.2,0.4-0.4,0.5-0.7c0.1-0.2,0.1-0.5,0.1-1V56.5z"/>
			<path class="st2" d="M59.9,60.3h-2.1v-4.1c0-0.9,0-1.4-0.1-1.7c-0.1-0.3-0.2-0.4-0.4-0.6c-0.2-0.1-0.4-0.2-0.7-0.2
				c-0.4,0-0.7,0.1-1,0.3c-0.3,0.2-0.5,0.5-0.6,0.8c-0.1,0.3-0.2,0.9-0.2,1.8v3.6h-2.1v-8h2v1.2c0.7-0.9,1.6-1.3,2.6-1.3
				c0.5,0,0.9,0.1,1.3,0.3c0.4,0.2,0.7,0.4,0.9,0.6s0.3,0.6,0.4,0.9c0.1,0.3,0.1,0.8,0.1,1.4V60.3z"/>
			<path class="st2" d="M73.8,60.3h-2.1v-8h2v1.1c0.3-0.5,0.6-0.9,0.9-1.1c0.3-0.2,0.6-0.3,0.9-0.3c0.5,0,0.9,0.1,1.4,0.4l-0.7,1.8
				c-0.4-0.2-0.7-0.3-1-0.3c-0.3,0-0.5,0.1-0.7,0.2c-0.2,0.2-0.4,0.5-0.5,0.9c-0.1,0.4-0.2,1.3-0.2,2.7V60.3z"/>
			<path class="st2" d="M85.2,57.7l2.1,0.4c-0.3,0.8-0.7,1.4-1.3,1.8c-0.6,0.4-1.3,0.6-2.2,0.6c-1.4,0-2.4-0.5-3.1-1.4
				c-0.5-0.7-0.8-1.6-0.8-2.7c0-1.3,0.3-2.4,1-3.1s1.6-1.1,2.6-1.1c1.2,0,2.1,0.4,2.8,1.2c0.7,0.8,1,2,1,3.6h-5.3
				c0,0.6,0.2,1.1,0.5,1.5c0.3,0.3,0.7,0.5,1.2,0.5c0.3,0,0.6-0.1,0.8-0.3C84.9,58.4,85,58.1,85.2,57.7z M85.3,55.6
				c0-0.6-0.2-1.1-0.5-1.4c-0.3-0.3-0.7-0.5-1.1-0.5c-0.5,0-0.8,0.2-1.1,0.5c-0.3,0.3-0.4,0.8-0.4,1.4H85.3z"/>
			<path class="st2" d="M91.1,58l2.1-0.3c0.1,0.4,0.3,0.7,0.5,0.9c0.3,0.2,0.7,0.3,1.2,0.3c0.5,0,1-0.1,1.2-0.3
				c0.2-0.1,0.3-0.3,0.3-0.6c0-0.2,0-0.3-0.1-0.4c-0.1-0.1-0.3-0.2-0.7-0.3c-1.7-0.4-2.8-0.7-3.2-1c-0.6-0.4-0.9-1-0.9-1.8
				c0-0.7,0.3-1.3,0.8-1.7s1.4-0.7,2.5-0.7c1.1,0,1.9,0.2,2.4,0.5c0.5,0.4,0.9,0.9,1.1,1.6l-2,0.4c-0.1-0.3-0.2-0.5-0.5-0.7
				s-0.6-0.2-1-0.2c-0.6,0-1,0.1-1.2,0.2c-0.2,0.1-0.2,0.3-0.2,0.4c0,0.1,0.1,0.3,0.2,0.4c0.2,0.1,0.8,0.3,2,0.6
				c1.1,0.3,1.9,0.6,2.3,0.9c0.4,0.4,0.7,0.9,0.7,1.6c0,0.7-0.3,1.4-0.9,1.9s-1.5,0.8-2.7,0.8c-1.1,0-1.9-0.2-2.6-0.7
				C91.7,59.4,91.3,58.8,91.1,58z"/>
			<path class="st2" d="M106.8,52.3V54h-1.4v3.2c0,0.6,0,1,0,1.1c0,0.1,0.1,0.2,0.2,0.3c0.1,0.1,0.2,0.1,0.4,0.1
				c0.2,0,0.5-0.1,0.8-0.2l0.2,1.6c-0.5,0.2-1,0.3-1.7,0.3c-0.4,0-0.7-0.1-1-0.2c-0.3-0.1-0.5-0.3-0.7-0.5c-0.1-0.2-0.2-0.5-0.3-0.8
				c0-0.2-0.1-0.7-0.1-1.5V54h-1v-1.7h1v-1.6l2.1-1.2v2.8H106.8z"/>
			<path class="st2" d="M112.6,54.8l-1.9-0.3c0.2-0.8,0.6-1.3,1.1-1.7c0.5-0.4,1.3-0.6,2.3-0.6c0.9,0,1.6,0.1,2.1,0.3
				c0.5,0.2,0.8,0.5,1,0.8c0.2,0.3,0.3,1,0.3,1.9l0,2.5c0,0.7,0,1.2,0.1,1.5c0.1,0.3,0.2,0.7,0.4,1.1h-2.1c-0.1-0.1-0.1-0.3-0.2-0.6
				c0-0.1-0.1-0.2-0.1-0.2c-0.4,0.3-0.7,0.6-1.2,0.8s-0.8,0.3-1.3,0.3c-0.8,0-1.5-0.2-1.9-0.7c-0.5-0.4-0.7-1-0.7-1.7
				c0-0.5,0.1-0.9,0.3-1.2s0.5-0.6,0.9-0.8s0.9-0.4,1.7-0.5c1-0.2,1.7-0.4,2-0.5v-0.2c0-0.4-0.1-0.7-0.3-0.9
				c-0.2-0.2-0.6-0.3-1.1-0.3c-0.4,0-0.7,0.1-0.9,0.2S112.7,54.4,112.6,54.8z M115.4,56.5c-0.3,0.1-0.7,0.2-1.3,0.3
				c-0.6,0.1-1,0.2-1.1,0.4c-0.3,0.2-0.4,0.4-0.4,0.7c0,0.3,0.1,0.5,0.3,0.8c0.2,0.2,0.5,0.3,0.8,0.3c0.4,0,0.7-0.1,1.1-0.4
				c0.3-0.2,0.4-0.4,0.5-0.7c0.1-0.2,0.1-0.5,0.1-1V56.5z"/>
			<path class="st2" d="M127.5,60.3v-1.2c-0.3,0.4-0.7,0.8-1.1,1c-0.5,0.2-1,0.4-1.5,0.4c-0.5,0-1-0.1-1.4-0.4
				c-0.4-0.2-0.7-0.6-0.9-1c-0.2-0.4-0.3-1-0.3-1.8v-5h2.1V56c0,1.1,0,1.8,0.1,2.1c0.1,0.3,0.2,0.5,0.4,0.6c0.2,0.1,0.5,0.2,0.8,0.2
				c0.4,0,0.7-0.1,1-0.3s0.5-0.4,0.6-0.7s0.2-1,0.2-2.1v-3.4h2.1v8H127.5z"/>
			<path class="st2" d="M136.5,60.3h-2.1v-8h2v1.1c0.3-0.5,0.6-0.9,0.9-1.1c0.3-0.2,0.6-0.3,0.9-0.3c0.5,0,0.9,0.1,1.4,0.4l-0.7,1.8
				c-0.4-0.2-0.7-0.3-1-0.3c-0.3,0-0.5,0.1-0.7,0.2c-0.2,0.2-0.4,0.5-0.5,0.9c-0.1,0.4-0.2,1.3-0.2,2.7V60.3z"/>
			<path class="st2" d="M144.8,54.8l-1.9-0.3c0.2-0.8,0.6-1.3,1.1-1.7c0.5-0.4,1.3-0.6,2.3-0.6c0.9,0,1.6,0.1,2.1,0.3
				c0.5,0.2,0.8,0.5,1,0.8c0.2,0.3,0.3,1,0.3,1.9l0,2.5c0,0.7,0,1.2,0.1,1.5c0.1,0.3,0.2,0.7,0.4,1.1H148c-0.1-0.1-0.1-0.3-0.2-0.6
				c0-0.1-0.1-0.2-0.1-0.2c-0.4,0.3-0.7,0.6-1.2,0.8s-0.8,0.3-1.3,0.3c-0.8,0-1.5-0.2-1.9-0.7c-0.5-0.4-0.7-1-0.7-1.7
				c0-0.5,0.1-0.9,0.3-1.2s0.5-0.6,0.9-0.8s0.9-0.4,1.7-0.5c1-0.2,1.7-0.4,2-0.5v-0.2c0-0.4-0.1-0.7-0.3-0.9
				c-0.2-0.2-0.6-0.3-1.1-0.3c-0.4,0-0.7,0.1-0.9,0.2S144.9,54.4,144.8,54.8z M147.6,56.5c-0.3,0.1-0.7,0.2-1.3,0.3
				c-0.6,0.1-1,0.2-1.1,0.4c-0.3,0.2-0.4,0.4-0.4,0.7c0,0.3,0.1,0.5,0.3,0.8c0.2,0.2,0.5,0.3,0.8,0.3c0.4,0,0.7-0.1,1.1-0.4
				c0.3-0.2,0.4-0.4,0.5-0.7c0.1-0.2,0.1-0.5,0.1-1V56.5z"/>
			<path class="st2" d="M161.7,60.3h-2.1v-4.1c0-0.9,0-1.4-0.1-1.7c-0.1-0.3-0.2-0.4-0.4-0.6c-0.2-0.1-0.4-0.2-0.7-0.2
				c-0.4,0-0.7,0.1-1,0.3c-0.3,0.2-0.5,0.5-0.6,0.8c-0.1,0.3-0.2,0.9-0.2,1.8v3.6h-2.1v-8h2v1.2c0.7-0.9,1.6-1.3,2.6-1.3
				c0.5,0,0.9,0.1,1.3,0.3c0.4,0.2,0.7,0.4,0.9,0.6s0.3,0.6,0.4,0.9c0.1,0.3,0.1,0.8,0.1,1.4V60.3z"/>
			<path class="st2" d="M170.3,52.3V54h-1.4v3.2c0,0.6,0,1,0,1.1c0,0.1,0.1,0.2,0.2,0.3c0.1,0.1,0.2,0.1,0.4,0.1
				c0.2,0,0.5-0.1,0.8-0.2l0.2,1.6c-0.5,0.2-1,0.3-1.7,0.3c-0.4,0-0.7-0.1-1-0.2c-0.3-0.1-0.5-0.3-0.7-0.5c-0.1-0.2-0.2-0.5-0.3-0.8
				c0-0.2-0.1-0.7-0.1-1.5V54h-1v-1.7h1v-1.6l2.1-1.2v2.8H170.3z"/>
			<path class="st2" d="M183.1,54.8l-1.9-0.3c0.2-0.8,0.6-1.3,1.1-1.7c0.5-0.4,1.3-0.6,2.3-0.6c0.9,0,1.6,0.1,2.1,0.3
				c0.5,0.2,0.8,0.5,1,0.8c0.2,0.3,0.3,1,0.3,1.9l0,2.5c0,0.7,0,1.2,0.1,1.5c0.1,0.3,0.2,0.7,0.4,1.1h-2.1c-0.1-0.1-0.1-0.3-0.2-0.6
				c0-0.1-0.1-0.2-0.1-0.2c-0.4,0.3-0.7,0.6-1.2,0.8s-0.8,0.3-1.3,0.3c-0.8,0-1.5-0.2-1.9-0.7c-0.5-0.4-0.7-1-0.7-1.7
				c0-0.5,0.1-0.9,0.3-1.2s0.5-0.6,0.9-0.8s0.9-0.4,1.7-0.5c1-0.2,1.7-0.4,2-0.5v-0.2c0-0.4-0.1-0.7-0.3-0.9
				c-0.2-0.2-0.6-0.3-1.1-0.3c-0.4,0-0.7,0.1-0.9,0.2S183.2,54.4,183.1,54.8z M185.9,56.5c-0.3,0.1-0.7,0.2-1.3,0.3
				c-0.6,0.1-1,0.2-1.1,0.4c-0.3,0.2-0.4,0.4-0.4,0.7c0,0.3,0.1,0.5,0.3,0.8c0.2,0.2,0.5,0.3,0.8,0.3c0.4,0,0.7-0.1,1.1-0.4
				c0.3-0.2,0.4-0.4,0.5-0.7c0.1-0.2,0.1-0.5,0.1-1V56.5z"/>
			<path class="st2" d="M200,60.3h-2.1v-4.1c0-0.9,0-1.4-0.1-1.7c-0.1-0.3-0.2-0.4-0.4-0.6c-0.2-0.1-0.4-0.2-0.7-0.2
				c-0.4,0-0.7,0.1-1,0.3c-0.3,0.2-0.5,0.5-0.6,0.8c-0.1,0.3-0.2,0.9-0.2,1.8v3.6h-2.1v-8h2v1.2c0.7-0.9,1.6-1.3,2.6-1.3
				c0.5,0,0.9,0.1,1.3,0.3c0.4,0.2,0.7,0.4,0.9,0.6s0.3,0.6,0.4,0.9c0.1,0.3,0.1,0.8,0.1,1.4V60.3z"/>
			<path class="st2" d="M212.2,60.3h-2v-1.2c-0.3,0.5-0.7,0.8-1.2,1c-0.4,0.2-0.9,0.3-1.3,0.3c-0.9,0-1.7-0.4-2.3-1.1
				c-0.7-0.7-1-1.8-1-3.1c0-1.3,0.3-2.4,1-3.1s1.4-1.1,2.4-1.1c0.9,0,1.7,0.4,2.3,1.1v-4h2.1V60.3z M206.6,56.1
				c0,0.8,0.1,1.5,0.4,1.8c0.3,0.5,0.8,0.8,1.4,0.8c0.5,0,0.9-0.2,1.2-0.6c0.3-0.4,0.5-1,0.5-1.8c0-0.9-0.2-1.6-0.5-2
				c-0.3-0.4-0.8-0.6-1.3-0.6c-0.5,0-0.9,0.2-1.3,0.6C206.8,54.7,206.6,55.3,206.6,56.1z"/>
			<path class="st2" d="M224,60.3v-11h2.1v4c0.6-0.7,1.4-1.1,2.3-1.1c1,0,1.8,0.4,2.4,1.1c0.6,0.7,1,1.7,1,3c0,1.4-0.3,2.4-1,3.1
				s-1.4,1.1-2.4,1.1c-0.5,0-0.9-0.1-1.3-0.3c-0.4-0.2-0.8-0.6-1.1-1v1.2H224z M226.1,56.1c0,0.8,0.1,1.4,0.4,1.8
				c0.4,0.6,0.8,0.8,1.5,0.8c0.5,0,0.9-0.2,1.2-0.6c0.3-0.4,0.5-1,0.5-1.9c0-0.9-0.2-1.6-0.5-2s-0.8-0.6-1.3-0.6
				c-0.5,0-0.9,0.2-1.3,0.6C226.3,54.7,226.1,55.3,226.1,56.1z"/>
			<path class="st2" d="M237.8,54.8l-1.9-0.3c0.2-0.8,0.6-1.3,1.1-1.7c0.5-0.4,1.3-0.6,2.3-0.6c0.9,0,1.6,0.1,2.1,0.3
				c0.5,0.2,0.8,0.5,1,0.8c0.2,0.3,0.3,1,0.3,1.9l0,2.5c0,0.7,0,1.2,0.1,1.5c0.1,0.3,0.2,0.7,0.4,1.1h-2.1c-0.1-0.1-0.1-0.3-0.2-0.6
				c0-0.1-0.1-0.2-0.1-0.2c-0.4,0.3-0.7,0.6-1.2,0.8s-0.8,0.3-1.3,0.3c-0.8,0-1.5-0.2-1.9-0.7c-0.5-0.4-0.7-1-0.7-1.7
				c0-0.5,0.1-0.9,0.3-1.2s0.5-0.6,0.9-0.8s0.9-0.4,1.7-0.5c1-0.2,1.7-0.4,2-0.5v-0.2c0-0.4-0.1-0.7-0.3-0.9
				c-0.2-0.2-0.6-0.3-1.1-0.3c-0.4,0-0.7,0.1-0.9,0.2S237.9,54.4,237.8,54.8z M240.6,56.5c-0.3,0.1-0.7,0.2-1.3,0.3
				c-0.6,0.1-1,0.2-1.1,0.4c-0.3,0.2-0.4,0.4-0.4,0.7c0,0.3,0.1,0.5,0.3,0.8c0.2,0.2,0.5,0.3,0.8,0.3c0.4,0,0.7-0.1,1.1-0.4
				c0.3-0.2,0.4-0.4,0.5-0.7c0.1-0.2,0.1-0.5,0.1-1V56.5z"/>
			<path class="st2" d="M249.6,60.3h-2.1v-8h2v1.1c0.3-0.5,0.6-0.9,0.9-1.1s0.6-0.3,0.9-0.3c0.5,0,0.9,0.1,1.4,0.4l-0.7,1.8
				c-0.4-0.2-0.7-0.3-1-0.3c-0.3,0-0.5,0.1-0.8,0.2s-0.4,0.5-0.5,0.9c-0.1,0.4-0.2,1.3-0.2,2.7V60.3z"/>
			<path class="st2" d="M264.8,60.3l-2.5-8h2l1.5,5.2l1.4-5.2h2l1.3,5.2l1.5-5.2h2.1l-2.6,8h-2l-1.4-5.1l-1.3,5.1H264.8z"/>
			<path class="st2" d="M278,51.2v-1.9h2.1v1.9H278z M278,60.3v-8h2.1v8H278z"/>
			<path class="st2" d="M288.7,52.3V54h-1.4v3.2c0,0.6,0,1,0,1.1s0.1,0.2,0.2,0.3c0.1,0.1,0.2,0.1,0.4,0.1c0.2,0,0.5-0.1,0.8-0.2
				l0.2,1.6c-0.5,0.2-1,0.3-1.7,0.3c-0.4,0-0.7-0.1-1-0.2c-0.3-0.1-0.5-0.3-0.7-0.5s-0.2-0.5-0.3-0.8c0-0.2-0.1-0.7-0.1-1.5V54h-1
				v-1.7h1v-1.6l2.1-1.2v2.8H288.7z"/>
			<path class="st2" d="M295,49.3v4c0.7-0.8,1.5-1.2,2.4-1.2c0.5,0,0.9,0.1,1.3,0.3s0.7,0.4,0.9,0.7c0.2,0.3,0.3,0.6,0.4,0.9
				c0.1,0.3,0.1,0.9,0.1,1.6v4.7H298v-4.2c0-0.8,0-1.4-0.1-1.6c-0.1-0.2-0.2-0.4-0.4-0.5c-0.2-0.1-0.5-0.2-0.8-0.2
				c-0.3,0-0.7,0.1-0.9,0.3c-0.3,0.2-0.5,0.4-0.6,0.8c-0.1,0.3-0.2,0.8-0.2,1.5v4h-2.1v-11H295z"/>
			<path class="st2" d="M313.6,54.8l-1.9-0.3c0.2-0.8,0.6-1.3,1.1-1.7c0.5-0.4,1.3-0.6,2.3-0.6c0.9,0,1.6,0.1,2.1,0.3
				c0.5,0.2,0.8,0.5,1,0.8c0.2,0.3,0.3,1,0.3,1.9l0,2.5c0,0.7,0,1.2,0.1,1.5c0.1,0.3,0.2,0.7,0.4,1.1h-2.1c-0.1-0.1-0.1-0.3-0.2-0.6
				c0-0.1-0.1-0.2-0.1-0.2c-0.4,0.3-0.7,0.6-1.2,0.8c-0.4,0.2-0.8,0.3-1.3,0.3c-0.8,0-1.5-0.2-1.9-0.7c-0.5-0.4-0.7-1-0.7-1.7
				c0-0.5,0.1-0.9,0.3-1.2s0.5-0.6,0.9-0.8c0.4-0.2,0.9-0.4,1.7-0.5c1-0.2,1.7-0.4,2-0.5v-0.2c0-0.4-0.1-0.7-0.3-0.9
				c-0.2-0.2-0.6-0.3-1.1-0.3c-0.4,0-0.7,0.1-0.9,0.2S313.8,54.4,313.6,54.8z M316.4,56.5c-0.3,0.1-0.7,0.2-1.3,0.3
				c-0.6,0.1-1,0.2-1.1,0.4c-0.3,0.2-0.4,0.4-0.4,0.7c0,0.3,0.1,0.5,0.3,0.8s0.5,0.3,0.8,0.3c0.4,0,0.7-0.1,1.1-0.4
				c0.3-0.2,0.4-0.4,0.5-0.7c0.1-0.2,0.1-0.5,0.1-1V56.5z"/>
			<path class="st2" d="M337.3,54.7l-2.1,0.4c-0.1-0.4-0.2-0.7-0.5-0.9c-0.2-0.2-0.6-0.3-1-0.3c-0.5,0-0.9,0.2-1.3,0.5
				c-0.3,0.4-0.5,1-0.5,1.8c0,0.9,0.2,1.6,0.5,2s0.7,0.6,1.3,0.6c0.4,0,0.7-0.1,1-0.3c0.3-0.2,0.4-0.6,0.5-1.2l2.1,0.4
				c-0.2,0.9-0.6,1.7-1.2,2.2c-0.6,0.5-1.4,0.7-2.5,0.7c-1.2,0-2.1-0.4-2.8-1.1c-0.7-0.7-1-1.8-1-3c0-1.3,0.3-2.3,1-3.1
				s1.6-1.1,2.8-1.1c1,0,1.7,0.2,2.3,0.6C336.7,53.2,337.1,53.8,337.3,54.7z"/>
			<path class="st2" d="M341.7,60.3v-11h2.1v11H341.7z"/>
			<path class="st2" d="M353.3,57.7l2.1,0.4c-0.3,0.8-0.7,1.4-1.3,1.8c-0.6,0.4-1.3,0.6-2.2,0.6c-1.4,0-2.4-0.5-3.1-1.4
				c-0.5-0.7-0.8-1.6-0.8-2.7c0-1.3,0.3-2.4,1-3.1s1.6-1.1,2.6-1.1c1.2,0,2.1,0.4,2.8,1.2c0.7,0.8,1,2,1,3.6h-5.3
				c0,0.6,0.2,1.1,0.5,1.5c0.3,0.3,0.7,0.5,1.2,0.5c0.3,0,0.6-0.1,0.8-0.3S353.2,58.1,353.3,57.7z M353.4,55.6
				c0-0.6-0.2-1.1-0.5-1.4c-0.3-0.3-0.7-0.5-1.1-0.5c-0.5,0-0.8,0.2-1.1,0.5c-0.3,0.3-0.4,0.8-0.4,1.4H353.4z"/>
			<path class="st2" d="M361.6,54.8l-1.9-0.3c0.2-0.8,0.6-1.3,1.1-1.7c0.5-0.4,1.3-0.6,2.3-0.6c0.9,0,1.6,0.1,2.1,0.3
				c0.5,0.2,0.8,0.5,1,0.8c0.2,0.3,0.3,1,0.3,1.9l0,2.5c0,0.7,0,1.2,0.1,1.5c0.1,0.3,0.2,0.7,0.4,1.1h-2.1c-0.1-0.1-0.1-0.3-0.2-0.6
				c0-0.1-0.1-0.2-0.1-0.2c-0.4,0.3-0.7,0.6-1.2,0.8c-0.4,0.2-0.8,0.3-1.3,0.3c-0.8,0-1.5-0.2-1.9-0.7c-0.5-0.4-0.7-1-0.7-1.7
				c0-0.5,0.1-0.9,0.3-1.2s0.5-0.6,0.9-0.8c0.4-0.2,0.9-0.4,1.7-0.5c1-0.2,1.7-0.4,2-0.5v-0.2c0-0.4-0.1-0.7-0.3-0.9
				c-0.2-0.2-0.6-0.3-1.1-0.3c-0.4,0-0.7,0.1-0.9,0.2C361.9,54.1,361.7,54.4,361.6,54.8z M364.4,56.5c-0.3,0.1-0.7,0.2-1.3,0.3
				c-0.6,0.1-1,0.2-1.1,0.4c-0.3,0.2-0.4,0.4-0.4,0.7c0,0.3,0.1,0.5,0.3,0.8s0.5,0.3,0.8,0.3c0.4,0,0.7-0.1,1.1-0.4
				c0.3-0.2,0.4-0.4,0.5-0.7c0.1-0.2,0.1-0.5,0.1-1V56.5z"/>
			<path class="st2" d="M378.5,60.3h-2.1v-4.1c0-0.9,0-1.4-0.1-1.7c-0.1-0.3-0.2-0.4-0.4-0.6c-0.2-0.1-0.4-0.2-0.7-0.2
				c-0.4,0-0.7,0.1-1,0.3c-0.3,0.2-0.5,0.5-0.6,0.8c-0.1,0.3-0.2,0.9-0.2,1.8v3.6h-2.1v-8h2v1.2c0.7-0.9,1.6-1.3,2.6-1.3
				c0.5,0,0.9,0.1,1.3,0.3c0.4,0.2,0.7,0.4,0.9,0.6s0.3,0.6,0.4,0.9c0.1,0.3,0.1,0.8,0.1,1.4V60.3z"/>
			<path class="st2" d="M392,54.8l-1.9-0.3c0.2-0.8,0.6-1.3,1.1-1.7c0.5-0.4,1.3-0.6,2.3-0.6c0.9,0,1.6,0.1,2.1,0.3
				c0.5,0.2,0.8,0.5,1,0.8c0.2,0.3,0.3,1,0.3,1.9l0,2.5c0,0.7,0,1.2,0.1,1.5c0.1,0.3,0.2,0.7,0.4,1.1h-2.1c-0.1-0.1-0.1-0.3-0.2-0.6
				c0-0.1-0.1-0.2-0.1-0.2c-0.4,0.3-0.7,0.6-1.2,0.8c-0.4,0.2-0.8,0.3-1.3,0.3c-0.8,0-1.5-0.2-1.9-0.7c-0.5-0.4-0.7-1-0.7-1.7
				c0-0.5,0.1-0.9,0.3-1.2s0.5-0.6,0.9-0.8c0.4-0.2,0.9-0.4,1.7-0.5c1-0.2,1.7-0.4,2-0.5v-0.2c0-0.4-0.1-0.7-0.3-0.9
				c-0.2-0.2-0.6-0.3-1.1-0.3c-0.4,0-0.7,0.1-0.9,0.2C392.3,54.1,392.2,54.4,392,54.8z M394.9,56.5c-0.3,0.1-0.7,0.2-1.3,0.3
				c-0.6,0.1-1,0.2-1.1,0.4c-0.3,0.2-0.4,0.4-0.4,0.7c0,0.3,0.1,0.5,0.3,0.8s0.5,0.3,0.8,0.3c0.4,0,0.7-0.1,1.1-0.4
				c0.3-0.2,0.4-0.4,0.5-0.7c0.1-0.2,0.1-0.5,0.1-1V56.5z"/>
			<path class="st2" d="M409,60.3h-2.1v-4.1c0-0.9,0-1.4-0.1-1.7c-0.1-0.3-0.2-0.4-0.4-0.6c-0.2-0.1-0.4-0.2-0.7-0.2
				c-0.4,0-0.7,0.1-1,0.3c-0.3,0.2-0.5,0.5-0.6,0.8c-0.1,0.3-0.2,0.9-0.2,1.8v3.6h-2.1v-8h2v1.2c0.7-0.9,1.6-1.3,2.6-1.3
				c0.5,0,0.9,0.1,1.3,0.3c0.4,0.2,0.7,0.4,0.9,0.6s0.3,0.6,0.4,0.9c0.1,0.3,0.1,0.8,0.1,1.4V60.3z"/>
			<path class="st2" d="M421.2,60.3h-2v-1.2c-0.3,0.5-0.7,0.8-1.2,1c-0.4,0.2-0.9,0.3-1.3,0.3c-0.9,0-1.7-0.4-2.3-1.1
				c-0.7-0.7-1-1.8-1-3.1c0-1.3,0.3-2.4,1-3.1s1.4-1.1,2.4-1.1c0.9,0,1.7,0.4,2.3,1.1v-4h2.1V60.3z M415.6,56.1
				c0,0.8,0.1,1.5,0.4,1.8c0.3,0.5,0.8,0.8,1.4,0.8c0.5,0,0.9-0.2,1.2-0.6s0.5-1,0.5-1.8c0-0.9-0.2-1.6-0.5-2
				c-0.3-0.4-0.8-0.6-1.3-0.6c-0.5,0-0.9,0.2-1.3,0.6C415.7,54.7,415.6,55.3,415.6,56.1z"/>
			<path class="st2" d="M0.4,80.6l2.1-0.3C2.6,80.7,2.7,81,3,81.2c0.3,0.2,0.7,0.3,1.2,0.3c0.5,0,1-0.1,1.2-0.3
				c0.2-0.1,0.3-0.3,0.3-0.6c0-0.2,0-0.3-0.1-0.4C5.4,80.1,5.2,80,4.8,80c-1.7-0.4-2.8-0.7-3.2-1c-0.6-0.4-0.9-1-0.9-1.8
				c0-0.7,0.3-1.3,0.8-1.7C2,74.9,2.9,74.7,4,74.7c1.1,0,1.9,0.2,2.4,0.5s0.9,0.9,1.1,1.6l-2,0.4c-0.1-0.3-0.2-0.5-0.5-0.7
				c-0.2-0.2-0.6-0.2-1-0.2c-0.6,0-1,0.1-1.2,0.2c-0.2,0.1-0.2,0.3-0.2,0.4c0,0.2,0.1,0.3,0.2,0.4c0.2,0.1,0.8,0.3,2,0.6
				c1.1,0.3,1.9,0.6,2.3,0.9c0.4,0.4,0.7,0.9,0.7,1.6c0,0.7-0.3,1.4-0.9,1.9S5.4,83,4.2,83c-1.1,0-1.9-0.2-2.6-0.7
				C1,81.9,0.6,81.3,0.4,80.6z"/>
			<path class="st2" d="M16,74.9v1.7h-1.4v3.2c0,0.6,0,1,0,1.1c0,0.1,0.1,0.2,0.2,0.3c0.1,0.1,0.2,0.1,0.4,0.1
				c0.2,0,0.5-0.1,0.8-0.2l0.2,1.6c-0.5,0.2-1,0.3-1.7,0.3c-0.4,0-0.7-0.1-1-0.2c-0.3-0.1-0.5-0.3-0.7-0.5c-0.1-0.2-0.2-0.5-0.3-0.8
				c0-0.2-0.1-0.7-0.1-1.5v-3.5h-1v-1.7h1v-1.6l2.1-1.2v2.8H16z"/>
			<path class="st2" d="M19.3,74.9h2.2l1.9,5.7l1.9-5.7h2.2l-2.8,7.7l-0.5,1.4c-0.2,0.5-0.4,0.8-0.5,1.1c-0.2,0.2-0.4,0.4-0.6,0.6
				s-0.5,0.3-0.8,0.4s-0.7,0.1-1.1,0.1c-0.4,0-0.8,0-1.2-0.1l-0.2-1.6c0.3,0.1,0.6,0.1,0.9,0.1c0.5,0,0.9-0.1,1.1-0.4
				s0.4-0.7,0.5-1.1L19.3,74.9z"/>
			<path class="st2" d="M31.6,82.8v-11h2.1v11H31.6z"/>
			<path class="st2" d="M38.6,73.8v-1.9h2.1v1.9H38.6z M38.6,82.8v-8h2.1v8H38.6z"/>
			<path class="st2" d="M44.9,80.6l2.1-0.3c0.1,0.4,0.3,0.7,0.5,0.9c0.3,0.2,0.7,0.3,1.2,0.3c0.5,0,1-0.1,1.2-0.3
				c0.2-0.1,0.3-0.3,0.3-0.6c0-0.2,0-0.3-0.1-0.4c-0.1-0.1-0.3-0.2-0.7-0.3c-1.7-0.4-2.8-0.7-3.2-1c-0.6-0.4-0.9-1-0.9-1.8
				c0-0.7,0.3-1.3,0.8-1.7c0.5-0.5,1.4-0.7,2.5-0.7c1.1,0,1.9,0.2,2.4,0.5s0.9,0.9,1.1,1.6l-2,0.4c-0.1-0.3-0.2-0.5-0.5-0.7
				c-0.2-0.2-0.6-0.2-1-0.2c-0.6,0-1,0.1-1.2,0.2c-0.2,0.1-0.2,0.3-0.2,0.4c0,0.2,0.1,0.3,0.2,0.4c0.2,0.1,0.8,0.3,2,0.6
				c1.1,0.3,1.9,0.6,2.3,0.9c0.4,0.4,0.7,0.9,0.7,1.6c0,0.7-0.3,1.4-0.9,1.9S49.9,83,48.7,83c-1.1,0-1.9-0.2-2.6-0.7
				C45.5,81.9,45.1,81.3,44.9,80.6z"/>
			<path class="st2" d="M59,71.8v4c0.7-0.8,1.5-1.2,2.4-1.2c0.5,0,0.9,0.1,1.3,0.3c0.4,0.2,0.7,0.4,0.9,0.7c0.2,0.3,0.3,0.6,0.4,0.9
				c0.1,0.3,0.1,0.9,0.1,1.6v4.7H62v-4.2c0-0.8,0-1.4-0.1-1.6c-0.1-0.2-0.2-0.4-0.4-0.5c-0.2-0.1-0.5-0.2-0.8-0.2
				c-0.3,0-0.7,0.1-0.9,0.3c-0.3,0.2-0.5,0.4-0.6,0.8c-0.1,0.3-0.2,0.8-0.2,1.5v4h-2.1v-11H59z"/>
			<path class="st2" d="M81.3,82.8v-1.2c-0.3,0.4-0.7,0.8-1.1,1c-0.5,0.2-1,0.4-1.5,0.4c-0.5,0-1-0.1-1.4-0.4
				c-0.4-0.2-0.7-0.6-0.9-1s-0.3-1-0.3-1.8v-5h2.1v3.7c0,1.1,0,1.8,0.1,2.1c0.1,0.3,0.2,0.5,0.4,0.6c0.2,0.1,0.5,0.2,0.8,0.2
				c0.4,0,0.7-0.1,1-0.3s0.5-0.4,0.6-0.7c0.1-0.3,0.2-1,0.2-2.1v-3.4h2.1v8H81.3z"/>
			<path class="st2" d="M88.2,74.9h2V76c0.3-0.4,0.6-0.7,1-1s0.9-0.4,1.4-0.4c0.9,0,1.7,0.4,2.4,1.1s1,1.7,1,3c0,1.3-0.3,2.4-1,3.1
				c-0.6,0.7-1.4,1.1-2.4,1.1c-0.4,0-0.8-0.1-1.2-0.3c-0.4-0.2-0.7-0.5-1.1-0.9v4h-2.1V74.9z M90.2,78.7c0,0.9,0.2,1.6,0.5,2
				c0.4,0.4,0.8,0.6,1.3,0.6c0.5,0,0.9-0.2,1.2-0.6s0.5-1,0.5-1.9c0-0.8-0.2-1.5-0.5-1.9c-0.3-0.4-0.7-0.6-1.2-0.6
				c-0.5,0-0.9,0.2-1.3,0.6C90.4,77.4,90.2,77.9,90.2,78.7z"/>
			<path class="st2" d="M99.6,80.6l2.1-0.3c0.1,0.4,0.3,0.7,0.5,0.9c0.3,0.2,0.7,0.3,1.2,0.3c0.5,0,1-0.1,1.2-0.3
				c0.2-0.1,0.3-0.3,0.3-0.6c0-0.2,0-0.3-0.1-0.4c-0.1-0.1-0.3-0.2-0.7-0.3c-1.7-0.4-2.8-0.7-3.2-1c-0.6-0.4-0.9-1-0.9-1.8
				c0-0.7,0.3-1.3,0.8-1.7c0.5-0.5,1.4-0.7,2.5-0.7c1.1,0,1.9,0.2,2.4,0.5s0.9,0.9,1.1,1.6l-2,0.4c-0.1-0.3-0.2-0.5-0.5-0.7
				c-0.2-0.2-0.6-0.2-1-0.2c-0.6,0-1,0.1-1.2,0.2c-0.2,0.1-0.2,0.3-0.2,0.4c0,0.2,0.1,0.3,0.2,0.4c0.2,0.1,0.8,0.3,2,0.6
				c1.1,0.3,1.9,0.6,2.3,0.9c0.4,0.4,0.7,0.9,0.7,1.6c0,0.7-0.3,1.4-0.9,1.9s-1.5,0.8-2.7,0.8c-1.1,0-1.9-0.2-2.6-0.7
				C100.2,81.9,99.8,81.3,99.6,80.6z"/>
			<path class="st2" d="M115.3,74.9v1.7h-1.4v3.2c0,0.6,0,1,0,1.1c0,0.1,0.1,0.2,0.2,0.3c0.1,0.1,0.2,0.1,0.4,0.1
				c0.2,0,0.5-0.1,0.8-0.2l0.2,1.6c-0.5,0.2-1,0.3-1.7,0.3c-0.4,0-0.7-0.1-1-0.2c-0.3-0.1-0.5-0.3-0.7-0.5c-0.1-0.2-0.2-0.5-0.3-0.8
				c0-0.2-0.1-0.7-0.1-1.5v-3.5h-1v-1.7h1v-1.6l2.1-1.2v2.8H115.3z"/>
			<path class="st2" d="M121.1,77.3l-1.9-0.3c0.2-0.8,0.6-1.3,1.1-1.7c0.5-0.4,1.3-0.6,2.3-0.6c0.9,0,1.6,0.1,2.1,0.3
				c0.5,0.2,0.8,0.5,1,0.8c0.2,0.3,0.3,1,0.3,1.9l0,2.5c0,0.7,0,1.2,0.1,1.5c0.1,0.3,0.2,0.7,0.4,1.1h-2.1c-0.1-0.1-0.1-0.3-0.2-0.6
				c0-0.1-0.1-0.2-0.1-0.2c-0.4,0.3-0.7,0.6-1.2,0.8s-0.8,0.3-1.3,0.3c-0.8,0-1.5-0.2-1.9-0.7c-0.5-0.4-0.7-1-0.7-1.7
				c0-0.4,0.1-0.9,0.3-1.2c0.2-0.4,0.5-0.6,0.9-0.8s0.9-0.4,1.7-0.5c1-0.2,1.7-0.4,2-0.5v-0.2c0-0.4-0.1-0.7-0.3-0.9
				c-0.2-0.2-0.6-0.3-1.1-0.3c-0.4,0-0.7,0.1-0.9,0.2S121.2,76.9,121.1,77.3z M123.9,79c-0.3,0.1-0.7,0.2-1.3,0.3s-1,0.2-1.1,0.4
				c-0.3,0.2-0.4,0.4-0.4,0.7c0,0.3,0.1,0.5,0.3,0.8c0.2,0.2,0.5,0.3,0.8,0.3c0.4,0,0.7-0.1,1.1-0.4c0.3-0.2,0.4-0.4,0.5-0.7
				c0.1-0.2,0.1-0.5,0.1-1V79z"/>
			<path class="st2" d="M130.8,73.8v-1.9h2.1v1.9H130.8z M130.8,82.8v-8h2.1v8H130.8z"/>
			<path class="st2" d="M139.9,82.8h-2.1v-8h2V76c0.3-0.5,0.6-0.9,0.9-1.1c0.3-0.2,0.6-0.3,0.9-0.3c0.5,0,0.9,0.1,1.4,0.4l-0.7,1.8
				c-0.4-0.2-0.7-0.3-1-0.3c-0.3,0-0.5,0.1-0.7,0.2c-0.2,0.2-0.4,0.5-0.5,0.9c-0.1,0.4-0.2,1.3-0.2,2.7V82.8z"/>
			<path class="st2" d="M145.8,80.6l2.1-0.3c0.1,0.4,0.3,0.7,0.5,0.9c0.3,0.2,0.7,0.3,1.2,0.3c0.5,0,1-0.1,1.2-0.3
				c0.2-0.1,0.3-0.3,0.3-0.6c0-0.2,0-0.3-0.1-0.4c-0.1-0.1-0.3-0.2-0.7-0.3c-1.7-0.4-2.8-0.7-3.2-1c-0.6-0.4-0.9-1-0.9-1.8
				c0-0.7,0.3-1.3,0.8-1.7c0.5-0.5,1.4-0.7,2.5-0.7c1.1,0,1.9,0.2,2.4,0.5s0.9,0.9,1.1,1.6l-2,0.4c-0.1-0.3-0.2-0.5-0.5-0.7
				c-0.2-0.2-0.6-0.2-1-0.2c-0.6,0-1,0.1-1.2,0.2c-0.2,0.1-0.2,0.3-0.2,0.4c0,0.2,0.1,0.3,0.2,0.4c0.2,0.1,0.8,0.3,2,0.6
				c1.1,0.3,1.9,0.6,2.3,0.9c0.4,0.4,0.7,0.9,0.7,1.6c0,0.7-0.3,1.4-0.9,1.9s-1.5,0.8-2.7,0.8c-1.1,0-1.9-0.2-2.6-0.7
				C146.4,81.9,146,81.3,145.8,80.6z"/>
			<path class="st2" d="M164.9,82.8v-11h2.1v11H164.9z"/>
			<path class="st2" d="M171.4,78.7c0-0.7,0.2-1.4,0.5-2c0.3-0.7,0.8-1.2,1.5-1.5c0.6-0.3,1.3-0.5,2.1-0.5c1.2,0,2.2,0.4,3,1.2
				c0.8,0.8,1.2,1.8,1.2,3c0,1.2-0.4,2.2-1.2,3c-0.8,0.8-1.8,1.2-2.9,1.2c-0.7,0-1.4-0.2-2.1-0.5c-0.7-0.3-1.2-0.8-1.5-1.5
				S171.4,79.7,171.4,78.7z M173.6,78.9c0,0.8,0.2,1.4,0.6,1.8c0.4,0.4,0.8,0.6,1.4,0.6s1-0.2,1.4-0.6c0.4-0.4,0.6-1,0.6-1.8
				c0-0.8-0.2-1.4-0.6-1.8c-0.4-0.4-0.8-0.6-1.4-0.6s-1,0.2-1.4,0.6S173.6,78.1,173.6,78.9z"/>
			<path class="st2" d="M189.3,82.8v-1.2c-0.3,0.4-0.7,0.8-1.1,1c-0.5,0.2-1,0.4-1.5,0.4c-0.5,0-1-0.1-1.4-0.4
				c-0.4-0.2-0.7-0.6-0.9-1s-0.3-1-0.3-1.8v-5h2.1v3.7c0,1.1,0,1.8,0.1,2.1c0.1,0.3,0.2,0.5,0.4,0.6c0.2,0.1,0.5,0.2,0.8,0.2
				c0.4,0,0.7-0.1,1-0.3s0.5-0.4,0.6-0.7c0.1-0.3,0.2-1,0.2-2.1v-3.4h2.1v8H189.3z"/>
			<path class="st2" d="M203.4,82.8h-2.1v-4.1c0-0.9,0-1.4-0.1-1.7c-0.1-0.3-0.2-0.4-0.4-0.6s-0.4-0.2-0.7-0.2c-0.4,0-0.7,0.1-1,0.3
				c-0.3,0.2-0.5,0.5-0.6,0.8c-0.1,0.3-0.2,0.9-0.2,1.8v3.6h-2.1v-8h2V76c0.7-0.9,1.6-1.3,2.6-1.3c0.5,0,0.9,0.1,1.3,0.3
				c0.4,0.2,0.7,0.4,0.9,0.6s0.3,0.6,0.4,0.9c0.1,0.3,0.1,0.8,0.1,1.4V82.8z"/>
			<path class="st2" d="M208.1,83.4l2.4,0.3c0,0.3,0.1,0.5,0.3,0.6c0.2,0.2,0.5,0.2,0.9,0.2c0.5,0,1-0.1,1.2-0.2
				c0.2-0.1,0.3-0.3,0.4-0.5c0.1-0.2,0.1-0.5,0.1-1v-1.2c-0.6,0.9-1.4,1.3-2.4,1.3c-1.1,0-1.9-0.5-2.5-1.4c-0.5-0.7-0.7-1.6-0.7-2.7
				c0-1.3,0.3-2.4,1-3.1s1.4-1.1,2.4-1.1c1,0,1.8,0.4,2.4,1.3v-1.1h2V82c0,0.9-0.1,1.6-0.2,2.1s-0.4,0.8-0.7,1.1s-0.7,0.5-1.1,0.6
				c-0.5,0.2-1.1,0.2-1.8,0.2c-1.3,0-2.3-0.2-2.9-0.7c-0.6-0.5-0.8-1-0.8-1.8C208.1,83.5,208.1,83.5,208.1,83.4z M210,78.7
				c0,0.8,0.2,1.5,0.5,1.9c0.3,0.4,0.7,0.6,1.2,0.6c0.5,0,0.9-0.2,1.3-0.6c0.4-0.4,0.5-1,0.5-1.8c0-0.8-0.2-1.4-0.5-1.8
				c-0.3-0.4-0.8-0.6-1.3-0.6c-0.5,0-0.9,0.2-1.2,0.6C210.2,77.3,210,77.9,210,78.7z"/>
			<path class="st2" d="M225.1,80.3l2.1,0.4c-0.3,0.8-0.7,1.4-1.3,1.8s-1.3,0.6-2.2,0.6c-1.4,0-2.4-0.5-3.1-1.4
				c-0.5-0.7-0.8-1.6-0.8-2.7c0-1.3,0.3-2.4,1-3.1c0.7-0.7,1.6-1.1,2.6-1.1c1.2,0,2.1,0.4,2.8,1.2c0.7,0.8,1,2,1,3.6H222
				c0,0.6,0.2,1.1,0.5,1.5c0.3,0.3,0.7,0.5,1.2,0.5c0.3,0,0.6-0.1,0.8-0.3C224.8,81,225,80.7,225.1,80.3z M225.2,78.2
				c0-0.6-0.2-1.1-0.5-1.4c-0.3-0.3-0.7-0.5-1.1-0.5c-0.5,0-0.8,0.2-1.1,0.5c-0.3,0.3-0.4,0.8-0.4,1.4H225.2z"/>
			<path class="st2" d="M240.4,77.3l-1.9-0.3c0.2-0.8,0.6-1.3,1.1-1.7c0.5-0.4,1.3-0.6,2.3-0.6c0.9,0,1.6,0.1,2.1,0.3
				c0.5,0.2,0.8,0.5,1,0.8c0.2,0.3,0.3,1,0.3,1.9l0,2.5c0,0.7,0,1.2,0.1,1.5c0.1,0.3,0.2,0.7,0.4,1.1h-2.1c-0.1-0.1-0.1-0.3-0.2-0.6
				c0-0.1-0.1-0.2-0.1-0.2c-0.4,0.3-0.7,0.6-1.2,0.8s-0.8,0.3-1.3,0.3c-0.8,0-1.5-0.2-1.9-0.7c-0.5-0.4-0.7-1-0.7-1.7
				c0-0.4,0.1-0.9,0.3-1.2c0.2-0.4,0.5-0.6,0.9-0.8s0.9-0.4,1.7-0.5c1-0.2,1.7-0.4,2-0.5v-0.2c0-0.4-0.1-0.7-0.3-0.9
				c-0.2-0.2-0.6-0.3-1.1-0.3c-0.4,0-0.7,0.1-0.9,0.2S240.5,76.9,240.4,77.3z M243.2,79c-0.3,0.1-0.7,0.2-1.3,0.3s-1,0.2-1.1,0.4
				c-0.3,0.2-0.4,0.4-0.4,0.7c0,0.3,0.1,0.5,0.3,0.8c0.2,0.2,0.5,0.3,0.8,0.3c0.4,0,0.7-0.1,1.1-0.4c0.3-0.2,0.4-0.4,0.5-0.7
				c0.1-0.2,0.1-0.5,0.1-1V79z"/>
			<path class="st2" d="M257.3,82.8h-2.1v-4.1c0-0.9,0-1.4-0.1-1.7c-0.1-0.3-0.2-0.4-0.4-0.6s-0.4-0.2-0.7-0.2c-0.4,0-0.7,0.1-1,0.3
				c-0.3,0.2-0.5,0.5-0.6,0.8c-0.1,0.3-0.2,0.9-0.2,1.8v3.6h-2.1v-8h2V76c0.7-0.9,1.6-1.3,2.6-1.3c0.5,0,0.9,0.1,1.3,0.3
				c0.4,0.2,0.7,0.4,0.9,0.6s0.3,0.6,0.4,0.9c0.1,0.3,0.1,0.8,0.1,1.4V82.8z"/>
			<path class="st2" d="M269.5,82.8h-2v-1.2c-0.3,0.5-0.7,0.8-1.2,1s-0.9,0.3-1.3,0.3c-0.9,0-1.7-0.4-2.3-1.1c-0.7-0.7-1-1.8-1-3.1
				c0-1.3,0.3-2.4,1-3.1c0.6-0.7,1.4-1.1,2.4-1.1c0.9,0,1.7,0.4,2.3,1.1v-4h2.1V82.8z M263.9,78.7c0,0.8,0.1,1.5,0.4,1.8
				c0.3,0.5,0.8,0.8,1.4,0.8c0.5,0,0.9-0.2,1.2-0.6s0.5-1,0.5-1.8c0-0.9-0.2-1.6-0.5-2c-0.3-0.4-0.8-0.6-1.3-0.6
				c-0.5,0-0.9,0.2-1.3,0.6C264.1,77.3,263.9,77.9,263.9,78.7z"/>
			<path class="st2" d="M288.3,77.2l-2.1,0.4c-0.1-0.4-0.2-0.7-0.5-0.9c-0.2-0.2-0.6-0.3-1-0.3c-0.5,0-0.9,0.2-1.3,0.5
				c-0.3,0.4-0.5,1-0.5,1.8c0,0.9,0.2,1.6,0.5,2s0.7,0.6,1.3,0.6c0.4,0,0.7-0.1,1-0.3c0.3-0.2,0.4-0.6,0.5-1.2l2.1,0.4
				c-0.2,0.9-0.6,1.7-1.2,2.2c-0.6,0.5-1.4,0.7-2.5,0.7c-1.2,0-2.1-0.4-2.8-1.1c-0.7-0.7-1-1.8-1-3c0-1.3,0.3-2.3,1-3.1
				c0.7-0.7,1.6-1.1,2.8-1.1c1,0,1.7,0.2,2.3,0.6S288.1,76.4,288.3,77.2z"/>
			<path class="st2" d="M292.7,82.8v-11h2.1v11H292.7z"/>
			<path class="st2" d="M305,82.8v-1.2c-0.3,0.4-0.7,0.8-1.1,1c-0.5,0.2-1,0.4-1.5,0.4c-0.5,0-1-0.1-1.4-0.4c-0.4-0.2-0.7-0.6-0.9-1
				c-0.2-0.4-0.3-1-0.3-1.8v-5h2.1v3.7c0,1.1,0,1.8,0.1,2.1c0.1,0.3,0.2,0.5,0.4,0.6c0.2,0.1,0.5,0.2,0.8,0.2c0.4,0,0.7-0.1,1-0.3
				c0.3-0.2,0.5-0.4,0.6-0.7c0.1-0.3,0.2-1,0.2-2.1v-3.4h2.1v8H305z"/>
			<path class="st2" d="M311.8,82.8v-11h2.1v4c0.6-0.7,1.4-1.1,2.3-1.1c1,0,1.8,0.4,2.4,1.1c0.6,0.7,1,1.7,1,3c0,1.4-0.3,2.4-1,3.1
				c-0.6,0.7-1.4,1.1-2.4,1.1c-0.5,0-0.9-0.1-1.3-0.3c-0.4-0.2-0.8-0.6-1.1-1v1.2H311.8z M313.9,78.7c0,0.8,0.1,1.4,0.4,1.8
				c0.4,0.6,0.8,0.8,1.5,0.8c0.5,0,0.9-0.2,1.2-0.6s0.5-1,0.5-1.9c0-0.9-0.2-1.6-0.5-2c-0.3-0.4-0.8-0.6-1.3-0.6
				c-0.5,0-0.9,0.2-1.3,0.6C314,77.3,313.9,77.9,313.9,78.7z"/>
			<path class="st2" d="M324,82.8v-2.1h2.1v2.1H324z"/>
		</g>
		<g>
			<path class="st2" d="M0.2,158.7h0.9l2.5-7H2.5v-1.5h5.7v1.5H7.1l2.5,7h0.9v1.6H6.6v-1.5h1.2L7.2,157H3.4l-0.6,1.7h1.2v1.5H0.2
				V158.7z M6.7,155.6l-1.4-4l-1.4,4H6.7z"/>
			<path class="st2" d="M14,158.7h1.2v-7H14v-1.5h3.9c2.3,0,4,1,4,3.1c0,1.3-0.8,2.3-1.9,2.7l1.6,2.7h1.2v1.6h-2.3l-2-3.8
				c-0.2,0-0.4,0-0.6,0c-0.3,0-0.6,0-0.8,0v2.3h1.3v1.6H14V158.7z M20.1,153.3c0-1.1-0.9-1.6-2.3-1.6h-0.9v3.2c0.2,0,0.4,0,1,0
				C19.2,155,20.1,154.3,20.1,153.3z"/>
			<path class="st2" d="M26.4,155.2c0-3,2.4-5.2,5.3-5.2c2.3,0,3.9,1.2,3.9,2.4c0,0.7-0.5,1.2-1.1,1.2c-0.7,0-1.2-0.4-1.2-1.1
				c0-0.2,0-0.4,0.1-0.5c-0.3-0.2-0.9-0.5-1.8-0.5c-2,0-3.5,1.5-3.5,3.6c0,2,1.4,3.6,3.5,3.6c1.2,0,2.1-0.5,2.9-1.3l1.2,1.2
				c-1,1.1-2.4,1.8-4.1,1.8C28.7,160.4,26.4,158.3,26.4,155.2z"/>
			<path class="st2" d="M39.8,158.7H41v-7h-1.2v-1.5H44v1.5h-1.3v2.7h4.7v-2.7h-1.3v-1.5h4.1v1.5h-1.2v7h1.2v1.6h-4.1v-1.6h1.3v-2.8
				h-4.7v2.8H44v1.6h-4.1V158.7z"/>
			<path class="st2" d="M54.2,158.7h1.2v-7h-1.2v-1.5h7.5v2.9H60v-1.4h-3v2.7h3.1v1.5H57v2.9h3v-1.4h1.7v2.9h-7.6V158.7z"/>
			<path class="st2" d="M65.8,158.7h1.2v-7h-1.2v-1.5h3.9c2.3,0,4,1,4,3.1c0,1.3-0.8,2.3-1.9,2.7l1.6,2.7h1.2v1.6h-2.3l-2-3.8
				c-0.2,0-0.4,0-0.6,0c-0.3,0-0.6,0-0.8,0v2.3h1.3v1.6h-4.1V158.7z M71.9,153.3c0-1.1-0.9-1.6-2.3-1.6h-0.9v3.2c0.2,0,0.4,0,1,0
				C70.9,155,71.9,154.3,71.9,153.3z"/>
			<path class="st2" d="M84.2,158.7h1.2v-7h-1.2v-1.5h4c2.5,0,3.7,1.1,3.7,2.7c0,1.2-0.7,1.9-1.7,2.3c1.3,0.4,2,1.1,2,2.4
				c0,1.7-1.4,2.8-3.8,2.8h-4.2V158.7z M88.2,154.4c1.2,0,1.9-0.6,1.9-1.4c0-0.9-0.7-1.3-1.9-1.3h-1.1v2.8H88.2z M88.4,158.7
				c1.2,0,2-0.5,2-1.5c0-0.9-0.7-1.5-2-1.5h-1.3v2.9H88.4z"/>
			<path class="st2" d="M96.2,155.2c0-3,2.1-5.2,5.2-5.2c3.1,0,5.1,2.3,5.1,5.2c0,3-2.1,5.2-5.2,5.2
				C98.3,160.4,96.2,158.1,96.2,155.2z M104.8,155.2c0-2.1-1.4-3.6-3.4-3.6c-2,0-3.4,1.5-3.4,3.6c0,2.1,1.4,3.6,3.4,3.6
				C103.4,158.8,104.8,157.3,104.8,155.2z"/>
			<path class="st2" d="M110.6,158.7h1.2v-7h-1.2v-1.5h4.2v1.5h-1.3v7h2.8v-1.4h1.7v3h-7.3V158.7z"/>
			<path class="st2" d="M121.8,158.7h1.2v-7h-1.2v-1.5h3.8c3.7,0,5.8,1.9,5.8,5c0,3.1-2,5.1-6,5.1h-3.6V158.7z M125.7,158.7
				c2.6,0,4-1.4,4-3.6c0-2.2-1.6-3.4-4.1-3.4h-0.9v7H125.7z"/>
			<path class="st2" d="M0.6,185.1h1.2v-7H0.6v-1.6h4.1c2.2,0,3.8,1.2,3.8,3.3c0,2.3-1.6,3.5-4,3.5c-0.5,0-0.8,0-1,0v1.8h1.3v1.5
				H0.6V185.1z M6.7,179.9c0-1.1-0.9-1.8-2.1-1.8H3.5v3.7c0.2,0,0.4,0,1.1,0C5.9,181.8,6.7,181.1,6.7,179.9z"/>
			<path class="st2" d="M12,183.3c0-1.8,1.4-3.5,3.6-3.5c2.2,0,3.6,1.6,3.6,3.5c0,1.8-1.4,3.5-3.6,3.5C13.4,186.8,12,185.2,12,183.3
				z M17.5,183.3c0-1.2-0.8-2.1-1.9-2.1s-1.9,0.9-1.9,2.1c0,1.2,0.8,2.1,1.9,2.1S17.5,184.5,17.5,183.3z"/>
			<path class="st2" d="M22.9,185.3h1v-3.9h-1v-1.4h2.6v1.1c0.5-0.6,1.3-1.2,2.3-1.2c0.7,0,1.3,0.3,1.6,0.7c0.1,0.1,0.2,0.2,0.2,0.4
				c0.6-0.6,1.4-1.1,2.2-1.1c0.9,0,1.6,0.3,1.9,1c0.2,0.3,0.3,0.8,0.3,1.3v3.2h1v1.4h-3.6v-1.4h0.9v-2.8c0-0.3,0-0.5-0.1-0.6
				c-0.1-0.3-0.4-0.5-0.8-0.5c-0.6,0-1.1,0.3-1.6,0.8v3.2h0.9v1.4h-3.5v-1.4h0.9v-2.8c0-0.3,0-0.5-0.1-0.6c-0.1-0.3-0.4-0.5-0.8-0.5
				c-0.6,0-1.1,0.3-1.6,0.8v3.2h0.9v1.4h-3.6V185.3z"/>
			<path class="st2" d="M38.3,188.3h1v-6.9h-1v-1.4h2.6v0.8c0.5-0.5,1.1-0.9,2-0.9c1.7,0,3.1,1.4,3.1,3.5c0,2-1.4,3.5-3.2,3.5
				c-0.7,0-1.3-0.3-1.8-0.6v2.1h1.1v1.4h-3.8V188.3z M44.3,183.3c0-1.3-0.8-2-1.7-2c-0.6,0-1.1,0.3-1.6,0.7v2.9
				c0.4,0.3,1,0.5,1.6,0.5C43.5,185.3,44.3,184.6,44.3,183.3z"/>
			<path class="st2" d="M49.8,183.3c0-1.8,1.4-3.5,3.6-3.5c2.2,0,3.6,1.6,3.6,3.5c0,1.8-1.4,3.5-3.6,3.5
				C51.2,186.8,49.8,185.2,49.8,183.3z M55.2,183.3c0-1.2-0.8-2.1-1.9-2.1s-1.9,0.9-1.9,2.1c0,1.2,0.8,2.1,1.9,2.1
				S55.2,184.5,55.2,183.3z"/>
			<path class="st2" d="M65.7,182.3c-0.5,0-0.9-0.3-0.9-0.8c0-0.1,0-0.2,0-0.3c-0.3-0.1-0.6-0.2-1-0.2c-0.8,0-1.1,0.3-1.1,0.7
				c0,0.4,0.4,0.6,1.4,0.9c1.6,0.4,2.5,0.8,2.5,2c0,1.4-1.3,2.2-2.8,2.2c-1,0-2.1-0.4-2.6-0.8c-0.3-0.3-0.4-0.6-0.4-0.9
				c0-0.5,0.4-0.9,0.9-0.9c0.5,0,0.9,0.3,0.9,0.9c0,0.1,0,0.2,0,0.3c0.3,0.1,0.7,0.2,1.2,0.2c0.7,0,1.2-0.2,1.2-0.7
				c0-0.3-0.3-0.5-1.3-0.8c-1.9-0.5-2.6-0.9-2.6-2.1c0-1,0.9-2.1,2.7-2.1c0.8,0,1.8,0.3,2.3,0.8c0.2,0.2,0.4,0.5,0.4,0.9
				C66.5,182,66.1,182.3,65.7,182.3z"/>
			<path class="st2" d="M70.5,183.3c0-1.8,1.4-3.5,3.6-3.5c2.2,0,3.6,1.6,3.6,3.5c0,1.8-1.4,3.5-3.6,3.5
				C71.9,186.8,70.5,185.2,70.5,183.3z M75.9,183.3c0-1.2-0.8-2.1-1.9-2.1s-1.9,0.9-1.9,2.1c0,1.2,0.8,2.1,1.9,2.1
				S75.9,184.5,75.9,183.3z"/>
			<path class="st2" d="M87.6,185.3h1v-3.9h-1v-1.4h2.7v5.3h1v1.4h-3.7V185.3z M88.2,177.8c0-0.6,0.5-1.1,1.1-1.1s1.1,0.5,1.1,1.1
				c0,0.6-0.5,1.1-1.1,1.1S88.2,178.4,88.2,177.8z"/>
			<path class="st2" d="M99.8,182.3c-0.5,0-0.9-0.3-0.9-0.8c0-0.1,0-0.2,0-0.3c-0.3-0.1-0.6-0.2-1-0.2c-0.8,0-1.1,0.3-1.1,0.7
				c0,0.4,0.4,0.6,1.4,0.9c1.6,0.4,2.5,0.8,2.5,2c0,1.4-1.3,2.2-2.8,2.2c-1,0-2.1-0.4-2.6-0.8c-0.3-0.3-0.4-0.6-0.4-0.9
				c0-0.5,0.4-0.9,0.9-0.9c0.5,0,0.9,0.3,0.9,0.9c0,0.1,0,0.2,0,0.3c0.3,0.1,0.7,0.2,1.2,0.2c0.7,0,1.2-0.2,1.2-0.7
				c0-0.3-0.3-0.5-1.3-0.8c-1.9-0.5-2.6-0.9-2.6-2.1c0-1,0.9-2.1,2.7-2.1c0.8,0,1.8,0.3,2.3,0.8c0.2,0.2,0.4,0.5,0.4,0.9
				C100.7,182,100.3,182.3,99.8,182.3z"/>
			<path class="st2" d="M110.9,184.9c0-1.3,1.1-2,2.7-2c0.7,0,1.3,0.1,1.7,0.2v-0.5c0-0.4-0.1-0.7-0.3-0.9c-0.3-0.4-0.7-0.5-1.3-0.5
				c-0.3,0-0.5,0-0.7,0.1c0,0.1,0.1,0.2,0.1,0.3c0,0.5-0.4,0.9-0.9,0.9s-0.9-0.4-0.9-0.9c0-0.8,0.8-1.7,2.7-1.7
				c1.2,0,1.9,0.3,2.4,0.9c0.4,0.4,0.5,1,0.5,1.7v2.9h1v1.4h-2.6v-0.7c-0.5,0.5-1.4,0.9-2.3,0.9
				C111.9,186.8,110.9,186.2,110.9,184.9z M115.3,185v-1.1c-0.4-0.1-0.9-0.2-1.4-0.2c-0.8,0-1.3,0.4-1.3,1c0,0.5,0.4,0.8,1,0.8
				S114.8,185.3,115.3,185z"/>
			<path class="st2" d="M124,181c0.6-0.6,1.4-1.2,2.3-1.2c0.8,0,1.4,0.3,1.7,0.9c0.2,0.4,0.4,0.8,0.4,1.4v3.2h1v1.4h-3.6v-1.4h0.9
				v-2.8c0-0.3,0-0.5-0.1-0.7c-0.2-0.3-0.4-0.4-0.8-0.4c-0.6,0-1.2,0.3-1.7,0.8v3.2h0.9v1.4h-3.6v-1.4h1v-3.9h-1v-1.4h2.6V181z"/>
			<path class="st2" d="M139.1,185.3h1v-3.9h-1v-1.4h2.7v5.3h1v1.4h-3.7V185.3z M139.7,177.8c0-0.6,0.5-1.1,1.1-1.1s1.1,0.5,1.1,1.1
				c0,0.6-0.5,1.1-1.1,1.1S139.7,178.4,139.7,177.8z"/>
			<path class="st2" d="M149.1,181c0.6-0.6,1.4-1.2,2.3-1.2c0.8,0,1.4,0.3,1.7,0.9c0.2,0.4,0.4,0.8,0.4,1.4v3.2h1v1.4H151v-1.4h0.9
				v-2.8c0-0.3,0-0.5-0.1-0.7c-0.2-0.3-0.4-0.4-0.8-0.4c-0.6,0-1.2,0.3-1.7,0.8v3.2h0.9v1.4h-3.6v-1.4h1v-3.9h-1v-1.4h2.6V181z"/>
			<path class="st2" d="M158,183.3c0-1.9,1.4-3.5,3.2-3.5c0.9,0,1.5,0.3,1.9,0.6v-3.6h-1v-1.4h2.7v9.9h1v1.4h-2.7v-0.7
				c-0.5,0.5-1.1,0.9-2,0.9C159.3,186.8,158,185.4,158,183.3z M163.1,184.7v-2.9c-0.4-0.3-1-0.5-1.6-0.5c-0.9,0-1.8,0.7-1.8,2.1
				c0,1.3,0.8,2,1.8,2C162.1,185.3,162.6,185.1,163.1,184.7z"/>
			<path class="st2" d="M170.4,185.9c-0.2-0.4-0.3-0.8-0.3-1.4v-3.2h-1v-1.4h2.7v4.2c0,0.3,0,0.5,0.1,0.7c0.2,0.3,0.4,0.4,0.8,0.4
				c0.6,0,1.2-0.3,1.7-0.8v-3.1h-1v-1.4h2.7v5.3h1v1.4h-2.6v-1.1c-0.6,0.6-1.4,1.2-2.3,1.2C171.3,186.8,170.7,186.4,170.4,185.9z"/>
			<path class="st2" d="M185.7,182.3c-0.5,0-0.9-0.3-0.9-0.8c0-0.1,0-0.2,0-0.3c-0.3-0.1-0.6-0.2-1-0.2c-0.8,0-1.1,0.3-1.1,0.7
				c0,0.4,0.4,0.6,1.4,0.9c1.6,0.4,2.5,0.8,2.5,2c0,1.4-1.3,2.2-2.8,2.2c-1,0-2.1-0.4-2.6-0.8c-0.3-0.3-0.4-0.6-0.4-0.9
				c0-0.5,0.4-0.9,0.9-0.9c0.5,0,0.9,0.3,0.9,0.9c0,0.1,0,0.2,0,0.3c0.3,0.1,0.7,0.2,1.2,0.2c0.7,0,1.2-0.2,1.2-0.7
				c0-0.3-0.3-0.5-1.3-0.8c-1.9-0.5-2.6-0.9-2.6-2.1c0-1,0.9-2.1,2.7-2.1c0.8,0,1.8,0.3,2.3,0.8c0.2,0.2,0.4,0.5,0.4,0.9
				C186.5,182,186.2,182.3,185.7,182.3z"/>
			<path class="st2" d="M191.7,185.9c-0.2-0.3-0.2-0.6-0.2-1.1v-3.5h-1.3v-1.4h1.3v-1.4l1.7-0.7v2.1h2v1.4h-2v3.1
				c0,0.2,0,0.4,0.1,0.5c0.1,0.2,0.4,0.3,0.7,0.3c0.4,0,0.9-0.2,1.3-0.4l-0.1,1.4c-0.5,0.2-1,0.4-1.6,0.4
				C192.7,186.8,192.1,186.5,191.7,185.9z"/>
			<path class="st2" d="M204.9,180.9c0,0.6-0.4,1-1,1c-0.5,0-0.8-0.3-1-0.6c-0.5,0.2-1,0.7-1.3,1.3v2.6h1.2v1.4H199v-1.4h1v-3.9h-1
				v-1.4h2.6v1.5c0.6-0.9,1.3-1.6,2.1-1.6C204.5,179.8,204.9,180.3,204.9,180.9z"/>
			<path class="st2" d="M208.4,185.3h1v-3.9h-1v-1.4h2.7v5.3h1v1.4h-3.7V185.3z M209,177.8c0-0.6,0.5-1.1,1.1-1.1s1.1,0.5,1.1,1.1
				c0,0.6-0.5,1.1-1.1,1.1S209,178.4,209,177.8z"/>
			<path class="st2" d="M215.8,184.9c0-1.3,1.1-2,2.7-2c0.7,0,1.3,0.1,1.7,0.2v-0.5c0-0.4-0.1-0.7-0.3-0.9c-0.3-0.4-0.7-0.5-1.3-0.5
				c-0.3,0-0.5,0-0.7,0.1c0,0.1,0.1,0.2,0.1,0.3c0,0.5-0.4,0.9-0.9,0.9s-0.9-0.4-0.9-0.9c0-0.8,0.8-1.7,2.7-1.7
				c1.2,0,1.9,0.3,2.4,0.9c0.4,0.4,0.5,1,0.5,1.7v2.9h1v1.4h-2.6v-0.7c-0.5,0.5-1.4,0.9-2.3,0.9
				C216.8,186.8,215.8,186.2,215.8,184.9z M220.2,185v-1.1c-0.4-0.1-0.9-0.2-1.4-0.2c-0.8,0-1.3,0.4-1.3,1c0,0.5,0.4,0.8,1,0.8
				S219.7,185.3,220.2,185z"/>
			<path class="st2" d="M226.1,185.3h1v-8.4h-1v-1.4h2.7v9.9h1v1.4h-3.7V185.3z"/>
			<path class="st2" d="M239.7,184.9c0-1.3,1.1-2,2.7-2c0.7,0,1.3,0.1,1.7,0.2v-0.5c0-0.4-0.1-0.7-0.3-0.9c-0.3-0.4-0.7-0.5-1.3-0.5
				c-0.3,0-0.5,0-0.7,0.1c0,0.1,0.1,0.2,0.1,0.3c0,0.5-0.4,0.9-0.9,0.9c-0.5,0-0.9-0.4-0.9-0.9c0-0.8,0.8-1.7,2.7-1.7
				c1.2,0,1.9,0.3,2.4,0.9c0.4,0.4,0.5,1,0.5,1.7v2.9h1v1.4h-2.6v-0.7c-0.5,0.5-1.4,0.9-2.3,0.9
				C240.7,186.8,239.7,186.2,239.7,184.9z M244.1,185v-1.1c-0.4-0.1-0.9-0.2-1.4-0.2c-0.8,0-1.3,0.4-1.3,1c0,0.5,0.4,0.8,1,0.8
				S243.6,185.3,244.1,185z"/>
			<path class="st2" d="M252.8,181c0.6-0.6,1.4-1.2,2.3-1.2c0.8,0,1.4,0.3,1.7,0.9c0.2,0.4,0.4,0.8,0.4,1.4v3.2h1v1.4h-3.6v-1.4h0.9
				v-2.8c0-0.3,0-0.5-0.1-0.7c-0.2-0.3-0.4-0.4-0.8-0.4c-0.6,0-1.2,0.3-1.7,0.8v3.2h0.9v1.4h-3.6v-1.4h1v-3.9h-1v-1.4h2.6V181z"/>
			<path class="st2" d="M261.7,183.3c0-1.9,1.4-3.5,3.2-3.5c0.9,0,1.5,0.3,1.9,0.6v-3.6h-1v-1.4h2.7v9.9h1v1.4h-2.7v-0.7
				c-0.5,0.5-1.1,0.9-2,0.9C263,186.8,261.7,185.4,261.7,183.3z M266.8,184.7v-2.9c-0.4-0.3-1-0.5-1.6-0.5c-0.9,0-1.8,0.7-1.8,2.1
				c0,1.3,0.8,2,1.8,2C265.8,185.3,266.3,185.1,266.8,184.7z"/>
			<path class="st2" d="M279.1,185.3h1v-3.9h-1v-1.4h2.6v1.1c0.5-0.6,1.3-1.2,2.3-1.2c0.7,0,1.3,0.3,1.6,0.7
				c0.1,0.1,0.2,0.2,0.2,0.4c0.6-0.6,1.4-1.1,2.2-1.1c0.9,0,1.6,0.3,1.9,1c0.2,0.3,0.3,0.8,0.3,1.3v3.2h1v1.4h-3.6v-1.4h0.9v-2.8
				c0-0.3,0-0.5-0.1-0.6c-0.1-0.3-0.4-0.5-0.8-0.5c-0.6,0-1.1,0.3-1.6,0.8v3.2h0.9v1.4h-3.5v-1.4h0.9v-2.8c0-0.3,0-0.5-0.1-0.6
				c-0.1-0.3-0.4-0.5-0.8-0.5c-0.6,0-1.1,0.3-1.6,0.8v3.2h0.9v1.4h-3.6V185.3z"/>
			<path class="st2" d="M294.7,183.3c0-1.8,1.4-3.5,3.6-3.5c2.2,0,3.6,1.6,3.6,3.5c0,1.8-1.4,3.5-3.6,3.5
				C296,186.8,294.7,185.2,294.7,183.3z M300.1,183.3c0-1.2-0.8-2.1-1.9-2.1s-1.9,0.9-1.9,2.1c0,1.2,0.8,2.1,1.9,2.1
				S300.1,184.5,300.1,183.3z"/>
			<path class="st2" d="M305.6,183.3c0-1.9,1.4-3.5,3.2-3.5c0.9,0,1.5,0.3,1.9,0.6v-3.6h-1v-1.4h2.7v9.9h1v1.4h-2.7v-0.7
				c-0.5,0.5-1.1,0.9-2,0.9C307,186.8,305.6,185.4,305.6,183.3z M310.7,184.7v-2.9c-0.4-0.3-1-0.5-1.6-0.5c-0.9,0-1.8,0.7-1.8,2.1
				c0,1.3,0.8,2,1.8,2C309.7,185.3,310.3,185.1,310.7,184.7z"/>
			<path class="st2" d="M318.7,183.9c0.2,1,1.1,1.5,2.2,1.5c0.8,0,1.7-0.3,2.4-0.7l-0.1,1.5c-0.7,0.4-1.6,0.6-2.5,0.6
				c-2.2,0-3.7-1.4-3.7-3.5c0-1.9,1.3-3.5,3.4-3.5c2.1,0,3.3,1.4,3.3,3.2c0,0.3,0,0.6-0.1,0.8H318.7z M318.7,182.7h3.3
				c0-0.9-0.6-1.5-1.6-1.5C319.6,181.2,318.9,181.6,318.7,182.7z"/>
			<path class="st2" d="M333.4,180.9c0,0.6-0.4,1-1,1c-0.5,0-0.8-0.3-1-0.6c-0.5,0.2-1,0.7-1.3,1.3v2.6h1.2v1.4h-3.8v-1.4h1v-3.9h-1
				v-1.4h2.6v1.5c0.6-0.9,1.3-1.6,2.1-1.6C333,179.8,333.4,180.3,333.4,180.9z"/>
			<path class="st2" d="M339.4,181c0.6-0.6,1.4-1.2,2.3-1.2c0.8,0,1.4,0.3,1.7,0.9c0.2,0.4,0.4,0.8,0.4,1.4v3.2h1v1.4h-3.6v-1.4h0.9
				v-2.8c0-0.3,0-0.5-0.1-0.7c-0.2-0.3-0.4-0.4-0.8-0.4c-0.6,0-1.2,0.3-1.7,0.8v3.2h0.9v1.4h-3.6v-1.4h1v-3.9h-1v-1.4h2.6V181z"/>
			<path class="st2" d="M0.5,203.7h1v-3.9h-1v-1.4h2.7v5.3h1v1.4H0.5V203.7z M1.1,196.2c0-0.6,0.5-1.1,1.1-1.1s1.1,0.5,1.1,1.1
				s-0.5,1.1-1.1,1.1S1.1,196.8,1.1,196.2z"/>
			<path class="st2" d="M9.1,204.3c-0.2-0.3-0.2-0.6-0.2-1.1v-3.5H7.6v-1.4h1.3v-1.4l1.7-0.7v2.1h2v1.4h-2v3.1c0,0.2,0,0.4,0.1,0.5
				c0.1,0.2,0.4,0.3,0.7,0.3c0.4,0,0.9-0.2,1.3-0.4l-0.1,1.4c-0.5,0.2-1,0.4-1.6,0.4C10.1,205.2,9.5,204.9,9.1,204.3z"/>
			<path class="st2" d="M16.4,203.3c0-1.3,1.1-2,2.7-2c0.7,0,1.3,0.1,1.7,0.2v-0.5c0-0.4-0.1-0.7-0.3-0.9c-0.3-0.4-0.7-0.5-1.3-0.5
				c-0.3,0-0.5,0-0.7,0.1c0,0.1,0.1,0.2,0.1,0.3c0,0.5-0.4,0.9-0.9,0.9c-0.5,0-0.9-0.4-0.9-0.9c0-0.8,0.8-1.7,2.7-1.7
				c1.2,0,1.9,0.3,2.4,0.9c0.4,0.4,0.5,1,0.5,1.7v2.9h1v1.4h-2.6v-0.7c-0.5,0.5-1.4,0.9-2.3,0.9C17.4,205.2,16.4,204.6,16.4,203.3z
				 M20.8,203.4v-1.1c-0.4-0.1-0.9-0.2-1.4-0.2c-0.8,0-1.3,0.4-1.3,1c0,0.5,0.4,0.8,1,0.8S20.3,203.8,20.8,203.4z"/>
			<path class="st2" d="M26.7,203.7h1v-8.4h-1v-1.4h2.7v9.9h1v1.4h-3.7V203.7z"/>
			<path class="st2" d="M34.1,203.7h1v-3.9h-1v-1.4h2.7v5.3h1v1.4h-3.7V203.7z M34.7,196.2c0-0.6,0.5-1.1,1.1-1.1s1.1,0.5,1.1,1.1
				s-0.5,1.1-1.1,1.1S34.7,196.8,34.7,196.2z"/>
			<path class="st2" d="M41.5,203.3c0-1.3,1.1-2,2.7-2c0.7,0,1.3,0.1,1.7,0.2v-0.5c0-0.4-0.1-0.7-0.3-0.9c-0.3-0.4-0.7-0.5-1.3-0.5
				c-0.3,0-0.5,0-0.7,0.1c0,0.1,0.1,0.2,0.1,0.3c0,0.5-0.4,0.9-0.9,0.9s-0.9-0.4-0.9-0.9c0-0.8,0.8-1.7,2.7-1.7
				c1.2,0,1.9,0.3,2.4,0.9c0.4,0.4,0.5,1,0.5,1.7v2.9h1v1.4h-2.6v-0.7c-0.5,0.5-1.4,0.9-2.3,0.9C42.5,205.2,41.5,204.6,41.5,203.3z
				 M45.9,203.4v-1.1c-0.4-0.1-0.9-0.2-1.4-0.2c-0.8,0-1.3,0.4-1.3,1c0,0.5,0.4,0.8,1,0.8S45.4,203.8,45.9,203.4z"/>
			<path class="st2" d="M54.6,199.4c0.6-0.6,1.4-1.2,2.3-1.2c0.8,0,1.4,0.3,1.7,0.9c0.2,0.4,0.4,0.8,0.4,1.4v3.2h1v1.4h-3.6v-1.4
				h0.9v-2.8c0-0.3,0-0.5-0.1-0.7c-0.2-0.3-0.4-0.4-0.8-0.4c-0.6,0-1.2,0.3-1.7,0.8v3.2h0.9v1.4H52v-1.4h1v-3.9h-1v-1.4h2.6V199.4z"
				/>
			<path class="st2" d="M75.7,199.3c0,0.6-0.4,1-1,1c-0.5,0-0.8-0.3-1-0.6c-0.5,0.2-1,0.7-1.3,1.3v2.6h1.2v1.4h-3.8v-1.4h1v-3.9h-1
				v-1.4h2.6v1.5c0.6-0.9,1.3-1.6,2.1-1.6C75.2,198.2,75.7,198.7,75.7,199.3z"/>
			<path class="st2" d="M80.7,202.3c0.2,1,1.1,1.5,2.2,1.5c0.8,0,1.7-0.3,2.4-0.7l-0.1,1.5c-0.7,0.4-1.6,0.6-2.5,0.6
				c-2.2,0-3.7-1.4-3.7-3.5c0-1.9,1.3-3.5,3.4-3.5c2.1,0,3.3,1.4,3.3,3.2c0,0.3,0,0.6-0.1,0.8H80.7z M80.7,201.1h3.3
				c0-0.9-0.6-1.5-1.6-1.5C81.6,199.6,80.8,200,80.7,201.1z"/>
			<path class="st2" d="M94.2,200.7c-0.5,0-0.9-0.3-0.9-0.8c0-0.1,0-0.2,0-0.3c-0.3-0.1-0.6-0.2-1-0.2c-0.8,0-1.1,0.3-1.1,0.7
				c0,0.4,0.4,0.6,1.4,0.9c1.6,0.4,2.5,0.8,2.5,2c0,1.4-1.3,2.2-2.8,2.2c-1,0-2.1-0.4-2.6-0.8c-0.3-0.3-0.4-0.6-0.4-0.9
				c0-0.5,0.4-0.9,0.9-0.9c0.5,0,0.9,0.3,0.9,0.9c0,0.1,0,0.2,0,0.3c0.3,0.1,0.7,0.2,1.2,0.2c0.7,0,1.2-0.2,1.2-0.7
				c0-0.3-0.3-0.5-1.3-0.8c-1.9-0.5-2.6-0.9-2.6-2.1c0-1,0.9-2.1,2.7-2.1c0.8,0,1.8,0.3,2.3,0.8c0.2,0.2,0.4,0.5,0.4,0.9
				C95.1,200.4,94.7,200.7,94.2,200.7z"/>
			<path class="st2" d="M100.3,204.3c-0.2-0.3-0.2-0.6-0.2-1.1v-3.5h-1.3v-1.4h1.3v-1.4l1.7-0.7v2.1h2v1.4h-2v3.1
				c0,0.2,0,0.4,0.1,0.5c0.1,0.2,0.4,0.3,0.7,0.3c0.4,0,0.9-0.2,1.3-0.4l-0.1,1.4c-0.5,0.2-1,0.4-1.6,0.4
				C101.3,205.2,100.6,204.9,100.3,204.3z"/>
			<path class="st2" d="M107.6,203.3c0-1.3,1.1-2,2.7-2c0.7,0,1.3,0.1,1.7,0.2v-0.5c0-0.4-0.1-0.7-0.3-0.9c-0.3-0.4-0.7-0.5-1.3-0.5
				c-0.3,0-0.5,0-0.7,0.1c0,0.1,0.1,0.2,0.1,0.3c0,0.5-0.4,0.9-0.9,0.9s-0.9-0.4-0.9-0.9c0-0.8,0.8-1.7,2.7-1.7
				c1.2,0,1.9,0.3,2.4,0.9c0.4,0.4,0.5,1,0.5,1.7v2.9h1v1.4H112v-0.7c-0.5,0.5-1.4,0.9-2.3,0.9C108.6,205.2,107.6,204.6,107.6,203.3
				z M112,203.4v-1.1c-0.4-0.1-0.9-0.2-1.4-0.2c-0.8,0-1.3,0.4-1.3,1c0,0.5,0.4,0.8,1,0.8S111.5,203.8,112,203.4z"/>
			<path class="st2" d="M119.1,204.3c-0.2-0.4-0.3-0.8-0.3-1.4v-3.2h-1v-1.4h2.7v4.2c0,0.3,0,0.5,0.1,0.7c0.2,0.3,0.4,0.4,0.8,0.4
				c0.6,0,1.2-0.3,1.7-0.8v-3.1h-1v-1.4h2.7v5.3h1v1.4h-2.6V204c-0.6,0.6-1.4,1.2-2.3,1.2C120,205.2,119.4,204.9,119.1,204.3z"/>
			<path class="st2" d="M135.4,199.3c0,0.6-0.4,1-1,1c-0.5,0-0.8-0.3-1-0.6c-0.5,0.2-1,0.7-1.3,1.3v2.6h1.2v1.4h-3.8v-1.4h1v-3.9h-1
				v-1.4h2.6v1.5c0.6-0.9,1.3-1.6,2.1-1.6C135,198.2,135.4,198.7,135.4,199.3z"/>
			<path class="st2" d="M138.7,203.3c0-1.3,1.1-2,2.7-2c0.7,0,1.3,0.1,1.7,0.2v-0.5c0-0.4-0.1-0.7-0.3-0.9c-0.3-0.4-0.7-0.5-1.3-0.5
				c-0.3,0-0.5,0-0.7,0.1c0,0.1,0.1,0.2,0.1,0.3c0,0.5-0.4,0.9-0.9,0.9s-0.9-0.4-0.9-0.9c0-0.8,0.8-1.7,2.7-1.7
				c1.2,0,1.9,0.3,2.4,0.9c0.4,0.4,0.5,1,0.5,1.7v2.9h1v1.4h-2.6v-0.7c-0.5,0.5-1.4,0.9-2.3,0.9
				C139.7,205.2,138.7,204.6,138.7,203.3z M143.1,203.4v-1.1c-0.4-0.1-0.9-0.2-1.4-0.2c-0.8,0-1.3,0.4-1.3,1c0,0.5,0.4,0.8,1,0.8
				S142.6,203.8,143.1,203.4z"/>
			<path class="st2" d="M151.8,199.4c0.6-0.6,1.4-1.2,2.3-1.2c0.8,0,1.4,0.3,1.7,0.9c0.2,0.4,0.4,0.8,0.4,1.4v3.2h1v1.4h-3.6v-1.4
				h0.9v-2.8c0-0.3,0-0.5-0.1-0.7c-0.2-0.3-0.4-0.4-0.8-0.4c-0.6,0-1.2,0.3-1.7,0.8v3.2h0.9v1.4h-3.6v-1.4h1v-3.9h-1v-1.4h2.6V199.4
				z"/>
			<path class="st2" d="M161.9,204.3c-0.2-0.3-0.2-0.6-0.2-1.1v-3.5h-1.3v-1.4h1.3v-1.4l1.7-0.7v2.1h2v1.4h-2v3.1
				c0,0.2,0,0.4,0.1,0.5c0.1,0.2,0.4,0.3,0.7,0.3c0.4,0,0.9-0.2,1.3-0.4l-0.1,1.4c-0.5,0.2-1,0.4-1.6,0.4
				C162.9,205.2,162.3,204.9,161.9,204.3z"/>
			<path class="st2" d="M175.4,203.3c0-1.3,1.1-2,2.7-2c0.7,0,1.3,0.1,1.7,0.2v-0.5c0-0.4-0.1-0.7-0.3-0.9c-0.3-0.4-0.7-0.5-1.3-0.5
				c-0.3,0-0.5,0-0.7,0.1c0,0.1,0.1,0.2,0.1,0.3c0,0.5-0.4,0.9-0.9,0.9c-0.5,0-0.9-0.4-0.9-0.9c0-0.8,0.8-1.7,2.7-1.7
				c1.2,0,1.9,0.3,2.4,0.9c0.4,0.4,0.5,1,0.5,1.7v2.9h1v1.4h-2.6v-0.7c-0.5,0.5-1.4,0.9-2.3,0.9
				C176.4,205.2,175.4,204.6,175.4,203.3z M179.8,203.4v-1.1c-0.4-0.1-0.9-0.2-1.4-0.2c-0.8,0-1.3,0.4-1.3,1c0,0.5,0.4,0.8,1,0.8
				S179.3,203.8,179.8,203.4z"/>
			<path class="st2" d="M188.5,199.4c0.6-0.6,1.4-1.2,2.3-1.2c0.8,0,1.4,0.3,1.7,0.9c0.2,0.4,0.4,0.8,0.4,1.4v3.2h1v1.4h-3.6v-1.4
				h0.9v-2.8c0-0.3,0-0.5-0.1-0.7c-0.2-0.3-0.4-0.4-0.8-0.4c-0.6,0-1.2,0.3-1.7,0.8v3.2h0.9v1.4h-3.6v-1.4h1v-3.9h-1v-1.4h2.6V199.4
				z"/>
			<path class="st2" d="M197.4,201.7c0-1.9,1.4-3.5,3.2-3.5c0.9,0,1.5,0.3,1.9,0.6v-3.6h-1v-1.4h2.7v9.9h1v1.4h-2.7v-0.7
				c-0.5,0.5-1.1,0.9-2,0.9C198.7,205.2,197.4,203.8,197.4,201.7z M202.4,203.1v-2.9c-0.4-0.3-1-0.5-1.6-0.5c-0.9,0-1.8,0.7-1.8,2.1
				c0,1.3,0.8,2,1.8,2C201.5,203.8,202,203.5,202.4,203.1z"/>
			<path class="st2" d="M217,204.4l-0.4,0.7h-1.1v-9.9h-1v-1.4h2.7v5.2c0.5-0.5,1.1-0.9,2-0.9c1.8,0,3.1,1.4,3.1,3.5
				c0,1.9-1.4,3.5-3.2,3.5C218.1,205.2,217.5,204.9,217,204.4z M220.5,201.7c0-1.3-0.8-2-1.8-2c-0.6,0-1.1,0.3-1.6,0.7v2.9
				c0.4,0.3,1,0.5,1.6,0.5C219.7,203.8,220.5,203,220.5,201.7z"/>
			<path class="st2" d="M225.9,203.3c0-1.3,1.1-2,2.7-2c0.7,0,1.3,0.1,1.7,0.2v-0.5c0-0.4-0.1-0.7-0.3-0.9c-0.3-0.4-0.7-0.5-1.3-0.5
				c-0.3,0-0.5,0-0.7,0.1c0,0.1,0.1,0.2,0.1,0.3c0,0.5-0.4,0.9-0.9,0.9s-0.9-0.4-0.9-0.9c0-0.8,0.8-1.7,2.7-1.7
				c1.2,0,1.9,0.3,2.4,0.9c0.4,0.4,0.5,1,0.5,1.7v2.9h1v1.4h-2.6v-0.7c-0.5,0.5-1.4,0.9-2.3,0.9C227,205.2,225.9,204.6,225.9,203.3z
				 M230.3,203.4v-1.1c-0.4-0.1-0.9-0.2-1.4-0.2c-0.8,0-1.3,0.4-1.3,1c0,0.5,0.4,0.8,1,0.8S229.8,203.8,230.3,203.4z"/>
			<path class="st2" d="M242.4,199.3c0,0.6-0.4,1-1,1c-0.5,0-0.8-0.3-1-0.6c-0.5,0.2-1,0.7-1.3,1.3v2.6h1.2v1.4h-3.8v-1.4h1v-3.9h-1
				v-1.4h2.6v1.5c0.6-0.9,1.3-1.6,2.1-1.6C242,198.2,242.4,198.7,242.4,199.3z"/>
			<path class="st2" d="M252.6,199.8h-1v-1.4h3.5v1.4h-1l0.9,3.3l1.6-4h1.2l1.6,4l0.9-3.3h-1.1v-1.4h3.5v1.4h-1l-1.7,5.6h-1.2
				l-1.7-4.1l-1.7,4.1h-1.2L252.6,199.8z"/>
			<path class="st2" d="M265.9,203.7h1v-3.9h-1v-1.4h2.7v5.3h1v1.4h-3.7V203.7z M266.5,196.2c0-0.6,0.5-1.1,1.1-1.1
				c0.6,0,1.1,0.5,1.1,1.1s-0.5,1.1-1.1,1.1S266.5,196.8,266.5,196.2z"/>
			<path class="st2" d="M274.6,204.3c-0.2-0.3-0.2-0.6-0.2-1.1v-3.5H273v-1.4h1.3v-1.4l1.7-0.7v2.1h2v1.4h-2v3.1
				c0,0.2,0,0.4,0.1,0.5c0.1,0.2,0.4,0.3,0.7,0.3c0.4,0,0.9-0.2,1.3-0.4l-0.1,1.4c-0.5,0.2-1,0.4-1.6,0.4
				C275.6,205.2,274.9,204.9,274.6,204.3z"/>
			<path class="st2" d="M281.7,195.2v-1.4h2.7v5.5c0.6-0.6,1.3-1.1,2.3-1.1c0.7,0,1.3,0.3,1.6,0.7c0.3,0.4,0.4,0.9,0.4,1.5v3.2h1
				v1.4h-3.6v-1.4h0.9v-2.8c0-0.4-0.1-0.6-0.2-0.8c-0.2-0.2-0.4-0.3-0.8-0.3c-0.6,0-1.2,0.3-1.7,0.8v3.2h0.9v1.4h-3.6v-1.4h1v-8.4
				H281.7z"/>
			<path class="st2" d="M299.4,203.3c0-1.3,1.1-2,2.7-2c0.7,0,1.3,0.1,1.7,0.2v-0.5c0-0.4-0.1-0.7-0.3-0.9c-0.3-0.4-0.7-0.5-1.3-0.5
				c-0.3,0-0.5,0-0.7,0.1c0,0.1,0.1,0.2,0.1,0.3c0,0.5-0.4,0.9-0.9,0.9s-0.9-0.4-0.9-0.9c0-0.8,0.8-1.7,2.7-1.7
				c1.2,0,1.9,0.3,2.4,0.9c0.4,0.4,0.5,1,0.5,1.7v2.9h1v1.4h-2.6v-0.7c-0.5,0.5-1.4,0.9-2.3,0.9
				C300.5,205.2,299.4,204.6,299.4,203.3z M303.9,203.4v-1.1c-0.4-0.1-0.9-0.2-1.4-0.2c-0.8,0-1.3,0.4-1.3,1c0,0.5,0.4,0.8,1,0.8
				S303.3,203.8,303.9,203.4z"/>
			<path class="st2" d="M316.1,201.6c0-1.7,1.4-3.4,3.4-3.4c1.8,0,3.1,1.2,3.1,2.3c0,0.7-0.5,1.1-1.1,1.1c-0.6,0-1-0.5-1-1
				c0-0.2,0.1-0.4,0.2-0.6c-0.1-0.2-0.5-0.5-1.2-0.5c-0.8,0-1.7,0.6-1.7,2.1c0,1.3,1,2.1,2.2,2.1c0.8,0,1.5-0.2,2.4-0.7l-0.1,1.5
				c-0.7,0.4-1.4,0.6-2.4,0.6C317.7,205.2,316.1,203.8,316.1,201.6z"/>
			<path class="st2" d="M326.4,203.7h1v-8.4h-1v-1.4h2.7v9.9h1v1.4h-3.7V203.7z"/>
			<path class="st2" d="M335.6,202.3c0.2,1,1.1,1.5,2.2,1.5c0.8,0,1.7-0.3,2.4-0.7l-0.1,1.5c-0.7,0.4-1.6,0.6-2.5,0.6
				c-2.2,0-3.7-1.4-3.7-3.5c0-1.9,1.3-3.5,3.4-3.5c2.1,0,3.3,1.4,3.3,3.2c0,0.3,0,0.6-0.1,0.8H335.6z M335.6,201.1h3.3
				c0-0.9-0.6-1.5-1.6-1.5C336.5,199.6,335.8,200,335.6,201.1z"/>
			<path class="st2" d="M344.2,203.3c0-1.3,1.1-2,2.7-2c0.7,0,1.3,0.1,1.7,0.2v-0.5c0-0.4-0.1-0.7-0.3-0.9c-0.3-0.4-0.7-0.5-1.3-0.5
				c-0.3,0-0.5,0-0.7,0.1c0,0.1,0.1,0.2,0.1,0.3c0,0.5-0.4,0.9-0.9,0.9s-0.9-0.4-0.9-0.9c0-0.8,0.8-1.7,2.7-1.7
				c1.2,0,1.9,0.3,2.4,0.9c0.4,0.4,0.5,1,0.5,1.7v2.9h1v1.4h-2.6v-0.7c-0.5,0.5-1.4,0.9-2.3,0.9
				C345.2,205.2,344.2,204.6,344.2,203.3z M348.6,203.4v-1.1c-0.4-0.1-0.9-0.2-1.4-0.2c-0.8,0-1.3,0.4-1.3,1c0,0.5,0.4,0.8,1,0.8
				S348.1,203.8,348.6,203.4z"/>
			<path class="st2" d="M357.3,199.4c0.6-0.6,1.4-1.2,2.3-1.2c0.8,0,1.4,0.3,1.7,0.9c0.2,0.4,0.4,0.8,0.4,1.4v3.2h1v1.4h-3.6v-1.4
				h0.9v-2.8c0-0.3,0-0.5-0.1-0.7c-0.2-0.3-0.4-0.4-0.8-0.4c-0.6,0-1.2,0.3-1.7,0.8v3.2h0.9v1.4h-3.6v-1.4h1v-3.9h-1v-1.4h2.6V199.4
				z"/>
			<path class="st2" d="M372.4,203.3c0-1.3,1.1-2,2.7-2c0.7,0,1.3,0.1,1.7,0.2v-0.5c0-0.4-0.1-0.7-0.3-0.9c-0.3-0.4-0.7-0.5-1.3-0.5
				c-0.3,0-0.5,0-0.7,0.1c0,0.1,0.1,0.2,0.1,0.3c0,0.5-0.4,0.9-0.9,0.9s-0.9-0.4-0.9-0.9c0-0.8,0.8-1.7,2.7-1.7
				c1.2,0,1.9,0.3,2.4,0.9c0.4,0.4,0.5,1,0.5,1.7v2.9h1v1.4h-2.6v-0.7c-0.5,0.5-1.4,0.9-2.3,0.9
				C373.4,205.2,372.4,204.6,372.4,203.3z M376.8,203.4v-1.1c-0.4-0.1-0.9-0.2-1.4-0.2c-0.8,0-1.3,0.4-1.3,1c0,0.5,0.4,0.8,1,0.8
				S376.3,203.8,376.8,203.4z"/>
			<path class="st2" d="M385.5,199.4c0.6-0.6,1.4-1.2,2.3-1.2c0.8,0,1.4,0.3,1.7,0.9c0.2,0.4,0.4,0.8,0.4,1.4v3.2h1v1.4h-3.6v-1.4
				h0.9v-2.8c0-0.3,0-0.5-0.1-0.7c-0.2-0.3-0.4-0.4-0.8-0.4c-0.6,0-1.2,0.3-1.7,0.8v3.2h0.9v1.4h-3.6v-1.4h1v-3.9h-1v-1.4h2.6V199.4
				z"/>
			<path class="st2" d="M394.4,201.7c0-1.9,1.4-3.5,3.2-3.5c0.9,0,1.5,0.3,1.9,0.6v-3.6h-1v-1.4h2.7v9.9h1v1.4h-2.7v-0.7
				c-0.5,0.5-1.1,0.9-2,0.9C395.7,205.2,394.4,203.8,394.4,201.7z M399.5,203.1v-2.9c-0.4-0.3-1-0.5-1.6-0.5c-0.9,0-1.8,0.7-1.8,2.1
				c0,1.3,0.8,2,1.8,2C398.5,203.8,399,203.5,399.5,203.1z"/>
			<path class="st2" d="M5.4,219.2c-0.5,0-0.9-0.3-0.9-0.8c0-0.1,0-0.2,0-0.3c-0.3-0.1-0.6-0.2-1-0.2c-0.8,0-1.1,0.3-1.1,0.7
				c0,0.4,0.4,0.6,1.4,0.9c1.6,0.4,2.5,0.8,2.5,2c0,1.4-1.3,2.2-2.8,2.2c-1,0-2.1-0.4-2.6-0.8c-0.3-0.3-0.4-0.6-0.4-0.9
				c0-0.5,0.4-0.9,0.9-0.9c0.5,0,0.9,0.3,0.9,0.9c0,0.1,0,0.2,0,0.3c0.3,0.1,0.7,0.2,1.2,0.2c0.7,0,1.2-0.2,1.2-0.7
				c0-0.3-0.3-0.5-1.3-0.8c-1.9-0.5-2.6-0.9-2.6-2.1c0-1,0.9-2.1,2.7-2.1c0.8,0,1.8,0.3,2.3,0.8c0.2,0.2,0.4,0.5,0.4,0.9
				C6.2,218.8,5.9,219.2,5.4,219.2z"/>
			<path class="st2" d="M11.5,222.7c-0.2-0.3-0.2-0.6-0.2-1.1v-3.5H9.9v-1.4h1.3v-1.4l1.7-0.7v2.1h2v1.4h-2v3.1c0,0.2,0,0.4,0.1,0.5
				c0.1,0.2,0.4,0.3,0.7,0.3c0.4,0,0.9-0.2,1.3-0.4l-0.1,1.4c-0.5,0.2-1,0.4-1.6,0.4C12.5,223.6,11.8,223.3,11.5,222.7z"/>
			<path class="st2" d="M19.9,226.5c-0.9,0-1.4-0.5-1.4-1.1c0-0.6,0.4-0.9,0.8-0.9c0.4,0,0.6,0.2,0.7,0.5c0.2,0,0.4-0.2,0.5-0.4
				c0.1-0.1,0.2-0.3,0.3-0.5l0.5-1.1l-2.4-5h-0.8v-1.4h3.5v1.3h-1l1.6,3.5l1.6-3.5h-1v-1.3h3.5v1.4h-0.8l-3.1,6.7
				c-0.2,0.3-0.3,0.6-0.5,0.8C21.2,226.2,20.6,226.5,19.9,226.5z"/>
			<path class="st2" d="M29.3,222.1h1v-8.4h-1v-1.4H32v9.9h1v1.4h-3.7V222.1z"/>
			<path class="st2" d="M36.7,222.1h1v-3.9h-1v-1.4h2.7v5.3h1v1.4h-3.7V222.1z M37.2,214.6c0-0.6,0.5-1.1,1.1-1.1s1.1,0.5,1.1,1.1
				c0,0.6-0.5,1.1-1.1,1.1S37.2,215.2,37.2,214.6z"/>
			<path class="st2" d="M48.9,219.2c-0.5,0-0.9-0.3-0.9-0.8c0-0.1,0-0.2,0-0.3c-0.3-0.1-0.6-0.2-1-0.2c-0.8,0-1.1,0.3-1.1,0.7
				c0,0.4,0.4,0.6,1.4,0.9c1.6,0.4,2.5,0.8,2.5,2c0,1.4-1.3,2.2-2.8,2.2c-1,0-2.1-0.4-2.6-0.8c-0.3-0.3-0.4-0.6-0.4-0.9
				c0-0.5,0.4-0.9,0.9-0.9c0.5,0,0.9,0.3,0.9,0.9c0,0.1,0,0.2,0,0.3c0.3,0.1,0.7,0.2,1.2,0.2c0.7,0,1.2-0.2,1.2-0.7
				c0-0.3-0.3-0.5-1.3-0.8c-1.9-0.5-2.6-0.9-2.6-2.1c0-1,0.9-2.1,2.7-2.1c0.8,0,1.8,0.3,2.3,0.8c0.2,0.2,0.4,0.5,0.4,0.9
				C49.7,218.8,49.4,219.2,48.9,219.2z"/>
			<path class="st2" d="M53.5,213.7v-1.4h2.7v5.5c0.6-0.6,1.3-1.1,2.3-1.1c0.7,0,1.3,0.3,1.6,0.7c0.3,0.4,0.4,0.9,0.4,1.5v3.2h1v1.4
				H58v-1.4h0.9v-2.8c0-0.4-0.1-0.6-0.2-0.8c-0.2-0.2-0.4-0.3-0.8-0.3c-0.6,0-1.2,0.3-1.7,0.8v3.2h0.9v1.4h-3.6v-1.4h1v-8.4H53.5z"
				/>
			<path class="st2" d="M72.3,222.7c-0.2-0.4-0.3-0.8-0.3-1.4v-3.2h-1v-1.4h2.7v4.2c0,0.3,0,0.5,0.1,0.7c0.2,0.3,0.4,0.4,0.8,0.4
				c0.6,0,1.2-0.3,1.7-0.8v-3.1h-1v-1.4H78v5.3h1v1.4h-2.6v-1.1c-0.6,0.6-1.4,1.2-2.3,1.2C73.2,223.6,72.6,223.3,72.3,222.7z"/>
			<path class="st2" d="M82.6,225.1h1v-6.9h-1v-1.4h2.6v0.8c0.5-0.5,1.1-0.9,2-0.9c1.7,0,3.1,1.4,3.1,3.5c0,2-1.4,3.5-3.2,3.5
				c-0.7,0-1.3-0.3-1.8-0.6v2.1h1.1v1.4h-3.8V225.1z M88.5,220.1c0-1.3-0.8-2-1.7-2c-0.6,0-1.1,0.3-1.6,0.7v2.9
				c0.4,0.3,1,0.5,1.6,0.5C87.7,222.2,88.5,221.4,88.5,220.1z"/>
			<path class="st2" d="M98.9,219.2c-0.5,0-0.9-0.3-0.9-0.8c0-0.1,0-0.2,0-0.3c-0.3-0.1-0.6-0.2-1-0.2c-0.8,0-1.1,0.3-1.1,0.7
				c0,0.4,0.4,0.6,1.4,0.9c1.6,0.4,2.5,0.8,2.5,2c0,1.4-1.3,2.2-2.8,2.2c-1,0-2.1-0.4-2.6-0.8c-0.3-0.3-0.4-0.6-0.4-0.9
				c0-0.5,0.4-0.9,0.9-0.9c0.5,0,0.9,0.3,0.9,0.9c0,0.1,0,0.2,0,0.3c0.3,0.1,0.7,0.2,1.2,0.2c0.7,0,1.2-0.2,1.2-0.7
				c0-0.3-0.3-0.5-1.3-0.8c-1.9-0.5-2.6-0.9-2.6-2.1c0-1,0.9-2.1,2.7-2.1c0.8,0,1.8,0.3,2.3,0.8c0.2,0.2,0.4,0.5,0.4,0.9
				C99.8,218.8,99.4,219.2,98.9,219.2z"/>
			<path class="st2" d="M105,222.7c-0.2-0.3-0.2-0.6-0.2-1.1v-3.5h-1.3v-1.4h1.3v-1.4l1.7-0.7v2.1h2v1.4h-2v3.1c0,0.2,0,0.4,0.1,0.5
				c0.1,0.2,0.4,0.3,0.7,0.3c0.4,0,0.9-0.2,1.3-0.4l-0.1,1.4c-0.5,0.2-1,0.4-1.6,0.4C106,223.6,105.3,223.3,105,222.7z"/>
			<path class="st2" d="M112.3,221.7c0-1.3,1.1-2,2.7-2c0.7,0,1.3,0.1,1.7,0.2v-0.5c0-0.4-0.1-0.7-0.3-0.9c-0.3-0.4-0.7-0.5-1.3-0.5
				c-0.3,0-0.5,0-0.7,0.1c0,0.1,0.1,0.2,0.1,0.3c0,0.5-0.4,0.9-0.9,0.9s-0.9-0.4-0.9-0.9c0-0.8,0.8-1.7,2.7-1.7
				c1.2,0,1.9,0.3,2.4,0.9c0.4,0.4,0.5,1,0.5,1.7v2.9h1v1.4h-2.6v-0.7c-0.5,0.5-1.4,0.9-2.3,0.9C113.3,223.6,112.3,223,112.3,221.7z
				 M116.7,221.8v-1.1c-0.4-0.1-0.9-0.2-1.4-0.2c-0.8,0-1.3,0.4-1.3,1c0,0.5,0.4,0.8,1,0.8S116.2,222.2,116.7,221.8z"/>
			<path class="st2" d="M122.8,222.1h1v-3.9h-1v-1.4h2.7v5.3h1v1.4h-3.7V222.1z M123.4,214.6c0-0.6,0.5-1.1,1.1-1.1s1.1,0.5,1.1,1.1
				c0,0.6-0.5,1.1-1.1,1.1S123.4,215.2,123.4,214.6z"/>
			<path class="st2" d="M136.2,217.7c0,0.6-0.4,1-1,1c-0.5,0-0.8-0.3-1-0.6c-0.5,0.2-1,0.7-1.3,1.3v2.6h1.2v1.4h-3.8v-1.4h1v-3.9h-1
				v-1.4h2.6v1.5c0.6-0.9,1.3-1.6,2.1-1.6C135.8,216.6,136.2,217.1,136.2,217.7z"/>
			<path class="st2" d="M144.5,219.2c-0.5,0-0.9-0.3-0.9-0.8c0-0.1,0-0.2,0-0.3c-0.3-0.1-0.6-0.2-1-0.2c-0.8,0-1.1,0.3-1.1,0.7
				c0,0.4,0.4,0.6,1.4,0.9c1.6,0.4,2.5,0.8,2.5,2c0,1.4-1.3,2.2-2.8,2.2c-1,0-2.1-0.4-2.6-0.8c-0.3-0.3-0.4-0.6-0.4-0.9
				c0-0.5,0.4-0.9,0.9-0.9c0.5,0,0.9,0.3,0.9,0.9c0,0.1,0,0.2,0,0.3c0.3,0.1,0.7,0.2,1.2,0.2c0.7,0,1.2-0.2,1.2-0.7
				c0-0.3-0.3-0.5-1.3-0.8c-1.9-0.5-2.6-0.9-2.6-2.1c0-1,0.9-2.1,2.7-2.1c0.8,0,1.8,0.3,2.3,0.8c0.2,0.2,0.4,0.5,0.4,0.9
				C145.3,218.8,144.9,219.2,144.5,219.2z"/>
			<path class="st2" d="M155.4,222.1h1v-8.4h-1v-1.4h2.7v9.9h1v1.4h-3.7V222.1z"/>
			<path class="st2" d="M162.8,220.1c0-1.8,1.4-3.5,3.6-3.5c2.2,0,3.6,1.6,3.6,3.5c0,1.8-1.4,3.5-3.6,3.5
				C164.1,223.6,162.8,222,162.8,220.1z M168.2,220.1c0-1.2-0.8-2.1-1.9-2.1s-1.9,0.9-1.9,2.1c0,1.2,0.8,2.1,1.9,2.1
				S168.2,221.4,168.2,220.1z"/>
			<path class="st2" d="M174.7,222.7c-0.2-0.4-0.3-0.8-0.3-1.4v-3.2h-1v-1.4h2.7v4.2c0,0.3,0,0.5,0.1,0.7c0.2,0.3,0.4,0.4,0.8,0.4
				c0.6,0,1.2-0.3,1.7-0.8v-3.1h-1v-1.4h2.7v5.3h1v1.4h-2.6v-1.1c-0.6,0.6-1.4,1.2-2.3,1.2C175.6,223.6,175,223.3,174.7,222.7z"/>
			<path class="st2" d="M187.7,217.8c0.6-0.6,1.4-1.2,2.3-1.2c0.8,0,1.4,0.3,1.7,0.9c0.2,0.4,0.4,0.8,0.4,1.4v3.2h1v1.4h-3.6v-1.4
				h0.9v-2.8c0-0.3,0-0.5-0.1-0.7c-0.2-0.3-0.4-0.4-0.8-0.4c-0.6,0-1.2,0.3-1.7,0.8v3.2h0.9v1.4H185v-1.4h1v-3.9h-1v-1.4h2.6V217.8z
				"/>
			<path class="st2" d="M203.2,223.5c0,0.8-0.2,1.5-0.6,2c-0.6,0.7-1.4,1-2.5,1c-1.2,0-2.2-0.4-2.6-0.8c-0.3-0.3-0.4-0.6-0.4-0.9
				c0-0.5,0.4-0.9,0.9-0.9c0.5,0,0.9,0.4,0.9,0.9c0,0.1,0,0.2,0,0.3c0.3,0.1,0.6,0.2,1,0.2c0.6,0,1.1-0.2,1.4-0.6
				c0.2-0.3,0.3-0.7,0.3-1.2v-1c-0.5,0.5-1,0.9-1.9,0.9c-1.7,0-3.1-1.3-3.1-3.3c0-1.9,1.4-3.4,3.1-3.4c0.9,0,1.5,0.3,1.9,0.7v-0.6
				h2.6v1.4h-1V223.5z M198.2,220c0,1.2,0.8,1.9,1.8,1.9c0.6,0,1.1-0.3,1.5-0.7v-2.7c-0.4-0.3-0.9-0.5-1.5-0.5
				C199,218.1,198.2,218.8,198.2,220z"/>
			<path class="st2" d="M209.6,220.7c0.2,1,1.1,1.5,2.2,1.5c0.8,0,1.7-0.3,2.4-0.7l-0.1,1.5c-0.7,0.4-1.6,0.6-2.5,0.6
				c-2.2,0-3.7-1.4-3.7-3.5c0-1.9,1.3-3.5,3.4-3.5c2.1,0,3.3,1.4,3.3,3.2c0,0.3,0,0.6-0.1,0.8H209.6z M209.6,219.5h3.3
				c0-0.9-0.6-1.5-1.6-1.5C210.5,218,209.7,218.4,209.6,219.5z"/>
			<path class="st2" d="M224.4,221.7c0-1.3,1.1-2,2.7-2c0.7,0,1.3,0.1,1.7,0.2v-0.5c0-0.4-0.1-0.7-0.3-0.9c-0.3-0.4-0.7-0.5-1.3-0.5
				c-0.3,0-0.5,0-0.7,0.1c0,0.1,0.1,0.2,0.1,0.3c0,0.5-0.4,0.9-0.9,0.9c-0.5,0-0.9-0.4-0.9-0.9c0-0.8,0.8-1.7,2.7-1.7
				c1.2,0,1.9,0.3,2.4,0.9c0.4,0.4,0.5,1,0.5,1.7v2.9h1v1.4h-2.6v-0.7c-0.5,0.5-1.4,0.9-2.3,0.9C225.4,223.6,224.4,223,224.4,221.7z
				 M228.8,221.8v-1.1c-0.4-0.1-0.9-0.2-1.4-0.2c-0.8,0-1.3,0.4-1.3,1c0,0.5,0.4,0.8,1,0.8S228.3,222.2,228.8,221.8z"/>
			<path class="st2" d="M237.5,217.8c0.6-0.6,1.4-1.2,2.3-1.2c0.8,0,1.4,0.3,1.7,0.9c0.2,0.4,0.4,0.8,0.4,1.4v3.2h1v1.4h-3.6v-1.4
				h0.9v-2.8c0-0.3,0-0.5-0.1-0.7c-0.2-0.3-0.4-0.4-0.8-0.4c-0.6,0-1.2,0.3-1.7,0.8v3.2h0.9v1.4h-3.6v-1.4h1v-3.9h-1v-1.4h2.6V217.8
				z"/>
			<path class="st2" d="M246.4,220.2c0-1.9,1.4-3.5,3.2-3.5c0.9,0,1.5,0.3,1.9,0.6v-3.6h-1v-1.4h2.7v9.9h1v1.4h-2.7v-0.7
				c-0.5,0.5-1.1,0.9-2,0.9C247.7,223.6,246.4,222.2,246.4,220.2z M251.5,221.5v-2.9c-0.4-0.3-1-0.5-1.6-0.5c-0.9,0-1.8,0.7-1.8,2.1
				c0,1.3,0.8,2,1.8,2C250.5,222.2,251,221.9,251.5,221.5z"/>
			<path class="st2" d="M263.9,220.1c0-1.8,1.4-3.4,3.4-3.4c1.8,0,3.1,1.2,3.1,2.3c0,0.7-0.5,1.1-1.1,1.1c-0.6,0-1-0.5-1-1
				c0-0.2,0.1-0.4,0.2-0.6c-0.1-0.2-0.5-0.5-1.2-0.5c-0.8,0-1.7,0.6-1.7,2.1c0,1.3,1,2.1,2.2,2.1c0.8,0,1.5-0.2,2.4-0.7L270,223
				c-0.7,0.4-1.4,0.6-2.4,0.6C265.5,223.6,263.9,222.2,263.9,220.1z"/>
			<path class="st2" d="M274.2,222.1h1v-8.4h-1v-1.4h2.7v9.9h1v1.4h-3.7V222.1z"/>
			<path class="st2" d="M282.5,222.7c-0.2-0.4-0.3-0.8-0.3-1.4v-3.2h-1v-1.4h2.7v4.2c0,0.3,0,0.5,0.1,0.7c0.2,0.3,0.4,0.4,0.8,0.4
				c0.6,0,1.2-0.3,1.7-0.8v-3.1h-1v-1.4h2.7v5.3h1v1.4h-2.6v-1.1c-0.6,0.6-1.4,1.2-2.3,1.2C283.4,223.6,282.8,223.3,282.5,222.7z"/>
			<path class="st2" d="M294.9,222.8l-0.4,0.7h-1.1v-9.9h-1v-1.4h2.7v5.2c0.5-0.5,1.1-0.9,2-0.9c1.8,0,3.1,1.4,3.1,3.5
				c0,2-1.4,3.5-3.2,3.5C296.1,223.6,295.5,223.3,294.9,222.8z M298.4,220.1c0-1.3-0.8-2-1.8-2c-0.6,0-1.1,0.3-1.6,0.7v2.9
				c0.4,0.3,1,0.5,1.6,0.5C297.6,222.2,298.4,221.4,298.4,220.1z"/>
			<path class="st2" d="M303.7,222.4c0-0.7,0.6-1.3,1.3-1.3s1.3,0.6,1.3,1.3c0,0.7-0.6,1.3-1.3,1.3S303.7,223,303.7,222.4z"/>
		</g>
		<g>
			<path class="st2" d="M529.1,44.6h-5.2l-2.1-5.4h-9.5l-2,5.4h-5.1l9.3-23.8h5.1L529.1,44.6z M520.2,35.2l-3.3-8.8l-3.2,8.8H520.2z
				"/>
			<path class="st2" d="M542.3,32.6l-4.1-0.7c0.5-1.7,1.3-2.9,2.4-3.7c1.1-0.8,2.8-1.2,5.1-1.2c2,0,3.5,0.2,4.5,0.7
				c1,0.5,1.7,1.1,2.1,1.8c0.4,0.7,0.6,2.1,0.6,4.1l0,5.3c0,1.5,0.1,2.6,0.2,3.3c0.1,0.7,0.4,1.5,0.8,2.3h-4.5
				c-0.1-0.3-0.3-0.8-0.4-1.3c-0.1-0.3-0.1-0.4-0.2-0.5c-0.8,0.8-1.6,1.3-2.5,1.7c-0.9,0.4-1.8,0.6-2.8,0.6c-1.8,0-3.2-0.5-4.2-1.4
				s-1.5-2.2-1.5-3.7c0-1,0.2-1.8,0.7-2.6s1.1-1.3,2-1.8s2-0.8,3.6-1.1c2.1-0.4,3.6-0.8,4.4-1.1v-0.5c0-0.9-0.2-1.5-0.6-1.9
				s-1.2-0.6-2.5-0.6c-0.8,0-1.4,0.2-1.9,0.5C543,31.3,542.6,31.8,542.3,32.6z M548.4,36.3c-0.6,0.2-1.5,0.4-2.8,0.7
				s-2.1,0.5-2.5,0.8c-0.6,0.4-0.9,1-0.9,1.6c0,0.6,0.2,1.2,0.7,1.7c0.5,0.5,1.1,0.7,1.8,0.7c0.8,0,1.6-0.3,2.4-0.8
				c0.6-0.4,0.9-0.9,1.1-1.5c0.1-0.4,0.2-1.1,0.2-2.2V36.3z"/>
			<path class="st2" d="M581.3,20.8h9.5c1.9,0,3.3,0.1,4.2,0.2c0.9,0.2,1.8,0.5,2.5,1c0.7,0.5,1.3,1.2,1.8,2
				c0.5,0.8,0.7,1.8,0.7,2.8c0,1.1-0.3,2.1-0.9,3.1c-0.6,0.9-1.4,1.6-2.4,2.1c1.4,0.4,2.6,1.1,3.3,2.2c0.8,1,1.2,2.2,1.2,3.6
				c0,1.1-0.3,2.1-0.8,3.2c-0.5,1-1.2,1.8-2.1,2.5c-0.9,0.6-1.9,1-3.2,1.1c-0.8,0.1-2.7,0.1-5.8,0.2h-8.1V20.8z M586.1,24.8v5.5h3.1
				c1.9,0,3,0,3.5-0.1c0.8-0.1,1.5-0.4,1.9-0.9c0.5-0.5,0.7-1.1,0.7-1.9c0-0.7-0.2-1.3-0.6-1.8c-0.4-0.5-1-0.7-1.8-0.8
				c-0.5-0.1-1.8-0.1-4.1-0.1H586.1z M586.1,34.2v6.4h4.4c1.7,0,2.8,0,3.3-0.1c0.7-0.1,1.3-0.4,1.7-0.9c0.4-0.5,0.7-1.2,0.7-2
				c0-0.7-0.2-1.3-0.5-1.8c-0.3-0.5-0.8-0.9-1.5-1.1c-0.7-0.2-2.1-0.3-4.3-0.3H586.1z"/>
			<path class="st2" d="M612.4,44.6V20.8h4.6v8.6c1.4-1.6,3.1-2.4,5-2.4c2.1,0,3.8,0.8,5.2,2.3c1.4,1.5,2.1,3.7,2.1,6.5
				c0,2.9-0.7,5.2-2.1,6.8c-1.4,1.6-3.1,2.4-5.1,2.4c-1,0-2-0.2-2.9-0.7s-1.8-1.2-2.5-2.2v2.5H612.4z M616.9,35.6
				c0,1.8,0.3,3.1,0.8,4c0.8,1.2,1.8,1.8,3.1,1.8c1,0,1.9-0.4,2.6-1.3c0.7-0.9,1.1-2.2,1.1-4.1c0-2-0.4-3.4-1.1-4.3
				c-0.7-0.9-1.6-1.3-2.7-1.3c-1.1,0-2,0.4-2.7,1.3C617.2,32.6,616.9,33.9,616.9,35.6z"/>
			<path class="st2" d="M672,35.9l4.7,1.5c-0.7,2.6-1.9,4.5-3.6,5.8s-3.8,1.9-6.3,1.9c-3.2,0-5.8-1.1-7.8-3.2s-3-5.1-3-8.9
				c0-4,1-7,3.1-9.2c2-2.2,4.7-3.3,8.1-3.3c2.9,0,5.3,0.9,7.1,2.6c1.1,1,1.9,2.5,2.4,4.4l-4.8,1.1c-0.3-1.2-0.9-2.2-1.8-2.9
				s-2-1.1-3.3-1.1c-1.8,0-3.2,0.6-4.3,1.9c-1.1,1.3-1.6,3.3-1.6,6.1c0,3,0.5,5.1,1.6,6.4c1.1,1.3,2.5,1.9,4.2,1.9
				c1.3,0,2.4-0.4,3.3-1.2C670.9,38.9,671.6,37.6,672,35.9z"/>
			<path class="st2" d="M703,32.5l-4.5,0.8c-0.2-0.9-0.5-1.6-1-2c-0.5-0.5-1.2-0.7-2.1-0.7c-1.1,0-2,0.4-2.7,1.2
				c-0.7,0.8-1,2.1-1,3.9c0,2,0.3,3.5,1,4.3c0.7,0.8,1.6,1.3,2.8,1.3c0.9,0,1.6-0.2,2.1-0.7s0.9-1.3,1.2-2.5l4.5,0.8
				c-0.5,2.1-1.4,3.6-2.7,4.7c-1.3,1-3.1,1.6-5.3,1.6c-2.5,0-4.5-0.8-6-2.4c-1.5-1.6-2.2-3.8-2.2-6.6c0-2.8,0.8-5.1,2.3-6.6
				c1.5-1.6,3.5-2.4,6.1-2.4c2.1,0,3.8,0.5,5,1.4C701.6,29.2,702.5,30.6,703,32.5z"/>
			<path class="st2" d="M518.3,83.8h-4.6V66.6c-1.7,1.6-3.6,2.7-5.9,3.5v-4.1c1.2-0.4,2.5-1.1,3.9-2.2c1.4-1.1,2.4-2.4,2.9-3.8h3.7
				V83.8z"/>
			<path class="st2" d="M561.7,79.5v4.2h-16c0.2-1.6,0.7-3.1,1.6-4.6c0.9-1.4,2.6-3.3,5.1-5.7c2.1-1.9,3.3-3.2,3.8-3.9
				c0.6-0.9,0.9-1.9,0.9-2.8c0-1-0.3-1.8-0.8-2.3c-0.5-0.5-1.3-0.8-2.3-0.8c-1,0-1.7,0.3-2.3,0.9c-0.6,0.6-0.9,1.5-1,2.9l-4.5-0.5
				c0.3-2.5,1.1-4.3,2.5-5.4s3.2-1.6,5.4-1.6c2.3,0,4.2,0.6,5.5,1.9s2,2.8,2,4.7c0,1.1-0.2,2.1-0.6,3.1c-0.4,1-1,2-1.8,3
				c-0.6,0.7-1.5,1.7-3,3c-1.4,1.3-2.3,2.2-2.7,2.6s-0.7,0.9-0.9,1.3H561.7z"/>
			<path class="st2" d="M585.8,77.5l4.4-0.5c0.1,1.1,0.5,2,1.1,2.6c0.6,0.6,1.4,0.9,2.2,0.9c0.9,0,1.7-0.4,2.4-1.1s1-1.7,1-2.9
				c0-1.1-0.3-2.1-0.9-2.7c-0.6-0.7-1.4-1-2.3-1c-0.6,0-1.3,0.1-2.1,0.3l0.5-3.7c1.2,0,2.2-0.2,2.8-0.8c0.6-0.6,1-1.3,1-2.3
				c0-0.8-0.2-1.4-0.7-1.9c-0.5-0.5-1.1-0.7-1.9-0.7c-0.8,0-1.4,0.3-2,0.8c-0.6,0.5-0.9,1.3-1,2.4l-4.2-0.7c0.3-1.4,0.7-2.6,1.3-3.4
				c0.6-0.9,1.4-1.5,2.5-2s2.2-0.7,3.5-0.7c2.2,0,4,0.7,5.4,2.1c1.1,1.2,1.7,2.5,1.7,4c0,2.1-1.1,3.8-3.4,5c1.4,0.3,2.5,0.9,3.3,2
				c0.8,1,1.2,2.2,1.2,3.7c0,2.1-0.8,3.9-2.3,5.3s-3.4,2.2-5.7,2.2c-2.2,0-3.9-0.6-5.4-1.9S586,79.5,585.8,77.5z"/>
			<path class="st2" d="M634.6,83.8V79h-9.7v-4l10.3-15.1h3.8V75h3v4h-3v4.8H634.6z M634.6,75v-8.1l-5.5,8.1H634.6z"/>
			<path class="st2" d="M665.4,77.7l4.5-0.5c0.1,1,0.5,1.8,1.2,2.4c0.6,0.6,1.4,0.9,2.2,0.9c1,0,1.8-0.4,2.4-1.2
				c0.7-0.8,1-1.9,1-3.5c0-1.5-0.3-2.6-1-3.3c-0.7-0.7-1.5-1.1-2.6-1.1c-1.3,0-2.5,0.6-3.5,1.7l-3.7-0.5l2.3-12.4h12.1v4.3h-8.6
				l-0.7,4c1-0.5,2.1-0.8,3.1-0.8c2,0,3.7,0.7,5.1,2.2c1.4,1.5,2.1,3.4,2.1,5.7c0,2-0.6,3.7-1.7,5.2c-1.5,2.1-3.7,3.1-6.4,3.1
				c-2.2,0-4-0.6-5.4-1.8C666.5,81.2,665.7,79.7,665.4,77.7z"/>
		</g>
		<g>
			<path class="st2" d="M510.4,185h1.9l5.5-15.2h-2.4v-3.3h12.4v3.3h-2.4l5.5,15.2h1.9v3.4h-8.4v-3.3h2.5l-1.2-3.6h-8.2l-1.2,3.6
				h2.7v3.3h-8.4V185z M524.5,178.3l-3.1-8.6l-3.1,8.6H524.5z"/>
			<path class="st2" d="M542.9,184.6c0-2.7,2.4-4.4,5.8-4.4c1.5,0,2.9,0.2,3.7,0.4v-1.2c0-0.9-0.2-1.5-0.6-2
				c-0.6-0.8-1.6-1.1-2.9-1.1c-0.6,0-1.1,0.1-1.4,0.2c0.1,0.2,0.1,0.5,0.1,0.7c0,1.1-0.9,1.9-2,1.9s-1.9-0.8-1.9-2
				c0-1.8,1.8-3.7,5.8-3.7c2.5,0,4.2,0.7,5.2,2c0.8,0.9,1.1,2.2,1.1,3.7v6.2h2.2v3h-5.6v-1.6c-1.2,1-2.9,1.9-4.9,1.9
				C545.1,188.6,542.9,187.3,542.9,184.6z M552.4,184.7v-2.3c-0.8-0.2-1.9-0.3-3-0.3c-1.8,0-2.8,0.8-2.8,2.1c0,1.2,0.9,1.8,2.2,1.8
				C550.1,186,551.3,185.5,552.4,184.7z"/>
			<path class="st2" d="M584.4,185h2.5v-15.2h-2.5v-3.4h8.7c5.4,0,8,2.5,8,5.8c0,2.5-1.6,4.2-3.7,4.9c2.7,0.8,4.4,2.4,4.4,5.1
				c0,3.6-2.9,6.1-8.2,6.1h-9.1V185z M593.2,175.8c2.6,0,4.1-1.2,4.1-3.1c0-1.9-1.5-2.9-4.2-2.9h-2.5v6H593.2z M593.6,185.1
				c2.6,0,4.3-1.1,4.3-3.2c0-2-1.6-3.2-4.4-3.2h-2.9v6.3H593.6z"/>
			<path class="st2" d="M617.2,187l-0.8,1.5H614v-21.3h-2.2V164h5.8v11.4c1.1-1,2.4-1.9,4.3-1.9c3.9,0,6.7,3.1,6.7,7.5
				c0,4.2-3.1,7.6-7,7.6C619.8,188.6,618.5,188,617.2,187z M624.9,181.1c0-2.8-1.7-4.4-3.9-4.4c-1.4,0-2.5,0.6-3.5,1.5v6.2
				c1,0.7,2.1,1.1,3.5,1.1C623.1,185.5,624.9,184,624.9,181.1z"/>
			<path class="st2" d="M655.9,177.4c0-6.6,5.1-11.3,11.5-11.3c5.1,0,8.5,2.7,8.5,5.3c0,1.6-1,2.7-2.4,2.7c-1.5,0-2.5-0.9-2.5-2.4
				c0-0.4,0.1-0.9,0.2-1.1c-0.6-0.5-1.9-1-3.9-1c-4.3,0-7.5,3.3-7.5,7.8c0,4.4,3.1,7.9,7.7,7.9c2.6,0,4.7-1.1,6.3-2.9l2.5,2.6
				c-2.1,2.4-5.3,3.8-8.8,3.8C660.7,188.8,655.9,184.3,655.9,177.4z"/>
			<path class="st2" d="M686.8,181c0-3.8,3.1-7.4,7.4-7.4c4,0,6.6,2.6,6.6,4.9c0,1.5-1,2.5-2.3,2.5c-1.2,0-2.2-1-2.2-2.2
				c0-0.4,0.2-0.9,0.5-1.2c-0.3-0.4-1.2-1-2.6-1c-1.7,0-3.7,1.4-3.7,4.6c0,2.8,2.1,4.6,4.7,4.6c1.8,0,3.3-0.5,5.2-1.5l-0.3,3.3
				c-1.6,0.9-3.1,1.3-5.2,1.3C690.3,188.6,686.8,185.7,686.8,181z"/>
			<path class="st2" d="M511.8,228.6h4v-10.7l-3.4,0.8l-0.8-3l6-1.5h1.8v14.5h3.9v3h-11.5V228.6z"/>
			<path class="st2" d="M551.9,217.6c0.2,0.4,0.4,0.8,0.4,1.2c0,1.2-1,2.2-2.2,2.2c-1.2,0-2.3-1-2.3-2.6c0-0.6,0.3-1.3,0.8-1.9
				c1.1-1.5,3.5-2.7,6.4-2.7c4.4,0,6.9,2.6,6.9,5.1c0,2.9-2.3,4.4-5.3,6.1c-2.5,1.4-3.8,2.4-4.6,3.6h7.5v-2.8h3v5.7H548l-0.6-1.8
				c1.3-3.1,4.1-5.3,7.1-7c2.2-1.3,3.8-2.3,3.8-3.7c0-1.3-1.4-2.2-3.3-2.2C553.6,216.9,552.5,217.2,551.9,217.6z"/>
			<path class="st2" d="M588.8,228.3c1.2,0,2.2,1,2.2,2.2c0,0.5-0.2,1-0.5,1.3c0.8,0.7,2.1,1,3.5,1c2.3,0,3.9-1.3,3.9-3.4
				c0-1.3-0.6-2.4-2.2-3.1c-0.8-0.4-2-0.6-3.5-0.6h-1v-2.9h1.1c1.4,0,2.7-0.3,3.6-0.7c1.1-0.6,1.8-1.5,1.8-2.7
				c0-1.8-1.7-2.7-3.6-2.7c-1.3,0-2.2,0.2-2.8,0.7c0.3,0.4,0.5,0.9,0.5,1.3c0,1.2-1,2.2-2.2,2.2c-1.2,0-2.3-1-2.3-2.6
				c0-0.6,0.2-1.3,0.7-1.9c0.9-1.4,2.9-2.6,6.2-2.6c4.2,0,7.2,2.4,7.2,5.6c0,1.8-1.1,3.2-2.6,4.1c-0.6,0.4-1.3,0.6-2.1,0.8
				c0.6,0.2,1.3,0.4,1.9,0.8c1.6,0.9,2.9,2.4,2.9,4.7c0,3.7-3.3,6.1-7.7,6.1c-3.1,0-5.6-1.2-6.8-2.9c-0.4-0.6-0.7-1.4-0.7-2.1
				C586.5,229.4,587.5,228.3,588.8,228.3z"/>
			<path class="st2" d="M635.8,230h-9.6l-0.8-1.8l11.1-14.8l2.6,2.1l-8.7,11.5h5.3v-3.8l3.5-1.4v5.2h3.3v3h-3.3v5.5h-3.5V230z"/>
			<path class="st2" d="M668.8,229.1c1.2,0,2.2,1,2.2,2.2c0,0.3-0.1,0.7-0.3,1.1c0.7,0.2,1.5,0.3,2.5,0.3c2.8,0,4.3-1.8,4.3-4.1
				c0-2.1-1.4-3.7-4.4-3.7c-1.3,0-2.8,0.3-4.1,1l-1.7-0.9l1.3-10.8h11.4v3.4h-8.6l-0.6,4.7c0.8-0.2,1.8-0.3,2.8-0.3
				c4.3,0,7.5,2.4,7.5,6.8c0,4.3-3.3,7.2-7.7,7.2c-2.8,0-4.7-0.8-5.8-1.8c-0.7-0.7-1.1-1.6-1.1-2.4
				C666.5,230.1,667.5,229.1,668.8,229.1z"/>
		</g>
	</g>
</g>
<g id="Layer_2">
</g>
</svg>
