<?xml version="1.0" encoding="utf-8"?>
<!-- Generator: Adobe Illustrator 19.0.1, SVG Export Plug-In . SVG Version: 6.00 Build 0)  -->
<svg version="1.1" xmlns="http://www.w3.org/2000/svg" xmlns:xlink="http://www.w3.org/1999/xlink" x="0px" y="0px"
	 viewBox="0 0 700 107.9" style="enable-background:new 0 0 700 107.9;" xml:space="preserve">
<style type="text/css">
	.st0{fill:#1F2328;}
	.st1{fill:#FFFFFF;}
	.st2{fill:#630D0D;}
	.st3{fill:#3399CC;}
	.st4{clip-path:url(#SVGID_2_);}
	.st5{fill:#FFFFFF;stroke:#630D0D;stroke-width:2.44;stroke-miterlimit:10;}
	.st6{fill:none;stroke:#630D0D;stroke-width:0.8133;stroke-miterlimit:10;}
	.st7{fill:#640D0F;}
	.st8{fill:#1E2227;stroke:#FFFFFF;stroke-width:0.5;stroke-miterlimit:10;}
	.st9{clip-path:url(#SVGID_6_);}
</style>
<g id="Layer_1">
	<g>
		<path class="st0" d="M351.2,54.7c0,0,1.8-1.3,2.6-1.6c2.6-4.4,7.7-8.4,16.9-11.3c9.5-2.9,67-3.2,86.9,18c0,0,8.8,2.8,13.3,1.6
			c0,0-0.6,4.1-9.2,6.3c0,0,0.7,7.2,1.9,9.3c1.3,2.4,7.3,6.8,7.3,6.8s0.3,4.7-4.7,4.7c-5.1,0-10.1,3.2-10.1,3.2s-15.1,2.8-21.3-5.7
			c-3.7-5.1-4.2-1.7-4.5,2.5c-0.2,2.9-0.7,6.2-0.5,7.2c0.7,4.5,3.8,7.5,3.8,7.5c-3.3,0.6-5.2-1.6-5.2-1.6l-1,1.4l-1-1.2l-0.4-8
			l-2.4-9.4c0,0-1.2,3.7-3.2,7.2c-2,3.5-3,7-2.8,10c0.2,2.6,3.5,6.2,3.5,6.2c-4.1,1.1-5.8-2.1-5.8-2.1l-1.3,0.9l-0.5-1.6l0.5-8.7
			l-1.2-10.7c0,0-21.1,6.7-35.7,1.3c0,0-1.5,4.3-1.3,7.8c0.2,3.4,4.1,7.7,4.1,7.7c-4.3,0.5-5.4-2.1-5.4-2.1l-2.1,1.3l-1.1-1.7
			c0,0-0.6-8.4-0.6-12.2c0-2.7-1.1,0.2-1.3,4.7c-0.2,5.6,0.7,13.6,3.6,14.7c0,0-4.7,0.9-5.8-3l-1.1,2.1l-1.1-1.6
			c0,0-0.5-9.8-3.6-14.2v-7.3c0,0-6.4-5.4-9.2-13.2c-1.9-5.1,0.2-14-0.1-13.7c-7.2,6.8-2.6,13.3-2.6,13.3
			C340.9,62.6,351.2,54.7,351.2,54.7z"/>
		<path class="st0" d="M14.4,4.8C24.2,3.7,27.7,2,53.8,6.9l59.9-0.7l32.6,3c0,0-4.6-5.1-0.9-8.3s9.9,3.2,9.9,3.2l1.6-2.3
			c0,0,6.4-7.4,21.5,10.3l10.1,8.7c0,0,7.4,2.7,2,9.9s-7.4,1.6-7.4,1.6s-17.6-4.3-32.8,10.6s-11.3,26.2-30.1,24.5
			c0,0-8.5,27.8,2.1,39.2c0,0-0.9,3-8.3,0c0,0,0-3.2-2.1-5.3c-2.1-2.1-0.5-5.7-0.5-5.7l-1.6-12.1c0,0-6,7.3,0.2,20
			c0,0,1,3.7-6.3,0.7c0,0-1.1,0.2-0.9-4.1c0,0-2.3-1.4-0.9-7.4c1.4-6,1.8-25.5,1.8-25.5s-49.9-1.6-53.4-7.1c0,0-2.7,4.1-8.2,5.5
			c0,0,1.8,5.3-0.2,5.9c-2,0.5-2-5-2-5l-4.4,0.4c0,0,1.2,5.3-0.5,5.7c-1.8,0.4-3.7,21.3,7.4,31.6c0,0-3.2,2.5-7.8-0.5
			c0,0-0.5-3.5-3.5-3.4c0,0-2-16.7-9.8-30c0,0-14.5,21.1-2,33.9c0,0,2.1,3.5-7.3,2c0,0-0.2-4.3-3.9-5.5c0,0,1.6-22-1.1-31.9
			c0,0,8-17.2-1.2-41.5c0,0-2,20.2-1.2,31.7s-2,18.8-2,18.8s-5.7-2.6,0-22.5C2.5,55.1-6,7.2,14.4,4.8z"/>
		<path class="st0" d="M546.2,44.2l-1.3-2c0-1.3-0.5-1.9-1.1-2.2c0.4-1.3,1.2-3.8,0.3-2.5c-1.1,1.6-1-2.7-2-0.3
			c-1,2.3-2.8-1.6-1.8,1.4c1,3-2.5-1.4-1.2,1.2c0.1,0.3,0.3,0.6,0.5,0.8c-0.1,0-0.1,0.1-0.1,0.1c-10.6,2.7-9.6,16-14.2,21.2
			c-5.7,6.4-17.2-3.2-17.2-3.2c0.4-8.3-5.2-14.8-5.2-14.8c-14.1,6.9-9.1,18.7-9.1,18.7c-3,13.8,7.3,18.3,7.3,18.3v1.7
			c5.3,8,10.1,11.3,14,12.4c1,2.8,2.6,8.6-0.7,11c0,0,0.9,0.9,3.2,0c0,0-0.9-1,8.5,2c0,0,1.5-0.4-3.9-2.8c0,0,1.7-0.3,5.1-0.6
			c3.4-0.3,0.8-1.1,0.5-1.2c-2-0.2-6.4,1-8-0.2c-1.4-1.1-2.5-5.3-3-7.8c4.4,0.6,7-1.6,7-1.6c4-5.6,9.1-9.4,9.1-9.4
			c18.3-12.1,7.5-35.2,7.5-35.2c6.7,0.5,3-4.2,3-4.2L546.2,44.2z"/>
		<path class="st0" d="M695.7,78.4c-3,0.8-8.6-0.3-20.5-3.5c-6.5-1.7-12.6-6.9-37.9-6c0,0-2.3-4.4-9.4-6.6c0,0-3.1,6.5-7.7,10.7
			l2.3,1.4c0,0-8.7,1.8-16.4,3.1c0,0-5.9-2.7-8.8,1.1c0,0,4.8,1-2.1,2s-5.8,2.5-14.3-4.5c-8.5-7-12.2-5.4-12.2-5.4l5.5,14.4
			c0,0-1.6,7.5-7.5,15.7c0,0,2.5,3.9,21.9-7.5c1.9-1.1,10.7,0.2,10.7,0.2l-4,1c0,0,5.5,9.8,7,10.3c1.5,0.5,13.7-4.8,13.7-4.8h8.8
			c0,0-2.3,4-1.3,7.9l6.6-2.8l1.1,1.1l6.6-5.1c0,0,33.3,1.1,55.8-11.2c2.7-1.5,4.6-2.5,5.8-4.9c0,0-0.8-2.6-1.8-1.1
			c-1.3,1.9-6.1,3.8-7.9,4.1c-3,0.6-0.6-3,9.7-6.8C701.4,80.6,698.2,77.8,695.7,78.4z"/>
		<path class="st0" d="M313.5,34c0,0-1.4,8.7-7.1,15.9c0,0,0,14-20,30.4c0,0-3.9,11.2,1.4,19.7c0,0-3.7,3.1-5.3-2.6
			c0,0-0.5,4.6,1.8,8.5c0,0-6,1.8-6.2-3.9c-0.2-5.8,4.1-17.9-3.5-24.6c0,0-2.5-5.5-34-3L228.8,80c0,0-4.4,6,4.4,23.2
			c0,0-3.3,1.6-5.5-3.4s-3.5-16.7-3.5-16.7s-5.8,8.3,0,24.4c0,0-4.1,1.6-5.3-3c0,0,0-21.6-1.6-31.3c0,0-3.9,1.4-6.4-9.2l-1.4,3.7
			c0,0-7.3-29.2,15-33.8c28.5-6,33.4,8.7,68.6-5.8l9.7-5.5l-6.2-5.8c0,0,2.5-2.1,11.5,2.3c0,0,7.8-3,15.2,4.4
			c7.4,7.4,11.3,4.1,7.6,11.5C330.8,35.2,322.2,38.2,313.5,34z"/>
	</g>
</g>
<g id="Layer_2">
</g>
</svg>
