<?xml version="1.0" encoding="utf-8"?>
<!-- Generator: Adobe Illustrator 19.0.1, SVG Export Plug-In . SVG Version: 6.00 Build 0)  -->
<svg version="1.1" xmlns="http://www.w3.org/2000/svg" xmlns:xlink="http://www.w3.org/1999/xlink" x="0px" y="0px"
	 viewBox="0 0 700 397.5" style="enable-background:new 0 0 700 397.5;" xml:space="preserve">
<style type="text/css">
	.st0{fill:#1F2328;}
	.st1{fill:#FFFFFF;}
	.st2{fill:#630D0D;}
	.st3{fill:#3399CC;}
	.st4{clip-path:url(#SVGID_2_);}
	.st5{fill:#FFFFFF;stroke:#630D0D;stroke-width:2.44;stroke-miterlimit:10;}
	.st6{fill:none;stroke:#630D0D;stroke-width:0.8133;stroke-miterlimit:10;}
	.st7{fill:#640D0F;}
	.st8{fill:#1E2227;stroke:#FFFFFF;stroke-width:0.5;stroke-miterlimit:10;}
	.st9{clip-path:url(#SVGID_6_);}
</style>
<g id="Layer_1">
	<g>
		<rect x="0.3" y="375.6" class="st2" width="94.5" height="10.9"/>
		<rect x="596.2" y="375.6" class="st2" width="103.3" height="10.9"/>
		<polygon class="st2" points="0.3,227 0.3,237.8 280.6,237.8 279.2,227 		"/>
		<polygon class="st2" points="421.3,227 422.7,237.8 699.5,237.8 699.5,227 		"/>
		<path class="st0" d="M548.9,96.8c0,0-12.3-25.2-18.4-29.6c-16.5-11.9-35.6-12.6-86.1-21.3l1,72.9c8.7,4.7,49-4.5,64.8-4.9
			c28.5-0.9,48.7,15.6,69.7,16.4c10,0.4,20.4,0.9,22.9-2.5c0,0-2.7-15.3-4.1-19.6C581.6,101.4,548.9,96.8,548.9,96.8z"/>
		<path class="st0" d="M603.4,135.3c-42.8,5.9-56.3-12.1-87.4-13.8c-22.2-1.2-42.3,3.1-56.7,5.7c-13.4,2.4-23.3-3.2-23.3-3.2
			s-0.3-8-0.3-11c-0.1-14.1-1.2-97.4-1.2-97.4C316.3-4,191.3-8,88.6,20.4c0,0-1,44.3-1.3,59c-1.2,68.8,17,92.9,17,92.9
			c36.2-10.1,176-13.3,199.7-12.5c81.5,2.8,144.1,6.1,221.1,9.6c13.8,0.6,24.9,1.2,32.2,1.7c18.7,1.3,34.9,2.3,43.5,1.1
			C603.4,157.6,603.9,145.3,603.4,135.3z M127.8,144.3c-7.6,1-14.6-4.3-15.6-11.9c-1-7.6,4.3-14.6,11.9-15.6
			c7.6-1,14.6,4.3,15.6,11.9C140.7,136.3,135.4,143.2,127.8,144.3z"/>
		<path class="st0" d="M561.3,152L561.3,152c-11-0.4-20.2,8.3-20.5,19.3c0,0.6,0,1.3,0,1.9c0.6,10.3,8.9,18.3,19.2,18.6
			c0.2,0,0.4,0,0.6,0c10,0,18.5-7.4,19.7-17.4c0.1-0.6,0.1-1.3,0.2-1.9C580.9,161.6,572.2,152.4,561.3,152z"/>
		<path class="st0" d="M456.2,151.2c-5.3-0.2-10.4,1.7-14.2,5.4c-3.9,3.6-6.1,8.6-6.3,13.9c0,0.6,0,1.2,0,1.9
			c0.6,10.3,8.9,18.3,19.2,18.6c0.2,0,0.4,0,0.6,0c10,0,18.5-7.4,19.7-17.4c0.1-0.6,0.1-1.3,0.2-1.9c0.2-5.3-1.7-10.4-5.4-14.2
			C466.4,153.6,461.5,151.4,456.2,151.2z"/>
		<path class="st0" d="M386.1,150.7c-5.3-0.2-10.4,1.7-14.2,5.4c-3.9,3.6-6.1,8.6-6.3,13.9c0,0.6,0,1.2,0,1.9
			c0.6,10.3,8.9,18.3,19.2,18.6c0.2,0,0.4,0,0.6,0c10,0,18.5-7.4,19.7-17.4c0.1-0.6,0.1-1.3,0.2-1.9c0.2-5.3-1.7-10.4-5.4-14.2
			C396.4,153.1,391.4,150.8,386.1,150.7z"/>
		<path class="st0" d="M175.8,149.1c-11-0.4-20.2,8.3-20.5,19.3c0,0.6,0,1.2,0,1.9c0.6,10.3,8.9,18.3,19.2,18.6c0.2,0,0.4,0,0.6,0
			c10,0,18.5-7.4,19.7-17.4c0.1-0.6,0.1-1.3,0.2-1.9C195.4,158.6,186.8,149.4,175.8,149.1z"/>
		<g>
			<path class="st0" d="M49.3,291.1h-17v58.2H17v-58.2H0v-15.2h49.3V291.1z"/>
			<path class="st0" d="M111.7,323.2c1.9,1.7,3.6,3.7,5,5.8c1.4,2.2,2.5,4.4,3.4,6.7c0.9,2.3,1.5,4.6,1.9,6.9
				c0.4,2.3,0.6,4.5,0.6,6.6h-7.5h-7.6c0-0.5,0-1.2-0.1-2.3c-0.1-1.1-0.3-2.3-0.6-3.6c-0.3-1.3-0.8-2.7-1.5-4.1
				c-0.7-1.4-1.6-2.7-2.7-3.9c-1.2-1.2-2.6-2.2-4.3-2.9c-1.7-0.7-3.8-1.1-6.3-1.1H73.8v18h-15v-73.4h33.1c0.3,0,1,0,2.2,0.1
				c1.2,0.1,2.6,0.4,4.3,0.9c1.7,0.5,3.5,1.2,5.5,2.2c2,1,3.9,2.4,5.8,4.3c5.5,5.5,8.3,13.1,8.3,22.8c0,3.8-0.6,7.1-1.7,9.9
				C115.2,318.9,113.6,321.3,111.7,323.2z M91.9,316.2c0.8,0,1.8-0.1,3.1-0.3c1.3-0.2,2.5-0.7,3.7-1.4c1.2-0.7,2.2-1.7,3-3
				c0.8-1.3,1.2-3,1.2-5.2c0-3.5-0.4-6.2-1.3-8.2c-0.9-2-2-3.6-3.2-4.6c-1.2-1-2.5-1.7-3.7-2c-1.3-0.3-2.2-0.4-2.9-0.4h-18v25.3
				H91.9z"/>
			<path class="st0" d="M190.9,275.9v40c0,1.9-0.2,4.1-0.6,6.4c-0.4,2.4-1,4.8-1.9,7.2c-0.9,2.5-2.1,4.9-3.6,7.2
				c-1.5,2.4-3.3,4.5-5.5,6.3c-2.2,1.8-4.8,3.3-7.7,4.4c-3,1.1-6.4,1.6-10.2,1.6h-0.1c-4,0-7.7-0.7-11.1-2c-3.4-1.3-6.4-3.3-8.9-5.9
				c-2.4-2.4-4.2-5-5.5-7.7c-1.3-2.8-2.2-5.4-2.8-7.9c-0.6-2.5-1-4.7-1.1-6.5c-0.1-1.8-0.2-2.9-0.2-3.3v-39.9h15.3v40
				c0,0.5,0,1.3,0.1,2.4c0.1,1.1,0.3,2.3,0.6,3.6c0.3,1.3,0.8,2.7,1.4,4.1c0.6,1.4,1.4,2.7,2.5,3.9c1.1,1.2,2.4,2.2,4,2.9
				c1.6,0.7,3.5,1.1,5.8,1.1c3.4,0,6-0.8,7.9-2.4c1.9-1.6,3.3-3.4,4.3-5.5c1-2.1,1.6-4.1,1.8-6.1c0.2-2,0.3-3.4,0.3-4.1v-39.9H190.9
				z"/>
			<path class="st0" d="M267.4,331.8c-1.6,2.6-3.5,5-5.7,7.1c-2.2,2.1-4.6,4-7.3,5.5c-2.7,1.5-5.5,2.7-8.6,3.5
				c-3.1,0.8-6.2,1.2-9.5,1.2c-5.1,0-9.8-1-14.2-2.9c-4.4-1.9-8.3-4.6-11.6-7.9c-3.3-3.3-5.9-7.2-7.8-11.6
				c-1.9-4.4-2.9-9.2-2.9-14.2c0-5.1,1-9.8,2.9-14.2c1.9-4.4,4.5-8.3,7.8-11.6c3.3-3.3,7.2-6,11.6-7.9c4.4-1.9,9.2-2.9,14.2-2.9
				c3.3,0,6.4,0.4,9.5,1.2c3.1,0.8,5.9,2,8.6,3.5c2.7,1.5,5.1,3.4,7.3,5.5c2.2,2.2,4.1,4.5,5.7,7.1l-11.2,11.2
				c-0.8-2-1.8-3.8-3.1-5.5c-1.3-1.7-2.8-3.1-4.5-4.3c-1.7-1.2-3.6-2.1-5.7-2.8c-2.1-0.7-4.2-1-6.5-1c-2.9,0-5.7,0.6-8.3,1.7
				c-2.6,1.1-4.9,2.7-6.8,4.6c-1.9,2-3.5,4.2-4.6,6.8c-1.1,2.6-1.7,5.4-1.7,8.4c0,3,0.6,5.8,1.7,8.4c1.1,2.6,2.7,4.9,4.6,6.8
				c1.9,2,4.2,3.5,6.8,4.6c2.6,1.1,5.4,1.7,8.3,1.7c2.3,0,4.4-0.3,6.5-1c2.1-0.7,4-1.6,5.7-2.8c1.7-1.2,3.2-2.6,4.5-4.2
				c1.3-1.6,2.3-3.4,3.1-5.4L267.4,331.8z"/>
			<path class="st0" d="M335,275.8c0,3.7-0.2,7.2-0.7,10.3c-0.5,3.2-1.2,6.1-2,8.7c-0.8,2.6-1.8,5-2.8,7.1c-1.1,2.1-2.1,3.9-3.2,5.5
				c-2.6,3.8-5.5,6.9-8.7,9.2c3.1,0,5.9,0.5,8.3,1.4c2.4,0.9,4.5,2.2,6.2,3.7c1.8,1.5,3.2,3.3,4.4,5.2c1.2,2,2.2,3.9,3,5.9
				c1.8,4.8,2.9,10.2,3.2,16.3h-15.1c0-2.2-0.2-4.1-0.7-5.8c-0.5-1.7-1.1-3.2-1.8-4.4c-0.7-1.3-1.6-2.3-2.5-3.2
				c-0.9-0.9-1.9-1.6-2.9-2.2c-2.3-1.3-4.9-2.1-7.8-2.3h-18.1v18h-15v-73.4h15v33.4c3.1,0,5.9-0.5,8.3-1.4c2.4-1,4.5-2.2,6.3-3.7
				c1.8-1.5,3.3-3.3,4.6-5.3c1.3-2,2.4-4.1,3.2-6.2c2-4.9,3.3-10.4,3.8-16.7H335z"/>
			<path class="st2" d="M414.6,331.8c-1.6,2.6-3.5,5-5.7,7.1c-2.2,2.1-4.6,4-7.3,5.5c-2.7,1.5-5.5,2.7-8.6,3.5
				c-3.1,0.8-6.2,1.2-9.5,1.2c-5.1,0-9.8-1-14.2-2.9c-4.4-1.9-8.3-4.6-11.6-7.9c-3.3-3.3-5.9-7.2-7.8-11.6
				c-1.9-4.4-2.9-9.2-2.9-14.2c0-5.1,1-9.8,2.9-14.2c1.9-4.4,4.5-8.3,7.8-11.6c3.3-3.3,7.2-6,11.6-7.9c4.4-1.9,9.2-2.9,14.2-2.9
				c3.3,0,6.4,0.4,9.5,1.2c3.1,0.8,5.9,2,8.6,3.5c2.7,1.5,5.1,3.4,7.3,5.5c2.2,2.2,4.1,4.5,5.7,7.1l-11.2,11.2
				c-0.8-2-1.8-3.8-3.1-5.5c-1.3-1.7-2.8-3.1-4.5-4.3c-1.7-1.2-3.6-2.1-5.7-2.8c-2.1-0.7-4.2-1-6.5-1c-2.9,0-5.7,0.6-8.3,1.7
				c-2.6,1.1-4.9,2.7-6.8,4.6c-1.9,2-3.5,4.2-4.6,6.8c-1.1,2.6-1.7,5.4-1.7,8.4c0,3,0.6,5.8,1.7,8.4c1.1,2.6,2.7,4.9,4.6,6.8
				c1.9,2,4.2,3.5,6.8,4.6c2.6,1.1,5.4,1.7,8.3,1.7c2.3,0,4.4-0.3,6.5-1c2.1-0.7,4-1.6,5.7-2.8c1.7-1.2,3.2-2.6,4.5-4.2
				c1.3-1.6,2.3-3.4,3.1-5.4L414.6,331.8z"/>
			<path class="st2" d="M482.2,276v73.3h-15.4v-26.9h-25.5v26.9H426V276h15.3v31.2h25.5V276H482.2z"/>
			<path class="st2" d="M529.6,349.2c-5.1,0-9.8-1-14.2-2.9c-4.4-1.9-8.3-4.6-11.6-7.9c-3.3-3.3-5.9-7.2-7.8-11.6
				c-1.9-4.4-2.9-9.2-2.9-14.2c0-5.1,1-9.8,2.9-14.2c1.9-4.4,4.5-8.3,7.8-11.6c3.3-3.3,7.2-6,11.6-7.9c4.4-1.9,9.2-2.9,14.2-2.9
				c5.1,0,9.8,1,14.2,2.9c4.4,1.9,8.3,4.6,11.6,7.9c3.3,3.3,5.9,7.2,7.8,11.6c1.9,4.4,2.9,9.2,2.9,14.2c0,5.1-1,9.8-2.9,14.2
				c-1.9,4.4-4.5,8.3-7.8,11.6c-3.3,3.3-7.2,6-11.6,7.9C539.5,348.2,534.7,349.2,529.6,349.2z M529.6,290.9c-3,0-5.8,0.6-8.4,1.7
				c-2.6,1.1-4.9,2.7-6.8,4.6c-1.9,2-3.5,4.2-4.6,6.8c-1.1,2.6-1.7,5.4-1.7,8.4c0,3,0.6,5.8,1.7,8.4c1.1,2.6,2.7,4.9,4.6,6.8
				c1.9,2,4.2,3.5,6.8,4.6c2.6,1.1,5.4,1.7,8.4,1.7c2.9,0,5.7-0.6,8.3-1.7c2.6-1.1,4.9-2.7,6.8-4.6c2-2,3.5-4.2,4.6-6.8
				c1.1-2.6,1.7-5.4,1.7-8.4c0-3-0.6-5.8-1.7-8.4c-1.1-2.6-2.7-4.9-4.6-6.8c-2-2-4.2-3.5-6.8-4.6
				C535.3,291.5,532.6,290.9,529.6,290.9z"/>
			<path class="st2" d="M592,349.3h-15.1v-73.4h35.6c2.4,0,5,0.5,7.8,1.4c2.8,0.9,5.4,2.4,7.7,4.5c2.4,2.1,4.3,4.8,5.9,8.1
				c1.6,3.3,2.4,7.4,2.4,12.2c0,9.4-2.7,16.7-8.1,21.9c-1.7,1.7-3.5,3.1-5.4,4c-1.9,0.9-3.6,1.6-5.2,2.1c-1.6,0.5-3,0.7-4.2,0.8
				c-1.2,0.1-1.9,0.1-2.3,0.1H592V349.3z M592,315.8h19.4h-0.1c0.7,0,1.7-0.1,2.8-0.4c1.1-0.3,2.2-0.9,3.2-1.8c1-1,1.9-2.3,2.7-4.1
				c0.8-1.8,1.1-4.3,1.1-7.4c0-2.3-0.3-4.2-0.9-5.6c-0.6-1.4-1.3-2.5-2.2-3.3c-0.9-0.8-1.9-1.3-2.9-1.6c-1-0.3-1.9-0.4-2.7-0.4H592
				V315.8z"/>
			<path class="st2" d="M671.7,350c-3.7,0-7.2-0.6-10.5-1.8c-3.3-1.2-6.1-2.8-8.6-4.8c-2.5-2-4.5-4.3-5.9-7
				c-1.4-2.7-2.1-5.5-2.1-8.5h15.2c0,0.6,0.3,1.3,0.8,2.1c0.6,0.8,1.4,1.6,2.4,2.3c1,0.7,2.3,1.3,3.7,1.8c1.5,0.5,3.1,0.7,5,0.7
				c3,0,5.4-0.3,7.1-1c1.7-0.7,3-1.5,3.9-2.3c0.9-0.8,1.5-1.9,2-3.3c0-0.8,0-1.6-0.1-2.4c-0.1-0.8-0.4-1.5-0.9-2.2
				c-0.9-1.1-2.5-2-4.8-2.6c-2.3-0.6-5.1-0.9-8.4-0.9c-2.5,0-4.8-0.2-6.8-0.7c-2-0.5-3.8-1-5.3-1.7c-1.5-0.7-2.9-1.5-4-2.3
				c-1.1-0.9-2.1-1.7-2.8-2.6c-1.5-1.6-2.6-3.3-3.4-5c-0.8-1.8-1.4-3.4-1.7-5c-0.3-1.6-0.5-2.9-0.5-4.1c0-1.2,0-2,0-2.5
				c0-0.5,0.1-1.2,0.2-2.2c0.1-1,0.4-2.2,0.8-3.4c0.4-1.3,1-2.6,1.8-4c0.8-1.4,1.8-2.8,3.1-4.1c4.9-4.9,11.6-7.3,20.3-7.3
				c8.5,0,15.2,2.5,20,7.5c1.7,1.7,3,3.5,3.9,5.4c0.9,1.9,1.6,3.6,2,5.2c0.4,1.6,0.6,3,0.7,4.1c0.1,1.1,0.1,1.8,0.1,2.1l-15.2-0.5
				v0.2c0-0.8-0.1-1.7-0.4-2.7c-0.3-1-0.8-2-1.6-2.9c-0.8-0.9-2-1.6-3.5-2.2c-1.5-0.6-3.5-0.9-6-0.9c-2.4,0-4.3,0.2-5.7,0.7
				c-1.4,0.5-2.5,1-3.3,1.7c-0.8,0.7-1.3,1.4-1.5,2.1c-0.3,0.7-0.4,1.3-0.4,1.8v0.7l-0.1,0.1c0,0.7,0.1,1.3,0.2,2
				c0.1,0.5,0.3,1.1,0.5,1.7c0.2,0.6,0.6,1.2,1.1,1.7c1.5,1.5,4.1,2.3,7.7,2.3c9.5,0,16.8,2,21.9,6.1c5.1,4.1,7.7,9.9,7.7,17.3
				c0,2.1-0.5,4.5-1.5,7c-1,2.5-2.7,4.9-4.9,7.1c-2.2,2.2-5.1,4-8.7,5.5C681.2,349.2,676.9,350,671.7,350z"/>
		</g>
		<g>
			<path class="st2" d="M309.6,221.6c1.1-0.2,2.3-0.4,3.6-0.6l-2.4-16.5c-2.6-0.2-4.8-0.2-6.7,0.1c-20.3,3-16.2,13-16.2,13l0.2,0.4
				C288.1,218,289.3,224.6,309.6,221.6z"/>
			<path class="st2" d="M412.2,244.6c-0.9-1.2-5.7-5.8-23.3-3.3c-0.6,0.1-1.1,0.2-1.7,0.3l2.3,16c3.1,0.1,5.9,0.1,8.3-0.3
				c20.3-3,14.4-12,14.4-12L412.2,244.6z"/>
			<g>
				<path class="st2" d="M409,208.6c0,0-3.3-6.5-23.5-3.5c-0.6,0.1-1.1,0.2-1.7,0.3c-10.5,1.7-23.8,5.3-36.8,8.8
					c-13.2,3.6-26,7.3-35.3,9c-1.3,0.2-2.5,0.4-3.6,0.6c-20.3,3-21.6-3.6-21.6-3.6l4.5,30.8l0.5,3.3c0,0,1.3,6.6,21.6,3.6
					c1.1-0.2,2.3-0.4,3.6-0.6c9.3-1.8,22.2-5.4,35.3-9c13-3.6,26.3-7.1,36.8-8.8c0.6-0.1,1.1-0.2,1.7-0.3c17.6-2.6,22.4,2,23.3,3.3
					c0.1,0.2,0.2,0.3,0.2,0.3L409,208.6z"/>
				<path class="st2" d="M291.2,253.9l-0.3-2.3C290.9,253,291.2,253.9,291.2,253.9z"/>
			</g>
		</g>
		<g>
			<g>
				<path class="st1" d="M315.9,238.3l1.9-0.5l-0.2,1.8l-1.9,0.5l-0.5,3.6c-0.7,5.4-3.3,6.8-5.2,7.3c-3.4,0.9-5.6-1-6.2-3.3
					c-0.6-2.5,0.7-5.2,3.9-5.7l0.7,2.7c-2,0.3-2,1.6-1.8,2.3c0.3,1.2,1.5,1.6,2.4,1.4c1.8-0.5,2.7-2.6,3.2-5.7l0.2-1.8l-1.8,0.5
					l0.3-1.8l1.8-0.5l0.7-5c-2.2,0.4-4.7,0-6.3,0.4c-1.5,0.4-1.9,1.3-1.7,2.1c0.2,0.8,1,1,1.6,0.9c0.8-0.2,1.3-1,1.3-1l1.8,1.6
					c0,0-0.8,1.4-2.6,1.9c-1.9,0.5-4.1-0.3-4.7-2.7c-0.5-2.1,0.4-4.5,3.6-5.3c2.7-0.7,5.8,0,8-1c0.5-0.8,1.4-1.4,2.3-1.6l1,1.6
					c0,0-0.9,0.7-1.2,2.3L315.9,238.3z"/>
				<path class="st1" d="M326.1,239.6c-0.9,3.2-2.3,6-4.7,6.6c-1.9,0.5-3.5-0.7-3-4.7l0.9-6.3l3.2-0.8l-0.9,6.9
					c-0.3,2.6,0.1,2.8,0.4,2.7c0.8-0.2,1.9-2,2.7-4.9C325.2,239,325.9,239.2,326.1,239.6z M319.6,232.3c-0.3-1,0.3-2,1.3-2.2
					c1-0.2,2,0.3,2.2,1.3c0.2,1-0.4,2-1.3,2.2C320.8,233.9,319.8,233.3,319.6,232.3z"/>
				<path class="st1" d="M324.8,239c0.2-0.9,0.5-2.2,0.8-3.7c-0.5-0.3-0.8-0.6-0.9-1.1c-0.3-1,0.5-2.4,1.3-2.9l1.5,0.4l-0.2,1.8
					c1,0.5,3.8,1,4.2,2.6c0.1,0.2,0.1,0.6,0,1.1l-0.2,1.6c-0.4,2.5,0.2,2.7,0.5,2.7c0.6-0.1,1.2-1.7,2.1-4.7
					c0.4-0.1,1.1,0.2,1.3,0.5c-0.9,3.1-1.9,5.9-4.1,6.5c-1.6,0.4-3.6-0.4-3-4.3l0.2-1.8c0.1-0.4,0-0.7,0-0.8c-0.1-0.4-0.6-0.7-1.3-1
					c-0.2,1.4-0.5,2.6-0.8,3.7C325.7,239.6,325,239.4,324.8,239z"/>
				<path class="st1" d="M333.8,236.7c0.5-1.6,1.1-4.5,1.5-6.4h3c0.2,3,1.4,6.1,1.8,7.4c0.1,0.6,0.2,0.9,0.2,1.1
					c0.9-1.1,1.4-2.4,1.9-4.3c0.4-0.1,1.1,0.2,1.3,0.5c-0.8,3-2.2,6-5.6,6.9c-2.5,0.6-3.8-0.5-3.8-0.5l1.5-1.6
					c0.2,0.2,0.4,0.2,0.7,0.1c0.7-0.2,0.9-0.8,0.4-2.8c-0.2-0.9-0.6-2.1-0.8-3.2c-0.3,1.2-0.5,2.4-0.8,3.2
					C334.7,237.3,334.1,237.1,333.8,236.7z"/>
				<path class="st1" d="M350,233.5c-0.8,3-2.3,6-4.9,6.7c-2,0.5-3.7-0.7-3.1-4.7l0.9-6.3l-1.7,0.4l0.3-1.8l1.7-0.4l0.4-2.7l3.2-0.8
					l-0.4,2.7l1.6-0.4l-0.3,1.8l-1.6,0.4l-0.9,6.9c-0.4,2.6,0.2,2.7,0.6,2.6c1-0.3,2-2.1,2.9-4.9C349.1,232.9,349.8,233.1,350,233.5
					z"/>
				<path class="st1" d="M360.9,224.1c0.5,1.7,1.7,2.4,1.9,2.4l-1,2.7c0,0-1.2-0.6-2.6-0.2c-1.8,0.4-2.6,2-2.1,3.8
					c0.4,1.8,1.9,2.9,3.8,2.5c2.4-0.6,3.1-3.4,1.7-5.1l2.5-1.5c2.6,4.1,0.3,8.5-3.6,9.5c-3.5,0.9-6.7-1.2-7.5-4.5
					c-0.9-3.7,1.5-7,4.6-7.5c0,0-0.3-0.5-0.6-1.4c-0.3-1.1-0.3-2.2,0-3.2c-0.7-1-1.2-2.3-1.4-3.6l2.2-0.2c0.1,0.6,0.3,1.1,0.5,1.6
					c0.7-0.8,1.8-1.5,3-1.9c2.8-0.7,4.3,0.8,4.8,2.4c0.5,1.8-0.6,3.9-3,4.5C362.9,224.6,361.8,224.5,360.9,224.1z M361,221.6
					c0.7,0.5,1.4,0.6,2.2,0.4c0.7-0.2,1.2-0.6,1.1-1.2c-0.1-0.5-0.8-0.8-1.6-0.6C362,220.4,361.4,220.9,361,221.6z"/>
				<path class="st1" d="M379.1,226.1c-0.8,2.8-2.5,4.6-5.4,4.1c0,0-0.5,1-3.1,3.2l-3.2,0.8l-0.4-11.2l3.2-0.8l0.3,8.4
					c1.6-2,3.2-5.1,3.1-9.3l2.5-0.9c0.1,1.6,0.1,4.6-1.5,8.1c1.2,0.2,2.4-0.5,3.1-3C378.2,225.5,378.9,225.8,379.1,226.1z"/>
				<path class="st1" d="M389.5,223.5c-0.8,2.8-2.6,6.1-6.5,7.1c-2.8,0.7-4.6-0.3-5.1-2.5c-0.7-2.7,0.2-8,4.5-9.1
					c2.3-0.6,4.6,0.4,4.1,3.7c-0.4,2.1-1.7,3.7-5.6,4.1c0,0-0.1,2.3,2.5,1.6c2.1-0.5,3.9-2.5,4.7-5.4
					C388.6,222.9,389.3,223.1,389.5,223.5z M381,224.8c2-0.1,2.4-1.2,2.5-2.2c0.1-0.7,0.1-1.3-0.6-1.1
					C381.4,221.9,381,224.8,381,224.8z"/>
				<path class="st1" d="M388.2,223c0.2-0.9,0.5-2.2,0.8-3.7c-0.5-0.3-0.8-0.6-0.9-1.1c-0.3-1,0.5-2.4,1.3-2.9l1.5,0.4l-0.2,1.8
					c1,0.5,3.8,1,4.2,2.6c0.1,0.2,0.1,0.6,0,1.1l-0.2,1.6c-0.4,2.5,0.2,2.7,0.5,2.7c0.6-0.1,1.2-1.7,2.1-4.7
					c0.4-0.1,1.1,0.2,1.3,0.5c-0.9,3.1-1.9,5.9-4.1,6.5c-1.6,0.4-3.6-0.4-3-4.3l0.2-1.8c0.1-0.4,0-0.7,0-0.8c-0.1-0.4-0.6-0.7-1.3-1
					c-0.2,1.4-0.5,2.6-0.8,3.7C389.1,223.6,388.4,223.3,388.2,223z"/>
			</g>
		</g>
		<g>
			<g>
				<path class="st0" d="M128.9,381.3h2.3l-0.8,2h-2.3l-1.6,4c-2.4,6-5.8,6.8-8.1,6.8c-4.2,0-6.1-2.8-6.1-5.6c0-3.1,2.4-5.7,6.2-5.4
					v3.3c-2.3-0.2-2.8,1.3-2.8,2.1c0,1.4,1.2,2.3,2.4,2.3c2.2,0,3.9-2.2,5.3-5.6l0.8-2h-2.2l0.8-2h2.2l2.2-5.5
					c-2.6-0.2-5.4-1.3-7.3-1.3c-1.8,0-2.5,1-2.5,1.9c0,1,0.8,1.5,1.6,1.5c1,0,1.7-0.7,1.7-0.7l1.6,2.4c0,0-1.4,1.4-3.6,1.4
					c-2.3,0-4.6-1.6-4.6-4.4c0-2.5,1.8-5,5.7-5c3.3,0,6.7,1.7,9.5,1.2c0.8-0.7,2-1.2,3.2-1.2l0.7,2.1c0,0-1.3,0.5-2,2.3L128.9,381.3
					z"/>
				<path class="st0" d="M147.1,385.7c-1.9,3.3-4.4,6.2-7.2,6.2c-1.4,0-2.5-0.7-2.8-2.2c-1.1,1.3-2.4,2.2-4,2.2
					c-2.2,0-3.9-1.8-2-6.3l2.8-6.9h4l-3.1,7.6c-1,2.5-0.7,2.8-0.2,2.8c1,0,1.9-1.3,3.4-3.9l2.7-6.6h4l-3.1,7.6
					c-1.1,2.8-0.7,3.2-0.2,3.2c1,0,2.6-1.7,4.4-4.8C146.3,384.8,146.9,385.2,147.1,385.7z"/>
				<path class="st0" d="M154.6,385.7c-1.9,3.4-4.4,6.2-7.3,6.2c-2.3,0-3.9-1.8-2-6.3l4.8-11.9h4l-5,12.5c-1.1,2.8-0.7,3.2-0.3,3.2
					c1,0,2.7-1.7,4.5-4.8C153.7,384.8,154.4,385.2,154.6,385.7z"/>
				<path class="st0" d="M162.1,385.7c-1.9,3.4-4.4,6.2-7.3,6.2c-2.3,0-3.9-1.8-2-6.3l4.8-11.9h4l-5,12.5c-1.1,2.8-0.7,3.2-0.3,3.2
					c1,0,2.7-1.7,4.5-4.8C161.2,384.8,161.9,385.2,162.1,385.7z"/>
				<path class="st0" d="M170,388.2c2-1.9,5.2-4.8,7.8-7.1c-0.3-1.6-0.6-3.2-0.6-4.7c0-3.7,2-5.9,5-5.9c2.8,0,3.9,2,3.9,3.8
					c0,2.4-2.1,4.7-4.4,6.9c0.3,1.5,0.5,3.1,0.5,4.5c0,5-3.5,8.2-8.3,8.2c-1.7,0-3.3-0.4-4.6-1.2c-1.2,1.5-1.8,2.9-1.4,4.8h-2.6
					c-0.4-2.1,0.4-4.5,2-6.6c-0.9-1.2-1.4-2.8-1.4-4.6c0-5.7,5.3-8.7,9.7-6.4l-1.2,3c-2.6-1.3-5,0.5-5,3.3
					C169.5,386.9,169.6,387.6,170,388.2z M178.4,384.3c-2.2,2.1-4.6,4.1-6.4,5.8c0.5,0.3,1.2,0.4,1.9,0.4c2.7,0,4.6-2.2,4.6-4.9
					C178.5,385.1,178.4,384.7,178.4,384.3z M181,378c1.3-1.4,1.9-2.3,1.9-3.2c0-0.4-0.1-0.9-0.8-0.9c-1.2,0-1.3,1.7-1.3,2.2
					C180.8,376.7,180.9,377.3,181,378z"/>
				<path class="st0" d="M198,385.7c-1.7,3-4.7,6.2-9.5,6.2c-3.5,0-5.1-1.7-5.1-4.4c0-3.3,2.5-9.2,7.8-9.2c2.8,0,5.2,1.8,3.6,5.4
					c-1,2.3-3,3.7-7.6,3.1c0,0-0.7,2.6,2.4,2.6c2.5,0,5.2-1.7,7-4.8C197.1,384.8,197.8,385.2,198,385.7z M187.8,384.8
					c2.3,0.4,3-0.6,3.5-1.8c0.3-0.7,0.5-1.4-0.4-1.4C189.1,381.6,187.8,384.8,187.8,384.8z"/>
				<path class="st0" d="M196.6,384.7c0.5-1,1.2-2.4,2-4c-0.4-0.5-0.8-0.9-0.8-1.5c0-1.3,1.3-2.6,2.3-2.9l1.6,0.9l-0.8,2
					c1,0.9,4.1,2.3,4.1,4.2c0,0.3-0.1,0.7-0.3,1.2l-0.7,1.8c-1.1,2.8-0.5,3.2-0.2,3.2c0.7,0,1.9-1.5,3.8-4.8c0.5,0,1.2,0.5,1.4,1
					c-1.9,3.3-3.9,6.2-6.6,6.2c-1.9,0-4-1.4-2.2-5.8l0.8-2c0.2-0.5,0.2-0.7,0.2-0.9c0-0.5-0.5-0.9-1.2-1.5c-0.7,1.6-1.3,2.8-2,4
					C197.4,385.7,196.8,385.2,196.6,384.7z"/>
				<path class="st0" d="M221.7,385.7c-1.7,2.9-4.2,4.6-7.4,3.2c0,0-0.8,0.9-4.4,2.7H206l2.8-12.9h3.9l-2.1,9.7
					c2.4-1.8,5.1-4.9,6.2-9.7l3.2-0.3c-0.3,1.8-1.2,5.3-4.1,8.9c1.4,0.6,2.9,0.1,4.5-2.6C220.8,384.8,221.5,385.2,221.7,385.7z"/>
				<path class="st0" d="M229.2,385.7c-1.9,3.4-4.4,6.2-7.3,6.2c-2.3,0-3.9-1.8-2-6.3l2.8-6.9h4l-3.1,7.6c-1.1,2.8-0.7,3.2-0.3,3.2
					c1,0,2.7-1.7,4.5-4.8C228.3,384.8,229,385.2,229.2,385.7z M223.8,375.5c0-1.2,1-2.2,2.2-2.2c1.2,0,2.2,0.9,2.2,2.2
					c0,1.2-1,2.2-2.2,2.2C224.7,377.7,223.8,376.7,223.8,375.5z"/>
				<path class="st0" d="M241.9,385.7c-1.7,3-4.7,6.2-9.5,6.2c-3.5,0-5.1-1.7-5.1-4.4c0-3.3,2.5-9.2,7.8-9.2c3.5,0,5.2,2.5,3.1,6.7
					h-4c1.4-2.9,1.5-3.6,0.7-3.6c-2.1,0-3.9,4.5-3.9,6.1c0,1.6,1.6,1.9,2.5,1.9c2.5,0,5.2-1.7,7-4.8
					C241.1,384.8,241.7,385.2,241.9,385.7z"/>
				<path class="st0" d="M254.6,385.7c-1.7,3-4.7,6.2-9.5,6.2c-3.5,0-5.1-1.7-5.1-4.4c0-3.3,2.5-9.2,7.8-9.2c2.8,0,5.2,1.8,3.6,5.4
					c-1,2.3-3,3.7-7.6,3.1c0,0-0.7,2.6,2.4,2.6c2.5,0,5.2-1.7,7-4.8C253.8,384.8,254.4,385.2,254.6,385.7z M244.5,384.8
					c2.3,0.4,3-0.6,3.5-1.8c0.3-0.7,0.5-1.4-0.4-1.4C245.8,381.6,244.5,384.8,244.5,384.8z"/>
				<path class="st0" d="M258.3,388.7c0-1.7,1.1-3.9,4.4-3.9c1.2,0,2.2,0.3,3.6,1.2c0.4-0.7,0.6-1.4,0.8-1.8l2.4-6
					c0.7-1.7,2.4-3.6,4.9-3.6l0.7,2.1c0,0-1.2,0.4-2,2.3l-0.3,0.7c2.1,0.7,4.8-0.5,4.8-3c0-1.7-1.4-3.3-4.3-3.3
					c-4.1,0-6.3,3.1-6.3,5.3c0,1.1,0.6,2.3,0.6,2.3l-2.6,2c0,0-1.1-1.7-1.1-4.1c0-4.4,3.7-8.5,9.6-8.5c4.8,0,7.7,2.8,7.7,6.3
					c0,4-3.8,4.9-3.8,4.9s2.3,1.6,2.3,4.9c0,3-1.9,6.5-5.9,6.5c-2.2,0-4.1-1.1-6.2-2.7c-1.2,1.3-2.8,2.2-4.8,2.2
					C259.6,392.6,258.3,390.5,258.3,388.7z M261.2,388.5c0,0.7,0.7,1,1.3,1c0.8,0,1.6-0.5,2.2-1.3c-0.8-0.5-1.4-0.9-2.1-0.9
					C261.7,387.3,261.2,387.9,261.2,388.5z M275.9,386.4c0-0.7-0.3-3.3-4.2-4.1c-0.4,1-0.9,2.2-1.4,3.3c-0.3,0.7-0.7,1.6-1.2,2.5
					c1.1,0.8,2.3,1.5,3.7,1.5C275,389.6,275.9,387.9,275.9,386.4z"/>
				<path class="st0" d="M297.3,385.7c-1.9,3.3-4.4,6.2-7.2,6.2c-1.4,0-2.5-0.7-2.8-2.2c-1.1,1.3-2.4,2.2-4,2.2
					c-2.2,0-3.9-1.8-2-6.3l2.8-6.9h4l-3.1,7.6c-1,2.5-0.7,2.8-0.2,2.8c1,0,1.9-1.3,3.4-3.9l2.7-6.6h4l-3.1,7.6
					c-1.1,2.8-0.7,3.2-0.2,3.2c1,0,2.6-1.7,4.4-4.8C296.5,384.8,297.1,385.2,297.3,385.7z"/>
				<path class="st0" d="M305.2,385.7c-1.8,3.2-4.4,6.2-7.5,6.2c-2.5,0-4-1.8-2.2-6.3l2.8-6.9h-2.1l0.8-2h2l1.2-2.9h4l-1.2,2.9h2
					l-0.8,2h-2l-3.1,7.6c-1.2,2.8-0.6,3.2-0.1,3.2c1.2,0,2.9-1.8,4.7-4.8C304.4,384.8,305,385.2,305.2,385.7z"/>
				<path class="st0" d="M318,385.7c-1.7,3-4.7,6.2-9.5,6.2c-3.5,0-5.1-1.7-5.1-4.4c0-3.3,2.5-9.2,7.8-9.2c3.5,0,5.2,2.5,3.1,6.7h-4
					c1.4-2.9,1.5-3.6,0.7-3.6c-2.1,0-3.9,4.5-3.9,6.1c0,1.6,1.6,1.9,2.5,1.9c2.5,0,5.2-1.7,7-4.8C317.1,384.8,317.8,385.2,318,385.7
					z"/>
				<path class="st0" d="M332.5,385.7c-2,3.5-4.4,6.2-7.4,6.2c-2.6,0-3.6-2-1.8-6.4l0.4-0.9c0.5-1.2,0.9-2.1,0.9-2.5
					c0-0.3-0.3-0.5-0.7-0.5c-0.6,0-1.7,0.6-2.8,1.8l-3.4,8.3h-4l7.2-17.8h4l-2.5,6.2c0,0,1.9-1.6,4.1-1.6c1.6,0,2.4,0.8,2.4,2.2
					c0,0.7-0.2,1.5-0.7,2.8l-1.2,3c-1.1,2.9-0.7,3.2-0.2,3.2c1,0,2.7-1.7,4.5-4.8C331.6,384.8,332.3,385.2,332.5,385.7z"/>
				<path class="st0" d="M345.2,385.7c-1.7,3-4.7,6.2-9.5,6.2c-3.5,0-5.1-1.7-5.1-4.4c0-3.3,2.5-9.2,7.8-9.2c2.8,0,5.2,1.8,3.6,5.4
					c-1,2.3-3,3.7-7.6,3.1c0,0-0.7,2.6,2.4,2.6c2.5,0,5.2-1.7,7-4.8C344.3,384.8,345,385.2,345.2,385.7z M335.1,384.8
					c2.3,0.4,3-0.6,3.5-1.8c0.3-0.7,0.5-1.4-0.4-1.4C336.4,381.6,335.1,384.8,335.1,384.8z"/>
				<path class="st0" d="M343.8,384.7c0.5-1,1.2-2.4,2-4c-0.4-0.5-0.8-0.9-0.8-1.5c0-1.3,1.3-2.6,2.3-2.9l1.6,0.9l-0.8,2
					c1,0.9,4.1,2.3,4.1,4.2c0,0.3-0.1,0.7-0.3,1.2l-0.7,1.8c-1.1,2.8-0.5,3.2-0.2,3.2c0.7,0,1.9-1.5,3.8-4.8c0.5,0,1.2,0.5,1.4,1
					c-1.9,3.3-3.9,6.2-6.6,6.2c-1.9,0-4-1.4-2.2-5.8l0.8-2c0.2-0.5,0.2-0.7,0.2-0.9c0-0.5-0.5-0.9-1.2-1.5c-0.7,1.6-1.3,2.8-2,4
					C344.7,385.7,344,385.2,343.8,384.7z"/>
				<path class="st0" d="M364.1,388.2c2-1.9,5.2-4.8,7.8-7.1c-0.3-1.6-0.6-3.2-0.6-4.7c0-3.7,2-5.9,5-5.9c2.8,0,3.9,2,3.9,3.8
					c0,2.4-2.1,4.7-4.4,6.9c0.3,1.5,0.5,3.1,0.5,4.5c0,5-3.5,8.2-8.3,8.2c-1.7,0-3.3-0.4-4.6-1.2c-1.2,1.5-1.8,2.9-1.4,4.8h-2.6
					c-0.4-2.1,0.4-4.5,2-6.6c-0.9-1.2-1.4-2.8-1.4-4.6c0-5.7,5.3-8.7,9.7-6.4l-1.2,3c-2.6-1.3-5,0.5-5,3.3
					C363.6,386.9,363.8,387.6,364.1,388.2z M372.5,384.3c-2.2,2.1-4.6,4.1-6.4,5.8c0.5,0.3,1.2,0.4,1.9,0.4c2.7,0,4.6-2.2,4.6-4.9
					C372.6,385.1,372.5,384.7,372.5,384.3z M375.1,378c1.3-1.4,1.9-2.3,1.9-3.2c0-0.4-0.1-0.9-0.8-0.9c-1.2,0-1.3,1.7-1.3,2.2
					C374.9,376.7,375,377.3,375.1,378z"/>
				<path class="st0" d="M395,385.7c-2,3.5-4.4,6.2-7.4,6.2c-2.6,0-3.6-2-1.8-6.4l0.4-0.9c0.5-1.2,0.9-2.1,0.9-2.5
					c0-0.3-0.3-0.5-0.7-0.5c-0.6,0-1.7,0.6-2.8,1.8l-3.4,8.3h-4l7.2-17.8h4l-2.5,6.2c0,0,1.9-1.6,4.1-1.6c1.6,0,2.4,0.8,2.4,2.2
					c0,0.7-0.2,1.5-0.7,2.8l-1.2,3c-1.1,2.9-0.7,3.2-0.2,3.2c1,0,2.7-1.7,4.5-4.8C394.1,384.8,394.8,385.2,395,385.7z"/>
				<path class="st0" d="M409.2,385.7c-1.3,2.3-3.6,4-6.1,3.8c-1.2,1.4-3,2.5-5.2,2.5c-3.1,0-4.8-1.9-4.8-4.7c0-3.3,2.4-8.8,7.7-8.8
					c3,0,4.7,1.7,4.7,4.6c0,1.4-0.4,3-1.1,4.6c1.2-0.2,2.4-1.1,3.5-2.9C408.4,384.8,409.1,385.2,409.2,385.7z M399.7,388.2
					c-0.3-0.4-0.5-0.8-0.5-1.4c0-1.1,0.9-2,2.1-2c0.3-1,0.5-1.9,0.5-2.5c0-0.9-0.4-1.3-1-1.3c-2,0-3.9,5.2-3.9,7.1
					c0,0.8,0.4,1.3,1,1.3S399.1,388.9,399.7,388.2z"/>
				<path class="st0" d="M423.1,385.7c-1.9,3.3-4.9,6.2-9.2,6.2c-3.1,0-4-1.5-4-1.5l1.3-1.2c0,0,0.4,0.5,0.8,0.5
					c1.4,0,3.8-4.9,3.8-7.2c0-0.7-0.2-1-0.8-1c-0.9,0-2,0.9-2.8,2.1l-5.2,12.9h-4l7.2-17.8h3.9l-0.4,1.1c0,0,1.3-1.4,3.2-1.4
					c2.1,0,2.9,1.7,2.9,3.5c0,3.2-2.5,7.2-3.4,8.1c2-0.9,3.6-2.3,5.3-5.3C422.3,384.8,423,385.2,423.1,385.7z"/>
				<path class="st0" d="M447.4,385.7c-1.1,1.8-3.5,4.2-6.7,3.6c-2,2.7-4.7,4.6-7.7,4.6c-4,0-5.5-3-5.5-6.4c0-4.7,3-12.2,8.5-14.5
					c1-1.2,2.4-2.1,4.2-2.1c2.4,0,4.8,1.6,4.8,6c0,3-1,7-2.9,10.3c2.3,0.1,3.5-1.6,4-2.5C446.6,384.8,447.2,385.2,447.4,385.7z
					 M433.9,379c-1.5,2.6-2.8,6.3-2.8,8.7c0,1.6,0.5,3.1,2,3.1c1.4,0,2.8-1.3,4.1-3.1C437.3,387.7,433.6,385.2,433.9,379z
					 M438.7,385.3c1.5-2.9,2.5-6.2,2.5-8.1c0-1.5-0.5-2.3-1.5-2.3c-1.3,0-2.7,1.8-2.7,5C437,382.1,437.7,384,438.7,385.3z"/>
				<path class="st0" d="M462,385.7c-2,3.5-4.4,6.2-7.4,6.2c-2.6,0-3.7-2-1.9-6.4l0.4-0.9c0.5-1.2,0.9-2.1,0.9-2.5
					c0-0.3-0.3-0.5-0.7-0.5c-0.6,0-1.7,0.6-2.8,1.8l-3.4,8.3h-4l5.2-12.9h4l-0.5,1.3c0.1-0.1,2-1.6,4.1-1.6c1.6,0,2.4,0.8,2.4,2.2
					c0,0.7-0.2,1.5-0.7,2.8l-1.2,3c-1.1,2.9-0.7,3.2-0.2,3.2c1,0,2.7-1.7,4.5-4.8C461.1,384.8,461.8,385.2,462,385.7z"/>
				<path class="st0" d="M471.6,391.6h-3.9l4.2-10.5c-1.1,1.2-2.4,2.5-3.7,3.8l-1.5-1.7c5.2-4.9,8.2-9.5,8.2-9.5h3.9L471.6,391.6z"
					/>
				<path class="st0" d="M492.1,377.2c0,2-1.4,4.3-3.9,5.1c0.1,0,1.4,0.7,1.4,3c0,2.8-2,6.7-7.4,6.7c-3,0-5.4-1.2-5.4-4.3
					c0-2.5,1.7-5.2,4.9-6c0,0-1-0.7-1-2.5c0-2.4,1.7-5.8,6.6-5.8C491,373.5,492.1,375.4,492.1,377.2z M485.6,385.3
					c0-1.1-0.7-1.6-1.6-1.6c-1.9,0-3.3,2.2-3.3,3.8c0,1.2,0.9,1.6,1.6,1.6C484.2,389,485.6,386.9,485.6,385.3z M488.1,377.7
					c0-0.8-0.4-1.2-1.1-1.2c-1.2,0-2.3,1.6-2.3,2.8c0,0.8,0.5,1.2,1.1,1.2C487.1,380.5,488.1,378.9,488.1,377.7z"/>
				<path class="st0" d="M541.7,385.7c-2,3.5-4.4,6.2-7.4,6.2c-2.6,0-3.6-2-1.9-6.4l0.4-0.9c0.5-1.2,0.9-2.1,0.9-2.5
					c0-0.3-0.3-0.5-0.7-0.5c-0.6,0-1.7,0.6-2.8,1.8l-3.4,8.3h-4l6.8-16.7c-1.3-0.6-2.6-0.5-3.3,1.3l-3.5,8.7
					c-1.4,3.5-4.1,7.7-8.2,7.7c-2.5,0-3.2-1.6-3.1-2.7c-0.9,1.1-2.9,2.7-5.2,2.7c-2.9,0-4.1-2.5-2.1-7.6l3-7.5
					c-3.3,1-6.2,1.9-6.2,3.8c0,1.2,1.1,1.5,1.7,1.5v3.2c-3,0-5.1-1.9-5.1-4.6c0-4.9,5.9-5.8,11.4-7.7c0.9-1.2,2.3-2.2,4.1-2.2
					l0.7,2.1c0,0-1.3,0.5-2,2.3c-3.7,9.1-4,10-4,10c-1.2,2.9-0.8,3.3-0.3,3.3c1.2,0,3.1-2.2,4.3-5.1l4.3-10.6h4l-5,12.4
					c-1.2,2.9-0.8,3.3-0.3,3.3c1.2,0,3.1-2.3,4.3-5.1c0,0,0.3-0.9,3.6-9c0.6-1.6,2-3.9,5-3.9c2,0,3.9,0.7,6.3,2.5l-2.5,6.2
					c0,0,1.9-1.6,4.1-1.6c1.6,0,2.4,0.8,2.4,2.2c0,0.7-0.2,1.5-0.7,2.8l-1.2,3c-1.1,2.9-0.7,3.2-0.2,3.2c1,0,2.7-1.7,4.5-4.8
					C540.8,384.8,541.5,385.2,541.7,385.7z"/>
				<path class="st0" d="M554.4,385.7c-1.7,3-4.7,6.2-9.5,6.2c-3.5,0-5.1-1.7-5.1-4.4c0-3.3,2.5-9.2,7.8-9.2c2.8,0,5.2,1.8,3.6,5.4
					c-1,2.3-3,3.7-7.6,3.1c0,0-0.7,2.6,2.4,2.6c2.5,0,5.2-1.7,7-4.8C553.5,384.8,554.2,385.2,554.4,385.7z M544.2,384.8
					c2.3,0.4,3-0.6,3.5-1.8c0.3-0.7,0.5-1.4-0.4-1.4C545.5,381.6,544.2,384.8,544.2,384.8z"/>
				<path class="st0" d="M567.1,385.7c-1.7,3-4.7,6.2-9.5,6.2c-3.5,0-5.1-1.7-5.1-4.4c0-3.3,2.5-9.2,7.8-9.2c2.8,0,5.2,1.8,3.6,5.4
					c-1,2.3-3,3.7-7.6,3.1c0,0-0.7,2.6,2.4,2.6c2.5,0,5.2-1.7,7-4.8C566.2,384.8,566.9,385.2,567.1,385.7z M556.9,384.8
					c2.3,0.4,3-0.6,3.5-1.8c0.3-0.7,0.5-1.4-0.4-1.4C558.2,381.6,556.9,384.8,556.9,384.8z"/>
				<path class="st0" d="M574.6,385.7c-1.9,3.4-4.4,6.2-7.3,6.2c-2.3,0-3.9-1.8-2-6.3l4.8-11.9h4l-5,12.5c-1.1,2.8-0.7,3.2-0.3,3.2
					c1,0,2.7-1.7,4.5-4.8C573.7,384.8,574.4,385.2,574.6,385.7z"/>
				<path class="st0" d="M573.2,384.7c1-1.7,2.6-4.8,3.6-6.9l3.4,0.9c-0.6,3.5-0.1,7.4-0.1,9c0,0.7,0,1-0.1,1.3
					c1.3-1,2.3-2.4,3.5-4.3c0.5,0,1.2,0.5,1.4,1c-1.8,3.3-4.3,6.2-8.4,6.2c-3.1,0-4.2-1.7-4.2-1.7l2.2-1.4c0.2,0.2,0.4,0.3,0.8,0.3
					c0.8,0,1.3-0.7,1.3-3.1c0-1.1-0.1-2.6,0-3.9c-0.6,1.3-1.3,2.6-1.8,3.4C574,385.7,573.4,385.2,573.2,384.7z"/>
			</g>
		</g>
	</g>
</g>
<g id="Layer_2">
</g>
</svg>
