<?xml version="1.0" encoding="utf-8"?>
<!-- Generator: Adobe Illustrator 19.0.1, SVG Export Plug-In . SVG Version: 6.00 Build 0)  -->
<svg version="1.1" xmlns="http://www.w3.org/2000/svg" xmlns:xlink="http://www.w3.org/1999/xlink" x="0px" y="0px"
	 viewBox="0 0 560.5 653.8" style="enable-background:new 0 0 560.5 653.8;" xml:space="preserve">
<style type="text/css">
	.st0{fill:#33C5F3;}
	.st1{fill:#FFFFFF;}
	.st2{fill:#3399CC;}
	.st3{fill:#676767;}
	.st4{fill:#989898;}
	.st5{fill:#0098CC;}
	.st6{fill:#F9F9F9;}
	.st7{fill:none;stroke:#FFFFFF;stroke-width:4;stroke-miterlimit:10;}
	.st8{fill:none;stroke:#FFFFFF;stroke-width:3.2021;stroke-miterlimit:10;}
	.st9{fill:#5E5E5E;}
	.st10{fill:#F68F3E;}
	.st11{fill:#B04B26;}
	.st12{fill:#9CCCA2;}
	.st13{fill:#739560;}
	.st14{fill:#A1C4C8;}
	.st15{fill:#627789;}
	.st16{fill:#D8C380;}
	.st17{fill:#97754B;}
	.st18{fill:#AB5D47;}
	.st19{fill:#7D2A38;}
	.st20{fill:#58612B;}
	.st21{fill:#273E1F;}
	.st22{fill:#47998B;}
	.st23{fill:#227783;}
	.st24{fill:#D4B1AB;}
	.st25{fill:#926777;}
	.st26{fill:#5D5D5D;}
	.st27{fill:#FF9966;}
</style>
<g id="Layer_1">
</g>
<g id="Layer_2">
	<g>
		<path class="st1" d="M317.6,140.4h-84.4c-5.4,0-9.8-4.4-9.8-9.8V15.5c0-5.4,4.4-9.8,9.8-9.8h115.1c5.4,0,9.8,4.4,9.8,9.8v20.3h5.7
			V15.5c0-8.6-7-15.5-15.5-15.5H233.2c-8.6,0-15.5,7-15.5,15.5v115.1c0,8.6,7,15.5,15.5,15.5h84.4V140.4z"/>
		<path class="st1" d="M543.8,45.8H344.3c-9.2,0-16.7,7.5-16.7,16.7v112.9c0,9.2,7.5,16.7,16.7,16.7h199.5c9.2,0,16.7-7.5,16.7-16.7
			V62.5C560.5,53.3,553,45.8,543.8,45.8z M554.7,175.3c0,6-4.9,10.9-10.9,10.9H344.3c-6,0-10.9-4.9-10.9-10.9V62.5
			c0-6,4.9-10.9,10.9-10.9h199.5c6,0,10.9,4.9,10.9,10.9V175.3z"/>
		<rect x="345.8" y="10.9" class="st1" width="6.9" height="6.9"/>
		<rect x="335.4" y="10.9" class="st1" width="6.9" height="6.9"/>
		<path class="st1" d="M290.7,52.9c-1,0-1.7,0.8-1.7,1.7v3.5c0,1,0.8,1.7,1.7,1.7s1.7-0.8,1.7-1.7v-3.5
			C292.5,53.7,291.7,52.9,290.7,52.9z"/>
		<path class="st1" d="M385.4,104.8h2.4c1.2,0,2.1-0.9,2.1-2.1v-1.1c0-1.2-0.9-2.1-2.1-2.1h-2.4c-1.2,0-2.1,0.9-2.1,2.1v1.1
			C383.3,103.9,384.2,104.8,385.4,104.8z"/>
		<path class="st1" d="M395.3,104.8h2.4c1.2,0,2.1-0.9,2.1-2.1v-1.1c0-1.2-0.9-2.1-2.1-2.1h-2.4c-1.2,0-2.1,0.9-2.1,2.1v1.1
			C393.2,103.9,394.1,104.8,395.3,104.8z"/>
		<path class="st1" d="M405.5,104.8h2.4c1.2,0,2.1-0.9,2.1-2.1v-1.1c0-1.2-0.9-2.1-2.1-2.1h-2.4c-1.2,0-2.1,0.9-2.1,2.1v1.1
			C403.4,103.9,404.4,104.8,405.5,104.8z"/>
		<path class="st1" d="M415.4,104.8h2.4c1.2,0,2.1-0.9,2.1-2.1v-1.1c0-1.2-0.9-2.1-2.1-2.1h-2.4c-1.2,0-2.1,0.9-2.1,2.1v1.1
			C413.3,103.9,414.3,104.8,415.4,104.8z"/>
		<path class="st1" d="M425.3,104.8h2.4c1.2,0,2.1-0.9,2.1-2.1v-1.1c0-1.2-0.9-2.1-2.1-2.1h-2.4c-1.2,0-2.1,0.9-2.1,2.1v1.1
			C423.2,103.9,424.1,104.8,425.3,104.8z"/>
		<path class="st1" d="M435.2,104.8h2.4c1.2,0,2.1-0.9,2.1-2.1v-1.1c0-1.2-0.9-2.1-2.1-2.1h-2.4c-1.2,0-2.1,0.9-2.1,2.1v1.1
			C433.1,103.9,434,104.8,435.2,104.8z"/>
		<path class="st1" d="M445.4,104.8h2.4c1.2,0,2.1-0.9,2.1-2.1v-1.1c0-1.2-0.9-2.1-2.1-2.1h-2.4c-1.2,0-2.1,0.9-2.1,2.1v1.1
			C443.3,103.9,444.2,104.8,445.4,104.8z"/>
		<path class="st1" d="M455.3,104.8h2.4c1.2,0,2.1-0.9,2.1-2.1v-1.1c0-1.2-0.9-2.1-2.1-2.1h-2.4c-1.2,0-2.1,0.9-2.1,2.1v1.1
			C453.2,103.9,454.2,104.8,455.3,104.8z"/>
		<path class="st1" d="M464.4,104.8h2.4c1.2,0,2.1-0.9,2.1-2.1v-1.1c0-1.2-0.9-2.1-2.1-2.1h-2.4c-1.2,0-2.1,0.9-2.1,2.1v1.1
			C462.3,103.9,463.2,104.8,464.4,104.8z"/>
		<path class="st1" d="M474.2,104.8h2.4c1.2,0,2.1-0.9,2.1-2.1v-1.1c0-1.2-0.9-2.1-2.1-2.1h-2.4c-1.2,0-2.1,0.9-2.1,2.1v1.1
			C472.1,103.9,473.1,104.8,474.2,104.8z"/>
		<path class="st1" d="M484.1,104.8h2.4c1.2,0,2.1-0.9,2.1-2.1v-1.1c0-1.2-0.9-2.1-2.1-2.1h-2.4c-1.2,0-2.1,0.9-2.1,2.1v1.1
			C482,103.9,483,104.8,484.1,104.8z"/>
		<path class="st1" d="M494.4,104.8h2.4c1.2,0,2.1-0.9,2.1-2.1v-1.1c0-1.2-0.9-2.1-2.1-2.1h-2.4c-1.2,0-2.1,0.9-2.1,2.1v1.1
			C492.3,103.9,493.2,104.8,494.4,104.8z"/>
		<path class="st1" d="M388.5,110.1v1.1c0,1.2,0.9,2.1,2.1,2.1h2.4c1.2,0,2.1-0.9,2.1-2.1v-1.1c0-1.2-0.9-2.1-2.1-2.1h-2.4
			C389.5,108,388.5,108.9,388.5,110.1z"/>
		<path class="st1" d="M398.5,110.1v1.1c0,1.2,0.9,2.1,2.1,2.1h2.4c1.2,0,2.1-0.9,2.1-2.1v-1.1c0-1.2-0.9-2.1-2.1-2.1h-2.4
			C399.4,108,398.5,108.9,398.5,110.1z"/>
		<path class="st1" d="M408.7,110.1v1.1c0,1.2,0.9,2.1,2.1,2.1h2.4c1.2,0,2.1-0.9,2.1-2.1v-1.1c0-1.2-0.9-2.1-2.1-2.1h-2.4
			C409.6,108,408.7,108.9,408.7,110.1z"/>
		<path class="st1" d="M418.6,110.1v1.1c0,1.2,0.9,2.1,2.1,2.1h2.4c1.2,0,2.1-0.9,2.1-2.1v-1.1c0-1.2-0.9-2.1-2.1-2.1h-2.4
			C419.5,108,418.6,108.9,418.6,110.1z"/>
		<path class="st1" d="M428.4,110.1v1.1c0,1.2,0.9,2.1,2.1,2.1h2.4c1.2,0,2.1-0.9,2.1-2.1v-1.1c0-1.2-0.9-2.1-2.1-2.1h-2.4
			C429.3,108,428.4,108.9,428.4,110.1z"/>
		<path class="st1" d="M438.3,110.1v1.1c0,1.2,0.9,2.1,2.1,2.1h2.4c1.2,0,2.1-0.9,2.1-2.1v-1.1c0-1.2-0.9-2.1-2.1-2.1h-2.4
			C439.3,108,438.3,108.9,438.3,110.1z"/>
		<path class="st1" d="M448.6,110.1v1.1c0,1.2,0.9,2.1,2.1,2.1h2.4c1.2,0,2.1-0.9,2.1-2.1v-1.1c0-1.2-0.9-2.1-2.1-2.1h-2.4
			C449.5,108,448.6,108.9,448.6,110.1z"/>
		<path class="st1" d="M458.5,110.1v1.1c0,1.2,0.9,2.1,2.1,2.1h2.4c1.2,0,2.1-0.9,2.1-2.1v-1.1c0-1.2-0.9-2.1-2.1-2.1h-2.4
			C459.4,108,458.5,108.9,458.5,110.1z"/>
		<path class="st1" d="M467.6,110.1v1.1c0,1.2,0.9,2.1,2.1,2.1h2.4c1.2,0,2.1-0.9,2.1-2.1v-1.1c0-1.2-0.9-2.1-2.1-2.1h-2.4
			C468.5,108,467.6,108.9,467.6,110.1z"/>
		<path class="st1" d="M477.4,110.1v1.1c0,1.2,0.9,2.1,2.1,2.1h2.4c1.2,0,2.1-0.9,2.1-2.1v-1.1c0-1.2-0.9-2.1-2.1-2.1h-2.4
			C478.3,108,477.4,108.9,477.4,110.1z"/>
		<path class="st1" d="M487.3,110.1v1.1c0,1.2,0.9,2.1,2.1,2.1h2.4c1.2,0,2.1-0.9,2.1-2.1v-1.1c0-1.2-0.9-2.1-2.1-2.1h-2.4
			C488.2,108,487.3,108.9,487.3,110.1z"/>
		<path class="st1" d="M502,108h-2.4c-1.2,0-2.1,0.9-2.1,2.1v1.1c0,1.2,0.9,2.1,2.1,2.1h2.4c1.2,0,2.1-0.9,2.1-2.1v-1.1
			C504.1,108.9,503.2,108,502,108z"/>
		<path class="st1" d="M389.9,119.7v-1.1c0-1.2-0.9-2.1-2.1-2.1h-2.4c-1.2,0-2.1,0.9-2.1,2.1v1.1c0,1.2,0.9,2.1,2.1,2.1h2.4
			C388.9,121.8,389.9,120.9,389.9,119.7z"/>
		<path class="st1" d="M399.8,119.7v-1.1c0-1.2-0.9-2.1-2.1-2.1h-2.4c-1.2,0-2.1,0.9-2.1,2.1v1.1c0,1.2,0.9,2.1,2.1,2.1h2.4
			C398.9,121.8,399.8,120.9,399.8,119.7z"/>
		<path class="st1" d="M410,119.7v-1.1c0-1.2-0.9-2.1-2.1-2.1h-2.4c-1.2,0-2.1,0.9-2.1,2.1v1.1c0,1.2,0.9,2.1,2.1,2.1h2.4
			C409.1,121.8,410,120.9,410,119.7z"/>
		<path class="st1" d="M420,119.7v-1.1c0-1.2-0.9-2.1-2.1-2.1h-2.4c-1.2,0-2.1,0.9-2.1,2.1v1.1c0,1.2,0.9,2.1,2.1,2.1h2.4
			C419,121.8,420,120.9,420,119.7z"/>
		<path class="st1" d="M429.8,119.7v-1.1c0-1.2-0.9-2.1-2.1-2.1h-2.4c-1.2,0-2.1,0.9-2.1,2.1v1.1c0,1.2,0.9,2.1,2.1,2.1h2.4
			C428.8,121.8,429.8,120.9,429.8,119.7z"/>
		<path class="st1" d="M437.6,121.8c1.2,0,2.1-0.9,2.1-2.1v-1.1c0-1.2-0.9-2.1-2.1-2.1h-2.4c-1.2,0-2.1,0.9-2.1,2.1v1.1
			c0,1.2,0.9,2.1,2.1,2.1H437.6z"/>
		<path class="st1" d="M447.8,121.8c1.2,0,2.1-0.9,2.1-2.1v-1.1c0-1.2-0.9-2.1-2.1-2.1h-2.4c-1.2,0-2.1,0.9-2.1,2.1v1.1
			c0,1.2,0.9,2.1,2.1,2.1H447.8z"/>
		<path class="st1" d="M457.7,121.8c1.2,0,2.1-0.9,2.1-2.1v-1.1c0-1.2-0.9-2.1-2.1-2.1h-2.4c-1.2,0-2.1,0.9-2.1,2.1v1.1
			c0,1.2,0.9,2.1,2.1,2.1H457.7z"/>
		<path class="st1" d="M468.9,119.7v-1.1c0-1.2-0.9-2.1-2.1-2.1h-2.4c-1.2,0-2.1,0.9-2.1,2.1v1.1c0,1.2,0.9,2.1,2.1,2.1h2.4
			C468,121.8,468.9,120.9,468.9,119.7z"/>
		<path class="st1" d="M478.7,119.7v-1.1c0-1.2-0.9-2.1-2.1-2.1h-2.4c-1.2,0-2.1,0.9-2.1,2.1v1.1c0,1.2,0.9,2.1,2.1,2.1h2.4
			C477.8,121.8,478.7,120.9,478.7,119.7z"/>
		<path class="st1" d="M488.6,119.7v-1.1c0-1.2-0.9-2.1-2.1-2.1h-2.4c-1.2,0-2.1,0.9-2.1,2.1v1.1c0,1.2,0.9,2.1,2.1,2.1h2.4
			C487.7,121.8,488.6,120.9,488.6,119.7z"/>
		<path class="st1" d="M498.9,119.7v-1.1c0-1.2-0.9-2.1-2.1-2.1h-2.4c-1.2,0-2.1,0.9-2.1,2.1v1.1c0,1.2,0.9,2.1,2.1,2.1h2.4
			C497.9,121.8,498.9,120.9,498.9,119.7z"/>
		<path class="st1" d="M469.8,134H423c-1.2,0-2.1,0.9-2.1,2.1v1.1c0,1.2,0.9,2.1,2.1,2.1h46.8c1.2,0,2.1-0.9,2.1-2.1v-1.1
			C471.9,134.9,470.9,134,469.8,134z"/>
		<path class="st1" d="M393,125h-2.4c-1.2,0-2.1,0.9-2.1,2.1v1.1c0,1.2,0.9,2.1,2.1,2.1h2.4c1.2,0,2.1-0.9,2.1-2.1v-1.1
			C395.1,125.9,394.2,125,393,125z"/>
		<path class="st1" d="M403,125h-2.4c-1.2,0-2.1,0.9-2.1,2.1v1.1c0,1.2,0.9,2.1,2.1,2.1h2.4c1.2,0,2.1-0.9,2.1-2.1v-1.1
			C405.1,125.9,404.1,125,403,125z"/>
		<path class="st1" d="M413.2,125h-2.4c-1.2,0-2.1,0.9-2.1,2.1v1.1c0,1.2,0.9,2.1,2.1,2.1h2.4c1.2,0,2.1-0.9,2.1-2.1v-1.1
			C415.3,125.9,414.3,125,413.2,125z"/>
		<path class="st1" d="M425.2,128.2v-1.1c0-1.2-0.9-2.1-2.1-2.1h-2.4c-1.2,0-2.1,0.9-2.1,2.1v1.1c0,1.2,0.9,2.1,2.1,2.1h2.4
			C424.3,130.3,425.2,129.4,425.2,128.2z"/>
		<path class="st1" d="M430.5,130.3h2.4c1.2,0,2.1-0.9,2.1-2.1v-1.1c0-1.2-0.9-2.1-2.1-2.1h-2.4c-1.2,0-2.1,0.9-2.1,2.1v1.1
			C428.4,129.4,429.3,130.3,430.5,130.3z"/>
		<path class="st1" d="M440.4,130.3h2.4c1.2,0,2.1-0.9,2.1-2.1v-1.1c0-1.2-0.9-2.1-2.1-2.1h-2.4c-1.2,0-2.1,0.9-2.1,2.1v1.1
			C438.3,129.4,439.3,130.3,440.4,130.3z"/>
		<path class="st1" d="M450.7,130.3h2.4c1.2,0,2.1-0.9,2.1-2.1v-1.1c0-1.2-0.9-2.1-2.1-2.1h-2.4c-1.2,0-2.1,0.9-2.1,2.1v1.1
			C448.6,129.4,449.5,130.3,450.7,130.3z"/>
		<path class="st1" d="M460.6,130.3h2.4c1.2,0,2.1-0.9,2.1-2.1v-1.1c0-1.2-0.9-2.1-2.1-2.1h-2.4c-1.2,0-2.1,0.9-2.1,2.1v1.1
			C458.5,129.4,459.4,130.3,460.6,130.3z"/>
		<path class="st1" d="M472.1,125h-2.4c-1.2,0-2.1,0.9-2.1,2.1v1.1c0,1.2,0.9,2.1,2.1,2.1h2.4c1.2,0,2.1-0.9,2.1-2.1v-1.1
			C474.2,125.9,473.2,125,472.1,125z"/>
		<path class="st1" d="M481.9,125h-2.4c-1.2,0-2.1,0.9-2.1,2.1v1.1c0,1.2,0.9,2.1,2.1,2.1h2.4c1.2,0,2.1-0.9,2.1-2.1v-1.1
			C484,125.9,483,125,481.9,125z"/>
		<path class="st1" d="M491.8,125h-2.4c-1.2,0-2.1,0.9-2.1,2.1v1.1c0,1.2,0.9,2.1,2.1,2.1h2.4c1.2,0,2.1-0.9,2.1-2.1v-1.1
			C493.9,125.9,493,125,491.8,125z"/>
		<path class="st1" d="M502,125h-2.4c-1.2,0-2.1,0.9-2.1,2.1v1.1c0,1.2,0.9,2.1,2.1,2.1h2.4c1.2,0,2.1-0.9,2.1-2.1v-1.1
			C504.1,125.9,503.2,125,502,125z"/>
		<rect x="325" y="10.9" class="st1" width="6.9" height="6.9"/>
		<rect x="542.4" y="56.9" class="st1" width="6.9" height="6.9"/>
		<rect x="532" y="56.9" class="st1" width="6.9" height="6.9"/>
		<rect x="521.6" y="56.9" class="st1" width="6.9" height="6.9"/>
		<path class="st1" d="M288.2,46c-8.8,0-15.9,7.1-15.9,15.9v22.5c0,8.8,7.1,15.9,15.9,15.9h5c8.8,0,15.9-7.1,15.9-15.9V61.8
			c0-8.8-7.1-15.9-15.9-15.9H288.2z M306.2,61.8v22.5c0,7.2-5.8,13-13,13h-5c-7.2,0-13-5.8-13-13V61.8c0-7.2,5.8-13,13-13h5
			C300.4,48.8,306.2,54.7,306.2,61.8z"/>
		<path class="st1" d="M505.1,91.8h-122c-6.3,0-11.4,5.1-11.4,11.4v31.5c0,6.3,5.1,11.4,11.4,11.4h122c6.3,0,11.4-5.1,11.4-11.4
			v-31.5C516.4,96.9,511.3,91.8,505.1,91.8z M513.6,134.6c0,4.7-3.8,8.5-8.5,8.5h-122c-4.7,0-8.5-3.8-8.5-8.5v-31.5
			c0-4.7,3.8-8.5,8.5-8.5h122c4.7,0,8.5,3.8,8.5,8.5V134.6z"/>
		<polygon class="st1" points="6.8,90.8 7,89.5 7.3,90.8 10,101.8 11,101.8 14,87.7 12.9,87.7 10.8,98 10.4,100.1 10,98.1 7.5,87.7 
			6.5,87.7 4,98.1 3.6,100.1 3.2,98 1.1,87.7 0,87.7 3,101.8 4.1,101.8 		"/>
		<rect x="16.1" y="87.7" class="st1" width="1.1" height="14.1"/>
		<polygon class="st1" points="21.5,89.8 28.1,101.8 29.2,101.8 29.2,87.7 28.1,87.7 28.1,99.7 21.5,87.7 20.3,87.7 20.3,101.8 
			21.5,101.8 		"/>
		<path class="st1" d="M37.5,101.4c0.6-0.2,1.2-0.6,1.6-1.1c0.4-0.5,0.8-1.1,1-1.8c0.2-0.7,0.4-1.5,0.4-2.4v-2.8
			c0-0.9-0.1-1.7-0.4-2.4c-0.2-0.7-0.6-1.3-1-1.8c-0.4-0.5-1-0.8-1.6-1.1c-0.6-0.2-1.3-0.4-2-0.4h-3.3v14.1h3.2
			C36.2,101.8,36.9,101.7,37.5,101.4z M33.3,88.7h2.2c0.6,0,1.2,0.1,1.6,0.3c0.5,0.2,0.9,0.5,1.2,0.9s0.6,0.9,0.8,1.4
			c0.2,0.6,0.3,1.2,0.3,2v2.9c0,0.7-0.1,1.4-0.3,2c-0.2,0.6-0.4,1.1-0.8,1.4c-0.3,0.4-0.8,0.7-1.3,0.9c-0.5,0.2-1.1,0.3-1.7,0.3
			h-2.1V88.7z"/>
		<path class="st1" d="M51.8,96.3v-3c0-0.9-0.1-1.8-0.3-2.5C51.3,90,51,89.4,50.6,89s-0.9-0.9-1.4-1.1c-0.6-0.2-1.2-0.4-1.9-0.4
			c-0.7,0-1.3,0.1-1.9,0.4c-0.6,0.2-1,0.6-1.4,1.1S43.2,90,43,90.8c-0.2,0.7-0.3,1.5-0.3,2.5v3c0,0.9,0.1,1.8,0.3,2.5
			c0.2,0.7,0.5,1.3,0.9,1.8c0.4,0.5,0.9,0.8,1.4,1.1c0.6,0.2,1.2,0.4,1.9,0.4c0.7,0,1.3-0.1,1.9-0.4c0.6-0.2,1-0.6,1.4-1.1
			s0.7-1.1,0.9-1.8S51.8,97.2,51.8,96.3z M50.7,96.3c0,1.6-0.3,2.7-0.9,3.5c-0.6,0.8-1.4,1.2-2.6,1.2c-1.1,0-1.9-0.4-2.6-1.2
			c-0.6-0.8-0.9-1.9-0.9-3.5v-3.1c0-1.5,0.3-2.7,0.9-3.5s1.5-1.2,2.5-1.2c1.1,0,2,0.4,2.6,1.2s0.9,1.9,0.9,3.5V96.3z"/>
		<polygon class="st1" points="64.4,101.8 67.4,87.7 66.3,87.7 64.2,98 63.9,100.1 63.4,98.1 60.9,87.7 60,87.7 57.4,98.1 57,100.1 
			56.7,98 54.6,87.7 53.4,87.7 56.4,101.8 57.5,101.8 60.2,90.8 60.5,89.5 60.7,90.8 63.4,101.8 		"/>
		<rect x="69.5" y="87.7" class="st1" width="1.1" height="14.1"/>
		<polygon class="st1" points="74.9,89.8 81.5,101.8 82.6,101.8 82.6,87.7 81.5,87.7 81.5,99.7 74.9,87.7 73.8,87.7 73.8,101.8 
			74.9,101.8 		"/>
		<path class="st1" d="M90,96.1h3.1v3.7c-0.1,0.1-0.2,0.2-0.4,0.3c-0.2,0.1-0.4,0.3-0.6,0.4s-0.5,0.2-0.9,0.3
			c-0.3,0.1-0.7,0.1-1.2,0.1c-0.6,0-1.1-0.1-1.5-0.3s-0.8-0.5-1.1-0.9c-0.3-0.4-0.5-0.9-0.7-1.5c-0.2-0.6-0.3-1.2-0.3-2v-3.3
			c0-1.5,0.3-2.6,0.9-3.4c0.6-0.8,1.4-1.1,2.6-1.1c0.5,0,1,0.1,1.4,0.2c0.4,0.1,0.7,0.3,1,0.6s0.5,0.6,0.6,1s0.2,0.8,0.3,1.3h1.1
			c0-0.7-0.2-1.2-0.4-1.8s-0.5-1-0.8-1.3c-0.4-0.4-0.8-0.6-1.3-0.8c-0.5-0.2-1.1-0.3-1.8-0.3c-0.7,0-1.4,0.1-1.9,0.4
			c-0.6,0.2-1,0.6-1.4,1.1c-0.4,0.5-0.7,1.1-0.9,1.8s-0.3,1.5-0.3,2.4v3.2c0,0.9,0.1,1.8,0.3,2.5c0.2,0.7,0.5,1.3,1,1.8
			c0.4,0.5,0.9,0.8,1.5,1.1c0.6,0.2,1.2,0.4,1.9,0.4c0.6,0,1.2-0.1,1.6-0.2c0.5-0.1,0.9-0.3,1.2-0.5c0.3-0.2,0.6-0.4,0.8-0.6
			c0.2-0.2,0.4-0.4,0.5-0.5v-5.1H90V96.1z"/>
		<path class="st1" d="M460,359.4h65.4V294H460V359.4z M465.7,299.7h54v54h-54V299.7z"/>
		<path class="st1" d="M357.1,294c-18,0-32.7,14.7-32.7,32.7s14.7,32.7,32.7,32.7s32.7-14.7,32.7-32.7S375.1,294,357.1,294z
			 M357.1,353.7c-14.9,0-27-12.1-27-27c0-14.9,12.1-27,27-27c14.9,0,27,12.1,27,27C384.1,341.6,372,353.7,357.1,353.7z"/>
		<path class="st1" d="M386.3,359.4h69l-34.5-69L386.3,359.4z M395.6,353.7l25.2-50.4l25.2,50.4H395.6z"/>
		<path class="st1" d="M318.1,307.8l-32.7-18.9l-32.7,18.9v37.8l32.7,18.9l32.7-18.9V307.8z M312.3,342.3l-27,15.6l-27-15.6v-31.2
			l27-15.6l27,15.6V342.3z"/>
		<path class="st1" d="M12.1,323.9c-0.2,0.3-0.4,0.7-0.6,1.1c-0.2,0.4-0.6,0.8-0.9,1.3l-3.9,5.2v0.9h7.5v-1H8l3.3-4.4
			c0.3-0.4,0.6-0.8,0.9-1.2c0.3-0.4,0.5-0.8,0.7-1.3s0.4-0.9,0.5-1.3s0.2-0.9,0.2-1.3c0-0.6-0.1-1.1-0.2-1.6
			c-0.2-0.5-0.4-0.9-0.7-1.2c-0.3-0.3-0.7-0.6-1.1-0.7s-0.9-0.3-1.5-0.3c-0.6,0-1.1,0.1-1.6,0.3c-0.5,0.2-0.8,0.5-1.2,0.9
			c-0.3,0.4-0.6,0.8-0.7,1.4c-0.2,0.5-0.3,1.1-0.3,1.6h1.1c0-0.5,0.1-0.9,0.2-1.3c0.1-0.4,0.3-0.7,0.5-1c0.2-0.3,0.5-0.5,0.8-0.7
			c0.3-0.2,0.7-0.2,1.1-0.2c0.4,0,0.7,0.1,1,0.2c0.3,0.1,0.6,0.3,0.8,0.6c0.2,0.3,0.4,0.6,0.5,0.9s0.2,0.7,0.2,1.2
			c0,0.3,0,0.6-0.1,0.9S12.3,323.6,12.1,323.9z"/>
		<path class="st1" d="M23.3,319.8c-0.4-0.5-1-0.8-1.6-1.1c-0.6-0.2-1.3-0.4-2-0.4h-3.3v14.1h3.2c0.8,0,1.5-0.1,2.1-0.4
			c0.6-0.2,1.2-0.6,1.6-1.1c0.4-0.5,0.8-1.1,1-1.8c0.2-0.7,0.4-1.5,0.4-2.4V324c0-0.9-0.1-1.7-0.4-2.4
			C24.1,320.9,23.7,320.3,23.3,319.8z M23.6,326.8c0,0.7-0.1,1.4-0.3,2c-0.2,0.6-0.4,1.1-0.8,1.4c-0.3,0.4-0.8,0.7-1.3,0.9
			c-0.5,0.2-1.1,0.3-1.7,0.3h-2.1v-12h2.2c0.6,0,1.2,0.1,1.6,0.3c0.5,0.2,0.9,0.5,1.2,0.9s0.6,0.9,0.8,1.4c0.2,0.6,0.3,1.2,0.3,2
			V326.8z"/>
		<path class="st1" d="M35.6,318.4h-1l-4.5,14.1h1.2l1.2-3.9h5.3l1.2,3.9h1.2L35.6,318.4z M32.8,327.5l2.3-7.6l2.3,7.6H32.8z"/>
		<path class="st1" d="M48.6,326.3c-0.3-0.3-0.7-0.6-1.2-0.9c-0.5-0.2-1-0.5-1.7-0.7c-0.6-0.2-1.1-0.4-1.5-0.6s-0.7-0.4-1-0.7
			c-0.2-0.2-0.4-0.5-0.5-0.8c-0.1-0.3-0.2-0.6-0.2-0.9c0-0.4,0.1-0.7,0.2-1s0.3-0.6,0.5-0.8c0.2-0.2,0.5-0.4,0.9-0.6
			c0.4-0.1,0.8-0.2,1.3-0.2c0.5,0,0.9,0.1,1.3,0.2c0.4,0.2,0.7,0.4,0.9,0.7c0.3,0.3,0.4,0.6,0.6,1c0.1,0.4,0.2,0.8,0.2,1.3h1.1
			c0-0.6-0.1-1.1-0.3-1.7c-0.2-0.5-0.5-1-0.8-1.3c-0.4-0.4-0.8-0.7-1.3-0.9c-0.5-0.2-1.1-0.3-1.7-0.3c-0.6,0-1.1,0.1-1.6,0.3
			c-0.5,0.2-0.9,0.4-1.3,0.7c-0.4,0.3-0.6,0.7-0.8,1.2s-0.3,0.9-0.3,1.5c0,0.6,0.1,1,0.3,1.5c0.2,0.4,0.4,0.8,0.8,1.1
			s0.7,0.6,1.2,0.8c0.5,0.2,1,0.5,1.6,0.7c0.6,0.2,1.1,0.4,1.5,0.6c0.4,0.2,0.7,0.4,1,0.7c0.2,0.2,0.4,0.5,0.5,0.8s0.2,0.6,0.2,1
			c0,0.4-0.1,0.8-0.2,1.1c-0.1,0.3-0.3,0.6-0.6,0.8s-0.6,0.4-0.9,0.5c-0.4,0.1-0.8,0.2-1.2,0.2c-0.4,0-0.8-0.1-1.2-0.2
			c-0.4-0.1-0.8-0.3-1.1-0.5c-0.3-0.3-0.6-0.6-0.8-1s-0.3-0.9-0.3-1.5H41c0,0.8,0.1,1.4,0.4,1.9c0.3,0.5,0.6,1,1,1.3
			c0.4,0.3,0.9,0.6,1.4,0.8c0.5,0.2,1.1,0.2,1.6,0.2c0.6,0,1.1-0.1,1.6-0.3c0.5-0.2,0.9-0.4,1.3-0.7s0.6-0.7,0.8-1.2
			c0.2-0.5,0.3-1,0.3-1.5c0-0.6-0.1-1.1-0.3-1.5C49.1,327,48.9,326.7,48.6,326.3z"/>
		<path class="st1" d="M55.4,332.7c0.6,0,1.1-0.1,1.6-0.3c0.5-0.2,0.9-0.4,1.3-0.7s0.6-0.7,0.8-1.2c0.2-0.5,0.3-1,0.3-1.5
			c0-0.6-0.1-1.1-0.3-1.5c-0.2-0.4-0.4-0.8-0.8-1.1c-0.3-0.3-0.7-0.6-1.2-0.9c-0.5-0.2-1-0.5-1.7-0.7c-0.6-0.2-1.1-0.4-1.5-0.6
			s-0.7-0.4-1-0.7c-0.2-0.2-0.4-0.5-0.5-0.8c-0.1-0.3-0.2-0.6-0.2-0.9c0-0.4,0.1-0.7,0.2-1s0.3-0.6,0.5-0.8c0.2-0.2,0.5-0.4,0.9-0.6
			c0.4-0.1,0.8-0.2,1.3-0.2c0.5,0,0.9,0.1,1.3,0.2c0.4,0.2,0.7,0.4,0.9,0.7c0.3,0.3,0.4,0.6,0.6,1c0.1,0.4,0.2,0.8,0.2,1.3h1.1
			c0-0.6-0.1-1.1-0.3-1.7c-0.2-0.5-0.5-1-0.8-1.3c-0.4-0.4-0.8-0.7-1.3-0.9c-0.5-0.2-1.1-0.3-1.7-0.3c-0.6,0-1.1,0.1-1.6,0.3
			c-0.5,0.2-0.9,0.4-1.3,0.7c-0.4,0.3-0.6,0.7-0.8,1.2s-0.3,0.9-0.3,1.5c0,0.6,0.1,1,0.3,1.5c0.2,0.4,0.4,0.8,0.8,1.1
			s0.7,0.6,1.2,0.8c0.5,0.2,1,0.5,1.6,0.7c0.6,0.2,1.1,0.4,1.5,0.6c0.4,0.2,0.7,0.4,1,0.7c0.2,0.2,0.4,0.5,0.5,0.8s0.2,0.6,0.2,1
			c0,0.4-0.1,0.8-0.2,1.1c-0.1,0.3-0.3,0.6-0.6,0.8s-0.6,0.4-0.9,0.5c-0.4,0.1-0.8,0.2-1.2,0.2c-0.4,0-0.8-0.1-1.2-0.2
			c-0.4-0.1-0.8-0.3-1.1-0.5c-0.3-0.3-0.6-0.6-0.8-1S52,329,52,328.4h-1.1c0,0.8,0.1,1.4,0.4,1.9c0.3,0.5,0.6,1,1,1.3
			c0.4,0.3,0.9,0.6,1.4,0.8C54.3,332.6,54.8,332.7,55.4,332.7z"/>
		<polygon class="st1" points="68.9,319.4 68.9,318.4 61.6,318.4 61.6,332.5 69,332.5 69,331.4 62.7,331.4 62.7,325.7 68.1,325.7 
			68.1,324.7 62.7,324.7 62.7,319.4 		"/>
		<polygon class="st1" points="75.3,332.5 75.3,319.4 79.3,319.4 79.3,318.4 70.2,318.4 70.2,319.4 74.2,319.4 74.2,332.5 		"/>
		<path class="st1" d="M86.3,332.4c0.5-0.2,0.9-0.4,1.3-0.7s0.6-0.7,0.8-1.2c0.2-0.5,0.3-1,0.3-1.5c0-0.6-0.1-1.1-0.3-1.5
			c-0.2-0.4-0.4-0.8-0.8-1.1c-0.3-0.3-0.7-0.6-1.2-0.9c-0.5-0.2-1-0.5-1.7-0.7c-0.6-0.2-1.1-0.4-1.5-0.6s-0.7-0.4-1-0.7
			c-0.2-0.2-0.4-0.5-0.5-0.8c-0.1-0.3-0.2-0.6-0.2-0.9c0-0.4,0.1-0.7,0.2-1s0.3-0.6,0.5-0.8c0.2-0.2,0.5-0.4,0.9-0.6
			c0.4-0.1,0.8-0.2,1.3-0.2c0.5,0,0.9,0.1,1.3,0.2c0.4,0.2,0.7,0.4,0.9,0.7c0.3,0.3,0.4,0.6,0.6,1c0.1,0.4,0.2,0.8,0.2,1.3h1.1
			c0-0.6-0.1-1.1-0.3-1.7c-0.2-0.5-0.5-1-0.8-1.3c-0.4-0.4-0.8-0.7-1.3-0.9c-0.5-0.2-1.1-0.3-1.7-0.3c-0.6,0-1.1,0.1-1.6,0.3
			c-0.5,0.2-0.9,0.4-1.3,0.7c-0.4,0.3-0.6,0.7-0.8,1.2s-0.3,0.9-0.3,1.5c0,0.6,0.1,1,0.3,1.5c0.2,0.4,0.4,0.8,0.8,1.1
			s0.7,0.6,1.2,0.8c0.5,0.2,1,0.5,1.6,0.7c0.6,0.2,1.1,0.4,1.5,0.6c0.4,0.2,0.7,0.4,1,0.7c0.2,0.2,0.4,0.5,0.5,0.8s0.2,0.6,0.2,1
			c0,0.4-0.1,0.8-0.2,1.1c-0.1,0.3-0.3,0.6-0.6,0.8s-0.6,0.4-0.9,0.5c-0.4,0.1-0.8,0.2-1.2,0.2c-0.4,0-0.8-0.1-1.2-0.2
			c-0.4-0.1-0.8-0.3-1.1-0.5c-0.3-0.3-0.6-0.6-0.8-1s-0.3-0.9-0.3-1.5h-1.1c0,0.8,0.1,1.4,0.4,1.9c0.3,0.5,0.6,1,1,1.3
			c0.4,0.3,0.9,0.6,1.4,0.8c0.5,0.2,1.1,0.2,1.6,0.2C85.3,332.7,85.8,332.6,86.3,332.4z"/>
		<path class="st1" d="M7.9,560.7H11v3.7c-0.1,0.1-0.2,0.2-0.4,0.3c-0.2,0.1-0.4,0.3-0.6,0.4s-0.5,0.2-0.9,0.3
			c-0.3,0.1-0.7,0.1-1.2,0.1c-0.6,0-1.1-0.1-1.5-0.3s-0.8-0.5-1.1-0.9c-0.3-0.4-0.5-0.9-0.7-1.5c-0.2-0.6-0.3-1.2-0.3-2v-3.3
			c0-1.5,0.3-2.6,0.9-3.4c0.6-0.8,1.4-1.1,2.6-1.1c0.5,0,1,0.1,1.4,0.2c0.4,0.1,0.7,0.3,1,0.6s0.5,0.6,0.6,1s0.2,0.8,0.3,1.3h1.1
			c0-0.7-0.2-1.2-0.4-1.8s-0.5-1-0.8-1.3c-0.4-0.4-0.8-0.6-1.3-0.8C9,552.1,8.5,552,7.8,552c-0.7,0-1.4,0.1-1.9,0.4
			c-0.6,0.2-1,0.6-1.4,1.1c-0.4,0.5-0.7,1.1-0.9,1.8s-0.3,1.5-0.3,2.4v3.2c0,0.9,0.1,1.8,0.3,2.5c0.2,0.7,0.5,1.3,1,1.8
			c0.4,0.5,0.9,0.8,1.5,1.1c0.6,0.2,1.2,0.4,1.9,0.4c0.6,0,1.2-0.1,1.6-0.2c0.5-0.1,0.9-0.3,1.2-0.5c0.3-0.2,0.6-0.4,0.8-0.6
			c0.2-0.2,0.4-0.4,0.5-0.5v-5.1H7.9V560.7z"/>
		<path class="st1" d="M18.1,552.2l-4.5,14.1h1.2l1.2-3.9h5.3l1.2,3.9h1.2l-4.5-14.1H18.1z M16.3,561.4l2.3-7.6l2.3,7.6H16.3z"/>
		<polygon class="st1" points="31.1,564.6 26.8,552.2 25.4,552.2 25.4,566.3 26.5,566.3 26.5,560.2 26.4,554.1 30.7,566.3 
			31.5,566.3 35.9,554.1 35.8,560.2 35.8,566.3 36.9,566.3 36.9,552.2 35.4,552.2 		"/>
		<polygon class="st1" points="40.9,559.6 46.4,559.6 46.4,558.6 40.9,558.6 40.9,553.3 47.2,553.3 47.2,552.2 39.8,552.2 
			39.8,566.3 47.2,566.3 47.2,565.3 40.9,565.3 		"/>
		<polygon class="st1" points="54.5,552.2 53.3,552.2 53.3,566.3 60.3,566.3 60.3,565.3 54.5,565.3 		"/>
		<path class="st1" d="M69.1,553.5c-0.4-0.5-0.9-0.9-1.4-1.1c-0.6-0.2-1.2-0.4-1.9-0.4c-0.7,0-1.3,0.1-1.9,0.4
			c-0.6,0.2-1,0.6-1.4,1.1s-0.7,1.1-0.9,1.8c-0.2,0.7-0.3,1.5-0.3,2.5v3c0,0.9,0.1,1.8,0.3,2.5c0.2,0.7,0.5,1.3,0.9,1.8
			c0.4,0.5,0.9,0.8,1.4,1.1c0.6,0.2,1.2,0.4,1.9,0.4c0.7,0,1.3-0.1,1.9-0.4c0.6-0.2,1-0.6,1.4-1.1s0.7-1.1,0.9-1.8s0.3-1.5,0.3-2.5
			v-3c0-0.9-0.1-1.8-0.3-2.5C69.8,554.6,69.4,554,69.1,553.5z M69.2,560.8c0,1.6-0.3,2.7-0.9,3.5c-0.6,0.8-1.4,1.2-2.6,1.2
			c-1.1,0-1.9-0.4-2.6-1.2c-0.6-0.8-0.9-1.9-0.9-3.5v-3.1c0-1.5,0.3-2.7,0.9-3.5s1.5-1.2,2.5-1.2c1.1,0,2,0.4,2.6,1.2
			s0.9,1.9,0.9,3.5V560.8z"/>
		<path class="st1" d="M80.4,553.5c-0.4-0.5-0.9-0.9-1.4-1.1c-0.6-0.2-1.2-0.4-1.9-0.4c-0.7,0-1.3,0.1-1.9,0.4
			c-0.6,0.2-1,0.6-1.4,1.1s-0.7,1.1-0.9,1.8c-0.2,0.7-0.3,1.5-0.3,2.5v3c0,0.9,0.1,1.8,0.3,2.5c0.2,0.7,0.5,1.3,0.9,1.8
			c0.4,0.5,0.9,0.8,1.4,1.1c0.6,0.2,1.2,0.4,1.9,0.4c0.7,0,1.3-0.1,1.9-0.4c0.6-0.2,1-0.6,1.4-1.1s0.7-1.1,0.9-1.8s0.3-1.5,0.3-2.5
			v-3c0-0.9-0.1-1.8-0.3-2.5C81.1,554.6,80.8,554,80.4,553.5z M80.5,560.8c0,1.6-0.3,2.7-0.9,3.5c-0.6,0.8-1.4,1.2-2.6,1.2
			c-1.1,0-1.9-0.4-2.6-1.2c-0.6-0.8-0.9-1.9-0.9-3.5v-3.1c0-1.5,0.3-2.7,0.9-3.5s1.5-1.2,2.5-1.2c1.1,0,2,0.4,2.6,1.2
			s0.9,1.9,0.9,3.5V560.8z"/>
		<path class="st1" d="M91.3,553.4c-0.3-0.4-0.8-0.7-1.3-0.9c-0.5-0.2-1.1-0.3-1.7-0.3h-4.1v14.1h1.1v-5.7h3c0.7,0,1.2-0.1,1.7-0.3
			c0.5-0.2,0.9-0.5,1.3-0.8s0.6-0.8,0.8-1.3c0.2-0.5,0.3-1.1,0.3-1.8c0-0.6-0.1-1.2-0.3-1.7C91.9,554.2,91.6,553.8,91.3,553.4z
			 M91,557.7c-0.1,0.4-0.3,0.7-0.5,1s-0.5,0.5-0.9,0.7c-0.4,0.2-0.8,0.2-1.3,0.2h-3v-6.3h3c0.5,0,1,0.1,1.3,0.3
			c0.4,0.2,0.7,0.4,0.9,0.7c0.2,0.3,0.4,0.6,0.5,1s0.2,0.8,0.2,1.2C91.2,556.9,91.1,557.3,91,557.7z"/>
		<path class="st1" d="M267.7,566.8c0,2.9-1.1,5-4,5s-4-2.1-4-5v-20.1H258v20.1c0,3.7,1.6,6.7,5.7,6.7s5.6-2.9,5.6-6.7v-20.1h-1.6
			V566.8z"/>
		<path class="st1" d="M277.8,546.8h-5.4v26.5h1.7v-10.9h3.3c4.2,0,6.2-2.1,6.2-6.3v-2.9C283.5,549.4,281.9,546.8,277.8,546.8z
			 M277.3,560.8h-3.3v-12.5h3.7c3,0,3.9,1.9,3.9,4.7v3.2h0.1C281.8,559.4,280.5,560.8,277.3,560.8z"/>
		<path class="st1" d="M292,546.8h-5.9v26.5h5.9c4.2,0,5.9-2.7,5.9-6.6v-13.3C297.8,549.5,296.1,546.8,292,546.8z M296.1,566.7
			c0,2.9-1.1,4.9-4.2,4.9h-4v-23.2h4c2.9,0,4.2,2,4.2,4.9V566.7z"/>
		<path class="st1" d="M303.3,567.4h8.3l1.3,5.9h1.7l-5.9-26.5h-2.6l-5.7,26.5h1.6L303.3,567.4z M307.3,548.8l3.9,17.2h-7.7
			L307.3,548.8z"/>
		<polygon class="st1" points="323.5,573.3 323.5,548.4 328.9,548.4 328.9,546.8 316.3,546.8 316.3,548.4 321.8,548.4 321.8,573.3 
					"/>
		<polygon class="st1" points="341.5,548.4 341.5,546.8 331.1,546.8 331.1,573.3 341.5,573.3 341.5,571.7 332.9,571.7 332.9,560.5 
			340.1,560.5 340.1,559 332.9,559 332.9,548.4 		"/>
		<path class="st1" d="M447.9,573.3h1.9c-0.6-0.9-0.6-2.1-0.6-3.2V566c0-2.9-1.1-4.9-3.9-5.4c2.6-0.6,3.9-2.4,3.9-5.4v-2.3
			c0-3.7-1.6-6-5.7-6h-5.6v26.5h1.7v-11.9h2.7c3,0,5,1,5,4.4v4.2C447.3,571.6,447.4,572.4,447.9,573.3z M439.6,559.8v-11.5h3.7
			c2.9,0,4,1.7,4,4.6v2.4c0,3.6-1.9,4.4-4.9,4.4H439.6z"/>
		<polygon class="st1" points="462.9,548.4 462.9,546.8 452.5,546.8 452.5,573.3 462.9,573.3 462.9,571.7 454.2,571.7 454.2,560.5 
			461.3,560.5 461.3,559 454.2,559 454.2,548.4 		"/>
		<polygon class="st1" points="476,569.1 467.9,546.8 465.6,546.8 465.6,573.3 467.2,573.3 467.2,549.6 475.5,573.3 477.5,573.3 
			477.5,546.8 476,546.8 		"/>
		<path class="st1" d="M486.3,546.8h-5.9v26.5h5.9c4.2,0,5.9-2.7,5.9-6.6v-13.3C492.2,549.5,490.4,546.8,486.3,546.8z M490.4,566.7
			c0,2.9-1.1,4.9-4.2,4.9h-4v-23.2h4c2.9,0,4.2,2,4.2,4.9V566.7z"/>
		<polygon class="st1" points="495,573.3 505.5,573.3 505.5,571.7 496.7,571.7 496.7,560.5 504,560.5 504,559 496.7,559 
			496.7,548.4 505.5,548.4 505.5,546.8 495,546.8 		"/>
		<path class="st1" d="M519.5,566c0-2.9-1.1-4.9-3.9-5.4c2.6-0.6,3.9-2.4,3.9-5.4v-2.3c0-3.7-1.6-6-5.7-6h-5.6v26.5h1.7v-11.9h2.7
			c3,0,5,1,5,4.4v4.2c0,1.4,0.1,2.4,0.6,3.2h1.9c-0.4-0.7-0.6-2-0.6-3V566z M510.1,559.8v-11.5h3.7c2.9,0,4,1.7,4,4.6v2.4
			c0,3.6-1.9,4.4-4.9,4.4H510.1z"/>
		<path class="st1" d="M389,648.1c-30.8,0-59-16.2-74.8-42.1l7.3-3.4l-20.1-15.8l-0.6,25.7l8.2-3.9c16.8,27.8,47,45.3,80,45.3
			c36.8,0,70.4-21.8,85.4-55.6l-5.3-2.3C455,627.6,423.7,648.1,389,648.1z"/>
		<path class="st1" d="M476,508.2l-7,4c-16.8-27.7-47-45-80-45c-36.8,0-70.4,21.8-85.3,55.6l5.3,2.3c13.9-31.7,45.4-52.2,80-52.2
			c30.8,0,59.2,16.3,74.9,42.3l-7.9,4.4l21.4,14.2L476,508.2z"/>
	</g>
</g>
</svg>
