<?xml version="1.0" encoding="utf-8"?>
<!-- Generator: Adobe Illustrator 19.0.1, SVG Export Plug-In . SVG Version: 6.00 Build 0)  -->
<svg version="1.1" xmlns="http://www.w3.org/2000/svg" xmlns:xlink="http://www.w3.org/1999/xlink" x="0px" y="0px"
	 viewBox="0 0 255.2 255.2" style="enable-background:new 0 0 255.2 255.2;" xml:space="preserve">
<style type="text/css">
	.st0{fill:#33C5F3;}
	.st1{fill:#FFFFFF;}
	.st2{fill:#3399CC;}
	.st3{fill:#676767;}
	.st4{fill:#989898;}
	.st5{fill:#0098CC;}
	.st6{fill:#F9F9F9;}
	.st7{fill:none;stroke:#FFFFFF;stroke-width:4;stroke-miterlimit:10;}
	.st8{fill:none;stroke:#FFFFFF;stroke-width:3.2021;stroke-miterlimit:10;}
	.st9{fill:#5E5E5E;}
	.st10{fill:#F68F3E;}
	.st11{fill:#B04B26;}
	.st12{fill:#9CCCA2;}
	.st13{fill:#739560;}
	.st14{fill:#A1C4C8;}
	.st15{fill:#627789;}
	.st16{fill:#D8C380;}
	.st17{fill:#97754B;}
	.st18{fill:#AB5D47;}
	.st19{fill:#7D2A38;}
	.st20{fill:#58612B;}
	.st21{fill:#273E1F;}
	.st22{fill:#47998B;}
	.st23{fill:#227783;}
	.st24{fill:#D4B1AB;}
	.st25{fill:#926777;}
	.st26{fill:#5D5D5D;}
	.st27{fill:#FF9966;}
</style>
<g id="Layer_1">
</g>
<g id="Layer_2">
	<g>
		<circle class="st0" cx="127.6" cy="127.6" r="127.6"/>
		<path class="st5" d="M255.2,127.6c0-13.6-2.1-26.7-6.1-39L229,68.4l-11.4,17.7l-8.4,18.5l-36.1-36.1l13.3,36.8l-36.7-36.8
			l-0.3,45.5L104,68.4l-0.2,59.9l-60-59.9l-9.1,125.1l56.1,56.2c11.7,3.5,24,5.4,36.9,5.4C198.1,255.2,255.2,198.1,255.2,127.6z"/>
		<g>
			<path class="st1" d="M35.5,195.1V68.4h8.3v119h39.8v7.6H35.5z"/>
			<path class="st1" d="M104,164.5c0,13.6,5.1,24.1,19,24.1s19-10.5,19-24.1V68.4h7.8v95.7c0,18.1-7.6,32-27,32
				c-19.4,0-27.1-13.9-27.1-32V68.4h8.3V164.5z"/>
			<path class="st1" d="M196.3,136.1l-25.7,59h-8.1l28.6-65.7l-26.6-61h8.7l23.9,54.4l24.1-54.4h8l-26.6,61l28.4,65.7H222
				L196.3,136.1z"/>
		</g>
	</g>
</g>
</svg>
