<?xml version="1.0" encoding="utf-8"?>
<!-- Generator: Adobe Illustrator 19.0.1, SVG Export Plug-In . SVG Version: 6.00 Build 0)  -->
<svg version="1.1" id="Layer_1" xmlns="http://www.w3.org/2000/svg" xmlns:xlink="http://www.w3.org/1999/xlink" x="0px" y="0px"
	 viewBox="501.1 191.2 350 350" style="enable-background:new 501.1 191.2 350 350;" xml:space="preserve">
<style type="text/css">
	.st0{fill:#0098CC;}
	.st1{fill:#FFFFFF;}
	.st2{fill:#F9F9F9;}
</style>
<g>
	<g>
		<path class="st0" d="M841.2,418.1c-47.1-47.1-77.7-78.1-78.3-79.8l-14.3-14.4l-8.1,12.6l-6,13.2l-25.8-25.9l9.5,26.3L692,323.9
			l-0.2,32.6l-32.5-32.6l-0.1,42.8l-42.9-42.8l-6.5,89.4l40.2,40.2c1.5,0.4,33.2,31.2,80.2,77C783,513.2,824.5,471.2,841.2,418.1z"
			/>
	</g>
	<g id="Layer_1_1_">
		<g>
			<g>
				<g>
					<path class="st1" d="M610.3,414.3v-90.4h5.9v85h28.5v5.4H610.3z"/>
				</g>
				<g>
					<path class="st1" d="M659.3,392.6c0,9.7,3.6,17.1,13.5,17.1c9.9,0,13.5-7.5,13.5-17.1V324h5.5v68.4c0,12.9-5.4,22.9-19.2,22.9
						c-13.8,0-19.3-9.9-19.3-22.9V324h5.9v68.6H659.3z"/>
				</g>
				<g>
					<path class="st1" d="M725.2,372.2l-18.3,42.1h-5.8l20.4-46.9l-18.9-43.5h6.2l17,38.9l17.1-38.9h5.7l-18.9,43.5l20.2,46.9h-6.3
						L725.2,372.2z"/>
				</g>
			</g>
			<g>
				<g>
					<path class="st2" d="M675.9,528c-4,0-8.1-0.2-12.1-0.5l0.4-5c3.9,0.3,7.8,0.4,11.7,0.4V528z M687.9,527.6l-0.4-5
						c3.9-0.3,7.8-0.7,11.6-1.3l0.7,4.9C696,526.8,691.9,527.3,687.9,527.6z M651.7,526.2c-4-0.6-8-1.4-11.9-2.2l1.1-4.9
						c3.8,0.9,7.6,1.6,11.5,2.2L651.7,526.2z M711.9,524l-1.1-4.9c3.8-0.9,7.6-1.9,11.3-3l1.5,4.8
						C719.7,522.1,715.8,523.2,711.9,524z M628.2,520.8c-3.8-1.2-7.7-2.5-11.4-4l1.8-4.7c3.6,1.4,7.3,2.7,11,3.9L628.2,520.8z
						 M735,516.9l-1.8-4.7c3.6-1.4,7.2-3,10.7-4.7l2.2,4.5C742.5,513.8,738.7,515.4,735,516.9z M605.7,511.9
						c-3.6-1.7-7.2-3.6-10.7-5.7l2.5-4.3c3.4,1.9,6.8,3.8,10.3,5.5L605.7,511.9z M756.8,506.4l-2.5-4.3c3.4-1.9,6.7-4,9.9-6.2
						l2.8,4.1C763.7,502.3,760.3,504.4,756.8,506.4z M584.8,499.8c-3.3-2.3-6.6-4.7-9.7-7.2l3.1-3.9c3,2.4,6.2,4.8,9.4,7
						L584.8,499.8z M776.8,492.8l-3.1-3.9c3-2.4,6-5,8.9-7.6l3.4,3.7C783,487.7,779.9,490.4,776.8,492.8z M565.9,484.7
						c-2.9-2.7-5.8-5.6-8.5-8.5l3.7-3.4c2.6,2.8,5.4,5.6,8.3,8.3L565.9,484.7z M794.6,476.5l-3.7-3.4c2.6-2.8,5.2-5.8,7.6-8.8
						l3.9,3.1C800,470.4,797.3,473.4,794.6,476.5z M549.5,466.9c-2.5-3.1-4.9-6.4-7.2-9.7l4.1-2.8c2.2,3.2,4.5,6.4,6.9,9.4
						L549.5,466.9z M809.7,457.5l-4.1-2.8c2.2-3.2,4.3-6.5,6.2-9.9l4.3,2.5C814.1,450.8,811.9,454.2,809.7,457.5z M535.9,446.9
						c-2-3.5-3.9-7.1-5.6-10.7l4.5-2.2c1.7,3.5,3.5,7,5.5,10.3L535.9,446.9z M821.8,436.7l-4.5-2.2c1.7-3.5,3.3-7.1,4.7-10.7
						l4.7,1.8C825.1,429.3,823.5,433.1,821.8,436.7z M525.5,425.1c-1.5-3.7-2.8-7.6-4-11.4l4.8-1.5c1.1,3.7,2.4,7.4,3.9,11.1
						L525.5,425.1z M830.7,414.2l-4.8-1.5c1.1-3.7,2.2-7.5,3-11.3l4.9,1.1C833,406.4,831.9,410.4,830.7,414.2z M518.3,402
						c-0.9-3.9-1.6-7.9-2.2-11.9l4.9-0.7c0.6,3.8,1.3,7.7,2.1,11.5L518.3,402z M836.1,390.7l-4.9-0.8c0.6-3.8,1-7.7,1.3-11.6l5,0.4
						C837.2,382.6,836.7,386.6,836.1,390.7z M514.7,378.1c-0.3-3.9-0.4-7.9-0.4-11.9V366h5v0.2c0,3.8,0.1,7.7,0.4,11.5L514.7,378.1z
						 M837.9,366.5h-5v-0.3c0-3.9-0.1-7.8-0.4-11.7l5-0.4c0.3,4,0.4,8,0.4,12.1V366.5z M519.8,354.3l-5-0.4c0.3-4,0.8-8,1.3-12
						l4.9,0.7C520.5,346.5,520,350.4,519.8,354.3z M831.2,342.8c-0.6-3.8-1.3-7.7-2.2-11.5l4.9-1.1c0.9,3.9,1.6,7.9,2.2,11.9
						L831.2,342.8z M523.3,331.1l-4.9-1.1c0.9-3.9,1.9-7.8,3.1-11.7l4.8,1.5C525.2,323.5,524.2,327.3,523.3,331.1z M825.9,320
						c-1.1-3.7-2.4-7.4-3.9-11l4.7-1.8c1.5,3.7,2.8,7.6,4,11.4L825.9,320z M530.2,308.8l-4.7-1.8c1.5-3.7,3.1-7.4,4.8-11l4.5,2.2
						C533.2,301.6,531.7,305.2,530.2,308.8z M817.4,298.1c-1.7-3.5-3.5-7-5.5-10.3l4.3-2.5c2,3.5,3.9,7.1,5.7,10.7L817.4,298.1z
						 M540.4,287.7l-4.3-2.5c2-3.5,4.2-6.9,6.4-10.2l4.1,2.8C544.4,281,542.3,284.3,540.4,287.7z M805.7,277.9
						c-2.2-3.2-4.5-6.4-7-9.4l3.9-3.1c2.5,3.1,4.9,6.4,7.2,9.7L805.7,277.9z M553.6,268.4l-3.9-3.1c2.5-3.1,5.2-6.2,7.9-9.1l3.7,3.4
						C558.6,262.4,556,265.4,553.6,268.4z M791.1,259.6c-2.6-2.8-5.4-5.6-8.3-8.3l3.4-3.7c2.9,2.7,5.8,5.6,8.5,8.5L791.1,259.6z
						 M569.6,251.2l-3.4-3.7c2.9-2.7,6-5.4,9.1-7.9l3.1,3.9C575.4,246,572.5,248.5,569.6,251.2z M773.9,243.6c-3-2.4-6.2-4.8-9.4-7
						l2.8-4.1c3.3,2.3,6.6,4.7,9.7,7.2L773.9,243.6z M587.9,236.6l-2.8-4.1c3.3-2.3,6.8-4.4,10.2-6.4l2.5,4.3
						C594.4,232.3,591.1,234.4,587.9,236.6z M754.6,230.4c-3.4-1.9-6.8-3.8-10.3-5.5l2.2-4.5c3.6,1.7,7.2,3.6,10.7,5.6L754.6,230.4z
						 M608.1,224.9l-2.2-4.5c3.6-1.7,7.3-3.4,11.1-4.8l1.8,4.7C615.3,221.6,611.7,223.2,608.1,224.9z M733.4,220.3
						c-3.6-1.4-7.3-2.7-11-3.9l1.5-4.8c3.8,1.2,7.7,2.5,11.4,4L733.4,220.3z M630,216.3l-1.5-4.8c3.8-1.2,7.8-2.2,11.7-3.1l1.1,4.9
						C637.5,214.2,633.7,215.2,630,216.3z M711.1,213.4c-3.8-0.9-7.6-1.6-11.5-2.2l0.7-4.9c4,0.6,8,1.3,11.9,2.2L711.1,213.4z
						 M652.8,211.1l-0.7-4.9c4-0.6,8-1,12-1.3l0.4,5C660.6,210.1,656.7,210.5,652.8,211.1z M687.9,209.8c-3.9-0.3-7.8-0.4-11.7-0.4
						v-5c4,0,8.1,0.2,12.1,0.4L687.9,209.8z"/>
				</g>
			</g>
			<g>
				<path class="st1" d="M676.1,541.2c-96.5,0-175-78.5-175-175c0-96.5,78.5-175,175-175s175,78.5,175,175
					C851.1,462.7,772.6,541.2,676.1,541.2z M676.1,195.2c-94.3,0-171,76.7-171,171c0,94.3,76.7,171,171,171s171-76.7,171-171
					C847.1,271.9,770.4,195.2,676.1,195.2z"/>
			</g>
		</g>
	</g>
	<g id="Layer_2">
	</g>
</g>
</svg>
