<?xml version="1.0" encoding="utf-8"?>
<!-- Generator: Adobe Illustrator 19.0.1, SVG Export Plug-In . SVG Version: 6.00 Build 0)  -->
<svg version="1.1" xmlns="http://www.w3.org/2000/svg" xmlns:xlink="http://www.w3.org/1999/xlink" x="0px" y="0px"
	 viewBox="0 0 982.1 407.4" style="enable-background:new 0 0 982.1 407.4;" xml:space="preserve">
<style type="text/css">
	.st0{fill:#33C5F3;}
	.st1{fill:#FFFFFF;}
	.st2{fill:#3399CC;}
	.st3{fill:#676767;}
	.st4{fill:#989898;}
	.st5{fill:#0098CC;}
	.st6{fill:#F9F9F9;}
	.st7{fill:none;stroke:#FFFFFF;stroke-width:4;stroke-miterlimit:10;}
	.st8{fill:none;stroke:#FFFFFF;stroke-width:3.2021;stroke-miterlimit:10;}
	.st9{fill:#5E5E5E;}
	.st10{fill:#F68F3E;}
	.st11{fill:#B04B26;}
	.st12{fill:#9CCCA2;}
	.st13{fill:#739560;}
	.st14{fill:#A1C4C8;}
	.st15{fill:#627789;}
	.st16{fill:#D8C380;}
	.st17{fill:#97754B;}
	.st18{fill:#AB5D47;}
	.st19{fill:#7D2A38;}
	.st20{fill:#58612B;}
	.st21{fill:#273E1F;}
	.st22{fill:#47998B;}
	.st23{fill:#227783;}
	.st24{fill:#D4B1AB;}
	.st25{fill:#926777;}
	.st26{fill:#5D5D5D;}
	.st27{fill:#FF9966;}
</style>
<g id="Layer_1">
	<g>
		<path class="st5" d="M577.7,144.8l-14.3-14.4l-8.1,12.6l-6,13.2l-25.7-25.8l9.5,26.2l-26.1-26.2l-0.2,32.5l-32.4-32.5l-0.1,42.7
			l-42.8-42.7l-6.5,89.2l40.1,40.1c4.6,1.4,311.7,304.8,444.2,433.1h212.5C983.6,548.7,579.7,150.9,577.7,144.8z"/>
		<g>
			<path class="st1" d="M425.5,220.6v-90.2h5.9v84.8h28.4v5.4H425.5z"/>
			<path class="st1" d="M474.3,198.9c0,9.7,3.6,17.1,13.5,17.1s13.5-7.5,13.5-17.1v-68.4h5.5v68.2c0,12.9-5.4,22.8-19.2,22.8
				c-13.8,0-19.3-9.9-19.3-22.8v-68.2h5.9V198.9z"/>
			<path class="st1" d="M540.1,178.6l-18.3,42H516l20.4-46.8l-18.9-43.4h6.2l17,38.8l17.1-38.8h5.7l-18.9,43.4l20.2,46.8h-6.3
				L540.1,178.6z"/>
		</g>
		<g>
			<polygon class="st0" points="536.9,322.2 528.2,331.5 889.4,692.7 907.5,692.7 			"/>
			<polygon class="st0" points="647.7,211.2 640.5,219 1114.1,692.7 1129.2,692.7 			"/>
			<g>
				<polygon class="st0" points="558.6,313.6 549.9,323 919.7,692.7 937.7,692.7 				"/>
				<polygon class="st0" points="579,302 571.6,312.5 951.9,692.7 969.8,692.7 				"/>
				<polygon class="st0" points="597.3,287.4 591.6,298.9 985.3,692.7 1002.5,692.7 				"/>
				<polygon class="st0" points="617.2,273.4 605.6,279.2 1019.2,692.7 1036.5,692.7 				"/>
				<polygon class="st0" points="630.8,253.6 620.2,260.9 1052.1,692.7 1070,692.7 				"/>
				<polygon class="st0" points="641.3,231.9 632,240.7 1084.4,692.7 1102.5,692.7 				"/>
			</g>
		</g>
		<g>
			<path class="st6" d="M490.9,334c-4,0-8.1-0.2-12.1-0.5l0.4-5c3.9,0.3,7.8,0.4,11.7,0.4L490.9,334z M502.9,333.6l-0.4-5
				c3.9-0.3,7.8-0.7,11.6-1.3l0.7,4.9C511,332.8,506.9,333.3,502.9,333.6z M466.8,332.2c-4-0.6-8-1.4-11.9-2.2l1.1-4.9
				c3.8,0.9,7.6,1.6,11.5,2.2L466.8,332.2z M526.8,330l-1.1-4.9c3.8-0.9,7.6-1.9,11.3-3l1.5,4.8C534.6,328.1,530.7,329.2,526.8,330z
				 M443.3,326.8c-3.8-1.2-7.7-2.5-11.4-4l1.8-4.7c3.6,1.4,7.3,2.7,11,3.9L443.3,326.8z M549.9,323l-1.8-4.7c3.6-1.4,7.2-3,10.7-4.7
				l2.2,4.5C557.3,319.9,553.6,321.5,549.9,323z M420.9,318c-3.6-1.7-7.2-3.6-10.7-5.7l2.5-4.3c3.4,1.9,6.8,3.8,10.3,5.5L420.9,318z
				 M571.6,312.5l-2.5-4.3c3.4-1.9,6.7-4,9.9-6.2l2.8,4.1C578.5,308.4,575.1,310.5,571.6,312.5z M400,305.9
				c-3.3-2.3-6.6-4.7-9.7-7.2l3.1-3.9c3,2.4,6.2,4.8,9.4,7L400,305.9z M591.6,298.9l-3.1-3.9c3-2.4,6-5,8.9-7.6l3.4,3.7
				C597.8,293.8,594.7,296.5,591.6,298.9z M381.2,290.8c-2.9-2.7-5.8-5.6-8.5-8.5l3.7-3.4c2.6,2.8,5.4,5.6,8.3,8.3L381.2,290.8z
				 M609.3,282.6l-3.7-3.4c2.6-2.8,5.2-5.8,7.6-8.8l3.9,3.1C614.7,276.6,612,279.6,609.3,282.6z M364.8,273.1
				c-2.5-3.1-4.9-6.4-7.2-9.7l4.1-2.8c2.2,3.2,4.5,6.4,6.9,9.4L364.8,273.1z M624.4,263.7l-4.1-2.8c2.2-3.2,4.3-6.5,6.2-9.9l4.3,2.5
				C628.8,257,626.6,260.4,624.4,263.7z M351.2,253.1c-2-3.5-3.9-7.1-5.6-10.7l4.5-2.2c1.7,3.5,3.5,7,5.5,10.3L351.2,253.1z
				 M636.5,242.9l-4.5-2.2c1.7-3.5,3.3-7.1,4.7-10.7l4.7,1.8C639.8,235.6,638.2,239.3,636.5,242.9z M340.8,231.4
				c-1.5-3.7-2.8-7.6-4-11.4l4.8-1.5c1.1,3.7,2.4,7.4,3.9,11.1L340.8,231.4z M645.3,220.5l-4.8-1.5c1.1-3.7,2.2-7.5,3-11.3l4.9,1.1
				C647.6,212.7,646.5,216.7,645.3,220.5z M333.7,208.3c-0.9-3.9-1.6-7.9-2.2-11.9l4.9-0.7c0.6,3.8,1.3,7.7,2.1,11.5L333.7,208.3z
				 M650.7,197l-4.9-0.8c0.6-3.8,1-7.7,1.3-11.6l5,0.4C651.8,189,651.3,193,650.7,197z M330.1,184.5c-0.3-3.9-0.4-7.9-0.4-11.9v-0.2
				h5v0.2c0,3.8,0.1,7.7,0.4,11.5L330.1,184.5z M652.5,172.9h-5l0-0.3c0-3.9-0.1-7.8-0.4-11.7l5-0.4c0.3,4,0.4,8,0.4,12.1
				L652.5,172.9z M335.2,160.7l-5-0.4c0.3-4,0.8-8,1.3-12l4.9,0.7C335.9,152.9,335.4,156.8,335.2,160.7z M645.8,149.3
				c-0.6-3.8-1.3-7.7-2.2-11.5l4.9-1.1c0.9,3.9,1.6,7.9,2.2,11.9L645.8,149.3z M338.6,137.6l-4.9-1.1c0.9-3.9,1.9-7.8,3.1-11.7
				l4.8,1.5C340.5,130,339.5,133.8,338.6,137.6z M640.6,126.5c-1.1-3.7-2.4-7.4-3.9-11l4.7-1.8c1.5,3.7,2.8,7.6,4,11.4L640.6,126.5z
				 M345.5,115.3l-4.7-1.8c1.5-3.7,3.1-7.4,4.8-11l4.5,2.2C348.5,108.1,347,111.7,345.5,115.3z M632.1,104.7
				c-1.7-3.5-3.5-7-5.5-10.3l4.3-2.5c2,3.5,3.9,7.1,5.7,10.7L632.1,104.7z M355.7,94.3l-4.3-2.5c2-3.5,4.2-6.9,6.4-10.2l4.1,2.8
				C359.7,87.6,357.6,90.9,355.7,94.3z M620.4,84.5c-2.2-3.2-4.5-6.4-7-9.4l3.9-3.1c2.5,3.1,4.9,6.4,7.2,9.7L620.4,84.5z M368.9,75
				l-3.9-3.1c2.5-3.1,5.2-6.2,7.9-9.1l3.7,3.4C373.9,69,371.3,72,368.9,75z M605.8,66.2c-2.6-2.8-5.4-5.6-8.3-8.3l3.4-3.7
				c2.9,2.7,5.8,5.6,8.5,8.5L605.8,66.2z M384.8,57.9l-3.4-3.7c2.9-2.7,6-5.4,9.1-7.9l3.1,3.9C390.6,52.7,387.7,55.2,384.8,57.9z
				 M588.7,50.3c-3-2.4-6.2-4.8-9.4-7l2.8-4.1c3.3,2.3,6.6,4.7,9.7,7.2L588.7,50.3z M403.1,43.3l-2.8-4.1c3.3-2.3,6.8-4.4,10.2-6.4
				l2.5,4.3C409.6,39,406.3,41.1,403.1,43.3z M569.4,37.1c-3.4-1.9-6.8-3.8-10.3-5.5l2.2-4.5c3.6,1.7,7.2,3.6,10.7,5.6L569.4,37.1z
				 M423.3,31.6l-2.2-4.5c3.6-1.7,7.3-3.4,11.1-4.8l1.8,4.7C430.4,28.3,426.8,29.9,423.3,31.6z M548.3,27c-3.6-1.4-7.3-2.7-11-3.9
				l1.5-4.8c3.8,1.2,7.7,2.5,11.4,4L548.3,27z M445.1,23l-1.5-4.8c3.8-1.2,7.8-2.2,11.7-3.1l1.1,4.9C452.6,20.9,448.8,21.9,445.1,23
				z M526,20.1c-3.8-0.9-7.6-1.6-11.5-2.2l0.7-4.9c4,0.6,8,1.3,11.9,2.2L526,20.1z M467.9,17.9l-0.7-4.9c4-0.6,8-1,12-1.3l0.4,5
				C475.6,16.9,471.7,17.3,467.9,17.9z M502.9,16.6c-3.9-0.3-7.8-0.4-11.7-0.4l0-5c4,0,8.1,0.2,12.1,0.4L502.9,16.6z"/>
		</g>
		<g>
			<path class="st0" d="M631.6,295.7c3.2,0,3.2-5,0-5C628.4,290.7,628.4,295.7,631.6,295.7L631.6,295.7z"/>
		</g>
		<circle class="st7" cx="491.1" cy="172.6" r="172.6"/>
	</g>
</g>
<g id="Layer_2">
</g>
</svg>
