<?xml version="1.0" encoding="utf-8"?>
<!-- Generator: Adobe Illustrator 19.0.1, SVG Export Plug-In . SVG Version: 6.00 Build 0)  -->
<svg version="1.1" xmlns="http://www.w3.org/2000/svg" xmlns:xlink="http://www.w3.org/1999/xlink" x="0px" y="0px"
	 viewBox="0 0 703.7 226.7" style="enable-background:new 0 0 703.7 226.7;" xml:space="preserve">
<style type="text/css">
	.st0{fill:#33C5F3;}
	.st1{fill:#FFFFFF;}
	.st2{fill:#3399CC;}
	.st3{fill:#676767;}
	.st4{fill:#989898;}
	.st5{fill:#0098CC;}
	.st6{fill:#F9F9F9;}
	.st7{fill:none;stroke:#FFFFFF;stroke-width:4;stroke-miterlimit:10;}
	.st8{fill:none;stroke:#FFFFFF;stroke-width:3.2021;stroke-miterlimit:10;}
	.st9{fill:#5E5E5E;}
	.st10{fill:#F68F3E;}
	.st11{fill:#B04B26;}
	.st12{fill:#9CCCA2;}
	.st13{fill:#739560;}
	.st14{fill:#A1C4C8;}
	.st15{fill:#627789;}
	.st16{fill:#D8C380;}
	.st17{fill:#97754B;}
	.st18{fill:#AB5D47;}
	.st19{fill:#7D2A38;}
	.st20{fill:#58612B;}
	.st21{fill:#273E1F;}
	.st22{fill:#47998B;}
	.st23{fill:#227783;}
	.st24{fill:#D4B1AB;}
	.st25{fill:#926777;}
	.st26{fill:#5D5D5D;}
	.st27{fill:#FF9966;}
</style>
<g id="Layer_1">
</g>
<g id="Layer_2">
	<g>
		<g>
			<path class="st1" d="M4.1,22.5c2.4,0,3.3,1.2,3.3,3.4v0.9c0,1.7-0.5,2.8-2.1,3.2c1.7,0.3,2.4,1.6,2.4,3.4v1.4
				c0,2.3-1.1,3.7-3.5,3.7H0.7v-16H4.1z M3.6,29.6c1.9,0,2.7-0.5,2.7-2.5v-1c0-1.7-0.5-2.5-2.2-2.5H1.8v6.1H3.6z M4.2,37.6
				c1.8,0,2.4-1,2.4-2.8v-1.4c0-2.1-0.9-2.8-2.8-2.8h-2v7H4.2z"/>
			<path class="st1" d="M15.7,29.9v1h-4.4v6.7h5.3v1h-6.3v-16h6.3v1h-5.3v6.5H15.7z"/>
			<path class="st1" d="M22.6,22.5c2.4,0,3.3,1.2,3.3,3.4v0.9c0,1.7-0.5,2.8-2.1,3.2c1.7,0.3,2.4,1.6,2.4,3.4v1.4
				c0,2.3-1.1,3.7-3.5,3.7h-3.4v-16H22.6z M22.1,29.6c1.9,0,2.7-0.5,2.7-2.5v-1c0-1.7-0.5-2.5-2.2-2.5h-2.3v6.1H22.1z M22.7,37.6
				c1.8,0,2.4-1,2.4-2.8v-1.4c0-2.1-0.9-2.8-2.8-2.8h-2v7H22.7z"/>
			<path class="st1" d="M30.4,35l-0.8,3.5h-1l3.5-16h1.5l3.6,16h-1.1L35.4,35H30.4z M30.5,34.1h4.7l-2.4-10.4L30.5,34.1z"/>
			<path class="st1" d="M46.5,26.4v0.3h-1v-0.4c0-1.7-0.6-3-2.4-3c-1.7,0-2.4,1.3-2.4,3c0,3.9,5.8,4,5.8,8.4c0,2.3-1,4-3.5,4
				s-3.5-1.7-3.5-4v-0.8h1v0.9c0,1.7,0.7,3,2.4,3s2.4-1.2,2.4-3c0-3.8-5.8-3.9-5.8-8.4c0-2.4,1.1-4,3.4-4
				C45.5,22.4,46.5,24.1,46.5,26.4z"/>
			<path class="st1" d="M54.5,38.6h-1v-16H55l4.8,13.5V22.5h1v16h-1.2l-5-14.3V38.6z"/>
			<path class="st1" d="M68.9,29.9v1h-4.4v6.7h5.3v1h-6.3v-16h6.3v1h-5.3v6.5H68.9z"/>
			<path class="st1" d="M73.4,34.7c0,1.7,0.6,3,2.4,3c1.8,0,2.4-1.3,2.4-3V22.5h1v12.1c0,2.3-1,4.1-3.4,4.1c-2.4,0-3.4-1.8-3.4-4.1
				V22.5h1.1V34.7z"/>
			<path class="st1" d="M87.4,29.9v1H83v6.7h5.3v1h-6.3v-16h6.3v1H83v6.5H87.4z"/>
			<path class="st1" d="M98.7,22.5c2.4,0,3.3,1.2,3.3,3.4v0.9c0,1.7-0.5,2.8-2.1,3.2c1.7,0.3,2.4,1.6,2.4,3.4v1.4
				c0,2.3-1.1,3.7-3.5,3.7h-3.4v-16H98.7z M98.2,29.6c1.9,0,2.7-0.5,2.7-2.5v-1c0-1.7-0.5-2.5-2.2-2.5h-2.3v6.1H98.2z M98.8,37.6
				c1.8,0,2.4-1,2.4-2.8v-1.4c0-2.1-0.9-2.8-2.8-2.8h-2v7H98.8z"/>
			<path class="st1" d="M104.8,26.4c0-2.3,1.1-4.1,3.5-4.1c2.5,0,3.5,1.7,3.5,4.1v8.2c0,2.3-1.1,4.1-3.5,4.1c-2.4,0-3.5-1.7-3.5-4.1
				V26.4z M105.9,34.7c0,1.7,0.7,3,2.4,3c1.8,0,2.5-1.3,2.5-3v-8.3c0-1.7-0.7-3-2.5-3c-1.8,0-2.4,1.3-2.4,3V34.7z"/>
			<path class="st1" d="M114.5,26.4c0-2.3,1.1-4.1,3.5-4.1c2.5,0,3.5,1.7,3.5,4.1v8.2c0,2.3-1.1,4.1-3.5,4.1c-2.4,0-3.5-1.7-3.5-4.1
				V26.4z M115.5,34.7c0,1.7,0.7,3,2.4,3c1.8,0,2.5-1.3,2.5-3v-8.3c0-1.7-0.7-3-2.5-3c-1.8,0-2.4,1.3-2.4,3V34.7z"/>
			<path class="st1" d="M126.3,31l-1.1,1.7v5.8h-1.1v-16h1.1V31l5.2-8.5h1.1L127,30l4.9,8.6h-1.1L126.3,31z"/>
			<path class="st1" d="M1.6,58.2L1,60.8H0.3L2.9,49h1.1l2.6,11.8H5.9l-0.6-2.6H1.6z M1.8,57.5h3.4l-1.7-7.7L1.8,57.5z"/>
			<path class="st1" d="M16.9,51.9c0,3.4-4.3,4.6-4.3,8.1v0.1h4.2v0.7h-5v-0.6c0-4.2,4.3-5.1,4.3-8.3c0-1.4-0.5-2.3-1.8-2.3
				c-1.3,0-1.8,1-1.8,2.3v0.8h-0.7v-0.8c0-1.7,0.7-3,2.6-3C16.2,48.9,16.9,50.2,16.9,51.9z"/>
			<path class="st1" d="M21.5,49c1.8,0,2.6,1.2,2.6,2.9v5.9c0,1.7-0.8,2.9-2.6,2.9h-2.6V49H21.5z M21.5,60.1c1.3,0,1.9-0.9,1.9-2.2
				v-6c0-1.3-0.6-2.2-1.9-2.2h-1.8v10.4H21.5z"/>
			<path class="st1" d="M34.4,51.9v0.9h-0.7v-0.9c0-1.3-0.5-2.2-1.8-2.2c-1.3,0-1.8,1-1.8,2.2V58c0,1.3,0.5,2.2,1.8,2.2
				c1.3,0,1.8-0.9,1.8-2.2v-2.6h-1.6v-0.7h2.3v3.2c0,1.7-0.7,3-2.6,3c-1.8,0-2.6-1.3-2.6-3v-6c0-1.7,0.7-3,2.6-3
				C33.7,48.9,34.4,50.2,34.4,51.9z"/>
			<path class="st1" d="M37.5,58.2l-0.6,2.6h-0.7L38.8,49h1.1l2.6,11.8h-0.8l-0.6-2.6H37.5z M37.6,57.5h3.4l-1.7-7.7L37.6,57.5z"/>
			<path class="st1" d="M48.4,60.8h-0.8l-2.5-10.5v10.5h-0.7V49h1.1L48,59.5L50.5,49h1.1v11.8h-0.7V50.3L48.4,60.8z"/>
			<path class="st1" d="M57.6,54.5v0.7h-3.2v4.9h3.9v0.7h-4.7V49h4.7v0.7h-3.9v4.8H57.6z"/>
			<path class="st1" d="M67.5,54.5v0.7h-3.2v4.9h3.9v0.7h-4.7V49h4.7v0.7h-3.9v4.8H67.5z"/>
			<path class="st1" d="M70.8,60.8h-0.7V49h1l3.5,10V49h0.7v11.8h-0.9l-3.7-10.5V60.8z"/>
			<path class="st1" d="M82.5,51.9v0.9h-0.7v-0.9c0-1.3-0.5-2.2-1.8-2.2s-1.8,1-1.8,2.2V58c0,1.3,0.5,2.2,1.8,2.2s1.8-0.9,1.8-2.2
				v-2.6h-1.6v-0.7h2.3v3.2c0,1.7-0.7,3-2.6,3c-1.8,0-2.6-1.3-2.6-3v-6c0-1.7,0.7-3,2.6-3C81.7,48.9,82.5,50.2,82.5,51.9z"/>
			<path class="st1" d="M85.2,49v11.8h-0.8V49H85.2z"/>
			<path class="st1" d="M88,60.8h-0.7V49h1l3.5,10V49h0.7v11.8h-0.9L88,50.3V60.8z"/>
			<path class="st1" d="M98.5,54.5v0.7h-3.2v4.9h3.9v0.7h-4.7V49h4.7v0.7h-3.9v4.8H98.5z"/>
			<path class="st1" d="M106.9,49c1.8,0,2.4,0.9,2.4,2.5v0.7c0,1.3-0.4,2.1-1.6,2.3c1.3,0.3,1.8,1.2,1.8,2.5v1
				c0,1.7-0.8,2.7-2.6,2.7h-2.5V49H106.9z M106.5,54.2c1.4,0,2-0.4,2-1.9v-0.8c0-1.2-0.4-1.9-1.7-1.9h-1.7v4.5H106.5z M107,60.1
				c1.3,0,1.8-0.7,1.8-2V57c0-1.5-0.7-2.1-2.1-2.1h-1.5v5.2H107z"/>
			<path class="st1" d="M112.2,58c0,1.3,0.5,2.2,1.8,2.2s1.8-1,1.8-2.2v-9h0.7v8.9c0,1.7-0.7,3-2.5,3c-1.8,0-2.5-1.3-2.5-3V49h0.8
				V58z"/>
			<path class="st1" d="M119.3,49v11.8h-0.8V49H119.3z"/>
			<path class="st1" d="M121.3,60.8V49h0.8v11.1h3.7v0.7H121.3z"/>
			<path class="st1" d="M128.8,60.8V49.7h-2.4V49h5.6v0.7h-2.4v11.1H128.8z"/>
			<path class="st1" d="M139.8,60.8h-1.1L136.8,49h0.8l1.8,10.8l1.7-10.7h0.8l1.7,10.7l1.7-10.7h0.7L144,60.8h-1l-1.6-9.7
				L139.8,60.8z"/>
			<path class="st1" d="M148.6,49v11.8h-0.8V49H148.6z"/>
			<path class="st1" d="M152.6,60.8V49.7h-2.4V49h5.6v0.7h-2.4v11.1H152.6z"/>
			<path class="st1" d="M158.2,55.3v5.6h-0.8V49h0.8v5.6h3.7V49h0.8v11.8h-0.8v-5.6H158.2z"/>
			<path class="st1" d="M169.1,58.2l-0.6,2.6h-0.7l2.6-11.8h1.1l2.6,11.8h-0.8l-0.6-2.6H169.1z M169.3,57.5h3.4l-1.7-7.7L169.3,57.5
				z"/>
			<path class="st1" d="M183.2,54.8v0.7h-3.1v5.4h-0.8V49h4.5v0.7h-3.7v5.1H183.2z"/>
			<path class="st1" d="M185.6,51.9c0-1.7,0.8-3,2.6-3c1.8,0,2.6,1.3,2.6,3v6c0,1.7-0.8,3-2.6,3c-1.8,0-2.6-1.3-2.6-3V51.9z
				 M186.4,58c0,1.3,0.5,2.2,1.8,2.2c1.3,0,1.8-0.9,1.8-2.2v-6.1c0-1.3-0.5-2.2-1.8-2.2c-1.3,0-1.8,0.9-1.8,2.2V58z"/>
			<path class="st1" d="M197.9,51.9v1h-0.7v-1c0-1.3-0.5-2.2-1.8-2.2s-1.8,1-1.8,2.2V58c0,1.3,0.5,2.2,1.8,2.2s1.8-0.9,1.8-2.2v-1.4
				h0.7v1.4c0,1.7-0.7,3-2.6,3c-1.8,0-2.6-1.3-2.6-3v-6c0-1.7,0.7-3,2.6-3C197.1,48.9,197.9,50.2,197.9,51.9z"/>
			<path class="st1" d="M200.5,58c0,1.3,0.5,2.2,1.8,2.2c1.3,0,1.8-1,1.8-2.2v-9h0.7v8.9c0,1.7-0.7,3-2.5,3c-1.8,0-2.5-1.3-2.5-3V49
				h0.8V58z"/>
			<path class="st1" d="M211.8,51.9v0.3h-0.7v-0.3c0-1.2-0.5-2.2-1.8-2.2s-1.8,0.9-1.8,2.2c0,2.9,4.3,2.9,4.3,6.2c0,1.7-0.7,3-2.6,3
				c-1.8,0-2.6-1.2-2.6-3v-0.6h0.7V58c0,1.3,0.5,2.2,1.8,2.2c1.3,0,1.8-0.9,1.8-2.2c0-2.8-4.3-2.9-4.3-6.2c0-1.8,0.8-2.9,2.5-2.9
				C211.1,48.9,211.8,50.1,211.8,51.9z"/>
			<path class="st1" d="M217,51.9c0-1.7,0.8-3,2.6-3c1.8,0,2.6,1.3,2.6,3v6c0,1.7-0.8,3-2.6,3c-1.8,0-2.6-1.3-2.6-3V51.9z M217.8,58
				c0,1.3,0.5,2.2,1.8,2.2c1.3,0,1.8-0.9,1.8-2.2v-6.1c0-1.3-0.5-2.2-1.8-2.2c-1.3,0-1.8,0.9-1.8,2.2V58z"/>
			<path class="st1" d="M224.9,60.8h-0.7V49h1l3.5,10V49h0.7v11.8h-0.9l-3.7-10.5V60.8z"/>
			<path class="st1" d="M235.5,58c0,1.3,0.5,2.2,1.8,2.2s1.8-1,1.8-2.2v-9h0.7v8.9c0,1.7-0.7,3-2.5,3c-1.8,0-2.5-1.3-2.5-3V49h0.8
				V58z"/>
			<path class="st1" d="M246.7,51.9v0.3H246v-0.3c0-1.2-0.5-2.2-1.8-2.2s-1.8,0.9-1.8,2.2c0,2.9,4.3,2.9,4.3,6.2c0,1.7-0.7,3-2.6,3
				s-2.6-1.2-2.6-3v-0.6h0.7V58c0,1.3,0.5,2.2,1.8,2.2s1.8-0.9,1.8-2.2c0-2.8-4.3-2.9-4.3-6.2c0-1.8,0.8-2.9,2.5-2.9
				C246,48.9,246.7,50.1,246.7,51.9z"/>
			<path class="st1" d="M252.7,54.5v0.7h-3.2v4.9h3.9v0.7h-4.7V49h4.7v0.7h-3.9v4.8H252.7z"/>
			<path class="st1" d="M257.8,49c1.8,0,2.5,1,2.5,2.7v1c0,1.4-0.5,2.2-1.7,2.4c1.2,0.3,1.7,1.1,1.7,2.4v1.8c0,0.5,0,1,0.3,1.4h-0.8
				c-0.2-0.4-0.3-0.8-0.3-1.4v-1.9c0-1.6-0.9-2-2.2-2h-1.2v5.3h-0.8V49H257.8z M257.3,54.8c1.4,0,2.2-0.4,2.2-2v-1.1
				c0-1.3-0.5-2-1.8-2h-1.7v5.1H257.3z"/>
			<path class="st1" d="M262.5,54.6h3.1v0.7h-3.1V54.6z"/>
			<path class="st1" d="M271.4,54.8v0.7h-3.1v5.4h-0.8V49h4.5v0.7h-3.7v5.1H271.4z"/>
			<path class="st1" d="M276.4,49c1.8,0,2.5,1,2.5,2.7v1c0,1.4-0.5,2.2-1.7,2.4c1.2,0.3,1.7,1.1,1.7,2.4v1.8c0,0.5,0,1,0.3,1.4h-0.8
				c-0.2-0.4-0.3-0.8-0.3-1.4v-1.9c0-1.6-0.9-2-2.2-2h-1.2v5.3h-0.8V49H276.4z M275.9,54.8c1.4,0,2.2-0.4,2.2-2v-1.1
				c0-1.3-0.5-2-1.8-2h-1.7v5.1H275.9z"/>
			<path class="st1" d="M281.9,49v11.8h-0.8V49H281.9z"/>
			<path class="st1" d="M287.9,54.5v0.7h-3.2v4.9h3.9v0.7h-4.7V49h4.7v0.7h-3.9v4.8H287.9z"/>
			<path class="st1" d="M291.2,60.8h-0.7V49h1l3.5,10V49h0.7v11.8h-0.9l-3.7-10.5V60.8z"/>
			<path class="st1" d="M300.4,49c1.8,0,2.6,1.2,2.6,2.9v5.9c0,1.7-0.8,2.9-2.6,2.9h-2.6V49H300.4z M300.4,60.1
				c1.3,0,1.9-0.9,1.9-2.2v-6c0-1.3-0.6-2.2-1.9-2.2h-1.8v10.4H300.4z"/>
			<path class="st1" d="M305,60.8V49h0.8v11.1h3.7v0.7H305z"/>
			<path class="st1" d="M312.1,49v11.8h-0.8V49H312.1z"/>
			<path class="st1" d="M314.8,60.8h-0.7V49h1l3.5,10V49h0.7v11.8h-0.9l-3.7-10.5V60.8z"/>
			<path class="st1" d="M325.4,54.5v0.7h-3.2v4.9h3.9v0.7h-4.7V49h4.7v0.7h-3.9v4.8H325.4z"/>
			<path class="st1" d="M333,51.9v0.3h-0.7v-0.3c0-1.2-0.5-2.2-1.8-2.2c-1.3,0-1.8,0.9-1.8,2.2c0,2.9,4.3,2.9,4.3,6.2
				c0,1.7-0.7,3-2.6,3s-2.6-1.2-2.6-3v-0.6h0.7V58c0,1.3,0.5,2.2,1.8,2.2c1.3,0,1.8-0.9,1.8-2.2c0-2.8-4.3-2.9-4.3-6.2
				c0-1.8,0.8-2.9,2.5-2.9C332.3,48.9,333,50.1,333,51.9z"/>
			<path class="st1" d="M339.9,51.9v0.3h-0.7v-0.3c0-1.2-0.5-2.2-1.8-2.2c-1.3,0-1.8,0.9-1.8,2.2c0,2.9,4.3,2.9,4.3,6.2
				c0,1.7-0.7,3-2.6,3s-2.6-1.2-2.6-3v-0.6h0.7V58c0,1.3,0.5,2.2,1.8,2.2c1.3,0,1.8-0.9,1.8-2.2c0-2.8-4.3-2.9-4.3-6.2
				c0-1.8,0.8-2.9,2.5-2.9C339.2,48.9,339.9,50.1,339.9,51.9z"/>
			<path class="st1" d="M346.3,58.2l-0.6,2.6H345l2.6-11.8h1.1l2.6,11.8h-0.8l-0.6-2.6H346.3z M346.4,57.5h3.4l-1.7-7.7L346.4,57.5z
				"/>
			<path class="st1" d="M353.9,60.8h-0.7V49h1l3.5,10V49h0.7v11.8h-0.9l-3.7-10.5V60.8z"/>
			<path class="st1" d="M363.1,49c1.8,0,2.6,1.2,2.6,2.9v5.9c0,1.7-0.8,2.9-2.6,2.9h-2.6V49H363.1z M363.1,60.1
				c1.3,0,1.9-0.9,1.9-2.2v-6c0-1.3-0.6-2.2-1.9-2.2h-1.8v10.4H363.1z"/>
			<path class="st1" d="M375.9,51.9v0.3h-0.7v-0.3c0-1.2-0.5-2.2-1.8-2.2c-1.3,0-1.8,0.9-1.8,2.2c0,2.9,4.3,2.9,4.3,6.2
				c0,1.7-0.7,3-2.6,3s-2.6-1.2-2.6-3v-0.6h0.7V58c0,1.3,0.5,2.2,1.8,2.2c1.3,0,1.8-0.9,1.8-2.2c0-2.8-4.3-2.9-4.3-6.2
				c0-1.8,0.8-2.9,2.5-2.9C375.2,48.9,375.9,50.1,375.9,51.9z"/>
			<path class="st1" d="M380.3,49c1.8,0,2.5,1.1,2.5,2.9v1.3c0,1.9-0.9,2.8-2.7,2.8h-1.5v4.9h-0.8V49H380.3z M380.1,55.3
				c1.4,0,2-0.6,2-2v-1.4c0-1.3-0.4-2.1-1.8-2.1h-1.7v5.5H380.1z"/>
			<path class="st1" d="M388.7,54.5v0.7h-3.2v4.9h3.9v0.7h-4.7V49h4.7v0.7h-3.9v4.8H388.7z"/>
			<path class="st1" d="M395.3,54.5v0.7h-3.2v4.9h3.9v0.7h-4.7V49h4.7v0.7h-3.9v4.8H395.3z"/>
			<path class="st1" d="M400.5,49c1.8,0,2.6,1.2,2.6,2.9v5.9c0,1.7-0.8,2.9-2.6,2.9h-2.6V49H400.5z M400.5,60.1
				c1.3,0,1.9-0.9,1.9-2.2v-6c0-1.3-0.6-2.2-1.9-2.2h-1.8v10.4H400.5z"/>
		</g>
		<g>
			<path class="st1" d="M5.2,174.1H3.8v5.2H1v-14.1h4.5c0.7,0,1.3,0.1,1.9,0.3c0.6,0.2,1,0.5,1.4,0.8c0.4,0.4,0.7,0.8,0.9,1.3
				s0.3,1.1,0.3,1.8c0,0.5,0,1-0.1,1.4c-0.1,0.4-0.2,0.8-0.4,1.1c-0.2,0.3-0.4,0.6-0.6,0.8c-0.3,0.2-0.5,0.4-0.9,0.6l2.5,5.8v0.1
				H7.4L5.2,174.1z M3.8,171.7h1.6c0.6,0,1-0.2,1.3-0.6c0.3-0.4,0.4-0.9,0.4-1.5c0-0.3,0-0.6-0.1-0.9s-0.2-0.5-0.3-0.7
				s-0.3-0.3-0.5-0.4c-0.2-0.1-0.5-0.2-0.7-0.2H3.8V171.7z"/>
			<path class="st1" d="M11.1,173.7c0-0.8,0.1-1.5,0.3-2.2c0.2-0.6,0.5-1.2,0.9-1.6c0.4-0.4,0.8-0.8,1.3-1s1.1-0.3,1.8-0.3
				c0.7,0,1.2,0.1,1.8,0.3s1,0.6,1.3,1c0.4,0.4,0.7,1,0.9,1.6c0.2,0.6,0.3,1.4,0.3,2.2v0.7c0,0.8-0.1,1.6-0.3,2.2s-0.5,1.2-0.8,1.6
				c-0.4,0.4-0.8,0.8-1.3,1s-1.1,0.3-1.8,0.3c-0.7,0-1.2-0.1-1.8-0.3s-1-0.5-1.3-1c-0.4-0.4-0.7-1-0.9-1.6s-0.3-1.4-0.3-2.2V173.7z
				 M13.9,174.4c0,1,0.1,1.7,0.4,2.1s0.6,0.7,1.1,0.7c0.5,0,0.9-0.2,1.1-0.7c0.3-0.4,0.4-1.2,0.4-2.1v-0.7c0-1-0.1-1.7-0.4-2.1
				c-0.3-0.5-0.6-0.7-1.1-0.7c-0.5,0-0.8,0.2-1.1,0.7s-0.4,1.2-0.4,2.1V174.4z"/>
			<path class="st1" d="M29.1,174.4c0,1.7-0.3,3-0.8,3.8s-1.4,1.3-2.6,1.3c-0.5,0-0.9-0.1-1.3-0.3c-0.4-0.2-0.7-0.5-0.9-0.9l-0.1,1
				h-2.5v-14.9h2.7v5.3c0.2-0.3,0.5-0.6,0.9-0.8c0.3-0.2,0.7-0.3,1.2-0.3c1.2,0,2,0.4,2.6,1.3c0.5,0.9,0.8,2.1,0.8,3.8V174.4z
				 M26.3,173.7c0-0.5,0-0.9-0.1-1.2c0-0.3-0.1-0.6-0.2-0.9c-0.1-0.2-0.2-0.4-0.4-0.5s-0.4-0.2-0.7-0.2c-0.3,0-0.6,0.1-0.8,0.2
				c-0.2,0.1-0.4,0.3-0.5,0.6v4.8c0.1,0.2,0.3,0.4,0.5,0.5s0.5,0.2,0.8,0.2c0.3,0,0.5-0.1,0.7-0.2s0.3-0.3,0.4-0.5
				c0.1-0.2,0.2-0.5,0.2-0.9c0-0.4,0.1-0.8,0.1-1.3V173.7z"/>
			<path class="st1" d="M30,173.7c0-0.8,0.1-1.5,0.3-2.2c0.2-0.6,0.5-1.2,0.9-1.6c0.4-0.4,0.8-0.8,1.3-1s1.1-0.3,1.8-0.3
				c0.7,0,1.2,0.1,1.8,0.3s1,0.6,1.3,1c0.4,0.4,0.7,1,0.9,1.6c0.2,0.6,0.3,1.4,0.3,2.2v0.7c0,0.8-0.1,1.6-0.3,2.2s-0.5,1.2-0.8,1.6
				c-0.4,0.4-0.8,0.8-1.3,1s-1.1,0.3-1.8,0.3c-0.7,0-1.2-0.1-1.8-0.3s-1-0.5-1.3-1c-0.4-0.4-0.7-1-0.9-1.6s-0.3-1.4-0.3-2.2V173.7z
				 M32.8,174.4c0,1,0.1,1.7,0.4,2.1s0.6,0.7,1.1,0.7c0.5,0,0.9-0.2,1.1-0.7c0.3-0.4,0.4-1.2,0.4-2.1v-0.7c0-1-0.1-1.7-0.4-2.1
				c-0.3-0.5-0.6-0.7-1.1-0.7c-0.5,0-0.8,0.2-1.1,0.7s-0.4,1.2-0.4,2.1V174.4z"/>
			<path class="st1" d="M43,166.2v2.6h1.4v2.1H43v5.2c0,0.2,0,0.4,0,0.5c0,0.1,0.1,0.3,0.1,0.3c0.1,0.1,0.2,0.1,0.3,0.2s0.2,0,0.4,0
				c0.1,0,0.3,0,0.4,0c0.1,0,0.2,0,0.3,0l0,2.1c-0.2,0.1-0.4,0.1-0.7,0.2c-0.2,0-0.5,0.1-0.8,0.1c-0.4,0-0.8-0.1-1.1-0.2
				c-0.3-0.1-0.6-0.3-0.8-0.5s-0.4-0.6-0.5-1s-0.2-0.9-0.2-1.4v-5.5h-1.2v-2.1h1.2v-2.6H43z"/>
			<path class="st1" d="M44.9,173.7c0-0.8,0.1-1.5,0.3-2.2c0.2-0.6,0.5-1.2,0.9-1.6c0.4-0.4,0.8-0.8,1.3-1s1.1-0.3,1.8-0.3
				c0.7,0,1.2,0.1,1.8,0.3s1,0.6,1.3,1c0.4,0.4,0.7,1,0.9,1.6c0.2,0.6,0.3,1.4,0.3,2.2v0.7c0,0.8-0.1,1.6-0.3,2.2s-0.5,1.2-0.8,1.6
				c-0.4,0.4-0.8,0.8-1.3,1s-1.1,0.3-1.8,0.3c-0.7,0-1.2-0.1-1.8-0.3s-1-0.5-1.3-1c-0.4-0.4-0.7-1-0.9-1.6s-0.3-1.4-0.3-2.2V173.7z
				 M47.7,174.4c0,1,0.1,1.7,0.4,2.1s0.6,0.7,1.1,0.7c0.5,0,0.9-0.2,1.1-0.7c0.3-0.4,0.4-1.2,0.4-2.1v-0.7c0-1-0.1-1.7-0.4-2.1
				c-0.3-0.5-0.6-0.7-1.1-0.7c-0.5,0-0.8,0.2-1.1,0.7s-0.4,1.2-0.4,2.1V174.4z"/>
			<path class="st1" d="M68.6,174.6c-0.1,1.6-0.5,2.8-1.4,3.7s-2,1.2-3.5,1.2c-0.8,0-1.5-0.1-2.1-0.4c-0.6-0.3-1.1-0.6-1.6-1.2
				s-0.7-1.1-1-1.9c-0.2-0.8-0.3-1.6-0.3-2.6V171c0-1,0.1-1.9,0.3-2.6c0.2-0.8,0.6-1.4,1-1.9c0.4-0.5,1-0.9,1.6-1.2
				c0.6-0.3,1.3-0.4,2.1-0.4c1.5,0,2.7,0.4,3.5,1.3c0.8,0.9,1.3,2.1,1.4,3.7h-2.9c0-0.5-0.1-0.9-0.1-1.3c-0.1-0.3-0.2-0.6-0.3-0.8
				c-0.2-0.2-0.4-0.3-0.6-0.4c-0.2-0.1-0.6-0.1-0.9-0.1c-0.4,0-0.7,0.1-1,0.2c-0.3,0.1-0.5,0.3-0.7,0.6c-0.2,0.3-0.3,0.7-0.4,1.1
				c-0.1,0.5-0.1,1-0.1,1.7v2.4c0,0.7,0,1.2,0.1,1.7c0.1,0.5,0.2,0.8,0.3,1.1c0.2,0.3,0.4,0.5,0.6,0.6c0.3,0.1,0.6,0.2,1,0.2
				c0.3,0,0.6,0,0.9-0.1c0.2-0.1,0.5-0.2,0.6-0.4s0.3-0.4,0.4-0.8c0.1-0.3,0.1-0.7,0.2-1.3H68.6z"/>
			<path class="st1" d="M69.5,173.7c0-0.8,0.1-1.5,0.3-2.2c0.2-0.6,0.5-1.2,0.9-1.6c0.4-0.4,0.8-0.8,1.3-1s1.1-0.3,1.8-0.3
				c0.7,0,1.2,0.1,1.8,0.3s1,0.6,1.3,1c0.4,0.4,0.7,1,0.9,1.6c0.2,0.6,0.3,1.4,0.3,2.2v0.7c0,0.8-0.1,1.6-0.3,2.2s-0.5,1.2-0.8,1.6
				c-0.4,0.4-0.8,0.8-1.3,1s-1.1,0.3-1.8,0.3c-0.7,0-1.2-0.1-1.8-0.3s-1-0.5-1.3-1c-0.4-0.4-0.7-1-0.9-1.6s-0.3-1.4-0.3-2.2V173.7z
				 M72.2,174.4c0,1,0.1,1.7,0.4,2.1s0.6,0.7,1.1,0.7c0.5,0,0.9-0.2,1.1-0.7c0.3-0.4,0.4-1.2,0.4-2.1v-0.7c0-1-0.1-1.7-0.4-2.1
				c-0.3-0.5-0.6-0.7-1.1-0.7c-0.5,0-0.8,0.2-1.1,0.7s-0.4,1.2-0.4,2.1V174.4z"/>
			<path class="st1" d="M81.8,168.8l0.1,1c0.3-0.4,0.7-0.7,1.1-0.9s0.9-0.3,1.4-0.3c0.4,0,0.8,0.1,1.1,0.2s0.6,0.4,0.9,0.7
				c0.2,0.3,0.4,0.7,0.6,1.2c0.1,0.5,0.2,1.1,0.2,1.9v6.7h-2.8v-6.7c0-0.3,0-0.6-0.1-0.8c-0.1-0.2-0.1-0.4-0.2-0.5
				c-0.1-0.1-0.2-0.2-0.4-0.3c-0.1-0.1-0.3-0.1-0.5-0.1c-0.3,0-0.5,0.1-0.7,0.2c-0.2,0.1-0.4,0.3-0.5,0.6v7.6h-2.8v-10.5H81.8z"/>
			<path class="st1" d="M88.3,173.7c0-1.7,0.3-3,0.9-3.8c0.6-0.8,1.4-1.3,2.5-1.3c0.4,0,0.8,0.1,1.1,0.3c0.3,0.2,0.6,0.4,0.9,0.8
				v-5.3h2.8v14.9H94l-0.1-1.1c-0.3,0.4-0.6,0.7-0.9,0.9c-0.4,0.2-0.8,0.3-1.2,0.3c-1.1,0-2-0.4-2.5-1.3c-0.6-0.9-0.9-2.1-0.9-3.8
				V173.7z M91.1,174.4c0,0.5,0,0.9,0.1,1.2c0,0.3,0.1,0.6,0.2,0.9c0.1,0.2,0.3,0.4,0.4,0.5c0.2,0.1,0.4,0.2,0.7,0.2
				c0.3,0,0.5-0.1,0.7-0.2s0.4-0.3,0.5-0.5v-4.8c-0.1-0.2-0.3-0.4-0.5-0.6c-0.2-0.1-0.4-0.2-0.7-0.2c-0.3,0-0.5,0.1-0.7,0.2
				c-0.2,0.1-0.3,0.3-0.5,0.5s-0.2,0.5-0.2,0.9c0,0.4-0.1,0.8-0.1,1.3V174.4z"/>
			<path class="st1" d="M102.3,179.5c-0.7,0-1.4-0.1-1.9-0.3c-0.6-0.2-1-0.5-1.4-1c-0.4-0.4-0.7-0.9-0.9-1.5c-0.2-0.6-0.3-1.3-0.3-2
				v-0.9c0-0.9,0.1-1.6,0.3-2.2c0.2-0.6,0.5-1.2,0.8-1.6c0.4-0.4,0.8-0.8,1.3-1c0.5-0.2,1.1-0.3,1.8-0.3c1.3,0,2.3,0.4,3,1.3
				s1,2.1,1,3.8v1.2h-5.5c0,0.4,0.1,0.8,0.2,1.1c0.1,0.3,0.2,0.5,0.4,0.7c0.2,0.2,0.4,0.3,0.6,0.4c0.2,0.1,0.5,0.1,0.8,0.1
				c0.5,0,0.9-0.1,1.3-0.2c0.4-0.2,0.7-0.4,1-0.7l1.1,1.7c-0.1,0.2-0.3,0.4-0.5,0.6c-0.2,0.2-0.5,0.4-0.8,0.5s-0.6,0.3-1,0.4
				C103.2,179.4,102.8,179.5,102.3,179.5z M102,170.9c-0.5,0-0.8,0.2-1,0.5c-0.2,0.3-0.3,0.9-0.4,1.6h2.7v-0.3
				c0-0.6-0.1-1.1-0.3-1.4S102.5,170.9,102,170.9z"/>
			<path class="st1" d="M109.7,168.8l0.1,1c0.3-0.4,0.7-0.7,1.1-0.9s0.9-0.3,1.4-0.3c0.4,0,0.8,0.1,1.1,0.2s0.6,0.4,0.9,0.7
				c0.2,0.3,0.4,0.7,0.6,1.2c0.1,0.5,0.2,1.1,0.2,1.9v6.7h-2.8v-6.7c0-0.3,0-0.6-0.1-0.8c-0.1-0.2-0.1-0.4-0.2-0.5
				c-0.1-0.1-0.2-0.2-0.4-0.3c-0.1-0.1-0.3-0.1-0.5-0.1c-0.3,0-0.5,0.1-0.7,0.2c-0.2,0.1-0.4,0.3-0.5,0.6v7.6h-2.8v-10.5H109.7z"/>
			<path class="st1" d="M121.2,176.4c0-0.1,0-0.3-0.1-0.4s-0.2-0.2-0.3-0.3c-0.1-0.1-0.3-0.2-0.6-0.3c-0.2-0.1-0.5-0.2-0.8-0.4
				c-0.5-0.2-0.9-0.4-1.3-0.6c-0.4-0.2-0.7-0.4-0.9-0.7c-0.3-0.3-0.4-0.5-0.6-0.9s-0.2-0.7-0.2-1.1c0-0.4,0.1-0.9,0.2-1.2
				c0.2-0.4,0.4-0.7,0.7-1c0.3-0.3,0.7-0.5,1.1-0.7c0.4-0.2,1-0.2,1.5-0.2c0.6,0,1.1,0.1,1.6,0.2c0.5,0.2,0.9,0.4,1.2,0.7
				c0.3,0.3,0.6,0.6,0.8,1c0.2,0.4,0.3,0.9,0.3,1.3h-2.7c0-0.4-0.1-0.7-0.2-0.9c-0.2-0.2-0.4-0.3-0.8-0.3c-0.3,0-0.5,0.1-0.7,0.3
				c-0.2,0.2-0.3,0.4-0.3,0.8c0,0.1,0,0.3,0.1,0.4s0.2,0.2,0.3,0.3c0.1,0.1,0.3,0.2,0.5,0.3c0.2,0.1,0.5,0.2,0.8,0.4
				c0.5,0.2,1,0.4,1.4,0.6c0.4,0.2,0.7,0.5,1,0.7s0.4,0.6,0.6,0.9c0.1,0.3,0.2,0.7,0.2,1.1c0,0.5-0.1,0.9-0.3,1.3
				c-0.2,0.4-0.4,0.7-0.8,1s-0.7,0.5-1.2,0.6c-0.5,0.2-1,0.2-1.6,0.2c-0.6,0-1.2-0.1-1.7-0.3c-0.5-0.2-0.9-0.5-1.2-0.8
				c-0.3-0.3-0.6-0.7-0.7-1.1c-0.2-0.4-0.3-0.8-0.3-1.3h2.6c0,0.3,0,0.5,0.1,0.7c0.1,0.2,0.2,0.3,0.3,0.4c0.1,0.1,0.3,0.2,0.4,0.2
				c0.2,0,0.3,0.1,0.5,0.1C120.9,177.4,121.2,177.1,121.2,176.4z"/>
			<path class="st1" d="M129.4,179.5c-0.7,0-1.4-0.1-1.9-0.3c-0.6-0.2-1-0.5-1.4-1c-0.4-0.4-0.7-0.9-0.9-1.5c-0.2-0.6-0.3-1.3-0.3-2
				v-0.9c0-0.9,0.1-1.6,0.3-2.2c0.2-0.6,0.5-1.2,0.8-1.6c0.4-0.4,0.8-0.8,1.3-1c0.5-0.2,1.1-0.3,1.8-0.3c1.3,0,2.3,0.4,3,1.3
				s1,2.1,1,3.8v1.2h-5.5c0,0.4,0.1,0.8,0.2,1.1c0.1,0.3,0.2,0.5,0.4,0.7c0.2,0.2,0.4,0.3,0.6,0.4c0.2,0.1,0.5,0.1,0.8,0.1
				c0.5,0,0.9-0.1,1.3-0.2c0.4-0.2,0.7-0.4,1-0.7l1.1,1.7c-0.1,0.2-0.3,0.4-0.5,0.6c-0.2,0.2-0.5,0.4-0.8,0.5s-0.6,0.3-1,0.4
				C130.3,179.4,129.9,179.5,129.4,179.5z M129.1,170.9c-0.5,0-0.8,0.2-1,0.5c-0.2,0.3-0.3,0.9-0.4,1.6h2.7v-0.3
				c0-0.6-0.1-1.1-0.3-1.4S129.6,170.9,129.1,170.9z"/>
			<path class="st1" d="M133.9,173.7c0-1.7,0.3-3,0.9-3.8c0.6-0.8,1.4-1.3,2.5-1.3c0.4,0,0.8,0.1,1.1,0.3c0.3,0.2,0.6,0.4,0.9,0.8
				v-5.3h2.8v14.9h-2.5l-0.1-1.1c-0.3,0.4-0.6,0.7-0.9,0.9c-0.4,0.2-0.8,0.3-1.2,0.3c-1.1,0-2-0.4-2.5-1.3c-0.6-0.9-0.9-2.1-0.9-3.8
				V173.7z M136.7,174.4c0,0.5,0,0.9,0.1,1.2c0,0.3,0.1,0.6,0.2,0.9c0.1,0.2,0.3,0.4,0.4,0.5c0.2,0.1,0.4,0.2,0.7,0.2
				c0.3,0,0.5-0.1,0.7-0.2s0.4-0.3,0.5-0.5v-4.8c-0.1-0.2-0.3-0.4-0.5-0.6c-0.2-0.1-0.4-0.2-0.7-0.2c-0.3,0-0.5,0.1-0.7,0.2
				c-0.2,0.1-0.3,0.3-0.5,0.5s-0.2,0.5-0.2,0.9c0,0.4-0.1,0.8-0.1,1.3V174.4z"/>
			<path class="st1" d="M148.1,179.3v-14.1h4.4c0.7,0,1.3,0.1,1.9,0.2c0.6,0.2,1,0.4,1.4,0.7c0.4,0.3,0.7,0.7,0.9,1.2
				s0.3,1.1,0.3,1.7c0,0.3,0,0.6-0.1,0.9c-0.1,0.3-0.2,0.6-0.3,0.8c-0.1,0.3-0.3,0.5-0.6,0.7c-0.2,0.2-0.5,0.4-0.8,0.5
				c0.4,0.1,0.7,0.3,0.9,0.5s0.5,0.5,0.6,0.7c0.2,0.3,0.3,0.6,0.3,0.9c0.1,0.3,0.1,0.7,0.1,1c0,1.4-0.4,2.4-1.1,3.1
				c-0.8,0.7-1.8,1-3.3,1H148.1z M150.9,171h1.5c0.6,0,1-0.1,1.3-0.4c0.3-0.3,0.4-0.7,0.4-1.3c0-0.6-0.1-1.1-0.4-1.4
				c-0.3-0.3-0.7-0.4-1.3-0.4h-1.5V171z M150.9,173.1v3.8h1.8c0.3,0,0.5,0,0.7-0.1c0.2-0.1,0.4-0.2,0.5-0.4c0.1-0.2,0.2-0.4,0.3-0.6
				s0.1-0.5,0.1-0.7c0-0.6-0.1-1.1-0.3-1.4c-0.2-0.3-0.6-0.5-1.1-0.5H150.9z"/>
			<path class="st1" d="M158.4,173.7c0-0.8,0.1-1.5,0.3-2.2c0.2-0.6,0.5-1.2,0.9-1.6c0.4-0.4,0.8-0.8,1.3-1s1.1-0.3,1.8-0.3
				c0.7,0,1.2,0.1,1.8,0.3s1,0.6,1.3,1c0.4,0.4,0.7,1,0.9,1.6c0.2,0.6,0.3,1.4,0.3,2.2v0.7c0,0.8-0.1,1.6-0.3,2.2s-0.5,1.2-0.8,1.6
				c-0.4,0.4-0.8,0.8-1.3,1s-1.1,0.3-1.8,0.3c-0.7,0-1.2-0.1-1.8-0.3s-1-0.5-1.3-1c-0.4-0.4-0.7-1-0.9-1.6s-0.3-1.4-0.3-2.2V173.7z
				 M161.1,174.4c0,1,0.1,1.7,0.4,2.1s0.6,0.7,1.1,0.7c0.5,0,0.9-0.2,1.1-0.7c0.3-0.4,0.4-1.2,0.4-2.1v-0.7c0-1-0.1-1.7-0.4-2.1
				c-0.3-0.5-0.6-0.7-1.1-0.7c-0.5,0-0.8,0.2-1.1,0.7s-0.4,1.2-0.4,2.1V174.4z"/>
			<path class="st1" d="M171,179.3h-2.8v-14.9h2.8V179.3z"/>
			<path class="st1" d="M172.4,173.7c0-1.7,0.3-3,0.9-3.8c0.6-0.8,1.4-1.3,2.5-1.3c0.4,0,0.8,0.1,1.1,0.3c0.3,0.2,0.6,0.4,0.9,0.8
				v-5.3h2.8v14.9h-2.5l-0.1-1.1c-0.3,0.4-0.6,0.7-0.9,0.9c-0.4,0.2-0.8,0.3-1.2,0.3c-1.1,0-2-0.4-2.5-1.3c-0.6-0.9-0.9-2.1-0.9-3.8
				V173.7z M175.1,174.4c0,0.5,0,0.9,0.1,1.2c0,0.3,0.1,0.6,0.2,0.9c0.1,0.2,0.3,0.4,0.4,0.5c0.2,0.1,0.4,0.2,0.7,0.2
				c0.3,0,0.5-0.1,0.7-0.2s0.4-0.3,0.5-0.5v-4.8c-0.1-0.2-0.3-0.4-0.5-0.6c-0.2-0.1-0.4-0.2-0.7-0.2c-0.3,0-0.5,0.1-0.7,0.2
				c-0.2,0.1-0.3,0.3-0.5,0.5s-0.2,0.5-0.2,0.9c0,0.4-0.1,0.8-0.1,1.3V174.4z"/>
			<path class="st1" d="M6.1,196H3l-0.6,2.3H0L3.5,187h2.1l3.5,11.3H6.7L6.1,196z M3.5,194.1h2.1l-1.1-4L3.5,194.1z"/>
			<path class="st1" d="M19.7,198.3h-6.6v-1.5l3-3.9c0.2-0.3,0.4-0.6,0.5-0.8s0.3-0.5,0.3-0.7c0.1-0.2,0.1-0.4,0.2-0.6
				c0-0.2,0.1-0.3,0.1-0.5c0-0.5-0.1-0.9-0.3-1.2c-0.2-0.3-0.4-0.4-0.7-0.4c-0.2,0-0.4,0-0.5,0.1s-0.3,0.2-0.4,0.4
				c-0.1,0.2-0.2,0.4-0.2,0.6s-0.1,0.5-0.1,0.8h-2.2c0-0.5,0.1-1,0.2-1.4c0.2-0.4,0.4-0.8,0.7-1.2c0.3-0.3,0.6-0.6,1.1-0.8
				c0.4-0.2,0.9-0.3,1.4-0.3c0.5,0,1,0.1,1.4,0.2c0.4,0.1,0.7,0.4,1,0.6c0.3,0.3,0.5,0.6,0.6,1s0.2,0.8,0.2,1.3c0,0.4,0,0.7-0.1,1.1
				s-0.2,0.7-0.4,1.1c-0.2,0.4-0.4,0.7-0.7,1.1s-0.6,0.7-0.9,1.1l-1.4,2.1h3.8V198.3z"/>
			<path class="st1" d="M20.9,198.3V187h3c0.6,0,1.2,0.1,1.8,0.3c0.5,0.2,1,0.5,1.4,0.9c0.4,0.4,0.7,0.9,0.9,1.5
				c0.2,0.6,0.3,1.3,0.3,2v1.8c0,0.8-0.1,1.4-0.3,2c-0.2,0.6-0.5,1.1-0.9,1.5c-0.4,0.4-0.8,0.7-1.4,0.9c-0.5,0.2-1.1,0.3-1.8,0.3
				H20.9z M23.2,188.9v7.5h0.7c0.4,0,0.7-0.1,1-0.2c0.3-0.1,0.5-0.3,0.6-0.5c0.2-0.2,0.3-0.5,0.3-0.9c0.1-0.4,0.1-0.8,0.1-1.3v-1.8
				c0-0.5,0-1-0.1-1.3c-0.1-0.4-0.2-0.7-0.3-0.9c-0.2-0.2-0.4-0.4-0.6-0.5c-0.3-0.1-0.6-0.2-1-0.2H23.2z"/>
			<path class="st1" d="M40.6,197c-0.1,0.1-0.3,0.3-0.5,0.4s-0.5,0.3-0.8,0.5c-0.3,0.1-0.7,0.3-1.1,0.4s-0.9,0.2-1.4,0.2
				c-0.6,0-1.2-0.1-1.7-0.3s-0.9-0.5-1.3-0.9c-0.4-0.4-0.6-0.9-0.8-1.5c-0.2-0.6-0.3-1.3-0.3-2.1v-1.9c0-0.8,0.1-1.5,0.3-2.1
				c0.2-0.6,0.5-1.1,0.8-1.5c0.3-0.4,0.8-0.7,1.3-0.9s1-0.3,1.7-0.3c0.6,0,1.2,0.1,1.7,0.2c0.5,0.2,0.9,0.4,1.2,0.7
				c0.3,0.3,0.5,0.7,0.7,1.2c0.2,0.5,0.3,1,0.3,1.6h-2.2c0-0.4-0.1-0.7-0.2-0.9c-0.1-0.2-0.2-0.4-0.3-0.6c-0.1-0.1-0.3-0.2-0.5-0.3
				s-0.4-0.1-0.7-0.1c-0.3,0-0.6,0.1-0.8,0.2c-0.2,0.1-0.4,0.3-0.6,0.5c-0.1,0.2-0.3,0.5-0.3,0.9s-0.1,0.8-0.1,1.4v1.9
				c0,0.5,0,1,0.1,1.4c0.1,0.4,0.2,0.7,0.4,0.9c0.2,0.2,0.4,0.4,0.6,0.5c0.2,0.1,0.5,0.2,0.9,0.2c0.2,0,0.4,0,0.5,0
				c0.1,0,0.3-0.1,0.4-0.1s0.2-0.1,0.2-0.1c0.1,0,0.1-0.1,0.2-0.1v-2.1h-1.6v-1.7h3.9V197z"/>
			<path class="st1" d="M45.7,198.3c0-0.1-0.1-0.2-0.1-0.3c0-0.1-0.1-0.2-0.1-0.4c-0.2,0.2-0.4,0.4-0.6,0.6c-0.3,0.2-0.6,0.2-1,0.2
				c-0.3,0-0.7-0.1-1-0.2c-0.3-0.1-0.6-0.3-0.8-0.5s-0.4-0.5-0.5-0.8c-0.1-0.3-0.2-0.7-0.2-1c0-0.4,0.1-0.8,0.2-1.1
				c0.1-0.3,0.3-0.6,0.6-0.9c0.3-0.2,0.6-0.4,1-0.6s0.9-0.2,1.5-0.2h0.6v-0.7c0-0.4-0.1-0.6-0.2-0.8s-0.3-0.2-0.6-0.2
				c-0.3,0-0.5,0.1-0.6,0.3c-0.1,0.2-0.2,0.4-0.2,0.7h-2.2c0-0.4,0.1-0.7,0.2-1c0.1-0.3,0.3-0.6,0.6-0.8c0.3-0.2,0.6-0.4,1-0.6
				c0.4-0.1,0.8-0.2,1.3-0.2c0.4,0,0.8,0.1,1.2,0.2c0.4,0.1,0.7,0.3,0.9,0.5c0.3,0.2,0.5,0.5,0.6,0.9s0.2,0.8,0.2,1.3v3.7
				c0,0.2,0,0.5,0,0.6c0,0.2,0,0.4,0.1,0.5s0.1,0.3,0.1,0.4c0,0.1,0.1,0.2,0.1,0.3v0.1H45.7z M44.4,196.7c0.2,0,0.4,0,0.6-0.1
				c0.2-0.1,0.3-0.2,0.4-0.3v-1.7h-0.5c-0.2,0-0.4,0-0.5,0.1c-0.1,0.1-0.3,0.2-0.4,0.3c-0.1,0.1-0.2,0.3-0.2,0.4
				c0,0.2-0.1,0.3-0.1,0.5c0,0.3,0.1,0.5,0.2,0.7S44.2,196.7,44.4,196.7z"/>
			<path class="st1" d="M51,189.9l0.1,0.8c0.2-0.3,0.5-0.5,0.8-0.7c0.3-0.2,0.7-0.2,1.1-0.2c0.4,0,0.7,0.1,1,0.3s0.6,0.5,0.7,0.9
				c0.2-0.4,0.5-0.6,0.8-0.8c0.3-0.2,0.7-0.3,1.2-0.3c0.3,0,0.6,0.1,0.9,0.2c0.3,0.1,0.5,0.3,0.7,0.5c0.2,0.3,0.3,0.6,0.5,1
				c0.1,0.4,0.2,0.9,0.2,1.5v5.3h-2.2V193c0-0.3,0-0.5-0.1-0.7c0-0.2-0.1-0.3-0.2-0.4c-0.1-0.1-0.2-0.2-0.3-0.2
				c-0.1,0-0.2-0.1-0.4-0.1c-0.2,0-0.4,0.1-0.5,0.2c-0.1,0.1-0.3,0.3-0.4,0.5c0,0.1,0,0.1,0,0.2c0,0.1,0,0.1,0,0.2v5.6h-2.2V193
				c0-0.3,0-0.5-0.1-0.7c0-0.2-0.1-0.3-0.2-0.4c-0.1-0.1-0.2-0.2-0.3-0.2c-0.1,0-0.2-0.1-0.4-0.1c-0.2,0-0.4,0.1-0.5,0.2
				c-0.1,0.1-0.3,0.3-0.4,0.4v6.1h-2.2v-8.4H51z"/>
			<path class="st1" d="M63.7,198.4c-0.6,0-1.1-0.1-1.5-0.3c-0.4-0.2-0.8-0.4-1.1-0.8s-0.5-0.7-0.7-1.2c-0.2-0.5-0.2-1-0.2-1.6v-0.7
				c0-0.7,0.1-1.3,0.2-1.8s0.4-0.9,0.7-1.3c0.3-0.3,0.6-0.6,1.1-0.8s0.9-0.3,1.4-0.3c1.1,0,1.9,0.3,2.4,1c0.5,0.7,0.8,1.7,0.8,3v1
				h-4.4c0,0.3,0.1,0.6,0.1,0.8c0.1,0.2,0.2,0.4,0.3,0.5c0.1,0.1,0.3,0.2,0.5,0.3c0.2,0.1,0.4,0.1,0.6,0.1c0.4,0,0.7-0.1,1-0.2
				c0.3-0.1,0.6-0.3,0.8-0.6l0.9,1.3c-0.1,0.1-0.2,0.3-0.4,0.4c-0.2,0.1-0.4,0.3-0.6,0.4c-0.2,0.1-0.5,0.2-0.8,0.3
				C64.4,198.4,64.1,198.4,63.7,198.4z M63.5,191.6c-0.4,0-0.7,0.1-0.8,0.4s-0.3,0.7-0.3,1.3h2.2v-0.2c0-0.5-0.1-0.9-0.2-1.1
				C64.1,191.7,63.9,191.6,63.5,191.6z"/>
			<path class="st1" d="M74.3,198.4c-0.6,0-1.1-0.1-1.5-0.3c-0.4-0.2-0.8-0.4-1.1-0.8s-0.5-0.7-0.7-1.2c-0.2-0.5-0.2-1-0.2-1.6v-0.7
				c0-0.7,0.1-1.3,0.2-1.8s0.4-0.9,0.7-1.3c0.3-0.3,0.6-0.6,1.1-0.8s0.9-0.3,1.4-0.3c1.1,0,1.9,0.3,2.4,1c0.5,0.7,0.8,1.7,0.8,3v1
				h-4.4c0,0.3,0.1,0.6,0.1,0.8c0.1,0.2,0.2,0.4,0.3,0.5c0.1,0.1,0.3,0.2,0.5,0.3c0.2,0.1,0.4,0.1,0.6,0.1c0.4,0,0.7-0.1,1-0.2
				c0.3-0.1,0.6-0.3,0.8-0.6l0.9,1.3c-0.1,0.1-0.2,0.3-0.4,0.4c-0.2,0.1-0.4,0.3-0.6,0.4c-0.2,0.1-0.5,0.2-0.8,0.3
				C75,198.4,74.7,198.4,74.3,198.4z M74.1,191.6c-0.4,0-0.7,0.1-0.8,0.4s-0.3,0.7-0.3,1.3h2.2v-0.2c0-0.5-0.1-0.9-0.2-1.1
				C74.7,191.7,74.5,191.6,74.1,191.6z"/>
			<path class="st1" d="M80.2,189.9l0.1,0.8c0.2-0.3,0.5-0.6,0.9-0.7s0.7-0.3,1.1-0.3c0.3,0,0.6,0.1,0.9,0.2s0.5,0.3,0.7,0.5
				c0.2,0.3,0.3,0.6,0.5,1c0.1,0.4,0.2,0.9,0.2,1.5v5.3h-2.2V193c0-0.3,0-0.5-0.1-0.7c0-0.2-0.1-0.3-0.2-0.4
				c-0.1-0.1-0.2-0.2-0.3-0.2c-0.1,0-0.3-0.1-0.4-0.1c-0.2,0-0.4,0.1-0.5,0.2c-0.2,0.1-0.3,0.3-0.4,0.4v6.1h-2.2v-8.4H80.2z"/>
			<path class="st1" d="M85.4,193.8c0-1.4,0.2-2.4,0.7-3.1c0.5-0.7,1.2-1,2.1-1c0.4,0,0.8,0.1,1,0.2c0.3,0.2,0.5,0.4,0.7,0.7
				l0.1-0.7h2v8.4c0,0.6-0.1,1.1-0.3,1.5c-0.2,0.4-0.4,0.8-0.7,1c-0.3,0.3-0.7,0.5-1.1,0.6s-0.9,0.2-1.4,0.2c-0.2,0-0.4,0-0.7-0.1
				s-0.5-0.1-0.7-0.2s-0.5-0.2-0.7-0.3c-0.2-0.1-0.4-0.3-0.5-0.4l0.7-1.5c0.1,0.1,0.2,0.2,0.4,0.3c0.1,0.1,0.3,0.2,0.4,0.2
				s0.3,0.1,0.5,0.2c0.2,0,0.3,0.1,0.5,0.1c0.2,0,0.4,0,0.6-0.1s0.3-0.1,0.4-0.3c0.1-0.1,0.2-0.3,0.3-0.5c0.1-0.2,0.1-0.4,0.1-0.7
				v-0.7c-0.2,0.3-0.4,0.5-0.7,0.6c-0.3,0.1-0.6,0.2-0.9,0.2c-0.4,0-0.8-0.1-1.2-0.3c-0.3-0.2-0.6-0.4-0.9-0.8
				c-0.2-0.3-0.4-0.8-0.6-1.3s-0.2-1.1-0.2-1.7V193.8z M87.6,194.4c0,0.8,0.1,1.3,0.3,1.7s0.5,0.5,1,0.5c0.2,0,0.4,0,0.6-0.1
				s0.3-0.2,0.4-0.4v-4c-0.1-0.2-0.2-0.3-0.4-0.4c-0.2-0.1-0.4-0.1-0.6-0.1c-0.4,0-0.8,0.2-1,0.5s-0.3,0.9-0.3,1.7V194.4z"/>
			<path class="st1" d="M93.4,187.7c0-0.2,0-0.3,0.1-0.5s0.1-0.3,0.2-0.4c0.1-0.1,0.2-0.2,0.4-0.2c0.1-0.1,0.3-0.1,0.5-0.1
				s0.3,0,0.5,0.1c0.1,0.1,0.3,0.1,0.4,0.2c0.1,0.1,0.2,0.2,0.2,0.4c0.1,0.1,0.1,0.3,0.1,0.5c0,0.2,0,0.3-0.1,0.5
				c-0.1,0.1-0.1,0.3-0.2,0.4c-0.1,0.1-0.2,0.2-0.4,0.2s-0.3,0.1-0.5,0.1s-0.3,0-0.5-0.1c-0.1-0.1-0.3-0.1-0.4-0.2
				c-0.1-0.1-0.2-0.2-0.2-0.4S93.4,187.9,93.4,187.7z M95.7,198.3h-2.2v-8.4h2.2V198.3z"/>
			<path class="st1" d="M99,189.9l0.1,0.8c0.2-0.3,0.5-0.6,0.9-0.7s0.7-0.3,1.1-0.3c0.3,0,0.6,0.1,0.9,0.2s0.5,0.3,0.7,0.5
				c0.2,0.3,0.3,0.6,0.5,1c0.1,0.4,0.2,0.9,0.2,1.5v5.3h-2.2V193c0-0.3,0-0.5-0.1-0.7c0-0.2-0.1-0.3-0.2-0.4
				c-0.1-0.1-0.2-0.2-0.3-0.2c-0.1,0-0.3-0.1-0.4-0.1c-0.2,0-0.4,0.1-0.5,0.2c-0.2,0.1-0.3,0.3-0.4,0.4v6.1H97v-8.4H99z"/>
			<path class="st1" d="M107.9,198.4c-0.6,0-1.1-0.1-1.5-0.3c-0.4-0.2-0.8-0.4-1.1-0.8s-0.5-0.7-0.7-1.2c-0.2-0.5-0.2-1-0.2-1.6
				v-0.7c0-0.7,0.1-1.3,0.2-1.8s0.4-0.9,0.7-1.3c0.3-0.3,0.6-0.6,1.1-0.8s0.9-0.3,1.4-0.3c1.1,0,1.9,0.3,2.4,1
				c0.5,0.7,0.8,1.7,0.8,3v1h-4.4c0,0.3,0.1,0.6,0.1,0.8c0.1,0.2,0.2,0.4,0.3,0.5c0.1,0.1,0.3,0.2,0.5,0.3c0.2,0.1,0.4,0.1,0.6,0.1
				c0.4,0,0.7-0.1,1-0.2c0.3-0.1,0.6-0.3,0.8-0.6l0.9,1.3c-0.1,0.1-0.2,0.3-0.4,0.4c-0.2,0.1-0.4,0.3-0.6,0.4
				c-0.2,0.1-0.5,0.2-0.8,0.3C108.6,198.4,108.3,198.4,107.9,198.4z M107.7,191.6c-0.4,0-0.7,0.1-0.8,0.4s-0.3,0.7-0.3,1.3h2.2v-0.2
				c0-0.5-0.1-0.9-0.2-1.1C108.3,191.7,108,191.6,107.7,191.6z"/>
			<path class="st1" d="M121.7,194.4c0,1.4-0.2,2.4-0.6,3.1s-1.1,1-2,1c-0.4,0-0.7-0.1-1-0.3c-0.3-0.2-0.5-0.4-0.7-0.7l-0.1,0.8h-2
				v-11.9h2.2v4.2c0.2-0.3,0.4-0.5,0.7-0.6c0.3-0.1,0.6-0.2,0.9-0.2c0.9,0,1.6,0.3,2.1,1c0.4,0.7,0.6,1.7,0.6,3V194.4z M119.5,193.8
				c0-0.4,0-0.7,0-1c0-0.3-0.1-0.5-0.2-0.7s-0.2-0.3-0.3-0.4c-0.1-0.1-0.3-0.1-0.6-0.1c-0.2,0-0.5,0.1-0.6,0.2
				c-0.2,0.1-0.3,0.3-0.4,0.5v3.8c0.1,0.2,0.2,0.3,0.4,0.4s0.4,0.2,0.6,0.2c0.2,0,0.4,0,0.6-0.1c0.1-0.1,0.3-0.2,0.3-0.4
				c0.1-0.2,0.1-0.4,0.2-0.7c0-0.3,0-0.6,0-1V193.8z"/>
			<path class="st1" d="M126.8,197.5c-0.2,0.3-0.5,0.5-0.8,0.7c-0.3,0.2-0.7,0.2-1,0.2c-0.4,0-0.7-0.1-1-0.2
				c-0.3-0.1-0.5-0.3-0.7-0.5c-0.2-0.2-0.4-0.6-0.5-1c-0.1-0.4-0.2-0.9-0.2-1.4v-5.4h2.2v5.4c0,0.5,0.1,0.8,0.2,1
				c0.1,0.2,0.3,0.3,0.6,0.3c0.3,0,0.5-0.1,0.7-0.2c0.2-0.1,0.3-0.3,0.4-0.5v-6.1h2.2v8.4h-2.1L126.8,197.5z"/>
			<path class="st1" d="M130.1,187.7c0-0.2,0-0.3,0.1-0.5s0.1-0.3,0.2-0.4c0.1-0.1,0.2-0.2,0.4-0.2c0.1-0.1,0.3-0.1,0.5-0.1
				s0.3,0,0.5,0.1c0.1,0.1,0.3,0.1,0.4,0.2c0.1,0.1,0.2,0.2,0.2,0.4c0.1,0.1,0.1,0.3,0.1,0.5c0,0.2,0,0.3-0.1,0.5
				c-0.1,0.1-0.1,0.3-0.2,0.4c-0.1,0.1-0.2,0.2-0.4,0.2s-0.3,0.1-0.5,0.1s-0.3,0-0.5-0.1c-0.1-0.1-0.3-0.1-0.4-0.2
				c-0.1-0.1-0.2-0.2-0.2-0.4S130.1,187.9,130.1,187.7z M132.4,198.3h-2.2v-8.4h2.2V198.3z"/>
			<path class="st1" d="M136.1,198.3h-2.2v-11.9h2.2V198.3z"/>
			<path class="st1" d="M140,187.8v2.1h1.1v1.6H140v4.2c0,0.2,0,0.3,0,0.4c0,0.1,0.1,0.2,0.1,0.3c0.1,0.1,0.1,0.1,0.2,0.1
				s0.2,0,0.3,0c0.1,0,0.2,0,0.3,0c0.1,0,0.2,0,0.2,0l0,1.7c-0.2,0.1-0.3,0.1-0.5,0.2c-0.2,0-0.4,0.1-0.7,0.1c-0.3,0-0.6,0-0.9-0.1
				c-0.3-0.1-0.5-0.2-0.7-0.4c-0.2-0.2-0.3-0.5-0.4-0.8s-0.2-0.7-0.2-1.1v-4.4h-1v-1.6h1v-2.1H140z"/>
			<path class="st1" d="M151.5,194.6l0.8-4.7h2.1l-1.7,8.4h-1.8l-1.2-4.8l-1.2,4.8h-1.8l-1.7-8.4h2.1l0.7,4.7l1.1-4.7h1.6
				L151.5,194.6z"/>
			<path class="st1" d="M155.1,187.7c0-0.2,0-0.3,0.1-0.5s0.1-0.3,0.2-0.4c0.1-0.1,0.2-0.2,0.4-0.2c0.1-0.1,0.3-0.1,0.5-0.1
				s0.3,0,0.5,0.1c0.1,0.1,0.3,0.1,0.4,0.2c0.1,0.1,0.2,0.2,0.2,0.4c0.1,0.1,0.1,0.3,0.1,0.5c0,0.2,0,0.3-0.1,0.5
				c-0.1,0.1-0.1,0.3-0.2,0.4c-0.1,0.1-0.2,0.2-0.4,0.2s-0.3,0.1-0.5,0.1s-0.3,0-0.5-0.1c-0.1-0.1-0.3-0.1-0.4-0.2
				c-0.1-0.1-0.2-0.2-0.2-0.4S155.1,187.9,155.1,187.7z M157.4,198.3h-2.2v-8.4h2.2V198.3z"/>
			<path class="st1" d="M161.3,187.8v2.1h1.1v1.6h-1.1v4.2c0,0.2,0,0.3,0,0.4c0,0.1,0.1,0.2,0.1,0.3c0.1,0.1,0.1,0.1,0.2,0.1
				s0.2,0,0.3,0c0.1,0,0.2,0,0.3,0c0.1,0,0.2,0,0.2,0l0,1.7c-0.2,0.1-0.3,0.1-0.5,0.2c-0.2,0-0.4,0.1-0.7,0.1c-0.3,0-0.6,0-0.9-0.1
				c-0.3-0.1-0.5-0.2-0.7-0.4c-0.2-0.2-0.3-0.5-0.4-0.8s-0.2-0.7-0.2-1.1v-4.4h-1v-1.6h1v-2.1H161.3z"/>
			<path class="st1" d="M165.5,190.6c0.2-0.3,0.5-0.5,0.8-0.7c0.3-0.2,0.6-0.2,1-0.2c0.3,0,0.7,0.1,1,0.2c0.3,0.1,0.5,0.3,0.7,0.6
				c0.2,0.3,0.4,0.6,0.5,1c0.1,0.4,0.2,0.9,0.2,1.5v5.3h-2.2V193c0-0.3,0-0.5-0.1-0.7c0-0.2-0.1-0.3-0.2-0.4s-0.2-0.2-0.3-0.2
				c-0.1,0-0.3-0.1-0.4-0.1c-0.2,0-0.4,0-0.5,0.1c-0.1,0.1-0.3,0.2-0.4,0.4v6.1h-2.2v-11.9h2.2V190.6z"/>
			<path class="st1" d="M178.1,198.3c0-0.1-0.1-0.2-0.1-0.3c0-0.1-0.1-0.2-0.1-0.4c-0.2,0.2-0.4,0.4-0.6,0.6c-0.3,0.2-0.6,0.2-1,0.2
				c-0.3,0-0.7-0.1-1-0.2c-0.3-0.1-0.6-0.3-0.8-0.5s-0.4-0.5-0.5-0.8c-0.1-0.3-0.2-0.7-0.2-1c0-0.4,0.1-0.8,0.2-1.1
				c0.1-0.3,0.3-0.6,0.6-0.9c0.3-0.2,0.6-0.4,1-0.6s0.9-0.2,1.5-0.2h0.6v-0.7c0-0.4-0.1-0.6-0.2-0.8s-0.3-0.2-0.6-0.2
				c-0.3,0-0.5,0.1-0.6,0.3c-0.1,0.2-0.2,0.4-0.2,0.7h-2.2c0-0.4,0.1-0.7,0.2-1c0.1-0.3,0.3-0.6,0.6-0.8c0.3-0.2,0.6-0.4,1-0.6
				c0.4-0.1,0.8-0.2,1.3-0.2c0.4,0,0.8,0.1,1.2,0.2c0.4,0.1,0.7,0.3,0.9,0.5c0.3,0.2,0.5,0.5,0.6,0.9s0.2,0.8,0.2,1.3v3.7
				c0,0.2,0,0.5,0,0.6c0,0.2,0,0.4,0.1,0.5s0.1,0.3,0.1,0.4c0,0.1,0.1,0.2,0.1,0.3v0.1H178.1z M176.8,196.7c0.2,0,0.4,0,0.6-0.1
				c0.2-0.1,0.3-0.2,0.4-0.3v-1.7h-0.5c-0.2,0-0.4,0-0.5,0.1c-0.1,0.1-0.3,0.2-0.4,0.3c-0.1,0.1-0.2,0.3-0.2,0.4
				c0,0.2-0.1,0.3-0.1,0.5c0,0.3,0.1,0.5,0.2,0.7S176.6,196.7,176.8,196.7z"/>
			<path class="st1" d="M185.1,198.3v-6.7h-1v-1.6h1v-0.7c0-0.5,0.1-0.9,0.2-1.3s0.3-0.7,0.5-0.9c0.2-0.2,0.5-0.4,0.9-0.6
				s0.7-0.2,1.1-0.2c0.2,0,0.4,0,0.5,0c0.2,0,0.3,0.1,0.5,0.1l0,1.8c-0.1,0-0.3-0.1-0.5-0.1c-0.3,0-0.6,0.1-0.7,0.3
				c-0.2,0.2-0.3,0.5-0.3,0.8v0.7h1.3v1.6h-1.3v6.7H185.1z"/>
			<path class="st1" d="M189.3,193.8c0-0.7,0.1-1.2,0.2-1.7c0.2-0.5,0.4-0.9,0.7-1.3c0.3-0.3,0.6-0.6,1.1-0.8s0.9-0.3,1.4-0.3
				c0.5,0,1,0.1,1.4,0.3s0.8,0.4,1.1,0.8c0.3,0.3,0.5,0.8,0.7,1.3c0.2,0.5,0.2,1.1,0.2,1.7v0.5c0,0.7-0.1,1.2-0.2,1.7
				c-0.2,0.5-0.4,0.9-0.7,1.3c-0.3,0.3-0.7,0.6-1.1,0.8c-0.4,0.2-0.9,0.3-1.4,0.3c-0.5,0-1-0.1-1.4-0.3c-0.4-0.2-0.8-0.4-1.1-0.8
				c-0.3-0.3-0.5-0.8-0.7-1.3s-0.2-1.1-0.2-1.7V193.8z M191.5,194.4c0,0.8,0.1,1.3,0.3,1.7c0.2,0.4,0.5,0.5,0.9,0.5
				c0.4,0,0.7-0.2,0.9-0.5c0.2-0.4,0.3-0.9,0.3-1.7v-0.5c0-0.8-0.1-1.3-0.3-1.7c-0.2-0.4-0.5-0.6-0.9-0.6c-0.4,0-0.7,0.2-0.9,0.6
				s-0.3,0.9-0.3,1.7V194.4z"/>
			<path class="st1" d="M200.1,196.6c0.3,0,0.5-0.1,0.7-0.3c0.2-0.2,0.3-0.5,0.3-1h2.1c0,0.5-0.1,0.9-0.2,1.3s-0.4,0.7-0.6,1
				c-0.3,0.3-0.6,0.5-0.9,0.6c-0.4,0.1-0.8,0.2-1.2,0.2c-0.6,0-1.1-0.1-1.5-0.3s-0.8-0.4-1-0.8c-0.3-0.3-0.5-0.8-0.6-1.3
				c-0.1-0.5-0.2-1.1-0.2-1.7v-0.6c0-0.6,0.1-1.2,0.2-1.7c0.1-0.5,0.3-0.9,0.6-1.3s0.6-0.6,1-0.8s0.9-0.3,1.5-0.3
				c0.4,0,0.9,0.1,1.2,0.2c0.4,0.1,0.7,0.4,0.9,0.6c0.3,0.3,0.5,0.6,0.6,1c0.1,0.4,0.2,0.9,0.2,1.4h-2.1c0-0.5-0.1-0.8-0.2-1.1
				c-0.1-0.3-0.4-0.4-0.7-0.4c-0.2,0-0.4,0-0.6,0.1c-0.1,0.1-0.3,0.2-0.3,0.4s-0.1,0.4-0.1,0.7c0,0.3,0,0.6,0,1v0.6c0,0.4,0,0.7,0,1
				c0,0.3,0.1,0.5,0.1,0.7s0.2,0.3,0.3,0.4S199.9,196.6,200.1,196.6z"/>
			<path class="st1" d="M208.2,197.5c-0.2,0.3-0.5,0.5-0.8,0.7c-0.3,0.2-0.7,0.2-1,0.2c-0.4,0-0.7-0.1-1-0.2
				c-0.3-0.1-0.5-0.3-0.7-0.5c-0.2-0.2-0.4-0.6-0.5-1c-0.1-0.4-0.2-0.9-0.2-1.4v-5.4h2.2v5.4c0,0.5,0.1,0.8,0.2,1
				c0.1,0.2,0.3,0.3,0.6,0.3c0.3,0,0.5-0.1,0.7-0.2c0.2-0.1,0.3-0.3,0.4-0.5v-6.1h2.2v8.4h-2.1L208.2,197.5z"/>
			<path class="st1" d="M215.2,196c0-0.1,0-0.2-0.1-0.3c-0.1-0.1-0.1-0.2-0.3-0.3c-0.1-0.1-0.3-0.2-0.5-0.3
				c-0.2-0.1-0.4-0.2-0.7-0.3c-0.4-0.2-0.7-0.3-1-0.5c-0.3-0.2-0.5-0.3-0.7-0.5c-0.2-0.2-0.4-0.4-0.5-0.7s-0.2-0.6-0.2-0.9
				c0-0.4,0.1-0.7,0.2-1c0.1-0.3,0.3-0.6,0.6-0.8c0.2-0.2,0.6-0.4,0.9-0.5c0.4-0.1,0.8-0.2,1.2-0.2c0.5,0,0.9,0.1,1.3,0.2
				c0.4,0.1,0.7,0.3,1,0.5c0.3,0.2,0.5,0.5,0.6,0.8s0.2,0.7,0.2,1.1h-2.2c0-0.3-0.1-0.6-0.2-0.8s-0.3-0.3-0.7-0.3
				c-0.2,0-0.4,0.1-0.6,0.2c-0.1,0.1-0.2,0.3-0.2,0.6c0,0.1,0,0.2,0.1,0.3c0,0.1,0.1,0.2,0.2,0.3c0.1,0.1,0.3,0.2,0.4,0.3
				s0.4,0.2,0.7,0.3c0.4,0.2,0.8,0.3,1.1,0.5c0.3,0.2,0.6,0.4,0.8,0.6s0.4,0.4,0.4,0.7c0.1,0.3,0.1,0.6,0.1,0.9c0,0.4-0.1,0.7-0.2,1
				c-0.1,0.3-0.3,0.6-0.6,0.8c-0.3,0.2-0.6,0.4-1,0.5c-0.4,0.1-0.8,0.2-1.3,0.2c-0.5,0-1-0.1-1.4-0.2c-0.4-0.2-0.7-0.4-1-0.6
				c-0.3-0.3-0.5-0.6-0.6-0.9c-0.1-0.3-0.2-0.7-0.2-1h2.1c0,0.2,0,0.4,0.1,0.6c0.1,0.1,0.1,0.3,0.2,0.4s0.2,0.1,0.3,0.2
				c0.1,0,0.3,0,0.4,0C215,196.8,215.2,196.6,215.2,196z"/>
			<path class="st1" d="M221.5,193.8c0-0.7,0.1-1.2,0.2-1.7c0.2-0.5,0.4-0.9,0.7-1.3c0.3-0.3,0.6-0.6,1.1-0.8s0.9-0.3,1.4-0.3
				c0.5,0,1,0.1,1.4,0.3s0.8,0.4,1.1,0.8c0.3,0.3,0.5,0.8,0.7,1.3c0.2,0.5,0.2,1.1,0.2,1.7v0.5c0,0.7-0.1,1.2-0.2,1.7
				c-0.2,0.5-0.4,0.9-0.7,1.3c-0.3,0.3-0.7,0.6-1.1,0.8c-0.4,0.2-0.9,0.3-1.4,0.3c-0.5,0-1-0.1-1.4-0.3c-0.4-0.2-0.8-0.4-1.1-0.8
				c-0.3-0.3-0.5-0.8-0.7-1.3s-0.2-1.1-0.2-1.7V193.8z M223.7,194.4c0,0.8,0.1,1.3,0.3,1.7c0.2,0.4,0.5,0.5,0.9,0.5
				c0.4,0,0.7-0.2,0.9-0.5c0.2-0.4,0.3-0.9,0.3-1.7v-0.5c0-0.8-0.1-1.3-0.3-1.7c-0.2-0.4-0.5-0.6-0.9-0.6c-0.4,0-0.7,0.2-0.9,0.6
				s-0.3,0.9-0.3,1.7V194.4z"/>
			<path class="st1" d="M231.3,189.9l0.1,0.8c0.2-0.3,0.5-0.6,0.9-0.7s0.7-0.3,1.1-0.3c0.3,0,0.6,0.1,0.9,0.2s0.5,0.3,0.7,0.5
				c0.2,0.3,0.3,0.6,0.5,1c0.1,0.4,0.2,0.9,0.2,1.5v5.3h-2.2V193c0-0.3,0-0.5-0.1-0.7c0-0.2-0.1-0.3-0.2-0.4
				c-0.1-0.1-0.2-0.2-0.3-0.2c-0.1,0-0.3-0.1-0.4-0.1c-0.2,0-0.4,0.1-0.5,0.2c-0.2,0.1-0.3,0.3-0.4,0.4v6.1h-2.2v-8.4H231.3z"/>
			<path class="st1" d="M244.3,197.5c-0.2,0.3-0.5,0.5-0.8,0.7c-0.3,0.2-0.7,0.2-1,0.2c-0.4,0-0.7-0.1-1-0.2
				c-0.3-0.1-0.5-0.3-0.7-0.5c-0.2-0.2-0.4-0.6-0.5-1c-0.1-0.4-0.2-0.9-0.2-1.4v-5.4h2.2v5.4c0,0.5,0.1,0.8,0.2,1
				c0.1,0.2,0.3,0.3,0.6,0.3c0.3,0,0.5-0.1,0.7-0.2c0.2-0.1,0.3-0.3,0.4-0.5v-6.1h2.2v8.4h-2.1L244.3,197.5z"/>
			<path class="st1" d="M251.3,196c0-0.1,0-0.2-0.1-0.3c-0.1-0.1-0.1-0.2-0.3-0.3c-0.1-0.1-0.3-0.2-0.5-0.3s-0.4-0.2-0.7-0.3
				c-0.4-0.2-0.7-0.3-1-0.5c-0.3-0.2-0.5-0.3-0.7-0.5c-0.2-0.2-0.4-0.4-0.5-0.7s-0.2-0.6-0.2-0.9c0-0.4,0.1-0.7,0.2-1
				c0.1-0.3,0.3-0.6,0.6-0.8c0.2-0.2,0.6-0.4,0.9-0.5c0.4-0.1,0.8-0.2,1.2-0.2c0.5,0,0.9,0.1,1.3,0.2c0.4,0.1,0.7,0.3,1,0.5
				c0.3,0.2,0.5,0.5,0.6,0.8c0.1,0.3,0.2,0.7,0.2,1.1h-2.2c0-0.3-0.1-0.6-0.2-0.8s-0.3-0.3-0.7-0.3c-0.2,0-0.4,0.1-0.6,0.2
				c-0.2,0.1-0.2,0.3-0.2,0.6c0,0.1,0,0.2,0.1,0.3s0.1,0.2,0.2,0.3c0.1,0.1,0.3,0.2,0.4,0.3s0.4,0.2,0.7,0.3
				c0.4,0.2,0.8,0.3,1.1,0.5c0.3,0.2,0.6,0.4,0.8,0.6s0.4,0.4,0.4,0.7c0.1,0.3,0.1,0.6,0.1,0.9c0,0.4-0.1,0.7-0.2,1
				s-0.3,0.6-0.6,0.8s-0.6,0.4-1,0.5s-0.8,0.2-1.3,0.2c-0.5,0-1-0.1-1.4-0.2c-0.4-0.2-0.7-0.4-1-0.6c-0.3-0.3-0.5-0.6-0.6-0.9
				c-0.1-0.3-0.2-0.7-0.2-1h2.1c0,0.2,0,0.4,0.1,0.6s0.1,0.3,0.2,0.4s0.2,0.1,0.3,0.2s0.3,0,0.4,0
				C251.1,196.8,251.3,196.6,251.3,196z"/>
			<path class="st1" d="M257.9,198.4c-0.6,0-1.1-0.1-1.5-0.3c-0.4-0.2-0.8-0.4-1.1-0.8c-0.3-0.3-0.5-0.7-0.7-1.2
				c-0.2-0.5-0.2-1-0.2-1.6v-0.7c0-0.7,0.1-1.3,0.2-1.8s0.4-0.9,0.7-1.3c0.3-0.3,0.6-0.6,1.1-0.8s0.9-0.3,1.4-0.3
				c1.1,0,1.9,0.3,2.4,1s0.8,1.7,0.8,3v1h-4.4c0,0.3,0.1,0.6,0.1,0.8c0.1,0.2,0.2,0.4,0.3,0.5c0.1,0.1,0.3,0.2,0.5,0.3
				c0.2,0.1,0.4,0.1,0.6,0.1c0.4,0,0.7-0.1,1-0.2c0.3-0.1,0.6-0.3,0.8-0.6l0.9,1.3c-0.1,0.1-0.3,0.3-0.4,0.4
				c-0.2,0.1-0.4,0.3-0.6,0.4c-0.2,0.1-0.5,0.2-0.8,0.3C258.6,198.4,258.3,198.4,257.9,198.4z M257.7,191.6c-0.4,0-0.7,0.1-0.8,0.4
				s-0.3,0.7-0.3,1.3h2.2v-0.2c0-0.5-0.1-0.9-0.2-1.1C258.3,191.7,258,191.6,257.7,191.6z"/>
			<path class="st1" d="M265.9,192c-0.1,0-0.2,0-0.4,0c-0.1,0-0.3,0-0.4,0c-0.3,0-0.6,0.1-0.8,0.2c-0.2,0.1-0.3,0.3-0.4,0.6v5.5
				h-2.2v-8.4h2.1l0.1,0.9c0.2-0.3,0.4-0.6,0.6-0.8c0.2-0.2,0.5-0.3,0.8-0.3c0.1,0,0.2,0,0.3,0c0.1,0,0.2,0,0.3,0.1L265.9,192z"/>
			<path class="st1" d="M270.7,194.4h-3.8v-1.8h3.8V194.4z"/>
			<path class="st1" d="M272.7,198.3v-6.7h-1v-1.6h1v-0.7c0-0.5,0.1-0.9,0.2-1.3c0.1-0.4,0.3-0.7,0.5-0.9c0.2-0.2,0.5-0.4,0.9-0.6
				c0.3-0.1,0.7-0.2,1.1-0.2c0.2,0,0.4,0,0.5,0c0.2,0,0.3,0.1,0.5,0.1l0,1.8c-0.2,0-0.3-0.1-0.5-0.1c-0.3,0-0.6,0.1-0.7,0.3
				c-0.2,0.2-0.3,0.5-0.3,0.8v0.7h1.3v1.6h-1.3v6.7H272.7z"/>
			<path class="st1" d="M281.2,192c-0.1,0-0.2,0-0.4,0c-0.1,0-0.3,0-0.4,0c-0.3,0-0.6,0.1-0.8,0.2c-0.2,0.1-0.3,0.3-0.4,0.6v5.5H277
				v-8.4h2.1l0.1,0.9c0.2-0.3,0.4-0.6,0.6-0.8c0.2-0.2,0.5-0.3,0.8-0.3c0.1,0,0.2,0,0.3,0c0.1,0,0.2,0,0.3,0.1L281.2,192z"/>
			<path class="st1" d="M282,187.7c0-0.2,0-0.3,0.1-0.5c0.1-0.1,0.1-0.3,0.2-0.4c0.1-0.1,0.2-0.2,0.4-0.2c0.1-0.1,0.3-0.1,0.5-0.1
				s0.3,0,0.5,0.1c0.1,0.1,0.3,0.1,0.4,0.2c0.1,0.1,0.2,0.2,0.2,0.4s0.1,0.3,0.1,0.5c0,0.2,0,0.3-0.1,0.5s-0.1,0.3-0.2,0.4
				c-0.1,0.1-0.2,0.2-0.4,0.2c-0.1,0.1-0.3,0.1-0.5,0.1s-0.3,0-0.5-0.1c-0.1-0.1-0.3-0.1-0.4-0.2c-0.1-0.1-0.2-0.2-0.2-0.4
				C282,188.1,282,187.9,282,187.7z M284.3,198.3h-2.2v-8.4h2.2V198.3z"/>
			<path class="st1" d="M289,198.4c-0.6,0-1.1-0.1-1.5-0.3c-0.4-0.2-0.8-0.4-1.1-0.8c-0.3-0.3-0.5-0.7-0.7-1.2
				c-0.2-0.5-0.2-1-0.2-1.6v-0.7c0-0.7,0.1-1.3,0.2-1.8s0.4-0.9,0.7-1.3c0.3-0.3,0.6-0.6,1.1-0.8s0.9-0.3,1.4-0.3
				c1.1,0,1.9,0.3,2.4,1s0.8,1.7,0.8,3v1h-4.4c0,0.3,0.1,0.6,0.1,0.8c0.1,0.2,0.2,0.4,0.3,0.5c0.1,0.1,0.3,0.2,0.5,0.3
				c0.2,0.1,0.4,0.1,0.6,0.1c0.4,0,0.7-0.1,1-0.2c0.3-0.1,0.6-0.3,0.8-0.6l0.9,1.3c-0.1,0.1-0.3,0.3-0.4,0.4
				c-0.2,0.1-0.4,0.3-0.6,0.4c-0.2,0.1-0.5,0.2-0.8,0.3C289.7,198.4,289.4,198.4,289,198.4z M288.8,191.6c-0.4,0-0.7,0.1-0.8,0.4
				s-0.3,0.7-0.3,1.3h2.2v-0.2c0-0.5-0.1-0.9-0.2-1.1C289.5,191.7,289.2,191.6,288.8,191.6z"/>
			<path class="st1" d="M294.9,189.9l0.1,0.8c0.2-0.3,0.5-0.6,0.9-0.7s0.7-0.3,1.1-0.3c0.3,0,0.6,0.1,0.9,0.2s0.5,0.3,0.7,0.5
				c0.2,0.3,0.3,0.6,0.5,1c0.1,0.4,0.2,0.9,0.2,1.5v5.3H297V193c0-0.3,0-0.5-0.1-0.7c0-0.2-0.1-0.3-0.2-0.4
				c-0.1-0.1-0.2-0.2-0.3-0.2c-0.1,0-0.3-0.1-0.4-0.1c-0.2,0-0.4,0.1-0.5,0.2c-0.2,0.1-0.3,0.3-0.4,0.4v6.1h-2.2v-8.4H294.9z"/>
			<path class="st1" d="M300.1,193.8c0-1.4,0.2-2.4,0.7-3.1c0.5-0.7,1.1-1,2-1c0.3,0,0.6,0.1,0.9,0.2c0.3,0.1,0.5,0.4,0.7,0.6v-4.2
				h2.2v11.9h-2l-0.1-0.9c-0.2,0.3-0.5,0.6-0.7,0.7c-0.3,0.2-0.6,0.3-1,0.3c-0.9,0-1.6-0.3-2-1s-0.7-1.7-0.7-3V193.8z M302.3,194.4
				c0,0.4,0,0.7,0.1,1s0.1,0.5,0.2,0.7c0.1,0.2,0.2,0.3,0.4,0.4c0.1,0.1,0.3,0.1,0.6,0.1c0.2,0,0.4-0.1,0.6-0.2s0.3-0.2,0.4-0.4
				v-3.8c-0.1-0.2-0.2-0.3-0.4-0.5c-0.2-0.1-0.4-0.2-0.6-0.2c-0.2,0-0.4,0-0.5,0.1c-0.1,0.1-0.3,0.2-0.4,0.4s-0.2,0.4-0.2,0.7
				c0,0.3-0.1,0.6-0.1,1V194.4z"/>
			<path class="st1" d="M310.3,198.3h-2.2v-11.9h2.2V198.3z"/>
			<path class="st1" d="M311.6,187.7c0-0.2,0-0.3,0.1-0.5c0.1-0.1,0.1-0.3,0.2-0.4c0.1-0.1,0.2-0.2,0.4-0.2c0.1-0.1,0.3-0.1,0.5-0.1
				s0.3,0,0.5,0.1c0.1,0.1,0.3,0.1,0.4,0.2c0.1,0.1,0.2,0.2,0.2,0.4s0.1,0.3,0.1,0.5c0,0.2,0,0.3-0.1,0.5s-0.1,0.3-0.2,0.4
				c-0.1,0.1-0.2,0.2-0.4,0.2c-0.1,0.1-0.3,0.1-0.5,0.1s-0.3,0-0.5-0.1c-0.1-0.1-0.3-0.1-0.4-0.2c-0.1-0.1-0.2-0.2-0.2-0.4
				C311.7,188.1,311.6,187.9,311.6,187.7z M313.9,198.3h-2.2v-8.4h2.2V198.3z"/>
			<path class="st1" d="M317.3,189.9l0.1,0.8c0.2-0.3,0.5-0.6,0.9-0.7s0.7-0.3,1.1-0.3c0.3,0,0.6,0.1,0.9,0.2s0.5,0.3,0.7,0.5
				c0.2,0.3,0.3,0.6,0.5,1c0.1,0.4,0.2,0.9,0.2,1.5v5.3h-2.2V193c0-0.3,0-0.5-0.1-0.7c0-0.2-0.1-0.3-0.2-0.4
				c-0.1-0.1-0.2-0.2-0.3-0.2c-0.1,0-0.3-0.1-0.4-0.1c-0.2,0-0.4,0.1-0.5,0.2c-0.2,0.1-0.3,0.3-0.4,0.4v6.1h-2.2v-8.4H317.3z"/>
			<path class="st1" d="M326.2,198.4c-0.6,0-1.1-0.1-1.5-0.3c-0.4-0.2-0.8-0.4-1.1-0.8c-0.3-0.3-0.5-0.7-0.7-1.2
				c-0.2-0.5-0.2-1-0.2-1.6v-0.7c0-0.7,0.1-1.3,0.2-1.8s0.4-0.9,0.7-1.3c0.3-0.3,0.6-0.6,1.1-0.8s0.9-0.3,1.4-0.3
				c1.1,0,1.9,0.3,2.4,1s0.8,1.7,0.8,3v1h-4.4c0,0.3,0.1,0.6,0.1,0.8c0.1,0.2,0.2,0.4,0.3,0.5c0.1,0.1,0.3,0.2,0.5,0.3
				c0.2,0.1,0.4,0.1,0.6,0.1c0.4,0,0.7-0.1,1-0.2c0.3-0.1,0.6-0.3,0.8-0.6l0.9,1.3c-0.1,0.1-0.3,0.3-0.4,0.4
				c-0.2,0.1-0.4,0.3-0.6,0.4c-0.2,0.1-0.5,0.2-0.8,0.3C326.9,198.4,326.5,198.4,326.2,198.4z M325.9,191.6c-0.4,0-0.7,0.1-0.8,0.4
				s-0.3,0.7-0.3,1.3h2.2v-0.2c0-0.5-0.1-0.9-0.2-1.1C326.6,191.7,326.3,191.6,325.9,191.6z"/>
			<path class="st1" d="M333.8,196c0-0.1,0-0.2-0.1-0.3c-0.1-0.1-0.1-0.2-0.3-0.3c-0.1-0.1-0.3-0.2-0.5-0.3s-0.4-0.2-0.7-0.3
				c-0.4-0.2-0.7-0.3-1-0.5c-0.3-0.2-0.5-0.3-0.7-0.5c-0.2-0.2-0.4-0.4-0.5-0.7s-0.2-0.6-0.2-0.9c0-0.4,0.1-0.7,0.2-1
				c0.1-0.3,0.3-0.6,0.6-0.8c0.2-0.2,0.6-0.4,0.9-0.5c0.4-0.1,0.8-0.2,1.2-0.2c0.5,0,0.9,0.1,1.3,0.2c0.4,0.1,0.7,0.3,1,0.5
				c0.3,0.2,0.5,0.5,0.6,0.8c0.1,0.3,0.2,0.7,0.2,1.1h-2.2c0-0.3-0.1-0.6-0.2-0.8s-0.3-0.3-0.7-0.3c-0.2,0-0.4,0.1-0.6,0.2
				c-0.2,0.1-0.2,0.3-0.2,0.6c0,0.1,0,0.2,0.1,0.3s0.1,0.2,0.2,0.3c0.1,0.1,0.3,0.2,0.4,0.3s0.4,0.2,0.7,0.3
				c0.4,0.2,0.8,0.3,1.1,0.5c0.3,0.2,0.6,0.4,0.8,0.6s0.4,0.4,0.4,0.7c0.1,0.3,0.1,0.6,0.1,0.9c0,0.4-0.1,0.7-0.2,1
				s-0.3,0.6-0.6,0.8s-0.6,0.4-1,0.5s-0.8,0.2-1.3,0.2c-0.5,0-1-0.1-1.4-0.2c-0.4-0.2-0.7-0.4-1-0.6c-0.3-0.3-0.5-0.6-0.6-0.9
				c-0.1-0.3-0.2-0.7-0.2-1h2.1c0,0.2,0,0.4,0.1,0.6s0.1,0.3,0.2,0.4s0.2,0.1,0.3,0.2s0.3,0,0.4,0
				C333.5,196.8,333.8,196.6,333.8,196z"/>
			<path class="st1" d="M340.7,196c0-0.1,0-0.2-0.1-0.3c-0.1-0.1-0.1-0.2-0.3-0.3c-0.1-0.1-0.3-0.2-0.5-0.3s-0.4-0.2-0.7-0.3
				c-0.4-0.2-0.7-0.3-1-0.5c-0.3-0.2-0.5-0.3-0.7-0.5c-0.2-0.2-0.4-0.4-0.5-0.7s-0.2-0.6-0.2-0.9c0-0.4,0.1-0.7,0.2-1
				c0.1-0.3,0.3-0.6,0.6-0.8c0.2-0.2,0.6-0.4,0.9-0.5c0.4-0.1,0.8-0.2,1.2-0.2c0.5,0,0.9,0.1,1.3,0.2c0.4,0.1,0.7,0.3,1,0.5
				c0.3,0.2,0.5,0.5,0.6,0.8c0.1,0.3,0.2,0.7,0.2,1.1h-2.2c0-0.3-0.1-0.6-0.2-0.8s-0.3-0.3-0.7-0.3c-0.2,0-0.4,0.1-0.6,0.2
				c-0.2,0.1-0.2,0.3-0.2,0.6c0,0.1,0,0.2,0.1,0.3s0.1,0.2,0.2,0.3c0.1,0.1,0.3,0.2,0.4,0.3s0.4,0.2,0.7,0.3
				c0.4,0.2,0.8,0.3,1.1,0.5c0.3,0.2,0.6,0.4,0.8,0.6s0.4,0.4,0.4,0.7c0.1,0.3,0.1,0.6,0.1,0.9c0,0.4-0.1,0.7-0.2,1
				s-0.3,0.6-0.6,0.8s-0.6,0.4-1,0.5s-0.8,0.2-1.3,0.2c-0.5,0-1-0.1-1.4-0.2c-0.4-0.2-0.7-0.4-1-0.6c-0.3-0.3-0.5-0.6-0.6-0.9
				c-0.1-0.3-0.2-0.7-0.2-1h2.1c0,0.2,0,0.4,0.1,0.6s0.1,0.3,0.2,0.4s0.2,0.1,0.3,0.2s0.3,0,0.4,0
				C340.4,196.8,340.7,196.6,340.7,196z"/>
			<path class="st1" d="M351.1,198.3c0-0.1-0.1-0.2-0.1-0.3c0-0.1-0.1-0.2-0.1-0.4c-0.2,0.2-0.4,0.4-0.6,0.6c-0.3,0.2-0.6,0.2-1,0.2
				c-0.3,0-0.7-0.1-1-0.2c-0.3-0.1-0.6-0.3-0.8-0.5s-0.4-0.5-0.5-0.8c-0.1-0.3-0.2-0.7-0.2-1c0-0.4,0.1-0.8,0.2-1.1
				c0.1-0.3,0.3-0.6,0.6-0.9s0.6-0.4,1-0.6s0.9-0.2,1.5-0.2h0.6v-0.7c0-0.4-0.1-0.6-0.2-0.8s-0.3-0.2-0.6-0.2
				c-0.3,0-0.5,0.1-0.6,0.3c-0.1,0.2-0.2,0.4-0.2,0.7h-2.2c0-0.4,0.1-0.7,0.2-1c0.1-0.3,0.3-0.6,0.6-0.8c0.3-0.2,0.6-0.4,1-0.6
				c0.4-0.1,0.8-0.2,1.3-0.2c0.4,0,0.8,0.1,1.2,0.2c0.4,0.1,0.7,0.3,0.9,0.5c0.3,0.2,0.5,0.5,0.6,0.9s0.2,0.8,0.2,1.3v3.7
				c0,0.2,0,0.5,0,0.6c0,0.2,0,0.4,0.1,0.5c0,0.2,0.1,0.3,0.1,0.4c0,0.1,0.1,0.2,0.1,0.3v0.1H351.1z M349.9,196.7
				c0.2,0,0.4,0,0.6-0.1c0.2-0.1,0.3-0.2,0.4-0.3v-1.7h-0.5c-0.2,0-0.4,0-0.5,0.1c-0.2,0.1-0.3,0.2-0.4,0.3
				c-0.1,0.1-0.2,0.3-0.2,0.4s-0.1,0.3-0.1,0.5c0,0.3,0.1,0.5,0.2,0.7C349.4,196.6,349.6,196.7,349.9,196.7z"/>
			<path class="st1" d="M356.3,189.9l0.1,0.8c0.2-0.3,0.5-0.6,0.9-0.7s0.7-0.3,1.1-0.3c0.3,0,0.6,0.1,0.9,0.2s0.5,0.3,0.7,0.5
				c0.2,0.3,0.3,0.6,0.5,1c0.1,0.4,0.2,0.9,0.2,1.5v5.3h-2.2V193c0-0.3,0-0.5-0.1-0.7c0-0.2-0.1-0.3-0.2-0.4
				c-0.1-0.1-0.2-0.2-0.3-0.2c-0.1,0-0.3-0.1-0.4-0.1c-0.2,0-0.4,0.1-0.5,0.2c-0.2,0.1-0.3,0.3-0.4,0.4v6.1h-2.2v-8.4H356.3z"/>
			<path class="st1" d="M361.5,193.8c0-1.4,0.2-2.4,0.7-3.1c0.5-0.7,1.1-1,2-1c0.3,0,0.6,0.1,0.9,0.2c0.3,0.1,0.5,0.4,0.7,0.6v-4.2
				h2.2v11.9h-2l-0.1-0.9c-0.2,0.3-0.5,0.6-0.7,0.7c-0.3,0.2-0.6,0.3-1,0.3c-0.9,0-1.6-0.3-2-1s-0.7-1.7-0.7-3V193.8z M363.7,194.4
				c0,0.4,0,0.7,0.1,1s0.1,0.5,0.2,0.7c0.1,0.2,0.2,0.3,0.4,0.4c0.1,0.1,0.3,0.1,0.6,0.1c0.2,0,0.4-0.1,0.6-0.2s0.3-0.2,0.4-0.4
				v-3.8c-0.1-0.2-0.2-0.3-0.4-0.5c-0.2-0.1-0.4-0.2-0.6-0.2c-0.2,0-0.4,0-0.5,0.1c-0.1,0.1-0.3,0.2-0.4,0.4s-0.2,0.4-0.2,0.7
				c0,0.3-0.1,0.6-0.1,1V194.4z"/>
			<path class="st1" d="M376.4,196c0-0.1,0-0.2-0.1-0.3c-0.1-0.1-0.1-0.2-0.3-0.3c-0.1-0.1-0.3-0.2-0.5-0.3s-0.4-0.2-0.7-0.3
				c-0.4-0.2-0.7-0.3-1-0.5c-0.3-0.2-0.5-0.3-0.7-0.5c-0.2-0.2-0.4-0.4-0.5-0.7s-0.2-0.6-0.2-0.9c0-0.4,0.1-0.7,0.2-1
				c0.1-0.3,0.3-0.6,0.6-0.8c0.2-0.2,0.6-0.4,0.9-0.5c0.4-0.1,0.8-0.2,1.2-0.2c0.5,0,0.9,0.1,1.3,0.2c0.4,0.1,0.7,0.3,1,0.5
				c0.3,0.2,0.5,0.5,0.6,0.8c0.1,0.3,0.2,0.7,0.2,1.1h-2.2c0-0.3-0.1-0.6-0.2-0.8s-0.3-0.3-0.7-0.3c-0.2,0-0.4,0.1-0.6,0.2
				c-0.2,0.1-0.2,0.3-0.2,0.6c0,0.1,0,0.2,0.1,0.3s0.1,0.2,0.2,0.3c0.1,0.1,0.3,0.2,0.4,0.3s0.4,0.2,0.7,0.3
				c0.4,0.2,0.8,0.3,1.1,0.5c0.3,0.2,0.6,0.4,0.8,0.6s0.4,0.4,0.4,0.7c0.1,0.3,0.1,0.6,0.1,0.9c0,0.4-0.1,0.7-0.2,1
				s-0.3,0.6-0.6,0.8s-0.6,0.4-1,0.5s-0.8,0.2-1.3,0.2c-0.5,0-1-0.1-1.4-0.2c-0.4-0.2-0.7-0.4-1-0.6c-0.3-0.3-0.5-0.6-0.6-0.9
				c-0.1-0.3-0.2-0.7-0.2-1h2.1c0,0.2,0,0.4,0.1,0.6s0.1,0.3,0.2,0.4s0.2,0.1,0.3,0.2s0.3,0,0.4,0
				C376.1,196.8,376.4,196.6,376.4,196z"/>
			<path class="st1" d="M386.1,194.4c0,1.3-0.2,2.3-0.7,3c-0.5,0.7-1.1,1.1-2,1.1c-0.4,0-0.7-0.1-0.9-0.2c-0.3-0.1-0.5-0.3-0.7-0.6
				v3.9h-2.2v-11.6h2l0.1,0.8c0.2-0.3,0.4-0.5,0.7-0.7s0.6-0.2,1-0.2c0.9,0,1.6,0.3,2,1c0.5,0.7,0.7,1.7,0.7,3.1V194.4z
				 M383.9,193.8c0-0.4,0-0.7-0.1-1s-0.1-0.5-0.2-0.7s-0.2-0.3-0.4-0.4c-0.1-0.1-0.3-0.1-0.5-0.1c-0.2,0-0.4,0-0.6,0.1
				c-0.2,0.1-0.3,0.2-0.4,0.4v3.9c0.1,0.2,0.2,0.3,0.4,0.4c0.2,0.1,0.4,0.1,0.6,0.1c0.4,0,0.7-0.2,0.9-0.5c0.2-0.4,0.3-0.9,0.3-1.7
				V193.8z"/>
			<path class="st1" d="M390.5,198.4c-0.6,0-1.1-0.1-1.5-0.3c-0.4-0.2-0.8-0.4-1.1-0.8c-0.3-0.3-0.5-0.7-0.7-1.2
				c-0.2-0.5-0.2-1-0.2-1.6v-0.7c0-0.7,0.1-1.3,0.2-1.8s0.4-0.9,0.7-1.3c0.3-0.3,0.6-0.6,1.1-0.8s0.9-0.3,1.4-0.3
				c1.1,0,1.9,0.3,2.4,1s0.8,1.7,0.8,3v1h-4.4c0,0.3,0.1,0.6,0.1,0.8c0.1,0.2,0.2,0.4,0.3,0.5c0.1,0.1,0.3,0.2,0.5,0.3
				c0.2,0.1,0.4,0.1,0.6,0.1c0.4,0,0.7-0.1,1-0.2c0.3-0.1,0.6-0.3,0.8-0.6l0.9,1.3c-0.1,0.1-0.3,0.3-0.4,0.4
				c-0.2,0.1-0.4,0.3-0.6,0.4c-0.2,0.1-0.5,0.2-0.8,0.3C391.2,198.4,390.8,198.4,390.5,198.4z M390.2,191.6c-0.4,0-0.7,0.1-0.8,0.4
				s-0.3,0.7-0.3,1.3h2.2v-0.2c0-0.5-0.1-0.9-0.2-1.1C390.9,191.7,390.6,191.6,390.2,191.6z"/>
			<path class="st1" d="M397.7,198.4c-0.6,0-1.1-0.1-1.5-0.3c-0.4-0.2-0.8-0.4-1.1-0.8c-0.3-0.3-0.5-0.7-0.7-1.2
				c-0.2-0.5-0.2-1-0.2-1.6v-0.7c0-0.7,0.1-1.3,0.2-1.8s0.4-0.9,0.7-1.3c0.3-0.3,0.6-0.6,1.1-0.8s0.9-0.3,1.4-0.3
				c1.1,0,1.9,0.3,2.4,1s0.8,1.7,0.8,3v1h-4.4c0,0.3,0.1,0.6,0.1,0.8c0.1,0.2,0.2,0.4,0.3,0.5c0.1,0.1,0.3,0.2,0.5,0.3
				c0.2,0.1,0.4,0.1,0.6,0.1c0.4,0,0.7-0.1,1-0.2c0.3-0.1,0.6-0.3,0.8-0.6l0.9,1.3c-0.1,0.1-0.3,0.3-0.4,0.4
				c-0.2,0.1-0.4,0.3-0.6,0.4c-0.2,0.1-0.5,0.2-0.8,0.3C398.4,198.4,398.1,198.4,397.7,198.4z M397.5,191.6c-0.4,0-0.7,0.1-0.8,0.4
				s-0.3,0.7-0.3,1.3h2.2v-0.2c0-0.5-0.1-0.9-0.2-1.1C398.2,191.7,397.9,191.6,397.5,191.6z"/>
			<path class="st1" d="M401.3,193.8c0-1.4,0.2-2.4,0.7-3.1c0.5-0.7,1.1-1,2-1c0.3,0,0.6,0.1,0.9,0.2c0.3,0.1,0.5,0.4,0.7,0.6v-4.2
				h2.2v11.9h-2l-0.1-0.9c-0.2,0.3-0.5,0.6-0.7,0.7c-0.3,0.2-0.6,0.3-1,0.3c-0.9,0-1.6-0.3-2-1s-0.7-1.7-0.7-3V193.8z M403.5,194.4
				c0,0.4,0,0.7,0.1,1s0.1,0.5,0.2,0.7c0.1,0.2,0.2,0.3,0.4,0.4c0.1,0.1,0.3,0.1,0.6,0.1c0.2,0,0.4-0.1,0.6-0.2s0.3-0.2,0.4-0.4
				v-3.8c-0.1-0.2-0.2-0.3-0.4-0.5c-0.2-0.1-0.4-0.2-0.6-0.2c-0.2,0-0.4,0-0.5,0.1c-0.1,0.1-0.3,0.2-0.4,0.4s-0.2,0.4-0.2,0.7
				c0,0.3-0.1,0.6-0.1,1V194.4z"/>
		</g>
		<g>
			<path class="st1" d="M545.3,28l-1.8,7.9h-2.1l7.8-35.7h3.4l7.9,35.7h-2.3l-1.8-7.9H545.3z M545.7,26h10.4L550.8,3L545.7,26z"/>
			<path class="st1" d="M570.6,28l-1.8,7.9h-2.1l7.8-35.7h3.4l7.9,35.7h-2.3l-1.8-7.9H570.6z M570.9,26h10.4L576.1,3L570.9,26z"/>
			<path class="st1" d="M610.8,0.3c5.3,0,7.3,2.6,7.3,7.6v2c0,3.9-1.1,6.3-4.7,7c3.9,0.8,5.3,3.6,5.3,7.6v3.1c0,5.1-2.3,8.2-7.8,8.2
				h-7.6V0.3H610.8z M609.7,16c4.2,0,6.1-1.1,6.1-5.6V8.1c0-3.7-1.2-5.6-5-5.6h-5.1V16H609.7z M611,33.8c3.9,0,5.4-2.2,5.4-6.2v-3.2
				c0-4.6-2.1-6.3-6.3-6.3h-4.4v15.6H611z"/>
			<path class="st1" d="M633.1,0.3c5.3,0,7.3,2.6,7.3,7.6v2c0,3.9-1.1,6.3-4.7,7c3.9,0.8,5.3,3.6,5.3,7.6v3.1c0,5.1-2.3,8.2-7.8,8.2
				h-7.6V0.3H633.1z M632,16c4.2,0,6.1-1.1,6.1-5.6V8.1c0-3.7-1.2-5.6-5-5.6H628V16H632z M633.3,33.8c3.9,0,5.4-2.2,5.4-6.2v-3.2
				c0-4.6-2.1-6.3-6.3-6.3H628v15.6H633.3z"/>
			<path class="st1" d="M674.1,9v3h-2.2V8.9c0-3.8-1.5-6.7-5.4-6.7c-3.9,0-5.4,2.9-5.4,6.7v18.5c0,3.8,1.5,6.7,5.4,6.7
				c3.9,0,5.4-2.8,5.4-6.7v-4.2h2.2v4.1c0,5.1-2.2,9-7.7,9c-5.4,0-7.7-3.9-7.7-9V9c0-5.1,2.2-9,7.7-9C671.9,0,674.1,3.9,674.1,9z"/>
			<path class="st1" d="M696.2,9v3h-2.2V8.9c0-3.8-1.5-6.7-5.4-6.7c-3.9,0-5.4,2.9-5.4,6.7v18.5c0,3.8,1.5,6.7,5.4,6.7
				c3.9,0,5.4-2.8,5.4-6.7v-4.2h2.2v4.1c0,5.1-2.2,9-7.7,9c-5.4,0-7.7-3.9-7.7-9V9c0-5.1,2.2-9,7.7-9C693.9,0,696.2,3.9,696.2,9z"/>
			<path class="st1" d="M548.7,50.5c-1.3,1.7-3.2,2.8-5.5,3v-2c3.5-0.3,5.1-2.3,6.1-5h1.8v35.7h-2.3V50.5z"/>
			<path class="st1" d="M585.6,55.3c0,10.3-12.9,13.8-13,24.3v0.4h12.7v2.1h-15.1v-1.7c0-12.6,13-15.3,13-25c0-4.1-1.4-7-5.4-7
				c-3.9,0-5.3,3.1-5.3,6.9v2.4h-2.2v-2.3c0-5.1,2.2-9.2,7.7-9.2C583.5,46.3,585.6,50.1,585.6,55.3z"/>
			<path class="st1" d="M618.7,55.3v0.9c0,3.5-1.7,6.3-4.7,7.4c3.2,1,4.7,3.7,4.7,7.2v2.7c0,5.2-2.2,9-7.7,9c-5.4,0-7.7-3.8-7.7-9
				v-2h2.2v2.1c0,3.9,1.5,6.8,5.4,6.8c3.9,0,5.4-2.8,5.4-6.9v-2.7c0-3.7-1.8-5.9-5.3-6h-2.4v-2.1h2.5c3.2-0.2,5.2-2.5,5.2-6v-1.3
				c0-4.1-1.5-6.9-5.4-6.9c-3.9,0-5.4,2.9-5.4,6.7v1.4h-2.2v-1.3c0-5.2,2.2-9,7.7-9C616.4,46.3,618.7,50.1,618.7,55.3z"/>
			<path class="st1" d="M650.6,74.3v7.9h-2.3v-7.9h-12.2v-2.2L648,46.5h2.6v25.6h3v2.1H650.6z M638.3,72.2h10V50.9L638.3,72.2z"/>
			<path class="st1" d="M673.8,61.4c1.2-1.9,3.1-2.7,5.8-2.7c4.9,0,6.9,3.8,6.9,8.7v6.1c0,5.1-2.3,9-7.7,9c-5.4,0-7.7-3.9-7.7-9
				v-1.9h2.2v2c0,3.8,1.5,6.7,5.4,6.7c3.9,0,5.4-2.9,5.4-6.7v-6c0-3.8-1.5-6.7-5.4-6.7c-2.6,0-4.4,1.4-5.1,4.1v0.6h-2.2l0.9-19h13.4
				v2.2h-11.2L673.8,61.4z"/>
		</g>
		<g>
			<path class="st1" d="M551,164.5h-9l-1.7,6.7h-7l10.2-32.6h6l10.3,32.6h-7L551,164.5z M543.4,159h6.1l-3-11.6L543.4,159z"/>
			<path class="st1" d="M574.9,171.2c-0.1-0.3-0.2-0.5-0.3-0.9c-0.1-0.3-0.2-0.7-0.2-1c-0.5,0.7-1.1,1.2-1.8,1.7
				c-0.8,0.4-1.7,0.7-2.8,0.7c-1,0-1.9-0.2-2.8-0.5c-0.9-0.3-1.6-0.8-2.2-1.5c-0.6-0.6-1.1-1.4-1.5-2.3c-0.4-0.9-0.5-1.9-0.5-3
				c0-1.2,0.2-2.3,0.6-3.3c0.4-1,1-1.8,1.8-2.5c0.8-0.7,1.8-1.2,3-1.6c1.2-0.4,2.6-0.6,4.2-0.6h1.7v-1.9c0-1.1-0.2-1.9-0.6-2.3
				c-0.4-0.4-0.9-0.7-1.6-0.7c-0.8,0-1.4,0.2-1.8,0.7c-0.4,0.5-0.6,1.2-0.6,2h-6.3c0-1.1,0.2-2.1,0.6-3c0.4-0.9,1-1.8,1.8-2.5
				c0.8-0.7,1.7-1.3,2.8-1.7c1.1-0.4,2.3-0.6,3.7-0.6c1.2,0,2.3,0.2,3.3,0.5c1,0.3,1.9,0.8,2.6,1.4c0.7,0.6,1.3,1.5,1.7,2.5
				s0.6,2.2,0.6,3.6v10.7c0,0.7,0,1.3,0.1,1.9s0.1,1,0.2,1.5s0.2,0.8,0.3,1.2c0.1,0.4,0.2,0.7,0.4,1v0.4H574.9z M571.1,166.7
				c0.7,0,1.3-0.1,1.8-0.4c0.5-0.3,0.9-0.6,1.1-1v-5h-1.5c-0.6,0-1.1,0.1-1.5,0.3c-0.4,0.2-0.8,0.5-1.1,0.8
				c-0.3,0.3-0.5,0.7-0.6,1.2c-0.1,0.5-0.2,1-0.2,1.5c0,0.9,0.2,1.5,0.5,2C570,166.5,570.5,166.7,571.1,166.7z"/>
			<path class="st1" d="M597.7,171.2v-32.6h10.1c1.6,0,3.1,0.2,4.4,0.5c1.3,0.4,2.4,0.9,3.3,1.6c0.9,0.7,1.6,1.7,2,2.8
				c0.5,1.1,0.7,2.4,0.7,4c0,0.7-0.1,1.5-0.2,2.1c-0.2,0.7-0.4,1.3-0.7,1.9c-0.3,0.6-0.8,1.1-1.3,1.6c-0.5,0.5-1.1,0.9-1.8,1.2
				c0.8,0.2,1.5,0.6,2.1,1.1s1.1,1,1.4,1.7s0.6,1.3,0.8,2.1c0.2,0.8,0.2,1.5,0.2,2.3c0,3.2-0.9,5.6-2.6,7.2
				c-1.7,1.6-4.3,2.4-7.6,2.4H597.7z M604.3,152.2h3.4c1.3,0,2.3-0.3,2.9-1c0.6-0.7,1-1.7,1-3c0-1.5-0.3-2.5-0.9-3.2
				c-0.6-0.6-1.6-1-2.9-1h-3.5V152.2z M604.3,157v8.7h4.2c0.6,0,1.2-0.1,1.6-0.3s0.8-0.5,1.1-0.9c0.3-0.4,0.5-0.8,0.6-1.3
				c0.1-0.5,0.2-1.1,0.2-1.7c0-1.4-0.3-2.5-0.8-3.3c-0.5-0.8-1.4-1.2-2.6-1.2H604.3z"/>
			<path class="st1" d="M642.9,159.9c0,3.9-0.6,6.9-1.9,8.8s-3.2,2.9-5.9,2.9c-1.1,0-2.1-0.3-2.9-0.8c-0.8-0.5-1.5-1.2-2.1-2.1
				l-0.2,2.4H624v-34.4h6.3V149c0.6-0.8,1.2-1.4,2-1.8s1.7-0.6,2.7-0.6c2.7,0,4.7,1,6,3c1.3,2,1.9,4.9,1.9,8.8V159.9z M636.6,158.3
				c0-1.1,0-2-0.1-2.8c-0.1-0.8-0.2-1.5-0.5-2c-0.2-0.5-0.6-0.9-1-1.2c-0.4-0.3-1-0.4-1.7-0.4c-0.7,0-1.3,0.2-1.8,0.5
				c-0.5,0.3-0.8,0.8-1.1,1.3v11c0.3,0.5,0.6,1,1.1,1.3c0.5,0.3,1.1,0.4,1.8,0.4c0.7,0,1.2-0.1,1.7-0.4c0.4-0.2,0.8-0.6,1-1.1
				s0.4-1.2,0.5-2c0.1-0.8,0.1-1.8,0.1-3V158.3z"/>
			<path class="st1" d="M681.5,160.3c-0.2,3.7-1.2,6.5-3.1,8.4c-1.9,1.9-4.6,2.9-8.1,2.9c-1.8,0-3.4-0.3-4.8-0.9
				c-1.4-0.6-2.6-1.5-3.6-2.7c-1-1.2-1.7-2.6-2.2-4.4c-0.5-1.7-0.8-3.7-0.8-6v-5.6c0-2.3,0.3-4.3,0.8-6c0.5-1.7,1.3-3.2,2.3-4.4
				c1-1.2,2.2-2.1,3.6-2.7s3-0.9,4.8-0.9c3.6,0,6.2,1,8.1,3c1.8,2,2.9,4.8,3.1,8.6H675c0-1.2-0.1-2.1-0.3-2.9
				c-0.2-0.8-0.4-1.4-0.8-1.9s-0.8-0.8-1.4-1c-0.6-0.2-1.3-0.3-2.1-0.3c-0.9,0-1.6,0.1-2.2,0.4c-0.6,0.3-1.1,0.8-1.5,1.4
				c-0.4,0.7-0.7,1.5-0.9,2.6s-0.3,2.4-0.3,4v5.6c0,1.5,0.1,2.8,0.2,3.9c0.1,1.1,0.4,2,0.8,2.6c0.4,0.7,0.9,1.2,1.5,1.5
				c0.6,0.3,1.4,0.5,2.3,0.5c0.8,0,1.5-0.1,2.1-0.3c0.6-0.2,1-0.5,1.4-0.9c0.4-0.4,0.7-1,0.9-1.8c0.2-0.8,0.3-1.7,0.4-2.9H681.5z"/>
			<path class="st1" d="M694.9,166.4c0.9,0,1.6-0.3,2-0.8c0.5-0.5,0.7-1.5,0.8-2.8h6c0,1.4-0.2,2.6-0.7,3.7c-0.4,1.1-1.1,2-1.8,2.8
				c-0.8,0.8-1.7,1.3-2.7,1.7c-1,0.4-2.2,0.6-3.4,0.6c-1.6,0-3-0.3-4.3-0.8s-2.2-1.3-3-2.3c-0.8-1-1.4-2.2-1.8-3.7
				c-0.4-1.4-0.6-3.1-0.6-4.9v-1.7c0-1.9,0.2-3.5,0.6-5c0.4-1.5,1-2.7,1.8-3.7s1.8-1.8,3-2.3s2.6-0.8,4.2-0.8c1.3,0,2.5,0.2,3.5,0.6
				c1.1,0.4,2,1,2.7,1.8c0.8,0.8,1.3,1.8,1.7,3c0.4,1.2,0.6,2.5,0.6,4.1h-6c0-1.4-0.2-2.4-0.7-3.1c-0.4-0.7-1.1-1.1-2.1-1.1
				c-0.7,0-1.3,0.1-1.7,0.4c-0.4,0.3-0.7,0.7-0.9,1.2c-0.2,0.5-0.4,1.2-0.4,2c-0.1,0.8-0.1,1.7-0.1,2.8v1.7c0,1.1,0,2,0.1,2.8
				c0.1,0.8,0.2,1.5,0.4,2c0.2,0.5,0.5,0.9,1,1.2S694.2,166.4,694.9,166.4z"/>
			<path class="st1" d="M548.9,226.2h-6.4v-24.9l-6.2,2.4v-5.3l11.9-4.9h0.7V226.2z"/>
			<path class="st1" d="M589.7,226.2h-19.2v-4.5l8.8-11.2c0.6-0.9,1.1-1.7,1.6-2.4s0.8-1.4,1-2c0.3-0.6,0.4-1.1,0.5-1.7
				s0.2-1,0.2-1.5c0-1.4-0.3-2.6-0.8-3.4s-1.2-1.2-2.2-1.2c-0.6,0-1.1,0.1-1.5,0.4s-0.8,0.7-1.1,1.1c-0.3,0.5-0.5,1.1-0.6,1.7
				c-0.1,0.7-0.2,1.4-0.2,2.2H570c0-1.5,0.2-2.9,0.7-4.2c0.5-1.3,1.1-2.4,1.9-3.4c0.8-1,1.9-1.7,3.1-2.3c1.2-0.6,2.6-0.9,4.1-0.9
				c1.5,0,2.8,0.2,4,0.6c1.1,0.4,2.1,1,2.9,1.8s1.4,1.8,1.8,2.9c0.4,1.2,0.6,2.4,0.6,3.9c0,1.1-0.1,2.1-0.4,3.2s-0.7,2-1.2,3.1
				c-0.5,1-1.2,2-1.9,3.1c-0.8,1-1.6,2.1-2.6,3.3l-4.2,6h11.1V226.2z"/>
			<path class="st1" d="M611.7,207h3.1c1.2,0,2-0.4,2.6-1.2c0.5-0.8,0.8-1.9,0.8-3.3c0-0.6-0.1-1.1-0.2-1.6
				c-0.1-0.5-0.3-0.9-0.6-1.3c-0.3-0.4-0.6-0.7-1-0.9c-0.4-0.2-0.8-0.3-1.3-0.3c-0.4,0-0.8,0.1-1.2,0.2c-0.4,0.2-0.7,0.4-1,0.7
				c-0.3,0.3-0.5,0.7-0.6,1.1c-0.2,0.4-0.2,1-0.2,1.5h-6.3c0-1.3,0.2-2.6,0.7-3.7c0.5-1.1,1.1-2,1.9-2.8c0.8-0.8,1.8-1.4,2.9-1.8
				c1.1-0.4,2.3-0.6,3.6-0.6c1.4,0,2.7,0.2,3.9,0.6c1.2,0.4,2.2,1,3,1.8c0.8,0.8,1.5,1.8,2,2.9c0.5,1.2,0.7,2.5,0.7,4
				c0,0.7-0.1,1.4-0.3,2.1c-0.2,0.7-0.5,1.3-0.8,1.9c-0.4,0.6-0.8,1.2-1.3,1.7c-0.5,0.5-1.1,1-1.8,1.3c1.5,0.7,2.7,1.6,3.4,3
				c0.8,1.3,1.1,2.9,1.1,4.7c0,1.5-0.3,2.9-0.8,4.1c-0.5,1.2-1.2,2.2-2.1,3s-2,1.4-3.2,1.9c-1.2,0.4-2.5,0.6-4,0.6
				c-1.2,0-2.4-0.2-3.5-0.6s-2.1-0.9-3-1.7s-1.6-1.8-2.1-2.9c-0.5-1.2-0.8-2.6-0.8-4.2h6.3c0,0.6,0.1,1.1,0.2,1.6
				c0.2,0.5,0.4,0.9,0.7,1.3c0.3,0.4,0.6,0.7,1,0.9c0.4,0.2,0.8,0.3,1.3,0.3c0.6,0,1-0.1,1.5-0.3c0.4-0.2,0.8-0.5,1.1-0.9
				c0.3-0.4,0.5-0.9,0.7-1.4s0.2-1.2,0.2-1.8c0-1.7-0.3-3-1-3.7s-1.6-1.1-2.8-1.1h-3.1V207z"/>
			<path class="st1" d="M658.4,213.9h2.8v5.3h-2.8v7.1h-6.3v-7.1h-10.8l-0.3-4.1l11.1-21.4h6.4V213.9z M647.1,213.9h4.9V203
				l-0.1,0.2L647.1,213.9z"/>
			<path class="st1" d="M677.9,210.2l1.6-16.6h15.8v5.4h-10.6l-0.6,7c0.2-0.1,0.4-0.2,0.6-0.4s0.5-0.3,0.9-0.4
				c0.3-0.1,0.7-0.2,1.1-0.3c0.4-0.1,0.8-0.1,1.2-0.1c1.4,0,2.6,0.2,3.6,0.7c1,0.5,1.9,1.2,2.6,2.1s1.2,2.1,1.6,3.4
				c0.4,1.4,0.5,2.9,0.5,4.6c0,1.4-0.2,2.8-0.6,4.1c-0.4,1.3-1,2.5-1.8,3.5s-1.8,1.8-3,2.4c-1.2,0.6-2.6,0.9-4.2,0.9
				c-1.2,0-2.4-0.2-3.5-0.6c-1.1-0.4-2.1-1-3-1.9c-0.9-0.8-1.6-1.8-2.1-3c-0.5-1.2-0.8-2.5-0.8-4h6.3c0.1,1.4,0.4,2.4,1,3.2
				c0.6,0.7,1.3,1.1,2.2,1.1c0.6,0,1.1-0.2,1.5-0.5s0.8-0.7,1-1.3c0.3-0.5,0.4-1.2,0.6-1.9c0.1-0.7,0.2-1.5,0.2-2.4
				c0-0.9-0.1-1.6-0.2-2.3c-0.1-0.7-0.4-1.3-0.7-1.8c-0.3-0.5-0.7-0.9-1.2-1.2c-0.5-0.3-1.1-0.4-1.7-0.4c-0.4,0-0.8,0.1-1.2,0.2
				c-0.3,0.1-0.6,0.2-0.9,0.4c-0.2,0.2-0.5,0.4-0.6,0.6c-0.2,0.2-0.3,0.4-0.5,0.7L677.9,210.2z"/>
		</g>
	</g>
</g>
</svg>
