<?xml version="1.0" encoding="utf-8"?>
<!-- Generator: Adobe Illustrator 19.0.1, SVG Export Plug-In . SVG Version: 6.00 Build 0)  -->
<svg version="1.1" xmlns="http://www.w3.org/2000/svg" xmlns:xlink="http://www.w3.org/1999/xlink" x="0px" y="0px"
	 viewBox="0 0 700 161.5" style="enable-background:new 0 0 700 161.5;" xml:space="preserve">
<style type="text/css">
	.st0{fill:#FFFFFF;}
	.st1{fill:url(#SVGID_1_);}
	.st2{fill:#666666;}
	.st3{fill:url(#SVGID_2_);}
	.st4{fill:url(#SVGID_3_);}
	.st5{fill:url(#SVGID_4_);}
	.st6{fill:url(#SVGID_5_);}
	.st7{fill:url(#SVGID_6_);}
	.st8{fill:url(#SVGID_7_);}
	.st9{fill:url(#SVGID_8_);}
	.st10{fill:url(#SVGID_9_);}
	.st11{fill:url(#SVGID_10_);}
	.st12{fill:url(#SVGID_11_);}
	.st13{fill:url(#SVGID_12_);}
	.st14{fill:url(#SVGID_13_);}
	.st15{fill:url(#SVGID_14_);}
	.st16{fill:url(#SVGID_15_);}
	.st17{fill:url(#SVGID_16_);}
	.st18{fill:url(#SVGID_17_);}
	.st19{fill:url(#SVGID_18_);}
	.st20{fill:url(#SVGID_19_);}
	.st21{fill:url(#SVGID_20_);}
	.st22{fill:url(#SVGID_21_);}
	.st23{fill:url(#SVGID_22_);}
	.st24{fill:url(#SVGID_23_);}
	.st25{fill:url(#SVGID_24_);}
	.st26{fill:url(#SVGID_25_);}
	.st27{fill:url(#SVGID_26_);}
	.st28{fill:url(#SVGID_27_);}
	.st29{fill:url(#SVGID_28_);}
	.st30{fill:url(#SVGID_29_);}
	.st31{fill:url(#SVGID_30_);}
	.st32{fill:url(#SVGID_31_);}
	.st33{fill:url(#SVGID_32_);}
	.st34{fill:url(#SVGID_33_);}
	.st35{fill:url(#SVGID_34_);}
	.st36{fill:url(#SVGID_35_);}
	.st37{fill:url(#SVGID_36_);}
	.st38{fill:url(#SVGID_37_);}
	.st39{fill:url(#SVGID_38_);}
	.st40{fill:url(#SVGID_39_);}
	.st41{fill:url(#SVGID_40_);}
	.st42{fill:url(#SVGID_41_);}
	.st43{fill:url(#SVGID_42_);}
	.st44{fill:url(#SVGID_43_);}
	.st45{fill:url(#SVGID_44_);}
	.st46{fill:url(#SVGID_45_);}
	.st47{fill:url(#SVGID_46_);}
	.st48{fill:url(#SVGID_47_);}
	.st49{fill:url(#SVGID_48_);}
	.st50{fill:url(#SVGID_49_);}
	.st51{fill:url(#SVGID_50_);}
	.st52{fill:url(#SVGID_51_);}
	.st53{fill:none;}
	.st54{fill:url(#SVGID_52_);}
	.st55{fill:url(#SVGID_53_);}
	.st56{fill:url(#SVGID_54_);}
	.st57{fill:url(#SVGID_55_);}
	.st58{fill:url(#SVGID_56_);}
	.st59{fill:url(#SVGID_57_);}
	.st60{fill:url(#SVGID_58_);}
	.st61{fill:url(#SVGID_59_);}
	.st62{fill:url(#SVGID_60_);}
	.st63{fill:url(#SVGID_61_);}
	.st64{fill:url(#SVGID_62_);}
	.st65{fill:url(#SVGID_63_);}
	.st66{fill:url(#SVGID_64_);}
	.st67{fill:url(#SVGID_65_);}
	.st68{fill:url(#SVGID_66_);}
	.st69{fill:url(#SVGID_67_);}
	.st70{fill:url(#SVGID_68_);}
	.st71{fill:url(#SVGID_69_);}
	.st72{fill:url(#SVGID_70_);}
	.st73{fill:url(#SVGID_71_);}
	.st74{fill:url(#SVGID_72_);}
	.st75{fill:url(#SVGID_73_);}
	.st76{fill:url(#SVGID_74_);}
	.st77{fill:url(#SVGID_75_);}
	.st78{fill:url(#SVGID_76_);}
	.st79{fill:url(#SVGID_77_);}
	.st80{fill:url(#SVGID_78_);}
	.st81{fill:url(#SVGID_79_);}
	.st82{fill:url(#SVGID_80_);}
	.st83{fill:url(#SVGID_81_);}
	.st84{fill:url(#SVGID_82_);}
	.st85{fill:url(#SVGID_83_);}
	.st86{fill:url(#SVGID_84_);}
	.st87{fill:url(#SVGID_85_);}
	.st88{fill:url(#SVGID_86_);}
	.st89{fill:url(#SVGID_87_);}
	.st90{fill:url(#SVGID_88_);}
	.st91{fill:url(#SVGID_89_);}
	.st92{fill:url(#SVGID_90_);}
	.st93{fill:url(#SVGID_91_);}
	.st94{fill:url(#SVGID_92_);}
	.st95{fill:url(#SVGID_93_);}
	.st96{fill:url(#SVGID_94_);}
	.st97{fill:url(#SVGID_95_);}
	.st98{fill:url(#SVGID_96_);}
	.st99{fill:url(#SVGID_97_);}
	.st100{fill:url(#SVGID_98_);}
	.st101{fill:url(#SVGID_99_);}
	.st102{fill:url(#SVGID_100_);}
	.st103{fill:url(#SVGID_101_);}
	.st104{fill:url(#SVGID_102_);}
	.st105{fill:url(#SVGID_103_);}
	.st106{fill:url(#SVGID_104_);}
	.st107{fill:url(#SVGID_105_);}
	.st108{fill:url(#SVGID_106_);}
	.st109{fill:url(#SVGID_107_);}
	.st110{opacity:0.69;fill:#FF9966;}
	.st111{fill:#3399CC;}
	.st112{fill:#FF9966;}
	.st113{opacity:5.000000e-02;}
	.st114{fill:url(#SVGID_110_);}
	.st115{fill:url(#SVGID_111_);}
	.st116{fill:url(#SVGID_112_);}
	.st117{fill:url(#SVGID_113_);}
	.st118{fill:url(#SVGID_114_);}
	.st119{fill:url(#SVGID_115_);}
</style>
<g id="Layer_1">
	<g>
		<g>
			<path class="st0" d="M84.3,121.1c0.9,0.1,3,2.4,4,2.5c9.7,0.9,18.1-0.8,27.3-2.2c18.6-2.7,53.5-24.6,68-31.2
				c9.3-4.3,16.7-8.5,23.2-12.6c0.5-0.3,8.7-4.8,7.3-8.2c-3.3-7.8-7.7-16.3-12.8-23c-3.8-4.9-13.9-14.9-18.9-18.5
				c-13-9.4-21.3-14.4-35.8-9.7c-6.4,2.1-13,3.8-19.4,5.5c-2.9,0.8-2.9,0.8-5.8,1.5l-4.8-0.2l-2.9-3.8l-2.5-0.5
				c-4.4,2.1-7.8,3.3-12,5.4c-6.6,3.2-6,4.7-12.9,7.6c-8.7,3.8-13.9,10.1-17.4,21.2C61.2,79.1,65.5,95.9,84.3,121.1z"/>
			<path class="st0" d="M275.6,24c-3.1-5.7-7.5-10.5-12.8-12.7c-25.8-10.6-83.4,1.3-83.4,1.3c-0.1,0-2.8,1.6-3.4,2
				c1.1,1.2,2.1,2.4,3.2,3.5c3.8,4.2,7.4,5.3,11.3,8.9c0.5,0.4,2.5,1,6.1,0.7c9.7-0.8,26.1-2.5,28.7-2.2c0,0,12.5,5,14.9,8.1
				c0.3,0.4,4.3,5.6,4.5,6c2.1,3.6-0.9,7.4-3.3,11.8c-2,3.5-4.9,6.5-7.7,9.4c-1.5,1.5-3,3.1-4.3,4.7c-1.1,1.3-2.3,2.5-3.5,3.8
				c-1.3,1.4-2.6,2.8-3.7,4.2c-3.7,3-8.3,6.2-13.4,9.5c-6.5,4.1-13.9,8.4-23.2,12.6c-14.5,6.7-49.4,28.5-68,31.2
				c-9.1,1.3-18.8,1.7-28.6,1.5c-16.4-0.3-19,3.2-38.7,0.8c-7.6-0.9-15.4-5.4-17.9-8.7c-1.6-2.1-3.9-7-4.2-9.6
				c-0.1-0.5-0.2-8,0.8-10.5c0.9-2.4,4.2-6.4,6.2-7.9c5-3.7,12-5.8,22.6-10.2c4.9-2,1.1-7,1.8-12.9c0.2-1.6,0.9-7.6,1.7-8.9
				c2.2-3.6-2.3,3.3-0.7-1.4c0.2-0.6,0.4-1.2,0.7-1.8c-2.1,1.2-3.9,2.4-5.9,3.5C34.7,73,25.3,74.9,13.5,89.6
				C4.8,100.6,1,108.5,0,116.3c-0.1,0.5,0.3,12.5,1.6,15.5c1,2.4,8.5,9.4,8.6,9.4c3.9,3.1,18.3,7.8,25.1,9.5
				c14.6,3.6,19.3,1.2,33.4,2.3c74.7-11,126.6-3.1,193.7-83.4c6.3-4.4,10.7-10.2,13.7-17.2c0.5-0.7,1-1.2,1.5-1.9l-0.7,0
				c0.7-1.8,1.8-3.1,2.3-5.1C280.9,38.5,279.2,30.6,275.6,24z"/>
			<ellipse class="st0" cx="261.1" cy="108.7" rx="11" ry="10"/>
			<path class="st0" d="M67.3,17.5c-3.8,2.9-9.5,2.5-12.8-1c-3.2-3.5-2.7-8.7,1.1-11.6s9.5-2.5,12.8,1S71.2,14.6,67.3,17.5z"/>
			<path class="st0" d="M33.7,26.2c-1.9,1.5-4.7,1.2-6.3-0.5s-1.4-4.3,0.6-5.8c1.9-1.5,4.7-1.2,6.3,0.5
				C35.9,22.1,35.6,24.7,33.7,26.2z"/>
			<path class="st0" d="M225.3,110.9c0,0,3.2,12.2-11.2,25.3c-14.5,13.3-45.3,29.6-83.2,24.3c-6.5-0.9-11-3.3-16.3-7.5
				C114.7,153,191.3,147.9,225.3,110.9z"/>
		</g>
		<g>
			<g>
				<path class="st0" d="M397.9,0h55.6c42,0,76.6,33,76.6,75.4s-34.8,75.4-76.6,75.4h-55.6V0z M437.1,117.7h8.8
					c23.4,0,43.4-12.8,43.4-42.2c0-27-17.8-42.2-43-42.2h-9.2V117.7z"/>
				<path class="st0" d="M650.5,58.2V0h39.2v150.9h-39.2V89h-56.6v61.8h-39.2V0h39.2v58.2H650.5z"/>
				<path class="st111" d="M463.8,13.1c38.8,0,70.4,31,70.4,69.2c0,38.1-31.6,69.2-70.4,69.2h-49.4V13.1H463.8 M441.1,130.7h6.3h8.8
					c30.2,0,49.7-19,49.7-48.5c0-29.4-19.3-48.5-49.3-48.5h-9.2h-6.3V40v84.4V130.7 M463.8,6.8h-55.6v150.9h55.6
					c41.8,0,76.6-33,76.6-75.4S505.8,6.8,463.8,6.8L463.8,6.8z M447.4,124.5V40h9.2c25.2,0,43,15.2,43,42.2
					c0,29.4-20,42.2-43.4,42.2H447.4L447.4,124.5z"/>
				<path class="st111" d="M693.7,13.1v138.4H667V95.8v-6.3h-6.3h-56.6h-6.3v6.3v55.6h-26.7V13.1h26.7v52v6.3h6.3h56.6h6.3V65v-52
					H693.7 M700,6.8h-39.2V65h-56.6V6.8h-39.2v150.9h39.2V95.8h56.6v61.8H700V6.8L700,6.8z"/>
			</g>
		</g>
	</g>
</g>
<g id="Layer_2">
</g>
</svg>
