<?xml version="1.0" encoding="utf-8"?>
<!-- Generator: Adobe Illustrator 19.0.1, SVG Export Plug-In . SVG Version: 6.00 Build 0)  -->
<svg version="1.1" xmlns="http://www.w3.org/2000/svg" xmlns:xlink="http://www.w3.org/1999/xlink" x="0px" y="0px"
	 viewBox="0 0 700 178" style="enable-background:new 0 0 700 178;" xml:space="preserve">
<style type="text/css">
	.st0{fill:#FFFFFF;}
	.st1{fill:url(#SVGID_1_);}
	.st2{fill:#666666;}
	.st3{fill:url(#SVGID_2_);}
	.st4{fill:url(#SVGID_3_);}
	.st5{fill:url(#SVGID_4_);}
	.st6{fill:url(#SVGID_5_);}
	.st7{fill:url(#SVGID_6_);}
	.st8{fill:url(#SVGID_7_);}
	.st9{fill:url(#SVGID_8_);}
	.st10{fill:url(#SVGID_9_);}
	.st11{fill:url(#SVGID_10_);}
	.st12{fill:url(#SVGID_11_);}
	.st13{fill:url(#SVGID_12_);}
	.st14{fill:url(#SVGID_13_);}
	.st15{fill:url(#SVGID_14_);}
	.st16{fill:url(#SVGID_15_);}
	.st17{fill:url(#SVGID_16_);}
	.st18{fill:url(#SVGID_17_);}
	.st19{fill:url(#SVGID_18_);}
	.st20{fill:url(#SVGID_19_);}
	.st21{fill:url(#SVGID_20_);}
	.st22{fill:url(#SVGID_21_);}
	.st23{fill:url(#SVGID_22_);}
	.st24{fill:url(#SVGID_23_);}
	.st25{fill:url(#SVGID_24_);}
	.st26{fill:url(#SVGID_25_);}
	.st27{fill:url(#SVGID_26_);}
	.st28{fill:url(#SVGID_27_);}
	.st29{fill:url(#SVGID_28_);}
	.st30{fill:url(#SVGID_29_);}
	.st31{fill:url(#SVGID_30_);}
	.st32{fill:url(#SVGID_31_);}
	.st33{fill:url(#SVGID_32_);}
	.st34{fill:url(#SVGID_33_);}
	.st35{fill:url(#SVGID_34_);}
	.st36{fill:url(#SVGID_35_);}
	.st37{fill:url(#SVGID_36_);}
	.st38{fill:url(#SVGID_37_);}
	.st39{fill:url(#SVGID_38_);}
	.st40{fill:url(#SVGID_39_);}
	.st41{fill:url(#SVGID_40_);}
	.st42{fill:url(#SVGID_41_);}
	.st43{fill:url(#SVGID_42_);}
	.st44{fill:url(#SVGID_43_);}
	.st45{fill:url(#SVGID_44_);}
	.st46{fill:url(#SVGID_45_);}
	.st47{fill:url(#SVGID_46_);}
	.st48{fill:url(#SVGID_47_);}
	.st49{fill:url(#SVGID_48_);}
	.st50{fill:url(#SVGID_49_);}
	.st51{fill:url(#SVGID_50_);}
	.st52{fill:url(#SVGID_51_);}
	.st53{fill:none;}
	.st54{fill:url(#SVGID_52_);}
	.st55{fill:url(#SVGID_53_);}
	.st56{fill:url(#SVGID_54_);}
	.st57{fill:url(#SVGID_55_);}
	.st58{fill:url(#SVGID_56_);}
	.st59{fill:url(#SVGID_57_);}
	.st60{fill:url(#SVGID_58_);}
	.st61{fill:url(#SVGID_59_);}
	.st62{fill:url(#SVGID_60_);}
	.st63{fill:url(#SVGID_61_);}
	.st64{fill:url(#SVGID_62_);}
	.st65{fill:url(#SVGID_63_);}
	.st66{fill:url(#SVGID_64_);}
	.st67{fill:url(#SVGID_65_);}
	.st68{fill:url(#SVGID_66_);}
	.st69{fill:url(#SVGID_67_);}
	.st70{fill:url(#SVGID_68_);}
	.st71{fill:url(#SVGID_69_);}
	.st72{fill:url(#SVGID_70_);}
	.st73{fill:url(#SVGID_71_);}
	.st74{fill:url(#SVGID_72_);}
	.st75{fill:url(#SVGID_73_);}
	.st76{fill:url(#SVGID_74_);}
	.st77{fill:url(#SVGID_75_);}
	.st78{fill:url(#SVGID_76_);}
	.st79{fill:url(#SVGID_77_);}
	.st80{fill:url(#SVGID_78_);}
	.st81{fill:url(#SVGID_79_);}
	.st82{fill:url(#SVGID_80_);}
	.st83{fill:url(#SVGID_81_);}
	.st84{fill:url(#SVGID_82_);}
	.st85{fill:url(#SVGID_83_);}
	.st86{fill:url(#SVGID_84_);}
	.st87{fill:url(#SVGID_85_);}
	.st88{fill:url(#SVGID_86_);}
	.st89{fill:url(#SVGID_87_);}
	.st90{fill:url(#SVGID_88_);}
	.st91{fill:url(#SVGID_89_);}
	.st92{fill:url(#SVGID_90_);}
	.st93{fill:url(#SVGID_91_);}
	.st94{fill:url(#SVGID_92_);}
	.st95{fill:url(#SVGID_93_);}
	.st96{fill:url(#SVGID_94_);}
	.st97{fill:url(#SVGID_95_);}
	.st98{fill:url(#SVGID_96_);}
	.st99{fill:url(#SVGID_97_);}
	.st100{fill:url(#SVGID_98_);}
	.st101{fill:url(#SVGID_99_);}
	.st102{fill:url(#SVGID_100_);}
	.st103{fill:url(#SVGID_101_);}
	.st104{fill:url(#SVGID_102_);}
	.st105{fill:url(#SVGID_103_);}
	.st106{fill:url(#SVGID_104_);}
	.st107{fill:url(#SVGID_105_);}
	.st108{fill:url(#SVGID_106_);}
	.st109{fill:url(#SVGID_107_);}
	.st110{opacity:0.69;fill:#FF9966;}
	.st111{fill:#3399CC;}
	.st112{fill:#FF9966;}
	.st113{opacity:5.000000e-02;}
	.st114{fill:url(#SVGID_110_);}
	.st115{fill:url(#SVGID_111_);}
	.st116{fill:url(#SVGID_112_);}
	.st117{fill:url(#SVGID_113_);}
	.st118{fill:url(#SVGID_114_);}
	.st119{fill:url(#SVGID_115_);}
</style>
<g id="Layer_1">
	<g>
		<g>
			<path class="st0" d="M285.8,158.9c0,0.5-0.4,0.9-0.9,0.9c-0.5,0-0.9-0.4-0.9-0.9c0-0.5,0.4-0.9,0.9-0.9
				C285.4,158,285.8,158.4,285.8,158.9z M285.4,172.2h-1v-9.9h1V172.2z"/>
			<path class="st0" d="M300.8,172.2h-1v-17.8h1V172.2z"/>
			<path class="st0" d="M315.9,172.2h-1v-17.8h1V172.2z"/>
			<path class="st0" d="M336.9,162.2v6c0,1,0,2-0.6,2.9c-0.7,0.9-1.9,1.3-3,1.3c-1.1,0-2.3-0.4-3-1.3c-0.6-0.8-0.6-1.9-0.6-2.9v-6h1
				v5.6c0,1.9,0.2,3.6,2.6,3.6s2.6-1.7,2.6-3.6v-5.6H336.9z"/>
			<path class="st0" d="M355,164c-0.3-0.7-1-1.1-1.7-1.1c-0.8,0-1.7,0.7-1.7,1.5c0,2.4,4.8,1.2,4.8,4.8c0,1.8-1.4,3.1-3.2,3.1
				c-1.7,0-3-1-3.4-2.6l0.9-0.3c0.4,1.2,1.2,2,2.5,2c1.2,0,2.2-1,2.2-2.2c0-1.2-0.9-1.6-1.9-2c-1.4-0.5-2.9-1.1-2.9-2.8
				c0-1.5,1.3-2.5,2.7-2.5c1,0,2.1,0.7,2.5,1.6L355,164z"/>
			<path class="st0" d="M370.8,172.2h-1v-9h-1.1v-0.9h1.1v-3.5h1v3.5h1.7v0.9h-1.7V172.2z"/>
			<path class="st0" d="M385.9,163.5L385.9,163.5c0.4-0.9,1.1-1.5,2.2-1.5c0.4,0,0.7,0.1,1.1,0.2l-0.5,0.9c-0.2-0.1-0.4-0.2-0.7-0.2
				c-2.2,0-2,2.7-2,4.2v5.1h-1v-9.9h1V163.5z"/>
			<path class="st0" d="M410.4,172.2h-1v-1.8h0c-0.7,1.3-2.3,2-3.8,2c-3,0-4.9-2.3-4.9-5.2c0-2.9,1.9-5.1,4.9-5.1
				c1.5,0,3,0.7,3.8,1.9h0v-1.7h1V172.2z M401.7,167.1c0,2.3,1.5,4.3,3.9,4.3c2.5,0,3.9-2.1,3.9-4.5c0-2.3-1.6-4.1-4-4.1
				C403.3,162.9,401.7,165,401.7,167.1z"/>
			<path class="st0" d="M425.6,172.2h-1v-9h-1.1v-0.9h1.1v-3.5h1v3.5h1.7v0.9h-1.7V172.2z"/>
			<path class="st0" d="M441.5,158.9c0,0.5-0.4,0.9-0.9,0.9c-0.5,0-0.9-0.4-0.9-0.9c0-0.5,0.4-0.9,0.9-0.9
				C441.1,158,441.5,158.4,441.5,158.9z M441.1,172.2h-1v-9.9h1V172.2z"/>
			<path class="st0" d="M465,167.2c0,2.9-2.3,5.2-5.2,5.2c-2.9,0-5.2-2.3-5.2-5.2c0-2.9,2.3-5.2,5.2-5.2
				C462.7,162,465,164.2,465,167.2z M455.6,167.2c0,2.3,1.8,4.3,4.1,4.3c2.4,0,4.3-1.9,4.3-4.3c0-2.5-1.9-4.3-4.3-4.3
				C457.3,162.9,455.6,164.9,455.6,167.2z"/>
			<path class="st0" d="M479.1,163.8L479.1,163.8c0.6-1.1,1.7-1.8,3-1.8c2.6,0,3.3,1.6,3.3,4.2v6h-1v-6c0-1.8-0.2-3.2-2.4-3.2
				c-2.5,0-2.9,2.3-2.9,4.3v4.9h-1v-9.9h1V163.8z"/>
		</g>
		<path class="st0" d="M0,71.6h22.4c16.9,0,30.8,13.3,30.8,30.3s-14,30.3-30.8,30.3H0V71.6z M15.8,118.9h3.5c9.4,0,17.5-5.1,17.5-17
			c0-10.9-7.2-17-17.3-17h-3.7V118.9z"/>
		<path class="st0" d="M92.3,132.2H76.6V71.6h15.8V132.2z"/>
		<path class="st0" d="M134.5,118.9h18.9v13.4h-34.7V71.6h15.8V118.9z"/>
		<path class="st0" d="M190.3,118.9h18.9v13.4h-34.7V71.6h15.8V118.9z"/>
		<path class="st0" d="M294.5,100.8c0,19.6-14.1,33.5-33.5,33.5c-19.5,0-33.5-13.8-33.5-33.5c0-18.3,16.1-31.2,33.5-31.2
			S294.5,82.4,294.5,100.8z M243.8,100.9c0,10.5,7.7,18.1,17.1,18.1c9.4,0,17.1-7.6,17.1-18.1c0-8.4-7.7-16-17.1-16
			C251.5,84.9,243.8,92.5,243.8,100.9z"/>
		<path class="st0" d="M317.9,71.6h15.8l28.9,37.1h0.2V71.6h15.8v60.7h-15.8l-28.9-37.2h-0.2v37.2h-15.8V71.6z"/>
		<path class="st0" d="M484.3,95V71.6h15.8v60.7h-15.8v-24.9h-22.8v24.9h-15.8V71.6h15.8V95H484.3z"/>
		<path class="st0" d="M541.9,121.7l-4.2,10.5H521l23.3-60.7h17.2l22.8,60.7h-16.8l-3.9-10.5H541.9z M552.9,90.3h-0.2l-6.5,19.3
			h13.1L552.9,90.3z"/>
		<path class="st0" d="M621.1,118.9H640v13.4h-34.7V71.6h15.8V118.9z"/>
		<path class="st0" d="M677,118.9h18.9v13.4h-34.7V71.6H677V118.9z"/>
		<g>
			<path class="st0" d="M3.9,164L3.9,164c0.8-1.3,2.4-2,3.8-2c3,0,4.9,2.4,4.9,5.3c0,2.9-1.9,5.1-4.9,5.1c-1.5,0-3-0.7-3.8-1.9h0
				v7.5h-1v-15.7h1V164z M3.8,167.4c0,2.3,1.6,4.1,4,4.1c2.3,0,3.9-2,3.9-4.2c0-2.3-1.5-4.4-3.9-4.4C5.2,162.9,3.8,165,3.8,167.4z"
				/>
			<path class="st0" d="M26.7,163.5L26.7,163.5c0.4-0.9,1.1-1.5,2.2-1.5c0.4,0,0.7,0.1,1.1,0.2l-0.5,0.9c-0.2-0.1-0.4-0.2-0.7-0.2
				c-2.2,0-2,2.7-2,4.2v5.1h-1v-9.9h1V163.5z"/>
			<path class="st0" d="M44.2,158.9c0,0.5-0.4,0.9-0.9,0.9c-0.5,0-0.9-0.4-0.9-0.9c0-0.5,0.4-0.9,0.9-0.9
				C43.8,158,44.2,158.4,44.2,158.9z M43.8,172.2h-1v-9.9h1V172.2z"/>
			<path class="st0" d="M59.2,163.8L59.2,163.8c0.6-1.1,1.7-1.8,3-1.8c2.6,0,3.3,1.6,3.3,4.2v6h-1v-6c0-1.8-0.2-3.2-2.4-3.2
				c-2.5,0-2.9,2.3-2.9,4.3v4.9h-1v-9.9h1V163.8z"/>
			<path class="st0" d="M80.7,172.2h-1v-9h-1.1v-0.9h1.1v-3.5h1v3.5h1.7v0.9h-1.7V172.2z"/>
			<path class="st0" d="M120,170.4L120,170.4c-0.8,1.3-2.4,2-3.8,2c-3,0-4.9-2.3-4.9-5.2c0-2.9,1.9-5.1,4.9-5.1c1.5,0,3,0.7,3.8,1.9
				h0v-9.5h1v17.8h-1V170.4z M120.1,167c0-2.3-1.6-4.1-4-4.1c-2.3,0-3.9,2.1-3.9,4.2c0,2.3,1.5,4.3,3.9,4.3
				C118.7,171.5,120.1,169.4,120.1,167z"/>
			<path class="st0" d="M135.1,167.3c-0.1,2.5,1.7,4.2,4,4.2c1.5,0,2.8-0.9,3.5-2.3l0.8,0.5c-0.9,1.7-2.5,2.7-4.5,2.7
				c-2.9,0-4.8-2.4-4.8-5.2c0-2.8,1.9-5.2,4.8-5.2c3,0,4.8,2.4,4.8,5.3H135.1z M142.7,166.4c-0.2-1.8-1.7-3.5-3.8-3.5
				c-2,0-3.7,1.6-3.9,3.5H142.7z"/>
			<path class="st0" d="M161,164c-0.3-0.7-1-1.1-1.7-1.1c-0.8,0-1.7,0.7-1.7,1.5c0,2.4,4.8,1.2,4.8,4.8c0,1.8-1.4,3.1-3.2,3.1
				c-1.7,0-3-1-3.4-2.6l0.9-0.3c0.4,1.2,1.2,2,2.5,2c1.2,0,2.2-1,2.2-2.2c0-1.2-0.9-1.6-1.9-2c-1.4-0.5-2.9-1.1-2.9-2.8
				c0-1.5,1.3-2.5,2.7-2.5c1,0,2.1,0.7,2.5,1.6L161,164z"/>
			<path class="st0" d="M177.4,158.9c0,0.5-0.4,0.9-0.9,0.9c-0.5,0-0.9-0.4-0.9-0.9c0-0.5,0.4-0.9,0.9-0.9
				C177,158,177.4,158.4,177.4,158.9z M177,172.2h-1v-9.9h1V172.2z"/>
			<path class="st0" d="M200.3,171.7c0,1.5,0,2.9-1,4.2c-0.9,1.3-2.4,1.9-4,1.9c-2.6,0-4.8-1.5-4.9-4.3h1c0.1,2.1,1.9,3.4,3.9,3.4
				c1.2,0,2.5-0.4,3.2-1.5c0.8-1.1,0.9-2.4,0.9-3.8v-1.2h0c-0.9,1.2-2.4,1.9-3.9,1.9c-2.9,0-4.8-2.4-4.8-5.2c0-2.9,2-5.2,4.9-5.2
				c1.6,0,2.8,0.7,3.7,1.9h0v-1.7h1V171.7z M191.6,167.1c0,2.3,1.5,4.3,3.9,4.3c2.5,0,3.9-2.1,3.9-4.5c0-2.3-1.6-4.1-4-4.1
				C193.2,162.9,191.6,165,191.6,167.1z"/>
			<path class="st0" d="M215.4,163.8L215.4,163.8c0.6-1.1,1.7-1.8,3-1.8c2.6,0,3.3,1.6,3.3,4.2v6h-1v-6c0-1.8-0.2-3.2-2.4-3.2
				c-2.5,0-2.9,2.3-2.9,4.3v4.9h-1v-9.9h1V163.8z"/>
		</g>
		<g>
			<path class="st0" d="M547,154.4h1v9.5h0c0.8-1.2,2.3-1.9,3.8-1.9c3,0,4.9,2.2,4.9,5.1c0,2.9-1.9,5.2-4.9,5.2
				c-1.5,0-3.1-0.7-3.8-2h0v1.8h-1V154.4z M555.8,167.1c0-2.2-1.6-4.2-3.9-4.2c-2.5,0-4,1.9-4,4.2c0,2.3,1.5,4.3,3.9,4.3
				C554.3,171.5,555.8,169.4,555.8,167.1z"/>
			<path class="st0" d="M570.8,163.5L570.8,163.5c0.4-0.9,1.1-1.5,2.2-1.5c0.4,0,0.7,0.1,1.1,0.2l-0.5,0.9c-0.2-0.1-0.4-0.2-0.7-0.2
				c-2.2,0-2,2.7-2,4.2v5.1h-1v-9.9h1V163.5z"/>
			<path class="st0" d="M595.3,172.2h-1v-1.8h0c-0.7,1.3-2.3,2-3.8,2c-3,0-4.9-2.3-4.9-5.2c0-2.9,1.9-5.1,4.9-5.1
				c1.5,0,3,0.7,3.8,1.9h0v-1.7h1V172.2z M586.6,167.1c0,2.3,1.5,4.3,3.9,4.3c2.5,0,3.9-2.1,3.9-4.5c0-2.3-1.6-4.1-4-4.1
				C588.2,162.9,586.6,165,586.6,167.1z"/>
			<path class="st0" d="M610.4,163.8L610.4,163.8c0.6-1.1,1.7-1.8,3-1.8c2.6,0,3.3,1.6,3.3,4.2v6h-1v-6c0-1.8-0.2-3.2-2.4-3.2
				c-2.5,0-2.9,2.3-2.9,4.3v4.9h-1v-9.9h1V163.8z"/>
			<path class="st0" d="M638.5,170.4L638.5,170.4c-0.8,1.3-2.4,2-3.8,2c-3,0-4.9-2.3-4.9-5.2c0-2.9,1.9-5.1,4.9-5.1
				c1.5,0,3,0.7,3.8,1.9h0v-9.5h1v17.8h-1V170.4z M638.5,167c0-2.3-1.6-4.1-4-4.1c-2.3,0-3.9,2.1-3.9,4.2c0,2.3,1.5,4.3,3.9,4.3
				C637.2,171.5,638.5,169.4,638.5,167z"/>
			<path class="st0" d="M655.3,158.9c0,0.5-0.4,0.9-0.9,0.9c-0.5,0-0.9-0.4-0.9-0.9c0-0.5,0.4-0.9,0.9-0.9
				C654.9,158,655.3,158.4,655.3,158.9z M654.8,172.2h-1v-9.9h1V172.2z"/>
			<path class="st0" d="M670.3,163.8L670.3,163.8c0.6-1.1,1.7-1.8,3-1.8c2.6,0,3.3,1.6,3.3,4.2v6h-1v-6c0-1.8-0.2-3.2-2.4-3.2
				c-2.5,0-2.9,2.3-2.9,4.3v4.9h-1v-9.9h1V163.8z"/>
			<path class="st0" d="M699.5,171.7c0,1.5,0,2.9-1,4.2c-0.9,1.3-2.4,1.9-4,1.9c-2.6,0-4.8-1.5-4.9-4.3h1c0.1,2.1,1.9,3.4,3.9,3.4
				c1.2,0,2.5-0.4,3.2-1.5c0.8-1.1,0.9-2.4,0.9-3.8v-1.2h0c-0.9,1.2-2.4,1.9-3.9,1.9c-2.9,0-4.8-2.4-4.8-5.2c0-2.9,2-5.2,4.9-5.2
				c1.6,0,2.8,0.7,3.7,1.9h0v-1.7h1V171.7z M690.8,167.1c0,2.3,1.5,4.3,3.9,4.3c2.5,0,3.9-2.1,3.9-4.5c0-2.3-1.6-4.1-4-4.1
				C692.3,162.9,690.8,165,690.8,167.1z"/>
		</g>
		<path class="st112" d="M26.5,76.8c15.6,0,28.3,12.5,28.3,27.8c0,15.3-12.7,27.8-28.3,27.8H6.6V76.8H26.5 M17.4,124.1h2.5h3.5
			c12.1,0,20-7.6,20-19.5c0-11.8-7.8-19.5-19.8-19.5h-3.7h-2.5v2.5v33.9V124.1 M26.5,74.3H4.1V135h22.4c16.8,0,30.8-13.3,30.8-30.3
			S43.4,74.3,26.5,74.3L26.5,74.3z M19.9,121.6V87.7h3.7c10.1,0,17.3,6.1,17.3,17c0,11.8-8,17-17.5,17H19.9L19.9,121.6z"/>
		<path class="st112" d="M93.9,76.8v55.6H83.2V76.8H93.9 M96.4,74.3H80.7V135h15.8V74.3L96.4,74.3z"/>
		<path class="st112" d="M136.1,76.8v44.8v2.5h2.5H155v8.3h-29.6V76.8H136.1 M138.6,74.3h-15.8V135h34.7v-13.4h-18.9V74.3
			L138.6,74.3z"/>
		<path class="st112" d="M191.9,76.8v44.8v2.5h2.5h16.4v8.3h-29.6V76.8H191.9 M194.4,74.3h-15.8V135h34.7v-13.4h-18.9V74.3
			L194.4,74.3z"/>
		<path class="st112" d="M265.1,74.8c14.9,0,31,11,31,28.7c0,18.2-12.8,31-31,31c-18.3,0-31-12.7-31-31
			C234,85.8,250.1,74.8,265.1,74.8 M265.1,124.2c11,0,19.6-9.1,19.6-20.6c0-10-9-18.5-19.6-18.5c-10.6,0-19.6,8.5-19.6,18.5
			C245.4,115.2,254,124.2,265.1,124.2 M265.1,72.3c-17.5,0-33.5,12.9-33.5,31.2c0,19.6,14.1,33.5,33.5,33.5
			c19.5,0,33.5-13.8,33.5-33.5C298.6,85.2,282.5,72.3,265.1,72.3L265.1,72.3z M265.1,121.7c-9.4,0-17.1-7.6-17.1-18.1
			c0-8.4,7.7-16,17.1-16c9.4,0,17.1,7.6,17.1,16C282.2,114.1,274.5,121.7,265.1,121.7L265.1,121.7z"/>
		<path class="st112" d="M380,76.8v55.6h-12l-28.1-36.2l-0.9-1h-1.2h-2.5v2.5v34.6h-10.7V76.8h12l28.1,36.1l0.9,1h1.2h2.5v-2.5V76.8
			H380 M382.5,74.3h-15.8v37.1h-0.2l-28.9-37.1H322V135h15.8V97.8h0.2l28.9,37.2h15.8V74.3L382.5,74.3z"/>
		<path class="st112" d="M501.7,76.8v55.6H491v-22.3v-2.5h-2.5h-22.8h-2.5v2.5v22.3h-10.7V76.8h10.7v20.9v2.5h2.5h22.8h2.5v-2.5
			V76.8H501.7 M504.2,74.3h-15.8v23.4h-22.8V74.3h-15.8V135h15.8v-24.9h22.8V135h15.8V74.3L504.2,74.3z"/>
		<path class="st112" d="M563.9,76.8l21,55.6h-11.4l-3.3-8.9l-0.6-1.6h-1.7H546h-1.7l-0.6,1.6l-3.6,9h-11.4l21.4-55.6H563.9
			 M546.9,114.9h3.5h13.1h3.5l-1.1-3.3l-6.4-19.3l-0.7-1.7h-1.8h-1.8l-0.6,1.7l-6.5,19.3L546.9,114.9 M565.6,74.3h-17.2L525.1,135
			h16.7l4.2-10.5h21.7l3.9,10.5h16.8L565.6,74.3L565.6,74.3z M550.4,112.4l6.5-19.3h0.2l6.4,19.3H550.4L550.4,112.4z"/>
		<path class="st112" d="M622.7,76.8v44.8v2.5h2.5h16.4v8.3H612V76.8H622.7 M625.2,74.3h-15.8V135h34.7v-13.4h-18.9V74.3L625.2,74.3
			z"/>
		<path class="st112" d="M678.6,76.8v44.8v2.5h2.5h16.4v8.3h-29.6V76.8H678.6 M681.1,74.3h-15.8V135H700v-13.4h-18.9V74.3
			L681.1,74.3z"/>
		<circle class="st112" cx="251.7" cy="167.7" r="4.5"/>
		<circle class="st112" cx="518.2" cy="167.7" r="4.5"/>
		<g>
			<path class="st0" d="M332.9,36.4c0.3,0,0.9,0.7,1.2,0.8c3,0.3,5.6-0.3,8.4-0.7c5.7-0.8,16.5-7.6,21-9.6c2.9-1.3,5.2-2.6,7.1-3.9
				c0.1-0.1,2.7-1.5,2.2-2.5c-1-2.4-2.4-5-4-7.1c-1.2-1.5-4.3-4.6-5.8-5.7c-4-2.9-6.6-4.5-11-3c-2,0.6-4,1.2-6,1.7
				c-0.9,0.2-0.9,0.2-1.8,0.5l-1.5-0.1l-0.9-1.2l-0.8-0.2c-1.4,0.6-2.4,1-3.7,1.7c-2,1-1.9,1.4-4,2.4c-2.7,1.2-4.3,3.1-5.4,6.5
				C325.8,23.5,327.1,28.6,332.9,36.4z"/>
			<path class="st0" d="M391.9,6.5c-0.9-1.8-2.3-3.2-3.9-3.9C380-0.7,362.2,3,362.2,3c0,0-0.9,0.5-1,0.6c0.3,0.4,0.7,0.7,1,1.1
				c1.2,1.3,2.3,1.6,3.5,2.7c0.1,0.1,0.8,0.3,1.9,0.2c3-0.3,8-0.8,8.8-0.7c0,0,3.8,1.5,4.6,2.5c0.1,0.1,1.3,1.7,1.4,1.9
				c0.6,1.1-0.3,2.3-1,3.6c-0.6,1.1-1.5,2-2.4,2.9c-0.5,0.5-0.9,0.9-1.3,1.4c-0.3,0.4-0.7,0.8-1.1,1.2c-0.4,0.4-0.8,0.9-1.1,1.3
				c-1.1,0.9-2.6,1.9-4.1,2.9c-2,1.3-4.3,2.6-7.1,3.9c-4.5,2.1-15.2,8.8-21,9.6c-2.8,0.4-5.8,0.5-8.8,0.5c-5.1-0.1-5.9,1-11.9,0.2
				c-2.3-0.3-4.7-1.7-5.5-2.7c-0.5-0.6-1.2-2.2-1.3-3c0-0.2-0.1-2.5,0.2-3.2c0.3-0.7,1.3-2,1.9-2.4c1.5-1.1,3.7-1.8,7-3.1
				c1.5-0.6,0.4-2.1,0.6-4c0.1-0.5,0.3-2.3,0.5-2.7c0.7-1.1-0.7,1-0.2-0.4c0.1-0.2,0.1-0.4,0.2-0.6c-0.7,0.4-1.2,0.7-1.8,1.1
				c-6.4,3.8-9.3,4.4-13,8.9c-2.7,3.4-3.9,5.8-4.2,8.2c0,0.1,0.1,3.9,0.5,4.8c0.3,0.7,2.6,2.9,2.6,2.9c1.2,1,5.6,2.4,7.7,2.9
				c4.5,1.1,5.9,0.4,10.3,0.7c23-3.4,39-0.9,59.7-25.7c2-1.4,3.3-3.2,4.2-5.3c0.2-0.2,0.3-0.4,0.5-0.6l-0.2,0c0.2-0.5,0.6-1,0.7-1.6
				C393.5,11,393,8.5,391.9,6.5z"/>
			<ellipse class="st0" cx="387.4" cy="32.6" rx="3.4" ry="3.1"/>
			<path class="st0" d="M327.7,4.5c-1.2,0.9-2.9,0.8-3.9-0.3s-0.8-2.7,0.3-3.6s2.9-0.8,3.9,0.3C329,2,328.8,3.6,327.7,4.5z"/>
			<path class="st0" d="M317.3,7.2c-0.6,0.4-1.5,0.4-2-0.2c-0.5-0.5-0.4-1.3,0.2-1.8c0.6-0.4,1.5-0.4,2,0.2S317.9,6.7,317.3,7.2z"/>
			<path class="st0" d="M376.4,33.3c0,0,1,3.7-3.4,7.8c-4.5,4.1-14,9.1-25.7,7.5c-2-0.3-3.4-1-5-2.3
				C342.3,46.3,365.9,44.7,376.4,33.3z"/>
		</g>
	</g>
</g>
<g id="Layer_2">
</g>
</svg>
