<?xml version="1.0" encoding="utf-8"?>
<!-- Generator: Adobe Illustrator 19.0.1, SVG Export Plug-In . SVG Version: 6.00 Build 0)  -->
<svg version="1.1" xmlns="http://www.w3.org/2000/svg" xmlns:xlink="http://www.w3.org/1999/xlink" x="0px" y="0px"
	 viewBox="0 0 711.1 180.4" style="enable-background:new 0 0 711.1 180.4;" xml:space="preserve">
<style type="text/css">
	.st0{fill:#FFFFFF;}
	.st1{fill:url(#SVGID_1_);}
	.st2{fill:#666666;}
	.st3{fill:url(#SVGID_2_);}
	.st4{fill:url(#SVGID_3_);}
	.st5{fill:url(#SVGID_4_);}
	.st6{fill:url(#SVGID_5_);}
	.st7{fill:url(#SVGID_6_);}
	.st8{fill:url(#SVGID_7_);}
	.st9{fill:url(#SVGID_8_);}
	.st10{fill:url(#SVGID_9_);}
	.st11{fill:url(#SVGID_10_);}
	.st12{fill:url(#SVGID_11_);}
	.st13{fill:url(#SVGID_12_);}
	.st14{fill:url(#SVGID_13_);}
	.st15{fill:url(#SVGID_14_);}
	.st16{fill:url(#SVGID_15_);}
	.st17{fill:url(#SVGID_16_);}
	.st18{fill:url(#SVGID_17_);}
	.st19{fill:url(#SVGID_18_);}
	.st20{fill:url(#SVGID_19_);}
	.st21{fill:url(#SVGID_20_);}
	.st22{fill:url(#SVGID_21_);}
	.st23{fill:url(#SVGID_22_);}
	.st24{fill:url(#SVGID_23_);}
	.st25{fill:url(#SVGID_24_);}
	.st26{fill:url(#SVGID_25_);}
	.st27{fill:url(#SVGID_26_);}
	.st28{fill:url(#SVGID_27_);}
	.st29{fill:url(#SVGID_28_);}
	.st30{fill:url(#SVGID_29_);}
	.st31{fill:url(#SVGID_30_);}
	.st32{fill:url(#SVGID_31_);}
	.st33{fill:url(#SVGID_32_);}
	.st34{fill:url(#SVGID_33_);}
	.st35{fill:url(#SVGID_34_);}
	.st36{fill:url(#SVGID_35_);}
	.st37{fill:url(#SVGID_36_);}
	.st38{fill:url(#SVGID_37_);}
	.st39{fill:url(#SVGID_38_);}
	.st40{fill:url(#SVGID_39_);}
	.st41{fill:url(#SVGID_40_);}
	.st42{fill:url(#SVGID_41_);}
	.st43{fill:url(#SVGID_42_);}
	.st44{fill:url(#SVGID_43_);}
	.st45{fill:url(#SVGID_44_);}
	.st46{fill:url(#SVGID_45_);}
	.st47{fill:url(#SVGID_46_);}
	.st48{fill:url(#SVGID_47_);}
	.st49{fill:url(#SVGID_48_);}
	.st50{fill:url(#SVGID_49_);}
	.st51{fill:url(#SVGID_50_);}
	.st52{fill:url(#SVGID_51_);}
	.st53{fill:none;}
	.st54{fill:url(#SVGID_52_);}
	.st55{fill:url(#SVGID_53_);}
	.st56{fill:url(#SVGID_54_);}
	.st57{fill:url(#SVGID_55_);}
	.st58{fill:url(#SVGID_56_);}
	.st59{fill:url(#SVGID_57_);}
	.st60{fill:url(#SVGID_58_);}
	.st61{fill:url(#SVGID_59_);}
	.st62{fill:url(#SVGID_60_);}
	.st63{fill:url(#SVGID_61_);}
	.st64{fill:url(#SVGID_62_);}
	.st65{fill:url(#SVGID_63_);}
	.st66{fill:url(#SVGID_64_);}
	.st67{fill:url(#SVGID_65_);}
	.st68{fill:url(#SVGID_66_);}
	.st69{fill:url(#SVGID_67_);}
	.st70{fill:url(#SVGID_68_);}
	.st71{fill:url(#SVGID_69_);}
	.st72{fill:url(#SVGID_70_);}
	.st73{fill:url(#SVGID_71_);}
	.st74{fill:url(#SVGID_72_);}
	.st75{fill:url(#SVGID_73_);}
	.st76{fill:url(#SVGID_74_);}
	.st77{fill:url(#SVGID_75_);}
	.st78{fill:url(#SVGID_76_);}
	.st79{fill:url(#SVGID_77_);}
	.st80{fill:url(#SVGID_78_);}
	.st81{fill:url(#SVGID_79_);}
	.st82{fill:url(#SVGID_80_);}
	.st83{fill:url(#SVGID_81_);}
	.st84{fill:url(#SVGID_82_);}
	.st85{fill:url(#SVGID_83_);}
	.st86{fill:url(#SVGID_84_);}
	.st87{fill:url(#SVGID_85_);}
	.st88{fill:url(#SVGID_86_);}
	.st89{fill:url(#SVGID_87_);}
	.st90{fill:url(#SVGID_88_);}
	.st91{fill:url(#SVGID_89_);}
	.st92{fill:url(#SVGID_90_);}
	.st93{fill:url(#SVGID_91_);}
	.st94{fill:url(#SVGID_92_);}
	.st95{fill:url(#SVGID_93_);}
	.st96{fill:url(#SVGID_94_);}
	.st97{fill:url(#SVGID_95_);}
	.st98{fill:url(#SVGID_96_);}
	.st99{fill:url(#SVGID_97_);}
	.st100{fill:url(#SVGID_98_);}
	.st101{fill:url(#SVGID_99_);}
	.st102{fill:url(#SVGID_100_);}
	.st103{fill:url(#SVGID_101_);}
	.st104{fill:url(#SVGID_102_);}
	.st105{fill:url(#SVGID_103_);}
	.st106{fill:url(#SVGID_104_);}
	.st107{fill:url(#SVGID_105_);}
	.st108{fill:url(#SVGID_106_);}
	.st109{fill:url(#SVGID_107_);}
	.st110{opacity:0.69;fill:#FF9966;}
	.st111{fill:#3399CC;}
	.st112{fill:#FF9966;}
	.st113{opacity:5.000000e-02;}
	.st114{fill:url(#SVGID_110_);}
	.st115{fill:url(#SVGID_111_);}
	.st116{fill:url(#SVGID_112_);}
	.st117{fill:url(#SVGID_113_);}
	.st118{fill:url(#SVGID_114_);}
	.st119{fill:url(#SVGID_115_);}
</style>
<g id="Layer_1">
	<g>
		<g>
			<path class="st0" d="M287.3,159.6c0,0.7-0.6,1.3-1.4,1.3c-0.7,0-1.4-0.6-1.4-1.3c0-0.8,0.6-1.4,1.4-1.4
				C286.6,158.3,287.3,158.9,287.3,159.6z M286.9,174.5h-2v-10.2h2V174.5z"/>
			<path class="st0" d="M303,174.5h-2v-18.9h2V174.5z"/>
			<path class="st0" d="M318.7,174.5h-2v-18.9h2V174.5z"/>
			<path class="st0" d="M334.3,164.3v5.7c0,1.6,0.4,3.1,2.4,3.1s2.4-1.4,2.4-3.1v-5.7h2v5.9c0,2.8-1.3,4.7-4.3,4.7s-4.3-1.9-4.3-4.7
				v-5.9H334.3z"/>
			<path class="st0" d="M358.6,166.7c-0.2-0.5-0.7-0.9-1.3-0.9c-0.5,0-1.1,0.4-1.1,1c0,0.9,1.2,1.3,2.4,1.8s2.4,1.3,2.4,2.9
				c0,1.9-1.6,3.4-3.5,3.4c-1.5,0-3-0.9-3.5-2.3l1.7-0.8c0.4,0.8,0.9,1.3,1.9,1.3c0.8,0,1.5-0.6,1.5-1.4c0-0.5-0.3-0.8-0.7-1.1
				l-1.9-1c-1.1-0.6-2-1.2-2-2.6c0-1.7,1.4-3,3-3c1.2,0,2.2,0.7,2.8,1.8L358.6,166.7z"/>
			<path class="st0" d="M376,174.5h-2v-8.4H373v-1.8h1.1v-3.9h2v3.9h1.9v1.8H376V174.5z"/>
			<path class="st0" d="M392,166L392,166c0.5-1.2,1.5-2,2.9-2c0.6,0,1.1,0.2,1.6,0.5l-0.9,1.8c-0.3-0.3-0.7-0.4-1.2-0.4
				c-2.1,0-2.4,2-2.4,3.6v5h-2v-10.2h2V166z"/>
			<path class="st0" d="M418.1,174.5h-2v-1.6h0c-0.8,1.2-2,1.9-3.5,1.9c-3.1,0-4.9-2.6-4.9-5.5c0-2.8,1.9-5.3,4.8-5.3
				c1.5,0,2.7,0.8,3.5,2h0v-1.7h2V174.5z M416.2,169.4c0-2-1.2-3.7-3.3-3.7c-2,0-3.2,1.8-3.2,3.7c0,1.9,1.2,3.7,3.2,3.7
				C415.1,173.1,416.2,171.4,416.2,169.4z"/>
			<path class="st0" d="M433.8,174.5h-2v-8.4h-1.1v-1.8h1.1v-3.9h2v3.9h1.9v1.8h-1.9V174.5z"/>
			<path class="st0" d="M450.5,159.6c0,0.7-0.6,1.3-1.4,1.3c-0.7,0-1.4-0.6-1.4-1.3c0-0.8,0.6-1.4,1.4-1.4
				C449.9,158.3,450.5,158.9,450.5,159.6z M450.1,174.5h-2v-10.2h2V174.5z"/>
			<path class="st0" d="M474.1,169.4c0,3.1-2.4,5.4-5.5,5.4s-5.5-2.4-5.5-5.4s2.4-5.4,5.5-5.4S474.1,166.4,474.1,169.4z
				 M465.2,169.4c0,1.9,1.5,3.6,3.5,3.6c1.9,0,3.5-1.6,3.5-3.6c0-1.9-1.5-3.6-3.5-3.6C466.7,165.9,465.2,167.5,465.2,169.4z"/>
			<path class="st0" d="M488.8,165.7L488.8,165.7c0.7-1.1,1.9-1.7,3.1-1.7c2.9,0,3.6,1.9,3.6,4.4v6.1h-2v-5.8c0-1.7-0.2-2.9-2.2-2.9
				c-2.5,0-2.5,2.2-2.5,4.1v4.7h-2v-10.2h2V165.7z"/>
		</g>
		<path class="st0" d="M0,72.6h22.7c17.1,0,31.2,13.5,31.2,30.7s-14.2,30.7-31.2,30.7H0V72.6z M16,120.5h3.6
			c9.5,0,17.7-5.2,17.7-17.2c0-11-7.3-17.2-17.5-17.2H16V120.5z"/>
		<path class="st0" d="M93.6,134.1h-16V72.6h16V134.1z"/>
		<path class="st0" d="M136.3,120.5h19.2v13.5h-35.1V72.6h16V120.5z"/>
		<path class="st0" d="M193,120.5h19.2v13.5H177V72.6h16V120.5z"/>
		<path class="st0" d="M298.5,102.2c0,19.9-14.3,33.9-34,33.9c-19.7,0-34-14-34-33.9c0-18.6,16.3-31.6,34-31.6
			C282.2,70.5,298.5,83.6,298.5,102.2z M247.2,102.3c0,10.6,7.8,18.3,17.4,18.3c9.5,0,17.4-7.8,17.4-18.3c0-8.5-7.8-16.2-17.4-16.2
			C255,86,247.2,93.8,247.2,102.3z"/>
		<path class="st0" d="M322.2,72.6h16l29.3,37.6h0.2V72.6h16v61.5h-16l-29.3-37.7h-0.2v37.7h-16V72.6z"/>
		<path class="st0" d="M491,96.3V72.6h16v61.5h-16v-25.2h-23.1v25.2h-16V72.6h16v23.7H491z"/>
		<path class="st0" d="M549.4,123.4l-4.2,10.7h-17l23.7-61.5h17.4l23.2,61.5h-17l-4-10.7H549.4z M560.5,91.6h-0.2l-6.6,19.6h13.3
			L560.5,91.6z"/>
		<path class="st0" d="M629.7,120.5h19.2v13.5h-35.1V72.6h16V120.5z"/>
		<path class="st0" d="M686.3,120.5h19.2v13.5h-35.1V72.6h16V120.5z"/>
		<g>
			<path class="st0" d="M2.7,166L2.7,166c0.9-1.2,2.1-2,3.6-2c2.9,0,4.8,2.6,4.8,5.3c0,2.9-1.7,5.5-4.9,5.5c-1.4,0-2.7-0.8-3.5-1.9
				h0v7.4h-2v-16.1h2V166z M9.2,169.4c0-2-1.2-3.7-3.3-3.7c-2,0-3.2,1.8-3.2,3.7c0,1.9,1.2,3.7,3.2,3.7C8,173.1,9.2,171.4,9.2,169.4
				z"/>
			<path class="st0" d="M26.1,166L26.1,166c0.5-1.2,1.5-2,2.9-2c0.6,0,1.1,0.2,1.6,0.5l-0.9,1.8c-0.3-0.3-0.7-0.4-1.2-0.4
				c-2.1,0-2.4,2-2.4,3.6v5h-2v-10.2h2V166z"/>
			<path class="st0" d="M45.3,159.6c0,0.7-0.6,1.3-1.4,1.3c-0.7,0-1.4-0.6-1.4-1.3c0-0.8,0.6-1.4,1.4-1.4
				C44.7,158.3,45.3,158.9,45.3,159.6z M44.9,174.5h-2v-10.2h2V174.5z"/>
			<path class="st0" d="M61,165.7L61,165.7c0.7-1.1,1.9-1.7,3.1-1.7c2.9,0,3.6,1.9,3.6,4.4v6.1h-2v-5.8c0-1.7-0.2-2.9-2.2-2.9
				c-2.5,0-2.5,2.2-2.5,4.1v4.7h-2v-10.2h2V165.7z"/>
			<path class="st0" d="M83.6,174.5h-2v-8.4h-1.1v-1.8h1.1v-3.9h2v3.9h1.9v1.8h-1.9V174.5z"/>
			<path class="st0" d="M122.3,172.9L122.3,172.9c-0.8,1.2-2.1,1.9-3.5,1.9c-3.1,0-4.9-2.6-4.9-5.5c0-2.8,1.9-5.3,4.8-5.3
				c1.5,0,2.7,0.8,3.6,2h0v-10.4h2v18.9h-2V172.9z M122.4,169.4c0-2-1.2-3.7-3.3-3.7c-2,0-3.2,1.8-3.2,3.7c0,1.9,1.2,3.7,3.2,3.7
				C121.2,173.1,122.4,171.4,122.4,169.4z"/>
			<path class="st0" d="M138.9,169.7c0,1.7,1.2,3.4,3.1,3.4c1.5,0,2.3-0.8,3.1-2l1.7,0.9c-1,1.8-2.7,2.8-4.7,2.8c-3.1,0-5-2.4-5-5.4
				c0-3.1,1.7-5.5,5-5.5c3.3,0,4.8,2.4,4.8,5.4v0.3H138.9z M144.7,168.3c-0.2-1.5-1.2-2.6-2.8-2.6c-1.5,0-2.7,1.1-2.9,2.6H144.7z"/>
			<path class="st0" d="M163.4,166.7c-0.2-0.5-0.7-0.9-1.3-0.9c-0.5,0-1.1,0.4-1.1,1c0,0.9,1.2,1.3,2.4,1.8s2.4,1.3,2.4,2.9
				c0,1.9-1.6,3.4-3.5,3.4c-1.5,0-3-0.9-3.5-2.3l1.7-0.8c0.4,0.8,0.9,1.3,1.9,1.3c0.8,0,1.5-0.6,1.5-1.4c0-0.5-0.3-0.8-0.7-1.1
				l-1.9-1c-1.1-0.6-2-1.2-2-2.6c0-1.7,1.4-3,3-3c1.2,0,2.2,0.7,2.8,1.8L163.4,166.7z"/>
			<path class="st0" d="M181.3,159.6c0,0.7-0.6,1.3-1.4,1.3c-0.7,0-1.4-0.6-1.4-1.3c0-0.8,0.6-1.4,1.4-1.4
				C180.7,158.3,181.3,158.9,181.3,159.6z M181,174.5h-2v-10.2h2V174.5z"/>
			<path class="st0" d="M204.6,174.3c0,3.5-1,6-5,6c-2.8,0-4.9-1.7-4.9-4.6h2c0,1.8,1.3,2.9,3.1,2.9c2.4,0,2.9-1.7,2.9-3.8v-1.9h0
				c-0.8,1.2-2,1.9-3.5,1.9c-3.1,0-4.9-2.6-4.9-5.5c0-2.8,1.9-5.3,4.8-5.3c1.5,0,2.7,0.8,3.6,2.1h0v-1.7h2V174.3z M202.7,169.4
				c0-2-1.2-3.7-3.3-3.7c-2,0-3.2,1.8-3.2,3.7c0,1.9,1.2,3.7,3.2,3.7C201.5,173.1,202.7,171.4,202.7,169.4z"/>
			<path class="st0" d="M220,165.7L220,165.7c0.7-1.1,1.9-1.7,3.1-1.7c2.9,0,3.6,1.9,3.6,4.4v6.1h-2v-5.8c0-1.7-0.2-2.9-2.2-2.9
				c-2.5,0-2.5,2.2-2.5,4.1v4.7h-2v-10.2h2V165.7z"/>
		</g>
		<g>
			<path class="st0" d="M552.6,155.6h2V166h0c0.8-1.2,2-2,3.6-2c2.9,0,4.8,2.6,4.8,5.3c0,2.9-1.7,5.5-4.9,5.5
				c-1.4,0-2.7-0.8-3.5-1.9h0v1.6h-2V155.6z M561,169.4c0-2-1.2-3.7-3.3-3.7c-2,0-3.2,1.8-3.2,3.7c0,1.9,1.2,3.7,3.2,3.7
				C559.8,173.1,561,171.4,561,169.4z"/>
			<path class="st0" d="M577.9,166L577.9,166c0.5-1.2,1.5-2,2.9-2c0.6,0,1.1,0.2,1.6,0.5l-0.9,1.8c-0.3-0.3-0.7-0.4-1.2-0.4
				c-2.1,0-2.4,2-2.4,3.6v5h-2v-10.2h2V166z"/>
			<path class="st0" d="M604,174.5h-2v-1.6h0c-0.8,1.2-2,1.9-3.5,1.9c-3.1,0-4.9-2.6-4.9-5.5c0-2.8,1.9-5.3,4.8-5.3
				c1.5,0,2.7,0.8,3.5,2h0v-1.7h2V174.5z M602.1,169.4c0-2-1.2-3.7-3.3-3.7c-2,0-3.2,1.8-3.2,3.7c0,1.9,1.2,3.7,3.2,3.7
				C600.9,173.1,602.1,171.4,602.1,169.4z"/>
			<path class="st0" d="M619.4,165.7L619.4,165.7c0.7-1.1,1.9-1.7,3.1-1.7c2.9,0,3.6,1.9,3.6,4.4v6.1h-2v-5.8c0-1.7-0.2-2.9-2.2-2.9
				c-2.5,0-2.5,2.2-2.5,4.1v4.7h-2v-10.2h2V165.7z"/>
			<path class="st0" d="M647.4,172.9L647.4,172.9c-0.8,1.2-2.1,1.9-3.5,1.9c-3.1,0-4.9-2.6-4.9-5.5c0-2.8,1.9-5.3,4.8-5.3
				c1.5,0,2.7,0.8,3.6,2h0v-10.4h2v18.9h-2V172.9z M647.5,169.4c0-2-1.2-3.7-3.3-3.7c-2,0-3.2,1.8-3.2,3.7c0,1.9,1.2,3.7,3.2,3.7
				C646.3,173.1,647.5,171.4,647.5,169.4z"/>
			<path class="st0" d="M665.5,159.6c0,0.7-0.6,1.3-1.4,1.3c-0.7,0-1.4-0.6-1.4-1.3c0-0.8,0.6-1.4,1.4-1.4
				C664.9,158.3,665.5,158.9,665.5,159.6z M665.2,174.5h-2v-10.2h2V174.5z"/>
			<path class="st0" d="M681.2,165.7L681.2,165.7c0.7-1.1,1.9-1.7,3.1-1.7c2.9,0,3.6,1.9,3.6,4.4v6.1h-2v-5.8c0-1.7-0.2-2.9-2.2-2.9
				c-2.5,0-2.5,2.2-2.5,4.1v4.7h-2v-10.2h2V165.7z"/>
			<path class="st0" d="M711.1,174.3c0,3.5-1,6-5,6c-2.8,0-4.9-1.7-4.9-4.6h2c0,1.8,1.3,2.9,3.1,2.9c2.4,0,2.9-1.7,2.9-3.8v-1.9h0
				c-0.8,1.2-2,1.9-3.5,1.9c-3.1,0-4.9-2.6-4.9-5.5c0-2.8,1.9-5.3,4.8-5.3c1.5,0,2.8,0.8,3.6,2.1h0v-1.7h2V174.3z M709.3,169.4
				c0-2-1.2-3.7-3.3-3.7c-2,0-3.2,1.8-3.2,3.7c0,1.9,1.2,3.7,3.2,3.7C708.1,173.1,709.3,171.4,709.3,169.4z"/>
		</g>
		<path class="st112" d="M26.8,77.9c15.8,0,28.7,12.7,28.7,28.2c0,15.5-12.9,28.2-28.7,28.2H6.7V77.9H26.8 M17.6,125.8h2.5h3.6
			c12.3,0,20.2-7.8,20.2-19.8c0-12-7.9-19.8-20.1-19.8h-3.8h-2.5v2.5v34.4V125.8 M26.8,75.3H4.2v61.5h22.7c17,0,31.2-13.5,31.2-30.7
			S44,75.3,26.8,75.3L26.8,75.3z M20.2,123.3V88.9h3.8c10.3,0,17.5,6.2,17.5,17.2c0,12-8.2,17.2-17.7,17.2H20.2L20.2,123.3z"/>
		<path class="st112" d="M95.2,77.9v56.4H84.3V77.9H95.2 M97.8,75.3h-16v61.5h16V75.3L97.8,75.3z"/>
		<path class="st112" d="M137.9,77.9v45.4v2.5h2.5h16.6v8.4H127V77.9H137.9 M140.5,75.3h-16v61.5h35.1v-13.5h-19.2V75.3L140.5,75.3z
			"/>
		<path class="st112" d="M194.6,77.9v45.4v2.5h2.5h16.6v8.4h-30.1V77.9H194.6 M197.1,75.3h-16v61.5h35.1v-13.5h-19.2V75.3
			L197.1,75.3z"/>
		<path class="st112" d="M268.7,75.9c15.1,0,31.5,11.1,31.5,29.1c0,18.5-12.9,31.4-31.5,31.4s-31.5-12.9-31.5-31.4
			C237.2,87,253.6,75.9,268.7,75.9 M268.7,125.9c11.2,0,19.9-9.2,19.9-20.9c0-10.2-9.1-18.8-19.9-18.8c-10.8,0-19.9,8.6-19.9,18.8
			C248.8,116.8,257.5,125.9,268.7,125.9 M268.7,73.3c-17.7,0-34,13-34,31.6c0,19.9,14.3,33.9,34,33.9c19.7,0,34-14,34-33.9
			C302.7,86.4,286.4,73.3,268.7,73.3L268.7,73.3z M268.7,123.4c-9.5,0-17.4-7.8-17.4-18.3c0-8.5,7.8-16.2,17.4-16.2
			c9.5,0,17.4,7.7,17.4,16.2C286.1,115.6,278.3,123.4,268.7,123.4L268.7,123.4z"/>
		<path class="st112" d="M385.3,77.9v56.4h-12.2l-28.5-36.7l-0.9-1h-1.2h-2.5v2.5v35.1H329V77.9h12.2l28.5,36.6l0.9,1h1.2h2.5v-2.5
			V77.9H385.3 M387.8,75.3h-16v37.6h-0.2l-29.3-37.6h-16v61.5h16V99.2h0.2l29.3,37.7h16V75.3L387.8,75.3z"/>
		<path class="st112" d="M508.6,77.9v56.4h-10.9v-22.7v-2.5h-2.5h-23.1h-2.5v2.5v22.7h-10.9V77.9h10.9v21.2v2.5h2.5h23.1h2.5v-2.5
			V77.9H508.6 M511.2,75.3h-16v23.7h-23.1V75.3h-16v61.5h16v-25.2h23.1v25.2h16V75.3L511.2,75.3z"/>
		<path class="st112" d="M571.7,77.9l21.2,56.4h-11.6l-3.4-9l-0.6-1.7h-1.8h-22h-1.7l-0.6,1.6l-3.6,9.1H536l21.7-56.4H571.7
			 M554.4,116.5h3.5h13.3h3.5l-1.1-3.4l-6.5-19.6l-0.7-1.7h-1.8h-1.8l-0.6,1.7l-6.6,19.6L554.4,116.5 M573.4,75.3H556l-23.7,61.5h17
			l4.2-10.7h22l4,10.7h17L573.4,75.3L573.4,75.3z M557.9,113.9l6.6-19.6h0.2l6.5,19.6H557.9L557.9,113.9z"/>
		<path class="st112" d="M631.3,77.9v45.4v2.5h2.5h16.6v8.4h-30.1V77.9H631.3 M633.8,75.3h-16v61.5H653v-13.5h-19.2V75.3L633.8,75.3
			z"/>
		<path class="st112" d="M687.9,77.9v45.4v2.5h2.5h16.6v8.4h-30.1V77.9H687.9 M690.5,75.3h-16v61.5h35.1v-13.5h-19.2V75.3
			L690.5,75.3z"/>
		<circle class="st112" cx="255.1" cy="170" r="4.6"/>
		<circle class="st112" cx="525.4" cy="170" r="4.6"/>
		<g>
			<path class="st0" d="M337.5,36.9c0.3,0,0.9,0.8,1.2,0.8c3,0.3,5.7-0.3,8.5-0.7c5.8-0.8,16.7-7.7,21.3-9.8c2.9-1.3,5.2-2.7,7.2-4
				c0.2-0.1,2.7-1.5,2.3-2.6c-1-2.4-2.4-5.1-4-7.2c-1.2-1.5-4.3-4.7-5.9-5.8c-4.1-3-6.7-4.5-11.2-3c-2,0.7-4.1,1.2-6.1,1.7
				c-0.9,0.2-0.9,0.2-1.8,0.5l-1.5-0.1l-0.9-1.2l-0.8-0.2c-1.4,0.6-2.4,1-3.8,1.7c-2.1,1-1.9,1.5-4,2.4c-2.7,1.2-4.4,3.2-5.4,6.6
				C330.3,23.8,331.6,29,337.5,36.9z"/>
			<path class="st0" d="M397.3,6.6c-1-1.8-2.3-3.3-4-4C385.2-0.7,367.2,3,367.2,3c0,0-0.9,0.5-1.1,0.6c0.3,0.4,0.7,0.7,1,1.1
				c1.2,1.3,2.3,1.7,3.5,2.8c0.1,0.1,0.8,0.3,1.9,0.2c3-0.3,8.2-0.8,9-0.7c0,0,3.9,1.6,4.7,2.5c0.1,0.1,1.3,1.7,1.4,1.9
				c0.7,1.1-0.3,2.3-1,3.7c-0.6,1.1-1.5,2-2.4,2.9c-0.5,0.5-0.9,1-1.3,1.5c-0.3,0.4-0.7,0.8-1.1,1.2c-0.4,0.4-0.8,0.9-1.2,1.3
				c-1.1,0.9-2.6,1.9-4.2,3c-2,1.3-4.3,2.6-7.2,4c-4.5,2.1-15.5,8.9-21.3,9.8c-2.9,0.4-5.9,0.5-8.9,0.5c-5.1-0.1-5.9,1-12.1,0.2
				c-2.4-0.3-4.8-1.7-5.6-2.7c-0.5-0.6-1.2-2.2-1.3-3c0-0.2-0.1-2.5,0.2-3.3c0.3-0.7,1.3-2,2-2.5c1.6-1.1,3.8-1.8,7.1-3.2
				c1.5-0.6,0.4-2.2,0.6-4c0.1-0.5,0.3-2.4,0.5-2.8c0.7-1.1-0.7,1-0.2-0.4c0.1-0.2,0.1-0.4,0.2-0.6c-0.7,0.4-1.2,0.7-1.8,1.1
				c-6.5,3.8-9.5,4.4-13.2,9c-2.7,3.4-3.9,5.9-4.2,8.3c0,0.1,0.1,3.9,0.5,4.8c0.3,0.7,2.7,2.9,2.7,3c1.2,1,5.7,2.4,7.9,3
				c4.6,1.1,6,0.4,10.4,0.7c23.4-3.5,39.6-1,60.6-26.1c2-1.4,3.3-3.2,4.3-5.4c0.2-0.2,0.3-0.4,0.5-0.6l-0.2,0c0.2-0.6,0.6-1,0.7-1.6
				C398.9,11.1,398.4,8.7,397.3,6.6z"/>
			<ellipse class="st0" cx="392.7" cy="33.1" rx="3.4" ry="3.1"/>
			<path class="st0" d="M332.2,4.6c-1.2,0.9-3,0.8-4-0.3s-0.9-2.7,0.3-3.6c1.2-0.9,3-0.8,4,0.3C333.5,2,333.4,3.6,332.2,4.6z"/>
			<path class="st0" d="M321.7,7.3c-0.6,0.5-1.5,0.4-2-0.2c-0.5-0.5-0.4-1.3,0.2-1.8c0.6-0.5,1.5-0.4,2,0.2
				C322.3,6,322.3,6.8,321.7,7.3z"/>
			<path class="st0" d="M381.6,33.7c0,0,1,3.8-3.5,7.9c-4.5,4.2-14.2,9.3-26,7.6c-2-0.3-3.5-1-5.1-2.3
				C347,46.9,370.9,45.3,381.6,33.7z"/>
		</g>
	</g>
</g>
<g id="Layer_2">
</g>
</svg>
