<?xml version="1.0" encoding="utf-8"?>
<!-- Generator: Adobe Illustrator 19.0.1, SVG Export Plug-In . SVG Version: 6.00 Build 0)  -->
<svg version="1.1" xmlns="http://www.w3.org/2000/svg" xmlns:xlink="http://www.w3.org/1999/xlink" x="0px" y="0px"
	 viewBox="0 0 696.2 171.7" style="enable-background:new 0 0 696.2 171.7;" xml:space="preserve">
<style type="text/css">
	.st0{fill:#FFFFFF;}
	.st1{fill:url(#SVGID_1_);}
	.st2{fill:#666666;}
	.st3{fill:url(#SVGID_2_);}
	.st4{fill:url(#SVGID_3_);}
	.st5{fill:url(#SVGID_4_);}
	.st6{fill:url(#SVGID_5_);}
	.st7{fill:url(#SVGID_6_);}
	.st8{fill:url(#SVGID_7_);}
	.st9{fill:url(#SVGID_8_);}
	.st10{fill:url(#SVGID_9_);}
	.st11{fill:url(#SVGID_10_);}
	.st12{fill:url(#SVGID_11_);}
	.st13{fill:url(#SVGID_12_);}
	.st14{fill:url(#SVGID_13_);}
	.st15{fill:url(#SVGID_14_);}
	.st16{fill:url(#SVGID_15_);}
	.st17{fill:url(#SVGID_16_);}
	.st18{fill:url(#SVGID_17_);}
	.st19{fill:url(#SVGID_18_);}
	.st20{fill:url(#SVGID_19_);}
	.st21{fill:url(#SVGID_20_);}
	.st22{fill:url(#SVGID_21_);}
	.st23{fill:url(#SVGID_22_);}
	.st24{fill:url(#SVGID_23_);}
	.st25{fill:url(#SVGID_24_);}
	.st26{fill:url(#SVGID_25_);}
	.st27{fill:url(#SVGID_26_);}
	.st28{fill:url(#SVGID_27_);}
	.st29{fill:url(#SVGID_28_);}
	.st30{fill:url(#SVGID_29_);}
	.st31{fill:url(#SVGID_30_);}
	.st32{fill:url(#SVGID_31_);}
	.st33{fill:url(#SVGID_32_);}
	.st34{fill:url(#SVGID_33_);}
	.st35{fill:url(#SVGID_34_);}
	.st36{fill:url(#SVGID_35_);}
	.st37{fill:url(#SVGID_36_);}
	.st38{fill:url(#SVGID_37_);}
	.st39{fill:url(#SVGID_38_);}
	.st40{fill:url(#SVGID_39_);}
	.st41{fill:url(#SVGID_40_);}
	.st42{fill:url(#SVGID_41_);}
	.st43{fill:url(#SVGID_42_);}
	.st44{fill:url(#SVGID_43_);}
	.st45{fill:url(#SVGID_44_);}
	.st46{fill:url(#SVGID_45_);}
	.st47{fill:url(#SVGID_46_);}
	.st48{fill:url(#SVGID_47_);}
	.st49{fill:url(#SVGID_48_);}
	.st50{fill:url(#SVGID_49_);}
	.st51{fill:url(#SVGID_50_);}
	.st52{fill:url(#SVGID_51_);}
	.st53{fill:none;}
	.st54{fill:url(#SVGID_52_);}
	.st55{fill:url(#SVGID_53_);}
	.st56{fill:url(#SVGID_54_);}
	.st57{fill:url(#SVGID_55_);}
	.st58{fill:url(#SVGID_56_);}
	.st59{fill:url(#SVGID_57_);}
	.st60{fill:url(#SVGID_58_);}
	.st61{fill:url(#SVGID_59_);}
	.st62{fill:url(#SVGID_60_);}
	.st63{fill:url(#SVGID_61_);}
	.st64{fill:url(#SVGID_62_);}
	.st65{fill:url(#SVGID_63_);}
	.st66{fill:url(#SVGID_64_);}
	.st67{fill:url(#SVGID_65_);}
	.st68{fill:url(#SVGID_66_);}
	.st69{fill:url(#SVGID_67_);}
	.st70{fill:url(#SVGID_68_);}
	.st71{fill:url(#SVGID_69_);}
	.st72{fill:url(#SVGID_70_);}
	.st73{fill:url(#SVGID_71_);}
	.st74{fill:url(#SVGID_72_);}
	.st75{fill:url(#SVGID_73_);}
	.st76{fill:url(#SVGID_74_);}
	.st77{fill:url(#SVGID_75_);}
	.st78{fill:url(#SVGID_76_);}
	.st79{fill:url(#SVGID_77_);}
	.st80{fill:url(#SVGID_78_);}
	.st81{fill:url(#SVGID_79_);}
	.st82{fill:url(#SVGID_80_);}
	.st83{fill:url(#SVGID_81_);}
	.st84{fill:url(#SVGID_82_);}
	.st85{fill:url(#SVGID_83_);}
	.st86{fill:url(#SVGID_84_);}
	.st87{fill:url(#SVGID_85_);}
	.st88{fill:url(#SVGID_86_);}
	.st89{fill:url(#SVGID_87_);}
	.st90{fill:url(#SVGID_88_);}
	.st91{fill:url(#SVGID_89_);}
	.st92{fill:url(#SVGID_90_);}
	.st93{fill:url(#SVGID_91_);}
	.st94{fill:url(#SVGID_92_);}
	.st95{fill:url(#SVGID_93_);}
	.st96{fill:url(#SVGID_94_);}
	.st97{fill:url(#SVGID_95_);}
	.st98{fill:url(#SVGID_96_);}
	.st99{fill:url(#SVGID_97_);}
	.st100{fill:url(#SVGID_98_);}
	.st101{fill:url(#SVGID_99_);}
	.st102{fill:url(#SVGID_100_);}
	.st103{fill:url(#SVGID_101_);}
	.st104{fill:url(#SVGID_102_);}
	.st105{fill:url(#SVGID_103_);}
	.st106{fill:url(#SVGID_104_);}
	.st107{fill:url(#SVGID_105_);}
	.st108{fill:url(#SVGID_106_);}
	.st109{fill:url(#SVGID_107_);}
	.st110{opacity:0.69;fill:#FF9966;}
	.st111{fill:#3399CC;}
	.st112{fill:#FF9966;}
	.st113{opacity:5.000000e-02;}
	.st114{fill:url(#SVGID_110_);}
	.st115{fill:url(#SVGID_111_);}
	.st116{fill:url(#SVGID_112_);}
	.st117{fill:url(#SVGID_113_);}
	.st118{fill:url(#SVGID_114_);}
	.st119{fill:url(#SVGID_115_);}
</style>
<g id="Layer_1">
	<g>
		<g>
			<path class="st0" d="M484.4,127.9c1,0.1,3.3,2.6,4.3,2.7c10.5,1,19.6-0.9,29.5-2.3c20.2-2.9,57.9-26.6,73.7-33.8
				c10-4.6,18.1-9.2,25.1-13.7c0.5-0.3,9.4-5.2,7.9-8.9c-3.5-8.5-8.3-17.7-13.9-24.9c-4.1-5.3-15-16.1-20.4-20
				c-14.1-10.2-23.1-15.6-38.8-10.5c-6.9,2.3-14,4.1-21,5.9c-3.2,0.8-3.1,0.8-6.3,1.7l-5.2-0.2l-3.2-4.1l-2.7-0.6
				c-4.8,2.2-8.5,3.6-13,5.8c-7.1,3.5-6.5,5-13.9,8.3c-9.5,4.1-15.1,11-18.8,22.9C459.4,82.5,464,100.6,484.4,127.9z"/>
			<path class="st0" d="M691.6,22.8c-3.3-6.1-8.1-11.4-13.9-13.8c-27.9-11.5-90.3,1.4-90.3,1.4c-0.1,0-3,1.7-3.7,2.2
				c1.2,1.3,2.3,2.6,3.5,3.8c4.1,4.6,8,5.8,12.3,9.7c0.5,0.5,2.7,1.1,6.6,0.8c10.5-0.9,28.3-2.7,31.1-2.4c0,0,13.5,5.4,16.1,8.8
				c0.3,0.4,4.6,6.1,4.9,6.5c2.3,4-0.9,8-3.6,12.8c-2.2,3.8-5.3,7.1-8.4,10.2c-1.6,1.7-3.2,3.3-4.7,5c-1.1,1.4-2.4,2.7-3.7,4.1
				c-1.4,1.5-2.8,3-4,4.5c-4,3.3-9,6.7-14.5,10.3c-7,4.5-15.1,9.1-25.1,13.7c-15.7,7.2-53.5,30.9-73.7,33.8
				c-9.9,1.4-20.4,1.8-31,1.7c-17.8-0.3-20.5,3.4-41.9,0.8c-8.2-1-16.6-5.9-19.4-9.4c-1.8-2.2-4.2-7.6-4.5-10.4
				c-0.1-0.6-0.2-8.7,0.8-11.3c1-2.6,4.6-7,6.8-8.6c5.4-4,13-6.3,24.5-11c5.3-2.2,1.2-7.5,2-14c0.2-1.7,1-8.2,1.9-9.6
				c2.3-3.9-2.5,3.5-0.7-1.5c0.2-0.6,0.5-1.3,0.7-2c-2.3,1.3-4.2,2.6-6.4,3.8c-22.6,13.2-32.8,15.3-45.6,31.2
				c-9.5,11.8-13.5,20.4-14.6,28.9c-0.1,0.5,0.3,13.5,1.7,16.8c1.1,2.6,9.2,10.2,9.3,10.2c4.2,3.3,19.8,8.5,27.2,10.3
				c15.8,4,20.9,1.3,36.2,2.5c80.9-12,137.1-3.3,209.7-90.4c6.9-4.8,11.5-11.1,14.8-18.7c0.5-0.7,1.1-1.3,1.6-2.1l-0.7,0
				c0.7-1.9,1.9-3.4,2.5-5.5C697.3,38.5,695.5,30,691.6,22.8z"/>
			<ellipse class="st0" cx="675.8" cy="114.5" rx="11.9" ry="10.8"/>
			<path class="st0" d="M466,15.8c-4.1,3.2-10.3,2.7-13.8-1.1c-3.5-3.8-2.9-9.4,1.2-12.6s10.3-2.7,13.8,1.1S470.2,12.6,466,15.8z"/>
			<path class="st0" d="M429.6,25.1c-2.1,1.6-5.1,1.3-6.9-0.5s-1.5-4.7,0.6-6.3c2.1-1.6,5.1-1.3,6.9,0.5S431.7,23.5,429.6,25.1z"/>
			<path class="st0" d="M637.1,116.8c0,0,3.5,13.2-12.1,27.4c-15.7,14.4-49,32.1-90.1,26.3c-7.1-1-12-3.6-17.7-8.1
				C517.3,162.5,600.2,157,637.1,116.8z"/>
		</g>
		<path class="st0" d="M134.5,169c-10.1,0.9-20.1,2.4-30.2,2.6c-9,0.1-18.1-1.2-27.1-1.8c-4.7-0.3-9.7,0.4-14.2-0.8
			c-12.3-3.1-25-5.4-36.3-10.8c-9.6-4.6-18.6-11.9-24.4-21.4c-2-3.3-2.3-7.9-2.3-11.9C0,104.6,9.6,89.4,24.8,77
			c7.7-6.3,14.6-13.8,22.9-19c13.7-8.5,25.6-20.1,42.3-23.5c5.6-1.1,10.1-6.6,15.6-9c6.6-2.9,13.5-5.2,20.5-6.8
			c10.8-2.5,21.7-4.3,32.5-6.2c6.4-1.1,12.9-1.7,19.4-2.7c9-1.5,17.9-3.5,26.9-4.7c25.3-3.4,48.9,2.3,71.3,13.7
			c8.6,4.4,19.9,22.6,18.8,33.4c-1.7,17.3-8.3,30.8-21.9,41.6c-6.8,5.4-12.3,12.5-18.8,18.4c-4.3,3.9-9.4,7-14.3,10.3
			c-17.7,12.1-34.8,25.1-53.3,35.6c-9.6,5.4-21.7,6.5-32.8,9c-6.4,1.4-13,1.9-19.5,2.7C134.6,169.5,134.5,169.2,134.5,169z
			 M213.9,135.5c-0.2-0.9-0.6-1.7-0.4-2.4c1.8-9.4,3.7-18.7,5.5-28.1c0.6-3,1.7-6.3,1-9.1c-4.2-18.1-10.9-35-23.6-49.1
			c-3-3.4-5.7-7.2-7.8-11.2c-3.7-7.4-9.5-11.7-17.2-14c-2-0.6-3.8-2.1-5.9-3.3c-0.5,0.8-1,3.2-2.3,3.7c-4,1.6-8.3,2.5-12.5,3.6
			c-4.6,1.2-9.3,2.2-13.9,3.5c-2.6,0.7-5,1.9-7.5,2.8c-0.3-0.6-0.6-1.2-0.8-1.8c3.2-1.8,6.4-3.5,9.6-5.3c0-0.7,0-1.4,0-2.2
			c-2.1-0.5-4.6-2.1-6.2-1.4c-11.6,5.2-23.1,10.7-34.4,16.5c-3.7,1.8-8,3.7-10.1,6.9c-4.7,6.9-9.7,14.2-12,22.1
			c-4.3,15.1-8.6,30.9,1.6,45.8c0.5,0.7,0.8,1.6,0.9,2.5c1.2,9.3,5,17,11.1,24.5c6.9,8.5,14.5,16.2,24,20.4
			c14.4,6.3,29.7,9.7,45,1.4c1.1-0.6,2.8-0.3,4.2-0.4c8.6-0.4,16.9-2,24.9-5.6c-2.3-1.4-3.9-2.4-5.6-3.3c1.6-1.6,2.9-3.6,4.8-4.6
			c4-2.1,8.2-3.7,12.4-5.5C203.6,139.8,208.7,137.7,213.9,135.5z M217.6,131.6c0.5,0.5,1,1,1.5,1.5c3.6-2.6,7.3-5,10.8-7.7
			c6.4-5,12.8-10.1,19.1-15.3c7.9-6.6,16-13.1,23.3-20.4c5.7-5.6,11.7-11.7,15-18.7c4.2-9.1,5.3-19.3,2.5-29.6
			c-2.8-10.2-9.4-17.1-18.3-21c-10.1-4.4-20.8-7.7-31.5-10.1c-7.9-1.8-16.2-2.5-24.3-2.1c-9.6,0.5-19.2,2.4-28.7,4.3
			c-3.2,0.6-6,3.1-9,4.8c1.7,2.5,3.3,5.1,5.3,7.5c2.6,3.3,6.2,6,8.1,9.6c2.2,4,4.1,5.4,9,5.2c8.9-0.4,18.3-2.4,26.2,4.7
			c2.4,2.2,6.4,3.2,9.7,3.5c11,1,15.6,8,10.4,17.6c-2.5,4.6-6.8,8.3-10.2,12.5c-4.3,5.4-11.3,10.6-12.1,16.5
			c-1.6,11.3-1.4,22.8-6.6,33.4C217.4,128.8,217.7,130.3,217.6,131.6z M79.1,45.9c-0.6-0.4-1.2-0.7-1.8-1.1
			c-9.9,9-23.2,12.2-32.6,22.6c-8,8.9-19.3,14.5-26.4,24.7c-6.5,9.2-12.7,18.5-13.4,29.9c-0.3,4.3,0.8,10.1,3.6,12.9
			c6.2,6.4,13.2,12.7,21.1,16.8c12,6.2,24.3,12.1,38.5,12.7c8.6,0.4,17.1,2.5,25.7,3.1c7,0.5,14,0.1,21.7,0.1
			c-12.4-9.6-23.6-18.4-35-27c-1.5-1.1-3.5-1.9-5.4-2c-12.4-0.8-23.1-5.4-32-14c-2-1.9-5.2-4.8-4.9-6.6c1.6-7.8,3.7-15.7,6.9-23
			c1.2-2.7,5.8-3.9,8.9-5.8c1.1-0.7,2.3-1.4,3.2-2.3c6.8-7.8,14.6-14.8,16.8-25.7c0.8-3.9,3.6-7.4,5.2-11.2
			C79.6,48.8,79.1,47.2,79.1,45.9z"/>
	</g>
</g>
<g id="Layer_2">
</g>
</svg>
