<?xml version="1.0" encoding="utf-8"?>
<!-- Generator: Adobe Illustrator 19.0.1, SVG Export Plug-In . SVG Version: 6.00 Build 0)  -->
<svg version="1.1" xmlns="http://www.w3.org/2000/svg" xmlns:xlink="http://www.w3.org/1999/xlink" x="0px" y="0px"
	 viewBox="0 0 702.7 243.1" style="enable-background:new 0 0 702.7 243.1;" xml:space="preserve">
<style type="text/css">
	.st0{fill:#FFFFFF;}
	.st1{fill:url(#SVGID_1_);}
	.st2{fill:#666666;}
	.st3{fill:url(#SVGID_2_);}
	.st4{fill:url(#SVGID_3_);}
	.st5{fill:url(#SVGID_4_);}
	.st6{fill:url(#SVGID_5_);}
	.st7{fill:url(#SVGID_6_);}
	.st8{fill:url(#SVGID_7_);}
	.st9{fill:url(#SVGID_8_);}
	.st10{fill:url(#SVGID_9_);}
	.st11{fill:url(#SVGID_10_);}
	.st12{fill:url(#SVGID_11_);}
	.st13{fill:url(#SVGID_12_);}
	.st14{fill:url(#SVGID_13_);}
	.st15{fill:url(#SVGID_14_);}
	.st16{fill:url(#SVGID_15_);}
	.st17{fill:url(#SVGID_16_);}
	.st18{fill:url(#SVGID_17_);}
	.st19{fill:url(#SVGID_18_);}
	.st20{fill:url(#SVGID_19_);}
	.st21{fill:url(#SVGID_20_);}
	.st22{fill:url(#SVGID_21_);}
	.st23{fill:url(#SVGID_22_);}
	.st24{fill:url(#SVGID_23_);}
	.st25{fill:url(#SVGID_24_);}
	.st26{fill:url(#SVGID_25_);}
	.st27{fill:url(#SVGID_26_);}
	.st28{fill:url(#SVGID_27_);}
	.st29{fill:url(#SVGID_28_);}
	.st30{fill:url(#SVGID_29_);}
	.st31{fill:url(#SVGID_30_);}
	.st32{fill:url(#SVGID_31_);}
	.st33{fill:url(#SVGID_32_);}
	.st34{fill:url(#SVGID_33_);}
	.st35{fill:url(#SVGID_34_);}
	.st36{fill:url(#SVGID_35_);}
	.st37{fill:url(#SVGID_36_);}
	.st38{fill:url(#SVGID_37_);}
	.st39{fill:url(#SVGID_38_);}
	.st40{fill:url(#SVGID_39_);}
	.st41{fill:url(#SVGID_40_);}
	.st42{fill:url(#SVGID_41_);}
	.st43{fill:url(#SVGID_42_);}
	.st44{fill:url(#SVGID_43_);}
	.st45{fill:url(#SVGID_44_);}
	.st46{fill:url(#SVGID_45_);}
	.st47{fill:url(#SVGID_46_);}
	.st48{fill:url(#SVGID_47_);}
	.st49{fill:url(#SVGID_48_);}
	.st50{fill:url(#SVGID_49_);}
	.st51{fill:url(#SVGID_50_);}
	.st52{fill:url(#SVGID_51_);}
	.st53{fill:none;}
	.st54{fill:url(#SVGID_52_);}
	.st55{fill:url(#SVGID_53_);}
	.st56{fill:url(#SVGID_54_);}
	.st57{fill:url(#SVGID_55_);}
	.st58{fill:url(#SVGID_56_);}
	.st59{fill:url(#SVGID_57_);}
	.st60{fill:url(#SVGID_58_);}
	.st61{fill:url(#SVGID_59_);}
	.st62{fill:url(#SVGID_60_);}
	.st63{fill:url(#SVGID_61_);}
	.st64{fill:url(#SVGID_62_);}
	.st65{fill:url(#SVGID_63_);}
	.st66{fill:url(#SVGID_64_);}
	.st67{fill:url(#SVGID_65_);}
	.st68{fill:url(#SVGID_66_);}
	.st69{fill:url(#SVGID_67_);}
	.st70{fill:url(#SVGID_68_);}
	.st71{fill:url(#SVGID_69_);}
	.st72{fill:url(#SVGID_70_);}
	.st73{fill:url(#SVGID_71_);}
	.st74{fill:url(#SVGID_72_);}
	.st75{fill:url(#SVGID_73_);}
	.st76{fill:url(#SVGID_74_);}
	.st77{fill:url(#SVGID_75_);}
	.st78{fill:url(#SVGID_76_);}
	.st79{fill:url(#SVGID_77_);}
	.st80{fill:url(#SVGID_78_);}
	.st81{fill:url(#SVGID_79_);}
	.st82{fill:url(#SVGID_80_);}
	.st83{fill:url(#SVGID_81_);}
	.st84{fill:url(#SVGID_82_);}
	.st85{fill:url(#SVGID_83_);}
	.st86{fill:url(#SVGID_84_);}
	.st87{fill:url(#SVGID_85_);}
	.st88{fill:url(#SVGID_86_);}
	.st89{fill:url(#SVGID_87_);}
	.st90{fill:url(#SVGID_88_);}
	.st91{fill:url(#SVGID_89_);}
	.st92{fill:url(#SVGID_90_);}
	.st93{fill:url(#SVGID_91_);}
	.st94{fill:url(#SVGID_92_);}
	.st95{fill:url(#SVGID_93_);}
	.st96{fill:url(#SVGID_94_);}
	.st97{fill:url(#SVGID_95_);}
	.st98{fill:url(#SVGID_96_);}
	.st99{fill:url(#SVGID_97_);}
	.st100{fill:url(#SVGID_98_);}
	.st101{fill:url(#SVGID_99_);}
	.st102{fill:url(#SVGID_100_);}
	.st103{fill:url(#SVGID_101_);}
	.st104{fill:url(#SVGID_102_);}
	.st105{fill:url(#SVGID_103_);}
	.st106{fill:url(#SVGID_104_);}
	.st107{fill:url(#SVGID_105_);}
	.st108{fill:url(#SVGID_106_);}
	.st109{fill:url(#SVGID_107_);}
	.st110{opacity:0.69;fill:#FF9966;}
	.st111{fill:#3399CC;}
	.st112{fill:#FF9966;}
	.st113{opacity:5.000000e-02;}
	.st114{fill:url(#SVGID_110_);}
	.st115{fill:url(#SVGID_111_);}
	.st116{fill:url(#SVGID_112_);}
	.st117{fill:url(#SVGID_113_);}
	.st118{fill:url(#SVGID_114_);}
	.st119{fill:url(#SVGID_115_);}
</style>
<g id="Layer_1">
	<g>
		<g>
			<path class="st111" d="M3.6,2.9v1.9h3.3v2.5H3.6V12h-3V0.4h6.6v2.5H3.6z"/>
			<path class="st111" d="M21.7,0.4v6.5c0,1.5-0.1,3-1.2,4.1c-1,1-2.5,1.3-3.8,1.3c-1.4,0-2.9-0.3-3.8-1.3c-1.2-1.1-1.2-2.6-1.2-4.1
				V0.4h3v6.1c0,1.5,0.1,3.1,2,3.1s2-1.6,2-3.1V0.4H21.7z"/>
			<path class="st111" d="M31,12h-3v-9h-2.5V0.4h8v2.5H31V12z"/>
			<path class="st111" d="M47.4,0.4v6.5c0,1.5-0.1,3-1.2,4.1c-1,1-2.5,1.3-3.8,1.3c-1.4,0-2.9-0.3-3.8-1.3c-1.2-1.1-1.2-2.6-1.2-4.1
				V0.4h3v6.1c0,1.5,0.1,3.1,2,3.1s2-1.6,2-3.1V0.4H47.4z"/>
			<path class="st111" d="M61.7,12h-3.7l-2.8-4.5h0V12h-3V0.4h4.5c2.3,0,4,1.1,4,3.6c0,1.6-0.9,3-2.5,3.3L61.7,12z M55.1,5.6h0.3
				c1,0,2.1-0.2,2.1-1.4s-1.1-1.4-2.1-1.4h-0.3V5.6z"/>
			<path class="st111" d="M68.2,9.9l-0.8,2h-3.2l4.5-11.6h3.3L76.3,12h-3.2l-0.8-2H68.2z M70.3,4L70.3,4L69,7.6h2.5L70.3,4z"/>
			<path class="st111" d="M88,12V0.4h4.3c2.1,0,3.4,0.8,3.4,3c0,1-0.3,1.9-1.3,2.4v0c1.7,0.2,2.4,1.3,2.4,2.9c0,2.4-2.1,3.2-4.2,3.2
				H88z M91,4.9h0.3c0.8,0,1.6-0.1,1.6-1.1c0-1.1-0.9-1.1-1.8-1.1H91V4.9z M91,9.7h0.4c0.9,0,2.4,0,2.4-1.2c0-1.4-1.5-1.3-2.5-1.3
				H91V9.7z"/>
			<path class="st111" d="M113.4,6c0,3.7-2.7,6.4-6.4,6.4s-6.4-2.6-6.4-6.4c0-3.5,3.1-6,6.4-6S113.4,2.5,113.4,6z M103.7,6
				c0,2,1.5,3.5,3.3,3.5s3.3-1.5,3.3-3.5c0-1.6-1.5-3.1-3.3-3.1S103.7,4.4,103.7,6z"/>
			<path class="st111" d="M120.6,9.4h3.6V12h-6.6V0.4h3V9.4z"/>
			<path class="st111" d="M127.9,0.4h4.3c3.2,0,5.9,2.5,5.9,5.8c0,3.3-2.7,5.8-5.9,5.8h-4.3V0.4z M130.9,9.4h0.7
				c1.8,0,3.3-1,3.3-3.2c0-2.1-1.4-3.2-3.3-3.2h-0.7V9.4z"/>
			<path class="st112" d="M0.6,29.5h4.3c3.2,0,5.9,2.5,5.9,5.8c0,3.3-2.7,5.8-5.9,5.8H0.6V29.5z M3.6,38.5h0.7c1.8,0,3.3-1,3.3-3.2
				c0-2.1-1.4-3.2-3.3-3.2H3.6V38.5z"/>
			<path class="st112" d="M15.1,30.2c0,0.9-0.7,1.6-1.6,1.6c-0.9,0-1.6-0.7-1.6-1.6c0-0.9,0.7-1.6,1.6-1.6
				C14.4,28.6,15.1,29.3,15.1,30.2z M14.9,41.1h-2.8v-7.9h2.8V41.1z"/>
			<path class="st112" d="M19.5,41.1h-2.8V28.3h2.8V41.1z"/>
			<path class="st112" d="M24.2,41.1h-2.8V28.3h2.8V41.1z"/>
			<path class="st112" d="M34.9,37.1c0,2.7-2.2,4.2-4.7,4.2c-2.5,0-4.7-1.5-4.7-4.2s2.2-4.2,4.7-4.2S34.9,34.5,34.9,37.1z
				 M28.4,37.1c0,1,0.7,1.8,1.8,1.8c1.1,0,1.8-0.8,1.8-1.8c0-1-0.7-1.8-1.8-1.8C29,35.4,28.4,36.2,28.4,37.1z"/>
			<path class="st112" d="M39,34.2L39,34.2c0.7-1,1.5-1.3,2.5-1.3c2.1,0,3,1.3,3,3.3v4.9h-2.8v-3.8c0-0.8,0.1-2.1-1.3-2.1
				C39.3,35.2,39,36,39,37v4.1h-2.8v-7.9H39V34.2z"/>
			<path class="st112" d="M54.5,30.2c0,0.9-0.7,1.6-1.6,1.6c-0.9,0-1.6-0.7-1.6-1.6c0-0.9,0.7-1.6,1.6-1.6
				C53.8,28.6,54.5,29.3,54.5,30.2z M54.4,41.1h-2.8v-7.9h2.8V41.1z"/>
			<path class="st112" d="M61.4,35.2c-0.4-0.2-1-0.4-1.5-0.4c-0.3,0-0.9,0.1-0.9,0.5c0,0.5,0.9,0.6,1.3,0.7c1.3,0.3,2.3,0.9,2.3,2.3
				c0,2.1-1.9,2.9-3.7,2.9c-1.1,0-2.2-0.3-3.2-0.9l1-2c0.6,0.4,1.5,0.8,2.2,0.8c0.4,0,0.9-0.2,0.9-0.6c0-0.6-0.9-0.6-1.8-0.9
				c-0.9-0.2-1.8-0.7-1.8-2.1c0-1.9,1.8-2.8,3.5-2.8c0.9,0,1.8,0.1,2.6,0.5L61.4,35.2z"/>
			<path class="st112" d="M78,41.1h-2.8v-0.9h0c-0.5,0.8-1.5,1.1-2.4,1.1c-2.3,0-4-1.9-4-4.2s1.6-4.2,3.9-4.2c0.9,0,1.9,0.3,2.4,1
				v-0.8H78V41.1z M71.7,37.1c0,1,0.7,1.8,1.8,1.8c1.1,0,1.8-0.8,1.8-1.8c0-1-0.7-1.8-1.8-1.8C72.3,35.4,71.7,36.2,71.7,37.1z"/>
			<path class="st112" d="M88.1,41.1h-2.8v-5.6h-0.9v-2.3h0.9v-2.4h2.8v2.4h1.6v2.3h-1.6V41.1z"/>
			<path class="st112" d="M99.5,37.1c0,2.7-2.2,4.2-4.7,4.2c-2.5,0-4.7-1.5-4.7-4.2s2.2-4.2,4.7-4.2S99.5,34.5,99.5,37.1z M93,37.1
				c0,1,0.7,1.8,1.8,1.8c1.1,0,1.8-0.8,1.8-1.8c0-1-0.7-1.8-1.8-1.8C93.6,35.4,93,36.2,93,37.1z"/>
			<path class="st112" d="M103.8,41.1H101v-5.6h-0.9v-2.3h0.9v-2.4h2.8v2.4h1.6v2.3h-1.6V41.1z"/>
			<path class="st112" d="M114.9,41.1h-2.8v-0.9h0c-0.5,0.8-1.5,1.1-2.4,1.1c-2.3,0-4-1.9-4-4.2s1.6-4.2,3.9-4.2
				c0.9,0,1.9,0.3,2.4,1v-0.8h2.8V41.1z M108.6,37.1c0,1,0.7,1.8,1.8,1.8c1.1,0,1.8-0.8,1.8-1.8c0-1-0.7-1.8-1.8-1.8
				C109.3,35.4,108.6,36.2,108.6,37.1z"/>
			<path class="st112" d="M119.5,41.1h-2.8V28.3h2.8V41.1z"/>
			<path class="st112" d="M132.6,40.2L132.6,40.2c-0.5,0.8-1.5,1.1-2.4,1.1c-2.3,0-4-1.9-4-4.2s1.6-4.2,3.9-4.2c0.9,0,1.9,0.3,2.4,1
				v-5.6h2.8v12.7h-2.8V40.2z M129.1,37.1c0,1,0.7,1.8,1.8,1.8c1.1,0,1.8-0.8,1.8-1.8c0-1-0.7-1.8-1.8-1.8
				C129.7,35.4,129.1,36.2,129.1,37.1z"/>
			<path class="st112" d="M145.2,37.6h-5.9c0,1.1,0.6,1.8,1.8,1.8c0.6,0,1-0.2,1.3-0.7h2.7c-0.4,1.9-2.2,2.7-4,2.7
				c-2.6,0-4.6-1.5-4.6-4.2c0-2.6,1.8-4.2,4.4-4.2c2.7,0,4.3,1.7,4.3,4.4V37.6z M142.6,36c-0.1-0.8-0.8-1.2-1.6-1.2
				c-0.8,0-1.5,0.4-1.7,1.2H142.6z"/>
			<path class="st112" d="M151.7,35.2c-0.4-0.2-1-0.4-1.5-0.4c-0.3,0-0.9,0.1-0.9,0.5c0,0.5,0.9,0.6,1.3,0.7
				c1.3,0.3,2.3,0.9,2.3,2.3c0,2.1-1.9,2.9-3.7,2.9c-1.1,0-2.2-0.3-3.2-0.9l1-2c0.6,0.4,1.5,0.8,2.2,0.8c0.4,0,0.9-0.2,0.9-0.6
				c0-0.6-0.9-0.6-1.8-0.9c-0.9-0.2-1.8-0.7-1.8-2.1c0-1.9,1.8-2.8,3.5-2.8c0.9,0,1.8,0.1,2.6,0.5L151.7,35.2z"/>
			<path class="st112" d="M157.3,30.2c0,0.9-0.7,1.6-1.6,1.6c-0.9,0-1.6-0.7-1.6-1.6c0-0.9,0.7-1.6,1.6-1.6
				C156.6,28.6,157.3,29.3,157.3,30.2z M157.1,41.1h-2.8v-7.9h2.8V41.1z"/>
			<path class="st112" d="M167.6,40.3c0,3.3-1.7,4.7-4.6,4.7c-1.8,0-4.2-0.9-4.5-3h3.1c0.1,0.3,0.3,0.5,0.5,0.6s0.5,0.2,0.8,0.2
				c1.5,0,1.8-1,1.8-2.3v-0.4c-0.7,0.7-1.5,1.1-2.5,1.1c-2.3,0-3.9-1.8-3.9-4c0-2.3,1.6-4.3,4-4.3c0.9,0,1.8,0.3,2.3,1.1h0v-0.8h2.8
				V40.3z M161.3,37.1c0,1,0.7,1.8,1.8,1.8c1.1,0,1.8-0.8,1.8-1.8c0-1-0.7-1.8-1.8-1.8C162,35.3,161.3,36.1,161.3,37.1z"/>
			<path class="st112" d="M172.2,34.2L172.2,34.2c0.7-1,1.5-1.3,2.5-1.3c2.1,0,3,1.3,3,3.3v4.9h-2.8v-3.8c0-0.8,0.1-2.1-1.3-2.1
				c-1.1,0-1.5,0.8-1.5,1.8v4.1h-2.8v-7.9h2.8V34.2z"/>
			<path class="st112" d="M187.6,34.2L187.6,34.2c0.7-1,1.5-1.3,2.5-1.3c2.1,0,3,1.3,3,3.3v4.9h-2.8v-3.8c0-0.8,0.1-2.1-1.3-2.1
				c-1.1,0-1.5,0.8-1.5,1.8v4.1h-2.8v-7.9h2.8V34.2z"/>
			<path class="st112" d="M203,37.6h-5.9c0,1.1,0.6,1.8,1.8,1.8c0.6,0,1-0.2,1.3-0.7h2.7c-0.4,1.9-2.2,2.7-4,2.7
				c-2.6,0-4.6-1.5-4.6-4.2c0-2.6,1.8-4.2,4.4-4.2c2.7,0,4.3,1.7,4.3,4.4V37.6z M200.4,36c-0.1-0.8-0.8-1.2-1.6-1.2
				c-0.8,0-1.5,0.4-1.7,1.2H200.4z"/>
			<path class="st112" d="M207.1,34.5L207.1,34.5c0.6-1,1.5-1.4,2.6-1.4h0.5v2.7c-0.4-0.2-0.8-0.3-1.2-0.3c-1.6,0-1.9,1-1.9,2.4v3.2
				h-2.8v-7.9h2.8V34.5z"/>
			<path class="st112" d="M217.2,40.2L217.2,40.2c-0.5,0.8-1.5,1.1-2.4,1.1c-2.3,0-4-1.9-4-4.2s1.6-4.2,3.9-4.2c0.9,0,1.9,0.3,2.4,1
				v-5.6h2.8v12.7h-2.8V40.2z M213.7,37.1c0,1,0.7,1.8,1.8,1.8c1.1,0,1.8-0.8,1.8-1.8c0-1-0.7-1.8-1.8-1.8
				C214.3,35.4,213.7,36.2,213.7,37.1z"/>
			<path class="st112" d="M225.2,39.6c0,1-0.8,1.8-1.8,1.8c-1,0-1.8-0.8-1.8-1.8c0-1,0.8-1.8,1.8-1.8
				C224.4,37.8,225.2,38.6,225.2,39.6z"/>
			<path class="st112" d="M239.6,34v-4.5h3v11.6h-3v-4.7h-4.3v4.7h-3V29.5h3V34H239.6z"/>
			<path class="st112" d="M252.6,37.6h-5.9c0,1.1,0.6,1.8,1.8,1.8c0.6,0,1-0.2,1.3-0.7h2.7c-0.4,1.9-2.2,2.7-4,2.7
				c-2.6,0-4.6-1.5-4.6-4.2c0-2.6,1.8-4.2,4.4-4.2c2.7,0,4.3,1.7,4.3,4.4V37.6z M250,36c-0.1-0.8-0.8-1.2-1.6-1.2
				c-0.8,0-1.5,0.4-1.7,1.2H250z"/>
			<path class="st112" d="M264.9,35.8c-0.4-0.3-0.9-0.6-1.4-0.6c-1.1,0-1.9,0.8-1.9,1.9c0,1.1,0.8,1.9,2,1.9c0.5,0,1-0.2,1.4-0.5
				v2.4c-0.6,0.3-1.3,0.4-2,0.4c-2.3,0-4.3-1.7-4.3-4.1c0-2.5,1.9-4.3,4.4-4.3c0.6,0,1.3,0.2,1.8,0.5V35.8z"/>
			<path class="st112" d="M275.2,41.1h-2.8v-0.9h0c-0.5,0.8-1.5,1.1-2.4,1.1c-2.3,0-4-1.9-4-4.2s1.6-4.2,3.9-4.2
				c0.9,0,1.9,0.3,2.4,1v-0.8h2.8V41.1z M268.9,37.1c0,1,0.7,1.8,1.8,1.8s1.8-0.8,1.8-1.8c0-1-0.7-1.8-1.8-1.8
				S268.9,36.2,268.9,37.1z"/>
			<path class="st112" d="M279.8,34.2L279.8,34.2c0.7-1,1.5-1.3,2.5-1.3c2.1,0,3,1.3,3,3.3v4.9h-2.8v-3.8c0-0.8,0.1-2.1-1.3-2.1
				c-1.1,0-1.5,0.8-1.5,1.8v4.1h-2.8v-7.9h2.8V34.2z"/>
			<path class="st112" d="M291.7,29.5l-2.8,5.1h-1.8l2-5.1H291.7z"/>
			<path class="st112" d="M295.4,41.1h-2.8v-5.6h-0.9v-2.3h0.9v-2.4h2.8v2.4h1.6v2.3h-1.6V41.1z"/>
			<path class="st112" d="M307,37.5l2-4.3h1.7l2,4.3l2-4.3h3.1l-4.1,7.9h-1.8l-1.9-4.3l-1.9,4.3H306l-4.1-7.9h3.1L307,37.5z"/>
			<path class="st112" d="M327,41.1h-2.8v-0.9h0c-0.5,0.8-1.5,1.1-2.4,1.1c-2.3,0-4-1.9-4-4.2s1.6-4.2,3.9-4.2c0.9,0,1.9,0.3,2.4,1
				v-0.8h2.8V41.1z M320.7,37.1c0,1,0.7,1.8,1.8,1.8s1.8-0.8,1.8-1.8c0-1-0.7-1.8-1.8-1.8S320.7,36.2,320.7,37.1z"/>
			<path class="st112" d="M331.6,41.1h-2.8V28.3h2.8V41.1z"/>
			<path class="st112" d="M336.3,36l2.9-2.8h3.8l-3.9,3.6l4.2,4.2h-3.9l-3.1-3.2v3.2h-2.8V28.3h2.8V36z"/>
			<path class="st112" d="M352.3,41.1h-2.8v-5.6h-0.9v-2.3h0.9v-2.4h2.8v2.4h1.6v2.3h-1.6V41.1z"/>
			<path class="st112" d="M357.6,28.3v5.9h0c0.6-0.9,1.4-1.3,2.5-1.3c2,0,3,1.3,3,3.3v4.8h-2.8v-4c0-0.9-0.1-1.9-1.3-1.9
				c-1.1,0-1.5,1-1.5,1.9v4h-2.8V28.3H357.6z"/>
			<path class="st112" d="M367.8,34.5L367.8,34.5c0.6-1,1.5-1.4,2.6-1.4h0.5v2.7c-0.4-0.2-0.8-0.3-1.2-0.3c-1.6,0-1.9,1-1.9,2.4v3.2
				H365v-7.9h2.8V34.5z"/>
			<path class="st112" d="M380.5,37.1c0,2.7-2.2,4.2-4.7,4.2c-2.5,0-4.7-1.5-4.7-4.2s2.2-4.2,4.7-4.2S380.5,34.5,380.5,37.1z
				 M374,37.1c0,1,0.7,1.8,1.8,1.8s1.8-0.8,1.8-1.8c0-1-0.7-1.8-1.8-1.8S374,36.2,374,37.1z"/>
			<path class="st112" d="M384.5,33.2v4.2c0,1,0.2,1.7,1.4,1.7s1.4-0.7,1.4-1.7v-4.2h2.8v4.7c0,2.6-1.8,3.4-4.2,3.4
				s-4.2-0.8-4.2-3.4v-4.7H384.5z"/>
			<path class="st112" d="M400.6,40.3c0,3.3-1.7,4.7-4.6,4.7c-1.8,0-4.2-0.9-4.5-3h3.1c0.1,0.3,0.3,0.5,0.5,0.6
				c0.2,0.1,0.5,0.2,0.8,0.2c1.5,0,1.8-1,1.8-2.3v-0.4c-0.7,0.7-1.5,1.1-2.5,1.1c-2.3,0-3.9-1.8-3.9-4c0-2.3,1.6-4.3,4-4.3
				c0.9,0,1.8,0.3,2.3,1.1h0v-0.8h2.8V40.3z M394.3,37.1c0,1,0.7,1.8,1.8,1.8s1.8-0.8,1.8-1.8c0-1-0.7-1.8-1.8-1.8
				S394.3,36.1,394.3,37.1z"/>
			<path class="st112" d="M405.1,28.3v5.9h0c0.6-0.9,1.4-1.3,2.5-1.3c2,0,3,1.3,3,3.3v4.8h-2.8v-4c0-0.9-0.1-1.9-1.3-1.9
				c-1.1,0-1.5,1-1.5,1.9v4h-2.8V28.3H405.1z"/>
			<path class="st112" d="M426.3,41.1h-2.8v-0.9h0c-0.5,0.8-1.5,1.1-2.4,1.1c-2.3,0-4-1.9-4-4.2s1.6-4.2,3.9-4.2
				c0.9,0,1.9,0.3,2.4,1v-0.8h2.8V41.1z M420,37.1c0,1,0.7,1.8,1.8,1.8s1.8-0.8,1.8-1.8c0-1-0.7-1.8-1.8-1.8S420,36.2,420,37.1z"/>
			<path class="st112" d="M5.8,59.8c-0.4-0.2-1-0.4-1.5-0.4c-0.3,0-0.9,0.1-0.9,0.5c0,0.5,0.9,0.6,1.3,0.7c1.3,0.3,2.3,0.9,2.3,2.3
				c0,2.1-1.9,2.9-3.7,2.9C2.1,65.9,1,65.6,0,65l1-2c0.6,0.4,1.5,0.8,2.2,0.8c0.4,0,0.9-0.2,0.9-0.6c0-0.6-0.9-0.6-1.8-0.9
				c-0.9-0.2-1.8-0.7-1.8-2.1c0-1.9,1.8-2.8,3.5-2.8c0.9,0,1.8,0.1,2.6,0.5L5.8,59.8z"/>
			<path class="st112" d="M11.2,52.9v5.9h0c0.6-0.9,1.4-1.3,2.5-1.3c2,0,3,1.3,3,3.3v4.8H14v-4c0-0.9-0.1-1.9-1.3-1.9
				c-1.1,0-1.5,1-1.5,1.9v4H8.4V52.9H11.2z"/>
			<path class="st112" d="M27.5,61.7c0,2.7-2.2,4.2-4.7,4.2c-2.5,0-4.7-1.5-4.7-4.2s2.2-4.2,4.7-4.2S27.5,59,27.5,61.7z M20.9,61.7
				c0,1,0.7,1.8,1.8,1.8c1.1,0,1.8-0.8,1.8-1.8c0-1-0.7-1.8-1.8-1.8C21.6,59.9,20.9,60.7,20.9,61.7z"/>
			<path class="st112" d="M31.4,58.6L31.4,58.6c0.5-0.8,1.5-1.2,2.4-1.2c2.3,0,4,2,4,4.2c0,2.3-1.6,4.2-3.9,4.2
				c-0.9,0-1.8-0.3-2.4-1v4.7h-2.8V57.7h2.8V58.6z M31.4,61.7c0,1,0.7,1.8,1.8,1.8c1.1,0,1.8-0.8,1.8-1.8c0-1-0.7-1.8-1.8-1.8
				C32,59.9,31.4,60.7,31.4,61.7z"/>
			<path class="st112" d="M41.9,58.6L41.9,58.6c0.5-0.8,1.5-1.2,2.4-1.2c2.3,0,4,2,4,4.2c0,2.3-1.6,4.2-3.9,4.2
				c-0.9,0-1.8-0.3-2.4-1v4.7h-2.8V57.7h2.8V58.6z M41.8,61.7c0,1,0.7,1.8,1.8,1.8c1.1,0,1.8-0.8,1.8-1.8c0-1-0.7-1.8-1.8-1.8
				C42.5,59.9,41.8,60.7,41.8,61.7z"/>
			<path class="st112" d="M52.6,54.7c0,0.9-0.7,1.6-1.6,1.6c-0.9,0-1.6-0.7-1.6-1.6c0-0.9,0.7-1.6,1.6-1.6
				C51.9,53.2,52.6,53.9,52.6,54.7z M52.5,65.6h-2.8v-7.9h2.8V65.6z"/>
			<path class="st112" d="M57.1,58.8L57.1,58.8c0.7-1,1.5-1.3,2.5-1.3c2.1,0,3,1.3,3,3.3v4.9h-2.8v-3.8c0-0.8,0.1-2.1-1.3-2.1
				c-1.1,0-1.5,0.8-1.5,1.8v4.1h-2.8v-7.9h2.8V58.8z"/>
			<path class="st112" d="M73.1,64.9c0,3.3-1.7,4.7-4.6,4.7c-1.8,0-4.2-0.9-4.5-3h3.1c0.1,0.3,0.3,0.5,0.5,0.6s0.5,0.2,0.8,0.2
				c1.5,0,1.8-1,1.8-2.3v-0.4c-0.7,0.7-1.5,1.1-2.5,1.1c-2.3,0-3.9-1.8-3.9-4c0-2.3,1.6-4.3,4-4.3c0.9,0,1.8,0.3,2.3,1.1h0v-0.8h2.8
				V64.9z M66.8,61.6c0,1,0.7,1.8,1.8,1.8c1.1,0,1.8-0.8,1.8-1.8c0-1-0.7-1.8-1.8-1.8C67.5,59.8,66.8,60.7,66.8,61.6z"/>
			<path class="st112" d="M82.9,58.7L82.9,58.7c0.7-0.9,1.5-1.2,2.5-1.2c1.1,0,2.1,0.5,2.7,1.5c0.5-1,1.6-1.5,2.7-1.5
				c2,0,2.7,1.3,2.7,3.1v5h-2.8v-3.8c0-0.8,0-2.1-1.2-2.1c-1.3,0-1.3,1.2-1.3,2.1v3.8h-2.8v-3.8c0-0.9,0-2.2-1.2-2.2
				c-1.2,0-1.2,1.3-1.2,2.2v3.8h-2.8v-7.9h2.8V58.7z"/>
			<path class="st112" d="M103.9,65.6h-2.8v-0.9h0c-0.5,0.8-1.5,1.1-2.4,1.1c-2.3,0-4-1.9-4-4.2s1.6-4.2,3.9-4.2
				c0.9,0,1.9,0.3,2.4,1v-0.8h2.8V65.6z M97.6,61.7c0,1,0.7,1.8,1.8,1.8c1.1,0,1.8-0.8,1.8-1.8c0-1-0.7-1.8-1.8-1.8
				C98.3,59.9,97.6,60.7,97.6,61.7z"/>
			<path class="st112" d="M108.5,65.6h-2.8V52.9h2.8V65.6z"/>
			<path class="st112" d="M113.2,65.6h-2.8V52.9h2.8V65.6z"/>
			<path class="st112" d="M124.2,62l2-4.3h1.7l2,4.3l2-4.3h3.1l-4.1,7.9H129l-1.9-4.3l-1.9,4.3h-1.8l-4.1-7.9h3.1L124.2,62z"/>
			<path class="st112" d="M138.5,54.7c0,0.9-0.7,1.6-1.6,1.6c-0.9,0-1.6-0.7-1.6-1.6c0-0.9,0.7-1.6,1.6-1.6
				C137.8,53.2,138.5,53.9,138.5,54.7z M138.4,65.6h-2.8v-7.9h2.8V65.6z"/>
			<path class="st112" d="M143.3,65.6h-2.8V60h-0.9v-2.3h0.9v-2.4h2.8v2.4h1.6V60h-1.6V65.6z"/>
			<path class="st112" d="M148.5,52.9v5.9h0c0.6-0.9,1.4-1.3,2.5-1.3c2,0,3,1.3,3,3.3v4.8h-2.8v-4c0-0.9-0.1-1.9-1.3-1.9
				c-1.1,0-1.5,1-1.5,1.9v4h-2.8V52.9H148.5z"/>
			<path class="st112" d="M164.8,61.7c0,2.7-2.2,4.2-4.7,4.2c-2.5,0-4.7-1.5-4.7-4.2s2.2-4.2,4.7-4.2S164.8,59,164.8,61.7z
				 M158.2,61.7c0,1,0.7,1.8,1.8,1.8c1.1,0,1.8-0.8,1.8-1.8c0-1-0.7-1.8-1.8-1.8C158.9,59.9,158.2,60.7,158.2,61.7z"/>
			<path class="st112" d="M168.8,57.7V62c0,1,0.2,1.7,1.4,1.7c1.2,0,1.4-0.7,1.4-1.7v-4.2h2.8v4.7c0,2.6-1.8,3.4-4.2,3.4
				c-2.4,0-4.2-0.8-4.2-3.4v-4.7H168.8z"/>
			<path class="st112" d="M179.2,65.6h-2.8V60h-0.9v-2.3h0.9v-2.4h2.8v2.4h1.6V60h-1.6V65.6z"/>
			<path class="st112" d="M190,65.6h-2.8V60h-0.9v-2.3h0.9v-2.4h2.8v2.4h1.6V60H190V65.6z"/>
			<path class="st112" d="M201.1,65.6h-2.8v-0.9h0c-0.5,0.8-1.5,1.1-2.4,1.1c-2.3,0-4-1.9-4-4.2s1.6-4.2,3.9-4.2
				c0.9,0,1.9,0.3,2.4,1v-0.8h2.8V65.6z M194.8,61.7c0,1,0.7,1.8,1.8,1.8c1.1,0,1.8-0.8,1.8-1.8c0-1-0.7-1.8-1.8-1.8
				C195.4,59.9,194.8,60.7,194.8,61.7z"/>
			<path class="st112" d="M205.7,60.6l2.9-2.8h3.8l-3.9,3.6l4.2,4.2h-3.9l-3.1-3.2v3.2h-2.8V52.9h2.8V60.6z"/>
			<path class="st112" d="M216.4,54.7c0,0.9-0.7,1.6-1.6,1.6c-0.9,0-1.6-0.7-1.6-1.6c0-0.9,0.7-1.6,1.6-1.6
				C215.7,53.2,216.4,53.9,216.4,54.7z M216.3,65.6h-2.8v-7.9h2.8V65.6z"/>
			<path class="st112" d="M220.9,58.8L220.9,58.8c0.7-1,1.5-1.3,2.5-1.3c2.1,0,3,1.3,3,3.3v4.9h-2.8v-3.8c0-0.8,0.1-2.1-1.3-2.1
				c-1.1,0-1.5,0.8-1.5,1.8v4.1h-2.8v-7.9h2.8V58.8z"/>
			<path class="st112" d="M236.9,64.9c0,3.3-1.7,4.7-4.6,4.7c-1.8,0-4.2-0.9-4.5-3h3.1c0.1,0.3,0.3,0.5,0.5,0.6s0.5,0.2,0.8,0.2
				c1.5,0,1.8-1,1.8-2.3v-0.4c-0.7,0.7-1.5,1.1-2.5,1.1c-2.3,0-3.9-1.8-3.9-4c0-2.3,1.6-4.3,4-4.3c0.9,0,1.8,0.3,2.3,1.1h0v-0.8h2.8
				V64.9z M230.6,61.6c0,1,0.7,1.8,1.8,1.8c1.1,0,1.8-0.8,1.8-1.8c0-1-0.7-1.8-1.8-1.8C231.3,59.8,230.6,60.7,230.6,61.6z"/>
			<path class="st112" d="M246.6,58.6L246.6,58.6c0.5-0.8,1.5-1.2,2.4-1.2c2.3,0,4,2,4,4.2c0,2.3-1.6,4.2-3.9,4.2
				c-0.9,0-1.8-0.3-2.4-1v4.7h-2.8V57.7h2.8V58.6z M246.5,61.7c0,1,0.7,1.8,1.8,1.8c1.1,0,1.8-0.8,1.8-1.8c0-1-0.7-1.8-1.8-1.8
				C247.2,59.9,246.5,60.7,246.5,61.7z"/>
			<path class="st112" d="M257.3,54.7c0,0.9-0.7,1.6-1.6,1.6c-0.9,0-1.6-0.7-1.6-1.6c0-0.9,0.7-1.6,1.6-1.6
				C256.6,53.2,257.3,53.9,257.3,54.7z M257.2,65.6h-2.8v-7.9h2.8V65.6z"/>
			<path class="st112" d="M264.7,60.3c-0.4-0.3-0.9-0.6-1.4-0.6c-1.1,0-1.9,0.8-1.9,1.9c0,1.1,0.8,1.9,2,1.9c0.5,0,1-0.2,1.4-0.5
				v2.4c-0.6,0.3-1.3,0.4-2,0.4c-2.3,0-4.3-1.7-4.3-4.1c0-2.5,1.9-4.3,4.4-4.3c0.6,0,1.3,0.2,1.8,0.5V60.3z"/>
			<path class="st112" d="M269.5,65.6h-2.8V60h-0.9v-2.3h0.9v-2.4h2.8v2.4h1.6V60h-1.6V65.6z"/>
			<path class="st112" d="M274.7,57.7V62c0,1,0.2,1.7,1.4,1.7s1.4-0.7,1.4-1.7v-4.2h2.8v4.7c0,2.6-1.8,3.4-4.2,3.4
				c-2.4,0-4.2-0.8-4.2-3.4v-4.7H274.7z"/>
			<path class="st112" d="M284.9,59L284.9,59c0.6-1,1.5-1.4,2.6-1.4h0.5v2.7c-0.4-0.2-0.8-0.3-1.2-0.3c-1.6,0-1.9,1-1.9,2.4v3.2
				h-2.8v-7.9h2.8V59z"/>
			<path class="st112" d="M297.1,62.2h-5.9c0,1.1,0.6,1.8,1.8,1.8c0.6,0,1-0.2,1.3-0.7h2.7c-0.4,1.9-2.2,2.7-4,2.7
				c-2.6,0-4.6-1.5-4.6-4.2c0-2.6,1.8-4.2,4.4-4.2c2.7,0,4.3,1.7,4.3,4.4V62.2z M294.5,60.5c-0.1-0.8-0.8-1.2-1.6-1.2
				c-0.8,0-1.5,0.4-1.7,1.2H294.5z"/>
			<path class="st112" d="M303.6,59.8c-0.4-0.2-1-0.4-1.5-0.4c-0.3,0-0.9,0.1-0.9,0.5c0,0.5,0.9,0.6,1.3,0.7
				c1.3,0.3,2.3,0.9,2.3,2.3c0,2.1-1.9,2.9-3.7,2.9c-1.1,0-2.2-0.3-3.2-0.9l1-2c0.6,0.4,1.5,0.8,2.2,0.8c0.4,0,0.9-0.2,0.9-0.6
				c0-0.6-0.9-0.6-1.8-0.9c-0.9-0.2-1.8-0.7-1.8-2.1c0-1.9,1.8-2.8,3.5-2.8c0.9,0,1.8,0.1,2.6,0.5L303.6,59.8z"/>
			<path class="st112" d="M320.4,61.7c0,2.7-2.2,4.2-4.7,4.2c-2.5,0-4.7-1.5-4.7-4.2s2.2-4.2,4.7-4.2
				C318.2,57.5,320.4,59,320.4,61.7z M313.9,61.7c0,1,0.7,1.8,1.8,1.8s1.8-0.8,1.8-1.8c0-1-0.7-1.8-1.8-1.8S313.9,60.7,313.9,61.7z"
				/>
			<path class="st112" d="M324.7,65.6h-2.8V60h-1v-2.3h1v-1c0-1.1,0-1.9,0.8-2.8c0.7-0.8,1.7-1.3,2.7-1.3c0.4,0,0.8,0.1,1.2,0.3v2.4
				c-0.3-0.1-0.6-0.3-1-0.3c-0.7,0-1,0.4-1,1.3v1.3h1.9V60h-1.9V65.6z"/>
			<path class="st112" d="M341,62.2h-5.9c0,1.1,0.6,1.8,1.8,1.8c0.6,0,1-0.2,1.3-0.7h2.7c-0.4,1.9-2.2,2.7-4,2.7
				c-2.6,0-4.6-1.5-4.6-4.2c0-2.6,1.8-4.2,4.4-4.2c2.7,0,4.3,1.7,4.3,4.4V62.2z M338.4,60.5c-0.1-0.8-0.8-1.2-1.6-1.2
				c-0.8,0-1.5,0.4-1.7,1.2H338.4z"/>
			<path class="st112" d="M346.1,61.8l1.9-4h3.1l-4.1,7.9h-1.8l-4.1-7.9h3.1L346.1,61.8z"/>
			<path class="st112" d="M359.9,62.2H354c0,1.1,0.6,1.8,1.8,1.8c0.6,0,1-0.2,1.3-0.7h2.7c-0.4,1.9-2.2,2.7-4,2.7
				c-2.6,0-4.6-1.5-4.6-4.2c0-2.6,1.8-4.2,4.4-4.2c2.7,0,4.3,1.7,4.3,4.4V62.2z M357.3,60.5c-0.1-0.8-0.8-1.2-1.6-1.2
				c-0.8,0-1.5,0.4-1.7,1.2H357.3z"/>
			<path class="st112" d="M364,59L364,59c0.6-1,1.5-1.4,2.6-1.4h0.5v2.7c-0.4-0.2-0.8-0.3-1.2-0.3c-1.5,0-1.9,1-1.9,2.4v3.2h-2.8
				v-7.9h2.8V59z"/>
			<path class="st112" d="M367.2,57.7h3.2l2.1,4l2.1-4h3.2l-6.3,11.8h-3.1l2.7-5L367.2,57.7z"/>
			<path class="st112" d="M386.5,65.6h-2.8V52.9h2.8V65.6z"/>
			<path class="st112" d="M397.2,61.7c0,2.7-2.2,4.2-4.7,4.2c-2.5,0-4.7-1.5-4.7-4.2s2.2-4.2,4.7-4.2S397.2,59,397.2,61.7z
				 M390.7,61.7c0,1,0.7,1.8,1.8,1.8s1.8-0.8,1.8-1.8c0-1-0.7-1.8-1.8-1.8S390.7,60.7,390.7,61.7z"/>
			<path class="st112" d="M407.1,64.9c0,3.3-1.7,4.7-4.6,4.7c-1.8,0-4.2-0.9-4.5-3h3.1c0.1,0.3,0.3,0.5,0.5,0.6
				c0.2,0.1,0.5,0.2,0.8,0.2c1.5,0,1.8-1,1.8-2.3v-0.4c-0.7,0.7-1.5,1.1-2.5,1.1c-2.3,0-3.9-1.8-3.9-4c0-2.3,1.6-4.3,4-4.3
				c0.9,0,1.8,0.3,2.3,1.1h0v-0.8h2.8V64.9z M400.8,61.6c0,1,0.7,1.8,1.8,1.8s1.8-0.8,1.8-1.8c0-1-0.7-1.8-1.8-1.8
				S400.8,60.7,400.8,61.6z"/>
			<path class="st112" d="M417.8,61.7c0,2.7-2.2,4.2-4.7,4.2c-2.5,0-4.7-1.5-4.7-4.2s2.2-4.2,4.7-4.2S417.8,59,417.8,61.7z
				 M411.2,61.7c0,1,0.7,1.8,1.8,1.8s1.8-0.8,1.8-1.8c0-1-0.7-1.8-1.8-1.8S411.2,60.7,411.2,61.7z"/>
			<path class="st112" d="M423.1,62.7l-2.8,5.1h-1.8l2-5.1H423.1z"/>
			<path class="st112" d="M6.2,84.9c-0.4-0.3-0.9-0.6-1.4-0.6c-1.1,0-1.9,0.8-1.9,1.9c0,1.1,0.8,1.9,2,1.9c0.5,0,1-0.2,1.4-0.5V90
				c-0.6,0.3-1.3,0.4-2,0.4c-2.3,0-4.3-1.7-4.3-4.1C0,83.8,1.9,82,4.4,82c0.6,0,1.3,0.2,1.8,0.5V84.9z"/>
			<path class="st112" d="M10.8,90.2H8V77.4h2.8V90.2z"/>
			<path class="st112" d="M21.5,86.2c0,2.7-2.2,4.2-4.7,4.2c-2.5,0-4.7-1.5-4.7-4.2s2.2-4.2,4.7-4.2S21.5,83.6,21.5,86.2z M15,86.2
				c0,1,0.7,1.8,1.8,1.8c1.1,0,1.8-0.8,1.8-1.8c0-1-0.7-1.8-1.8-1.8C15.6,84.5,15,85.3,15,86.2z"/>
			<path class="st112" d="M25.8,90.2H23v-5.6h-0.9v-2.3H23v-2.4h2.8v2.4h1.6v2.3h-1.6V90.2z"/>
			<path class="st112" d="M31.1,77.4v5.9h0c0.6-0.9,1.4-1.3,2.5-1.3c2,0,3,1.3,3,3.3v4.8h-2.8v-4c0-0.9-0.1-1.9-1.3-1.9
				c-1.1,0-1.5,1-1.5,1.9v4h-2.8V77.4H31.1z"/>
			<path class="st112" d="M41.4,79.3c0,0.9-0.7,1.6-1.6,1.6c-0.9,0-1.6-0.7-1.6-1.6s0.7-1.6,1.6-1.6C40.7,77.7,41.4,78.4,41.4,79.3z
				 M41.2,90.2h-2.8v-7.9h2.8V90.2z"/>
			<path class="st112" d="M45.9,83.3L45.9,83.3c0.7-1,1.5-1.3,2.5-1.3c2.1,0,3,1.3,3,3.3v4.9h-2.8v-3.8c0-0.8,0.1-2.1-1.3-2.1
				c-1.1,0-1.5,0.8-1.5,1.8v4.1h-2.8v-7.9h2.8V83.3z"/>
			<path class="st112" d="M61.9,89.4c0,3.3-1.7,4.7-4.6,4.7c-1.8,0-4.2-0.9-4.5-3H56c0.1,0.3,0.3,0.5,0.5,0.6
				c0.2,0.1,0.5,0.2,0.8,0.2c1.5,0,1.8-1,1.8-2.3v-0.4c-0.7,0.7-1.5,1.1-2.5,1.1c-2.3,0-3.9-1.8-3.9-4c0-2.3,1.6-4.3,4-4.3
				c0.9,0,1.8,0.3,2.3,1.1h0v-0.8h2.8V89.4z M55.6,86.2c0,1,0.7,1.8,1.8,1.8c1.1,0,1.8-0.8,1.8-1.8c0-1-0.7-1.8-1.8-1.8
				C56.2,84.4,55.6,85.2,55.6,86.2z"/>
			<path class="st112" d="M71.6,83.2L71.6,83.2c0.5-0.8,1.5-1.2,2.4-1.2c2.3,0,4,2,4,4.2c0,2.3-1.6,4.2-3.9,4.2
				c-0.9,0-1.8-0.3-2.4-1v4.7h-2.8V82.3h2.8V83.2z M71.5,86.2c0,1,0.7,1.8,1.8,1.8c1.1,0,1.8-0.8,1.8-1.8c0-1-0.7-1.8-1.8-1.8
				C72.1,84.5,71.5,85.3,71.5,86.2z"/>
			<path class="st112" d="M82.1,83.6L82.1,83.6c0.6-1,1.5-1.4,2.6-1.4h0.5v2.7c-0.4-0.2-0.8-0.3-1.2-0.3c-1.6,0-1.9,1-1.9,2.4v3.2
				h-2.8v-7.9h2.8V83.6z"/>
			<path class="st112" d="M89.3,79.3c0,0.9-0.7,1.6-1.6,1.6c-0.9,0-1.6-0.7-1.6-1.6s0.7-1.6,1.6-1.6C88.5,77.7,89.3,78.4,89.3,79.3z
				 M89.1,90.2h-2.8v-7.9h2.8V90.2z"/>
			<path class="st112" d="M93.7,83.3L93.7,83.3c0.7-1,1.5-1.3,2.5-1.3c2.1,0,3,1.3,3,3.3v4.9h-2.8v-3.8c0-0.8,0.1-2.1-1.3-2.1
				c-1.1,0-1.5,0.8-1.5,1.8v4.1h-2.8v-7.9h2.8V83.3z"/>
			<path class="st112" d="M104.1,90.2h-2.8v-5.6h-0.9v-2.3h0.9v-2.4h2.8v2.4h1.6v2.3h-1.6V90.2z"/>
			<path class="st112" d="M120.5,90.2h-2.8v-0.9h0c-0.5,0.8-1.5,1.1-2.4,1.1c-2.3,0-4-1.9-4-4.2c0-2.3,1.6-4.2,3.9-4.2
				c0.9,0,1.9,0.3,2.4,1v-0.8h2.8V90.2z M114.2,86.2c0,1,0.7,1.8,1.8,1.8c1.1,0,1.8-0.8,1.8-1.8c0-1-0.7-1.8-1.8-1.8
				C114.8,84.5,114.2,85.3,114.2,86.2z"/>
			<path class="st112" d="M125.1,83.3L125.1,83.3c0.7-1,1.5-1.3,2.5-1.3c2.1,0,3,1.3,3,3.3v4.9h-2.8v-3.8c0-0.8,0.1-2.1-1.3-2.1
				c-1.1,0-1.5,0.8-1.5,1.8v4.1h-2.8v-7.9h2.8V83.3z"/>
			<path class="st112" d="M138.4,89.3L138.4,89.3c-0.5,0.8-1.5,1.1-2.4,1.1c-2.3,0-4-1.9-4-4.2c0-2.3,1.6-4.2,3.9-4.2
				c0.9,0,1.9,0.3,2.4,1v-5.6h2.8v12.7h-2.8V89.3z M134.9,86.2c0,1,0.7,1.8,1.8,1.8c1.1,0,1.8-0.8,1.8-1.8c0-1-0.7-1.8-1.8-1.8
				C135.6,84.5,134.9,85.3,134.9,86.2z"/>
			<path class="st112" d="M153.4,84.3c-0.4-0.2-1-0.4-1.5-0.4c-0.3,0-0.9,0.1-0.9,0.5c0,0.5,0.9,0.6,1.3,0.7
				c1.3,0.3,2.3,0.9,2.3,2.3c0,2.1-1.9,2.9-3.7,2.9c-1.1,0-2.2-0.3-3.2-0.9l1-1.9c0.6,0.4,1.5,0.8,2.2,0.8c0.4,0,0.9-0.2,0.9-0.6
				c0-0.6-0.9-0.6-1.8-0.9s-1.8-0.7-1.8-2.1c0-1.9,1.8-2.8,3.5-2.8c0.9,0,1.8,0.1,2.6,0.5L153.4,84.3z"/>
			<path class="st112" d="M164.7,90.2h-2.8v-0.9h0c-0.5,0.8-1.5,1.1-2.4,1.1c-2.3,0-4-1.9-4-4.2c0-2.3,1.6-4.2,3.9-4.2
				c0.9,0,1.9,0.3,2.4,1v-0.8h2.8V90.2z M158.4,86.2c0,1,0.7,1.8,1.8,1.8c1.1,0,1.8-0.8,1.8-1.8c0-1-0.7-1.8-1.8-1.8
				C159,84.5,158.4,85.3,158.4,86.2z"/>
			<path class="st112" d="M169.3,83.3L169.3,83.3c0.7-1,1.5-1.3,2.5-1.3c2.1,0,3,1.3,3,3.3v4.9H172v-3.8c0-0.8,0.1-2.1-1.3-2.1
				c-1.1,0-1.5,0.8-1.5,1.8v4.1h-2.8v-7.9h2.8V83.3z"/>
			<path class="st112" d="M182.6,89.3L182.6,89.3c-0.5,0.8-1.5,1.1-2.4,1.1c-2.3,0-4-1.9-4-4.2c0-2.3,1.6-4.2,3.9-4.2
				c0.9,0,1.9,0.3,2.4,1v-5.6h2.8v12.7h-2.8V89.3z M179.1,86.2c0,1,0.7,1.8,1.8,1.8c1.1,0,1.8-0.8,1.8-1.8c0-1-0.7-1.8-1.8-1.8
				C179.8,84.5,179.1,85.3,179.1,86.2z"/>
			<path class="st112" d="M191.1,86.6l2-4.3h1.7l2,4.3l2-4.3h3.1l-4.1,7.9h-1.8l-1.9-4.3l-1.9,4.3h-1.8l-4.1-7.9h3.1L191.1,86.6z"/>
			<path class="st112" d="M205.4,79.3c0,0.9-0.7,1.6-1.6,1.6c-0.9,0-1.6-0.7-1.6-1.6s0.7-1.6,1.6-1.6
				C204.7,77.7,205.4,78.4,205.4,79.3z M205.2,90.2h-2.8v-7.9h2.8V90.2z"/>
			<path class="st112" d="M212.7,84.9c-0.4-0.3-0.9-0.6-1.4-0.6c-1.1,0-1.9,0.8-1.9,1.9c0,1.1,0.8,1.9,2,1.9c0.5,0,1-0.2,1.4-0.5V90
				c-0.6,0.3-1.3,0.4-2,0.4c-2.3,0-4.3-1.7-4.3-4.1c0-2.5,1.9-4.3,4.4-4.3c0.6,0,1.3,0.2,1.8,0.5V84.9z"/>
			<path class="st112" d="M217.3,77.4v5.9h0c0.6-0.9,1.4-1.3,2.5-1.3c2,0,3,1.3,3,3.3v4.8H220v-4c0-0.9-0.1-1.9-1.3-1.9
				c-1.1,0-1.5,1-1.5,1.9v4h-2.8V77.4H217.3z"/>
			<path class="st112" d="M229.8,77.4h2.8v5.6c0.6-0.7,1.5-1,2.4-1c2.3,0,3.9,1.9,3.9,4.2c0,2.3-1.6,4.2-4,4.2
				c-0.9,0-1.9-0.4-2.4-1.1h0v0.9h-2.8V77.4z M232.5,86.2c0,1,0.7,1.8,1.8,1.8c1.1,0,1.8-0.8,1.8-1.8c0-1-0.7-1.8-1.8-1.8
				C233.1,84.5,232.5,85.3,232.5,86.2z"/>
			<path class="st112" d="M249.2,86.2c0,2.7-2.2,4.2-4.7,4.2c-2.5,0-4.7-1.5-4.7-4.2s2.2-4.2,4.7-4.2S249.2,83.6,249.2,86.2z
				 M242.7,86.2c0,1,0.7,1.8,1.8,1.8s1.8-0.8,1.8-1.8c0-1-0.7-1.8-1.8-1.8S242.7,85.3,242.7,86.2z"/>
			<path class="st112" d="M259.1,90.2h-2.8v-0.9h0c-0.5,0.8-1.5,1.1-2.4,1.1c-2.3,0-4-1.9-4-4.2c0-2.3,1.6-4.2,3.9-4.2
				c0.9,0,1.9,0.3,2.4,1v-0.8h2.8V90.2z M252.8,86.2c0,1,0.7,1.8,1.8,1.8s1.8-0.8,1.8-1.8c0-1-0.7-1.8-1.8-1.8
				S252.8,85.3,252.8,86.2z"/>
			<path class="st112" d="M263.8,83.6L263.8,83.6c0.6-1,1.5-1.4,2.6-1.4h0.5v2.7c-0.4-0.2-0.8-0.3-1.2-0.3c-1.5,0-1.9,1-1.9,2.4v3.2
				H261v-7.9h2.8V83.6z"/>
			<path class="st112" d="M273.8,89.3L273.8,89.3c-0.5,0.8-1.5,1.1-2.4,1.1c-2.3,0-4-1.9-4-4.2c0-2.3,1.6-4.2,3.9-4.2
				c0.9,0,1.9,0.3,2.4,1v-5.6h2.8v12.7h-2.8V89.3z M270.3,86.2c0,1,0.7,1.8,1.8,1.8s1.8-0.8,1.8-1.8c0-1-0.7-1.8-1.8-1.8
				S270.3,85.3,270.3,86.2z"/>
			<path class="st112" d="M286.4,77.4v5.9h0c0.6-0.9,1.4-1.3,2.5-1.3c2,0,3,1.3,3,3.3v4.8h-2.8v-4c0-0.9-0.1-1.9-1.3-1.9
				c-1.1,0-1.5,1-1.5,1.9v4h-2.8V77.4H286.4z"/>
			<path class="st112" d="M301.9,86.7H296c0,1.1,0.6,1.8,1.8,1.8c0.6,0,1-0.2,1.3-0.7h2.7c-0.4,1.9-2.2,2.7-4,2.7
				c-2.6,0-4.6-1.5-4.6-4.2c0-2.6,1.8-4.2,4.4-4.2c2.7,0,4.3,1.7,4.3,4.4V86.7z M299.3,85.1c-0.1-0.8-0.8-1.2-1.6-1.2
				c-0.8,0-1.5,0.4-1.7,1.2H299.3z"/>
			<path class="st112" d="M313.6,84.3c-0.4-0.2-1-0.4-1.5-0.4c-0.3,0-0.9,0.1-0.9,0.5c0,0.5,0.9,0.6,1.3,0.7
				c1.3,0.3,2.3,0.9,2.3,2.3c0,2.1-1.9,2.9-3.7,2.9c-1.1,0-2.2-0.3-3.2-0.9l1-1.9c0.6,0.4,1.5,0.8,2.2,0.8c0.4,0,0.9-0.2,0.9-0.6
				c0-0.6-0.9-0.6-1.8-0.9s-1.8-0.7-1.8-2.1c0-1.9,1.8-2.8,3.5-2.8c0.9,0,1.8,0.1,2.6,0.5L313.6,84.3z"/>
			<path class="st112" d="M324.4,86.7h-5.9c0,1.1,0.6,1.8,1.8,1.8c0.6,0,1-0.2,1.3-0.7h2.7c-0.4,1.9-2.2,2.7-4,2.7
				c-2.6,0-4.6-1.5-4.6-4.2c0-2.6,1.8-4.2,4.4-4.2c2.7,0,4.3,1.7,4.3,4.4V86.7z M321.8,85.1c-0.1-0.8-0.8-1.2-1.6-1.2
				c-0.8,0-1.5,0.4-1.7,1.2H321.8z"/>
			<path class="st112" d="M333.7,86.7h-5.9c0,1.1,0.6,1.8,1.8,1.8c0.6,0,1-0.2,1.3-0.7h2.7c-0.4,1.9-2.2,2.7-4,2.7
				c-2.6,0-4.6-1.5-4.6-4.2c0-2.6,1.8-4.2,4.4-4.2c2.7,0,4.3,1.7,4.3,4.4V86.7z M331.1,85.1c-0.1-0.8-0.8-1.2-1.6-1.2
				c-0.8,0-1.5,0.4-1.7,1.2H331.1z"/>
			<path class="st112" d="M340.2,84.3c-0.4-0.2-1-0.4-1.5-0.4c-0.3,0-0.9,0.1-0.9,0.5c0,0.5,0.9,0.6,1.3,0.7
				c1.3,0.3,2.3,0.9,2.3,2.3c0,2.1-1.9,2.9-3.7,2.9c-1.1,0-2.2-0.3-3.2-0.9l1-1.9c0.6,0.4,1.5,0.8,2.2,0.8c0.4,0,0.9-0.2,0.9-0.6
				c0-0.6-0.9-0.6-1.8-0.9s-1.8-0.7-1.8-2.1c0-1.9,1.8-2.8,3.5-2.8c0.9,0,1.8,0.1,2.6,0.5L340.2,84.3z"/>
			<path class="st112" d="M346.4,88.7c0,1-0.8,1.8-1.8,1.8c-1,0-1.8-0.8-1.8-1.8c0-1,0.8-1.8,1.8-1.8
				C345.6,86.9,346.4,87.7,346.4,88.7z"/>
		</g>
		<g>
			<path class="st111" d="M1.6,149.8v4.2h3.8v0.7H1.6v6H0.9v-11.6h4.7v0.7H1.6z"/>
			<path class="st111" d="M17.5,149.1h0.7v7.2c0,1.2,0,2.2-0.8,3.2c-0.8,0.9-2,1.4-3.1,1.4c-1.2,0-2.4-0.5-3.1-1.4
				c-0.8-1-0.8-2-0.8-3.2v-7.2h0.7v7c0,1,0,2.1,0.6,2.9c0.6,0.7,1.7,1.1,2.6,1.1c0.9,0,2-0.4,2.6-1.1c0.6-0.8,0.6-1.9,0.6-2.9V149.1
				z"/>
			<path class="st111" d="M25.9,160.7h-0.7v-10.9h-3v-0.7h6.7v0.7h-3V160.7z"/>
			<path class="st111" d="M40,149.1h0.7v7.2c0,1.2,0,2.2-0.8,3.2c-0.8,0.9-2,1.4-3.1,1.4c-1.2,0-2.4-0.5-3.1-1.4
				c-0.8-1-0.8-2-0.8-3.2v-7.2h0.7v7c0,1,0,2.1,0.6,2.9c0.6,0.7,1.7,1.1,2.6,1.1c0.9,0,2-0.4,2.6-1.1c0.6-0.8,0.6-1.9,0.6-2.9V149.1
				z"/>
			<path class="st111" d="M51.6,160.7h-0.8l-3.8-5.5h-0.4v5.5h-0.7v-11.6h1.4c0.9,0,1.9,0,2.6,0.6c0.8,0.6,1.2,1.5,1.2,2.5
				c0,2-1.4,3.1-3.3,3L51.6,160.7z M47.6,154.5c0.7,0,1.4,0,2-0.5c0.6-0.4,0.8-1.1,0.8-1.8c0-0.9-0.4-1.7-1.2-2.1
				c-0.6-0.3-1.4-0.3-2.1-0.3h-0.5v4.7H47.6z"/>
			<path class="st111" d="M57.3,156.9l-1.6,3.8H55l4.9-12l4.8,12h-0.8l-1.6-3.8H57.3z M59.9,150.6l-2.3,5.6h4.5L59.9,150.6z"/>
			<path class="st111" d="M77,160H80v0.7h-3.7v-11.6H77V160z"/>
			<path class="st111" d="M84.8,160.7h-0.7v-11.6h0.7V160.7z"/>
			<path class="st111" d="M100.9,155.1c0,1.5-0.2,2.7-1.2,3.9c-1.1,1.2-2.8,1.9-4.4,1.9c-3.2,0-5.9-2.7-5.9-5.9c0-3.3,2.7-6,6-6
				c2.1,0,3.8,1,5,2.7l-0.6,0.5c-1-1.5-2.6-2.5-4.5-2.5c-2.8,0-5.2,2.5-5.2,5.2c0,2.9,2.4,5.2,5.2,5.2c1.2,0,2.5-0.5,3.4-1.3
				c1-0.8,1.4-1.8,1.4-3.1H96v-0.7H100.9z"/>
			<path class="st111" d="M113.2,154v-4.9h0.7v11.6h-0.7v-6h-7v6h-0.7v-11.6h0.7v4.9H113.2z"/>
			<path class="st111" d="M121.8,160.7h-0.7v-10.9h-3v-0.7h6.7v0.7h-3V160.7z"/>
			<path class="st112" d="M0.9,178.2H3c1.7,0,3,0.3,4.3,1.5c1.2,1.1,1.8,2.7,1.8,4.3c0,1.6-0.6,3.1-1.8,4.2
				c-1.3,1.2-2.6,1.5-4.4,1.5H0.9V178.2z M3,189.1c1.5,0,2.8-0.3,3.9-1.4c1-1,1.5-2.3,1.5-3.7c0-1.5-0.6-2.9-1.7-3.9
				c-1.1-1-2.3-1.3-3.7-1.3H1.6v10.2H3z"/>
			<path class="st112" d="M12.1,180.4c0,0.4-0.3,0.6-0.6,0.6s-0.6-0.3-0.6-0.6c0-0.3,0.3-0.6,0.6-0.6S12.1,180,12.1,180.4z
				 M11.8,189.8h-0.7v-7.1h0.7V189.8z"/>
			<path class="st112" d="M15.1,189.8h-0.7v-12.7h0.7V189.8z"/>
			<path class="st112" d="M18.2,189.8h-0.7v-12.7h0.7V189.8z"/>
			<path class="st112" d="M27.3,186.3c0,2.1-1.6,3.7-3.7,3.7c-2,0-3.7-1.7-3.7-3.7c0-2,1.6-3.7,3.7-3.7
				C25.6,182.6,27.3,184.2,27.3,186.3z M20.5,186.3c0,1.6,1.3,3,2.9,3c1.7,0,3.1-1.3,3.1-3c0-1.8-1.3-3.1-3.1-3.1
				C21.8,183.2,20.5,184.6,20.5,186.3z"/>
			<path class="st112" d="M29.6,183.8L29.6,183.8c0.4-0.8,1.2-1.3,2.1-1.3c1.8,0,2.3,1.1,2.3,3v4.3h-0.7v-4.3c0-1.3-0.2-2.3-1.7-2.3
				c-1.8,0-2.1,1.7-2.1,3.1v3.5h-0.7v-7.1h0.7V183.8z"/>
			<path class="st112" d="M42.4,180.4c0,0.4-0.3,0.6-0.6,0.6s-0.6-0.3-0.6-0.6c0-0.3,0.3-0.6,0.6-0.6S42.4,180,42.4,180.4z
				 M42.2,189.8h-0.7v-7.1h0.7V189.8z"/>
			<path class="st112" d="M47.8,184c-0.2-0.5-0.7-0.8-1.2-0.8c-0.6,0-1.2,0.5-1.2,1.1c0,1.7,3.5,0.9,3.5,3.4c0,1.3-1,2.2-2.3,2.2
				c-1.2,0-2.1-0.7-2.4-1.9l0.7-0.2c0.3,0.8,0.8,1.4,1.8,1.4c0.9,0,1.6-0.7,1.6-1.6c0-0.9-0.7-1.2-1.4-1.4c-1-0.4-2.1-0.8-2.1-2
				c0-1.1,0.9-1.8,1.9-1.8c0.7,0,1.5,0.5,1.8,1.1L47.8,184z"/>
			<path class="st112" d="M61.5,189.8h-0.7v-1.3h0c-0.5,0.9-1.7,1.4-2.7,1.4c-2.1,0-3.5-1.7-3.5-3.7s1.3-3.7,3.5-3.7
				c1.1,0,2.1,0.5,2.7,1.4h0v-1.2h0.7V189.8z M55.3,186.2c0,1.6,1.1,3.1,2.8,3.1c1.8,0,2.8-1.5,2.8-3.2c0-1.6-1.1-2.9-2.8-2.9
				C56.4,183.2,55.3,184.7,55.3,186.2z"/>
			<path class="st112" d="M69.4,189.8h-0.7v-6.4H68v-0.6h0.8v-2.5h0.7v2.5h1.2v0.6h-1.2V189.8z"/>
			<path class="st112" d="M78.6,186.3c0,2.1-1.6,3.7-3.7,3.7c-2,0-3.7-1.7-3.7-3.7c0-2,1.6-3.7,3.7-3.7
				C76.9,182.6,78.6,184.2,78.6,186.3z M71.9,186.3c0,1.6,1.3,3,2.9,3c1.7,0,3.1-1.3,3.1-3c0-1.8-1.3-3.1-3.1-3.1
				C73.1,183.2,71.9,184.6,71.9,186.3z"/>
			<path class="st112" d="M81,189.8h-0.7v-6.4h-0.8v-0.6h0.8v-2.5H81v2.5h1.2v0.6H81V189.8z"/>
			<path class="st112" d="M89.7,189.8H89v-1.3h0c-0.5,0.9-1.7,1.4-2.7,1.4c-2.1,0-3.5-1.7-3.5-3.7s1.3-3.7,3.5-3.7
				c1.1,0,2.1,0.5,2.7,1.4h0v-1.2h0.7V189.8z M83.5,186.2c0,1.6,1.1,3.1,2.8,3.1c1.8,0,2.8-1.5,2.8-3.2c0-1.6-1.1-2.9-2.8-2.9
				C84.6,183.2,83.5,184.7,83.5,186.2z"/>
			<path class="st112" d="M92.8,189.8h-0.7v-12.7h0.7V189.8z"/>
			<path class="st112" d="M105.4,188.5L105.4,188.5c-0.6,0.9-1.7,1.4-2.7,1.4c-2.1,0-3.5-1.7-3.5-3.7s1.3-3.7,3.5-3.7
				c1.1,0,2.1,0.5,2.7,1.4h0v-6.8h0.7v12.7h-0.7V188.5z M105.5,186.1c0-1.6-1.1-2.9-2.8-2.9c-1.6,0-2.7,1.5-2.7,3
				c0,1.6,1.1,3.1,2.8,3.1C104.5,189.3,105.5,187.8,105.5,186.1z"/>
			<path class="st112" d="M108.5,186.3c0,1.8,1.2,3,2.8,3c1.1,0,2-0.7,2.5-1.6l0.6,0.3c-0.6,1.2-1.8,1.9-3.2,1.9
				c-2.1,0-3.4-1.7-3.4-3.7c0-2,1.4-3.7,3.4-3.7c2.1,0,3.4,1.7,3.4,3.8H108.5z M113.9,185.7c-0.2-1.3-1.2-2.5-2.7-2.5
				c-1.4,0-2.6,1.1-2.8,2.5H113.9z"/>
			<path class="st112" d="M119.3,184c-0.2-0.5-0.7-0.8-1.2-0.8c-0.6,0-1.2,0.5-1.2,1.1c0,1.7,3.5,0.9,3.5,3.4c0,1.3-1,2.2-2.3,2.2
				c-1.2,0-2.1-0.7-2.4-1.9l0.7-0.2c0.3,0.8,0.8,1.4,1.8,1.4c0.9,0,1.6-0.7,1.6-1.6c0-0.9-0.7-1.2-1.4-1.4c-1-0.4-2.1-0.8-2.1-2
				c0-1.1,0.9-1.8,1.9-1.8c0.7,0,1.5,0.5,1.8,1.1L119.3,184z"/>
			<path class="st112" d="M123.3,180.4c0,0.4-0.3,0.6-0.6,0.6s-0.6-0.3-0.6-0.6c0-0.3,0.3-0.6,0.6-0.6S123.3,180,123.3,180.4z
				 M123,189.8h-0.7v-7.1h0.7V189.8z"/>
			<path class="st112" d="M132,189.5c0,1.1,0,2.1-0.7,3c-0.7,0.9-1.7,1.4-2.8,1.4c-1.9,0-3.4-1.1-3.5-3h0.7c0.1,1.5,1.3,2.4,2.7,2.4
				c0.9,0,1.8-0.3,2.3-1.1c0.6-0.8,0.6-1.7,0.6-2.7v-0.9h0c-0.6,0.8-1.7,1.4-2.8,1.4c-2.1,0-3.4-1.7-3.4-3.7c0-2,1.5-3.7,3.5-3.7
				c1.2,0,2,0.5,2.7,1.4h0v-1.2h0.7V189.5z M125.7,186.2c0,1.6,1.1,3.1,2.8,3.1c1.8,0,2.8-1.5,2.8-3.2c0-1.6-1.1-2.9-2.8-2.9
				C126.9,183.2,125.7,184.7,125.7,186.2z"/>
			<path class="st112" d="M135,183.8L135,183.8c0.4-0.8,1.2-1.3,2.1-1.3c1.8,0,2.3,1.1,2.3,3v4.3h-0.7v-4.3c0-1.3-0.2-2.3-1.7-2.3
				c-1.8,0-2.1,1.7-2.1,3.1v3.5h-0.7v-7.1h0.7V183.8z"/>
			<path class="st112" d="M147.3,183.8L147.3,183.8c0.4-0.8,1.2-1.3,2.1-1.3c1.8,0,2.3,1.1,2.3,3v4.3h-0.7v-4.3
				c0-1.3-0.2-2.3-1.7-2.3c-1.8,0-2.1,1.7-2.1,3.1v3.5h-0.7v-7.1h0.7V183.8z"/>
			<path class="st112" d="M154.1,186.3c0,1.8,1.2,3,2.8,3c1.1,0,2-0.7,2.5-1.6l0.6,0.3c-0.6,1.2-1.8,1.9-3.2,1.9
				c-2.1,0-3.4-1.7-3.4-3.7c0-2,1.4-3.7,3.4-3.7c2.1,0,3.4,1.7,3.4,3.8H154.1z M159.6,185.7c-0.2-1.3-1.2-2.5-2.7-2.5
				c-1.4,0-2.6,1.1-2.8,2.5H159.6z"/>
			<path class="st112" d="M162.7,183.6L162.7,183.6c0.3-0.6,0.8-1.1,1.6-1.1c0.3,0,0.5,0.1,0.8,0.2l-0.4,0.6
				c-0.2-0.1-0.3-0.1-0.5-0.1c-1.6,0-1.5,1.9-1.5,3v3.6H162v-7.1h0.7V183.6z"/>
			<path class="st112" d="M171.8,188.5L171.8,188.5c-0.6,0.9-1.7,1.4-2.7,1.4c-2.1,0-3.5-1.7-3.5-3.7s1.3-3.7,3.5-3.7
				c1.1,0,2.1,0.5,2.7,1.4h0v-6.8h0.7v12.7h-0.7V188.5z M171.8,186.1c0-1.6-1.1-2.9-2.8-2.9c-1.6,0-2.7,1.5-2.7,3
				c0,1.6,1.1,3.1,2.8,3.1C170.8,189.3,171.8,187.8,171.8,186.1z"/>
			<path class="st112" d="M176.6,189.3c0,0.4-0.3,0.6-0.6,0.6s-0.6-0.3-0.6-0.6c0-0.4,0.3-0.6,0.6-0.6S176.6,189,176.6,189.3z"/>
			<path class="st112" d="M192.2,183.1v-4.9h0.7v11.6h-0.7v-6h-7v6h-0.7v-11.6h0.7v4.9H192.2z"/>
			<path class="st112" d="M195.3,186.3c0,1.8,1.2,3,2.8,3c1.1,0,2-0.7,2.5-1.6l0.6,0.3c-0.6,1.2-1.8,1.9-3.2,1.9
				c-2.1,0-3.4-1.7-3.4-3.7c0-2,1.4-3.7,3.4-3.7c2.1,0,3.4,1.7,3.4,3.8H195.3z M200.8,185.7c-0.2-1.3-1.2-2.5-2.7-2.5
				c-1.4,0-2.6,1.1-2.8,2.5H200.8z"/>
			<path class="st112" d="M213.3,184.4c-0.7-0.7-1.5-1.2-2.5-1.2c-1.7,0-2.9,1.4-2.9,3c0,1.6,1.2,3.1,2.9,3.1c1,0,2-0.5,2.6-1.3v0.9
				c-0.7,0.6-1.6,1-2.6,1c-2.1,0-3.6-1.6-3.6-3.7c0-2.1,1.6-3.7,3.7-3.7c0.9,0,1.8,0.3,2.5,0.9V184.4z"/>
			<path class="st112" d="M221.5,189.8h-0.7v-1.3h0c-0.5,0.9-1.7,1.4-2.7,1.4c-2.1,0-3.5-1.7-3.5-3.7s1.3-3.7,3.5-3.7
				c1.1,0,2.1,0.5,2.7,1.4h0v-1.2h0.7V189.8z M215.2,186.2c0,1.6,1.1,3.1,2.8,3.1c1.8,0,2.8-1.5,2.8-3.2c0-1.6-1.1-2.9-2.8-2.9
				C216.4,183.2,215.2,184.7,215.2,186.2z"/>
			<path class="st112" d="M224.5,183.8L224.5,183.8c0.4-0.8,1.2-1.3,2.1-1.3c1.8,0,2.3,1.1,2.3,3v4.3h-0.7v-4.3
				c0-1.3-0.2-2.3-1.7-2.3c-1.8,0-2.1,1.7-2.1,3.1v3.5h-0.7v-7.1h0.7V183.8z"/>
			<path class="st112" d="M233,178.3l-1.3,3.5l-0.5-0.2l1-3.5L233,178.3z"/>
			<path class="st112" d="M235.8,189.8h-0.7v-6.4h-0.8v-0.6h0.8v-2.5h0.7v2.5h1.2v0.6h-1.2V189.8z"/>
			<path class="st112" d="M245.1,188.5l2.5-6.2l2.5,6.2l2.5-5.8h0.7l-3.2,7.5l-2.5-6.1l-2.5,6.1l-3.2-7.5h0.7L245.1,188.5z"/>
			<path class="st112" d="M260.8,189.8h-0.7v-1.3h0c-0.5,0.9-1.7,1.4-2.7,1.4c-2.1,0-3.5-1.7-3.5-3.7s1.3-3.7,3.5-3.7
				c1.1,0,2.1,0.5,2.7,1.4h0v-1.2h0.7V189.8z M254.5,186.2c0,1.6,1.1,3.1,2.8,3.1c1.8,0,2.8-1.5,2.8-3.2c0-1.6-1.1-2.9-2.8-2.9
				C255.6,183.2,254.5,184.7,254.5,186.2z"/>
			<path class="st112" d="M263.8,189.8h-0.7v-12.7h0.7V189.8z"/>
			<path class="st112" d="M266.9,185.7l2.9-3h0.9l-3,3.1l4,4h-0.9l-3.5-3.5l-0.4,0.4v3.1h-0.7v-12.7h0.7V185.7z"/>
			<path class="st112" d="M278.2,189.8h-0.7v-6.4h-0.8v-0.6h0.8v-2.5h0.7v2.5h1.2v0.6h-1.2V189.8z"/>
			<path class="st112" d="M281.4,177.1v6.7h0c0.4-0.8,1.2-1.3,2.1-1.3c1.8,0,2.3,1.1,2.3,3v4.3h-0.7v-4.3c0-1.3-0.2-2.3-1.7-2.3
				c-1.8,0-2.1,1.7-2.1,3.1v3.5h-0.7v-12.7H281.4z"/>
			<path class="st112" d="M288.9,183.6L288.9,183.6c0.3-0.6,0.8-1.1,1.6-1.1c0.3,0,0.5,0.1,0.8,0.2l-0.4,0.6
				c-0.2-0.1-0.3-0.1-0.5-0.1c-1.6,0-1.5,1.9-1.5,3v3.6h-0.7v-7.1h0.7V183.6z"/>
			<path class="st112" d="M299.2,186.3c0,2.1-1.6,3.7-3.7,3.7c-2,0-3.7-1.7-3.7-3.7c0-2,1.6-3.7,3.7-3.7
				C297.5,182.6,299.2,184.2,299.2,186.3z M292.5,186.3c0,1.6,1.3,3,2.9,3c1.7,0,3.1-1.3,3.1-3c0-1.8-1.3-3.1-3.1-3.1
				C293.7,183.2,292.5,184.6,292.5,186.3z"/>
			<path class="st112" d="M305.9,182.7v4.3c0,0.7,0,1.4-0.4,2c-0.5,0.6-1.3,1-2.1,1c-0.8,0-1.6-0.3-2.1-1c-0.4-0.6-0.4-1.3-0.4-2
				v-4.3h0.7v4c0,1.4,0.2,2.6,1.9,2.6c1.7,0,1.9-1.2,1.9-2.6v-4H305.9z"/>
			<path class="st112" d="M314.4,189.5c0,1.1,0,2.1-0.7,3c-0.7,0.9-1.7,1.4-2.8,1.4c-1.9,0-3.4-1.1-3.5-3h0.7
				c0.1,1.5,1.3,2.4,2.7,2.4c0.9,0,1.8-0.3,2.3-1.1c0.6-0.8,0.6-1.7,0.6-2.7v-0.9h0c-0.6,0.8-1.7,1.4-2.8,1.4
				c-2.1,0-3.4-1.7-3.4-3.7c0-2,1.5-3.7,3.5-3.7c1.2,0,2,0.5,2.7,1.4h0v-1.2h0.7V189.5z M308.2,186.2c0,1.6,1.1,3.1,2.8,3.1
				c1.8,0,2.8-1.5,2.8-3.2c0-1.6-1.1-2.9-2.8-2.9C309.3,183.2,308.2,184.7,308.2,186.2z"/>
			<path class="st112" d="M317.5,177.1v6.7h0c0.4-0.8,1.2-1.3,2.1-1.3c1.8,0,2.3,1.1,2.3,3v4.3h-0.7v-4.3c0-1.3-0.2-2.3-1.7-2.3
				c-1.8,0-2.1,1.7-2.1,3.1v3.5h-0.7v-12.7H317.5z"/>
			<path class="st112" d="M335.3,189.8h-0.7v-1.3h0c-0.5,0.9-1.7,1.4-2.7,1.4c-2.1,0-3.5-1.7-3.5-3.7s1.3-3.7,3.5-3.7
				c1.1,0,2.1,0.5,2.7,1.4h0v-1.2h0.7V189.8z M329.1,186.2c0,1.6,1.1,3.1,2.8,3.1c1.8,0,2.8-1.5,2.8-3.2c0-1.6-1.1-2.9-2.8-2.9
				C330.2,183.2,329.1,184.7,329.1,186.2z"/>
			<path class="st112" d="M3.8,208.6c-0.2-0.5-0.7-0.8-1.2-0.8c-0.6,0-1.2,0.5-1.2,1.1c0,1.7,3.5,0.9,3.5,3.4c0,1.3-1,2.2-2.3,2.2
				c-1.2,0-2.1-0.7-2.4-1.9l0.7-0.2c0.3,0.8,0.8,1.4,1.8,1.4c0.9,0,1.6-0.7,1.6-1.6c0-0.9-0.7-1.2-1.4-1.4c-1-0.4-2.1-0.8-2.1-2
				c0-1.1,0.9-1.8,1.9-1.8c0.7,0,1.5,0.5,1.8,1.1L3.8,208.6z"/>
			<path class="st112" d="M7.3,201.7v6.7h0c0.4-0.8,1.2-1.3,2.1-1.3c1.8,0,2.3,1.1,2.3,3v4.3h-0.7v-4.3c0-1.3-0.2-2.3-1.7-2.3
				c-1.8,0-2.1,1.7-2.1,3.1v3.5H6.6v-12.7H7.3z"/>
			<path class="st112" d="M20.8,210.8c0,2.1-1.6,3.7-3.7,3.7c-2,0-3.7-1.7-3.7-3.7c0-2,1.6-3.7,3.7-3.7
				C19.2,207.1,20.8,208.7,20.8,210.8z M14.1,210.8c0,1.6,1.3,3,2.9,3c1.7,0,3.1-1.3,3.1-3c0-1.8-1.3-3.1-3.1-3.1
				C15.4,207.8,14.1,209.2,14.1,210.8z"/>
			<path class="st112" d="M23.2,208.5L23.2,208.5c0.6-0.9,1.7-1.4,2.7-1.4c2.2,0,3.5,1.7,3.5,3.8s-1.3,3.6-3.5,3.6
				c-1.1,0-2.1-0.5-2.7-1.4h0v5.4h-0.7v-11.2h0.7V208.5z M23.1,211c0,1.7,1.1,2.9,2.8,2.9c1.7,0,2.8-1.4,2.8-3
				c0-1.6-1.1-3.1-2.8-3.1C24.1,207.8,23.1,209.3,23.1,211z"/>
			<path class="st112" d="M31.8,208.5L31.8,208.5c0.6-0.9,1.7-1.4,2.7-1.4c2.2,0,3.5,1.7,3.5,3.8s-1.3,3.6-3.5,3.6
				c-1.1,0-2.1-0.5-2.7-1.4h0v5.4h-0.7v-11.2h0.7V208.5z M31.7,211c0,1.7,1.1,2.9,2.8,2.9c1.7,0,2.8-1.4,2.8-3
				c0-1.6-1.1-3.1-2.8-3.1C32.7,207.8,31.7,209.3,31.7,211z"/>
			<path class="st112" d="M40.9,204.9c0,0.4-0.3,0.6-0.6,0.6s-0.6-0.3-0.6-0.6c0-0.3,0.3-0.6,0.6-0.6S40.9,204.6,40.9,204.9z
				 M40.6,214.4h-0.7v-7.1h0.7V214.4z"/>
			<path class="st112" d="M44,208.4L44,208.4c0.4-0.8,1.2-1.3,2.1-1.3c1.8,0,2.3,1.1,2.3,3v4.3h-0.7v-4.3c0-1.3-0.2-2.3-1.7-2.3
				c-1.8,0-2.1,1.7-2.1,3.1v3.5h-0.7v-7.1H44V208.4z"/>
			<path class="st112" d="M57.1,214c0,1.1,0,2.1-0.7,3c-0.7,0.9-1.7,1.4-2.8,1.4c-1.9,0-3.4-1.1-3.5-3h0.7c0.1,1.5,1.3,2.4,2.7,2.4
				c0.9,0,1.8-0.3,2.3-1.1c0.6-0.8,0.6-1.7,0.6-2.7v-0.9h0c-0.6,0.8-1.7,1.4-2.8,1.4c-2.1,0-3.4-1.7-3.4-3.7c0-2,1.5-3.7,3.5-3.7
				c1.2,0,2,0.5,2.7,1.4h0v-1.2h0.7V214z M50.9,210.8c0,1.6,1.1,3.1,2.8,3.1c1.8,0,2.8-1.5,2.8-3.2c0-1.6-1.1-2.9-2.8-2.9
				C52,207.8,50.9,209.2,50.9,210.8z"/>
			<path class="st112" d="M64.9,208.2L64.9,208.2c0.4-0.7,1.1-1,1.8-1c0.9,0,1.6,0.5,2,1.3c0.4-0.8,1.2-1.3,2.1-1.3
				c1.8,0,2.2,1.2,2.2,2.8v4.5h-0.7v-4.5c0-1.1-0.2-2.1-1.5-2.1c-1.5,0-1.8,1.3-1.8,2.5v4.1h-0.7V210c0-1.1-0.2-2.2-1.6-2.2
				c-1.5,0-1.8,1.5-1.8,2.7v3.9h-0.7v-7.1h0.7V208.2z"/>
			<path class="st112" d="M81.6,214.4h-0.7v-1.3h0c-0.5,0.9-1.7,1.4-2.7,1.4c-2.1,0-3.5-1.7-3.5-3.7s1.3-3.7,3.5-3.7
				c1.1,0,2.1,0.5,2.7,1.4h0v-1.2h0.7V214.4z M75.4,210.8c0,1.6,1.1,3.1,2.8,3.1c1.8,0,2.8-1.5,2.8-3.2c0-1.6-1.1-2.9-2.8-2.9
				C76.5,207.8,75.4,209.2,75.4,210.8z"/>
			<path class="st112" d="M84.7,214.4H84v-12.7h0.7V214.4z"/>
			<path class="st112" d="M87.7,214.4H87v-12.7h0.7V214.4z"/>
			<path class="st112" d="M96.9,213.1l2.5-6.2l2.5,6.2l2.5-5.8h0.7l-3.2,7.5l-2.5-6.1l-2.5,6.1l-3.2-7.5h0.7L96.9,213.1z"/>
			<path class="st112" d="M107.6,204.9c0,0.4-0.3,0.6-0.6,0.6s-0.6-0.3-0.6-0.6c0-0.3,0.3-0.6,0.6-0.6S107.6,204.6,107.6,204.9z
				 M107.3,214.4h-0.7v-7.1h0.7V214.4z"/>
			<path class="st112" d="M110.7,214.4H110v-6.4h-0.8v-0.6h0.8v-2.5h0.7v2.5h1.2v0.6h-1.2V214.4z"/>
			<path class="st112" d="M113.9,201.7v6.7h0c0.4-0.8,1.2-1.3,2.1-1.3c1.8,0,2.3,1.1,2.3,3v4.3h-0.7v-4.3c0-1.3-0.2-2.3-1.7-2.3
				c-1.8,0-2.1,1.7-2.1,3.1v3.5h-0.7v-12.7H113.9z"/>
			<path class="st112" d="M127.4,210.8c0,2.1-1.6,3.7-3.7,3.7c-2,0-3.7-1.7-3.7-3.7c0-2,1.6-3.7,3.7-3.7
				C125.8,207.1,127.4,208.7,127.4,210.8z M120.7,210.8c0,1.6,1.3,3,2.9,3c1.7,0,3.1-1.3,3.1-3c0-1.8-1.3-3.1-3.1-3.1
				C122,207.8,120.7,209.2,120.7,210.8z"/>
			<path class="st112" d="M134.1,207.3v4.3c0,0.7,0,1.4-0.4,2c-0.5,0.6-1.3,1-2.1,1c-0.8,0-1.6-0.3-2.1-1c-0.4-0.6-0.4-1.3-0.4-2
				v-4.3h0.7v4c0,1.4,0.2,2.6,1.9,2.6c1.7,0,1.9-1.2,1.9-2.6v-4H134.1z"/>
			<path class="st112" d="M137.1,214.4h-0.7v-6.4h-0.8v-0.6h0.8v-2.5h0.7v2.5h1.2v0.6h-1.2V214.4z"/>
			<path class="st112" d="M145.1,214.4h-0.7v-6.4h-0.8v-0.6h0.8v-2.5h0.7v2.5h1.2v0.6h-1.2V214.4z"/>
			<path class="st112" d="M153.7,214.4H153v-1.3h0c-0.5,0.9-1.7,1.4-2.7,1.4c-2.1,0-3.5-1.7-3.5-3.7s1.3-3.7,3.5-3.7
				c1.1,0,2.1,0.5,2.7,1.4h0v-1.2h0.7V214.4z M147.5,210.8c0,1.6,1.1,3.1,2.8,3.1c1.8,0,2.8-1.5,2.8-3.2c0-1.6-1.1-2.9-2.8-2.9
				C148.6,207.8,147.5,209.2,147.5,210.8z"/>
			<path class="st112" d="M156.8,210.3l2.9-3h0.9l-3,3.1l4,4h-0.9l-3.5-3.5l-0.4,0.4v3.1h-0.7v-12.7h0.7V210.3z"/>
			<path class="st112" d="M163.9,204.9c0,0.4-0.3,0.6-0.6,0.6s-0.6-0.3-0.6-0.6c0-0.3,0.3-0.6,0.6-0.6S163.9,204.6,163.9,204.9z
				 M163.6,214.4h-0.7v-7.1h0.7V214.4z"/>
			<path class="st112" d="M166.9,208.4L166.9,208.4c0.4-0.8,1.2-1.3,2.1-1.3c1.8,0,2.3,1.1,2.3,3v4.3h-0.7v-4.3
				c0-1.3-0.2-2.3-1.7-2.3c-1.8,0-2.1,1.7-2.1,3.1v3.5h-0.7v-7.1h0.7V208.4z"/>
			<path class="st112" d="M180.1,214c0,1.1,0,2.1-0.7,3c-0.7,0.9-1.7,1.4-2.8,1.4c-1.9,0-3.4-1.1-3.5-3h0.7c0.1,1.5,1.3,2.4,2.7,2.4
				c0.9,0,1.8-0.3,2.3-1.1c0.6-0.8,0.6-1.7,0.6-2.7v-0.9h0c-0.6,0.8-1.7,1.4-2.8,1.4c-2.1,0-3.4-1.7-3.4-3.7c0-2,1.5-3.7,3.5-3.7
				c1.2,0,2,0.5,2.7,1.4h0v-1.2h0.7V214z M173.9,210.8c0,1.6,1.1,3.1,2.8,3.1c1.8,0,2.8-1.5,2.8-3.2c0-1.6-1.1-2.9-2.8-2.9
				C175,207.8,173.9,209.2,173.9,210.8z"/>
			<path class="st112" d="M187.9,208.5L187.9,208.5c0.6-0.9,1.7-1.4,2.7-1.4c2.2,0,3.5,1.7,3.5,3.8s-1.3,3.6-3.5,3.6
				c-1.1,0-2.1-0.5-2.7-1.4h0v5.4h-0.7v-11.2h0.7V208.5z M187.9,211c0,1.7,1.1,2.9,2.8,2.9c1.7,0,2.8-1.4,2.8-3
				c0-1.6-1.1-3.1-2.8-3.1C188.8,207.8,187.9,209.3,187.9,211z"/>
			<path class="st112" d="M197.1,204.9c0,0.4-0.3,0.6-0.6,0.6s-0.6-0.3-0.6-0.6c0-0.3,0.3-0.6,0.6-0.6S197.1,204.6,197.1,204.9z
				 M196.8,214.4h-0.7v-7.1h0.7V214.4z"/>
			<path class="st112" d="M204.8,208.9c-0.7-0.7-1.5-1.2-2.5-1.2c-1.7,0-2.9,1.4-2.9,3s1.2,3.1,2.9,3.1c1,0,2-0.5,2.6-1.3v0.9
				c-0.7,0.6-1.6,1-2.6,1c-2.1,0-3.6-1.6-3.6-3.7c0-2.1,1.6-3.7,3.7-3.7c0.9,0,1.8,0.3,2.5,0.9V208.9z"/>
			<path class="st112" d="M207.5,214.4h-0.7v-6.4H206v-0.6h0.8v-2.5h0.7v2.5h1.2v0.6h-1.2V214.4z"/>
			<path class="st112" d="M214.9,207.3v4.3c0,0.7,0,1.4-0.4,2c-0.5,0.6-1.3,1-2.1,1c-0.8,0-1.6-0.3-2.1-1c-0.4-0.6-0.4-1.3-0.4-2
				v-4.3h0.7v4c0,1.4,0.2,2.6,1.9,2.6c1.7,0,1.9-1.2,1.9-2.6v-4H214.9z"/>
			<path class="st112" d="M217.9,208.2L217.9,208.2c0.3-0.6,0.8-1.1,1.6-1.1c0.3,0,0.5,0.1,0.8,0.2l-0.4,0.6
				c-0.2-0.1-0.3-0.1-0.5-0.1c-1.6,0-1.5,1.9-1.5,3v3.6h-0.7v-7.1h0.7V208.2z"/>
			<path class="st112" d="M221.4,210.9c0,1.8,1.2,3,2.8,3c1.1,0,2-0.7,2.5-1.6l0.6,0.3c-0.6,1.2-1.8,1.9-3.2,1.9
				c-2.1,0-3.4-1.7-3.4-3.7c0-2,1.4-3.7,3.4-3.7c2.1,0,3.4,1.7,3.4,3.8H221.4z M226.9,210.2c-0.2-1.3-1.2-2.5-2.7-2.5
				c-1.4,0-2.6,1.1-2.8,2.5H226.9z"/>
			<path class="st112" d="M232.2,208.6c-0.2-0.5-0.7-0.8-1.2-0.8c-0.6,0-1.2,0.5-1.2,1.1c0,1.7,3.5,0.9,3.5,3.4c0,1.3-1,2.2-2.3,2.2
				c-1.2,0-2.1-0.7-2.4-1.9l0.7-0.2c0.3,0.8,0.8,1.4,1.8,1.4c0.9,0,1.6-0.7,1.6-1.6c0-0.9-0.7-1.2-1.4-1.4c-1-0.4-2.1-0.8-2.1-2
				c0-1.1,0.9-1.8,1.9-1.8c0.7,0,1.5,0.5,1.8,1.1L232.2,208.6z"/>
			<path class="st112" d="M246.5,210.8c0,2.1-1.6,3.7-3.7,3.7c-2,0-3.7-1.7-3.7-3.7c0-2,1.6-3.7,3.7-3.7
				C244.9,207.1,246.5,208.7,246.5,210.8z M239.8,210.8c0,1.6,1.3,3,2.9,3c1.7,0,3.1-1.3,3.1-3c0-1.8-1.3-3.1-3.1-3.1
				C241,207.8,239.8,209.2,239.8,210.8z"/>
			<path class="st112" d="M248.9,214.4h-0.7v-6.4h-0.8v-0.6h0.8v-3.2c0-0.5,0-1.3,0.3-1.7c0.3-0.6,0.9-0.9,1.6-0.9
				c0.2,0,0.4,0,0.6,0.1v0.6c-0.2,0-0.4-0.1-0.6-0.1c-1.2,0-1.2,1.2-1.2,2.1v3h1.8v0.6h-1.8V214.4z"/>
			<path class="st112" d="M256.6,210.9c0,1.8,1.2,3,2.8,3c1.1,0,2-0.7,2.5-1.6l0.6,0.3c-0.6,1.2-1.8,1.9-3.2,1.9
				c-2.1,0-3.4-1.7-3.4-3.7c0-2,1.4-3.7,3.4-3.7c2.1,0,3.4,1.7,3.4,3.8H256.6z M262.1,210.2c-0.2-1.3-1.2-2.5-2.7-2.5
				c-1.4,0-2.6,1.1-2.8,2.5H262.1z"/>
			<path class="st112" d="M266.6,213.1l2.5-5.8h0.7l-3.2,7.5l-3.3-7.5h0.7L266.6,213.1z"/>
			<path class="st112" d="M271.1,210.9c0,1.8,1.2,3,2.8,3c1.1,0,2-0.7,2.5-1.6l0.6,0.3c-0.6,1.2-1.8,1.9-3.2,1.9
				c-2.1,0-3.4-1.7-3.4-3.7c0-2,1.4-3.7,3.4-3.7c2.1,0,3.4,1.7,3.4,3.8H271.1z M276.6,210.2c-0.2-1.3-1.2-2.5-2.7-2.5
				c-1.4,0-2.6,1.1-2.8,2.5H276.6z"/>
			<path class="st112" d="M279.6,208.2L279.6,208.2c0.3-0.6,0.8-1.1,1.6-1.1c0.3,0,0.5,0.1,0.8,0.2l-0.4,0.6
				c-0.2-0.1-0.3-0.1-0.5-0.1c-1.6,0-1.5,1.9-1.5,3v3.6h-0.7v-7.1h0.7V208.2z"/>
			<path class="st112" d="M282.5,207.3h0.7l3,6.4l2.7-6.4h0.7l-4.8,11.2h-0.7l1.7-4L282.5,207.3z"/>
			<path class="st112" d="M296.3,214.4h-0.7v-12.7h0.7V214.4z"/>
			<path class="st112" d="M305.4,210.8c0,2.1-1.6,3.7-3.7,3.7c-2,0-3.7-1.7-3.7-3.7c0-2,1.6-3.7,3.7-3.7
				C303.7,207.1,305.4,208.7,305.4,210.8z M298.7,210.8c0,1.6,1.3,3,2.9,3c1.7,0,3.1-1.3,3.1-3c0-1.8-1.3-3.1-3.1-3.1
				C299.9,207.8,298.7,209.2,298.7,210.8z"/>
			<path class="st112" d="M313.4,214c0,1.1,0,2.1-0.7,3c-0.7,0.9-1.7,1.4-2.8,1.4c-1.9,0-3.4-1.1-3.5-3h0.7c0.1,1.5,1.3,2.4,2.7,2.4
				c0.9,0,1.8-0.3,2.3-1.1c0.6-0.8,0.6-1.7,0.6-2.7v-0.9h0c-0.6,0.8-1.7,1.4-2.8,1.4c-2.1,0-3.4-1.7-3.4-3.7c0-2,1.5-3.7,3.5-3.7
				c1.2,0,2,0.5,2.7,1.4h0v-1.2h0.7V214z M307.2,210.8c0,1.6,1.1,3.1,2.8,3.1c1.8,0,2.8-1.5,2.8-3.2c0-1.6-1.1-2.9-2.8-2.9
				C308.3,207.8,307.2,209.2,307.2,210.8z"/>
			<path class="st112" d="M322.5,210.8c0,2.1-1.6,3.7-3.7,3.7c-2,0-3.7-1.7-3.7-3.7c0-2,1.6-3.7,3.7-3.7
				C320.8,207.1,322.5,208.7,322.5,210.8z M315.8,210.8c0,1.6,1.3,3,2.9,3c1.7,0,3.1-1.3,3.1-3c0-1.8-1.3-3.1-3.1-3.1
				C317,207.8,315.8,209.2,315.8,210.8z"/>
			<path class="st112" d="M326,213.4l-1.3,3.5l-0.5-0.2l1-3.5L326,213.4z"/>
			<path class="st112" d="M6.3,233.5c-0.7-0.7-1.5-1.2-2.5-1.2c-1.7,0-2.9,1.4-2.9,3s1.2,3.1,2.9,3.1c1,0,2-0.5,2.6-1.3v0.9
				c-0.7,0.6-1.6,1-2.6,1c-2.1,0-3.6-1.6-3.6-3.7c0-2.1,1.6-3.7,3.7-3.7c0.9,0,1.8,0.3,2.5,0.9V233.5z"/>
			<path class="st112" d="M8.8,238.9H8.1v-12.7h0.7V238.9z"/>
			<path class="st112" d="M17.9,235.4c0,2.1-1.6,3.7-3.7,3.7c-2,0-3.7-1.7-3.7-3.7c0-2,1.6-3.7,3.7-3.7
				C16.3,231.7,17.9,233.3,17.9,235.4z M11.2,235.4c0,1.6,1.3,3,2.9,3c1.7,0,3.1-1.3,3.1-3c0-1.8-1.3-3.1-3.1-3.1
				C12.5,232.3,11.2,233.7,11.2,235.4z"/>
			<path class="st112" d="M20.4,238.9h-0.7v-6.4h-0.8v-0.6h0.8v-2.5h0.7v2.5h1.2v0.6h-1.2V238.9z"/>
			<path class="st112" d="M23.5,226.3v6.7h0c0.4-0.8,1.2-1.3,2.1-1.3c1.8,0,2.3,1.1,2.3,3v4.3h-0.7v-4.3c0-1.3-0.2-2.3-1.7-2.3
				c-1.8,0-2.1,1.7-2.1,3.1v3.5h-0.7v-12.7H23.5z"/>
			<path class="st112" d="M31.6,229.5c0,0.4-0.3,0.6-0.6,0.6s-0.6-0.3-0.6-0.6c0-0.3,0.3-0.6,0.6-0.6S31.6,229.1,31.6,229.5z
				 M31.3,238.9h-0.7v-7.1h0.7V238.9z"/>
			<path class="st112" d="M34.6,232.9L34.6,232.9c0.4-0.8,1.2-1.3,2.1-1.3c1.8,0,2.3,1.1,2.3,3v4.3h-0.7v-4.3c0-1.3-0.2-2.3-1.7-2.3
				c-1.8,0-2.1,1.7-2.1,3.1v3.5h-0.7v-7.1h0.7V232.9z"/>
			<path class="st112" d="M47.8,238.6c0,1.1,0,2.1-0.7,3c-0.7,0.9-1.7,1.4-2.8,1.4c-1.9,0-3.4-1.1-3.5-3h0.7
				c0.1,1.5,1.3,2.4,2.7,2.4c0.9,0,1.8-0.3,2.3-1.1c0.6-0.8,0.6-1.7,0.6-2.7v-0.9h0c-0.6,0.8-1.7,1.4-2.8,1.4
				c-2.1,0-3.4-1.7-3.4-3.7c0-2,1.5-3.7,3.5-3.7c1.2,0,2,0.5,2.7,1.4h0v-1.2h0.7V238.6z M41.5,235.3c0,1.6,1.1,3.1,2.8,3.1
				c1.8,0,2.8-1.5,2.8-3.2c0-1.6-1.1-2.9-2.8-2.9C42.7,232.3,41.5,233.8,41.5,235.3z"/>
			<path class="st112" d="M55.6,233.1L55.6,233.1c0.6-0.9,1.7-1.4,2.7-1.4c2.2,0,3.5,1.7,3.5,3.8s-1.3,3.6-3.5,3.6
				c-1.1,0-2.1-0.5-2.7-1.4h0v5.4h-0.7v-11.2h0.7V233.1z M55.5,235.5c0,1.7,1.1,2.9,2.8,2.9c1.7,0,2.8-1.4,2.8-3
				c0-1.6-1.1-3.1-2.8-3.1C56.5,232.3,55.5,233.8,55.5,235.5z"/>
			<path class="st112" d="M64.2,232.7L64.2,232.7c0.3-0.6,0.8-1.1,1.6-1.1c0.3,0,0.5,0.1,0.8,0.2l-0.4,0.6c-0.2-0.1-0.3-0.1-0.5-0.1
				c-1.6,0-1.5,1.9-1.5,3v3.6h-0.7v-7.1h0.7V232.7z"/>
			<path class="st112" d="M69,229.5c0,0.4-0.3,0.6-0.6,0.6s-0.6-0.3-0.6-0.6c0-0.3,0.3-0.6,0.6-0.6S69,229.1,69,229.5z M68.7,238.9
				H68v-7.1h0.7V238.9z"/>
			<path class="st112" d="M72,232.9L72,232.9c0.4-0.8,1.2-1.3,2.1-1.3c1.8,0,2.3,1.1,2.3,3v4.3h-0.7v-4.3c0-1.3-0.2-2.3-1.7-2.3
				c-1.8,0-2.1,1.7-2.1,3.1v3.5h-0.7v-7.1H72V232.9z"/>
			<path class="st112" d="M79.6,238.9h-0.7v-6.4h-0.8v-0.6h0.8v-2.5h0.7v2.5h1.2v0.6h-1.2V238.9z"/>
			<path class="st112" d="M93.1,238.9h-0.7v-1.3h0c-0.5,0.9-1.7,1.4-2.7,1.4c-2.1,0-3.5-1.7-3.5-3.7s1.3-3.7,3.5-3.7
				c1.1,0,2.1,0.5,2.7,1.4h0v-1.2h0.7V238.9z M86.8,235.3c0,1.6,1.1,3.1,2.8,3.1c1.8,0,2.8-1.5,2.8-3.2c0-1.6-1.1-2.9-2.8-2.9
				C87.9,232.3,86.8,233.8,86.8,235.3z"/>
			<path class="st112" d="M96.1,232.9L96.1,232.9c0.4-0.8,1.2-1.3,2.1-1.3c1.8,0,2.3,1.1,2.3,3v4.3h-0.7v-4.3c0-1.3-0.2-2.3-1.7-2.3
				c-1.8,0-2.1,1.7-2.1,3.1v3.5h-0.7v-7.1h0.7V232.9z"/>
			<path class="st112" d="M108.5,237.6L108.5,237.6c-0.6,0.9-1.7,1.4-2.7,1.4c-2.1,0-3.5-1.7-3.5-3.7s1.3-3.7,3.5-3.7
				c1.1,0,2.1,0.5,2.7,1.4h0v-6.8h0.7v12.7h-0.7V237.6z M108.5,235.2c0-1.6-1.1-2.9-2.8-2.9c-1.6,0-2.7,1.5-2.7,3
				c0,1.6,1.1,3.1,2.8,3.1C107.5,238.4,108.5,237,108.5,235.2z"/>
			<path class="st112" d="M119.3,233.1c-0.2-0.5-0.7-0.8-1.2-0.8c-0.6,0-1.2,0.5-1.2,1.1c0,1.7,3.5,0.9,3.5,3.4c0,1.3-1,2.2-2.3,2.2
				c-1.2,0-2.1-0.7-2.4-1.9l0.7-0.2c0.3,0.8,0.8,1.4,1.8,1.4c0.9,0,1.6-0.7,1.6-1.6c0-0.9-0.7-1.2-1.4-1.4c-1-0.4-2.1-0.8-2.1-2
				c0-1.1,0.9-1.8,1.9-1.8c0.7,0,1.5,0.5,1.8,1.1L119.3,233.1z"/>
			<path class="st112" d="M128.3,238.9h-0.7v-1.3h0c-0.5,0.9-1.7,1.4-2.7,1.4c-2.1,0-3.5-1.7-3.5-3.7s1.3-3.7,3.5-3.7
				c1.1,0,2.1,0.5,2.7,1.4h0v-1.2h0.7V238.9z M122,235.3c0,1.6,1.1,3.1,2.8,3.1c1.8,0,2.8-1.5,2.8-3.2c0-1.6-1.1-2.9-2.8-2.9
				C123.2,232.3,122,233.8,122,235.3z"/>
			<path class="st112" d="M131.3,232.9L131.3,232.9c0.4-0.8,1.2-1.3,2.1-1.3c1.8,0,2.3,1.1,2.3,3v4.3h-0.7v-4.3
				c0-1.3-0.2-2.3-1.7-2.3c-1.8,0-2.1,1.7-2.1,3.1v3.5h-0.7v-7.1h0.7V232.9z"/>
			<path class="st112" d="M143.7,237.6L143.7,237.6c-0.6,0.9-1.7,1.4-2.7,1.4c-2.1,0-3.5-1.7-3.5-3.7s1.3-3.7,3.5-3.7
				c1.1,0,2.1,0.5,2.7,1.4h0v-6.8h0.7v12.7h-0.7V237.6z M143.7,235.2c0-1.6-1.1-2.9-2.8-2.9c-1.6,0-2.7,1.5-2.7,3
				c0,1.6,1.1,3.1,2.8,3.1C142.8,238.4,143.7,237,143.7,235.2z"/>
			<path class="st112" d="M148.9,237.6l2.5-6.2l2.5,6.2l2.5-5.8h0.7l-3.2,7.5l-2.5-6.1l-2.5,6.1l-3.2-7.5h0.7L148.9,237.6z"/>
			<path class="st112" d="M159.5,229.5c0,0.4-0.3,0.6-0.6,0.6s-0.6-0.3-0.6-0.6c0-0.3,0.3-0.6,0.6-0.6S159.5,229.1,159.5,229.5z
				 M159.2,238.9h-0.7v-7.1h0.7V238.9z"/>
			<path class="st112" d="M167.3,233.5c-0.7-0.7-1.5-1.2-2.5-1.2c-1.7,0-2.9,1.4-2.9,3s1.2,3.1,2.9,3.1c1,0,2-0.5,2.6-1.3v0.9
				c-0.7,0.6-1.6,1-2.6,1c-2.1,0-3.6-1.6-3.6-3.7c0-2.1,1.6-3.7,3.7-3.7c0.9,0,1.8,0.3,2.5,0.9V233.5z"/>
			<path class="st112" d="M169.9,226.3v6.7h0c0.4-0.8,1.2-1.3,2.1-1.3c1.8,0,2.3,1.1,2.3,3v4.3h-0.7v-4.3c0-1.3-0.2-2.3-1.7-2.3
				c-1.8,0-2.1,1.7-2.1,3.1v3.5h-0.7v-12.7H169.9z"/>
			<path class="st112" d="M181.5,226.3h0.7v6.8h0c0.6-0.9,1.6-1.4,2.7-1.4c2.1,0,3.5,1.6,3.5,3.7s-1.4,3.7-3.5,3.7
				c-1,0-2.2-0.5-2.7-1.4h0v1.3h-0.7V226.3z M187.7,235.3c0-1.6-1.1-3-2.8-3c-1.8,0-2.8,1.3-2.8,3c0,1.7,1,3.1,2.8,3.1
				C186.7,238.4,187.7,237,187.7,235.3z"/>
			<path class="st112" d="M196.8,235.4c0,2.1-1.6,3.7-3.7,3.7c-2,0-3.7-1.7-3.7-3.7c0-2,1.6-3.7,3.7-3.7
				C195.2,231.7,196.8,233.3,196.8,235.4z M190.1,235.4c0,1.6,1.3,3,2.9,3c1.7,0,3.1-1.3,3.1-3c0-1.8-1.3-3.1-3.1-3.1
				C191.3,232.3,190.1,233.7,190.1,235.4z"/>
			<path class="st112" d="M204.7,238.9H204v-1.3h0c-0.5,0.9-1.7,1.4-2.7,1.4c-2.1,0-3.5-1.7-3.5-3.7s1.3-3.7,3.5-3.7
				c1.1,0,2.1,0.5,2.7,1.4h0v-1.2h0.7V238.9z M198.5,235.3c0,1.6,1.1,3.1,2.8,3.1c1.8,0,2.8-1.5,2.8-3.2c0-1.6-1.1-2.9-2.8-2.9
				C199.6,232.3,198.5,233.8,198.5,235.3z"/>
			<path class="st112" d="M207.8,232.7L207.8,232.7c0.3-0.6,0.8-1.1,1.6-1.1c0.3,0,0.5,0.1,0.8,0.2l-0.4,0.6
				c-0.2-0.1-0.3-0.1-0.5-0.1c-1.6,0-1.5,1.9-1.5,3v3.6h-0.7v-7.1h0.7V232.7z"/>
			<path class="st112" d="M216.9,237.6L216.9,237.6c-0.6,0.9-1.7,1.4-2.7,1.4c-2.1,0-3.5-1.7-3.5-3.7s1.3-3.7,3.5-3.7
				c1.1,0,2.1,0.5,2.7,1.4h0v-6.8h0.7v12.7h-0.7V237.6z M216.9,235.2c0-1.6-1.1-2.9-2.8-2.9c-1.6,0-2.7,1.5-2.7,3
				c0,1.6,1.1,3.1,2.8,3.1C215.9,238.4,216.9,237,216.9,235.2z"/>
			<path class="st112" d="M225.4,226.3v6.7h0c0.4-0.8,1.2-1.3,2.1-1.3c1.8,0,2.3,1.1,2.3,3v4.3h-0.7v-4.3c0-1.3-0.2-2.3-1.7-2.3
				c-1.8,0-2.1,1.7-2.1,3.1v3.5h-0.7v-12.7H225.4z"/>
			<path class="st112" d="M232.2,235.4c0,1.8,1.2,3,2.8,3c1.1,0,2-0.7,2.5-1.6l0.6,0.3c-0.6,1.2-1.8,1.9-3.2,1.9
				c-2.1,0-3.4-1.7-3.4-3.7c0-2,1.4-3.7,3.4-3.7c2.1,0,3.4,1.7,3.4,3.8H232.2z M237.7,234.8c-0.2-1.3-1.2-2.5-2.7-2.5
				c-1.4,0-2.6,1.1-2.8,2.5H237.7z"/>
			<path class="st112" d="M247.8,233.1c-0.2-0.5-0.7-0.8-1.2-0.8c-0.6,0-1.2,0.5-1.2,1.1c0,1.7,3.5,0.9,3.5,3.4c0,1.3-1,2.2-2.3,2.2
				c-1.2,0-2.1-0.7-2.4-1.9l0.7-0.2c0.3,0.8,0.8,1.4,1.8,1.4c0.9,0,1.6-0.7,1.6-1.6c0-0.9-0.7-1.2-1.4-1.4c-1-0.4-2.1-0.8-2.1-2
				c0-1.1,0.9-1.8,1.9-1.8c0.7,0,1.5,0.5,1.8,1.1L247.8,233.1z"/>
			<path class="st112" d="M250.5,235.4c0,1.8,1.2,3,2.8,3c1.1,0,2-0.7,2.5-1.6l0.6,0.3c-0.6,1.2-1.8,1.9-3.2,1.9
				c-2.1,0-3.4-1.7-3.4-3.7c0-2,1.4-3.7,3.4-3.7c2.1,0,3.4,1.7,3.4,3.8H250.5z M256,234.8c-0.2-1.3-1.2-2.5-2.7-2.5
				c-1.4,0-2.6,1.1-2.8,2.5H256z"/>
			<path class="st112" d="M258.4,235.4c0,1.8,1.2,3,2.8,3c1.1,0,2-0.7,2.5-1.6l0.6,0.3c-0.6,1.2-1.8,1.9-3.2,1.9
				c-2.1,0-3.4-1.7-3.4-3.7c0-2,1.4-3.7,3.4-3.7c2.1,0,3.4,1.7,3.4,3.8H258.4z M263.8,234.8c-0.2-1.3-1.2-2.5-2.7-2.5
				c-1.4,0-2.6,1.1-2.8,2.5H263.8z"/>
			<path class="st112" d="M269.2,233.1c-0.2-0.5-0.7-0.8-1.2-0.8c-0.6,0-1.2,0.5-1.2,1.1c0,1.7,3.5,0.9,3.5,3.4c0,1.3-1,2.2-2.3,2.2
				c-1.2,0-2.1-0.7-2.4-1.9l0.7-0.2c0.3,0.8,0.8,1.4,1.8,1.4c0.9,0,1.6-0.7,1.6-1.6c0-0.9-0.7-1.2-1.4-1.4c-1-0.4-2.1-0.8-2.1-2
				c0-1.1,0.9-1.8,1.9-1.8c0.7,0,1.5,0.5,1.8,1.1L269.2,233.1z"/>
			<path class="st112" d="M273.8,238.4c0,0.4-0.3,0.6-0.6,0.6c-0.4,0-0.6-0.3-0.6-0.6c0-0.4,0.3-0.6,0.6-0.6
				C273.5,237.8,273.8,238.1,273.8,238.4z"/>
		</g>
		<g>
			<path class="st111" d="M506,47.3l-1.7,4.4h-6.9l9.6-25.1h7.1l9.4,25.1h-6.9l-1.6-4.4H506z M510.5,34.3L510.5,34.3l-2.8,8h5.4
				L510.5,34.3z"/>
			<path class="st111" d="M551.4,51.7h-6v-1.9h-0.1c-1.1,1.7-3.2,2.5-5.2,2.5c-5.1,0-8.6-4.2-8.6-9.1S535,34,540,34
				c2,0,4,0.7,5.3,2.2v-1.7h6V51.7z M537.7,43.1c0,2.2,1.4,3.8,3.9,3.8c2.5,0,3.9-1.7,3.9-3.8c0-2.1-1.4-3.9-3.9-3.9
				C539.2,39.3,537.7,41.1,537.7,43.1z"/>
			<path class="st111" d="M581.5,51.7V26.6h9.3c4.5,0,7.4,1.7,7.4,6.5c0,2.3-0.7,4.1-2.8,5.1v0.1c3.6,0.5,5.1,2.9,5.1,6.4
				c0,5.3-4.5,7-9.1,7H581.5z M588,36.4h0.7c1.7,0,3.5-0.3,3.5-2.4c0-2.3-2-2.4-3.8-2.4H588V36.4z M588,46.7h0.8
				c1.9,0,5.2,0.1,5.2-2.7c0-3-3.2-2.7-5.4-2.7H588V46.7z"/>
			<path class="st111" d="M611,24.1h6v12.2c1.3-1.5,3.3-2.2,5.3-2.2c5.1,0,8.5,4.2,8.5,9.1c0,4.9-3.5,9.1-8.6,9.1
				c-2,0-4.1-0.8-5.2-2.5h-0.1v1.9h-6V24.1z M616.9,43.1c0,2.2,1.4,3.8,3.9,3.8s3.9-1.7,3.9-3.8c0-2.1-1.4-3.9-3.9-3.9
				S616.9,41.1,616.9,43.1z"/>
			<path class="st111" d="M677.9,35c-1.3-1.8-3.5-2.8-5.7-2.8c-4,0-6.7,3.1-6.7,6.9c0,4,2.7,6.8,6.8,6.8c2.1,0,4.3-1,5.6-2.7v7.8
				c-2.2,0.7-3.7,1.2-5.8,1.2c-3.5,0-6.8-1.3-9.4-3.7c-2.8-2.5-4-5.7-4-9.5c0-3.4,1.3-6.7,3.7-9.2c2.5-2.5,6-4.1,9.5-4.1
				c2.1,0,4,0.5,5.9,1.3V35z"/>
			<path class="st111" d="M701.4,40.2c-0.9-0.7-2-1.2-3.1-1.2c-2.3,0-4.2,1.8-4.2,4.2c0,2.5,1.8,4.2,4.3,4.2c1.1,0,2.2-0.4,3-1.2
				v5.1c-1.3,0.7-2.8,1-4.3,1c-5.1,0-9.3-3.8-9.3-8.9c0-5.5,4.2-9.3,9.5-9.3c1.4,0,2.8,0.3,4,1V40.2z"/>
			<path class="st111" d="M502.8,71.3v-5.5h10.1v25.1h-6.5V71.3H502.8z"/>
			<path class="st111" d="M564.9,85.3v5.5h-20.1L555,79.7c1.5-1.6,2.9-3.9,2.9-6.1c0-1.6-1.1-3.3-2.9-3.3c-1.8,0-2.7,1.4-2.7,3.1
				c0,0.3,0,0.7,0.1,1.1h-7.2c0.2-5.8,3.9-9.6,9.8-9.6c5.3,0,9.7,3.5,9.7,8.9c0,3.6-1.5,5.7-4.1,8l-3.9,3.6H564.9z"/>
			<path class="st111" d="M592.2,73c0.3-2.6,1.3-4.6,2.9-6c1.6-1.4,3.8-2.2,6.4-2.2c4.5,0,8,2.6,8,7.3c0,2-0.8,4.1-2.6,5.2
				c2.7,0.7,4.1,3.8,4.1,6.3c0,5.5-4.8,8.3-9.7,8.3c-2.9,0-5.5-0.8-7.5-2.8c-1.5-1.5-2.9-4.1-2.9-6.3h6.6c0,2,1.4,3.6,3.5,3.6
				c2,0,3.5-1.3,3.5-3.4c0-1.9-1.6-3.4-3.5-3.4c-0.4,0-0.8,0.1-1.1,0.2v-4.4h0.7c1.7,0,2.9-1,2.9-2.8c0-1.5-1.1-2.5-2.6-2.5
				c-1.7,0-2.7,1.3-2.7,2.9H592.2z"/>
			<path class="st111" d="M657.7,80.7v5h-3v5.2h-6v-5.2h-12.2v-4.2l9.7-15.7h8.5v14.9H657.7z M648.6,71L648.6,71l-5.9,9.6h5.9V71z"
				/>
			<path class="st111" d="M692.2,71.3l-0.4,2.9l2.1-0.2c5.1-0.4,8.9,3.8,8.9,9c0,2.6-1.2,5.1-3.2,6.8c-2,1.6-4.8,2.1-7.3,2.1
				c-2.9,0-5.7-0.7-8.2-2.3l1-6.1c1.9,1.7,4.4,2.9,7,2.9c2.1,0,4-1.5,4-3.7c0-3-2.9-4.3-5.5-4.3c-1.7,0-3.3,0.3-4.8,1l2.2-13.6h13
				v5.5H692.2z"/>
		</g>
		<g>
			<path class="st111" d="M507.3,188.2l-3.4,8.2h-1.6l10.5-25.9l10.5,25.9h-1.6l-3.4-8.2H507.3z M512.9,174.6l-4.9,12.1h9.8
				L512.9,174.6z"/>
			<path class="st111" d="M548.2,196.4h-1.5v-2.8h-0.1c-1.1,2-3.6,3.1-5.8,3.1c-4.7,0-7.6-3.6-7.6-8.1c0-4.5,2.9-7.9,7.5-7.9
				c2.4,0,4.6,1.1,5.9,3h0.1v-2.7h1.5V196.4z M534.7,188.6c0,3.5,2.3,6.7,6,6.7c3.9,0,6-3.2,6-6.9c0-3.6-2.4-6.3-6.1-6.3
				C537.1,182.1,534.7,185.3,534.7,188.6z"/>
			<path class="st111" d="M581,196.4v-25.1h5c1.9,0,3.7,0.1,5.2,1.5c1.5,1.3,2.1,3.2,2.1,5.2c0,2.3-0.9,4-2.9,5.1
				c3.1,0.6,5.2,3.1,5.2,6.3c0,2-0.8,3.9-2.3,5.2c-1.8,1.5-3.6,1.8-5.8,1.8H581z M582.6,182.7h2.8c1.7,0,3.1,0.1,4.5-0.9
				s1.9-2.3,1.9-4c0-1.6-0.6-3.2-2.1-4.1c-1.3-0.8-2.8-0.8-4.3-0.8h-2.8V182.7z M582.6,194.9h3.8c1.8,0,3.6,0.1,5.1-1
				c1.5-1,2.5-2.6,2.5-4.5c0-1.8-0.9-3.7-2.6-4.5c-1.5-0.8-3.6-0.8-5.3-0.8h-3.5V194.9z"/>
			<path class="st111" d="M608.3,169h1.5v14.7h0.1c1.3-1.9,3.6-3,5.9-3c4.6,0,7.5,3.4,7.5,7.9c0,4.5-2.9,8.1-7.6,8.1
				c-2.3,0-4.7-1.1-5.8-3.1h-0.1v2.8h-1.5V169z M621.8,188.6c0-3.4-2.4-6.5-6-6.5c-3.9,0-6.1,2.9-6.1,6.5c0,3.6,2.3,6.7,6,6.7
				C619.5,195.4,621.8,192.2,621.8,188.6z"/>
			<path class="st111" d="M674.5,176.5c-1.9-2.4-5.3-4-8.4-4c-6.2,0-11.4,5.4-11.4,11.5c0,2.9,1.3,5.7,3.4,7.7c2.1,2,5.1,3.5,8,3.5
				c2.9,0,6.5-1.6,8.4-3.8v2.2c-2.4,2-5.3,3.1-8.3,3.1c-7,0-13.1-5.8-13.1-12.8c0-7.1,6-12.9,13.1-12.9c3,0,6.1,1.2,8.3,3.3V176.5z"
				/>
			<path class="st111" d="M699.4,184.6c-1.5-1.6-3.2-2.5-5.4-2.5c-3.6,0-6.3,3.1-6.3,6.6c0,3.5,2.7,6.6,6.3,6.6
				c2.2,0,4.3-1.1,5.7-2.8v2c-1.6,1.4-3.5,2.1-5.6,2.1c-4.6,0-7.9-3.6-7.9-8c0-4.5,3.4-8,7.9-8c2,0,3.8,0.6,5.4,1.9V184.6z"/>
			<path class="st111" d="M508.5,216l0.8-1.5h4.8v25.1h-1.6V216H508.5z"/>
			<path class="st111" d="M565.5,238.1v1.5H550l9.3-10.3c1.9-2.1,4.6-5,4.6-7.9c0-3.3-2.7-5.7-5.9-5.7c-3.4,0-6,2.5-5.9,5.9h-1.6
				c0.1-1.8,0.3-3.3,1.6-4.8c1.5-1.6,3.8-2.7,5.9-2.7c4.2,0,7.5,3.2,7.5,7.3c0,3.4-2.6,6.1-4.7,8.4l-7.3,8.1H565.5z"/>
			<path class="st111" d="M603.3,225.8c3-0.1,5.3-2.2,5.3-5.2c0-2.7-2.3-4.9-5-4.9c-2.9,0-4.7,1.9-4.9,4.8h-1.6
				c0.3-3.8,2.6-6.2,6.5-6.2c3.6,0,6.5,2.8,6.5,6.4c0,2.6-1.4,4.8-3.8,5.8c2.5,1,4.1,3.5,4.1,6.1c0,4.2-3.2,7.4-7.3,7.4
				c-3.8,0-7-2.6-6.9-6.5h1.6c0.3,2.9,2.3,5,5.3,5c3.2,0,5.8-2.7,5.8-5.8c0-3.3-2.6-5.4-5.7-5.4V225.8z"/>
			<path class="st111" d="M657.8,233.3v1.5h-3.5v4.8h-1.6v-4.8h-13.5v-0.2l14.9-21h0.2v19.7H657.8z M652.7,218.5h-0.2l-10.4,14.6
				v0.2h10.6V218.5z"/>
			<path class="st111" d="M693.5,216l-2.1,6.8c0.6-0.2,1.3-0.3,1.9-0.3c4.8,0,8.5,3.8,8.5,8.5c0,5.1-4,8.8-9,8.8
				c-3,0-5.8-1.6-7.4-4.2l1.5-0.6c1.3,2,3.6,3.3,6,3.3c4.2,0,7.4-3.2,7.4-7.4c0-4-3.4-7-7.3-7c-1.5,0-2.6,0.4-3.8,1.1l3.3-10.6h9.5
				v1.5H693.5z"/>
		</g>
	</g>
</g>
<g id="Layer_2">
</g>
</svg>
