<?xml version="1.0" encoding="utf-8"?>
<!-- Generator: Adobe Illustrator 19.0.1, SVG Export Plug-In . SVG Version: 6.00 Build 0)  -->
<svg version="1.1" xmlns="http://www.w3.org/2000/svg" xmlns:xlink="http://www.w3.org/1999/xlink" x="0px" y="0px"
	 viewBox="0 0 702.7 243.7" style="enable-background:new 0 0 702.7 243.7;" xml:space="preserve">
<style type="text/css">
	.st0{fill:#FFFFFF;}
	.st1{fill:url(#SVGID_1_);}
	.st2{fill:#666666;}
	.st3{fill:url(#SVGID_2_);}
	.st4{fill:url(#SVGID_3_);}
	.st5{fill:url(#SVGID_4_);}
	.st6{fill:url(#SVGID_5_);}
	.st7{fill:url(#SVGID_6_);}
	.st8{fill:url(#SVGID_7_);}
	.st9{fill:url(#SVGID_8_);}
	.st10{fill:url(#SVGID_9_);}
	.st11{fill:url(#SVGID_10_);}
	.st12{fill:url(#SVGID_11_);}
	.st13{fill:url(#SVGID_12_);}
	.st14{fill:url(#SVGID_13_);}
	.st15{fill:url(#SVGID_14_);}
	.st16{fill:url(#SVGID_15_);}
	.st17{fill:url(#SVGID_16_);}
	.st18{fill:url(#SVGID_17_);}
	.st19{fill:url(#SVGID_18_);}
	.st20{fill:url(#SVGID_19_);}
	.st21{fill:url(#SVGID_20_);}
	.st22{fill:url(#SVGID_21_);}
	.st23{fill:url(#SVGID_22_);}
	.st24{fill:url(#SVGID_23_);}
	.st25{fill:url(#SVGID_24_);}
	.st26{fill:url(#SVGID_25_);}
	.st27{fill:url(#SVGID_26_);}
	.st28{fill:url(#SVGID_27_);}
	.st29{fill:url(#SVGID_28_);}
	.st30{fill:url(#SVGID_29_);}
	.st31{fill:url(#SVGID_30_);}
	.st32{fill:url(#SVGID_31_);}
	.st33{fill:url(#SVGID_32_);}
	.st34{fill:url(#SVGID_33_);}
	.st35{fill:url(#SVGID_34_);}
	.st36{fill:url(#SVGID_35_);}
	.st37{fill:url(#SVGID_36_);}
	.st38{fill:url(#SVGID_37_);}
	.st39{fill:url(#SVGID_38_);}
	.st40{fill:url(#SVGID_39_);}
	.st41{fill:url(#SVGID_40_);}
	.st42{fill:url(#SVGID_41_);}
	.st43{fill:url(#SVGID_42_);}
	.st44{fill:url(#SVGID_43_);}
	.st45{fill:url(#SVGID_44_);}
	.st46{fill:url(#SVGID_45_);}
	.st47{fill:url(#SVGID_46_);}
	.st48{fill:url(#SVGID_47_);}
	.st49{fill:url(#SVGID_48_);}
	.st50{fill:url(#SVGID_49_);}
	.st51{fill:url(#SVGID_50_);}
	.st52{fill:url(#SVGID_51_);}
	.st53{fill:none;}
	.st54{fill:url(#SVGID_52_);}
	.st55{fill:url(#SVGID_53_);}
	.st56{fill:url(#SVGID_54_);}
	.st57{fill:url(#SVGID_55_);}
	.st58{fill:url(#SVGID_56_);}
	.st59{fill:url(#SVGID_57_);}
	.st60{fill:url(#SVGID_58_);}
	.st61{fill:url(#SVGID_59_);}
	.st62{fill:url(#SVGID_60_);}
	.st63{fill:url(#SVGID_61_);}
	.st64{fill:url(#SVGID_62_);}
	.st65{fill:url(#SVGID_63_);}
	.st66{fill:url(#SVGID_64_);}
	.st67{fill:url(#SVGID_65_);}
	.st68{fill:url(#SVGID_66_);}
	.st69{fill:url(#SVGID_67_);}
	.st70{fill:url(#SVGID_68_);}
	.st71{fill:url(#SVGID_69_);}
	.st72{fill:url(#SVGID_70_);}
	.st73{fill:url(#SVGID_71_);}
	.st74{fill:url(#SVGID_72_);}
	.st75{fill:url(#SVGID_73_);}
	.st76{fill:url(#SVGID_74_);}
	.st77{fill:url(#SVGID_75_);}
	.st78{fill:url(#SVGID_76_);}
	.st79{fill:url(#SVGID_77_);}
	.st80{fill:url(#SVGID_78_);}
	.st81{fill:url(#SVGID_79_);}
	.st82{fill:url(#SVGID_80_);}
	.st83{fill:url(#SVGID_81_);}
	.st84{fill:url(#SVGID_82_);}
	.st85{fill:url(#SVGID_83_);}
	.st86{fill:url(#SVGID_84_);}
	.st87{fill:url(#SVGID_85_);}
	.st88{fill:url(#SVGID_86_);}
	.st89{fill:url(#SVGID_87_);}
	.st90{fill:url(#SVGID_88_);}
	.st91{fill:url(#SVGID_89_);}
	.st92{fill:url(#SVGID_90_);}
	.st93{fill:url(#SVGID_91_);}
	.st94{fill:url(#SVGID_92_);}
	.st95{fill:url(#SVGID_93_);}
	.st96{fill:url(#SVGID_94_);}
	.st97{fill:url(#SVGID_95_);}
	.st98{fill:url(#SVGID_96_);}
	.st99{fill:url(#SVGID_97_);}
	.st100{fill:url(#SVGID_98_);}
	.st101{fill:url(#SVGID_99_);}
	.st102{fill:url(#SVGID_100_);}
	.st103{fill:url(#SVGID_101_);}
	.st104{fill:url(#SVGID_102_);}
	.st105{fill:url(#SVGID_103_);}
	.st106{fill:url(#SVGID_104_);}
	.st107{fill:url(#SVGID_105_);}
	.st108{fill:url(#SVGID_106_);}
	.st109{fill:url(#SVGID_107_);}
	.st110{opacity:0.69;fill:#FF9966;}
	.st111{fill:#3399CC;}
	.st112{fill:#FF9966;}
	.st113{opacity:5.000000e-02;}
	.st114{fill:url(#SVGID_110_);}
	.st115{fill:url(#SVGID_111_);}
	.st116{fill:url(#SVGID_112_);}
	.st117{fill:url(#SVGID_113_);}
	.st118{fill:url(#SVGID_114_);}
	.st119{fill:url(#SVGID_115_);}
	.st120{fill:none;stroke:#FF9966;stroke-width:2;stroke-miterlimit:10;}
	.st121{fill:#3399CC;stroke:#FFFFFF;stroke-width:2;stroke-miterlimit:10;}
</style>
<g id="Layer_1">
	<rect x="-282.4" y="-56.8" class="st0" width="1280" height="350"/>
	<g>
		<g>
			<path class="st111" d="M3.6,2.9v1.9h3.3v2.5H3.6V12h-3V0.4h6.6v2.5H3.6z"/>
			<path class="st111" d="M21.7,0.4v6.5c0,1.5-0.1,3-1.2,4.1c-1,1-2.5,1.3-3.8,1.3c-1.4,0-2.9-0.3-3.8-1.3c-1.2-1.1-1.2-2.6-1.2-4.1
				V0.4h3v6.1c0,1.5,0.1,3.1,2,3.1s2-1.6,2-3.1V0.4H21.7z"/>
			<path class="st111" d="M31,12h-3v-9h-2.5V0.4h8v2.5H31V12z"/>
			<path class="st111" d="M47.4,0.4v6.5c0,1.5-0.1,3-1.2,4.1c-1,1-2.5,1.3-3.8,1.3c-1.4,0-2.9-0.3-3.8-1.3c-1.2-1.1-1.2-2.6-1.2-4.1
				V0.4h3v6.1c0,1.5,0.1,3.1,2,3.1s2-1.6,2-3.1V0.4H47.4z"/>
			<path class="st111" d="M61.7,12h-3.7l-2.8-4.5h0V12h-3V0.4h4.5c2.3,0,4,1.1,4,3.6c0,1.6-0.9,3-2.5,3.3L61.7,12z M55.1,5.6h0.3
				c1,0,2.1-0.2,2.1-1.4s-1.1-1.4-2.1-1.4h-0.3V5.6z"/>
			<path class="st111" d="M68.2,9.9l-0.8,2h-3.2l4.5-11.6h3.3L76.3,12h-3.2l-0.8-2H68.2z M70.3,4L70.3,4L69,7.6h2.5L70.3,4z"/>
			<path class="st111" d="M88,12V0.4h4.3c2.1,0,3.4,0.8,3.4,3c0,1-0.3,1.9-1.3,2.4v0c1.7,0.2,2.4,1.3,2.4,2.9c0,2.4-2.1,3.2-4.2,3.2
				H88z M91,4.9h0.3c0.8,0,1.6-0.1,1.6-1.1c0-1.1-0.9-1.1-1.8-1.1H91V4.9z M91,9.7h0.4c0.9,0,2.4,0,2.4-1.2c0-1.4-1.5-1.3-2.5-1.3
				H91V9.7z"/>
			<path class="st111" d="M113.4,6c0,3.7-2.7,6.4-6.4,6.4s-6.4-2.6-6.4-6.4c0-3.5,3.1-6,6.4-6S113.4,2.5,113.4,6z M103.7,6
				c0,2,1.5,3.5,3.3,3.5s3.3-1.5,3.3-3.5c0-1.6-1.5-3.1-3.3-3.1S103.7,4.4,103.7,6z"/>
			<path class="st111" d="M120.6,9.4h3.6V12h-6.6V0.4h3V9.4z"/>
			<path class="st111" d="M127.9,0.4h4.3c3.2,0,5.9,2.5,5.9,5.8c0,3.3-2.7,5.8-5.9,5.8h-4.3V0.4z M130.9,9.4h0.7
				c1.8,0,3.3-1,3.3-3.2c0-2.1-1.4-3.2-3.3-3.2h-0.7V9.4z"/>
			<path class="st112" d="M0.6,29.5h4.3c3.2,0,5.9,2.5,5.9,5.8c0,3.3-2.7,5.8-5.9,5.8H0.6V29.5z M3.6,38.5h0.7c1.8,0,3.3-1,3.3-3.2
				c0-2.1-1.4-3.2-3.3-3.2H3.6V38.5z"/>
			<path class="st112" d="M15.1,30.2c0,0.9-0.7,1.6-1.6,1.6c-0.9,0-1.6-0.7-1.6-1.6s0.7-1.6,1.6-1.6C14.4,28.6,15.1,29.3,15.1,30.2z
				 M14.9,41.1h-2.8v-7.9h2.8V41.1z"/>
			<path class="st112" d="M19.5,41.1h-2.8V28.3h2.8V41.1z"/>
			<path class="st112" d="M24.2,41.1h-2.8V28.3h2.8V41.1z"/>
			<path class="st112" d="M34.9,37.1c0,2.7-2.2,4.2-4.7,4.2c-2.5,0-4.7-1.5-4.7-4.2s2.2-4.2,4.7-4.2S34.9,34.4,34.9,37.1z
				 M28.4,37.1c0,1,0.7,1.8,1.8,1.8c1.1,0,1.8-0.8,1.8-1.8c0-1-0.7-1.8-1.8-1.8C29,35.4,28.4,36.2,28.4,37.1z"/>
			<path class="st112" d="M39,34.2L39,34.2c0.7-1,1.5-1.3,2.5-1.3c2.1,0,3,1.3,3,3.3v4.9h-2.8v-3.8c0-0.8,0.1-2.1-1.3-2.1
				C39.3,35.2,39,36,39,37v4.1h-2.8v-7.9H39V34.2z"/>
			<path class="st112" d="M54.5,30.2c0,0.9-0.7,1.6-1.6,1.6c-0.9,0-1.6-0.7-1.6-1.6s0.7-1.6,1.6-1.6C53.8,28.6,54.5,29.3,54.5,30.2z
				 M54.4,41.1h-2.8v-7.9h2.8V41.1z"/>
			<path class="st112" d="M61.4,35.2c-0.4-0.2-1-0.4-1.5-0.4c-0.3,0-0.9,0.1-0.9,0.5c0,0.5,0.9,0.6,1.3,0.7c1.3,0.3,2.3,0.9,2.3,2.3
				c0,2.1-1.9,2.9-3.7,2.9c-1.1,0-2.2-0.3-3.2-0.9l1-1.9c0.6,0.4,1.5,0.8,2.2,0.8c0.4,0,0.9-0.2,0.9-0.6c0-0.6-0.9-0.6-1.8-0.9
				s-1.8-0.7-1.8-2.1c0-1.9,1.8-2.8,3.5-2.8c0.9,0,1.8,0.1,2.6,0.5L61.4,35.2z"/>
			<path class="st112" d="M78,41.1h-2.8v-0.9h0c-0.5,0.8-1.5,1.1-2.4,1.1c-2.3,0-4-1.9-4-4.2c0-2.3,1.6-4.2,3.9-4.2
				c0.9,0,1.9,0.3,2.4,1v-0.8H78V41.1z M71.7,37.1c0,1,0.7,1.8,1.8,1.8c1.1,0,1.8-0.8,1.8-1.8c0-1-0.7-1.8-1.8-1.8
				C72.3,35.4,71.7,36.2,71.7,37.1z"/>
			<path class="st112" d="M88.1,41.1h-2.8v-5.6h-0.9v-2.3h0.9v-2.4h2.8v2.4h1.6v2.3h-1.6V41.1z"/>
			<path class="st112" d="M99.5,37.1c0,2.7-2.2,4.2-4.7,4.2c-2.5,0-4.7-1.5-4.7-4.2s2.2-4.2,4.7-4.2S99.5,34.4,99.5,37.1z M93,37.1
				c0,1,0.7,1.8,1.8,1.8c1.1,0,1.8-0.8,1.8-1.8c0-1-0.7-1.8-1.8-1.8C93.6,35.4,93,36.2,93,37.1z"/>
			<path class="st112" d="M103.8,41.1H101v-5.6h-0.9v-2.3h0.9v-2.4h2.8v2.4h1.6v2.3h-1.6V41.1z"/>
			<path class="st112" d="M114.9,41.1h-2.8v-0.9h0c-0.5,0.8-1.5,1.1-2.4,1.1c-2.3,0-4-1.9-4-4.2c0-2.3,1.6-4.2,3.9-4.2
				c0.9,0,1.9,0.3,2.4,1v-0.8h2.8V41.1z M108.6,37.1c0,1,0.7,1.8,1.8,1.8c1.1,0,1.8-0.8,1.8-1.8c0-1-0.7-1.8-1.8-1.8
				C109.3,35.4,108.6,36.2,108.6,37.1z"/>
			<path class="st112" d="M119.5,41.1h-2.8V28.3h2.8V41.1z"/>
			<path class="st112" d="M132.6,40.2L132.6,40.2c-0.5,0.8-1.5,1.1-2.4,1.1c-2.3,0-4-1.9-4-4.2c0-2.3,1.6-4.2,3.9-4.2
				c0.9,0,1.9,0.3,2.4,1v-5.6h2.8v12.7h-2.8V40.2z M129.1,37.1c0,1,0.7,1.8,1.8,1.8c1.1,0,1.8-0.8,1.8-1.8c0-1-0.7-1.8-1.8-1.8
				C129.7,35.4,129.1,36.2,129.1,37.1z"/>
			<path class="st112" d="M145.2,37.6h-5.9c0,1.1,0.6,1.8,1.8,1.8c0.6,0,1-0.2,1.3-0.7h2.7c-0.4,1.9-2.2,2.7-4,2.7
				c-2.6,0-4.6-1.5-4.6-4.2c0-2.6,1.8-4.2,4.4-4.2c2.7,0,4.3,1.7,4.3,4.4V37.6z M142.6,36c-0.1-0.8-0.8-1.2-1.6-1.2
				c-0.8,0-1.5,0.4-1.7,1.2H142.6z"/>
			<path class="st112" d="M151.7,35.2c-0.4-0.2-1-0.4-1.5-0.4c-0.3,0-0.9,0.1-0.9,0.5c0,0.5,0.9,0.6,1.3,0.7
				c1.3,0.3,2.3,0.9,2.3,2.3c0,2.1-1.9,2.9-3.7,2.9c-1.1,0-2.2-0.3-3.2-0.9l1-1.9c0.6,0.4,1.5,0.8,2.2,0.8c0.4,0,0.9-0.2,0.9-0.6
				c0-0.6-0.9-0.6-1.8-0.9s-1.8-0.7-1.8-2.1c0-1.9,1.8-2.8,3.5-2.8c0.9,0,1.8,0.1,2.6,0.5L151.7,35.2z"/>
			<path class="st112" d="M157.3,30.2c0,0.9-0.7,1.6-1.6,1.6c-0.9,0-1.6-0.7-1.6-1.6s0.7-1.6,1.6-1.6
				C156.6,28.6,157.3,29.3,157.3,30.2z M157.1,41.1h-2.8v-7.9h2.8V41.1z"/>
			<path class="st112" d="M167.6,40.3c0,3.3-1.7,4.7-4.6,4.7c-1.8,0-4.2-0.9-4.5-3h3.1c0.1,0.3,0.3,0.5,0.5,0.6
				c0.2,0.1,0.5,0.2,0.8,0.2c1.5,0,1.8-1,1.8-2.3v-0.4c-0.7,0.7-1.5,1.1-2.5,1.1c-2.3,0-3.9-1.7-3.9-4c0-2.3,1.6-4.3,4-4.3
				c0.9,0,1.8,0.3,2.3,1.1h0v-0.8h2.8V40.3z M161.3,37.1c0,1,0.7,1.8,1.8,1.8c1.1,0,1.8-0.8,1.8-1.8c0-1-0.7-1.8-1.8-1.8
				C162,35.3,161.3,36.1,161.3,37.1z"/>
			<path class="st112" d="M172.2,34.2L172.2,34.2c0.7-1,1.5-1.3,2.5-1.3c2.1,0,3,1.3,3,3.3v4.9h-2.8v-3.8c0-0.8,0.1-2.1-1.3-2.1
				c-1.1,0-1.5,0.8-1.5,1.8v4.1h-2.8v-7.9h2.8V34.2z"/>
			<path class="st112" d="M187.6,34.2L187.6,34.2c0.7-1,1.5-1.3,2.5-1.3c2.1,0,3,1.3,3,3.3v4.9h-2.8v-3.8c0-0.8,0.1-2.1-1.3-2.1
				c-1.1,0-1.5,0.8-1.5,1.8v4.1h-2.8v-7.9h2.8V34.2z"/>
			<path class="st112" d="M203,37.6h-5.9c0,1.1,0.6,1.8,1.8,1.8c0.6,0,1-0.2,1.3-0.7h2.7c-0.4,1.9-2.2,2.7-4,2.7
				c-2.6,0-4.6-1.5-4.6-4.2c0-2.6,1.8-4.2,4.4-4.2c2.7,0,4.3,1.7,4.3,4.4V37.6z M200.4,36c-0.1-0.8-0.8-1.2-1.6-1.2
				c-0.8,0-1.5,0.4-1.7,1.2H200.4z"/>
			<path class="st112" d="M207.1,34.5L207.1,34.5c0.6-1,1.5-1.4,2.6-1.4h0.5v2.7c-0.4-0.2-0.8-0.3-1.2-0.3c-1.6,0-1.9,1-1.9,2.4v3.2
				h-2.8v-7.9h2.8V34.5z"/>
			<path class="st112" d="M217.2,40.2L217.2,40.2c-0.5,0.8-1.5,1.1-2.4,1.1c-2.3,0-4-1.9-4-4.2c0-2.3,1.6-4.2,3.9-4.2
				c0.9,0,1.9,0.3,2.4,1v-5.6h2.8v12.7h-2.8V40.2z M213.7,37.1c0,1,0.7,1.8,1.8,1.8c1.1,0,1.8-0.8,1.8-1.8c0-1-0.7-1.8-1.8-1.8
				C214.3,35.4,213.7,36.2,213.7,37.1z"/>
			<path class="st112" d="M225.2,39.6c0,1-0.8,1.8-1.8,1.8c-1,0-1.8-0.8-1.8-1.8c0-1,0.8-1.8,1.8-1.8
				C224.4,37.8,225.2,38.6,225.2,39.6z"/>
			<path class="st112" d="M239.6,34v-4.5h3v11.6h-3v-4.7h-4.3v4.7h-3V29.5h3V34H239.6z"/>
			<path class="st112" d="M252.6,37.6h-5.9c0,1.1,0.6,1.8,1.8,1.8c0.6,0,1-0.2,1.3-0.7h2.7c-0.4,1.9-2.2,2.7-4,2.7
				c-2.6,0-4.6-1.5-4.6-4.2c0-2.6,1.8-4.2,4.4-4.2c2.7,0,4.3,1.7,4.3,4.4V37.6z M250,36c-0.1-0.8-0.8-1.2-1.6-1.2
				c-0.8,0-1.5,0.4-1.7,1.2H250z"/>
			<path class="st112" d="M264.9,35.8c-0.4-0.3-0.9-0.6-1.4-0.6c-1.1,0-1.9,0.8-1.9,1.9c0,1.1,0.8,1.9,2,1.9c0.5,0,1-0.2,1.4-0.5
				v2.4c-0.6,0.3-1.3,0.4-2,0.4c-2.3,0-4.3-1.7-4.3-4.1c0-2.5,1.9-4.3,4.4-4.3c0.6,0,1.3,0.2,1.8,0.5V35.8z"/>
			<path class="st112" d="M275.2,41.1h-2.8v-0.9h0c-0.5,0.8-1.5,1.1-2.4,1.1c-2.3,0-4-1.9-4-4.2c0-2.3,1.6-4.2,3.9-4.2
				c0.9,0,1.9,0.3,2.4,1v-0.8h2.8V41.1z M268.9,37.1c0,1,0.7,1.8,1.8,1.8s1.8-0.8,1.8-1.8c0-1-0.7-1.8-1.8-1.8
				S268.9,36.2,268.9,37.1z"/>
			<path class="st112" d="M279.8,34.2L279.8,34.2c0.7-1,1.5-1.3,2.5-1.3c2.1,0,3,1.3,3,3.3v4.9h-2.8v-3.8c0-0.8,0.1-2.1-1.3-2.1
				c-1.1,0-1.5,0.8-1.5,1.8v4.1h-2.8v-7.9h2.8V34.2z"/>
			<path class="st112" d="M291.7,29.5l-2.8,5.1h-1.8l2-5.1H291.7z"/>
			<path class="st112" d="M295.4,41.1h-2.8v-5.6h-0.9v-2.3h0.9v-2.4h2.8v2.4h1.6v2.3h-1.6V41.1z"/>
			<path class="st112" d="M307,37.5l2-4.3h1.7l2,4.3l2-4.3h3.1l-4.1,7.9h-1.8l-1.9-4.3l-1.9,4.3H306l-4.1-7.9h3.1L307,37.5z"/>
			<path class="st112" d="M327,41.1h-2.8v-0.9h0c-0.5,0.8-1.5,1.1-2.4,1.1c-2.3,0-4-1.9-4-4.2c0-2.3,1.6-4.2,3.9-4.2
				c0.9,0,1.9,0.3,2.4,1v-0.8h2.8V41.1z M320.7,37.1c0,1,0.7,1.8,1.8,1.8s1.8-0.8,1.8-1.8c0-1-0.7-1.8-1.8-1.8
				S320.7,36.2,320.7,37.1z"/>
			<path class="st112" d="M331.6,41.1h-2.8V28.3h2.8V41.1z"/>
			<path class="st112" d="M336.3,36l2.9-2.8h3.8l-3.9,3.6l4.2,4.2h-3.9l-3.1-3.2v3.2h-2.8V28.3h2.8V36z"/>
			<path class="st112" d="M352.3,41.1h-2.8v-5.6h-0.9v-2.3h0.9v-2.4h2.8v2.4h1.6v2.3h-1.6V41.1z"/>
			<path class="st112" d="M357.6,28.3v5.9h0c0.6-0.9,1.4-1.3,2.5-1.3c2,0,3,1.3,3,3.3v4.8h-2.8v-4c0-0.9-0.1-1.9-1.3-1.9
				c-1.1,0-1.5,1-1.5,1.9v4h-2.8V28.3H357.6z"/>
			<path class="st112" d="M367.8,34.5L367.8,34.5c0.6-1,1.5-1.4,2.6-1.4h0.5v2.7c-0.4-0.2-0.8-0.3-1.2-0.3c-1.6,0-1.9,1-1.9,2.4v3.2
				H365v-7.9h2.8V34.5z"/>
			<path class="st112" d="M380.5,37.1c0,2.7-2.2,4.2-4.7,4.2c-2.5,0-4.7-1.5-4.7-4.2s2.2-4.2,4.7-4.2S380.5,34.4,380.5,37.1z
				 M374,37.1c0,1,0.7,1.8,1.8,1.8s1.8-0.8,1.8-1.8c0-1-0.7-1.8-1.8-1.8S374,36.2,374,37.1z"/>
			<path class="st112" d="M384.5,33.2v4.2c0,1,0.2,1.7,1.4,1.7s1.4-0.7,1.4-1.7v-4.2h2.8v4.7c0,2.6-1.8,3.4-4.2,3.4
				s-4.2-0.8-4.2-3.4v-4.7H384.5z"/>
			<path class="st112" d="M400.6,40.3c0,3.3-1.7,4.7-4.6,4.7c-1.8,0-4.2-0.9-4.5-3h3.1c0.1,0.3,0.3,0.5,0.5,0.6
				c0.2,0.1,0.5,0.2,0.8,0.2c1.5,0,1.8-1,1.8-2.3v-0.4c-0.7,0.7-1.5,1.1-2.5,1.1c-2.3,0-3.9-1.7-3.9-4c0-2.3,1.6-4.3,4-4.3
				c0.9,0,1.8,0.3,2.3,1.1h0v-0.8h2.8V40.3z M394.3,37.1c0,1,0.7,1.8,1.8,1.8s1.8-0.8,1.8-1.8c0-1-0.7-1.8-1.8-1.8
				S394.3,36.1,394.3,37.1z"/>
			<path class="st112" d="M405.1,28.3v5.9h0c0.6-0.9,1.4-1.3,2.5-1.3c2,0,3,1.3,3,3.3v4.8h-2.8v-4c0-0.9-0.1-1.9-1.3-1.9
				c-1.1,0-1.5,1-1.5,1.9v4h-2.8V28.3H405.1z"/>
			<path class="st112" d="M426.3,41.1h-2.8v-0.9h0c-0.5,0.8-1.5,1.1-2.4,1.1c-2.3,0-4-1.9-4-4.2c0-2.3,1.6-4.2,3.9-4.2
				c0.9,0,1.9,0.3,2.4,1v-0.8h2.8V41.1z M420,37.1c0,1,0.7,1.8,1.8,1.8s1.8-0.8,1.8-1.8c0-1-0.7-1.8-1.8-1.8S420,36.2,420,37.1z"/>
			<path class="st112" d="M5.8,59.8c-0.4-0.2-1-0.4-1.5-0.4c-0.3,0-0.9,0.1-0.9,0.5c0,0.5,0.9,0.6,1.3,0.7c1.3,0.3,2.3,0.9,2.3,2.3
				c0,2.1-1.9,2.9-3.7,2.9C2.1,65.9,1,65.6,0,65l1-1.9c0.6,0.4,1.5,0.8,2.2,0.8c0.4,0,0.9-0.2,0.9-0.6c0-0.6-0.9-0.6-1.8-0.9
				s-1.8-0.7-1.8-2.1c0-1.9,1.8-2.8,3.5-2.8c0.9,0,1.8,0.1,2.6,0.5L5.8,59.8z"/>
			<path class="st112" d="M11.2,52.9v5.9h0c0.6-0.9,1.4-1.3,2.5-1.3c2,0,3,1.3,3,3.3v4.8H14v-4c0-0.9-0.1-1.9-1.3-1.9
				c-1.1,0-1.5,1-1.5,1.9v4H8.4V52.9H11.2z"/>
			<path class="st112" d="M27.5,61.7c0,2.7-2.2,4.2-4.7,4.2c-2.5,0-4.7-1.5-4.7-4.2s2.2-4.2,4.7-4.2S27.5,59,27.5,61.7z M20.9,61.7
				c0,1,0.7,1.8,1.8,1.8c1.1,0,1.8-0.8,1.8-1.8c0-1-0.7-1.8-1.8-1.8C21.6,59.9,20.9,60.7,20.9,61.7z"/>
			<path class="st112" d="M31.4,58.6L31.4,58.6c0.5-0.8,1.5-1.2,2.4-1.2c2.3,0,4,2,4,4.2c0,2.3-1.6,4.2-3.9,4.2
				c-0.9,0-1.8-0.3-2.4-1v4.7h-2.8V57.7h2.8V58.6z M31.4,61.7c0,1,0.7,1.8,1.8,1.8c1.1,0,1.8-0.8,1.8-1.8c0-1-0.7-1.8-1.8-1.8
				C32,59.9,31.4,60.7,31.4,61.7z"/>
			<path class="st112" d="M41.9,58.6L41.9,58.6c0.5-0.8,1.5-1.2,2.4-1.2c2.3,0,4,2,4,4.2c0,2.3-1.6,4.2-3.9,4.2
				c-0.9,0-1.8-0.3-2.4-1v4.7h-2.8V57.7h2.8V58.6z M41.8,61.7c0,1,0.7,1.8,1.8,1.8c1.1,0,1.8-0.8,1.8-1.8c0-1-0.7-1.8-1.8-1.8
				C42.5,59.9,41.8,60.7,41.8,61.7z"/>
			<path class="st112" d="M52.6,54.7c0,0.9-0.7,1.6-1.6,1.6c-0.9,0-1.6-0.7-1.6-1.6s0.7-1.6,1.6-1.6C51.9,53.2,52.6,53.9,52.6,54.7z
				 M52.5,65.6h-2.8v-7.9h2.8V65.6z"/>
			<path class="st112" d="M57.1,58.8L57.1,58.8c0.7-1,1.5-1.3,2.5-1.3c2.1,0,3,1.3,3,3.3v4.9h-2.8v-3.8c0-0.8,0.1-2.1-1.3-2.1
				c-1.1,0-1.5,0.8-1.5,1.8v4.1h-2.8v-7.9h2.8V58.8z"/>
			<path class="st112" d="M73.1,64.9c0,3.3-1.7,4.7-4.6,4.7c-1.8,0-4.2-0.9-4.5-3h3.1c0.1,0.3,0.3,0.5,0.5,0.6
				c0.2,0.1,0.5,0.2,0.8,0.2c1.5,0,1.8-1,1.8-2.3v-0.4c-0.7,0.7-1.5,1.1-2.5,1.1c-2.3,0-3.9-1.7-3.9-4c0-2.3,1.6-4.3,4-4.3
				c0.9,0,1.8,0.3,2.3,1.1h0v-0.8h2.8V64.9z M66.8,61.6c0,1,0.7,1.8,1.8,1.8c1.1,0,1.8-0.8,1.8-1.8c0-1-0.7-1.8-1.8-1.8
				C67.5,59.8,66.8,60.7,66.8,61.6z"/>
			<path class="st112" d="M82.9,58.7L82.9,58.7c0.7-0.9,1.5-1.2,2.5-1.2c1.1,0,2.1,0.5,2.7,1.5c0.5-1,1.6-1.5,2.7-1.5
				c2,0,2.7,1.3,2.7,3.1v5h-2.8v-3.8c0-0.8,0-2.1-1.2-2.1c-1.3,0-1.3,1.2-1.3,2.1v3.8h-2.8v-3.8c0-0.9,0-2.2-1.2-2.2
				c-1.2,0-1.2,1.3-1.2,2.2v3.8h-2.8v-7.9h2.8V58.7z"/>
			<path class="st112" d="M103.9,65.6h-2.8v-0.9h0c-0.5,0.8-1.5,1.1-2.4,1.1c-2.3,0-4-1.9-4-4.2c0-2.3,1.6-4.2,3.9-4.2
				c0.9,0,1.9,0.3,2.4,1v-0.8h2.8V65.6z M97.6,61.7c0,1,0.7,1.8,1.8,1.8c1.1,0,1.8-0.8,1.8-1.8c0-1-0.7-1.8-1.8-1.8
				C98.3,59.9,97.6,60.7,97.6,61.7z"/>
			<path class="st112" d="M108.5,65.6h-2.8V52.9h2.8V65.6z"/>
			<path class="st112" d="M113.2,65.6h-2.8V52.9h2.8V65.6z"/>
			<path class="st112" d="M124.2,62l2-4.3h1.7l2,4.3l2-4.3h3.1l-4.1,7.9H129l-1.9-4.3l-1.9,4.3h-1.8l-4.1-7.9h3.1L124.2,62z"/>
			<path class="st112" d="M138.5,54.7c0,0.9-0.7,1.6-1.6,1.6c-0.9,0-1.6-0.7-1.6-1.6s0.7-1.6,1.6-1.6
				C137.8,53.2,138.5,53.9,138.5,54.7z M138.4,65.6h-2.8v-7.9h2.8V65.6z"/>
			<path class="st112" d="M143.3,65.6h-2.8V60h-0.9v-2.3h0.9v-2.4h2.8v2.4h1.6V60h-1.6V65.6z"/>
			<path class="st112" d="M148.5,52.9v5.9h0c0.6-0.9,1.4-1.3,2.5-1.3c2,0,3,1.3,3,3.3v4.8h-2.8v-4c0-0.9-0.1-1.9-1.3-1.9
				c-1.1,0-1.5,1-1.5,1.9v4h-2.8V52.9H148.5z"/>
			<path class="st112" d="M164.8,61.7c0,2.7-2.2,4.2-4.7,4.2c-2.5,0-4.7-1.5-4.7-4.2s2.2-4.2,4.7-4.2S164.8,59,164.8,61.7z
				 M158.2,61.7c0,1,0.7,1.8,1.8,1.8c1.1,0,1.8-0.8,1.8-1.8c0-1-0.7-1.8-1.8-1.8C158.9,59.9,158.2,60.7,158.2,61.7z"/>
			<path class="st112" d="M168.8,57.7V62c0,1,0.2,1.7,1.4,1.7c1.2,0,1.4-0.7,1.4-1.7v-4.2h2.8v4.7c0,2.6-1.8,3.4-4.2,3.4
				c-2.4,0-4.2-0.8-4.2-3.4v-4.7H168.8z"/>
			<path class="st112" d="M179.2,65.6h-2.8V60h-0.9v-2.3h0.9v-2.4h2.8v2.4h1.6V60h-1.6V65.6z"/>
			<path class="st112" d="M190,65.6h-2.8V60h-0.9v-2.3h0.9v-2.4h2.8v2.4h1.6V60H190V65.6z"/>
			<path class="st112" d="M201.1,65.6h-2.8v-0.9h0c-0.5,0.8-1.5,1.1-2.4,1.1c-2.3,0-4-1.9-4-4.2c0-2.3,1.6-4.2,3.9-4.2
				c0.9,0,1.9,0.3,2.4,1v-0.8h2.8V65.6z M194.8,61.7c0,1,0.7,1.8,1.8,1.8c1.1,0,1.8-0.8,1.8-1.8c0-1-0.7-1.8-1.8-1.8
				C195.4,59.9,194.8,60.7,194.8,61.7z"/>
			<path class="st112" d="M205.7,60.6l2.9-2.8h3.8l-3.9,3.6l4.2,4.2h-3.9l-3.1-3.2v3.2h-2.8V52.9h2.8V60.6z"/>
			<path class="st112" d="M216.4,54.7c0,0.9-0.7,1.6-1.6,1.6c-0.9,0-1.6-0.7-1.6-1.6s0.7-1.6,1.6-1.6
				C215.7,53.2,216.4,53.9,216.4,54.7z M216.3,65.6h-2.8v-7.9h2.8V65.6z"/>
			<path class="st112" d="M220.9,58.8L220.9,58.8c0.7-1,1.5-1.3,2.5-1.3c2.1,0,3,1.3,3,3.3v4.9h-2.8v-3.8c0-0.8,0.1-2.1-1.3-2.1
				c-1.1,0-1.5,0.8-1.5,1.8v4.1h-2.8v-7.9h2.8V58.8z"/>
			<path class="st112" d="M236.9,64.9c0,3.3-1.7,4.7-4.6,4.7c-1.8,0-4.2-0.9-4.5-3h3.1c0.1,0.3,0.3,0.5,0.5,0.6
				c0.2,0.1,0.5,0.2,0.8,0.2c1.5,0,1.8-1,1.8-2.3v-0.4c-0.7,0.7-1.5,1.1-2.5,1.1c-2.3,0-3.9-1.7-3.9-4c0-2.3,1.6-4.3,4-4.3
				c0.9,0,1.8,0.3,2.3,1.1h0v-0.8h2.8V64.9z M230.6,61.6c0,1,0.7,1.8,1.8,1.8c1.1,0,1.8-0.8,1.8-1.8c0-1-0.7-1.8-1.8-1.8
				C231.3,59.8,230.6,60.7,230.6,61.6z"/>
			<path class="st112" d="M246.6,58.6L246.6,58.6c0.5-0.8,1.5-1.2,2.4-1.2c2.3,0,4,2,4,4.2c0,2.3-1.6,4.2-3.9,4.2
				c-0.9,0-1.8-0.3-2.4-1v4.7h-2.8V57.7h2.8V58.6z M246.5,61.7c0,1,0.7,1.8,1.8,1.8c1.1,0,1.8-0.8,1.8-1.8c0-1-0.7-1.8-1.8-1.8
				C247.2,59.9,246.5,60.7,246.5,61.7z"/>
			<path class="st112" d="M257.3,54.7c0,0.9-0.7,1.6-1.6,1.6c-0.9,0-1.6-0.7-1.6-1.6s0.7-1.6,1.6-1.6
				C256.6,53.2,257.3,53.9,257.3,54.7z M257.2,65.6h-2.8v-7.9h2.8V65.6z"/>
			<path class="st112" d="M264.7,60.3c-0.4-0.3-0.9-0.6-1.4-0.6c-1.1,0-1.9,0.8-1.9,1.9c0,1.1,0.8,1.9,2,1.9c0.5,0,1-0.2,1.4-0.5
				v2.4c-0.6,0.3-1.3,0.4-2,0.4c-2.3,0-4.3-1.7-4.3-4.1c0-2.5,1.9-4.3,4.4-4.3c0.6,0,1.3,0.2,1.8,0.5V60.3z"/>
			<path class="st112" d="M269.5,65.6h-2.8V60h-0.9v-2.3h0.9v-2.4h2.8v2.4h1.6V60h-1.6V65.6z"/>
			<path class="st112" d="M274.7,57.7V62c0,1,0.2,1.7,1.4,1.7s1.4-0.7,1.4-1.7v-4.2h2.8v4.7c0,2.6-1.8,3.4-4.2,3.4
				c-2.4,0-4.2-0.8-4.2-3.4v-4.7H274.7z"/>
			<path class="st112" d="M284.9,59L284.9,59c0.6-1,1.5-1.4,2.6-1.4h0.5v2.7c-0.4-0.2-0.8-0.3-1.2-0.3c-1.6,0-1.9,1-1.9,2.4v3.2
				h-2.8v-7.9h2.8V59z"/>
			<path class="st112" d="M297.1,62.2h-5.9c0,1.1,0.6,1.8,1.8,1.8c0.6,0,1-0.2,1.3-0.7h2.7c-0.4,1.9-2.2,2.7-4,2.7
				c-2.6,0-4.6-1.5-4.6-4.2c0-2.6,1.8-4.2,4.4-4.2c2.7,0,4.3,1.7,4.3,4.4V62.2z M294.5,60.5c-0.1-0.8-0.8-1.2-1.6-1.2
				c-0.8,0-1.5,0.4-1.7,1.2H294.5z"/>
			<path class="st112" d="M303.6,59.8c-0.4-0.2-1-0.4-1.5-0.4c-0.3,0-0.9,0.1-0.9,0.5c0,0.5,0.9,0.6,1.3,0.7
				c1.3,0.3,2.3,0.9,2.3,2.3c0,2.1-1.9,2.9-3.7,2.9c-1.1,0-2.2-0.3-3.2-0.9l1-1.9c0.6,0.4,1.5,0.8,2.2,0.8c0.4,0,0.9-0.2,0.9-0.6
				c0-0.6-0.9-0.6-1.8-0.9s-1.8-0.7-1.8-2.1c0-1.9,1.8-2.8,3.5-2.8c0.9,0,1.8,0.1,2.6,0.5L303.6,59.8z"/>
			<path class="st112" d="M320.4,61.7c0,2.7-2.2,4.2-4.7,4.2c-2.5,0-4.7-1.5-4.7-4.2s2.2-4.2,4.7-4.2
				C318.2,57.5,320.4,59,320.4,61.7z M313.9,61.7c0,1,0.7,1.8,1.8,1.8s1.8-0.8,1.8-1.8c0-1-0.7-1.8-1.8-1.8S313.9,60.7,313.9,61.7z"
				/>
			<path class="st112" d="M324.7,65.6h-2.8V60h-1v-2.3h1v-1c0-1.1,0-1.9,0.8-2.8c0.7-0.8,1.7-1.3,2.7-1.3c0.4,0,0.8,0.1,1.2,0.3v2.4
				c-0.3-0.1-0.6-0.3-1-0.3c-0.7,0-1,0.4-1,1.3v1.3h1.9V60h-1.9V65.6z"/>
			<path class="st112" d="M341,62.2h-5.9c0,1.1,0.6,1.8,1.8,1.8c0.6,0,1-0.2,1.3-0.7h2.7c-0.4,1.9-2.2,2.7-4,2.7
				c-2.6,0-4.6-1.5-4.6-4.2c0-2.6,1.8-4.2,4.4-4.2c2.7,0,4.3,1.7,4.3,4.4V62.2z M338.4,60.5c-0.1-0.8-0.8-1.2-1.6-1.2
				c-0.8,0-1.5,0.4-1.7,1.2H338.4z"/>
			<path class="st112" d="M346.1,61.8l1.9-4h3.1l-4.1,7.9h-1.8l-4.1-7.9h3.1L346.1,61.8z"/>
			<path class="st112" d="M359.9,62.2H354c0,1.1,0.6,1.8,1.8,1.8c0.6,0,1-0.2,1.3-0.7h2.7c-0.4,1.9-2.2,2.7-4,2.7
				c-2.6,0-4.6-1.5-4.6-4.2c0-2.6,1.8-4.2,4.4-4.2c2.7,0,4.3,1.7,4.3,4.4V62.2z M357.3,60.5c-0.1-0.8-0.8-1.2-1.6-1.2
				c-0.8,0-1.5,0.4-1.7,1.2H357.3z"/>
			<path class="st112" d="M364,59L364,59c0.6-1,1.5-1.4,2.6-1.4h0.5v2.7c-0.4-0.2-0.8-0.3-1.2-0.3c-1.5,0-1.9,1-1.9,2.4v3.2h-2.8
				v-7.9h2.8V59z"/>
			<path class="st112" d="M367.2,57.7h3.2l2.1,4l2.1-4h3.2l-6.3,11.8h-3.1l2.7-5L367.2,57.7z"/>
			<path class="st112" d="M386.5,65.6h-2.8V52.9h2.8V65.6z"/>
			<path class="st112" d="M397.2,61.7c0,2.7-2.2,4.2-4.7,4.2c-2.5,0-4.7-1.5-4.7-4.2s2.2-4.2,4.7-4.2S397.2,59,397.2,61.7z
				 M390.7,61.7c0,1,0.7,1.8,1.8,1.8s1.8-0.8,1.8-1.8c0-1-0.7-1.8-1.8-1.8S390.7,60.7,390.7,61.7z"/>
			<path class="st112" d="M407.1,64.9c0,3.3-1.7,4.7-4.6,4.7c-1.8,0-4.2-0.9-4.5-3h3.1c0.1,0.3,0.3,0.5,0.5,0.6
				c0.2,0.1,0.5,0.2,0.8,0.2c1.5,0,1.8-1,1.8-2.3v-0.4c-0.7,0.7-1.5,1.1-2.5,1.1c-2.3,0-3.9-1.7-3.9-4c0-2.3,1.6-4.3,4-4.3
				c0.9,0,1.8,0.3,2.3,1.1h0v-0.8h2.8V64.9z M400.8,61.6c0,1,0.7,1.8,1.8,1.8s1.8-0.8,1.8-1.8c0-1-0.7-1.8-1.8-1.8
				S400.8,60.7,400.8,61.6z"/>
			<path class="st112" d="M417.8,61.7c0,2.7-2.2,4.2-4.7,4.2c-2.5,0-4.7-1.5-4.7-4.2s2.2-4.2,4.7-4.2S417.8,59,417.8,61.7z
				 M411.2,61.7c0,1,0.7,1.8,1.8,1.8s1.8-0.8,1.8-1.8c0-1-0.7-1.8-1.8-1.8S411.2,60.7,411.2,61.7z"/>
			<path class="st112" d="M423.1,62.7l-2.8,5.1h-1.8l2-5.1H423.1z"/>
			<path class="st112" d="M6.2,84.9c-0.4-0.3-0.9-0.6-1.4-0.6c-1.1,0-1.9,0.8-1.9,1.9c0,1.1,0.8,1.9,2,1.9c0.5,0,1-0.2,1.4-0.5V90
				c-0.6,0.3-1.3,0.4-2,0.4c-2.3,0-4.3-1.7-4.3-4.1C0,83.8,1.9,82,4.4,82c0.6,0,1.3,0.2,1.8,0.5V84.9z"/>
			<path class="st112" d="M10.8,90.2H8V77.4h2.8V90.2z"/>
			<path class="st112" d="M21.5,86.2c0,2.7-2.2,4.2-4.7,4.2c-2.5,0-4.7-1.5-4.7-4.2s2.2-4.2,4.7-4.2S21.5,83.6,21.5,86.2z M15,86.2
				c0,1,0.7,1.8,1.8,1.8c1.1,0,1.8-0.8,1.8-1.8c0-1-0.7-1.8-1.8-1.8C15.6,84.5,15,85.3,15,86.2z"/>
			<path class="st112" d="M25.8,90.2H23v-5.6h-0.9v-2.3H23v-2.4h2.8v2.4h1.6v2.3h-1.6V90.2z"/>
			<path class="st112" d="M31.1,77.4v5.9h0c0.6-0.9,1.4-1.3,2.5-1.3c2,0,3,1.3,3,3.3v4.8h-2.8v-4c0-0.9-0.1-1.9-1.3-1.9
				c-1.1,0-1.5,1-1.5,1.9v4h-2.8V77.4H31.1z"/>
			<path class="st112" d="M41.4,79.3c0,0.9-0.7,1.6-1.6,1.6c-0.9,0-1.6-0.7-1.6-1.6c0-0.9,0.7-1.6,1.6-1.6
				C40.7,77.7,41.4,78.4,41.4,79.3z M41.2,90.2h-2.8v-7.9h2.8V90.2z"/>
			<path class="st112" d="M45.9,83.3L45.9,83.3c0.7-1,1.5-1.3,2.5-1.3c2.1,0,3,1.3,3,3.3v4.9h-2.8v-3.8c0-0.8,0.1-2.1-1.3-2.1
				c-1.1,0-1.5,0.8-1.5,1.8v4.1h-2.8v-7.9h2.8V83.3z"/>
			<path class="st112" d="M61.9,89.4c0,3.3-1.7,4.7-4.6,4.7c-1.8,0-4.2-0.9-4.5-3H56c0.1,0.3,0.3,0.5,0.5,0.6s0.5,0.2,0.8,0.2
				c1.5,0,1.8-1,1.8-2.3v-0.4c-0.7,0.7-1.5,1.1-2.5,1.1c-2.3,0-3.9-1.8-3.9-4c0-2.3,1.6-4.3,4-4.3c0.9,0,1.8,0.3,2.3,1.1h0v-0.8h2.8
				V89.4z M55.6,86.2c0,1,0.7,1.8,1.8,1.8c1.1,0,1.8-0.8,1.8-1.8c0-1-0.7-1.8-1.8-1.8C56.2,84.4,55.6,85.2,55.6,86.2z"/>
			<path class="st112" d="M71.6,83.2L71.6,83.2c0.5-0.8,1.5-1.2,2.4-1.2c2.3,0,4,2,4,4.2c0,2.3-1.6,4.2-3.9,4.2
				c-0.9,0-1.8-0.3-2.4-1v4.7h-2.8V82.3h2.8V83.2z M71.5,86.2c0,1,0.7,1.8,1.8,1.8c1.1,0,1.8-0.8,1.8-1.8c0-1-0.7-1.8-1.8-1.8
				C72.1,84.5,71.5,85.3,71.5,86.2z"/>
			<path class="st112" d="M82.1,83.6L82.1,83.6c0.6-1,1.5-1.4,2.6-1.4h0.5v2.7c-0.4-0.2-0.8-0.3-1.2-0.3c-1.6,0-1.9,1-1.9,2.4v3.2
				h-2.8v-7.9h2.8V83.6z"/>
			<path class="st112" d="M89.3,79.3c0,0.9-0.7,1.6-1.6,1.6c-0.9,0-1.6-0.7-1.6-1.6c0-0.9,0.7-1.6,1.6-1.6
				C88.5,77.7,89.3,78.4,89.3,79.3z M89.1,90.2h-2.8v-7.9h2.8V90.2z"/>
			<path class="st112" d="M93.7,83.3L93.7,83.3c0.7-1,1.5-1.3,2.5-1.3c2.1,0,3,1.3,3,3.3v4.9h-2.8v-3.8c0-0.8,0.1-2.1-1.3-2.1
				c-1.1,0-1.5,0.8-1.5,1.8v4.1h-2.8v-7.9h2.8V83.3z"/>
			<path class="st112" d="M104.1,90.2h-2.8v-5.6h-0.9v-2.3h0.9v-2.4h2.8v2.4h1.6v2.3h-1.6V90.2z"/>
			<path class="st112" d="M120.5,90.2h-2.8v-0.9h0c-0.5,0.8-1.5,1.1-2.4,1.1c-2.3,0-4-1.9-4-4.2s1.6-4.2,3.9-4.2
				c0.9,0,1.9,0.3,2.4,1v-0.8h2.8V90.2z M114.2,86.2c0,1,0.7,1.8,1.8,1.8c1.1,0,1.8-0.8,1.8-1.8c0-1-0.7-1.8-1.8-1.8
				C114.8,84.5,114.2,85.3,114.2,86.2z"/>
			<path class="st112" d="M125.1,83.3L125.1,83.3c0.7-1,1.5-1.3,2.5-1.3c2.1,0,3,1.3,3,3.3v4.9h-2.8v-3.8c0-0.8,0.1-2.1-1.3-2.1
				c-1.1,0-1.5,0.8-1.5,1.8v4.1h-2.8v-7.9h2.8V83.3z"/>
			<path class="st112" d="M138.4,89.3L138.4,89.3c-0.5,0.8-1.5,1.1-2.4,1.1c-2.3,0-4-1.9-4-4.2s1.6-4.2,3.9-4.2c0.9,0,1.9,0.3,2.4,1
				v-5.6h2.8v12.7h-2.8V89.3z M134.9,86.2c0,1,0.7,1.8,1.8,1.8c1.1,0,1.8-0.8,1.8-1.8c0-1-0.7-1.8-1.8-1.8
				C135.6,84.5,134.9,85.3,134.9,86.2z"/>
			<path class="st112" d="M153.4,84.3c-0.4-0.2-1-0.4-1.5-0.4c-0.3,0-0.9,0.1-0.9,0.5c0,0.5,0.9,0.6,1.3,0.7
				c1.3,0.3,2.3,0.9,2.3,2.3c0,2.1-1.9,2.9-3.7,2.9c-1.1,0-2.2-0.3-3.2-0.9l1-2c0.6,0.4,1.5,0.8,2.2,0.8c0.4,0,0.9-0.2,0.9-0.6
				c0-0.6-0.9-0.6-1.8-0.9c-0.9-0.2-1.8-0.7-1.8-2.1c0-1.9,1.8-2.8,3.5-2.8c0.9,0,1.8,0.1,2.6,0.5L153.4,84.3z"/>
			<path class="st112" d="M164.7,90.2h-2.8v-0.9h0c-0.5,0.8-1.5,1.1-2.4,1.1c-2.3,0-4-1.9-4-4.2s1.6-4.2,3.9-4.2
				c0.9,0,1.9,0.3,2.4,1v-0.8h2.8V90.2z M158.4,86.2c0,1,0.7,1.8,1.8,1.8c1.1,0,1.8-0.8,1.8-1.8c0-1-0.7-1.8-1.8-1.8
				C159,84.5,158.4,85.3,158.4,86.2z"/>
			<path class="st112" d="M169.3,83.3L169.3,83.3c0.7-1,1.5-1.3,2.5-1.3c2.1,0,3,1.3,3,3.3v4.9H172v-3.8c0-0.8,0.1-2.1-1.3-2.1
				c-1.1,0-1.5,0.8-1.5,1.8v4.1h-2.8v-7.9h2.8V83.3z"/>
			<path class="st112" d="M182.6,89.3L182.6,89.3c-0.5,0.8-1.5,1.1-2.4,1.1c-2.3,0-4-1.9-4-4.2s1.6-4.2,3.9-4.2c0.9,0,1.9,0.3,2.4,1
				v-5.6h2.8v12.7h-2.8V89.3z M179.1,86.2c0,1,0.7,1.8,1.8,1.8c1.1,0,1.8-0.8,1.8-1.8c0-1-0.7-1.8-1.8-1.8
				C179.8,84.5,179.1,85.3,179.1,86.2z"/>
			<path class="st112" d="M191.1,86.6l2-4.3h1.7l2,4.3l2-4.3h3.1l-4.1,7.9h-1.8l-1.9-4.3l-1.9,4.3h-1.8l-4.1-7.9h3.1L191.1,86.6z"/>
			<path class="st112" d="M205.4,79.3c0,0.9-0.7,1.6-1.6,1.6c-0.9,0-1.6-0.7-1.6-1.6c0-0.9,0.7-1.6,1.6-1.6
				C204.7,77.7,205.4,78.4,205.4,79.3z M205.2,90.2h-2.8v-7.9h2.8V90.2z"/>
			<path class="st112" d="M212.7,84.9c-0.4-0.3-0.9-0.6-1.4-0.6c-1.1,0-1.9,0.8-1.9,1.9c0,1.1,0.8,1.9,2,1.9c0.5,0,1-0.2,1.4-0.5V90
				c-0.6,0.3-1.3,0.4-2,0.4c-2.3,0-4.3-1.7-4.3-4.1c0-2.5,1.9-4.3,4.4-4.3c0.6,0,1.3,0.2,1.8,0.5V84.9z"/>
			<path class="st112" d="M217.3,77.4v5.9h0c0.6-0.9,1.4-1.3,2.5-1.3c2,0,3,1.3,3,3.3v4.8H220v-4c0-0.9-0.1-1.9-1.3-1.9
				c-1.1,0-1.5,1-1.5,1.9v4h-2.8V77.4H217.3z"/>
			<path class="st112" d="M229.8,77.4h2.8v5.6c0.6-0.7,1.5-1,2.4-1c2.3,0,3.9,1.9,3.9,4.2c0,2.3-1.6,4.2-4,4.2
				c-0.9,0-1.9-0.4-2.4-1.1h0v0.9h-2.8V77.4z M232.5,86.2c0,1,0.7,1.8,1.8,1.8c1.1,0,1.8-0.8,1.8-1.8c0-1-0.7-1.8-1.8-1.8
				C233.1,84.5,232.5,85.3,232.5,86.2z"/>
			<path class="st112" d="M249.2,86.2c0,2.7-2.2,4.2-4.7,4.2c-2.5,0-4.7-1.5-4.7-4.2s2.2-4.2,4.7-4.2S249.2,83.6,249.2,86.2z
				 M242.7,86.2c0,1,0.7,1.8,1.8,1.8s1.8-0.8,1.8-1.8c0-1-0.7-1.8-1.8-1.8S242.7,85.3,242.7,86.2z"/>
			<path class="st112" d="M259.1,90.2h-2.8v-0.9h0c-0.5,0.8-1.5,1.1-2.4,1.1c-2.3,0-4-1.9-4-4.2s1.6-4.2,3.9-4.2
				c0.9,0,1.9,0.3,2.4,1v-0.8h2.8V90.2z M252.8,86.2c0,1,0.7,1.8,1.8,1.8s1.8-0.8,1.8-1.8c0-1-0.7-1.8-1.8-1.8
				S252.8,85.3,252.8,86.2z"/>
			<path class="st112" d="M263.8,83.6L263.8,83.6c0.6-1,1.5-1.4,2.6-1.4h0.5v2.7c-0.4-0.2-0.8-0.3-1.2-0.3c-1.5,0-1.9,1-1.9,2.4v3.2
				H261v-7.9h2.8V83.6z"/>
			<path class="st112" d="M273.8,89.3L273.8,89.3c-0.5,0.8-1.5,1.1-2.4,1.1c-2.3,0-4-1.9-4-4.2s1.6-4.2,3.9-4.2c0.9,0,1.9,0.3,2.4,1
				v-5.6h2.8v12.7h-2.8V89.3z M270.3,86.2c0,1,0.7,1.8,1.8,1.8s1.8-0.8,1.8-1.8c0-1-0.7-1.8-1.8-1.8S270.3,85.3,270.3,86.2z"/>
			<path class="st112" d="M286.4,77.4v5.9h0c0.6-0.9,1.4-1.3,2.5-1.3c2,0,3,1.3,3,3.3v4.8h-2.8v-4c0-0.9-0.1-1.9-1.3-1.9
				c-1.1,0-1.5,1-1.5,1.9v4h-2.8V77.4H286.4z"/>
			<path class="st112" d="M301.9,86.7H296c0,1.1,0.6,1.8,1.8,1.8c0.6,0,1-0.2,1.3-0.7h2.7c-0.4,1.9-2.2,2.7-4,2.7
				c-2.6,0-4.6-1.5-4.6-4.2c0-2.6,1.8-4.2,4.4-4.2c2.7,0,4.3,1.7,4.3,4.4V86.7z M299.3,85.1c-0.1-0.8-0.8-1.2-1.6-1.2
				c-0.8,0-1.5,0.4-1.7,1.2H299.3z"/>
			<path class="st112" d="M313.6,84.3c-0.4-0.2-1-0.4-1.5-0.4c-0.3,0-0.9,0.1-0.9,0.5c0,0.5,0.9,0.6,1.3,0.7
				c1.3,0.3,2.3,0.9,2.3,2.3c0,2.1-1.9,2.9-3.7,2.9c-1.1,0-2.2-0.3-3.2-0.9l1-2c0.6,0.4,1.5,0.8,2.2,0.8c0.4,0,0.9-0.2,0.9-0.6
				c0-0.6-0.9-0.6-1.8-0.9c-0.9-0.2-1.8-0.7-1.8-2.1c0-1.9,1.8-2.8,3.5-2.8c0.9,0,1.8,0.1,2.6,0.5L313.6,84.3z"/>
			<path class="st112" d="M324.4,86.7h-5.9c0,1.1,0.6,1.8,1.8,1.8c0.6,0,1-0.2,1.3-0.7h2.7c-0.4,1.9-2.2,2.7-4,2.7
				c-2.6,0-4.6-1.5-4.6-4.2c0-2.6,1.8-4.2,4.4-4.2c2.7,0,4.3,1.7,4.3,4.4V86.7z M321.8,85.1c-0.1-0.8-0.8-1.2-1.6-1.2
				c-0.8,0-1.5,0.4-1.7,1.2H321.8z"/>
			<path class="st112" d="M333.7,86.7h-5.9c0,1.1,0.6,1.8,1.8,1.8c0.6,0,1-0.2,1.3-0.7h2.7c-0.4,1.9-2.2,2.7-4,2.7
				c-2.6,0-4.6-1.5-4.6-4.2c0-2.6,1.8-4.2,4.4-4.2c2.7,0,4.3,1.7,4.3,4.4V86.7z M331.1,85.1c-0.1-0.8-0.8-1.2-1.6-1.2
				c-0.8,0-1.5,0.4-1.7,1.2H331.1z"/>
			<path class="st112" d="M340.2,84.3c-0.4-0.2-1-0.4-1.5-0.4c-0.3,0-0.9,0.1-0.9,0.5c0,0.5,0.9,0.6,1.3,0.7
				c1.3,0.3,2.3,0.9,2.3,2.3c0,2.1-1.9,2.9-3.7,2.9c-1.1,0-2.2-0.3-3.2-0.9l1-2c0.6,0.4,1.5,0.8,2.2,0.8c0.4,0,0.9-0.2,0.9-0.6
				c0-0.6-0.9-0.6-1.8-0.9c-0.9-0.2-1.8-0.7-1.8-2.1c0-1.9,1.8-2.8,3.5-2.8c0.9,0,1.8,0.1,2.6,0.5L340.2,84.3z"/>
			<path class="st112" d="M346.4,88.7c0,1-0.8,1.8-1.8,1.8c-1,0-1.8-0.8-1.8-1.8c0-1,0.8-1.8,1.8-1.8
				C345.6,86.9,346.4,87.7,346.4,88.7z"/>
		</g>
		<g>
			<path class="st111" d="M2.2,151.1v3.3h4v1.3h-4v5.7H0.7v-11.6h5.6v1.3H2.2z"/>
			<path class="st111" d="M12,149.8v6.8c0,1.9,0.6,3.6,2.8,3.6c2.2,0,2.8-1.8,2.8-3.6v-6.8h1.4v7.3c0,2.5-1.6,4.5-4.2,4.5
				c-2.7,0-4.2-1.9-4.2-4.5v-7.3H12z"/>
			<path class="st111" d="M26.9,161.4h-1.4v-10.3h-2.7v-1.3h6.9v1.3h-2.7V161.4z"/>
			<path class="st111" d="M34.8,149.8v6.8c0,1.9,0.6,3.6,2.8,3.6c2.2,0,2.8-1.8,2.8-3.6v-6.8h1.4v7.3c0,2.5-1.6,4.5-4.2,4.5
				c-2.7,0-4.2-1.9-4.2-4.5v-7.3H34.8z"/>
			<path class="st111" d="M53.8,161.4h-1.8l-3.4-4.9H48v4.9h-1.4v-11.6h1.7c1,0,2.1,0,3.1,0.5c1,0.6,1.5,1.7,1.5,2.8
				c0,1.7-1.1,3-2.8,3.2L53.8,161.4z M48,155.3h0.5c1.5,0,3.1-0.3,3.1-2.1c0-1.8-1.7-2.1-3.1-2.1H48V155.3z"/>
			<path class="st111" d="M59.3,158.5l-1.3,2.9h-1.6l5.5-12.1l5.5,12.1H66l-1.3-2.9H59.3z M62,152.5l-2.1,4.7h4.1L62,152.5z"/>
			<path class="st111" d="M80.4,153.7L80.4,153.7l-1.4,7.6h-1.5l2.4-12.1l4,9.1l4-9.1l2.4,12.1h-1.5l-1.4-7.6h0l-3.5,7.9L80.4,153.7
				z"/>
			<path class="st111" d="M94.3,149.8h6.2v1.3h-4.8v3.2h4.6v1.3h-4.6v4.4h4.8v1.3h-6.2V149.8z"/>
			<path class="st111" d="M104.9,149.8h2.4c3.5,0,6.5,1.9,6.5,5.7c0,3.9-2.9,5.8-6.5,5.8h-2.3V149.8z M106.3,160h0.5
				c2.9,0,5.5-1.1,5.5-4.5c0-3.4-2.5-4.5-5.5-4.5h-0.5V160z"/>
			<path class="st111" d="M119.4,161.4h-1.4v-11.6h1.4V161.4z"/>
			<path class="st111" d="M125.6,149.8v6.8c0,1.9,0.6,3.6,2.8,3.6c2.2,0,2.8-1.8,2.8-3.6v-6.8h1.4v7.3c0,2.5-1.6,4.5-4.2,4.5
				c-2.7,0-4.2-1.9-4.2-4.5v-7.3H125.6z"/>
			<path class="st111" d="M139.3,153.7L139.3,153.7l-1.4,7.6h-1.5l2.4-12.1l4,9.1l4-9.1l2.4,12.1h-1.5l-1.4-7.6h0l-3.5,7.9
				L139.3,153.7z"/>
			<path class="st112" d="M0.6,178.9H3c3.5,0,6.5,1.9,6.5,5.7c0,3.9-2.9,5.8-6.5,5.8H0.6V178.9z M2.1,189.1h0.5
				c2.9,0,5.5-1.1,5.5-4.5c0-3.4-2.5-4.5-5.5-4.5H2.1V189.1z"/>
			<path class="st112" d="M12.8,180c0,0.5-0.4,0.9-1,0.9c-0.5,0-1-0.4-1-0.9c0-0.5,0.4-1,1-1C12.3,179,12.8,179.5,12.8,180z
				 M12.5,190.5h-1.4v-7.2h1.4V190.5z"/>
			<path class="st112" d="M16.1,190.5h-1.4v-13.3h1.4V190.5z"/>
			<path class="st112" d="M19.6,190.5h-1.4v-13.3h1.4V190.5z"/>
			<path class="st112" d="M28.5,186.9c0,2.2-1.7,3.8-3.8,3.8s-3.8-1.7-3.8-3.8c0-2.2,1.7-3.8,3.8-3.8S28.5,184.7,28.5,186.9z
				 M22.3,186.9c0,1.4,1.1,2.5,2.5,2.5s2.5-1.2,2.5-2.5c0-1.4-1.1-2.5-2.5-2.5S22.3,185.5,22.3,186.9z"/>
			<path class="st112" d="M31.2,184.3L31.2,184.3c0.5-0.8,1.3-1.2,2.2-1.2c2,0,2.5,1.4,2.5,3.1v4.3h-1.4v-4.1c0-1.2-0.2-2.1-1.6-2.1
				c-1.8,0-1.8,1.6-1.8,2.9v3.3h-1.4v-7.2h1.4V184.3z"/>
			<path class="st112" d="M44.2,180c0,0.5-0.4,0.9-1,0.9c-0.5,0-1-0.4-1-0.9c0-0.5,0.4-1,1-1C43.8,179,44.2,179.5,44.2,180z
				 M44,190.5h-1.4v-7.2H44V190.5z"/>
			<path class="st112" d="M49,184.9c-0.2-0.4-0.5-0.6-0.9-0.6c-0.4,0-0.8,0.3-0.8,0.7c0,0.6,0.8,0.9,1.7,1.3s1.7,0.9,1.7,2
				c0,1.4-1.1,2.4-2.5,2.4c-1,0-2.1-0.6-2.5-1.6l1.2-0.5c0.3,0.5,0.6,0.9,1.3,0.9c0.6,0,1.1-0.4,1.1-1c0-0.4-0.2-0.6-0.5-0.8
				l-1.4-0.7c-0.8-0.4-1.4-0.8-1.4-1.8c0-1.2,1-2.1,2.1-2.1c0.9,0,1.6,0.5,2,1.3L49,184.9z"/>
			<path class="st112" d="M63.2,190.5h-1.4v-1.1h0c-0.6,0.8-1.4,1.4-2.4,1.4c-2.2,0-3.4-1.8-3.4-3.9c0-2,1.3-3.8,3.4-3.8
				c1.1,0,1.9,0.6,2.5,1.4h0v-1.2h1.4V190.5z M61.9,186.9c0-1.4-0.8-2.6-2.3-2.6c-1.4,0-2.3,1.2-2.3,2.6c0,1.4,0.8,2.6,2.3,2.6
				C61.1,189.5,61.9,188.3,61.9,186.9z"/>
			<path class="st112" d="M71,190.5h-1.4v-5.9h-0.8v-1.3h0.8v-2.7H71v2.7h1.4v1.3H71V190.5z"/>
			<path class="st112" d="M80.2,186.9c0,2.2-1.7,3.8-3.8,3.8s-3.8-1.7-3.8-3.8c0-2.2,1.7-3.8,3.8-3.8S80.2,184.7,80.2,186.9z
				 M73.9,186.9c0,1.4,1.1,2.5,2.5,2.5s2.5-1.2,2.5-2.5c0-1.4-1.1-2.5-2.5-2.5S73.9,185.5,73.9,186.9z"/>
			<path class="st112" d="M83,190.5h-1.4v-5.9h-0.8v-1.3h0.8v-2.7H83v2.7h1.4v1.3H83V190.5z"/>
			<path class="st112" d="M91.8,190.5h-1.4v-1.1h0c-0.6,0.8-1.4,1.4-2.4,1.4c-2.2,0-3.4-1.8-3.4-3.9c0-2,1.3-3.8,3.4-3.8
				c1.1,0,1.9,0.6,2.5,1.4h0v-1.2h1.4V190.5z M90.5,186.9c0-1.4-0.8-2.6-2.3-2.6c-1.4,0-2.3,1.2-2.3,2.6c0,1.4,0.8,2.6,2.3,2.6
				C89.7,189.5,90.5,188.3,90.5,186.9z"/>
			<path class="st112" d="M95.1,190.5h-1.4v-13.3h1.4V190.5z"/>
			<path class="st112" d="M106.8,189.3L106.8,189.3c-0.6,0.8-1.5,1.4-2.5,1.4c-2.2,0-3.4-1.8-3.4-3.9c0-2,1.3-3.8,3.4-3.8
				c1.1,0,1.9,0.6,2.5,1.4h0v-7.3h1.4v13.3h-1.4V189.3z M106.9,186.9c0-1.4-0.8-2.6-2.3-2.6c-1.4,0-2.3,1.2-2.3,2.6
				c0,1.4,0.8,2.6,2.3,2.6C106.1,189.5,106.9,188.3,106.9,186.9z"/>
			<path class="st112" d="M110.8,187.1c0,1.2,0.8,2.4,2.2,2.4c1.1,0,1.6-0.5,2.1-1.4l1.2,0.7c-0.7,1.2-1.9,2-3.3,2
				c-2.2,0-3.5-1.7-3.5-3.8c0-2.2,1.2-3.9,3.5-3.9c2.3,0,3.4,1.7,3.4,3.8v0.2H110.8z M114.9,186.1c-0.2-1.1-0.9-1.8-2-1.8
				c-1.1,0-1.9,0.8-2,1.8H114.9z"/>
			<path class="st112" d="M120.4,184.9c-0.2-0.4-0.5-0.6-0.9-0.6c-0.4,0-0.8,0.3-0.8,0.7c0,0.6,0.8,0.9,1.7,1.3s1.7,0.9,1.7,2
				c0,1.4-1.1,2.4-2.5,2.4c-1,0-2.1-0.6-2.5-1.6l1.2-0.5c0.3,0.5,0.6,0.9,1.3,0.9c0.6,0,1.1-0.4,1.1-1c0-0.4-0.2-0.6-0.5-0.8
				l-1.4-0.7c-0.8-0.4-1.4-0.8-1.4-1.8c0-1.2,1-2.1,2.1-2.1c0.9,0,1.6,0.5,2,1.3L120.4,184.9z"/>
			<path class="st112" d="M125.3,180c0,0.5-0.4,0.9-1,0.9c-0.5,0-1-0.4-1-0.9c0-0.5,0.4-1,1-1C124.9,179,125.3,179.5,125.3,180z
				 M125.1,190.5h-1.4v-7.2h1.4V190.5z"/>
			<path class="st112" d="M134,190.3c0,2.5-0.7,4.3-3.5,4.3c-2,0-3.4-1.2-3.5-3.3h1.4c0,1.3,0.9,2,2.1,2c1.7,0,2.1-1.2,2.1-2.6v-1.4
				h0c-0.6,0.8-1.4,1.4-2.4,1.4c-2.2,0-3.4-1.8-3.4-3.9c0-2,1.3-3.8,3.4-3.8c1.1,0,1.9,0.6,2.5,1.4h0v-1.2h1.4V190.3z M132.7,186.9
				c0-1.4-0.8-2.6-2.3-2.6c-1.4,0-2.3,1.2-2.3,2.6c0,1.4,0.8,2.6,2.3,2.6C131.9,189.5,132.7,188.3,132.7,186.9z"/>
			<path class="st112" d="M137.2,184.3L137.2,184.3c0.5-0.8,1.3-1.2,2.2-1.2c2,0,2.5,1.4,2.5,3.1v4.3h-1.4v-4.1
				c0-1.2-0.2-2.1-1.6-2.1c-1.8,0-1.8,1.6-1.8,2.9v3.3h-1.4v-7.2h1.4V184.3z"/>
			<path class="st112" d="M149.7,184.3L149.7,184.3c0.5-0.8,1.3-1.2,2.2-1.2c2,0,2.5,1.4,2.5,3.1v4.3H153v-4.1
				c0-1.2-0.2-2.1-1.6-2.1c-1.8,0-1.8,1.6-1.8,2.9v3.3h-1.4v-7.2h1.4V184.3z"/>
			<path class="st112" d="M157.1,187.1c0,1.2,0.8,2.4,2.2,2.4c1.1,0,1.6-0.5,2.1-1.4l1.2,0.7c-0.7,1.2-1.9,2-3.3,2
				c-2.2,0-3.5-1.7-3.5-3.8c0-2.2,1.2-3.9,3.5-3.9c2.3,0,3.4,1.7,3.4,3.8v0.2H157.1z M161.2,186.1c-0.2-1.1-0.9-1.8-2-1.8
				c-1.1,0-1.9,0.8-2,1.8H161.2z"/>
			<path class="st112" d="M165.3,184.5L165.3,184.5c0.4-0.8,1.1-1.4,2-1.4c0.4,0,0.8,0.1,1.1,0.4l-0.6,1.3c-0.2-0.2-0.5-0.3-0.8-0.3
				c-1.5,0-1.7,1.4-1.7,2.5v3.5h-1.4v-7.2h1.4V184.5z"/>
			<path class="st112" d="M174.5,189.3L174.5,189.3c-0.6,0.8-1.5,1.4-2.5,1.4c-2.2,0-3.4-1.8-3.4-3.9c0-2,1.3-3.8,3.4-3.8
				c1.1,0,1.9,0.6,2.5,1.4h0v-7.3h1.4v13.3h-1.4V189.3z M174.6,186.9c0-1.4-0.8-2.6-2.3-2.6c-1.4,0-2.3,1.2-2.3,2.6
				c0,1.4,0.8,2.6,2.3,2.6C173.8,189.5,174.6,188.3,174.6,186.9z"/>
			<path class="st112" d="M179.9,189.8c0,0.5-0.4,0.9-0.9,0.9s-0.9-0.4-0.9-0.9c0-0.5,0.4-0.9,0.9-0.9S179.9,189.3,179.9,189.8z"/>
			<path class="st112" d="M193.6,183.6v-4.7h1.4v11.6h-1.4v-5.6h-5.5v5.6h-1.4v-11.6h1.4v4.7H193.6z"/>
			<path class="st112" d="M197.8,187.1c0,1.2,0.8,2.4,2.2,2.4c1.1,0,1.6-0.5,2.1-1.4l1.2,0.7c-0.7,1.2-1.9,2-3.3,2
				c-2.2,0-3.5-1.7-3.5-3.8c0-2.2,1.2-3.9,3.5-3.9c2.3,0,3.4,1.7,3.4,3.8v0.2H197.8z M201.9,186.1c-0.2-1.1-0.9-1.8-2-1.8
				c-1.1,0-1.9,0.8-2,1.8H201.9z"/>
			<path class="st112" d="M214.1,185.3c-0.6-0.6-1.2-1-2.1-1c-1.4,0-2.4,1.2-2.4,2.5c0,1.5,1,2.5,2.5,2.5c0.8,0,1.4-0.4,2-1v1.8
				c-0.6,0.3-1.3,0.5-2,0.5c-2.1,0-3.9-1.6-3.9-3.8c0-2.2,1.7-3.9,3.9-3.9c0.6,0,1.4,0.2,1.9,0.5V185.3z"/>
			<path class="st112" d="M222.4,190.5H221v-1.1h0c-0.6,0.8-1.4,1.4-2.4,1.4c-2.2,0-3.4-1.8-3.4-3.9c0-2,1.3-3.8,3.4-3.8
				c1.1,0,1.9,0.6,2.5,1.4h0v-1.2h1.4V190.5z M221.1,186.9c0-1.4-0.8-2.6-2.3-2.6c-1.4,0-2.3,1.2-2.3,2.6c0,1.4,0.8,2.6,2.3,2.6
				C220.2,189.5,221.1,188.3,221.1,186.9z"/>
			<path class="st112" d="M225.5,184.3L225.5,184.3c0.5-0.8,1.3-1.2,2.2-1.2c2,0,2.5,1.4,2.5,3.1v4.3h-1.4v-4.1
				c0-1.2-0.2-2.1-1.6-2.1c-1.8,0-1.8,1.6-1.8,2.9v3.3h-1.4v-7.2h1.4V184.3z"/>
			<path class="st112" d="M234.6,179.1l-2,4.1l-0.9-0.4l1.7-4.2L234.6,179.1z"/>
			<path class="st112" d="M237.7,190.5h-1.4v-5.9h-0.8v-1.3h0.8v-2.7h1.4v2.7h1.4v1.3h-1.4V190.5z"/>
			<path class="st112" d="M246.7,187.9l2.1-5l2.1,5l2.1-4.6h1.6l-3.7,7.4l-2.1-4.8l-2.1,4.8l-3.7-7.4h1.6L246.7,187.9z"/>
			<path class="st112" d="M262,190.5h-1.4v-1.1h0c-0.6,0.8-1.4,1.4-2.4,1.4c-2.2,0-3.4-1.8-3.4-3.9c0-2,1.3-3.8,3.4-3.8
				c1.1,0,1.9,0.6,2.5,1.4h0v-1.2h1.4V190.5z M260.7,186.9c0-1.4-0.8-2.6-2.3-2.6c-1.4,0-2.3,1.2-2.3,2.6c0,1.4,0.8,2.6,2.3,2.6
				C259.9,189.5,260.7,188.3,260.7,186.9z"/>
			<path class="st112" d="M265.2,190.5h-1.4v-13.3h1.4V190.5z"/>
			<path class="st112" d="M268.7,186l2.7-2.7h1.8l-3.1,3l3.4,4.2h-1.8l-2.6-3.3l-0.5,0.5v2.8h-1.4v-13.3h1.4V186z"/>
			<path class="st112" d="M280.3,190.5h-1.4v-5.9h-0.8v-1.3h0.8v-2.7h1.4v2.7h1.4v1.3h-1.4V190.5z"/>
			<path class="st112" d="M283.8,177.1v7.1h0c0.4-0.8,1.3-1.2,2.2-1.2c2,0,2.5,1.4,2.5,3.1v4.3h-1.4v-4.1c0-1.2-0.2-2.1-1.6-2.1
				c-1.8,0-1.8,1.6-1.8,2.9v3.3h-1.4v-13.3H283.8z"/>
			<path class="st112" d="M291.9,184.5L291.9,184.5c0.4-0.8,1.1-1.4,2-1.4c0.4,0,0.8,0.1,1.1,0.4l-0.6,1.3c-0.2-0.2-0.5-0.3-0.8-0.3
				c-1.5,0-1.7,1.4-1.7,2.5v3.5h-1.4v-7.2h1.4V184.5z"/>
			<path class="st112" d="M302.9,186.9c0,2.2-1.7,3.8-3.8,3.8s-3.8-1.7-3.8-3.8c0-2.2,1.7-3.8,3.8-3.8S302.9,184.7,302.9,186.9z
				 M296.6,186.9c0,1.4,1.1,2.5,2.5,2.5s2.5-1.2,2.5-2.5c0-1.4-1.1-2.5-2.5-2.5S296.6,185.5,296.6,186.9z"/>
			<path class="st112" d="M305.4,183.3v4c0,1.2,0.3,2.2,1.7,2.2s1.7-1,1.7-2.2v-4h1.4v4.1c0,2-0.9,3.3-3,3.3s-3-1.3-3-3.3v-4.1
				H305.4z"/>
			<path class="st112" d="M318.7,190.3c0,2.5-0.7,4.3-3.5,4.3c-2,0-3.4-1.2-3.5-3.3h1.4c0,1.3,0.9,2,2.1,2c1.7,0,2.1-1.2,2.1-2.6
				v-1.4h0c-0.6,0.8-1.4,1.4-2.4,1.4c-2.2,0-3.4-1.8-3.4-3.9c0-2,1.3-3.8,3.4-3.8c1.1,0,1.9,0.6,2.5,1.4h0v-1.2h1.4V190.3z
				 M317.4,186.9c0-1.4-0.8-2.6-2.3-2.6c-1.4,0-2.3,1.2-2.3,2.6c0,1.4,0.8,2.6,2.3,2.6C316.6,189.5,317.4,188.3,317.4,186.9z"/>
			<path class="st112" d="M321.9,177.1v7.1h0c0.4-0.8,1.3-1.2,2.2-1.2c2,0,2.5,1.4,2.5,3.1v4.3h-1.4v-4.1c0-1.2-0.2-2.1-1.6-2.1
				c-1.8,0-1.8,1.6-1.8,2.9v3.3h-1.4v-13.3H321.9z"/>
			<path class="st112" d="M339.7,190.5h-1.4v-1.1h0c-0.6,0.8-1.4,1.4-2.4,1.4c-2.2,0-3.4-1.8-3.4-3.9c0-2,1.3-3.8,3.4-3.8
				c1.1,0,1.9,0.6,2.5,1.4h0v-1.2h1.4V190.5z M338.4,186.9c0-1.4-0.8-2.6-2.3-2.6c-1.4,0-2.3,1.2-2.3,2.6c0,1.4,0.8,2.6,2.3,2.6
				C337.6,189.5,338.4,188.3,338.4,186.9z"/>
			<path class="st112" d="M3.5,209.5c-0.2-0.4-0.5-0.6-0.9-0.6c-0.4,0-0.8,0.3-0.8,0.7c0,0.6,0.8,0.9,1.7,1.3s1.7,0.9,1.7,2
				c0,1.4-1.1,2.4-2.5,2.4c-1,0-2.1-0.6-2.5-1.6l1.2-0.5c0.3,0.5,0.6,0.9,1.3,0.9c0.6,0,1.1-0.4,1.1-1c0-0.4-0.2-0.6-0.5-0.8
				l-1.4-0.7c-0.8-0.4-1.4-0.8-1.4-1.8c0-1.2,1-2.1,2.1-2.1c0.9,0,1.6,0.5,2,1.3L3.5,209.5z"/>
			<path class="st112" d="M7.9,201.7v7.1h0c0.4-0.8,1.3-1.2,2.2-1.2c2,0,2.5,1.4,2.5,3.1v4.3h-1.4v-4.1c0-1.2-0.2-2.1-1.6-2.1
				c-1.8,0-1.8,1.6-1.8,2.9v3.3H6.5v-13.3H7.9z"/>
			<path class="st112" d="M21.5,211.4c0,2.2-1.7,3.8-3.8,3.8s-3.8-1.7-3.8-3.8c0-2.2,1.7-3.8,3.8-3.8S21.5,209.3,21.5,211.4z
				 M15.3,211.4c0,1.4,1.1,2.5,2.5,2.5s2.5-1.2,2.5-2.5c0-1.4-1.1-2.5-2.5-2.5S15.3,210.1,15.3,211.4z"/>
			<path class="st112" d="M24.1,209L24.1,209c0.6-0.9,1.5-1.4,2.5-1.4c2.1,0,3.4,1.8,3.4,3.8c0,2.1-1.2,3.9-3.4,3.9
				c-1,0-1.9-0.6-2.4-1.4h0v5.2h-1.4v-11.3h1.4V209z M28.6,211.4c0-1.4-0.8-2.6-2.3-2.6c-1.4,0-2.3,1.2-2.3,2.6
				c0,1.4,0.8,2.6,2.3,2.6C27.8,214,28.6,212.8,28.6,211.4z"/>
			<path class="st112" d="M32.6,209L32.6,209c0.6-0.9,1.5-1.4,2.5-1.4c2.1,0,3.4,1.8,3.4,3.8c0,2.1-1.2,3.9-3.4,3.9
				c-1,0-1.9-0.6-2.4-1.4h0v5.2h-1.4v-11.3h1.4V209z M37.1,211.4c0-1.4-0.8-2.6-2.3-2.6c-1.4,0-2.3,1.2-2.3,2.6
				c0,1.4,0.8,2.6,2.3,2.6C36.3,214,37.1,212.8,37.1,211.4z"/>
			<path class="st112" d="M41.8,204.6c0,0.5-0.4,0.9-1,0.9c-0.5,0-1-0.4-1-0.9c0-0.5,0.4-1,1-1C41.4,203.6,41.8,204,41.8,204.6z
				 M41.6,215h-1.4v-7.2h1.4V215z"/>
			<path class="st112" d="M45.1,208.8L45.1,208.8c0.5-0.8,1.3-1.2,2.2-1.2c2,0,2.5,1.4,2.5,3.1v4.3h-1.4v-4.1c0-1.2-0.2-2.1-1.6-2.1
				c-1.8,0-1.8,1.6-1.8,2.9v3.3h-1.4v-7.2h1.4V208.8z"/>
			<path class="st112" d="M58.5,214.9c0,2.5-0.7,4.3-3.5,4.3c-2,0-3.4-1.2-3.5-3.3h1.4c0,1.3,0.9,2,2.1,2c1.7,0,2.1-1.2,2.1-2.6
				v-1.4h0c-0.6,0.8-1.4,1.4-2.4,1.4c-2.2,0-3.4-1.8-3.4-3.9c0-2,1.3-3.8,3.4-3.8c1.1,0,1.9,0.6,2.5,1.4h0v-1.2h1.4V214.9z
				 M57.2,211.4c0-1.4-0.8-2.6-2.3-2.6c-1.4,0-2.3,1.2-2.3,2.6c0,1.4,0.8,2.6,2.3,2.6C56.4,214,57.2,212.8,57.2,211.4z"/>
			<path class="st112" d="M66.1,208.7L66.1,208.7c0.4-0.6,1.2-1.1,1.9-1.1c0.9,0,1.6,0.5,2.1,1.3c0.4-0.8,1.3-1.3,2.2-1.3
				c1.9,0,2.4,1.5,2.4,3.1v4.3h-1.4V211c0-0.9-0.1-2.1-1.3-2.1c-1.5,0-1.6,1.5-1.6,2.6v3.5H69v-3.8c0-0.9,0-2.4-1.3-2.4
				c-1.5,0-1.6,1.5-1.6,2.6v3.5h-1.4v-7.2h1.4V208.7z"/>
			<path class="st112" d="M83.3,215h-1.4v-1.1h0c-0.6,0.8-1.4,1.4-2.4,1.4c-2.2,0-3.4-1.8-3.4-3.9c0-2,1.3-3.8,3.4-3.8
				c1.1,0,1.9,0.6,2.5,1.4h0v-1.2h1.4V215z M82,211.4c0-1.4-0.8-2.6-2.3-2.6c-1.4,0-2.3,1.2-2.3,2.6c0,1.4,0.8,2.6,2.3,2.6
				C81.1,214,82,212.8,82,211.4z"/>
			<path class="st112" d="M86.5,215h-1.4v-13.3h1.4V215z"/>
			<path class="st112" d="M89.9,215h-1.4v-13.3h1.4V215z"/>
			<path class="st112" d="M98.8,212.4l2.1-5l2.1,5l2.1-4.6h1.6l-3.7,7.4l-2.1-4.8l-2.1,4.8l-3.7-7.4h1.6L98.8,212.4z"/>
			<path class="st112" d="M109.3,204.6c0,0.5-0.4,0.9-1,0.9c-0.5,0-1-0.4-1-0.9c0-0.5,0.4-1,1-1C108.8,203.6,109.3,204,109.3,204.6z
				 M109,215h-1.4v-7.2h1.4V215z"/>
			<path class="st112" d="M112.8,215h-1.4v-5.9h-0.8v-1.3h0.8v-2.7h1.4v2.7h1.4v1.3h-1.4V215z"/>
			<path class="st112" d="M116.3,201.7v7.1h0c0.4-0.8,1.3-1.2,2.2-1.2c2,0,2.5,1.4,2.5,3.1v4.3h-1.4v-4.1c0-1.2-0.2-2.1-1.6-2.1
				c-1.8,0-1.8,1.6-1.8,2.9v3.3h-1.4v-13.3H116.3z"/>
			<path class="st112" d="M130,211.4c0,2.2-1.7,3.8-3.8,3.8s-3.8-1.7-3.8-3.8c0-2.2,1.7-3.8,3.8-3.8S130,209.3,130,211.4z
				 M123.7,211.4c0,1.4,1.1,2.5,2.5,2.5s2.5-1.2,2.5-2.5c0-1.4-1.1-2.5-2.5-2.5S123.7,210.1,123.7,211.4z"/>
			<path class="st112" d="M132.5,207.8v4c0,1.2,0.3,2.2,1.7,2.2s1.7-1,1.7-2.2v-4h1.4v4.1c0,2-0.9,3.3-3,3.3s-3-1.3-3-3.3v-4.1
				H132.5z"/>
			<path class="st112" d="M140.6,215h-1.4v-5.9h-0.8v-1.3h0.8v-2.7h1.4v2.7h1.4v1.3h-1.4V215z"/>
			<path class="st112" d="M148.8,215h-1.4v-5.9h-0.8v-1.3h0.8v-2.7h1.4v2.7h1.4v1.3h-1.4V215z"/>
			<path class="st112" d="M157.6,215h-1.4v-1.1h0c-0.6,0.8-1.4,1.4-2.4,1.4c-2.2,0-3.4-1.8-3.4-3.9c0-2,1.3-3.8,3.4-3.8
				c1.1,0,1.9,0.6,2.5,1.4h0v-1.2h1.4V215z M156.3,211.4c0-1.4-0.8-2.6-2.3-2.6c-1.4,0-2.3,1.2-2.3,2.6c0,1.4,0.8,2.6,2.3,2.6
				C155.5,214,156.3,212.8,156.3,211.4z"/>
			<path class="st112" d="M160.9,210.5l2.7-2.7h1.8l-3.1,3l3.4,4.2h-1.8l-2.6-3.3l-0.5,0.5v2.8h-1.4v-13.3h1.4V210.5z"/>
			<path class="st112" d="M168.4,204.6c0,0.5-0.4,0.9-1,0.9c-0.5,0-1-0.4-1-0.9c0-0.5,0.4-1,1-1C168,203.6,168.4,204,168.4,204.6z
				 M168.2,215h-1.4v-7.2h1.4V215z"/>
			<path class="st112" d="M171.8,208.8L171.8,208.8c0.5-0.8,1.3-1.2,2.2-1.2c2,0,2.5,1.4,2.5,3.1v4.3h-1.4v-4.1
				c0-1.2-0.2-2.1-1.6-2.1c-1.8,0-1.8,1.6-1.8,2.9v3.3h-1.4v-7.2h1.4V208.8z"/>
			<path class="st112" d="M185.1,214.9c0,2.5-0.7,4.3-3.5,4.3c-2,0-3.4-1.2-3.5-3.3h1.4c0,1.3,0.9,2,2.1,2c1.7,0,2.1-1.2,2.1-2.6
				v-1.4h0c-0.6,0.8-1.4,1.4-2.4,1.4c-2.2,0-3.4-1.8-3.4-3.9c0-2,1.3-3.8,3.4-3.8c1.1,0,1.9,0.6,2.5,1.4h0v-1.2h1.4V214.9z
				 M183.8,211.4c0-1.4-0.8-2.6-2.3-2.6c-1.4,0-2.3,1.2-2.3,2.6c0,1.4,0.8,2.6,2.3,2.6C183,214,183.8,212.8,183.8,211.4z"/>
			<path class="st112" d="M192.6,209L192.6,209c0.6-0.9,1.5-1.4,2.5-1.4c2.1,0,3.4,1.8,3.4,3.8c0,2.1-1.2,3.9-3.4,3.9
				c-1,0-1.9-0.6-2.4-1.4h0v5.2h-1.4v-11.3h1.4V209z M197.2,211.4c0-1.4-0.8-2.6-2.3-2.6c-1.4,0-2.3,1.2-2.3,2.6
				c0,1.4,0.8,2.6,2.3,2.6C196.3,214,197.2,212.8,197.2,211.4z"/>
			<path class="st112" d="M201.8,204.6c0,0.5-0.4,0.9-1,0.9c-0.5,0-1-0.4-1-0.9c0-0.5,0.4-1,1-1C201.4,203.6,201.8,204,201.8,204.6z
				 M201.6,215h-1.4v-7.2h1.4V215z"/>
			<path class="st112" d="M209.1,209.9c-0.6-0.6-1.2-1-2.1-1c-1.4,0-2.4,1.2-2.4,2.5c0,1.5,1,2.5,2.5,2.5c0.8,0,1.4-0.4,2-1v1.8
				c-0.6,0.3-1.3,0.5-2,0.5c-2.1,0-3.9-1.6-3.9-3.8c0-2.2,1.7-3.9,3.9-3.9c0.6,0,1.4,0.2,1.9,0.5V209.9z"/>
			<path class="st112" d="M212.1,215h-1.4v-5.9H210v-1.3h0.8v-2.7h1.4v2.7h1.4v1.3h-1.4V215z"/>
			<path class="st112" d="M215.6,207.8v4c0,1.2,0.3,2.2,1.7,2.2s1.7-1,1.7-2.2v-4h1.4v4.1c0,2-0.9,3.3-3,3.3s-3-1.3-3-3.3v-4.1
				H215.6z"/>
			<path class="st112" d="M223.6,209L223.6,209c0.4-0.8,1.1-1.4,2-1.4c0.4,0,0.8,0.1,1.1,0.4l-0.6,1.3c-0.2-0.2-0.5-0.3-0.8-0.3
				c-1.5,0-1.7,1.4-1.7,2.5v3.5h-1.4v-7.2h1.4V209z"/>
			<path class="st112" d="M228.3,211.7c0,1.2,0.8,2.4,2.2,2.4c1.1,0,1.6-0.5,2.1-1.4l1.2,0.7c-0.7,1.2-1.9,2-3.3,2
				c-2.2,0-3.5-1.7-3.5-3.8c0-2.2,1.2-3.9,3.5-3.9c2.3,0,3.4,1.7,3.4,3.8v0.2H228.3z M232.4,210.6c-0.2-1.1-0.9-1.8-2-1.8
				c-1.1,0-1.9,0.8-2,1.8H232.4z"/>
			<path class="st112" d="M237.9,209.5c-0.2-0.4-0.5-0.6-0.9-0.6c-0.4,0-0.8,0.3-0.8,0.7c0,0.6,0.8,0.9,1.7,1.3s1.7,0.9,1.7,2
				c0,1.4-1.1,2.4-2.5,2.4c-1,0-2.1-0.6-2.5-1.6l1.2-0.5c0.3,0.5,0.6,0.9,1.3,0.9c0.6,0,1.1-0.4,1.1-1c0-0.4-0.2-0.6-0.5-0.8
				l-1.4-0.7c-0.8-0.4-1.4-0.8-1.4-1.8c0-1.2,1-2.1,2.1-2.1c0.9,0,1.6,0.5,2,1.3L237.9,209.5z"/>
			<path class="st112" d="M252.3,211.4c0,2.2-1.7,3.8-3.8,3.8c-2.1,0-3.8-1.7-3.8-3.8c0-2.2,1.7-3.8,3.8-3.8
				C250.6,207.6,252.3,209.3,252.3,211.4z M246,211.4c0,1.4,1.1,2.5,2.5,2.5s2.5-1.2,2.5-2.5c0-1.4-1.1-2.5-2.5-2.5
				S246,210.1,246,211.4z"/>
			<path class="st112" d="M257.2,203.1c-0.3-0.1-0.6-0.3-0.9-0.3c-1,0-1,1.2-1,1.9v3.1h1.9v1.3h-1.9v5.9h-1.4v-5.9h-0.6v-1.3h0.6
				v-3.5c0-1.6,0.5-2.8,2.3-2.8c0.3,0,0.7,0.1,1,0.2V203.1z"/>
			<path class="st112" d="M263.1,211.7c0,1.2,0.8,2.4,2.2,2.4c1.1,0,1.6-0.5,2.1-1.4l1.2,0.7c-0.7,1.2-1.9,2-3.3,2
				c-2.2,0-3.5-1.7-3.5-3.8c0-2.2,1.2-3.9,3.5-3.9c2.3,0,3.4,1.7,3.4,3.8v0.2H263.1z M267.2,210.6c-0.2-1.1-0.9-1.8-2-1.8
				c-1.1,0-1.9,0.8-2,1.8H267.2z"/>
			<path class="st112" d="M272.2,212.3l2.1-4.5h1.5l-3.6,7.4l-3.6-7.4h1.5L272.2,212.3z"/>
			<path class="st112" d="M277.4,211.7c0,1.2,0.8,2.4,2.2,2.4c1.1,0,1.6-0.5,2.1-1.4l1.2,0.7c-0.7,1.2-1.9,2-3.3,2
				c-2.2,0-3.5-1.7-3.5-3.8c0-2.2,1.2-3.9,3.5-3.9c2.3,0,3.4,1.7,3.4,3.8v0.2H277.4z M281.5,210.6c-0.2-1.1-0.9-1.8-2-1.8
				c-1.1,0-1.9,0.8-2,1.8H281.5z"/>
			<path class="st112" d="M285.5,209L285.5,209c0.4-0.8,1.1-1.4,2-1.4c0.4,0,0.8,0.1,1.1,0.4l-0.6,1.3c-0.2-0.2-0.5-0.3-0.8-0.3
				c-1.5,0-1.7,1.4-1.7,2.5v3.5h-1.4v-7.2h1.4V209z"/>
			<path class="st112" d="M288.9,207.8h1.6l2.4,4.6l2.3-4.6h1.6l-5.8,11.3h-1.6l2.8-5.3L288.9,207.8z"/>
			<path class="st112" d="M303.4,215H302v-13.3h1.4V215z"/>
			<path class="st112" d="M312.4,211.4c0,2.2-1.7,3.8-3.8,3.8s-3.8-1.7-3.8-3.8c0-2.2,1.7-3.8,3.8-3.8S312.4,209.3,312.4,211.4z
				 M306.1,211.4c0,1.4,1.1,2.5,2.5,2.5s2.5-1.2,2.5-2.5c0-1.4-1.1-2.5-2.5-2.5S306.1,210.1,306.1,211.4z"/>
			<path class="st112" d="M320.3,214.9c0,2.5-0.7,4.3-3.5,4.3c-2,0-3.4-1.2-3.5-3.3h1.4c0,1.3,0.9,2,2.1,2c1.7,0,2.1-1.2,2.1-2.6
				v-1.4h0c-0.6,0.8-1.4,1.4-2.4,1.4c-2.2,0-3.4-1.8-3.4-3.9c0-2,1.3-3.8,3.4-3.8c1.1,0,1.9,0.6,2.5,1.4h0v-1.2h1.4V214.9z
				 M319,211.4c0-1.4-0.8-2.6-2.3-2.6c-1.4,0-2.3,1.2-2.3,2.6c0,1.4,0.8,2.6,2.3,2.6C318.2,214,319,212.8,319,211.4z"/>
			<path class="st112" d="M329.2,211.4c0,2.2-1.7,3.8-3.8,3.8s-3.8-1.7-3.8-3.8c0-2.2,1.7-3.8,3.8-3.8S329.2,209.3,329.2,211.4z
				 M322.9,211.4c0,1.4,1.1,2.5,2.5,2.5s2.5-1.2,2.5-2.5c0-1.4-1.1-2.5-2.5-2.5S322.9,210.1,322.9,211.4z"/>
			<path class="st112" d="M333.2,213.7l-2,4.1l-0.8-0.4l1.7-4.2L333.2,213.7z"/>
			<path class="st112" d="M5.9,234.4c-0.6-0.6-1.2-1-2.1-1c-1.4,0-2.4,1.2-2.4,2.5c0,1.5,1,2.5,2.5,2.5c0.8,0,1.4-0.4,2-1v1.8
				c-0.6,0.3-1.3,0.5-2,0.5c-2.1,0-3.9-1.6-3.9-3.8c0-2.2,1.7-3.9,3.9-3.9c0.6,0,1.4,0.2,1.9,0.5V234.4z"/>
			<path class="st112" d="M8.8,239.6H7.4v-13.3h1.4V239.6z"/>
			<path class="st112" d="M17.8,236c0,2.2-1.7,3.8-3.8,3.8s-3.8-1.7-3.8-3.8c0-2.2,1.7-3.8,3.8-3.8S17.8,233.8,17.8,236z M11.5,236
				c0,1.4,1.1,2.5,2.5,2.5s2.5-1.2,2.5-2.5c0-1.4-1.1-2.5-2.5-2.5S11.5,234.6,11.5,236z"/>
			<path class="st112" d="M20.6,239.6h-1.4v-5.9h-0.8v-1.3h0.8v-2.7h1.4v2.7H22v1.3h-1.4V239.6z"/>
			<path class="st112" d="M24.1,226.3v7.1h0c0.4-0.8,1.3-1.2,2.2-1.2c2,0,2.5,1.4,2.5,3.1v4.3h-1.4v-4.1c0-1.2-0.2-2.1-1.6-2.1
				c-1.8,0-1.8,1.6-1.8,2.9v3.3h-1.4v-13.3H24.1z"/>
			<path class="st112" d="M32.7,229.1c0,0.5-0.4,0.9-1,0.9c-0.5,0-1-0.4-1-0.9c0-0.5,0.4-1,1-1C32.3,228.1,32.7,228.6,32.7,229.1z
				 M32.5,239.6h-1.4v-7.2h1.4V239.6z"/>
			<path class="st112" d="M36,233.4L36,233.4c0.5-0.8,1.3-1.2,2.2-1.2c2,0,2.5,1.4,2.5,3.1v4.3h-1.4v-4.1c0-1.2-0.2-2.1-1.6-2.1
				c-1.8,0-1.8,1.6-1.8,2.9v3.3h-1.4v-7.2H36V233.4z"/>
			<path class="st112" d="M49.4,239.4c0,2.5-0.7,4.3-3.5,4.3c-2,0-3.4-1.2-3.5-3.3h1.4c0,1.3,0.9,2,2.1,2c1.7,0,2.1-1.2,2.1-2.6
				v-1.4h0c-0.6,0.8-1.4,1.4-2.4,1.4c-2.2,0-3.4-1.8-3.4-3.9c0-2,1.3-3.8,3.4-3.8c1.1,0,1.9,0.6,2.5,1.4h0v-1.2h1.4V239.4z
				 M48.1,236c0-1.4-0.8-2.6-2.3-2.6c-1.4,0-2.3,1.2-2.3,2.6c0,1.4,0.8,2.6,2.3,2.6C47.3,238.6,48.1,237.4,48.1,236z"/>
			<path class="st112" d="M56.9,233.6L56.9,233.6c0.6-0.9,1.5-1.4,2.5-1.4c2.1,0,3.4,1.8,3.4,3.8c0,2.1-1.2,3.9-3.4,3.9
				c-1,0-1.9-0.6-2.4-1.4h0v5.2h-1.4v-11.3h1.4V233.6z M61.4,236c0-1.4-0.8-2.6-2.3-2.6c-1.4,0-2.3,1.2-2.3,2.6
				c0,1.4,0.8,2.6,2.3,2.6C60.6,238.6,61.4,237.4,61.4,236z"/>
			<path class="st112" d="M65.7,233.6L65.7,233.6c0.4-0.8,1.1-1.4,2-1.4c0.4,0,0.8,0.1,1.1,0.4l-0.6,1.3c-0.2-0.2-0.5-0.3-0.8-0.3
				c-1.5,0-1.7,1.4-1.7,2.5v3.5h-1.4v-7.2h1.4V233.6z"/>
			<path class="st112" d="M71.5,229.1c0,0.5-0.4,0.9-1,0.9c-0.5,0-1-0.4-1-0.9c0-0.5,0.4-1,1-1C71.1,228.1,71.5,228.6,71.5,229.1z
				 M71.3,239.6h-1.4v-7.2h1.4V239.6z"/>
			<path class="st112" d="M74.8,233.4L74.8,233.4c0.5-0.8,1.3-1.2,2.2-1.2c2,0,2.5,1.4,2.5,3.1v4.3h-1.4v-4.1c0-1.2-0.2-2.1-1.6-2.1
				c-1.8,0-1.8,1.6-1.8,2.9v3.3h-1.4v-7.2h1.4V233.4z"/>
			<path class="st112" d="M83.1,239.6h-1.4v-5.9h-0.8v-1.3h0.8v-2.7h1.4v2.7h1.4v1.3h-1.4V239.6z"/>
			<path class="st112" d="M96.3,239.6H95v-1.1h0c-0.6,0.8-1.4,1.4-2.4,1.4c-2.2,0-3.4-1.8-3.4-3.9c0-2,1.3-3.8,3.4-3.8
				c1.1,0,1.9,0.6,2.5,1.4h0v-1.2h1.4V239.6z M95,236c0-1.4-0.8-2.6-2.3-2.6c-1.4,0-2.3,1.2-2.3,2.6c0,1.4,0.8,2.6,2.3,2.6
				C94.2,238.6,95,237.4,95,236z"/>
			<path class="st112" d="M99.5,233.4L99.5,233.4c0.5-0.8,1.3-1.2,2.2-1.2c2,0,2.5,1.4,2.5,3.1v4.3h-1.4v-4.1c0-1.2-0.2-2.1-1.6-2.1
				c-1.8,0-1.8,1.6-1.8,2.9v3.3h-1.4v-7.2h1.4V233.4z"/>
			<path class="st112" d="M111.5,238.5L111.5,238.5c-0.6,0.8-1.5,1.4-2.5,1.4c-2.2,0-3.4-1.8-3.4-3.9c0-2,1.3-3.8,3.4-3.8
				c1.1,0,1.9,0.6,2.5,1.4h0v-7.3h1.4v13.3h-1.4V238.5z M111.6,236c0-1.4-0.8-2.6-2.3-2.6c-1.4,0-2.3,1.2-2.3,2.6
				c0,1.4,0.8,2.6,2.3,2.6C110.8,238.6,111.6,237.4,111.6,236z"/>
			<path class="st112" d="M122,234c-0.2-0.4-0.5-0.6-0.9-0.6c-0.4,0-0.8,0.3-0.8,0.7c0,0.6,0.8,0.9,1.7,1.3s1.7,0.9,1.7,2
				c0,1.4-1.1,2.4-2.5,2.4c-1,0-2.1-0.6-2.5-1.6l1.2-0.5c0.3,0.5,0.6,0.9,1.3,0.9c0.6,0,1.1-0.4,1.1-1c0-0.4-0.2-0.6-0.5-0.8
				l-1.4-0.7c-0.8-0.4-1.4-0.8-1.4-1.8c0-1.2,1-2.1,2.1-2.1c0.9,0,1.6,0.5,2,1.3L122,234z"/>
			<path class="st112" d="M131.8,239.6h-1.4v-1.1h0c-0.6,0.8-1.4,1.4-2.4,1.4c-2.2,0-3.4-1.8-3.4-3.9c0-2,1.3-3.8,3.4-3.8
				c1.1,0,1.9,0.6,2.5,1.4h0v-1.2h1.4V239.6z M130.5,236c0-1.4-0.8-2.6-2.3-2.6c-1.4,0-2.3,1.2-2.3,2.6c0,1.4,0.8,2.6,2.3,2.6
				C129.6,238.6,130.5,237.4,130.5,236z"/>
			<path class="st112" d="M134.9,233.4L134.9,233.4c0.5-0.8,1.3-1.2,2.2-1.2c2,0,2.5,1.4,2.5,3.1v4.3h-1.4v-4.1
				c0-1.2-0.2-2.1-1.6-2.1c-1.8,0-1.8,1.6-1.8,2.9v3.3h-1.4v-7.2h1.4V233.4z"/>
			<path class="st112" d="M146.9,238.5L146.9,238.5c-0.6,0.8-1.5,1.4-2.5,1.4c-2.2,0-3.4-1.8-3.4-3.9c0-2,1.3-3.8,3.4-3.8
				c1.1,0,1.9,0.6,2.5,1.4h0v-7.3h1.4v13.3h-1.4V238.5z M147,236c0-1.4-0.8-2.6-2.3-2.6c-1.4,0-2.3,1.2-2.3,2.6
				c0,1.4,0.8,2.6,2.3,2.6C146.2,238.6,147,237.4,147,236z"/>
			<path class="st112" d="M152.6,237l2.1-5l2.1,5l2.1-4.6h1.6l-3.7,7.4l-2.1-4.8l-2.1,4.8l-3.7-7.4h1.6L152.6,237z"/>
			<path class="st112" d="M163.1,229.1c0,0.5-0.4,0.9-1,0.9c-0.5,0-1-0.4-1-0.9c0-0.5,0.4-1,1-1
				C162.7,228.1,163.1,228.6,163.1,229.1z M162.8,239.6h-1.4v-7.2h1.4V239.6z"/>
			<path class="st112" d="M170.3,234.4c-0.6-0.6-1.2-1-2.1-1c-1.4,0-2.4,1.2-2.4,2.5c0,1.5,1,2.5,2.5,2.5c0.8,0,1.4-0.4,2-1v1.8
				c-0.6,0.3-1.3,0.5-2,0.5c-2.1,0-3.9-1.6-3.9-3.8c0-2.2,1.7-3.9,3.9-3.9c0.6,0,1.4,0.2,1.9,0.5V234.4z"/>
			<path class="st112" d="M173.2,226.3v7.1h0c0.4-0.8,1.3-1.2,2.2-1.2c2,0,2.5,1.4,2.5,3.1v4.3h-1.4v-4.1c0-1.2-0.2-2.1-1.6-2.1
				c-1.8,0-1.8,1.6-1.8,2.9v3.3h-1.4v-13.3H173.2z"/>
			<path class="st112" d="M184.2,226.3h1.4v7.3h0c0.6-0.9,1.4-1.4,2.5-1.4c2.1,0,3.4,1.8,3.4,3.8c0,2.1-1.2,3.9-3.4,3.9
				c-1,0-1.9-0.6-2.4-1.4h0v1.1h-1.4V226.3z M190.1,236c0-1.4-0.8-2.6-2.3-2.6c-1.4,0-2.3,1.2-2.3,2.6c0,1.4,0.8,2.6,2.3,2.6
				C189.2,238.6,190.1,237.4,190.1,236z"/>
			<path class="st112" d="M199.8,236c0,2.2-1.7,3.8-3.8,3.8s-3.8-1.7-3.8-3.8c0-2.2,1.7-3.8,3.8-3.8S199.8,233.8,199.8,236z
				 M193.5,236c0,1.4,1.1,2.5,2.5,2.5s2.5-1.2,2.5-2.5c0-1.4-1.1-2.5-2.5-2.5S193.5,234.6,193.5,236z"/>
			<path class="st112" d="M207.8,239.6h-1.4v-1.1h0c-0.6,0.8-1.4,1.4-2.4,1.4c-2.2,0-3.4-1.8-3.4-3.9c0-2,1.3-3.8,3.4-3.8
				c1.1,0,1.9,0.6,2.5,1.4h0v-1.2h1.4V239.6z M206.5,236c0-1.4-0.8-2.6-2.3-2.6c-1.4,0-2.3,1.2-2.3,2.6c0,1.4,0.8,2.6,2.3,2.6
				C205.7,238.6,206.5,237.4,206.5,236z"/>
			<path class="st112" d="M211.1,233.6L211.1,233.6c0.4-0.8,1.1-1.4,2-1.4c0.4,0,0.8,0.1,1.1,0.4l-0.6,1.3c-0.2-0.2-0.5-0.3-0.8-0.3
				c-1.5,0-1.7,1.4-1.7,2.5v3.5h-1.4v-7.2h1.4V233.6z"/>
			<path class="st112" d="M220.4,238.5L220.4,238.5c-0.6,0.8-1.5,1.4-2.5,1.4c-2.2,0-3.4-1.8-3.4-3.9c0-2,1.3-3.8,3.4-3.8
				c1.1,0,1.9,0.6,2.5,1.4h0v-7.3h1.4v13.3h-1.4V238.5z M220.4,236c0-1.4-0.8-2.6-2.3-2.6c-1.4,0-2.3,1.2-2.3,2.6
				c0,1.4,0.8,2.6,2.3,2.6C219.6,238.6,220.4,237.4,220.4,236z"/>
			<path class="st112" d="M229.4,226.3v7.1h0c0.4-0.8,1.3-1.2,2.2-1.2c2,0,2.5,1.4,2.5,3.1v4.3h-1.4v-4.1c0-1.2-0.2-2.1-1.6-2.1
				c-1.8,0-1.8,1.6-1.8,2.9v3.3H228v-13.3H229.4z"/>
			<path class="st112" d="M236.8,236.2c0,1.2,0.8,2.4,2.2,2.4c1.1,0,1.6-0.5,2.1-1.4l1.2,0.7c-0.7,1.2-1.9,2-3.3,2
				c-2.2,0-3.5-1.7-3.5-3.8c0-2.2,1.2-3.9,3.5-3.9c2.3,0,3.4,1.7,3.4,3.8v0.2H236.8z M240.9,235.2c-0.2-1.1-0.9-1.8-2-1.8
				c-1.1,0-1.9,0.8-2,1.8H240.9z"/>
			<path class="st112" d="M250.8,234c-0.2-0.4-0.5-0.6-0.9-0.6c-0.4,0-0.8,0.3-0.8,0.7c0,0.6,0.8,0.9,1.7,1.3c0.8,0.4,1.7,0.9,1.7,2
				c0,1.4-1.1,2.4-2.5,2.4c-1,0-2.1-0.6-2.5-1.6l1.2-0.5c0.3,0.5,0.6,0.9,1.3,0.9c0.6,0,1.1-0.4,1.1-1c0-0.4-0.2-0.6-0.5-0.8
				l-1.4-0.7c-0.8-0.4-1.4-0.8-1.4-1.8c0-1.2,1-2.1,2.1-2.1c0.9,0,1.6,0.5,2,1.3L250.8,234z"/>
			<path class="st112" d="M254.6,236.2c0,1.2,0.8,2.4,2.2,2.4c1.1,0,1.6-0.5,2.1-1.4l1.2,0.7c-0.7,1.2-1.9,2-3.3,2
				c-2.2,0-3.5-1.7-3.5-3.8c0-2.2,1.2-3.9,3.5-3.9c2.3,0,3.4,1.7,3.4,3.8v0.2H254.6z M258.7,235.2c-0.2-1.1-0.9-1.8-2-1.8
				c-1.1,0-1.9,0.8-2,1.8H258.7z"/>
			<path class="st112" d="M262.1,236.2c0,1.2,0.8,2.4,2.2,2.4c1.1,0,1.6-0.5,2.1-1.4l1.2,0.7c-0.7,1.2-1.9,2-3.3,2
				c-2.2,0-3.5-1.7-3.5-3.8c0-2.2,1.2-3.9,3.5-3.9c2.3,0,3.4,1.7,3.4,3.8v0.2H262.1z M266.2,235.2c-0.2-1.1-0.9-1.8-2-1.8
				c-1.1,0-1.9,0.8-2,1.8H266.2z"/>
			<path class="st112" d="M271.7,234c-0.2-0.4-0.5-0.6-0.9-0.6c-0.4,0-0.8,0.3-0.8,0.7c0,0.6,0.8,0.9,1.7,1.3c0.8,0.4,1.7,0.9,1.7,2
				c0,1.4-1.1,2.4-2.5,2.4c-1,0-2.1-0.6-2.5-1.6l1.2-0.5c0.3,0.5,0.6,0.9,1.3,0.9c0.6,0,1.1-0.4,1.1-1c0-0.4-0.2-0.6-0.5-0.8
				l-1.4-0.7c-0.8-0.4-1.4-0.8-1.4-1.8c0-1.2,1-2.1,2.1-2.1c0.9,0,1.6,0.5,2,1.3L271.7,234z"/>
			<path class="st112" d="M276.8,238.9c0,0.5-0.4,0.9-0.9,0.9s-0.9-0.4-0.9-0.9c0-0.5,0.4-0.9,0.9-0.9S276.8,238.5,276.8,238.9z"/>
		</g>
		<g>
			<path class="st111" d="M506,47.3l-1.7,4.4h-6.9l9.6-25.1h7.1l9.4,25.1h-6.9l-1.6-4.4H506z M510.5,34.3L510.5,34.3l-2.8,8h5.4
				L510.5,34.3z"/>
			<path class="st111" d="M551.4,51.7h-6v-1.9h-0.1c-1.1,1.7-3.2,2.5-5.2,2.5c-5.1,0-8.6-4.2-8.6-9.1S535,34,540,34
				c2,0,4,0.7,5.3,2.2v-1.7h6V51.7z M537.7,43.1c0,2.2,1.4,3.8,3.9,3.8c2.5,0,3.9-1.7,3.9-3.8c0-2.1-1.4-3.9-3.9-3.9
				C539.2,39.3,537.7,41.1,537.7,43.1z"/>
			<path class="st111" d="M581.5,51.7V26.6h9.3c4.5,0,7.4,1.7,7.4,6.5c0,2.3-0.7,4.1-2.8,5.1v0.1c3.6,0.5,5.1,2.9,5.1,6.4
				c0,5.3-4.5,7-9.1,7H581.5z M588,36.4h0.7c1.7,0,3.5-0.3,3.5-2.4c0-2.3-2-2.4-3.8-2.4H588V36.4z M588,46.7h0.8
				c1.9,0,5.2,0.1,5.2-2.7c0-3-3.2-2.7-5.4-2.7H588V46.7z"/>
			<path class="st111" d="M611,24.1h6v12.2c1.3-1.5,3.3-2.2,5.3-2.2c5.1,0,8.5,4.2,8.5,9.1c0,4.9-3.5,9.1-8.6,9.1
				c-2,0-4.1-0.8-5.2-2.5h-0.1v1.9h-6V24.1z M616.9,43.1c0,2.2,1.4,3.8,3.9,3.8s3.9-1.7,3.9-3.8c0-2.1-1.4-3.9-3.9-3.9
				S616.9,41.1,616.9,43.1z"/>
			<path class="st111" d="M677.9,35c-1.3-1.8-3.5-2.8-5.7-2.8c-4,0-6.7,3.1-6.7,6.9c0,4,2.7,6.8,6.8,6.8c2.1,0,4.3-1,5.6-2.7v7.8
				c-2.2,0.7-3.7,1.2-5.8,1.2c-3.5,0-6.8-1.3-9.4-3.7c-2.8-2.5-4-5.7-4-9.5c0-3.4,1.3-6.7,3.7-9.2c2.5-2.5,6-4.1,9.5-4.1
				c2.1,0,4,0.5,5.9,1.3V35z"/>
			<path class="st111" d="M701.4,40.2c-0.9-0.7-2-1.2-3.1-1.2c-2.3,0-4.2,1.8-4.2,4.2c0,2.5,1.8,4.2,4.3,4.2c1.1,0,2.2-0.4,3-1.2
				v5.1c-1.3,0.7-2.8,1-4.3,1c-5.1,0-9.3-3.8-9.3-8.9c0-5.5,4.2-9.3,9.5-9.3c1.4,0,2.8,0.3,4,1V40.2z"/>
			<path class="st111" d="M502.8,71.3v-5.5h10.1v25.1h-6.5V71.3H502.8z"/>
			<path class="st111" d="M564.9,85.3v5.5h-20.1L555,79.7c1.5-1.6,2.9-3.9,2.9-6.1c0-1.6-1.1-3.3-2.9-3.3c-1.8,0-2.7,1.4-2.7,3.1
				c0,0.3,0,0.7,0.1,1.1h-7.2c0.2-5.8,3.9-9.6,9.8-9.6c5.3,0,9.7,3.5,9.7,8.9c0,3.6-1.5,5.7-4.1,8l-3.9,3.6H564.9z"/>
			<path class="st111" d="M592.2,73c0.3-2.6,1.3-4.6,2.9-6c1.6-1.4,3.8-2.2,6.4-2.2c4.5,0,8,2.6,8,7.3c0,2-0.8,4.1-2.6,5.2
				c2.7,0.7,4.1,3.8,4.1,6.3c0,5.5-4.8,8.3-9.7,8.3c-2.9,0-5.5-0.8-7.5-2.8c-1.5-1.5-2.9-4.1-2.9-6.3h6.6c0,2,1.4,3.6,3.5,3.6
				c2,0,3.5-1.3,3.5-3.4c0-1.9-1.6-3.4-3.5-3.4c-0.4,0-0.8,0.1-1.1,0.2v-4.4h0.7c1.7,0,2.9-1,2.9-2.8c0-1.5-1.1-2.5-2.6-2.5
				c-1.7,0-2.7,1.3-2.7,2.9H592.2z"/>
			<path class="st111" d="M657.7,80.7v5h-3v5.2h-6v-5.2h-12.2v-4.2l9.7-15.7h8.5v14.9H657.7z M648.6,71L648.6,71l-5.9,9.6h5.9V71z"
				/>
			<path class="st111" d="M692.2,71.3l-0.4,2.9l2.1-0.2c5.1-0.4,8.9,3.8,8.9,9c0,2.6-1.2,5.1-3.2,6.8c-2,1.6-4.8,2.1-7.3,2.1
				c-2.9,0-5.7-0.7-8.2-2.3l1-6.1c1.9,1.7,4.4,2.9,7,2.9c2.1,0,4-1.5,4-3.7c0-3-2.9-4.3-5.5-4.3c-1.7,0-3.3,0.3-4.8,1l2.2-13.6h13
				v5.5H692.2z"/>
		</g>
		<g>
			<path class="st111" d="M508.1,190.1l-2.9,6.3h-3.4l12-26.1l12,26.1h-3.4l-2.9-6.3H508.1z M513.9,177.1l-4.5,10.1h8.9L513.9,177.1
				z"/>
			<path class="st111" d="M550.8,196.4h-3V194h-0.1c-1.2,1.8-3.1,3-5.3,3c-4.8,0-7.4-4-7.4-8.4c0-4.3,2.8-8.1,7.3-8.1
				c2.3,0,4.2,1.2,5.4,3.1h0.1v-2.6h3V196.4z M548,188.6c0-3-1.8-5.6-5.1-5.6c-3.1,0-4.9,2.7-4.9,5.6c0,2.9,1.8,5.6,4.9,5.6
				C546.2,194.3,548,191.7,548,188.6z"/>
			<path class="st111" d="M581.7,171.4h3.1c4.7,0,9.2,1.2,9.2,6.9c0,1.8-1,4-2.7,4.8v0.1c3,0.5,5,3.4,5,6.3c0,5-4.3,7-8.7,7h-5.8
				V171.4z M584.8,182.5h0.8c3,0,5.4-0.6,5.4-4.2c0-3.5-2.4-4.1-5.3-4.1h-0.9V182.5z M584.8,193.6h2.4c2.9,0,5.9-0.9,5.9-4.4
				c0-3.5-3.6-4.3-6.4-4.3h-1.9V193.6z"/>
			<path class="st111" d="M607.8,167.6h3v15.9h0.1c1.2-1.9,3.1-3.1,5.4-3.1c4.5,0,7.3,3.9,7.3,8.1c0,4.5-2.7,8.4-7.4,8.4
				c-2.2,0-4.1-1.2-5.3-3h-0.1v2.4h-3V167.6z M620.6,188.6c0-3-1.8-5.6-5.1-5.6c-3.1,0-4.9,2.7-4.9,5.6c0,2.9,1.8,5.6,4.9,5.6
				C618.8,194.3,620.6,191.7,620.6,188.6z"/>
			<path class="st111" d="M672,176.1c-1.8-1.6-4.3-2.5-6.6-2.5c-5.6,0-9.9,4.7-9.9,10.2c0,5.5,4.3,10.2,9.8,10.2
				c2.5,0,4.8-0.9,6.7-2.6v3.7c-1.9,1.1-4.4,1.8-6.6,1.8c-7.1,0-13.1-5.7-13.1-12.9c0-7.4,5.9-13.2,13.3-13.2c2.2,0,4.4,0.5,6.3,1.7
				V176.1z"/>
			<path class="st111" d="M695.4,185.3c-1.2-1.4-2.7-2.1-4.5-2.1c-2.9,0-5.2,2.6-5.2,5.5c0,3.2,2.2,5.5,5.4,5.5
				c1.7,0,3.1-0.8,4.3-2.1v3.8c-1.4,0.7-2.7,1-4.3,1c-4.6,0-8.3-3.5-8.3-8.2c0-4.8,3.7-8.4,8.5-8.4c1.4,0,2.9,0.3,4.1,1V185.3z"/>
			<path class="st111" d="M506.3,217.4l1.7-2.9h5.6v25.1h-3v-22.2H506.3z"/>
			<path class="st111" d="M563.3,236.7v2.9h-16.2l11-13.5c1-1.3,2.2-2.8,2.2-4.5c0-2.6-2.3-4.8-4.9-4.8c-2.6,0-4.7,2.1-4.8,4.6h-3.1
				c0.5-4.5,3.4-7.4,7.9-7.4c4.3,0,7.9,3.2,7.9,7.5c0,1.9-0.7,3.7-1.9,5.2l-8.2,10.1H563.3z"/>
			<path class="st111" d="M598.2,225c2.7,0,4.9-1,4.9-4c0-2.5-1.9-4.3-4.4-4.3c-2.3,0-3.8,1.4-4.2,3.6h-3.1c0.6-4.1,3.2-6.3,7.3-6.3
				c4,0,7.2,2.6,7.2,6.7c0,2.5-1.1,4.5-3.2,5.7c2.5,1.2,3.6,3.5,3.6,6.2c0,4.7-3.5,7.5-8,7.5c-3.9,0-7.4-2.6-7.6-6.7h3
				c0.3,2.5,2.5,4,4.9,4c2.8,0,4.8-2.2,4.8-4.9c0-3.2-2.2-5.1-5.3-4.9V225z"/>
			<path class="st111" d="M650.9,233.2v2.7h-2.9v3.7h-3v-3.7h-12.4l15.4-22.5v19.7H650.9z M645.1,222.9L645.1,222.9l-7.1,10.3h7.1
				V222.9z"/>
			<path class="st111" d="M685.6,217.4l-1.6,5.2l1.8-0.1c4.9,0,8,4.2,8,8.8c0,5.3-4.1,8.9-9.3,8.9c-3.1,0-6.2-1.6-7.6-4.4l2.3-2.2
				c0.8,2.1,3.3,3.7,5.5,3.7c3.4,0,6-2.8,6-6.1c0-3.2-2.8-5.9-6-5.9c-1.8,0-3.6,0.8-4.7,2.2h-0.6l3.9-12.9h10v2.9H685.6z"/>
		</g>
	</g>
</g>
<g id="Layer_2">
</g>
</svg>
