<?xml version="1.0" encoding="utf-8"?>
<!-- Generator: Adobe Illustrator 19.0.1, SVG Export Plug-In . SVG Version: 6.00 Build 0)  -->
<svg version="1.1" xmlns="http://www.w3.org/2000/svg" xmlns:xlink="http://www.w3.org/1999/xlink" x="0px" y="0px"
	 viewBox="0 0 699.4 123.2" style="enable-background:new 0 0 699.4 123.2;" xml:space="preserve">
<style type="text/css">
	.st0{fill:#CC6632;}
	.st1{fill:#362012;}
	.st2{fill:#FFFFFF;}
	.st3{clip-path:url(#SVGID_2_);fill:#FCCB98;}
	.st4{clip-path:url(#SVGID_2_);}
	.st5{fill:#5C708D;}
	.st6{fill:#996733;}
	.st7{clip-path:url(#SVGID_2_);fill:#5C708D;}
	.st8{fill:#FCCB98;}
	.st9{clip-path:url(#SVGID_4_);fill:#241F43;}
	.st10{clip-path:url(#SVGID_4_);}
	.st11{fill:#8589B2;}
	.st12{fill:#241F43;}
	.st13{fill:#505171;}
	.st14{clip-path:url(#SVGID_6_);fill:#5A4A42;}
	.st15{clip-path:url(#SVGID_6_);}
	.st16{fill:#E27AAF;}
	.st17{fill:#E9AECF;}
	.st18{fill:#5A4A42;}
	.st19{clip-path:url(#SVGID_8_);fill:#C1C38A;}
	.st20{clip-path:url(#SVGID_8_);}
	.st21{fill:#62692D;}
	.st22{fill:#C1C38A;}
	.st23{fill:#41441B;}
	.st24{fill:#B75327;}
	.st25{fill:#CCCCCC;}
	.st26{fill:#3399CC;}
</style>
<g id="Layer_1">
</g>
<g id="Layer_2">
	<g>
		<g>
			<path class="st2" d="M537.4,52.8l-0.9-6.8h-6l-0.9,6.8h-3.6l5.6-40.5h4.4l5.3,40.5H537.4z M536,42.6c-0.4-3.5-0.9-6.9-1.3-10.3
				s-0.8-6.9-1.2-10.4c-0.4,3.6-0.9,7.1-1.3,10.4s-0.9,6.8-1.4,10.3H536z"/>
			<path class="st2" d="M551.1,52.8c-0.1-0.4-0.2-1-0.2-1.8c-0.8,1.5-2,2.3-3.6,2.3c-1.4,0-2.5-0.4-3.2-1.1s-1.2-2-1.2-3.7v-4.5
				c0-1.5,0.2-2.7,0.6-3.7c0.4-1,1-1.8,1.7-2.5c0.7-0.7,1.5-1.3,2.5-1.7c1-0.5,2-0.9,3-1.4v-6.6c0-0.9-0.2-1.5-0.5-2
				s-0.9-0.7-1.7-0.7c-0.9,0-1.5,0.2-1.8,0.7s-0.4,1.1-0.4,2v6.4h-3v-6.4c0-2,0.4-3.5,1.3-4.5c0.8-1,2.2-1.5,4.1-1.5
				c3.6,0,5.4,2,5.4,6v21.4c0,0.7,0,1.4,0,2c0,0.6,0.1,1.1,0.2,1.5H551.1z M550.7,37.3c-1,0.4-1.8,0.8-2.4,1.2
				c-0.6,0.4-1.1,0.9-1.4,1.5s-0.5,1.2-0.6,1.9c-0.1,0.7-0.1,1.5-0.1,2.4v3.2c0,1.7,0.8,2.5,2.3,2.5c0.5,0,0.9-0.1,1.4-0.4
				c0.4-0.3,0.7-0.8,0.9-1.5V37.3z"/>
			<path class="st2" d="M564.3,52.8V12.3h6.4c2.2,0,3.7,0.5,4.6,1.6c0.9,1.1,1.4,2.9,1.4,5.3v8.1c0,2.5-0.8,4-2.5,4.5
				c0.8,0.2,1.5,0.6,2.1,1.3s0.9,1.7,0.9,3.2V46c0,2.4-0.5,4.1-1.6,5.2c-1.1,1.1-2.7,1.6-4.9,1.6H564.3z M573.2,19.2
				c0-1.1-0.2-2-0.6-2.4c-0.4-0.5-1-0.7-1.9-0.7H568v14.3h2.8c0.9,0,1.5-0.2,1.9-0.6c0.4-0.4,0.6-1.1,0.6-2.1V19.2z M573.4,37
				c0-1.1-0.2-2-0.5-2.5c-0.3-0.5-1-0.8-2.1-0.8H568v15.4h2.7c1.8,0,2.7-1,2.7-3.1V37z"/>
			<path class="st2" d="M580.2,52.8V12.3h3.4v11.5c0.4-0.6,0.9-1.1,1.5-1.4c0.6-0.4,1.4-0.5,2.2-0.5c1.6,0,2.7,0.4,3.4,1.3
				c0.7,0.9,1,2.3,1,4.3v19.5c0,2.2-0.4,3.7-1.2,4.7c-0.8,1-2.1,1.5-3.8,1.5c-1,0-1.9-0.2-2.5-0.7c-0.7-0.5-1.2-1.1-1.6-1.9
				c-0.1,0.4-0.1,0.8-0.2,1.2c-0.1,0.4-0.2,0.7-0.3,1.1H580.2z M588.4,27.7c0-1.5-0.7-2.3-2.2-2.3c-0.6,0-1.1,0.2-1.5,0.5
				c-0.5,0.3-0.8,0.8-1.1,1.5v20.2c0.2,0.7,0.6,1.2,1.1,1.5c0.5,0.3,1,0.5,1.5,0.5c0.8,0,1.3-0.2,1.6-0.6c0.3-0.4,0.5-1,0.5-2V27.7z
				"/>
			<path class="st2" d="M610.5,37.9h3.4v8.4c0,2.4-0.5,4.1-1.4,5.2c-0.9,1.1-2.4,1.7-4.5,1.7c-4.3,0-6.4-2.3-6.4-6.8V18.9
				c0-4.7,2.1-7,6.4-7c3.9,0,5.9,2.3,5.9,6.9v7.2h-3.4v-7.1c0-1.1-0.2-1.9-0.5-2.4c-0.4-0.5-1-0.8-2-0.8c-1.8,0-2.7,1-2.7,3.1v27.5
				c0,2.1,0.9,3.2,2.7,3.2c0.9,0,1.6-0.3,1.9-0.8c0.4-0.5,0.6-1.3,0.6-2.4V37.9z"/>
			<path class="st2" d="M624.5,40.4h3.1v6.8c0,1.9-0.4,3.4-1.3,4.4c-0.9,1.1-2.2,1.6-4.1,1.6c-1.9,0-3.3-0.6-4.2-1.7
				c-0.9-1.1-1.4-2.6-1.4-4.5V28.2c0-1.9,0.5-3.4,1.4-4.5c0.9-1.2,2.3-1.7,4.2-1.7c1.9,0,3.2,0.6,4.1,1.7s1.3,2.7,1.3,4.5v6.6h-3
				v-6.6c0-1.8-0.8-2.7-2.3-2.7c-0.8,0-1.3,0.2-1.7,0.7c-0.4,0.5-0.6,1.2-0.6,2V47c0,1.8,0.8,2.8,2.3,2.8s2.3-0.9,2.3-2.7V40.4z"/>
			<path class="st2" d="M637.6,52.8V12.3h6.3c2.2,0,3.8,0.6,4.8,1.8c1,1.2,1.6,2.9,1.6,5.1v26.7c0,4.6-2.1,6.9-6.4,6.9H637.6z
				 M646.6,19.3c0-1-0.2-1.8-0.7-2.4s-1.1-0.8-2-0.8h-2.6v33h2.6c1.8,0,2.7-1.1,2.7-3.2V19.3z"/>
			<path class="st2" d="M662,52.8c0-0.4-0.1-0.7-0.1-1.1c0-0.4,0-0.8,0-1.2c-0.4,0.8-0.9,1.5-1.5,1.9c-0.7,0.5-1.6,0.7-2.7,0.7
				c-2.9,0-4.3-1.9-4.3-5.7v-20c0-2,0.4-3.4,1.1-4.3c0.7-0.9,1.8-1.3,3.4-1.3c0.8,0,1.5,0.2,2.1,0.5s1.2,0.8,1.5,1.4V12.3h3.3v40.5
				H662z M661.5,27.3c-0.6-1.3-1.4-2-2.7-2c-0.8,0-1.3,0.2-1.6,0.6c-0.3,0.4-0.5,1-0.5,1.9V47c0,1,0.2,1.6,0.5,2
				c0.3,0.4,0.9,0.6,1.6,0.6c1.2,0,2.1-0.7,2.7-2V27.3z"/>
			<path class="st2" d="M675.2,52.8V12.3H686v3.8h-7v14.2h4.9v3.7H679v15h7.2v3.7H675.2z"/>
			<path class="st2" d="M696.2,40.4h3.2v6.7c0,4.1-1.8,6.1-5.5,6.1c-3.5,0-5.3-2-5.3-6.1v-19c0-2.1,0.5-3.6,1.4-4.7
				c0.9-1,2.2-1.6,3.9-1.6c3.6,0,5.5,2.1,5.5,6.2v9.8h-7.6v9.2c0,1.8,0.7,2.7,2.1,2.7c1.5,0,2.3-0.9,2.3-2.7V40.4z M696.2,28.1
				c0-1.8-0.8-2.7-2.3-2.7c-1.4,0-2.1,0.9-2.1,2.7v7.3h4.4V28.1z"/>
			<path class="st2" d="M567.6,106V72.2h-2.2v-3.6h1.1c0.5,0,0.9-0.1,1.1-0.4c0.2-0.3,0.3-0.7,0.3-1.4v-1.2h3.3V106H567.6z"/>
			<path class="st2" d="M581.3,106v-7.4c0-1.2,0-2.2,0.1-3.1s0.2-1.7,0.5-2.6c0.2-0.8,0.6-1.7,1.1-2.5c0.5-0.9,1.1-1.8,2-2.9
				c1.1-1.4,2-2.7,2.7-3.6s1.2-1.9,1.6-2.6s0.7-1.5,0.8-2.3c0.1-0.7,0.2-1.6,0.2-2.5v-4.3c0-2.2-0.9-3.2-2.7-3.2c-1,0-1.7,0.3-2,0.8
				c-0.3,0.6-0.5,1.4-0.5,2.5v7h-3.7v-7c0-2.5,0.5-4.3,1.5-5.4c1-1.1,2.6-1.7,4.7-1.7s3.8,0.6,4.8,1.7s1.6,2.9,1.6,5.4v4.5
				c0,1.1-0.1,2.1-0.3,3.1c-0.2,0.9-0.5,1.8-0.9,2.7c-0.4,0.9-0.8,1.8-1.4,2.6c-0.6,0.9-1.2,1.8-1.9,2.7c-1,1.3-1.8,2.4-2.4,3.3
				c-0.6,0.9-1,1.7-1.3,2.5s-0.5,1.5-0.6,2.3c-0.1,0.8-0.1,1.7-0.1,2.7v3.7h8.9v3.7H581.3z"/>
			<path class="st2" d="M612.1,90.3c0-1.1-0.2-1.9-0.5-2.4c-0.3-0.5-1.1-0.8-2.2-0.8h-1.9v-3.5h2.1c1,0,1.7-0.3,2-0.8
				c0.3-0.5,0.5-1.3,0.5-2.4v-8.4c0-1.1-0.2-1.9-0.5-2.4c-0.4-0.5-1-0.8-2.1-0.8c-1,0-1.7,0.3-2,0.8c-0.4,0.5-0.5,1.3-0.5,2.4v7.1
				h-3.7v-7.1c0-2.5,0.5-4.2,1.5-5.3c1-1.1,2.6-1.6,4.7-1.6c2.2,0,3.7,0.5,4.7,1.6c1,1.1,1.5,2.9,1.5,5.4v8.7c0,1.3-0.2,2.3-0.7,3
				c-0.5,0.7-1.2,1.2-2.2,1.6c0.9,0.2,1.6,0.7,2.2,1.4c0.5,0.7,0.8,1.7,0.8,3.2v9.6c0,2.1-0.5,3.7-1.5,5c-1,1.3-2.6,1.9-4.8,1.9
				c-2.2,0-3.8-0.6-4.8-1.9c-1-1.2-1.5-2.9-1.5-5v-8h3.8v8c0,1,0.2,1.8,0.6,2.3c0.4,0.6,1,0.8,2,0.8c1,0,1.6-0.3,2-0.8
				c0.4-0.6,0.6-1.3,0.6-2.4V90.3z"/>
			<path class="st2" d="M633.4,106v-8.3h-9.2v-3.2l9.1-28.9h3.5v28.6h2v3.5h-2v8.3H633.4z M633.5,75.1l-6,19.1h5.9L633.5,75.1z"/>
			<path class="st2" d="M656.6,86.5c0-1.9-0.9-2.9-2.7-2.9c-1.6,0-2.6,0.8-3,2.5l-3.3-0.1l0.5-20.5h11.8v3.8h-8.4l-0.4,13
				c0.4-0.6,0.9-1,1.5-1.4c0.7-0.4,1.6-0.6,2.7-0.6c1.6,0,2.8,0.5,3.6,1.4c0.8,1,1.3,2.6,1.3,4.8v13.1c0,2.3-0.5,4-1.5,5.1
				c-1,1.1-2.6,1.7-4.7,1.7c-4.2,0-6.3-2.3-6.3-6.8v-8.5h3.6v8.5c0,2.1,0.9,3.1,2.7,3.1c1.7,0,2.6-1,2.6-3.1V86.5z"/>
		</g>
		<g>
			<path class="st2" d="M5.4,16.1c0-0.3,0-0.6,0-0.8c0-0.2-0.1-0.4-0.1-0.6s-0.1-0.3-0.2-0.5c-0.1-0.1-0.2-0.3-0.3-0.5
				c-0.3-0.3-0.5-0.6-0.8-0.9S3.4,12.3,3.1,12c-0.3-0.3-0.6-0.6-0.9-0.9c-0.3-0.3-0.6-0.7-0.9-1.1C0.9,9.6,0.7,9.2,0.6,8.7
				c-0.1-0.4-0.1-1-0.1-1.6V3.7C0.5,1.2,1.7,0,4,0c1.3,0,2.1,0.3,2.7,0.9c0.5,0.6,0.8,1.5,0.8,2.8v4.1H5.5V4c0-0.6-0.1-1-0.3-1.4
				S4.6,2.1,4.1,2.1c-1,0-1.4,0.5-1.4,1.6v3.3c0,0.5,0,0.8,0.1,1c0.1,0.2,0.2,0.5,0.4,0.7c0.5,0.7,1.1,1.3,1.7,1.8
				c0.6,0.5,1.2,1.1,1.7,1.8c0.2,0.2,0.4,0.5,0.5,0.7s0.2,0.5,0.3,0.8s0.1,0.6,0.2,0.9c0,0.3,0,0.7,0,1.2v3.2c0,1.2-0.3,2.1-0.8,2.8
				c-0.5,0.6-1.4,1-2.7,1c-1.2,0-2.1-0.3-2.7-1c-0.6-0.6-0.8-1.6-0.8-2.8v-4.8h2V19c0,0.6,0.1,1.1,0.3,1.4C3,20.8,3.4,20.9,4,20.9
				c0.5,0,0.9-0.1,1.1-0.4c0.2-0.3,0.3-0.7,0.3-1.2V16.1z"/>
			<path class="st2" d="M10.8,22.8V2.4H8.3V0.2h7.1v2.1h-2.5v20.4H10.8z"/>
			<path class="st2" d="M16.7,22.8V0.2h6v2.1h-3.9v7.9h2.7v2.1h-2.7v8.4h4v2.1H16.7z"/>
			<path class="st2" d="M24.3,22.8V0.2h6v2.1h-3.9v7.9h2.7v2.1h-2.7v8.4h4v2.1H24.3z"/>
			<path class="st2" d="M32,22.8V0.2h2.1v20.5h4v2.1H32z"/>
			<path class="st2" d="M39.4,22.8V0.2h6.1v2.1h-4v8h2.8v2.1h-2.8v10.3H39.4z"/>
			<path class="st2" d="M46.8,22.8V0.2h2.1v22.5H46.8z"/>
			<path class="st2" d="M55.6,16.1c0-0.3,0-0.6,0-0.8c0-0.2-0.1-0.4-0.1-0.6s-0.1-0.3-0.2-0.5c-0.1-0.1-0.2-0.3-0.3-0.5
				c-0.3-0.3-0.5-0.6-0.8-0.9s-0.6-0.6-0.8-0.8c-0.3-0.3-0.6-0.6-0.9-0.9c-0.3-0.3-0.6-0.7-0.9-1.1c-0.4-0.4-0.6-0.9-0.6-1.3
				c-0.1-0.4-0.1-1-0.1-1.6V3.7c0-2.5,1.2-3.7,3.5-3.7c1.3,0,2.1,0.3,2.7,0.9c0.5,0.6,0.8,1.5,0.8,2.8v4.1h-1.9V4
				c0-0.6-0.1-1-0.3-1.4s-0.6-0.5-1.1-0.5c-1,0-1.4,0.5-1.4,1.6v3.3c0,0.5,0,0.8,0.1,1c0.1,0.2,0.2,0.5,0.4,0.7
				c0.5,0.7,1.1,1.3,1.7,1.8c0.6,0.5,1.2,1.1,1.7,1.8c0.2,0.2,0.4,0.5,0.5,0.7s0.2,0.5,0.3,0.8s0.1,0.6,0.2,0.9c0,0.3,0,0.7,0,1.2
				v3.2c0,1.2-0.3,2.1-0.8,2.8c-0.5,0.6-1.4,1-2.7,1c-1.2,0-2.1-0.3-2.7-1c-0.6-0.6-0.8-1.6-0.8-2.8v-4.8h2V19
				c0,0.6,0.1,1.1,0.3,1.4c0.2,0.4,0.6,0.5,1.1,0.5c0.5,0,0.9-0.1,1.1-0.4c0.2-0.3,0.3-0.7,0.3-1.2V16.1z"/>
			<path class="st2" d="M64.4,22.8V12.3h-2.9v10.4h-2.1V0.2h2.1v10h2.9v-10h2.1v22.5H64.4z"/>
			<path class="st2" d="M5.5,55.2l-0.4-3.2H2.2l-0.4,3.2H0L2.7,36h2.1l2.5,19.2H5.5z M4.9,50.3c-0.2-1.6-0.4-3.3-0.6-4.9
				c-0.2-1.6-0.4-3.3-0.6-5c-0.2,1.7-0.4,3.4-0.6,5c-0.2,1.6-0.4,3.2-0.6,4.9H4.9z"/>
			<path class="st2" d="M12,49.3h1.5v3.2c0,0.9-0.2,1.6-0.6,2.1c-0.4,0.5-1.1,0.8-1.9,0.8s-1.5-0.3-2-0.8c-0.4-0.5-0.7-1.2-0.7-2.1
				v-9c0-0.9,0.2-1.6,0.7-2.2c0.4-0.6,1.1-0.8,2-0.8s1.5,0.3,1.9,0.8c0.4,0.5,0.6,1.3,0.6,2.1v3.1H12v-3.2c0-0.9-0.4-1.3-1.1-1.3
				c-0.4,0-0.6,0.1-0.8,0.4c-0.2,0.2-0.3,0.6-0.3,1v9c0,0.9,0.4,1.3,1.1,1.3s1.1-0.4,1.1-1.3V49.3z"/>
			<path class="st2" d="M14.9,43.4c0-0.9,0.2-1.6,0.7-2.1c0.4-0.5,1.1-0.7,2-0.7c0.9,0,1.6,0.2,2,0.7c0.4,0.5,0.7,1.2,0.7,2.1v9.1
				c0,0.9-0.2,1.6-0.7,2.1c-0.4,0.5-1.1,0.7-2,0.7c-0.9,0-1.6-0.2-2-0.7c-0.4-0.5-0.7-1.2-0.7-2.1V43.4z M18.7,43.4
				c0-0.4-0.1-0.7-0.2-0.9c-0.1-0.2-0.4-0.3-0.9-0.3c-0.4,0-0.7,0.1-0.9,0.3c-0.1,0.2-0.2,0.5-0.2,0.9v9.1c0,0.4,0.1,0.7,0.2,0.9
				c0.1,0.2,0.4,0.3,0.9,0.3c0.4,0,0.7-0.1,0.9-0.3c0.1-0.2,0.2-0.5,0.2-1V43.4z"/>
			<path class="st2" d="M21.8,55.2V40.7h1.4c0,0.4,0.1,0.7,0.1,1.1c0.2-0.4,0.4-0.7,0.7-0.9c0.3-0.2,0.6-0.3,1-0.3
				c0.2,0,0.4,0,0.5,0.1v1.8c-0.1-0.1-0.2-0.1-0.3-0.1s-0.3,0-0.4,0c-0.2,0-0.5,0.1-0.7,0.2c-0.2,0.1-0.4,0.3-0.6,0.7v12H21.8z"/>
			<path class="st2" d="M30.4,55.2V43.2c0-0.4-0.1-0.7-0.2-0.9c-0.1-0.2-0.4-0.3-0.7-0.3c-0.2,0-0.5,0.1-0.7,0.2
				c-0.2,0.1-0.4,0.4-0.5,0.7v12.2h-1.6V40.7H28c0,0.4,0.1,0.7,0.1,1.1c0.2-0.4,0.5-0.7,0.9-1c0.4-0.2,0.8-0.4,1.2-0.4
				c0.7,0,1.1,0.2,1.4,0.6c0.3,0.4,0.5,1.1,0.5,2v12H30.4z"/>
			<path class="st2" d="M36.9,55.2V36h3.1c1,0,1.8,0.3,2.2,0.8c0.4,0.5,0.7,1.4,0.7,2.5v3.9c0,1.2-0.4,1.9-1.2,2.1
				c0.4,0.1,0.7,0.3,1,0.6c0.3,0.3,0.4,0.8,0.4,1.5v4.6c0,1.1-0.3,2-0.8,2.5s-1.3,0.8-2.3,0.8H36.9z M41.1,39.2
				c0-0.5-0.1-0.9-0.3-1.1c-0.2-0.2-0.5-0.3-0.9-0.3h-1.3v6.8H40c0.4,0,0.7-0.1,0.9-0.3c0.2-0.2,0.3-0.5,0.3-1V39.2z M41.2,47.6
				c0-0.5-0.1-0.9-0.2-1.2c-0.2-0.2-0.5-0.4-1-0.4h-1.3v7.3h1.3c0.8,0,1.3-0.5,1.3-1.5V47.6z"/>
			<path class="st2" d="M44.5,55.2V40.7h1.4c0,0.4,0.1,0.7,0.1,1.1c0.2-0.4,0.4-0.7,0.7-0.9c0.3-0.2,0.6-0.3,1-0.3
				c0.2,0,0.4,0,0.5,0.1v1.8c-0.1-0.1-0.2-0.1-0.3-0.1s-0.3,0-0.4,0c-0.2,0-0.5,0.1-0.7,0.2c-0.2,0.1-0.4,0.3-0.6,0.7v12H44.5z"/>
			<path class="st2" d="M52.6,49.3h1.5v3.2c0,1.9-0.9,2.9-2.6,2.9c-1.7,0-2.5-1-2.5-2.9v-9c0-1,0.2-1.7,0.6-2.2
				c0.4-0.5,1-0.7,1.9-0.7c1.7,0,2.6,1,2.6,3v4.6h-3.6v4.4c0,0.9,0.3,1.3,1,1.3c0.7,0,1.1-0.4,1.1-1.3V49.3z M52.6,43.4
				c0-0.9-0.4-1.3-1.1-1.3c-0.7,0-1,0.4-1,1.3v3.5h2.1V43.4z"/>
			<path class="st2" d="M60.8,55.2l-1.1-10.8l-1.2,10.8h-1.9l-1.4-14.5h1.5l0.9,11.3l1.3-11.3h1.6l1.2,11.3l1.1-11.3h1.5l-1.6,14.5
				H60.8z"/>
			<path class="st2" d="M68.8,49.3h1.5v3.2c0,1.9-0.9,2.9-2.6,2.9c-1.7,0-2.5-1-2.5-2.9v-9c0-1,0.2-1.7,0.6-2.2
				c0.4-0.5,1-0.7,1.9-0.7c1.7,0,2.6,1,2.6,3v4.6h-3.6v4.4c0,0.9,0.3,1.3,1,1.3c0.7,0,1.1-0.4,1.1-1.3V49.3z M68.8,43.4
				c0-0.9-0.4-1.3-1.1-1.3c-0.7,0-1,0.4-1,1.3v3.5h2.1V43.4z"/>
			<path class="st2" d="M71.9,55.2V40.7h1.4c0,0.4,0.1,0.7,0.1,1.1c0.2-0.4,0.4-0.7,0.7-0.9c0.3-0.2,0.6-0.3,1-0.3
				c0.2,0,0.4,0,0.5,0.1v1.8c-0.1-0.1-0.2-0.1-0.3-0.1s-0.3,0-0.4,0c-0.2,0-0.5,0.1-0.7,0.2c-0.2,0.1-0.4,0.3-0.6,0.7v12H71.9z"/>
			<path class="st2" d="M76.3,56.8c0.3,0.1,0.5,0.1,0.8,0.1c0.3,0,0.6-0.1,0.7-0.4s0.3-0.6,0.3-1.1l0.1-0.6l-2.1-14.1h1.7
				c0.1,0.5,0.2,1.2,0.2,1.8c0.1,0.7,0.2,1.4,0.2,2.1c0.1,0.7,0.2,1.4,0.2,2.1c0.1,0.7,0.2,1.4,0.2,2c0.1,0.6,0.1,1.2,0.2,1.7
				s0.1,0.9,0.1,1.1c0-0.3,0.1-0.6,0.1-1.1s0.1-1.1,0.2-1.7c0.1-0.6,0.2-1.3,0.2-2c0.1-0.7,0.2-1.4,0.3-2.1c0.1-0.7,0.2-1.4,0.3-2.1
				s0.2-1.3,0.3-1.8H82l-2.2,14.6c-0.1,0.5-0.2,1-0.3,1.4s-0.3,0.7-0.5,1c-0.2,0.3-0.4,0.5-0.8,0.6c-0.3,0.1-0.7,0.2-1.2,0.2
				c-0.3,0-0.6,0-0.9-0.1V56.8z"/>
			<path class="st2" d="M86.4,38.9V36H88v2.9H86.4z M86.4,55.2V40.7H88v14.5H86.4z"/>
			<path class="st2" d="M93.2,51c0-0.3,0-0.6-0.1-0.8s-0.3-0.5-0.6-0.9c-0.3-0.4-0.7-0.8-1.1-1.1c-0.4-0.3-0.8-0.7-1.1-1.1
				c-0.3-0.3-0.5-0.7-0.6-1c-0.1-0.3-0.1-0.8-0.1-1.4v-1.5c0-1,0.2-1.7,0.7-2.1c0.4-0.4,1.1-0.6,1.9-0.6c1,0,1.7,0.2,2,0.7
				c0.4,0.4,0.5,1.1,0.5,2.1v2.4h-1.5v-2.4c0-0.4-0.1-0.6-0.3-0.9c-0.2-0.2-0.5-0.3-0.7-0.3c-0.7,0-1.1,0.4-1.1,1.2V45
				c0,0.3,0,0.6,0.1,0.8s0.3,0.4,0.5,0.7c0.3,0.3,0.7,0.7,1.1,1c0.4,0.3,0.7,0.6,1,1c0.4,0.4,0.6,0.8,0.7,1.2
				c0.1,0.4,0.2,0.9,0.2,1.5v1.6c0,0.9-0.2,1.6-0.7,2c-0.4,0.4-1.1,0.6-2,0.6c-1.7,0-2.5-0.9-2.5-2.7v-2.4H91v2.3
				c0,0.4,0.1,0.6,0.3,0.9s0.5,0.3,0.8,0.3c0.7,0,1.1-0.4,1.1-1.2V51z"/>
			<path class="st2" d="M99.5,55.2V40.7h1.4c0,0.4,0.1,0.7,0.1,1.1c0.2-0.4,0.4-0.7,0.7-0.9c0.3-0.2,0.6-0.3,1-0.3
				c0.2,0,0.4,0,0.5,0.1v1.8c-0.1-0.1-0.2-0.1-0.3-0.1s-0.3,0-0.4,0c-0.2,0-0.5,0.1-0.7,0.2c-0.2,0.1-0.4,0.3-0.6,0.7v12H99.5z"/>
			<path class="st2" d="M108.2,55.2c0-0.2,0-0.3,0-0.5c0-0.2,0-0.3,0-0.5c-0.2,0.4-0.5,0.7-0.9,0.9s-0.8,0.3-1.2,0.3
				c-1.2,0-1.9-0.8-1.9-2.5V40.7h1.6v11.9c0,0.4,0.1,0.7,0.2,0.9c0.1,0.2,0.4,0.3,0.7,0.3c0.2,0,0.5-0.1,0.7-0.2s0.4-0.4,0.5-0.7
				V40.7h1.6v14.5H108.2z"/>
			<path class="st2" d="M115.1,55.2V43.2c0-0.4-0.1-0.7-0.2-0.9c-0.1-0.2-0.4-0.3-0.7-0.3c-0.2,0-0.5,0.1-0.7,0.2
				c-0.2,0.1-0.4,0.4-0.5,0.7v12.2h-1.6V40.7h1.4c0,0.4,0.1,0.7,0.1,1.1c0.2-0.4,0.5-0.7,0.9-1c0.4-0.2,0.8-0.4,1.2-0.4
				c0.7,0,1.1,0.2,1.4,0.6c0.3,0.4,0.5,1.1,0.5,2v12H115.1z"/>
			<path class="st2" d="M121.5,55.2V36h1.6v5.5c0.2-0.3,0.4-0.5,0.7-0.7c0.3-0.2,0.6-0.3,1-0.3c0.7,0,1.3,0.2,1.6,0.6
				c0.3,0.4,0.5,1.1,0.5,2v9.2c0,1-0.2,1.8-0.6,2.2c-0.4,0.5-1,0.7-1.8,0.7c-0.5,0-0.9-0.1-1.2-0.4c-0.3-0.2-0.6-0.5-0.8-0.9
				c0,0.2-0.1,0.4-0.1,0.5c0,0.2-0.1,0.4-0.2,0.5H121.5z M125.4,43.3c0-0.7-0.3-1.1-1-1.1c-0.3,0-0.5,0.1-0.7,0.2
				c-0.2,0.2-0.4,0.4-0.5,0.7v9.6c0.1,0.3,0.3,0.5,0.5,0.7c0.2,0.2,0.5,0.2,0.7,0.2c0.4,0,0.6-0.1,0.8-0.3c0.2-0.2,0.2-0.5,0.2-0.9
				V43.3z"/>
			<path class="st2" d="M128.1,56.8c0.3,0.1,0.5,0.1,0.8,0.1c0.3,0,0.6-0.1,0.7-0.4s0.3-0.6,0.3-1.1l0.1-0.6l-2.1-14.1h1.7
				c0.1,0.5,0.2,1.2,0.2,1.8c0.1,0.7,0.2,1.4,0.2,2.1c0.1,0.7,0.2,1.4,0.2,2.1c0.1,0.7,0.2,1.4,0.2,2c0.1,0.6,0.1,1.2,0.2,1.7
				s0.1,0.9,0.1,1.1c0-0.3,0.1-0.6,0.1-1.1s0.1-1.1,0.2-1.7c0.1-0.6,0.2-1.3,0.2-2c0.1-0.7,0.2-1.4,0.3-2.1c0.1-0.7,0.2-1.4,0.3-2.1
				s0.2-1.3,0.3-1.8h1.5l-2.2,14.6c-0.1,0.5-0.2,1-0.3,1.4s-0.3,0.7-0.5,1c-0.2,0.3-0.4,0.5-0.8,0.6c-0.3,0.1-0.7,0.2-1.2,0.2
				c-0.3,0-0.6,0-0.9-0.1V56.8z"/>
			<path class="st2" d="M141.7,55.2c-0.1-0.2-0.1-0.5-0.1-0.9c-0.4,0.7-1,1.1-1.7,1.1c-0.7,0-1.2-0.2-1.5-0.5
				c-0.4-0.4-0.5-0.9-0.5-1.8V51c0-0.7,0.1-1.3,0.3-1.8s0.5-0.9,0.8-1.2c0.3-0.3,0.7-0.6,1.2-0.8c0.5-0.2,0.9-0.4,1.4-0.7v-3.2
				c0-0.4-0.1-0.7-0.2-0.9c-0.1-0.2-0.4-0.3-0.8-0.3c-0.4,0-0.7,0.1-0.8,0.3c-0.1,0.2-0.2,0.5-0.2,0.9v3H138v-3.1
				c0-0.9,0.2-1.7,0.6-2.1c0.4-0.5,1-0.7,1.9-0.7c1.7,0,2.5,0.9,2.5,2.8v10.2c0,0.3,0,0.7,0,1s0,0.5,0.1,0.7H141.7z M141.5,47.8
				c-0.5,0.2-0.8,0.4-1.1,0.6c-0.3,0.2-0.5,0.4-0.7,0.7s-0.2,0.6-0.3,0.9c0,0.3-0.1,0.7-0.1,1.2v1.5c0,0.8,0.4,1.2,1.1,1.2
				c0.2,0,0.4-0.1,0.6-0.2c0.2-0.1,0.3-0.4,0.4-0.7V47.8z"/>
			<path class="st2" d="M151.5,49.3h1.5v3.2c0,0.9-0.2,1.6-0.6,2.1c-0.4,0.5-1.1,0.8-1.9,0.8s-1.5-0.3-2-0.8
				c-0.4-0.5-0.7-1.2-0.7-2.1v-9c0-0.9,0.2-1.6,0.7-2.2c0.4-0.6,1.1-0.8,2-0.8s1.5,0.3,1.9,0.8c0.4,0.5,0.6,1.3,0.6,2.1v3.1h-1.4
				v-3.2c0-0.9-0.4-1.3-1.1-1.3c-0.4,0-0.6,0.1-0.8,0.4c-0.2,0.2-0.3,0.6-0.3,1v9c0,0.9,0.4,1.3,1.1,1.3s1.1-0.4,1.1-1.3V49.3z"/>
			<path class="st2" d="M154.4,43.4c0-0.9,0.2-1.6,0.7-2.1c0.4-0.5,1.1-0.7,2-0.7c0.9,0,1.6,0.2,2,0.7c0.4,0.5,0.7,1.2,0.7,2.1v9.1
				c0,0.9-0.2,1.6-0.7,2.1c-0.4,0.5-1.1,0.7-2,0.7c-0.9,0-1.6-0.2-2-0.7c-0.4-0.5-0.7-1.2-0.7-2.1V43.4z M158.2,43.4
				c0-0.4-0.1-0.7-0.2-0.9c-0.1-0.2-0.4-0.3-0.9-0.3c-0.4,0-0.7,0.1-0.9,0.3c-0.1,0.2-0.2,0.5-0.2,0.9v9.1c0,0.4,0.1,0.7,0.2,0.9
				c0.1,0.2,0.4,0.3,0.9,0.3c0.4,0,0.7-0.1,0.9-0.3c0.1-0.2,0.2-0.5,0.2-1V43.4z"/>
			<path class="st2" d="M165.2,55.2c0-0.2,0-0.3,0-0.5c0-0.2,0-0.3,0-0.5c-0.2,0.4-0.5,0.7-0.9,0.9s-0.8,0.3-1.2,0.3
				c-1.2,0-1.9-0.8-1.9-2.5V40.7h1.6v11.9c0,0.4,0.1,0.7,0.2,0.9c0.1,0.2,0.4,0.3,0.7,0.3c0.2,0,0.5-0.1,0.7-0.2s0.4-0.4,0.5-0.7
				V40.7h1.6v14.5H165.2z"/>
			<path class="st2" d="M168.3,58.4V40.7h1.4c0,0.4,0.1,0.7,0.1,1.1c0.2-0.4,0.4-0.7,0.7-0.9c0.3-0.2,0.7-0.3,1.3-0.3
				c0.7,0,1.2,0.2,1.5,0.7c0.4,0.4,0.5,1.1,0.5,2.1v9.5c0,1-0.2,1.7-0.5,2.1c-0.3,0.4-0.9,0.6-1.6,0.6c-0.4,0-0.7-0.1-1-0.2
				c-0.3-0.2-0.5-0.4-0.7-0.6v3.9H168.3z M172.2,43.5c0-0.5-0.1-0.8-0.2-0.9s-0.4-0.3-0.8-0.3c-0.3,0-0.5,0.1-0.7,0.2
				s-0.4,0.4-0.5,0.7v9.6c0.1,0.3,0.3,0.5,0.5,0.7s0.5,0.2,0.7,0.2c0.4,0,0.6-0.1,0.8-0.3s0.2-0.5,0.2-0.9V43.5z"/>
			<path class="st2" d="M175.4,55.2V36h1.6v19.2H175.4z"/>
			<path class="st2" d="M182.2,49.3h1.5v3.2c0,1.9-0.9,2.9-2.6,2.9c-1.7,0-2.5-1-2.5-2.9v-9c0-1,0.2-1.7,0.6-2.2
				c0.4-0.5,1-0.7,1.9-0.7c1.7,0,2.6,1,2.6,3v4.6h-3.6v4.4c0,0.9,0.3,1.3,1,1.3c0.7,0,1.1-0.4,1.1-1.3V49.3z M182.2,43.4
				c0-0.9-0.4-1.3-1.1-1.3c-0.7,0-1,0.4-1,1.3v3.5h2.1V43.4z"/>
			<path class="st2" d="M188.3,43.4c0-0.9,0.2-1.6,0.7-2.1c0.4-0.5,1.1-0.7,2-0.7c0.9,0,1.6,0.2,2,0.7c0.4,0.5,0.7,1.2,0.7,2.1v9.1
				c0,0.9-0.2,1.6-0.7,2.1c-0.4,0.5-1.1,0.7-2,0.7c-0.9,0-1.6-0.2-2-0.7c-0.4-0.5-0.7-1.2-0.7-2.1V43.4z M192.1,43.4
				c0-0.4-0.1-0.7-0.2-0.9c-0.1-0.2-0.4-0.3-0.9-0.3c-0.4,0-0.7,0.1-0.9,0.3c-0.1,0.2-0.2,0.5-0.2,0.9v9.1c0,0.4,0.1,0.7,0.2,0.9
				c0.1,0.2,0.4,0.3,0.9,0.3c0.4,0,0.7-0.1,0.9-0.3c0.1-0.2,0.2-0.5,0.2-1V43.4z"/>
			<path class="st2" d="M195.3,55.2v-13h-0.7v-1.4h0.7v-2c0-0.9,0.2-1.6,0.5-2.1c0.3-0.5,0.9-0.8,1.7-0.8c0.2,0,0.4,0,0.6,0
				c0.2,0,0.4,0.1,0.5,0.1v1.4c-0.2,0-0.4-0.1-0.6-0.1c-0.4,0-0.6,0.1-0.8,0.3c-0.2,0.2-0.3,0.6-0.3,1.1v2h1.6v1.4h-1.6v13H195.3z"
				/>
			<path class="st2" d="M202.8,55.2V40.7h1.4c0,0.4,0.1,0.7,0.1,1.1c0.2-0.4,0.4-0.7,0.7-0.9c0.3-0.2,0.6-0.3,1-0.3
				c0.2,0,0.4,0,0.5,0.1v1.8c-0.1-0.1-0.2-0.1-0.3-0.1s-0.3,0-0.4,0c-0.2,0-0.5,0.1-0.7,0.2c-0.2,0.1-0.4,0.3-0.6,0.7v12H202.8z"/>
			<path class="st2" d="M211,49.3h1.5v3.2c0,1.9-0.9,2.9-2.6,2.9c-1.7,0-2.5-1-2.5-2.9v-9c0-1,0.2-1.7,0.6-2.2
				c0.4-0.5,1-0.7,1.9-0.7c1.7,0,2.6,1,2.6,3v4.6h-3.6v4.4c0,0.9,0.3,1.3,1,1.3c0.7,0,1.1-0.4,1.1-1.3V49.3z M211,43.4
				c0-0.9-0.4-1.3-1.1-1.3c-0.7,0-1,0.4-1,1.3v3.5h2.1V43.4z"/>
			<path class="st2" d="M218.1,55.2c0-0.2,0-0.3,0-0.5c0-0.2,0-0.4,0-0.5c-0.2,0.4-0.4,0.7-0.7,0.9c-0.3,0.2-0.7,0.3-1.3,0.3
				c-1.4,0-2.1-0.9-2.1-2.7v-9.5c0-0.9,0.2-1.6,0.5-2c0.3-0.4,0.9-0.6,1.6-0.6c0.4,0,0.7,0.1,1,0.3c0.3,0.2,0.5,0.4,0.7,0.7V36h1.6
				v19.2H218.1z M217.8,43.1c-0.3-0.6-0.7-1-1.3-1c-0.4,0-0.6,0.1-0.8,0.3c-0.2,0.2-0.2,0.5-0.2,0.9v9.1c0,0.5,0.1,0.8,0.2,0.9
				c0.2,0.2,0.4,0.3,0.8,0.3c0.6,0,1-0.3,1.3-1V43.1z"/>
			<path class="st2" d="M225,55.2V43.2c0-0.4-0.1-0.7-0.2-0.9c-0.1-0.2-0.4-0.3-0.7-0.3c-0.2,0-0.5,0.1-0.7,0.2
				c-0.2,0.1-0.4,0.4-0.5,0.7v12.2h-1.6V40.7h1.4c0,0.4,0.1,0.7,0.1,1.1c0.2-0.4,0.5-0.7,0.9-1c0.4-0.2,0.8-0.4,1.2-0.4
				c0.7,0,1.1,0.2,1.4,0.6c0.3,0.4,0.5,1.1,0.5,2v12H225z"/>
			<path class="st2" d="M231.7,49.3h1.5v3.2c0,1.9-0.9,2.9-2.6,2.9c-1.7,0-2.5-1-2.5-2.9v-9c0-1,0.2-1.7,0.6-2.2
				c0.4-0.5,1-0.7,1.9-0.7c1.7,0,2.6,1,2.6,3v4.6h-3.6v4.4c0,0.9,0.3,1.3,1,1.3c0.7,0,1.1-0.4,1.1-1.3V49.3z M231.7,43.4
				c0-0.9-0.4-1.3-1.1-1.3c-0.7,0-1,0.4-1,1.3v3.5h2.1V43.4z"/>
			<path class="st2" d="M238.3,49.3h1.5v3.2c0,0.9-0.2,1.6-0.6,2.1c-0.4,0.5-1.1,0.8-1.9,0.8s-1.5-0.3-2-0.8
				c-0.4-0.5-0.7-1.2-0.7-2.1v-9c0-0.9,0.2-1.6,0.7-2.2c0.4-0.6,1.1-0.8,2-0.8s1.5,0.3,1.9,0.8c0.4,0.5,0.6,1.3,0.6,2.1v3.1h-1.4
				v-3.2c0-0.9-0.4-1.3-1.1-1.3c-0.4,0-0.6,0.1-0.8,0.4c-0.2,0.2-0.3,0.6-0.3,1v9c0,0.9,0.4,1.3,1.1,1.3s1.1-0.4,1.1-1.3V49.3z"/>
			<path class="st2" d="M245.5,55.2l-2.6-7.4v7.4h-1.6V36h1.6v11l2.6-6.2h1.7l-2.8,6.4l2.9,8.1H245.5z"/>
			<path class="st2" d="M251.6,51c0-0.3,0-0.6-0.1-0.8c-0.1-0.2-0.3-0.5-0.6-0.9c-0.3-0.4-0.7-0.8-1.1-1.1c-0.4-0.3-0.8-0.7-1.1-1.1
				c-0.3-0.3-0.5-0.7-0.6-1c-0.1-0.3-0.1-0.8-0.1-1.4v-1.5c0-1,0.2-1.7,0.7-2.1c0.4-0.4,1.1-0.6,1.9-0.6c1,0,1.7,0.2,2,0.7
				c0.4,0.4,0.5,1.1,0.5,2.1v2.4h-1.5v-2.4c0-0.4-0.1-0.6-0.3-0.9s-0.5-0.3-0.7-0.3c-0.7,0-1.1,0.4-1.1,1.2V45c0,0.3,0,0.6,0.1,0.8
				c0.1,0.2,0.3,0.4,0.5,0.7c0.3,0.3,0.7,0.7,1,1c0.4,0.3,0.7,0.6,1,1c0.4,0.4,0.6,0.8,0.7,1.2c0.1,0.4,0.2,0.9,0.2,1.5v1.6
				c0,0.9-0.2,1.6-0.7,2c-0.4,0.4-1.1,0.6-2,0.6c-1.7,0-2.5-0.9-2.5-2.7v-2.4h1.4v2.3c0,0.4,0.1,0.6,0.3,0.9
				c0.2,0.2,0.5,0.3,0.8,0.3c0.7,0,1.1-0.4,1.1-1.2V51z"/>
			<path class="st2" d="M257.9,55.2v-13h-0.7v-1.4h0.7v-2c0-0.9,0.2-1.6,0.5-2.1s0.9-0.8,1.7-0.8c0.2,0,0.4,0,0.6,0
				c0.2,0,0.4,0.1,0.5,0.1v1.4c-0.2,0-0.4-0.1-0.6-0.1c-0.4,0-0.7,0.1-0.8,0.3c-0.2,0.2-0.3,0.6-0.3,1.1v2h1.6v1.4h-1.6v13H257.9z"
				/>
			<path class="st2" d="M262.3,55.2V40.7h1.4c0,0.4,0.1,0.7,0.1,1.1c0.2-0.4,0.4-0.7,0.7-0.9c0.3-0.2,0.6-0.3,1-0.3
				c0.2,0,0.4,0,0.5,0.1v1.8c-0.1-0.1-0.2-0.1-0.3-0.1c-0.1,0-0.3,0-0.4,0c-0.2,0-0.5,0.1-0.7,0.2c-0.2,0.1-0.4,0.3-0.6,0.7v12
				H262.3z"/>
			<path class="st2" d="M266.9,43.4c0-0.9,0.2-1.6,0.7-2.1s1.1-0.7,2-0.7c0.9,0,1.6,0.2,2,0.7c0.4,0.5,0.7,1.2,0.7,2.1v9.1
				c0,0.9-0.2,1.6-0.7,2.1c-0.4,0.5-1.1,0.7-2,0.7c-0.9,0-1.6-0.2-2-0.7s-0.7-1.2-0.7-2.1V43.4z M270.7,43.4c0-0.4-0.1-0.7-0.2-0.9
				c-0.1-0.2-0.4-0.3-0.9-0.3s-0.7,0.1-0.9,0.3c-0.1,0.2-0.2,0.5-0.2,0.9v9.1c0,0.4,0.1,0.7,0.2,0.9c0.1,0.2,0.4,0.3,0.9,0.3
				s0.7-0.1,0.9-0.3c0.1-0.2,0.2-0.5,0.2-1V43.4z"/>
			<path class="st2" d="M280.8,55.2v-12c0-0.7-0.3-1.1-0.8-1.1c-0.2,0-0.4,0.1-0.6,0.2c-0.2,0.1-0.3,0.4-0.5,0.7v12.2h-1.6v-12
				c0-0.7-0.3-1.1-0.8-1.1c-0.2,0-0.4,0.1-0.6,0.2c-0.2,0.1-0.3,0.4-0.5,0.7v12.2h-1.6V40.7h1.4c0,0.4,0.1,0.7,0.1,1.1
				c0.2-0.4,0.5-0.7,0.8-1c0.3-0.2,0.7-0.4,1.1-0.4c0.8,0,1.3,0.4,1.6,1.3c0.2-0.4,0.5-0.7,0.8-0.9c0.3-0.2,0.7-0.3,1.1-0.3
				c0.6,0,1.1,0.2,1.3,0.7c0.3,0.4,0.4,1.1,0.4,2v12H280.8z"/>
			<path class="st2" d="M293.8,55.2c-0.1-0.7-0.2-1.5-0.3-2.4c-0.1-0.9-0.2-1.8-0.3-2.8c-0.1-1-0.2-1.9-0.3-2.9
				c-0.1-1-0.2-1.9-0.2-2.7c-0.1-0.8-0.1-1.5-0.2-2.2s-0.1-1.1-0.1-1.3c0,0.3-0.1,0.7-0.1,1.3s-0.1,1.3-0.2,2.2
				c-0.1,0.8-0.2,1.7-0.3,2.7c-0.1,1-0.2,1.9-0.3,2.9c-0.1,1-0.2,1.9-0.3,2.8c-0.1,0.9-0.2,1.7-0.3,2.4h-2.2L286.7,36h1.8
				c0.1,0.8,0.2,1.7,0.3,2.6s0.2,2,0.3,3s0.2,2,0.3,3c0.1,1,0.2,1.9,0.2,2.8c0.1,0.8,0.1,1.6,0.2,2.3c0.1,0.7,0.1,1.1,0.1,1.4
				c0-0.3,0.1-0.8,0.2-1.4c0.1-0.7,0.2-1.4,0.2-2.3c0.1-0.8,0.2-1.8,0.3-2.8c0.1-1,0.2-2,0.3-3c0.1-1,0.2-2,0.3-3s0.2-1.8,0.3-2.6
				h1.8l1.4,15.1c0-0.3,0.1-0.8,0.2-1.4c0.1-0.7,0.2-1.4,0.2-2.3c0.1-0.8,0.2-1.8,0.3-2.8s0.2-2,0.3-3s0.2-2,0.3-3
				c0.1-1,0.2-1.8,0.3-2.6h1.9L296,55.2H293.8z"/>
			<path class="st2" d="M302.7,55.2c-0.1-0.2-0.1-0.5-0.1-0.9c-0.4,0.7-1,1.1-1.7,1.1c-0.7,0-1.2-0.2-1.5-0.5
				c-0.4-0.4-0.5-0.9-0.5-1.8V51c0-0.7,0.1-1.3,0.3-1.8c0.2-0.5,0.5-0.9,0.8-1.2c0.3-0.3,0.7-0.6,1.2-0.8c0.5-0.2,0.9-0.4,1.4-0.7
				v-3.2c0-0.4-0.1-0.7-0.2-0.9c-0.1-0.2-0.4-0.3-0.8-0.3c-0.4,0-0.7,0.1-0.8,0.3c-0.1,0.2-0.2,0.5-0.2,0.9v3H299v-3.1
				c0-0.9,0.2-1.7,0.6-2.1c0.4-0.5,1-0.7,1.9-0.7c1.7,0,2.5,0.9,2.5,2.8v10.2c0,0.3,0,0.7,0,1c0,0.3,0,0.5,0.1,0.7H302.7z
				 M302.6,47.8c-0.5,0.2-0.8,0.4-1.1,0.6c-0.3,0.2-0.5,0.4-0.7,0.7c-0.1,0.3-0.2,0.6-0.3,0.9c0,0.3-0.1,0.7-0.1,1.2v1.5
				c0,0.8,0.4,1.2,1.1,1.2c0.2,0,0.4-0.1,0.6-0.2c0.2-0.1,0.3-0.4,0.4-0.7V47.8z"/>
			<path class="st2" d="M309,51c0-0.3,0-0.6-0.1-0.8c-0.1-0.2-0.3-0.5-0.6-0.9c-0.3-0.4-0.7-0.8-1.1-1.1c-0.4-0.3-0.8-0.7-1.1-1.1
				c-0.3-0.3-0.5-0.7-0.6-1c-0.1-0.3-0.1-0.8-0.1-1.4v-1.5c0-1,0.2-1.7,0.7-2.1c0.4-0.4,1.1-0.6,1.9-0.6c1,0,1.7,0.2,2,0.7
				c0.4,0.4,0.5,1.1,0.5,2.1v2.4h-1.5v-2.4c0-0.4-0.1-0.6-0.3-0.9s-0.5-0.3-0.7-0.3c-0.7,0-1.1,0.4-1.1,1.2V45c0,0.3,0,0.6,0.1,0.8
				c0.1,0.2,0.3,0.4,0.5,0.7c0.3,0.3,0.7,0.7,1,1c0.4,0.3,0.7,0.6,1,1c0.4,0.4,0.6,0.8,0.7,1.2c0.1,0.4,0.2,0.9,0.2,1.5v1.6
				c0,0.9-0.2,1.6-0.7,2c-0.4,0.4-1.1,0.6-2,0.6c-1.7,0-2.5-0.9-2.5-2.7v-2.4h1.4v2.3c0,0.4,0.1,0.6,0.3,0.9
				c0.2,0.2,0.5,0.3,0.8,0.3c0.7,0,1.1-0.4,1.1-1.2V51z"/>
			<path class="st2" d="M316,55.2V43.2c0-0.4-0.1-0.7-0.2-0.9c-0.1-0.2-0.4-0.3-0.7-0.3c-0.2,0-0.5,0.1-0.7,0.2
				c-0.2,0.1-0.4,0.4-0.5,0.7v12.2h-1.6V36h1.6v5.6c0.2-0.3,0.5-0.6,0.8-0.8s0.7-0.3,1.1-0.3c0.7,0,1.1,0.2,1.4,0.6
				c0.3,0.4,0.4,1.1,0.4,2v12H316z"/>
			<path class="st2" d="M319.3,38.9V36h1.6v2.9H319.3z M319.3,55.2V40.7h1.6v14.5H319.3z"/>
			<path class="st2" d="M326.4,55.2V43.2c0-0.4-0.1-0.7-0.2-0.9c-0.1-0.2-0.4-0.3-0.7-0.3c-0.2,0-0.5,0.1-0.7,0.2
				c-0.2,0.1-0.4,0.4-0.5,0.7v12.2h-1.6V40.7h1.4c0,0.4,0.1,0.7,0.1,1.1c0.2-0.4,0.5-0.7,0.9-1c0.4-0.2,0.8-0.4,1.2-0.4
				c0.7,0,1.1,0.2,1.4,0.6c0.3,0.4,0.5,1.1,0.5,2v12H326.4z"/>
			<path class="st2" d="M333.5,53.6c-0.2,0.3-0.4,0.5-0.7,0.7s-0.7,0.2-1.1,0.2c-0.7,0-1.3-0.2-1.6-0.6c-0.3-0.4-0.5-1.1-0.5-2v-8.6
				c0-0.9,0.2-1.6,0.5-2.1s0.9-0.7,1.5-0.7c0.5,0,0.9,0.1,1.2,0.3c0.3,0.2,0.6,0.5,0.8,0.9c0-0.2,0-0.4,0-0.6s0-0.4,0-0.5h1.4v15.2
				c0,0.9-0.2,1.6-0.6,2c-0.4,0.5-1.1,0.7-2,0.7c-0.5,0-0.9-0.1-1.3-0.2c-0.3-0.1-0.6-0.3-0.8-0.5s-0.3-0.5-0.4-0.9
				c-0.1-0.3-0.1-0.7-0.1-1.2v-0.6h1.4V56c0,0.8,0.4,1.3,1.2,1.3c0.7,0,1.1-0.4,1.1-1.3V53.6z M333.5,43.2c-0.1-0.3-0.3-0.5-0.5-0.7
				c-0.2-0.2-0.5-0.2-0.8-0.2c-0.4,0-0.7,0.1-0.8,0.3c-0.1,0.2-0.2,0.5-0.2,0.8v8.4c0,0.4,0.1,0.7,0.2,0.9c0.1,0.2,0.4,0.3,0.8,0.3
				c0.3,0,0.5-0.1,0.8-0.2c0.2-0.2,0.4-0.4,0.5-0.7V43.2z"/>
			<path class="st2" d="M340.1,55.3c-0.1,0-0.2,0.1-0.3,0.1c-0.1,0-0.3,0-0.4,0c-0.9,0-1.5-0.3-1.9-0.8s-0.6-1.3-0.6-2.2V42.1h-0.7
				v-1.4h0.7v-4.6h1.6v4.6h1.6v1.4h-1.6v10.2c0,0.6,0.1,1,0.3,1.2c0.2,0.2,0.6,0.4,1.1,0.4c0,0,0.1,0,0.2,0c0.1,0,0.1,0,0.2,0V55.3z
				"/>
			<path class="st2" d="M341.1,43.4c0-0.9,0.2-1.6,0.7-2.1s1.1-0.7,2-0.7c0.9,0,1.6,0.2,2,0.7c0.4,0.5,0.7,1.2,0.7,2.1v9.1
				c0,0.9-0.2,1.6-0.7,2.1c-0.4,0.5-1.1,0.7-2,0.7c-0.9,0-1.6-0.2-2-0.7s-0.7-1.2-0.7-2.1V43.4z M344.9,43.4c0-0.4-0.1-0.7-0.2-0.9
				c-0.1-0.2-0.4-0.3-0.9-0.3s-0.7,0.1-0.9,0.3c-0.1,0.2-0.2,0.5-0.2,0.9v9.1c0,0.4,0.1,0.7,0.2,0.9c0.1,0.2,0.4,0.3,0.9,0.3
				s0.7-0.1,0.9-0.3c0.1-0.2,0.2-0.5,0.2-1V43.4z"/>
			<path class="st2" d="M351.8,55.2V43.2c0-0.4-0.1-0.7-0.2-0.9c-0.1-0.2-0.4-0.3-0.7-0.3c-0.2,0-0.5,0.1-0.7,0.2
				c-0.2,0.1-0.4,0.4-0.5,0.7v12.2H348V40.7h1.4c0,0.4,0.1,0.7,0.1,1.1c0.2-0.4,0.5-0.7,0.9-1c0.4-0.2,0.8-0.4,1.2-0.4
				c0.7,0,1.1,0.2,1.4,0.6c0.3,0.4,0.5,1.1,0.5,2v12H351.8z"/>
			<path class="st2" d="M4,87.7c-0.1,0-0.2,0.1-0.3,0.1s-0.3,0-0.4,0c-0.9,0-1.5-0.3-1.9-0.8c-0.4-0.5-0.6-1.3-0.6-2.2V74.6H0v-1.4
				h0.7v-4.6h1.6v4.6h1.6v1.4H2.3v10.2c0,0.6,0.1,1,0.3,1.2c0.2,0.2,0.6,0.4,1.1,0.4c0,0,0.1,0,0.2,0c0.1,0,0.1,0,0.2,0V87.7z"/>
			<path class="st2" d="M8.9,87.6V75.7c0-0.4-0.1-0.7-0.2-0.9c-0.1-0.2-0.4-0.3-0.7-0.3c-0.2,0-0.5,0.1-0.7,0.2
				c-0.2,0.1-0.4,0.4-0.5,0.7v12.2H5.1V68.4h1.6v5.6c0.2-0.3,0.5-0.6,0.8-0.8c0.3-0.2,0.7-0.3,1.1-0.3c0.7,0,1.1,0.2,1.4,0.6
				c0.3,0.4,0.4,1.1,0.4,2v12H8.9z"/>
			<path class="st2" d="M15.7,87.6c-0.1-0.2-0.1-0.5-0.1-0.9c-0.4,0.7-1,1.1-1.7,1.1c-0.7,0-1.2-0.2-1.5-0.5
				c-0.4-0.4-0.5-0.9-0.5-1.8v-2.1c0-0.7,0.1-1.3,0.3-1.8s0.5-0.9,0.8-1.2c0.3-0.3,0.7-0.6,1.2-0.8c0.5-0.2,0.9-0.4,1.4-0.7v-3.2
				c0-0.4-0.1-0.7-0.2-0.9c-0.1-0.2-0.4-0.3-0.8-0.3c-0.4,0-0.7,0.1-0.8,0.3s-0.2,0.5-0.2,0.9v3H12v-3.1c0-0.9,0.2-1.7,0.6-2.1
				c0.4-0.5,1-0.7,1.9-0.7c1.7,0,2.5,0.9,2.5,2.8v10.2c0,0.3,0,0.7,0,1c0,0.3,0,0.5,0.1,0.7H15.7z M15.5,80.2
				c-0.5,0.2-0.8,0.4-1.1,0.6c-0.3,0.2-0.5,0.4-0.7,0.7s-0.2,0.6-0.3,0.9c0,0.3-0.1,0.7-0.1,1.2V85c0,0.8,0.4,1.2,1.1,1.2
				c0.2,0,0.4-0.1,0.6-0.2c0.2-0.1,0.3-0.4,0.4-0.7V80.2z"/>
			<path class="st2" d="M21.9,87.7c-0.1,0-0.2,0.1-0.3,0.1s-0.3,0-0.4,0c-0.9,0-1.5-0.3-1.9-0.8c-0.4-0.5-0.6-1.3-0.6-2.2V74.6h-0.7
				v-1.4h0.7v-4.6h1.6v4.6h1.6v1.4h-1.6v10.2c0,0.6,0.1,1,0.3,1.2c0.2,0.2,0.6,0.4,1.1,0.4c0,0,0.1,0,0.2,0c0.1,0,0.1,0,0.2,0V87.7z
				"/>
			<path class="st2" d="M30,87.6V75.7c0-0.4-0.1-0.7-0.2-0.9c-0.1-0.2-0.4-0.3-0.7-0.3c-0.2,0-0.5,0.1-0.7,0.2
				c-0.2,0.1-0.4,0.4-0.5,0.7v12.2h-1.6V68.4h1.6v5.6c0.2-0.3,0.5-0.6,0.8-0.8c0.3-0.2,0.7-0.3,1.1-0.3c0.7,0,1.1,0.2,1.4,0.6
				c0.3,0.4,0.4,1.1,0.4,2v12H30z"/>
			<path class="st2" d="M36.8,87.6c-0.1-0.2-0.1-0.5-0.1-0.9c-0.4,0.7-1,1.1-1.7,1.1c-0.7,0-1.2-0.2-1.5-0.5
				c-0.4-0.4-0.5-0.9-0.5-1.8v-2.1c0-0.7,0.1-1.3,0.3-1.8s0.5-0.9,0.8-1.2c0.3-0.3,0.7-0.6,1.2-0.8c0.5-0.2,0.9-0.4,1.4-0.7v-3.2
				c0-0.4-0.1-0.7-0.2-0.9c-0.1-0.2-0.4-0.3-0.8-0.3c-0.4,0-0.7,0.1-0.8,0.3s-0.2,0.5-0.2,0.9v3h-1.4v-3.1c0-0.9,0.2-1.7,0.6-2.1
				c0.4-0.5,1-0.7,1.9-0.7c1.7,0,2.5,0.9,2.5,2.8v10.2c0,0.3,0,0.7,0,1c0,0.3,0,0.5,0.1,0.7H36.8z M36.6,80.2
				c-0.5,0.2-0.8,0.4-1.1,0.6c-0.3,0.2-0.5,0.4-0.7,0.7s-0.2,0.6-0.3,0.9c0,0.3-0.1,0.7-0.1,1.2V85c0,0.8,0.4,1.2,1.1,1.2
				c0.2,0,0.4-0.1,0.6-0.2c0.2-0.1,0.3-0.4,0.4-0.7V80.2z"/>
			<path class="st2" d="M41.1,87.6L39,73.1h1.6C40.7,74,40.9,75,41,76c0.1,1,0.3,2,0.4,3c0.1,1,0.2,1.9,0.3,2.7
				c0.1,0.8,0.2,1.5,0.2,1.9c0-0.5,0.1-1.1,0.2-1.9c0.1-0.8,0.2-1.7,0.4-2.7s0.3-2,0.4-3s0.3-2,0.4-2.8h1.5l-2.2,14.5H41.1z"/>
			<path class="st2" d="M49.4,81.7h1.5v3.2c0,1.9-0.9,2.9-2.6,2.9c-1.7,0-2.5-1-2.5-2.9v-9c0-1,0.2-1.7,0.6-2.2
				c0.4-0.5,1-0.7,1.9-0.7c1.7,0,2.6,1,2.6,3v4.6h-3.6v4.4c0,0.9,0.3,1.3,1,1.3c0.7,0,1.1-0.4,1.1-1.3V81.7z M49.4,75.9
				c0-0.9-0.4-1.3-1.1-1.3c-0.7,0-1,0.4-1,1.3v3.5h2.1V75.9z"/>
			<path class="st2" d="M59.3,87.6c-0.1-0.2-0.1-0.5-0.1-0.9c-0.4,0.7-1,1.1-1.7,1.1c-0.7,0-1.2-0.2-1.5-0.5
				c-0.4-0.4-0.5-0.9-0.5-1.8v-2.1c0-0.7,0.1-1.3,0.3-1.8s0.5-0.9,0.8-1.2c0.3-0.3,0.7-0.6,1.2-0.8c0.5-0.2,0.9-0.4,1.4-0.7v-3.2
				c0-0.4-0.1-0.7-0.2-0.9c-0.1-0.2-0.4-0.3-0.8-0.3c-0.4,0-0.7,0.1-0.8,0.3S57,75.4,57,75.8v3h-1.4v-3.1c0-0.9,0.2-1.7,0.6-2.1
				c0.4-0.5,1-0.7,1.9-0.7c1.7,0,2.5,0.9,2.5,2.8v10.2c0,0.3,0,0.7,0,1c0,0.3,0,0.5,0.1,0.7H59.3z M59.1,80.2
				c-0.5,0.2-0.8,0.4-1.1,0.6c-0.3,0.2-0.5,0.4-0.7,0.7S57,82,57,82.3c0,0.3-0.1,0.7-0.1,1.2V85c0,0.8,0.4,1.2,1.1,1.2
				c0.2,0,0.4-0.1,0.6-0.2c0.2-0.1,0.3-0.4,0.4-0.7V80.2z"/>
			<path class="st2" d="M65.5,90.8V73.1h1.4c0,0.4,0.1,0.7,0.1,1.1c0.2-0.4,0.4-0.7,0.7-0.9c0.3-0.2,0.7-0.3,1.3-0.3
				c0.7,0,1.2,0.2,1.5,0.7c0.4,0.4,0.5,1.1,0.5,2.1v9.5c0,1-0.2,1.7-0.5,2.1c-0.3,0.4-0.9,0.6-1.6,0.6c-0.4,0-0.7-0.1-1-0.2
				c-0.3-0.2-0.5-0.4-0.7-0.6v3.9H65.5z M69.4,75.9c0-0.5-0.1-0.8-0.2-0.9c-0.2-0.2-0.4-0.3-0.8-0.3c-0.3,0-0.5,0.1-0.7,0.2
				c-0.2,0.2-0.4,0.4-0.5,0.7v9.6c0.1,0.3,0.3,0.5,0.5,0.7c0.2,0.2,0.5,0.2,0.7,0.2c0.4,0,0.6-0.1,0.8-0.3c0.2-0.2,0.2-0.5,0.2-0.9
				V75.9z"/>
			<path class="st2" d="M76.1,87.6c-0.1-0.2-0.1-0.5-0.1-0.9c-0.4,0.7-1,1.1-1.7,1.1c-0.7,0-1.2-0.2-1.5-0.5
				c-0.4-0.4-0.5-0.9-0.5-1.8v-2.1c0-0.7,0.1-1.3,0.3-1.8s0.5-0.9,0.8-1.2c0.3-0.3,0.7-0.6,1.2-0.8c0.5-0.2,0.9-0.4,1.4-0.7v-3.2
				c0-0.4-0.1-0.7-0.2-0.9c-0.1-0.2-0.4-0.3-0.8-0.3c-0.4,0-0.7,0.1-0.8,0.3s-0.2,0.5-0.2,0.9v3h-1.4v-3.1c0-0.9,0.2-1.7,0.6-2.1
				c0.4-0.5,1-0.7,1.9-0.7c1.7,0,2.5,0.9,2.5,2.8v10.2c0,0.3,0,0.7,0,1c0,0.3,0,0.5,0.1,0.7H76.1z M75.9,80.2
				c-0.5,0.2-0.8,0.4-1.1,0.6c-0.3,0.2-0.5,0.4-0.7,0.7s-0.2,0.6-0.3,0.9c0,0.3-0.1,0.7-0.1,1.2V85c0,0.8,0.4,1.2,1.1,1.2
				c0.2,0,0.4-0.1,0.6-0.2c0.2-0.1,0.3-0.4,0.4-0.7V80.2z"/>
			<path class="st2" d="M82.4,83.4c0-0.3,0-0.6-0.1-0.8s-0.3-0.5-0.6-0.9c-0.3-0.4-0.7-0.8-1.1-1.1c-0.4-0.4-0.8-0.7-1.1-1.1
				c-0.3-0.3-0.5-0.7-0.6-1c-0.1-0.3-0.1-0.8-0.1-1.4v-1.5c0-1,0.2-1.7,0.7-2.1c0.4-0.4,1.1-0.6,1.9-0.6c1,0,1.7,0.2,2,0.7
				s0.5,1.1,0.5,2.1V78h-1.5v-2.4c0-0.4-0.1-0.6-0.3-0.9c-0.2-0.2-0.5-0.3-0.7-0.3c-0.7,0-1.1,0.4-1.1,1.2v1.7c0,0.3,0,0.6,0.1,0.8
				c0.1,0.2,0.3,0.4,0.5,0.7c0.3,0.3,0.7,0.7,1.1,1c0.4,0.3,0.7,0.6,1,1c0.4,0.4,0.6,0.8,0.7,1.2C84,82.5,84,83,84,83.6v1.6
				c0,0.9-0.2,1.6-0.7,2c-0.4,0.4-1.1,0.6-2,0.6c-1.7,0-2.5-0.9-2.5-2.7v-2.4h1.4v2.3c0,0.4,0.1,0.6,0.3,0.9
				c0.2,0.2,0.5,0.3,0.8,0.3c0.7,0,1.1-0.4,1.1-1.2V83.4z"/>
			<path class="st2" d="M88.9,83.4c0-0.3,0-0.6-0.1-0.8s-0.3-0.5-0.6-0.9c-0.3-0.4-0.7-0.8-1.1-1.1c-0.4-0.4-0.8-0.7-1.1-1.1
				c-0.3-0.3-0.5-0.7-0.6-1c-0.1-0.3-0.1-0.8-0.1-1.4v-1.5c0-1,0.2-1.7,0.7-2.1c0.4-0.4,1.1-0.6,1.9-0.6c1,0,1.7,0.2,2,0.7
				s0.5,1.1,0.5,2.1V78H89v-2.4c0-0.4-0.1-0.6-0.3-0.9c-0.2-0.2-0.5-0.3-0.7-0.3c-0.7,0-1.1,0.4-1.1,1.2v1.7c0,0.3,0,0.6,0.1,0.8
				c0.1,0.2,0.3,0.4,0.5,0.7c0.3,0.3,0.7,0.7,1.1,1c0.4,0.3,0.7,0.6,1,1c0.4,0.4,0.6,0.8,0.7,1.2c0.1,0.4,0.2,0.9,0.2,1.5v1.6
				c0,0.9-0.2,1.6-0.7,2c-0.4,0.4-1.1,0.6-2,0.6c-1.7,0-2.5-0.9-2.5-2.7v-2.4h1.4v2.3c0,0.4,0.1,0.6,0.3,0.9
				c0.2,0.2,0.5,0.3,0.8,0.3c0.7,0,1.1-0.4,1.1-1.2V83.4z"/>
			<path class="st2" d="M92.1,71.3v-2.9h1.6v2.9H92.1z M92.1,87.6V73.1h1.6v14.5H92.1z"/>
			<path class="st2" d="M95.3,75.8c0-0.9,0.2-1.6,0.7-2.1c0.4-0.5,1.1-0.7,2-0.7c0.9,0,1.6,0.2,2,0.7c0.4,0.5,0.7,1.2,0.7,2.1v9.1
				c0,0.9-0.2,1.6-0.7,2.1c-0.4,0.5-1.1,0.7-2,0.7c-0.9,0-1.6-0.2-2-0.7c-0.4-0.5-0.7-1.2-0.7-2.1V75.8z M99.1,75.8
				c0-0.4-0.1-0.7-0.2-0.9c-0.1-0.2-0.4-0.3-0.9-0.3c-0.4,0-0.7,0.1-0.9,0.3c-0.1,0.2-0.2,0.5-0.2,0.9v9.1c0,0.4,0.1,0.7,0.2,0.9
				c0.1,0.2,0.4,0.3,0.9,0.3c0.4,0,0.7-0.1,0.9-0.3c0.1-0.2,0.2-0.5,0.2-1V75.8z"/>
			<path class="st2" d="M106,87.6V75.7c0-0.4-0.1-0.7-0.2-0.9c-0.1-0.2-0.4-0.3-0.7-0.3c-0.2,0-0.5,0.1-0.7,0.2
				c-0.2,0.1-0.4,0.4-0.5,0.7v12.2h-1.6V73.1h1.4c0,0.4,0.1,0.7,0.1,1.1c0.2-0.4,0.5-0.7,0.9-1c0.4-0.2,0.8-0.4,1.2-0.4
				c0.7,0,1.1,0.2,1.4,0.6c0.3,0.4,0.5,1.1,0.5,2v12H106z"/>
			<path class="st2" d="M112.5,87.6v-13h-0.7v-1.4h0.7v-2c0-0.9,0.2-1.6,0.5-2.1c0.3-0.5,0.9-0.8,1.7-0.8c0.2,0,0.4,0,0.6,0
				c0.2,0,0.4,0.1,0.5,0.1v1.4c-0.2,0-0.4-0.1-0.6-0.1c-0.4,0-0.6,0.1-0.8,0.3c-0.2,0.2-0.3,0.6-0.3,1.1v2h1.6v1.4h-1.6v13H112.5z"
				/>
			<path class="st2" d="M116.8,75.8c0-0.9,0.2-1.6,0.7-2.1c0.4-0.5,1.1-0.7,2-0.7c0.9,0,1.6,0.2,2,0.7c0.4,0.5,0.7,1.2,0.7,2.1v9.1
				c0,0.9-0.2,1.6-0.7,2.1c-0.4,0.5-1.1,0.7-2,0.7c-0.9,0-1.6-0.2-2-0.7c-0.4-0.5-0.7-1.2-0.7-2.1V75.8z M120.6,75.8
				c0-0.4-0.1-0.7-0.2-0.9c-0.1-0.2-0.4-0.3-0.9-0.3c-0.4,0-0.7,0.1-0.9,0.3c-0.1,0.2-0.2,0.5-0.2,0.9v9.1c0,0.4,0.1,0.7,0.2,0.9
				c0.1,0.2,0.4,0.3,0.9,0.3c0.4,0,0.7-0.1,0.9-0.3c0.1-0.2,0.2-0.5,0.2-1V75.8z"/>
			<path class="st2" d="M123.7,87.6V73.1h1.4c0,0.4,0.1,0.7,0.1,1c0.2-0.4,0.4-0.7,0.7-0.9c0.3-0.2,0.6-0.3,1-0.3
				c0.2,0,0.4,0,0.5,0.1v1.8c-0.1-0.1-0.2-0.1-0.3-0.1s-0.3,0-0.4,0c-0.2,0-0.5,0.1-0.7,0.2c-0.2,0.1-0.4,0.3-0.6,0.7v12H123.7z"/>
			<path class="st2" d="M135.7,87.6c0-0.2,0-0.3,0-0.5c0-0.2,0-0.4,0-0.5c-0.2,0.4-0.4,0.7-0.7,0.9c-0.3,0.2-0.7,0.3-1.3,0.3
				c-1.4,0-2.1-0.9-2.1-2.7v-9.5c0-0.9,0.2-1.6,0.5-2c0.3-0.4,0.9-0.6,1.6-0.6c0.4,0,0.7,0.1,1,0.3c0.3,0.2,0.5,0.4,0.7,0.7v-5.5
				h1.6v19.2H135.7z M135.5,75.5c-0.3-0.6-0.7-1-1.3-1c-0.4,0-0.6,0.1-0.8,0.3s-0.2,0.5-0.2,0.9v9.1c0,0.5,0.1,0.8,0.2,0.9
				s0.4,0.3,0.8,0.3c0.6,0,1-0.3,1.3-1V75.5z"/>
			<path class="st2" d="M142.1,81.7h1.5v3.2c0,1.9-0.9,2.9-2.6,2.9c-1.7,0-2.5-1-2.5-2.9v-9c0-1,0.2-1.7,0.6-2.2
				c0.4-0.5,1-0.7,1.9-0.7c1.7,0,2.6,1,2.6,3v4.6H140v4.4c0,0.9,0.3,1.3,1,1.3c0.7,0,1.1-0.4,1.1-1.3V81.7z M142.1,75.9
				c0-0.9-0.4-1.3-1.1-1.3c-0.7,0-1,0.4-1,1.3v3.5h2.1V75.9z"/>
			<path class="st2" d="M148.8,81.7h1.5v3.2c0,0.9-0.2,1.6-0.6,2.1c-0.4,0.5-1.1,0.8-1.9,0.8s-1.5-0.3-2-0.8
				c-0.4-0.5-0.7-1.2-0.7-2.1v-9c0-0.9,0.2-1.6,0.7-2.2c0.4-0.6,1.1-0.8,2-0.8s1.5,0.3,1.9,0.8c0.4,0.5,0.6,1.3,0.6,2.1V79h-1.4
				v-3.2c0-0.9-0.4-1.3-1.1-1.3c-0.4,0-0.6,0.1-0.8,0.3c-0.2,0.2-0.3,0.6-0.3,1v9c0,0.9,0.4,1.3,1.1,1.3s1.1-0.4,1.1-1.3V81.7z"/>
			<path class="st2" d="M151.7,75.8c0-0.9,0.2-1.6,0.7-2.1c0.4-0.5,1.1-0.7,2-0.7c0.9,0,1.6,0.2,2,0.7c0.4,0.5,0.7,1.2,0.7,2.1v9.1
				c0,0.9-0.2,1.6-0.7,2.1c-0.4,0.5-1.1,0.7-2,0.7c-0.9,0-1.6-0.2-2-0.7c-0.4-0.5-0.7-1.2-0.7-2.1V75.8z M155.4,75.8
				c0-0.4-0.1-0.7-0.2-0.9c-0.1-0.2-0.4-0.3-0.9-0.3c-0.4,0-0.7,0.1-0.9,0.3c-0.1,0.2-0.2,0.5-0.2,0.9v9.1c0,0.4,0.1,0.7,0.2,0.9
				c0.1,0.2,0.4,0.3,0.9,0.3c0.4,0,0.7-0.1,0.9-0.3c0.1-0.2,0.2-0.5,0.2-1V75.8z"/>
			<path class="st2" d="M162.4,87.6V75.7c0-0.4-0.1-0.7-0.2-0.9c-0.1-0.2-0.4-0.3-0.7-0.3c-0.2,0-0.5,0.1-0.7,0.2
				c-0.2,0.1-0.4,0.4-0.5,0.7v12.2h-1.6V73.1h1.4c0,0.4,0.1,0.7,0.1,1.1c0.2-0.4,0.5-0.7,0.9-1c0.4-0.2,0.8-0.4,1.2-0.4
				c0.7,0,1.1,0.2,1.4,0.6c0.3,0.4,0.5,1.1,0.5,2v12H162.4z"/>
			<path class="st2" d="M169,83.4c0-0.3,0-0.6-0.1-0.8s-0.3-0.5-0.6-0.9c-0.3-0.4-0.7-0.8-1.1-1.1c-0.4-0.4-0.8-0.7-1.1-1.1
				c-0.3-0.3-0.5-0.7-0.6-1c-0.1-0.3-0.1-0.8-0.1-1.4v-1.5c0-1,0.2-1.7,0.7-2.1c0.4-0.4,1.1-0.6,1.9-0.6c1,0,1.7,0.2,2,0.7
				s0.5,1.1,0.5,2.1V78h-1.5v-2.4c0-0.4-0.1-0.6-0.3-0.9c-0.2-0.2-0.5-0.3-0.7-0.3c-0.7,0-1.1,0.4-1.1,1.2v1.7c0,0.3,0,0.6,0.1,0.8
				c0.1,0.2,0.3,0.4,0.5,0.7c0.3,0.3,0.7,0.7,1.1,1c0.4,0.3,0.7,0.6,1,1c0.4,0.4,0.6,0.8,0.7,1.2c0.1,0.4,0.2,0.9,0.2,1.5v1.6
				c0,0.9-0.2,1.6-0.7,2c-0.4,0.4-1.1,0.6-2,0.6c-1.7,0-2.5-0.9-2.5-2.7v-2.4h1.4v2.3c0,0.4,0.1,0.6,0.3,0.9
				c0.2,0.2,0.5,0.3,0.8,0.3c0.7,0,1.1-0.4,1.1-1.2V83.4z"/>
			<path class="st2" d="M175.5,87.7c-0.1,0-0.2,0.1-0.3,0.1s-0.3,0-0.4,0c-0.9,0-1.5-0.3-1.9-0.8c-0.4-0.5-0.6-1.3-0.6-2.2V74.6
				h-0.7v-1.4h0.7v-4.6h1.6v4.6h1.6v1.4h-1.6v10.2c0,0.6,0.1,1,0.3,1.2c0.2,0.2,0.6,0.4,1.1,0.4c0,0,0.1,0,0.2,0c0.1,0,0.1,0,0.2,0
				V87.7z"/>
			<path class="st2" d="M176.6,87.6V73.1h1.4c0,0.4,0.1,0.7,0.1,1c0.2-0.4,0.4-0.7,0.7-0.9c0.3-0.2,0.6-0.3,1-0.3
				c0.2,0,0.4,0,0.5,0.1v1.8c-0.1-0.1-0.2-0.1-0.3-0.1s-0.3,0-0.4,0c-0.2,0-0.5,0.1-0.7,0.2c-0.2,0.1-0.4,0.3-0.6,0.7v12H176.6z"/>
			<path class="st2" d="M185.3,87.6c0-0.2,0-0.3,0-0.5s0-0.4,0-0.5c-0.2,0.4-0.5,0.7-0.9,0.9c-0.4,0.2-0.8,0.3-1.2,0.3
				c-1.2,0-1.9-0.8-1.9-2.5V73.1h1.6V85c0,0.4,0.1,0.7,0.2,0.9c0.1,0.2,0.4,0.3,0.7,0.3c0.2,0,0.5-0.1,0.7-0.2
				c0.2-0.1,0.4-0.4,0.5-0.7V73.1h1.6v14.5H185.3z"/>
			<path class="st2" d="M192,81.7h1.5v3.2c0,0.9-0.2,1.6-0.6,2.1c-0.4,0.5-1.1,0.8-1.9,0.8s-1.5-0.3-2-0.8c-0.4-0.5-0.7-1.2-0.7-2.1
				v-9c0-0.9,0.2-1.6,0.7-2.2c0.4-0.6,1.1-0.8,2-0.8s1.5,0.3,1.9,0.8c0.4,0.5,0.6,1.3,0.6,2.1V79H192v-3.2c0-0.9-0.4-1.3-1.1-1.3
				c-0.4,0-0.6,0.1-0.8,0.3c-0.2,0.2-0.3,0.6-0.3,1v9c0,0.9,0.4,1.3,1.1,1.3s1.1-0.4,1.1-1.3V81.7z"/>
			<path class="st2" d="M198.4,87.7c-0.1,0-0.2,0.1-0.3,0.1s-0.3,0-0.4,0c-0.9,0-1.5-0.3-1.9-0.8c-0.4-0.5-0.6-1.3-0.6-2.2V74.6
				h-0.7v-1.4h0.7v-4.6h1.6v4.6h1.6v1.4h-1.6v10.2c0,0.6,0.1,1,0.3,1.2c0.2,0.2,0.6,0.4,1.1,0.4c0,0,0.1,0,0.2,0c0.1,0,0.1,0,0.2,0
				V87.7z"/>
			<path class="st2" d="M199.5,71.3v-2.9h1.6v2.9H199.5z M199.5,87.6V73.1h1.6v14.5H199.5z"/>
			<path class="st2" d="M206.7,87.6V75.7c0-0.4-0.1-0.7-0.2-0.9c-0.1-0.2-0.4-0.3-0.7-0.3c-0.2,0-0.5,0.1-0.7,0.2
				c-0.2,0.1-0.4,0.4-0.5,0.7v12.2h-1.6V73.1h1.4c0,0.4,0.1,0.7,0.1,1.1c0.2-0.4,0.5-0.7,0.9-1c0.4-0.2,0.8-0.4,1.2-0.4
				c0.7,0,1.1,0.2,1.4,0.6c0.3,0.4,0.5,1.1,0.5,2v12H206.7z"/>
			<path class="st2" d="M213.8,86c-0.2,0.3-0.4,0.5-0.7,0.7c-0.3,0.2-0.7,0.2-1.1,0.2c-0.7,0-1.3-0.2-1.6-0.6
				c-0.3-0.4-0.5-1.1-0.5-2v-8.6c0-0.9,0.2-1.6,0.5-2.1s0.9-0.7,1.5-0.7c0.5,0,0.9,0.1,1.2,0.3c0.3,0.2,0.6,0.5,0.8,0.9
				c0-0.2,0-0.4,0-0.6c0-0.2,0-0.4,0-0.5h1.4v15.2c0,0.9-0.2,1.6-0.6,2c-0.4,0.5-1.1,0.7-2,0.7c-0.5,0-0.9-0.1-1.3-0.2
				c-0.3-0.1-0.6-0.3-0.8-0.5s-0.3-0.5-0.4-0.9c-0.1-0.3-0.1-0.7-0.1-1.2v-0.6h1.4v0.7c0,0.8,0.4,1.3,1.2,1.3c0.7,0,1.1-0.4,1.1-1.3
				V86z M213.8,75.7c-0.1-0.3-0.3-0.5-0.5-0.7c-0.2-0.2-0.5-0.2-0.8-0.2c-0.4,0-0.7,0.1-0.8,0.3c-0.1,0.2-0.2,0.5-0.2,0.8v8.4
				c0,0.4,0.1,0.7,0.2,0.9c0.1,0.2,0.4,0.3,0.8,0.3c0.3,0,0.5-0.1,0.8-0.2c0.2-0.2,0.4-0.4,0.5-0.7V75.7z"/>
			<path class="st2" d="M223.8,87.6c-0.1-0.2-0.1-0.5-0.1-0.9c-0.4,0.7-1,1.1-1.7,1.1c-0.7,0-1.2-0.2-1.5-0.5
				c-0.4-0.4-0.5-0.9-0.5-1.8v-2.1c0-0.7,0.1-1.3,0.3-1.8s0.5-0.9,0.8-1.2c0.3-0.3,0.7-0.6,1.2-0.8c0.5-0.2,0.9-0.4,1.4-0.7v-3.2
				c0-0.4-0.1-0.7-0.2-0.9c-0.1-0.2-0.4-0.3-0.8-0.3c-0.4,0-0.7,0.1-0.8,0.3s-0.2,0.5-0.2,0.9v3h-1.4v-3.1c0-0.9,0.2-1.7,0.6-2.1
				c0.4-0.5,1-0.7,1.9-0.7c1.7,0,2.5,0.9,2.5,2.8v10.2c0,0.3,0,0.7,0,1c0,0.3,0,0.5,0.1,0.7H223.8z M223.6,80.2
				c-0.5,0.2-0.8,0.4-1.1,0.6c-0.3,0.2-0.5,0.4-0.7,0.7s-0.2,0.6-0.3,0.9c0,0.3-0.1,0.7-0.1,1.2V85c0,0.8,0.4,1.2,1.1,1.2
				c0.2,0,0.4-0.1,0.6-0.2c0.2-0.1,0.3-0.4,0.4-0.7V80.2z"/>
			<path class="st2" d="M230.6,87.6V75.7c0-0.4-0.1-0.7-0.2-0.9c-0.1-0.2-0.4-0.3-0.7-0.3c-0.2,0-0.5,0.1-0.7,0.2
				c-0.2,0.1-0.4,0.4-0.5,0.7v12.2h-1.6V73.1h1.4c0,0.4,0.1,0.7,0.1,1.1c0.2-0.4,0.5-0.7,0.9-1c0.4-0.2,0.8-0.4,1.2-0.4
				c0.7,0,1.1,0.2,1.4,0.6c0.3,0.4,0.5,1.1,0.5,2v12H230.6z"/>
			<path class="st2" d="M237.9,87.6c0-0.2,0-0.3,0-0.5c0-0.2,0-0.4,0-0.5c-0.2,0.4-0.4,0.7-0.7,0.9c-0.3,0.2-0.7,0.3-1.3,0.3
				c-1.4,0-2.1-0.9-2.1-2.7v-9.5c0-0.9,0.2-1.6,0.5-2c0.3-0.4,0.9-0.6,1.6-0.6c0.4,0,0.7,0.1,1,0.3c0.3,0.2,0.5,0.4,0.7,0.7v-5.5
				h1.6v19.2H237.9z M237.6,75.5c-0.3-0.6-0.7-1-1.3-1c-0.4,0-0.6,0.1-0.8,0.3s-0.2,0.5-0.2,0.9v9.1c0,0.5,0.1,0.8,0.2,0.9
				s0.4,0.3,0.8,0.3c0.6,0,1-0.3,1.3-1V75.5z"/>
			<path class="st2" d="M244.2,71.3v-2.9h1.6v2.9H244.2z M244.2,87.6V73.1h1.6v14.5H244.2z"/>
			<path class="st2" d="M254.6,87.6v-12c0-0.7-0.3-1.1-0.8-1.1c-0.2,0-0.4,0.1-0.6,0.2c-0.2,0.1-0.3,0.4-0.5,0.7v12.2h-1.6v-12
				c0-0.7-0.3-1.1-0.8-1.1c-0.2,0-0.4,0.1-0.6,0.2c-0.2,0.1-0.3,0.4-0.5,0.7v12.2h-1.6V73.1h1.4c0,0.4,0.1,0.7,0.1,1.1
				c0.2-0.4,0.5-0.7,0.8-1c0.3-0.2,0.7-0.3,1.1-0.3c0.8,0,1.3,0.4,1.6,1.3c0.2-0.4,0.5-0.7,0.8-0.9c0.3-0.2,0.7-0.3,1.1-0.3
				c0.6,0,1.1,0.2,1.3,0.7s0.4,1.1,0.4,2v12H254.6z"/>
			<path class="st2" d="M257.8,90.8V73.1h1.4c0,0.4,0.1,0.7,0.1,1.1c0.2-0.4,0.4-0.7,0.7-0.9s0.7-0.3,1.3-0.3c0.7,0,1.2,0.2,1.5,0.7
				c0.3,0.4,0.5,1.1,0.5,2.1v9.5c0,1-0.2,1.7-0.5,2.1c-0.3,0.4-0.9,0.6-1.6,0.6c-0.4,0-0.7-0.1-1-0.2s-0.5-0.4-0.7-0.6v3.9H257.8z
				 M261.7,75.9c0-0.5-0.1-0.8-0.2-0.9c-0.2-0.2-0.4-0.3-0.8-0.3c-0.3,0-0.5,0.1-0.7,0.2c-0.2,0.2-0.4,0.4-0.5,0.7v9.6
				c0.1,0.3,0.3,0.5,0.5,0.7c0.2,0.2,0.5,0.2,0.7,0.2c0.4,0,0.6-0.1,0.8-0.3c0.2-0.2,0.2-0.5,0.2-0.9V75.9z"/>
			<path class="st2" d="M264.9,87.6V73.1h1.4c0,0.4,0.1,0.7,0.1,1c0.2-0.4,0.4-0.7,0.7-0.9s0.6-0.3,1-0.3c0.2,0,0.4,0,0.5,0.1v1.8
				c-0.1-0.1-0.2-0.1-0.3-0.1c-0.1,0-0.3,0-0.4,0c-0.2,0-0.5,0.1-0.7,0.2c-0.2,0.1-0.4,0.3-0.6,0.7v12H264.9z"/>
			<path class="st2" d="M269.5,75.8c0-0.9,0.2-1.6,0.7-2.1s1.1-0.7,2-0.7c0.9,0,1.6,0.2,2,0.7c0.4,0.5,0.7,1.2,0.7,2.1v9.1
				c0,0.9-0.2,1.6-0.7,2.1c-0.4,0.5-1.1,0.7-2,0.7c-0.9,0-1.6-0.2-2-0.7s-0.7-1.2-0.7-2.1V75.8z M273.2,75.8c0-0.4-0.1-0.7-0.2-0.9
				c-0.1-0.2-0.4-0.3-0.9-0.3s-0.7,0.1-0.9,0.3c-0.1,0.2-0.2,0.5-0.2,0.9v9.1c0,0.4,0.1,0.7,0.2,0.9c0.1,0.2,0.4,0.3,0.9,0.3
				s0.7-0.1,0.9-0.3c0.1-0.2,0.2-0.5,0.2-1V75.8z"/>
			<path class="st2" d="M277.8,87.6l-2.1-14.5h1.6c0.1,0.9,0.3,1.8,0.4,2.8c0.1,1,0.3,2,0.4,3c0.1,1,0.2,1.9,0.3,2.7
				c0.1,0.8,0.2,1.5,0.2,1.9c0-0.5,0.1-1.1,0.2-1.9c0.1-0.8,0.2-1.7,0.4-2.7s0.3-2,0.4-3c0.1-1,0.3-2,0.4-2.8h1.5l-2.2,14.5H277.8z"
				/>
			<path class="st2" d="M282.8,71.3v-2.9h1.6v2.9H282.8z M282.8,87.6V73.1h1.6v14.5H282.8z"/>
			<path class="st2" d="M290,87.6V75.7c0-0.4-0.1-0.7-0.2-0.9c-0.1-0.2-0.4-0.3-0.7-0.3c-0.2,0-0.5,0.1-0.7,0.2
				c-0.2,0.1-0.4,0.4-0.5,0.7v12.2h-1.6V73.1h1.4c0,0.4,0.1,0.7,0.1,1.1c0.2-0.4,0.5-0.7,0.9-1c0.4-0.2,0.8-0.4,1.2-0.4
				c0.7,0,1.1,0.2,1.4,0.6s0.5,1.1,0.5,2v12H290z"/>
			<path class="st2" d="M297,86c-0.2,0.3-0.4,0.5-0.7,0.7c-0.3,0.2-0.7,0.2-1.1,0.2c-0.7,0-1.3-0.2-1.6-0.6c-0.3-0.4-0.5-1.1-0.5-2
				v-8.6c0-0.9,0.2-1.6,0.5-2.1s0.9-0.7,1.5-0.7c0.5,0,0.9,0.1,1.2,0.3c0.3,0.2,0.6,0.5,0.8,0.9c0-0.2,0-0.4,0-0.6
				c0-0.2,0-0.4,0-0.5h1.4v15.2c0,0.9-0.2,1.6-0.6,2c-0.4,0.5-1.1,0.7-2,0.7c-0.5,0-0.9-0.1-1.3-0.2c-0.3-0.1-0.6-0.3-0.8-0.5
				s-0.3-0.5-0.4-0.9c-0.1-0.3-0.1-0.7-0.1-1.2v-0.6h1.4v0.7c0,0.8,0.4,1.3,1.2,1.3c0.7,0,1.1-0.4,1.1-1.3V86z M297,75.7
				c-0.1-0.3-0.3-0.5-0.5-0.7c-0.2-0.2-0.5-0.2-0.8-0.2c-0.4,0-0.7,0.1-0.8,0.3c-0.1,0.2-0.2,0.5-0.2,0.8v8.4c0,0.4,0.1,0.7,0.2,0.9
				c0.1,0.2,0.4,0.3,0.8,0.3c0.3,0,0.5-0.1,0.8-0.2c0.2-0.2,0.4-0.4,0.5-0.7V75.7z"/>
			<path class="st2" d="M303.3,75.8c0-0.9,0.2-1.6,0.7-2.1s1.1-0.7,2-0.7c0.9,0,1.6,0.2,2,0.7c0.4,0.5,0.7,1.2,0.7,2.1v9.1
				c0,0.9-0.2,1.6-0.7,2.1c-0.4,0.5-1.1,0.7-2,0.7c-0.9,0-1.6-0.2-2-0.7s-0.7-1.2-0.7-2.1V75.8z M307.1,75.8c0-0.4-0.1-0.7-0.2-0.9
				c-0.1-0.2-0.4-0.3-0.9-0.3s-0.7,0.1-0.9,0.3c-0.1,0.2-0.2,0.5-0.2,0.9v9.1c0,0.4,0.1,0.7,0.2,0.9c0.1,0.2,0.4,0.3,0.9,0.3
				s0.7-0.1,0.9-0.3c0.1-0.2,0.2-0.5,0.2-1V75.8z"/>
			<path class="st2" d="M314,87.6V75.7c0-0.4-0.1-0.7-0.2-0.9c-0.1-0.2-0.4-0.3-0.7-0.3c-0.2,0-0.5,0.1-0.7,0.2
				c-0.2,0.1-0.4,0.4-0.5,0.7v12.2h-1.6V73.1h1.4c0,0.4,0.1,0.7,0.1,1.1c0.2-0.4,0.5-0.7,0.9-1c0.4-0.2,0.8-0.4,1.2-0.4
				c0.7,0,1.1,0.2,1.4,0.6s0.5,1.1,0.5,2v12H314z"/>
			<path class="st2" d="M0.6,123.2v-17.7H2c0,0.4,0.1,0.7,0.1,1.1c0.2-0.4,0.4-0.7,0.7-0.9c0.3-0.2,0.7-0.3,1.3-0.3
				c0.7,0,1.2,0.2,1.5,0.7c0.4,0.4,0.5,1.1,0.5,2.1v9.5c0,1-0.2,1.7-0.5,2.1c-0.3,0.4-0.9,0.6-1.6,0.6c-0.4,0-0.7-0.1-1-0.2
				c-0.3-0.2-0.5-0.4-0.7-0.6v3.9H0.6z M4.5,108.3c0-0.5-0.1-0.8-0.2-0.9s-0.4-0.3-0.8-0.3c-0.3,0-0.5,0.1-0.7,0.2s-0.4,0.4-0.5,0.7
				v9.6c0.1,0.3,0.3,0.5,0.5,0.7s0.5,0.2,0.7,0.2c0.4,0,0.6-0.1,0.8-0.3s0.2-0.5,0.2-0.9V108.3z"/>
			<path class="st2" d="M7.6,108.2c0-0.9,0.2-1.6,0.7-2.1c0.4-0.5,1.1-0.7,2-0.7c0.9,0,1.6,0.2,2,0.7c0.4,0.5,0.7,1.2,0.7,2.1v9.1
				c0,0.9-0.2,1.6-0.7,2.1c-0.4,0.5-1.1,0.7-2,0.7c-0.9,0-1.6-0.2-2-0.7c-0.4-0.5-0.7-1.2-0.7-2.1V108.2z M11.3,108.3
				c0-0.4-0.1-0.7-0.2-0.9c-0.1-0.2-0.4-0.3-0.9-0.3c-0.4,0-0.7,0.1-0.9,0.3c-0.1,0.2-0.2,0.5-0.2,0.9v9.1c0,0.4,0.1,0.7,0.2,0.9
				c0.1,0.2,0.4,0.3,0.9,0.3c0.4,0,0.7-0.1,0.9-0.3c0.1-0.2,0.2-0.5,0.2-1V108.3z"/>
			<path class="st2" d="M14.5,123.2v-17.7h1.4c0,0.4,0.1,0.7,0.1,1.1c0.2-0.4,0.4-0.7,0.7-0.9c0.3-0.2,0.7-0.3,1.3-0.3
				c0.7,0,1.2,0.2,1.5,0.7c0.4,0.4,0.5,1.1,0.5,2.1v9.5c0,1-0.2,1.7-0.5,2.1c-0.3,0.4-0.9,0.6-1.6,0.6c-0.4,0-0.7-0.1-1-0.2
				c-0.3-0.2-0.5-0.4-0.7-0.6v3.9H14.5z M18.4,108.3c0-0.5-0.1-0.8-0.2-0.9s-0.4-0.3-0.8-0.3c-0.3,0-0.5,0.1-0.7,0.2
				s-0.4,0.4-0.5,0.7v9.6c0.1,0.3,0.3,0.5,0.5,0.7s0.5,0.2,0.7,0.2c0.4,0,0.6-0.1,0.8-0.3s0.2-0.5,0.2-0.9V108.3z"/>
			<path class="st2" d="M25.4,120c0-0.2,0-0.3,0-0.5c0-0.2,0-0.3,0-0.5c-0.2,0.4-0.5,0.7-0.9,0.9s-0.8,0.3-1.2,0.3
				c-1.2,0-1.9-0.8-1.9-2.5v-12.1h1.6v11.9c0,0.4,0.1,0.7,0.2,0.9c0.1,0.2,0.4,0.3,0.7,0.3c0.2,0,0.5-0.1,0.7-0.2s0.4-0.4,0.5-0.7
				v-12.2h1.6V120H25.4z"/>
			<path class="st2" d="M28.6,120v-19.2h1.6V120H28.6z"/>
			<path class="st2" d="M35.5,120c-0.1-0.2-0.1-0.5-0.1-0.9c-0.4,0.7-1,1.1-1.7,1.1c-0.7,0-1.2-0.2-1.5-0.5
				c-0.4-0.4-0.5-0.9-0.5-1.8v-2.1c0-0.7,0.1-1.3,0.3-1.8s0.5-0.9,0.8-1.2c0.3-0.3,0.7-0.6,1.2-0.8c0.5-0.2,0.9-0.4,1.4-0.7v-3.2
				c0-0.4-0.1-0.7-0.2-0.9c-0.1-0.2-0.4-0.3-0.8-0.3c-0.4,0-0.7,0.1-0.8,0.3c-0.1,0.2-0.2,0.5-0.2,0.9v3h-1.4v-3.1
				c0-0.9,0.2-1.7,0.6-2.1c0.4-0.5,1-0.7,1.9-0.7c1.7,0,2.5,0.9,2.5,2.8v10.2c0,0.3,0,0.7,0,1s0,0.5,0.1,0.7H35.5z M35.3,112.6
				c-0.5,0.2-0.8,0.4-1.1,0.6c-0.3,0.2-0.5,0.4-0.7,0.7s-0.2,0.6-0.3,0.9c0,0.3-0.1,0.7-0.1,1.2v1.5c0,0.8,0.4,1.2,1.1,1.2
				c0.2,0,0.4-0.1,0.6-0.2c0.2-0.1,0.3-0.4,0.4-0.7V112.6z"/>
			<path class="st2" d="M38.5,120v-14.5h1.4c0,0.4,0.1,0.7,0.1,1.1c0.2-0.4,0.4-0.7,0.7-0.9c0.3-0.2,0.6-0.3,1-0.3
				c0.2,0,0.4,0,0.5,0.1v1.8c-0.1-0.1-0.2-0.1-0.3-0.1s-0.3,0-0.4,0c-0.2,0-0.5,0.1-0.7,0.2c-0.2,0.1-0.4,0.3-0.6,0.7v12H38.5z"/>
			<path class="st2" d="M42.7,121.4v-0.8h0.1c0.3,0,0.4-0.1,0.4-0.4v-0.7h-0.8v-2.4h1.7v3c0,0.4-0.1,0.7-0.3,1
				c-0.2,0.2-0.5,0.4-1,0.4H42.7z"/>
			<path class="st2" d="M49,103.7v-2.9h1.6v2.9H49z M49,120v-14.5h1.6V120H49z"/>
			<path class="st2" d="M56.2,120v-11.9c0-0.4-0.1-0.7-0.2-0.9c-0.1-0.2-0.4-0.3-0.7-0.3c-0.2,0-0.5,0.1-0.7,0.2
				c-0.2,0.1-0.4,0.4-0.5,0.7V120h-1.6v-14.5h1.4c0,0.4,0.1,0.7,0.1,1.1c0.2-0.4,0.5-0.7,0.9-1c0.4-0.2,0.8-0.4,1.2-0.4
				c0.7,0,1.1,0.2,1.4,0.6c0.3,0.4,0.5,1.1,0.5,2v12H56.2z"/>
			<path class="st2" d="M62.8,120.1c-0.1,0-0.2,0.1-0.3,0.1c-0.1,0-0.3,0-0.4,0c-0.9,0-1.5-0.3-1.9-0.8c-0.4-0.5-0.6-1.3-0.6-2.2
				V107h-0.7v-1.4h0.7V101h1.6v4.6h1.6v1.4h-1.6v10.2c0,0.6,0.1,1,0.3,1.2c0.2,0.2,0.6,0.4,1.1,0.4c0,0,0.1,0,0.2,0
				c0.1,0,0.1,0,0.2,0V120.1z"/>
			<path class="st2" d="M63.9,120v-14.5h1.4c0,0.4,0.1,0.7,0.1,1.1c0.2-0.4,0.4-0.7,0.7-0.9c0.3-0.2,0.6-0.3,1-0.3
				c0.2,0,0.4,0,0.5,0.1v1.8c-0.1-0.1-0.2-0.1-0.3-0.1s-0.3,0-0.4,0c-0.2,0-0.5,0.1-0.7,0.2c-0.2,0.1-0.4,0.3-0.6,0.7v12H63.9z"/>
			<path class="st2" d="M68.8,103.7v-2.9h1.6v2.9H68.8z M68.8,120v-14.5h1.6V120H68.8z"/>
			<path class="st2" d="M75.7,114.1h1.5v3.2c0,0.9-0.2,1.6-0.6,2.1c-0.4,0.5-1.1,0.8-1.9,0.8s-1.5-0.3-2-0.8
				c-0.4-0.5-0.7-1.2-0.7-2.1v-9c0-0.9,0.2-1.6,0.7-2.2c0.4-0.6,1.1-0.8,2-0.8s1.5,0.3,1.9,0.8c0.4,0.5,0.6,1.3,0.6,2.1v3.1h-1.4
				v-3.2c0-0.9-0.4-1.3-1.1-1.3c-0.4,0-0.6,0.1-0.8,0.4c-0.2,0.2-0.3,0.6-0.3,1v9c0,0.9,0.4,1.3,1.1,1.3s1.1-0.4,1.1-1.3V114.1z"/>
			<path class="st2" d="M82.3,120c-0.1-0.2-0.1-0.5-0.1-0.9c-0.4,0.7-1,1.1-1.7,1.1c-0.7,0-1.2-0.2-1.5-0.5
				c-0.4-0.4-0.5-0.9-0.5-1.8v-2.1c0-0.7,0.1-1.3,0.3-1.8s0.5-0.9,0.8-1.2c0.3-0.3,0.7-0.6,1.2-0.8c0.5-0.2,0.9-0.4,1.4-0.7v-3.2
				c0-0.4-0.1-0.7-0.2-0.9c-0.1-0.2-0.4-0.3-0.8-0.3c-0.4,0-0.7,0.1-0.8,0.3c-0.1,0.2-0.2,0.5-0.2,0.9v3h-1.4v-3.1
				c0-0.9,0.2-1.7,0.6-2.1c0.4-0.5,1-0.7,1.9-0.7c1.7,0,2.5,0.9,2.5,2.8v10.2c0,0.3,0,0.7,0,1s0,0.5,0.1,0.7H82.3z M82.2,112.6
				c-0.5,0.2-0.8,0.4-1.1,0.6c-0.3,0.2-0.5,0.4-0.7,0.7s-0.2,0.6-0.3,0.9c0,0.3-0.1,0.7-0.1,1.2v1.5c0,0.8,0.4,1.2,1.1,1.2
				c0.2,0,0.4-0.1,0.6-0.2c0.2-0.1,0.3-0.4,0.4-0.7V112.6z"/>
			<path class="st2" d="M88.5,120.1c-0.1,0-0.2,0.1-0.3,0.1c-0.1,0-0.3,0-0.4,0c-0.9,0-1.5-0.3-1.9-0.8c-0.4-0.5-0.6-1.3-0.6-2.2
				V107h-0.7v-1.4h0.7V101h1.6v4.6h1.6v1.4h-1.6v10.2c0,0.6,0.1,1,0.3,1.2c0.2,0.2,0.6,0.4,1.1,0.4c0,0,0.1,0,0.2,0
				c0.1,0,0.1,0,0.2,0V120.1z"/>
			<path class="st2" d="M93.1,114.1h1.5v3.2c0,1.9-0.9,2.9-2.6,2.9c-1.7,0-2.5-1-2.5-2.9v-9c0-1,0.2-1.7,0.6-2.2
				c0.4-0.5,1-0.7,1.9-0.7c1.7,0,2.6,1,2.6,3v4.6H91v4.4c0,0.9,0.3,1.3,1,1.3c0.7,0,1.1-0.4,1.1-1.3V114.1z M93.1,108.3
				c0-0.9-0.4-1.3-1.1-1.3c-0.7,0-1,0.4-1,1.3v3.5h2.1V108.3z"/>
			<path class="st2" d="M99.4,120v-13h-0.7v-1.4h0.7v-2c0-0.9,0.2-1.6,0.5-2.1c0.3-0.5,0.9-0.8,1.7-0.8c0.2,0,0.4,0,0.6,0
				c0.2,0,0.4,0.1,0.5,0.1v1.4c-0.2,0-0.4-0.1-0.6-0.1c-0.4,0-0.6,0.1-0.8,0.3c-0.2,0.2-0.3,0.6-0.3,1.1v2h1.6v1.4H101v13H99.4z"/>
			<path class="st2" d="M103.8,120v-19.2h1.6V120H103.8z"/>
			<path class="st2" d="M110.7,120c-0.1-0.2-0.1-0.5-0.1-0.9c-0.4,0.7-1,1.1-1.7,1.1c-0.7,0-1.2-0.2-1.5-0.5
				c-0.4-0.4-0.5-0.9-0.5-1.8v-2.1c0-0.7,0.1-1.3,0.3-1.8s0.5-0.9,0.8-1.2c0.3-0.3,0.7-0.6,1.2-0.8c0.5-0.2,0.9-0.4,1.4-0.7v-3.2
				c0-0.4-0.1-0.7-0.2-0.9c-0.1-0.2-0.4-0.3-0.8-0.3c-0.4,0-0.7,0.1-0.8,0.3c-0.1,0.2-0.2,0.5-0.2,0.9v3H107v-3.1
				c0-0.9,0.2-1.7,0.6-2.1c0.4-0.5,1-0.7,1.9-0.7c1.7,0,2.5,0.9,2.5,2.8v10.2c0,0.3,0,0.7,0,1s0,0.5,0.1,0.7H110.7z M110.5,112.6
				c-0.5,0.2-0.8,0.4-1.1,0.6c-0.3,0.2-0.5,0.4-0.7,0.7s-0.2,0.6-0.3,0.9c0,0.3-0.1,0.7-0.1,1.2v1.5c0,0.8,0.4,1.2,1.1,1.2
				c0.2,0,0.4-0.1,0.6-0.2c0.2-0.1,0.3-0.4,0.4-0.7V112.6z"/>
			<path class="st2" d="M115,120l-2.1-14.5h1.6c0.1,0.9,0.3,1.8,0.4,2.8c0.1,1,0.3,2,0.4,3c0.1,1,0.2,1.9,0.3,2.7
				c0.1,0.8,0.2,1.5,0.2,1.9c0-0.5,0.1-1.1,0.2-1.9c0.1-0.8,0.2-1.7,0.4-2.7s0.3-2,0.4-3s0.3-2,0.4-2.8h1.5l-2.2,14.5H115z"/>
			<path class="st2" d="M119.7,108.2c0-0.9,0.2-1.6,0.7-2.1c0.4-0.5,1.1-0.7,2-0.7c0.9,0,1.6,0.2,2,0.7c0.4,0.5,0.7,1.2,0.7,2.1v9.1
				c0,0.9-0.2,1.6-0.7,2.1c-0.4,0.5-1.1,0.7-2,0.7c-0.9,0-1.6-0.2-2-0.7c-0.4-0.5-0.7-1.2-0.7-2.1V108.2z M123.5,108.3
				c0-0.4-0.1-0.7-0.2-0.9c-0.1-0.2-0.4-0.3-0.9-0.3c-0.4,0-0.7,0.1-0.9,0.3c-0.1,0.2-0.2,0.5-0.2,0.9v9.1c0,0.4,0.1,0.7,0.2,0.9
				c0.1,0.2,0.4,0.3,0.9,0.3c0.4,0,0.7-0.1,0.9-0.3c0.1-0.2,0.2-0.5,0.2-1V108.3z"/>
			<path class="st2" d="M126.6,120v-14.5h1.4c0,0.4,0.1,0.7,0.1,1.1c0.2-0.4,0.4-0.7,0.7-0.9c0.3-0.2,0.6-0.3,1-0.3
				c0.2,0,0.4,0,0.5,0.1v1.8c-0.1-0.1-0.2-0.1-0.3-0.1s-0.3,0-0.4,0c-0.2,0-0.5,0.1-0.7,0.2c-0.2,0.1-0.4,0.3-0.6,0.7v12H126.6z"/>
			<path class="st2" d="M134.7,123.2v-17.7h1.4c0,0.4,0.1,0.7,0.1,1.1c0.2-0.4,0.4-0.7,0.7-0.9c0.3-0.2,0.7-0.3,1.3-0.3
				c0.7,0,1.2,0.2,1.5,0.7c0.4,0.4,0.5,1.1,0.5,2.1v9.5c0,1-0.2,1.7-0.5,2.1c-0.3,0.4-0.9,0.6-1.6,0.6c-0.4,0-0.7-0.1-1-0.2
				c-0.3-0.2-0.5-0.4-0.7-0.6v3.9H134.7z M138.5,108.3c0-0.5-0.1-0.8-0.2-0.9s-0.4-0.3-0.8-0.3c-0.3,0-0.5,0.1-0.7,0.2
				s-0.4,0.4-0.5,0.7v9.6c0.1,0.3,0.3,0.5,0.5,0.7s0.5,0.2,0.7,0.2c0.4,0,0.6-0.1,0.8-0.3s0.2-0.5,0.2-0.9V108.3z"/>
			<path class="st2" d="M141.7,120v-14.5h1.4c0,0.4,0.1,0.7,0.1,1.1c0.2-0.4,0.4-0.7,0.7-0.9c0.3-0.2,0.6-0.3,1-0.3
				c0.2,0,0.4,0,0.5,0.1v1.8c-0.1-0.1-0.2-0.1-0.3-0.1s-0.3,0-0.4,0c-0.2,0-0.5,0.1-0.7,0.2c-0.2,0.1-0.4,0.3-0.6,0.7v12H141.7z"/>
			<path class="st2" d="M146.3,108.2c0-0.9,0.2-1.6,0.7-2.1c0.4-0.5,1.1-0.7,2-0.7c0.9,0,1.6,0.2,2,0.7c0.4,0.5,0.7,1.2,0.7,2.1v9.1
				c0,0.9-0.2,1.6-0.7,2.1c-0.4,0.5-1.1,0.7-2,0.7c-0.9,0-1.6-0.2-2-0.7c-0.4-0.5-0.7-1.2-0.7-2.1V108.2z M150.1,108.3
				c0-0.4-0.1-0.7-0.2-0.9c-0.1-0.2-0.4-0.3-0.9-0.3c-0.4,0-0.7,0.1-0.9,0.3c-0.1,0.2-0.2,0.5-0.2,0.9v9.1c0,0.4,0.1,0.7,0.2,0.9
				c0.1,0.2,0.4,0.3,0.9,0.3c0.4,0,0.7-0.1,0.9-0.3c0.1-0.2,0.2-0.5,0.2-1V108.3z"/>
			<path class="st2" d="M153.3,120v-13h-0.7v-1.4h0.7v-2c0-0.9,0.2-1.6,0.5-2.1c0.3-0.5,0.9-0.8,1.7-0.8c0.2,0,0.4,0,0.6,0
				c0.2,0,0.4,0.1,0.5,0.1v1.4c-0.2,0-0.4-0.1-0.6-0.1c-0.4,0-0.6,0.1-0.8,0.3c-0.2,0.2-0.3,0.6-0.3,1.1v2h1.6v1.4h-1.6v13H153.3z"
				/>
			<path class="st2" d="M157.7,103.7v-2.9h1.6v2.9H157.7z M157.7,120v-14.5h1.6V120H157.7z"/>
			<path class="st2" d="M161.1,120v-19.2h1.6V120H161.1z"/>
			<path class="st2" d="M167.9,114.1h1.5v3.2c0,1.9-0.9,2.9-2.6,2.9c-1.7,0-2.5-1-2.5-2.9v-9c0-1,0.2-1.7,0.6-2.2
				c0.4-0.5,1-0.7,1.9-0.7c1.7,0,2.6,1,2.6,3v4.6h-3.6v4.4c0,0.9,0.3,1.3,1,1.3c0.7,0,1.1-0.4,1.1-1.3V114.1z M167.9,108.3
				c0-0.9-0.4-1.3-1.1-1.3c-0.7,0-1,0.4-1,1.3v3.5h2.1V108.3z"/>
			<path class="st2" d="M174.3,115.8c0-0.3,0-0.6-0.1-0.8s-0.3-0.5-0.6-0.9c-0.3-0.4-0.7-0.8-1.1-1.1c-0.4-0.3-0.8-0.7-1.1-1.1
				c-0.3-0.3-0.5-0.7-0.6-1c-0.1-0.3-0.1-0.8-0.1-1.4v-1.5c0-1,0.2-1.7,0.7-2.1c0.4-0.4,1.1-0.6,1.9-0.6c1,0,1.7,0.2,2,0.7
				c0.4,0.4,0.5,1.1,0.5,2.1v2.4h-1.5v-2.4c0-0.4-0.1-0.6-0.3-0.9c-0.2-0.2-0.5-0.3-0.7-0.3c-0.7,0-1.1,0.4-1.1,1.2v1.7
				c0,0.3,0,0.6,0.1,0.8s0.3,0.4,0.5,0.7c0.3,0.3,0.7,0.7,1.1,1c0.4,0.3,0.7,0.6,1,1c0.4,0.4,0.6,0.8,0.7,1.2
				c0.1,0.4,0.2,0.9,0.2,1.5v1.6c0,0.9-0.2,1.6-0.7,2c-0.4,0.4-1.1,0.6-2,0.6c-1.7,0-2.5-0.9-2.5-2.7v-2.4h1.4v2.3
				c0,0.4,0.1,0.6,0.3,0.9s0.5,0.3,0.8,0.3c0.7,0,1.1-0.4,1.1-1.2V115.8z"/>
			<path class="st2" d="M180.7,103.7v-2.9h1.6v2.9H180.7z M180.7,120v-14.5h1.6V120H180.7z"/>
			<path class="st2" d="M187.9,120v-11.9c0-0.4-0.1-0.7-0.2-0.9c-0.1-0.2-0.4-0.3-0.7-0.3c-0.2,0-0.5,0.1-0.7,0.2
				c-0.2,0.1-0.4,0.4-0.5,0.7V120h-1.6v-14.5h1.4c0,0.4,0.1,0.7,0.1,1.1c0.2-0.4,0.5-0.7,0.9-1c0.4-0.2,0.8-0.4,1.2-0.4
				c0.7,0,1.1,0.2,1.4,0.6c0.3,0.4,0.5,1.1,0.5,2v12H187.9z"/>
			<path class="st2" d="M194.3,120v-19.2h1.6v5.5c0.2-0.3,0.4-0.5,0.7-0.7c0.3-0.2,0.6-0.3,1-0.3c0.7,0,1.3,0.2,1.6,0.6
				c0.3,0.4,0.5,1.1,0.5,2v9.2c0,1-0.2,1.8-0.6,2.2c-0.4,0.5-1,0.7-1.8,0.7c-0.5,0-0.9-0.1-1.2-0.4c-0.3-0.2-0.6-0.5-0.8-0.9
				c0,0.2-0.1,0.4-0.1,0.5c0,0.2-0.1,0.4-0.2,0.5H194.3z M198.2,108.1c0-0.7-0.3-1.1-1-1.1c-0.3,0-0.5,0.1-0.7,0.2
				c-0.2,0.2-0.4,0.4-0.5,0.7v9.6c0.1,0.3,0.3,0.5,0.5,0.7c0.2,0.2,0.5,0.2,0.7,0.2c0.4,0,0.6-0.1,0.8-0.3c0.2-0.2,0.2-0.5,0.2-0.9
				V108.1z"/>
			<path class="st2" d="M204.8,114.1h1.5v3.2c0,1.9-0.9,2.9-2.6,2.9c-1.7,0-2.5-1-2.5-2.9v-9c0-1,0.2-1.7,0.6-2.2
				c0.4-0.5,1-0.7,1.9-0.7c1.7,0,2.6,1,2.6,3v4.6h-3.6v4.4c0,0.9,0.3,1.3,1,1.3c0.7,0,1.1-0.4,1.1-1.3V114.1z M204.8,108.3
				c0-0.9-0.4-1.3-1.1-1.3c-0.7,0-1,0.4-1,1.3v3.5h2.1V108.3z"/>
			<path class="st2" d="M211.3,114.1h1.5v3.2c0,1.9-0.9,2.9-2.6,2.9c-1.7,0-2.5-1-2.5-2.9v-9c0-1,0.2-1.7,0.6-2.2
				c0.4-0.5,1-0.7,1.9-0.7c1.7,0,2.6,1,2.6,3v4.6h-3.6v4.4c0,0.9,0.3,1.3,1,1.3c0.7,0,1.1-0.4,1.1-1.3V114.1z M211.3,108.3
				c0-0.9-0.4-1.3-1.1-1.3c-0.7,0-1,0.4-1,1.3v3.5h2.1V108.3z"/>
			<path class="st2" d="M214.5,120v-14.5h1.4c0,0.4,0.1,0.7,0.1,1.1c0.2-0.4,0.4-0.7,0.7-0.9c0.3-0.2,0.6-0.3,1-0.3
				c0.2,0,0.4,0,0.5,0.1v1.8c-0.1-0.1-0.2-0.1-0.3-0.1s-0.3,0-0.4,0c-0.2,0-0.5,0.1-0.7,0.2c-0.2,0.1-0.4,0.3-0.6,0.7v12H214.5z"/>
		</g>
	</g>
</g>
</svg>
