<?xml version="1.0" encoding="utf-8"?>
<!-- Generator: Adobe Illustrator 19.0.1, SVG Export Plug-In . SVG Version: 6.00 Build 0)  -->
<svg version="1.1" xmlns="http://www.w3.org/2000/svg" xmlns:xlink="http://www.w3.org/1999/xlink" x="0px" y="0px"
	 viewBox="0 0 512.6 290.1" style="enable-background:new 0 0 512.6 290.1;" xml:space="preserve">
<style type="text/css">
	.st0{fill:#98B1D6;}
	.st1{fill:#FFFFFF;}
	.st2{fill:#3399CC;}
	.st3{fill:#7C9FCD;}
	.st4{fill:#F26D6E;}
	.st5{fill:#C47A4A;}
	.st6{fill:#6D245D;}
	.st7{fill:#E3E7F4;}
	.st8{fill:#0070AF;}
	.st9{fill:#0070AF;stroke:#0070AF;stroke-width:0.8058;stroke-miterlimit:10;}
	.st10{fill:#0070AF;stroke:#0070AF;stroke-miterlimit:10;}
	.st11{clip-path:url(#SVGID_2_);fill:#6D245D;}
	.st12{clip-path:url(#SVGID_2_);}
	.st13{fill:#590048;}
	.st14{clip-path:url(#SVGID_4_);}
	.st15{fill:#A05620;}
	.st16{fill:#E99182;}
	.st17{fill:#F6DEDA;}
	.st18{fill:#DE3554;}
	.st19{fill:#FEE4CD;}
	.st20{fill:#7B2E00;}
	.st21{fill:#E3CFE2;}
	.st22{clip-path:url(#SVGID_6_);}
	.st23{clip-path:url(#SVGID_8_);fill:#6D245D;}
	.st24{clip-path:url(#SVGID_8_);}
	.st25{clip-path:url(#SVGID_10_);}
	.st26{clip-path:url(#SVGID_12_);}
	.st27{clip-path:url(#SVGID_14_);}
	.st28{clip-path:url(#SVGID_16_);}
	.st29{fill:#0070AF;stroke:#0070AF;stroke-width:0.8661;stroke-miterlimit:10;}
	.st30{clip-path:url(#SVGID_18_);}
	.st31{clip-path:url(#SVGID_20_);fill:#6D245D;}
	.st32{clip-path:url(#SVGID_20_);}
	.st33{clip-path:url(#SVGID_22_);}
	.st34{clip-path:url(#SVGID_24_);}
	.st35{clip-path:url(#SVGID_26_);}
	.st36{clip-path:url(#SVGID_28_);}
	.st37{fill:#0070AF;stroke:#0070AF;stroke-width:0.8884;stroke-miterlimit:10;}
</style>
<g id="Layer_1">
</g>
<g id="Layer_2">
	<g>
		<g>
			<path class="st1" d="M460.3,190.5L460.3,190.5L460.3,190.5l-14.9,0h-20.1h0h-7.1l-56.5,0v2.3c0,21.2-10.7,44.4-28.6,62.1
				c-20.2,19.9-47.4,30.8-76.6,30.8c-29,0-55.5-10.9-74.6-30.8C165,237.4,155,214.2,155,192.7v-2.3l-61.9,0H86c0,0,0,0,0,0v0H65.8
				H51h-0.1v0c-8.9,0-16.1,7.3-16.1,16.2c0,9,7.3,16.2,16.2,16.2c9,0,16.2-7.3,16.2-16.2h-4.5c0,6.5-5.3,11.7-11.7,11.7
				c-6.5,0-11.7-5.3-11.7-11.7c0-6.5,5.3-11.7,11.7-11.7h14.8h12.4c-0.8,1.3-1.2,2.8-1.2,4.4c0,4.9,4,8.9,8.9,8.9
				c4.9,0,8.9-4,8.9-8.9h-4.5c0,2.4-2,4.4-4.4,4.4c-2.4,0-4.4-2-4.4-4.4c0-2.4,2-4.4,4.4-4.4h7.1l57.5,0c0.7,22,11,45.4,27.9,63
				c20,20.7,47.6,32.2,77.8,32.2l0,0h0l0,0c30.4,0,58.7-11.4,79.8-32.1c18.1-17.9,29.2-41.2,29.9-63l52.1,0h7.1c2.4,0,4.4,2,4.4,4.4
				c0,2.4-2,4.4-4.4,4.4c-2.4,0-4.4-2-4.4-4.4h-4.5c0,4.9,4,8.9,8.9,8.9c4.9,0,8.9-4,8.9-8.9c0-1.6-0.4-3.1-1.2-4.4h12.4h14.8
				c6.5,0,11.7,5.3,11.7,11.7c0,6.5-5.3,11.7-11.7,11.7c-6.5,0-11.7-5.3-11.7-11.7h-4.5c0,9,7.3,16.2,16.2,16.2
				c8.9,0,16.2-7.3,16.2-16.2C476.4,197.8,469.2,190.5,460.3,190.5z"/>
			<path class="st1" d="M51,97L51,97L51,97l14.9,0H86v0c0,0,0,0,0,0h7.1h68.8l0.6-1.4c15.8-41.5,45-91,93.8-91
				c38.8,0,74.9,34,96.7,91l0.6,1.4h64.4h7.1c0,0,0,0,0,0v0h20.1H460h0.1v0c8.9,0,16.1-7.3,16.1-16.2c0-9-7.3-16.2-16.2-16.2
				c-9,0-16.2,7.3-16.2,16.2h4.5c0-6.5,5.3-11.7,11.7-11.7c6.5,0,11.7,5.3,11.7,11.7c0,6.5-5.3,11.7-11.7,11.7h-14.8h-12.4
				c0.8-1.3,1.2-2.8,1.2-4.4c0-4.9-4-8.9-8.9-8.9s-8.9,4-8.9,8.9h4.5c0-2.4,2-4.4,4.4-4.4s4.4,2,4.4,4.4c0,2.4-2,4.4-4.4,4.4h-7.1
				h-61.3C334.1,34.5,296.7,0,256.3,0c-40.4,0-74.1,32-97.5,92.5H93.1h-7.1c-2.4,0-4.4-2-4.4-4.4c0-2.4,2-4.4,4.4-4.4
				c2.4,0,4.4,2,4.4,4.4H95c0-4.9-4-8.9-8.9-8.9c-4.9,0-8.9,4-8.9,8.9c0,1.6,0.4,3.1,1.2,4.4H65.9H51.1c-6.5,0-11.7-5.3-11.7-11.7
				c0-6.5,5.3-11.7,11.7-11.7c6.5,0,11.7,5.3,11.7,11.7h4.5c0-9-7.3-16.2-16.2-16.2c-8.9,0-16.2,7.3-16.2,16.2
				C34.8,89.7,42.1,96.9,51,97z"/>
			<path class="st1" d="M34.4,100.4l-1.6-4.2C13.2,103.7,0,122.9,0,143.9c0,21,13.2,40.2,32.7,47.7l1.6-4.2
				C16.5,180.5,4.5,163,4.5,143.9C4.5,124.7,16.5,107.3,34.4,100.4z"/>
			<path class="st1" d="M479.9,96.2l-1.6,4.2c17.9,6.9,29.9,24.4,29.9,43.5c0,19.1-12,36.6-29.9,43.5l1.6,4.2
				c19.6-7.5,32.7-26.7,32.7-47.7C512.6,122.9,499.5,103.7,479.9,96.2z"/>
		</g>
		<g>
			<g>
				<path class="st1" d="M191.9,216.3l1.5,1.4c-2,1.8-4.2,2.7-6.5,2.7c-2.6,0-4.7-0.9-6.5-2.6c-1.8-1.8-2.6-3.9-2.6-6.3
					c0-2.4,0.9-4.6,2.6-6.3c1.8-1.8,3.9-2.7,6.5-2.7c2.4,0,4.6,0.9,6.5,2.7l-1.5,1.4c-1.6-1.4-3.3-2.1-5-2.1c-1.9,0-3.5,0.7-4.9,2
					c-1.4,1.4-2,3-2,5c0,2,0.7,3.7,2,5c1.4,1.4,3,2,4.9,2C188.6,218.5,190.3,217.7,191.9,216.3z"/>
				<path class="st1" d="M200.1,212.4v7.8h-2.2v-17.6h2.2v7.8h7.2v-7.8h2.2v17.6h-2.2v-7.8H200.1z"/>
				<path class="st1" d="M229.6,205c1.8,1.8,2.7,3.9,2.7,6.3c0,2.5-0.9,4.6-2.7,6.4c-1.8,1.8-3.9,2.7-6.5,2.7
					c-2.6,0-4.7-0.9-6.5-2.7c-1.8-1.8-2.7-3.9-2.7-6.4c0-2.5,0.9-4.6,2.7-6.3c1.8-1.8,3.9-2.7,6.5-2.7
					C225.6,202.4,227.8,203.2,229.6,205z M223.1,204.3c-1.9,0-3.5,0.7-4.9,2.1c-1.4,1.4-2.1,3-2.1,5c0,2,0.7,3.7,2.1,5
					c1.4,1.4,3,2.1,4.9,2.1c1.9,0,3.5-0.7,4.9-2.1c1.4-1.4,2.1-3,2.1-5c0-2-0.7-3.6-2.1-5C226.6,205,224.9,204.3,223.1,204.3z"/>
				<path class="st1" d="M250.5,216.3l1.5,1.4c-2,1.8-4.2,2.7-6.5,2.7c-2.6,0-4.7-0.9-6.5-2.6c-1.8-1.8-2.6-3.9-2.6-6.3
					c0-2.4,0.9-4.6,2.6-6.3c1.8-1.8,3.9-2.7,6.5-2.7c2.4,0,4.6,0.9,6.5,2.7l-1.5,1.4c-1.6-1.4-3.3-2.1-5-2.1c-1.9,0-3.5,0.7-4.9,2
					c-1.4,1.4-2,3-2,5c0,2,0.7,3.7,2,5s3,2,4.9,2C247.2,218.5,248.9,217.7,250.5,216.3z"/>
				<path class="st1" d="M271.7,205c1.8,1.8,2.7,3.9,2.7,6.3c0,2.5-0.9,4.6-2.7,6.4c-1.8,1.8-3.9,2.7-6.5,2.7
					c-2.6,0-4.7-0.9-6.5-2.7c-1.8-1.8-2.7-3.9-2.7-6.4c0-2.5,0.9-4.6,2.7-6.3c1.8-1.8,3.9-2.7,6.5-2.7
					C267.8,202.4,269.9,203.2,271.7,205z M265.2,204.3c-1.9,0-3.5,0.7-4.9,2.1c-1.4,1.4-2.1,3-2.1,5c0,2,0.7,3.7,2.1,5
					c1.4,1.4,3,2.1,4.9,2.1c1.9,0,3.5-0.7,4.9-2.1c1.4-1.4,2.1-3,2.1-5c0-2-0.7-3.6-2.1-5C268.7,205,267.1,204.3,265.2,204.3z"/>
				<path class="st1" d="M279,220.2v-17.6h2.2v15.7h6.3v1.9H279z"/>
				<path class="st1" d="M299,202.6l6.4,17.6h-2.3l-2.7-7.3h-4.8l-2.7,7.3h-2.3l6.5-17.6H299z M299.8,211l-1.7-4.7l-1.7,4.7H299.8z"
					/>
				<path class="st1" d="M313.8,204.5v15.7h-2.2v-15.7h-4.2v-1.9H318v1.9H313.8z"/>
				<path class="st1" d="M331.9,202.6v1.9h-7.4v5.9h7.4v1.9h-7.4v5.9h7.4v1.9h-9.6v-17.6H331.9z"/>
			</g>
		</g>
		<g>
			<path class="st1" d="M220,68.2v1.4h-5.5V74h5.5v1.4h-5.5v4.4h5.5v1.4h-7.2V68.2H220z"/>
			<path class="st1" d="M227.6,74.4c-0.9-0.3-1.7-0.8-2.3-1.3s-0.9-1.3-0.9-2.1c0-0.8,0.3-1.5,0.9-2.1c0.6-0.6,1.3-0.9,2.2-0.9
				c0.9,0,1.6,0.3,2.2,0.9c0.3,0.3,0.6,0.8,0.8,1.3l-1.5,0.6c-0.2-0.5-0.3-0.8-0.5-1c-0.3-0.3-0.6-0.5-1-0.5c-0.4,0-0.7,0.1-1,0.4
				c-0.3,0.3-0.4,0.7-0.4,1.1c0,0.5,0.2,0.8,0.5,1.2c0.3,0.3,0.7,0.6,1.3,0.8c1,0.3,1.9,0.9,2.6,1.6c0.8,0.8,1.2,1.8,1.2,2.9
				c0,1.1-0.4,2-1.2,2.8c-0.8,0.8-1.8,1.2-2.9,1.2c-1.2,0-2.2-0.4-3-1.2c-0.6-0.6-1-1.4-1.2-2.4l1.6-0.6c0.1,1,0.4,1.7,0.8,2.1
				c0.5,0.5,1.1,0.7,1.7,0.7c0.7,0,1.3-0.3,1.8-0.8c0.5-0.5,0.8-1.1,0.8-1.9c0-0.7-0.2-1.4-0.7-1.9
				C228.8,75.1,228.3,74.7,227.6,74.4z"/>
			<path class="st1" d="M239.2,69.6v11.7h-1.6V69.6h-3.1v-1.4h7.9v1.4H239.2z"/>
			<path class="st1" d="M246.2,78.9c0.3,0.3,0.5,0.7,0.5,1.1s-0.2,0.7-0.5,1.1c-0.3,0.3-0.7,0.5-1.2,0.5c-0.5,0-0.9-0.2-1.2-0.5
				c-0.3-0.3-0.5-0.7-0.5-1.1s0.2-0.7,0.5-1.1c0.3-0.3,0.7-0.5,1.2-0.5C245.5,78.4,245.9,78.6,246.2,78.9z"/>
			<path class="st1" d="M257.7,79.9v-8.8l-0.8,0.5l-1.2-0.8l3.5-2.6v11.7h2.6v1.4h-6.8v-1.4H257.7z"/>
			<path class="st1" d="M271.7,75.6c-0.2,0.3-0.7,0.5-1.4,0.5c-1.1,0-1.9-0.4-2.7-1.1s-1.1-1.6-1.1-2.6c0-1,0.4-1.8,1.1-2.6
				s1.6-1.1,2.7-1.1c1.1,0,1.9,0.4,2.7,1.1c0.7,0.7,1.1,1.6,1.1,2.6c-0.1,1.3-0.4,2.7-1.1,4.1c-0.7,1.4-1.7,3.1-3,5H268
				C269.6,79.1,270.9,77.2,271.7,75.6z M271.8,74c0.4-0.4,0.6-1,0.6-1.6c0-0.6-0.2-1.2-0.6-1.6c-0.4-0.4-0.9-0.6-1.5-0.6
				c-0.6,0-1.1,0.2-1.5,0.6s-0.6,1-0.6,1.6c0,0.6,0.2,1.2,0.6,1.6c0.4,0.4,0.9,0.6,1.5,0.6C270.9,74.6,271.4,74.4,271.8,74z"/>
			<path class="st1" d="M278.6,81.3c3.3-5.1,5.1-7.8,5.3-8.2c0.2-0.4,0.3-0.8,0.3-1.1c0-0.2,0-0.3-0.1-0.5c-0.1-0.5-0.4-0.9-0.8-1.2
				c-0.3-0.2-0.6-0.3-0.9-0.3c-0.1,0-0.3,0-0.4,0c-0.5,0.1-0.9,0.4-1.1,0.8c-0.2,0.3-0.3,0.6-0.3,1.1l-1.6-0.2
				c0.1-0.6,0.2-1.1,0.5-1.6c0.5-0.8,1.2-1.3,2.1-1.5c0.3-0.1,0.6-0.1,0.8-0.1c0.7,0,1.3,0.2,1.8,0.5c0.8,0.5,1.3,1.2,1.5,2.1
				c0.1,0.3,0.1,0.6,0.1,0.9c0,0.5-0.1,1-0.4,1.5c-0.3,0.5-1.6,2.6-4.1,6.3h4.5v1.4H278.6z"/>
			<path class="st1" d="M292.7,74.6c0.2-0.3,0.7-0.5,1.4-0.5c1.1,0,2,0.4,2.7,1.1c0.7,0.7,1.1,1.6,1.1,2.6c0,1-0.4,1.8-1.1,2.6
				c-0.7,0.7-1.6,1.1-2.7,1.1c-1,0-1.9-0.4-2.7-1.1c-0.7-0.7-1.1-1.6-1.1-2.6c0.1-1.3,0.4-2.7,1.1-4.1c0.7-1.4,1.7-3.1,3-5h1.9
				C294.8,71.1,293.6,73,292.7,74.6z M292.6,76.2c-0.4,0.4-0.6,1-0.6,1.6c0,0.6,0.2,1.2,0.6,1.6c0.4,0.4,0.9,0.6,1.5,0.6
				c0.6,0,1.1-0.2,1.5-0.6c0.4-0.4,0.6-1,0.6-1.6c0-0.6-0.2-1.2-0.6-1.6c-0.4-0.4-0.9-0.6-1.5-0.6C293.6,75.6,293.1,75.8,292.6,76.2
				z"/>
		</g>
		<g>
			<path class="st1" d="M84.3,153.9c-0.2-0.5-0.4-0.8-0.6-0.8c-0.2,0-0.3,0.2-0.5,0.6l-7.3,20.6c-0.5,1.2-1.2,1.8-2.2,1.8h-2.8
				c-0.9,0-1.7-0.5-2.4-1.6l-20.1-57.7c-0.2-0.5-0.3-0.9-0.3-1.2c0-0.8,0.5-1.2,1.5-1.2h13.7c1.4,0,2.3,0.6,2.9,1.9l8.6,24.5
				c0.2,0.6,0.4,0.9,0.5,0.9c0.2,0,0.3-0.3,0.5-0.9l2.2-6.1l-6.2-18c-0.2-0.5-0.3-0.9-0.3-1.2c0-0.8,0.5-1.2,1.5-1.2h14.3v0.1
				c1,0.2,1.8,0.8,2.2,1.8l8.6,24.5c0.2,0.6,0.4,0.9,0.5,0.9c0.2,0,0.3-0.3,0.5-0.9l8.7-25c0.4-1,1.3-1.5,2.8-1.5h6.6
				c1.4,0,2.1,0.6,2.1,1.8c0,0.2,0,0.5-0.1,0.7l-20.2,57.3c-0.5,1.2-1.2,1.8-2.2,1.8h-2.8c-0.9,0-1.7-0.5-2.4-1.6L84.3,153.9z"/>
			<path class="st1" d="M167.3,116.5v4.2c0,1.4-0.7,2.1-2.1,2.1h-22.8c-1.3,0-1.9,0.6-1.9,1.8v22.3c0,1.4,0.6,2.1,1.9,2.1h4
				c1.3,0,2,0.6,2,1.8v5.2c0,1-0.6,1.4-1.9,1.4h-4.4c-1.1,0-1.6,0.6-1.6,1.9v6c0,1.4,0.6,2.2,1.7,2.2h23.1c1.3,0,1.9,0.5,1.9,1.5
				v5.5c0,1-0.6,1.4-1.7,1.4h-40.4c-1.1,0-1.7-0.7-1.7-2v-57.2c0-1.6,0.8-2.4,2.4-2.4h39C166.5,114.4,167.3,115.1,167.3,116.5z"/>
			<path class="st1" d="M194.4,143.9L194.4,143.9c3.2,9.4,4.7,14.9,4.8,16.7v0.5c0,3.6-1.3,6.9-4,9.9c-2.8,3.2-6.5,4.9-11.1,5.3
				c-0.5,0-1.1,0.1-1.6,0.1c-4.5,0-8.1-1.3-10.9-4c-0.2-0.3-0.3-0.7-0.3-1c0-0.5,0.2-1,0.6-1.6l2.5-2.5c0.6-0.8,1.2-1.2,1.9-1.2
				c0.5,0,1.1,0.2,1.7,0.7c1.3,0.8,2.5,1.2,3.4,1.2c0.6,0,1.2-0.2,1.6-0.5c0.7-0.5,1-1.3,1-2.3c0-0.6-0.1-1.3-0.3-2l-5.8-17.6h-0.1
				c-3.1-9.4-4.6-14.9-4.7-16.7v-0.5c0-3.6,1.3-6.9,4-10c2.8-3.2,6.5-4.9,11.1-5.3c0.5,0,1.1-0.1,1.6-0.1c4.5,0,8.1,1.3,10.9,4
				c0.2,0.3,0.3,0.7,0.3,1.1c0,0.5-0.2,1-0.6,1.6l-2.5,2.5c-0.6,0.8-1.2,1.2-1.9,1.2c-0.5,0-1.1-0.2-1.7-0.7
				c-1.3-0.8-2.5-1.2-3.4-1.2c-0.6,0-1.2,0.2-1.6,0.5c-0.7,0.6-1,1.3-1,2.3c0,0.6,0.1,1.3,0.3,2L194.4,143.9z"/>
			<path class="st1" d="M236.3,114.4c1.3,0,2,0.6,2,1.8v5.2c0,1-0.6,1.4-1.9,1.4h-5.7v50.5c0,1.7-0.8,2.6-2.5,2.6h-12
				c-1.5,0-2.3-0.9-2.3-2.7v-50.4h-5.8c-1.3,0-1.9-0.5-1.9-1.4v-5.2c0-1.2,0.7-1.8,2-1.8H236.3z"/>
			<path class="st1" d="M322.5,116.5v4.2c0,1.4-0.7,2.1-2.1,2.1h-22.8c-1.3,0-1.9,0.6-1.9,1.8v22.3c0,1.4,0.6,2.1,1.9,2.1h4
				c1.3,0,2,0.6,2,1.8v5.2c0,1-0.6,1.4-1.9,1.4h-4.4c-1.1,0-1.6,0.6-1.6,1.9v6c0,1.4,0.6,2.2,1.7,2.2h23.1c1.3,0,1.9,0.5,1.9,1.5
				v5.5c0,1-0.6,1.4-1.7,1.4h-40.4c-1.1,0-1.7-0.7-1.7-2v-57.2c0-1.6,0.8-2.4,2.4-2.4h39C321.7,114.4,322.5,115.1,322.5,116.5z"/>
			<path class="st1" d="M327.7,145.1c0-0.5,0-1,0-1.5c0-3.1,0.5-6.2,1.4-9.1c2.4-7.4,7.4-13,14.9-16.9c4.7-2.4,9.9-3.6,15.4-3.6
				c3.3,0,6.8,0.4,10.3,1.3c7.5,2.5,13.2,6.4,16.9,11.9c0.4,0.8,0.7,1.5,0.7,2.1c0,0.9-0.5,1.5-1.5,1.9l-2.4,1.6
				c-0.8,0.3-1.5,0.4-2.2,0.4c-1.1,0-1.8-0.4-2.2-1.3c-4.2-4.2-8.6-7-13.1-8.4c-2.9-0.7-5.4-1-7.5-1c-2.4,0-4.2,0.4-5.4,1.3
				c-2.1,1.2-3.1,4.4-3.1,9.6v27.9c0,2.1,0.5,3.4,1.4,3.9c2.2,1.5,4.9,2.2,8.2,2.2c1.9,0,4-0.3,6.3-0.8c6.6-2.2,10.4-5,11.4-8.2
				c0.1-0.1,0.1-0.2,0.1-0.3c0-0.4-0.6-0.6-1.7-0.6h-9.3c-1.6,0-2.4-0.7-2.4-2.2v-4.1c0-1.4,0.7-2.1,2-2.1h23.8c1.4,0,2.1,0.7,2.1,2
				v0.3c-0.1,2.9-1.9,6.9-5.4,12.1c-3.5,5.1-9,9-16.5,11.5c-3.6,0.9-7,1.3-10.3,1.3c-5.5,0-10.6-1.2-15.4-3.7
				c-7.5-3.9-12.5-9.5-14.9-16.9c-1-3-1.4-6-1.4-9.1C327.6,146,327.6,145.6,327.7,145.1z"/>
			<path class="st1" d="M398.4,145.1c0-0.5,0-1,0-1.5c0-3.1,0.5-6.2,1.4-9.1c2.4-7.4,7.4-13,14.9-16.9c4.7-2.4,9.9-3.6,15.4-3.6
				c3.3,0,6.8,0.4,10.3,1.3c7.5,2.5,13.2,6.4,16.9,11.9c0.4,0.8,0.7,1.5,0.7,2.1c0,0.9-0.5,1.5-1.5,1.9l-2.4,1.6
				c-0.8,0.3-1.5,0.4-2.2,0.4c-1.1,0-1.8-0.4-2.2-1.3c-4.2-4.2-8.6-7-13.1-8.4c-2.9-0.7-5.4-1-7.5-1c-2.4,0-4.2,0.4-5.4,1.3
				c-2.1,1.2-3.1,4.4-3.1,9.6v27.9c0,2.1,0.5,3.4,1.4,3.9c2.2,1.5,4.9,2.2,8.2,2.2c1.9,0,4-0.3,6.3-0.8c6.6-2.2,10.4-5,11.4-8.2
				c0.1-0.1,0.1-0.2,0.1-0.3c0-0.4-0.6-0.6-1.7-0.6h-9.3c-1.6,0-2.4-0.7-2.4-2.2v-4.1c0-1.4,0.7-2.1,2-2.1h23.8c1.4,0,2.1,0.7,2.1,2
				v0.3c-0.1,2.9-1.9,6.9-5.4,12.1c-3.5,5.1-9,9-16.5,11.5c-3.6,0.9-7,1.3-10.3,1.3c-5.5,0-10.6-1.2-15.4-3.7
				c-7.5-3.9-12.5-9.5-14.9-16.9c-1-3-1.4-6-1.4-9.1C398.4,146,398.4,145.6,398.4,145.1z"/>
		</g>
	</g>
</g>
</svg>
