<?xml version="1.0" encoding="utf-8"?>
<!-- Generator: Adobe Illustrator 19.0.1, SVG Export Plug-In . SVG Version: 6.00 Build 0)  -->
<svg version="1.1" id="Layer_1" xmlns="http://www.w3.org/2000/svg" xmlns:xlink="http://www.w3.org/1999/xlink" x="0px" y="0px"
	 viewBox="44 223.7 700 339.3" style="enable-background:new 44 223.7 700 339.3;" xml:space="preserve">
<style type="text/css">
	.st0{fill:#F26D6E;}
	.st1{fill:#F6DEDA;}
	.st2{fill:#DE3554;}
</style>
<g id="Layer_1_1_">
</g>
<g>
	<path class="st0" d="M462.1,419.3c2-2.2,3.2-4.8,2-7.8c-0.8-1.8-2.3-2.7-4.2-2.5c-3.3,0.3-5.1,2.6-5.9,5.5
		c-1.6,6.3-5.5,10.8-10.5,14.5c-5.3,4-10.9,7.7-16.3,11.6c0.1,0.1,0.2,0.2,0.3,0.3c9.2-4,17.9-8.9,26.2-14.5
		C456.8,424.4,459.7,422.1,462.1,419.3z"/>
	<path class="st0" d="M427.5,441c-0.1-0.1-0.2-0.2-0.3-0.3c-0.2,0.2-0.5,0.3-0.7,0.5C426.9,441.5,427.2,441.3,427.5,441z"/>
	<path class="st0" d="M541.8,236.1L541.8,236.1c-0.2-0.1-0.4-0.1-0.7-0.2c0.1,0.2,0.2,0.4,0.2,0.7c1.3,1.6,2.6,3.4,3.9,5
		c0.1-0.7,0.2-1.3,0.3-2C544.6,238.1,543.4,236.9,541.8,236.1z"/>
	<path class="st0" d="M724,414.6c-2.9-0.2-5.8-0.5-8.7-0.7c-25.3-0.5-50.4,1.2-74.7,8.6c-11.5,3.5-22.5,8.1-30.9,17.1
		c-3.2,3.4-5.8,7.2-6,12c-0.2,5.3,3.8,8.4,9.1,6.8c3.5-1.1,6-3.4,8.2-6.1c5.2-6.7,11.8-11.8,19.2-15.9
		c24.3-13.5,50.8-19.3,78.4-20.6c1.2,0.2,2.4,0.2,3.5-0.2c0.7,0,1.2,0,1.9,0c1.4,0.3,2.7,0.5,4.6-0.1
		C726.8,414.7,725.5,414.4,724,414.6z"/>
	<path class="st0" d="M601.9,413.2L601.9,413.2c0.7-0.4,1.3-0.9,2-1.3c3.3-0.4,6.1-1.9,9.5-3.3c-4.3-1.1-7,0.7-9.5,3.3l0,0
		C603.1,412.1,602.3,412.5,601.9,413.2z"/>
	<path class="st0" d="M729.4,261.3c0.4-0.3,0.9-1.1,0.4-1.2c-0.7-0.3-0.4,0.7-0.8,1c-0.4,0.9-0.9,1.9-1.3,2.7c-1.2,2-2.4,4-3.1,6.3
		c-7.6,14.8-16.7,28.7-27.5,41.4c-11.5,13.4-24.1,25.3-40,33.5c-7.5,3.8-15.7,5.3-23.8,7.4c-5.1,1.3-9.9,3.6-13.3,8
		c-3.8,4.8-1.9,9.8,4.1,10.9c5.9,1.1,11.8,0.2,17.2-2.1c12.3-5.2,23-13.1,32.5-22.5c22.1-22.2,38.9-48.1,52-76.6
		c1.2-1.9,2-3.8,2.5-6l0,0C728.9,263.2,729.4,262.3,729.4,261.3L729.4,261.3z"/>
	<path class="st0" d="M728.9,272.4c0.1-0.2,0.2-0.3,0.2-0.5c0-0.1-0.2-0.3-0.2-0.4c-0.1,0.1-0.2,0.3-0.2,0.4
		C728.7,272.1,728.8,272.3,728.9,272.4z"/>
	<path class="st0" d="M313,296.1L313,296.1L313,296.1z"/>
	<path class="st0" d="M692.7,499.4L692.7,499.4L692.7,499.4L692.7,499.4z"/>
	<path class="st0" d="M446.7,478.2c15.9-11.8,33.6-19.2,53.3-21.3c9.9-1.1,20-0.7,29.3,2.7c6.3,2.3,12.7,4.9,17.3,10
		c4.9,4.6,10.5,7.5,17.3,7.2c5.6-0.2,9.8-4.3,10.4-9.8s-1.5-9.9-5.2-13.9c-5.1-3.8-10.6-6.9-16.8-8.6c-12.3-3.5-24.9-3.5-37.4-1.9
		c-18.2,2.4-35.2,8.5-51.3,17.7c-13.7,8-25.1,18.3-34.8,30.9c-0.5,1.4-2.2,2.4-2,4.3c1.6,0.1,2-1.6,3.2-2.2h0.1c1-1.6,2.6-2.7,3.9-4
		l0,0c0.7-0.7,1.3-1.4,2-2.1C439.2,483.9,443,481,446.7,478.2z"/>
	<path class="st0" d="M427.3,488.9c1.3-2.6,3.5-4.6,5.5-6.7c21.4-22.4,47.3-36.1,77.7-41.7c9.7-1.7,19.5-1.9,29.3-1.4
		c4.1,0.2,8.3-0.4,11.7-3.3c3.2-2.6,3.3-5.8,0.1-8.4c-2.5-2-5.5-2.9-8.6-3.6c-8.5-1.7-17.1-1.7-25.6-0.3c-14.4,2.4-27.7,7.7-40,15.4
		c-20.7,12.7-38.6,28.4-51.6,49.1c-0.7,1.1-1.9,2.1-1.3,3.6c-0.9,0.1-0.9,0.7-0.8,1.3c-0.3-0.2-0.7-0.2-0.7,0.1
		c0,0.1,0.3,0.4,0.5,0.7c0.1-0.2,0.1-0.4,0.2-0.8l0,0c0.7-0.2,1-0.7,0.8-1.3C425.8,491.4,426.2,489.8,427.3,488.9z"/>
	<path class="st0" d="M276.6,424.5c-3.5-0.8-7-1.3-10.5-2c-1,0-1.9,0-2.8-0.1c-0.9,0-1.6,0-2.5,0c-12.1,0.1-23.7,2.9-34.6,7.6
		c-23,9.9-42.4,24.8-58.6,44c-4.7,5.6-9.4,11.3-12.3,18.2c-0.4,0.2-0.8,0.7-0.3,1c0.4,0.3,0.5-0.3,0.9-0.5
		c7-9.1,14.8-17.1,23.9-24.1c17.8-13.6,37.5-22.9,59.7-27.2c2.2-1.1,4.5-1.1,6.8-1.4c8.6-1.3,17.3-1.1,26-0.8
		c4,0.1,8.1-0.7,11.3-3.3c3.1-2.4,3.1-5.7,0.1-8.3C281.6,426.1,279.2,425.1,276.6,424.5z"/>
	<path class="st0" d="M556.4,489.7c4.1,0.3,8.2,0.5,12.3,1c13.1,1.3,25.3,5.5,36.9,11.6c11,5.8,20.6,13.5,27.7,23.8
		c2.5,3.6,5.6,6.2,8.6,8.9c2,1.9,4.4,3.1,7,3.8c7.7,2.2,13-2.6,11.1-10.4c-1.9-8-6.7-14-12.8-19c-8.6-7-18.7-11.1-29.2-14.4
		c-11.8-3.6-23.8-5.8-36-6.7C573.4,487.8,564.8,487.4,556.4,489.7z"/>
	<path class="st0" d="M367.1,528.4c3.1,4.1,6.7,7.6,11.5,9.8c3.7,1.6,7.3,1.9,10.9-0.3c3.2-3.2,3.1-6.9,1.9-10.8
		c-0.3-1.3-0.8-2.5-1.1-3.8c-0.1-0.3-0.2-0.5-0.3-0.9c-5-8.6-12.2-14.8-20.9-19.5c-8.5-4.5-17.6-7.6-26.8-9.8
		c-6.9-1.6-14-2.8-20.9-4.1c-11-0.7-22-1.9-33,0.5c7,0.9,14,1.1,20.8,2.5C332.7,497.1,352.6,508.5,367.1,528.4z"/>
	<path class="st0" d="M475.4,260.7c-5.6,8.3-10.3,17.1-14.7,26.1c-0.2,0.7-0.3,1.3-0.7,1.9c-4,9.1-8,18.1-11.7,27.4
		c-5.9,15.1-10.4,30.5-15.4,45.8c-0.8,2.3-0.9,4.9-1.3,7.3c1-0.7,1.3-1.5,1.5-2.3c4.4-12.7,9.1-25.1,14.7-37.3
		c3.3-7.2,6.3-14.5,10.7-21.1c0.2-0.1,0.4-0.3,0.5-0.4H459c1-2.8,2.5-5.2,4-7.7c-0.1,2.8-1.4,5.2-2.7,7.6l0.1,0.1
		c3.3-0.3,6.4-5.9,4.8-8.4c-0.2-0.3-1-0.2-1.5-0.3c6.5-10.9,13.6-21.6,22.9-30.5c5.6-5.3,11.6-10,18.8-13.1c2.9-1.2,5.5-3.1,7.3-5.7
		c2.8-4.3,1.7-8.3-2.9-10.5c-5.1-2.4-10-1.3-14.7,1.2C486.4,245.5,480.6,252.9,475.4,260.7z"/>
	<path class="st0" d="M457,284.6c0.9-3.8,2.9-7.2,2.8-11.3c-1.9,3.8-3.7,7.6-5.6,11.6c-0.1,2.7-1.7,4.8-2.7,7.1
		c-8.1,18.2-17.8,35.6-31.1,50.5c-9.8,11-21.5,19.4-35.1,25.1c-2.3,1-4.5,2-6.5,3.4c-6,4.4-5.5,10.7,1.3,13.9
		c1.5,0.8,3.2,1.1,4.8,1.1c9.4,0.3,16.7-4.7,23.3-10.3c5.5-4.7,9.8-10.6,13.7-16.7c13.9-21.1,23.7-44.2,31.8-67.9
		C454.8,288.9,455.2,286.4,457,284.6z"/>
	<path class="st0" d="M110.2,383.6c2.1,1.4,4.4,2.2,6.9,2.2c7.4,0.1,13.6-3.1,19.3-7.4c11-8.5,18.5-19.9,25.2-31.7
		c12-21.3,20.5-44,28.7-66.9c0.5-1.5,1.6-2.9,1.1-4.8c-1.1,0.9-1.3,2.1-1.7,3.2c-4,9.2-8.1,18.3-12.8,27.3
		c-9.4,18.1-20.2,35-36.2,48c-6.9,5.6-14.3,10.4-22.6,13.6c-3.6,1.4-7,2.6-9.5,5.7C105.6,376.6,106.1,380.9,110.2,383.6z"/>
	<path class="st0" d="M205.2,284.4c8.9-12.3,19-23.3,33.6-29.3c2.1-0.9,3.7-2.4,5.1-4.1c3.7-4.5,2.6-9.1-2.7-11.2
		c-2.7-1.2-5.6-1.4-8.5-0.8c-4.6,1.1-8.5,3.4-11.9,6.4c-9.8,8.6-16.5,19.6-22.6,31c-12.3,22.8-21.4,47-28.9,71.8
		c-2.1,6.7-4.4,13.3-5.2,20.3l0.1,0.1c2.2-5.8,4.5-11.6,6.7-17.3C179.9,327.6,190.4,304.9,205.2,284.4z"/>
	<path class="st0" d="M716.4,306.2c3.2-9.1,7.1-17.8,10.3-26.9c1.1-1.7,1.5-3.6,1.6-5.6c-1.2,1.3-1.9,2.7-2.3,4.4
		c-7.2,16.6-14.8,32.8-24.8,48c-12.4,18.9-28.4,33.5-49.4,42.1c-2,0.8-3.8,1.9-5.5,3.2c-5.1,4-4.6,9.9,1.1,13
		c3.3,1.9,6.9,2,10.5,1.2c8.8-2.1,15.8-7,22-13.5c8.5-9.1,15.3-19.3,20.8-30.2C706.6,330.3,712,318.5,716.4,306.2z"/>
	<path class="st0" d="M545.3,241.6c5.3,4.7,9.4,10.4,13.6,15.9c14,18.4,26,38.2,33,60.3c3.5,10.8,5.2,21.8,3.2,33.3
		c-1,5.2-4.4,9.5-5.9,14.5c-0.4,5.5,1.1,9.8,6.5,12.1c8.3,0,11.2-2.1,14.2-9.9c2.1-5.6,2.4-11.3,1.6-17.1
		c-2-14.9-7.6-28.7-14.7-41.9c-7.7-14.3-16.4-28-26.4-40.8c-7.9-9.9-15.9-19.5-24.9-28.5C545.5,240.4,545.4,241.1,545.3,241.6z"/>
	<path class="st0" d="M657.2,412.8c16.6-2.7,33.3-2.8,50-2.2c1.5,0.1,3.1,1.4,4.8,0.2c-3.5-2-21.7-4.7-32.9-4.9
		c-3.6-0.4-7.1-1.2-10.8-0.5c-13.3-0.4-26.6,0.8-39.8,2.4c-9.4,1.2-18.4,3.9-27.3,7.3c-1.9,1.2-3.7,2.4-5.6,3.5
		c-5.1,3.3-9.6,7.1-12.3,12.7c-1.9,3.7-2,7.2,0.5,10.6c0.3,0.2,0.7,0.5,1,0.8c0.1,0.2,0.2,0.4,0.3,0.7c6.2,1.2,10.8-1.7,14.8-5.9
		c3.1-3.2,6.2-6.1,9.8-8.5C624.2,419.5,640.5,415.5,657.2,412.8z"/>
	<path class="st0" d="M59.2,418.8c-5.9,3.7-10.9,8.2-13.1,15.2c-0.9,2.7-0.8,5.3,1.4,7.4c2.1,2.1,4.7,2.4,7.4,1.5
		c4.1-1.3,7.1-4.1,9.9-7.1c3.9-4,8.4-7.2,13.4-10c12.4-6.9,25.8-10.1,39.6-12.5c15.5-2.7,31-3.7,46.7-2.8c3.3,0.2,6.5,0,9.8,0
		c-10.5-2.7-21.1-4-31.7-4.6c-4.7-0.7-9.4-1.1-14.1-0.5c-12.3,0-24.5,0.5-36.6,2.6C80.4,409.8,69.2,412.5,59.2,418.8z"/>
	<path class="st0" d="M297.8,420.3c-2-0.4-3.9-0.7-5.9-1c-7.9-1.4-15.8-2.5-23.4-5c-2.9-0.9-6-1.6-8.9-2.6
		c-13.1-4.1-25.6-9.5-36.6-17.9c-0.2-0.1-0.4-0.3-0.5-0.4c-0.2-0.1-0.3-0.2-0.5-0.3c-1.2-2.6-3.3-4.3-5.9-5.1
		c-5-4.4-9.1-9.5-12.9-14.8c-2.3-3.2-4.9-6.1-8.5-7.7c-2.8-1.3-5.7-1.5-8.2,0.5c-2.4,2.1-3.1,4.8-2.4,7.9
		c1.5,7.4,5.3,13.3,10.8,18.4c10,9.4,22.5,14.3,35.3,18.4c2.5,2.1,5.2,3.1,8.5,2.3c0.3,0.1,0.5,0.2,0.9,0.4
		c3.6,2.3,7.6,2.8,11.8,2.6c0.8,0.3,1.5,0.5,2.3,0.9C268.2,417.7,282.9,421.3,297.8,420.3z"/>
	<path class="st0" d="M147.1,326.1c-13.3,12.7-28.2,22.5-46.8,25.5c-5.8,1-11.1,3.3-15.4,7.5c-2.1,2.1-3.7,4.6-2.5,7.7
		c1.2,3.1,3.8,3.8,6.7,4.3c7.2,1.1,14.3-1,20.4-3.9c10.4-5,19.5-12.2,27.8-20.4c14.7-14.6,27-31,37.6-48.6c6.5-10.9,12.7-22,17-34
		l0,0c0.4-0.8,1.2-1.4,0.7-2.6c-0.5,0.8-1.1,1.3-1,2.3c-1.2,1-1.5,2.4-2.2,3.7C178.4,289.3,164.8,309.3,147.1,326.1z"/>
	<path class="st0" d="M218.6,347.8c-3.4-5.8-8.9-5.7-12.2,0.1c-3.1,5.2-2.5,10.7-1,16.1c3.6,13,12.4,21.9,23.1,29.2
		c12.8,8.7,26.9,14,41.7,18.2c0.7,0.1,1.3,0,2,0.2c8.4,2.1,16.7,4.5,25.4,5.1c1.6,0.1,3.3,0.8,5.8,0.1c-2.5-0.7-4-1.1-5.7-1.5
		c-15.6-4-30.6-9.5-44.6-17.8c-7.7-4.7-15.1-10-20.5-17.5c-5.5-6.7-9.2-14.2-10.7-22.7C221.2,354.1,220.4,350.7,218.6,347.8z"/>
	<path class="st0" d="M507.5,260.4c-11.1,7.6-20.8,17-29,27.8c-6.2,8.2-12.2,16.5-17.7,25.2c-0.5,1-1,2-1.5,2.9
		c-8.5,13.7-15.8,28.1-21.8,43.2c-1.2,3.1-2.5,6-3.1,9.8c0.7-0.7,0.9-0.9,1.1-1.2c8.4-18.2,18.3-35.3,30.2-51.5
		c10-13.6,20.9-26.3,34.7-36.1c6.2-4.7,12.9-8.4,20.3-10.7c4.3-1.3,8.8-1.6,12.9-3.5c2.3-1.1,4.6-2.4,4.6-5.2c0-2.9-2.3-4.4-4.8-5.5
		c-1.2-0.5-2.5-1-3.8-1.1C521.4,253.5,513.9,256,507.5,260.4z"/>
	<path class="st0" d="M69.7,457.3c2.5,2.1,5.3,1.9,8.2,0.4c3.3-1.5,5.5-4.1,7.6-6.9c4.3-5.2,9.4-9.4,15.1-12.8
		c25.4-14.9,53.3-20.6,82.3-22.1c2.6-0.1,5.3,0,8.8,0c-1.1-0.7-1.4-0.9-1.9-1c-0.8-0.2-1.5-0.3-2.3-0.3c-18.3-1.4-36.5-0.7-54.8,2
		c-18.5,2.7-36.9,6.7-52.8,17.3c-5.7,3.8-10,8.7-12.2,15.4C67,452.1,67.2,455.1,69.7,457.3z"/>
	<path class="st0" d="M239.9,260.1c-7.2,4.6-13.6,10.4-19.4,16.7c-21.7,24-38.1,51.3-50.4,81c-0.9,2.2-2.1,4.3-2.2,7l0,0
		c-0.3,0.2-0.7,0.7-0.8,1c-0.1,0.3,0.1,0.7,0.5,0.5c0.4-0.1,0.8-0.3,1.1-0.4c-0.2-0.4-0.3-0.8-0.4-1c0.3-0.2,0.5-0.3,0.7-0.4
		c2.2-4.3,4.4-8.5,6.7-12.8c12.9-23.6,27.7-45.6,47.7-63.8c10.8-9.8,22.7-17.6,37.5-20c2.5-0.4,4.9-1.4,7.1-2.9
		c2.9-2,3.1-6.7-0.5-8.4c-2.2-1-4.3-1.9-6.7-2.1C252.9,253.6,246,256.3,239.9,260.1z"/>
	<path class="st0" d="M237.4,339c-2.3-3.7-5.8-5.7-9.1-4.8c-2.8,0.8-4.5,3.7-4.7,8.1c-0.4,12,3.4,22.6,10.3,32.2
		c1.9,1.1,2.1,3.3,3.5,4.7c15.4,15.1,33.4,25.3,54.3,30.3c3.2,0.8,6.4,1.7,9.7,1.5c-4.6-2.2-9.2-4.1-13.7-6.2c-4-2-8.4-3.6-11.8-6.7
		c-17.2-10-29.6-23.8-34.1-43.6C240.7,349.2,240.3,343.7,237.4,339z"/>
	<path class="st0" d="M501.7,285.4c0,0.7-0.5,1-0.9,1.3c-13.9,10.8-25.5,23.4-36.2,37.3c-8.9,11.6-17.2,23.7-24.1,36.5
		c-0.8,1.4-1.9,2.8-1.7,5.7c2.1-3.2,3.6-5.6,5.1-8c12.2-18.4,26-35.4,43-49.6c7.2-6,14.7-11.6,23.9-14.4c7.3-3.1,14.9-3.6,22.8-2.8
		c1.6,0.1,3.3-0.2,4.9-0.7c4.9-1.3,6.7-6.3,3.7-10.6c-2-2.8-4.7-4.6-8.1-5.6c-4.6-1.3-9.1-0.3-13.5,1c-6.5,1.9-12,5.7-17.8,9.2v-0.1
		C502.3,284.8,502,285.2,501.7,285.4z"/>
	<path class="st0" d="M170.3,365.6c0.4,0.3,0.7-0.5,1-1l0,0c0.2-0.4,0.4-0.8,0.7-1.2c1-1.4,2.1-2.9,3.1-4.4
		c12.5-19.2,26.8-36.8,44.6-51.3c8.9-7.3,18.7-13.4,30.1-16.1c5.8-1.4,11.6-0.4,17.3-0.3c3.8,0.1,6.3-1.6,7.9-4.8
		c1.4-3.1-0.1-5.7-2.2-7.9c-3.9-4.1-8.9-5.3-14.4-4.6c-9.2,1.3-16.8,5.7-24.1,11c-16.5,12.1-29.7,27.4-41.8,43.6
		c-8,10.7-15.5,21.8-21.3,33.9l0,0c-0.2,0.4-0.4,1-0.7,1.4C170.2,364.7,169.5,365.2,170.3,365.6z"/>
	<path class="st0" d="M535.7,489.4c2.8,0.3,5.7,0,7.3-2.8c1.6-2.7-0.1-4.8-1.5-7c-1.5-2.3-4-3.4-5.9-5.3c-2.2,0.1-3.7-1.4-5.5-2.3
		c-24.6-11.2-47.7-7-69.8,6.9c-7.1,4.5-13.1,10.4-19.2,15.9c-1.3,1.5-2.6,2.9-3.8,4.6c-2.1,3.1-5,5.5-5.9,9.3c2.6-0.8,3.8-3.3,5.6-5
		c10.4-10.5,21.5-19.7,35.7-24.6c15.7-5.5,31-3.6,45.9,3.1c0.2,0.1,0.4,0.4,0.7,0.7c2.9,1.4,5.9,2.8,8.8,4.3
		C530.4,488.4,533.1,489.1,535.7,489.4z"/>
	<path class="st0" d="M274.9,486.5c1.5-2.6,0-4.7-1.5-6.7c-2.5-3.3-6-5.2-9.6-7.1c-0.2,0.1-0.4,0-0.4-0.2l-0.2-0.2
		c-2.3-0.5-4.4-1.5-6.3-2.7c-9.8-3.4-19.9-5.1-30.2-3.6c-27.4,3.9-47.6,18.9-62.7,41.4c-0.2,0.4-0.5,0.8-0.8,1.2
		c0.2,0.2,0.4,0.4,0.7,0.5c0.3-0.3,0.5-0.5,0.9-0.9c8.6-8.8,17.3-17.5,28.2-23.7c8.2-4.6,16.7-7.7,26.2-8.4c14-1,26.6,3.1,38.7,9.6
		c3.3,1.7,6.7,3.3,10.4,3.6C270.5,489.7,273.4,489.2,274.9,486.5z"/>
	<path class="st0" d="M97.8,477.6c1.4-2,2.3-4,3.1-6.3c0.9-2.5,1.2-5.3,2.6-7.5c6.3-9.4,14.4-17,24-22.8
		c23.9-14.5,50.2-20.7,78.5-21.1c-2.4-1.2-2.4-1.1-4.5-1.3c-8.9-0.7-17.8-0.4-26.7,0.7c-22.5,2.6-43.6,9.2-62.8,21.1
		c-9.4,5.8-17.7,12.9-23.1,22.8c-2.4,4.4-2.8,8.9-0.8,13.5C90.1,481.5,94.6,481.9,97.8,477.6z"/>
	<path class="st0" d="M736.9,418.7c-24.2-1.5-47.6,2.5-69.9,11.9c-16.5,6.9-31.7,15.6-41.7,31.3c-3.1,4.9-3.8,10.1-1.1,15.5
		c2.3,4.4,6.2,4.7,9.4,1c1.3-1.5,2.3-3.4,2.8-5.2c3.7-13.2,12.8-22,23.4-29.4c10.3-7,21.4-12,33.3-15.8c11.2-3.7,22.5-5.9,34.1-7.4
		c3.8-0.5,7.6,0,11.5-1.3C738.2,418.8,737.6,418.7,736.9,418.7z"/>
	<path class="st0" d="M276.8,493c13.5,3.3,26.3,8.3,38.3,15.3c14.7,8.5,27.4,18.9,32.1,36.3c1,3.8,3.3,7.1,6.5,9.5
		c3.6,2.6,8.1,2.2,10.1-1c1.3-2,1.2-4.3,1.1-6.4c-0.4-8.2-4.7-14.5-9.8-20.3c-0.9-0.4-1.5-1-1.7-1.9c-0.2-0.2-0.4-0.4-0.7-0.7
		c-2.3-2-4.5-3.9-6.8-5.9c-0.8-0.7-1.4-1.5-2.2-2c-16.6-10.8-34.2-18.9-53.8-22.8c-4.9-1-9.9-2-15.2-1.3
		C275.2,492.9,276,492.9,276.8,493z"/>
	<path class="st0" d="M275,224.3c0.5,0.2,0.9,0.5,1.3,0.5c14.1,3.3,27.4,8.6,39.8,16c14.3,8.5,26.4,18.9,31,35.9
		c1.2,4.5,3.9,8.2,8.3,10.5c2.1,1.7,4.3,2,6.3,0c4.9-3.5,3.4-8.5,2.4-12.9c-2.3-10.4-9.5-17.5-17.6-23.8c-12-9.4-25.4-16-39.9-20.8
		c-5.6-1.9-11.2-3.5-17-4.7C282.4,223.8,278.3,223.4,275,224.3z"/>
	<path class="st0" d="M84.8,346.9c8.3,2.8,16.3,1.1,24.1-1.9c15.5-5.9,28.1-15.8,39.8-27.2c7.6-7.3,14.8-15.2,20.3-24.3
		c0.4-0.3,0.8-0.9,0.3-1.2c-0.3-0.3-0.7,0.1-0.9,0.5c-7.2,8-14.6,15.4-23.3,21.7c-6.9,4.9-13.9,9.3-21.6,12.5
		c-12.3,5.2-25,7.6-38.1,3.1c-1.4-0.5-2.8-0.4-4.3-0.4c-2.7,0-5.1,1-6.3,3.6c-1.2,2.8-0.7,5.5,1.3,7.7
		C78.5,343.7,81.4,345.7,84.8,346.9z"/>
	<path class="st0" d="M617.2,548.7c1.9,3.5,4.4,6.1,8.4,6.9c3.7,0.8,7-1.5,7.3-5.3c0.3-3.3,0-6.4-1-9.6
		c-3.7-11.3-12.3-18.5-21.5-25.1c-14-10.1-29.7-16.7-46.2-21.1c-6.9-1.9-13.9-3.3-21.5-2.8c0.5,0.7,0.7,0.9,0.9,1
		c0.5,0.2,1.1,0.3,1.6,0.4c16.8,4.1,32.5,10.8,46.8,20.6c8.8,6.1,16.5,13.3,20.7,23.4C614.2,540.9,615.1,545,617.2,548.7z"/>
	<path class="st0" d="M543.2,223.8c0.3,1.1,1.1,1.1,1.6,1.2c15.8,3.8,30.8,9.9,44.4,19c11.9,7.9,21.9,17.2,25.5,31.7
		c0.3,1.5,1.2,2.9,2,4.3c1.6,3.1,3.7,5.8,7.1,7.3c4.4,1.9,8.5-0.5,9.1-5.2c0.3-3.7-0.2-7.3-1.5-10.8c-3.2-8-8.7-14-15.2-19.2
		c-15.8-12.8-34-20.7-53.6-25.6C556.3,224.7,549.9,223.5,543.2,223.8z"/>
	<path class="st0" d="M487.3,322.6c11.2-7.3,23.1-12.5,36.9-11.9c3.3,0.1,6.3-1.2,9.3-2.6c3.7-3.7,3.7-6.2-0.1-10
		c-0.3-1-0.7-2.2-1.7-2.2c-5.2,0.1-10.5-2.9-15.7,0.1c-0.2,0-0.4,0.1-0.7,0.1L515,296v0.2c-2.2,0.3-4.5,0.7-6.4,1.9
		c-30.6,14.7-50.3,40.1-67.3,68.2c1.4-0.1,2-1.2,2.6-2C456.4,348.4,470.1,333.8,487.3,322.6z"/>
	<path class="st0" d="M109.1,498.4c3.7,0.4,5.7-1.5,6.9-6.5c0.2-1.1,0.4-2.2,0.5-3.3c1.9-15.5,7.3-29.3,19-40.4
		c11.6-10.8,25.4-16.9,40.5-20.8c7.9-2,15.9-3.1,24.1-4c-4.1-1.2-8.3-0.5-12.4,0c-17.8,2.2-34.5,7.9-50,16.9
		c-13,7.6-24.1,17.3-31,31.1c-2.8,5.8-4.7,11.8-4.9,18.2C101.7,494,105.2,497.9,109.1,498.4z"/>
	<path class="st0" d="M722.9,423.7c-13.5,1.6-26.4,5.6-38.6,11.3c-13.6,6.4-26.1,14.7-35.3,26.9c-6.4,8.4-10.7,17.8-10.9,28.6
		c-0.1,3.8,3.7,7.9,7.4,8.2c3.5,0.3,5.7-1.6,6.9-6.3c0.2-1.1,0.4-2.2,0.5-3.3c0.8-6.1,1.9-12.1,4-17.9c6.4-17.2,18.8-29,35-36.8
		c14-6.7,29-9.8,44.4-11C731.8,422.8,727.3,423.1,722.9,423.7z"/>
	<path class="st0" d="M178.8,366.1c0.1-0.1,0.3-0.3,0.4-0.4c8.6-8.7,18.1-16.4,28.2-23.2c9.3-6.4,19.3-11.7,30.6-13.5
		c3.7,0,7.4-0.1,11.1-0.1c1.1,0.2,2.2,0.4,3.3,0.7c5.2,1,10.5,1.2,15.3-1.4c3.7-2,3.9-4.3,1-7.1c-2.5-2.5-5.7-3.9-9.1-4.7
		c-7.2-1.7-14-0.1-20.6,2.3c-15.6,5.7-28.9,15.1-41.2,26c-7,6.2-13.9,12.5-19.2,20.4l0,0c-0.2,0.2-0.4,0.5-0.5,0.8
		c-0.5,0.5-1.4,1-1,2C177.9,367.3,178.4,366.6,178.8,366.1z"/>
	<path class="st0" d="M644.9,388.3c-1.7-0.7-3.6-1.1-5.5-1.3c-11.7-0.9-21.8,3.5-31.5,9.3c-5,3.5-10.3,6.8-14.7,11
		c-5.2,4.7-10.4,9.5-13.5,16l0,0l0,0c-0.2,0.5-0.3,1-0.5,1.5l0,0L579,425l0.1-0.1c0.3-0.3,0.7-0.5,0.9-0.9l0,0l0,0
		c1-0.9,2-1.9,2.8-2.7c4.5-4.1,8.9-8.2,14.7-10.6c12.5-7.2,26-10.4,40.5-7.9c3.9,0.7,7.3,0.1,9.9-3.5
		C651.1,394.9,649.9,390.1,644.9,388.3z"/>
	<path class="st0" d="M44,421.5c1.3,0.7,1.6-0.1,2.1-0.5c5.3-4.5,10.9-8.7,17.1-11.9c11.8-6.1,24.2-8.7,37.5-6.5
		c3.2,0.5,6.2,0.4,8.9-1.6c2.6-2,3.8-4.6,3.4-7.9c-0.3-3.1-2.7-4.1-5.2-4.9c-4.7-1.5-9.5-1.4-14.2-0.5c-11.8,2.2-21.8,8-31.2,15.1
		C55.5,408,49.1,414,44,421.5z"/>
	<path class="st0" d="M245.1,498.9c4.1,0.9,7.1,0,8.3-2.6c1.7-3.7-1.2-5.5-3.3-7.5c-0.5-0.5-1.2-1-1.9-1.4c-7.5-5.2-16-6.9-24.9-6.2
		c-11.5,0.8-22.5,3.2-32.6,9.1c-11.3,6.4-21.3,14.3-28.4,25.4c-0.3,0.5-1.3,1-0.4,2c4.6-4.6,9.4-8.8,14.5-12.8
		c9.9-7.7,20.7-13.4,33.3-15.3c3.7,0,7.5-0.4,11.3,0c5.6,0.4,10.6,2.5,15.3,5.3C239.1,496.7,242,498.3,245.1,498.9z"/>
	<path class="st0" d="M516.8,499.1c2.4-0.1,4-1.1,5-3.2c1-2.2-0.2-3.8-1.5-5.3c-1.6-1.7-3.4-3.2-5.5-4.4c-9.1-4.8-18.9-5.9-28.9-4.5
		c-21.5,3.3-39.5,13-52.9,30.3c-0.9,1.1-2.2,2.1-1.7,3.7c0.7,0.1,1.1-0.2,1.5-0.5c9.6-9.9,20.4-18.1,33.6-22.8
		c0.3-0.1,0.8-0.1,1.1-0.2c1-0.9,2.2-1.2,3.5-1.1c2.5-0.4,5-1,7.5-1.5c3.6-1.1,7.1-1.2,10.7,0c6,0.4,11.5,2.6,16.4,6
		C508.8,498.1,512.6,499.4,516.8,499.1z"/>
	<path class="st0" d="M129.4,491.4c3.7,0,6.5-2.4,7.1-6.2c0.2-1.6,0.3-3.4,0-5c-2.4-10.9,3.6-19.1,9.8-26.2
		c8.3-9.5,19.1-15.9,31-20.4c5.7-2.2,11.6-3.7,17.5-5.6c-0.5-0.1-1-0.2-1.5-0.2c-1.9,0.1-3.8,0.1-5.7,0.4
		c-14.1,2.1-26.5,8.1-38.1,16.1c-10.1,7.2-19,15.5-24.5,26.9c-2.1,4.4-3.4,8.9-2.6,13.9C123.2,489.3,125.5,491.4,129.4,491.4z"/>
	<path class="st0" d="M682.9,453.9c9.3-10.3,21.1-16.7,33.7-21.6c0.7-0.3,2.2,0.1,1.9-1.3c-0.2-1.6-1.3-0.4-2.1-0.4
		c-0.5-0.1-1.2-0.4-1.9-0.1c-0.7,0.3-1.5,0.4-2.2,0.7c-8.3,2.7-16.1,6.3-23.3,11.2c-11.3,7.7-21.6,16.6-27.8,29.2
		c-2.2,4.5-3.5,9.2-2.4,14.2c0.8,3.6,2.6,5.3,6.3,5.8c3.3,0.3,5.9-1.3,7.2-4.4c1.2-2.8,0.9-5.7,0.4-8.5c-0.3-2-0.4-3.9,0-6
		C674,465.2,678,459.2,682.9,453.9z"/>
	<path class="st0" d="M347.1,305c-3.1-2.3-6-4.7-10.3-4.3c-2.6,1.3-2.8,3.4-2.2,5.9c2.5,9.9,9.5,15.2,19,16.7
		c21.9,3.5,41.8-2.5,59.8-14.9c0.3-0.2,1.1-0.5,0.4-1.4c-8.5,4.4-17.2,8-26.6,9.5C372.2,319,357.5,319.3,347.1,305z"/>
	<path class="st0" d="M79.8,306.4c-2.3-2.8-5.3-4.8-9.1-5.3c-3.3-0.4-5.1,1.3-4.4,4.5c1.7,7.4,5.6,13.1,13.1,15.8
		c8.8,3.3,17.8,3.6,26.9,2.2c8.9-1.4,17.6-3.9,25.8-7.6c5-2.2,9.8-4.8,13.9-8.6l0,0c0.1-0.2,0.3-0.3,0.4-0.5c-0.2,0-0.4,0-0.8,0
		c-12,5.9-24.3,10.5-37.8,10.9C96.9,318.1,87.1,315.6,79.8,306.4z"/>
	<path class="st0" d="M616.3,306.3c-2.2-2.7-5.1-4.6-8.7-5.3c-3.7-0.8-5.7,1.1-5,4.8c0.3,1.9,1,3.7,1.7,5.3
		c4.4,8.9,12.4,12.2,21.5,13.1c17.3,1.6,33.4-2.9,48.5-10.9c1.9-1,3.7-2.3,5.2-4.1c-1.5-0.7-2.3,0.2-3.2,0.5
		c-10.3,4.7-20.8,7.7-32.2,8.1C633.3,317.9,623.5,315.4,616.3,306.3z"/>
	<path class="st0" d="M255.4,335.2c-2.4-3.7-6.8-3.6-8.8,0.4s-2.5,8.3-1.7,12.7c1.4,8.3,5.3,15.5,10.1,22.2
		c7.1,9.8,15.6,18.1,25.4,25.3c4.7,2.2,8.6,5.8,13.7,7.1l0,0c0.4,0.1,1,0.2,1.5,0.3l0,0c-0.4-0.3-0.8-0.5-1.2-0.9
		c-1.1-0.8-2.2-1.5-3.3-2.3c-7.9-5.3-15.1-11.3-20.8-18.9c-9.1-10.9-14.6-23-12.8-37.7C257.8,340.6,256.9,337.7,255.4,335.2z"/>
	<path class="st0" d="M328.2,558c1.3,2.7,2.9,5.1,6.4,4.7c3.4-0.4,3.9-3.3,4.5-5.9c1.2-6.4-0.5-12.4-3.6-18
		c-8.5-14.9-21.3-25.3-35.8-33.8c-5.7-3.4-11.5-6.2-18.3-6.8c1,0.5,2,1.1,2.9,1.5c11,5.3,20.9,12.2,29.2,21.4
		c7.4,8.2,13.1,17.2,13,28.8C326.5,552.6,327,555.4,328.2,558z"/>
	<path class="st0" d="M288.4,231.7c-2.1-0.9-4.3-1.9-6.8-1.7c0.4,1.1,1.4,1.3,2.2,1.7c11.5,5.2,21.6,12.3,30,21.7
		c7.3,8.1,12.7,17.1,12.7,28.7c0,4,0.8,8.3,3.8,11.5c2.9,2.9,6.3,2.4,8.1-1.5c0.4-1,0.8-2.1,0.9-3.2c1.4-7.9-1.3-14.8-5.7-21.1
		C322.2,251,306.9,239.5,288.4,231.7z"/>
	<path class="st0" d="M602.6,562.6c2.5-0.2,3.5-2,4.1-4.1c1.1-3.7,1-7.5,0.1-11.2c-2.7-10.5-9.4-18.5-16.9-25.7
		c-9.2-8.7-19.4-16-31.1-21.2c-2.9-1.3-5.9-2.5-9.3-2.7c0.2,0.3,0.3,0.7,0.4,0.7c0.9,0.4,1.7,1,2.6,1.4
		c10.5,5.1,20.1,11.6,28.1,20.2c8,8.4,14.1,17.8,14,30.1c0,3.2,0.7,6.4,2.3,9.4C598.3,561.6,600,562.8,602.6,562.6z"/>
	<path class="st0" d="M562.8,234.4c-4.1-2.2-8.4-4-13.2-4.5c11.6,5.6,22.2,12.5,31.1,21.9c8.1,8.5,14.1,18,14,30.3
		c0,3.4,0.7,6.9,2.7,9.9c1.3,1.9,2.9,2.9,5.3,2.7c2.4-0.2,3.4-1.9,4-3.9c0.2-0.9,0.4-1.7,0.7-2.6c1.2-7.7-1.6-14.5-5.8-20.7
		C591.7,252.9,578.3,242.5,562.8,234.4z"/>
	<path class="st0" d="M208.3,406.3c-14.9-2.1-24-10.9-28.7-24.6c-2.1-6-6.3-8-12.1-5.5c-5.5,2.3-7.5,7.7-4.8,13
		c1.3,2.5,3.3,4.6,5.6,6.2c8,5.7,16.8,9.2,26.5,10.7C199.1,406.7,203.6,407.4,208.3,406.3z"/>
	<path class="st0" d="M718.5,388.1c-1.2-2.4-2.2-4.9-3.1-7.4c-2-5.9-8.7-7.3-13.9-3.1c-4.8,3.8-5,8.9-1.1,13.9
		c2.5,3.1,5.7,5.3,9.2,7.2c10.8,5.6,22.1,8.5,34.4,7.9C732.2,404.8,723.8,398.4,718.5,388.1z"/>
	<path class="st0" d="M447.7,262.6c-3.8,1.3-6.3,4.1-8,7.6c-1.1,2.4-2.5,4.7-4.1,6.8c-10.7,12.9-24.2,21.7-39.5,28
		c-4.1,2.4-8.9,2.7-13.9,4.3c3.3,1,3.3,1,9.6-0.5c16.9-4.3,32.3-11.6,46-22.4c6.9-5.3,12.9-11.5,14.8-20.4
		C452.4,262.5,450.8,261.4,447.7,262.6z"/>
	<path class="st0" d="M719.5,262.9c-1.5-1-3.3-0.4-4.8,0.3c-2,1.1-3.6,2.5-5.1,4.3c-1.4,1.6-1.9,3.7-2.9,5.6
		c-5.6,9.2-13.7,15.7-22.5,21.6c-10.4,7-21.5,12.2-33.9,14.7c2.6,1,5.2,0.3,7.7-0.2c20.8-5,39.6-14.1,55-29.1
		c3.5-3.4,6.2-7.5,7.3-12.4C720.7,266,721.2,264,719.5,262.9z"/>
	<path class="st0" d="M114.6,309.8c0.8,0,1.5-0.1,2.3-0.1c8.6-0.4,16.4-3.7,24.2-6.9c10.6-4.3,20.6-9.7,29.4-17
		c5.8-4.8,11.2-10,13.4-17.6c0.5-1.7,1.2-3.9-0.5-5.3c-1.9-1.4-3.8-0.4-5.7,0.5c-2.8,1.5-4.9,3.9-6.1,6.9c-1.4,3.3-3.4,6.2-5.8,8.9
		c-5.3,6-11.6,11.2-18.3,15.6c-10.3,6.8-21.2,12-33.6,14.3C114.3,309.6,114.5,309.8,114.6,309.8z"/>
	<path class="st0" d="M469.8,517.6c3.2,1.3,6.7,0.5,9.5-1.7c3.9-3.1,3.7-7.2-0.4-9.8c-5.6-3.4-11.2-2.4-16.7-0.1
		c-16.1,6.9-28.2,18.8-38.4,32.8c-1.7,2.5-3.6,5-4.4,8.4c1.6-0.9,2.2-2.3,3.1-3.4c6.3-8.6,13.6-16.3,22.8-21.9
		C452.8,517.4,460.5,513.9,469.8,517.6z"/>
	<path class="st0" d="M542.8,322.6c-1.3,1.1-2.2,2.5-2.7,4.1c-0.3,2.8-0.1,5.8,2.7,7.2c3.1,1.5,5.7-0.1,8.1-2.2
		c1.9-1.5,2.7-3.7,4.1-5.6c0.4-1.6,1.2-3.2,1.4-4.8c2.7-17.6-2-33.4-11.7-48c-0.4-0.7-0.9-1.5-2-1.3c-0.3,0.9,0.1,1.4,0.3,2
		c2.9,8.1,6,16.1,6.8,24.9C550.7,307.8,550.1,316.2,542.8,322.6z"/>
	<path class="st0" d="M274.6,322.7c-1.3,1.2-2.3,2.7-2.8,4.5c-0.8,2.6,0.1,4.6,2,6.2c1.9,1.5,3.8,1.9,6.1,0.7
		c4.7-2.5,7.1-6.8,8.2-11.7c2.6-11.2,0.4-22.1-3.3-32.7c-2.3-6.5-4.9-12.9-10-17.8l0,0c-0.2-0.1-0.4-0.2-0.7-0.4c0,0.3,0,0.5,0,0.9
		c3.7,8.6,6.7,17.5,7.5,26.8C282.5,307.8,282,316.2,274.6,322.7z"/>
	<path class="st0" d="M731.1,432.2c-3.7-0.1-7.2,0.7-10.7,2c-13.3,5.1-25.4,12-35,22.7c-3.7,4.1-6.7,8.7-6.9,14.5
		c-0.1,3.5,2.1,6.7,4.7,6.8c3.4,0.1,3.9-2.7,4.7-5.1c0.1-0.3,0.2-0.7,0.2-1c0.2-3.9,2-7.3,4.3-10.4
		C702.7,448.2,715.4,438.4,731.1,432.2z"/>
	<path class="st0" d="M192.8,432c-0.7,0-1.3,0.1-2,0.2c-16.3,4.5-30.5,12.3-42,25c-3.4,3.7-6,8.1-6.5,13.3c-0.3,3.8,1.5,7.2,4.5,7.6
		c2.4,0.4,4.4-1.7,5.1-5.9c0-0.2,0.1-0.4,0.1-0.7c0.2-2.7,1.3-5.1,2.7-7.5c4.8-7.9,11.5-14,18.5-19.5c6.7-5.2,13.9-9.4,21.8-12.5
		C194.3,432,193.5,431.9,192.8,432z"/>
	<path class="st0" d="M367,287.9c-4.3,5.2-8.3,10.5-11,16.7l0,0c-0.2,0.4-0.5,1-0.8,1.4c0.3,0,0.7,0.1,0.9,0.1
		c0.1-0.1,0.3-0.1,0.4,0c0.1-0.3,0.2-0.8,0.3-1.1c1.2-0.4,1.3-2.4,3.1-2c-0.4-0.3-0.5-0.8-0.2-1.1c3.1-3.7,6-7.7,10.1-10.4
		c0.9-0.5,1.7-1,2.5-1.6c5.6-5.3,12.2-7,19.6-6c3.3,0.4,6.5,1.4,9.9,0.9c1.9-0.2,3.4-1.1,4.1-2.9c0.8-1.9,0-3.5-1.1-4.9
		c-1.1-1.4-2.5-2.2-4.1-2.7c-4.8-1.7-9.7-1.7-14.4,0C378.6,277.1,372.1,281.4,367,287.9z"/>
	<path class="st0" d="M569.2,437.9c3.8,3.8,7.7,7.6,9.7,12.9c2.3,5.6,3.3,11.2,2.3,17.2c-0.7,3.9-1.5,8,0,11.9
		c0.8,2.2,1.9,4.4,4.5,4.4c2.7,0,3.2-2.5,3.7-4.5c3.6-11.8,1.4-22.6-5.9-32.4c-5.8-7.1-12.4-13.2-21.1-16.8l0,0
		c-0.2-0.1-0.4-0.2-0.7-0.2c0.1,0.2,0.2,0.4,0.2,0.7C564.4,433.3,566.8,435.5,569.2,437.9z"/>
	<path class="st0" d="M88.1,305.4c1.4-1.6,2.8-3.2,4.1-4.7c3.8-4.4,7.6-8.7,12.4-12.2c6.2-4.5,12.9-6.3,20.5-4.8
		c2.6,0.5,5.2,1.1,8,0.9c2.1-0.2,3.7-0.9,4.5-2.8c0.9-2.1-0.2-3.6-1.4-5.1c-0.9-1.1-2.1-1.6-3.4-2.1c-6.9-2.6-13.4-1.4-19.6,2.1
		c-10.3,5.8-17.8,14.1-23.3,24.4C89.2,302.3,87.5,303.3,88.1,305.4z"/>
	<path class="st0" d="M492.4,502.5c2.6-1.5,2.9-3.6,0.5-5.6c-2.2-1.9-4.8-2.8-7.5-3.5c-5.9-1.4-11.5,0.1-17.1,1.6
		c-12.5,4.8-23.4,12-33.2,21.1c-7.3,8.5-7.3,8.5-7.1,11.6c2-2.1,3.8-4.1,5.7-6.1c1-1.5,2.2-2.6,3.8-3.5l0.1-0.1c0.2-0.5,0.5-1,1.2-1
		c8.1-6.7,16.7-12.3,26.8-15.4c5.9-1.9,11.7-2.3,17.6,0.7C485.9,503.8,489.2,504.4,492.4,502.5z"/>
	<path class="st0" d="M288.2,365.2c-0.7-0.8-1.2-1.6-1.9-2.3c-2.9-3.2-9.1-4.4-10.4,1c-0.3,5.8,2.3,10.3,6.4,14.1
		c5.8,5.5,12.9,8.8,19.9,12.1c5.3,2.5,11.5,3.4,17.3,4.8c5.1,1.2,8.9,1.2,12.4,0.3c-8.7-1.3-16.8-3.3-24.4-6.9
		C297.6,383.6,288.7,377.9,288.2,365.2z"/>
	<path class="st0" d="M160.4,359.2c-4.8,10.8-11.9,18.8-22.7,23.1c-2.3,0.9-4.3,2.4-5.3,4.7c-1.4,2.9-1.1,5.7,1,8.1
		c2,2.4,4.6,2.5,7.3,1.5c3.5-1.3,6-3.8,8.2-6.7c6.1-8,9.6-17,11.9-26.6C161,362.1,161.1,360.7,160.4,359.2z"/>
	<path class="st0" d="M673.4,382.6c-2.1,0.9-3.8,2.3-4.8,4.4c-1.4,2.9-1,6.5,1.4,8.6c2.4,2.2,4.9,2,7.7,0.5c2.9-1.4,5.3-3.6,7.3-6.2
		c5-6.4,8.2-13.7,10.6-21.5c0.9-2.9,1.3-6,1.6-9.8c-0.9,1-1.1,1.2-1.2,1.5C692,371.2,683.9,378.1,673.4,382.6z"/>
	<path class="st0" d="M223.3,503c1.4-0.5,2.6-1.4,2.8-3.1c0.2-1.5-0.8-2.4-2-3.3c-2.1-1.5-4.5-2.5-7-3.1c-5-1.2-10-0.4-14.8,1
		c-16.3,4.8-29.3,14.4-40.4,27c-1.1,1.3-2.2,2.8-2,4.8c-0.4,0.2-0.7,0.7-0.4,0.9c0.4,0.3,0.5-0.3,0.8-0.5c3.7-4.3,7.6-8.3,12.1-11.8
		c6.5-4.9,13.3-9.4,20.9-12.3c7.2-2.8,14.5-4.3,21.9-0.3C217.9,503.7,220.6,503.9,223.3,503z"/>
	<path class="st0" d="M414.6,497.1c1.4-1.1,2.6-2.3,3.8-3.5c0.3-0.4,0.5-1,0.9-1.4c0.8-1.3,1.9-2.6,1-4.3c-1-1.7-2.7-1.6-4.5-1.5
		c-3.9,0.2-6.9,2.2-9.5,5c-3.2,3.4-4.9,7.6-6.9,11.7c-2.9,12.1-2,23.7,4.3,34.6c0-1.4-0.3-2.8-0.5-4.1
		C400.5,519.3,402.4,506.6,414.6,497.1z"/>
	<path class="st0" d="M688.5,488c-0.8-2.2-3.1-1.9-4.9-1.7c-4.8,0.4-8.7,3.2-11,6.8c-4.9,7.7-7.1,16.5-6.2,25.8
		c0.5,5.5,1.5,10.9,4.4,16.4c0.7-2.1,0.1-3.4-0.1-4.8c-1.5-12.1,0.3-23.1,9.9-31.7c1.9-1.7,3.8-3.4,5.9-4.9
		C688.5,492.3,689.2,490.2,688.5,488z"/>
	<path class="st0" d="M137.9,505.9c2.7-4.6,7.1-7.5,10.8-11.1c2-1.9,5.2-4.1,3.2-7.2c-2-2.8-5.6-1.6-8.3-0.3
		c-5.7,2.6-8.7,7.5-10.8,13c-4.6,11.9-3.2,23.6,1.6,35.2c1.2-0.9,0.5-1.7,0.4-2.3c-1.1-5.3-1.1-10.6-0.5-15.9
		C134.5,513.2,135.7,509.5,137.9,505.9z"/>
	<path class="st0" d="M634.6,303.6c5.9-5.5,9.7-6.1,16.9-2.6c1.6,0.8,3.3,1.3,5.1,1.2c3.7-0.3,7.1-3.2,7.6-6.4
		c0.4-2.7-1.6-5.5-5.1-7c-2-0.9-4-1.3-6.2-1c-10.6,1.6-17,8.5-21.7,17.5l0,0c-0.2,0.4-0.4,0.9-0.7,1.4c-0.4,0.3-0.7,0.8-0.2,1.3
		c0.3-0.2,0.5-0.4,0.9-0.8c0.2-0.3,0.5-0.7,0.9-1.1c-0.1-0.1-0.2-0.3-0.3-0.4c0.1,0.1,0.2,0.3,0.3,0.4
		C632.8,305.2,633.6,304.4,634.6,303.6z"/>
	<path class="st0" d="M119.9,302.1c3.7-0.2,7.2-2.9,7.9-6.2c0.5-2.7-1.4-5.5-5-7.1c-1.9-0.9-3.8-1.2-5.9-1
		c-10.9,1.3-17.1,8.4-21.9,17.5c-0.4,0.3-0.8,0.8-0.3,1.3c0.3-0.2,0.7-0.5,0.9-0.8c0.5-0.5,1.2-1,1.7-1.5c5.3-5.5,11.3-7.7,18.2-3.4
		C116.7,301.8,118.3,302.1,119.9,302.1z"/>
	<path class="st0" d="M183.9,447.5c1.2,0,1.7,0.1,2.1,0c12.5-6.1,25-12.3,35.1-22.1c1.6-1.5,2.8-3.4,3.2-5.8
		c0.3-2.3-0.3-4.3-2.3-5.6c-1.9-1.2-3.8-1-5.7,0.1c-2.2,1.3-3.4,3.4-3.8,5.7c-1,5-3.8,8.7-7.3,12
		C198.9,437.6,191.8,442.3,183.9,447.5z"/>
	<path class="st0" d="M413.6,546.6c0.9-5.8,2.6-11,8-14.4c1-0.7,1.7-1.7,2.4-2.7c2.2-3.6,1.7-8.8-0.9-10.5c-2.8-1.7-6.8,0.3-9.1,4.7
		c-0.1,0.2-0.2,0.4-0.3,0.5c-4.4,10.5-3.7,21.2-1.2,31.8C413,553,413.2,549.8,413.6,546.6z"/>
	<path class="st0" d="M693.2,525.4c0.1-2.5,0.4-5.3-2.7-6.4c-2.5-0.9-5.8,0.8-7.2,3.5c-5.7,10.8-4.7,22-2.2,33.4c0-1.3-0.1-2.6,0-4
		c0.7-7.9,1.6-15.6,9.3-20.4C692.3,530.2,693.1,527.8,693.2,525.4z"/>
	<path class="st0" d="M153.9,531.5c0.8-0.4,1.2-1.3,1.7-2.1c2.2-3.6,1.7-9.1-0.9-10.4c-2.8-1.4-6.8,0.4-8.7,4.8
		c-4.7,10.4-3.9,21.1-1.4,31.8c0-1.1-0.1-2.2,0-3.3C145.2,544.4,146.1,536.5,153.9,531.5z"/>
	<path class="st0" d="M608.5,380.3c-2.7,1.2-5.3,2.6-8.1,3.9c-9.9,3.1-19.5,0.7-29.1-2.1c1,0.9,2.1,1.4,3.2,2.1
		c5.2,3.1,11.2,3.8,17,5.3c4.9,1.4,9.8,0.5,14.7,0.3c2.3-0.1,4.6-1.1,6.3-2.7c1.9-1.6,3.9-3.8,2.4-6.3
		C613.4,378.5,610.7,379.3,608.5,380.3z"/>
	<path class="st0" d="M140.6,535.3c0.5-7.2,1-14.4,7-19.9c1.9-1.7,2.6-4.4,2.9-7c0.1-1.3-0.1-2.7-1.3-3.6c-1.3-0.9-2.6-0.2-3.7,0.4
		c-2.2,1.2-3.6,3.1-4.5,5.2c-3.9,10.3-4.9,20.7-0.8,31.3C140.4,539.6,140.4,537.4,140.6,535.3z"/>
	<path class="st0" d="M409.5,529.5c0.9-4.9,1.6-9.6,5.7-13.2c2.1-1.9,3.2-4.6,3.7-7.3c0.3-1.7,0.1-3.5-1.5-4.5
		c-1.5-0.9-3.1-0.2-4.4,0.7c-1.5,1.1-2.8,2.6-3.6,4.4c-5,10.8-4.9,21.8-1.2,32.9C409.1,538.3,408.8,533.8,409.5,529.5z"/>
	<path class="st0" d="M677,534.7c0.7-6.1,0.7-12.3,5.5-17.3c2.2-2.3,3.9-5.1,4.3-8.5c0.2-1.6,0.1-3.2-1.4-4.1c-1.4-1-2.8-0.1-4,0.7
		c-2.1,1.4-3.5,3.5-4.4,5.8c-2.8,6.8-3.5,13.7-2.9,20.9c0.3,3.4,0.3,6.8,2.5,9.8C676.7,539.5,676.7,537.1,677,534.7z"/>
	<path class="st0" d="M590,449.3c-0.2-0.2-0.5-0.4-0.8-0.7c-0.1-0.3-0.3-0.5-0.7-0.2c-0.1,0.1,0.1,0.4,0.2,0.8l0,0l0,0
		c0.1,0.2,0.2,0.4,0.4,0.7c1.4,2.1,2.9,4.3,4.3,6.3c3.5,5.3,4.3,11.1,2.3,17.2c-0.5,1.7-1.1,3.6-1.5,5.5c-0.3,1.6-0.3,3.3,1.3,4.1
		c1.5,0.9,3.1,0.2,4.4-0.7c3.2-2.1,4.6-5.1,4.3-8.8C603.1,463.3,597.4,455.7,590,449.3z"/>
	<path class="st0" d="M555,239.6c2.1,2,4.5,3.7,6.2,5.9c3.4,4,7.2,7.9,7.1,13.9c0,1.7,1,3.2,2.3,4.3c2,1.7,4.4,3.6,6.9,2
		c2.6-1.7,2-4.9,0.5-7.3C572.9,249.1,564.1,244,555,239.6z"/>
	<path class="st0" d="M313.9,402.3c-1-0.7-2-1-2.9-1.4c-12.4-5.1-23.8-11.8-32.4-22.2c-3.2-3.8-5.6-8.1-5-13.4
		c0-0.8-0.1-1.5-0.1-2.3c0.7-1.3,0.3-2.4-1-3.2c-0.2-0.3-0.3-0.8-0.5-1.1l0,0c0.5-0.7,1-1.3,1.5-2c2.2,1.7,3.9,1.4,5.7-0.8
		c2.9-3.6,3.3-6.7,0.7-10.6c-3.3-5-8.1-7.9-13.4-9.9c-1.4-0.5-2.8-1.4-4.9-0.9c4,3.3,8.7,5.6,9.6,11c0,0.1-0.1,0.2-0.1,0.2
		c0.1,0.1,0.2,0.2,0.3,0.3c0,0.7,0.1,1.2,0.1,1.9c-0.4,0.1-0.5,0.4-0.3,0.9c-0.1,0.2-0.1,0.4-0.1,0.5c-1.7,0.9-2.4,1.9-0.1,2.9
		c0.1,0.5,0.1,1.1,0.2,1.6l-0.1,0.1h0.2c0.2,0.3,0.4,0.7,0.5,1c-0.7,0.2-1.3,0.5-2,0.8c-3.4-1.4-5.1-0.4-5.5,3.4
		c-0.8,7.7,3.2,13.7,7.7,19.4c9.2,9.2,19.5,16.5,31.6,21.3C306.7,401.1,310.1,402.6,313.9,402.3z"/>
	<path class="st0" d="M309.1,524.3c-5.7-7.9-13.5-13-21.8-17.6c-0.3,0.3-0.7,0.7-0.9,1c0.5,0.2,1.1,0.4,1.5,0.8
		c6.1,5.2,12,10.6,12.7,19.5c0.2,3.1,3.2,5,6.3,5.7c1.3,0.3,2.7,0.2,3.5-1.3c1.4-2.8,0.3-5.3-1.1-7.9
		C309.3,524.6,309.1,524.5,309.1,524.3z"/>
	<path class="st0" d="M290.6,240.9c-1.3-0.8-2.4-2-4.4-1.7c2.2,2,4.4,3.7,6.2,5.7c4,4,7.5,8.4,7.7,14.6c0.1,3.1,2.6,5.1,5.5,6.2
		c3.1,1.2,5-0.2,5.1-3.5c0.1-2.7-1.2-4.9-2.8-7C303.4,249.2,297.3,244.7,290.6,240.9z"/>
	<path class="st0" d="M554.9,507.4c2,1.9,4,3.6,6,5.6c4,3.9,7.4,8.3,7.5,14.3c0,1.6,1,2.9,2.2,4c2.1,1.9,4.5,3.8,7.1,2
		c2.6-1.9,1.9-4.9,0.4-7.3C572.8,517,564.1,511.8,554.9,507.4z"/>
	<path class="st0" d="M156.4,403.1c7.3,3.2,14.9,3.1,22.7,2.3c-0.7-0.2-1.2-0.4-1.9-0.5c-7.1-1.1-13.2-4-17.5-10
		c-1.1-1.5-2.7-2.3-4.7-2.3c-2.1,0-4,0.7-5,2.7c-0.9,2.1,0.3,3.6,1.6,5C153.3,401.5,154.8,402.3,156.4,403.1z"/>
	<path class="st0" d="M696.9,395.5c-0.8-1.1-1.6-2.1-3.1-2.6c-2.7-1-5.2-0.8-6.9,1.6c-1.7,2.5,0,4.5,1.9,6c1.2,1.1,2.7,1.9,4.3,2.5
		c7.2,2.8,14.6,3.2,22.2,2.2c-0.9-0.2-1.9-0.5-2.7-0.8C706.4,403.4,700.7,401,696.9,395.5z"/>
	<path class="st0" d="M587.6,532.6c-1.6-2.2-3.4-2.1-4.6,0.3c-0.9,1.9-1.1,3.8-0.9,5.9c0.9,7.4,3.8,14,8.1,20
		c1.1,1.5,2.1,3.1,4.6,4.3c-3.1-4.3-4.8-8.3-5.5-12.8c-0.5-3.7-0.2-7.3-0.1-11C589.3,537,589,534.6,587.6,532.6z"/>
	<path class="st0" d="M731.1,428.1c-2.7-0.3-4.7-0.3-7.4,0.4C726.5,429.6,728.5,429.7,731.1,428.1z"/>
	<path class="st0" d="M175.1,364.7c1-1.2,2.1-2.4,3.1-3.6c10.7-13.2,22.6-25.3,36.4-35.3c12.5-8.9,26-15.7,42-14.9
		c2.5,0.1,4.8-0.7,7.1-1.9c2.5-1.3,4.4-3.3,4.1-6.3c-0.2-3.1-2.3-4.7-5-5.7c-6.7-2.4-13.7-2.1-20,0.2c-5.8,2.2-11.7,4.7-17,8.6
		c-9.1,6.8-17.6,14.1-25.2,22.5c-10,10.9-19.3,22.6-26.4,35.7l0,0c-0.7,1-1.7,1.7-1.2,3.4C174.1,366.5,174.7,365.6,175.1,364.7z"/>
	<path class="st0" d="M262.9,232.8L262.9,232.8c-0.2-0.1-0.4-0.1-0.7-0.2c0.1,0.2,0.2,0.3,0.4,0.5c0.5,1,1.2,1.9,2.5,2.1
		c18.7,21.5,33.9,44.9,42.1,72.4l0.1,0.2c0,0.3,0.1,0.7,0.1,0.9c2.3,5.3,2.8,11,3.3,16.6c1.1,12.5-1.1,24.2-9.7,34
		c-2.4,2.7-4.5,5.8-5.6,9.4c-1.4,4.6,0.8,7.9,5.5,7.4c7.5-0.7,13.7-3.7,17.6-10.8c5.1-9.6,5.3-19.9,4.1-30.3
		c-1.2-11-5-21.5-8.8-31.7c-11.2-26.3-26.8-49.5-48.6-68.2c0,0,0,0,0.1,0C264.8,233.8,263.9,233.2,262.9,232.8z"/>
	<path class="st0" d="M594.6,295c0-0.9-0.5-1.4-1.2-1.9c-3.6-6.2-4.6-12.9-4.1-20c0.1-1.7,0.2-3.6-0.2-5.3c-0.4-2-1.1-4.6-3.6-4.6
		c-2.7,0-2.7,2.7-3.2,4.7c-0.1,0.7-0.2,1.3-0.1,2c1.1,9.1,4.4,17.1,10.8,23.9l0,0C593.3,294.5,593.6,295.2,594.6,295z"/>
	<path class="st0" d="M201.3,517.5c3.5,1.1,8.4,0,10.9-2.7c2.5-2.8,2.2-6.1-0.9-8.3c-3.9-2.7-8.2-2.7-12.5-1.9
		c-7.9,1.7-14.4,6-20.5,10.8c-10.5,8.2-19.6,17.5-25.8,29.4l0,0c-0.2,0.5-0.4,1-1,2c1.1-0.5,1.4-1,1.4-1.6c1.3-1.6,2.6-3.3,3.9-4.9
		c7.5-9.3,16.1-17.3,27.3-22.1C189.7,515.7,195.5,515.7,201.3,517.5z"/>
	<path class="st0" d="M159.6,496.6c8.2-10.5,18.3-19,29.8-25.5c12.7-7.2,26.2-12.1,40.9-13.6c18.1-2,34.9,0.5,49.1,13
		c3.6,3.2,7.6,5.2,12.2,6.2c4,1,8,0.7,11.2-2.3c0.7-1.5,2.3-2,2.7-3.9c1.6-8.5-0.5-14.4-7.7-19.3c-8.5-5.9-18.2-8.2-28.4-8.9
		c-7.7-0.5-15.6,0.1-23.3,0.5c-0.5,0.1-1.1,0.3-1.6,0.4c-20.9,3.3-40.1,10.8-57.5,23c-12.4,8.6-23,19.1-30.1,32.7l0,0
		c-0.2,0.5-1,0.9-0.5,1.9c0.3-0.7,0.7-1.1,1-1.6C158.2,498.3,159,497.4,159.6,496.6z"/>
	<path class="st0" d="M163.5,369.7c0,0.1,0.1,0.1,0.2,0.2c0.1-0.4,0.2-1,0.3-1.4l-0.1-0.1C163.4,368.6,163.4,369.1,163.5,369.7z"/>
	<path class="st0" d="M572.3,344.8c0.2-0.7,0.4-1.2,0.7-1.9c0.1-0.2,0.1-0.4,0.2-0.7c0.4-1.6,0.9-3.3,1.2-4.9c0.1-1,0.1-2.1,0.2-3.1
		c1.1-5.7,0.4-11.3-0.4-16.9c-2.9-18.3-10.5-34.9-20.5-50.3c-5.5-8.4-11.6-16.4-19.7-22.6c-0.5-0.4-1-1.4-1.9-1.1l0,0l0,0
		c-0.2,0.1-0.4,0.2-0.7,0.4l0,0c0.5,0.4,1.2,1,1.7,1.4c2.2,4,4.8,7.7,7.3,11.5c8.1,12,14.1,24.9,18,38.8c3.6,13.1,4.8,26.2-0.2,39.3
		c-0.3,2.1-1.3,3.7-2.3,5.5c-1.5,2.7-3.2,5.3-3.9,8.4c-1.1,4.3-0.1,7.7,2.7,9.6c2.8,1.7,6.3,1,9.6-2.1
		C568.1,353.1,570,348.9,572.3,344.8z"/>
	<path class="st0" d="M263.4,244L263.4,244L263.4,244z"/>
	<path class="st0" d="M265.2,245.3c3.3,5,6.8,9.9,9.8,15.2c8.8,15.1,16,30.8,18,48.4c0,5.3-0.1,10.6-0.1,15.9
		c-0.7,5.7-2.5,11-5.5,15.9c-1.7,2.9-3.4,6-4,9.5c-0.5,3.4,0.2,6.5,3.4,8.4c3.6,2.1,6.7,0.5,9.4-1.9c9.3-10.1,11.7-22.1,10-35.3
		c-0.4-3.6-0.9-7.3-1.4-10.9c-3.4-13.2-8.6-25.7-15.6-37.5c-6.4-10.7-13.5-20.7-23.4-28.6c-0.5-0.7-1.1-1.2-1.9-0.9
		c0-0.1,0-0.1-0.1-0.3c-0.1,0.1-0.2,0.3-0.2,0.4l-0.1,0.1l0,0C264,244.5,264.5,244.9,265.2,245.3z"/>
	<path class="st0" d="M541.2,503.8c-0.1,0-0.2,0.1-0.2,0.2c0.1,0.5,0.5,1,1.1,1.1c0.1-0.1,0.2-0.2,0.3-0.3
		C542.2,504.2,541.9,503.8,541.2,503.8z"/>
	<path class="st0" d="M356.6,306.1h-0.1l0,0H356.6z"/>
	<path class="st0" d="M460.3,262.5c-1.3,2.3-2.6,4.7-3.8,7c-0.9,3.4-2.9,6.2-4.7,9.2c-11.8,20.7-26.1,39.5-44.7,54.5
		c-10.7,8.7-22.5,15.4-36.3,17.8c-6.1,1.1-11.8,3.3-16.9,7c-2.5,1.7-3.5,4.1-3.8,6.7c-0.3,2.3,0.5,4.9,3.1,5.7
		c2.7,1,5.6,1.3,8.6,1.1c8.8-0.8,16.6-4.1,24-8.8c13.9-8.7,25.1-20.4,35.3-32.9c6.7-8.1,12.8-16.6,18.5-25.3
		c4.5-6.7,8-13.9,11.9-20.8c0.3-0.5,0.7-1.1,1-1.5c2.4-0.4,1.5-2.5,1.9-3.9l0.1-0.1c0.2-0.4,0.3-0.9,0.5-1.3
		c2.1-4.6,4.4-9.1,5.9-13.9l0,0c0.1-0.4,0.2-1,0.3-1.5c0.7-0.2,0.7-0.8,0.5-1.3c0-0.1-0.4-0.1-0.4-0.1c-0.2,0.3-0.3,0.8-0.4,1.2l0,0
		C460.3,261.3,460.3,261.9,460.3,262.5z"/>
	<path class="st0" d="M646.4,344.7c14.8-6,27.2-15.7,38.5-26.7c7.7-7.4,14.9-15.3,20.4-24.6c0.5-0.3,0.7-0.7,0.3-1.2
		c-0.3,0.2-0.5,0.4-0.9,0.7c-12.3,14.3-26.5,26.2-44,33.7c-12.3,5.3-25,8.2-38.3,3.5c-1.6-0.5-3.3-0.5-4.9-0.5
		c-3.1-0.1-5.6,1-6.8,3.8c-1.2,2.9-0.5,5.7,1.6,8.1c3.1,3.3,6.8,5.3,11.1,6.4C631.6,349.5,639.1,347.8,646.4,344.7z"/>
	<path class="st0" d="M461.1,272.2c-0.1-0.2-0.1-0.4-0.2-0.5c-0.1,0.1-0.3,0.2-0.3,0.3c0,0.2,0.1,0.3,0.2,0.5
		C460.7,272.4,461,272.3,461.1,272.2z"/>
	<path class="st0" d="M692.7,499.4C692.7,499.4,692.6,499.4,692.7,499.4v0.1C692.7,499.5,692.7,499.5,692.7,499.4z"/>
	<path class="st0" d="M693,500.1c-0.1-0.2-0.1-0.4-0.2-0.7c0,0.2,0,0.4,0,0.8C692.8,500.2,693,500.1,693,500.1z"/>
	<path class="st0" d="M698.1,509.9L698.1,509.9c0.1,0.2,0.1,0.4,0.2,0.7C698.3,510.4,698.2,510.2,698.1,509.9
		C698.2,509.9,698.2,509.9,698.1,509.9C698.2,509.9,698.1,509.9,698.1,509.9L698.1,509.9z"/>
	<path class="st0" d="M163.6,509.2c-0.2-0.2-0.4-0.4-0.7-0.5c-0.2,0.3-0.4,0.5-0.7,0.9C162.9,509.8,163.3,509.7,163.6,509.2z"/>
	<path class="st0" d="M314.6,295.4c5.3,10,9.6,20.5,11.9,31.6c2.5,12.2,2.9,24.1-3.8,35.3c-0.8,1.2-1.1,2.7-1.4,4.1
		c-0.9,4.6,1.4,8.8,5.8,10.5c3.9,1.5,10.8-0.1,12.4-3.4c3.4-6.8,5-14,4.3-21.6c-1.5-15.1-7.7-28.5-14-41.9
		c-10.1-18.9-22.2-36.3-36-52.7c-5.2-6.2-11.2-11.9-16.3-18.3c-0.7-0.8-2-2.2-3.6-1.7l-0.1-0.1v0.1
		C289.9,254.8,303.7,274.1,314.6,295.4z"/>
	<path class="st0" d="M273.6,236.9c0.1,0.1,0.1,0.1,0.2,0.2c0-0.1,0-0.2,0.1-0.3C273.7,236.8,273.7,236.9,273.6,236.9z"/>
	<path class="st0" d="M624.8,304.9c4.6-4.5,8.3-9.6,13.1-13.9c7.4-6.4,15.6-9.3,25.3-6.9c2.2,0.5,4.5,0.7,6.7,0.4
		c4-0.5,5.5-4.1,3.1-7.4c-1-1.3-2.3-2.2-3.7-2.7c-7.1-2.7-13.9-1.5-20.3,2.2c-11.2,6.5-19.2,16.1-24.9,27.7l0,0l0,0l0,0
		c0,0.3,0,0.5,0,0.9C624.4,305.2,624.6,305,624.8,304.9z"/>
	<path class="st0" d="M326.3,295.2L326.3,295.2L326.3,295.2c0.2,0,0.3,0,0.5,0c-0.1-0.1-0.2-0.2-0.3-0.4c-0.3-0.3-0.7-0.8-1-1.1
		c-1-2.3-2.2-4.6-2.9-6.9c-1.7-4.9-1.4-10-1.2-15.2c0.1-2.6-0.1-5.1-2-7.2c-1.5-1.7-3.1-1.7-4.3,0.4c-1.1,2-1.3,4.1-1.1,6.4
		c0.7,5.7,2.8,10.9,5.6,15.9c1.4,2.6,3.1,5,6,6.4c0,0-0.3,0.2-0.3,0.3C325,294.8,325.6,295,326.3,295.2L326.3,295.2L326.3,295.2z"/>
	<path class="st0" d="M262.1,500.5c0,0,0.2,0.4,0.3,0.7c0.2-0.1,0.4-0.3,0.5-0.4C262.8,500.5,262.6,500.1,262.1,500.5z"/>
	<path class="st0" d="M530.3,500.5c-0.1,0,0.2,0.4,0.3,0.7c0.2-0.1,0.4-0.3,0.7-0.4C531.1,500.5,530.8,500,530.3,500.5z"/>
	<path class="st0" d="M263.1,501.9c0.5,0.9,1.2,1.6,2.9,2c-0.8-1.5-1.5-2.2-2.4-2.7l0,0c-0.2-0.1-0.3-0.3-0.5-0.4
		c-0.2,0.1-0.4,0.3-0.5,0.4C262.7,501.4,262.9,501.7,263.1,501.9z"/>
	<path class="st0" d="M530.7,501.1c0.2,0.2,0.4,0.4,0.7,0.8c0.3-0.2,0.5-0.3,0.9-0.5c-0.2-0.2-0.5-0.4-0.8-0.5
		C531.1,500.9,530.9,501,530.7,501.1z"/>
	<path class="st0" d="M430.3,517.1c0.7-0.2,1.3-0.3,0.8-1.3C430.4,516.1,430.2,516.5,430.3,517.1c-0.8,0.1-0.3,0.4-0.1,0.7
		C430.3,517.7,430.3,517.4,430.3,517.1z"/>
	<path class="st0" d="M531.2,232.8L531.2,232.8c-0.2-0.1-0.7-0.3-0.8-0.2c-0.3,0.3,0,0.4,0.3,0.7c0.1-0.1,0.2-0.2,0.3-0.2
		c-0.1,0.1-0.2,0.2-0.3,0.2c0.2,0.2,0.4,0.4,0.7,0.8c0.5,0.5,1,1.1,1.5,1.6c1.5,1.7,3.1,3.5,4.6,5.3c18.9,22.1,33.7,46.4,39.9,75.1
		c2.2,10,2.7,20.3-0.9,30.2c-0.9,4.9-3.8,8.7-6.8,12.4c-2.2,2.7-4.3,5.5-5.6,8.6c-1,2.3-1.9,4.7,0,7c1.9,2.2,4.5,2.2,7.1,1.7
		c8.2-1.4,13.4-6.4,17-13.5c5.1-12.8,3.8-25.6,0.7-38.4c-5.8-23-16.8-43.5-30.8-62.6c-7.2-9.7-14.9-18.9-24.4-26.5
		c-0.7-0.5-1.2-1.1-1.9-1.6l0,0C531.6,233.1,531.4,232.9,531.2,232.8z"/>
	<path class="st0" d="M430.1,511.8c0-0.2,0-0.5,0.1-0.8c0.4-0.3,0.9-0.8,0.7-1.4c-0.7,0.2-1.2,0.5-0.7,1.3c-0.2,0.1-0.3,0.1-0.5,0.2
		C429.8,511.4,430,511.6,430.1,511.8z"/>
	<path class="st0" d="M431.4,509c-0.7-0.1-0.8,0.2-0.7,0.8C431.3,509.6,431.5,509.4,431.4,509z"/>
	<path class="st0" d="M273.3,504.5c0.1-0.1,0.2-0.2,0.3-0.3c-0.2-0.1-0.4-0.2-0.7-0.3C272.8,504.3,273,504.4,273.3,504.5z"/>
	<path class="st0" d="M273.6,504.2c-0.1,0.1-0.2,0.2-0.3,0.3c0.2,0.2,0.4,0.4,0.7,0.7c0.1-0.1,0.2-0.2,0.3-0.2
		C274,504.6,273.8,504.4,273.6,504.2z"/>
	<path class="st0" d="M542.6,271.4c-0.3,0.1-0.3,0.3,0,0.4c0,0,0.1,0,0.2-0.1c0,0,0-0.1,0-0.2C542.7,271.5,542.6,271.4,542.6,271.4z
		"/>
	<path class="st0" d="M324.6,561.9L324.6,561.9L324.6,561.9c0.3,0.2,0.8,0.5,1.1,0.8c0.1,0.1,0.3,0.4,0.3,0.3
		c0.4-0.2,0.2-0.4,0.1-0.7c-0.3-0.4-0.7-0.8-1-1.2c-3.5-6-4.6-12.4-4.1-19.3c0.1-2,0.2-4-0.2-6c-0.4-2.1-1.1-4.8-3.9-4.6
		c-2.5,0.2-2.5,2.7-2.9,4.7c-0.1,0.8-0.2,1.5-0.2,2.3C315,547.2,318.3,555.2,324.6,561.9L324.6,561.9L324.6,561.9z"/>
	<path class="st0" d="M376.4,406c-13.5,1.3-27.2,2.4-39.9,8.1c-4.3,2-8.5,3.8-12.3,6.8c-4.1,3.2-7.6,6.8-9.7,11.8
		c-1.2,3.1-1.6,6.2,0.8,8.8c2.6,2.8,6,2.5,9.3,1.2c2.3-0.9,4.4-2.4,6-4.1c8.7-9.4,19.4-15.2,31.6-19c7.9-2.4,15.7-4.6,23.7-6.1
		c15.1-2.7,30.3-3.7,45.7-2.9c5.1,0.2,10.3,0.5,15.3,0.8c-8.9-2.7-18-3.8-27-4.7C405.5,405.1,390.9,404.6,376.4,406z"/>
	<path class="st0" d="M524.3,417c5.7,1.4,11.7,1.5,17.5,2c7.9,0.7,15.7,1.9,23.7,1.3c-12.2-2-24.3-4.3-36.1-7.9
		c-23.8-7.2-44.6-18.8-58.8-40c-1.7-2.6-4-4.8-6.8-6.3c-2.9-1.7-6.1-2.6-9.1-0.2c-2.7,2.2-3.3,5.1-2.5,8.4
		c2.2,10.3,8.9,17.3,17.1,23c8.7,6.1,18.4,9.8,28.5,13.1C506.4,413.2,515.5,414.7,524.3,417z"/>
	<path class="st0" d="M525.2,407.1c9.4,3.4,19,5.7,28.7,8c5.5,1.3,11.1,1.6,16.7,2.3c0-0.1,0.1-0.3,0.1-0.4
		c-0.2-0.1-0.5-0.3-0.8-0.4c-1.4-0.4-2.8-0.8-4.1-1.2c-16-4.3-31.5-9.8-45.7-18.7c-15.6-9.7-27.5-22.4-30.5-41.4
		c-0.5-3.4-1.7-6.8-4.1-9.4c-2.9-3.2-6.3-3.2-9.3,0c-2.3,2.5-3.4,5.5-3.5,8.8c-0.2,11.5,4.8,20.6,12.4,28.6
		C496.2,395,510.3,401.6,525.2,407.1z"/>
	<path class="st0" d="M341.6,458.9c5.1,0.4,8.1-2.9,10.8-6.2c6.9-8.4,15.5-14.4,25.1-19.1c24.5-12.1,50.8-16.7,77.9-17.7
		c1.2,0,2.4,0,4.1,0c-0.7-0.4-0.9-0.8-1.2-0.9c-0.7-0.2-1.3-0.3-2-0.3c-23-1.7-45.8-0.4-68.4,4c-6.5,1.3-13.1,2.9-19.4,5.2
		c-9.9,3.6-19.5,7.7-26.8,15.8c-3.4,3.7-6.3,7.9-6,13.3C336,457,337.8,458.6,341.6,458.9z"/>
	<path class="st0" d="M508.5,347.7c-0.4-3.4-1.5-6.8-3.7-9.6c-2.4-3.2-5.6-4.6-8.3-3.6c-3.5,1.3-4.3,4.3-4.4,7.5
		c-0.5,13.5,4.1,25.1,12.7,35.3c10.7,12.9,24.6,21.1,39.9,27.2c8.1,3.3,16.5,5.6,25.3,6.3c-0.4-0.2-0.9-0.5-1.4-0.8
		c-7.7-2.9-15.2-6.4-22.4-10.6C525.6,387.9,511.9,371.5,508.5,347.7z"/>
	<path class="st0" d="M365.5,478.1c1.7-2.1,2.7-4.6,3.5-7.2c1.9-6,5-11.1,9.3-15.7c11.8-12.9,26.7-20.6,42.9-26.5
		c16.9-6.2,34.5-8.7,52.4-9.4c-0.7-0.2-1.3-0.5-2-0.5c-3.6-0.2-7.1-0.7-10.7-0.7c-20.2,0-39.7,3.6-58.5,10.9
		c-17.7,7-33.9,15.9-44.7,32.4c-3.2,4.9-4.1,10.3-1.3,15.8C358.6,481.4,362.5,481.8,365.5,478.1z"/>
	<path class="st0" d="M377.3,498.5c3.6,0.4,5.8-1.6,6.9-6.7c0.2-1,0.3-2,0.4-2.9c2-18.4,9.7-33.7,24.4-45.3
		c11.3-8.8,24.4-13.9,38.3-17c6.8-1.5,13.7-2.3,20.6-3.2c-2.7-1.2-5.3-0.4-8.1-0.2c-20.6,1.4-39.5,8.1-56.9,19
		c-13.1,8.2-23.9,18.5-29.8,33.3c-1.9,4.7-3.2,9.5-3.2,14.6C370,494.2,373.4,498.1,377.3,498.5z"/>
	<path class="st0" d="M353.1,389.4c-8.7,3.4-17,8.3-24.3,14.5c-6.7,5.7-13.3,11.2-17.3,19.2c0.2,0.2,0.3,0.5,0.5,0.8
		c2.5-2.3,4.9-4.8,7.6-7c12.9-10,27.3-15.9,44-15.1c3.8,0.2,7.4,1.4,11.3,0.8c2.9-0.5,6-3.7,6.5-7.1c0.5-3.7-0.8-5.9-4.4-7.2
		C368.9,385.5,360.5,386.6,353.1,389.4z"/>
	<path class="st0" d="M396.7,491.3c2.9,0.4,5.5-0.7,7-3.5c1.6-2.9,1.3-6.1,0.9-9.2c-0.3-2.1-0.4-4.1,0-6.3
		c2.1-10.9,9.4-18.2,17.2-25.1c5.8-5.1,12.5-8.8,19.6-12c6.8-3.1,14-5.1,21.1-7.5c-2.2,0.2-4.5,0.2-6.7,0.5
		c-15.4,2.4-28.9,9.1-41.1,18.3c-8.3,6.3-15.7,13.6-20.6,23c-2.7,5.1-4.5,10.4-3.3,16.4C391.4,489.6,393.7,491,396.7,491.3z"/>
	<path class="st0" d="M430.5,388.8c1.3,2.8,3.5,4.9,5.9,6.7c7.7,5.8,16.8,8.6,26.2,10.5c4.4,0.9,8.7,1.4,13.2,0.5
		c-3.2-0.9-6.3-1.4-9.3-2.7c-9.9-4.4-15.5-12.3-19-22.1c-2.1-5.8-7.3-8-12.9-5.6C430.5,377.8,428.5,384.2,430.5,388.8z"/>
	<path class="st0" d="M466.2,431.6c-1.9-0.4-3.1-0.2-4.3,0c-11.1,2-21.2,6.8-30.5,13c-7.5,5-14.6,10.7-18.9,19c-1.5,2.8-2.6,6-2,9.3
		c0.4,2.6,1.7,4.8,4.6,5.1c3.1,0.3,3.7-2.3,4.5-4.5c0.2-0.5,0.4-1.1,0.4-1.6c0.4-5.1,3.2-9.3,6.3-13
		C437.1,446.4,449.6,436.5,466.2,431.6z"/>
	<path class="st0" d="M322.3,476.5C322.3,476.6,322.3,476.6,322.3,476.5C322.3,476.6,322.3,476.6,322.3,476.5L322.3,476.5z"/>
	<path class="st0" d="M321.9,462c-3.7-15.3-14-24.9-27.6-31.4l0,0c-0.2-0.1-0.5-0.2-0.8-0.2c0.1,0.2,0.2,0.4,0.3,0.7
		c2.5,2.4,4.9,4.8,7.5,7.2c9.9,9.2,14.4,20.2,11.3,33.7c-0.7,2.9-0.4,6,0.9,8.8c1.2,2.6,2.9,4.1,6.1,2.8c0.7-1.6,1.4-3.2,2.1-4.8
		c0.1-0.4,0.1-0.8,0.2-1.2c0.1-0.3,0.3-0.7,0.4-1.1c0.1-1,0.1-2,0.2-2.9C322.9,469.7,322.8,465.8,321.9,462z"/>
	<path class="st0" d="M409.4,396.4c2.1-0.9,3.8-2.3,5.3-3.9c5.7-6.1,9.2-13.4,11.8-21.2c1.6-4.9,3.2-9.8,2.8-15.2
		c-3.6,13.3-12.7,21.4-24.6,26.7c-1.3,0.5-2.5,1.5-3.4,2.7c-2.2,2.8-2.3,6.4-0.1,9.3C403.1,397.3,406,397.8,409.4,396.4z"/>
	<path class="st0" d="M556.8,367.9c-0.2-2.9-2.1-5.1-4.7-6.5c-4.3-2.3-7.6-0.4-7.9,4.4c-0.2,3.8,1.5,6.9,3.9,9.7
		c3.9,4.6,8.8,7.9,14.2,10.5c11.6,5.8,23.7,9.8,36.8,9.4c-1.2-0.2-2.4-0.4-3.6-0.7c-10.3-1.9-20.1-5.1-28.7-11.2
		C561.4,379.5,557.4,374.9,556.8,367.9z"/>
	<path class="st0" d="M580.3,401.3c-0.4-0.2-1-0.4-1.5-0.7c-11.1-4.1-20.9-10.4-29.3-18.8c-4.7-4.8-8.2-10.3-8.1-17.3
		c0-2.5-0.9-4.8-2.4-6.9c-1.1-1.4-2.4-2.9-4.5-2.4c-1.9,0.5-2.2,2.3-2.6,3.9c-1.1,4.8,1.3,8.8,3.5,12.7c4,7.3,10.4,12.4,16.9,17.3
		c1.3,1,3.1,1.4,3.6,3.2c1.9,0.2,3.1,1.6,4.4,2.7l0,0c0.8,0.1,1.5,0,2.1,0.7c6.2,2.3,12,6,19.6,6.7
		C581.1,401.8,580.7,401.5,580.3,401.3z"/>
	<path class="st0" d="M338.7,389.5c3.4-0.4,6.3-2.2,8-5.5c1.2-2.6,0.1-4.5-2.8-4.5c-2.3,0-4.4,0.9-6.2,2.1c-3.7,2.4-7.7,3.3-12,3.6
		c-8.3,0.5-16.1-1.4-23.8-4.4l0,0c-0.5-0.2-1-0.3-1.5-0.5l0,0c0.4,0.2,0.9,0.5,1.2,0.8C312.9,388.6,325.3,391.3,338.7,389.5z"/>
	<path class="st0" d="M326.3,478.8c-0.3,1.4-0.3,3.1,1.1,3.9c1.5,1,2.9,0.3,4.4-0.5c3.7-2.4,5.1-6.8,3.6-12.2
		c-2.3-8.3-7.1-14.9-13.6-20.5l0,0c-0.2-0.1-0.4-0.2-0.7-0.3c0,0.2,0.1,0.4,0.1,0.7c1.3,2.1,2.7,4,4,6.1c3.7,5.7,4.5,11.7,2.3,18.1
		C327,475.5,326.6,477.1,326.3,478.8z"/>
	<path class="st0" d="M531.6,335.9c5.8,3.6,8.8,8.4,6.9,15.6c-0.4,1.7,0.8,3.8,2.7,4.8c2.1,1,4,0.9,5.8-0.8c2.7-2.6,3.1-6.4,0.7-10
		c-4-6.2-10.4-9.1-17.3-10.6C530.8,335.2,531.1,335.7,531.6,335.9z"/>
	<path class="st0" d="M447,405.2c-0.3-0.1-0.5-0.3-0.9-0.4c-7.3-1.1-13.5-4-18-10.3c-1-1.4-2.5-2.2-4.4-2.2
		c-2.3-0.1-4.3,0.5-5.2,2.7c-0.9,2.1,0.3,3.6,1.6,5c1.2,1.3,2.8,2.2,4.5,2.8c7.3,2.9,14.8,3.3,22.6,2.7
		C447.1,405.5,447.1,405.4,447,405.2z"/>
	<path class="st0" d="M376.9,345.3c13.5-5,24.9-13.4,35.4-23c9.5-8.5,18.2-17.8,24.9-28.7c0.3-0.3,0.5-0.7,0.2-1.1
		c-0.2,0.1-0.4,0.2-0.8,0.4c-1,1.1-2,2.1-2.9,3.2c-11.5,13-24.8,23.4-40.7,30.4c-12.3,5.5-25,8.3-38.3,3.9c-2-0.7-4.1-0.9-6.2-0.8
		c-4.5,0.3-7.1,3.8-6,8.1c0.9,3.4,3.3,5.7,6.2,7.3C358,350.2,367.5,348.7,376.9,345.3z"/>
	<path class="st0" d="M362.8,307.1c1.2-1.3,2.4-2.6,3.7-3.8c4.6-4.1,9.7-6.7,16.6-2.5c2.6,1.6,5.5,1.4,8.4,0.8
		c0.2,0,0.3-0.1,0.5-0.1v0.1c5.7-4.8,5.6-9.8-0.4-12.8c-5.5-2.7-14.7-0.7-19.1,4c-3.8,4.3-8.2,8.2-10,13.7l0,0
		c-0.1,0.3-0.2,0.5-0.2,0.9C362.4,307.3,362.6,307.2,362.8,307.1z"/>
	<path class="st0" d="M536.9,379.5c-7.7-9.9-13.2-20.7-11.5-33.9c0.3-2.8,0-5.8-1.1-8.5c-1-2.3-2.2-4.1-5-4.3c-2.9-0.1-4,1.9-5,4.1
		c-0.3,0.9-0.5,1.6-0.8,2.5c-1.9,7.5,0.5,14.4,3.8,20.9c5.6,11,13.6,20.1,22.9,28.1c6.7,5.8,13.6,11.2,22.1,14.2l0,0
		c0.2,0,0.5,0,0.8,0.1c-0.2-0.2-0.3-0.3-0.5-0.5C552.8,396.1,544,388.8,536.9,379.5z"/>
	<path class="st0" d="M310.9,424.7L310.9,424.7c-0.2,0.4-0.1,0.4,0.2,0.2c0.3-0.3,0.5-0.7,0.9-0.9c-0.2-0.2-0.3-0.5-0.5-0.8
		C311.2,423.7,311,424.1,310.9,424.7z"/>
	<path class="st0" d="M447.3,365.6c11.6-11,23.4-21.5,37.7-29c11.3-6.1,23-10.5,36.4-7.3c5.8,1.4,11.8,1,16.8-3.1
		c1.4-2,0.5-3.5-0.9-4.9c-2.3-2.3-4.9-4-8.1-4.7c-7.6-1.9-15.1-0.5-22.2,2.1c-15.7,5.8-29.1,15.4-41.6,26.3
		c-6.9,6-13.5,12.2-18.7,20l0,0c-0.2,0.2-0.3,0.5-0.5,0.8c-0.3,0.4-0.5,0.9-0.9,1.3l0,0c0,0.2-0.1,0.3-0.1,0.5
		c0.2-0.1,0.3-0.1,0.5-0.2l0,0l0,0c0.4-0.4,0.8-0.8,1.2-1.2l0,0C447.1,365.9,447.2,365.8,447.3,365.6z"/>
	<path class="st0" d="M300.2,380.5L300.2,380.5L300.2,380.5z"/>
	<path class="st1" d="M674.1,395.3c0-25.8-16-48.9-39.5-58.3c1-2.8,1.5-5.7,1.5-8.7c0-14.1-11.5-25.6-25.6-25.6
		c-12.3,0-22.6,8.7-25,20.2c-3.3-3-7.6-4.8-12.3-4.8c-8.7,0-16.1,6.1-17.9,14.3H231.6c-1.9-8.2-9.2-14.3-17.9-14.3
		c-4.7,0-9,1.8-12.3,4.7c-2.5-11.5-12.8-20.1-25-20.1c-14.1,0-25.6,11.5-25.6,25.6c0,3.1,0.6,6.2,1.7,9.1
		c-22.9,9.7-38.5,32.7-38.5,57.9c0,25.2,15.5,48.2,38.5,57.9c-1.1,2.9-1.7,6-1.7,9.1c0,14.1,11.5,25.6,25.6,25.6
		c12.3,0,22.6-8.7,25-20.2c3.3,2.9,7.5,4.7,12.2,4.7c8.7,0,16-6.1,17.9-14.2h323.6c1.9,8.1,9.2,14.2,17.9,14.2c4.7,0,9-1.8,12.3-4.7
		c2.5,11.6,12.8,20.3,25.1,20.3c14.1,0,25.6-11.5,25.6-25.6c0-3-0.5-5.9-1.5-8.7C658.1,444.2,674.1,421.1,674.1,395.3z"/>
	<path class="st2" d="M610.4,444.9L610.4,444.9L610.4,444.9H176.5h-0.1l0,0l0,0c-9.4,0.1-17.1,7.7-17.1,17.2s7.7,17.2,17.2,17.2
		s17.2-7.7,17.2-17.2H189c0,6.9-5.6,12.5-12.5,12.5S164,469,164,462.1s5.6-12.5,12.5-12.5h15.7h13.3c-0.8,1.4-1.3,3-1.3,4.7
		c0,5.2,4.2,9.4,9.4,9.4s9.4-4.2,9.4-9.4h-4.7c0,2.6-2.1,4.7-4.7,4.7c-2.6,0-4.7-2.1-4.7-4.7s2.1-4.7,4.7-4.7h359.6
		c2.6,0,4.7,2.1,4.7,4.7s-2.1,4.7-4.7,4.7c-2.6,0-4.7-2.1-4.7-4.7h-4.7c0,5.2,4.2,9.4,9.4,9.4s9.4-4.2,9.4-9.4
		c0-1.7-0.5-3.3-1.3-4.7h13.3h15.7c6.9,0,12.5,5.6,12.5,12.5s-5.6,12.5-12.5,12.5s-12.5-5.6-12.5-12.5h-4.7
		c0,9.5,7.7,17.2,17.2,17.2s17.2-7.7,17.2-17.2C627.4,452.6,619.8,444.9,610.4,444.9z"/>
	<path class="st2" d="M176.3,345.8L176.3,345.8L176.3,345.8H610h0.1l0,0l0,0c9.4-0.1,17.1-7.7,17.1-17.2s-7.7-17.2-17.2-17.2
		s-17.2,7.7-17.2,17.2h4.7c0-6.9,5.6-12.5,12.5-12.5s12.5,5.6,12.5,12.5s-5.6,12.5-12.5,12.5h-15.7H581c0.8-1.4,1.3-3,1.3-4.7
		c0-5.2-4.2-9.4-9.4-9.4s-9.4,4.2-9.4,9.4h4.7c0-2.6,2.1-4.7,4.7-4.7c2.6,0,4.7,2.1,4.7,4.7c0,2.6-2.1,4.7-4.7,4.7H213.5
		c-2.6,0-4.7-2.1-4.7-4.7s2.1-4.7,4.7-4.7c2.6,0,4.7,2.1,4.7,4.7h4.7c0-5.2-4.2-9.4-9.4-9.4s-9.4,4.2-9.4,9.4c0,1.7,0.5,3.3,1.3,4.7
		h-13.3h-15.7c-6.9,0-12.5-5.6-12.5-12.5s5.6-12.5,12.5-12.5s12.5,5.6,12.5,12.5h4.7c0-9.5-7.7-17.2-17.2-17.2s-17.2,7.7-17.2,17.2
		C159.3,338,166.9,345.7,176.3,345.8z"/>
	<path class="st2" d="M158.7,349.3L157,345c-20.8,8-34.7,28.3-34.7,50.5c0,22.2,14,42.5,34.7,50.5l1.7-4.4
		c-19-7.3-31.7-25.8-31.7-46.1C127,375.2,139.8,356.6,158.7,349.3z"/>
	<path class="st2" d="M631.1,345l-1.7,4.4c19,7.3,31.7,25.8,31.7,46.1c0,20.3-12.7,38.8-31.7,46.1l1.7,4.4
		c20.8-8,34.7-28.3,34.7-50.5C665.8,373.3,651.9,353,631.1,345z"/>
	<path class="st2" d="M274.2,423.1l1.8,8.5l5.6-12.5h2.1l-7.2,16.2h-1.8l-1.7-8.6l-4.8,8.6h-1.8l-1.5-16.2h2.1l1.2,12.5l4.8-8.5
		L274.2,423.1L274.2,423.1z"/>
	<path class="st2" d="M289.8,428l-1.3,7.2h-2l2.9-16.2h2l-1.3,7.2h6.7l1.3-7.2h2l-2.9,16.2h-2l1.3-7.2H289.8z"/>
	<path class="st2" d="M309.2,419l-2.9,16.2h-2l2.9-16.2H309.2L309.2,419z"/>
	<path class="st2" d="M321.2,420.8l-2.6,14.5h-2l2.6-14.5h-3.9l0.3-1.8h9.8l-0.3,1.8H321.2L321.2,420.8z"/>
	<path class="st2" d="M340.5,419l-0.3,1.8h-6.8l-1,5.5h6.8l-0.3,1.8h-6.8l-1,5.5h6.8l-0.3,1.8h-8.8l2.9-16.2h8.8V419z"/>
	<path class="st2" d="M372.9,431.7l1.2,1.3c-2.1,1.7-4.3,2.5-6.5,2.5c-2.4,0-4.2-0.8-5.6-2.4c-1.3-1.6-1.8-3.6-1.4-5.9
		s1.6-4.2,3.5-5.8c1.9-1.6,4.1-2.5,6.4-2.5c2.2,0,4.1,0.8,5.6,2.5l-1.7,1.3c-1.3-1.3-2.7-2-4.3-2c-1.7,0-3.3,0.6-4.8,1.9
		s-2.4,2.8-2.7,4.6c-0.3,1.8,0,3.4,1.1,4.6c1,1.3,2.4,1.9,4.2,1.9C369.5,433.6,371.1,433,372.9,431.7z"/>
	<path class="st2" d="M383.4,428l-1.3,7.2h-2L383,419h2l-1.3,7.2h6.7l1.3-7.2h2l-2.9,16.2h-2l1.3-7.2H383.4z"/>
	<path class="st2" d="M414.1,421.2c1.4,1.6,1.8,3.6,1.4,5.9s-1.6,4.2-3.5,5.9s-4.1,2.5-6.4,2.5c-2.4,0-4.2-0.8-5.6-2.5
		c-1.3-1.6-1.8-3.6-1.4-5.9s1.6-4.2,3.5-5.9c1.9-1.6,4.1-2.5,6.4-2.5C410.9,418.8,412.8,419.6,414.1,421.2z M408.3,420.6
		c-1.7,0-3.3,0.6-4.8,1.9s-2.4,2.8-2.7,4.6c-0.3,1.8,0,3.4,1.1,4.7c1,1.3,2.4,1.9,4.2,1.9c1.7,0,3.4-0.6,4.8-1.9
		c1.5-1.3,2.4-2.8,2.7-4.7c0.3-1.8,0-3.4-1.1-4.6C411.4,421.2,410,420.6,408.3,420.6z"/>
	<path class="st2" d="M434,431.7l1.2,1.3c-2.1,1.7-4.3,2.5-6.5,2.5c-2.4,0-4.2-0.8-5.6-2.4c-1.3-1.6-1.8-3.6-1.4-5.9
		s1.6-4.2,3.5-5.8c1.9-1.6,4.1-2.5,6.4-2.5c2.2,0,4.1,0.8,5.6,2.5l-1.7,1.3c-1.3-1.3-2.7-2-4.3-2c-1.7,0-3.3,0.6-4.8,1.9
		s-2.4,2.8-2.7,4.6c-0.3,1.8,0,3.4,1.1,4.6c1,1.3,2.4,1.9,4.2,1.9C430.6,433.6,432.3,433,434,431.7z"/>
	<path class="st2" d="M457.8,421.2c1.4,1.6,1.8,3.6,1.4,5.9s-1.6,4.2-3.5,5.9s-4.1,2.5-6.4,2.5c-2.4,0-4.2-0.8-5.6-2.5
		c-1.3-1.6-1.8-3.6-1.4-5.9s1.6-4.2,3.5-5.9c1.9-1.6,4.1-2.5,6.4-2.5C454.5,418.8,456.4,419.6,457.8,421.2z M451.9,420.6
		c-1.7,0-3.3,0.6-4.8,1.9s-2.4,2.8-2.7,4.6c-0.3,1.8,0,3.4,1.1,4.7c1,1.3,2.4,1.9,4.2,1.9c1.7,0,3.4-0.6,4.8-1.9
		c1.5-1.3,2.4-2.8,2.7-4.7c0.3-1.8,0-3.4-1.1-4.6C455,421.2,453.6,420.6,451.9,420.6z"/>
	<path class="st2" d="M464.3,435.2l2.9-16.2h2l-2.6,14.5h5.8l-0.3,1.8L464.3,435.2L464.3,435.2z"/>
	<path class="st2" d="M488,419l3,16.2h-2.1l-1.3-6.8h-4.4l-3.7,6.8h-2.1l8.8-16.2H488L488,419z M487.3,426.7l-0.8-4.3l-2.3,4.3
		H487.3z"/>
	<path class="st2" d="M503.7,420.8l-2.6,14.5h-2l2.6-14.5h-3.9l0.3-1.8h9.8l-0.3,1.8H503.7L503.7,420.8z"/>
	<path class="st2" d="M523,419l-0.3,1.8h-6.8l-1,5.5h6.8l-0.3,1.8h-6.8l-1,5.5h6.8l-0.3,1.8h-8.8l2.9-16.2h8.8V419z"/>
	<path class="st2" d="M296,364.1c3.6,0.3,6.9,1.8,9.7,4.6c2.9,2.9,4.3,6.3,4.3,10.2c0,4-1.4,7.4-4.3,10.2c-1.7,1.7-2.7,2.6-3.2,2.8
		c-0.2,0.2-0.3,0.5-0.3,0.7c0,0.1,0,0.2,0.1,0.4l5.5,9.4l1.7,3c0.1,0.3,0.2,0.5,0.2,0.6c0,0.4-0.3,0.6-1,0.6h-5.8
		c-0.6,0-1-0.2-1.3-0.6l-6.8-12.1H290c-0.8,0-1.2,0.3-1.2,1v9.9c0,1.2-0.6,1.8-1.9,1.8h-8.7c-1.1,0-1.6-0.5-1.6-1.6v-39.3
		c0-1.1,0.6-1.6,1.7-1.6L296,364.1L296,364.1z M288.8,386.4c0,1.1,0.6,1.7,1.7,1.7h5c1.8-0.1,3.5-0.9,4.9-2.3c1.8-1.8,2.7-4,2.7-6.7
		c0-2.7-0.8-4.8-2.4-6.4c-1.8-1.7-3.9-2.6-6.5-2.7h-3.6c-1.2,0-1.7,0.5-1.7,1.5v14.9H288.8z"/>
	<path class="st2" d="M326.1,365.9V405c0,1.2-0.6,1.8-1.7,1.8h-8.7c-1.1,0-1.6-0.6-1.6-1.9v-39.1c0-1.1,0.6-1.6,1.7-1.6h8.5
		C325.5,364.1,326.1,364.7,326.1,365.9z"/>
	<path class="st2" d="M361.9,365.6v2.9c0,1-0.5,1.4-1.4,1.4h-15.8c-0.9,0-1.3,0.4-1.3,1.3v15.4c0,1,0.4,1.5,1.3,1.5h2.8
		c0.9,0,1.4,0.4,1.4,1.3v3.6c0,0.7-0.4,1-1.3,1h-3c-0.8,0-1.1,0.4-1.1,1.3v4.1c0,1,0.4,1.5,1.2,1.5h16c0.9,0,1.3,0.3,1.3,1v3.8
		c0,0.7-0.4,1-1.2,1h-28c-0.8,0-1.2-0.5-1.2-1.4v-39.6c0-1.1,0.5-1.6,1.6-1.6h27.1C361.4,364.1,361.9,364.6,361.9,365.6z"/>
	<path class="st2" d="M380.7,384.6L380.7,384.6c2.2,6.5,3.3,10.3,3.3,11.6v0.4c0,2.5-0.9,4.8-2.8,6.9c-2,2.2-4.5,3.4-7.7,3.7
		c-0.4,0-0.8,0-1.1,0c-3.1,0-5.6-0.9-7.5-2.8c-0.1-0.2-0.2-0.5-0.2-0.7c0-0.3,0.1-0.7,0.4-1.1l1.7-1.7c0.4-0.5,0.8-0.8,1.3-0.8
		c0.4,0,0.8,0.2,1.2,0.5c0.9,0.6,1.7,0.8,2.3,0.8c0.4,0,0.8-0.1,1.1-0.4c0.5-0.4,0.7-0.9,0.7-1.6c0-0.4-0.1-0.9-0.2-1.4l-4-12.2l0,0
		c-2.1-6.5-3.2-10.3-3.3-11.6v-0.4c0-2.5,0.9-4.8,2.8-6.9c1.9-2.2,4.5-3.4,7.7-3.7c0.4,0,0.8,0,1.1,0c3.1,0,5.6,0.9,7.5,2.8
		c0.1,0.2,0.2,0.5,0.2,0.7c0,0.3-0.1,0.7-0.4,1.1l-1.7,1.7c-0.4,0.5-0.8,0.8-1.3,0.8c-0.4,0-0.8-0.2-1.2-0.5
		c-0.9-0.6-1.7-0.8-2.3-0.8c-0.4,0-0.8,0.1-1.1,0.4c-0.5,0.4-0.7,0.9-0.7,1.6c0,0.4,0.1,0.9,0.2,1.4L380.7,384.6z"/>
	<path class="st2" d="M402.7,400.9h5.3c0.8,0,1.1,0.4,1.1,1.3v3.6c0,0.7-0.4,1-1.1,1h-16.2c-0.9,0-1.4-0.5-1.4-1.4v-39.6
		c0-1.1,0.6-1.6,1.7-1.6h8.1c1.2,0,1.8,0.6,1.8,1.8v34C402.1,400.6,402.3,400.9,402.7,400.9z"/>
	<path class="st2" d="M424.3,365.9V405c0,1.2-0.6,1.8-1.7,1.8h-8.7c-1.1,0-1.6-0.6-1.6-1.9v-39.1c0-1.1,0.6-1.6,1.7-1.6h8.5
		C423.7,364.1,424.3,364.7,424.3,365.9z"/>
	<path class="st2" d="M441.9,365.3l12.3,22.1c0.2,0.3,0.4,0.5,0.5,0.5s0.2-0.2,0.2-0.6v-21.9c0-0.9,0.6-1.3,1.9-1.3h3.7
		c1.2,0,1.9,0.5,1.9,1.4v39.6c0,1.1-0.4,1.6-1.3,1.6h-2.5c-0.8,0-1.6-0.5-2.2-1.4L442.2,381c-0.2-0.4-0.4-0.7-0.5-0.7
		s-0.2,0.2-0.2,0.6V405c0,1.2-0.6,1.8-1.7,1.8h-8.7c-1.1,0-1.6-0.6-1.6-1.9v-39.1c0-1.1,0.6-1.6,1.7-1.6h8.4
		C440.8,364.2,441.6,364.6,441.9,365.3z"/>
	<path class="st2" d="M467.9,385.4c0-0.3,0-0.7,0-1c0-2.2,0.3-4.3,1-6.3c1.7-5.1,5.1-9,10.3-11.7c3.3-1.7,6.8-2.5,10.7-2.5
		c2.3,0,4.7,0.3,7.2,0.9c5.2,1.7,9.1,4.5,11.7,8.2c0.3,0.6,0.5,1.1,0.5,1.5c0,0.6-0.3,1.1-1,1.3l-1.7,1.1c-0.6,0.2-1.1,0.3-1.5,0.3
		c-0.7,0-1.2-0.3-1.5-0.9c-2.9-2.9-6-4.8-9.1-5.8c-2-0.5-3.8-0.7-5.2-0.7c-1.6,0-2.9,0.3-3.8,0.9c-1.4,0.8-2.1,3.1-2.1,6.7v19.3
		c0,1.5,0.3,2.4,1,2.7c1.5,1,3.4,1.5,5.6,1.5c1.3,0,2.8-0.2,4.4-0.5c4.6-1.5,7.2-3.4,7.9-5.7c0-0.1,0.1-0.2,0.1-0.2
		c0-0.3-0.4-0.4-1.2-0.4h-6.5c-1.1,0-1.7-0.5-1.7-1.5v-2.9c0-1,0.5-1.5,1.4-1.5h16.5c0.9,0,1.4,0.5,1.4,1.4v0.2
		c-0.1,2-1.3,4.8-3.7,8.4c-2.4,3.6-6.2,6.2-11.4,7.9c-2.5,0.6-4.9,0.9-7.2,0.9c-3.8,0-7.4-0.8-10.7-2.5c-5.2-2.7-8.7-6.6-10.3-11.7
		c-0.7-2.1-1-4.1-1-6.3C467.9,386,467.9,385.7,467.9,385.4z"/>
</g>
</svg>
