<?xml version="1.0" encoding="utf-8"?>
<!-- Generator: Adobe Illustrator 19.0.1, SVG Export Plug-In . SVG Version: 6.00 Build 0)  -->
<svg version="1.1" id="Layer_1" xmlns="http://www.w3.org/2000/svg" xmlns:xlink="http://www.w3.org/1999/xlink" x="0px" y="0px"
	 viewBox="40.5 255.4 706.9 283.2" style="enable-background:new 40.5 255.4 706.9 283.2;" xml:space="preserve">
<style type="text/css">
	.st0{fill:#C47A4A;}
	.st1{fill:#A05620;}
	.st2{fill:#FEE4CD;}
	.st3{fill:#7B2E00;}
</style>
<g>
	<path class="st0" d="M247.9,353.2l-3.8-11.7c0.5-1.9,0.9-3.9,1.1-5.8l8-9.4l-8-9.4c-0.3-2.1-0.7-4.2-1.2-6.2l3.8-11.7l-11-5.6
		c-1-1.7-2.1-3.3-3.3-4.9l-1-12.3l-12.3-1c-1.7-1.3-3.4-2.4-5.2-3.5l-5.6-11l-11.7,3.8c-1.9-0.5-3.9-0.9-5.8-1.1l-9.4-8l-9.4,8
		c-2.1,0.3-4.2,0.7-6.2,1.2l-11.9-3.8l-5.6,11c-1.7,1-3.3,2.1-4.9,3.3l-12.3,1l-1,12.3c-1.3,1.7-2.4,3.4-3.5,5.3l-11,5.6l3.8,11.7
		c-0.5,1.9-0.9,3.9-1.1,5.8l-8,9.4l8,9.4c0.3,2.1,0.7,4.2,1.2,6.2l-3.8,11.7l11,5.6c1,1.7,2.1,3.3,3.3,4.9l1,12.3l12.3,1
		c1.7,1.3,3.4,2.4,5.2,3.5l5.6,11l11.7-3.8c1.9,0.5,3.9,0.9,5.8,1.1l9.4,8l9.4-8c2.1-0.3,4.2-0.7,6.2-1.2l11.7,3.8l5.6-11
		c1.7-1,3.3-2.1,4.9-3.3l12.3-1l1-12.3c1.3-1.7,2.4-3.4,3.5-5.3L247.9,353.2z"/>
	<path class="st0" d="M389,353.2l-3.8-11.7c0.5-1.9,0.9-3.9,1.1-5.8l8-9.4l-8-9.4c-0.3-2.1-0.7-4.2-1.2-6.2l3.8-11.7l-11-5.6
		c-1-1.7-2.1-3.3-3.3-4.9l-1-12.3l-12.3-1c-1.7-1.3-3.4-2.4-5.2-3.5l-5.6-11l-11.7,3.8c-1.9-0.5-3.9-0.9-5.8-1.1l-9.4-8l-9.4,8
		c-2.1,0.3-4.2,0.7-6.2,1.2l-11.9-3.8l-5.6,11c-1.7,1-3.3,2.1-4.9,3.3l-12.3,1l-1,12.3c-1.3,1.7-2.4,3.4-3.5,5.3l-11,5.6l3.8,11.7
		c-0.5,1.9-0.9,3.9-1.1,5.8l-8,9.4l8,9.4c0.3,2.1,0.7,4.2,1.2,6.2l-3.8,11.7l11,5.6c1,1.7,2.1,3.3,3.3,4.9l1,12.3l12.3,1
		c1.7,1.3,3.4,2.4,5.2,3.5l5.6,11L308,388c1.9,0.5,3.9,0.9,5.8,1.1l9.4,8l9.4-8c2.1-0.3,4.2-0.7,6.2-1.2l11.7,3.8l5.6-11
		c1.7-1,3.3-2.1,4.9-3.3l12.3-1l1-12.3c1.3-1.7,2.4-3.4,3.5-5.3L389,353.2z"/>
	<path class="st0" d="M530.2,353.2l-3.8-11.7c0.5-1.9,0.9-3.9,1.1-5.8l8-9.4l-8-9.4c-0.3-2.1-0.7-4.2-1.2-6.2l3.8-11.7l-11-5.6
		c-1-1.7-2.1-3.3-3.3-4.9l-1-12.3l-12.3-1c-1.7-1.3-3.4-2.4-5.2-3.5l-5.6-11l-11.7,3.8c-1.9-0.5-3.9-0.9-5.8-1.1l-9.4-8l-9.4,8
		c-2.1,0.3-4.2,0.7-6.2,1.2l-11.9-3.8l-5.6,11c-1.7,1-3.3,2.1-4.9,3.3l-12.3,1l-1,12.3c-1.3,1.7-2.4,3.4-3.5,5.3l-11,5.6l3.8,11.7
		c-0.5,1.9-0.9,3.9-1.1,5.8l-8,9.4l8,9.4c0.3,2.1,0.7,4.2,1.2,6.2l-3.8,11.7l11,5.6c1,1.7,2.1,3.3,3.3,4.9l1,12.3l12.3,1
		c1.7,1.3,3.4,2.4,5.2,3.5l5.6,11l11.7-3.8c1.9,0.5,3.9,0.9,5.8,1.1l9.4,8l9.4-8c2.1-0.3,4.2-0.7,6.2-1.2l11.7,3.8l5.6-11
		c1.7-1,3.3-2.1,4.9-3.3l12.3-1l1-12.3c1.3-1.7,2.4-3.4,3.5-5.3L530.2,353.2z"/>
	<path class="st0" d="M671.4,353.2l-3.8-11.7c0.5-1.9,0.9-3.9,1.1-5.8l8-9.4l-8-9.4c-0.3-2.1-0.7-4.2-1.2-6.2l3.8-11.7l-11-5.6
		c-1-1.7-2.1-3.3-3.3-4.9l-1-12.3l-12.3-1c-1.7-1.3-3.4-2.4-5.2-3.5l-5.6-11l-11.7,3.8c-1.9-0.5-3.9-0.9-5.8-1.1l-9.4-8l-9.4,8
		c-2.1,0.3-4.2,0.7-6.2,1.2l-11.9-3.8l-5.6,11c-1.7,1-3.3,2.1-4.9,3.3l-12.3,1l-1,12.3c-1.3,1.7-2.4,3.4-3.5,5.3l-11,5.6L544,311
		c-0.5,1.9-0.9,3.9-1.1,5.8l-8,9.4l8,9.4c0.3,2.1,0.7,4.2,1.2,6.2l-3.8,11.7l11,5.6c1,1.7,2.1,3.3,3.3,4.9l1,12.3l12.3,1
		c1.7,1.3,3.4,2.4,5.2,3.5l5.6,11l11.7-3.8c1.9,0.5,3.9,0.9,5.8,1.1l9.4,8l9.4-8c2.1-0.3,4.2-0.7,6.2-1.2l11.7,3.8l5.6-11
		c1.7-1,3.3-2.1,4.9-3.3l12.3-1l1-12.3c1.3-1.7,2.4-3.4,3.5-5.3L671.4,353.2z"/>
	<polygon class="st1" points="168.5,326.2 120.8,320 115.5,326.2 120.8,332.4 	"/>
	<polygon class="st1" points="196.1,326.2 243.9,332.4 249.2,326.2 243.9,320 	"/>
	<polygon class="st1" points="188.5,264.6 182.3,259.3 176.1,264.6 182.3,312.4 	"/>
	<polygon class="st1" points="176.1,387.8 182.3,393.1 188.5,387.8 182.3,340 	"/>
	<polygon class="st1" points="230.2,287 229.6,278.9 221.5,278.3 192.1,316.5 	"/>
	<polygon class="st1" points="134.4,365.4 135.1,373.5 143.2,374.2 172.6,336 	"/>
	<polygon class="st1" points="221.5,374.2 229.6,373.5 230.2,365.4 192.1,336 	"/>
	<polygon class="st1" points="143.2,278.3 135.1,278.9 134.4,287 172.6,316.5 	"/>
	<polygon class="st1" points="123.2,344.2 120.7,352 127.9,355.7 169.6,331.5 	"/>
	<polygon class="st1" points="241.5,308.2 244,300.4 236.7,296.7 195.1,320.9 	"/>
	<polygon class="st1" points="164.3,267 156.6,264.5 152.9,271.8 177,313.5 	"/>
	<polygon class="st1" points="200.3,385.5 208.1,387.9 211.8,380.7 187.7,339 	"/>
	<polygon class="st1" points="211.5,271.6 207.7,264.3 200,266.9 187.6,313.4 	"/>
	<polygon class="st1" points="153.2,380.8 156.9,388.1 164.7,385.6 177.1,339 	"/>
	<polygon class="st1" points="195.1,331.5 236.9,355.4 244.2,351.6 241.6,343.9 	"/>
	<polygon class="st1" points="169.6,321 127.8,297.1 120.5,300.8 123,308.5 	"/>
	<polygon class="st1" points="309.6,326.2 261.9,320 256.6,326.2 261.9,332.4 	"/>
	<polygon class="st1" points="337.2,326.2 385,332.4 390.3,326.2 385,320 	"/>
	<polygon class="st1" points="329.6,264.6 323.4,259.3 317.2,264.6 323.4,312.4 	"/>
	<polygon class="st1" points="317.2,387.8 323.4,393.1 329.6,387.8 323.4,340 	"/>
	<polygon class="st1" points="371.3,287 370.7,278.9 362.6,278.3 333.2,316.5 	"/>
	<polygon class="st1" points="275.5,365.4 276.2,373.5 284.3,374.2 313.7,336 	"/>
	<polygon class="st1" points="362.6,374.2 370.7,373.5 371.3,365.4 333.2,336 	"/>
	<polygon class="st1" points="284.3,278.3 276.2,278.9 275.5,287 313.7,316.5 	"/>
	<polygon class="st1" points="264.2,344.2 261.8,352 269,355.7 310.7,331.5 	"/>
	<polygon class="st1" points="382.6,308.2 385.1,300.4 377.8,296.7 336.1,320.9 	"/>
	<polygon class="st1" points="305.4,267 297.8,264.5 294,271.8 318.1,313.5 	"/>
	<polygon class="st1" points="341.4,385.5 349.2,387.9 352.9,380.7 328.7,339 	"/>
	<polygon class="st1" points="352.5,271.6 348.8,264.3 341.1,266.9 328.7,313.4 	"/>
	<polygon class="st1" points="294.3,380.8 298,388.1 305.8,385.6 318.2,339 	"/>
	<polygon class="st1" points="336.2,331.5 378,355.4 385.2,351.6 382.7,343.9 	"/>
	<polygon class="st1" points="310.7,321 268.8,297.1 261.6,300.8 264.1,308.5 	"/>
	<polygon class="st1" points="450.8,326.2 403.1,320 397.8,326.2 403.1,332.4 	"/>
	<polygon class="st1" points="478.4,326.2 526.2,332.4 531.5,326.2 526.2,320 	"/>
	<polygon class="st1" points="470.8,264.6 464.6,259.3 458.4,264.6 464.6,312.4 	"/>
	<polygon class="st1" points="458.4,387.8 464.6,393.1 470.8,387.8 464.6,340 	"/>
	<polygon class="st1" points="512.5,287 511.9,278.9 503.8,278.3 474.4,316.5 	"/>
	<polygon class="st1" points="416.7,365.4 417.4,373.5 425.5,374.2 454.9,336 	"/>
	<polygon class="st1" points="503.8,374.2 511.9,373.5 512.5,365.4 474.4,336 	"/>
	<polygon class="st1" points="425.5,278.3 417.4,278.9 416.7,287 454.9,316.5 	"/>
	<polygon class="st1" points="405.4,344.2 402.9,352 410.2,355.7 451.9,331.5 	"/>
	<polygon class="st1" points="523.8,308.2 526.3,300.4 519,296.7 477.3,320.9 	"/>
	<polygon class="st1" points="446.6,267 438.9,264.5 435.2,271.8 459.3,313.5 	"/>
	<polygon class="st1" points="482.6,385.5 490.4,387.9 494.1,380.7 469.9,339 	"/>
	<polygon class="st1" points="493.7,271.6 490,264.3 482.3,266.9 469.9,313.4 	"/>
	<polygon class="st1" points="435.5,380.8 439.2,388.1 447,385.6 459.4,339 	"/>
	<polygon class="st1" points="477.4,331.5 519.2,355.4 526.5,351.6 524,343.9 	"/>
	<polygon class="st1" points="451.9,321 410,297.1 402.8,300.8 405.3,308.5 	"/>
	<polygon class="st1" points="592,326.2 544.2,320 539,326.2 544.2,332.4 	"/>
	<polygon class="st1" points="619.5,326.2 667.4,332.4 672.5,326.2 667.4,320 	"/>
	<polygon class="st1" points="612,264.6 605.8,259.3 599.5,264.6 605.8,312.4 	"/>
	<polygon class="st1" points="599.5,387.8 605.8,393.1 612,387.8 605.8,340 	"/>
	<polygon class="st1" points="653.7,287 653,278.9 645,278.3 615.5,316.5 	"/>
	<polygon class="st1" points="557.9,365.4 558.5,373.5 566.7,374.2 596,336 	"/>
	<polygon class="st1" points="645,374.2 653,373.5 653.7,365.4 615.5,336 	"/>
	<polygon class="st1" points="566.7,278.3 558.5,278.9 557.9,287 596,316.5 	"/>
	<polygon class="st1" points="546.5,344.2 544,352 551.3,355.7 593,331.5 	"/>
	<polygon class="st1" points="665,308.2 667.5,300.4 660.2,296.7 618.5,320.9 	"/>
	<polygon class="st1" points="587.8,267 580,264.5 576.4,271.8 600.5,313.5 	"/>
	<polygon class="st1" points="623.8,385.5 631.5,387.9 635.2,380.7 611,339 	"/>
	<polygon class="st1" points="634.9,271.6 631.2,264.3 623.5,266.9 611,313.4 	"/>
	<polygon class="st1" points="576.7,380.8 580.4,388.1 588.2,385.6 600.5,339 	"/>
	<polygon class="st1" points="618.5,331.5 660.4,355.4 667.5,351.6 665,343.9 	"/>
	<path class="st0" d="M742.2,424.1l-3.8-11.7c0.5-1.9,0.9-3.9,1.1-5.8l8-9.4l-8-9.4c-0.3-2.1-0.7-4.2-1.2-6.2l3.8-11.7l-11-5.6
		c-1-1.7-2.1-3.3-3.3-4.9l-1-12.3l-12.3-1c-1.7-1.3-3.4-2.4-5.2-3.5l-5.6-11l-11.7,3.8c-1.9-0.5-3.9-0.9-5.8-1.1l-9.4-8l-9.4,8
		c-2.1,0.3-4.2,0.7-6.2,1.2l-11.7-3.8l-5.6,11c-1.7,1-3.3,2.1-4.9,3.3l-12.3,1l-1,12.3c-1.3,1.7-2.4,3.4-3.5,5.3l-11,5.6l3.8,11.7
		c-0.5,1.9-0.9,3.9-1.1,5.8l-8,9.4l8,9.4c0.3,2.1,0.7,4.2,1.2,6.2l-3.8,11.7l11,5.6c1,1.7,2.1,3.3,3.3,4.9l1,12.3l12.3,1
		c1.7,1.3,3.4,2.4,5.2,3.5l5.6,11l11.7-3.8c1.9,0.5,3.9,0.9,5.8,1.1l9.4,8l9.4-8c2.1-0.3,4.2-0.7,6.2-1.2l11.7,3.8l5.6-11
		c1.7-1,3.3-2.1,4.9-3.3l12.3-1l1-12.3c1.3-1.7,2.4-3.4,3.5-5.3L742.2,424.1z"/>
	<path class="st0" d="M176.9,424.1l-3.8-11.7c0.5-1.9,0.9-3.9,1.1-5.8l8-9.4l-8-9.4c-0.3-2.1-0.7-4.2-1.2-6.2l3.8-11.7l-11-5.6
		c-1-1.7-2.1-3.3-3.3-4.9l-1-12.3l-12.3-1c-1.7-1.3-3.4-2.4-5.2-3.5l-5.6-11l-11.7,3.8c-1.9-0.5-3.9-0.9-5.8-1.1l-9.4-8l-9.4,8
		c-2.1,0.3-4.2,0.7-6.2,1.2l-11.7-3.8l-5.6,11c-1.7,1-3.3,2.1-4.9,3.3l-12.3,1l-1,12.3c-1.3,1.7-2.4,3.4-3.5,5.3l-11,5.6l3.8,11.7
		c-0.5,1.9-0.9,3.9-1.1,5.8l-8,9.4l8,9.4c0.3,2.1,0.7,4.2,1.2,6.2L46,424.4l11,5.6c1,1.7,2.1,3.3,3.3,4.9l1,12.3l12.3,1
		c1.7,1.3,3.4,2.4,5.2,3.5l5.6,11l11.7-3.8c1.9,0.5,3.9,0.9,5.8,1.1l9.4,8l9.4-8c2.1-0.3,4.2-0.7,6.2-1.2l11.7,3.8l5.6-11
		c1.7-1,3.3-2.1,4.9-3.3l12.3-1l1-12.3c1.3-1.7,2.4-3.4,3.5-5.3L176.9,424.1z"/>
	<polygon class="st1" points="715.8,445.1 723.9,444.5 724.5,436.4 686.4,406.9 	"/>
	<polygon class="st1" points="593,321 551.2,297.1 544,300.8 546.5,308.5 	"/>
	<path class="st0" d="M318.4,423.9l-3.8-11.7c0.5-1.9,0.9-3.9,1.1-5.8l8-9.4l-8-9.4c-0.3-2.1-0.7-4.2-1.2-6.2l3.8-11.7l-11-5.6
		c-1-1.7-2.1-3.3-3.3-4.9l-1-12.3l-12.3-1c-1.7-1.3-3.4-2.4-5.2-3.5l-5.6-11l-11.7,3.8c-1.9-0.5-3.9-0.9-5.8-1.1l-9.4-8l-9.4,8
		c-2.1,0.3-4.2,0.7-6.2,1.2l-11.7-3.8l-5.6,11c-1.7,1-3.3,2.1-4.9,3.3l-12.3,1l-1,12.3c-1.3,1.7-2.4,3.4-3.5,5.3l-11,5.6l3.8,11.7
		c-0.5,1.9-0.9,3.9-1.1,5.8l-8,9.4l8,9.4c0.3,2.1,0.7,4.2,1.2,6.2l-3.8,11.7l11,5.6c1,1.7,2.1,3.3,3.3,4.9l1,12.3l12.3,1
		c1.7,1.3,3.4,2.4,5.2,3.5l5.6,11l11.7-3.8c1.9,0.5,3.9,0.9,5.8,1.1l9.4,8l9.4-8c2.1-0.3,4.2-0.7,6.2-1.2l11.7,3.8l5.6-11
		c1.7-1,3.3-2.1,4.9-3.3l12.3-1l1-12.3c1.3-1.7,2.4-3.4,3.5-5.3L318.4,423.9z"/>
	<path class="st0" d="M459.5,423.9l-3.8-11.7c0.5-1.9,0.9-3.9,1.1-5.8l8-9.4l-8-9.4c-0.3-2.1-0.7-4.2-1.2-6.2l3.8-11.7l-11-5.6
		c-1-1.7-2.1-3.3-3.3-4.9l-1-12.3l-12.3-1c-1.7-1.3-3.4-2.4-5.2-3.5l-5.6-11l-11.7,3.8c-1.9-0.5-3.9-0.9-5.8-1.1l-9.4-8l-9.4,8
		c-2.1,0.3-4.2,0.7-6.2,1.2l-11.7-3.8l-5.6,11c-1.7,1-3.3,2.1-4.9,3.3l-12.3,1l-1,12.3c-1.3,1.7-2.4,3.4-3.5,5.3l-11,5.6l3.8,11.7
		c-0.5,1.9-0.9,3.9-1.1,5.8l-8,9.4l8,9.4c0.3,2.1,0.7,4.2,1.2,6.2l-3.8,11.7l11,5.6c1,1.7,2.1,3.3,3.3,4.9l1,12.3l12.3,1
		c1.7,1.3,3.4,2.4,5.2,3.5l5.6,11l11.7-3.8c1.9,0.5,3.9,0.9,5.8,1.1l9.4,8l9.4-8c2.1-0.3,4.2-0.7,6.2-1.2l11.7,3.8l5.6-11
		c1.7-1,3.3-2.1,4.9-3.3l12.3-1l1-12.3c1.3-1.7,2.4-3.4,3.5-5.3L459.5,423.9z"/>
	<path class="st0" d="M600.8,423.9l-3.8-11.7c0.5-1.9,0.9-3.9,1.1-5.8l8-9.4l-8-9.4c-0.3-2.1-0.7-4.2-1.2-6.2l3.8-11.7l-11-5.6
		c-1-1.7-2.1-3.3-3.3-4.9l-1-12.3l-12.3-1c-1.7-1.3-3.4-2.4-5.2-3.5l-5.6-11l-11.7,3.8c-1.9-0.5-3.9-0.9-5.8-1.1l-9.4-8l-9.4,8
		c-2.1,0.3-4.2,0.7-6.2,1.2l-11.7-3.8l-5.6,11c-1.7,1-3.3,2.1-4.9,3.3l-12.3,1l-1,12.3c-1.3,1.7-2.4,3.4-3.5,5.3l-11,5.6l3.7,11.8
		c-0.5,1.9-0.9,3.9-1.1,5.8l-8,9.4l8,9.4c0.3,2.1,0.7,4.2,1.2,6.2l-3.8,11.7l11,5.6c1,1.7,2.1,3.3,3.3,4.9l1,12.3l12.3,1
		c1.7,1.3,3.4,2.4,5.2,3.5l5.6,11l11.7-3.8c1.9,0.5,3.9,0.9,5.8,1.1l9.4,8l9.4-8c2.1-0.3,4.2-0.7,6.2-1.2l11.7,3.8l5.6-11
		c1.7-1,3.3-2.1,4.9-3.3l12.3-1l1-12.3c1.3-1.7,2.4-3.4,3.5-5.3L600.8,423.9z"/>
	<polygon class="st1" points="97.9,397 50.2,390.8 44.9,397 50.2,403.2 	"/>
	<polygon class="st1" points="125.5,397 173.3,403.2 178.6,397 173.3,390.8 	"/>
	<polygon class="st1" points="117.9,335.4 111.7,330.1 105.5,335.4 111.7,383.2 	"/>
	<polygon class="st1" points="105.5,458.6 111.7,463.9 117.9,458.6 111.7,410.8 	"/>
	<polygon class="st1" points="159.6,357.8 159,349.7 150.9,349.1 121.5,387.2 	"/>
	<polygon class="st1" points="63.8,436.2 64.5,444.3 72.6,444.9 102,406.8 	"/>
	<polygon class="st1" points="150.9,444.9 159,444.3 159.6,436.2 121.5,406.8 	"/>
	<polygon class="st1" points="72.6,349.1 64.5,349.7 63.8,357.8 102,387.2 	"/>
	<polygon class="st1" points="52.6,415 50.1,422.8 57.3,426.5 99,402.3 	"/>
	<polygon class="st1" points="170.9,379 173.4,371.2 166.1,367.5 124.5,391.7 	"/>
	<polygon class="st1" points="93.7,337.8 86,335.3 82.3,342.5 106.4,384.3 	"/>
	<polygon class="st1" points="129.7,456.2 137.5,458.7 141.2,451.5 117.1,409.7 	"/>
	<polygon class="st1" points="140.9,342.4 137.1,335.1 129.4,337.7 117,384.2 	"/>
	<polygon class="st1" points="82.6,451.6 86.3,458.9 94.1,456.3 106.5,409.8 	"/>
	<polygon class="st1" points="124.5,402.2 166.3,426.1 173.6,422.4 171,414.7 	"/>
	<polygon class="st1" points="99,391.8 57.2,367.9 49.9,371.6 52.4,379.3 	"/>
	<polygon class="st1" points="239,397 191.3,390.8 186,397 191.3,403.2 	"/>
	<polygon class="st1" points="266.6,397 314.4,403.2 319.7,397 314.4,390.8 	"/>
	<polygon class="st1" points="259,335.4 252.8,330.1 246.6,335.4 252.8,383.2 	"/>
	<polygon class="st1" points="246.6,458.6 252.8,463.9 259,458.6 252.8,410.8 	"/>
	<polygon class="st1" points="300.7,357.8 300.1,349.7 292,349.1 262.6,387.2 	"/>
	<polygon class="st1" points="204.9,436.2 205.6,444.3 213.7,444.9 243.1,406.8 	"/>
	<polygon class="st1" points="292,444.9 300.1,444.3 300.7,436.2 262.6,406.8 	"/>
	<polygon class="st1" points="213.7,349.1 205.6,349.7 204.9,357.8 243.1,387.2 	"/>
	<polygon class="st1" points="193.6,415 191.1,422.8 198.4,426.5 240.1,402.3 	"/>
	<polygon class="st1" points="312,379 314.5,371.2 307.2,367.5 265.5,391.7 	"/>
	<polygon class="st1" points="234.8,337.8 227.1,335.3 223.4,342.5 247.5,384.3 	"/>
	<polygon class="st1" points="270.8,456.2 278.6,458.7 282.3,451.5 258.1,409.7 	"/>
	<polygon class="st1" points="281.9,342.4 278.2,335.1 270.5,337.7 258.1,384.2 	"/>
	<polygon class="st1" points="223.7,451.6 227.4,458.9 235.2,456.3 247.6,409.8 	"/>
	<polygon class="st1" points="265.6,402.2 307.4,426.1 314.6,422.4 312.1,414.7 	"/>
	<polygon class="st1" points="240.1,391.8 198.2,367.9 191,371.6 193.5,379.3 	"/>
	<polygon class="st1" points="380.1,397 332.4,390.8 327.1,397 332.4,403.2 	"/>
	<polygon class="st1" points="407.7,397 455.5,403.2 460.7,397 455.5,390.8 	"/>
	<polygon class="st1" points="400.1,335.4 393.9,330.1 387.7,335.4 393.9,383.2 	"/>
	<polygon class="st1" points="387.7,458.6 393.9,463.9 400.1,458.6 393.9,410.8 	"/>
	<polygon class="st1" points="441.8,357.8 441.2,349.7 433,349.1 403.7,387.2 	"/>
	<polygon class="st1" points="346,436.2 346.6,444.3 354.8,444.9 384.2,406.8 	"/>
	<polygon class="st1" points="433,444.9 441.2,444.3 441.8,436.2 403.7,406.8 	"/>
	<polygon class="st1" points="354.8,349.1 346.6,349.7 346,357.8 384.2,387.2 	"/>
	<polygon class="st1" points="334.7,415 332.2,422.8 339.5,426.5 381.2,402.3 	"/>
	<polygon class="st1" points="453.1,379 455.6,371.2 448.3,367.5 406.6,391.7 	"/>
	<polygon class="st1" points="375.9,337.8 368.1,335.3 364.5,342.5 388.6,384.3 	"/>
	<polygon class="st1" points="411.9,456.2 419.7,458.7 423.3,451.5 399.2,409.7 	"/>
	<polygon class="st1" points="423,342.4 419.3,335.1 411.6,337.7 399.1,384.2 	"/>
	<polygon class="st1" points="364.8,451.6 368.5,458.9 376.3,456.3 388.7,409.8 	"/>
	<polygon class="st1" points="406.7,402.2 448.5,426.1 455.7,422.4 453.2,414.7 	"/>
	<polygon class="st1" points="381.1,391.8 339.3,367.9 332.1,371.6 334.6,379.3 	"/>
	<polygon class="st1" points="521.3,397 473.6,390.8 468.3,397 473.6,403.2 	"/>
	<polygon class="st1" points="549,397 596.8,403.2 602,397 596.8,390.8 	"/>
	<polygon class="st1" points="541.3,335.4 535.2,330.1 529,335.4 535.2,383.2 	"/>
	<polygon class="st1" points="529,458.6 535.2,463.9 541.3,458.6 535.2,410.8 	"/>
	<polygon class="st1" points="583,357.8 582.5,349.7 574.4,349.1 545,387.2 	"/>
	<polygon class="st1" points="487.2,436.2 487.8,444.3 496,444.9 525.5,406.8 	"/>
	<polygon class="st1" points="574.4,444.9 582.5,444.3 583,436.2 545,406.8 	"/>
	<polygon class="st1" points="496,349.1 487.8,349.7 487.2,357.8 525.5,387.2 	"/>
	<polygon class="st1" points="475.9,415 473.4,422.8 480.7,426.5 522.5,402.3 	"/>
	<polygon class="st1" points="594.4,379 596.9,371.2 589.5,367.5 547.8,391.7 	"/>
	<polygon class="st1" points="517.2,337.8 509.3,335.3 505.7,342.5 529.8,384.3 	"/>
	<polygon class="st1" points="553.2,456.2 561,458.7 564.7,451.5 540.5,409.7 	"/>
	<polygon class="st1" points="564.2,342.4 560.5,335.1 552.8,337.7 540.5,384.2 	"/>
	<polygon class="st1" points="506,451.6 509.7,458.9 517.5,456.3 530,409.8 	"/>
	<polygon class="st1" points="548,402.2 589.8,426.1 597,422.4 594.5,414.7 	"/>
	<polygon class="st1" points="522.5,391.8 480.5,367.9 473.3,371.6 475.8,379.3 	"/>
	<polygon class="st1" points="662.5,397 614.7,390.8 609.5,397 614.7,403.2 	"/>
	<polygon class="st1" points="690,397 737.8,403.2 743,397 737.8,390.8 	"/>
	<polygon class="st1" points="682.5,335.4 676.2,330.1 670,335.4 676.2,383.2 	"/>
	<polygon class="st1" points="670,458.6 676.2,463.9 682.5,458.6 676.2,410.8 	"/>
	<polygon class="st1" points="724.2,357.8 723.5,349.7 715.4,349.1 686,387.2 	"/>
	<polygon class="st1" points="628.4,436.2 629,444.3 637.2,444.9 666.5,406.8 	"/>
	<polygon class="st1" points="637.2,349.1 629,349.7 628.4,357.8 666.5,387.2 	"/>
	<polygon class="st1" points="617,415 614.5,422.8 621.9,426.5 663.5,402.3 	"/>
	<polygon class="st1" points="735.5,379 738,371.2 730.7,367.5 689,391.7 	"/>
	<polygon class="st1" points="658.2,337.8 650.5,335.3 646.9,342.5 671,384.3 	"/>
	<polygon class="st1" points="694.2,456.2 702,458.7 705.7,451.5 681.5,409.7 	"/>
	<polygon class="st1" points="705.4,342.4 701.7,335.1 693.9,337.7 681.5,384.2 	"/>
	<polygon class="st1" points="647.2,451.6 650.9,458.9 658.5,456.3 671,409.8 	"/>
	<polygon class="st1" points="689,402.2 730.9,426.1 738,422.4 735.5,414.7 	"/>
	<polygon class="st1" points="663.5,391.8 621.7,367.9 614.5,371.6 617,379.3 	"/>
	<path class="st0" d="M247.6,494.7l-3.8-11.7c0.5-1.9,0.9-3.9,1.1-5.8l8-9.4l-8-9.4c-0.3-2.1-0.7-4.2-1.2-6.2l3.8-11.7l-11-5.6
		c-1-1.7-2.1-3.3-3.3-4.9l-1-12.3l-12.3-1c-1.7-1.3-3.4-2.4-5.2-3.5l-5.6-11l-11.7,3.8c-1.9-0.5-3.9-0.9-5.8-1.1l-9.4-8l-9.4,8
		c-2.1,0.3-4.2,0.7-6.2,1.2l-11.7-3.8l-5.6,11c-1.7,1-3.3,2.1-4.9,3.3l-12.3,1l-1,12.3c-1.3,1.7-2.4,3.4-3.5,5.3l-11,5.6l3.8,11.7
		c-0.5,1.9-0.9,3.9-1.1,5.8l-8,9.4l8,9.4c0.3,2.1,0.7,4.2,1.2,6.2l-3.8,11.7l11,5.6c1,1.7,2.1,3.3,3.3,4.9l1,12.3l12.3,1
		c1.7,1.3,3.4,2.4,5.2,3.5l5.6,11l11.7-3.8c1.9,0.5,3.9,0.9,5.8,1.1l9.4,8l9.4-8c2.1-0.3,4.2-0.7,6.2-1.2l11.7,3.8l5.6-11
		c1.7-1,3.3-2.1,4.9-3.3l12.3-1l1-12.3c1.3-1.7,2.4-3.4,3.5-5.3L247.6,494.7z"/>
	<path class="st0" d="M388.7,494.7l-3.8-11.7c0.5-1.9,0.9-3.9,1.1-5.8l8-9.4l-8-9.4c-0.3-2.1-0.7-4.2-1.2-6.2l3.8-11.7l-11-5.6
		c-1-1.7-2.1-3.3-3.3-4.9l-1-12.3l-12.3-1c-1.7-1.3-3.4-2.4-5.2-3.5l-5.6-11l-11.7,3.8c-1.9-0.5-3.9-0.9-5.8-1.1l-9.4-8l-9.4,8
		c-2.1,0.3-4.2,0.7-6.2,1.2l-11.7-3.8l-5.6,11c-1.7,1-3.3,2.1-4.9,3.3l-12.3,1l-1,12.3c-1.3,1.7-2.4,3.4-3.5,5.3l-11,5.6l3.8,11.7
		c-0.5,1.9-0.9,3.9-1.1,5.8l-8,9.4l8,9.4c0.3,2.1,0.7,4.2,1.2,6.2l-3.8,11.7l11,5.6c1,1.7,2.1,3.3,3.3,4.9l1,12.3l12.3,1
		c1.7,1.3,3.4,2.4,5.2,3.5l5.6,11l11.7-3.8c1.9,0.5,3.9,0.9,5.8,1.1l9.4,8l9.4-8c2.1-0.3,4.2-0.7,6.2-1.2l11.7,3.8l5.6-11
		c1.7-1,3.3-2.1,4.9-3.3l12.3-1l1-12.3c1.3-1.7,2.4-3.4,3.5-5.3L388.7,494.7z"/>
	<path class="st0" d="M530,494.7l-3.8-11.7c0.5-1.9,0.9-3.9,1.1-5.8l8-9.4l-8-9.4c-0.3-2.1-0.7-4.2-1.2-6.2l3.8-11.7l-11-5.6
		c-1-1.7-2.1-3.3-3.3-4.9l-1-12.3l-12.3-1c-1.7-1.3-3.4-2.4-5.2-3.5l-5.6-11l-11.7,3.8c-1.9-0.5-3.9-0.9-5.8-1.1l-9.4-8l-9.4,8
		c-2.1,0.3-4.2,0.7-6.2,1.2l-11.7-3.8l-5.6,11c-1.7,1-3.3,2.1-4.9,3.3l-12.3,1l-1,12.3c-1.3,1.7-2.4,3.4-3.5,5.3l-11,5.6l3.8,11.7
		c-0.5,1.9-0.9,3.9-1.1,5.8l-8,9.4l8,9.4c0.3,2.1,0.7,4.2,1.2,6.2L399,495l11,5.6c1,1.7,2.1,3.3,3.3,4.9l1,12.3l12.3,1
		c1.7,1.3,3.4,2.4,5.2,3.5l5.6,11l11.7-3.8c1.9,0.5,3.9,0.9,5.8,1.1l9.4,8l9.4-8c2.1-0.3,4.2-0.7,6.2-1.2l11.7,3.8l5.6-11
		c1.7-1,3.3-2.1,4.9-3.3l12.3-1l1-12.3c1.3-1.7,2.4-3.4,3.5-5.3L530,494.7z"/>
	<path class="st0" d="M671,494.7l-3.8-11.7c0.5-1.9,0.9-3.9,1.1-5.8l8-9.4l-8-9.4c-0.3-2.1-0.7-4.2-1.2-6.2l3.8-11.7l-11-5.6
		c-1-1.7-2.1-3.3-3.3-4.9l-1-12.3l-12.3-1c-1.7-1.3-3.4-2.4-5.2-3.5l-5.6-11l-11.7,3.8c-1.9-0.5-3.9-0.9-5.8-1.1l-9.4-8l-9.4,8
		c-2.1,0.3-4.2,0.7-6.2,1.2l-11.7-3.8l-5.6,11c-1.7,1-3.3,2.1-4.9,3.3l-12.3,1l-1,12.3c-1.3,1.7-2.4,3.4-3.5,5.3l-11,5.6l3.8,11.7
		c-0.5,1.9-0.9,3.9-1.1,5.8l-8,9.4l8,9.4c0.3,2.1,0.7,4.2,1.2,6.2l-3.8,11.7l11,5.6c1,1.7,2.1,3.3,3.3,4.9l1,12.3l12.3,1
		c1.7,1.3,3.4,2.4,5.2,3.5l5.6,11l11.7-3.8c1.9,0.5,3.9,0.9,5.8,1.1l9.4,8l9.4-8c2.1-0.3,4.2-0.7,6.2-1.2l11.7,3.8l5.6-11
		c1.7-1,3.3-2.1,4.9-3.3l12.3-1l1-12.3c1.3-1.7,2.4-3.4,3.5-5.3L671,494.7z"/>
	<polygon class="st1" points="168.3,467.8 120.5,461.6 115.2,467.8 120.5,474 	"/>
	<polygon class="st1" points="195.8,467.8 243.6,474 248.9,467.8 243.6,461.6 	"/>
	<polygon class="st1" points="188.2,406.2 182,400.9 175.8,406.2 182,454 	"/>
	<polygon class="st1" points="175.8,529.4 182,534.7 188.2,529.4 182,481.6 	"/>
	<polygon class="st1" points="230,428.6 229.3,420.5 221.2,419.8 191.8,458 	"/>
	<polygon class="st1" points="134.1,507 134.8,515.1 142.9,515.7 172.3,477.5 	"/>
	<polygon class="st1" points="221.2,515.7 229.3,515.1 230,507 191.8,477.5 	"/>
	<polygon class="st1" points="142.9,419.8 134.8,420.5 134.1,428.6 172.3,458 	"/>
	<polygon class="st1" points="122.9,485.8 120.4,493.6 127.6,497.3 169.3,473.1 	"/>
	<polygon class="st1" points="241.2,449.8 243.7,442 236.5,438.3 194.8,462.5 	"/>
	<polygon class="st1" points="164,408.5 156.3,406.1 152.6,413.3 176.7,455 	"/>
	<polygon class="st1" points="200.1,527 207.8,529.5 211.5,522.2 187.4,480.5 	"/>
	<polygon class="st1" points="211.2,413.2 207.4,405.9 199.7,408.4 187.3,455 	"/>
	<polygon class="st1" points="152.9,522.4 156.7,529.7 164.4,527.1 176.8,480.6 	"/>
	<polygon class="st1" points="194.8,473 236.6,496.9 243.9,493.2 241.3,485.5 	"/>
	<polygon class="st1" points="169.3,462.5 127.5,438.6 120.2,442.4 122.8,450.1 	"/>
	<polygon class="st1" points="309.3,467.8 261.6,461.6 256.3,467.8 261.6,474 	"/>
	<polygon class="st1" points="336.9,467.8 384.7,474 390,467.8 384.7,461.6 	"/>
	<polygon class="st1" points="329.3,406.2 323.1,400.9 316.9,406.2 323.1,454 	"/>
	<polygon class="st1" points="316.9,529.4 323.1,534.7 329.3,529.4 323.1,481.6 	"/>
	<polygon class="st1" points="371,428.6 370.4,420.5 362.3,419.8 332.9,458 	"/>
	<polygon class="st1" points="275.2,507 275.9,515.1 284,515.7 313.4,477.5 	"/>
	<polygon class="st1" points="362.3,515.7 370.4,515.1 371,507 332.9,477.5 	"/>
	<polygon class="st1" points="284,419.8 275.9,420.5 275.2,428.6 313.4,458 	"/>
	<polygon class="st1" points="263.9,485.8 261.5,493.6 268.8,497.3 310.4,473.1 	"/>
	<polygon class="st1" points="382.3,449.8 384.8,442 377.5,438.3 335.9,462.5 	"/>
	<polygon class="st1" points="305.1,408.5 297.4,406.1 293.8,413.3 317.8,455 	"/>
	<polygon class="st1" points="341.1,527 348.9,529.5 352.6,522.2 328.4,480.5 	"/>
	<polygon class="st1" points="352.2,413.2 348.5,405.9 340.8,408.4 328.4,455 	"/>
	<polygon class="st1" points="294,522.4 297.8,529.7 305.5,527.1 317.9,480.6 	"/>
	<polygon class="st1" points="335.9,473 377.7,496.9 385,493.2 382.4,485.5 	"/>
	<polygon class="st1" points="310.4,462.5 268.5,438.6 261.3,442.4 263.8,450.1 	"/>
	<polygon class="st1" points="450.5,467.8 402.8,461.6 397.5,467.8 402.8,474 	"/>
	<polygon class="st1" points="478.1,467.8 526,474 531.2,467.8 526,461.6 	"/>
	<polygon class="st1" points="470.5,406.2 464.3,400.9 458.1,406.2 464.3,454 	"/>
	<polygon class="st1" points="458.1,529.4 464.3,534.7 470.5,529.4 464.3,481.6 	"/>
	<polygon class="st1" points="512.2,428.6 511.6,420.5 503.5,419.8 474.1,458 	"/>
	<polygon class="st1" points="416.4,507 417.1,515.1 425.2,515.7 454.6,477.5 	"/>
	<polygon class="st1" points="503.5,515.7 511.6,515.1 512.2,507 474.1,477.5 	"/>
	<polygon class="st1" points="425.2,419.8 417.1,420.5 416.4,428.6 454.6,458 	"/>
	<polygon class="st1" points="405.2,485.8 402.7,493.6 409.9,497.3 451.6,473.1 	"/>
	<polygon class="st1" points="523.5,449.8 526,442 518.8,438.3 477.1,462.5 	"/>
	<polygon class="st1" points="446.3,408.5 438.6,406.1 434.9,413.3 459,455 	"/>
	<polygon class="st1" points="482.3,527 490.1,529.5 493.8,522.2 469.6,480.5 	"/>
	<polygon class="st1" points="493.5,413.2 489.7,405.9 482,408.4 469.6,455 	"/>
	<polygon class="st1" points="435.2,522.4 438.9,529.7 446.7,527.1 459.1,480.6 	"/>
	<polygon class="st1" points="477.1,473 519,496.9 526.2,493.2 523.7,485.5 	"/>
	<polygon class="st1" points="451.6,462.5 409.8,438.6 402.5,442.4 405,450.1 	"/>
	<polygon class="st1" points="591.7,467.8 544,461.6 538.7,467.8 544,474 	"/>
	<polygon class="st1" points="619.2,467.8 667,474 672.4,467.8 667,461.6 	"/>
	<polygon class="st1" points="611.7,406.2 605.5,400.9 599.2,406.2 605.5,454 	"/>
	<polygon class="st1" points="599.2,529.4 605.5,534.7 611.7,529.4 605.5,481.6 	"/>
	<polygon class="st1" points="653.4,428.6 652.8,420.5 644.7,419.8 615.2,458 	"/>
	<polygon class="st1" points="557.5,507 558.2,515.1 566.4,515.7 595.8,477.5 	"/>
	<polygon class="st1" points="644.7,515.7 652.8,515.1 653.4,507 615.2,477.5 	"/>
	<polygon class="st1" points="566.4,419.8 558.2,420.5 557.5,428.6 595.8,458 	"/>
	<polygon class="st1" points="546.2,485.8 543.8,493.6 551,497.3 592.8,473.1 	"/>
	<polygon class="st1" points="664.7,449.8 667.2,442 659.9,438.3 618.2,462.5 	"/>
	<polygon class="st1" points="587.5,408.5 579.8,406.1 576,413.3 600.2,455 	"/>
	<polygon class="st1" points="623.5,527 631.2,529.5 635,522.2 610.8,480.5 	"/>
	<polygon class="st1" points="634.5,413.2 630.9,405.9 623.2,408.4 610.8,455 	"/>
	<polygon class="st1" points="576.4,522.4 580,529.7 587.9,527.1 600.2,480.6 	"/>
	<polygon class="st1" points="618.2,473 660,496.9 667.2,493.2 664.8,485.5 	"/>
	<polygon class="st1" points="592.8,462.5 550.8,438.6 543.7,442.4 546.2,450.1 	"/>
	<path class="st2" d="M674.5,398.8c0-25.8-16-49-39.5-58.4c1-2.8,1.5-5.7,1.5-8.7c0-14.1-11.5-25.6-25.6-25.6
		c-12.3,0-22.6,8.7-25,20.2c-3.3-3-7.6-4.8-12.3-4.8c-8.7,0-16.1,6.1-17.9,14.3H232c-1.9-8.2-9.2-14.3-17.9-14.3
		c-4.7,0-9,1.8-12.3,4.7c-2.5-11.5-12.8-20.2-25-20.2c-14.1,0-25.6,11.5-25.6,25.6c0,3.2,0.6,6.2,1.7,9.1
		c-22.9,9.7-38.5,32.7-38.5,58s15.5,48.2,38.5,58c-1.1,2.9-1.7,6-1.7,9.2c0,14.1,11.5,25.6,25.6,25.6c12.3,0,22.6-8.7,25-20.3
		c3.3,2.9,7.5,4.7,12.2,4.7c8.7,0,16-6.1,17.9-14.3h323.6c1.9,8.2,9.2,14.3,17.9,14.3c4.7,0,9-1.8,12.3-4.7
		c2.5,11.6,12.8,20.3,25.1,20.3c14.1,0,25.6-11.5,25.6-25.6c0-3-0.5-5.9-1.5-8.7C658.5,447.7,674.5,424.6,674.5,398.8z"/>
	<path class="st3" d="M225.1,422.1l-2.9,16.3h-2l2.3-13.2l-6.6,7l-4.1-7l-2.3,13.2h-2l2.9-16.3h2.2l4,6.8l6.4-6.8H225.1z"/>
	<path class="st3" d="M234.2,422.1l-2.9,16.3h-2l2.9-16.3H234.2z"/>
	<path class="st3" d="M238.6,438.4l2.9-16.3h2l-2.6,14.5h5.8l-0.3,1.8H238.6z"/>
	<path class="st3" d="M264.4,422.1l-5.4,6.2l5.3,10.1H262l-4.4-8.4l-1.3,1.5l-1.2,6.9h-2l2.9-16.3h2l-1.1,6l5.3-6L264.4,422.1
		L264.4,422.1z"/>
	<path class="st3" d="M298.1,434.8l1.2,1.3c-2.1,1.7-4.3,2.5-6.5,2.5c-2.4,0-4.2-0.8-5.6-2.4c-1.4-1.6-1.8-3.6-1.4-5.9
		s1.6-4.2,3.5-5.9c1.9-1.7,4.1-2.5,6.4-2.5c2.2,0,4.1,0.8,5.6,2.5l-1.6,1.3c-1.3-1.3-2.7-2-4.3-2c-1.7,0-3.3,0.6-4.8,1.9
		s-2.4,2.8-2.7,4.6c-0.3,1.8,0,3.4,1.1,4.6s2.4,1.9,4.2,1.9C294.8,436.8,296.4,436.1,298.1,434.8z"/>
	<path class="st3" d="M308.6,431.2l-1.3,7.3h-2l2.9-16.3h2l-1.3,7.3h6.7l1.3-7.3h2l-2.9,16.3h-2l1.3-7.3H308.6z"/>
	<path class="st3" d="M339.4,424.4c1.4,1.6,1.8,3.6,1.4,5.9s-1.6,4.2-3.5,5.9c-1.9,1.7-4.1,2.5-6.4,2.5c-2.4,0-4.2-0.8-5.6-2.5
		c-1.3-1.6-1.8-3.6-1.4-5.9s1.6-4.2,3.5-5.9c1.9-1.6,4.1-2.5,6.4-2.5C336.2,421.9,338.1,422.7,339.4,424.4z M333.5,423.7
		c-1.7,0-3.3,0.6-4.8,1.9s-2.4,2.8-2.7,4.6c-0.3,1.8,0,3.4,1.1,4.7c1,1.3,2.4,1.9,4.2,1.9c1.7,0,3.4-0.6,4.8-1.9
		c1.5-1.3,2.4-2.8,2.7-4.7c0.3-1.8,0-3.4-1.1-4.6C336.7,424.3,335.3,423.7,333.5,423.7z"/>
	<path class="st3" d="M359.2,434.8l1.2,1.3c-2.1,1.7-4.3,2.5-6.5,2.5c-2.4,0-4.2-0.8-5.6-2.4c-1.3-1.6-1.8-3.6-1.4-5.9
		s1.6-4.2,3.5-5.9c1.9-1.6,4.1-2.5,6.4-2.5c2.2,0,4.1,0.8,5.6,2.5l-1.6,1.3c-1.3-1.3-2.7-2-4.3-2c-1.7,0-3.3,0.6-4.8,1.9
		s-2.4,2.8-2.7,4.6c-0.3,1.8,0,3.4,1.1,4.6c1,1.3,2.4,1.9,4.2,1.9C355.9,436.8,357.5,436.1,359.2,434.8z"/>
	<path class="st3" d="M383,424.4c1.4,1.6,1.8,3.6,1.4,5.9s-1.6,4.2-3.5,5.9c-1.9,1.6-4.1,2.5-6.4,2.5c-2.4,0-4.2-0.8-5.6-2.5
		s-1.8-3.6-1.4-5.9s1.6-4.2,3.5-5.9c1.9-1.6,4.1-2.5,6.4-2.5C379.8,421.9,381.7,422.7,383,424.4z M377.1,423.7
		c-1.7,0-3.3,0.6-4.8,1.9s-2.4,2.8-2.7,4.6c-0.3,1.8,0,3.4,1.1,4.7c1,1.3,2.4,1.9,4.2,1.9c1.7,0,3.4-0.6,4.8-1.9
		c1.5-1.3,2.4-2.8,2.7-4.7c0.3-1.8,0-3.4-1.1-4.6C380.3,424.3,378.9,423.7,377.1,423.7z"/>
	<path class="st3" d="M389.6,438.4l2.9-16.3h2l-2.6,14.5h5.8l-0.3,1.8H389.6z"/>
	<path class="st3" d="M413.3,422.1l3,16.3h-2.1l-1.3-6.8h-4.4l-3.7,6.8h-2.1l8.8-16.3H413.3z M412.6,429.9l-0.8-4.3l-2.3,4.3H412.6z
		"/>
	<path class="st3" d="M429,423.9l-2.6,14.5h-2l2.6-14.5h-3.9l0.3-1.8h9.8l-0.3,1.8H429z"/>
	<path class="st3" d="M448.3,422.1l-0.3,1.8h-6.8l-1,5.5h6.8l-0.3,1.8H440l-1,5.5h6.8l-0.3,1.8h-8.8l2.9-16.3L448.3,422.1
		L448.3,422.1z"/>
	<path class="st3" d="M476.7,422.1l3,16.3h-2.1l-1.3-6.8h-4.4l-3.7,6.8h-2.1l8.8-16.3H476.7z M476,429.9l-0.8-4.3l-2.3,4.3H476z"/>
	<path class="st3" d="M485.7,438.4l2.9-16.3h2l-2.6,14.5h5.8l-0.3,1.8H485.7z"/>
	<path class="st3" d="M517.5,422.1l-2.9,16.3h-2l2.3-13.2l-6.6,7l-4.1-7l-2.3,13.2h-2l2.9-16.3h2.2l4,6.8l6.4-6.8H517.5z"/>
	<path class="st3" d="M538,424.4c1.4,1.6,1.8,3.6,1.4,5.9c-0.4,2.3-1.6,4.2-3.5,5.9c-1.9,1.6-4.1,2.5-6.4,2.5
		c-2.4,0-4.2-0.8-5.6-2.5c-1.4-1.7-1.8-3.6-1.4-5.9c0.4-2.3,1.6-4.2,3.5-5.9c1.9-1.6,4.1-2.5,6.4-2.5
		C534.8,421.9,536.7,422.7,538,424.4z M532.2,423.7c-1.7,0-3.3,0.6-4.8,1.9s-2.4,2.8-2.7,4.6c-0.3,1.8,0,3.4,1.1,4.7
		c1,1.3,2.4,1.9,4.2,1.9c1.7,0,3.4-0.6,4.8-1.9c1.5-1.3,2.4-2.8,2.7-4.7c0.3-1.8,0-3.4-1.1-4.6C535.2,424.3,533.8,423.7,532.2,423.7
		z"/>
	<path class="st3" d="M549.5,422.1l7,13l2.3-13h2l-2.9,16.3h-2.3l-6.8-12.7l-2.2,12.7h-2l2.9-16.3H549.5z"/>
	<path class="st3" d="M571.4,422.1c2.7,0,4.7,0.8,5.9,2.3c1.3,1.6,1.8,3.6,1.4,5.8c-0.4,2.3-1.6,4.3-3.5,5.9c-1.7,1.5-4,2.2-6.7,2.2
		h-3.4L568,422L571.4,422.1L571.4,422.1z M569.7,423.9l-2.2,12.7h1.4c2,0,3.7-0.6,5.1-1.7c1.5-1.3,2.4-2.8,2.7-4.7
		c0.3-1.8,0-3.4-1.1-4.7c-1-1.1-2.4-1.6-4.5-1.6L569.7,423.9L569.7,423.9z"/>
	<path class="st3" d="M285.3,387.6L285.3,387.6c2.2,6.5,3.3,10.4,3.3,11.6v0.4c0,2.5-0.9,4.8-2.8,6.9c-2,2.2-4.5,3.4-7.7,3.7
		c-0.4,0-0.8,0-1.1,0c-3.1,0-5.6-0.9-7.5-2.8c-0.1-0.2-0.2-0.5-0.2-0.7c0-0.3,0.1-0.7,0.4-1.1l1.7-1.7c0.4-0.5,0.8-0.8,1.3-0.8
		c0.4,0,0.8,0.2,1.2,0.5c0.9,0.6,1.7,0.8,2.3,0.8c0.4,0,0.8-0.1,1.1-0.4c0.5-0.4,0.7-0.9,0.7-1.6c0-0.4-0.1-0.9-0.2-1.4l-4-12.2l0,0
		c-2.1-6.5-3.2-10.4-3.3-11.6v-0.4c0-2.5,0.9-4.8,2.8-6.9c1.9-2.2,4.5-3.4,7.7-3.7c0.4,0,0.8,0,1.1,0c3.1,0,5.6,0.9,7.5,2.8
		c0.1,0.2,0.2,0.5,0.2,0.7c0,0.3-0.1,0.7-0.4,1.1l-1.7,1.7c-0.4,0.5-0.8,0.8-1.3,0.8c-0.4,0-0.8-0.2-1.2-0.5
		c-0.9-0.6-1.7-0.8-2.3-0.8c-0.4,0-0.8,0.1-1.1,0.4c-0.5,0.4-0.7,0.9-0.7,1.6c0,0.4,0.1,0.9,0.2,1.4L285.3,387.6z"/>
	<path class="st3" d="M314.5,367.2c3.7,0.3,6.9,1.8,9.7,4.7c2.9,2.9,4.3,6.3,4.3,10.2c0,4-1.5,7.5-4.6,10.5
		c-2.6,2.7-5.8,4.2-9.4,4.5H308c-0.6,0-0.9,0.3-0.9,0.8v10.4c0,1.1-0.4,1.6-1.3,1.6h-9.6c-0.7,0-1.1-0.5-1.1-1.4v-39.7
		c0-1.1,0.6-1.6,1.7-1.6H314.5z M307.1,390.3c0.2,0.6,0.7,0.9,1.5,0.9h5c1.8-0.1,3.5-0.9,4.9-2.3c1.8-1.8,2.7-4.1,2.7-6.7
		c0-2.7-0.8-4.8-2.4-6.4c-1.8-1.7-3.9-2.6-6.5-2.7h-3.6c-0.9,0-1.4,0.3-1.6,0.8V390.3z"/>
	<path class="st3" d="M363,368.6v2.9c0,1-0.5,1.5-1.4,1.5h-15.8c-0.9,0-1.3,0.4-1.3,1.3v15.5c0,1,0.4,1.5,1.3,1.5h2.8
		c0.9,0,1.4,0.4,1.4,1.3v3.6c0,0.7-0.4,1-1.3,1h-3c-0.8,0-1.1,0.4-1.1,1.3v4.1c0,1,0.4,1.5,1.2,1.5h16c0.9,0,1.3,0.3,1.3,1v3.8
		c0,0.7-0.4,1-1.2,1h-28c-0.8,0-1.2-0.5-1.2-1.4v-39.7c0-1.1,0.5-1.6,1.6-1.6h27.1C362.4,367.2,363,367.7,363,368.6z"/>
	<path class="st3" d="M389.2,398.1v10c0,1.2-0.6,1.8-1.7,1.8h-8.3c-1.1,0-1.6-0.6-1.6-1.9v-9.9L364,368.8c-0.1-0.3-0.2-0.6-0.2-0.8
		c0-0.5,0.3-0.8,1-0.8h9.5c0.9,0,1.6,0.4,2,1.3l8.7,18.9c0.1,0.4,0.2,0.6,0.4,0.6c0.1,0,0.2-0.2,0.3-0.6l9.2-19.2
		c0.3-0.7,0.9-1,1.9-1h4.3c1,0,1.4,0.4,1.4,1.3c0,0.2,0,0.3,0,0.5L389.2,398.1z"/>
	<path class="st3" d="M421.1,387.6L421.1,387.6c2.2,6.5,3.3,10.4,3.3,11.6v0.4c0,2.5-0.9,4.8-2.8,6.9c-2,2.2-4.5,3.4-7.7,3.7
		c-0.4,0-0.8,0-1.1,0c-3.1,0-5.6-0.9-7.5-2.8c-0.1-0.2-0.2-0.5-0.2-0.7c0-0.3,0.1-0.7,0.4-1.1l1.7-1.7c0.4-0.5,0.8-0.8,1.3-0.8
		c0.4,0,0.8,0.2,1.2,0.5c0.9,0.6,1.7,0.8,2.3,0.8c0.4,0,0.8-0.1,1.1-0.4c0.5-0.4,0.7-0.9,0.7-1.6c0-0.4-0.1-0.9-0.2-1.4l-4-12.2l0,0
		c-2.1-6.5-3.2-10.4-3.3-11.6v-0.4c0-2.5,0.9-4.8,2.8-6.9c1.9-2.2,4.5-3.4,7.7-3.7c0.4,0,0.8,0,1.1,0c3.1,0,5.6,0.9,7.5,2.8
		c0.1,0.2,0.2,0.5,0.2,0.7c0,0.3-0.1,0.7-0.4,1.1l-1.7,1.7c-0.4,0.5-0.8,0.8-1.3,0.8c-0.4,0-0.8-0.2-1.2-0.5
		c-0.9-0.6-1.7-0.8-2.3-0.8c-0.4,0-0.8,0.1-1.1,0.4c-0.5,0.4-0.7,0.9-0.7,1.6c0,0.4,0.1,0.9,0.2,1.4L421.1,387.6z"/>
	<path class="st3" d="M442.5,369v39.1c0,1.2-0.6,1.8-1.7,1.8h-8.7c-1.1,0-1.6-0.6-1.6-1.9v-39.2c0-1.1,0.6-1.6,1.7-1.6h8.5
		C441.9,367.2,442.5,367.8,442.5,369z"/>
	<path class="st3" d="M466.2,367.2c5.5,0.4,10.1,2.5,13.8,6.4c3.8,4.2,5.7,9.2,5.7,14.9c0,5.8-1.9,10.7-5.8,14.8
		c-3.7,3.7-7.9,5.9-12.5,6.6H449c-0.9,0-1.3-0.4-1.3-1.2v-40.4c0-0.8,0.4-1.1,1.1-1.1H466.2z M458.6,375.7v25.9
		c0,1.6,0.7,2.4,2.1,2.4h3.7c3.6-0.1,6.7-1.5,9.4-4.2c2.9-3.1,4.4-6.8,4.4-11.3c0-4.4-1.4-8.2-4.3-11.4c-2.4-2.6-6-4-10.6-4.1h-2.9
		C459.2,373,458.6,373.9,458.6,375.7z"/>
	<path class="st3" d="M521,368.6v2.9c0,1-0.5,1.5-1.4,1.5h-15.8c-0.9,0-1.3,0.4-1.3,1.3v15.5c0,1,0.4,1.5,1.3,1.5h2.8
		c0.9,0,1.4,0.4,1.4,1.3v3.6c0,0.7-0.4,1-1.3,1h-3c-0.8,0-1.1,0.4-1.1,1.3v4.1c0,1,0.4,1.5,1.2,1.5h16c0.9,0,1.3,0.3,1.3,1v3.8
		c0,0.7-0.4,1-1.2,1h-28c-0.8,0-1.2-0.5-1.2-1.4v-39.7c0-1.1,0.5-1.6,1.6-1.6h27.1C520.5,367.2,521,367.7,521,368.6z"/>
	<path class="st3" d="M610.9,448.4L610.9,448.4L610.9,448.4H177h-0.1l0,0l0,0c-9.4,0.1-17.1,7.7-17.1,17.2s7.7,17.2,17.2,17.2
		s17.2-7.7,17.2-17.2h-4.7c0,6.9-5.6,12.5-12.5,12.5s-12.5-5.6-12.5-12.5c0-6.9,5.6-12.5,12.5-12.5h15.7H206c-0.8,1.4-1.3,3-1.3,4.7
		c0,5.2,4.2,9.4,9.4,9.4s9.4-4.2,9.4-9.4h-4.7c0,2.6-2.1,4.7-4.7,4.7c-2.6,0-4.7-2.1-4.7-4.7c0-2.6,2.1-4.7,4.7-4.7h359.6
		c2.6,0,4.7,2.1,4.7,4.7c0,2.6-2.1,4.7-4.7,4.7c-2.6,0-4.7-2.1-4.7-4.7h-4.7c0,5.2,4.2,9.4,9.4,9.4s9.4-4.2,9.4-9.4
		c0-1.7-0.5-3.3-1.3-4.7h13.3h15.7c6.9,0,12.5,5.6,12.5,12.5c0,6.9-5.6,12.5-12.5,12.5s-12.5-5.6-12.5-12.5h-4.7
		c0,9.5,7.7,17.2,17.2,17.2s17.2-7.7,17.2-17.2C627.9,456.2,620.2,448.5,610.9,448.4z"/>
	<path class="st3" d="M176.7,349.2L176.7,349.2L176.7,349.2h433.7h0.1l0,0l0,0c9.4-0.1,17.1-7.7,17.1-17.2s-7.7-17.2-17.2-17.2
		s-17.2,7.7-17.2,17.2h4.7c0-6.9,5.6-12.5,12.5-12.5s12.5,5.6,12.5,12.5s-5.6,12.5-12.5,12.5h-15.7h-13.3c0.8-1.4,1.3-3,1.3-4.7
		c0-5.2-4.2-9.4-9.4-9.4s-9.4,4.2-9.4,9.4h4.7c0-2.6,2.1-4.7,4.7-4.7c2.6,0,4.7,2.1,4.7,4.7c0,2.6-2.1,4.7-4.7,4.7H213.9
		c-2.6,0-4.7-2.1-4.7-4.7c0-2.6,2.1-4.7,4.7-4.7c2.6,0,4.7,2.1,4.7,4.7h4.7c0-5.2-4.2-9.4-9.4-9.4s-9.4,4.2-9.4,9.4
		c0,1.7,0.5,3.3,1.3,4.7h-13.3h-15.7c-6.9,0-12.5-5.6-12.5-12.5s5.6-12.5,12.5-12.5c6.9,0,12.5,5.6,12.5,12.5h4.7
		c0-9.5-7.7-17.2-17.2-17.2s-17.2,7.7-17.2,17.2C159.7,341.4,167.3,349.1,176.7,349.2z"/>
	<path class="st3" d="M159.1,352.8l-1.7-4.4c-20.8,8-34.7,28.3-34.7,50.6s13.9,42.6,34.7,50.6l1.7-4.4c-19-7.3-31.7-25.9-31.7-46.2
		S140.2,360.1,159.1,352.8z"/>
	<path class="st3" d="M631.5,348.4l-1.7,4.4c19,7.3,31.7,25.9,31.7,46.2s-12.7,38.9-31.7,46.2l1.7,4.4c20.8-8,34.7-28.3,34.7-50.6
		C666.2,376.7,652.4,356.4,631.5,348.4z"/>
</g>
</svg>
