<?xml version="1.0" encoding="utf-8"?>
<!-- Generator: Adobe Illustrator 19.0.1, SVG Export Plug-In . SVG Version: 6.00 Build 0)  -->
<svg version="1.1" id="Layer_1" xmlns="http://www.w3.org/2000/svg" xmlns:xlink="http://www.w3.org/1999/xlink" x="0px" y="0px"
	 viewBox="46.9 280.2 694.1 232.5" style="enable-background:new 46.9 280.2 694.1 232.5;" xml:space="preserve">
<style type="text/css">
	.st0{fill:#590048;}
	.st1{fill:#E3CFE2;}
</style>
<g id="Layer_1_1_">
</g>
<g>
	<g>
		<path class="st0" d="M102.8,393.4c-0.4,1.7-0.8,3.4-1.2,5.2c-0.6,2.6-1.1,5.4-1.6,8c1.8-3.3,3.9-6.2,6.2-8.7
			c3.2-3.5,7-6.9,11.6-10.2c2.7-2,4.8-4.1,6.5-6.6c2.4-3.4,3.6-6.6,3.6-9.8c0-2.7-1-5.1-2.9-6.6c-1.3-1.1-3-1.6-4.9-1.6
			c-0.8,0-1.6,0.1-2.4,0.3c-2.5,0.6-4.5,2.1-6.3,4.7c-2.7,4-4.3,8.7-5.6,12.8C104.7,385,103.7,389.3,102.8,393.4z"/>
		<path class="st0" d="M122.9,406.9c-4.5,0.4-8.8,2.3-13,6.1c-3,2.5-5.5,5.7-7.6,9.5c-0.7,1.3-1.4,2.8-1.8,4.2
			c4.2-5,8.9-7.5,14.6-7.9c1.7-0.1,3.3,0,4.9,0.1c0.5,0,1,0.1,1.5,0.1c3.3,0.2,5.7-0.7,7.4-2.8c1.9-2.3,2-5.3,0.2-7.3
			c-1.3-1.4-3-2.2-5.1-2.2C123.5,406.9,123.2,406.9,122.9,406.9z"/>
		<path class="st0" d="M99.5,433.9c2.8-2.3,5.7-3.3,8.9-2.9c2,0.2,3.4,0,4.5-0.8c1.2-0.8,1.8-2.2,1.6-3.6c-0.3-1.4-1.2-2.3-2.5-2.6
			c-0.3-0.1-0.6-0.1-0.9-0.1c-0.9,0-1.9,0.3-3.1,0.9c-2.8,1.4-5,3.8-6.5,5.7C100.7,431.6,100.1,432.7,99.5,433.9z"/>
		<path class="st0" d="M96.7,419.5l-0.8-0.2h-0.1l-0.1,0.1c0.2,0.7,0.3,1.2,0.3,1.2c0.1,0.4,0.1,1,0.2,1.8c0.1-0.8,0.2-1.4,0.2-1.8
			C96.5,420.5,96.5,420.1,96.7,419.5z"/>
		<path class="st0" d="M105.4,404.3c-1.5,2-2.5,4.2-3.6,6.7l-0.2,0.4c-1.7,3.2-2.9,9.5-2.9,9.6c0,0.2-0.1,0.5-0.1,0.7
			c0.1-0.3,0.2-0.5,0.4-0.7c2.9-5.2,6.3-9.1,10.3-11.9c4.2-2.9,7.7-4.6,11.4-5.4c2-0.4,4-0.5,5.9-0.5c1.7,0,3.7-0.1,5.7-0.4
			c5.4-1,9.3-5.7,9.5-11.1c0.1-3.8-2.7-7.1-6.5-7.7c-0.5-0.1-1.1-0.1-1.6-0.1c-2,0-4.1,0.6-6.4,1.8c-4.6,2.4-9,5.7-13.9,10.1
			C110,398.7,107.5,401.5,105.4,404.3z"/>
		<path class="st0" d="M84.3,424.8c-1.5-0.8-2.8-1-4-0.8c-1.3,0.2-2.2,1.2-2.5,2.6c-0.3,1.4,0.4,2.8,1.6,3.6c1.2,0.8,2.6,1,4.5,0.8
			c0.5-0.1,0.9-0.1,1.4-0.1c2.7,0,5.2,1,7.6,3c-0.5-1.2-1.2-2.3-2.1-3.4C89.2,428.7,87.1,426.4,84.3,424.8z"/>
		<path class="st0" d="M92.1,426.7c-0.5-1.4-1.1-2.9-1.8-4.2c-2.2-3.8-4.7-7-7.6-9.5c-4.3-3.6-8.5-5.7-13.1-6.1
			c-2.5-0.2-4.5,0.5-6,2.1c-1.8,1.9-1.7,4.9,0.2,7.3c1.7,2.1,4.1,3,7.4,2.8c0.5,0,1-0.1,1.5-0.1c1.1-0.1,2.3-0.2,3.5-0.2
			c0.5,0,0.9,0,1.4,0C83.2,419.2,87.9,421.7,92.1,426.7z"/>
		<path class="st0" d="M86.2,397.8c2.3,2.5,4.4,5.4,6.2,8.7c-0.5-2.6-1-5.4-1.6-8c-0.4-1.7-0.8-3.4-1.2-5.2
			c-0.9-4.1-1.8-8.4-3.1-12.5c-1.3-4.1-2.9-8.8-5.6-12.8c-1.8-2.6-3.8-4.1-6.3-4.7c-0.8-0.2-1.6-0.3-2.4-0.3c-1.9,0-3.5,0.5-4.9,1.6
			c-1.9,1.5-2.9,3.8-2.9,6.6c0,3.2,1.1,6.3,3.6,9.8c1.7,2.4,3.8,4.5,6.5,6.6C79.1,391,82.9,394.3,86.2,397.8z"/>
		<path class="st0" d="M96.2,409.6c0-0.1,0-0.2,0-0.3c0.5-2.8,1-5.7,1.5-8.5c0.3-1.7,0.6-3.5,0.9-5.3c1.2-6.8,2.9-13.4,5.1-19.8
			c0.2-0.5,0.3-1,0.5-1.5c0.7-1.9,1.3-3.7,1.7-5.7c0.8-4.3,0.3-7.8-1.5-11c-1.8-3.2-5.4-4.9-8.7-4.9c-1.3,0-2.5,0.2-3.6,0.7
			c-3.4,1.6-5.3,4.1-6.2,8c-0.6,2.8-0.4,5.8,0.6,9.3c0.4,1.3,0.8,2.5,1.3,3.8c0.3,0.8,0.6,1.6,0.9,2.4c2.3,7,3.9,14.2,5.3,20.5
			C94.9,401.4,95.6,405.4,96.2,409.6z"/>
		<path class="st0" d="M83,409c4,2.8,7.4,6.8,10.3,11.9c0.1,0.2,0.2,0.5,0.4,0.7c0-0.3-0.1-0.5-0.1-0.7c-0.1-0.8-1.3-6.6-2.8-9.5
			l-0.2-0.4c-1.1-2.4-2.1-4.6-3.6-6.7c-2.1-2.8-4.6-5.6-7.9-8.7c-4.9-4.4-9.3-7.7-13.9-10.1c-2.3-1.2-4.4-1.8-6.4-1.8
			c-0.5,0-1.1,0-1.6,0.1c-3.9,0.6-6.6,3.8-6.5,7.7c0.1,5.5,4.1,10.2,9.5,11.1c2,0.4,4,0.4,5.7,0.4c1.9,0,3.9,0.1,5.9,0.5
			C75.4,404.4,78.9,406.1,83,409z"/>
		<polygon class="st0" points="246.8,367.4 246.6,367.8 246.6,368 		"/>
		<polygon class="st0" points="346.6,367.4 346.5,367.8 346.5,368 		"/>
		<polygon class="st0" points="146.9,512.3 146.7,512.7 146.7,512.8 		"/>
		<polygon class="st0" points="146.9,367.4 146.7,367.8 146.7,368 		"/>
		<path class="st0" d="M582.3,409c4,2.8,7.4,6.8,10.3,11.9c0.1,0.2,0.2,0.5,0.4,0.7c0-0.3-0.1-0.5-0.1-0.7c0-0.1-1.2-6.3-2.8-9.5
			l-0.2-0.4c-1.1-2.4-2.1-4.6-3.6-6.7c-2.1-2.8-4.6-5.6-7.9-8.7c-4.9-4.4-9.3-7.7-13.9-10.1c-2.3-1.2-4.4-1.8-6.4-1.8
			c-0.5,0-1.1,0-1.6,0.1c-3.9,0.6-6.6,3.8-6.5,7.7c0.1,5.5,4.1,10.2,9.5,11.1c2,0.4,4,0.4,5.7,0.4c1.9,0,3.9,0.1,5.9,0.5
			C574.6,404.4,578.2,406.1,582.3,409z"/>
		<path class="st0" d="M186,397.8c2.3,2.5,4.4,5.4,6.2,8.7c-0.5-2.6-1-5.4-1.6-8c-0.4-1.7-0.8-3.4-1.2-5.2
			c-0.9-4.1-1.8-8.4-3.1-12.5c-1.3-4.1-2.9-8.8-5.6-12.8c-1.8-2.6-3.8-4.1-6.3-4.7c-0.8-0.2-1.6-0.3-2.4-0.3c-1.9,0-3.5,0.5-4.9,1.6
			c-1.9,1.5-2.9,3.8-2.9,6.6c0,3.2,1.1,6.3,3.6,9.8c1.7,2.4,3.8,4.5,6.5,6.6C179,391,182.8,394.3,186,397.8z"/>
		<path class="st0" d="M184.1,424.8c-1.5-0.8-2.8-1-4-0.8c-1.3,0.2-2.2,1.2-2.5,2.6s0.4,2.8,1.6,3.6c1.2,0.8,2.6,1,4.5,0.8
			c0.5-0.1,0.9-0.1,1.4-0.1c2.7,0,5.2,1,7.6,3c-0.5-1.2-1.2-2.3-2.1-3.4C189.1,428.7,187,426.4,184.1,424.8z"/>
		<path class="st0" d="M182.9,409c4,2.8,7.4,6.8,10.3,11.9c0.1,0.2,0.2,0.5,0.4,0.7c0-0.3-0.1-0.5-0.1-0.7c-0.1-0.8-1.3-6.6-2.8-9.5
			l-0.2-0.4c-1.1-2.4-2.1-4.6-3.6-6.7c-2.1-2.8-4.6-5.6-7.9-8.7c-4.9-4.4-9.3-7.7-13.9-10.1c-2.3-1.2-4.4-1.8-6.4-1.8
			c-0.5,0-1.1,0-1.6,0.1c-3.9,0.6-6.6,3.8-6.5,7.7c0.1,5.5,4.1,10.2,9.5,11.1c2,0.4,4,0.4,5.7,0.4c1.9,0,3.9,0.1,5.9,0.5
			C175.2,404.4,178.7,406.1,182.9,409z"/>
		<path class="st0" d="M191.9,426.7c-0.5-1.4-1.1-2.9-1.8-4.2c-2.2-3.8-4.7-7-7.6-9.5c-4.3-3.6-8.5-5.7-13-6.1
			c-2.5-0.2-4.5,0.5-6,2.1c-1.8,1.9-1.7,4.9,0.2,7.3c1.7,2.1,4.1,3,7.4,2.8c0.5,0,1-0.1,1.5-0.1c1.1-0.1,2.3-0.2,3.5-0.2
			c0.5,0,0.9,0,1.4,0C183.1,419.2,187.7,421.7,191.9,426.7z"/>
		<path class="st0" d="M196.1,409.6c0-0.1,0-0.2,0-0.3c0.5-2.8,1-5.7,1.5-8.5c0.3-1.8,0.6-3.5,1-5.4c1.2-6.8,2.9-13.4,5.1-19.8
			c0.2-0.5,0.3-1,0.5-1.5c0.7-1.9,1.3-3.7,1.7-5.7c0.8-4.3,0.3-7.8-1.5-11c-1.8-3.2-5.4-4.9-8.7-4.9c-1.3,0-2.5,0.2-3.6,0.7
			c-3.4,1.6-5.3,4.1-6.2,8c-0.6,2.8-0.4,5.8,0.6,9.3c0.4,1.3,0.8,2.5,1.3,3.8c0.3,0.8,0.6,1.6,0.9,2.4c2.3,7,3.9,14.2,5.3,20.5
			C194.7,401.4,195.4,405.4,196.1,409.6z"/>
		<path class="st0" d="M222.8,406.9c-4.5,0.4-8.8,2.4-13,6.1c-3,2.5-5.5,5.7-7.6,9.5c-0.7,1.3-1.4,2.8-1.8,4.2
			c4.2-5,8.9-7.5,14.6-7.9c1.7-0.1,3.3,0,4.9,0.1c0.5,0,1,0.1,1.5,0.1c3.3,0.2,5.7-0.7,7.4-2.8c1.9-2.3,2-5.3,0.2-7.3
			c-1.3-1.4-3-2.2-5.1-2.2C223.3,406.9,223,406.9,222.8,406.9z"/>
		<path class="st0" d="M202.7,393.4c-0.4,1.7-0.8,3.4-1.2,5.2c-0.6,2.6-1.1,5.4-1.6,8c1.8-3.3,3.9-6.2,6.2-8.7
			c3.2-3.5,7-6.9,11.6-10.2c2.7-2,4.8-4.1,6.5-6.6c2.4-3.4,3.6-6.6,3.6-9.8c0-2.7-1-5.1-2.9-6.6c-1.3-1.1-3-1.6-4.9-1.6
			c-0.8,0-1.6,0.1-2.4,0.3c-2.5,0.6-4.5,2.1-6.3,4.7c-2.7,4-4.3,8.7-5.6,12.8C204.5,384.9,203.6,389.3,202.7,393.4z"/>
		<path class="st0" d="M205.3,404.3c-1.5,2-2.5,4.2-3.6,6.7l-0.2,0.4c-1.5,3-2.7,8.8-2.9,9.6c0,0.2-0.1,0.5-0.1,0.7
			c0.1-0.3,0.2-0.5,0.4-0.7c2.9-5.2,6.3-9.1,10.3-11.9c4.2-2.9,7.7-4.6,11.4-5.4c2-0.4,4-0.5,5.9-0.5c1.7,0,3.7-0.1,5.7-0.4
			c5.4-1,9.3-5.7,9.5-11.1c0.1-3.8-2.7-7.1-6.5-7.7c-0.5-0.1-1.1-0.1-1.6-0.1c-2,0-4.1,0.6-6.4,1.8c-4.6,2.4-9,5.7-13.9,10.1
			C209.9,398.7,207.4,401.5,205.3,404.3z"/>
		<path class="st0" d="M199.4,433.9c2.8-2.3,5.7-3.3,8.9-2.9c2,0.2,3.4,0,4.5-0.8c1.2-0.8,1.8-2.2,1.6-3.6c-0.3-1.4-1.2-2.3-2.5-2.6
			c-0.3-0.1-0.6-0.1-0.9-0.1c-0.9,0-1.9,0.3-3.1,0.9c-2.8,1.4-5,3.8-6.5,5.7C200.6,431.6,199.9,432.7,199.4,433.9z"/>
		<path class="st0" d="M691.2,426.7c-0.5-1.4-1.1-2.9-1.8-4.2c-2.2-3.8-4.7-7-7.6-9.5c-4.3-3.6-8.5-5.7-13-6.1
			c-2.5-0.2-4.5,0.5-6,2.1c-1.8,1.9-1.7,4.9,0.2,7.3c1.7,2.1,4.1,3,7.4,2.8c0.5,0,1-0.1,1.5-0.1c1.1-0.1,2.3-0.2,3.5-0.2
			c0.5,0,0.9,0,1.4,0C682.3,419.2,687,421.7,691.2,426.7z"/>
		<path class="st0" d="M698.7,433.9c2.8-2.3,5.7-3.3,8.9-2.9c2,0.2,3.4,0,4.5-0.8c1.2-0.8,1.8-2.2,1.6-3.6c-0.3-1.4-1.2-2.3-2.5-2.6
			c-0.3-0.1-0.6-0.1-0.9-0.1c-0.9,0-1.9,0.3-3.1,0.9c-2.8,1.4-5,3.8-6.5,5.7C699.9,431.6,699.2,432.7,698.7,433.9z"/>
		<path class="st0" d="M722,406.9c-4.5,0.4-8.8,2.3-13,6.1c-3,2.5-5.5,5.7-7.6,9.5c-0.7,1.3-1.4,2.8-1.8,4.2c4.2-5,8.9-7.5,14.6-7.9
			c1.7-0.1,3.3,0,4.9,0.1c0.5,0,1,0.1,1.5,0.1c3.3,0.2,5.7-0.7,7.4-2.8c1.9-2.3,2-5.3,0.2-7.3c-1.3-1.4-3-2.2-5.1-2.2
			C722.6,406.9,722.3,406.9,722,406.9z"/>
		<path class="st0" d="M694.9,352.7c-1.3,0-2.5,0.2-3.6,0.7c-3.4,1.6-5.3,4.1-6.2,8c-0.6,2.8-0.4,5.8,0.6,9.3
			c0.4,1.3,0.8,2.5,1.3,3.8c0.3,0.8,0.6,1.6,0.9,2.4c2.3,7,3.9,14.2,5.3,20.5c0.8,3.9,1.6,8,2.2,12.1c0-0.1,0-0.2,0-0.3
			c0.5-2.8,1-5.7,1.5-8.5c0.3-1.7,0.6-3.5,0.9-5.3c1.2-6.8,2.9-13.4,5.1-19.8c0.2-0.5,0.3-1,0.5-1.5c0.7-1.9,1.3-3.7,1.7-5.7
			c0.8-4.3,0.3-7.8-1.5-11C701.9,354.3,698.2,352.7,694.9,352.7z"/>
		<polygon class="st0" points="546.3,367.4 546.2,367.8 546.2,368 		"/>
		<path class="st0" d="M683.4,424.8c-1.5-0.8-2.8-1-4-0.8c-1.3,0.2-2.2,1.2-2.5,2.6s0.4,2.8,1.6,3.6c1.2,0.8,2.6,1,4.5,0.8
			c0.5-0.1,0.9-0.1,1.4-0.1c2.7,0,5.2,1,7.6,3c-0.5-1.2-1.2-2.3-2.1-3.4C688.4,428.7,686.3,426.4,683.4,424.8z"/>
		<path class="st0" d="M702,393.4c-0.4,1.7-0.8,3.4-1.2,5.2c-0.6,2.6-1.1,5.4-1.6,8c1.8-3.3,3.9-6.2,6.2-8.7
			c3.2-3.5,7-6.9,11.6-10.2c2.7-2,4.8-4.1,6.5-6.6c2.4-3.4,3.6-6.6,3.6-9.8c0-2.7-1-5.1-2.9-6.6c-1.3-1.1-3-1.6-4.9-1.6
			c-0.8,0-1.6,0.1-2.4,0.3c-2.5,0.6-4.5,2.1-6.3,4.7c-2.7,4-4.3,8.7-5.6,12.8C703.8,384.9,702.9,389.3,702,393.4z"/>
		<path class="st0" d="M704.6,404.3c-1.5,2-2.5,4.2-3.6,6.7l-0.2,0.4c-1.5,3-2.7,8.8-2.9,9.6c0,0.2-0.1,0.5-0.1,0.7
			c0.1-0.3,0.2-0.5,0.4-0.7c2.9-5.2,6.3-9.1,10.3-11.9c4.2-2.9,7.7-4.6,11.4-5.4c2-0.4,4-0.5,5.9-0.5c1.7,0,3.7-0.1,5.7-0.4
			c5.4-1,9.3-5.7,9.5-11.1c0.1-3.8-2.7-7.1-6.5-7.7c-0.5-0.1-1.1-0.1-1.6-0.1c-2,0-4.1,0.6-6.4,1.8c-4.6,2.4-9,5.7-13.9,10.1
			C709.2,398.7,706.6,401.5,704.6,404.3z"/>
		<path class="st0" d="M595.9,419.5l-0.8-0.2H595l-0.1,0.1c0.2,0.7,0.3,1.2,0.3,1.2c0.1,0.4,0.1,1,0.2,1.8c0.1-0.8,0.2-1.4,0.2-1.8
			C595.7,420.5,595.8,420.1,595.9,419.5z"/>
		<polygon class="st0" points="646.2,512.3 646,512.7 646,512.8 		"/>
		<path class="st0" d="M598.8,433.9c2.8-2.3,5.7-3.3,8.9-2.9c2,0.2,3.4,0,4.5-0.8c1.2-0.8,1.8-2.2,1.6-3.6c-0.3-1.4-1.2-2.3-2.5-2.6
			c-0.3-0.1-0.6-0.1-0.9-0.1c-0.9,0-1.9,0.3-3.1,0.9c-2.8,1.4-5,3.8-6.5,5.7C600,431.6,599.4,432.7,598.8,433.9z"/>
		<polygon class="st0" points="646.2,367.4 646,367.8 646,368 		"/>
		<path class="st0" d="M622.2,406.9c-4.5,0.4-8.8,2.3-13.1,6.1c-3,2.6-5.5,5.7-7.6,9.5c-0.7,1.3-1.4,2.8-1.8,4.2
			c4.2-5,8.9-7.5,14.6-7.9c1.7-0.1,3.3,0,4.9,0.1c0.5,0,1,0.1,1.5,0.1c3.3,0.2,5.7-0.7,7.4-2.8c1.9-2.3,2-5.3,0.2-7.3
			c-1.3-1.4-3-2.2-5.1-2.2C622.8,406.9,622.5,406.9,622.2,406.9z"/>
		<path class="st0" d="M604.7,404.3c-1.5,2-2.5,4.2-3.6,6.7l-0.2,0.4c-1.7,3.2-2.9,9.5-2.9,9.6c0,0.2-0.1,0.5-0.1,0.7
			c0.1-0.3,0.2-0.5,0.4-0.7c2.9-5.2,6.3-9.1,10.3-11.9c4.2-2.9,7.7-4.6,11.4-5.4c2-0.4,4-0.5,5.9-0.5c1.7,0,3.7-0.1,5.7-0.4
			c5.4-1,9.3-5.7,9.5-11.1c0.1-3.8-2.7-7.1-6.5-7.7c-0.5-0.1-1.1-0.1-1.6-0.1c-2,0-4.1,0.6-6.4,1.8c-4.6,2.4-9,5.7-13.9,10.1
			C609.3,398.7,606.8,401.5,604.7,404.3z"/>
		<path class="st0" d="M585.4,397.8c2.3,2.5,4.4,5.4,6.2,8.7c-0.5-2.6-1-5.4-1.6-8c-0.4-1.7-0.8-3.4-1.2-5.2
			c-0.9-4.1-1.8-8.4-3.1-12.5c-1.3-4.1-2.9-8.8-5.6-12.8c-1.8-2.6-3.8-4.1-6.3-4.7c-0.8-0.2-1.6-0.3-2.4-0.3c-1.9,0-3.5,0.5-4.9,1.6
			c-1.9,1.5-2.9,3.8-2.9,6.6c0,3.2,1.1,6.3,3.6,9.8c1.7,2.4,3.8,4.5,6.5,6.6C578.4,391,582.2,394.3,585.4,397.8z"/>
		<path class="st0" d="M595.5,409.6c0-0.1,0-0.2,0-0.3c0.5-2.8,1-5.7,1.5-8.5c0.3-1.7,0.6-3.5,0.9-5.3c1.2-6.8,2.9-13.4,5.1-19.8
			c0.2-0.5,0.3-1,0.5-1.5c0.7-1.9,1.3-3.7,1.7-5.7c0.8-4.3,0.3-7.8-1.5-11s-5.4-4.9-8.7-4.9c-1.3,0-2.5,0.2-3.6,0.7
			c-3.4,1.6-5.3,4.1-6.2,8c-0.6,2.8-0.4,5.8,0.6,9.3c0.4,1.3,0.8,2.5,1.3,3.8c0.3,0.8,0.6,1.6,0.9,2.4c2.3,7,3.9,14.2,5.3,20.5
			C594.1,401.4,594.9,405.4,595.5,409.6z"/>
		<path class="st0" d="M602.1,393.4c-0.4,1.7-0.8,3.4-1.2,5.2c-0.6,2.6-1.1,5.4-1.6,8c1.8-3.3,3.9-6.2,6.2-8.7
			c3.2-3.5,7-6.9,11.6-10.2c2.7-2,4.8-4.1,6.5-6.6c2.4-3.4,3.6-6.6,3.6-9.8c0-2.7-1-5.1-2.9-6.6c-1.3-1.1-3-1.6-4.9-1.6
			c-0.8,0-1.6,0.1-2.4,0.3c-2.5,0.6-4.5,2.1-6.3,4.7c-2.7,4-4.3,8.7-5.6,12.8C604,385,603,389.3,602.1,393.4z"/>
		<polygon class="st0" points="47,512.3 46.9,512.7 46.9,512.8 		"/>
		<path class="st0" d="M682.2,409c4,2.8,7.4,6.8,10.3,11.9c0.1,0.2,0.2,0.5,0.4,0.7c0-0.3-0.1-0.5-0.1-0.7c-0.1-0.8-1.3-6.6-2.8-9.5
			l-0.2-0.4c-1.1-2.4-2.1-4.6-3.6-6.7c-2.1-2.8-4.6-5.6-7.9-8.7c-4.9-4.4-9.3-7.7-13.9-10.1c-2.3-1.2-4.4-1.8-6.4-1.8
			c-0.5,0-1.1,0-1.6,0.1c-3.9,0.6-6.6,3.8-6.5,7.7c0.1,5.5,4.1,10.2,9.5,11.1c2,0.4,4,0.4,5.7,0.4c1.9,0,3.9,0.1,5.9,0.5
			C674.5,404.4,678,406.1,682.2,409z"/>
		<path class="st0" d="M685.3,397.8c2.3,2.5,4.4,5.4,6.2,8.7c-0.5-2.6-1-5.4-1.6-8c-0.4-1.7-0.8-3.4-1.2-5.2
			c-0.9-4.1-1.8-8.4-3.1-12.5c-1.3-4.1-2.9-8.8-5.6-12.8c-1.8-2.6-3.8-4.1-6.3-4.7c-0.8-0.2-1.6-0.3-2.4-0.3c-1.9,0-3.5,0.5-4.9,1.6
			c-1.9,1.5-2.9,3.8-2.9,6.6c0,3.2,1.1,6.3,3.6,9.8c1.7,2.4,3.8,4.5,6.5,6.6C678.3,391,682.1,394.3,685.3,397.8z"/>
		<polygon class="st0" points="446.5,367.4 446.3,367.8 446.3,368 		"/>
		<path class="st0" d="M694.9,419.2L694.9,419.2c0.1,0.8,0.2,1.3,0.2,1.3c0.1,0.4,0.1,1,0.2,1.8c0.1-0.8,0.2-1.4,0.2-1.8
			c0,0,0.1-0.4,0.2-1L694.9,419.2C695,419.3,694.9,419.2,694.9,419.2z"/>
		<polygon class="st0" points="445.1,367.6 445.1,367.5 445.1,367.4 		"/>
		<path class="st0" d="M422.5,406.9c-4.5,0.4-8.8,2.4-13,6.1c-3,2.5-5.5,5.7-7.6,9.5c-0.7,1.3-1.4,2.8-1.8,4.2
			c4.2-5,8.9-7.5,14.6-7.9c1.7-0.1,3.3,0,4.9,0.1c0.5,0,1,0.1,1.5,0.1c3.3,0.2,5.7-0.7,7.4-2.8c1.9-2.3,2-5.3,0.2-7.3
			c-1.3-1.4-3-2.2-5.1-2.2C423,406.9,422.8,406.9,422.5,406.9z"/>
		<path class="st0" d="M522.3,406.9c-4.5,0.4-8.8,2.4-13,6.1c-3,2.5-5.5,5.7-7.6,9.5c-0.7,1.3-1.4,2.8-1.8,4.2
			c4.2-5,8.9-7.5,14.6-7.9c1.7-0.1,3.3,0,4.9,0.1c0.5,0,1,0.1,1.5,0.1c3.3,0.2,5.7-0.7,7.4-2.8c1.9-2.3,2-5.3,0.2-7.3
			c-1.3-1.4-3-2.2-5.1-2.2C522.9,406.9,522.6,406.9,522.3,406.9z"/>
		<path class="st0" d="M499,433.9c2.8-2.3,5.7-3.3,8.9-2.9c2,0.2,3.4,0,4.5-0.8c1.2-0.8,1.8-2.2,1.6-3.6c-0.3-1.4-1.2-2.3-2.5-2.6
			c-0.3-0.1-0.6-0.1-0.9-0.1c-0.9,0-1.9,0.3-3.1,0.9c-2.8,1.4-5,3.8-6.5,5.7C500.2,431.6,499.5,432.7,499,433.9z"/>
		<path class="st0" d="M502.3,393.4c-0.4,1.7-0.8,3.4-1.2,5.2c-0.6,2.6-1.1,5.4-1.6,8c1.8-3.3,3.9-6.2,6.2-8.7
			c3.2-3.5,7-6.9,11.6-10.2c2.7-2,4.8-4.1,6.5-6.6c2.4-3.4,3.6-6.6,3.6-9.8c0-2.7-1-5.1-2.9-6.6c-1.3-1.1-3-1.6-4.9-1.6
			c-0.8,0-1.6,0.1-2.4,0.3c-2.5,0.6-4.5,2.1-6.3,4.7c-2.7,4-4.3,8.7-5.6,12.8C504.1,385,503.2,389.3,502.3,393.4z"/>
		<path class="st0" d="M504.9,404.3c-1.5,2-2.5,4.2-3.6,6.7l-0.2,0.4c-1.5,3-2.7,8.8-2.9,9.6c0,0.2-0.1,0.5-0.1,0.7
			c0.1-0.3,0.2-0.5,0.4-0.7c2.9-5.2,6.3-9.1,10.3-11.9c4.2-2.9,7.7-4.6,11.4-5.4c2-0.4,4-0.5,5.9-0.5c1.7,0,3.7-0.1,5.7-0.4
			c5.4-1,9.3-5.7,9.5-11.1c0.1-3.8-2.7-7.1-6.5-7.7c-0.5-0.1-1.1-0.1-1.6-0.1c-2,0-4.1,0.6-6.4,1.8c-4.6,2.4-9,5.7-13.9,10.1
			C509.4,398.7,506.9,401.5,504.9,404.3z"/>
		<path class="st0" d="M496.1,419.5l-0.8-0.2h-0.1l-0.1,0.1c0.2,0.7,0.3,1.2,0.3,1.2c0.1,0.4,0.1,1,0.2,1.8c0.1-0.8,0.2-1.4,0.2-1.8
			C495.9,420.5,496,420.1,496.1,419.5z"/>
		<path class="st0" d="M402.4,393.4c-0.4,1.7-0.8,3.4-1.2,5.2c-0.6,2.6-1.1,5.4-1.6,8c1.8-3.3,3.9-6.2,6.2-8.7
			c3.2-3.5,7-6.9,11.6-10.2c2.7-2,4.8-4.1,6.5-6.6c2.4-3.4,3.6-6.6,3.6-9.8c0-2.7-1-5.1-2.9-6.6c-1.3-1.1-3-1.6-4.9-1.6
			c-0.8,0-1.6,0.1-2.4,0.3c-2.5,0.6-4.5,2.1-6.3,4.7c-2.7,4-4.3,8.7-5.6,12.8C404.3,385,403.3,389.3,402.4,393.4z"/>
		<path class="st0" d="M395.8,409.6c0-0.1,0-0.2,0-0.3c0.5-2.8,1-5.7,1.5-8.6c0.3-1.7,0.6-3.5,0.9-5.3c1.2-6.8,2.9-13.4,5.1-19.8
			c0.2-0.5,0.3-1,0.5-1.5c0.7-1.9,1.3-3.7,1.7-5.7c0.8-4.3,0.3-7.8-1.5-11c-1.8-3.2-5.4-4.9-8.7-4.9c-1.3,0-2.5,0.2-3.6,0.7
			c-3.4,1.6-5.3,4.1-6.2,8c-0.6,2.8-0.4,5.8,0.6,9.3c0.4,1.3,0.8,2.5,1.3,3.8c0.3,0.8,0.6,1.6,0.9,2.4c2.3,7,3.9,14.2,5.3,20.5
			C394.4,401.4,395.2,405.4,395.8,409.6z"/>
		<path class="st0" d="M196.5,419.5l-0.8-0.2h-0.1l-0.1,0.1c0.2,0.7,0.3,1.2,0.3,1.2c0.1,0.4,0.1,1,0.2,1.8c0.1-0.8,0.2-1.4,0.2-1.8
			C196.3,420.5,196.4,420.1,196.5,419.5z"/>
		<path class="st0" d="M399.1,433.9c2.8-2.3,5.7-3.3,8.9-2.9c2,0.2,3.4,0,4.5-0.8c1.2-0.8,1.8-2.2,1.6-3.6c-0.3-1.4-1.2-2.3-2.5-2.6
			c-0.3-0.1-0.6-0.1-0.9-0.1c-0.9,0-1.9,0.3-3.1,0.9c-2.8,1.4-5,3.8-6.5,5.7C400.3,431.6,399.6,432.7,399.1,433.9z"/>
		<path class="st0" d="M405,404.3c-1.5,2-2.5,4.2-3.6,6.7l-0.2,0.4c-1.5,3-2.7,8.8-2.9,9.6c0,0.2-0.1,0.5-0.1,0.7
			c0.1-0.3,0.2-0.5,0.4-0.7c2.9-5.2,6.3-9.1,10.3-11.9c4.2-2.9,7.7-4.6,11.4-5.4c2-0.4,4-0.5,5.9-0.5c1.7,0,3.7-0.1,5.7-0.4
			c5.4-1,9.3-5.7,9.5-11.1c0.1-3.8-2.7-7.1-6.5-7.7c-0.5-0.1-1.1-0.1-1.6-0.1c-2,0-4.1,0.6-6.4,1.8c-4.6,2.4-9,5.7-13.9,10.1
			C409.6,398.7,407.1,401.5,405,404.3z"/>
		<path class="st0" d="M322.6,406.9c-4.5,0.4-8.8,2.4-13,6.1c-3,2.5-5.5,5.7-7.6,9.5c-0.7,1.3-1.4,2.8-1.8,4.2
			c4.2-5,8.9-7.5,14.6-7.9c1.7-0.1,3.3,0,4.9,0.1c0.5,0,1,0.1,1.5,0.1c3.3,0.2,5.7-0.7,7.4-2.8c1.9-2.3,2-5.3,0.2-7.3
			c-1.3-1.4-3-2.2-5.1-2.2C323.2,406.9,322.9,406.9,322.6,406.9z"/>
		<path class="st0" d="M482.5,409c4,2.8,7.4,6.8,10.3,11.9c0.1,0.2,0.2,0.5,0.4,0.7c0-0.3-0.1-0.5-0.1-0.7c-0.1-0.8-1.3-6.6-2.8-9.5
			l-0.2-0.5c-1.1-2.3-2.1-4.6-3.6-6.7c-2.1-2.8-4.6-5.6-7.9-8.7c-4.9-4.4-9.3-7.7-13.9-10.1c-2.3-1.2-4.4-1.8-6.4-1.8
			c-0.5,0-1.1,0-1.6,0.1c-3.9,0.6-6.6,3.8-6.5,7.7c0.1,5.5,4.1,10.2,9.5,11.1c2,0.4,4,0.4,5.7,0.4c1.9,0,3.9,0.1,5.9,0.5
			C474.8,404.4,478.3,406.1,482.5,409z"/>
		<path class="st0" d="M491.5,426.7c-0.5-1.4-1.1-2.9-1.8-4.2c-2.1-3.8-4.7-7-7.6-9.5c-4.3-3.6-8.5-5.7-13-6.1
			c-2.5-0.2-4.5,0.5-6,2.1c-1.8,1.9-1.7,4.9,0.2,7.3c1.7,2.1,4.1,3,7.4,2.8c0.5,0,1-0.1,1.5-0.1c1.1-0.1,2.3-0.2,3.5-0.2
			c0.5,0,0.9,0,1.4,0C482.6,419.2,487.3,421.7,491.5,426.7z"/>
		<path class="st0" d="M483.7,424.8c-1.5-0.8-2.8-1-4-0.8c-1.3,0.2-2.2,1.2-2.5,2.6s0.4,2.8,1.6,3.6c1.1,0.8,2.5,1,4.5,0.8
			c0.5-0.1,0.9-0.1,1.4-0.1c2.7,0,5.2,1,7.6,3c-0.5-1.2-1.2-2.3-2.1-3.4C488.7,428.7,486.5,426.4,483.7,424.8z"/>
		<path class="st0" d="M495.7,409.6c0-0.1,0-0.2,0-0.3c0.5-2.8,1-5.7,1.5-8.6c0.3-1.7,0.6-3.5,0.9-5.3c1.2-6.8,2.9-13.4,5.1-19.8
			c0.2-0.5,0.3-1,0.5-1.5c0.7-1.9,1.3-3.7,1.7-5.7c0.8-4.3,0.3-7.8-1.5-11c-1.8-3.2-5.4-4.9-8.7-4.9c-1.3,0-2.5,0.2-3.6,0.7
			c-3.4,1.6-5.3,4.1-6.2,8c-0.6,2.8-0.4,5.8,0.6,9.3c0.4,1.3,0.8,2.5,1.3,3.8c0.3,0.8,0.6,1.6,0.9,2.4c2.3,7,3.9,14.2,5.3,20.5
			C494.3,401.4,495,405.4,495.7,409.6z"/>
		<path class="st0" d="M485.6,397.8c2.3,2.5,4.4,5.4,6.2,8.7c-0.5-2.6-1-5.4-1.6-8c-0.4-1.7-0.8-3.4-1.2-5.2
			c-0.9-4.1-1.8-8.4-3.1-12.5c-1.3-4.1-2.9-8.8-5.6-12.8c-1.8-2.6-3.8-4.1-6.3-4.7c-0.8-0.2-1.6-0.3-2.4-0.3c-1.9,0-3.5,0.5-4.9,1.6
			c-1.9,1.5-2.9,3.8-2.9,6.6c0,3.2,1.1,6.3,3.6,9.8c1.7,2.4,3.8,4.5,6.5,6.6C478.5,391,482.3,394.3,485.6,397.8z"/>
		<polygon class="st0" points="246.8,512.3 246.6,512.7 246.6,512.8 		"/>
		<polygon class="st0" points="546.3,512.3 546.2,512.7 546.2,512.8 		"/>
		<path class="st0" d="M299.3,433.9c2.8-2.3,5.7-3.3,8.9-2.9c2,0.2,3.4,0,4.5-0.8c1.2-0.8,1.8-2.2,1.6-3.6c-0.3-1.4-1.2-2.3-2.5-2.6
			c-0.3-0.1-0.6-0.1-0.9-0.1c-0.9,0-1.9,0.3-3.1,0.9c-2.8,1.4-5,3.8-6.5,5.7C300.4,431.6,299.8,432.7,299.3,433.9z"/>
		<path class="st0" d="M285.9,397.8c2.3,2.5,4.4,5.4,6.2,8.7c-0.5-2.6-1-5.4-1.6-8c-0.4-1.7-0.8-3.4-1.2-5.2
			c-0.9-4.1-1.8-8.4-3.1-12.5c-1.3-4.1-2.9-8.8-5.6-12.8c-1.8-2.6-3.8-4.1-6.3-4.7c-0.8-0.2-1.6-0.3-2.4-0.3c-1.9,0-3.5,0.5-4.9,1.6
			c-1.9,1.5-2.9,3.8-2.9,6.6c0,3.2,1.1,6.3,3.6,9.8c1.7,2.4,3.8,4.5,6.5,6.6C278.8,391,282.6,394.3,285.9,397.8z"/>
		<polygon class="st0" points="346.6,512.3 346.5,512.7 346.5,512.8 		"/>
		<path class="st0" d="M302.6,393.4c-0.4,1.7-0.8,3.4-1.2,5.2c-0.6,2.6-1.1,5.4-1.6,8c1.8-3.3,3.9-6.2,6.2-8.7
			c3.2-3.5,7-6.9,11.6-10.2c2.7-2,4.8-4.1,6.5-6.6c2.4-3.4,3.6-6.6,3.6-9.8c0-2.7-1-5.1-2.9-6.6c-1.3-1.1-3-1.6-4.9-1.6
			c-0.8,0-1.6,0.1-2.4,0.3c-2.5,0.6-4.5,2.1-6.3,4.7c-2.7,4-4.3,8.7-5.6,12.8C304.4,385,303.5,389.3,302.6,393.4z"/>
		<path class="st0" d="M583.6,424.8c-1.5-0.8-2.8-1-4-0.8c-1.3,0.2-2.2,1.2-2.5,2.6s0.4,2.8,1.6,3.6c1.1,0.8,2.5,1,4.5,0.8
			c0.5-0.1,0.9-0.1,1.4-0.1c2.7,0,5.2,1,7.6,3c-0.5-1.2-1.2-2.3-2.1-3.4C588.5,428.7,586.4,426.4,583.6,424.8z"/>
		<path class="st0" d="M282.8,409c4,2.8,7.4,6.8,10.3,11.9c0.1,0.2,0.2,0.5,0.4,0.7c0-0.3-0.1-0.5-0.1-0.7c-0.1-0.8-1.3-6.6-2.8-9.5
			l-0.2-0.4c-1.1-2.4-2.1-4.6-3.6-6.7c-2.1-2.8-4.6-5.6-7.9-8.7c-4.9-4.4-9.3-7.7-13.9-10.1c-2.3-1.2-4.4-1.8-6.4-1.8
			c-0.5,0-1.1,0-1.6,0.1c-3.9,0.6-6.6,3.8-6.5,7.7c0.1,5.5,4.1,10.2,9.5,11.1c2,0.4,4,0.4,5.7,0.4c1.9,0,3.9,0.1,5.9,0.5
			C275.1,404.4,278.6,406.1,282.8,409z"/>
		<path class="st0" d="M295.9,409.6c0-0.1,0-0.2,0-0.3c0.5-2.8,1-5.7,1.5-8.5c0.3-1.8,0.6-3.5,1-5.4c1.2-6.8,2.9-13.4,5.1-19.8
			c0.2-0.5,0.3-1,0.5-1.5c0.7-1.9,1.3-3.7,1.7-5.7c0.8-4.3,0.3-7.8-1.5-11c-1.8-3.2-5.4-4.9-8.7-4.9c-1.3,0-2.5,0.2-3.6,0.7
			c-3.4,1.6-5.3,4.1-6.2,8c-0.6,2.8-0.4,5.8,0.6,9.3c0.4,1.3,0.8,2.5,1.3,3.8c0.3,0.8,0.6,1.6,0.9,2.4c2.3,7,3.9,14.2,5.3,20.5
			C294.6,401.4,295.3,405.4,295.9,409.6z"/>
		<path class="st0" d="M296.4,419.5l-0.8-0.2h-0.1l-0.1,0.1c0.2,0.7,0.3,1.2,0.3,1.2c0.1,0.4,0.1,1,0.2,1.8c0.1-0.8,0.2-1.4,0.2-1.8
			C296.2,420.5,296.2,420.1,296.4,419.5z"/>
		<path class="st0" d="M385.7,397.8c2.3,2.5,4.4,5.4,6.2,8.7c-0.5-2.6-1-5.4-1.6-8c-0.4-1.7-0.8-3.4-1.2-5.2
			c-0.9-4.1-1.8-8.4-3.1-12.5c-1.3-4.1-2.9-8.8-5.6-12.8c-1.8-2.6-3.8-4.1-6.3-4.7c-0.8-0.2-1.6-0.3-2.4-0.3c-1.9,0-3.5,0.5-4.9,1.6
			c-1.9,1.5-2.9,3.8-2.9,6.6c0,3.2,1.1,6.3,3.6,9.8c1.7,2.4,3.8,4.5,6.5,6.6C378.7,391,382.5,394.3,385.7,397.8z"/>
		<path class="st0" d="M382.6,409c4,2.8,7.4,6.8,10.3,11.9c0.1,0.2,0.2,0.5,0.4,0.7c0-0.3-0.1-0.5-0.1-0.7c-0.1-0.8-1.3-6.6-2.8-9.5
			l-0.2-0.4c-1.1-2.4-2.1-4.6-3.6-6.7c-2.1-2.8-4.6-5.6-7.9-8.7c-4.9-4.4-9.3-7.7-13.9-10.1c-2.3-1.2-4.4-1.8-6.4-1.8
			c-0.5,0-1.1,0-1.6,0.1c-3.9,0.6-6.6,3.8-6.5,7.7c0.1,5.5,4.1,10.2,9.5,11.1c2,0.4,4,0.4,5.7,0.4c1.9,0,3.9,0.1,5.9,0.5
			C374.9,404.4,378.4,406.1,382.6,409z"/>
		<path class="st0" d="M391.6,426.7c-0.5-1.4-1.1-2.9-1.8-4.2c-2.1-3.8-4.7-7-7.6-9.5c-4.3-3.6-8.5-5.7-13-6.1
			c-2.5-0.2-4.5,0.5-6,2.1c-1.8,1.9-1.7,4.9,0.2,7.3c1.7,2.1,4.1,3,7.4,2.8c0.5,0,1-0.1,1.5-0.1c1.1-0.1,2.3-0.2,3.5-0.2
			c0.5,0,0.9,0,1.4,0C382.8,419.2,387.5,421.7,391.6,426.7z"/>
		<path class="st0" d="M291.8,426.7c-0.5-1.4-1.1-2.9-1.8-4.2c-2.2-3.8-4.7-7-7.6-9.5c-4.3-3.6-8.5-5.7-13-6.1
			c-2.5-0.2-4.5,0.5-6,2.1c-1.8,1.9-1.7,4.9,0.2,7.3c1.7,2.1,4.1,3,7.4,2.8c0.5,0,1-0.1,1.5-0.1c1.1-0.1,2.3-0.2,3.5-0.2
			c0.5,0,0.9,0,1.4,0C282.9,419.2,287.6,421.7,291.8,426.7z"/>
		<path class="st0" d="M284,424.8c-1.5-0.8-2.8-1-4-0.8c-1.3,0.2-2.2,1.2-2.5,2.6c-0.3,1.4,0.4,2.8,1.6,3.6c1.1,0.8,2.6,1,4.5,0.8
			c0.5-0.1,0.9-0.1,1.4-0.1c2.7,0,5.2,1,7.6,3c-0.5-1.2-1.2-2.3-2.1-3.4C289,428.7,286.8,426.4,284,424.8z"/>
		<path class="st0" d="M383.8,424.8c-1.5-0.8-2.8-1-4-0.8c-1.3,0.2-2.2,1.2-2.5,2.6s0.4,2.8,1.6,3.6c1.1,0.8,2.6,1,4.5,0.8
			c0.5-0.1,0.9-0.1,1.4-0.1c2.7,0,5.2,1,7.6,3c-0.5-1.2-1.2-2.3-2.1-3.4C388.8,428.7,386.7,426.4,383.8,424.8z"/>
		<path class="st0" d="M591.4,426.7c-0.5-1.4-1.1-2.9-1.8-4.2c-2.1-3.8-4.7-7-7.6-9.5c-4.3-3.6-8.5-5.7-13-6.1
			c-2.5-0.2-4.5,0.5-6,2.1c-1.8,1.9-1.7,4.9,0.2,7.3c1.7,2.1,4.1,3,7.4,2.8c0.5,0,1-0.1,1.5-0.1c1.1-0.1,2.3-0.2,3.5-0.2
			c0.5,0,0.9,0,1.4,0C582.5,419.2,587.2,421.7,591.4,426.7z"/>
		<polygon class="st0" points="445.1,512.5 445.1,512.4 445.1,512.3 		"/>
		<path class="st0" d="M305.2,404.3c-1.5,2-2.5,4.2-3.6,6.7l-0.2,0.4c-1.5,3-2.7,8.8-2.9,9.6c0,0.2-0.1,0.5-0.1,0.7
			c0.1-0.3,0.2-0.5,0.4-0.7c2.9-5.2,6.3-9.1,10.3-11.9c4.2-2.9,7.7-4.6,11.4-5.4c2-0.4,4-0.5,5.9-0.5c1.7,0,3.7-0.1,5.7-0.4
			c5.4-1,9.3-5.7,9.5-11.1c0.1-3.8-2.7-7.1-6.5-7.7c-0.5-0.1-1.1-0.1-1.6-0.1c-2,0-4.1,0.6-6.4,1.8c-4.6,2.4-9,5.7-13.9,10.1
			C309.7,398.7,307.2,401.5,305.2,404.3z"/>
		<path class="st0" d="M396.2,419.5l-0.8-0.2h-0.1l-0.1,0.1c0.2,0.7,0.3,1.2,0.3,1.2c0.1,0.4,0.1,1,0.2,1.8c0.1-0.8,0.2-1.4,0.2-1.8
			C396,420.5,396.1,420.1,396.2,419.5z"/>
		<polygon class="st0" points="446.5,512.3 446.3,512.7 446.3,512.8 		"/>
		<path class="st0" d="M146.1,482c0-0.1,0-0.2,0-0.3c0.5-2.8,1-5.7,1.5-8.5c0.3-1.7,0.6-3.5,0.9-5.3c1.2-6.8,2.9-13.4,5.1-19.8
			c0.2-0.5,0.3-1,0.5-1.5c0.7-1.9,1.3-3.7,1.7-5.7c0.8-4.3,0.3-7.8-1.5-11c-1.8-3.2-5.4-4.9-8.7-4.9c-1.3,0-2.5,0.2-3.6,0.7
			c-3.4,1.6-5.3,4.1-6.2,8c-0.6,2.8-0.4,5.8,0.6,9.3c0.4,1.3,0.8,2.5,1.3,3.8c0.3,0.8,0.6,1.6,0.9,2.4c2.3,7,3.9,14.2,5.3,20.5
			C144.8,473.8,145.5,477.8,146.1,482z"/>
		<path class="st0" d="M133,481.4c4,2.8,7.4,6.8,10.3,11.9c0.1,0.2,0.2,0.5,0.4,0.7c0-0.3-0.1-0.5-0.1-0.7c-0.1-0.8-1.3-6.6-2.8-9.5
			l-0.2-0.4c-1.1-2.4-2.1-4.6-3.6-6.7c-2.1-2.8-4.6-5.6-7.9-8.7c-4.9-4.4-9.3-7.7-13.9-10.1c-2.3-1.2-4.4-1.8-6.4-1.8
			c-0.5,0-1.1,0-1.6,0.1c-3.9,0.6-6.6,3.8-6.5,7.7c0.1,5.5,4.1,10.2,9.5,11.1c2,0.4,4,0.4,5.7,0.4c1.9,0,3.9,0.1,5.9,0.5
			C125.3,476.8,128.8,478.4,133,481.4z"/>
		<path class="st0" d="M136.1,470.2c2.3,2.5,4.4,5.4,6.2,8.7c-0.5-2.6-1-5.4-1.6-8c-0.4-1.7-0.8-3.4-1.2-5.2
			c-0.9-4.1-1.8-8.4-3.1-12.5s-2.9-8.8-5.6-12.8c-1.8-2.6-3.8-4.1-6.3-4.7c-0.8-0.2-1.6-0.3-2.4-0.3c-1.9,0-3.5,0.5-4.9,1.6
			c-1.9,1.5-2.9,3.8-2.9,6.6c0,3.2,1.1,6.3,3.6,9.8c1.7,2.4,3.8,4.5,6.5,6.6C129,463.4,132.8,466.7,136.1,470.2z"/>
		<path class="st0" d="M142,499.1c-0.5-1.4-1.1-2.9-1.8-4.2c-2.2-3.8-4.7-7-7.6-9.5c-4.3-3.6-8.5-5.7-13-6.1c-2.5-0.2-4.5,0.5-6,2.1
			c-1.8,1.9-1.7,4.9,0.2,7.3c1.7,2.1,4.1,3,7.4,2.8c0.5,0,1-0.1,1.5-0.1c1.1-0.1,2.3-0.2,3.5-0.2c0.5,0,0.9,0,1.4,0
			C133.1,491.6,137.8,494.2,142,499.1z"/>
		<path class="st0" d="M134.2,497.3c-1.5-0.8-2.8-1-4-0.8c-1.3,0.2-2.2,1.2-2.5,2.6c-0.3,1.4,0.4,2.8,1.6,3.6c1.2,0.8,2.6,1,4.5,0.8
			c0.5-0.1,0.9-0.1,1.4-0.1c2.7,0,5.2,1,7.6,3c-0.5-1.2-1.2-2.3-2.1-3.4C139.2,501,137,498.7,134.2,497.3z"/>
		<path class="st0" d="M155.4,476.7c-1.5,2-2.5,4.2-3.6,6.7l-0.2,0.4c-1.5,3-2.7,8.8-2.9,9.6c0,0.2-0.1,0.5-0.1,0.7
			c0.1-0.3,0.2-0.5,0.4-0.7c2.9-5.2,6.3-9.1,10.3-11.9c4.2-2.9,7.7-4.6,11.4-5.4c2-0.4,4-0.5,5.9-0.5c1.7,0,3.7-0.1,5.7-0.4
			c5.4-1,9.3-5.7,9.5-11.1c0.1-3.8-2.7-7.1-6.5-7.7c-0.5-0.1-1.1-0.1-1.6-0.1c-2,0-4.1,0.6-6.4,1.8c-4.6,2.4-9,5.7-13.9,10.1
			C159.9,471.1,157.4,473.9,155.4,476.7z"/>
		<path class="st0" d="M156.2,470.2c3.2-3.5,7-6.9,11.6-10.2c2.7-2,4.8-4.1,6.5-6.6c2.4-3.4,3.6-6.6,3.6-9.8c0-2.7-1-5.1-2.9-6.6
			c-1.3-1.1-3-1.6-4.9-1.6c-0.8,0-1.6,0.1-2.4,0.3c-2.5,0.6-4.5,2.1-6.3,4.7c-2.7,4-4.3,8.7-5.6,12.8c-1.3,4-2.2,8.4-3.1,12.5
			c-0.4,1.7-0.8,3.4-1.2,5.2c-0.6,2.6-1.1,5.4-1.6,8C151.8,475.6,153.8,472.8,156.2,470.2z"/>
		<path class="st0" d="M152.1,494.9c-0.7,1.3-1.4,2.8-1.8,4.2c4.2-5,8.9-7.5,14.6-7.9c1.7-0.1,3.3,0,4.9,0.1c0.5,0,1,0.1,1.5,0.1
			c3.3,0.2,5.7-0.7,7.4-2.8c1.9-2.3,2-5.3,0.2-7.3c-1.3-1.4-3-2.2-5.1-2.2c-0.3,0-0.6,0-0.8,0c-4.5,0.4-8.8,2.3-13,6.1
			C156.8,487.9,154.3,491,152.1,494.9z"/>
		<path class="st0" d="M158.4,503.4c2,0.2,3.4,0,4.5-0.8c1.2-0.8,1.8-2.2,1.6-3.6c-0.3-1.4-1.2-2.3-2.5-2.6
			c-0.3-0.1-0.6-0.1-0.8-0.1c-0.9,0-2,0.3-3.1,0.9c-2.8,1.4-5,3.8-6.5,5.7c-0.9,1.1-1.6,2.2-2.1,3.4
			C152.2,504,155.2,503.1,158.4,503.4z"/>
		<path class="st0" d="M246,482c0-0.1,0-0.2,0-0.3c0.5-2.8,1-5.7,1.5-8.5c0.3-1.8,0.6-3.5,1-5.4c1.2-6.8,2.9-13.4,5.1-19.8
			c0.2-0.5,0.3-1,0.5-1.5c0.7-1.9,1.3-3.7,1.7-5.7c0.8-4.3,0.3-7.8-1.5-11c-1.8-3.2-5.4-4.9-8.7-4.9c-1.3,0-2.5,0.2-3.6,0.7
			c-3.4,1.6-5.3,4.1-6.2,8c-0.6,2.8-0.4,5.8,0.6,9.3c0.4,1.3,0.8,2.5,1.3,3.8c0.3,0.8,0.6,1.6,0.9,2.4c2.3,7,3.9,14.2,5.3,20.5
			C244.6,473.8,245.4,477.8,246,482z"/>
		<path class="st0" d="M232.8,481.4c4,2.8,7.4,6.8,10.3,11.9c0.1,0.2,0.2,0.5,0.4,0.7c0-0.3-0.1-0.5-0.1-0.7
			c-0.1-0.8-1.3-6.6-2.8-9.5l-0.2-0.4c-1.1-2.4-2.1-4.6-3.6-6.7c-2.1-2.8-4.6-5.6-7.9-8.7c-4.9-4.4-9.3-7.7-13.9-10.1
			c-2.3-1.2-4.4-1.8-6.4-1.8c-0.5,0-1.1,0-1.6,0.1c-3.9,0.6-6.6,3.8-6.5,7.7c0.1,5.5,4.1,10.2,9.5,11.1c2,0.4,4,0.4,5.7,0.4
			c1.9,0,3.9,0.1,5.9,0.5C225.1,476.8,228.7,478.4,232.8,481.4z"/>
		<path class="st0" d="M235.9,470.2c2.3,2.5,4.4,5.4,6.2,8.7c-0.5-2.6-1-5.4-1.6-8c-0.4-1.7-0.8-3.4-1.2-5.2
			c-0.9-4.1-1.8-8.4-3.1-12.5s-2.9-8.8-5.6-12.8c-1.8-2.6-3.8-4.1-6.3-4.7c-0.8-0.2-1.6-0.3-2.4-0.3c-1.9,0-3.5,0.5-4.9,1.6
			c-1.9,1.5-2.9,3.8-2.9,6.6c0,3.2,1.1,6.3,3.6,9.8c1.7,2.4,3.8,4.5,6.5,6.6C228.9,463.4,232.7,466.7,235.9,470.2z"/>
		<path class="st0" d="M241.9,499.1c-0.5-1.4-1.1-2.9-1.8-4.2c-2.2-3.8-4.7-7-7.6-9.5c-4.3-3.6-8.5-5.7-13-6.1
			c-2.5-0.2-4.5,0.5-6,2.1c-1.8,1.9-1.7,4.9,0.2,7.3c1.7,2.1,4.1,3,7.4,2.8c0.5,0,1-0.1,1.5-0.1c1.1-0.1,2.3-0.2,3.5-0.2
			c0.5,0,0.9,0,1.4,0C233,491.6,237.7,494.2,241.9,499.1z"/>
		<path class="st0" d="M234,497.3c-1.5-0.8-2.8-1-4-0.8c-1.3,0.2-2.2,1.2-2.5,2.6s0.4,2.8,1.6,3.6c1.1,0.8,2.6,1,4.5,0.8
			c0.5-0.1,0.9-0.1,1.4-0.1c2.7,0,5.2,1,7.6,3c-0.5-1.2-1.2-2.3-2.1-3.4C239,501,236.9,498.7,234,497.3z"/>
		<path class="st0" d="M255.2,476.7c-1.5,2-2.5,4.2-3.6,6.7l-0.2,0.4c-1.5,3-2.7,8.8-2.9,9.6c0,0.2-0.1,0.5-0.1,0.7
			c0.1-0.3,0.2-0.5,0.4-0.7c2.9-5.2,6.3-9.1,10.3-11.9c4.2-2.9,7.7-4.6,11.4-5.4c2-0.4,4-0.5,5.9-0.5c1.7,0,3.7-0.1,5.7-0.4
			c5.4-1,9.3-5.7,9.5-11.1c0.1-3.8-2.7-7.1-6.5-7.7c-0.5-0.1-1.1-0.1-1.6-0.1c-2,0-4.1,0.6-6.4,1.8c-4.6,2.4-9,5.7-13.9,10.1
			C259.8,471.1,257.3,473.9,255.2,476.7z"/>
		<path class="st0" d="M256,470.2c3.2-3.5,7-6.9,11.6-10.2c2.7-2,4.8-4.1,6.5-6.6c2.4-3.4,3.6-6.6,3.6-9.8c0-2.7-1-5.1-2.9-6.6
			c-1.3-1.1-3-1.6-4.9-1.6c-0.8,0-1.6,0.1-2.4,0.3c-2.5,0.6-4.5,2.1-6.3,4.7c-2.7,4-4.3,8.7-5.6,12.8c-1.3,4.1-2.2,8.4-3.1,12.5
			c-0.4,1.7-0.8,3.4-1.2,5.2c-0.6,2.6-1.1,5.4-1.6,8C251.7,475.6,253.7,472.8,256,470.2z"/>
		<path class="st0" d="M252,494.9c-0.7,1.3-1.4,2.8-1.8,4.2c4.2-5,8.9-7.5,14.6-7.9c1.7-0.1,3.3,0,4.9,0.1c0.5,0,1,0.1,1.5,0.1
			c3.3,0.2,5.7-0.7,7.4-2.8c1.9-2.3,2-5.3,0.2-7.3c-1.3-1.4-3-2.2-5.1-2.2c-0.3,0-0.6,0-0.8,0c-4.5,0.4-8.8,2.4-13,6.1
			C256.6,487.9,254.1,491,252,494.9z"/>
		<path class="st0" d="M258.3,503.4c2,0.2,3.4,0,4.5-0.8c1.2-0.8,1.8-2.2,1.6-3.6c-0.3-1.4-1.2-2.3-2.5-2.6
			c-0.3-0.1-0.6-0.1-0.8-0.1c-0.9,0-2,0.3-3.1,0.9c-2.8,1.4-5,3.8-6.5,5.7c-0.9,1.1-1.6,2.2-2.1,3.4
			C252.1,504,255,503.1,258.3,503.4z"/>
		<path class="st0" d="M345.9,482c0-0.1,0-0.2,0-0.3c0.5-2.8,1-5.7,1.5-8.5c0.3-1.7,0.6-3.5,1-5.3c1.2-6.8,2.9-13.4,5.1-19.8
			c0.2-0.5,0.3-1,0.5-1.5c0.7-1.9,1.3-3.7,1.7-5.7c0.8-4.3,0.3-7.8-1.5-11c-1.8-3.2-5.4-4.9-8.7-4.9c-1.3,0-2.5,0.2-3.6,0.7
			c-3.4,1.6-5.3,4.1-6.2,8c-0.6,2.8-0.4,5.8,0.6,9.3c0.4,1.3,0.8,2.5,1.3,3.8c0.3,0.8,0.6,1.6,0.9,2.4c2.3,7,3.9,14.2,5.3,20.5
			C344.5,473.8,345.2,477.8,345.9,482z"/>
		<path class="st0" d="M332.7,481.4c4,2.8,7.4,6.8,10.3,11.9c0.1,0.2,0.2,0.5,0.4,0.7c0-0.3-0.1-0.5-0.1-0.7
			c-0.1-0.8-1.3-6.6-2.8-9.5l-0.2-0.4c-1.1-2.4-2.1-4.6-3.6-6.7c-2.1-2.8-4.6-5.6-7.9-8.7c-4.9-4.4-9.3-7.7-13.9-10.1
			c-2.3-1.2-4.4-1.8-6.4-1.8c-0.5,0-1.1,0-1.6,0.1c-3.9,0.6-6.6,3.8-6.5,7.7c0.1,5.5,4.1,10.2,9.5,11.1c2,0.4,4,0.4,5.7,0.4
			c1.9,0,3.9,0.1,5.9,0.5C325,476.8,328.5,478.4,332.7,481.4z"/>
		<path class="st0" d="M335.8,470.2c2.3,2.5,4.4,5.4,6.2,8.7c-0.5-2.6-1-5.4-1.6-8c-0.4-1.7-0.8-3.4-1.2-5.2
			c-0.9-4.1-1.8-8.4-3.1-12.5c-1.3-4.1-2.9-8.8-5.6-12.8c-1.8-2.6-3.8-4.1-6.3-4.7c-0.8-0.2-1.6-0.3-2.4-0.3c-1.9,0-3.5,0.5-4.9,1.6
			c-1.9,1.5-2.9,3.8-2.9,6.6c0,3.2,1.1,6.3,3.6,9.8c1.7,2.4,3.8,4.5,6.5,6.6C328.8,463.4,332.6,466.7,335.8,470.2z"/>
		<path class="st0" d="M341.7,499.1c-0.5-1.4-1.1-2.9-1.8-4.2c-2.1-3.8-4.7-7-7.6-9.5c-4.3-3.6-8.5-5.7-13-6.1
			c-2.5-0.2-4.5,0.5-6,2.1c-1.8,1.9-1.7,4.9,0.2,7.3c1.7,2.1,4.1,3,7.4,2.8c0.5,0,1-0.1,1.5-0.1c1.1-0.1,2.3-0.2,3.5-0.2
			c0.5,0,0.9,0,1.4,0C332.8,491.6,337.5,494.2,341.7,499.1z"/>
		<path class="st0" d="M333.9,497.3c-1.5-0.8-2.8-1-4-0.8c-1.3,0.2-2.2,1.2-2.5,2.6s0.4,2.8,1.6,3.6c1.1,0.8,2.6,1,4.5,0.8
			c0.5-0.1,0.9-0.1,1.4-0.1c2.7,0,5.2,1,7.6,3c-0.5-1.2-1.2-2.3-2.1-3.4C338.9,501,336.8,498.7,333.9,497.3z"/>
		<path class="st0" d="M355.1,476.7c-1.5,2-2.5,4.2-3.6,6.7l-0.2,0.4c-1.5,3-2.7,8.8-2.9,9.6c0,0.2-0.1,0.5-0.1,0.7
			c0.1-0.3,0.2-0.5,0.4-0.7c2.9-5.2,6.3-9.1,10.3-11.9c4.2-2.9,7.7-4.6,11.4-5.4c2-0.4,4-0.5,5.9-0.5c1.7,0,3.7-0.1,5.7-0.4
			c5.4-1,9.3-5.7,9.5-11.1c0.1-3.8-2.7-7.1-6.5-7.7c-0.5-0.1-1.1-0.1-1.6-0.1c-2,0-4.1,0.6-6.4,1.8c-4.6,2.4-9,5.7-13.9,10.1
			C359.7,471.1,357.1,473.9,355.1,476.7z"/>
		<path class="st0" d="M355.9,470.2c3.2-3.5,7-6.9,11.6-10.2c2.7-2,4.8-4.1,6.5-6.6c2.4-3.4,3.6-6.6,3.6-9.8c0-2.7-1-5.1-2.9-6.6
			c-1.3-1.1-3-1.6-4.9-1.6c-0.8,0-1.6,0.1-2.4,0.3c-2.5,0.6-4.5,2.1-6.3,4.7c-2.7,4-4.3,8.7-5.6,12.8c-1.3,4.1-2.2,8.4-3.1,12.5
			c-0.4,1.7-0.8,3.4-1.2,5.2c-0.6,2.6-1.1,5.4-1.6,8C351.5,475.6,353.6,472.8,355.9,470.2z"/>
		<path class="st0" d="M351.8,494.9c-0.7,1.3-1.4,2.8-1.8,4.2c4.2-5,8.9-7.5,14.6-7.9c1.7-0.1,3.3,0,4.9,0.1c0.5,0,1,0.1,1.5,0.1
			c3.3,0.2,5.7-0.7,7.4-2.8c1.9-2.3,2-5.3,0.2-7.3c-1.3-1.4-3-2.2-5.1-2.2c-0.3,0-0.6,0-0.8,0c-4.5,0.4-8.8,2.4-13,6.1
			C356.5,487.9,354,491,351.8,494.9z"/>
		<path class="st0" d="M358.1,503.4c2,0.2,3.4,0,4.5-0.8c1.2-0.8,1.8-2.2,1.6-3.6c-0.3-1.4-1.2-2.3-2.5-2.6
			c-0.3-0.1-0.6-0.1-0.8-0.1c-0.9,0-2,0.3-3.1,0.9c-2.8,1.4-5,3.8-6.5,5.7c-0.9,1.1-1.6,2.2-2.1,3.4
			C351.9,504,354.9,503.1,358.1,503.4z"/>
		<path class="st0" d="M445.7,482c0-0.1,0-0.2,0-0.3c0.5-2.8,1-5.7,1.5-8.6c0.3-1.7,0.6-3.5,0.9-5.3c1.2-6.8,2.9-13.4,5.1-19.8
			c0.2-0.5,0.3-1,0.5-1.5c0.7-1.9,1.3-3.7,1.7-5.7c0.8-4.3,0.3-7.8-1.5-11s-5.4-4.9-8.7-4.9c-1.3,0-2.5,0.2-3.6,0.7
			c-3.4,1.6-5.3,4.1-6.2,8c-0.6,2.8-0.4,5.8,0.6,9.3c0.4,1.3,0.8,2.5,1.3,3.8c0.3,0.8,0.6,1.6,0.9,2.4c2.3,7,3.9,14.2,5.3,20.5
			C444.4,473.8,445.1,477.8,445.7,482z"/>
		<path class="st0" d="M432.5,481.4c4,2.8,7.4,6.8,10.3,11.9c0.1,0.2,0.2,0.5,0.4,0.7c0-0.3-0.1-0.5-0.1-0.7
			c-0.1-0.8-1.3-6.6-2.8-9.5l-0.2-0.5c-1.1-2.3-2.1-4.6-3.6-6.7c-2.1-2.8-4.6-5.6-7.9-8.7c-4.9-4.4-9.3-7.7-13.9-10.1
			c-2.3-1.2-4.4-1.8-6.4-1.8c-0.5,0-1.1,0-1.6,0.1c-3.9,0.6-6.6,3.8-6.5,7.7c0.1,5.5,4.1,10.2,9.5,11.1c2,0.4,4,0.4,5.7,0.4
			c1.9,0,3.9,0.1,5.9,0.5C424.9,476.8,428.4,478.4,432.5,481.4z"/>
		<path class="st0" d="M435.7,470.2c2.3,2.5,4.4,5.4,6.2,8.7c-0.5-2.6-1-5.4-1.6-8c-0.4-1.7-0.8-3.4-1.2-5.2
			c-0.9-4.1-1.8-8.4-3.1-12.5c-1.3-4.1-2.9-8.8-5.6-12.8c-1.8-2.6-3.8-4.1-6.3-4.7c-0.8-0.2-1.6-0.3-2.4-0.3c-1.9,0-3.5,0.5-4.9,1.6
			c-1.9,1.5-2.9,3.8-2.9,6.6c0,3.2,1.1,6.3,3.6,9.8c1.7,2.4,3.8,4.5,6.5,6.6C428.6,463.4,432.4,466.7,435.7,470.2z"/>
		<path class="st0" d="M441.6,499.1c-0.5-1.4-1.1-2.9-1.8-4.2c-2.1-3.8-4.7-7-7.6-9.5c-4.3-3.6-8.5-5.7-13-6.1
			c-2.5-0.2-4.5,0.5-6,2.1c-1.8,1.9-1.7,4.9,0.2,7.3c1.7,2.1,4.1,3,7.4,2.8c0.5,0,1-0.1,1.5-0.1c1.1-0.1,2.3-0.2,3.5-0.2
			c0.5,0,0.9,0,1.4,0C432.7,491.6,437.4,494.2,441.6,499.1z"/>
		<path class="st0" d="M433.8,497.3c-1.5-0.8-2.8-1-4-0.8c-1.3,0.2-2.2,1.2-2.5,2.6s0.4,2.8,1.6,3.6c1.1,0.8,2.6,1,4.5,0.8
			c0.5-0.1,0.9-0.1,1.4-0.1c2.7,0,5.2,1,7.6,3c-0.5-1.2-1.2-2.3-2.1-3.4C438.7,501,436.6,498.7,433.8,497.3z"/>
		<path class="st0" d="M454.9,476.7c-1.5,2-2.5,4.2-3.6,6.7l-0.2,0.4c-1.5,3-2.7,8.8-2.9,9.6c0,0.2-0.1,0.5-0.1,0.7
			c0.1-0.3,0.2-0.5,0.4-0.7c2.9-5.2,6.3-9.1,10.3-11.9c4.2-2.9,7.7-4.6,11.4-5.4c2-0.4,4-0.5,5.9-0.5c1.7,0,3.7-0.1,5.7-0.4
			c5.4-1,9.3-5.7,9.5-11.1c0.1-3.8-2.7-7.1-6.5-7.7c-0.5-0.1-1.1-0.1-1.6-0.1c-2,0-4.1,0.6-6.4,1.8c-4.6,2.4-9,5.7-13.9,10.1
			C459.5,471.1,457,473.9,454.9,476.7z"/>
		<path class="st0" d="M455.8,470.2c3.2-3.5,7-6.9,11.6-10.2c2.7-2,4.8-4.1,6.5-6.6c2.4-3.4,3.6-6.6,3.6-9.8c0-2.7-1-5.1-2.9-6.6
			c-1.3-1.1-3-1.6-4.9-1.6c-0.8,0-1.6,0.1-2.4,0.3c-2.5,0.6-4.5,2.1-6.3,4.7c-2.7,4-4.3,8.7-5.6,12.8c-1.3,4.1-2.2,8.4-3.1,12.5
			c-0.4,1.7-0.8,3.4-1.2,5.2c-0.6,2.6-1.1,5.4-1.6,8C451.4,475.6,453.4,472.8,455.8,470.2z"/>
		<path class="st0" d="M451.7,494.9c-0.7,1.3-1.4,2.8-1.8,4.2c4.2-5,8.9-7.5,14.6-7.9c1.7-0.1,3.3,0,4.9,0.1c0.5,0,1,0.1,1.5,0.1
			c3.3,0.2,5.7-0.7,7.4-2.8c1.9-2.3,2-5.3,0.2-7.3c-1.3-1.4-3-2.2-5.1-2.2c-0.3,0-0.6,0-0.8,0c-4.5,0.4-8.8,2.4-13,6.1
			C456.4,487.9,453.9,491,451.7,494.9z"/>
		<path class="st0" d="M458,503.4c2,0.2,3.4,0,4.5-0.8c1.2-0.8,1.8-2.2,1.6-3.6c-0.3-1.4-1.2-2.3-2.5-2.6c-0.3-0.1-0.6-0.1-0.8-0.1
			c-0.9,0-2,0.3-3.1,0.9c-2.8,1.4-5,3.8-6.5,5.7c-0.9,1.1-1.6,2.2-2.1,3.4C451.8,504,454.7,503.1,458,503.4z"/>
		<path class="st0" d="M545.6,482c0-0.1,0-0.2,0-0.3c0.5-2.8,1-5.7,1.5-8.6c0.3-1.7,0.6-3.5,0.9-5.3c1.2-6.8,2.9-13.4,5.1-19.8
			c0.2-0.5,0.3-1,0.5-1.5c0.7-1.9,1.3-3.7,1.7-5.7c0.8-4.3,0.3-7.8-1.5-11s-5.4-4.9-8.7-4.9c-1.3,0-2.5,0.2-3.6,0.7
			c-3.4,1.6-5.3,4.1-6.2,8c-0.6,2.8-0.4,5.8,0.6,9.3c0.4,1.3,0.8,2.5,1.3,3.8c0.3,0.8,0.6,1.6,0.9,2.4c2.3,7,3.9,14.2,5.3,20.5
			C544.2,473.8,544.9,477.8,545.6,482z"/>
		<path class="st0" d="M532.4,481.4c4,2.8,7.4,6.8,10.3,11.9c0.1,0.2,0.2,0.5,0.4,0.7c0-0.3-0.1-0.5-0.1-0.7
			c-0.1-0.8-1.3-6.6-2.8-9.5l-0.2-0.5c-1.1-2.3-2.1-4.6-3.6-6.7c-2.1-2.8-4.6-5.6-7.9-8.7c-4.9-4.4-9.3-7.7-13.9-10.1
			c-2.3-1.2-4.4-1.8-6.4-1.8c-0.5,0-1.1,0-1.6,0.1c-3.9,0.6-6.6,3.8-6.5,7.7c0.1,5.5,4.1,10.2,9.5,11.1c2,0.4,4,0.4,5.7,0.4
			c1.9,0,3.9,0.1,5.9,0.5C524.7,476.8,528.2,478.4,532.4,481.4z"/>
		<path class="st0" d="M535.5,470.2c2.3,2.5,4.4,5.4,6.2,8.7c-0.5-2.6-1-5.4-1.6-8c-0.4-1.7-0.8-3.4-1.2-5.2
			c-0.9-4.1-1.8-8.4-3.1-12.5s-2.9-8.8-5.6-12.8c-1.8-2.6-3.8-4.1-6.3-4.7c-0.8-0.2-1.6-0.3-2.4-0.3c-1.9,0-3.5,0.5-4.9,1.6
			c-1.9,1.5-2.9,3.8-2.9,6.6c0,3.2,1.1,6.3,3.6,9.8c1.7,2.4,3.8,4.5,6.5,6.6C528.5,463.4,532.3,466.7,535.5,470.2z"/>
		<path class="st0" d="M541.4,499.1c-0.5-1.4-1.1-2.9-1.8-4.2c-2.1-3.8-4.7-7-7.6-9.5c-4.3-3.6-8.5-5.7-13-6.1
			c-2.5-0.2-4.5,0.5-6,2.1c-1.8,1.9-1.7,4.9,0.2,7.3c1.7,2.1,4.1,3,7.4,2.8c0.5,0,1-0.1,1.5-0.1c1.1-0.1,2.3-0.2,3.5-0.2
			c0.5,0,0.9,0,1.4,0C532.6,491.6,537.2,494.2,541.4,499.1z"/>
		<path class="st0" d="M533.6,497.3c-1.5-0.8-2.8-1-4-0.8c-1.3,0.2-2.2,1.2-2.5,2.6s0.4,2.8,1.6,3.6c1.1,0.8,2.5,1,4.5,0.8
			c0.5-0.1,0.9-0.1,1.4-0.1c2.7,0,5.2,1,7.6,3c-0.5-1.2-1.2-2.3-2.1-3.4C538.6,501,536.5,498.7,533.6,497.3z"/>
		<path class="st0" d="M554.8,476.7c-1.5,2-2.5,4.2-3.6,6.7l-0.2,0.4c-1.5,3-2.7,8.8-2.9,9.6c0,0.2-0.1,0.5-0.1,0.7
			c0.1-0.3,0.2-0.5,0.4-0.7c2.9-5.2,6.3-9.1,10.3-11.9c4.2-2.9,7.7-4.6,11.4-5.4c2-0.4,4-0.5,5.9-0.5c1.7,0,3.7-0.1,5.7-0.4
			c5.4-1,9.3-5.7,9.5-11.1c0.1-3.8-2.7-7.1-6.5-7.7c-0.5-0.1-1.1-0.1-1.6-0.1c-2,0-4.1,0.6-6.4,1.8c-4.6,2.4-9,5.7-13.9,10.1
			C559.4,471.1,556.9,473.9,554.8,476.7z"/>
		<path class="st0" d="M555.6,470.2c3.2-3.5,7-6.9,11.6-10.2c2.7-2,4.8-4.1,6.5-6.6c2.4-3.4,3.6-6.6,3.6-9.8c0-2.7-1-5.1-2.9-6.6
			c-1.3-1.1-3-1.6-4.9-1.6c-0.8,0-1.6,0.1-2.4,0.3c-2.5,0.6-4.5,2.1-6.3,4.7c-2.7,4-4.3,8.7-5.6,12.8c-1.3,4.1-2.2,8.4-3.1,12.5
			c-0.4,1.7-0.8,3.4-1.2,5.2c-0.6,2.6-1.1,5.4-1.6,8C551.2,475.6,553.3,472.8,555.6,470.2z"/>
		<path class="st0" d="M551.6,494.9c-0.7,1.3-1.4,2.8-1.8,4.2c4.2-5,8.9-7.5,14.6-7.9c1.7-0.1,3.3,0,4.9,0.1c0.5,0,1,0.1,1.5,0.1
			c3.3,0.2,5.7-0.7,7.4-2.8c1.9-2.3,2-5.3,0.2-7.3c-1.3-1.4-3-2.2-5.1-2.2c-0.3,0-0.6,0-0.8,0c-4.5,0.4-8.8,2.3-13.1,6.1
			C556.2,487.9,553.7,491,551.6,494.9z"/>
		<path class="st0" d="M557.8,503.4c2,0.2,3.4,0,4.5-0.8c1.2-0.8,1.8-2.2,1.6-3.6c-0.3-1.4-1.2-2.3-2.5-2.6
			c-0.3-0.1-0.6-0.1-0.8-0.1c-0.9,0-2,0.3-3.1,0.9c-2.8,1.4-5,3.8-6.5,5.7c-0.9,1.1-1.6,2.2-2.1,3.4
			C551.7,504,554.6,503.1,557.8,503.4z"/>
		<path class="st0" d="M645.4,482c0-0.1,0-0.2,0-0.3c0.5-2.8,1-5.7,1.5-8.5c0.3-1.7,0.6-3.5,0.9-5.3c1.2-6.8,2.9-13.4,5.1-19.8
			c0.2-0.5,0.3-1,0.5-1.5c0.7-1.9,1.3-3.7,1.7-5.7c0.8-4.3,0.3-7.8-1.5-11c-1.8-3.2-5.4-4.9-8.7-4.9c-1.3,0-2.5,0.2-3.6,0.7
			c-3.4,1.6-5.3,4.1-6.2,8c-0.6,2.8-0.4,5.8,0.6,9.3c0.4,1.3,0.8,2.5,1.3,3.8c0.3,0.8,0.6,1.6,0.9,2.4c2.3,7,3.9,14.2,5.3,20.5
			C644.1,473.8,644.8,477.8,645.4,482z"/>
		<path class="st0" d="M632.3,481.4c4,2.8,7.4,6.8,10.3,11.9c0.1,0.2,0.2,0.5,0.4,0.7c0-0.3-0.1-0.5-0.1-0.7
			c-0.1-0.8-1.3-6.6-2.8-9.5l-0.2-0.4c-1.1-2.4-2.1-4.6-3.6-6.7c-2.1-2.8-4.6-5.6-7.9-8.7c-4.9-4.4-9.3-7.7-13.9-10.1
			c-2.3-1.2-4.4-1.8-6.4-1.8c-0.5,0-1.1,0-1.6,0.1c-3.9,0.6-6.6,3.8-6.5,7.7c0.1,5.5,4.1,10.2,9.5,11.1c2,0.4,4,0.4,5.7,0.4
			c1.9,0,3.9,0.1,5.9,0.5C624.6,476.8,628.1,478.4,632.3,481.4z"/>
		<path class="st0" d="M635.4,470.2c2.3,2.5,4.4,5.4,6.2,8.7c-0.5-2.6-1-5.4-1.6-8c-0.4-1.7-0.8-3.4-1.2-5.2
			c-0.9-4.1-1.8-8.4-3.1-12.5s-2.9-8.8-5.6-12.8c-1.8-2.6-3.8-4.1-6.3-4.7c-0.8-0.2-1.6-0.3-2.4-0.3c-1.9,0-3.5,0.5-4.9,1.6
			c-1.9,1.5-2.9,3.8-2.9,6.6c0,3.2,1.1,6.3,3.6,9.8c1.7,2.4,3.8,4.5,6.5,6.6C628.3,463.4,632.1,466.7,635.4,470.2z"/>
		<path class="st0" d="M641.3,499.1c-0.5-1.4-1.1-2.9-1.8-4.2c-2.2-3.8-4.7-7-7.6-9.5c-4.3-3.6-8.5-5.7-13.1-6.1
			c-2.5-0.2-4.5,0.5-6,2.1c-1.8,1.9-1.7,4.9,0.2,7.3c1.7,2.1,4.1,3,7.4,2.8c0.5,0,1-0.1,1.5-0.1c1.1-0.1,2.3-0.2,3.5-0.2
			c0.5,0,0.9,0,1.4,0C632.4,491.6,637.1,494.2,641.3,499.1z"/>
		<path class="st0" d="M633.5,497.3c-1.5-0.8-2.8-1-4-0.8c-1.3,0.2-2.2,1.2-2.5,2.6s0.4,2.8,1.6,3.6c1.2,0.8,2.6,1,4.5,0.8
			c0.5-0.1,0.9-0.1,1.4-0.1c2.7,0,5.2,1,7.6,3c-0.5-1.2-1.2-2.3-2.1-3.4C638.5,501,636.3,498.7,633.5,497.3z"/>
		<path class="st0" d="M654.7,476.7c-1.5,2-2.5,4.2-3.6,6.7l-0.2,0.4c-1.7,3.2-2.9,9.5-2.9,9.6c0,0.2-0.1,0.5-0.1,0.7
			c0.1-0.3,0.2-0.5,0.4-0.7c2.9-5.2,6.3-9.1,10.3-11.9c4.2-2.9,7.7-4.6,11.4-5.4c2-0.4,4-0.5,5.9-0.5c1.7,0,3.7-0.1,5.7-0.4
			c5.4-1,9.3-5.7,9.5-11.1c0.1-3.8-2.7-7.1-6.5-7.7c-0.5-0.1-1.1-0.1-1.6-0.1c-2,0-4.1,0.6-6.4,1.8c-4.6,2.4-9,5.7-13.9,10.1
			C659.2,471.1,656.7,473.9,654.7,476.7z"/>
		<path class="st0" d="M655.5,470.2c3.2-3.5,7-6.9,11.6-10.2c2.7-2,4.8-4.1,6.5-6.6c2.4-3.4,3.6-6.6,3.6-9.8c0-2.7-1-5.1-2.9-6.6
			c-1.3-1.1-3-1.6-4.9-1.6c-0.8,0-1.6,0.1-2.4,0.3c-2.5,0.6-4.5,2.1-6.3,4.7c-2.7,4-4.3,8.7-5.6,12.8c-1.3,4.1-2.2,8.4-3.1,12.5
			c-0.4,1.7-0.8,3.4-1.2,5.2c-0.6,2.6-1.1,5.4-1.6,8C651.1,475.6,653.1,472.8,655.5,470.2z"/>
		<path class="st0" d="M651.4,494.9c-0.7,1.3-1.4,2.8-1.8,4.2c4.2-5,8.9-7.5,14.6-7.9c1.7-0.1,3.3,0,4.9,0.1c0.5,0,1,0.1,1.5,0.1
			c3.3,0.2,5.7-0.7,7.4-2.8c1.9-2.3,2-5.3,0.2-7.3c-1.3-1.4-3-2.2-5.1-2.2c-0.3,0-0.6,0-0.8,0c-4.5,0.4-8.8,2.3-13,6.1
			C656.1,487.9,653.6,491,651.4,494.9z"/>
		<path class="st0" d="M657.7,503.4c2,0.2,3.4,0,4.5-0.8c1.2-0.8,1.8-2.2,1.6-3.6c-0.3-1.4-1.2-2.3-2.5-2.6
			c-0.3-0.1-0.6-0.1-0.8-0.1c-0.9,0-2,0.3-3.1,0.9c-2.8,1.4-5,3.8-6.5,5.7c-0.9,1.1-1.6,2.2-2.1,3.4
			C651.5,504,654.5,503.1,657.7,503.4z"/>
		<path class="st0" d="M146.1,337.2c0-0.1,0-0.2,0-0.3c0.5-2.8,1-5.7,1.5-8.5c0.3-1.7,0.6-3.5,0.9-5.3c1.2-6.8,2.9-13.4,5.1-19.8
			c0.2-0.5,0.3-1,0.5-1.5c0.7-1.9,1.3-3.7,1.7-5.7c0.8-4.3,0.3-7.8-1.5-11s-5.4-4.9-8.7-4.9c-1.3,0-2.5,0.2-3.6,0.7
			c-3.4,1.6-5.3,4.1-6.2,8c-0.6,2.8-0.4,5.8,0.6,9.3c0.4,1.3,0.8,2.5,1.3,3.8c0.3,0.8,0.6,1.6,0.9,2.4c2.3,7,3.9,14.2,5.3,20.5
			C144.8,328.9,145.5,333,146.1,337.2z"/>
		<path class="st0" d="M133,336.6c4,2.8,7.4,6.8,10.3,11.9c0.1,0.2,0.2,0.5,0.4,0.7c0-0.3-0.1-0.5-0.1-0.7c-0.1-0.8-1.3-6.6-2.8-9.5
			l-0.2-0.4c-1.1-2.4-2.1-4.6-3.6-6.7c-2.1-2.8-4.6-5.6-7.9-8.7c-4.9-4.4-9.3-7.7-13.9-10.1c-2.3-1.2-4.4-1.8-6.4-1.8
			c-0.5,0-1.1,0-1.6,0.1c-3.9,0.6-6.6,3.8-6.5,7.7c0.1,5.5,4.1,10.2,9.5,11.1c2,0.4,4,0.4,5.7,0.4c1.9,0,3.9,0.1,5.9,0.5
			C125.3,332,128.8,333.6,133,336.6z"/>
		<path class="st0" d="M136.1,325.4c2.3,2.5,4.4,5.4,6.2,8.7c-0.5-2.6-1-5.4-1.6-8c-0.4-1.7-0.8-3.4-1.2-5.2
			c-0.9-4.1-1.8-8.4-3.1-12.5s-2.9-8.8-5.6-12.8c-1.8-2.6-3.8-4.1-6.3-4.7c-0.8-0.2-1.6-0.3-2.4-0.3c-1.9,0-3.5,0.5-4.9,1.6
			c-1.9,1.5-2.9,3.8-2.9,6.6c0,3.2,1.1,6.3,3.6,9.8c1.7,2.4,3.8,4.5,6.5,6.6C129,318.5,132.8,321.9,136.1,325.4z"/>
		<path class="st0" d="M142,354.3c-0.5-1.4-1.1-2.9-1.8-4.2c-2.2-3.8-4.7-7-7.6-9.5c-4.3-3.6-8.5-5.7-13-6.1c-2.5-0.2-4.5,0.5-6,2.1
			c-1.8,1.9-1.7,4.9,0.2,7.3c1.7,2.1,4.1,3,7.4,2.8c0.5,0,1-0.1,1.5-0.1c1.1-0.1,2.3-0.2,3.5-0.2c0.5,0,0.9,0,1.4,0
			C133.1,346.8,137.8,349.4,142,354.3z"/>
		<path class="st0" d="M134.2,352.5c-1.5-0.8-2.8-1-4-0.8c-1.3,0.2-2.2,1.2-2.5,2.6c-0.3,1.4,0.4,2.8,1.6,3.6c1.2,0.8,2.6,1,4.5,0.8
			c0.5-0.1,0.9-0.1,1.4-0.1c2.7,0,5.2,1,7.6,3c-0.5-1.2-1.2-2.3-2.1-3.4C139.2,356.2,137,353.9,134.2,352.5z"/>
		<path class="st0" d="M159.3,336.6c4.2-2.9,7.7-4.6,11.4-5.4c2-0.4,4-0.5,5.9-0.5c1.7,0,3.7-0.1,5.7-0.4c5.4-1,9.3-5.7,9.5-11.1
			c0.1-3.8-2.7-7.1-6.5-7.7c-0.5-0.1-1.1-0.1-1.6-0.1c-2,0-4.1,0.6-6.4,1.8c-4.6,2.4-9,5.7-13.9,10.1c-3.4,3-5.9,5.9-7.9,8.7
			c-1.5,2-2.5,4.2-3.6,6.7l-0.2,0.4c-1.5,3-2.7,8.8-2.9,9.6c0,0.2-0.1,0.5-0.1,0.7c0.1-0.3,0.2-0.5,0.4-0.7
			C151.9,343.3,155.3,339.5,159.3,336.6z"/>
		<path class="st0" d="M156.2,325.4c3.2-3.5,7-6.9,11.6-10.2c2.7-2,4.8-4.1,6.5-6.6c2.4-3.4,3.6-6.6,3.6-9.8c0-2.7-1-5.1-2.9-6.6
			c-1.3-1.1-3-1.6-4.9-1.6c-0.8,0-1.6,0.1-2.4,0.3c-2.5,0.6-4.5,2.1-6.3,4.7c-2.7,4-4.3,8.7-5.6,12.8c-1.3,4-2.2,8.4-3.1,12.5
			c-0.4,1.7-0.8,3.4-1.2,5.2c-0.6,2.6-1.1,5.4-1.6,8C151.8,330.8,153.8,327.9,156.2,325.4z"/>
		<path class="st0" d="M152.1,350.1c-0.7,1.3-1.4,2.8-1.8,4.2c4.2-5,8.9-7.5,14.6-7.9c1.7-0.1,3.3,0,4.8,0.1c0.5,0,1,0.1,1.5,0.1
			c3.3,0.2,5.7-0.7,7.4-2.8c1.9-2.3,2-5.3,0.2-7.3c-1.3-1.4-3-2.2-5.1-2.2c-0.3,0-0.6,0-0.8,0c-4.5,0.4-8.8,2.3-13,6.1
			C156.8,343.1,154.3,346.2,152.1,350.1z"/>
		<path class="st0" d="M158.4,358.6c2,0.2,3.4,0,4.5-0.8c1.2-0.8,1.8-2.2,1.6-3.6c-0.3-1.4-1.2-2.3-2.5-2.6
			c-0.3-0.1-0.6-0.1-0.9-0.1c-0.9,0-1.9,0.3-3.1,0.9c-2.8,1.4-5,3.8-6.5,5.7c-0.9,1.1-1.6,2.2-2.1,3.4
			C152.2,359.2,155.2,358.2,158.4,358.6z"/>
		<path class="st0" d="M246,337.2c0-0.1,0-0.2,0-0.3c0.5-2.8,1-5.7,1.5-8.5c0.3-1.8,0.6-3.5,1-5.4c1.2-6.8,2.9-13.4,5.1-19.8
			c0.2-0.5,0.3-1,0.5-1.5c0.7-1.9,1.3-3.7,1.7-5.7c0.8-4.3,0.3-7.8-1.5-11c-1.8-3.2-5.4-4.9-8.7-4.9c-1.3,0-2.5,0.2-3.6,0.7
			c-3.4,1.6-5.3,4.1-6.2,8c-0.6,2.8-0.4,5.8,0.6,9.3c0.4,1.3,0.8,2.5,1.3,3.8c0.3,0.8,0.6,1.6,0.9,2.4c2.3,7,3.9,14.2,5.3,20.5
			C244.6,328.9,245.4,333,246,337.2z"/>
		<path class="st0" d="M232.8,336.6c4,2.8,7.4,6.8,10.3,11.9c0.1,0.2,0.2,0.5,0.4,0.7c0-0.3-0.1-0.5-0.1-0.7
			c-0.1-0.8-1.3-6.6-2.8-9.5l-0.2-0.4c-1.1-2.4-2.1-4.6-3.6-6.7c-2.1-2.8-4.6-5.6-7.9-8.7c-4.9-4.4-9.3-7.7-13.9-10.1
			c-2.3-1.2-4.4-1.8-6.4-1.8c-0.5,0-1.1,0-1.6,0.1c-3.9,0.6-6.6,3.8-6.5,7.7c0.1,5.5,4.1,10.2,9.5,11.1c2,0.4,4,0.4,5.7,0.4
			c1.9,0,3.9,0.1,5.9,0.5C225.1,332,228.7,333.6,232.8,336.6z"/>
		<path class="st0" d="M235.9,325.4c2.3,2.5,4.4,5.4,6.2,8.7c-0.5-2.6-1-5.4-1.6-8c-0.4-1.7-0.8-3.4-1.2-5.2
			c-0.9-4.1-1.8-8.4-3.1-12.5s-2.9-8.8-5.6-12.8c-1.8-2.6-3.8-4.1-6.3-4.7c-0.8-0.2-1.6-0.3-2.4-0.3c-1.9,0-3.5,0.5-4.9,1.6
			c-1.9,1.5-2.9,3.8-2.9,6.6c0,3.2,1.1,6.3,3.6,9.8c1.7,2.4,3.8,4.5,6.5,6.6C228.9,318.5,232.7,321.9,235.9,325.4z"/>
		<path class="st0" d="M241.9,354.3c-0.5-1.4-1.1-2.9-1.8-4.2c-2.2-3.8-4.7-7-7.6-9.5c-4.3-3.6-8.5-5.7-13-6.1
			c-2.5-0.2-4.5,0.5-6,2.1c-1.8,1.9-1.7,4.9,0.2,7.3c1.7,2.1,4.1,3,7.4,2.8c0.5,0,1-0.1,1.5-0.1c1.1-0.1,2.3-0.2,3.5-0.2
			c0.5,0,0.9,0,1.4,0C233,346.8,237.7,349.4,241.9,354.3z"/>
		<path class="st0" d="M234,352.5c-1.5-0.8-2.8-1-4-0.8c-1.3,0.2-2.2,1.2-2.5,2.6s0.4,2.8,1.6,3.6c1.1,0.8,2.6,1,4.5,0.8
			c0.5-0.1,0.9-0.1,1.4-0.1c2.7,0,5.2,1,7.6,3c-0.5-1.2-1.2-2.3-2.1-3.4C239,356.2,236.9,353.9,234,352.5z"/>
		<path class="st0" d="M259.2,336.6c4.2-2.9,7.7-4.6,11.4-5.4c2-0.4,4-0.5,5.9-0.5c1.7,0,3.7-0.1,5.7-0.4c5.4-1,9.3-5.7,9.5-11.1
			c0.1-3.8-2.7-7.1-6.5-7.7c-0.5-0.1-1.1-0.1-1.6-0.1c-2,0-4.1,0.6-6.4,1.8c-4.6,2.4-9,5.7-13.9,10.1c-3.4,3-5.9,5.9-7.9,8.7
			c-1.5,2-2.5,4.2-3.6,6.7l-0.2,0.4c-1.5,3-2.7,8.8-2.9,9.6c0,0.2-0.1,0.5-0.1,0.7c0.1-0.3,0.2-0.5,0.4-0.7
			C251.8,343.3,255.2,339.5,259.2,336.6z"/>
		<path class="st0" d="M256,325.4c3.2-3.5,7-6.9,11.6-10.2c2.7-2,4.8-4.1,6.5-6.6c2.4-3.4,3.6-6.6,3.6-9.8c0-2.7-1-5.1-2.9-6.6
			c-1.3-1.1-3-1.6-4.9-1.6c-0.8,0-1.6,0.1-2.4,0.3c-2.5,0.6-4.5,2.1-6.3,4.7c-2.7,4-4.3,8.7-5.6,12.8c-1.3,4.1-2.2,8.4-3.1,12.5
			c-0.4,1.7-0.8,3.4-1.2,5.2c-0.6,2.6-1.1,5.4-1.6,8C251.7,330.8,253.7,327.9,256,325.4z"/>
		<path class="st0" d="M252,350.1c-0.7,1.3-1.4,2.8-1.8,4.2c4.2-5,8.9-7.5,14.6-7.9c1.7-0.1,3.3,0,4.9,0.1c0.5,0,1,0.1,1.5,0.1
			c3.3,0.2,5.7-0.7,7.4-2.8c1.9-2.3,2-5.3,0.2-7.3c-1.3-1.4-3-2.2-5.1-2.2c-0.3,0-0.6,0-0.8,0c-4.5,0.4-8.8,2.4-13,6.1
			C256.6,343.1,254.1,346.2,252,350.1z"/>
		<path class="st0" d="M258.3,358.6c2,0.2,3.4,0,4.5-0.8c1.2-0.8,1.8-2.2,1.6-3.6c-0.3-1.4-1.2-2.3-2.5-2.6
			c-0.3-0.1-0.6-0.1-0.9-0.1c-0.9,0-1.9,0.3-3.1,0.9c-2.8,1.4-5,3.8-6.5,5.7c-0.9,1.1-1.6,2.2-2.1,3.4
			C252.1,359.2,255,358.2,258.3,358.6z"/>
		<path class="st0" d="M345.9,337.2c0-0.1,0-0.2,0-0.3c0.5-2.8,1-5.7,1.5-8.5c0.3-1.7,0.6-3.5,1-5.3c1.2-6.8,2.9-13.4,5.1-19.8
			c0.2-0.5,0.3-1,0.5-1.5c0.7-1.9,1.3-3.7,1.7-5.7c0.8-4.3,0.3-7.8-1.5-11s-5.4-4.9-8.7-4.9c-1.3,0-2.5,0.2-3.6,0.7
			c-3.4,1.6-5.3,4.1-6.2,8c-0.6,2.8-0.4,5.8,0.6,9.3c0.4,1.3,0.8,2.5,1.3,3.8c0.3,0.8,0.6,1.6,0.9,2.4c2.3,7,3.9,14.2,5.3,20.5
			C344.5,328.9,345.2,333,345.9,337.2z"/>
		<path class="st0" d="M332.7,336.6c4,2.8,7.4,6.8,10.3,11.9c0.1,0.2,0.2,0.5,0.4,0.7c0-0.3-0.1-0.5-0.1-0.7
			c-0.1-0.8-1.3-6.6-2.8-9.5l-0.2-0.4c-1.1-2.4-2.1-4.6-3.6-6.7c-2.1-2.8-4.6-5.6-7.9-8.7c-4.9-4.4-9.3-7.7-13.9-10.1
			c-2.3-1.2-4.4-1.8-6.4-1.8c-0.5,0-1.1,0-1.6,0.1c-3.9,0.6-6.6,3.8-6.5,7.7c0.1,5.5,4.1,10.2,9.5,11.1c2,0.4,4,0.4,5.7,0.4
			c1.9,0,3.9,0.1,5.9,0.5C325,332,328.5,333.6,332.7,336.6z"/>
		<path class="st0" d="M335.8,325.4c2.3,2.5,4.4,5.4,6.2,8.7c-0.5-2.6-1-5.4-1.6-8c-0.4-1.7-0.8-3.4-1.2-5.2
			c-0.9-4.1-1.8-8.4-3.1-12.5c-1.3-4.1-2.9-8.8-5.6-12.8c-1.8-2.6-3.8-4.1-6.3-4.7c-0.8-0.2-1.6-0.3-2.4-0.3c-1.9,0-3.5,0.5-4.9,1.6
			c-1.9,1.5-2.9,3.8-2.9,6.6c0,3.2,1.1,6.3,3.6,9.8c1.7,2.4,3.8,4.5,6.5,6.6C328.8,318.5,332.6,321.9,335.8,325.4z"/>
		<path class="st0" d="M341.7,354.3c-0.5-1.4-1.1-2.9-1.8-4.2c-2.1-3.8-4.7-7-7.6-9.5c-4.3-3.6-8.5-5.7-13-6.1
			c-2.5-0.2-4.5,0.5-6,2.1c-1.8,1.9-1.7,4.9,0.2,7.3c1.7,2.1,4.1,3,7.4,2.8c0.5,0,1-0.1,1.5-0.1c1.1-0.1,2.3-0.2,3.5-0.2
			c0.5,0,0.9,0,1.4,0C332.8,346.8,337.5,349.4,341.7,354.3z"/>
		<path class="st0" d="M333.9,352.5c-1.5-0.8-2.8-1-4-0.8c-1.3,0.2-2.2,1.2-2.5,2.6s0.4,2.8,1.6,3.6c1.1,0.8,2.6,1,4.5,0.8
			c0.5-0.1,0.9-0.1,1.4-0.1c2.7,0,5.2,1,7.6,3c-0.5-1.2-1.2-2.3-2.1-3.4C338.9,356.2,336.7,353.9,333.9,352.5z"/>
		<path class="st0" d="M359,336.6c4.2-2.9,7.7-4.6,11.4-5.4c2-0.4,4-0.5,5.9-0.5c1.7,0,3.7-0.1,5.7-0.4c5.4-1,9.3-5.7,9.5-11.1
			c0.1-3.8-2.7-7.1-6.5-7.7c-0.5-0.1-1.1-0.1-1.6-0.1c-2,0-4.1,0.6-6.4,1.8c-4.6,2.4-9,5.7-13.9,10.1c-3.4,3-5.9,5.9-7.9,8.7
			c-1.5,2-2.5,4.2-3.6,6.7l-0.2,0.4c-1.5,3-2.7,8.8-2.9,9.6c0,0.2-0.1,0.5-0.1,0.7c0.1-0.3,0.2-0.5,0.4-0.7
			C351.6,343.3,355,339.5,359,336.6z"/>
		<path class="st0" d="M355.9,325.4c3.2-3.5,7-6.9,11.6-10.2c2.7-2,4.8-4.1,6.5-6.6c2.4-3.4,3.6-6.6,3.6-9.8c0-2.7-1-5.1-2.9-6.6
			c-1.3-1.1-3-1.6-4.9-1.6c-0.8,0-1.6,0.1-2.4,0.3c-2.5,0.6-4.5,2.1-6.3,4.7c-2.7,4-4.3,8.7-5.6,12.8c-1.3,4.1-2.2,8.4-3.1,12.5
			c-0.4,1.7-0.8,3.4-1.2,5.2c-0.6,2.6-1.1,5.4-1.6,8C351.5,330.8,353.6,327.9,355.9,325.4z"/>
		<path class="st0" d="M351.8,350.1c-0.7,1.3-1.4,2.8-1.8,4.2c4.2-5,8.9-7.5,14.6-7.9c1.7-0.1,3.3,0,4.9,0.1c0.5,0,1,0.1,1.5,0.1
			c3.3,0.2,5.7-0.7,7.4-2.8c1.9-2.3,2-5.3,0.2-7.3c-1.3-1.4-3-2.2-5.1-2.2c-0.3,0-0.6,0-0.8,0c-4.5,0.4-8.8,2.4-13,6.1
			C356.5,343.1,354,346.2,351.8,350.1z"/>
		<path class="st0" d="M358.1,358.6c2,0.2,3.4,0,4.5-0.8c1.2-0.8,1.8-2.2,1.6-3.6c-0.3-1.4-1.2-2.3-2.5-2.6
			c-0.3-0.1-0.6-0.1-0.8-0.1c-0.9,0-2,0.3-3.1,0.9c-2.8,1.4-5,3.8-6.5,5.7c-0.9,1.1-1.6,2.2-2.1,3.4
			C351.9,359.2,354.9,358.2,358.1,358.6z"/>
		<path class="st0" d="M445.7,337.2c0-0.1,0-0.2,0-0.3c0.5-2.8,1-5.7,1.5-8.6c0.3-1.7,0.6-3.5,0.9-5.3c1.2-6.8,2.9-13.4,5.1-19.8
			c0.2-0.5,0.3-1,0.5-1.5c0.7-1.9,1.3-3.7,1.7-5.7c0.8-4.3,0.3-7.8-1.5-11c-1.8-3.2-5.4-4.9-8.7-4.9c-1.3,0-2.5,0.2-3.6,0.7
			c-3.4,1.6-5.3,4.1-6.2,8c-0.6,2.8-0.4,5.8,0.6,9.3c0.4,1.3,0.8,2.5,1.3,3.8c0.3,0.8,0.6,1.6,0.9,2.4c2.3,7,3.9,14.2,5.3,20.5
			C444.4,328.9,445.1,333,445.7,337.2z"/>
		<path class="st0" d="M432.5,336.6c4,2.8,7.4,6.8,10.3,11.9c0.1,0.2,0.2,0.5,0.4,0.7c0-0.3-0.1-0.5-0.1-0.7
			c-0.1-0.8-1.3-6.6-2.8-9.5l-0.2-0.5c-1.1-2.3-2.1-4.6-3.6-6.7c-2.1-2.8-4.6-5.6-7.9-8.7c-4.9-4.4-9.3-7.7-13.9-10.1
			c-2.3-1.2-4.4-1.8-6.4-1.8c-0.5,0-1.1,0-1.6,0.1c-3.9,0.6-6.6,3.8-6.5,7.7c0.1,5.5,4.1,10.2,9.5,11.1c2,0.4,4,0.4,5.7,0.4
			c1.9,0,3.9,0.1,5.9,0.5C424.9,332,428.4,333.6,432.5,336.6z"/>
		<path class="st0" d="M435.7,325.4c2.3,2.5,4.4,5.4,6.2,8.7c-0.5-2.6-1-5.4-1.6-8c-0.4-1.7-0.8-3.4-1.2-5.2
			c-0.9-4.1-1.8-8.4-3.1-12.5c-1.3-4.1-2.9-8.8-5.6-12.8c-1.8-2.6-3.8-4.1-6.3-4.7c-0.8-0.2-1.6-0.3-2.4-0.3c-1.9,0-3.5,0.5-4.9,1.6
			c-1.9,1.5-2.9,3.8-2.9,6.6c0,3.2,1.1,6.3,3.6,9.8c1.7,2.4,3.8,4.5,6.5,6.6C428.6,318.5,432.4,321.9,435.7,325.4z"/>
		<path class="st0" d="M441.6,354.3c-0.5-1.4-1.1-2.9-1.8-4.2c-2.1-3.8-4.7-7-7.6-9.5c-4.3-3.6-8.5-5.7-13-6.1
			c-2.5-0.2-4.5,0.5-6,2.1c-1.8,1.9-1.7,4.9,0.2,7.3c1.7,2.1,4.1,3,7.4,2.8c0.5,0,1-0.1,1.5-0.1c1.1-0.1,2.3-0.2,3.5-0.2
			c0.5,0,0.9,0,1.4,0C432.7,346.8,437.4,349.4,441.6,354.3z"/>
		<path class="st0" d="M433.8,352.5c-1.5-0.8-2.8-1-4-0.8c-1.3,0.2-2.2,1.2-2.5,2.6s0.4,2.8,1.6,3.6c1.1,0.8,2.6,1,4.5,0.8
			c0.5-0.1,0.9-0.1,1.4-0.1c2.7,0,5.2,1,7.6,3c-0.5-1.2-1.2-2.3-2.1-3.4C438.7,356.2,436.6,353.9,433.8,352.5z"/>
		<path class="st0" d="M458.9,336.6c4.2-2.9,7.7-4.6,11.4-5.4c2-0.4,4-0.5,5.9-0.5c1.7,0,3.7-0.1,5.7-0.4c5.4-1,9.3-5.7,9.5-11.1
			c0.1-3.8-2.7-7.1-6.5-7.7c-0.5-0.1-1.1-0.1-1.6-0.1c-2,0-4.1,0.6-6.4,1.8c-4.6,2.4-9,5.7-13.9,10.1c-3.3,3-5.9,5.9-7.9,8.7
			c-1.5,2-2.5,4.2-3.6,6.7l-0.2,0.4c-1.5,3-2.7,8.8-2.9,9.6c0,0.2-0.1,0.5-0.1,0.7c0.1-0.3,0.2-0.5,0.4-0.7
			C451.5,343.3,454.9,339.5,458.9,336.6z"/>
		<path class="st0" d="M455.8,325.4c3.2-3.5,7-6.9,11.6-10.2c2.7-2,4.8-4.1,6.5-6.6c2.4-3.4,3.6-6.6,3.6-9.8c0-2.7-1-5.1-2.9-6.6
			c-1.3-1.1-3-1.6-4.9-1.6c-0.8,0-1.6,0.1-2.4,0.3c-2.5,0.6-4.5,2.1-6.3,4.7c-2.7,4-4.3,8.7-5.6,12.8c-1.3,4.1-2.2,8.4-3.1,12.5
			c-0.4,1.7-0.8,3.4-1.2,5.2c-0.6,2.6-1.1,5.4-1.6,8C451.4,330.8,453.4,327.9,455.8,325.4z"/>
		<path class="st0" d="M451.7,350.1c-0.7,1.3-1.4,2.8-1.8,4.2c4.2-5,8.9-7.5,14.6-7.9c1.7-0.1,3.3,0,4.9,0.1c0.5,0,1,0.1,1.5,0.1
			c3.3,0.2,5.7-0.7,7.4-2.8c1.9-2.3,2-5.3,0.2-7.3c-1.3-1.4-3-2.2-5.1-2.2c-0.3,0-0.6,0-0.8,0c-4.5,0.4-8.8,2.4-13,6.1
			C456.4,343.1,453.9,346.2,451.7,350.1z"/>
		<path class="st0" d="M458,358.6c2,0.2,3.4,0,4.5-0.8c1.2-0.8,1.8-2.2,1.6-3.6c-0.3-1.4-1.2-2.3-2.5-2.6c-0.3-0.1-0.6-0.1-0.9-0.1
			c-0.9,0-1.9,0.3-3.1,0.9c-2.8,1.4-5,3.8-6.5,5.7c-0.9,1.1-1.6,2.2-2.1,3.4C451.8,359.2,454.7,358.2,458,358.6z"/>
		<path class="st0" d="M545.6,337.2c0-0.1,0-0.2,0-0.3c0.5-2.8,1-5.7,1.5-8.6c0.3-1.7,0.6-3.5,0.9-5.3c1.2-6.8,2.9-13.4,5.1-19.8
			c0.2-0.5,0.3-1,0.5-1.5c0.7-1.9,1.3-3.7,1.7-5.7c0.8-4.3,0.3-7.8-1.5-11c-1.8-3.2-5.4-4.9-8.7-4.9c-1.3,0-2.5,0.2-3.6,0.7
			c-3.4,1.6-5.3,4.1-6.2,8c-0.6,2.8-0.4,5.8,0.6,9.3c0.4,1.3,0.8,2.5,1.3,3.8c0.3,0.8,0.6,1.6,0.9,2.4c2.3,7,3.9,14.2,5.3,20.5
			C544.2,328.9,544.9,333,545.6,337.2z"/>
		<path class="st0" d="M532.4,336.6c4,2.8,7.4,6.8,10.3,11.9c0.1,0.2,0.2,0.5,0.4,0.7c0-0.3-0.1-0.5-0.1-0.7
			c-0.1-0.8-1.3-6.6-2.8-9.5l-0.2-0.5c-1.1-2.3-2.1-4.6-3.6-6.7c-2.1-2.8-4.6-5.6-7.9-8.7c-4.9-4.4-9.3-7.7-13.9-10.1
			c-2.3-1.2-4.4-1.8-6.4-1.8c-0.5,0-1.1,0-1.6,0.1c-3.9,0.6-6.6,3.8-6.5,7.7c0.1,5.5,4.1,10.2,9.5,11.1c2,0.4,4,0.4,5.7,0.4
			c1.9,0,3.8,0.1,5.9,0.5C524.7,332,528.2,333.6,532.4,336.6z"/>
		<path class="st0" d="M535.5,325.4c2.3,2.5,4.4,5.4,6.2,8.7c-0.5-2.6-1-5.4-1.6-8c-0.4-1.7-0.8-3.4-1.2-5.2
			c-0.9-4.1-1.8-8.4-3.1-12.5s-2.9-8.8-5.6-12.8c-1.8-2.6-3.8-4.1-6.3-4.7c-0.8-0.2-1.6-0.3-2.4-0.3c-1.9,0-3.5,0.5-4.9,1.6
			c-1.9,1.5-2.9,3.8-2.9,6.6c0,3.2,1.1,6.3,3.6,9.8c1.7,2.4,3.8,4.5,6.5,6.6C528.5,318.5,532.3,321.9,535.5,325.4z"/>
		<path class="st0" d="M541.4,354.3c-0.5-1.4-1.1-2.9-1.8-4.2c-2.1-3.8-4.7-7-7.6-9.5c-4.3-3.6-8.5-5.7-13-6.1
			c-2.5-0.2-4.5,0.5-6,2.1c-1.8,1.9-1.7,4.9,0.2,7.3c1.7,2.1,4.1,3,7.4,2.8c0.5,0,1-0.1,1.5-0.1c1.1-0.1,2.3-0.2,3.5-0.2
			c0.5,0,0.9,0,1.4,0C532.6,346.8,537.2,349.4,541.4,354.3z"/>
		<path class="st0" d="M533.6,352.5c-1.5-0.8-2.8-1-4-0.8c-1.3,0.2-2.2,1.2-2.5,2.6s0.4,2.8,1.6,3.6c1.1,0.8,2.5,1,4.5,0.8
			c0.5-0.1,0.9-0.1,1.4-0.1c2.7,0,5.2,1,7.6,3c-0.5-1.2-1.2-2.3-2.1-3.4C538.6,356.2,536.5,353.9,533.6,352.5z"/>
		<path class="st0" d="M558.7,336.6c4.2-2.9,7.7-4.6,11.4-5.4c2-0.4,4-0.5,5.9-0.5c1.7,0,3.7-0.1,5.7-0.4c5.4-1,9.3-5.7,9.5-11.1
			c0.1-3.8-2.7-7.1-6.5-7.7c-0.5-0.1-1.1-0.1-1.6-0.1c-2,0-4.1,0.6-6.4,1.8c-4.6,2.4-9,5.7-13.9,10.1c-3.3,3-5.9,5.9-7.9,8.7
			c-1.5,2-2.5,4.2-3.6,6.7l-0.2,0.4c-1.5,3-2.7,8.8-2.9,9.6c0,0.2-0.1,0.5-0.1,0.7c0.1-0.3,0.2-0.5,0.4-0.7
			C551.4,343.3,554.7,339.5,558.7,336.6z"/>
		<path class="st0" d="M555.6,325.4c3.2-3.5,7-6.9,11.6-10.2c2.7-2,4.8-4.1,6.5-6.6c2.4-3.4,3.6-6.6,3.6-9.8c0-2.7-1-5.1-2.9-6.6
			c-1.3-1.1-3-1.6-4.9-1.6c-0.8,0-1.6,0.1-2.4,0.3c-2.5,0.6-4.5,2.1-6.3,4.7c-2.7,4-4.3,8.7-5.6,12.8s-2.2,8.4-3.1,12.5
			c-0.4,1.7-0.8,3.4-1.2,5.2c-0.6,2.6-1.1,5.4-1.6,8C551.2,330.8,553.3,327.9,555.6,325.4z"/>
		<path class="st0" d="M551.6,350.1c-0.7,1.3-1.4,2.8-1.8,4.2c4.2-5,8.9-7.5,14.6-7.9c1.7-0.1,3.3,0,4.9,0.1c0.5,0,1,0.1,1.5,0.1
			c3.3,0.2,5.7-0.7,7.4-2.8c1.9-2.3,2-5.3,0.2-7.3c-1.3-1.4-3-2.2-5.1-2.2c-0.3,0-0.6,0-0.8,0c-4.5,0.4-8.8,2.3-13.1,6.1
			C556.2,343.1,553.7,346.2,551.6,350.1z"/>
		<path class="st0" d="M557.8,358.6c2,0.2,3.4,0,4.5-0.8c1.2-0.8,1.8-2.2,1.6-3.6c-0.3-1.4-1.2-2.3-2.5-2.6
			c-0.3-0.1-0.6-0.1-0.9-0.1c-0.9,0-1.9,0.3-3.1,0.9c-2.8,1.4-5,3.8-6.5,5.7c-0.9,1.1-1.6,2.2-2.1,3.4
			C551.7,359.2,554.6,358.2,557.8,358.6z"/>
		<path class="st0" d="M645.4,337.2c0-0.1,0-0.2,0-0.3c0.5-2.8,1-5.7,1.5-8.5c0.3-1.7,0.6-3.5,0.9-5.3c1.2-6.8,2.9-13.4,5.1-19.8
			c0.2-0.5,0.3-1,0.5-1.5c0.7-1.9,1.3-3.7,1.7-5.7c0.8-4.3,0.3-7.8-1.5-11s-5.4-4.9-8.7-4.9c-1.3,0-2.5,0.2-3.6,0.7
			c-3.4,1.6-5.3,4.1-6.2,8c-0.6,2.8-0.4,5.8,0.6,9.3c0.4,1.3,0.8,2.5,1.3,3.8c0.3,0.8,0.6,1.6,0.9,2.4c2.3,7,3.9,14.2,5.3,20.5
			C644.1,328.9,644.8,333,645.4,337.2z"/>
		<path class="st0" d="M632.3,336.6c4,2.8,7.4,6.8,10.3,11.9c0.1,0.2,0.2,0.5,0.4,0.7c0-0.3-0.1-0.5-0.1-0.7
			c-0.1-0.8-1.3-6.6-2.8-9.5l-0.2-0.4c-1.1-2.4-2.1-4.6-3.6-6.7c-2.1-2.8-4.6-5.6-7.9-8.7c-4.9-4.4-9.3-7.7-13.9-10.1
			c-2.3-1.2-4.4-1.8-6.4-1.8c-0.5,0-1.1,0-1.6,0.1c-3.9,0.6-6.6,3.8-6.5,7.7c0.1,5.5,4.1,10.2,9.5,11.1c2,0.4,4,0.4,5.7,0.4
			c1.9,0,3.9,0.1,5.9,0.5C624.6,332,628.1,333.6,632.3,336.6z"/>
		<path class="st0" d="M635.4,325.4c2.3,2.5,4.4,5.4,6.2,8.7c-0.5-2.6-1-5.4-1.6-8c-0.4-1.7-0.8-3.4-1.2-5.2
			c-0.9-4.1-1.8-8.4-3.1-12.5s-2.9-8.8-5.6-12.8c-1.8-2.6-3.8-4.1-6.3-4.7c-0.8-0.2-1.6-0.3-2.4-0.3c-1.9,0-3.5,0.5-4.9,1.6
			c-1.9,1.5-2.9,3.8-2.9,6.6c0,3.2,1.1,6.3,3.6,9.8c1.7,2.4,3.8,4.5,6.5,6.6C628.3,318.5,632.1,321.9,635.4,325.4z"/>
		<path class="st0" d="M641.3,354.3c-0.5-1.4-1.1-2.9-1.8-4.2c-2.2-3.8-4.7-7-7.6-9.5c-4.3-3.6-8.5-5.7-13.1-6.1
			c-2.5-0.2-4.5,0.5-6,2.1c-1.8,1.9-1.7,4.9,0.2,7.3c1.7,2.1,4.1,3,7.4,2.8c0.5,0,1-0.1,1.5-0.1c1.1-0.1,2.3-0.2,3.5-0.2
			c0.5,0,0.9,0,1.4,0C632.4,346.8,637.1,349.4,641.3,354.3z"/>
		<path class="st0" d="M633.5,352.5c-1.5-0.8-2.8-1-4-0.8c-1.3,0.2-2.2,1.2-2.5,2.6s0.4,2.8,1.6,3.6c1.2,0.8,2.6,1,4.5,0.8
			c0.5-0.1,0.9-0.1,1.4-0.1c2.7,0,5.2,1,7.6,3c-0.5-1.2-1.2-2.3-2.1-3.4C638.5,356.2,636.3,353.9,633.5,352.5z"/>
		<path class="st0" d="M658.6,336.6c4.2-2.9,7.7-4.6,11.4-5.4c2-0.4,4-0.5,5.9-0.5c1.7,0,3.7-0.1,5.7-0.4c5.4-1,9.3-5.7,9.5-11.1
			c0.1-3.8-2.7-7.1-6.5-7.7c-0.5-0.1-1.1-0.1-1.6-0.1c-2,0-4.1,0.6-6.4,1.8c-4.6,2.4-9,5.7-13.9,10.1c-3.4,3-5.9,5.9-7.9,8.7
			c-1.5,2-2.5,4.2-3.6,6.7l-0.2,0.4c-1.7,3.2-2.9,9.5-2.9,9.6c0,0.2-0.1,0.5-0.1,0.7c0.1-0.3,0.2-0.5,0.4-0.7
			C651.2,343.3,654.6,339.5,658.6,336.6z"/>
		<path class="st0" d="M655.5,325.4c3.2-3.5,7-6.9,11.6-10.2c2.7-2,4.8-4.1,6.5-6.6c2.4-3.4,3.6-6.6,3.6-9.8c0-2.7-1-5.1-2.9-6.6
			c-1.3-1.1-3-1.6-4.9-1.6c-0.8,0-1.6,0.1-2.4,0.3c-2.5,0.6-4.5,2.1-6.3,4.7c-2.7,4-4.3,8.7-5.6,12.8s-2.2,8.4-3.1,12.5
			c-0.4,1.7-0.8,3.4-1.2,5.2c-0.6,2.6-1.1,5.4-1.6,8C651.1,330.8,653.1,327.9,655.5,325.4z"/>
		<path class="st0" d="M651.4,350.1c-0.7,1.3-1.4,2.8-1.8,4.2c4.2-5,8.9-7.5,14.6-7.9c1.7-0.1,3.3,0,4.8,0.1c0.5,0,1,0.1,1.5,0.1
			c3.3,0.2,5.7-0.7,7.4-2.8c1.9-2.3,2-5.3,0.2-7.3c-1.3-1.4-3-2.2-5.1-2.2c-0.3,0-0.6,0-0.8,0c-4.5,0.4-8.8,2.3-13,6.1
			C656.1,343.1,653.6,346.2,651.4,350.1z"/>
		<path class="st0" d="M657.7,358.6c2,0.2,3.4,0,4.5-0.8c1.2-0.8,1.8-2.2,1.6-3.6c-0.3-1.4-1.2-2.3-2.5-2.6
			c-0.3-0.1-0.6-0.1-0.9-0.1c-0.9,0-1.9,0.3-3.1,0.9c-2.8,1.4-5,3.8-6.5,5.7c-0.9,1.1-1.6,2.2-2.1,3.4
			C651.5,359.2,654.5,358.2,657.7,358.6z"/>
	</g>
	<g>
		<path class="st1" d="M674,396.6c0-26.1-16-49.5-39.5-59c1-2.8,1.5-5.8,1.5-8.8c0-14.2-11.5-25.9-25.6-25.9
			c-12.3,0-22.6,8.8-25,20.4c-3.3-3-7.6-4.9-12.3-4.9c-8.7,0-16.1,6.2-17.9,14.5H231.6c-1.9-8.3-9.2-14.5-17.9-14.5
			c-4.7,0-9,1.8-12.3,4.7c-2.5-11.6-12.8-20.4-25-20.4c-14.1,0-25.6,11.6-25.6,25.9c0,3.2,0.6,6.3,1.7,9.2
			c-22.9,9.8-38.5,33-38.5,58.6c0,25.6,15.5,48.7,38.5,58.6c-1.1,2.9-1.7,6.1-1.7,9.3c0,14.2,11.5,25.9,25.6,25.9
			c12.3,0,22.6-8.8,25-20.5c3.3,2.9,7.5,4.7,12.2,4.7c8.7,0,16-6.2,17.9-14.5H555c1.9,8.3,9.2,14.5,17.9,14.5c4.7,0,9-1.8,12.3-4.7
			c2.5,11.7,12.8,20.5,25.1,20.5c14.1,0,25.6-11.6,25.6-25.9c0-3-0.5-6-1.5-8.8C658,446.1,674,422.6,674,396.6z"/>
	</g>
	<g>
		<g>
			<path class="st0" d="M275,419.8c2.7,0,4.7,0.8,5.9,2.3c1.3,1.6,1.8,3.6,1.4,5.9c-0.4,2.3-1.6,4.3-3.5,6c-1.7,1.5-4,2.2-6.7,2.2
				h-3.4l2.9-16.5h3.4V419.8z M273.2,421.7l-2.2,12.8h1.4c2,0,3.7-0.6,5.1-1.7c1.5-1.3,2.4-2.8,2.7-4.7c0.3-1.8,0-3.4-1.1-4.7
				c-1-1.1-2.4-1.7-4.5-1.7h-1.4V421.7z"/>
			<path class="st0" d="M296.8,419.8l3,16.5h-2.1l-1.3-6.9H292l-3.7,6.9h-2.1l8.8-16.5H296.8z M296.1,427.7l-0.8-4.3l-2.3,4.3H296.1
				z"/>
			<path class="st0" d="M310.7,431h-1.9l-0.9,5.4h-2l2.9-16.5h4.7c1.3,0.2,2.4,0.7,3.1,1.7c0.9,1.1,1.2,2.3,0.9,3.8
				c-0.3,1.5-1,2.8-2.3,3.9c-0.9,0.7-1.6,1.2-2.1,1.3l2.7,5.7h-2.4L310.7,431z M310.4,421.7l-1.3,7.5h2c0.9,0,1.8-0.4,2.7-1.1
				c0.8-0.7,1.3-1.6,1.5-2.6s0-1.9-0.6-2.6c-0.6-0.7-1.4-1.1-2.3-1.1L310.4,421.7L310.4,421.7z"/>
			<path class="st0" d="M333.7,419.8l-5.4,6.3l5.3,10.2h-2.4l-4.4-8.5l-1.3,1.5l-1.2,7h-2l2.9-16.5h2l-1.1,6.1l5.3-6.1L333.7,419.8
				L333.7,419.8z"/>
			<path class="st0" d="M367.2,432.7l1.2,1.3c-2.1,1.7-4.3,2.5-6.5,2.5c-2.4,0-4.2-0.8-5.6-2.4c-1.4-1.6-1.8-3.6-1.4-6
				s1.6-4.2,3.5-6c1.9-1.6,4.1-2.5,6.4-2.5c2.2,0,4.1,0.8,5.6,2.5l-1.6,1.3c-1.3-1.3-2.7-2-4.3-2c-1.7,0-3.3,0.6-4.8,1.9
				c-1.5,1.3-2.4,2.8-2.7,4.6c-0.3,1.8,0,3.4,1.1,4.6c1,1.3,2.4,1.9,4.2,1.9C364,434.7,365.6,434,367.2,432.7z"/>
			<path class="st0" d="M377.9,428.9l-1.3,7.4h-2l2.9-16.5h2l-1.3,7.4h6.7l1.3-7.4h2l-2.9,16.5h-2l1.3-7.4H377.9z"/>
			<path class="st0" d="M408.6,422.1c1.4,1.6,1.8,3.6,1.4,6s-1.6,4.2-3.5,6c-1.9,1.6-4.1,2.5-6.4,2.5c-2.4,0-4.2-0.8-5.6-2.5
				s-1.8-3.6-1.4-6s1.6-4.2,3.5-6c1.9-1.6,4.1-2.5,6.4-2.5C405.4,419.6,407.2,420.5,408.6,422.1z M402.8,421.5
				c-1.7,0-3.3,0.6-4.8,1.9c-1.5,1.3-2.4,2.8-2.7,4.6c-0.3,1.8,0,3.4,1.1,4.7c1,1.3,2.4,1.9,4.2,1.9c1.7,0,3.4-0.6,4.8-1.9
				c1.5-1.3,2.4-2.8,2.7-4.7c0.3-1.8,0-3.4-1.1-4.6C405.9,422.1,404.5,421.5,402.8,421.5z"/>
			<path class="st0" d="M428.5,432.7l1.2,1.3c-2.1,1.7-4.3,2.5-6.5,2.5c-2.4,0-4.2-0.8-5.6-2.4c-1.4-1.6-1.8-3.6-1.4-6
				s1.6-4.2,3.5-6c1.9-1.6,4.1-2.5,6.4-2.5c2.2,0,4.1,0.8,5.6,2.5l-1.6,1.3c-1.3-1.3-2.7-2-4.3-2c-1.7,0-3.3,0.6-4.8,1.9
				c-1.5,1.3-2.4,2.8-2.7,4.6c-0.3,1.8,0,3.4,1.1,4.6c1,1.3,2.4,1.9,4.2,1.9C425.1,434.7,426.8,434,428.5,432.7z"/>
			<path class="st0" d="M452.2,422.1c1.4,1.6,1.8,3.6,1.4,6s-1.6,4.2-3.5,6c-1.9,1.6-4.1,2.5-6.4,2.5c-2.4,0-4.2-0.8-5.6-2.5
				s-1.8-3.6-1.4-6s1.6-4.2,3.5-6c1.9-1.6,4.1-2.5,6.4-2.5C449,419.6,450.9,420.5,452.2,422.1z M446.4,421.5c-1.7,0-3.3,0.6-4.8,1.9
				c-1.5,1.3-2.4,2.8-2.7,4.6c-0.3,1.8,0,3.4,1.1,4.7c1,1.3,2.4,1.9,4.2,1.9c1.7,0,3.4-0.6,4.8-1.9c1.5-1.3,2.4-2.8,2.7-4.7
				c0.3-1.8,0-3.4-1.1-4.6C449.5,422.1,448.1,421.5,446.4,421.5z"/>
			<path class="st0" d="M458.8,436.3l2.9-16.5h2l-2.6,14.7h5.8l-0.3,1.8H458.8z"/>
			<path class="st0" d="M482.5,419.8l3,16.5h-2.1l-1.3-6.9h-4.4l-3.7,6.9h-2.1l8.8-16.5H482.5z M481.8,427.7l-0.8-4.3l-2.3,4.3
				H481.8z"/>
			<path class="st0" d="M498.2,421.7l-2.6,14.7h-2l2.6-14.7h-3.9l0.3-1.8h9.8l-0.3,1.8H498.2z"/>
			<path class="st0" d="M517.5,419.8l-0.3,1.8h-6.8l-1,5.6h6.8l-0.3,1.8h-6.8l-1,5.6h6.8l-0.3,1.8h-8.8l2.9-16.5h8.8V419.8z"/>
		</g>
		<g>
			<path class="st0" d="M215.9,365.2l13.5,15.9c0.2,0.2,0.3,0.4,0.5,0.4c0.1,0,0.3-0.1,0.4-0.3l10.9-15.6c0.7-0.8,1.4-1.2,2.3-1.2
				h1.6c1.2,0,1.9,0.5,1.9,1.4v40.5c0,0.8-0.5,1.2-1.6,1.2h-4.5c-0.9,0-1.4-0.4-1.4-1.2v-28.6c0-0.3-0.1-0.4-0.3-0.4
				c-0.1,0-0.2,0-0.4,0.1l-11.5,16.4c-0.2,0.1-0.3,0.2-0.5,0.2s-0.4-0.1-0.6-0.3l-12-13.7c-0.1-0.1-0.2-0.1-0.3-0.1
				s-0.2,0.1-0.2,0.4v26.4c0,0.6-0.6,0.9-1.7,0.9h-8.7c-1.1,0-1.6-0.6-1.6-1.9V366c0-1.1,0.6-1.6,1.7-1.6h10.4
				C214.6,364.4,215.3,364.6,215.9,365.2z"/>
			<path class="st0" d="M298.9,385.8c0,6.2-2.3,11.5-6.8,16.2c-4.5,4.5-10.1,6.9-16.8,6.9c-6.6,0-12.2-2.3-16.7-6.9
				c-4.5-4.5-6.8-9.9-6.8-16.2c0-6.2,2.3-11.5,6.8-16.2c4.5-4.5,10.1-6.9,16.7-6.9c6.7,0,12.2,2.3,16.8,6.9
				C296.6,374.3,298.9,379.6,298.9,385.8z M269,400.8c1.4,1.1,3.5,1.7,6.4,1.7c4.2,0,7.9-1.6,11.1-4.9c3.2-3.2,4.7-7.2,4.7-12
				c0-4.7-1.6-8.8-4.7-12c-3.1-3.2-6.9-4.9-11.1-4.9c-2.9,0-4.8,0.5-5.7,1.5c-1.2,0.5-1.9,2.1-2,4.9v21.4
				C267.6,399,268.1,400.4,269,400.8z"/>
			<path class="st0" d="M316.9,402.2c0.9,0.4,2.4,0.6,4.6,0.6c3.2-0.1,5.7-0.9,7.3-2.4c1.7-1.5,2.6-3.9,2.8-7.3v-27.4
				c0-0.9,0.5-1.4,1.4-1.4h4.7c0.9,0,1.4,0.4,1.4,1.3v25.8c-0.2,5.8-1.7,10-4.6,12.7c-2.8,2.8-7.2,4.1-13,4.1c-4.3,0-8.3-1-11.9-2.9
				c-3.7-1.9-5.6-5.4-5.9-10.1v-29.3c0-1.1,0.6-1.6,1.7-1.6h8.5c1.2,0,1.8,0.6,1.8,1.8v33.8C315.6,400.9,316.1,401.8,316.9,402.2z"
				/>
			<path class="st0" d="M363.7,364.4c3.6,0.3,6.9,1.8,9.7,4.6c2.9,2.9,4.3,6.4,4.3,10.4c0,4-1.4,7.5-4.3,10.3
				c-1.7,1.7-2.7,2.6-3.2,2.8c-0.2,0.2-0.3,0.5-0.3,0.7c0,0.1,0,0.2,0.1,0.4l5.5,9.6l1.7,3c0.1,0.3,0.2,0.5,0.2,0.6
				c0,0.4-0.3,0.6-1,0.6h-5.8c-0.6,0-1-0.2-1.3-0.6l-6.8-12.3h-4.9c-0.8,0-1.2,0.3-1.2,1v10c0,1.2-0.6,1.9-1.9,1.9h-8.7
				c-1.1,0-1.6-0.5-1.6-1.6v-39.8c0-1.1,0.6-1.6,1.7-1.6h17.8V364.4z M356.4,386.9c0,1.1,0.6,1.7,1.7,1.7h5c1.8-0.1,3.5-0.9,4.9-2.4
				c1.8-1.8,2.7-4.1,2.7-6.8c0-2.7-0.8-4.9-2.4-6.5c-1.8-1.7-3.9-2.6-6.5-2.7h-3.6c-1.2,0-1.7,0.5-1.7,1.5v15.2H356.4z"/>
			<path class="st0" d="M401.2,407.5h-1.9c-0.6,0-1.2-0.4-1.7-1.1L381.4,366c-0.1-0.3-0.2-0.6-0.2-0.8c0-0.5,0.3-0.8,1-0.8h9.5
				c0.9,0,1.6,0.4,2,1.3l8,21.6c0.1,0.4,0.2,0.6,0.4,0.6c0.1,0,0.2-0.2,0.3-0.6l6.4-22c0.3-0.7,0.9-1,1.9-1h3.4c1,0,1.4,0.4,1.4,1.3
				c0,0.2,0,0.3,0,0.5l-12.8,40.1C402.2,407.1,401.8,407.5,401.2,407.5z"/>
			<path class="st0" d="M432.7,386.6v7.4c0,3.6,0.7,5.9,2.1,6.8c0.9,0.6,2.1,0.9,3.8,0.9c1.4,0,3.2-0.2,5.2-0.7c3.1-1,6.1-3,9.1-5.9
				c0.3-0.6,0.8-0.9,1.5-0.9c0.4,0,0.9,0.1,1.5,0.3l1.7,1.1c0.7,0.3,1,0.7,1,1.3c0,0.4-0.2,0.9-0.5,1.5c-2.6,3.8-6.5,6.6-11.7,8.3
				c-2.5,0.6-4.9,0.9-7.2,0.9c-3.8,0-7.4-0.8-10.7-2.5c-5.2-2.7-8.7-6.7-10.3-11.8c-0.7-2.1-1-4.2-1-6.4c0-0.3,0-0.7,0-1
				c0-0.3,0-0.6,0-1c0-2.1,0.3-4.2,1-6.4c1.7-5.2,5.1-9.2,10.3-11.9c3.3-1.7,6.8-2.5,10.7-2.5c2.3,0,4.7,0.3,7.2,0.9
				c4.7,1.7,8.2,4.6,10.5,8.9c2.2,4,3.2,7.7,3.2,10.9v0.5c0,0.9-0.5,1.4-1.4,1.4h-26V386.6z M432.7,380.6h18.5c1,0,1.5-0.2,1.6-0.7
				c-1.1-5.2-4.2-8.3-9.1-9.3c-1.6-0.4-3.1-0.5-4.4-0.5c-2.3,0-4.1,0.5-5.6,1.5c-0.6,0.3-1,1.3-1,2.7V380.6z"/>
			<path class="st0" d="M483,364.4c5.5,0.4,10.1,2.5,13.8,6.5c3.8,4.2,5.7,9.3,5.7,15.1c0,5.9-1.9,10.8-5.8,15
				c-3.7,3.7-7.9,6-12.5,6.7h-18.4c-0.9,0-1.3-0.4-1.3-1.2v-40.8c0-0.8,0.4-1.1,1.1-1.1H483z M475.4,373v26.2c0,1.6,0.7,2.4,2.1,2.4
				h3.7c3.6-0.1,6.7-1.5,9.4-4.2c2.9-3.1,4.4-6.9,4.4-11.4c0-4.4-1.4-8.3-4.3-11.5c-2.4-2.6-6-4-10.6-4.1h-2.9
				C476,370.2,475.4,371.1,475.4,373z"/>
			<path class="st0" d="M526.5,364.4c3.6,0.3,6.9,1.8,9.7,4.6c2.9,2.9,4.3,6.4,4.3,10.4c0,4-1.4,7.5-4.3,10.3
				c-1.7,1.7-2.7,2.6-3.2,2.8c-0.2,0.2-0.3,0.5-0.3,0.7c0,0.1,0,0.2,0.1,0.4l5.5,9.6l1.7,3c0.1,0.3,0.2,0.5,0.2,0.6
				c0,0.4-0.3,0.6-1,0.6h-5.8c-0.6,0-1-0.2-1.3-0.6l-6.8-12.3h-4.9c-0.8,0-1.2,0.3-1.2,1v10c0,1.2-0.6,1.9-1.8,1.9h-8.7
				c-1.1,0-1.6-0.5-1.6-1.6v-39.8c0-1.1,0.6-1.6,1.7-1.6h17.7V364.4z M519.3,386.9c0,1.1,0.6,1.7,1.7,1.7h5c1.8-0.1,3.5-0.9,4.9-2.4
				c1.8-1.8,2.7-4.1,2.7-6.8c0-2.7-0.8-4.9-2.4-6.5c-1.8-1.7-3.9-2.6-6.5-2.7h-3.6c-1.2,0-1.7,0.5-1.7,1.5v15.2H519.3z"/>
			<path class="st0" d="M559.5,386.6v7.4c0,3.6,0.7,5.9,2.1,6.8c0.9,0.6,2.1,0.9,3.8,0.9c1.4,0,3.2-0.2,5.2-0.7c3.1-1,6.1-3,9.1-5.9
				c0.3-0.6,0.8-0.9,1.5-0.9c0.4,0,0.9,0.1,1.5,0.3l1.7,1.1c0.7,0.3,1,0.7,1,1.3c0,0.4-0.2,0.9-0.5,1.5c-2.6,3.8-6.5,6.6-11.7,8.3
				c-2.5,0.6-4.9,0.9-7.2,0.9c-3.8,0-7.4-0.8-10.7-2.5c-5.2-2.7-8.7-6.7-10.3-11.8c-0.7-2.1-1-4.2-1-6.4c0-0.3,0-0.7,0-1
				c0-0.3,0-0.6,0-1c0-2.1,0.3-4.2,1-6.4c1.7-5.2,5.1-9.2,10.3-11.9c3.3-1.7,6.8-2.5,10.7-2.5c2.3,0,4.7,0.3,7.2,0.9
				c4.7,1.7,8.2,4.6,10.5,8.9c2.2,4,3.2,7.7,3.2,10.9v0.5c0,0.9-0.5,1.4-1.4,1.4h-26V386.6z M559.5,380.6H578c1,0,1.5-0.2,1.6-0.7
				c-1.1-5.2-4.2-8.3-9.1-9.3c-1.6-0.4-3.1-0.5-4.4-0.5c-2.3,0-4.1,0.5-5.6,1.5c-0.6,0.3-1,1.3-1,2.7V380.6z"/>
		</g>
		<g>
			<path class="st0" d="M610.4,446.6L610.4,446.6L610.4,446.6H176.5h-0.1l0,0l0,0c-9.4,0.1-17.1,7.8-17.1,17.4
				c0,9.6,7.7,17.4,17.2,17.4s17.2-7.8,17.2-17.4H189c0,7-5.6,12.6-12.5,12.6S164,471,164,464s5.6-12.6,12.5-12.6h15.7h13.3
				c-0.8,1.4-1.3,3-1.3,4.7c0,5.3,4.2,9.5,9.4,9.5s9.4-4.2,9.4-9.5h-4.7c0,2.6-2.1,4.7-4.7,4.7c-2.6,0-4.7-2.1-4.7-4.7
				s2.1-4.7,4.7-4.7h359.6c2.6,0,4.7,2.1,4.7,4.7s-2.1,4.7-4.7,4.7c-2.6,0-4.7-2.1-4.7-4.7h-4.7c0,5.3,4.2,9.5,9.4,9.5
				s9.4-4.2,9.4-9.5c0-1.7-0.5-3.4-1.3-4.7h13.3h15.7c6.9,0,12.5,5.7,12.5,12.6s-5.6,12.6-12.5,12.6s-12.5-5.7-12.5-12.6h-4.7
				c0,9.6,7.7,17.4,17.2,17.4s17.2-7.8,17.2-17.4C627.4,454.5,619.8,446.7,610.4,446.6z"/>
			<path class="st0" d="M176.2,346.4L176.2,346.4L176.2,346.4H610h0.1l0,0l0,0c9.4-0.1,17.1-7.8,17.1-17.4c0-9.6-7.7-17.4-17.2-17.4
				s-17.2,7.8-17.2,17.4h4.7c0-7,5.6-12.6,12.5-12.6s12.5,5.7,12.5,12.6s-5.6,12.6-12.5,12.6h-15.7h-13.3c0.8-1.4,1.3-3,1.3-4.7
				c0-5.3-4.2-9.5-9.4-9.5s-9.4,4.2-9.4,9.5h4.7c0-2.6,2.1-4.7,4.7-4.7c2.6,0,4.7,2.1,4.7,4.7s-2.1,4.7-4.7,4.7H213.4
				c-2.6,0-4.7-2.1-4.7-4.7c0-2.6,2.1-4.7,4.7-4.7c2.6,0,4.7,2.1,4.7,4.7h4.7c0-5.3-4.2-9.5-9.4-9.5s-9.4,4.2-9.4,9.5
				c0,1.7,0.5,3.3,1.3,4.7h-13.3h-15.7c-6.9,0-12.5-5.7-12.5-12.6s5.6-12.6,12.5-12.6c6.9,0,12.5,5.7,12.5,12.6h4.7
				c0-9.6-7.7-17.4-17.2-17.4s-17.2,7.8-17.2,17.4C159.2,338.5,166.9,346.3,176.2,346.4z"/>
			<path class="st0" d="M158.6,350l-1.7-4.4c-20.8,8.1-34.7,28.6-34.7,51.1s13.9,43.1,34.7,51.1l1.7-4.4
				c-19-7.4-31.7-26.2-31.7-46.7S139.8,357.4,158.6,350z"/>
			<path class="st0" d="M631,345.6l-1.7,4.4c19,7.4,31.7,26.2,31.7,46.7s-12.7,39.3-31.7,46.7l1.7,4.4c20.8-8.1,34.7-28.6,34.7-51.1
				S651.9,353.6,631,345.6z"/>
		</g>
	</g>
</g>
</svg>
