<?xml version="1.0" encoding="utf-8"?>
<!-- Generator: Adobe Illustrator 19.0.1, SVG Export Plug-In . SVG Version: 6.00 Build 0)  -->
<svg version="1.1" id="Layer_1" xmlns="http://www.w3.org/2000/svg" xmlns:xlink="http://www.w3.org/1999/xlink" x="0px" y="0px"
	 viewBox="44 149 700 495" style="enable-background:new 44 149 700 495;" xml:space="preserve">
<style type="text/css">
	.st0{clip-path:url(#SVGID_2_);}
	.st1{fill:#98B1D6;}
	.st2{fill:#7C9FCD;}
	.st3{fill:#E3E7F4;}
	.st4{fill:#0070AF;}
	.st5{fill:#0070AF;stroke:#0070AF;stroke-width:0.8884;stroke-miterlimit:10;}
</style>
<g id="Layer_1_1_">
</g>
<g id="Layer_2">
	<g>
		<g>
			<defs>
				<rect id="SVGID_1_" x="44" y="149" width="700" height="495"/>
			</defs>
			<clipPath id="SVGID_2_">
				<use xlink:href="#SVGID_1_"  style="overflow:visible;"/>
			</clipPath>
			<g class="st0">
				<g>
					<rect x="44" y="142.3" class="st1" width="28" height="514.5"/>
					<rect x="72" y="142.3" class="st2" width="28" height="514.5"/>
					<rect x="100" y="142.3" class="st1" width="28" height="514.5"/>
					<rect x="128" y="142.3" class="st2" width="28" height="514.5"/>
					<rect x="156" y="142.3" class="st1" width="28" height="514.5"/>
					<rect x="184.1" y="142.3" class="st2" width="28" height="514.5"/>
					<rect x="212.1" y="142.3" class="st1" width="28" height="514.5"/>
					<rect x="240.1" y="142.3" class="st2" width="28" height="514.5"/>
					<rect x="268.1" y="142.3" class="st1" width="28" height="514.5"/>
					<rect x="296.1" y="142.3" class="st2" width="28" height="514.5"/>
					<rect x="324.1" y="142.3" class="st1" width="28" height="514.5"/>
					<rect x="352.1" y="142.3" class="st2" width="28" height="514.5"/>
					<rect x="380.1" y="142.3" class="st1" width="28" height="514.5"/>
					<rect x="408.2" y="142.3" class="st2" width="28" height="514.5"/>
					<rect x="436.2" y="142.3" class="st1" width="28" height="514.5"/>
					<rect x="464.2" y="142.3" class="st2" width="28" height="514.5"/>
					<rect x="492.2" y="142.3" class="st1" width="28" height="514.5"/>
					<rect x="520.2" y="142.3" class="st2" width="28" height="514.5"/>
					<rect x="548.2" y="142.3" class="st1" width="28" height="514.5"/>
					<rect x="576.2" y="142.3" class="st2" width="28" height="514.5"/>
					<rect x="604.2" y="142.3" class="st1" width="28" height="514.5"/>
					<rect x="632.3" y="142.3" class="st2" width="28" height="514.5"/>
					<rect x="660.3" y="142.3" class="st1" width="28" height="514.5"/>
					<rect x="688.3" y="142.3" class="st2" width="28" height="514.5"/>
					<rect x="716.3" y="142.3" class="st1" width="28" height="514.5"/>
				</g>
				<g>
					<path class="st3" d="M701.3,393.9c0-29.5-17.5-55.5-43-65.7c1.3-3.3,2-7,2-10.7c0-15.4-11.9-27.9-26.6-27.9
						c-13.7,0-25,10.9-26.4,24.9c-3.3-4.3-8.4-7.1-14-7.1c-9,0-16.6,7-17.9,16.2h-55.9c-7.6-18.6-19.6-43.4-36.5-64.6
						c-20.3-25.6-43.6-41-69-46c-4.5-1-9.4-1.6-14.7-1.7h-0.2c-0.4,0-0.8,0-1.2,0h-0.3h-0.3c-0.4,0-0.8,0-1.2,0h-0.2
						c-5.3,0.1-10.2,0.7-14.7,1.7c-53.7,10.6-82.9,66.8-100.4,110.6H220c-1.3-9.1-8.8-16.2-17.9-16.2c-5.6,0-10.6,2.7-14,7
						c-1.5-13.9-12.8-24.8-26.4-24.8c-14.6,0-26.6,12.5-26.6,27.9c0,3.7,0.7,7.4,2,10.7c-25.5,10.2-43,36.2-43,65.7
						c0,29.6,17.5,55.5,43,65.8c-1.3,3.4-2,7-2,10.8c0,15.4,11.9,27.9,26.6,27.9c13.6,0,24.9-10.9,26.4-24.8c3.3,4.2,8.3,7,14,7
						c9.1,0,16.6-7.1,17.9-16.2h49.4c3.4,41.7,35.4,80.3,57.6,94.4c30.3,19.1,59.6,21.2,70.8,21.2c31.9,0,60.5-9.9,85.1-29.3
						c27.7-21.9,46.1-54.4,49.4-86.2h43.3c1.3,9.2,8.8,16.2,17.9,16.2c5.7,0,10.7-2.8,14-7.1c1.4,14,12.7,24.9,26.4,24.9
						c14.6,0,26.6-12.5,26.6-27.9c0-3.8-0.7-7.4-2-10.8C683.8,449.4,701.3,423.4,701.3,393.9z"/>
					<g>
						<path class="st4" d="M633.2,450.6L633.2,450.6L633.2,450.6H616h-23.2l0,0h-8.2h-65.3v2.7c0,25.8-12.4,53.9-33.1,75.4
							c-23.3,24.1-54.7,37.4-88.4,37.4c-33.5,0-64-13.3-86.1-37.4c-19.3-21.1-30.8-49.3-30.8-75.4v-2.7h-71.5h-8.2c0,0,0,0-0.1,0
							l0,0h-23.2h-17.1h-0.1l0,0c-10.3,0.1-18.6,8.9-18.6,19.7c0,10.9,8.4,19.7,18.7,19.7s18.7-8.8,18.7-19.7h-5.2
							c0,7.9-6.1,14.2-13.5,14.2c-7.5,0-13.5-6.4-13.5-14.2c0-7.9,6.1-14.2,13.5-14.2h17.1h14.4c-0.9,1.6-1.4,3.4-1.4,5.4
							c0,6,4.6,10.9,10.3,10.9s10.3-4.9,10.3-10.9h-5.2c0,3-2.3,5.4-5.1,5.4s-5.1-2.4-5.1-5.4s2.3-5.4,5.1-5.4h8.2h66.3
							c0.8,26.7,12.7,55.1,32.2,76.5c23,25.2,54.9,39.1,89.8,39.1l0,0l0,0l0,0c35.1,0,67.8-13.9,92.1-39
							c20.9-21.7,33.7-50.1,34.6-76.5h60.1h8.2c2.8,0,5.1,2.4,5.1,5.4s-2.3,5.4-5.1,5.4s-5.1-2.4-5.1-5.4h-5.2
							c0,6,4.6,10.9,10.3,10.9s10.3-4.9,10.3-10.9c0-2-0.5-3.8-1.4-5.4H616h17.1c7.5,0,13.5,6.4,13.5,14.2c0,7.9-6.1,14.2-13.5,14.2
							c-7.5,0-13.5-6.4-13.5-14.2h-5.2c0,10.9,8.4,19.7,18.7,19.7s18.7-8.8,18.7-19.7S643.5,450.7,633.2,450.6z"/>
						<path class="st4" d="M160.7,337.1L160.7,337.1L160.7,337.1h17.2h23.2l0,0l0,0h8.2h79.4l0.6-1.8
							c18.3-50.4,51.9-110.6,108.3-110.6c44.8,0,86.5,41.3,111.6,110.6l0.6,1.8h74.4h8.2c0,0,0,0,0.1,0l0,0h23.2h17.1h0.1l0,0
							c10.3-0.1,18.6-8.9,18.6-19.7c0-10.9-8.4-19.7-18.7-19.7s-18.7,8.8-18.7,19.7h5.2c0-7.9,6.1-14.2,13.5-14.2
							c7.5,0,13.5,6.4,13.5,14.2c0,7.9-6.1,14.2-13.5,14.2h-17.1h-14.4c0.9-1.6,1.4-3.4,1.4-5.4c0-6-4.6-10.9-10.3-10.9
							s-10.3,4.9-10.3,10.9h5.2c0-3,2.3-5.4,5.1-5.4s5.1,2.4,5.1,5.4s-2.3,5.4-5.1,5.4h-8.2h-70.8
							c-25.9-70.4-69.1-112.3-115.8-112.3c-46.6,0-85.5,38.8-112.5,112.3h-75.8h-8.2c-2.8,0-5.1-2.4-5.1-5.4s2.3-5.4,5.1-5.4
							s5.1,2.4,5.1,5.4h5.2c0-6-4.6-10.9-10.3-10.9s-10.3,4.9-10.3,10.9c0,2,0.5,3.8,1.4,5.4h-14.4h-17.1c-7.5,0-13.5-6.4-13.5-14.2
							c0-7.9,6.1-14.2,13.5-14.2c7.5,0,13.5,6.4,13.5,14.2h5.2c0-10.9-8.4-19.7-18.7-19.7c-10.3,0-18.7,8.8-18.7,19.7
							C142.1,328.3,150.5,337.1,160.7,337.1z"/>
						<path class="st4" d="M141.6,341.3l-1.9-5.1c-22.6,9.2-37.8,32.4-37.8,57.9s15.2,48.8,37.8,57.9l1.9-5.1
							c-20.6-8.4-34.5-29.6-34.5-52.8C107.1,370.8,121,349.6,141.6,341.3z"/>
						<path class="st4" d="M655.8,336.2l-1.9,5.1c20.6,8.4,34.5,29.6,34.5,52.8c0,23.2-13.9,44.5-34.5,52.8l1.9,5.1
							c22.6-9.2,37.8-32.4,37.8-57.9S678.4,345.3,655.8,336.2z"/>
					</g>
					<g>
						<g>
							<path class="st5" d="M323.4,482.1l1.8,1.7c-2.3,2.2-4.8,3.3-7.5,3.3c-3,0-5.4-1.1-7.5-3.2c-2-2.1-3.1-4.7-3.1-7.7
								s1-5.5,3.1-7.7c2-2.2,4.5-3.2,7.5-3.2c2.7,0,5.3,1.1,7.5,3.3l-1.8,1.7c-1.9-1.7-3.8-2.6-5.8-2.6c-2.2,0-4,0.8-5.6,2.5
								s-2.4,3.7-2.4,6.1s0.8,4.4,2.4,6.1s3.4,2.5,5.6,2.5C319.6,484.6,321.6,483.8,323.4,482.1z"/>
							<path class="st5" d="M332.9,477.2v9.5h-2.6v-21.4h2.6v9.5h8.3v-9.5h2.6v21.4h-2.6v-9.5H332.9z"/>
							<path class="st5" d="M366.9,468.3c2,2.2,3.1,4.7,3.1,7.7s-1,5.6-3.1,7.7c-2,2.2-4.5,3.2-7.5,3.2c-2.9,0-5.4-1.1-7.5-3.2
								c-2-2.2-3.1-4.7-3.1-7.7s1-5.5,3.1-7.7c2-2.2,4.5-3.2,7.5-3.2C362.3,465.1,364.8,466.2,366.9,468.3z M359.4,467.4
								c-2.2,0-4,0.8-5.6,2.5s-2.4,3.7-2.4,6.1s0.8,4.5,2.4,6.1s3.5,2.5,5.6,2.5c2.2,0,4-0.8,5.6-2.5s2.4-3.7,2.4-6.1
								s-0.8-4.4-2.4-6.1S361.6,467.4,359.4,467.4z"/>
							<path class="st5" d="M391.1,482.1l1.8,1.7c-2.3,2.2-4.8,3.3-7.5,3.3c-3,0-5.4-1.1-7.5-3.2s-3.1-4.7-3.1-7.7s1-5.5,3.1-7.7
								c2-2.2,4.5-3.2,7.5-3.2c2.7,0,5.3,1.1,7.5,3.3l-1.8,1.7c-1.9-1.7-3.8-2.6-5.8-2.6c-2.2,0-4,0.8-5.6,2.5s-2.4,3.7-2.4,6.1
								s0.8,4.4,2.4,6.1s3.4,2.5,5.6,2.5C387.3,484.6,389.2,483.8,391.1,482.1z"/>
							<path class="st5" d="M415.5,468.3c2,2.2,3.1,4.7,3.1,7.7s-1,5.6-3.1,7.7c-2,2.2-4.5,3.2-7.5,3.2c-2.9,0-5.4-1.1-7.5-3.2
								c-2-2.2-3.1-4.7-3.1-7.7s1-5.5,3.1-7.7c2-2.2,4.5-3.2,7.5-3.2C411,465.1,413.5,466.2,415.5,468.3z M408,467.4
								c-2.2,0-4,0.8-5.6,2.5s-2.4,3.7-2.4,6.1s0.8,4.5,2.4,6.1s3.5,2.5,5.6,2.5c2.2,0,4-0.8,5.6-2.5s2.4-3.7,2.4-6.1
								s-0.8-4.4-2.4-6.1C412.1,468.3,410.2,467.4,408,467.4z"/>
							<path class="st5" d="M424,486.8v-21.4h2.6v19h7.3v2.3H424V486.8z"/>
							<path class="st5" d="M447.1,465.4l7.3,21.4h-2.7l-3.1-8.9h-5.5l-3.1,8.9h-2.7l7.4-21.4H447.1z M447.9,475.6l-1.9-5.7l-2,5.7
								H447.9z"/>
							<path class="st5" d="M464.2,467.7v19h-2.5v-19h-4.9v-2.3H469v2.3H464.2z"/>
							<path class="st5" d="M485,465.4v2.3h-8.5v7.2h8.5v2.3h-8.5v7.2h8.5v2.3h-11v-21.4h11V465.4z"/>
						</g>
					</g>
					<g>
						<path class="st4" d="M355.9,302.1v1.7h-6.4v5.4h6.4v1.7h-6.4v5.4h6.4v1.7h-8.3v-16h8.3V302.1z"/>
						<path class="st4" d="M364.6,309.7c-1.1-0.4-2-0.9-2.6-1.6c-0.7-0.7-1-1.5-1-2.5s0.3-1.8,1-2.5c0.7-0.7,1.5-1.1,2.6-1.1
							c1,0,1.9,0.4,2.6,1.1c0.4,0.4,0.7,0.9,0.9,1.6l-1.7,0.7c-0.2-0.6-0.4-1-0.6-1.2c-0.3-0.4-0.7-0.6-1.2-0.6
							c-0.4,0-0.8,0.2-1.2,0.5c-0.3,0.4-0.5,0.8-0.5,1.4c0,0.5,0.2,1,0.5,1.4c0.4,0.4,0.9,0.7,1.5,1c1.2,0.4,2.2,1.1,3,1.9
							c0.9,1,1.4,2.1,1.4,3.5c0,1.3-0.5,2.5-1.4,3.5s-2.1,1.5-3.4,1.5s-2.5-0.5-3.4-1.5c-0.7-0.8-1.2-1.8-1.4-3l1.8-0.7
							c0.1,1.2,0.4,2,0.9,2.5c0.6,0.6,1.2,0.9,2,0.9s1.5-0.3,2-0.9c0.6-0.6,0.9-1.4,0.9-2.3c0-0.9-0.3-1.7-0.9-2.3
							C366.1,310.5,365.4,310,364.6,309.7z"/>
						<path class="st4" d="M378,303.9v14.2h-1.9v-14.2h-3.6v-1.7h9.2v1.7H378z"/>
						<path class="st4" d="M386.1,315.2c0.4,0.4,0.6,0.8,0.6,1.3s-0.2,0.9-0.6,1.3c-0.4,0.4-0.8,0.6-1.4,0.6s-1-0.2-1.4-0.6
							c-0.4-0.4-0.5-0.8-0.5-1.3s0.2-0.9,0.5-1.3c0.4-0.4,0.8-0.6,1.4-0.6C385.3,314.6,385.7,314.8,386.1,315.2z"/>
						<path class="st4" d="M399.4,316.4v-10.7l-0.9,0.6l-1.3-1l4.1-3.1v14.2h3v1.7h-7.8v-1.7H399.4z"/>
						<path class="st4" d="M415.5,311.2c-0.3,0.4-0.8,0.6-1.6,0.6c-1.2,0-2.2-0.4-3.1-1.3c-0.8-0.9-1.2-1.9-1.2-3.1
							c0-1.2,0.4-2.2,1.2-3.1c0.8-0.9,1.9-1.3,3.1-1.3s2.2,0.4,3.1,1.3c0.8,0.9,1.3,1.9,1.3,3.1c-0.1,1.6-0.5,3.3-1.3,5
							s-1.9,3.7-3.4,6.1h-2.2C413.2,315.5,414.6,313.1,415.5,311.2z M415.6,309.2c0.5-0.5,0.7-1.2,0.7-1.9c0-0.8-0.2-1.4-0.7-1.9
							s-1.1-0.8-1.7-0.8c-0.7,0-1.2,0.3-1.7,0.8s-0.7,1.2-0.7,1.9c0,0.8,0.2,1.4,0.7,1.9s1.1,0.8,1.7,0.8S415.1,309.7,415.6,309.2z"
							/>
						<path class="st4" d="M423.4,318.1c3.8-6.2,5.9-9.5,6.1-10c0.3-0.5,0.4-0.9,0.4-1.3c0-0.2,0-0.4-0.1-0.6
							c-0.1-0.6-0.5-1.1-0.9-1.5c-0.3-0.2-0.7-0.3-1-0.3c-0.2,0-0.3,0-0.5,0.1c-0.6,0.1-1,0.5-1.3,1c-0.2,0.3-0.3,0.8-0.4,1.4
							l-1.8-0.3c0.1-0.8,0.3-1.4,0.6-1.9c0.6-1,1.4-1.6,2.5-1.8c0.3-0.1,0.6-0.1,1-0.1c0.8,0,1.5,0.2,2.1,0.7
							c0.9,0.6,1.5,1.4,1.7,2.5c0.1,0.4,0.1,0.7,0.1,1.1c0,0.6-0.2,1.2-0.5,1.8s-1.9,3.2-4.7,7.7h5.2v1.7h-8.5V318.1z"/>
						<path class="st4" d="M439.8,310c0.3-0.4,0.8-0.6,1.6-0.6c1.2,0,2.3,0.4,3.1,1.3c0.8,0.9,1.2,1.9,1.2,3.1s-0.4,2.2-1.2,3.1
							c-0.8,0.9-1.9,1.3-3.1,1.3s-2.2-0.4-3.1-1.3c-0.8-0.9-1.3-1.9-1.3-3.1c0.1-1.6,0.5-3.3,1.3-5c0.8-1.7,1.9-3.7,3.4-6.1h2.2
							C442.2,305.7,440.8,308.1,439.8,310z M439.7,311.9c-0.5,0.5-0.7,1.2-0.7,1.9c0,0.8,0.2,1.4,0.7,1.9s1.1,0.8,1.7,0.8
							c0.7,0,1.2-0.3,1.7-0.8s0.7-1.2,0.7-1.9c0-0.8-0.2-1.4-0.7-1.9s-1.1-0.8-1.7-0.8C440.8,311.1,440.2,311.4,439.7,311.9z"/>
					</g>
					<g>
						<path class="st4" d="M199.2,406.3c-0.3-0.7-0.5-1-0.7-1s-0.4,0.2-0.6,0.7l-8.4,25c-0.6,1.5-1.4,2.2-2.5,2.2h-3.2
							c-1.1,0-2-0.7-2.8-2l-23.2-70c-0.2-0.6-0.3-1.1-0.3-1.5c0-0.9,0.6-1.4,1.7-1.4H175c1.6,0,2.7,0.8,3.3,2.3l9.9,29.8
							c0.2,0.7,0.4,1.1,0.6,1.1c0.2,0,0.4-0.3,0.6-1l2.5-7.4l-7.2-21.9c-0.2-0.6-0.3-1.1-0.3-1.5c0-0.9,0.6-1.4,1.7-1.4h16.6v0.1
							c1.2,0.2,2,1,2.6,2.2l9.9,29.8c0.2,0.7,0.4,1.1,0.6,1.1c0.2,0,0.4-0.3,0.6-1l10-30.4c0.4-1.2,1.5-1.8,3.2-1.8h7.6
							c1.6,0,2.4,0.7,2.4,2.2c0,0.3,0,0.6-0.1,0.9L216,431c-0.6,1.5-1.4,2.2-2.5,2.2h-3.2c-1.1,0-2-0.7-2.8-2L199.2,406.3z"/>
						<path class="st4" d="M295,360.9v5.1c0,1.7-0.8,2.5-2.4,2.5h-26.3c-1.4,0-2.2,0.7-2.2,2.2v27.1c0,1.7,0.7,2.6,2.2,2.6h4.6
							c1.5,0,2.3,0.7,2.3,2.2v6.3c0,1.2-0.7,1.7-2.2,1.7h-5.1c-1.3,0-1.9,0.8-1.9,2.3v7.2c0,1.7,0.7,2.6,2,2.6h26.7
							c1.4,0,2.2,0.6,2.2,1.8v6.7c0,1.2-0.6,1.7-1.9,1.7h-46.6c-1.3,0-2-0.8-2-2.5V361c0-1.9,0.9-2.9,2.7-2.9h45.1
							C294.1,358.3,295,359.2,295,360.9z"/>
						<path class="st4" d="M326.3,394.1L326.3,394.1c3.6,11.4,5.4,18.1,5.5,20.3v0.6c0,4.4-1.5,8.4-4.6,12.1
							c-3.3,3.9-7.5,6-12.8,6.4c-0.6,0.1-1.3,0.1-1.9,0.1c-5.2,0-9.4-1.6-12.5-4.9c-0.2-0.4-0.4-0.8-0.4-1.2c0-0.6,0.2-1.3,0.7-2
							l2.8-3c0.7-0.9,1.4-1.4,2.2-1.4c0.6,0,1.3,0.3,1.9,0.8c1.6,1,2.9,1.5,3.9,1.5c0.7,0,1.4-0.2,1.9-0.7c0.8-0.7,1.1-1.6,1.1-2.8
							c0-0.7-0.1-1.5-0.4-2.4l-6.7-21.4l0,0c-3.6-11.4-5.4-18.1-5.4-20.3v-0.6c0-4.4,1.6-8.4,4.7-12.1c3.2-3.8,7.5-6,12.8-6.4
							c0.6-0.1,1.3-0.1,1.9-0.1c5.2,0,9.4,1.6,12.5,4.9c0.2,0.4,0.4,0.8,0.4,1.3c0,0.6-0.2,1.3-0.7,2l-2.9,3
							c-0.7,0.9-1.4,1.4-2.2,1.4c-0.6,0-1.3-0.3-1.9-0.8c-1.6-1-2.9-1.5-3.9-1.5c-0.7,0-1.3,0.2-1.8,0.6c-0.8,0.7-1.2,1.6-1.2,2.8
							c0,0.7,0.1,1.5,0.4,2.4L326.3,394.1z"/>
						<path class="st4" d="M374.7,358.3c1.5,0,2.3,0.7,2.3,2.2v6.3c0,1.2-0.7,1.7-2.2,1.7h-6.6v61.3c0,2.1-1,3.1-2.9,3.1h-13.8
							c-1.8,0-2.6-1.1-2.6-3.3v-61.2h-6.6c-1.4,0-2.2-0.6-2.2-1.7v-6.3c0-1.5,0.8-2.2,2.3-2.2L374.7,358.3L374.7,358.3z"/>
						<path class="st4" d="M474.2,360.9v5.1c0,1.7-0.8,2.5-2.4,2.5h-26.3c-1.5,0-2.2,0.7-2.2,2.2v27.1c0,1.7,0.7,2.6,2.2,2.6h4.6
							c1.5,0,2.3,0.7,2.3,2.2v6.3c0,1.2-0.7,1.7-2.2,1.7h-5.1c-1.3,0-1.9,0.8-1.9,2.3v7.2c0,1.7,0.7,2.6,2,2.6H472
							c1.4,0,2.2,0.6,2.2,1.8v6.7c0,1.2-0.6,1.7-1.9,1.7h-46.6c-1.3,0-2-0.8-2-2.5V361c0-1.9,0.9-2.9,2.7-2.9h45.1
							C473.2,358.3,474.2,359.2,474.2,360.9z"/>
						<path class="st4" d="M480.1,395.6c0-0.6,0-1.2,0-1.8c0-3.8,0.6-7.5,1.7-11.1c2.8-9,8.5-15.8,17.2-20.5
							c5.5-2.9,11.4-4.4,17.7-4.4c3.8,0,7.8,0.5,11.9,1.6c8.7,3,15.2,7.8,19.5,14.4c0.5,1,0.8,1.9,0.8,2.6c0,1.1-0.6,1.8-1.7,2.3
							l-2.8,1.9c-0.9,0.4-1.8,0.5-2.5,0.5c-1.2,0-2.1-0.5-2.6-1.5c-4.9-5-9.9-8.5-15.1-10.2c-3.4-0.8-6.3-1.2-8.7-1.2
							c-2.7,0-4.8,0.5-6.3,1.6c-2.4,1.5-3.6,5.4-3.6,11.7v33.9c0,2.6,0.5,4.1,1.6,4.7c2.5,1.8,5.6,2.7,9.4,2.7c2.2,0,4.7-0.3,7.3-1
							c7.6-2.7,12-6,13.1-9.9c0.1-0.1,0.1-0.3,0.1-0.4c0-0.5-0.7-0.7-2-0.7h-10.8c-1.9,0-2.8-0.9-2.8-2.7v-5c0-1.7,0.8-2.6,2.3-2.6
							h27.4c1.6,0,2.4,0.8,2.4,2.4v0.3c-0.1,3.5-2.2,8.4-6.2,14.7s-10.3,10.9-19,13.9c-4.1,1.1-8.1,1.6-11.9,1.6
							c-6.4,0-12.3-1.5-17.7-4.4c-8.7-4.7-14.4-11.5-17.2-20.5c-1.1-3.6-1.7-7.3-1.7-11C480.1,396.7,480.1,396.2,480.1,395.6z"/>
						<path class="st4" d="M561.8,395.6c0-0.6,0-1.2,0-1.8c0-3.8,0.6-7.5,1.7-11.1c2.8-9,8.5-15.8,17.2-20.5
							c5.5-2.9,11.4-4.4,17.7-4.4c3.8,0,7.8,0.5,11.9,1.6c8.7,3,15.2,7.8,19.5,14.4c0.5,1,0.8,1.9,0.8,2.6c0,1.1-0.6,1.8-1.7,2.3
							l-2.8,1.9c-0.9,0.4-1.8,0.5-2.5,0.5c-1.2,0-2.1-0.5-2.6-1.5c-4.9-5-9.9-8.5-15.1-10.2c-3.4-0.8-6.3-1.2-8.7-1.2
							c-2.7,0-4.8,0.5-6.3,1.6c-2.4,1.5-3.6,5.4-3.6,11.7v33.9c0,2.6,0.5,4.1,1.6,4.7c2.5,1.8,5.6,2.7,9.4,2.7c2.2,0,4.7-0.3,7.3-1
							c7.6-2.7,12-6,13.1-9.9c0.1-0.1,0.1-0.3,0.1-0.4c0-0.5-0.7-0.7-2-0.7H606c-1.9,0-2.8-0.9-2.8-2.7v-5c0-1.7,0.8-2.6,2.3-2.6
							h27.4c1.6,0,2.4,0.8,2.4,2.4v0.3c-0.1,3.5-2.2,8.4-6.2,14.7s-10.3,10.9-19,13.9c-4.1,1.1-8.1,1.6-11.9,1.6
							c-6.4,0-12.3-1.5-17.7-4.4c-8.7-4.7-14.4-11.5-17.2-20.5c-1.1-3.6-1.7-7.3-1.7-11C561.7,396.7,561.8,396.2,561.8,395.6z"/>
					</g>
				</g>
			</g>
		</g>
	</g>
</g>
</svg>
