<?xml version="1.0" encoding="utf-8"?>
<!-- Generator: Adobe Illustrator 19.0.1, SVG Export Plug-In . SVG Version: 6.00 Build 0)  -->
<svg version="1.1" xmlns="http://www.w3.org/2000/svg" xmlns:xlink="http://www.w3.org/1999/xlink" x="0px" y="0px"
	 viewBox="0 0 564.9 325.9" style="enable-background:new 0 0 564.9 325.9;" xml:space="preserve">
<style type="text/css">
	.st0{fill:#98B1D6;}
	.st1{fill:#FFFFFF;}
	.st2{fill:#3399CC;}
	.st3{fill:#7C9FCD;}
	.st4{fill:#F26D6E;}
	.st5{fill:#C47A4A;}
	.st6{fill:#6D245D;}
	.st7{fill:#E3E7F4;}
	.st8{fill:#0070AF;}
	.st9{fill:#0070AF;stroke:#0070AF;stroke-width:0.8058;stroke-miterlimit:10;}
	.st10{fill:#0070AF;stroke:#0070AF;stroke-miterlimit:10;}
	.st11{clip-path:url(#SVGID_2_);fill:#6D245D;}
	.st12{clip-path:url(#SVGID_2_);}
	.st13{fill:#590048;}
	.st14{clip-path:url(#SVGID_4_);}
	.st15{fill:#A05620;}
	.st16{fill:#E99182;}
	.st17{fill:#F6DEDA;}
	.st18{fill:#DE3554;}
	.st19{fill:#FEE4CD;}
	.st20{fill:#7B2E00;}
	.st21{fill:#E3CFE2;}
	.st22{clip-path:url(#SVGID_6_);}
	.st23{clip-path:url(#SVGID_8_);fill:#6D245D;}
	.st24{clip-path:url(#SVGID_8_);}
	.st25{clip-path:url(#SVGID_10_);}
	.st26{clip-path:url(#SVGID_12_);}
	.st27{clip-path:url(#SVGID_14_);}
	.st28{clip-path:url(#SVGID_16_);}
	.st29{fill:#0070AF;stroke:#0070AF;stroke-width:0.8661;stroke-miterlimit:10;}
	.st30{clip-path:url(#SVGID_18_);}
	.st31{clip-path:url(#SVGID_20_);fill:#6D245D;}
	.st32{clip-path:url(#SVGID_20_);}
	.st33{clip-path:url(#SVGID_22_);}
	.st34{clip-path:url(#SVGID_24_);}
	.st35{clip-path:url(#SVGID_26_);}
	.st36{clip-path:url(#SVGID_28_);}
	.st37{fill:#0070AF;stroke:#0070AF;stroke-width:0.8884;stroke-miterlimit:10;}
</style>
<g id="Layer_1">
</g>
<g id="Layer_2">
	<g>
		<path class="st7" d="M564.9,161.5c0-26.1-16.3-49.1-40-58.1c1.2-3,1.9-6.2,1.9-9.5c0-13.6-11.1-24.7-24.7-24.7
			c-12.7,0-23.2,9.7-24.6,22c-3.1-3.8-7.8-6.2-13.1-6.2c-8.4,0-15.4,6.2-16.6,14.3h-52c-7-16.4-18.2-38.4-34-57.2
			c-18.9-22.6-40.5-36.3-64.2-40.6c-4.2-0.9-8.8-1.4-13.6-1.5l-0.1,0c-0.4,0-0.8,0-1.1,0l-0.3,0l-0.3,0c-0.4,0-0.8,0-1.1,0l-0.1,0
			c-4.9,0.1-9.5,0.6-13.7,1.5c-50,9.3-77.2,59.1-93.4,97.8H117c-1.2-8.1-8.2-14.3-16.6-14.3c-5.2,0-9.9,2.4-13,6.2
			C86,78.8,75.5,69.2,62.9,69.2c-13.6,0-24.7,11.1-24.7,24.7c0,3.3,0.6,6.5,1.9,9.5c-23.7,9-40,32-40,58.1c0,26.2,16.3,49.1,40,58.2
			c-1.2,3-1.9,6.2-1.9,9.5c0,13.6,11.1,24.7,24.7,24.7c12.7,0,23.2-9.6,24.6-21.9c3.1,3.8,7.8,6.2,13,6.2c8.4,0,15.4-6.2,16.6-14.4
			h46c3.2,36.8,32.9,71,53.6,83.4c28.2,16.9,55.4,18.7,65.9,18.7c29.7,0,56.3-8.7,79.2-25.9c25.8-19.4,42.9-48.1,45.9-76.2h40.3
			c1.2,8.1,8.2,14.4,16.6,14.4c5.3,0,10-2.4,13.1-6.2c1.3,12.4,11.8,22,24.6,22c13.6,0,24.7-11.1,24.7-24.7c0-3.3-0.7-6.6-1.9-9.5
			C548.6,210.6,564.9,187.7,564.9,161.5z"/>
		<g>
			<path class="st8" d="M501.5,211.7L501.5,211.7L501.5,211.7l-16,0h-21.6h0h-7.6l-60.7,0v2.4c0,22.8-11.5,47.7-30.7,66.6
				c-21.7,21.4-50.9,33.1-82.3,33.1c-31.1,0-59.6-11.7-80.1-33.1c-17.9-18.6-28.6-43.6-28.6-66.7v-2.4l-66.5,0h-7.6c0,0,0,0,0,0v0
				H77.9H62h-0.1v0c-9.6,0.1-17.3,7.8-17.3,17.4c0,9.6,7.8,17.4,17.4,17.4c9.6,0,17.4-7.8,17.4-17.4h-4.8c0,6.9-5.7,12.6-12.6,12.6
				c-6.9,0-12.6-5.7-12.6-12.6c0-6.9,5.7-12.6,12.6-12.6h15.9h13.4c-0.8,1.4-1.3,3-1.3,4.8c0,5.3,4.3,9.6,9.6,9.6
				c5.3,0,9.6-4.3,9.6-9.6h-4.8c0,2.6-2.1,4.8-4.8,4.8c-2.6,0-4.8-2.1-4.8-4.8c0-2.6,2.1-4.8,4.8-4.8h7.6l61.7,0
				c0.7,23.6,11.8,48.7,30,67.6c21.4,22.3,51.1,34.5,83.6,34.6l0,0h0l0,0c32.6,0,63.1-12.3,85.7-34.5c19.5-19.2,31.4-44.3,32.2-67.7
				l55.9,0h7.6c2.6,0,4.8,2.1,4.8,4.8c0,2.6-2.1,4.8-4.8,4.8c-2.6,0-4.8-2.1-4.8-4.8h-4.8c0,5.3,4.3,9.6,9.6,9.6
				c5.3,0,9.6-4.3,9.6-9.6c0-1.7-0.5-3.4-1.3-4.8h13.4h15.9c6.9,0,12.6,5.7,12.6,12.6c0,6.9-5.7,12.6-12.6,12.6
				c-6.9,0-12.6-5.7-12.6-12.6h-4.8c0,9.6,7.8,17.4,17.4,17.4c9.6,0,17.4-7.8,17.4-17.4C518.8,219.6,511,211.8,501.5,211.7z"/>
			<path class="st8" d="M61.9,111.4L61.9,111.4L61.9,111.4l16,0h21.6v0c0,0,0,0,0,0h7.6h73.9l0.6-1.6c17-44.6,48.3-97.8,100.8-97.8
				c41.7,0,80.5,36.5,103.8,97.8l0.6,1.6H456h7.6c0,0,0,0,0,0v0h21.6h15.9h0.1v0c9.6-0.1,17.3-7.8,17.3-17.4
				c0-9.6-7.8-17.4-17.4-17.4c-9.6,0-17.4,7.8-17.4,17.4h4.8c0-6.9,5.7-12.6,12.6-12.6c6.9,0,12.6,5.7,12.6,12.6
				c0,6.9-5.7,12.6-12.6,12.6h-15.9h-13.4c0.8-1.4,1.3-3,1.3-4.8c0-5.3-4.3-9.6-9.6-9.6s-9.6,4.3-9.6,9.6h4.8c0-2.6,2.1-4.8,4.8-4.8
				s4.8,2.1,4.8,4.8c0,2.6-2.1,4.8-4.8,4.8H456h-65.9C366,44.3,325.8,7.2,282.4,7.2c-43.4,0-79.6,34.3-104.7,99.3h-70.5h-7.6
				c-2.6,0-4.8-2.1-4.8-4.8c0-2.6,2.1-4.8,4.8-4.8s4.8,2.1,4.8,4.8h4.8c0-5.3-4.3-9.6-9.6-9.6s-9.6,4.3-9.6,9.6
				c0,1.7,0.5,3.4,1.3,4.8H77.9H62c-6.9,0-12.6-5.7-12.6-12.6c0-6.9,5.7-12.6,12.6-12.6c6.9,0,12.6,5.7,12.6,12.6h4.8
				c0-9.6-7.8-17.4-17.4-17.4c-9.6,0-17.4,7.8-17.4,17.4C44.6,103.5,52.4,111.3,61.9,111.4z"/>
			<path class="st8" d="M44.1,115l-1.7-4.5c-21,8.1-35.2,28.7-35.2,51.2c0,22.5,14.1,43.1,35.2,51.2l1.7-4.5
				C24.9,201,12,182.3,12,161.7C12,141.2,24.9,122.4,44.1,115z"/>
			<path class="st8" d="M522.5,110.5l-1.7,4.5c19.2,7.4,32.1,26.2,32.1,46.7c0,20.6-12.9,39.3-32.1,46.7l1.7,4.5
				c21-8.1,35.2-28.7,35.2-51.2C557.7,139.2,543.6,118.6,522.5,110.5z"/>
		</g>
		<g>
			<g>
				<path class="st9" d="M213.3,239.5l1.7,1.5c-2.1,1.9-4.5,2.9-7,2.9c-2.7,0-5.1-0.9-7-2.8c-1.9-1.9-2.8-4.2-2.8-6.8
					c0-2.6,0.9-4.9,2.8-6.8c1.9-1.9,4.2-2.9,7-2.9c2.6,0,4.9,1,7,2.9l-1.7,1.5c-1.7-1.5-3.5-2.3-5.4-2.3c-2,0-3.8,0.7-5.2,2.2
					c-1.5,1.5-2.2,3.3-2.2,5.4c0,2.1,0.7,3.9,2.2,5.4c1.5,1.5,3.2,2.2,5.2,2.2C209.8,241.8,211.6,241,213.3,239.5z"/>
				<path class="st9" d="M222.1,235.3v8.4h-2.4v-18.9h2.4v8.4h7.8v-8.4h2.4v18.9h-2.4v-8.4H222.1z"/>
				<path class="st9" d="M253.7,227.4c1.9,1.9,2.9,4.2,2.9,6.8c0,2.7-1,4.9-2.9,6.8c-1.9,1.9-4.2,2.9-7,2.9c-2.7,0-5.1-1-7-2.9
					c-1.9-1.9-2.9-4.2-2.9-6.8c0-2.6,1-4.9,2.9-6.8c1.9-1.9,4.2-2.9,7-2.9C249.5,224.5,251.8,225.5,253.7,227.4z M246.7,226.6
					c-2,0-3.8,0.7-5.2,2.2c-1.5,1.5-2.2,3.3-2.2,5.4c0,2.1,0.7,3.9,2.2,5.4c1.5,1.5,3.2,2.2,5.2,2.2c2,0,3.8-0.7,5.2-2.2
					c1.5-1.5,2.2-3.3,2.2-5.4c0-2.1-0.7-3.9-2.2-5.4C250.5,227.3,248.8,226.6,246.7,226.6z"/>
				<path class="st9" d="M276.2,239.5l1.7,1.5c-2.1,1.9-4.5,2.9-7,2.9c-2.7,0-5.1-0.9-7-2.8c-1.9-1.9-2.8-4.2-2.8-6.8
					c0-2.6,0.9-4.9,2.8-6.8s4.2-2.9,7-2.9c2.6,0,4.9,1,7,2.9l-1.7,1.5c-1.7-1.5-3.5-2.3-5.4-2.3c-2,0-3.8,0.7-5.2,2.2
					c-1.5,1.5-2.2,3.3-2.2,5.4c0,2.1,0.7,3.9,2.2,5.4s3.2,2.2,5.2,2.2C272.7,241.8,274.5,241,276.2,239.5z"/>
				<path class="st9" d="M299,227.4c1.9,1.9,2.9,4.2,2.9,6.8c0,2.7-1,4.9-2.9,6.8c-1.9,1.9-4.2,2.9-7,2.9c-2.7,0-5.1-1-7-2.9
					c-1.9-1.9-2.9-4.2-2.9-6.8c0-2.6,1-4.9,2.9-6.8c1.9-1.9,4.2-2.9,7-2.9C294.8,224.5,297.1,225.5,299,227.4z M292,226.6
					c-2,0-3.8,0.7-5.2,2.2c-1.5,1.5-2.2,3.3-2.2,5.4c0,2.1,0.7,3.9,2.2,5.4c1.5,1.5,3.2,2.2,5.2,2.2c2,0,3.8-0.7,5.2-2.2
					c1.5-1.5,2.2-3.3,2.2-5.4c0-2.1-0.7-3.9-2.2-5.4C295.8,227.3,294,226.6,292,226.6z"/>
				<path class="st9" d="M306.8,243.7v-18.9h2.4v16.8h6.8v2.1H306.8z"/>
				<path class="st9" d="M328.3,224.8l6.8,18.9h-2.5l-2.8-7.8h-5.1l-2.9,7.8h-2.5l6.9-18.9H328.3z M329.1,233.8l-1.8-5l-1.8,5H329.1
					z"/>
				<path class="st9" d="M344.2,226.8v16.8h-2.4v-16.8h-4.5v-2.1h11.4v2.1H344.2z"/>
				<path class="st9" d="M363.6,224.8v2.1h-7.9v6.4h7.9v2.1h-7.9v6.4h7.9v2.1h-10.3v-18.9H363.6z"/>
			</g>
		</g>
		<g>
			<path class="st8" d="M243.5,80.4v1.5h-5.9v4.8h5.9v1.5h-5.9V93h5.9v1.5h-7.7V80.4H243.5z"/>
			<path class="st8" d="M251.6,87.1c-1-0.3-1.8-0.8-2.4-1.4c-0.6-0.6-0.9-1.4-0.9-2.2c0-0.9,0.3-1.6,1-2.2s1.4-1,2.4-1
				c0.9,0,1.7,0.3,2.4,1c0.3,0.3,0.6,0.8,0.8,1.4l-1.6,0.6c-0.2-0.5-0.4-0.9-0.5-1c-0.3-0.3-0.7-0.5-1.1-0.5c-0.4,0-0.8,0.2-1.1,0.5
				c-0.3,0.3-0.5,0.7-0.5,1.2c0,0.5,0.2,0.9,0.5,1.2c0.3,0.3,0.8,0.6,1.4,0.9c1.1,0.4,2.1,0.9,2.8,1.7c0.9,0.9,1.3,1.9,1.3,3.1
				c0,1.2-0.4,2.2-1.3,3.1s-1.9,1.3-3.2,1.3c-1.3,0-2.3-0.4-3.2-1.3c-0.7-0.7-1.1-1.5-1.3-2.6l1.7-0.6c0.1,1,0.4,1.8,0.9,2.2
				c0.5,0.5,1.1,0.8,1.9,0.8c0.7,0,1.4-0.3,1.9-0.8c0.5-0.5,0.8-1.2,0.8-2s-0.3-1.5-0.8-2C253,87.8,252.3,87.4,251.6,87.1z"/>
			<path class="st8" d="M264,81.9v12.6h-1.8V81.9h-3.4v-1.5h8.5v1.5H264z"/>
			<path class="st8" d="M271.6,91.9c0.3,0.3,0.5,0.7,0.5,1.1c0,0.4-0.2,0.8-0.5,1.1c-0.3,0.3-0.8,0.5-1.3,0.5c-0.5,0-1-0.2-1.3-0.5
				c-0.3-0.3-0.5-0.7-0.5-1.1c0-0.4,0.2-0.8,0.5-1.1c0.3-0.3,0.8-0.5,1.3-0.5C270.8,91.4,271.2,91.6,271.6,91.9z"/>
			<path class="st8" d="M284,93.1v-9.4l-0.8,0.6l-1.2-0.9l3.8-2.8v12.5h2.8v1.5h-7.3v-1.5H284z"/>
			<path class="st8" d="M299,88.4c-0.3,0.3-0.8,0.5-1.5,0.5c-1.1,0-2.1-0.4-2.9-1.2c-0.8-0.8-1.2-1.7-1.2-2.8c0-1.1,0.4-2,1.2-2.8
				c0.8-0.8,1.7-1.2,2.9-1.2s2.1,0.4,2.9,1.2c0.8,0.8,1.2,1.7,1.2,2.8c-0.1,1.4-0.5,2.9-1.2,4.4s-1.8,3.3-3.2,5.4h-2
				C296.8,92.2,298.1,90.1,299,88.4z M299.1,86.7c0.5-0.5,0.7-1,0.7-1.7c0-0.7-0.2-1.3-0.7-1.7c-0.5-0.5-1-0.7-1.6-0.7
				c-0.6,0-1.1,0.2-1.6,0.7c-0.5,0.5-0.7,1-0.7,1.7c0,0.7,0.2,1.3,0.7,1.7c0.5,0.5,1,0.7,1.6,0.7C298.1,87.4,298.6,87.1,299.1,86.7z
				"/>
			<path class="st8" d="M306.3,94.5c3.6-5.4,5.5-8.4,5.7-8.8c0.2-0.4,0.4-0.8,0.4-1.2c0-0.2,0-0.4-0.1-0.6c-0.1-0.6-0.4-1-0.9-1.3
				c-0.3-0.2-0.6-0.3-1-0.3c-0.2,0-0.3,0-0.4,0c-0.5,0.1-0.9,0.4-1.2,0.9c-0.2,0.3-0.3,0.7-0.4,1.2l-1.7-0.3
				c0.1-0.7,0.2-1.2,0.5-1.7c0.6-0.9,1.3-1.4,2.3-1.6c0.3-0.1,0.6-0.1,0.9-0.1c0.7,0,1.4,0.2,2,0.6c0.8,0.5,1.4,1.3,1.6,2.2
				c0.1,0.3,0.1,0.7,0.1,1c0,0.5-0.2,1.1-0.5,1.6c-0.3,0.5-1.8,2.8-4.4,6.8h4.8v1.5H306.3z"/>
			<path class="st8" d="M321.6,87.3c0.3-0.3,0.8-0.5,1.5-0.5c1.1,0,2.1,0.4,2.9,1.2c0.8,0.8,1.2,1.7,1.2,2.8c0,1.1-0.4,2-1.2,2.8
				c-0.8,0.8-1.7,1.2-2.9,1.2c-1.1,0-2.1-0.4-2.9-1.2c-0.8-0.8-1.2-1.7-1.2-2.8c0.1-1.4,0.5-2.9,1.2-4.4c0.7-1.5,1.8-3.3,3.2-5.4
				h2.1C323.8,83.5,322.5,85.6,321.6,87.3z M321.5,89.1c-0.5,0.5-0.7,1-0.7,1.7s0.2,1.3,0.7,1.7c0.5,0.5,1,0.7,1.6,0.7
				c0.6,0,1.1-0.2,1.6-0.7c0.5-0.5,0.7-1,0.7-1.7s-0.2-1.3-0.7-1.7c-0.5-0.5-1-0.7-1.6-0.7C322.5,88.4,321.9,88.6,321.5,89.1z"/>
		</g>
		<g>
			<path class="st8" d="M97.7,172.5c-0.2-0.6-0.5-0.9-0.7-0.9c-0.2,0-0.4,0.2-0.5,0.6l-7.8,22.1c-0.5,1.3-1.3,1.9-2.4,1.9h-3
				c-1,0-1.9-0.6-2.6-1.8l-21.6-61.9c-0.2-0.5-0.3-0.9-0.3-1.3c0-0.8,0.5-1.3,1.6-1.3h14.7c1.5,0,2.5,0.7,3.1,2.1l9.2,26.3
				c0.2,0.6,0.4,1,0.6,1c0.2,0,0.4-0.3,0.5-0.9l2.3-6.5l-6.7-19.3c-0.2-0.5-0.3-0.9-0.3-1.3c0-0.8,0.5-1.3,1.6-1.3h15.4v0.1
				c1.1,0.2,1.9,0.9,2.4,2l9.2,26.3c0.2,0.6,0.4,1,0.6,1c0.2,0,0.4-0.3,0.5-0.9l9.3-26.8c0.4-1.1,1.4-1.6,3-1.6h7.1
				c1.5,0,2.2,0.6,2.2,1.9c0,0.2,0,0.5-0.1,0.8l-21.7,61.6c-0.5,1.3-1.3,1.9-2.4,1.9h-3c-1,0-1.9-0.6-2.6-1.8L97.7,172.5z"/>
			<path class="st8" d="M186.9,132.4v4.5c0,1.5-0.7,2.2-2.2,2.2h-24.5c-1.3,0-2,0.6-2,1.9V165c0,1.5,0.7,2.3,2.1,2.3h4.3
				c1.4,0,2.1,0.7,2.1,1.9v5.6c0,1-0.7,1.5-2,1.5h-4.7c-1.2,0-1.8,0.7-1.8,2.1v6.4c0,1.5,0.6,2.3,1.9,2.3h24.8c1.3,0,2,0.5,2,1.6
				v5.9c0,1-0.6,1.5-1.8,1.5h-43.4c-1.2,0-1.8-0.7-1.8-2.2v-61.4c0-1.7,0.8-2.5,2.5-2.5h41.9C186,130.1,186.9,130.8,186.9,132.4z"/>
			<path class="st8" d="M215.9,161.7L215.9,161.7c3.4,10.1,5.1,16,5.1,18v0.6c0,3.9-1.4,7.4-4.3,10.7c-3,3.4-7,5.3-11.9,5.7
				c-0.6,0-1.2,0.1-1.7,0.1c-4.8,0-8.7-1.4-11.7-4.3c-0.2-0.3-0.3-0.7-0.3-1.1c0-0.5,0.2-1.1,0.7-1.8l2.6-2.6c0.6-0.8,1.3-1.3,2-1.3
				c0.6,0,1.2,0.2,1.8,0.7c1.4,0.9,2.7,1.3,3.6,1.3c0.7,0,1.3-0.2,1.7-0.6c0.7-0.6,1.1-1.4,1.1-2.5c0-0.6-0.1-1.3-0.4-2.1l-6.2-18.9
				H198c-3.3-10.1-5-16-5-18V145c0-3.9,1.4-7.4,4.3-10.7c3-3.4,7-5.3,11.9-5.7c0.6,0,1.2-0.1,1.7-0.1c4.8,0,8.7,1.4,11.7,4.3
				c0.2,0.3,0.3,0.7,0.3,1.1c0,0.5-0.2,1.1-0.6,1.7l-2.7,2.6c-0.6,0.8-1.3,1.3-2,1.3c-0.6,0-1.2-0.2-1.8-0.7
				c-1.4-0.9-2.7-1.3-3.6-1.3c-0.7,0-1.2,0.2-1.7,0.6c-0.7,0.6-1.1,1.4-1.1,2.5c0,0.6,0.1,1.3,0.4,2.1L215.9,161.7z"/>
			<path class="st8" d="M261,130.1c1.4,0,2.1,0.6,2.1,1.9v5.6c0,1-0.7,1.5-2,1.5H255v54.2c0,1.8-0.9,2.8-2.7,2.8h-12.8
				c-1.6,0-2.5-1-2.5-2.9v-54.1h-6.2c-1.3,0-2-0.5-2-1.5V132c0-1.3,0.7-1.9,2.1-1.9H261z"/>
			<path class="st8" d="M353.5,132.4v4.5c0,1.5-0.7,2.2-2.2,2.2h-24.5c-1.3,0-2,0.6-2,1.9V165c0,1.5,0.7,2.3,2.1,2.3h4.3
				c1.4,0,2.1,0.7,2.1,1.9v5.6c0,1-0.7,1.5-2,1.5h-4.7c-1.2,0-1.8,0.7-1.8,2.1v6.4c0,1.5,0.6,2.3,1.9,2.3h24.8c1.3,0,2,0.5,2,1.6
				v5.9c0,1-0.6,1.5-1.8,1.5h-43.4c-1.2,0-1.8-0.7-1.8-2.2v-61.4c0-1.7,0.8-2.5,2.5-2.5H351C352.7,130.1,353.5,130.8,353.5,132.4z"
				/>
			<path class="st8" d="M359.1,163.1c0-0.5,0-1.1,0-1.6c0-3.3,0.5-6.6,1.5-9.8c2.6-7.9,7.9-14,16-18.2c5.1-2.6,10.6-3.9,16.5-3.9
				c3.6,0,7.3,0.5,11.1,1.4c8.1,2.7,14.1,6.9,18.2,12.8c0.5,0.9,0.7,1.6,0.7,2.3c0,1-0.5,1.6-1.6,2l-2.6,1.7
				c-0.9,0.3-1.7,0.5-2.3,0.5c-1.1,0-1.9-0.5-2.4-1.4c-4.6-4.5-9.3-7.5-14.1-9c-3.1-0.7-5.8-1.1-8.1-1.1c-2.6,0-4.5,0.5-5.8,1.4
				c-2.2,1.3-3.3,4.7-3.3,10.3v30c0,2.3,0.5,3.7,1.5,4.2c2.3,1.6,5.2,2.4,8.8,2.4c2.1,0,4.3-0.3,6.8-0.8c7.1-2.4,11.2-5.3,12.2-8.8
				c0.1-0.1,0.1-0.2,0.1-0.4c0-0.4-0.6-0.7-1.8-0.7h-10c-1.7,0-2.6-0.8-2.6-2.4v-4.4c0-1.5,0.7-2.3,2.1-2.3h25.5
				c1.5,0,2.2,0.7,2.2,2.1v0.3c-0.1,3.1-2,7.4-5.8,13c-3.7,5.5-9.6,9.6-17.7,12.3c-3.8,0.9-7.5,1.4-11.1,1.4
				c-5.9,0-11.4-1.3-16.5-3.9c-8.1-4.1-13.4-10.2-16-18.2c-1-3.2-1.5-6.4-1.5-9.7C359,164,359.1,163.6,359.1,163.1z"/>
			<path class="st8" d="M435,163.1c0-0.5,0-1.1,0-1.6c0-3.3,0.5-6.6,1.5-9.8c2.6-7.9,7.9-14,16-18.2c5.1-2.6,10.6-3.9,16.5-3.9
				c3.6,0,7.3,0.5,11.1,1.4c8.1,2.7,14.1,6.9,18.2,12.8c0.5,0.9,0.7,1.6,0.7,2.3c0,1-0.5,1.6-1.6,2l-2.6,1.7
				c-0.9,0.3-1.7,0.5-2.3,0.5c-1.1,0-1.9-0.5-2.4-1.4c-4.6-4.5-9.3-7.5-14.1-9c-3.1-0.7-5.8-1.1-8.1-1.1c-2.6,0-4.5,0.5-5.8,1.4
				c-2.2,1.3-3.3,4.7-3.3,10.3v30c0,2.3,0.5,3.7,1.5,4.2c2.3,1.6,5.2,2.4,8.8,2.4c2.1,0,4.3-0.3,6.8-0.8c7.1-2.4,11.2-5.3,12.2-8.8
				c0.1-0.1,0.1-0.2,0.1-0.4c0-0.4-0.6-0.7-1.8-0.7h-10c-1.7,0-2.6-0.8-2.6-2.4v-4.4c0-1.5,0.7-2.3,2.1-2.3h25.5
				c1.5,0,2.2,0.7,2.2,2.1v0.3c-0.1,3.1-2,7.4-5.8,13c-3.7,5.5-9.6,9.6-17.7,12.3c-3.8,0.9-7.5,1.4-11.1,1.4
				c-5.9,0-11.4-1.3-16.5-3.9c-8.1-4.1-13.4-10.2-16-18.2c-1-3.2-1.5-6.4-1.5-9.7C435,164,435,163.6,435,163.1z"/>
		</g>
	</g>
</g>
</svg>
