<?xml version="1.0" encoding="utf-8"?>
<!-- Generator: Adobe Illustrator 19.0.1, SVG Export Plug-In . SVG Version: 6.00 Build 0)  -->
<svg version="1.1" xmlns="http://www.w3.org/2000/svg" xmlns:xlink="http://www.w3.org/1999/xlink" x="0px" y="0px"
	 viewBox="0 0 712.9 240" style="enable-background:new 0 0 712.9 240;" xml:space="preserve">
<style type="text/css">
	.st0{fill:#98B1D6;}
	.st1{fill:#FFFFFF;}
	.st2{fill:#3399CC;}
	.st3{fill:#7C9FCD;}
	.st4{fill:#F26D6E;}
	.st5{fill:#C47A4A;}
	.st6{fill:#6D245D;}
	.st7{fill:#E3E7F4;}
	.st8{fill:#0070AF;}
	.st9{fill:#0070AF;stroke:#0070AF;stroke-width:0.8058;stroke-miterlimit:10;}
	.st10{fill:#0070AF;stroke:#0070AF;stroke-miterlimit:10;}
	.st11{clip-path:url(#SVGID_2_);fill:#6D245D;}
	.st12{clip-path:url(#SVGID_2_);}
	.st13{fill:#590048;}
	.st14{clip-path:url(#SVGID_4_);}
	.st15{fill:#A05620;}
	.st16{fill:#E99182;}
	.st17{fill:#F6DEDA;}
	.st18{fill:#DE3554;}
	.st19{fill:#FEE4CD;}
	.st20{fill:#7B2E00;}
	.st21{fill:#E3CFE2;}
	.st22{clip-path:url(#SVGID_6_);}
	.st23{clip-path:url(#SVGID_8_);fill:#6D245D;}
	.st24{clip-path:url(#SVGID_8_);}
	.st25{clip-path:url(#SVGID_10_);}
	.st26{clip-path:url(#SVGID_12_);}
	.st27{clip-path:url(#SVGID_14_);}
	.st28{clip-path:url(#SVGID_16_);}
	.st29{fill:#0070AF;stroke:#0070AF;stroke-width:0.8661;stroke-miterlimit:10;}
	.st30{clip-path:url(#SVGID_18_);}
	.st31{clip-path:url(#SVGID_20_);fill:#6D245D;}
	.st32{clip-path:url(#SVGID_20_);}
	.st33{clip-path:url(#SVGID_22_);}
	.st34{clip-path:url(#SVGID_24_);}
	.st35{clip-path:url(#SVGID_26_);}
	.st36{clip-path:url(#SVGID_28_);}
	.st37{fill:#0070AF;stroke:#0070AF;stroke-width:0.8884;stroke-miterlimit:10;}
</style>
<g id="Layer_1">
</g>
<g id="Layer_2">
	<g>
		<g>
			<g>
				<path class="st1" d="M6.1,15.4h2.1c0.3,0,0.5,0.2,0.5,0.5v1.5c0,0.3-0.1,0.4-0.4,0.4H1.7c-0.4,0-0.5-0.2-0.5-0.6v-16
					c0-0.4,0.2-0.7,0.7-0.7h3.2c0.5,0,0.7,0.2,0.7,0.7V15C5.9,15.3,5.9,15.4,6.1,15.4z"/>
				<path class="st1" d="M22.3,1.2v1.2c0,0.4-0.2,0.6-0.6,0.6h-6.4c-0.4,0-0.5,0.2-0.5,0.5v6.2c0,0.4,0.2,0.6,0.5,0.6h1.1
					c0.4,0,0.6,0.2,0.6,0.5v1.5c0,0.3-0.2,0.4-0.5,0.4h-1.2c-0.3,0-0.5,0.2-0.5,0.5v1.7c0,0.4,0.2,0.6,0.5,0.6h6.5
					c0.3,0,0.5,0.1,0.5,0.4v1.5c0,0.3-0.2,0.4-0.5,0.4H10.6c-0.3,0-0.5-0.2-0.5-0.6v-16c0-0.4,0.2-0.7,0.7-0.7h10.9
					C22.1,0.6,22.3,0.8,22.3,1.2z"/>
				<path class="st1" d="M29.3,0.9l5.4,6.3c0.1,0.1,0.1,0.1,0.2,0.1c0.1,0,0.1,0,0.2-0.1l4.4-6.2c0.3-0.3,0.6-0.5,0.9-0.5h0.7
					c0.5,0,0.7,0.2,0.7,0.6v16.2c0,0.3-0.2,0.5-0.6,0.5h-1.8c-0.4,0-0.6-0.2-0.6-0.5V5.9c0-0.1,0-0.2-0.1-0.2c0,0-0.1,0-0.1,0.1
					L34,12.3c-0.1,0.1-0.1,0.1-0.2,0.1c-0.1,0-0.2,0-0.2-0.1l-4.9-5.5c-0.1,0-0.1-0.1-0.1-0.1c-0.1,0-0.1,0.1-0.1,0.2v10.5
					c0,0.2-0.2,0.4-0.7,0.4h-3.5c-0.4,0-0.6-0.3-0.6-0.8V1.3c0-0.4,0.2-0.7,0.7-0.7h4.2C28.8,0.6,29.1,0.7,29.3,0.9z"/>
				<path class="st1" d="M62.7,9.1c0,2.5-0.9,4.6-2.7,6.4s-4.1,2.7-6.7,2.7c-2.7,0-4.9-0.9-6.7-2.7c-1.8-1.8-2.7-4-2.7-6.4
					c0-2.5,0.9-4.6,2.7-6.4C48.3,0.9,50.6,0,53.2,0c2.7,0,4.9,0.9,6.7,2.7C61.8,4.5,62.7,6.7,62.7,9.1z M50.6,15.2
					c0.5,0.5,1.4,0.7,2.6,0.7c1.7,0,3.2-0.6,4.5-1.9c1.3-1.3,1.9-2.9,1.9-4.8c0-1.9-0.6-3.5-1.9-4.8c-1.3-1.3-2.8-1.9-4.5-1.9
					c-1.2,0-1.9,0.2-2.3,0.6c-0.5,0.2-0.8,0.9-0.8,2v8.5C50.1,14.4,50.3,15,50.6,15.2z"/>
				<path class="st1" d="M69.6,1.1l5,8.9c0.1,0.1,0.1,0.2,0.2,0.2c0.1,0,0.1-0.1,0.1-0.2V1.1c0-0.4,0.3-0.5,0.8-0.5h1.5
					c0.5,0,0.7,0.2,0.7,0.6v16c0,0.4-0.2,0.7-0.5,0.7h-1c-0.3,0-0.6-0.2-0.9-0.6l-5.7-9.8c-0.1-0.2-0.2-0.3-0.2-0.3
					c0,0-0.1,0.1-0.1,0.3v9.6c0,0.5-0.2,0.7-0.7,0.7h-3.5c-0.4,0-0.6-0.3-0.6-0.8V1.3c0-0.4,0.2-0.7,0.7-0.7h3.4
					C69.1,0.6,69.4,0.8,69.6,1.1z"/>
				<path class="st1" d="M87.3,0.6c2.2,0.2,4.1,1,5.6,2.6c1.5,1.7,2.3,3.7,2.3,6c0,2.3-0.8,4.3-2.4,6c-1.5,1.5-3.2,2.4-5,2.6h-7.4
					c-0.3,0-0.5-0.2-0.5-0.5V1.1c0-0.3,0.2-0.5,0.5-0.5H87.3z M84.3,4v10.4c0,0.6,0.3,0.9,0.8,0.9h1.5c1.5,0,2.7-0.6,3.8-1.7
					c1.2-1.2,1.8-2.7,1.8-4.5c0-1.8-0.6-3.3-1.7-4.6c-1-1.1-2.4-1.6-4.3-1.6H85C84.5,2.9,84.3,3.3,84.3,4z"/>
				<path class="st1" d="M104.9,0.6c1.5,0.1,2.8,0.7,3.9,1.9c1.2,1.2,1.7,2.5,1.7,4.1c0,1.6-0.6,3-1.7,4.1c-0.7,0.7-1.1,1-1.3,1.1
					c-0.1,0.1-0.1,0.2-0.1,0.3c0,0,0,0.1,0,0.1l2.2,3.8l0.7,1.2c0.1,0.1,0.1,0.2,0.1,0.3c0,0.2-0.1,0.2-0.4,0.2h-2.4
					c-0.2,0-0.4-0.1-0.5-0.3l-2.7-4.9h-2c-0.3,0-0.5,0.1-0.5,0.4v4c0,0.5-0.2,0.7-0.7,0.7h-3.5c-0.4,0-0.6-0.2-0.6-0.7V1.3
					c0-0.4,0.2-0.7,0.7-0.7H104.9z M102,9.6c0,0.5,0.2,0.7,0.7,0.7h2c0.7,0,1.4-0.4,2-0.9c0.7-0.7,1.1-1.6,1.1-2.7
					c0-1.1-0.3-1.9-1-2.6c-0.7-0.7-1.6-1.1-2.6-1.1h-1.5c-0.5,0-0.7,0.2-0.7,0.6V9.6z"/>
				<path class="st1" d="M130.9,9.1c0,2.5-0.9,4.6-2.7,6.4s-4.1,2.7-6.7,2.7c-2.7,0-4.9-0.9-6.7-2.7c-1.8-1.8-2.7-4-2.7-6.4
					c0-2.5,0.9-4.6,2.7-6.4c1.8-1.8,4.1-2.7,6.7-2.7c2.7,0,4.9,0.9,6.7,2.7C130,4.5,130.9,6.7,130.9,9.1z M118.9,15.2
					c0.5,0.5,1.4,0.7,2.6,0.7c1.7,0,3.2-0.6,4.5-1.9c1.3-1.3,1.9-2.9,1.9-4.8c0-1.9-0.6-3.5-1.9-4.8c-1.3-1.3-2.8-1.9-4.5-1.9
					c-1.2,0-1.9,0.2-2.3,0.6c-0.5,0.2-0.8,0.9-0.8,2v8.5C118.4,14.4,118.5,15,118.9,15.2z"/>
				<path class="st1" d="M140.8,0.6c1.5,0.1,2.8,0.7,3.9,1.9c1.2,1.2,1.7,2.5,1.7,4.1c0,1.6-0.6,3-1.9,4.2c-1.1,1.1-2.3,1.7-3.8,1.8
					h-2.6c-0.2,0-0.3,0.1-0.3,0.3v4.2c0,0.4-0.2,0.6-0.5,0.6h-3.9c-0.3,0-0.4-0.2-0.4-0.6v-16c0-0.4,0.2-0.7,0.7-0.7H140.8z
					 M137.8,9.9c0.1,0.2,0.3,0.4,0.6,0.4h2c0.7,0,1.4-0.4,2-0.9c0.7-0.7,1.1-1.6,1.1-2.7c0-1.1-0.3-1.9-1-2.6
					c-0.7-0.7-1.6-1.1-2.6-1.1h-1.5c-0.3,0-0.6,0.1-0.7,0.3V9.9z"/>
				<path class="st1" d="M8.1,38.3C8.1,38.2,8,38.1,8,38.1s-0.1,0-0.1,0.1l-1.6,4.6c-0.1,0.3-0.3,0.4-0.5,0.4H5.1
					c-0.2,0-0.4-0.1-0.5-0.4L0.1,30.1c0-0.1-0.1-0.2-0.1-0.3c0-0.2,0.1-0.3,0.3-0.3h3c0.3,0,0.5,0.1,0.6,0.4L6,35.4
					c0,0.1,0.1,0.2,0.1,0.2c0,0,0.1-0.1,0.1-0.2l0.5-1.4l-1.4-4c0-0.1-0.1-0.2-0.1-0.3c0-0.2,0.1-0.3,0.3-0.3h3.2v0
					c0.2,0,0.4,0.2,0.5,0.4l1.9,5.4c0,0.1,0.1,0.2,0.1,0.2c0,0,0.1-0.1,0.1-0.2l1.9-5.6c0.1-0.2,0.3-0.3,0.6-0.3h1.5
					c0.3,0,0.5,0.1,0.5,0.4c0,0.1,0,0.1,0,0.2l-4.5,12.7c-0.1,0.3-0.3,0.4-0.5,0.4h-0.6c-0.2,0-0.4-0.1-0.5-0.4L8.1,38.3z"/>
				<path class="st1" d="M22.6,36.6v2.3c0,1.2,0.2,1.9,0.7,2.1c0.3,0.2,0.7,0.3,1.2,0.3c0.5,0,1-0.1,1.7-0.2c1-0.3,2-0.9,2.9-1.9
					c0.1-0.2,0.3-0.3,0.5-0.3c0.1,0,0.3,0,0.5,0.1l0.5,0.3c0.2,0.1,0.3,0.2,0.3,0.4c0,0.1,0,0.3-0.1,0.5C30,41.5,28.7,42.4,27,43
					c-0.8,0.2-1.6,0.3-2.3,0.3c-1.2,0-2.4-0.3-3.4-0.8c-1.7-0.9-2.8-2.1-3.3-3.8c-0.2-0.7-0.3-1.3-0.3-2c0-0.1,0-0.2,0-0.3
					c0-0.1,0-0.2,0-0.3c0-0.7,0.1-1.4,0.3-2c0.5-1.6,1.6-2.9,3.3-3.8c1-0.5,2.2-0.8,3.4-0.8c0.7,0,1.5,0.1,2.3,0.3
					c1.5,0.6,2.6,1.5,3.4,2.8c0.7,1.3,1,2.4,1,3.5v0.2c0,0.3-0.2,0.4-0.5,0.4H22.6z M22.6,34.7h5.9c0.3,0,0.5-0.1,0.5-0.2
					c-0.4-1.6-1.3-2.6-2.9-3c-0.5-0.1-1-0.2-1.4-0.2c-0.7,0-1.3,0.2-1.8,0.5c-0.2,0.1-0.3,0.4-0.3,0.9V34.7z"/>
				<path class="st1" d="M39.1,36.1L39.1,36.1c0.7,2.1,1,3.3,1.1,3.7v0.1c0,0.8-0.3,1.5-0.9,2.2c-0.6,0.7-1.5,1.1-2.5,1.2
					c-0.1,0-0.2,0-0.4,0c-1,0-1.8-0.3-2.4-0.9c0-0.1-0.1-0.1-0.1-0.2c0-0.1,0-0.2,0.1-0.4l0.5-0.5c0.1-0.2,0.3-0.3,0.4-0.3
					c0.1,0,0.2,0.1,0.4,0.2c0.3,0.2,0.6,0.3,0.8,0.3c0.1,0,0.3,0,0.4-0.1c0.1-0.1,0.2-0.3,0.2-0.5c0-0.1,0-0.3-0.1-0.4l-1.3-3.9h0
					c-0.7-2.1-1-3.3-1-3.7v-0.1c0-0.8,0.3-1.5,0.9-2.2c0.6-0.7,1.4-1.1,2.5-1.2c0.1,0,0.2,0,0.4,0c1,0,1.8,0.3,2.4,0.9
					c0,0.1,0.1,0.2,0.1,0.2c0,0.1,0,0.2-0.1,0.4l-0.6,0.5c-0.1,0.2-0.3,0.3-0.4,0.3c-0.1,0-0.2-0.1-0.4-0.2
					c-0.3-0.2-0.5-0.3-0.8-0.3c-0.1,0-0.3,0-0.3,0.1c-0.2,0.1-0.2,0.3-0.2,0.5c0,0.1,0,0.3,0.1,0.4L39.1,36.1z"/>
				<path class="st1" d="M49.6,29.5c0.3,0,0.4,0.1,0.4,0.4v1.2c0,0.2-0.1,0.3-0.4,0.3h-1.3v11.2c0,0.4-0.2,0.6-0.6,0.6h-2.7
					c-0.3,0-0.5-0.2-0.5-0.6V31.4h-1.3c-0.3,0-0.4-0.1-0.4-0.3v-1.2c0-0.3,0.1-0.4,0.4-0.4H49.6z"/>
				<path class="st1" d="M62.4,36.6v2.3c0,1.2,0.2,1.9,0.7,2.1c0.3,0.2,0.7,0.3,1.2,0.3c0.5,0,1-0.1,1.7-0.2c1-0.3,2-0.9,2.9-1.9
					c0.1-0.2,0.3-0.3,0.5-0.3c0.1,0,0.3,0,0.5,0.1l0.5,0.3c0.2,0.1,0.3,0.2,0.3,0.4c0,0.1,0,0.3-0.1,0.5c-0.8,1.2-2.1,2.1-3.8,2.6
					c-0.8,0.2-1.6,0.3-2.3,0.3c-1.2,0-2.4-0.3-3.4-0.8c-1.7-0.9-2.8-2.1-3.3-3.8c-0.2-0.7-0.3-1.3-0.3-2c0-0.1,0-0.2,0-0.3
					c0-0.1,0-0.2,0-0.3c0-0.7,0.1-1.4,0.3-2c0.5-1.6,1.6-2.9,3.3-3.8c1-0.5,2.2-0.8,3.4-0.8c0.7,0,1.5,0.1,2.3,0.3
					c1.5,0.6,2.6,1.5,3.4,2.8c0.7,1.3,1,2.4,1,3.5v0.2c0,0.3-0.2,0.4-0.5,0.4H62.4z M62.4,34.7h5.9c0.3,0,0.5-0.1,0.5-0.2
					c-0.4-1.6-1.3-2.6-2.9-3c-0.5-0.1-1-0.2-1.4-0.2c-0.7,0-1.3,0.2-1.8,0.5c-0.2,0.1-0.3,0.4-0.3,0.9V34.7z"/>
				<path class="st1" d="M74,36.4c0-0.1,0-0.2,0-0.3c0-0.7,0.1-1.4,0.3-2c0.5-1.6,1.6-2.9,3.3-3.8c1.1-0.5,2.2-0.8,3.4-0.8
					c0.7,0,1.5,0.1,2.3,0.3c1.7,0.6,2.9,1.4,3.8,2.6c0.1,0.2,0.1,0.3,0.1,0.5c0,0.2-0.1,0.3-0.3,0.4l-0.5,0.3
					c-0.2,0.1-0.3,0.1-0.5,0.1c-0.2,0-0.4-0.1-0.5-0.3c-0.9-0.9-1.9-1.5-2.9-1.9c-0.6-0.1-1.2-0.2-1.7-0.2c-0.5,0-0.9,0.1-1.2,0.3
					c-0.5,0.3-0.7,1-0.7,2.1V40c0,0.5,0.1,0.8,0.3,0.9c0.5,0.3,1.1,0.5,1.8,0.5c0.4,0,0.9-0.1,1.4-0.2c1.5-0.5,2.3-1.1,2.5-1.8
					c0,0,0-0.1,0-0.1c0-0.1-0.1-0.1-0.4-0.1h-2.1c-0.4,0-0.5-0.2-0.5-0.5v-0.9c0-0.3,0.1-0.5,0.4-0.5h5.3c0.3,0,0.5,0.1,0.5,0.4v0.1
					c0,0.6-0.4,1.5-1.2,2.7s-2,2-3.7,2.5c-0.8,0.2-1.6,0.3-2.3,0.3c-1.2,0-2.4-0.3-3.4-0.8c-1.7-0.9-2.8-2.1-3.3-3.8
					c-0.2-0.7-0.3-1.3-0.3-2C74,36.6,74,36.5,74,36.4z"/>
				<path class="st1" d="M90.9,36.4c0-0.1,0-0.2,0-0.3c0-0.7,0.1-1.4,0.3-2c0.5-1.6,1.6-2.9,3.3-3.8c1-0.5,2.2-0.8,3.4-0.8
					c0.7,0,1.5,0.1,2.3,0.3c1.7,0.6,2.9,1.4,3.8,2.6c0.1,0.2,0.1,0.3,0.1,0.5c0,0.2-0.1,0.3-0.3,0.4l-0.5,0.3
					c-0.2,0.1-0.3,0.1-0.5,0.1c-0.2,0-0.4-0.1-0.5-0.3c-0.9-0.9-1.9-1.5-2.9-1.9c-0.6-0.1-1.2-0.2-1.7-0.2c-0.5,0-0.9,0.1-1.2,0.3
					c-0.5,0.3-0.7,1-0.7,2.1V40c0,0.5,0.1,0.8,0.3,0.9c0.5,0.3,1.1,0.5,1.8,0.5c0.4,0,0.9-0.1,1.4-0.2c1.5-0.5,2.3-1.1,2.5-1.8
					c0,0,0-0.1,0-0.1c0-0.1-0.1-0.1-0.4-0.1h-2.1c-0.4,0-0.5-0.2-0.5-0.5v-0.9c0-0.3,0.1-0.5,0.4-0.5h5.3c0.3,0,0.5,0.1,0.5,0.4v0.1
					c0,0.6-0.4,1.5-1.2,2.7c-0.8,1.1-2,2-3.7,2.5c-0.8,0.2-1.6,0.3-2.3,0.3c-1.2,0-2.4-0.3-3.4-0.8c-1.7-0.9-2.8-2.1-3.3-3.8
					c-0.2-0.7-0.3-1.3-0.3-2C90.9,36.6,90.9,36.5,90.9,36.4z"/>
				<path class="st1" d="M112.8,36.3c0-0.1,0-0.2,0-0.3c0-0.7,0.1-1.4,0.3-2c0.5-1.6,1.6-2.9,3.3-3.8c1-0.5,2.2-0.8,3.4-0.8
					c0.7,0,1.5,0.1,2.3,0.3c1.7,0.6,2.9,1.4,3.8,2.6c0.1,0.2,0.1,0.3,0.1,0.5c0,0.2-0.1,0.3-0.3,0.4l-0.5,0.3
					c-0.2,0.1-0.3,0.1-0.5,0.1c-0.2,0-0.4-0.1-0.5-0.3c-0.9-0.9-1.9-1.5-2.9-1.9c-0.6-0.1-1.2-0.2-1.7-0.2c-0.5,0-0.9,0.1-1.2,0.3
					c-0.5,0.3-0.7,1-0.7,2.1v5.2c0,1.2,0.2,1.9,0.7,2.1c0.3,0.2,0.7,0.3,1.2,0.3c0.5,0,1-0.1,1.7-0.2c1-0.3,2-0.9,2.9-1.9
					c0.1-0.2,0.3-0.3,0.5-0.3c0.1,0,0.3,0,0.5,0.1l0.5,0.3c0.2,0.1,0.3,0.2,0.3,0.4c0,0.1,0,0.3-0.1,0.5c-0.8,1.2-2.1,2.1-3.8,2.6
					c-0.8,0.2-1.6,0.3-2.3,0.3c-1.2,0-2.4-0.3-3.4-0.8c-1.7-0.9-2.8-2.1-3.3-3.8c-0.2-0.7-0.3-1.4-0.3-2.1
					C112.8,36.5,112.8,36.4,112.8,36.3z"/>
				<path class="st1" d="M132.7,30.1v6.6c0,0.3,0.2,0.5,0.5,0.5h3.3c0.4,0,0.6-0.2,0.6-0.6V30c0-0.3,0.2-0.5,0.5-0.5h1.3
					c0.4,0,0.6,0.2,0.6,0.5v12.6c0,0.4-0.2,0.6-0.5,0.6h-1.4c-0.3,0-0.5-0.2-0.5-0.5v-3c0-0.4-0.1-0.6-0.4-0.6h-3.4
					c-0.4,0-0.6,0.2-0.6,0.7v2.9c0,0.4-0.2,0.6-0.6,0.6h-2.8c-0.3,0-0.5-0.2-0.5-0.6V30.1c0-0.3,0.2-0.5,0.6-0.5h2.7
					C132.5,29.5,132.7,29.7,132.7,30.1z"/>
				<path class="st1" d="M157.3,36.4c0,2-0.7,3.7-2.2,5.1s-3.2,2.2-5.4,2.2c-2.1,0-3.9-0.7-5.4-2.2s-2.2-3.1-2.2-5.1
					c0-2,0.7-3.7,2.2-5.1s3.2-2.2,5.4-2.2c2.1,0,3.9,0.7,5.4,2.2S157.3,34.4,157.3,36.4z M147.7,41.1c0.4,0.4,1.1,0.5,2.1,0.5
					c1.4,0,2.5-0.5,3.6-1.5c1-1,1.5-2.3,1.5-3.8c0-1.5-0.5-2.8-1.5-3.8c-1-1-2.2-1.5-3.6-1.5c-0.9,0-1.5,0.2-1.8,0.5
					c-0.4,0.2-0.6,0.7-0.6,1.6v6.8C147.3,40.5,147.4,41,147.7,41.1z"/>
				<path class="st1" d="M160,36.3c0-0.1,0-0.2,0-0.3c0-0.7,0.1-1.4,0.3-2c0.5-1.6,1.6-2.9,3.3-3.8c1.1-0.5,2.2-0.8,3.4-0.8
					c0.7,0,1.5,0.1,2.3,0.3c1.7,0.6,2.9,1.4,3.8,2.6c0.1,0.2,0.1,0.3,0.1,0.5c0,0.2-0.1,0.3-0.3,0.4l-0.5,0.3
					c-0.2,0.1-0.3,0.1-0.5,0.1c-0.2,0-0.4-0.1-0.5-0.3c-0.9-0.9-1.9-1.5-2.9-1.9c-0.6-0.1-1.2-0.2-1.7-0.2c-0.5,0-0.9,0.1-1.2,0.3
					c-0.5,0.3-0.7,1-0.7,2.1v5.2c0,1.2,0.2,1.9,0.7,2.1c0.3,0.2,0.7,0.3,1.2,0.3c0.5,0,1-0.1,1.7-0.2c1-0.3,2-0.9,2.9-1.9
					c0.1-0.2,0.3-0.3,0.5-0.3c0.1,0,0.3,0,0.5,0.1l0.5,0.3c0.2,0.1,0.3,0.2,0.3,0.4c0,0.1,0,0.3-0.1,0.5c-0.8,1.2-2.1,2.1-3.8,2.6
					c-0.8,0.2-1.6,0.3-2.3,0.3c-1.2,0-2.4-0.3-3.4-0.8c-1.7-0.9-2.8-2.1-3.3-3.8c-0.2-0.7-0.3-1.4-0.3-2.1
					C160,36.5,160,36.4,160,36.3z"/>
				<path class="st1" d="M190.9,36.4c0,2-0.7,3.7-2.2,5.1s-3.2,2.2-5.4,2.2c-2.1,0-3.9-0.7-5.4-2.2c-1.4-1.4-2.2-3.1-2.2-5.1
					c0-2,0.7-3.7,2.2-5.1c1.4-1.4,3.2-2.2,5.4-2.2c2.1,0,3.9,0.7,5.4,2.2S190.9,34.4,190.9,36.4z M181.3,41.1
					c0.4,0.4,1.1,0.5,2.1,0.5c1.4,0,2.5-0.5,3.6-1.5c1-1,1.5-2.3,1.5-3.8c0-1.5-0.5-2.8-1.5-3.8c-1-1-2.2-1.5-3.6-1.5
					c-0.9,0-1.5,0.2-1.8,0.5c-0.4,0.2-0.6,0.7-0.6,1.6v6.8C180.9,40.5,181,41,181.3,41.1z"/>
				<path class="st1" d="M197.7,41.3h1.7c0.2,0,0.4,0.1,0.4,0.4v1.2c0,0.2-0.1,0.3-0.3,0.3h-5.2c-0.3,0-0.4-0.1-0.4-0.4V30.1
					c0-0.3,0.2-0.5,0.6-0.5h2.6c0.4,0,0.6,0.2,0.6,0.6V41C197.5,41.2,197.6,41.3,197.7,41.3z"/>
				<path class="st1" d="M212.1,42.5c-1,0.5-2,0.7-3.2,0.7c-2,0-3.7-0.7-5-2c-1.4-1.4-2-3-2-4.8c0-1.8,0.7-3.4,2-4.8
					c1.4-1.4,3-2,5-2c1.2,0,2.3,0.2,3.2,0.7v-0.2c0-0.3,0.2-0.5,0.6-0.5h2.7c0.4,0,0.6,0.2,0.6,0.6v12.5c0,0.4-0.2,0.6-0.6,0.6h-2.8
					c-0.3,0-0.5-0.2-0.5-0.6V42.5z M212.1,38.8v-5.3c0-0.4-0.2-0.7-0.6-1c-0.3-0.3-1.1-0.5-2.2-0.6c-0.1,0-0.3,0-0.4,0
					c-1,0-1.9,0.3-2.8,1c-1,0.8-1.5,1.9-1.5,3.4c0,1.5,0.5,2.7,1.5,3.4c0.9,0.7,1.8,1,2.8,1c0.1,0,0.3,0,0.4,0
					c1.1-0.1,1.9-0.3,2.3-0.7C211.9,39.8,212.1,39.4,212.1,38.8z"/>
				<path class="st1" d="M224.8,29.5c0.3,0,0.4,0.1,0.4,0.4v1.2c0,0.2-0.1,0.3-0.4,0.3h-1.3v11.2c0,0.4-0.2,0.6-0.6,0.6h-2.7
					c-0.3,0-0.5-0.2-0.5-0.6V31.4h-1.3c-0.3,0-0.4-0.1-0.4-0.3v-1.2c0-0.3,0.1-0.4,0.4-0.4H224.8z"/>
				<path class="st1" d="M232.4,36.6v2.3c0,1.2,0.2,1.9,0.7,2.1c0.3,0.2,0.7,0.3,1.2,0.3c0.5,0,1-0.1,1.7-0.2c1-0.3,2-0.9,2.9-1.9
					c0.1-0.2,0.3-0.3,0.5-0.3c0.1,0,0.3,0,0.5,0.1l0.5,0.3c0.2,0.1,0.3,0.2,0.3,0.4c0,0.1,0,0.3-0.1,0.5c-0.8,1.2-2.1,2.1-3.8,2.6
					c-0.8,0.2-1.6,0.3-2.3,0.3c-1.2,0-2.4-0.3-3.4-0.8c-1.7-0.9-2.8-2.1-3.3-3.8c-0.2-0.7-0.3-1.3-0.3-2c0-0.1,0-0.2,0-0.3
					c0-0.1,0-0.2,0-0.3c0-0.7,0.1-1.4,0.3-2c0.5-1.6,1.6-2.9,3.3-3.8c1-0.5,2.2-0.8,3.4-0.8c0.7,0,1.5,0.1,2.3,0.3
					c1.5,0.6,2.6,1.5,3.4,2.8c0.7,1.3,1,2.4,1,3.5v0.2c0,0.3-0.2,0.4-0.5,0.4H232.4z M232.4,34.7h5.9c0.3,0,0.5-0.1,0.5-0.2
					c-0.4-1.6-1.3-2.6-2.9-3c-0.5-0.1-1-0.2-1.4-0.2c-0.7,0-1.3,0.2-1.8,0.5c-0.2,0.1-0.3,0.4-0.3,0.9V34.7z"/>
				<path class="st1" d="M263.9,36.4c0,2-0.7,3.7-2.2,5.1s-3.2,2.2-5.4,2.2c-2.1,0-3.9-0.7-5.4-2.2s-2.2-3.1-2.2-5.1
					c0-2,0.7-3.7,2.2-5.1s3.2-2.2,5.4-2.2c2.1,0,3.9,0.7,5.4,2.2S263.9,34.4,263.9,36.4z M254.3,41.1c0.4,0.4,1.1,0.5,2.1,0.5
					c1.4,0,2.5-0.5,3.6-1.5c1-1,1.5-2.3,1.5-3.8c0-1.5-0.5-2.8-1.5-3.8c-1-1-2.2-1.5-3.6-1.5c-0.9,0-1.5,0.2-1.8,0.5
					c-0.4,0.2-0.6,0.7-0.6,1.6v6.8C253.9,40.5,254,41,254.3,41.1z"/>
				<path class="st1" d="M274.1,30v0.9c0,0.3-0.2,0.5-0.5,0.5h-2.8c-0.3,0-0.4,0.1-0.4,0.4v5c0,0.3,0.1,0.5,0.4,0.5h1
					c0.3,0,0.4,0.1,0.4,0.4v1.2c0,0.2-0.1,0.3-0.4,0.3h-1c-0.2,0-0.4,0.1-0.4,0.4v3.2c0,0.3-0.1,0.5-0.4,0.5h-3
					c-0.3,0-0.4-0.1-0.4-0.4V30.1c0-0.3,0.2-0.5,0.5-0.5h6.4C273.9,29.5,274.1,29.7,274.1,30z"/>
				<path class="st1" d="M283.4,30v0.9c0,0.3-0.2,0.5-0.5,0.5h-2.8c-0.3,0-0.4,0.1-0.4,0.4v5c0,0.3,0.1,0.5,0.4,0.5h1
					c0.3,0,0.4,0.1,0.4,0.4v1.2c0,0.2-0.1,0.3-0.4,0.3h-1c-0.2,0-0.4,0.1-0.4,0.4v3.2c0,0.3-0.1,0.5-0.4,0.5h-3
					c-0.3,0-0.4-0.1-0.4-0.4V30.1c0-0.3,0.2-0.5,0.5-0.5h6.4C283.2,29.5,283.4,29.7,283.4,30z"/>
				<path class="st1" d="M290.3,36.6v2.3c0,1.2,0.2,1.9,0.7,2.1c0.3,0.2,0.7,0.3,1.2,0.3c0.5,0,1-0.1,1.7-0.2c1-0.3,2-0.9,2.9-1.9
					c0.1-0.2,0.3-0.3,0.5-0.3c0.1,0,0.3,0,0.5,0.1l0.5,0.3c0.2,0.1,0.3,0.2,0.3,0.4c0,0.1,0,0.3-0.1,0.5c-0.8,1.2-2.1,2.1-3.8,2.6
					c-0.8,0.2-1.6,0.3-2.3,0.3c-1.2,0-2.4-0.3-3.4-0.8c-1.7-0.9-2.8-2.1-3.3-3.8c-0.2-0.7-0.3-1.3-0.3-2c0-0.1,0-0.2,0-0.3
					c0-0.1,0-0.2,0-0.3c0-0.7,0.1-1.4,0.3-2c0.5-1.6,1.6-2.9,3.3-3.8c1-0.5,2.2-0.8,3.4-0.8c0.7,0,1.5,0.1,2.3,0.3
					c1.5,0.6,2.6,1.5,3.4,2.8c0.7,1.3,1,2.4,1,3.5v0.2c0,0.3-0.2,0.4-0.5,0.4H290.3z M290.3,34.7h5.9c0.3,0,0.5-0.1,0.5-0.2
					c-0.4-1.6-1.3-2.6-2.9-3c-0.5-0.1-1-0.2-1.4-0.2c-0.7,0-1.3,0.2-1.8,0.5c-0.2,0.1-0.3,0.4-0.3,0.9V34.7z"/>
				<path class="st1" d="M308,29.5c1.2,0.1,2.2,0.6,3.1,1.5c0.9,0.9,1.4,2,1.4,3.3c0,1.3-0.5,2.4-1.4,3.3c-0.5,0.5-0.9,0.8-1,0.9
					c-0.1,0.1-0.1,0.2-0.1,0.2c0,0,0,0.1,0,0.1l1.8,3l0.6,1c0,0.1,0.1,0.2,0.1,0.2c0,0.1-0.1,0.2-0.3,0.2h-1.9
					c-0.2,0-0.3-0.1-0.4-0.2l-2.2-3.9h-1.6c-0.3,0-0.4,0.1-0.4,0.3v3.2c0,0.4-0.2,0.6-0.6,0.6h-2.8c-0.3,0-0.5-0.2-0.5-0.5V30.1
					c0-0.3,0.2-0.5,0.6-0.5H308z M305.7,36.7c0,0.4,0.2,0.5,0.5,0.5h1.6c0.6,0,1.1-0.3,1.6-0.8c0.6-0.6,0.9-1.3,0.9-2.1
					c0-0.9-0.3-1.5-0.8-2.1c-0.6-0.6-1.3-0.8-2.1-0.9h-1.2c-0.4,0-0.6,0.2-0.6,0.5V36.7z"/>
				<path class="st1" d="M320.2,36.1L320.2,36.1c0.7,2.1,1,3.3,1.1,3.7v0.1c0,0.8-0.3,1.5-0.9,2.2c-0.6,0.7-1.5,1.1-2.5,1.2
					c-0.1,0-0.2,0-0.4,0c-1,0-1.8-0.3-2.4-0.9c0-0.1-0.1-0.1-0.1-0.2c0-0.1,0-0.2,0.1-0.4l0.5-0.5c0.1-0.2,0.3-0.3,0.4-0.3
					c0.1,0,0.2,0.1,0.4,0.2c0.3,0.2,0.6,0.3,0.8,0.3c0.1,0,0.3,0,0.4-0.1c0.1-0.1,0.2-0.3,0.2-0.5c0-0.1,0-0.3-0.1-0.4l-1.3-3.9h0
					c-0.7-2.1-1-3.3-1-3.7v-0.1c0-0.8,0.3-1.5,0.9-2.2c0.6-0.7,1.4-1.1,2.5-1.2c0.1,0,0.2,0,0.4,0c1,0,1.8,0.3,2.4,0.9
					c0,0.1,0.1,0.2,0.1,0.2c0,0.1,0,0.2-0.1,0.4l-0.6,0.5c-0.1,0.2-0.3,0.3-0.4,0.3c-0.1,0-0.2-0.1-0.4-0.2
					c-0.3-0.2-0.6-0.3-0.8-0.3c-0.1,0-0.3,0-0.4,0.1c-0.2,0.1-0.2,0.3-0.2,0.5c0,0.1,0,0.3,0.1,0.4L320.2,36.1z"/>
				<path class="st1" d="M339.6,42.5c-1,0.5-2,0.7-3.2,0.7c-2,0-3.7-0.7-5-2c-1.4-1.4-2-3-2-4.8c0-1.8,0.7-3.4,2-4.8
					c1.4-1.4,3-2,5-2c1.2,0,2.3,0.2,3.2,0.7v-0.2c0-0.3,0.2-0.5,0.6-0.5h2.7c0.4,0,0.6,0.2,0.6,0.6v12.5c0,0.4-0.2,0.6-0.6,0.6h-2.8
					c-0.3,0-0.5-0.2-0.5-0.6V42.5z M339.6,38.8v-5.3c0-0.4-0.2-0.7-0.6-1c-0.3-0.3-1.1-0.5-2.2-0.6c-0.1,0-0.3,0-0.4,0
					c-1,0-1.9,0.3-2.8,1c-1,0.8-1.5,1.9-1.5,3.4c0,1.5,0.5,2.7,1.5,3.4c0.9,0.7,1.8,1,2.8,1c0.1,0,0.3,0,0.4,0
					c1.1-0.1,1.9-0.3,2.3-0.7S339.6,39.4,339.6,38.8z"/>
				<path class="st1" d="M4.7,55.2c0.5-0.2,1.2-0.3,1.8-0.4c0.4,0,0.7-0.1,1.1-0.1c1.5,0,2.8,0.4,3.8,1.1c1.3,0.9,1.9,2.1,1.9,3.4
					v8.7c0,0.3-0.1,0.5-0.4,0.5h-1.4c-0.4,0-0.6-0.2-0.6-0.6v-8.2c0-1.2-0.4-2.1-1.2-2.6c-0.6-0.4-1.3-0.6-2.1-0.6
					c-0.3,0-0.6,0-0.9,0.1c-1.2,0.2-1.9,0.5-2,1.1v10.3c0,0.4-0.2,0.6-0.6,0.6H1.4c-0.3,0-0.5-0.2-0.5-0.6V55.5
					c0-0.3,0.2-0.5,0.6-0.5h2.7C4.4,55,4.6,55.1,4.7,55.2z"/>
				<path class="st1" d="M21,62v2.3c0,1.2,0.2,1.9,0.7,2.1c0.3,0.2,0.7,0.3,1.2,0.3c0.5,0,1-0.1,1.7-0.2c1-0.3,2-0.9,2.9-1.9
					c0.1-0.2,0.3-0.3,0.5-0.3c0.1,0,0.3,0,0.5,0.1l0.5,0.3c0.2,0.1,0.3,0.2,0.3,0.4c0,0.1,0,0.3-0.1,0.5c-0.8,1.2-2.1,2.1-3.8,2.6
					c-0.8,0.2-1.6,0.3-2.3,0.3c-1.2,0-2.4-0.3-3.4-0.8c-1.7-0.9-2.8-2.1-3.3-3.8c-0.2-0.7-0.3-1.3-0.3-2c0-0.1,0-0.2,0-0.3
					c0-0.1,0-0.2,0-0.3c0-0.7,0.1-1.4,0.3-2c0.5-1.6,1.6-2.9,3.3-3.8c1-0.5,2.2-0.8,3.4-0.8c0.7,0,1.5,0.1,2.3,0.3
					c1.5,0.6,2.6,1.5,3.4,2.8c0.7,1.3,1,2.4,1,3.5v0.2c0,0.3-0.2,0.4-0.5,0.4H21z M21,60.2h5.9c0.3,0,0.5-0.1,0.5-0.2
					c-0.4-1.6-1.3-2.6-2.9-3c-0.5-0.1-1-0.2-1.4-0.2c-0.7,0-1.3,0.2-1.8,0.5c-0.2,0.1-0.3,0.4-0.3,0.9V60.2z"/>
				<path class="st1" d="M39.6,63.8c-0.1-0.1-0.1-0.2-0.1-0.2c0,0-0.1,0-0.1,0.1l-1.6,4.6c-0.1,0.3-0.3,0.4-0.5,0.4h-0.6
					c-0.2,0-0.4-0.1-0.5-0.4l-4.5-12.8c0-0.1-0.1-0.2-0.1-0.3c0-0.2,0.1-0.3,0.3-0.3h3c0.3,0,0.5,0.1,0.6,0.4l1.9,5.4
					c0,0.1,0.1,0.2,0.1,0.2c0,0,0.1-0.1,0.1-0.2l0.5-1.4l-1.4-4c0-0.1-0.1-0.2-0.1-0.3c0-0.2,0.1-0.3,0.3-0.3h3.2v0
					c0.2,0,0.4,0.2,0.5,0.4l1.9,5.4c0,0.1,0.1,0.2,0.1,0.2c0,0,0.1-0.1,0.1-0.2l1.9-5.6c0.1-0.2,0.3-0.3,0.6-0.3h1.5
					c0.3,0,0.5,0.1,0.5,0.4c0,0.1,0,0.1,0,0.2l-4.5,12.7c-0.1,0.3-0.3,0.4-0.5,0.4h-0.6c-0.2,0-0.4-0.1-0.5-0.4L39.6,63.8z"/>
				<path class="st1" d="M54.7,61.8c0-0.1,0-0.2,0-0.3c0-0.7,0.1-1.4,0.3-2c0.5-1.6,1.6-2.9,3.3-3.8c1-0.5,2.2-0.8,3.4-0.8
					c0.7,0,1.5,0.1,2.3,0.3c1.7,0.6,2.9,1.4,3.8,2.6c0.1,0.2,0.1,0.3,0.1,0.5c0,0.2-0.1,0.3-0.3,0.4l-0.5,0.4
					c-0.2,0.1-0.3,0.1-0.5,0.1c-0.2,0-0.4-0.1-0.5-0.3c-0.9-0.9-1.9-1.5-2.9-1.9c-0.6-0.1-1.2-0.2-1.7-0.2c-0.5,0-0.9,0.1-1.2,0.3
					c-0.5,0.3-0.7,1-0.7,2.1v6.2c0,0.5,0.1,0.8,0.3,0.9c0.5,0.3,1.1,0.5,1.8,0.5c0.4,0,0.9-0.1,1.4-0.2c1.5-0.5,2.3-1.1,2.5-1.8
					c0,0,0-0.1,0-0.1c0-0.1-0.1-0.1-0.4-0.1h-2.1c-0.4,0-0.5-0.2-0.5-0.5v-0.9c0-0.3,0.1-0.5,0.4-0.5h5.3c0.3,0,0.5,0.1,0.5,0.4v0.1
					c0,0.6-0.4,1.5-1.2,2.7c-0.8,1.1-2,2-3.7,2.5c-0.8,0.2-1.6,0.3-2.3,0.3c-1.2,0-2.4-0.3-3.4-0.8c-1.7-0.9-2.8-2.1-3.3-3.8
					c-0.2-0.7-0.3-1.3-0.3-2C54.7,62,54.7,61.9,54.7,61.8z"/>
				<path class="st1" d="M81.6,67.9c-1,0.5-2,0.7-3.2,0.7c-2,0-3.7-0.7-5-2c-1.4-1.4-2-3-2-4.8c0-1.8,0.7-3.4,2-4.8c1.4-1.4,3-2,5-2
					c1.2,0,2.3,0.2,3.2,0.7v-0.2c0-0.3,0.2-0.5,0.6-0.5h2.7c0.4,0,0.6,0.2,0.6,0.6v12.5c0,0.4-0.2,0.6-0.6,0.6h-2.8
					c-0.3,0-0.5-0.2-0.5-0.6V67.9z M81.6,64.3V59c0-0.4-0.2-0.7-0.6-1s-1.1-0.5-2.2-0.6c-0.1,0-0.3,0-0.4,0c-1,0-1.9,0.3-2.8,1
					c-1,0.8-1.5,1.9-1.5,3.4c0,1.5,0.5,2.7,1.5,3.4c0.9,0.7,1.8,1,2.8,1c0.1,0,0.3,0,0.4,0c1.1-0.1,1.9-0.3,2.3-0.7
					S81.6,64.8,81.6,64.3z"/>
				<path class="st1" d="M93.1,61.5L93.1,61.5c0.7,2.1,1,3.3,1.1,3.7v0.1c0,0.8-0.3,1.5-0.9,2.2c-0.6,0.7-1.5,1.1-2.5,1.2
					c-0.1,0-0.2,0-0.4,0c-1,0-1.8-0.3-2.4-0.9c0-0.1-0.1-0.1-0.1-0.2c0-0.1,0-0.2,0.1-0.4l0.5-0.5c0.1-0.2,0.3-0.3,0.4-0.3
					c0.1,0,0.2,0.1,0.4,0.2c0.3,0.2,0.6,0.3,0.8,0.3c0.1,0,0.3,0,0.4-0.1c0.1-0.1,0.2-0.3,0.2-0.5c0-0.1,0-0.3-0.1-0.4l-1.3-3.9h0
					c-0.7-2.1-1-3.3-1-3.7v-0.1c0-0.8,0.3-1.5,0.9-2.2c0.6-0.7,1.4-1.1,2.5-1.2c0.1,0,0.2,0,0.4,0c1,0,1.8,0.3,2.4,0.9
					c0,0.1,0.1,0.1,0.1,0.2c0,0.1,0,0.2-0.1,0.4l-0.6,0.5c-0.1,0.2-0.3,0.3-0.4,0.3c-0.1,0-0.2-0.1-0.4-0.2
					c-0.3-0.2-0.5-0.3-0.8-0.3c-0.1,0-0.3,0-0.3,0.1c-0.2,0.1-0.2,0.3-0.2,0.5c0,0.1,0,0.3,0.1,0.4L93.1,61.5z"/>
				<path class="st1" d="M103.7,55c0.3,0,0.4,0.1,0.4,0.4v1.2c0,0.2-0.1,0.3-0.4,0.3h-1.3v11.2c0,0.4-0.2,0.6-0.6,0.6h-2.7
					c-0.3,0-0.5-0.2-0.5-0.6V56.9h-1.3c-0.3,0-0.4-0.1-0.4-0.3v-1.2c0-0.3,0.1-0.4,0.4-0.4H103.7z"/>
				<path class="st1" d="M112.7,55c1.2,0.1,2.2,0.6,3.1,1.5c0.9,0.9,1.4,2,1.4,3.3c0,1.3-0.5,2.4-1.4,3.3c-0.5,0.5-0.9,0.8-1,0.9
					c-0.1,0.1-0.1,0.2-0.1,0.2c0,0,0,0.1,0,0.1l1.7,3l0.6,1c0,0.1,0.1,0.2,0.1,0.2c0,0.1-0.1,0.2-0.3,0.2h-1.9
					c-0.2,0-0.3-0.1-0.4-0.2l-2.2-3.9h-1.6c-0.3,0-0.4,0.1-0.4,0.3v3.2c0,0.4-0.2,0.6-0.6,0.6H107c-0.3,0-0.5-0.2-0.5-0.5V55.5
					c0-0.3,0.2-0.5,0.6-0.5H112.7z M110.4,62.1c0,0.4,0.2,0.5,0.5,0.5h1.6c0.6,0,1.1-0.3,1.6-0.8c0.6-0.6,0.9-1.3,0.9-2.1
					c0-0.9-0.3-1.5-0.8-2.1c-0.6-0.6-1.3-0.8-2.1-0.9H111c-0.4,0-0.6,0.2-0.6,0.5V62.1z"/>
				<path class="st1" d="M134.5,61.8c0,2-0.7,3.7-2.2,5.1s-3.2,2.2-5.4,2.2c-2.1,0-3.9-0.7-5.4-2.2c-1.4-1.4-2.2-3.1-2.2-5.1
					c0-2,0.7-3.7,2.2-5.1c1.4-1.4,3.2-2.2,5.4-2.2c2.1,0,3.9,0.7,5.4,2.2C133.8,58.1,134.5,59.8,134.5,61.8z M125,66.6
					c0.4,0.4,1.1,0.5,2.1,0.5c1.4,0,2.5-0.5,3.6-1.5c1-1,1.5-2.3,1.5-3.8c0-1.5-0.5-2.8-1.5-3.8s-2.2-1.5-3.6-1.5
					c-0.9,0-1.5,0.2-1.8,0.5c-0.4,0.2-0.6,0.7-0.6,1.6v6.8C124.5,66,124.7,66.4,125,66.6z"/>
				<path class="st1" d="M141.1,55.2c0.5-0.2,1.2-0.3,1.8-0.4c0.4,0,0.7-0.1,1.1-0.1c1.5,0,2.8,0.4,3.8,1.1c1.3,0.9,1.9,2.1,1.9,3.4
					v8.7c0,0.3-0.1,0.5-0.4,0.5H148c-0.4,0-0.6-0.2-0.6-0.6v-8.2c0-1.2-0.4-2.1-1.2-2.6c-0.6-0.4-1.3-0.6-2.1-0.6
					c-0.3,0-0.6,0-0.9,0.1c-1.2,0.2-1.9,0.5-2,1.1v10.3c0,0.4-0.2,0.6-0.6,0.6h-2.8c-0.3,0-0.5-0.2-0.5-0.6V55.5
					c0-0.3,0.2-0.5,0.6-0.5h2.7C140.9,55,141,55.1,141.1,55.2z"/>
				<path class="st1" d="M167.6,61.8c0,2-0.7,3.7-2.2,5.1s-3.2,2.2-5.4,2.2c-2.1,0-3.9-0.7-5.4-2.2c-1.4-1.4-2.2-3.1-2.2-5.1
					c0-2,0.7-3.7,2.2-5.1c1.4-1.4,3.2-2.2,5.4-2.2c2.1,0,3.9,0.7,5.4,2.2C166.9,58.1,167.6,59.8,167.6,61.8z M158,66.6
					c0.4,0.4,1.1,0.5,2.1,0.5c1.4,0,2.5-0.5,3.6-1.5c1-1,1.5-2.3,1.5-3.8c0-1.5-0.5-2.8-1.5-3.8s-2.2-1.5-3.6-1.5
					c-0.9,0-1.5,0.2-1.8,0.5c-0.4,0.2-0.6,0.7-0.6,1.6v6.8C157.6,66,157.8,66.4,158,66.6z"/>
				<path class="st1" d="M174.3,68.1c0,0.4-0.2,0.6-0.6,0.6h-2.8c-0.3,0-0.5-0.2-0.5-0.6V55.5c0-0.3,0.2-0.5,0.6-0.5h2.7
					c0.2,0,0.4,0.1,0.5,0.2c0.4-0.1,0.7-0.2,1-0.2h0.6c0.9,0,1.7,0.3,2.5,0.8c0.8-0.6,1.6-0.8,2.6-0.8h0.6c1.1,0,2.2,0.5,3.2,1.4
					c0.8,0.9,1.2,1.7,1.2,2.6v9.2c0,0.4-0.2,0.5-0.6,0.5h-1.2c-0.4,0-0.6-0.2-0.6-0.5v-8.7c-0.1-0.8-0.3-1.4-0.7-1.9
					c-0.5-0.4-0.9-0.6-1.4-0.6c-0.4,0-0.7,0-0.9,0.1c-0.2,0-0.3,0.2-0.3,0.6v10.7c0,0.3-0.2,0.5-0.6,0.5h-1.2
					c-0.4,0-0.6-0.2-0.6-0.5v-8.7c-0.1-0.8-0.3-1.4-0.7-1.9c-0.5-0.4-0.9-0.6-1.4-0.6h-0.5c-0.2,0-0.5,0-0.7,0.1
					c-0.2,0-0.3,0.2-0.3,0.4L174.3,68.1z"/>
				<path class="st1" d="M192.3,56.9h-3c-0.3,0-0.4-0.1-0.4-0.3v-1.2c0-0.3,0.2-0.4,0.5-0.4h2.9c0.3,0,0.4,0.1,0.4,0.4v1.2
					C192.7,56.8,192.6,56.9,192.3,56.9z M192.7,59.4v8.7c0,0.4-0.2,0.6-0.6,0.6h-2.8c-0.3,0-0.5-0.2-0.5-0.6v-8.7
					c0-0.3,0.2-0.5,0.6-0.5h2.7C192.5,58.8,192.7,59,192.7,59.4z"/>
				<path class="st1" d="M195.6,61.8c0-0.1,0-0.2,0-0.3c0-0.7,0.1-1.4,0.3-2c0.5-1.6,1.6-2.9,3.3-3.8c1.1-0.5,2.2-0.8,3.4-0.8
					c0.7,0,1.5,0.1,2.3,0.3c1.7,0.6,2.9,1.4,3.8,2.6c0.1,0.2,0.1,0.3,0.1,0.5c0,0.2-0.1,0.3-0.3,0.4l-0.5,0.4
					c-0.2,0.1-0.3,0.1-0.5,0.1c-0.2,0-0.4-0.1-0.5-0.3c-0.9-0.9-1.9-1.5-2.9-1.9c-0.6-0.1-1.2-0.2-1.7-0.2c-0.5,0-0.9,0.1-1.2,0.3
					c-0.5,0.3-0.7,1-0.7,2.1v5.2c0,1.2,0.2,1.9,0.7,2.1c0.3,0.2,0.7,0.3,1.2,0.3c0.5,0,1-0.1,1.7-0.2c1-0.3,2-0.9,2.9-1.9
					c0.1-0.2,0.3-0.3,0.5-0.3c0.1,0,0.3,0,0.5,0.1l0.5,0.3c0.2,0.1,0.3,0.2,0.3,0.4c0,0.1,0,0.3-0.1,0.5c-0.8,1.2-2.1,2.1-3.8,2.6
					c-0.8,0.2-1.6,0.3-2.3,0.3c-1.2,0-2.4-0.3-3.4-0.8c-1.7-0.9-2.8-2.1-3.3-3.8c-0.2-0.7-0.3-1.4-0.3-2.1
					C195.5,62,195.6,61.9,195.6,61.8z"/>
				<path class="st1" d="M221.6,67.9c-1,0.5-2,0.7-3.2,0.7c-2,0-3.7-0.7-5-2c-1.4-1.4-2-3-2-4.8c0-1.8,0.7-3.4,2-4.8
					c1.4-1.4,3-2,5-2c1.2,0,2.3,0.2,3.2,0.7v-0.2c0-0.3,0.2-0.5,0.6-0.5h2.7c0.4,0,0.6,0.2,0.6,0.6v12.5c0,0.4-0.2,0.6-0.6,0.6h-2.8
					c-0.3,0-0.5-0.2-0.5-0.6V67.9z M221.6,64.3V59c0-0.4-0.2-0.7-0.6-1c-0.3-0.3-1.1-0.5-2.2-0.6c-0.1,0-0.3,0-0.4,0
					c-1,0-1.9,0.3-2.8,1c-1,0.8-1.5,1.9-1.5,3.4c0,1.5,0.5,2.7,1.5,3.4c0.9,0.7,1.8,1,2.8,1c0.1,0,0.3,0,0.4,0
					c1.1-0.1,1.9-0.3,2.3-0.7C221.4,65.2,221.6,64.8,221.6,64.3z"/>
				<path class="st1" d="M232.1,66.8h1.7c0.2,0,0.4,0.1,0.4,0.4v1.2c0,0.2-0.1,0.3-0.3,0.3h-5.2c-0.3,0-0.4-0.2-0.4-0.4V55.5
					c0-0.3,0.2-0.5,0.6-0.5h2.6c0.4,0,0.6,0.2,0.6,0.6v10.9C231.9,66.7,232,66.8,232.1,66.8z"/>
				<path class="st1" d="M246.4,62v2.3c0,1.2,0.2,1.9,0.7,2.1c0.3,0.2,0.7,0.3,1.2,0.3c0.5,0,1-0.1,1.7-0.2c1-0.3,2-0.9,2.9-1.9
					c0.1-0.2,0.3-0.3,0.5-0.3c0.1,0,0.3,0,0.5,0.1l0.5,0.3c0.2,0.1,0.3,0.2,0.3,0.4c0,0.1,0,0.3-0.1,0.5c-0.8,1.2-2.1,2.1-3.8,2.6
					c-0.8,0.2-1.6,0.3-2.3,0.3c-1.2,0-2.4-0.3-3.4-0.8c-1.7-0.9-2.8-2.1-3.3-3.8c-0.2-0.7-0.3-1.3-0.3-2c0-0.1,0-0.2,0-0.3
					c0-0.1,0-0.2,0-0.3c0-0.7,0.1-1.4,0.3-2c0.5-1.6,1.6-2.9,3.3-3.8c1.1-0.5,2.2-0.8,3.4-0.8c0.7,0,1.5,0.1,2.3,0.3
					c1.5,0.6,2.6,1.5,3.4,2.8c0.7,1.3,1,2.4,1,3.5v0.2c0,0.3-0.2,0.4-0.5,0.4H246.4z M246.4,60.2h5.9c0.3,0,0.5-0.1,0.5-0.2
					c-0.4-1.6-1.3-2.6-2.9-3c-0.5-0.1-1-0.2-1.4-0.2c-0.7,0-1.3,0.2-1.8,0.5c-0.2,0.1-0.3,0.4-0.3,0.9V60.2z"/>
				<path class="st1" d="M262.1,64.1l-4.9-8.6c0-0.1-0.1-0.2-0.1-0.3c0-0.2,0.1-0.3,0.3-0.3h3c0.3,0,0.5,0.1,0.6,0.4l2.9,5
					c0,0.1,0.1,0.1,0.1,0.1c0,0,0.1,0,0.1-0.1l3-5.1c0.1-0.2,0.2-0.3,0.5-0.3h1.8c0.2,0,0.3,0.1,0.3,0.2c0,0,0,0.1,0,0.1l-4.4,7.6
					l3.2,5.2c0,0.1,0.1,0.2,0.1,0.3c0,0.2-0.1,0.3-0.3,0.3h-3c-0.3,0-0.5-0.1-0.6-0.4l-1.1-1.7c0-0.1-0.1-0.1-0.1-0.1
					c0,0-0.1,0-0.1,0.1l-1,1.8c-0.1,0.2-0.2,0.3-0.5,0.3h-2.1c-0.1,0-0.2,0-0.2-0.1c0-0.1,0-0.1,0.1-0.2L262.1,64.1z"/>
				<path class="st1" d="M278.2,55c1.2,0.1,2.2,0.6,3.1,1.5c0.9,0.9,1.4,2,1.4,3.3c0,1.3-0.5,2.4-1.5,3.4c-0.8,0.9-1.9,1.3-3,1.4
					h-2.4v3.5c0,0.4-0.2,0.6-0.6,0.6h-2.8c-0.3,0-0.5-0.2-0.5-0.6V55.5c0-0.3,0.2-0.5,0.6-0.5H278.2z M275.8,62.4
					c0.1,0.2,0.2,0.3,0.5,0.3h1.6c0.6,0,1.1-0.3,1.6-0.8c0.6-0.6,0.9-1.3,0.9-2.1c0-0.9-0.3-1.5-0.8-2.1c-0.6-0.6-1.3-0.8-2.1-0.9
					h-1.2c-0.3,0-0.4,0.1-0.5,0.3V62.4z"/>
				<path class="st1" d="M290,62v2.3c0,1.2,0.2,1.9,0.7,2.1c0.3,0.2,0.7,0.3,1.2,0.3c0.5,0,1-0.1,1.7-0.2c1-0.3,2-0.9,2.9-1.9
					c0.1-0.2,0.3-0.3,0.5-0.3c0.1,0,0.3,0,0.5,0.1l0.5,0.3c0.2,0.1,0.3,0.2,0.3,0.4c0,0.1,0,0.3-0.1,0.5c-0.8,1.2-2.1,2.1-3.8,2.6
					c-0.8,0.2-1.6,0.3-2.3,0.3c-1.2,0-2.4-0.3-3.4-0.8c-1.7-0.9-2.8-2.1-3.3-3.8c-0.2-0.7-0.3-1.3-0.3-2c0-0.1,0-0.2,0-0.3
					c0-0.1,0-0.2,0-0.3c0-0.7,0.1-1.4,0.3-2c0.5-1.6,1.6-2.9,3.3-3.8c1-0.5,2.2-0.8,3.4-0.8c0.7,0,1.5,0.1,2.3,0.3
					c1.5,0.6,2.6,1.5,3.4,2.8c0.7,1.3,1,2.4,1,3.5v0.2c0,0.3-0.2,0.4-0.5,0.4H290z M290,60.2h5.9c0.3,0,0.5-0.1,0.5-0.2
					c-0.4-1.6-1.3-2.6-2.9-3c-0.5-0.1-1-0.2-1.4-0.2c-0.7,0-1.3,0.2-1.8,0.5c-0.2,0.1-0.3,0.4-0.3,0.9V60.2z"/>
				<path class="st1" d="M307.7,55c1.2,0.1,2.2,0.6,3.1,1.5c0.9,0.9,1.4,2,1.4,3.3c0,1.3-0.5,2.4-1.4,3.3c-0.5,0.5-0.9,0.8-1,0.9
					c-0.1,0.1-0.1,0.2-0.1,0.2c0,0,0,0.1,0,0.1l1.8,3l0.6,1c0,0.1,0.1,0.2,0.1,0.2c0,0.1-0.1,0.2-0.3,0.2h-1.9
					c-0.2,0-0.3-0.1-0.4-0.2l-2.2-3.9h-1.6c-0.3,0-0.4,0.1-0.4,0.3v3.2c0,0.4-0.2,0.6-0.6,0.6H302c-0.3,0-0.5-0.2-0.5-0.5V55.5
					c0-0.3,0.2-0.5,0.6-0.5H307.7z M305.3,62.1c0,0.4,0.2,0.5,0.5,0.5h1.6c0.6,0,1.1-0.3,1.6-0.8c0.6-0.6,0.9-1.3,0.9-2.1
					c0-0.9-0.3-1.5-0.8-2.1c-0.6-0.6-1.3-0.8-2.1-0.9h-1.2c-0.4,0-0.6,0.2-0.6,0.5V62.1z"/>
				<path class="st1" d="M318.3,56.9h-3c-0.3,0-0.4-0.1-0.4-0.3v-1.2c0-0.3,0.2-0.4,0.5-0.4h2.9c0.3,0,0.4,0.1,0.4,0.4v1.2
					C318.7,56.8,318.6,56.9,318.3,56.9z M318.7,59.4v8.7c0,0.4-0.2,0.6-0.6,0.6h-2.8c-0.3,0-0.5-0.2-0.5-0.6v-8.7
					c0-0.3,0.2-0.5,0.6-0.5h2.7C318.5,58.8,318.7,59,318.7,59.4z"/>
				<path class="st1" d="M326.4,62v2.3c0,1.2,0.2,1.9,0.7,2.1c0.3,0.2,0.7,0.3,1.2,0.3c0.5,0,1-0.1,1.7-0.2c1-0.3,2-0.9,2.9-1.9
					c0.1-0.2,0.3-0.3,0.5-0.3c0.1,0,0.3,0,0.5,0.1l0.5,0.3c0.2,0.1,0.3,0.2,0.3,0.4c0,0.1,0,0.3-0.1,0.5c-0.8,1.2-2.1,2.1-3.8,2.6
					c-0.8,0.2-1.6,0.3-2.3,0.3c-1.2,0-2.4-0.3-3.4-0.8c-1.7-0.9-2.8-2.1-3.3-3.8c-0.2-0.7-0.3-1.3-0.3-2c0-0.1,0-0.2,0-0.3
					c0-0.1,0-0.2,0-0.3c0-0.7,0.1-1.4,0.3-2c0.5-1.6,1.6-2.9,3.3-3.8c1-0.5,2.2-0.8,3.4-0.8c0.7,0,1.5,0.1,2.3,0.3
					c1.5,0.6,2.6,1.5,3.4,2.8c0.7,1.3,1,2.4,1,3.5v0.2c0,0.3-0.2,0.4-0.5,0.4H326.4z M326.4,60.2h5.9c0.3,0,0.5-0.1,0.5-0.2
					c-0.4-1.6-1.3-2.6-2.9-3c-0.5-0.1-1-0.2-1.4-0.2c-0.7,0-1.3,0.2-1.8,0.5c-0.2,0.1-0.3,0.4-0.3,0.9V60.2z"/>
				<path class="st1" d="M341.7,55.2c0.5-0.2,1.2-0.3,1.8-0.4c0.4,0,0.7-0.1,1.1-0.1c1.5,0,2.8,0.4,3.8,1.1c1.3,0.9,1.9,2.1,1.9,3.4
					v8.7c0,0.3-0.1,0.5-0.4,0.5h-1.4c-0.4,0-0.6-0.2-0.6-0.6v-8.2c0-1.2-0.4-2.1-1.2-2.6c-0.6-0.4-1.3-0.6-2.1-0.6
					c-0.3,0-0.6,0-0.9,0.1c-1.2,0.2-1.9,0.5-2,1.1v10.3c0,0.4-0.2,0.6-0.6,0.6h-2.8c-0.3,0-0.5-0.2-0.5-0.6V55.5
					c0-0.3,0.2-0.5,0.6-0.5h2.7C341.4,55,341.6,55.1,341.7,55.2z"/>
				<path class="st1" d="M353.2,61.8c0-0.1,0-0.2,0-0.3c0-0.7,0.1-1.4,0.3-2c0.5-1.6,1.6-2.9,3.3-3.8c1-0.5,2.2-0.8,3.4-0.8
					c0.7,0,1.5,0.1,2.3,0.3c1.7,0.6,2.9,1.4,3.8,2.6c0.1,0.2,0.1,0.3,0.1,0.5c0,0.2-0.1,0.3-0.3,0.4l-0.5,0.4
					c-0.2,0.1-0.3,0.1-0.5,0.1c-0.2,0-0.4-0.1-0.5-0.3c-0.9-0.9-1.9-1.5-2.9-1.9c-0.6-0.1-1.2-0.2-1.7-0.2c-0.5,0-0.9,0.1-1.2,0.3
					c-0.5,0.3-0.7,1-0.7,2.1v5.2c0,1.2,0.2,1.9,0.7,2.1c0.3,0.2,0.7,0.3,1.2,0.3c0.5,0,1-0.1,1.7-0.2c1-0.3,2-0.9,2.9-1.9
					c0.1-0.2,0.3-0.3,0.5-0.3c0.1,0,0.3,0,0.5,0.1l0.5,0.3c0.2,0.1,0.3,0.2,0.3,0.4c0,0.1,0,0.3-0.1,0.5c-0.8,1.2-2.1,2.1-3.8,2.6
					c-0.8,0.2-1.6,0.3-2.3,0.3c-1.2,0-2.4-0.3-3.4-0.8c-1.7-0.9-2.8-2.1-3.3-3.8c-0.2-0.7-0.3-1.4-0.3-2.1
					C353.2,62,353.2,61.9,353.2,61.8z"/>
				<path class="st1" d="M374,62v2.3c0,1.2,0.2,1.9,0.7,2.1c0.3,0.2,0.7,0.3,1.2,0.3c0.5,0,1-0.1,1.7-0.2c1-0.3,2-0.9,2.9-1.9
					c0.1-0.2,0.3-0.3,0.5-0.3c0.1,0,0.3,0,0.5,0.1l0.5,0.3c0.2,0.1,0.3,0.2,0.3,0.4c0,0.1,0,0.3-0.1,0.5c-0.8,1.2-2.1,2.1-3.8,2.6
					c-0.8,0.2-1.6,0.3-2.3,0.3c-1.2,0-2.4-0.3-3.4-0.8c-1.7-0.9-2.8-2.1-3.3-3.8c-0.2-0.7-0.3-1.3-0.3-2c0-0.1,0-0.2,0-0.3
					c0-0.1,0-0.2,0-0.3c0-0.7,0.1-1.4,0.3-2c0.5-1.6,1.6-2.9,3.3-3.8c1-0.5,2.2-0.8,3.4-0.8c0.7,0,1.5,0.1,2.3,0.3
					c1.5,0.6,2.6,1.5,3.4,2.8c0.7,1.3,1,2.4,1,3.5v0.2c0,0.3-0.2,0.4-0.5,0.4H374z M374,60.2h5.9c0.3,0,0.5-0.1,0.5-0.2
					c-0.4-1.6-1.3-2.6-2.9-3c-0.5-0.1-1-0.2-1.4-0.2c-0.7,0-1.3,0.2-1.8,0.5c-0.2,0.1-0.3,0.4-0.3,0.9V60.2z"/>
				<path class="st1" d="M8.1,89.2C8.1,89.1,8,89,8,89s-0.1,0-0.1,0.1l-1.6,4.6C6.1,94,6,94.1,5.8,94.1H5.1c-0.2,0-0.4-0.1-0.5-0.4
					L0.1,81c0-0.1-0.1-0.2-0.1-0.3c0-0.2,0.1-0.3,0.3-0.3h3c0.3,0,0.5,0.1,0.6,0.4L6,86.3c0,0.1,0.1,0.2,0.1,0.2
					c0,0,0.1-0.1,0.1-0.2L6.7,85l-1.4-4c0-0.1-0.1-0.2-0.1-0.3c0-0.2,0.1-0.3,0.3-0.3h3.2v0c0.2,0,0.4,0.2,0.5,0.4l1.9,5.4
					c0,0.1,0.1,0.2,0.1,0.2c0,0,0.1-0.1,0.1-0.2l1.9-5.6c0.1-0.2,0.3-0.3,0.6-0.3h1.5c0.3,0,0.5,0.1,0.5,0.4c0,0.1,0,0.1,0,0.2
					l-4.5,12.7c-0.1,0.3-0.3,0.4-0.5,0.4h-0.6c-0.2,0-0.4-0.1-0.5-0.4L8.1,89.2z"/>
				<path class="st1" d="M21.4,82.3h-3c-0.3,0-0.4-0.1-0.4-0.3v-1.2c0-0.3,0.2-0.4,0.5-0.4h2.9c0.3,0,0.4,0.1,0.4,0.4V82
					C21.9,82.2,21.7,82.3,21.4,82.3z M21.9,84.8v8.7c0,0.4-0.2,0.6-0.6,0.6h-2.8c-0.3,0-0.5-0.2-0.5-0.6v-8.7c0-0.4,0.2-0.5,0.6-0.5
					h2.7C21.7,84.2,21.9,84.4,21.9,84.8z"/>
				<path class="st1" d="M30.9,80.4c0.3,0,0.4,0.1,0.4,0.4V82c0,0.2-0.1,0.3-0.4,0.3h-1.3v11.2c0,0.4-0.2,0.6-0.6,0.6h-2.7
					c-0.3,0-0.5-0.2-0.5-0.6V82.3h-1.3c-0.3,0-0.4-0.1-0.4-0.3v-1.2c0-0.3,0.1-0.4,0.4-0.4H30.9z"/>
				<path class="st1" d="M37.7,81v6.6c0,0.3,0.2,0.5,0.5,0.5h3.3c0.4,0,0.6-0.2,0.6-0.6v-6.6c0-0.3,0.2-0.5,0.5-0.5h1.3
					c0.4,0,0.6,0.2,0.6,0.5v12.6c0,0.4-0.2,0.6-0.5,0.6h-1.4c-0.3,0-0.5-0.2-0.5-0.5v-3c0-0.4-0.2-0.6-0.4-0.6h-3.4
					c-0.4,0-0.6,0.2-0.6,0.7v2.9c0,0.4-0.2,0.6-0.6,0.6h-2.8c-0.3,0-0.5-0.2-0.5-0.6V81c0-0.3,0.2-0.5,0.6-0.5h2.7
					C37.5,80.4,37.7,80.6,37.7,81z"/>
				<path class="st1" d="M57.2,87.5v2.3c0,1.2,0.2,1.9,0.7,2.1c0.3,0.2,0.7,0.3,1.2,0.3c0.5,0,1-0.1,1.7-0.2c1-0.3,2-0.9,2.9-1.9
					c0.1-0.2,0.3-0.3,0.5-0.3c0.1,0,0.3,0,0.5,0.1l0.5,0.4c0.2,0.1,0.3,0.2,0.3,0.4c0,0.1,0,0.3-0.1,0.5c-0.8,1.2-2.1,2.1-3.8,2.6
					c-0.8,0.2-1.6,0.3-2.3,0.3c-1.2,0-2.4-0.3-3.4-0.8c-1.7-0.9-2.8-2.1-3.3-3.8c-0.2-0.7-0.3-1.3-0.3-2c0-0.1,0-0.2,0-0.3
					c0-0.1,0-0.2,0-0.3c0-0.7,0.1-1.4,0.3-2c0.5-1.6,1.6-2.9,3.3-3.8c1.1-0.5,2.2-0.8,3.4-0.8c0.7,0,1.5,0.1,2.3,0.3
					c1.5,0.6,2.6,1.5,3.4,2.8c0.7,1.3,1,2.4,1,3.5V87c0,0.3-0.2,0.4-0.5,0.4H57.2z M57.2,85.6h5.9c0.3,0,0.5-0.1,0.5-0.2
					c-0.4-1.6-1.3-2.6-2.9-3c-0.5-0.1-1-0.2-1.4-0.2c-0.7,0-1.3,0.2-1.8,0.5c-0.2,0.1-0.3,0.4-0.3,0.9V85.6z"/>
				<path class="st1" d="M74.2,94.1h-0.6c-0.2,0-0.4-0.1-0.5-0.4L67.9,81c0-0.1-0.1-0.2-0.1-0.3c0-0.2,0.1-0.3,0.3-0.3h3
					c0.3,0,0.5,0.1,0.6,0.4l2.6,6.9c0,0.1,0.1,0.2,0.1,0.2c0,0,0.1-0.1,0.1-0.2l2-7c0.1-0.2,0.3-0.3,0.6-0.3h1.1
					c0.3,0,0.5,0.1,0.5,0.4c0,0.1,0,0.1,0,0.2l-4.1,12.7C74.6,94,74.4,94.1,74.2,94.1z"/>
				<path class="st1" d="M85.6,87.5v2.3c0,1.2,0.2,1.9,0.7,2.1c0.3,0.2,0.7,0.3,1.2,0.3c0.5,0,1-0.1,1.7-0.2c1-0.3,2-0.9,2.9-1.9
					c0.1-0.2,0.3-0.3,0.5-0.3c0.1,0,0.3,0,0.5,0.1l0.5,0.4c0.2,0.1,0.3,0.2,0.3,0.4c0,0.1,0,0.3-0.1,0.5c-0.8,1.2-2.1,2.1-3.8,2.6
					c-0.8,0.2-1.6,0.3-2.3,0.3c-1.2,0-2.4-0.3-3.4-0.8c-1.7-0.9-2.8-2.1-3.3-3.8c-0.2-0.7-0.3-1.3-0.3-2c0-0.1,0-0.2,0-0.3
					c0-0.1,0-0.2,0-0.3c0-0.7,0.1-1.4,0.3-2c0.5-1.6,1.6-2.9,3.3-3.8c1.1-0.5,2.2-0.8,3.4-0.8c0.7,0,1.5,0.1,2.3,0.3
					c1.5,0.6,2.6,1.5,3.4,2.8c0.7,1.3,1,2.4,1,3.5V87c0,0.3-0.2,0.4-0.5,0.4H85.6z M85.6,85.6h5.9c0.3,0,0.5-0.1,0.5-0.2
					c-0.4-1.6-1.3-2.6-2.9-3c-0.5-0.1-1-0.2-1.4-0.2c-0.7,0-1.3,0.2-1.8,0.5c-0.2,0.1-0.3,0.4-0.3,0.9V85.6z"/>
				<path class="st1" d="M103.2,80.4c1.2,0.1,2.2,0.6,3.1,1.5c0.9,0.9,1.4,2,1.4,3.3c0,1.3-0.5,2.4-1.4,3.3c-0.5,0.5-0.9,0.8-1,0.9
					c-0.1,0.1-0.1,0.2-0.1,0.2c0,0,0,0.1,0,0.1l1.8,3l0.6,1c0,0.1,0.1,0.1,0.1,0.2c0,0.1-0.1,0.2-0.3,0.2h-1.9
					c-0.2,0-0.3-0.1-0.4-0.2l-2.2-3.9h-1.6c-0.3,0-0.4,0.1-0.4,0.3v3.2c0,0.4-0.2,0.6-0.6,0.6h-2.8c-0.3,0-0.5-0.2-0.5-0.5V81
					c0-0.3,0.2-0.5,0.6-0.5H103.2z M100.9,87.6c0,0.4,0.2,0.5,0.5,0.5h1.6c0.6,0,1.1-0.3,1.6-0.8c0.6-0.6,0.9-1.3,0.9-2.1
					c0-0.9-0.3-1.5-0.8-2.1c-0.6-0.6-1.3-0.8-2.1-0.9h-1.2c-0.4,0-0.6,0.2-0.6,0.5V87.6z"/>
				<path class="st1" d="M118.5,90.3v3.2c0,0.4-0.2,0.6-0.6,0.6h-2.7c-0.3,0-0.5-0.2-0.5-0.6v-3.2l-4.4-9.4c0-0.1-0.1-0.2-0.1-0.3
					c0-0.2,0.1-0.3,0.3-0.3h3c0.3,0,0.5,0.1,0.6,0.4l2.8,6c0,0.1,0.1,0.2,0.1,0.2c0,0,0.1-0.1,0.1-0.2l3-6.1
					c0.1-0.2,0.3-0.3,0.6-0.3h1.4c0.3,0,0.5,0.1,0.5,0.4c0,0.1,0,0.1,0,0.2L118.5,90.3z"/>
				<path class="st1" d="M136,80.4c1.8,0.1,3.2,0.8,4.4,2c1.2,1.3,1.8,2.9,1.8,4.8c0,1.9-0.6,3.4-1.9,4.7c-1.2,1.2-2.5,1.9-4,2.1
					h-5.9c-0.3,0-0.4-0.1-0.4-0.4V80.8c0-0.2,0.1-0.4,0.4-0.4H136z M133.6,83.2v8.3c0,0.5,0.2,0.8,0.7,0.8h1.2c1.2,0,2.2-0.5,3-1.4
					c0.9-1,1.4-2.2,1.4-3.6c0-1.4-0.5-2.6-1.4-3.6c-0.8-0.8-1.9-1.3-3.4-1.3h-0.9C133.8,82.3,133.6,82.6,133.6,83.2z"/>
				<path class="st1" d="M151.3,80.4c1.2,0.1,2.2,0.6,3.1,1.5c0.9,0.9,1.4,2,1.4,3.3c0,1.3-0.5,2.4-1.4,3.3c-0.5,0.5-0.9,0.8-1,0.9
					c-0.1,0.1-0.1,0.2-0.1,0.2c0,0,0,0.1,0,0.1l1.7,3l0.6,1c0,0.1,0.1,0.1,0.1,0.2c0,0.1-0.1,0.2-0.3,0.2h-1.9
					c-0.2,0-0.3-0.1-0.4-0.2l-2.2-3.9h-1.6c-0.3,0-0.4,0.1-0.4,0.3v3.2c0,0.4-0.2,0.6-0.6,0.6h-2.8c-0.3,0-0.5-0.2-0.5-0.5V81
					c0-0.3,0.2-0.5,0.6-0.5H151.3z M148.9,87.6c0,0.4,0.2,0.5,0.5,0.5h1.6c0.6,0,1.1-0.3,1.6-0.8c0.6-0.6,0.9-1.3,0.9-2.1
					c0-0.9-0.3-1.5-0.8-2.1c-0.6-0.6-1.3-0.8-2.1-0.9h-1.2c-0.4,0-0.6,0.2-0.6,0.5V87.6z"/>
				<path class="st1" d="M161.9,82.3h-3c-0.3,0-0.4-0.1-0.4-0.3v-1.2c0-0.3,0.2-0.4,0.5-0.4h2.9c0.3,0,0.4,0.1,0.4,0.4V82
					C162.3,82.2,162.2,82.3,161.9,82.3z M162.3,84.8v8.7c0,0.4-0.2,0.6-0.6,0.6H159c-0.3,0-0.5-0.2-0.5-0.6v-8.7
					c0-0.4,0.2-0.5,0.6-0.5h2.7C162.1,84.2,162.3,84.4,162.3,84.8z"/>
				<path class="st1" d="M169,80.7c0.5-0.2,1.2-0.3,1.8-0.3c0.4,0,0.7-0.1,1.1-0.1c1.5,0,2.8,0.4,3.8,1.1c1.3,0.9,1.9,2.1,1.9,3.4
					v8.7c0,0.3-0.1,0.5-0.4,0.5h-1.4c-0.4,0-0.6-0.2-0.6-0.6v-8.2c0-1.2-0.4-2.1-1.2-2.6c-0.6-0.4-1.3-0.6-2.1-0.6
					c-0.3,0-0.6,0-0.9,0.1c-1.2,0.2-1.9,0.5-2,1.1v10.3c0,0.4-0.2,0.6-0.6,0.6h-2.8c-0.3,0-0.5-0.2-0.5-0.6V81
					c0-0.3,0.2-0.5,0.6-0.5h2.7C168.8,80.4,169,80.5,169,80.7z"/>
				<path class="st1" d="M184.5,86.1c0,0.1,0.1,0.1,0.1,0.1c0.1,0,0.1-0.1,0.2-0.2l3.2-5.4c0.1-0.2,0.2-0.2,0.5-0.2h1.8
					c0.2,0,0.3,0.1,0.3,0.2c0,0,0,0.1,0,0.2l-2.9,5.1c0,0.1,0,0.1,0,0.1c0,0.1,0,0.1,0.1,0.1c0.6,0.2,1.3,0.8,2.2,1.7
					c1.4,1.4,2.1,3.1,2.1,5.1v0.6c0,0.3-0.1,0.5-0.4,0.5h-1.5c-0.3,0-0.4-0.1-0.4-0.4V93c0-1.5-0.5-2.8-1.6-3.9
					c-0.7-0.7-1.1-1-1.2-1.1c-0.1,0-0.1,0-0.1,0c-0.2,0-0.3,0.1-0.4,0.3l-1.7,3v2.3c0,0.4-0.2,0.6-0.6,0.6h-2.7
					c-0.3,0-0.5-0.2-0.5-0.6V81c0-0.3,0.2-0.5,0.6-0.5h2.6c0.4,0,0.6,0.2,0.6,0.6V86.1z"/>
			</g>
		</g>
		<g>
			<g>
				<path class="st1" d="M19.5,150.2l2,1.8c-2.6,2.3-5.4,3.5-8.5,3.5c-3.3,0-6.1-1.1-8.4-3.4c-2.3-2.3-3.4-5-3.4-8.2
					c0-3.2,1.1-5.9,3.4-8.2c2.3-2.3,5.1-3.5,8.4-3.5c3.1,0,5.9,1.2,8.5,3.5l-2,1.8c-2.1-1.8-4.3-2.8-6.5-2.8c-2.4,0-4.5,0.9-6.3,2.7
					s-2.7,3.9-2.7,6.5c0,2.6,0.9,4.7,2.7,6.5s3.9,2.6,6.3,2.6C15.2,153,17.4,152,19.5,150.2z"/>
				<path class="st1" d="M28.8,148.1v7.1h-2v-16h2v7.1h6.6v-7.1h2v16h-2v-7.1H28.8z"/>
				<path class="st1" d="M48.3,139.2l5.8,16h-2.1l-2.4-6.6h-4.3l-2.5,6.6h-2.1l5.9-16H48.3z M48.9,146.8l-1.5-4.2l-1.5,4.2H48.9z"/>
				<path class="st1" d="M71.9,139.2v16h-2v-13l-5.2,6.9l-5.3-6.9v13h-2v-16h2.1l5.1,6.7l5.1-6.7H71.9z"/>
				<path class="st1" d="M78.5,150v5.2h-2v-16H81c1.3,0.2,2.4,0.7,3.3,1.6c1,1,1.6,2.3,1.6,3.7c0,1.5-0.5,2.7-1.6,3.8
					c-1.1,1.1-2.4,1.6-3.9,1.6H78.5z M78.5,141v7.2h2c0.9,0,1.7-0.3,2.4-1c0.7-0.7,1-1.6,1-2.6c0-1-0.3-1.9-1-2.6
					c-0.7-0.7-1.5-1-2.4-1H78.5z"/>
				<path class="st1" d="M95.1,139.2l5.8,16h-2.1l-2.4-6.6H92l-2.5,6.6h-2.1l5.9-16H95.1z M95.7,146.8l-1.5-4.2l-1.5,4.2H95.7z"/>
				<path class="st1" d="M118,153c-1.6,1.6-3.5,2.4-5.7,2.4c-2.3,0-4.3-0.8-5.9-2.4c-1.6-1.6-2.4-3.5-2.4-5.8c0-2.2,0.8-4.1,2.4-5.7
					s3.6-2.4,5.9-2.4c2.2,0,4.1,0.8,5.9,2.5l-1.4,1.2c-1.5-1.3-3-1.9-4.5-1.9c-1.7,0-3.2,0.6-4.4,1.9c-1.2,1.2-1.9,2.8-1.9,4.5
					c0,1.8,0.6,3.3,1.9,4.6s2.7,1.9,4.4,1.9c1.5,0,2.7-0.4,3.7-1.2v-4.9h2V153z"/>
				<path class="st1" d="M124.5,139.2l9.1,12.8v-12.8h2v16h-2.2l-8.9-12.4v12.4h-2v-16H124.5z"/>
				<path class="st1" d="M149,139.2v1.7h-6.7v5.4h6.7v1.7h-6.7v5.4h6.7v1.7h-8.7v-16H149z"/>
				<path class="st1" d="M178.3,143.9c0.6,0,1.2,0.2,1.8,0.5c0.9,0.5,1.4,1.2,1.7,2.2c0.1,0.3,0.1,0.6,0.1,0.9
					c0,0.6-0.1,1.1-0.4,1.6c-0.5,0.9-1.3,1.5-2.6,1.9c-0.2,0.7-0.8,1.5-1.6,2.4c-1.4,1.4-3.1,2.1-5.2,2.1c-2,0-3.7-0.7-5.1-2.1
					s-2.1-3-2.1-4.9c0-1.9,0.7-3.5,2-5c0.9-1,1.7-1.5,2.4-1.6c-1.5-1.6-2.3-3.2-2.3-4.5c0-1.4,0.5-2.6,1.5-3.6c1-1,2.3-1.6,3.8-1.6
					c1.5,0,2.8,0.5,3.9,1.6c0.6,0.5,1,1.3,1.3,2.3l-2.5,1c-0.3-0.9-0.6-1.4-0.9-1.7c-0.5-0.5-1.1-0.7-1.7-0.7
					c-0.7,0-1.2,0.3-1.8,0.8c-0.5,0.5-0.8,1.2-0.8,2c0,0.8,0.3,1.5,0.8,2.1c0.5,0.6,1,0.9,1.4,1.1c0.4,0.2,1.2,0.2,2.5,0.3v2.4
					l-1.7,0c-1.7,0.3-3,1-3.9,1.9s-1.3,2.1-1.3,3.4c0,1.3,0.4,2.4,1.3,3.2c0.9,0.9,1.9,1.3,3.1,1.3c1.2,0,2.2-0.4,3.1-1.3
					c0.5-0.5,0.8-0.9,0.9-1.2c-0.4-0.3-0.9-0.7-1.6-1.4c-0.4-0.3-0.6-0.6-0.7-0.6c-0.1,0-0.1,0-0.1,0c0,0-0.1,0-0.1,0
					c-0.1,0-0.1,0.1-0.2,0.2c-0.1,0.1-0.1,0.2-0.1,0.3c0,0.1,0,0.1,0,0.2c0.1,0.2,0.1,0.3,0.2,0.3c0,0,0.1,0,0.2,0v2.4h-0.2
					c-0.5,0-1-0.1-1.5-0.4c-0.7-0.4-1.2-1-1.4-1.8c-0.1-0.3-0.1-0.5-0.1-0.8c0-0.5,0.1-0.9,0.4-1.4c0.4-0.7,1.1-1.2,1.9-1.5
					c0.3-0.1,0.6-0.1,0.9-0.1c0.6,0,1.1,0.1,1.6,0.4c0.4,0.2,0.9,0.7,1.6,1.3c0.5,0.4,0.8,0.7,1,0.8c0.1,0.1,0.2,0.1,0.3,0.1
					c0.1,0,0.1,0,0.2,0c0.2-0.1,0.4-0.2,0.6-0.5c0.1-0.2,0.2-0.4,0.2-0.6c0-0.1,0-0.2-0.1-0.3c-0.1-0.3-0.2-0.5-0.5-0.7
					c-0.1,0-0.2-0.1-0.3-0.1V143.9z"/>
				<path class="st1" d="M199.6,155.2v-22.8h2.9v20.3h8.2v2.5H199.6z"/>
				<path class="st1" d="M218.1,139.2v16h-2v-16H218.1z"/>
				<path class="st1" d="M237.3,139.2v16h-2v-13l-5.2,6.9l-5.3-6.9v13h-2v-16h2.1l5.1,6.7l5.1-6.7H237.3z"/>
				<path class="st1" d="M255.5,141.4c1.6,1.6,2.4,3.5,2.4,5.8c0,2.2-0.8,4.2-2.4,5.8c-1.6,1.6-3.6,2.4-5.9,2.4
					c-2.3,0-4.3-0.8-5.9-2.4c-1.6-1.6-2.4-3.5-2.4-5.8c0-2.2,0.8-4.1,2.4-5.8c1.6-1.6,3.6-2.4,5.9-2.4
					C251.9,139,253.9,139.8,255.5,141.4z M249.6,140.8c-1.7,0-3.2,0.6-4.4,1.9c-1.2,1.2-1.9,2.8-1.9,4.6c0,1.8,0.6,3.3,1.9,4.6
					c1.2,1.2,2.7,1.9,4.4,1.9c1.7,0,3.2-0.6,4.4-1.9c1.2-1.2,1.9-2.8,1.9-4.6c0-1.8-0.6-3.3-1.9-4.6S251.3,140.8,249.6,140.8z"/>
				<path class="st1" d="M271.1,139.2h2v11.3c-0.2,1.2-0.7,2.3-1.6,3.2c-1,1.1-2.3,1.6-3.9,1.6c-1.6,0-2.9-0.5-3.9-1.6
					c-1.1-1.1-1.6-2.3-1.6-3.8v-10.7h2V150c0,1,0.3,1.9,1,2.6c0.7,0.7,1.5,1,2.5,1c0.9,0,1.7-0.3,2.4-1c0.7-0.7,1-1.6,1-2.6V139.2z"
					/>
				<path class="st1" d="M282.3,146.8c-1.1-0.4-2.1-0.9-2.8-1.6s-1-1.5-1-2.5c0-1,0.4-1.8,1.1-2.5s1.6-1.1,2.7-1.1
					c1.1,0,2,0.4,2.7,1.1c0.4,0.4,0.7,0.9,0.9,1.6l-1.8,0.7c-0.2-0.6-0.4-1-0.6-1.2c-0.4-0.4-0.8-0.6-1.2-0.6
					c-0.5,0-0.9,0.2-1.2,0.5c-0.4,0.4-0.5,0.8-0.5,1.4c0,0.5,0.2,1,0.6,1.4c0.4,0.4,0.9,0.7,1.6,1c1.3,0.4,2.3,1.1,3.2,1.9
					c1,1,1.5,2.1,1.5,3.5c0,1.3-0.5,2.5-1.5,3.5s-2.2,1.5-3.6,1.5c-1.4,0-2.6-0.5-3.6-1.5c-0.8-0.8-1.2-1.7-1.4-3l1.9-0.7
					c0.1,1.2,0.4,2,1,2.5c0.6,0.6,1.3,0.9,2.1,0.9c0.8,0,1.5-0.3,2.1-0.9c0.6-0.6,0.9-1.4,0.9-2.3s-0.3-1.7-0.9-2.3
					C283.8,147.6,283.1,147.1,282.3,146.8z"/>
				<path class="st1" d="M293.5,139.2v16h-2v-16H293.5z"/>
				<path class="st1" d="M300.4,139.2l9.1,12.8v-12.8h2v16h-2.2l-8.9-12.4v12.4h-2v-16H300.4z"/>
				<path class="st1" d="M324.9,139.2v1.7h-6.7v5.4h6.7v1.7h-6.7v5.4h6.7v1.7h-8.7v-16H324.9z"/>
				<path class="st1" d="M334.1,146.8c-1.1-0.4-2.1-0.9-2.8-1.6s-1-1.5-1-2.5c0-1,0.4-1.8,1.1-2.5s1.6-1.1,2.7-1.1
					c1.1,0,2,0.4,2.7,1.1c0.4,0.4,0.7,0.9,0.9,1.6l-1.8,0.7c-0.2-0.6-0.4-1-0.6-1.2c-0.4-0.4-0.8-0.6-1.2-0.6
					c-0.5,0-0.9,0.2-1.2,0.5c-0.4,0.4-0.5,0.8-0.5,1.4c0,0.5,0.2,1,0.6,1.4c0.4,0.4,0.9,0.7,1.6,1c1.3,0.4,2.3,1.1,3.2,1.9
					c1,1,1.5,2.1,1.5,3.5c0,1.3-0.5,2.5-1.5,3.5s-2.2,1.5-3.6,1.5c-1.4,0-2.6-0.5-3.6-1.5c-0.8-0.8-1.2-1.7-1.4-3l1.9-0.7
					c0.1,1.2,0.4,2,1,2.5c0.6,0.6,1.3,0.9,2.1,0.9c0.8,0,1.5-0.3,2.1-0.9c0.6-0.6,0.9-1.4,0.9-2.3s-0.3-1.7-0.9-2.3
					C335.6,147.6,334.9,147.1,334.1,146.8z"/>
				<path class="st1" d="M14.7,173l-4,11.7h-0.7L7.4,177l-2.7,7.6H4L0,173h1.2l3.1,9.6l2.7-7.6h0.6l2.7,7.6l3.1-9.6H14.7z"/>
				<path class="st1" d="M18.8,177.9c0,0.2,0,0.4,0,0.6c0,1.5,0.5,2.8,1.6,3.8c1.1,1,2.3,1.6,3.8,1.6s2.8-0.5,3.8-1.6
					c0.2-0.2,0.3-0.4,0.5-0.6l1.1,0.4c-0.1,0.2-0.4,0.5-0.8,1c-1.3,1.3-2.8,1.9-4.6,1.9c-1.8,0-3.3-0.6-4.6-1.9s-1.9-2.8-1.9-4.6
					c0-1.8,0.6-3.4,1.9-4.6c1.3-1.3,2.8-1.9,4.6-1.9c1.8,0,3.4,0.6,4.6,1.9c1.1,1.1,1.7,2.5,1.7,4H18.8z M19,176.8h10.3
					c-0.3-0.8-0.7-1.5-1.3-2.1c-1.1-1.1-2.3-1.6-3.8-1.6s-2.8,0.5-3.8,1.6C19.7,175.3,19.3,176,19,176.8z"/>
				<path class="st1" d="M37.5,178.4c-0.9-0.5-1.5-0.9-1.9-1.3c-0.5-0.5-0.8-1.2-0.8-2c0-0.8,0.3-1.4,0.8-2c0.5-0.6,1.2-0.8,2-0.8
					s1.4,0.3,1.9,0.8c0.5,0.5,0.7,1.1,0.7,1.7v0.1l-0.9,0.4c-0.1-0.6-0.3-1.1-0.6-1.4c-0.3-0.3-0.7-0.5-1.2-0.5
					c-0.5,0-0.9,0.2-1.2,0.5c-0.3,0.3-0.5,0.8-0.5,1.2s0.2,0.9,0.5,1.2c0.2,0.2,0.6,0.5,1.3,0.9c1,0.5,1.7,1,2.2,1.5
					c0.7,0.7,1,1.5,1,2.4c0,1-0.3,1.8-1,2.5c-0.7,0.7-1.5,1-2.5,1c-1,0-1.8-0.3-2.5-1s-1-1.4-1-2.2l1.1-0.3c0,0.7,0.2,1.3,0.7,1.7
					c0.5,0.5,1,0.7,1.7,0.7s1.2-0.2,1.7-0.7c0.5-0.5,0.7-1,0.7-1.7c0-0.7-0.2-1.2-0.7-1.7C38.8,179.2,38.3,178.9,37.5,178.4z"/>
				<path class="st1" d="M46.9,173v-5h1.1v5h2.4v1.1h-2.4v10.6h-1.1V174h-2.4V173H46.9z"/>
				<path class="st1" d="M63.9,177.9c0,0.2,0,0.4,0,0.6c0,1.5,0.5,2.8,1.6,3.8c1.1,1,2.3,1.6,3.8,1.6s2.8-0.5,3.8-1.6
					c0.2-0.2,0.4-0.4,0.5-0.6l1.1,0.4c-0.1,0.2-0.4,0.5-0.8,1c-1.3,1.3-2.8,1.9-4.6,1.9c-1.8,0-3.3-0.6-4.6-1.9s-1.9-2.8-1.9-4.6
					c0-1.8,0.6-3.4,1.9-4.6c1.3-1.3,2.8-1.9,4.6-1.9c1.8,0,3.4,0.6,4.6,1.9c1.1,1.1,1.7,2.5,1.7,4H63.9z M64.1,176.8h10.3
					c-0.3-0.8-0.7-1.5-1.3-2.1c-1.1-1.1-2.3-1.6-3.8-1.6s-2.8,0.5-3.8,1.6C64.8,175.3,64.3,176,64.1,176.8z"/>
				<path class="st1" d="M90.8,182.3c-0.2,0.3-0.4,0.5-0.6,0.7c-1.3,1.3-2.8,1.9-4.6,1.9c-1.8,0-3.3-0.6-4.6-1.9s-1.9-2.8-1.9-4.6
					c0-1.8,0.6-3.4,1.9-4.6c1.3-1.3,2.8-1.9,4.6-1.9c1.8,0,3.4,0.6,4.6,1.9c0.2,0.3,0.5,0.5,0.7,0.8V173h1.1v9.1
					c0,1.8-0.6,3.3-1.9,4.5c-1.3,1.3-2.8,1.9-4.6,1.9s-3.3-0.6-4.6-1.9c-0.3-0.3-0.5-0.5-0.7-0.8l1.1-0.4c0.1,0.1,0.2,0.3,0.4,0.4
					c1.1,1.1,2.3,1.6,3.8,1.6c1.5,0,2.8-0.5,3.8-1.6C90.1,184.8,90.7,183.6,90.8,182.3z M90.8,177.3c-0.2-1-0.7-1.9-1.5-2.7
					c-1.1-1.1-2.3-1.6-3.8-1.6s-2.8,0.5-3.8,1.6c-1.1,1.1-1.6,2.3-1.6,3.8s0.5,2.8,1.6,3.8c1.1,1.1,2.3,1.6,3.8,1.6s2.8-0.5,3.8-1.6
					c0.8-0.8,1.3-1.7,1.5-2.7V177.3z"/>
				<path class="st1" d="M107.5,182.3c-0.2,0.3-0.4,0.5-0.6,0.7c-1.3,1.3-2.8,1.9-4.6,1.9c-1.8,0-3.3-0.6-4.6-1.9s-1.9-2.8-1.9-4.6
					c0-1.8,0.6-3.4,1.9-4.6c1.3-1.3,2.8-1.9,4.6-1.9c1.8,0,3.4,0.6,4.6,1.9c0.2,0.3,0.5,0.5,0.7,0.8V173h1.1v9.1
					c0,1.8-0.6,3.3-1.9,4.5c-1.3,1.3-2.8,1.9-4.6,1.9c-1.8,0-3.3-0.6-4.6-1.9c-0.3-0.3-0.5-0.5-0.7-0.8l1.1-0.4
					c0.1,0.1,0.2,0.3,0.4,0.4c1.1,1.1,2.3,1.6,3.8,1.6c1.5,0,2.8-0.5,3.8-1.6C106.9,184.8,107.5,183.6,107.5,182.3z M107.6,177.3
					c-0.2-1-0.7-1.9-1.5-2.7c-1.1-1.1-2.3-1.6-3.8-1.6s-2.8,0.5-3.8,1.6s-1.6,2.3-1.6,3.8s0.5,2.8,1.6,3.8c1.1,1.1,2.3,1.6,3.8,1.6
					s2.8-0.5,3.8-1.6c0.8-0.8,1.3-1.7,1.5-2.7V177.3z"/>
				<path class="st1" d="M132.3,181.8l1.1,0.4c-0.2,0.3-0.4,0.5-0.7,0.8c-1.3,1.3-2.8,1.9-4.6,1.9c-1.8,0-3.3-0.6-4.6-1.9
					s-1.9-2.8-1.9-4.6s0.6-3.3,1.9-4.6c1.3-1.3,2.8-1.9,4.6-1.9c1.8,0,3.4,0.6,4.6,1.9c0.3,0.3,0.5,0.5,0.7,0.8l-1.1,0.4
					c-0.1-0.1-0.2-0.3-0.4-0.4c-1.1-1.1-2.3-1.6-3.8-1.6c-1.5,0-2.7,0.5-3.8,1.6c-1.1,1.1-1.6,2.3-1.6,3.8s0.5,2.8,1.6,3.8
					c1.1,1.1,2.3,1.6,3.8,1.6c1.5,0,2.8-0.5,3.8-1.6C132.1,182.1,132.2,182,132.3,181.8z"/>
				<path class="st1" d="M137.6,165.6h1.1v8c0.9-0.9,2-1.3,3.3-1.3c1.4,0,2.5,0.4,3.4,1.3s1.3,2,1.3,3.3v7.8h-1.1v-7.7
					c0-1-0.4-1.8-1.1-2.5c-0.7-0.7-1.6-1.1-2.5-1.1c-1,0-1.8,0.3-2.5,1c-0.3,0.3-0.6,0.6-0.7,1v9.3h-1.1V165.6z"/>
				<path class="st1" d="M157.6,171.9c1.8,0,3.4,0.6,4.6,1.9c1.3,1.3,1.9,2.8,1.9,4.6c0,1.8-0.6,3.3-1.9,4.6
					c-1.3,1.3-2.8,1.9-4.6,1.9c-1.8,0-3.3-0.6-4.6-1.9s-1.9-2.8-1.9-4.6c0-1.8,0.6-3.4,1.9-4.6C154.3,172.5,155.8,171.9,157.6,171.9
					z M153.8,174.6c-1.1,1.1-1.6,2.3-1.6,3.8s0.5,2.8,1.6,3.8c1.1,1,2.3,1.6,3.8,1.6c1.5,0,2.8-0.5,3.8-1.6c1.1-1.1,1.6-2.3,1.6-3.8
					s-0.5-2.8-1.6-3.8s-2.3-1.6-3.8-1.6C156.1,173,154.8,173.6,153.8,174.6z"/>
				<path class="st1" d="M178.8,181.8l1.1,0.4c-0.2,0.3-0.4,0.5-0.7,0.8c-1.3,1.3-2.8,1.9-4.6,1.9c-1.8,0-3.3-0.6-4.6-1.9
					s-1.9-2.8-1.9-4.6s0.6-3.3,1.9-4.6c1.3-1.3,2.8-1.9,4.6-1.9c1.8,0,3.4,0.6,4.6,1.9c0.3,0.3,0.5,0.5,0.7,0.8l-1.1,0.4
					c-0.1-0.1-0.2-0.3-0.4-0.4c-1.1-1.1-2.3-1.6-3.8-1.6c-1.5,0-2.8,0.5-3.8,1.6s-1.6,2.3-1.6,3.8s0.5,2.8,1.6,3.8
					c1.1,1.1,2.3,1.6,3.8,1.6c1.5,0,2.8-0.5,3.8-1.6C178.5,182.1,178.6,182,178.8,181.8z"/>
				<path class="st1" d="M190.3,171.9c1.8,0,3.4,0.6,4.6,1.9c1.3,1.3,1.9,2.8,1.9,4.6c0,1.8-0.6,3.3-1.9,4.6
					c-1.3,1.3-2.8,1.9-4.6,1.9c-1.8,0-3.3-0.6-4.6-1.9s-1.9-2.8-1.9-4.6c0-1.8,0.6-3.4,1.9-4.6C187,172.5,188.5,171.9,190.3,171.9z
					 M186.5,174.6c-1.1,1.1-1.6,2.3-1.6,3.8s0.5,2.8,1.6,3.8c1.1,1,2.3,1.6,3.8,1.6c1.5,0,2.8-0.5,3.8-1.6c1.1-1.1,1.6-2.3,1.6-3.8
					s-0.5-2.8-1.6-3.8s-2.3-1.6-3.8-1.6C188.8,173,187.5,173.6,186.5,174.6z"/>
				<path class="st1" d="M202.6,165.6v19h-1.1v-19H202.6z"/>
				<path class="st1" d="M220.2,184.7h-1.1v-2.4c-0.2,0.3-0.4,0.5-0.7,0.8c-1.3,1.3-2.8,1.9-4.6,1.9c-1.8,0-3.3-0.6-4.6-1.9
					s-1.9-2.8-1.9-4.6c0-1.8,0.6-3.4,1.9-4.6c1.3-1.3,2.8-1.9,4.6-1.9c1.8,0,3.4,0.6,4.6,1.9c0.2,0.3,0.5,0.5,0.7,0.8V173h1.1V184.7
					z M219.1,179.5v-2.1c-0.2-1.1-0.7-2-1.5-2.8c-1.1-1.1-2.3-1.6-3.8-1.6s-2.8,0.5-3.8,1.6s-1.6,2.3-1.6,3.8s0.5,2.8,1.6,3.8
					c1.1,1,2.3,1.6,3.8,1.6s2.8-0.5,3.8-1.6C218.4,181.5,218.9,180.5,219.1,179.5z"/>
				<path class="st1" d="M226.4,173v-5h1.1v5h2.4v1.1h-2.4v10.6h-1.1V174H224V173H226.4z"/>
				<path class="st1" d="M234.3,177.9c0,0.2,0,0.4,0,0.6c0,1.5,0.5,2.8,1.6,3.8c1.1,1,2.3,1.6,3.8,1.6s2.8-0.5,3.8-1.6
					c0.2-0.2,0.4-0.4,0.5-0.6l1.1,0.4c-0.1,0.2-0.4,0.5-0.8,1c-1.3,1.3-2.8,1.9-4.6,1.9c-1.8,0-3.3-0.6-4.6-1.9s-1.9-2.8-1.9-4.6
					c0-1.8,0.6-3.4,1.9-4.6c1.3-1.3,2.8-1.9,4.6-1.9c1.8,0,3.4,0.6,4.6,1.9c1.1,1.1,1.7,2.5,1.7,4H234.3z M234.5,176.8h10.3
					c-0.3-0.8-0.7-1.5-1.3-2.1c-1.1-1.1-2.3-1.6-3.8-1.6s-2.8,0.5-3.8,1.6C235.2,175.3,234.8,176,234.5,176.8z"/>
				<path class="st1" d="M265.2,171.9c1.8,0,3.4,0.6,4.6,1.9c1.3,1.3,1.9,2.8,1.9,4.6c0,1.8-0.6,3.3-1.9,4.6
					c-1.3,1.3-2.8,1.9-4.6,1.9c-1.8,0-3.3-0.6-4.6-1.9s-1.9-2.8-1.9-4.6c0-1.8,0.6-3.4,1.9-4.6C261.9,172.5,263.4,171.9,265.2,171.9
					z M261.4,174.6c-1.1,1.1-1.6,2.3-1.6,3.8s0.5,2.8,1.6,3.8c1.1,1,2.3,1.6,3.8,1.6s2.8-0.5,3.8-1.6c1.1-1.1,1.6-2.3,1.6-3.8
					s-0.5-2.8-1.6-3.8s-2.3-1.6-3.8-1.6S262.5,173.6,261.4,174.6z"/>
				<path class="st1" d="M277.5,174v10.6h-1.1V174h-1.2V173h1.2v-3.2c0.1-0.9,0.4-1.6,1-2.3c0.7-0.6,1.4-0.9,2.2-0.9
					c0.4,0,0.9,0.1,1.4,0.3l-0.3,1c-0.3-0.1-0.7-0.2-1-0.2c-0.6,0-1.1,0.2-1.6,0.7c-0.4,0.4-0.7,1-0.7,1.6v3.1h2.4v1.1H277.5z"/>
				<path class="st1" d="M284.9,174v10.6h-1.1V174h-1.2V173h1.2v-3.2c0.1-0.9,0.4-1.6,1-2.3c0.7-0.6,1.4-0.9,2.2-0.9
					c0.4,0,0.9,0.1,1.4,0.3l-0.3,1c-0.3-0.1-0.7-0.2-1-0.2c-0.6,0-1.1,0.2-1.6,0.7c-0.4,0.4-0.7,1-0.7,1.6v3.1h2.4v1.1H284.9z"/>
				<path class="st1" d="M291.6,177.9c0,0.2,0,0.4,0,0.6c0,1.5,0.5,2.8,1.6,3.8c1.1,1,2.3,1.6,3.8,1.6s2.8-0.5,3.8-1.6
					c0.2-0.2,0.4-0.4,0.5-0.6l1.1,0.4c-0.1,0.2-0.4,0.5-0.8,1c-1.3,1.3-2.8,1.9-4.6,1.9c-1.8,0-3.3-0.6-4.6-1.9s-1.9-2.8-1.9-4.6
					c0-1.8,0.6-3.4,1.9-4.6c1.3-1.3,2.8-1.9,4.6-1.9c1.8,0,3.4,0.6,4.6,1.9c1.1,1.1,1.7,2.5,1.7,4H291.6z M291.8,176.8H302
					c-0.3-0.8-0.7-1.5-1.3-2.1c-1.1-1.1-2.3-1.6-3.8-1.6s-2.8,0.5-3.8,1.6C292.5,175.3,292,176,291.8,176.8z"/>
				<path class="st1" d="M311.4,173.9c-0.8,0.1-1.5,0.6-2.2,1.5c-0.7,0.9-1.1,1.7-1.1,2.6v6.7H307V173h1.1v2.5
					c0.4-1.2,1.4-2.1,2.8-2.6L311.4,173.9z"/>
				<path class="st1" d="M318,178.4c-0.9-0.5-1.5-0.9-1.9-1.3c-0.5-0.5-0.8-1.2-0.8-2c0-0.8,0.3-1.4,0.8-2s1.2-0.8,2-0.8
					c0.8,0,1.4,0.3,1.9,0.8c0.5,0.5,0.7,1.1,0.7,1.7v0.1l-0.9,0.4c-0.1-0.6-0.3-1.1-0.6-1.4c-0.3-0.3-0.7-0.5-1.2-0.5
					c-0.5,0-0.9,0.2-1.2,0.5c-0.3,0.3-0.5,0.8-0.5,1.2s0.2,0.9,0.5,1.2c0.2,0.2,0.6,0.5,1.3,0.9c1,0.5,1.7,1,2.2,1.5
					c0.7,0.7,1,1.5,1,2.4c0,1-0.3,1.8-1,2.5c-0.7,0.7-1.5,1-2.5,1c-1,0-1.8-0.3-2.5-1c-0.7-0.7-1-1.4-1-2.2l1.1-0.3
					c0,0.7,0.2,1.3,0.7,1.7c0.5,0.5,1,0.7,1.7,0.7s1.2-0.2,1.7-0.7c0.5-0.5,0.7-1,0.7-1.7c0-0.7-0.2-1.2-0.7-1.7
					C319.2,179.2,318.7,178.9,318,178.4z"/>
				<path class="st1" d="M347.4,184.7h-1.1v-2.4c-0.2,0.3-0.4,0.5-0.7,0.8c-1.3,1.3-2.8,1.9-4.6,1.9c-1.8,0-3.3-0.6-4.6-1.9
					s-1.9-2.8-1.9-4.6c0-1.8,0.6-3.4,1.9-4.6c1.3-1.3,2.8-1.9,4.6-1.9c1.8,0,3.4,0.6,4.6,1.9c0.2,0.3,0.5,0.5,0.7,0.8V173h1.1V184.7
					z M346.4,179.5v-2.1c-0.2-1.1-0.7-2-1.5-2.8c-1.1-1.1-2.3-1.6-3.8-1.6s-2.8,0.5-3.8,1.6s-1.6,2.3-1.6,3.8s0.5,2.8,1.6,3.8
					c1.1,1,2.3,1.6,3.8,1.6s2.8-0.5,3.8-1.6C345.7,181.5,346.2,180.5,346.4,179.5z"/>
				<path class="st1" d="M2.4,201v9.1H1.3v-11.7h1.1v0.8c1-1,2.1-1.5,3.4-1.5c1.4,0,2.5,0.4,3.4,1.3s1.3,2,1.3,3.3v7.8H9.4v-7.7
					c0-1-0.4-1.8-1.1-2.5c-0.7-0.7-1.6-1-2.6-1c-1,0-1.8,0.3-2.5,1C2.9,200.2,2.6,200.6,2.4,201z"/>
				<path class="st1" d="M15.9,203.3c0,0.2,0,0.4,0,0.6c0,1.5,0.5,2.8,1.6,3.8s2.3,1.6,3.8,1.6s2.8-0.5,3.8-1.6
					c0.2-0.2,0.4-0.4,0.5-0.6l1.1,0.4c-0.1,0.2-0.4,0.5-0.8,1c-1.3,1.3-2.8,1.9-4.6,1.9c-1.8,0-3.3-0.6-4.6-1.9s-1.9-2.8-1.9-4.6
					c0-1.8,0.6-3.4,1.9-4.6s2.8-1.9,4.6-1.9c1.8,0,3.4,0.6,4.6,1.9c1.1,1.1,1.7,2.5,1.7,4H15.9z M16.1,202.2h10.3
					c-0.3-0.8-0.7-1.5-1.3-2.1c-1.1-1.1-2.3-1.6-3.8-1.6s-2.8,0.5-3.8,1.6C16.8,200.7,16.4,201.4,16.1,202.2z"/>
				<path class="st1" d="M45,198.4l-4,11.7h-0.7l-2.7-7.6l-2.7,7.6h-0.7l-4-11.7h1.2l3.1,9.6l2.7-7.6H38l2.7,7.6l3.1-9.6H45z"/>
				<path class="st1" d="M68.8,207.8c-0.2,0.3-0.4,0.5-0.6,0.7c-1.3,1.3-2.8,1.9-4.6,1.9c-1.8,0-3.3-0.6-4.6-1.9s-1.9-2.8-1.9-4.6
					c0-1.8,0.6-3.4,1.9-4.6s2.8-1.9,4.6-1.9c1.8,0,3.4,0.6,4.6,1.9c0.2,0.3,0.5,0.5,0.7,0.8v-1.7h1.1v9.1c0,1.8-0.6,3.3-1.9,4.5
					c-1.3,1.3-2.8,1.9-4.6,1.9s-3.3-0.6-4.6-1.9c-0.3-0.3-0.5-0.5-0.7-0.8l1.1-0.4c0.1,0.1,0.2,0.3,0.4,0.4c1.1,1.1,2.3,1.6,3.8,1.6
					c1.5,0,2.8-0.5,3.8-1.6C68.2,210.2,68.7,209.1,68.8,207.8z M68.8,202.8c-0.2-1-0.7-1.9-1.5-2.7c-1.1-1.1-2.3-1.6-3.8-1.6
					s-2.8,0.5-3.8,1.6c-1.1,1.1-1.6,2.3-1.6,3.8s0.5,2.8,1.6,3.8c1.1,1.1,2.3,1.6,3.8,1.6s2.8-0.5,3.8-1.6c0.8-0.8,1.3-1.7,1.5-2.7
					V202.8z"/>
				<path class="st1" d="M87,210.1h-1.1v-2.4c-0.2,0.3-0.4,0.5-0.7,0.8c-1.3,1.3-2.8,1.9-4.6,1.9c-1.8,0-3.3-0.6-4.6-1.9
					s-1.9-2.8-1.9-4.6c0-1.8,0.6-3.4,1.9-4.6s2.8-1.9,4.6-1.9c1.8,0,3.4,0.6,4.6,1.9c0.2,0.3,0.5,0.5,0.7,0.8v-1.7H87V210.1z
					 M85.9,204.9v-2.1c-0.2-1-0.7-2-1.5-2.8c-1.1-1.1-2.3-1.6-3.8-1.6c-1.5,0-2.8,0.5-3.8,1.6c-1.1,1.1-1.6,2.3-1.6,3.8
					s0.5,2.8,1.6,3.8c1.1,1.1,2.3,1.6,3.8,1.6c1.5,0,2.8-0.5,3.8-1.6C85.2,206.9,85.7,206,85.9,204.9z"/>
				<path class="st1" d="M94.7,203.8c-0.9-0.5-1.5-0.9-1.9-1.3c-0.5-0.5-0.8-1.2-0.8-2c0-0.8,0.3-1.4,0.8-2c0.5-0.6,1.2-0.8,2-0.8
					c0.8,0,1.4,0.3,1.9,0.8c0.5,0.5,0.7,1.1,0.7,1.7v0.1l-0.9,0.4c-0.1-0.6-0.3-1.1-0.6-1.4c-0.3-0.3-0.7-0.5-1.2-0.5
					c-0.5,0-0.9,0.2-1.2,0.5c-0.3,0.3-0.5,0.7-0.5,1.2c0,0.5,0.2,0.9,0.5,1.2c0.2,0.2,0.6,0.5,1.3,0.9c1,0.5,1.7,1,2.2,1.5
					c0.7,0.7,1,1.5,1,2.4c0,1-0.3,1.8-1,2.5c-0.7,0.7-1.5,1-2.5,1s-1.8-0.3-2.5-1c-0.7-0.7-1-1.4-1-2.2l1.1-0.3
					c0,0.7,0.2,1.3,0.7,1.7c0.5,0.5,1,0.7,1.7,0.7c0.7,0,1.2-0.2,1.7-0.7c0.5-0.5,0.7-1,0.7-1.7c0-0.7-0.2-1.2-0.7-1.7
					C96,204.7,95.5,204.3,94.7,203.8z"/>
				<path class="st1" d="M104.1,198.4v-5h1.1v5h2.4v1.1h-2.4v10.6h-1.1v-10.6h-2.4v-1.1H104.1z"/>
				<path class="st1" d="M115.6,199.3c-0.8,0.1-1.5,0.6-2.2,1.5s-1.1,1.7-1.1,2.6v6.7h-1.1v-11.7h1.1v2.5c0.4-1.2,1.4-2.1,2.8-2.6
					L115.6,199.3z"/>
				<path class="st1" d="M125.3,197.4c1.8,0,3.4,0.6,4.6,1.9c1.3,1.3,1.9,2.8,1.9,4.6c0,1.8-0.6,3.3-1.9,4.6
					c-1.3,1.3-2.8,1.9-4.6,1.9c-1.8,0-3.3-0.6-4.6-1.9s-1.9-2.8-1.9-4.6c0-1.8,0.6-3.4,1.9-4.6S123.5,197.4,125.3,197.4z
					 M121.5,200.1c-1.1,1.1-1.6,2.3-1.6,3.8s0.5,2.8,1.6,3.8c1.1,1.1,2.3,1.6,3.8,1.6c1.5,0,2.8-0.5,3.8-1.6s1.6-2.3,1.6-3.8
					s-0.5-2.8-1.6-3.8c-1.1-1.1-2.3-1.6-3.8-1.6C123.8,198.5,122.6,199,121.5,200.1z"/>
				<path class="st1" d="M137.4,201v9.1h-1.1v-11.7h1.1v0.8c1-1,2.1-1.5,3.4-1.5c1.4,0,2.5,0.4,3.4,1.3c0.9,0.9,1.3,2,1.3,3.3v7.8
					h-1.1v-7.7c0-1-0.4-1.8-1.1-2.5s-1.6-1-2.6-1c-1,0-1.8,0.3-2.5,1C137.9,200.2,137.6,200.6,137.4,201z"/>
				<path class="st1" d="M156.6,197.4c1.8,0,3.4,0.6,4.6,1.9c1.3,1.3,1.9,2.8,1.9,4.6c0,1.8-0.6,3.3-1.9,4.6
					c-1.3,1.3-2.8,1.9-4.6,1.9c-1.8,0-3.3-0.6-4.6-1.9s-1.9-2.8-1.9-4.6c0-1.8,0.6-3.4,1.9-4.6S154.8,197.4,156.6,197.4z
					 M152.8,200.1c-1.1,1.1-1.6,2.3-1.6,3.8s0.5,2.8,1.6,3.8s2.3,1.6,3.8,1.6s2.8-0.5,3.8-1.6s1.6-2.3,1.6-3.8s-0.5-2.8-1.6-3.8
					c-1.1-1.1-2.3-1.6-3.8-1.6S153.8,199,152.8,200.1z"/>
				<path class="st1" d="M167.6,198.4h1.1v0.3c0.7-0.6,1.5-1,2.4-1c1,0,1.8,0.3,2.5,1c0.2,0.2,0.3,0.4,0.5,0.6
					c0.1-0.2,0.3-0.4,0.5-0.6c0.7-0.7,1.5-1,2.5-1c1,0,1.8,0.3,2.5,1c0.6,0.7,1,1.4,1,2.3v9h-1.1v-9h0c0-0.6-0.3-1.1-0.7-1.6
					c-0.5-0.5-1-0.7-1.7-0.7c-0.7,0-1.2,0.2-1.7,0.7s-0.7,1.1-0.7,1.8v8.8h-1.1v-9h0c0-0.6-0.3-1.1-0.7-1.6c-0.5-0.5-1-0.7-1.7-0.7
					s-1.2,0.2-1.7,0.7c-0.4,0.4-0.6,0.9-0.7,1.5v9.1h-1.1V198.4z"/>
				<path class="st1" d="M186.8,194.6c0.2,0.2,0.3,0.5,0.3,0.7c0,0.3-0.1,0.6-0.3,0.8c-0.2,0.2-0.5,0.3-0.7,0.3
					c-0.3,0-0.5-0.1-0.8-0.3c-0.2-0.2-0.3-0.5-0.3-0.8c0-0.3,0.1-0.5,0.3-0.7c0.2-0.2,0.5-0.3,0.8-0.3
					C186.4,194.3,186.6,194.4,186.8,194.6z M186.6,198.4v11.7h-1.1v-11.7H186.6z"/>
				<path class="st1" d="M201.9,207.3l1.1,0.4c-0.2,0.3-0.4,0.5-0.7,0.8c-1.3,1.3-2.8,1.9-4.6,1.9c-1.8,0-3.3-0.6-4.6-1.9
					s-1.9-2.8-1.9-4.6s0.6-3.3,1.9-4.6s2.8-1.9,4.6-1.9c1.8,0,3.4,0.6,4.6,1.9c0.3,0.3,0.5,0.5,0.7,0.8l-1.1,0.4
					c-0.1-0.1-0.2-0.3-0.4-0.4c-1.1-1.1-2.3-1.6-3.8-1.6c-1.5,0-2.8,0.5-3.8,1.6c-1.1,1.1-1.6,2.3-1.6,3.8s0.5,2.8,1.6,3.8
					s2.3,1.6,3.8,1.6c1.5,0,2.8-0.5,3.8-1.6C201.6,207.6,201.7,207.4,201.9,207.3z"/>
				<path class="st1" d="M219.8,210.1h-1.1v-2.4c-0.2,0.3-0.4,0.5-0.7,0.8c-1.3,1.3-2.8,1.9-4.6,1.9c-1.8,0-3.3-0.6-4.6-1.9
					s-1.9-2.8-1.9-4.6c0-1.8,0.6-3.4,1.9-4.6s2.8-1.9,4.6-1.9c1.8,0,3.4,0.6,4.6,1.9c0.2,0.3,0.5,0.5,0.7,0.8v-1.7h1.1V210.1z
					 M218.7,204.9v-2.1c-0.2-1-0.7-2-1.5-2.8c-1.1-1.1-2.3-1.6-3.8-1.6s-2.8,0.5-3.8,1.6c-1.1,1.1-1.6,2.3-1.6,3.8s0.5,2.8,1.6,3.8
					c1.1,1.1,2.3,1.6,3.8,1.6s2.8-0.5,3.8-1.6C218,206.9,218.5,206,218.7,204.9z"/>
				<path class="st1" d="M225.8,191.1v19h-1.1v-19H225.8z"/>
				<path class="st1" d="M240.4,203.3c0,0.2,0,0.4,0,0.6c0,1.5,0.5,2.8,1.6,3.8s2.3,1.6,3.8,1.6s2.8-0.5,3.8-1.6
					c0.2-0.2,0.4-0.4,0.5-0.6l1.1,0.4c-0.1,0.2-0.4,0.5-0.8,1c-1.3,1.3-2.8,1.9-4.6,1.9c-1.8,0-3.3-0.6-4.6-1.9s-1.9-2.8-1.9-4.6
					c0-1.8,0.6-3.4,1.9-4.6s2.8-1.9,4.6-1.9c1.8,0,3.4,0.6,4.6,1.9c1.1,1.1,1.7,2.5,1.7,4H240.4z M240.6,202.2h10.3
					c-0.3-0.8-0.7-1.5-1.3-2.1c-1.1-1.1-2.3-1.6-3.8-1.6s-2.8,0.5-3.8,1.6C241.3,200.7,240.8,201.4,240.6,202.2z"/>
				<path class="st1" d="M258.6,203.9l-3.4-5.5h1.3l2.8,4.5l2.8-4.5h1.3l-3.4,5.5l3.8,6.2h-1.2l-3.2-5.2l-3.2,5.2h-1.2L258.6,203.9z
					"/>
				<path class="st1" d="M267.1,198.4h1.1v1.6c0.2-0.3,0.4-0.5,0.7-0.8c1.3-1.3,2.8-1.9,4.6-1.9s3.3,0.6,4.6,1.9
					c1.3,1.3,1.9,2.8,1.9,4.6c0,1.8-0.6,3.3-1.9,4.6c-1.3,1.3-2.8,1.9-4.6,1.9s-3.3-0.6-4.6-1.9c-0.3-0.3-0.5-0.5-0.7-0.8v6.8h-1.1
					V198.4z M268.2,202.8v2.2c0.2,1,0.7,1.9,1.5,2.7c1.1,1.1,2.3,1.6,3.8,1.6s2.8-0.5,3.8-1.6c1.1-1.1,1.6-2.3,1.6-3.8
					s-0.5-2.8-1.6-3.8c-1.1-1.1-2.3-1.6-3.8-1.6s-2.8,0.5-3.8,1.6C268.9,200.9,268.4,201.8,268.2,202.8z"/>
				<path class="st1" d="M284.9,203.3c0,0.2,0,0.4,0,0.6c0,1.5,0.5,2.8,1.6,3.8c1.1,1.1,2.3,1.6,3.8,1.6s2.8-0.5,3.8-1.6
					c0.2-0.2,0.4-0.4,0.5-0.6l1.1,0.4c-0.1,0.2-0.4,0.5-0.8,1c-1.3,1.3-2.8,1.9-4.6,1.9c-1.8,0-3.3-0.6-4.6-1.9s-1.9-2.8-1.9-4.6
					c0-1.8,0.6-3.4,1.9-4.6s2.8-1.9,4.6-1.9c1.8,0,3.4,0.6,4.6,1.9c1.1,1.1,1.7,2.5,1.7,4H284.9z M285.1,202.2h10.3
					c-0.3-0.8-0.7-1.5-1.3-2.1c-1.1-1.1-2.3-1.6-3.8-1.6s-2.8,0.5-3.8,1.6C285.8,200.7,285.4,201.4,285.1,202.2z"/>
				<path class="st1" d="M304.7,199.3c-0.8,0.1-1.5,0.6-2.2,1.5c-0.7,0.9-1.1,1.7-1.1,2.6v6.7h-1.1v-11.7h1.1v2.5
					c0.4-1.2,1.4-2.1,2.8-2.6L304.7,199.3z"/>
				<path class="st1" d="M309.8,194.6c0.2,0.2,0.3,0.5,0.3,0.7c0,0.3-0.1,0.6-0.3,0.8c-0.2,0.2-0.5,0.3-0.7,0.3
					c-0.3,0-0.6-0.1-0.8-0.3c-0.2-0.2-0.3-0.5-0.3-0.8c0-0.3,0.1-0.5,0.3-0.7c0.2-0.2,0.5-0.3,0.8-0.3
					C309.4,194.3,309.6,194.4,309.8,194.6z M309.6,198.4v11.7h-1.1v-11.7H309.6z"/>
				<path class="st1" d="M315.3,203.3c0,0.2,0,0.4,0,0.6c0,1.5,0.5,2.8,1.6,3.8c1.1,1.1,2.3,1.6,3.8,1.6s2.8-0.5,3.8-1.6
					c0.2-0.2,0.4-0.4,0.5-0.6l1.1,0.4c-0.1,0.2-0.4,0.5-0.8,1c-1.3,1.3-2.8,1.9-4.6,1.9c-1.8,0-3.3-0.6-4.6-1.9s-1.9-2.8-1.9-4.6
					c0-1.8,0.6-3.4,1.9-4.6s2.8-1.9,4.6-1.9c1.8,0,3.4,0.6,4.6,1.9c1.1,1.1,1.7,2.5,1.7,4H315.3z M315.5,202.2h10.3
					c-0.3-0.8-0.7-1.5-1.3-2.1c-1.1-1.1-2.3-1.6-3.8-1.6s-2.8,0.5-3.8,1.6C316.2,200.7,315.7,201.4,315.5,202.2z"/>
				<path class="st1" d="M332.1,201v9.1H331v-11.7h1.1v0.8c1-1,2.1-1.5,3.4-1.5c1.4,0,2.5,0.4,3.4,1.3c0.9,0.9,1.3,2,1.3,3.3v7.8
					h-1.1v-7.7c0-1-0.4-1.8-1.1-2.5c-0.7-0.7-1.6-1-2.6-1c-1,0-1.8,0.3-2.5,1C332.5,200.2,332.2,200.6,332.1,201z"/>
				<path class="st1" d="M355.1,207.3l1.1,0.4c-0.2,0.3-0.4,0.5-0.7,0.8c-1.3,1.3-2.8,1.9-4.6,1.9c-1.8,0-3.3-0.6-4.6-1.9
					s-1.9-2.8-1.9-4.6s0.6-3.3,1.9-4.6s2.8-1.9,4.6-1.9c1.8,0,3.4,0.6,4.6,1.9c0.3,0.3,0.5,0.5,0.7,0.8l-1.1,0.4
					c-0.1-0.1-0.2-0.3-0.4-0.4c-1.1-1.1-2.3-1.6-3.8-1.6c-1.5,0-2.7,0.5-3.8,1.6c-1.1,1.1-1.6,2.3-1.6,3.8s0.5,2.8,1.6,3.8
					c1.1,1.1,2.3,1.6,3.8,1.6c1.5,0,2.8-0.5,3.8-1.6C354.9,207.6,355,207.4,355.1,207.3z"/>
				<path class="st1" d="M361,203.3c0,0.2,0,0.4,0,0.6c0,1.5,0.5,2.8,1.6,3.8c1.1,1.1,2.3,1.6,3.8,1.6s2.8-0.5,3.8-1.6
					c0.2-0.2,0.4-0.4,0.5-0.6l1.1,0.4c-0.1,0.2-0.4,0.5-0.8,1c-1.3,1.3-2.8,1.9-4.6,1.9c-1.8,0-3.3-0.6-4.6-1.9s-1.9-2.8-1.9-4.6
					c0-1.8,0.6-3.4,1.9-4.6s2.8-1.9,4.6-1.9c1.8,0,3.4,0.6,4.6,1.9c1.1,1.1,1.7,2.5,1.7,4H361z M361.2,202.2h10.3
					c-0.3-0.8-0.7-1.5-1.3-2.1c-1.1-1.1-2.3-1.6-3.8-1.6s-2.8,0.5-3.8,1.6C361.9,200.7,361.5,201.4,361.2,202.2z"/>
				<path class="st1" d="M14.7,223.8l-4,11.7h-0.7l-2.7-7.6l-2.7,7.6H4l-4-11.7h1.2l3.1,9.6l2.7-7.6h0.6l2.7,7.6l3.1-9.6H14.7z"/>
				<path class="st1" d="M19.8,220c0.2,0.2,0.3,0.5,0.3,0.7c0,0.3-0.1,0.6-0.3,0.8c-0.2,0.2-0.5,0.3-0.7,0.3c-0.3,0-0.6-0.1-0.8-0.3
					c-0.2-0.2-0.3-0.5-0.3-0.8c0-0.3,0.1-0.5,0.3-0.7c0.2-0.2,0.5-0.3,0.8-0.3C19.4,219.7,19.6,219.8,19.8,220z M19.6,223.8v11.7
					h-1.1v-11.7H19.6z"/>
				<path class="st1" d="M26.2,223.8v-5h1.1v5h2.4v1.1h-2.4v10.6h-1.1v-10.6h-2.4v-1.1H26.2z"/>
				<path class="st1" d="M33.6,216.5h1.1v8c0.9-0.9,2-1.3,3.3-1.3c1.4,0,2.5,0.4,3.4,1.3c0.9,0.9,1.3,2,1.3,3.3v7.8h-1.1v-7.7
					c0-1-0.4-1.8-1.1-2.5s-1.6-1.1-2.5-1.1c-1,0-1.8,0.3-2.5,1c-0.3,0.3-0.6,0.6-0.7,1v9.3h-1.1V216.5z"/>
				<path class="st1" d="M57,228.7c0,0.2,0,0.4,0,0.6c0,1.5,0.5,2.8,1.6,3.8c1.1,1,2.3,1.6,3.8,1.6s2.8-0.5,3.8-1.6
					c0.2-0.2,0.3-0.4,0.5-0.6l1.1,0.4c-0.1,0.2-0.4,0.5-0.8,1c-1.3,1.3-2.8,1.9-4.6,1.9c-1.8,0-3.3-0.6-4.6-1.9s-1.9-2.8-1.9-4.6
					c0-1.8,0.6-3.4,1.9-4.6c1.3-1.3,2.8-1.9,4.6-1.9c1.8,0,3.4,0.6,4.6,1.9c1.1,1.1,1.7,2.5,1.7,4H57z M57.2,227.6h10.3
					c-0.3-0.8-0.7-1.5-1.3-2.1c-1.1-1.1-2.3-1.6-3.8-1.6s-2.8,0.5-3.8,1.6C57.9,226.2,57.5,226.9,57.2,227.6z"/>
				<path class="st1" d="M82.3,223.8l-5.2,11.7h-0.6l-5.2-11.7h1.3l4.2,9.7l4.3-9.7H82.3z"/>
				<path class="st1" d="M86.4,228.7c0,0.2,0,0.4,0,0.6c0,1.5,0.5,2.8,1.6,3.8c1.1,1,2.3,1.6,3.8,1.6s2.8-0.5,3.8-1.6
					c0.2-0.2,0.3-0.4,0.5-0.6l1.1,0.4c-0.1,0.2-0.4,0.5-0.8,1c-1.3,1.3-2.8,1.9-4.6,1.9c-1.8,0-3.3-0.6-4.6-1.9s-1.9-2.8-1.9-4.6
					c0-1.8,0.6-3.4,1.9-4.6c1.3-1.3,2.8-1.9,4.6-1.9c1.8,0,3.4,0.6,4.6,1.9c1.1,1.1,1.7,2.5,1.7,4H86.4z M86.6,227.6h10.3
					c-0.3-0.8-0.7-1.5-1.3-2.1c-1.1-1.1-2.3-1.6-3.8-1.6s-2.8,0.5-3.8,1.6C87.3,226.2,86.9,226.9,86.6,227.6z"/>
				<path class="st1" d="M106.2,224.8c-0.8,0.1-1.5,0.6-2.2,1.5c-0.7,0.9-1.1,1.7-1.1,2.6v6.7h-1.1v-11.7h1.1v2.5
					c0.4-1.2,1.4-2.1,2.8-2.6L106.2,224.8z"/>
				<path class="st1" d="M112.7,240h-1.2l3.1-6.6l-4.4-9.5h1.2l3.8,8.2l3.9-8.2h1.2L112.7,240z"/>
				<path class="st1" d="M145.6,235.5h-1.1v-2.4c-0.2,0.3-0.4,0.5-0.7,0.8c-1.3,1.3-2.8,1.9-4.6,1.9c-1.8,0-3.3-0.6-4.6-1.9
					s-1.9-2.8-1.9-4.6c0-1.8,0.6-3.4,1.9-4.6c1.3-1.3,2.8-1.9,4.6-1.9c1.8,0,3.4,0.6,4.6,1.9c0.2,0.3,0.5,0.5,0.7,0.8v-9h1.1V235.5z
					 M144.6,230.4v-2.1c-0.2-1.1-0.7-2-1.5-2.8c-1.1-1.1-2.3-1.6-3.8-1.6s-2.8,0.5-3.8,1.6s-1.6,2.3-1.6,3.8s0.5,2.8,1.6,3.8
					c1.1,1,2.3,1.6,3.8,1.6s2.8-0.5,3.8-1.6C143.9,232.3,144.4,231.4,144.6,230.4z"/>
				<path class="st1" d="M154.5,224.8c-0.8,0.1-1.5,0.6-2.2,1.5c-0.7,0.9-1.1,1.7-1.1,2.6v6.7h-1.1v-11.7h1.1v2.5
					c0.4-1.2,1.4-2.1,2.8-2.6L154.5,224.8z"/>
				<path class="st1" d="M159.6,220c0.2,0.2,0.3,0.5,0.3,0.7c0,0.3-0.1,0.6-0.3,0.8c-0.2,0.2-0.5,0.3-0.7,0.3
					c-0.3,0-0.5-0.1-0.8-0.3c-0.2-0.2-0.3-0.5-0.3-0.8c0-0.3,0.1-0.5,0.3-0.7c0.2-0.2,0.5-0.3,0.8-0.3
					C159.1,219.7,159.4,219.8,159.6,220z M159.4,223.8v11.7h-1.1v-11.7H159.4z"/>
				<path class="st1" d="M165.6,226.5v9.1h-1.1v-11.7h1.1v0.8c1-1,2.1-1.5,3.4-1.5c1.4,0,2.5,0.4,3.4,1.3s1.3,2,1.3,3.3v7.8h-1.1
					v-7.7c0-1-0.4-1.8-1.1-2.5c-0.7-0.7-1.6-1.1-2.6-1.1c-1,0-1.8,0.3-2.5,1C166.1,225.6,165.8,226,165.6,226.5z"/>
				<path class="st1" d="M184.3,223.8l-2.9,3.6l4.6,8.1h-1.3l-4-7.3l-1,1.3v6h-1.1v-16.7h1.1v9l3.2-4H184.3z"/>
			</g>
		</g>
		<g>
			<g>
				<path class="st1" d="M508,29.9l-2,5.4c-0.2,0.5-0.7,0.7-1.5,0.7h-6.1c-0.5,0-0.7-0.2-0.7-0.5c0-0.2,0.1-0.4,0.2-0.7l10.6-28.9
					c0.4-0.9,1.1-1.3,2-1.3c0.9,0,1.6,0.5,2,1.4l12.3,29c0.1,0.2,0.2,0.4,0.2,0.5c0,0.4-0.3,0.6-1,0.6h-2.1c-1,0-1.6-0.3-1.9-0.9
					l-2.4-5.3H508z M515.3,25.7c0.3,0,0.5-0.1,0.5-0.4c0,0,0-0.1,0-0.2l-3.2-7.4c-0.1-0.2-0.3-0.2-0.4-0.2c-0.1,0-0.2,0.1-0.4,0.3
					l-2.6,7.3c0,0.1,0,0.2,0,0.2c0,0.3,0.2,0.4,0.5,0.4H515.3z"/>
				<path class="st1" d="M549.6,34.3c-2.2,1.1-4.7,1.6-7.4,1.6c-4.6,0-8.4-1.6-11.5-4.7c-3.1-3.1-4.7-6.8-4.7-11
					c0-4.2,1.6-7.9,4.7-11c3.1-3.1,6.9-4.7,11.5-4.7c2.7,0,5.2,0.5,7.4,1.6V6c0-0.8,0.4-1.2,1.3-1.2h6.2c0.9,0,1.3,0.4,1.3,1.3v28.6
					c0,0.9-0.4,1.3-1.3,1.3h-6.4c-0.8,0-1.2-0.5-1.2-1.4V34.3z M549.6,26V14c-0.1-0.8-0.5-1.6-1.3-2.3c-0.8-0.7-2.5-1.2-5.1-1.4
					c-0.3,0-0.6,0-0.9,0c-2.3,0-4.4,0.8-6.5,2.3c-2.3,1.7-3.5,4.3-3.5,7.8c0,3.5,1.2,6.1,3.5,7.8c2,1.5,4.2,2.3,6.5,2.3
					c0.3,0,0.6,0,0.9,0c2.6-0.2,4.3-0.7,5.2-1.5C549.2,28.2,549.6,27.2,549.6,26z"/>
				<path class="st1" d="M580.8,4.8c3.2,0,5.4,0.7,6.6,2s1.8,2.9,1.8,4.6c0,1.8-0.3,3-0.8,3.6c0.8,0.2,1.9,1,3.4,2.5
					c2.2,2.2,3.4,4.8,3.4,7.7c0,2.9-1.1,5.4-3.2,7.5c-2.1,2.1-4.5,3.2-7.1,3.4h-13.2c-0.7,0-1-0.3-1-1V5.6c0-0.6,0.4-0.9,1.1-0.9
					H580.8z M579.2,10v3.1c0,0.7,0.3,1,0.9,1h1.9c0.3,0,0.6-0.2,0.9-0.5c0.5-0.5,0.8-1.3,0.8-2.2c0-1.6-0.8-2.4-2.2-2.4h-1.4
					C579.6,9.1,579.2,9.4,579.2,10z M579.2,19.5v11c0,0.8,0.4,1.3,1.2,1.3h3.6c1.3-0.1,2.5-0.7,3.6-1.7c1.3-1.3,2-3,2-4.9
					c0-2-0.6-3.5-1.8-4.7c-1.3-1.3-2.9-1.9-4.8-2h-2.6C579.7,18.4,579.2,18.8,579.2,19.5z"/>
				<path class="st1" d="M608.6,4.8c3.2,0,5.4,0.7,6.6,2s1.8,2.9,1.8,4.6c0,1.8-0.3,3-0.8,3.6c0.8,0.2,1.9,1,3.4,2.5
					c2.2,2.2,3.4,4.8,3.4,7.7c0,2.9-1.1,5.4-3.2,7.5c-2.1,2.1-4.5,3.2-7.1,3.4h-13.2c-0.7,0-1-0.3-1-1V5.6c0-0.6,0.4-0.9,1.1-0.9
					H608.6z M607.1,10v3.1c0,0.7,0.3,1,0.9,1h1.9c0.3,0,0.6-0.2,0.9-0.5c0.5-0.5,0.8-1.3,0.8-2.2c0-1.6-0.8-2.4-2.2-2.4h-1.4
					C607.4,9.1,607.1,9.4,607.1,10z M607.1,19.5v11c0,0.8,0.4,1.3,1.2,1.3h3.6c1.3-0.1,2.5-0.7,3.6-1.7c1.3-1.3,2-3,2-4.9
					c0-2-0.6-3.5-1.8-4.7c-1.3-1.3-2.9-1.9-4.8-2h-2.6C607.5,18.4,607.1,18.8,607.1,19.5z"/>
				<path class="st1" d="M634.8,20.3c0-0.2,0-0.5,0-0.7c0-1.6,0.2-3.1,0.7-4.7c1.2-3.8,3.7-6.6,7.6-8.6c2.4-1.2,5-1.8,7.8-1.8
					c1.7,0,3.4,0.2,5.2,0.7c3.8,1.3,6.7,3.3,8.6,6c0.2,0.4,0.3,0.8,0.3,1.1c0,0.5-0.3,0.8-0.8,1l-1.2,0.8c-0.4,0.2-0.8,0.2-1.1,0.2
					c-0.5,0-0.9-0.2-1.1-0.6c-2.2-2.1-4.4-3.5-6.7-4.3c-1.5-0.3-2.8-0.5-3.8-0.5c-1.2,0-2.1,0.2-2.8,0.7c-1,0.6-1.6,2.2-1.6,4.9
					v11.8c0,2.6,0.5,4.3,1.6,4.9c0.6,0.4,1.6,0.7,2.8,0.7c1.1,0,2.3-0.2,3.8-0.5c2.3-0.7,4.5-2.2,6.7-4.3c0.2-0.4,0.6-0.6,1.1-0.6
					c0.3,0,0.7,0.1,1.1,0.2l1.2,0.8c0.5,0.2,0.8,0.5,0.8,1c0,0.3-0.1,0.7-0.3,1.1c-1.9,2.8-4.8,4.8-8.6,6c-1.8,0.4-3.6,0.7-5.2,0.7
					c-2.8,0-5.4-0.6-7.8-1.9c-3.8-2-6.3-4.8-7.6-8.6c-0.5-1.5-0.7-3.1-0.7-4.7C634.8,20.8,634.8,20.6,634.8,20.3z"/>
				<path class="st1" d="M668.4,20.3c0-0.2,0-0.5,0-0.7c0-1.6,0.2-3.1,0.7-4.7c1.2-3.8,3.7-6.6,7.6-8.6c2.4-1.2,5-1.8,7.8-1.8
					c1.7,0,3.4,0.2,5.2,0.7c3.8,1.3,6.7,3.3,8.6,6c0.2,0.4,0.3,0.8,0.3,1.1c0,0.5-0.3,0.8-0.8,1l-1.2,0.8c-0.4,0.2-0.8,0.2-1.1,0.2
					c-0.5,0-0.9-0.2-1.1-0.6c-2.2-2.1-4.4-3.5-6.7-4.3C686.3,9,685,8.9,684,8.9c-1.2,0-2.1,0.2-2.8,0.7c-1,0.6-1.6,2.2-1.6,4.9v11.8
					c0,2.6,0.5,4.3,1.6,4.9c0.6,0.4,1.6,0.7,2.8,0.7c1.1,0,2.3-0.2,3.8-0.5c2.3-0.7,4.5-2.2,6.7-4.3c0.2-0.4,0.6-0.6,1.1-0.6
					c0.3,0,0.7,0.1,1.1,0.2l1.2,0.8c0.5,0.2,0.8,0.5,0.8,1c0,0.3-0.1,0.7-0.3,1.1c-1.9,2.8-4.8,4.8-8.6,6c-1.8,0.4-3.6,0.7-5.2,0.7
					c-2.8,0-5.4-0.6-7.8-1.9c-3.8-2-6.3-4.8-7.6-8.6c-0.5-1.5-0.7-3.1-0.7-4.7C668.4,20.8,668.4,20.6,668.4,20.3z"/>
				<path class="st1" d="M505.9,50h-3.8c-0.7,0-1.1-0.3-1.1-0.6c0-0.1,0-0.1,0-0.2c0-0.3,0.2-0.6,0.7-0.9l11.9-2.6
					c0.2-0.1,0.4-0.1,0.6-0.1c0.5,0,0.7,0.3,0.7,0.9v20.4h5.9c0.6,0,0.8,0.3,0.8,0.9v0.9c0,0.5-0.3,0.7-0.8,0.7H500
					c-0.5,0-0.8-0.2-0.8-0.7v-0.9c0-0.6,0.3-0.9,0.8-0.9h5.8V50z"/>
				<path class="st1" d="M543,65.1h10.2c0.6,0,0.9,0.3,1,0.9v2.6c-0.1,0.5-0.4,0.7-1,0.7h-18c-0.3,0-0.5-0.2-0.5-0.6
					c0-3.7,1.9-6.1,5.6-7.5s6.2-3.1,7.3-5.3v-4.8c0-1.4-0.8-2.3-2.2-2.7c-0.4-0.1-0.8-0.1-1.1-0.1c-1.1,0-2,0.3-3,1
					c-1.3,0.9-2.2,2.1-2.9,3.5c-0.3,0.8-0.6,1.2-1.1,1.2H535c-0.4,0-0.6-0.3-0.6-0.8v-0.1c0.5-2.4,1.6-4.5,3.6-6.2
					c1.9-1.6,4.2-2.4,6.9-2.4h0.3c2.9,0.1,5.2,0.9,6.8,2.6s2.5,3.6,2.5,5.8c0,4.8-2.2,7.9-6.5,9.3l-3.8,1.3
					c-0.9,0.2-1.3,0.6-1.4,1.1C542.7,64.9,542.8,65.1,543,65.1z"/>
				<path class="st1" d="M575.5,57.6c0-0.1,0-0.1,0-0.2c0-0.5,0.2-0.9,0.5-1.1c0.3,0,0.5,0,0.8,0h0.3c1.6-0.1,2.6-0.2,2.8-0.4
					c0.3-0.1,0.4-0.5,0.4-1.1V50c0-0.8-0.2-1.2-0.6-1.4c-0.3-0.3-1.4-0.4-3.3-0.4c-1.9,0.3-3.1,1.4-3.8,3.1
					c-0.2,0.2-0.4,0.2-0.7,0.2c-0.4,0-1-0.1-1.7-0.4c-0.7-0.2-1-0.6-1-1c0.1-0.4,0.4-0.8,0.8-1.3c1.4-2.5,3.7-3.9,6.8-4.2
					c3.6,0,6.2,0.5,7.9,1.6s2.5,2.8,2.5,5.1c0,2.5-0.8,4.5-2.5,6.2c-0.2,0.2-0.3,0.3-0.5,0.5c0.5,0.3,0.9,0.7,1.3,1.1
					c1.9,1.9,2.8,4.1,2.8,6.6c0,2.5-0.9,4.7-2.8,6.6s-4.8,2.8-8.7,2.8c-2.8,0-5.1-0.9-6.9-2.8c-0.8-0.8-1.3-1.5-1.3-2
					c0-0.5,0.2-0.8,0.6-0.9l1.9-0.4c0.7,0,1.3,0.2,1.7,0.7c1.1,1.1,2.3,1.6,3.7,1.6c2.1,0,3.4-0.2,3.9-0.6c0.3-0.2,0.5-0.6,0.5-1.3
					v-8.8c0-0.9-0.3-1.4-0.7-1.6c-0.3-0.3-1.5-0.5-3.6-0.5h-0.1C575.8,58.4,575.5,58.1,575.5,57.6z"/>
				<path class="st1" d="M610.7,44.9c0.1-0.3,0.6-0.4,1.3-0.4h6.4c0.7,0,1.1,0.3,1.1,1v18.3h4.1c0.5,0,0.8,0.4,0.8,1.1v1.8
					c0,0.6-0.4,1-1.3,1h-3.6v6.3c0,0.8-0.5,1.2-1.4,1.2h-6c-0.9,0-1.4-0.4-1.4-1.2v-6.3h-9.2c-0.6,0-0.9-0.3-0.9-1l0-1.8L610.7,44.9
					z M605.3,63c-0.1,0.2-0.2,0.3-0.2,0.4c0,0.2,0.3,0.3,0.9,0.3h3.9c0.6,0,0.8-0.3,0.8-1v-9.5c0-0.5-0.1-0.7-0.2-0.7
					c-0.1,0-0.2,0.1-0.4,0.3L605.3,63z"/>
				<path class="st1" d="M645.2,57.9c-1.1-0.7-2.8-1.1-5.2-1.1h-0.6c-0.8,0-1.5-0.5-1.9-1.6l-0.4-0.9c-0.1-0.2-0.1-0.4-0.1-0.6
					c0-0.4,0.1-0.8,0.3-1.2l4.7-7.1c0.3-0.6,0.9-0.9,1.8-0.9h10.6c0.7,0,1.1,0.2,1.1,0.6v2.4c0,0.6-0.2,1-0.6,1h-6.7l-3.5,5.5
					c3.8,0.1,6.7,1.2,8.8,3.3c2.1,2.1,3.1,4.7,3.1,7.7c0,3-1,5.5-3.1,7.4c-2.1,1.9-4.8,2.8-8,2.8c-3.9-0.2-6.8-1.3-8.7-3.3
					c-0.2-0.3-0.2-0.6-0.2-0.9c0-0.4,0.2-0.7,0.5-0.9c1.1-0.9,1.7-1.4,1.9-1.4c0.2,0,0.3,0.1,0.4,0.2c1.2,1.2,2.5,1.9,3.7,1.9
					c0.3,0,0.6,0,0.9-0.1c1.8-0.3,3.1-1.1,3.7-2.5c0.6-1.2,0.9-2.3,0.9-3.4s-0.2-2.1-0.6-3C647.2,60,646.3,58.6,645.2,57.9z"/>
			</g>
		</g>
		<g>
			<g>
				<path class="st1" d="M524.4,149.5l11.3,31.2h-4.1l-4.7-13h-8.5l-4.8,13h-4.1l11.5-31.2H524.4z M525.7,164.4l-3-8.3l-3,8.3H525.7
					z"/>
				<path class="st1" d="M550.6,158.9l7.9,21.9h-2.9l-3.3-9.1h-5.9l-3.4,9.1h-2.9l8-21.9H550.6z M551.5,169.3l-2.1-5.8l-2.1,5.8
					H551.5z"/>
				<path class="st1" d="M596.9,163c2,2,3,4.5,3,7.3c0,2.8-1,5.3-3.1,7.4c-1.7,1.7-3.8,2.7-6.4,3.1h-10.8v-31.2h9.9
					c2,0,3.7,0.7,5.1,2.1s2.1,3,2.1,4.8c0,1.9-0.7,3.5-2,4.8C595.1,161.4,595.9,161.9,596.9,163z M583.5,152.9v6.9h6.3
					c0.9-0.1,1.5-0.4,2-0.8c0.6-0.6,1-1.5,1-2.5c0-1-0.3-1.9-1-2.5c-0.7-0.7-1.4-1-2.3-1H583.5z M589.2,177.4c1.8,0,3.4-0.7,4.7-2
					c1.4-1.4,2-3,2-5s-0.7-3.7-2-5.1c-1.4-1.4-2.9-2-4.7-2h-5.7v14.2H589.2z"/>
				<path class="st1" d="M619.3,168.3c1.4,1.4,2.1,3.1,2.1,5.1c0,2-0.7,3.7-2.2,5.2c-1.2,1.2-2.7,1.9-4.5,2.2h-7.6v-21.9h6.9
					c1.4,0,2.6,0.5,3.6,1.4c1,1,1.4,2.1,1.4,3.4c0,1.3-0.5,2.4-1.4,3.4C618.1,167.2,618.6,167.6,619.3,168.3z M610,161.3v4.8h4.4
					c0.6-0.1,1.1-0.3,1.4-0.6c0.4-0.4,0.7-1,0.7-1.7c0-0.7-0.2-1.3-0.7-1.8c-0.5-0.5-1-0.7-1.6-0.7H610z M614,178.4
					c1.3,0,2.4-0.5,3.3-1.4c0.9-0.9,1.4-2.1,1.4-3.5s-0.5-2.6-1.4-3.5c-0.9-1-2.1-1.4-3.3-1.4h-4v9.9H614z"/>
				<path class="st1" d="M667.6,173.9l2.7,2.4c-3.5,3.2-7.4,4.8-11.6,4.8c-4.5,0-8.4-1.6-11.5-4.7c-3.1-3.1-4.7-6.9-4.7-11.3
					c0-4.3,1.6-8.1,4.7-11.2c3.1-3.2,7-4.7,11.5-4.7c4.2,0,8.1,1.6,11.6,4.8l-2.7,2.4c-2.9-2.5-5.8-3.8-8.9-3.8
					c-3.3,0-6.2,1.2-8.6,3.6c-2.4,2.4-3.6,5.4-3.6,8.9c0,3.5,1.2,6.5,3.6,8.9c2.4,2.4,5.3,3.6,8.6,3.6
					C661.7,177.7,664.7,176.4,667.6,173.9z"/>
				<path class="st1" d="M694.8,176l1.9,1.7c-2.5,2.2-5.2,3.4-8.1,3.4c-3.2,0-5.9-1.1-8.1-3.3c-2.2-2.2-3.3-4.8-3.3-7.9
					c0-3,1.1-5.7,3.3-7.9s4.9-3.3,8.1-3.3c3,0,5.7,1.1,8.1,3.4l-1.9,1.7c-2-1.8-4.1-2.7-6.2-2.7c-2.3,0-4.3,0.8-6,2.5
					c-1.7,1.7-2.5,3.8-2.5,6.2c0,2.5,0.8,4.6,2.5,6.2c1.7,1.7,3.7,2.5,6,2.5C690.7,178.6,692.8,177.7,694.8,176z"/>
				<path class="st1" d="M520.1,214.8V193l-2,1.3l-2.9-2.1l8.7-6.4v29h6.4v3.4h-16.8v-3.4H520.1z"/>
				<path class="st1" d="M558,218.2c8.2-12.6,12.7-19.4,13.2-20.4c0.6-1,0.8-1.9,0.8-2.8c0-0.4-0.1-0.9-0.2-1.3c-0.3-1.3-1-2.3-2-3
					c-0.7-0.4-1.5-0.7-2.2-0.7c-0.3,0-0.7,0-1,0.1c-1.2,0.3-2.1,0.9-2.8,2c-0.4,0.6-0.7,1.6-0.8,2.8l-3.9-0.6
					c0.1-1.5,0.5-2.8,1.2-3.9c1.3-2,3-3.2,5.3-3.7c0.7-0.2,1.4-0.3,2.1-0.3c1.6,0,3.1,0.4,4.6,1.3c2,1.2,3.2,2.9,3.7,5.1
					c0.2,0.8,0.3,1.5,0.3,2.2c0,1.3-0.3,2.5-1,3.8s-4.1,6.5-10.2,15.7h11.2v3.4H558z"/>
				<path class="st1" d="M611.1,201.7l-2.3-0.1v-3.3c1.7,0,2.8-0.1,3.4-0.4c0.6-0.2,1.2-0.7,1.9-1.5c0.7-0.8,1.1-1.7,1.1-2.8
					c0-1.1-0.3-2-1-2.6c-0.7-0.7-1.5-1-2.4-1s-1.7,0.3-2.3,1c-0.4,0.4-0.8,1.2-1.3,2.4l-3.6-1.4c0.4-1.4,1-2.5,1.8-3.3
					c1.5-1.5,3.2-2.2,5.3-2.2c2.1,0,3.9,0.7,5.3,2.1c1.4,1.4,2.1,3.1,2.1,5c0,1.9-1,3.9-3,6.1c0.8,0.2,1.9,0.9,3.1,2.3
					c1.8,2,2.7,4.3,2.7,6.9c0,2.6-1,4.9-2.9,6.8s-4.3,2.9-7.1,2.9c-2.8,0-5.1-1-7.1-2.9c-1.5-1.5-2.4-3.5-2.8-5.9l3.9-1.4
					c0.3,2.3,0.9,4,2,5c1.1,1.1,2.5,1.7,4.1,1.7c1.6,0,3-0.6,4.2-1.8s1.8-2.7,1.8-4.4c0-1.8-0.6-3.3-1.8-4.6
					S613.4,202.1,611.1,201.7z"/>
				<path class="st1" d="M664.2,182.6v24.6h2.8v3.4h-2.8v7.6h-3.9v-7.6h-12.8L664.2,182.6z M660.3,196.4l-6.4,10.8h6.4V196.4z"/>
				<path class="st1" d="M697.9,195.6c0.9-0.2,1.7-0.2,2.5-0.2c1.5,0,3,0.2,4.3,0.7c3,1,5.3,3,6.8,5.7c0.9,1.7,1.3,3.4,1.3,5.2
					c0,1.1-0.2,2.2-0.5,3.3c-0.9,3-2.8,5.2-5.6,6.7c-1.8,0.9-3.6,1.4-5.4,1.4c-1.2,0-2.4-0.2-3.6-0.6c-2.5-0.8-4.5-2.2-6.1-4.4
					l2.6-2.9c1.5,2.2,3.1,3.6,4.8,4.1c0.8,0.2,1.5,0.4,2.2,0.4c1.1,0,2.3-0.3,3.4-0.9c1.9-1,3.1-2.5,3.8-4.6
					c0.3-0.8,0.4-1.7,0.4-2.5c0-1.3-0.3-2.5-1-3.7c-1-1.9-2.5-3.2-4.5-3.9c-0.9-0.3-1.8-0.4-2.8-0.4c-1.4,0-3.3,0.4-5.5,1.1l-2.2-2
					l3.5-9.7v-1.4h11.5v3.4h-8.1L697.9,195.6z"/>
			</g>
		</g>
	</g>
</g>
</svg>
