<?xml version="1.0" encoding="utf-8"?>
<!-- Generator: Adobe Illustrator 19.0.1, SVG Export Plug-In . SVG Version: 6.00 Build 0)  -->
<svg version="1.1" xmlns="http://www.w3.org/2000/svg" xmlns:xlink="http://www.w3.org/1999/xlink" x="0px" y="0px"
	 viewBox="0 0 414.9 263.6" style="enable-background:new 0 0 414.9 263.6;" xml:space="preserve">
<style type="text/css">
	.st0{fill:#FFFFFF;}
	.st1{fill:#3399CC;}
	.st2{fill:url(#SVGID_1_);}
	.st3{fill:#666666;}
	.st4{fill:url(#SVGID_2_);}
	.st5{fill:url(#SVGID_3_);}
	.st6{fill:url(#SVGID_4_);}
	.st7{fill:url(#SVGID_5_);}
	.st8{fill:url(#SVGID_6_);}
	.st9{fill:url(#SVGID_7_);}
	.st10{fill:url(#SVGID_8_);}
	.st11{fill:url(#SVGID_9_);}
	.st12{fill:url(#SVGID_10_);}
	.st13{fill:url(#SVGID_11_);}
	.st14{fill:url(#SVGID_12_);}
	.st15{fill:url(#SVGID_13_);}
	.st16{fill:url(#SVGID_14_);}
	.st17{fill:url(#SVGID_15_);}
	.st18{fill:url(#SVGID_16_);}
	.st19{fill:url(#SVGID_17_);}
	.st20{fill:url(#SVGID_18_);}
	.st21{fill:url(#SVGID_19_);}
	.st22{fill:url(#SVGID_20_);}
	.st23{fill:url(#SVGID_21_);}
	.st24{fill:url(#SVGID_22_);}
	.st25{fill:url(#SVGID_23_);}
	.st26{fill:url(#SVGID_24_);}
	.st27{fill:url(#SVGID_25_);}
	.st28{fill:url(#SVGID_26_);}
	.st29{fill:url(#SVGID_27_);}
	.st30{fill:url(#SVGID_28_);}
	.st31{fill:url(#SVGID_29_);}
	.st32{fill:url(#SVGID_30_);}
	.st33{fill:url(#SVGID_31_);}
	.st34{fill:url(#SVGID_32_);}
	.st35{fill:url(#SVGID_33_);}
	.st36{fill:url(#SVGID_34_);}
	.st37{fill:url(#SVGID_35_);}
	.st38{fill:url(#SVGID_36_);}
	.st39{fill:url(#SVGID_37_);}
	.st40{fill:url(#SVGID_38_);}
	.st41{fill:url(#SVGID_39_);}
	.st42{fill:url(#SVGID_40_);}
	.st43{fill:url(#SVGID_41_);}
	.st44{fill:url(#SVGID_42_);}
	.st45{fill:url(#SVGID_43_);}
	.st46{fill:url(#SVGID_44_);}
	.st47{fill:url(#SVGID_45_);}
	.st48{fill:url(#SVGID_46_);}
	.st49{fill:url(#SVGID_47_);}
	.st50{fill:url(#SVGID_48_);}
	.st51{fill:url(#SVGID_49_);}
	.st52{fill:url(#SVGID_50_);}
	.st53{fill:url(#SVGID_51_);}
	.st54{fill:none;}
	.st55{fill:url(#SVGID_52_);}
	.st56{fill:url(#SVGID_53_);}
	.st57{fill:url(#SVGID_54_);}
	.st58{fill:url(#SVGID_55_);}
	.st59{fill:url(#SVGID_56_);}
	.st60{fill:url(#SVGID_57_);}
	.st61{fill:url(#SVGID_58_);}
	.st62{fill:url(#SVGID_59_);}
	.st63{fill:url(#SVGID_60_);}
	.st64{fill:url(#SVGID_61_);}
	.st65{fill:url(#SVGID_62_);}
	.st66{fill:url(#SVGID_63_);}
	.st67{fill:url(#SVGID_64_);}
	.st68{fill:url(#SVGID_65_);}
	.st69{fill:url(#SVGID_66_);}
	.st70{fill:url(#SVGID_67_);}
	.st71{fill:url(#SVGID_68_);}
	.st72{fill:url(#SVGID_69_);}
	.st73{fill:url(#SVGID_70_);}
	.st74{fill:url(#SVGID_71_);}
	.st75{fill:url(#SVGID_72_);}
	.st76{fill:url(#SVGID_73_);}
	.st77{fill:url(#SVGID_74_);}
	.st78{fill:url(#SVGID_75_);}
	.st79{fill:url(#SVGID_76_);}
	.st80{fill:url(#SVGID_77_);}
	.st81{fill:url(#SVGID_78_);}
	.st82{fill:url(#SVGID_79_);}
	.st83{fill:url(#SVGID_80_);}
	.st84{fill:url(#SVGID_81_);}
	.st85{fill:url(#SVGID_82_);}
	.st86{fill:url(#SVGID_83_);}
	.st87{fill:url(#SVGID_84_);}
	.st88{fill:url(#SVGID_85_);}
	.st89{fill:url(#SVGID_86_);}
	.st90{fill:url(#SVGID_87_);}
	.st91{fill:url(#SVGID_88_);}
	.st92{fill:url(#SVGID_89_);}
	.st93{fill:url(#SVGID_90_);}
	.st94{fill:url(#SVGID_91_);}
	.st95{fill:url(#SVGID_92_);}
	.st96{fill:url(#SVGID_93_);}
	.st97{fill:url(#SVGID_94_);}
	.st98{fill:url(#SVGID_95_);}
	.st99{fill:url(#SVGID_96_);}
	.st100{fill:url(#SVGID_97_);}
	.st101{fill:url(#SVGID_98_);}
	.st102{fill:url(#SVGID_99_);}
	.st103{fill:url(#SVGID_100_);}
	.st104{fill:url(#SVGID_101_);}
	.st105{fill:url(#SVGID_102_);}
	.st106{fill:url(#SVGID_103_);}
	.st107{fill:url(#SVGID_104_);}
	.st108{fill:url(#SVGID_105_);}
	.st109{fill:url(#SVGID_106_);}
	.st110{fill:url(#SVGID_107_);}
	.st111{fill:#97CACA;}
	.st112{fill:#FF9966;}
	.st113{fill:#669897;}
	.st114{clip-path:url(#SVGID_109_);}
	.st115{clip-path:url(#SVGID_113_);}
	.st116{clip-path:url(#SVGID_113_);fill:#97CACA;}
	.st117{clip-path:url(#SVGID_113_);fill:#669897;}
	.st118{opacity:0.75;}
	.st119{clip-path:url(#SVGID_115_);}
	.st120{fill:none;stroke:#FFFFFF;stroke-width:0.7894;stroke-miterlimit:10;}
	.st121{clip-path:url(#SVGID_117_);}
	.st122{clip-path:url(#SVGID_121_);}
	.st123{clip-path:url(#SVGID_125_);}
	.st124{clip-path:url(#SVGID_127_);}
	.st125{fill:none;stroke:#FFFFFF;stroke-width:0.6045;stroke-miterlimit:10;}
	.st126{clip-path:url(#SVGID_129_);}
	.st127{clip-path:url(#SVGID_135_);fill:#669897;}
	.st128{opacity:0.75;clip-path:url(#SVGID_135_);}
	.st129{fill:none;stroke:#FFFFFF;stroke-width:1.2413;stroke-miterlimit:10;}
	.st130{clip-path:url(#SVGID_139_);fill:none;}
	.st131{clip-path:url(#SVGID_139_);}
	.st132{clip-path:url(#SVGID_139_);fill:#97CACA;}
	.st133{clip-path:url(#SVGID_139_);fill:#669897;}
	.st134{clip-path:url(#SVGID_141_);}
	.st135{clip-path:url(#SVGID_143_);}
	.st136{clip-path:url(#SVGID_145_);}
	.st137{clip-path:url(#SVGID_147_);}
	.st138{fill:#06363B;}
	.st139{fill:#27545B;}
	.st140{fill:url(#SVGID_150_);}
	.st141{fill:url(#SVGID_151_);}
	.st142{fill:url(#SVGID_152_);}
	.st143{clip-path:url(#SVGID_154_);}
	.st144{fill:none;stroke:#FFFFFF;stroke-width:3.8029;stroke-miterlimit:10;}
	.st145{clip-path:url(#SVGID_156_);}
	.st146{clip-path:url(#SVGID_160_);}
	.st147{clip-path:url(#SVGID_160_);fill:#97CACA;}
	.st148{clip-path:url(#SVGID_160_);fill:#669897;}
	.st149{clip-path:url(#SVGID_162_);}
	.st150{fill:none;stroke:#FFFFFF;stroke-width:1.0162;stroke-miterlimit:10;}
	.st151{clip-path:url(#SVGID_164_);}
	.st152{clip-path:url(#SVGID_168_);}
	.st153{clip-path:url(#SVGID_172_);}
	.st154{clip-path:url(#SVGID_174_);}
	.st155{fill:none;stroke:#FFFFFF;stroke-width:0.7783;stroke-miterlimit:10;}
	.st156{clip-path:url(#SVGID_176_);}
	.st157{clip-path:url(#SVGID_182_);fill:#669897;}
	.st158{opacity:0.75;clip-path:url(#SVGID_182_);}
	.st159{fill:none;stroke:#FFFFFF;stroke-width:1.598;stroke-miterlimit:10;}
	.st160{clip-path:url(#SVGID_186_);fill:none;}
	.st161{clip-path:url(#SVGID_186_);}
	.st162{clip-path:url(#SVGID_186_);fill:#97CACA;}
	.st163{clip-path:url(#SVGID_186_);fill:#669897;}
	.st164{clip-path:url(#SVGID_188_);}
	.st165{fill:#392C3E;}
	.st166{clip-path:url(#SVGID_192_);}
	.st167{fill:none;stroke:#FFFFFF;stroke-width:1.9083;stroke-miterlimit:10;}
	.st168{fill:none;stroke:#FFFFFF;stroke-width:1.881;stroke-miterlimit:10;}
	.st169{fill:none;stroke:#FFFFFF;stroke-width:1.9057;stroke-miterlimit:10;}
	.st170{clip-path:url(#SVGID_198_);}
	.st171{clip-path:url(#SVGID_202_);}
	.st172{fill:#669796;}
	.st173{clip-path:url(#SVGID_204_);}
	.st174{clip-path:url(#SVGID_206_);fill:#99CCFF;}
	.st175{clip-path:url(#SVGID_206_);fill:#D1D3D4;}
	.st176{clip-path:url(#SVGID_206_);fill:#FFFFFF;}
	.st177{clip-path:url(#SVGID_206_);fill:#1B1B1B;}
	.st178{clip-path:url(#SVGID_208_);}
	.st179{clip-path:url(#SVGID_210_);}
	.st180{clip-path:url(#SVGID_212_);}
	.st181{opacity:0.56;}
	.st182{clip-path:url(#SVGID_216_);}
	.st183{clip-path:url(#SVGID_218_);}
	.st184{clip-path:url(#SVGID_220_);}
	.st185{fill:#34626A;}
	.st186{fill:#58848E;}
	.st187{fill:#2F5E66;}
	.st188{fill:#5F8A95;}
	.st189{fill:#CCCBCB;}
	.st190{clip-path:url(#SVGID_226_);}
	.st191{clip-path:url(#SVGID_230_);}
	.st192{fill:none;stroke:#FFFFFF;stroke-width:3.2913;stroke-miterlimit:10;}
	.st193{clip-path:url(#SVGID_234_);}
	.st194{fill:none;stroke:#FFFFFF;stroke-width:5.7152;stroke-miterlimit:10;}
	.st195{clip-path:url(#SVGID_238_);}
	.st196{fill:none;stroke:#FFFFFF;stroke-width:2.6004;stroke-miterlimit:10;}
	.st197{clip-path:url(#SVGID_240_);}
	.st198{fill:none;stroke:#FFFFFF;stroke-width:1.7467;stroke-miterlimit:10;}
	.st199{clip-path:url(#SVGID_242_);}
	.st200{clip-path:url(#SVGID_244_);}
	.st201{clip-path:url(#SVGID_248_);}
	.st202{fill:none;stroke:#FFFFFF;stroke-width:1.0195;stroke-miterlimit:10;}
	.st203{opacity:0.49;}
	.st204{fill:none;stroke:#FFFFFF;stroke-width:3.3224;stroke-miterlimit:10;}
	.st205{fill:#2B4547;}
	.st206{clip-path:url(#SVGID_250_);}
	.st207{fill:none;stroke:#FFFFFF;stroke-width:3.2213;stroke-miterlimit:10;}
	.st208{clip-path:url(#SVGID_252_);}
	.st209{clip-path:url(#SVGID_254_);fill:#5D5D5D;}
	.st210{clip-path:url(#SVGID_254_);fill:#FFFFFF;}
	.st211{clip-path:url(#SVGID_254_);fill:#CCCCCC;}
	.st212{clip-path:url(#SVGID_256_);}
	.st213{fill:none;stroke:#FFFFFF;stroke-width:0.3175;stroke-miterlimit:10;}
	.st214{clip-path:url(#SVGID_258_);}
	.st215{clip-path:url(#SVGID_260_);}
	.st216{clip-path:url(#SVGID_262_);}
	.st217{fill:url(#SVGID_265_);}
	.st218{fill:url(#SVGID_266_);}
	.st219{fill:url(#SVGID_267_);}
	.st220{fill:#9EC8EA;}
	.st221{fill:#D1D2D3;}
	.st222{clip-path:url(#SVGID_269_);}
	.st223{fill:none;stroke:#FFFFFF;stroke-width:0.2708;stroke-miterlimit:10;}
	.st224{clip-path:url(#SVGID_273_);}
	.st225{clip-path:url(#SVGID_275_);}
	.st226{clip-path:url(#SVGID_279_);}
	.st227{fill:none;stroke:#FFFFFF;stroke-width:0.6819;stroke-miterlimit:10;}
</style>
<g id="Layer_1">
</g>
<g id="Layer_2">
	<g>
		<path class="st204" d="M413.3,131.8c0,71.9-92.1,130.2-205.8,130.2C93.8,262,1.7,203.7,1.7,131.8S93.8,1.7,207.5,1.7
			C321.1,1.7,413.3,59.9,413.3,131.8z"/>
		<g>
			<path class="st0" d="M118.7,60.4c-8.4,0-25.6,11.3-40.4,35.4s-15.2,43.9,3,43.9c20.1,0,41.3-21.6,49.4-32.9
				c2.9-4,12.9-2.8,10.7,0.6c-10.5,16.6-37.4,49.5-67.1,49.5c-24.6,0-42.9-26.8-14.2-67.1c22-31,47.7-38.9,60-38.9
				c21,0,14.4,30.4-4.1,41.1c-8.7,4.9-12.3-3.7-12.3-3.7C118.2,78.6,127.1,60.4,118.7,60.4z"/>
			<path class="st0" d="M181.1,111.2c-2.4,2.4-30.1,30.5-36.9,36.9c-7.3,6.9-12,8.9-15.4,8.9c-5.6,0-8-4-3.3-12.8
				c3.5-6.3,8.1-15.5,12.2-22.4c4.3-7.2-0.8-7.8-2.9-8.8c-4.6-2.4-11.1-9.8-5-17.5c4.9-6.1,12.2-4.9,16.4-2.2
				c4.5,2.9,0.4,8.5-4.6,14c0.5,0.6,1.1,1.1,1.9,1.5c6.5,3.7,14.8-0.6,9.2,10.2c-2.1,4-2.7,4.5-6.3,11.3c-1.3,2.3-3.5,6.9-2.8,7.6
				c0.7,0.8,2.7-1.1,4.8-3c3.3-2.7,28.8-27,31.9-30.3C181.8,103,181.9,110.3,181.1,111.2z"/>
			<path class="st0" d="M236.9,111.2c-2.4,2.4-30.2,30.5-36.9,36.9c-7.3,6.9-11.9,8.9-15.4,8.9c-4.7,0-7.3-2.9-5-9.1
				c-5,5-11,9.1-16.8,9.1c-11.5,0-14.9-13.5-3-31.7c12-18.2,22.8-24.3,30.2-24.3c4.8,0,8.4,4.5,9.4,9.4c3-5.5,5-9.4,5-9.4l13.4-0.1
				c0,0-12.1,22.4-15.7,29.3c-1.3,2.3-3.5,6.9-2.9,7.6c0.8,0.8,2.7-1.1,4.9-3c3.3-2.7,28.8-27,31.9-30.3
				C237.7,103,237.7,110.3,236.9,111.2z M189.8,127.2c5.5-9.1,6.3-16.5,2-16.5c-4.4,0-12.3,7.4-17.8,16.5
				c-5.4,9.1-6.2,16.5-1.9,16.5C176.5,143.7,184.4,136.3,189.8,127.2z"/>
			<path class="st0" d="M266.4,111.2c-2.4,2.4-30.2,30.5-36.9,36.9c-7.3,6.9-11.9,8.9-15.4,8.9c-5.6,0-8.1-4-3.3-12.8
				c3.5-6.3,23.1-43.1,23.1-43.1l13.4-0.1c0,0-12.1,22.4-15.7,29.3c-1.3,2.3-3.5,6.9-2.9,7.6c0.7,0.8,2.7-1.1,4.9-3
				c3.2-2.7,28.8-27,31.9-30.3C267.1,103,267.3,110.3,266.4,111.2z M239.9,81c2.4-5.1,8.4-9.4,13.5-9.4c5.2,0,7.5,4.2,5.2,9.4
				c-2.3,5.1-8.4,9.3-13.5,9.3S237.7,86.1,239.9,81z"/>
			<path class="st0" d="M274.7,150.4c0,0-10.2,19.1-11.6,21.6c-7,11.9-11.4,18.6-22.1,18.6c-5.2,0-13-3.7-13-11.1
				c0-9.6,13.9-13.4,31-23.5l4.6-8.7c-5.1,5.3-11.4,9.8-17.5,9.8c-11.5,0-14.9-13.5-3-31.7c12-18.2,22.8-24.3,30.3-24.3
				c4.9,0,8.4,4.6,9.4,9.6l5-9.6h13.3l-21,39.6L274.7,150.4z M254.1,165.1c-10,7.2-16.4,12.4-16.4,16.3c0,2.8,1.5,3.6,3.3,3.6
				c3.5,0,5.8-6.2,10.2-14.3L254.1,165.1z M273.1,127.2c5.5-9.1,6.3-16.5,1.9-16.5c-4.3,0-12.2,7.4-17.7,16.5
				c-5.4,9.1-6.3,16.5-1.9,16.5C259.8,143.7,267.7,136.3,273.1,127.2z"/>
			<path class="st0" d="M320.5,86.5c-1.1,4-3.3,12.4-7.9,20l-4.7,0.6c1.9-5,4-13.7,5-19.8L320.5,86.5z"/>
			<path class="st0" d="M368.7,123.6c-3.4,5.7-19.2,12.1-42,17.7c-5.7,13.2-13.9,15.8-22.2,15.8c-5.2,0-12.7-1.7-11.3-9
				c1-5.8,11-7.8,21.8-10.6c0.8-2.5,1.5-5.6,2.3-9.5c2.4-13.2,3.2-29.7,18-30.7c14.8-1-0.8,12.2-0.8,12.2l-3.4,16.9
				c-0.3,2.1-0.8,4.1-1.3,6l-0.6,1.9c20.2-6.2,31.4-16.9,27.8-23.2C365.5,109.6,373.5,115.7,368.7,123.6z M311.5,145.2
				c-4.9,1.5-8.6,2.9-8.9,4.6c-0.6,3.1,3.6,2.4,5.7-0.4C309.3,148,310.4,146.8,311.5,145.2z"/>
		</g>
		<g>
			<path class="st0" d="M77.6,198.3c0.1-0.1,0.4-0.2,0.5-0.2h3.5c0.2,0,0.4,0.1,0.5,0.2l2.2,2.2c0.1,0.1,0.2,0.4,0.2,0.5v2.7
				c0,0.2-0.1,0.3-0.3,0.3h-2.1c-0.2,0-0.3-0.1-0.3-0.3v-1.6c0-0.2-0.1-0.4-0.2-0.5L81,201c-0.1-0.1-0.4-0.2-0.5-0.2h-1.2
				c-0.2,0-0.4,0.1-0.5,0.2l-0.5,0.6c-0.1,0.1-0.2,0.4-0.2,0.5v2.8c0,0.2,0.1,0.4,0.2,0.5l0.6,0.5c0.1,0.1,0.3,0.2,0.5,0.2h2.4
				c0.2,0,0.4,0.1,0.5,0.2l2.2,2.2c0.1,0.1,0.2,0.4,0.2,0.5v5.9c0,0.2-0.1,0.4-0.2,0.5l-2.2,2.2c-0.1,0.1-0.4,0.2-0.5,0.2h-3.5
				c-0.2,0-0.4-0.1-0.5-0.2l-2.2-2.2c-0.1-0.1-0.2-0.4-0.2-0.5v-3.3c0-0.2,0.2-0.3,0.3-0.3h2.1c0.2,0,0.3,0.1,0.3,0.3v2.2
				c0,0.2,0.1,0.4,0.2,0.5l0.5,0.5c0.1,0.1,0.4,0.2,0.5,0.2h1.2c0.2,0,0.4-0.1,0.5-0.2l0.5-0.5c0.1-0.1,0.2-0.4,0.2-0.5v-3.6
				c0-0.2-0.1-0.4-0.2-0.5l-0.6-0.5c-0.1-0.1-0.3-0.2-0.5-0.2h-2.4c-0.2,0-0.4-0.1-0.5-0.2l-2.2-2.2c-0.1-0.1-0.2-0.4-0.2-0.5v-5
				c0-0.2,0.1-0.4,0.2-0.5L77.6,198.3z"/>
			<path class="st0" d="M104.8,198.3c0-0.2,0.1-0.3,0.3-0.3h6.1c0.2,0,0.4,0.1,0.5,0.2l2.2,2.2c0.1,0.1,0.2,0.4,0.2,0.5v6.5
				c0,0.2-0.1,0.4-0.2,0.5l-2.2,2.2c-0.1,0.1-0.4,0.2-0.5,0.2h-3.4c-0.2,0-0.3,0.2-0.3,0.3v6.9c0,0.2-0.1,0.3-0.3,0.3h-2.1
				c-0.2,0-0.3-0.1-0.3-0.3V198.3z M111.2,206.8c0.1-0.1,0.2-0.4,0.2-0.5v-4.2c0-0.2-0.1-0.4-0.2-0.5l-0.6-0.5
				c-0.1-0.1-0.3-0.2-0.5-0.2h-2.2c-0.2,0-0.3,0.1-0.3,0.3v6.2c0,0.2,0.1,0.3,0.3,0.3h2.2c0.2,0,0.4-0.1,0.5-0.2L111.2,206.8z"/>
			<path class="st0" d="M142.2,200.5c0,0.2-0.2,0.3-0.3,0.3h-4.6c-0.2,0-0.3,0.1-0.3,0.3v3.7c0,0.2,0.1,0.3,0.3,0.3h3.5
				c0.2,0,0.3,0.2,0.3,0.3v2.1c0,0.2-0.2,0.3-0.3,0.3h-3.5c-0.2,0-0.3,0.2-0.3,0.3v6.6c0,0.2,0.1,0.3,0.3,0.3h4.6
				c0.2,0,0.3,0.1,0.3,0.3v2.1c0,0.2-0.2,0.3-0.3,0.3h-7.3c-0.2,0-0.3-0.1-0.3-0.3v-19.2c0-0.2,0.1-0.3,0.3-0.3h7.3
				c0.2,0,0.3,0.1,0.3,0.3V200.5z"/>
			<path class="st0" d="M170.4,200.5c0,0.2-0.2,0.3-0.3,0.3h-4.6c-0.2,0-0.3,0.1-0.3,0.3v3.7c0,0.2,0.1,0.3,0.3,0.3h3.5
				c0.2,0,0.3,0.2,0.3,0.3v2.1c0,0.2-0.2,0.3-0.3,0.3h-3.5c-0.2,0-0.3,0.2-0.3,0.3v6.6c0,0.2,0.1,0.3,0.3,0.3h4.6
				c0.2,0,0.3,0.1,0.3,0.3v2.1c0,0.2-0.2,0.3-0.3,0.3h-7.3c-0.2,0-0.3-0.1-0.3-0.3v-19.2c0-0.2,0.1-0.3,0.3-0.3h7.3
				c0.2,0,0.3,0.1,0.3,0.3V200.5z"/>
			<path class="st0" d="M191,217.8c-0.2,0-0.3-0.1-0.3-0.3v-19.2c0-0.2,0.1-0.3,0.3-0.3h6.1c0.2,0,0.4,0.1,0.5,0.2l2.2,2.2
				c0.1,0.1,0.2,0.4,0.2,0.5v14c0,0.2-0.1,0.4-0.2,0.5l-2.2,2.2c-0.1,0.1-0.4,0.2-0.5,0.2H191z M196,215.1c0.2,0,0.4-0.1,0.5-0.2
				l0.5-0.5c0.1-0.1,0.2-0.4,0.2-0.5v-11.7c0-0.2-0.1-0.4-0.2-0.5l-0.5-0.5c-0.1-0.1-0.4-0.2-0.5-0.2h-2.2c-0.2,0-0.3,0.1-0.3,0.3
				v13.7c0,0.2,0.2,0.3,0.3,0.3H196z"/>
			<path class="st0" d="M247,198.3c0.1-0.1,0.4-0.2,0.5-0.2h3.5c0.2,0,0.4,0.1,0.5,0.2l2.2,2.2c0.1,0.1,0.2,0.4,0.2,0.5v2.7
				c0,0.2-0.1,0.3-0.3,0.3h-2.1c-0.2,0-0.3-0.1-0.3-0.3v-1.6c0-0.2-0.1-0.4-0.2-0.5l-0.5-0.6c-0.1-0.1-0.4-0.2-0.5-0.2h-1.2
				c-0.2,0-0.4,0.1-0.5,0.2l-0.5,0.6c-0.1,0.1-0.2,0.4-0.2,0.5v2.8c0,0.2,0.1,0.4,0.2,0.5l0.6,0.5c0.1,0.1,0.3,0.2,0.5,0.2h2.4
				c0.2,0,0.4,0.1,0.5,0.2l2.2,2.2c0.1,0.1,0.2,0.4,0.2,0.5v5.9c0,0.2-0.1,0.4-0.2,0.5l-2.2,2.2c-0.1,0.1-0.4,0.2-0.5,0.2h-3.5
				c-0.2,0-0.4-0.1-0.5-0.2l-2.2-2.2c-0.1-0.1-0.2-0.4-0.2-0.5v-3.3c0-0.2,0.2-0.3,0.3-0.3h2.1c0.2,0,0.3,0.1,0.3,0.3v2.2
				c0,0.2,0.1,0.4,0.2,0.5l0.5,0.5c0.1,0.1,0.4,0.2,0.5,0.2h1.2c0.2,0,0.4-0.1,0.5-0.2l0.5-0.5c0.1-0.1,0.2-0.4,0.2-0.5v-3.6
				c0-0.2-0.1-0.4-0.2-0.5l-0.6-0.5c-0.1-0.1-0.3-0.2-0.5-0.2h-2.4c-0.2,0-0.4-0.1-0.5-0.2l-2.2-2.2c-0.1-0.1-0.2-0.4-0.2-0.5v-5
				c0-0.2,0.1-0.4,0.2-0.5L247,198.3z"/>
			<path class="st0" d="M280.4,205.9c0.2,0,0.3-0.1,0.3-0.3v-7.3c0-0.2,0.2-0.3,0.3-0.3h2.1c0.2,0,0.3,0.1,0.3,0.3v19.2
				c0,0.2-0.1,0.3-0.3,0.3H281c-0.2,0-0.3-0.1-0.3-0.3V209c0-0.2-0.1-0.3-0.3-0.3h-3.1c-0.2,0-0.3,0.1-0.3,0.3v8.5
				c0,0.2-0.2,0.3-0.3,0.3h-2.1c-0.2,0-0.3-0.1-0.3-0.3v-19.2c0-0.2,0.1-0.3,0.3-0.3h2.1c0.2,0,0.3,0.1,0.3,0.3v7.3
				c0,0.2,0.1,0.3,0.3,0.3H280.4z"/>
			<path class="st0" d="M306.1,198.3c0.1-0.1,0.4-0.2,0.5-0.2h3.5c0.2,0,0.4,0.1,0.5,0.2l2.2,2.2c0.1,0.1,0.2,0.4,0.2,0.5v13.9
				c0,0.2-0.1,0.4-0.2,0.5l-2.2,2.2c-0.1,0.1-0.3,0.2-0.5,0.2h-3.5c-0.2,0-0.4-0.1-0.5-0.2l-2.2-2.2c-0.1-0.1-0.2-0.4-0.2-0.5V201
				c0-0.2,0.1-0.4,0.2-0.5L306.1,198.3z M310.1,214.3c0.1-0.1,0.2-0.4,0.2-0.5v-11.7c0-0.2-0.1-0.4-0.2-0.5l-0.5-0.5
				c-0.1-0.1-0.4-0.2-0.5-0.2h-1.2c-0.2,0-0.4,0.1-0.5,0.2l-0.6,0.5c-0.1,0.1-0.2,0.4-0.2,0.5v11.7c0,0.2,0.1,0.4,0.2,0.5l0.6,0.6
				c0.1,0.1,0.4,0.2,0.5,0.2h1.2c0.2,0,0.4-0.1,0.5-0.2L310.1,214.3z"/>
			<path class="st0" d="M333.4,198.3c0-0.2,0.1-0.3,0.3-0.3h6.1c0.2,0,0.4,0.1,0.5,0.2l2.2,2.2c0.1,0.1,0.2,0.4,0.2,0.5v6.5
				c0,0.2-0.1,0.4-0.2,0.5l-2.2,2.2c-0.1,0.1-0.4,0.2-0.5,0.2h-3.4c-0.2,0-0.3,0.2-0.3,0.3v6.9c0,0.2-0.1,0.3-0.3,0.3h-2.1
				c-0.2,0-0.3-0.1-0.3-0.3V198.3z M339.8,206.8c0.1-0.1,0.2-0.4,0.2-0.5v-4.2c0-0.2-0.1-0.4-0.2-0.5l-0.6-0.5
				c-0.1-0.1-0.3-0.2-0.5-0.2h-2.2c-0.2,0-0.3,0.1-0.3,0.3v6.2c0,0.2,0.1,0.3,0.3,0.3h2.2c0.2,0,0.4-0.1,0.5-0.2L339.8,206.8z"/>
		</g>
		<rect x="277.8" y="177.6" class="st0" width="91.6" height="3"/>
		<rect x="48.6" y="177.6" class="st0" width="164.9" height="3"/>
	</g>
</g>
</svg>
