<?xml version="1.0" encoding="utf-8"?>
<!-- Generator: Adobe Illustrator 19.0.1, SVG Export Plug-In . SVG Version: 6.00 Build 0)  -->
<svg version="1.1" xmlns="http://www.w3.org/2000/svg" xmlns:xlink="http://www.w3.org/1999/xlink" x="0px" y="0px"
	 viewBox="0 0 700 144.8" style="enable-background:new 0 0 700 144.8;" xml:space="preserve">
<style type="text/css">
	.st0{fill:#1F2328;}
	.st1{fill:#FFFFFF;}
	.st2{fill:#630D0D;}
	.st3{fill:#3399CC;}
	.st4{clip-path:url(#SVGID_2_);}
	.st5{fill:#FFFFFF;stroke:#630D0D;stroke-width:2.44;stroke-miterlimit:10;}
	.st6{fill:none;stroke:#630D0D;stroke-width:0.8133;stroke-miterlimit:10;}
	.st7{fill:#640D0F;}
	.st8{fill:#1E2227;stroke:#FFFFFF;stroke-width:0.5;stroke-miterlimit:10;}
	.st9{clip-path:url(#SVGID_6_);}
</style>
<g id="Layer_1">
	<g>
		<g>
			<path class="st1" d="M659.5,72.5c0,0-9.1-18.6-13.6-21.9c-12.2-8.8-26.4-9.3-63.8-15.7l0.7,54c6.5,3.5,36.3-3.3,47.9-3.7
				c21.1-0.6,36.1,11.6,51.6,12.1c7.4,0.3,15.1,0.7,17-1.8c0,0-1.3-7.5-2.4-10.6C684.4,79.8,659.5,72.5,659.5,72.5z"/>
			<path class="st1" d="M668.7,115.4L668.7,115.4c-8.1-0.3-14.9,6.1-15.2,14.3c0,0.5,0,0.9,0,1.4c0.5,7.6,6.6,13.5,14.2,13.8
				c0.2,0,0.3,0,0.5,0c7.4,0,13.7-5.5,14.6-12.9c0.1-0.5,0.1-0.9,0.1-1.4C683.2,122.4,676.8,115.6,668.7,115.4z"/>
			<path class="st1" d="M590.9,114.7c-3.9-0.1-7.7,1.3-10.6,4c-2.9,2.7-4.5,6.3-4.6,10.3c0,0.5,0,0.9,0,1.4
				c0.5,7.6,6.6,13.5,14.2,13.8c0.2,0,0.3,0,0.5,0c7.4,0,13.7-5.5,14.6-12.9c0.1-0.5,0.1-0.9,0.1-1.4c0.1-3.9-1.3-7.7-4-10.6
				C598.5,116.5,594.8,114.9,590.9,114.7z"/>
			<path class="st1" d="M539,114.3c-3.9-0.1-7.7,1.3-10.6,4c-2.9,2.7-4.5,6.3-4.6,10.3c0,0.5,0,0.9,0,1.4
				c0.5,7.6,6.6,13.5,14.2,13.8c0.2,0,0.3,0,0.5,0c7.4,0,13.7-5.5,14.6-12.9c0.1-0.5,0.1-0.9,0.1-1.4c0.1-3.9-1.3-7.7-4-10.6
				C546.6,116.1,542.9,114.5,539,114.3z"/>
			<path class="st1" d="M383.3,113.2c-8.1-0.3-14.9,6.1-15.2,14.3c0,0.5,0,0.9,0,1.4c0.5,7.6,6.6,13.5,14.2,13.8c0.2,0,0.3,0,0.5,0
				c7.4,0,13.7-5.5,14.6-12.9c0.1-0.5,0.1-0.9,0.1-1.4C397.8,120.2,391.4,113.4,383.3,113.2z"/>
			<path class="st1" d="M699.9,103c-31.7,4.4-41.7-8.9-64.7-10.2c-16.4-0.9-31.4,2.3-42,4.2c-9.9,1.8-17.3-2.4-17.3-2.4
				s-0.2-5.9-0.2-8.1c-0.1-10.4-0.9-72.1-0.9-72.1C515.8-2.5,399-3,319.4,5.1c0,0-3.5,34.6-0.8,64.7c4,44,8.8,59.7,8.8,59.7
				c26.8-7.5,133.4-8.9,150.9-8.3c60.4,2.1,106.7,4.5,163.7,7.1c10.2,0.5,18.5,0.9,23.8,1.3c13.8,1,25.8,1.7,32.2,0.8
				C699.9,119.5,700.2,110.4,699.9,103z M347.8,109.6c-5.6,0.7-10.8-3.2-11.5-8.8c-0.7-5.6,3.2-10.8,8.8-11.5
				c5.6-0.7,10.8,3.2,11.5,8.8C357.3,103.7,353.4,108.9,347.8,109.6z"/>
		</g>
		<g>
			<path class="st1" d="M44.7,16.9H30.1v49.7H17.1V16.9H2.6v-13h42.1V16.9z"/>
			<path class="st1" d="M98,44.3c1.7,1.5,3.1,3.1,4.3,5c1.2,1.9,2.2,3.8,2.9,5.7c0.8,2,1.3,3.9,1.7,5.9c0.3,2,0.5,3.9,0.5,5.6H101
				h-6.5c0-0.4,0-1.1-0.1-2c-0.1-0.9-0.3-2-0.6-3.1c-0.3-1.1-0.7-2.3-1.3-3.5c-0.6-1.2-1.4-2.3-2.3-3.3c-1-1-2.2-1.8-3.7-2.5
				c-1.5-0.6-3.3-0.9-5.4-0.9H65.7v15.4H52.9V3.8h28.3c0.2,0,0.9,0,1.9,0.1s2.3,0.3,3.7,0.8c1.5,0.4,3,1.1,4.7,1.9
				c1.7,0.9,3.4,2.1,5,3.7c4.7,4.7,7.1,11.2,7.1,19.5c0,3.2-0.5,6.1-1.5,8.5C101,40.6,99.7,42.6,98,44.3z M81.1,38.3
				c0.7,0,1.6-0.1,2.6-0.3c1.1-0.2,2.1-0.6,3.2-1.2c1-0.6,1.9-1.5,2.6-2.6c0.7-1.1,1.1-2.6,1.1-4.5c0-3-0.4-5.3-1.2-7
				c-0.8-1.7-1.7-3-2.7-3.9c-1.1-0.9-2.1-1.5-3.2-1.7c-1.1-0.3-1.9-0.4-2.5-0.4H65.7v21.6H81.1z"/>
			<path class="st1" d="M165.8,3.9v34.2c0,1.7-0.2,3.5-0.5,5.5c-0.3,2-0.9,4.1-1.7,6.2c-0.8,2.1-1.8,4.2-3.1,6.2
				c-1.3,2-2.9,3.8-4.7,5.4c-1.9,1.6-4.1,2.8-6.6,3.8c-2.5,0.9-5.5,1.4-8.8,1.4h-0.1c-3.4,0-6.6-0.6-9.5-1.7c-2.9-1.1-5.4-2.8-7.6-5
				c-2-2-3.6-4.3-4.7-6.6c-1.1-2.4-1.9-4.6-2.4-6.7c-0.5-2.1-0.8-4-0.9-5.6c-0.1-1.6-0.2-2.5-0.2-2.9V3.9H128v34.2
				c0,0.5,0,1.1,0.1,2c0.1,0.9,0.2,1.9,0.5,3.1c0.3,1.1,0.7,2.3,1.2,3.5c0.5,1.2,1.2,2.3,2.2,3.3c0.9,1,2.1,1.9,3.5,2.5
				c1.4,0.6,3,0.9,5,0.9c2.9,0,5.2-0.7,6.8-2c1.6-1.4,2.8-2.9,3.7-4.7c0.8-1.8,1.3-3.5,1.5-5.2c0.2-1.7,0.3-2.9,0.3-3.5V3.9H165.8z"
				/>
			<path class="st1" d="M231.1,51.6c-1.4,2.2-3,4.2-4.9,6.1c-1.9,1.8-4,3.4-6.2,4.7c-2.3,1.3-4.7,2.3-7.3,3
				c-2.6,0.7-5.3,1.1-8.1,1.1c-4.3,0-8.4-0.8-12.2-2.5c-3.8-1.7-7.1-3.9-9.9-6.7c-2.8-2.8-5.1-6.2-6.7-9.9
				c-1.7-3.8-2.5-7.8-2.5-12.2c0-4.3,0.8-8.4,2.5-12.2c1.7-3.8,3.9-7.1,6.7-9.9c2.8-2.8,6.1-5.1,9.9-6.7c3.8-1.7,7.8-2.5,12.2-2.5
				c2.8,0,5.5,0.4,8.1,1.1c2.6,0.7,5.1,1.7,7.3,3c2.3,1.3,4.4,2.9,6.2,4.7c1.9,1.8,3.5,3.9,4.9,6.1l-9.6,9.6
				c-0.7-1.7-1.6-3.3-2.7-4.7c-1.1-1.4-2.4-2.6-3.9-3.7c-1.5-1-3.1-1.8-4.9-2.4c-1.8-0.6-3.6-0.9-5.6-0.9c-2.5,0-4.9,0.5-7.1,1.5
				c-2.2,1-4.2,2.3-5.8,4c-1.7,1.7-3,3.6-3.9,5.8c-1,2.2-1.5,4.6-1.5,7.2c0,2.6,0.5,5,1.5,7.2c1,2.2,2.3,4.2,3.9,5.8
				c1.7,1.7,3.6,3,5.8,4c2.2,1,4.6,1.5,7.1,1.5c1.9,0,3.8-0.3,5.6-0.9c1.8-0.6,3.4-1.4,4.9-2.4c1.5-1,2.8-2.2,3.9-3.6
				c1.1-1.4,2-2.9,2.7-4.7L231.1,51.6z"/>
			<path class="st1" d="M288.9,3.8c0,3.2-0.2,6.1-0.6,8.8c-0.4,2.7-1,5.2-1.7,7.4c-0.7,2.2-1.5,4.3-2.4,6.1
				c-0.9,1.8-1.8,3.4-2.7,4.7c-2.2,3.2-4.7,5.9-7.4,7.9c2.7,0,5,0.4,7.1,1.2c2,0.8,3.8,1.9,5.3,3.2c1.5,1.3,2.8,2.8,3.8,4.5
				c1,1.7,1.9,3.4,2.6,5.1c1.5,4.1,2.4,8.7,2.7,13.9h-12.9c0-1.9-0.2-3.5-0.6-5c-0.4-1.5-0.9-2.7-1.5-3.8c-0.6-1.1-1.3-2-2.1-2.7
				c-0.8-0.7-1.6-1.4-2.5-1.9c-1.9-1.1-4.2-1.8-6.7-2h-15.5v15.4h-12.8V3.8h12.8v28.5c2.7,0,5.1-0.4,7.1-1.2
				c2.1-0.8,3.9-1.9,5.4-3.2c1.5-1.3,2.9-2.8,4-4.5c1.1-1.7,2-3.5,2.8-5.3c1.7-4.2,2.8-8.9,3.2-14.3H288.9z"/>
			<path class="st1" d="M57.8,121.9c-1.4,2.2-3,4.2-4.9,6.1c-1.9,1.8-4,3.4-6.2,4.7c-2.3,1.3-4.7,2.3-7.3,3
				c-2.6,0.7-5.3,1.1-8.1,1.1c-4.3,0-8.4-0.8-12.2-2.5c-3.8-1.7-7.1-3.9-9.9-6.7c-2.8-2.8-5.1-6.2-6.7-9.9
				c-1.7-3.8-2.5-7.8-2.5-12.2c0-4.3,0.8-8.4,2.5-12.2c1.7-3.8,3.9-7.1,6.7-9.9c2.8-2.8,6.1-5.1,9.9-6.7c3.8-1.7,7.8-2.5,12.2-2.5
				c2.8,0,5.5,0.4,8.1,1.1c2.6,0.7,5.1,1.7,7.3,3c2.3,1.3,4.4,2.9,6.2,4.7c1.9,1.8,3.5,3.9,4.9,6.1l-9.6,9.6
				c-0.7-1.7-1.6-3.3-2.7-4.7c-1.1-1.4-2.4-2.6-3.9-3.7c-1.5-1-3.1-1.8-4.9-2.4C35,87.3,33.2,87,31.3,87c-2.5,0-4.9,0.5-7.1,1.5
				c-2.2,1-4.2,2.3-5.8,4c-1.7,1.7-3,3.6-3.9,5.8c-1,2.2-1.5,4.6-1.5,7.2c0,2.6,0.5,5,1.5,7.2c1,2.2,2.3,4.2,3.9,5.8
				c1.7,1.7,3.6,3,5.8,4c2.2,1,4.6,1.5,7.1,1.5c1.9,0,3.8-0.3,5.6-0.9c1.8-0.6,3.4-1.4,4.9-2.4c1.5-1,2.8-2.2,3.9-3.6
				c1.1-1.4,2-2.9,2.7-4.7L57.8,121.9z"/>
			<path class="st1" d="M115.5,74.2v62.7h-13.2v-23H80.6v23H67.5V74.2h13.1v26.6h21.8V74.2H115.5z"/>
			<path class="st1" d="M156.1,136.8c-4.3,0-8.4-0.8-12.2-2.5c-3.8-1.7-7.1-3.9-9.9-6.7c-2.8-2.8-5.1-6.2-6.7-9.9
				c-1.7-3.8-2.5-7.8-2.5-12.2c0-4.3,0.8-8.4,2.5-12.2c1.7-3.8,3.9-7.1,6.7-9.9c2.8-2.8,6.1-5.1,9.9-6.7c3.8-1.7,7.8-2.5,12.2-2.5
				c4.3,0,8.4,0.8,12.2,2.5c3.8,1.7,7.1,3.9,9.9,6.7c2.8,2.8,5.1,6.2,6.7,9.9c1.7,3.8,2.5,7.8,2.5,12.2c0,4.3-0.8,8.4-2.5,12.2
				c-1.7,3.8-3.9,7.1-6.7,9.9c-2.8,2.8-6.1,5.1-9.9,6.7C164.5,135.9,160.4,136.8,156.1,136.8z M156.1,87c-2.6,0-5,0.5-7.2,1.5
				c-2.2,1-4.2,2.3-5.8,4c-1.7,1.7-3,3.6-3.9,5.8c-1,2.2-1.5,4.6-1.5,7.2c0,2.6,0.5,5,1.5,7.2c1,2.2,2.3,4.2,3.9,5.8
				c1.7,1.7,3.6,3,5.8,4c2.2,1,4.6,1.5,7.2,1.5c2.5,0,4.9-0.5,7.1-1.5c2.2-1,4.2-2.3,5.8-4c1.7-1.7,3-3.6,4-5.8
				c1-2.2,1.5-4.6,1.5-7.2c0-2.6-0.5-5-1.5-7.2c-1-2.2-2.3-4.2-4-5.8c-1.7-1.7-3.6-3-5.8-4C161,87.5,158.6,87,156.1,87z"/>
			<path class="st1" d="M209.4,136.8h-12.9V74.1h30.4c2,0,4.3,0.4,6.7,1.2c2.4,0.8,4.6,2.1,6.6,3.8c2,1.8,3.7,4.1,5.1,6.9
				c1.4,2.8,2,6.3,2,10.4c0,8-2.3,14.3-6.9,18.7c-1.5,1.5-3,2.6-4.6,3.4c-1.6,0.8-3.1,1.4-4.5,1.8c-1.4,0.4-2.6,0.6-3.6,0.7
				c-1,0.1-1.7,0.1-2,0.1h-16.3V136.8z M209.4,108.2H226h-0.1c0.6,0,1.4-0.1,2.4-0.3c1-0.2,1.9-0.8,2.8-1.6c0.9-0.8,1.7-2,2.3-3.5
				c0.7-1.5,1-3.6,1-6.3c0-2-0.3-3.6-0.8-4.8c-0.5-1.2-1.2-2.2-1.9-2.8c-0.8-0.7-1.6-1.1-2.5-1.4c-0.9-0.3-1.7-0.4-2.3-0.4h-17.4
				V108.2z"/>
			<path class="st1" d="M277.5,137.4c-3.2,0-6.2-0.5-9-1.5c-2.8-1-5.3-2.4-7.4-4.1c-2.1-1.7-3.8-3.7-5-6c-1.2-2.3-1.8-4.7-1.8-7.3
				h13c0,0.5,0.2,1.1,0.7,1.8c0.5,0.7,1.2,1.3,2,2c0.9,0.6,1.9,1.2,3.2,1.6c1.3,0.4,2.7,0.6,4.3,0.6c2.6,0,4.6-0.3,6.1-0.9
				c1.5-0.6,2.6-1.3,3.3-2c0.7-0.7,1.3-1.7,1.7-2.9c0-0.7,0-1.4-0.1-2.1c-0.1-0.7-0.4-1.3-0.8-1.9c-0.8-1-2.2-1.7-4.1-2.3
				c-1.9-0.5-4.3-0.8-7.2-0.8c-2.2,0-4.1-0.2-5.8-0.6c-1.7-0.4-3.3-0.9-4.6-1.5c-1.3-0.6-2.4-1.3-3.4-2c-1-0.7-1.8-1.5-2.4-2.2
				c-1.3-1.4-2.2-2.8-2.9-4.3c-0.7-1.5-1.2-2.9-1.5-4.3c-0.3-1.3-0.4-2.5-0.5-3.5c0-1,0-1.7,0-2.2c0-0.4,0.1-1,0.2-1.9
				c0.1-0.9,0.4-1.9,0.7-2.9c0.4-1.1,0.9-2.2,1.5-3.5c0.7-1.2,1.6-2.4,2.7-3.5c4.2-4.2,9.9-6.2,17.3-6.2c7.3,0,13,2.1,17.1,6.4
				c1.4,1.5,2.5,3,3.3,4.6c0.8,1.6,1.4,3.1,1.7,4.4c0.3,1.4,0.5,2.5,0.6,3.5c0.1,1,0.1,1.6,0.1,1.8l-13-0.4v0.2
				c0-0.7-0.1-1.5-0.3-2.3c-0.2-0.9-0.7-1.7-1.4-2.5c-0.7-0.8-1.7-1.4-3-1.9c-1.3-0.5-3-0.8-5.1-0.8c-2,0-3.7,0.2-4.9,0.6
				c-1.2,0.4-2.2,0.9-2.8,1.5c-0.7,0.6-1.1,1.2-1.3,1.8c-0.2,0.6-0.3,1.1-0.3,1.5V92l-0.1,0.1c0,0.6,0.1,1.1,0.2,1.7
				c0.1,0.5,0.3,1,0.4,1.5c0.2,0.5,0.5,1,0.9,1.5c1.3,1.3,3.5,2,6.6,2c8.1,0,14.3,1.8,18.7,5.3c4.4,3.5,6.6,8.4,6.6,14.8
				c0,1.8-0.4,3.8-1.3,6c-0.9,2.2-2.3,4.2-4.2,6.1c-1.9,1.9-4.4,3.4-7.5,4.7C285.6,136.8,281.9,137.4,277.5,137.4z"/>
		</g>
	</g>
</g>
<g id="Layer_2">
</g>
</svg>
